<svg width="1024" height="1024" viewBox="0 0 1024 1024" fill="none" xmlns="http://www.w3.org/2000/svg">
<rect width="1024" height="1024" fill="#141414"/>
<path d="M422.688 369.5C415.688 369.5 409.538 368.25 404.238 365.75C399.038 363.25 394.988 359.65 392.088 354.95C389.288 350.15 387.888 344.5 387.888 338H401.388C401.388 344.1 403.338 348.9 407.238 352.4C411.138 355.8 416.288 357.5 422.688 357.5C428.888 357.5 433.838 355.7 437.538 352.1C441.238 348.5 443.088 343.8 443.088 338C443.088 333.6 441.888 329.8 439.488 326.6C437.188 323.3 433.838 321.05 429.438 319.85L412.788 315.2C405.888 313.2 400.438 309.65 396.438 304.55C392.538 299.35 390.588 293.25 390.588 286.25C390.588 280.45 391.888 275.35 394.488 270.95C397.088 266.55 400.738 263.15 405.438 260.75C410.138 258.25 415.538 257 421.638 257C427.838 257 433.288 258.25 437.988 260.75C442.788 263.15 446.538 266.55 449.238 270.95C451.938 275.25 453.288 280.25 453.288 285.95H439.788C439.788 280.95 438.088 276.9 434.688 273.8C431.288 270.6 426.938 269 421.638 269C416.338 269 412.038 270.6 408.738 273.8C405.438 276.9 403.788 280.95 403.788 285.95C403.788 289.95 404.838 293.4 406.938 296.3C409.138 299.1 412.188 301.05 416.088 302.15L433.188 306.95C440.488 308.95 446.138 312.75 450.138 318.35C454.238 323.85 456.288 330.4 456.288 338C456.288 344.4 454.888 349.95 452.088 354.65C449.388 359.35 445.488 363 440.388 365.6C435.388 368.2 429.488 369.5 422.688 369.5ZM480.979 368V258.5H514.729C521.229 258.5 526.929 259.85 531.829 262.55C536.729 265.15 540.529 268.8 543.229 273.5C545.929 278.2 547.279 283.7 547.279 290C547.279 297.4 545.379 303.75 541.579 309.05C537.779 314.35 532.729 318.05 526.429 320.15L548.779 368H533.929L512.479 321.5H494.329V368H480.979ZM494.329 309.35H514.729C520.329 309.35 524.829 307.6 528.229 304.1C531.629 300.5 533.329 295.8 533.329 290C533.329 284.1 531.629 279.4 528.229 275.9C524.829 272.4 520.329 270.65 514.729 270.65H494.329V309.35ZM570.771 368V258.5H599.121C606.221 258.5 612.321 259.85 617.421 262.55C622.621 265.25 626.621 269.05 629.421 273.95C632.321 278.85 633.771 284.65 633.771 291.35V335C633.771 341.7 632.321 347.55 629.421 352.55C626.621 357.45 622.621 361.25 617.421 363.95C612.321 366.65 606.221 368 599.121 368H570.771ZM584.271 356H599.121C605.721 356 610.871 354.15 614.571 350.45C618.371 346.75 620.271 341.6 620.271 335V291.35C620.271 284.85 618.371 279.75 614.571 276.05C610.871 272.35 605.721 270.5 599.121 270.5H584.271V356ZM378.317 567.5C371.717 567.5 365.967 566.25 361.067 563.75C356.267 561.25 352.517 557.65 349.817 552.95C347.217 548.15 345.917 542.5 345.917 536V486.5C345.917 479.9 347.217 474.25 349.817 469.55C352.517 464.85 356.267 461.25 361.067 458.75C365.967 456.25 371.717 455 378.317 455C384.917 455 390.617 456.3 395.417 458.9C400.217 461.4 403.917 465 406.517 469.7C409.117 474.4 410.417 480 410.417 486.5H396.917C396.917 480.3 395.267 475.55 391.967 472.25C388.767 468.85 384.217 467.15 378.317 467.15C372.417 467.15 367.767 468.85 364.367 472.25C361.067 475.55 359.417 480.3 359.417 486.5V536C359.417 542.2 361.067 547 364.367 550.4C367.767 553.7 372.417 555.35 378.317 555.35C384.217 555.35 388.767 553.7 391.967 550.4C395.267 547 396.917 542.2 396.917 536H410.417C410.417 542.4 409.117 548 406.517 552.8C403.917 557.5 400.217 561.15 395.417 563.75C390.617 566.25 384.917 567.5 378.317 567.5ZM460.309 566V468.8H430.309V456.5H503.809V468.8H473.809V566H460.309ZM525.95 566V456.5H559.7C566.2 456.5 571.9 457.85 576.8 460.55C581.7 463.15 585.5 466.8 588.2 471.5C590.9 476.2 592.25 481.7 592.25 488C592.25 495.4 590.35 501.75 586.55 507.05C582.75 512.35 577.7 516.05 571.4 518.15L593.75 566H578.9L557.45 519.5H539.3V566H525.95ZM539.3 507.35H559.7C565.3 507.35 569.8 505.6 573.2 502.1C576.6 498.5 578.3 493.8 578.3 488C578.3 482.1 576.6 477.4 573.2 473.9C569.8 470.4 565.3 468.65 559.7 468.65H539.3V507.35ZM640.191 566V525.05L607.191 456.5H621.591L642.891 501.5C644.091 504 645.041 506.15 645.741 507.95C646.441 509.65 646.891 510.9 647.091 511.7C647.291 510.9 647.741 509.65 648.441 507.95C649.241 506.15 650.241 504 651.441 501.5L672.741 456.5H686.691L653.691 525.05V566H640.191ZM278.326 764L250.276 681.5H264.826L282.826 737C283.926 740.3 284.876 743.5 285.676 746.6C286.476 749.6 287.076 751.95 287.476 753.65C287.976 751.95 288.576 749.6 289.276 746.6C289.976 743.5 290.826 740.3 291.826 737L309.826 681.5H324.076L296.026 764H278.326ZM377.117 765.5C370.417 765.5 364.567 764.2 359.567 761.6C354.667 758.9 350.867 755.15 348.167 750.35C345.467 745.45 344.117 739.75 344.117 733.25V685.25C344.117 678.65 345.467 672.95 348.167 668.15C350.867 663.35 354.667 659.65 359.567 657.05C364.567 654.35 370.417 653 377.117 653C383.917 653 389.767 654.35 394.667 657.05C399.567 659.65 403.367 663.35 406.067 668.15C408.767 672.95 410.117 678.65 410.117 685.25V733.25C410.117 739.75 408.767 745.45 406.067 750.35C403.367 755.15 399.517 758.9 394.517 761.6C389.617 764.2 383.817 765.5 377.117 765.5ZM377.117 753.95C383.117 753.95 387.917 752.05 391.517 748.25C395.217 744.35 397.067 739.35 397.067 733.25V685.25C397.067 679.15 395.217 674.2 391.517 670.4C387.917 666.5 383.117 664.55 377.117 664.55C371.117 664.55 366.267 666.5 362.567 670.4C358.967 674.2 357.167 679.15 357.167 685.25V733.25C357.167 739.35 358.967 744.35 362.567 748.25C366.267 752.05 371.117 753.95 377.117 753.95ZM377.117 717.5C374.417 717.5 372.217 716.75 370.517 715.25C368.917 713.75 368.117 711.6 368.117 708.8C368.117 706.1 368.917 704.05 370.517 702.65C372.217 701.15 374.417 700.4 377.117 700.4C379.817 700.4 381.967 701.15 383.567 702.65C385.267 704.05 386.117 706.1 386.117 708.8C386.117 711.6 385.267 713.75 383.567 715.25C381.967 716.75 379.817 717.5 377.117 717.5ZM467.059 765.5C463.359 765.5 460.359 764.4 458.059 762.2C455.859 760 454.759 757.15 454.759 753.65C454.759 749.95 455.859 746.95 458.059 744.65C460.359 742.35 463.359 741.2 467.059 741.2C470.759 741.2 473.709 742.35 475.909 744.65C478.209 746.95 479.359 749.95 479.359 753.65C479.359 757.15 478.209 760 475.909 762.2C473.709 764.4 470.759 765.5 467.059 765.5ZM557 765.5C550.3 765.5 544.45 764.2 539.45 761.6C534.55 758.9 530.75 755.15 528.05 750.35C525.35 745.45 524 739.75 524 733.25V685.25C524 678.65 525.35 672.95 528.05 668.15C530.75 663.35 534.55 659.65 539.45 657.05C544.45 654.35 550.3 653 557 653C563.8 653 569.65 654.35 574.55 657.05C579.45 659.65 583.25 663.35 585.95 668.15C588.65 672.95 590 678.65 590 685.25V733.25C590 739.75 588.65 745.45 585.95 750.35C583.25 755.15 579.4 758.9 574.4 761.6C569.5 764.2 563.7 765.5 557 765.5ZM557 753.95C563 753.95 567.8 752.05 571.4 748.25C575.1 744.35 576.95 739.35 576.95 733.25V685.25C576.95 679.15 575.1 674.2 571.4 670.4C567.8 666.5 563 664.55 557 664.55C551 664.55 546.15 666.5 542.45 670.4C538.85 674.2 537.05 679.15 537.05 685.25V733.25C537.05 739.35 538.85 744.35 542.45 748.25C546.15 752.05 551 753.95 557 753.95ZM557 717.5C554.3 717.5 552.1 716.75 550.4 715.25C548.8 713.75 548 711.6 548 708.8C548 706.1 548.8 704.05 550.4 702.65C552.1 701.15 554.3 700.4 557 700.4C559.7 700.4 561.85 701.15 563.45 702.65C565.15 704.05 566 706.1 566 708.8C566 711.6 565.15 713.75 563.45 715.25C561.85 716.75 559.7 717.5 557 717.5ZM646.941 765.5C643.241 765.5 640.241 764.4 637.941 762.2C635.741 760 634.641 757.15 634.641 753.65C634.641 749.95 635.741 746.95 637.941 744.65C640.241 742.35 643.241 741.2 646.941 741.2C650.641 741.2 653.591 742.35 655.791 744.65C658.091 746.95 659.241 749.95 659.241 753.65C659.241 757.15 658.091 760 655.791 762.2C653.591 764.4 650.641 765.5 646.941 765.5ZM705.383 764V751.7H735.083V666.2L705.383 688.4V672.95L730.133 654.5H748.583V751.7H772.883V764H705.383Z" fill="#FEFEFE"/>
</svg>
