<svg width="512" height="512" viewBox="0 0 512 512" fill="none" xmlns="http://www.w3.org/2000/svg">
<g clip-path="url(#clip0_2_2)">
<path d="M0 0H512V512H0V0Z" fill="#D0103A"/>
<path d="M0 0H348.2V512H0V0Z" fill="#FEDF00"/>
<path d="M0 0H163.8V512H0V0Z" fill="#0018A8"/>
<path d="M240.3 173.3C246.5 173.3 249 178.6 255.2 178.6C259 178.6 261.2 177.4 264.5 175.5C266.9 174.2 268.3 173.5 271 173.5C273.7 173.5 275.4 174.3 276.8 176.6C277.688 178.252 278.037 180.14 277.8 182C277.348 184.304 276.644 186.55 275.7 188.7C275.2 189.9 274.7 190.7 274.7 192C274.7 195.3 279.1 196.4 282.1 196.5C282.8 196.5 288.4 196.5 291.8 193.1C289.9 193.1 287.8 191.6 287.8 189.7C287.8 187.7 289.3 186.2 291.3 185.6C291.7 185.5 292.3 185.8 292.7 185.6C293.2 185.4 292.9 184.8 293.4 184.5C294.4 183.7 295 183.2 296.3 183.2C297.017 183.154 297.727 183.367 298.3 183.8C298.6 184 298.8 184.4 299.2 184.4C300.2 184.4 300.6 183.8 301.5 183.8C302.2 183.8 302.7 183.8 303.3 184.2C303.9 184.5 303.9 185.4 304.5 185.4C304.8 185.4 306.4 184.8 307.3 184.8C309 184.8 310 185.4 311.1 186.8C311.4 187.1 311.6 187.8 311.9 187.8C312.694 187.861 313.462 188.11 314.141 188.527C314.819 188.945 315.388 189.518 315.8 190.2C316 190.5 316.3 191.3 316.7 191.5C317.1 191.6 317.4 191.6 318 192C318.675 192.411 319.237 192.982 319.639 193.662C320.04 194.342 320.267 195.111 320.3 195.9C320.3 196.4 320 197.1 319.9 197.6C318.4 202.8 314.8 204.6 311.2 209C309.6 211 308.4 212.5 308.4 215C308.4 215.6 309.2 216.7 309.4 217.2C309.3 216 309.8 214.6 311 214.5C312.7 214.5 314 215.7 314.2 217.3C314.2 217.7 314.2 218.4 314 218.8C314.9 218.2 316 217.8 317.2 217.7C317.699 217.662 318.201 217.662 318.7 217.7C321.42 217.899 324.009 218.948 326.1 220.7C328.025 222.348 329.555 224.408 330.576 226.728C331.598 229.047 332.084 231.567 332 234.1C331.3 238.4 331.7 246 321 249.1C323 249.9 324.3 251.4 324.3 253.2C324.3 255.2 322.8 257 320.8 257C320.281 257.036 319.76 256.957 319.276 256.766C318.791 256.576 318.356 256.28 318 255.9C315.8 258.1 315.3 260.4 315.3 263.6C315.3 265.5 315.7 266.6 316.5 268.3C317.068 269.963 318.111 271.423 319.5 272.5C320.3 271.3 321.1 270.5 322.5 270.5C324 270.5 325.2 270.9 325.8 272.2C325.9 272.5 325.8 272.9 326 273.2C326.2 273.7 326.7 273.8 327 274.3C327.3 275.1 327 275.7 327.3 276.5C327.5 277 328 277.1 328.3 277.5C328.6 278.4 328.7 278.9 328.7 279.8C328.7 282.2 326.5 283.8 324.1 283.8C323.3 283.8 322.9 283.6 322.2 283.7C323.6 285 324.6 285.7 325.7 287.3C327.294 289.731 328.097 292.595 328 295.5C328 299.1 327.4 301.3 325.8 304.5C324.606 307.246 322.666 309.602 320.2 311.3C316.415 314.004 312.016 315.722 307.4 316.3C304 317 302.1 317.3 298.6 317.5L287.3 318.1C281.6 318.5 277.6 319.3 273.5 323.4C275.5 324.8 276.8 326.2 276.8 328.6C276.8 331 275.3 332.8 272.9 333.6C272.4 333.7 271.9 333.6 271.5 333.8C270.9 334.1 270.9 334.8 270.3 335.2C269.41 335.778 268.359 336.058 267.3 336C265.1 336 263.7 335.5 262.1 334C260.4 335.4 259.8 336.7 257.8 337.9C257.1 338.2 256.8 338.7 256.1 338.7C254.9 338.7 254.3 338 253.4 337.3C252.059 336.365 250.848 335.255 249.8 334C248 335.1 246.9 336 244.8 336C243.697 336.036 242.612 335.721 241.7 335.1C241.1 334.8 241 334.2 240.4 333.9C239.8 333.5 239.4 333.7 238.7 333.4C236.3 332.4 234.7 330.6 234.7 327.9C234.7 325.6 236.2 324.1 238.3 323.2C234.3 319.2 230.3 318.5 224.7 318.2C220.3 317.8 217.7 317.8 213.4 317.5C210 317.3 208 316.9 204.6 316.4C202 316 200.5 315.8 198.1 314.7C189.9 310.9 184.7 305.7 183.6 296.7V294.7C183.6 290 185.4 287.2 188.6 283.9C187.8 283.7 187.3 283.9 186.4 283.7C184.4 282.9 182.9 281.5 182.9 279.3C182.9 278.5 182.9 277.9 183.3 277.3C183.6 276.7 184.1 276.6 184.3 276.1C184.4 275.3 184.3 274.8 184.6 274.1C184.8 273.6 185.2 273.6 185.4 273.1C186.1 271.6 187 270.4 188.7 270.4C190.1 270.4 191 271.2 191.7 272.4C193.1 271.7 193.5 270.7 194.3 269.4C195.6 267.2 196.1 265.7 196.1 263.2C196.169 261.701 195.931 260.204 195.4 258.8C195 257.6 194.9 256.8 194 255.8C193.654 256.198 193.222 256.513 192.737 256.721C192.252 256.928 191.727 257.024 191.2 257C188.9 257 187.2 255 187.2 252.7C187.2 251 188 249.7 189.6 249C188.3 248 187.2 247.8 185.9 247C183.8 245.6 183 244.3 181.7 242.2C180.7 240.8 180.5 239.9 180.1 238.4C179.518 236.797 179.213 235.106 179.2 233.4V232.1C179.8 228.2 180.5 225.7 183 222.6C184.14 220.897 185.733 219.546 187.6 218.7C189.594 217.644 191.853 217.192 194.1 217.4C195.1 217.6 195.6 217.6 196.4 218.1C196.7 218.3 197.3 218.8 197.3 218.4L197.1 217.4C197.1 215.7 198.3 214.2 199.9 214.2C201.1 214.2 201.6 215.2 202.2 216.2C202.6 215.6 202.8 215.2 202.8 214.5C202.8 211.7 201.3 210.3 199.6 208.2C195.9 203.5 191.2 201.3 191.2 195.4C191.2 193.6 192.1 192.4 193.6 191.4C194 191.2 194.6 191.4 195.1 191.2C195.4 190.9 195.4 190.5 195.6 190.1C195.926 189.572 196.372 189.127 196.9 188.8C197.7 188 198.5 188.3 199.4 187.6C199.9 187.3 200 186.9 200.4 186.4C201.4 185.2 202.4 184.6 204 184.6C204.8 184.6 205.3 184.6 206 184.9C206.3 184.9 206.8 185.4 206.9 185.3C207 185.1 207.5 184.6 208 184.3C208.7 184 209 183.9 209.8 183.9C210.7 183.9 211.2 184.4 212.1 184.4C212.5 184.4 212.5 184.1 212.8 183.9C213.6 183.4 214 183.1 215 183.1C216 183.1 216.4 183.4 217.2 183.9C217.9 184.3 218 184.9 218.8 185.4L220 185.7C222 186.3 223.6 187.7 223.6 189.9C223.6 191.1 223.4 191.9 222.5 192.7C221.8 193.3 221.1 193.2 220.2 193.5C222.744 195.526 225.955 196.525 229.2 196.3C232.7 196.3 236.8 195 236.8 191.6C236.8 190 235.9 189.2 235.3 187.8C234.189 185.669 233.606 183.303 233.6 180.9C233.6 178.7 233.8 177.4 235.1 175.6C236.4 173.7 238.1 173.3 240.3 173.3Z" fill="#C7B37F"/>
<path d="M217.9 191.2C218.1 192.1 218.8 192.8 219.9 193.2C220.453 193.318 221.028 193.277 221.559 193.083C222.09 192.888 222.555 192.547 222.9 192.1C223.7 191.1 223.6 189.8 223.4 188.8C223.129 188.071 222.64 187.443 222 187L217.9 191.2Z" stroke="#703D29" stroke-width="0.5" stroke-linejoin="round"/>
<path d="M320.8 252.9C319.8 250.6 317.4 251.6 317.2 252.9C316.9 255.9 319.5 256.7 321.3 256.2C322.2 256 322.9 255.4 323.3 254.7C323.8 253.9 323.9 252.7 323.6 251.7C323.449 251.227 323.212 250.786 322.9 250.4C322.629 250.01 322.29 249.671 321.9 249.4C321.2 249 320.4 248.9 319.2 248.9C314.8 248.9 310.9 254.2 309.6 259.7C308.876 262.852 308.808 266.12 309.4 269.3C310.071 272.689 311.702 275.813 314.1 278.3C316.333 280.459 319.037 282.068 322 283C323.1 283.3 324.2 283.3 325.1 283C327.8 282.5 329 280 327.7 277.5C326.6 275.5 323.4 274.3 321.9 276.9C321.654 277.29 321.516 277.739 321.5 278.2C321.5 278.9 321.8 279.7 322.3 280C323.5 280.8 325.3 280.6 325.3 278.5" stroke="#703D29" stroke-width="0.5" stroke-linecap="round"/>
<path d="M307 283.2C308.365 281.615 310.239 280.554 312.3 280.2C314.7 280 316.8 280.7 318.9 281.8C321.485 283.006 323.669 284.929 325.194 287.339C326.718 289.75 327.519 292.548 327.5 295.4C327.5 298.4 326.7 301.4 326 303C325.3 304.3 323.5 310.1 313.7 314.2C307.062 316.251 300.147 317.263 293.2 317.2C284.8 317.6 277.2 317.9 272.7 323.4" stroke="#703D29" stroke-width="0.7"/>
<path d="M309.1 292.6C308.9 291.7 309.1 290.9 309.8 289.9C310.8 288.6 312.7 288.2 314.5 289.2C315.1 289.5 315.8 290 316.5 290.9L317.5 292.1L318.3 294.1C320.3 299.7 317.1 305.8 313.1 308.2C309.9 310.2 306.1 311 301.6 311.5L296.3 311.8H288.7C286.768 311.7 284.832 311.7 282.9 311.8L276.9 312.4L272.5 313.2L271 313.6L270 313.9C267.3 314.657 264.711 315.766 262.3 317.2C261.6 317.6 260.8 318.1 260.3 318.6L259.2 319.6C257.7 321 256.1 322.6 255.7 324.9V326.2C255.7 327.6 256.8 329.6 260 330.2M264.4 194.1C265 195.3 265.4 196.1 265 197.2C264.6 198.6 263.6 199.5 262.2 199.5C259 199.5 257.2 195.7 258.6 193.3C261.1 189 266 191.4 270.6 193.5C270.3 192.5 269.9 192.1 270 190.7C270 187.4 272.6 185.9 273.6 182.7C274.2 180.9 274.4 179.3 273 178C271.9 176.8 270.5 176.9 269 177.5C265.9 178.7 262.2 182.1 255.7 182.2C249.2 182.2 245.4 178.7 242.3 177.5C240.8 176.9 239.4 176.8 238.3 178C236.9 179.3 237.1 181 237.7 182.8C238.7 185.8 241.2 187.4 241.3 190.8C241.3 192.1 241 192.4 240.7 193.5C245.3 191.5 250.4 188.8 252.7 193.3C254 195.8 252.3 199.5 249.1 199.5C247.7 199.5 246.7 198.5 246.3 197.2C245.9 196.1 246.3 195 246.9 194.1" stroke="#703D29" stroke-width="0.6"/>
<path d="M251.7 191.9C252.9 192.9 253.7 194 253.6 195.9C253.5 197.9 252.9 198.4 251.4 199.5M253.3 196.5C253.2 197.7 252.7 198.5 251.5 199" stroke="#703D29" stroke-width="0.6" stroke-linecap="round"/>
<path d="M221.4 186.6L221.9 187L222.5 187.7L222.9 188.5L223.1 189.1V190.6L222.9 191.3L222.5 191.8L222.1 192.3L221.4 192.6L220.5 192.8L219.8 193L219 192.6L218.2 192.1L217.8 191.4L217.5 190.6V190.3L221.4 186.6Z" fill="#C7B37F"/>
<path d="M220.2 189.7C219.9 188.4 218.4 188.1 217.8 188.9C216.8 190.1 217.5 192.1 219.4 192.7C219.953 192.818 220.528 192.777 221.059 192.583C221.589 192.388 222.054 192.047 222.4 191.6C223.2 190.6 223.2 189.3 222.9 188.4C222.7 187.7 222.2 187.2 221.5 186.7C219.3 185 215.8 185.4 214.7 188.2C213.2 191.8 216.4 194.5 219.4 196.5C223.2 199 227.4 199.5 230.7 199.5C238 199.4 243.6 195.9 247.2 193.9C248 193.4 248.9 193.5 249.3 194.1C249.8 194.7 249.8 195.6 249.1 196.3" stroke="#703D29" stroke-width="0.5" stroke-linecap="round"/>
<path d="M198.4 289L196.8 289.5L195.1 290.8L194.4 291.8L193.5 293.4L193.1 294.6L192.8 296.1L192.6 297.1M207.8 289.1V290.5L207.5 291.5L206.8 293.2L205.7 294.7L204.5 295.7L203.5 296.1L202.3 296.4" stroke="#703D29" stroke-width="0.5"/>
<path d="M255.8 327.3C255.5 328.6 254.3 330.1 251.5 330.7H251" stroke="#703D29" stroke-width="0.6"/>
<path d="M323.4 285C324.854 286.393 326.005 288.071 326.779 289.93C327.554 291.788 327.935 293.787 327.9 295.8C327.8 298.6 327.1 301.8 326.3 303.3C325.6 304.6 323.8 310.5 314 314.5C307.367 316.58 300.452 317.625 293.5 317.6C285.3 318 277.7 318.3 273.2 323.6" stroke="#703D29" stroke-width="0.7"/>
<path d="M310 290.3C310.6 289.4 312.8 288.4 314.6 289.3C315.406 289.678 316.097 290.265 316.6 291" stroke="#703D29" stroke-width="0.5"/>
<path d="M321.3 283L322.4 283.4C323.444 283.711 324.556 283.711 325.6 283.4C327.8 282.8 329.3 280.7 328.1 277.9C327.781 277.226 327.3 276.642 326.7 276.2" stroke="#703D29" stroke-width="0.7"/>
<path d="M192.2 223.8C190.7 224.8 189.6 225 188.4 226.3C187.462 228.033 186.756 229.883 186.3 231.8M223.2 190.4C223.2 191.8 222.2 192.7 220.8 193" stroke="#703D29" stroke-width="0.5" stroke-linecap="round"/>
<path d="M317.7 217.6C321.5 217.6 332.5 220.5 332.6 233.4C332.6 246.2 324.6 248.3 321.5 249.1" stroke="#703D29" stroke-width="0.5"/>
<path d="M318.7 217.6C325.2 217.3 331.9 222.1 332.2 234.1C332.5 243.5 325.8 247.7 322.6 248.6M315 262.7L315.2 261.5L315.6 259.5L316.2 257.8L316.9 256.5L317.7 255.5M324 252.8L323.9 254L323.5 254.9L323 255.7L322.3 256.2L321.3 256.5H319.8M308.4 214.2L308.7 212.9L309.3 211.6L310 210.4L311.4 208.7L312.4 207.5L314.1 205.8L315.6 204.3L316.6 203.2L317.8 201.7L318.8 200L319.5 198.7L319.9 196.9L320 194.8L319.8 194.1M310 296.7L311.3 296.4L312.3 295.9L312.8 295.4L313.2 294.7L313.4 293.7V293.1M187 283.3L187.9 283.4H189.1L190.4 282.9M194.4 253.6L194.2 254.8L194 255.2L193.6 255.7L193.1 256.1L192.5 256.4L191.7 256.5H191.2M199.2 244L198.9 245.8L198.5 246.5L197.8 247.5L196.8 248.2L195.9 248.7L194.1 249.1M206.3 217.3L206 218.3L205.5 219.1L204.9 220L204.1 220.7L203.1 221.2L202.3 221.4H201.7M202 216.4V217.2" stroke="#703D29" stroke-width="0.5"/>
<path d="M203.4 243.3C202.928 243.723 202.387 244.061 201.8 244.3M322.2 280L322.6 280.2C323.6 280.9 325.9 280 325.3 278.2" stroke="#703D29" stroke-width="0.5" stroke-linecap="round"/>
<path d="M318.2 255.7C319 256.7 320.6 257 321.8 256.7C322.7 256.5 323.3 255.9 323.8 255.1C324.2 254.3 324.4 253.2 324.1 252.1C323.949 251.627 323.712 251.186 323.4 250.8C323.088 250.382 322.718 250.012 322.3 249.7L322 249.5M327.2 276.7C327.219 276.5 327.219 276.3 327.2 276.1C327.2 275.2 326.8 274.4 326.2 273.8C326 273.6 325.8 273.3 325.5 273.2M325.9 273.5C325.9 272 324.6 271 323.1 270.7M319.8 273C319.4 272.7 319 272.5 318.8 272.1C316.605 269.809 315.355 266.773 315.3 263.6C315.3 260.3 316.6 256.9 318.1 255.6M273 323.3L274.5 322L275.5 321.2L277.3 320.1L279.1 319.2L280.3 318.9L282.8 318.4L285.7 317.9M262 333.4C260.484 335.613 258.368 337.348 255.9 338.4C253.432 337.348 251.316 335.613 249.8 333.4" stroke="#703D29" stroke-width="0.5"/>
<path d="M251.5 330.1C251.2 331.318 250.618 332.448 249.8 333.4" stroke="#703D29" stroke-width="0.5" stroke-linecap="round"/>
<path d="M251.8 328.4L251.4 330.2M249.6 333.5L248.8 334.3L247.4 335L245.9 335.5M241.4 193.3C241.6 192.7 241.8 192.2 241.7 191.2C241.7 187.8 239.2 186.3 238.2 183.2C237.6 181.4 237.3 179.8 238.7 178.4C239.9 177.3 241.2 177.4 242.7 177.9C245.9 179.1 249.6 182.6 256.1 182.7M256.1 182.7C249.6 182.6 245.9 179.1 242.8 177.9C241.2 177.3 239.8 177.1 238.6 178.3C237.2 179.6 237.6 181.3 238.2 183.3C239.2 186.3 241.5 187.8 241.6 191.2C241.6 192.2 241.4 192.7 241.2 193.2M256.1 182.7C262.6 182.6 266.4 179.1 269.4 177.9C270.9 177.4 272.2 177.3 273.4 178.4C272.2 177.3 271.4 177.2 269.8 177.5C268 177.8 262.5 182.1 256.1 182.5M319.8 273C318.255 271.851 316.999 270.358 316.132 268.64C315.264 266.922 314.808 265.025 314.8 263.1C314.8 259.8 316.1 256.4 317.7 255.1M261.7 333.1C260.211 335.298 258.131 337.031 255.7 338.1C253.193 337.069 251.039 335.332 249.5 333.1" stroke="#703D29" stroke-width="0.5"/>
<path d="M245.3 195L247.2 194C248 193.4 249.1 193.5 249.5 194C250 194.7 250.1 195.7 249.4 196.3" stroke="#703D29" stroke-width="0.5" stroke-linecap="round"/>
<path d="M235.8 199.4C240.2 198.5 243.8 196.5 246.4 195M272.3 326.4L272.9 327.1L273.1 327.8C273.3 329 272.5 329.8 271.6 329.9C271.023 329.97 270.439 329.852 269.935 329.564C269.431 329.276 269.033 328.832 268.8 328.3M235.5 199.2C239.9 198.2 243.5 196.3 246.2 194.8M324.2 280.3C323.5 280.6 323 280.6 322 280.1L320.5 279.3C318.5 278.2 316 276.3 313.7 272.1C313.115 270.96 312.678 269.751 312.4 268.5C312.2 267.6 312 266.7 312 265.8C311.961 264.119 312.129 262.44 312.5 260.8C312.958 258.173 314.057 255.7 315.7 253.6C316.7 252.3 317.4 251.6 319.2 251.6M204.2 220.1C204.88 220.654 205.424 221.357 205.788 222.154C206.152 222.952 206.328 223.823 206.3 224.7C206.3 227.2 204.3 231.2 199.1 232.7C197.1 233.2 195.3 232.7 194.1 232" stroke="#703D29" stroke-width="0.5"/>
<path d="M205 228.5C206 229.1 206.3 229.9 206.3 231.1C206.3 231.9 205.8 233.1 204.8 234.1C203.906 235.074 202.826 235.859 201.624 236.408C200.421 236.958 199.121 237.261 197.8 237.3C196.093 237.344 194.415 236.855 193 235.9C191.502 234.888 190.433 233.355 190 231.6" stroke="#703D29" stroke-width="0.5"/>
<path d="M205 233.8C206 234.8 206.3 236 206.3 237.5C206.3 239.7 205.4 241.4 203.3 243.2C202.865 243.621 202.357 243.96 201.8 244.2M305.4 226.6V229.5M305.1 225.9V229.9M305.4 217.3V222.5M305.1 216.2V223.2M303.6 288.9C302.6 290.9 301.8 291.9 300.3 293.4C298.95 294.78 297.356 295.898 295.6 296.7C293.954 297.506 292.204 298.078 290.4 298.4C288.3 298.9 287 299 284.9 299.1C282.9 299.1 281.8 299.1 279.8 298.9C277.7 298.9 276.5 298.5 274.4 298.3C272.7 298.2 271.7 298 269.9 298C266.93 297.928 263.975 298.438 261.2 299.5C259 300.4 256.6 301.9 256.1 302.5C255.6 301.9 253.1 300.4 251 299.5C248.194 298.425 245.204 297.915 242.2 298C240.5 298 239.5 298.2 237.8 298.3C235.7 298.5 234.5 298.8 232.4 298.9C228.861 299.239 225.291 299.071 221.8 298.4C219.7 297.9 218.5 297.6 216.5 296.6C214.603 295.712 212.903 294.454 211.5 292.9M245.1 335.6L246.6 335.4M270.8 333.5L272.2 333.4L273.6 332.8L274.6 332.3L275.9 330.7L276.2 330.1L276.4 328.8V328.2M314 218.8C314.6 216.7 313.8 214.5 311.8 214.5M206.2 251.8C205.729 253.352 204.694 254.672 203.3 255.5M206.3 218.1C206.063 218.82 205.672 219.479 205.154 220.032C204.636 220.585 204.003 221.017 203.3 221.3C201.9 222 200.1 221.3 199.3 220.7" stroke="#703D29" stroke-width="0.5"/>
<path d="M195 225.9C196.3 226.5 197.5 225.6 197.3 224C197.198 223.528 196.95 223.1 196.591 222.777C196.232 222.454 195.78 222.252 195.3 222.2" stroke="#703D29" stroke-width="0.5" stroke-linecap="round"/>
<path d="M200.1 293.3C200.4 293.6 200.5 293.9 200.8 293.9C201.3 294 201.8 294.2 202.3 293.5C203 292.6 202.6 291.3 201.9 290.4C201.294 289.796 200.511 289.402 199.665 289.276C198.819 289.15 197.955 289.299 197.2 289.7C196.7 290 195.9 290.4 195.2 291.3L194.3 292.6L193.4 294.6C191.8 299.2 193.7 304.1 196.8 307.1" stroke="#703D29" stroke-width="0.5"/>
<path d="M272.2 326.3L272.7 326.9L272.9 327.6C273.1 328.8 272.3 329.6 271.3 329.6C270 329.8 269.1 329 268.6 328" stroke="#703D29" stroke-width="0.5" stroke-linecap="round"/>
<path d="M311.6 187.8C312.946 188.026 314.175 188.703 315.084 189.721C315.993 190.74 316.528 192.037 316.6 193.4C316.6 197 315.4 198.3 313.5 200.8C311.5 203.5 305 208.5 305 214.2C305 217.6 306 219.8 308.4 220.9C310 221.6 311.9 220.9 312.7 220.1C314.7 218.2 314 214.9 311.7 214.5C309.2 214.1 308.7 218.2 311.2 217.9M325.5 273.2C325.384 272.511 325.03 271.884 324.501 271.427C323.971 270.971 323.299 270.714 322.6 270.7C321.804 270.7 321.041 271.016 320.479 271.579C319.916 272.141 319.6 272.904 319.6 273.7C319.6 274.5 320 275.2 320.5 275.7" stroke="#703D29" stroke-width="0.5"/>
<path d="M307.1 220.1C306.42 220.653 305.876 221.356 305.512 222.154C305.148 222.952 304.973 223.823 305 224.7C305 227.2 307 231.2 312.2 232.7C314.1 233.2 316 233.1 317.2 232.4M192.3 224.2C190.779 224.673 189.448 225.619 188.5 226.9C187.552 228.393 186.906 230.058 186.6 231.8C186.5 232.5 186.3 234.8 186.7 237.1C187.036 238.709 187.681 240.237 188.6 241.6L189.4 242.6L190.3 243.3M241.5 316.9C245.4 318.7 248.2 319.9 250.7 323.8C251.58 325.416 251.89 327.28 251.582 329.094C251.273 330.908 250.364 332.565 249 333.8C248.274 334.448 247.413 334.928 246.479 335.205C245.546 335.481 244.562 335.548 243.6 335.4C242.1 335.2 240.6 334.1 240.4 333.4M203.2 243.4C204.209 244.028 205.03 244.917 205.576 245.973C206.121 247.029 206.371 248.213 206.3 249.4C206.3 252.4 204.8 254.2 203.1 255.3" stroke="#703D29" stroke-width="0.5"/>
<path d="M201.2 253.1C204.5 257.2 206.2 259.6 206.3 264.4C206.4 269 204.9 272.1 202.3 275.4" stroke="#703D29" stroke-width="0.5" stroke-linecap="round"/>
<path d="M263.8 199.5C264.428 199.068 264.888 198.432 265.1 197.7C265.5 196.5 265.5 195.5 264.8 194.6C265.6 195.6 265.7 196.5 265.5 197.7C265.3 198.5 264.8 198.9 264.2 199.5M305.4 268.5V281.3C305.399 282.44 305.299 283.577 305.1 284.7M305.1 267.2V283L304.7 285.1M305.1 250.8V262.4M305.4 251.7V261.1M305.4 239.6V246.7M305.1 238.8V247.6M305.4 232.4V235.2M305.1 231.8V235.8M303.7 288L303.4 288.5C302.572 290.237 301.418 291.799 300 293.1C298.671 294.434 297.113 295.518 295.4 296.3C293.728 297.149 291.943 297.755 290.1 298.1C288.1 298.6 286.8 298.7 284.6 298.8C282.6 298.8 281.6 298.8 279.6 298.6C277.4 298.5 276.3 298.2 274.2 298C272.4 297.9 271.4 297.7 269.7 297.7C266.697 297.618 263.706 298.127 260.9 299.2C258.8 300.1 256.4 301.6 255.9 302.2C254.388 300.909 252.662 299.894 250.8 299.2C247.993 298.127 245.003 297.618 242 297.7C240.3 297.7 239.3 297.9 237.5 298C235.5 298.2 234.3 298.5 232.1 298.6C228.594 298.93 225.059 298.761 221.6 298.1C217.856 297.428 214.384 295.693 211.6 293.1C210.903 292.388 210.267 291.619 209.7 290.8M208.1 288.3C208.247 289.402 208.163 290.522 207.853 291.589C207.543 292.657 207.014 293.648 206.3 294.5C205.6 295.2 204.1 296.5 202.3 296.5C199.3 296.6 198.3 294.5 198.2 294" stroke="#703D29" stroke-width="0.5"/>
<path d="M204.5 287C205.108 287.616 205.614 288.325 206 289.1C206.7 290.5 206.5 292.9 205.9 294.1C205.806 294.206 205.706 294.306 205.6 294.4M189.5 308.8C191.3 310.8 194 312.8 198.2 314.5C204.833 316.584 211.748 317.63 218.7 317.6C226.7 317.9 234.2 318.3 238.7 323.3M252.6 320C254.002 321.231 255.098 322.772 255.8 324.5M249.9 333.7C249.742 333.875 249.575 334.042 249.4 334.2C248.685 334.835 247.841 335.306 246.926 335.583C246.011 335.859 245.047 335.933 244.1 335.8C243.41 335.728 242.742 335.513 242.14 335.168C241.537 334.824 241.013 334.358 240.6 333.8M236.3 331.4L236.6 331.7C237.626 332.857 239.059 333.574 240.6 333.7M262.2 333.7C260.67 335.876 258.555 337.575 256.1 338.6C253.632 337.548 251.516 335.813 250 333.6L249.8 333.3M262.2 333.6L262.8 334.2C263.515 334.835 264.359 335.306 265.274 335.583C266.189 335.859 267.153 335.933 268.1 335.8C268.766 335.739 269.409 335.528 269.981 335.181C270.553 334.835 271.038 334.362 271.4 333.8L271.8 333.2" stroke="#703D29" stroke-width="0.5"/>
<path d="M271.2 333.3L270.6 334.3L269.7 335L268.4 335.6H267" stroke="#703D29" stroke-width="0.5"/>
<path d="M274.4 324.2C275.214 324.798 275.867 325.588 276.3 326.5C276.5 327.1 276.7 327.8 276.7 328.5C276.744 329.666 276.351 330.807 275.6 331.7C275.046 332.32 274.368 332.818 273.61 333.163C272.853 333.507 272.032 333.69 271.2 333.7C271.1 333.703 271 333.703 270.9 333.7M271 333.5C270.236 333.517 269.477 333.375 268.771 333.082C268.065 332.789 267.428 332.353 266.9 331.8M317.9 277.5C316.275 276.012 314.922 274.252 313.9 272.3C313.315 271.16 312.878 269.951 312.6 268.7C312.4 267.8 312.2 267 312.2 266.1C312.2 264.5 312.3 262.9 312.7 261.1C313.192 258.435 314.324 255.93 316 253.8C316.5 253.2 317 252.4 317.6 252M316.6 191.4C318.6 191.6 320.4 193.7 320.4 195.9C320.4 199 319.4 200.3 316.9 203.3C314.8 206 308.4 210.6 308.6 215C308.6 215.8 309.1 216.6 309.6 217.2M307 220C307.4 220.5 308 220.8 308.6 221.1C309.147 221.319 309.735 221.415 310.323 221.38C310.91 221.345 311.483 221.182 312 220.9M295.1 186.3C295.893 186.808 296.519 187.539 296.9 188.4C298.3 192 295.1 194.7 292.1 196.7C290.107 198.021 287.859 198.907 285.5 199.3" stroke="#703D29" stroke-width="0.5"/>
<path d="M291.7 193.2C291 193.2 290.1 193 289.2 192C288.961 191.803 288.758 191.566 288.6 191.3M276.7 195.2C276.323 194.993 275.984 194.723 275.7 194.4C275 193.6 274.5 192.5 275 190.9C275.5 189.4 278 185.1 278 182.2C278.3 177.7 276.5 175 273.8 174" stroke="#703D29" stroke-width="0.5"/>
<path d="M277.9 181.2L277.8 182.9L277.3 184.6L276.4 186.9L275.7 188.5L275 190L274.7 191L274.5 191.8L274.6 192.6M305.1 293.6C305.1 293.9 305.5 294.2 305.5 294.2C306.016 294.903 306.675 295.489 307.433 295.919C308.191 296.35 309.032 296.616 309.9 296.7C312.9 296.7 313.6 294.6 313.7 294.1C314.1 291.8 313.3 291.1 312.1 290.5C312.1 290.5 311.4 290.2 310.6 290.3" stroke="#703D29" stroke-width="0.5" stroke-linecap="round"/>
<path d="M189.6 283.5C188.619 283.778 187.581 283.778 186.6 283.5C184.3 282.8 182.6 280.6 183.5 278M194.2 252.5C194.4 252.7 194.5 253.1 194.5 253.3C194.8 256.3 192.3 257.1 190.5 256.7C189.466 256.387 188.578 255.713 188 254.8C187.686 254.251 187.514 253.632 187.5 253M205.2 234C205.6 234.5 206 235 206.2 235.5M205.2 228.7C205.7 229 206 229.3 206.2 229.7" stroke="#703D29" stroke-width="0.5"/>
<path d="M206.3 232.4C205.988 233.138 205.548 233.815 205 234.4C204.098 235.355 203.014 236.122 201.812 236.654C200.61 237.186 199.314 237.474 198 237.5C196.293 237.544 194.615 237.055 193.2 236.1C191.589 235.097 190.412 233.527 189.9 231.7" stroke="#703D29" stroke-width="0.5" stroke-linecap="round"/>
<path d="M204.3 220.2C205.203 220.899 205.895 221.833 206.3 222.9" stroke="#703D29" stroke-width="0.5"/>
<path d="M206.3 226.6C205.79 228.173 204.875 229.584 203.646 230.69C202.417 231.796 200.918 232.558 199.3 232.9C197.516 233.29 195.65 232.967 194.1 232" stroke="#703D29" stroke-width="0.5" stroke-linecap="round"/>
<path d="M192 226C192.2 228.1 193.7 229.7 196.3 229.8C200.1 229.8 202.3 224.4 199 220.5" stroke="#703D29" stroke-width="0.5"/>
<path d="M183.6 244.4C184.1 245.1 184.8 245.7 185.4 246.3C186.805 247.487 188.439 248.372 190.2 248.9M194.4 249.3C197.8 248.9 199.7 246.4 199.3 243.5C199 241.2 196.9 239.5 195.5 239.5" stroke="#703D29" stroke-width="0.5" stroke-linecap="round"/>
<path d="M199.9 214.5C201.3 214.5 202.2 215.8 202.1 216.9" stroke="#703D29" stroke-width="0.5"/>
<path d="M199.5 194.5C200.272 196.443 201.683 198.066 203.5 199.1M319 224C319.369 224.572 319.573 225.236 319.589 225.916C319.605 226.597 319.434 227.269 319.092 227.859C318.751 228.448 318.254 228.932 317.655 229.257C317.057 229.582 316.38 229.735 315.7 229.7C314.996 229.687 314.306 229.497 313.694 229.147C313.083 228.798 312.569 228.3 312.2 227.7" stroke="#703D29" stroke-width="0.5" stroke-linecap="round"/>
<path d="M305.4 199.3V211.9" stroke="#703D29" stroke-width="0.5"/>
<path d="M195 225.9C196.2 226.7 197.6 225.3 197 223.8C196.7 222.8 195.2 221.7 193.2 223C191.1 224.5 191.7 229.3 195.9 229.3C199.6 229.4 201.9 223.9 198.6 220.1C195.4 216.4 189.6 217.2 185.6 220.3C182.773 222.709 180.807 225.974 180 229.6C179.457 232.037 179.457 234.563 180 237C180.402 239.137 181.217 241.175 182.4 243L183.4 244.3L185 245.9C187.285 247.918 190.253 248.991 193.3 248.9C197.1 248.8 199.3 246.1 198.8 243C198.4 240 195.4 238.5 193.4 240C192.1 240.9 191.6 243.8 194 244.5C195.3 244.9 196.5 243.2 195.6 242.2M299.2 184.7C301.4 183.5 303 183.7 304.2 185.4C305.372 187.09 305.838 189.171 305.5 191.2C305.1 193.4 304.5 194.2 302.7 195.8" stroke="#703D29" stroke-width="0.5" stroke-linecap="round"/>
<path d="M304.4 185.6C306.9 184 309.6 184.6 311 186.9C312.005 188.326 312.466 190.064 312.3 191.8C312.206 193.305 311.736 194.762 310.932 196.037C310.128 197.313 309.017 198.366 307.7 199.1" stroke="#703D29" stroke-width="0.5" stroke-linecap="round"/>
<path d="M316 191.3C318 191.5 319.7 193.3 319.7 195.5C319.7 198.5 318.9 199.9 316.4 202.9C314.3 205.5 308 210.1 308.1 214.6C308.1 216.2 309.6 217.8 310.8 217.9" stroke="#703D29" stroke-width="0.5"/>
<path d="M316.3 225.9C315.1 226.7 313.7 225.4 314.3 223.9C314.7 222.9 316.1 221.7 318 223C320.2 224.5 319.6 229.3 315.4 229.3C311.7 229.4 309.1 224.1 312.7 220.1C316 216.4 322.1 217.1 325.9 220.1C327.5 221.5 330.9 225.1 331.5 229.7C332.4 235.3 332.2 242.3 326.5 246.5C324.006 248.209 321.02 249.053 318 248.9C314.2 248.8 312 246.1 312.5 243C312.9 240 315.8 238.7 317.9 240C320.1 241.1 319.7 244.3 317.3 244.5C315.9 244.7 314.8 243.2 315.7 242.2" stroke="#703D29" stroke-width="0.5" stroke-linecap="round"/>
<path d="M314.3 224C314.9 221.1 317.3 220.9 319.3 220.9C324.5 220.9 328.2 227.2 328.3 233.3C328.3 240.9 325 245.4 319.3 245.6C318 245.7 315.5 245 315.4 243.3" stroke="#703D29" stroke-width="0.5"/>
<path d="M317.5 222.7C323.1 223.9 325.1 228.9 325.1 233.7C325.1 237.6 324.7 242.9 317.1 244.7" stroke="#703D29" stroke-width="0.5" stroke-linecap="square"/>
<path d="M326.7 276.3C326.807 275.762 326.768 275.205 326.589 274.686C326.41 274.167 326.097 273.705 325.681 273.347C325.265 272.989 324.761 272.748 324.221 272.649C323.682 272.549 323.125 272.595 322.609 272.781C322.093 272.967 321.635 273.286 321.283 273.707C320.93 274.128 320.696 274.634 320.603 275.175C320.511 275.716 320.564 276.272 320.756 276.786C320.949 277.3 321.275 277.753 321.7 278.1" stroke="#703D29" stroke-width="0.5"/>
<path d="M315.6 271.5C316.813 273.514 318.538 275.17 320.6 276.3M319.6 284.7C316.9 283 311.9 280.7 307.4 282.9C306.629 283.228 305.931 283.706 305.347 284.307C304.764 284.908 304.305 285.62 304 286.4C303.568 287.704 303.479 289.098 303.741 290.446C304.004 291.795 304.61 293.053 305.5 294.1C306.509 295.294 307.944 296.048 309.5 296.2C312.5 296.2 313.2 294.2 313.3 293.7C313.6 291.5 312.3 290.6 311.7 290.4C311.1 290.2 309.5 290.2 309.1 291.4C309 291.8 309 292.5 309.3 293" stroke="#703D29" stroke-width="0.5" stroke-linecap="round"/>
<path d="M272.4 326.7C273.2 328.5 272.3 329.3 271.1 329.4C269.4 329.6 268.5 328.3 268.4 327.1C268.2 325.1 269.9 323.2 271.9 323.3C272.769 323.32 273.612 323.596 274.324 324.094C275.036 324.593 275.584 325.291 275.9 326.1C276.1 326.7 276.2 327.3 276.2 328C276.269 329.2 275.875 330.381 275.1 331.3C274.557 331.908 273.895 332.399 273.156 332.743C272.417 333.087 271.615 333.276 270.8 333.3C267.4 333.4 264.8 330.3 264.8 327C264.8 320.9 273.9 317.5 277.6 316.6C282.288 315.488 287.083 314.884 291.9 314.8C294.8 314.6 296.9 314.7 300 314.4C302.8 314.1 304.3 313.9 307.2 313.3C310.928 312.464 314.375 310.672 317.2 308.1C319.861 306.102 321.704 303.204 322.385 299.947C323.066 296.69 322.538 293.296 320.9 290.4C320.006 288.969 318.808 287.753 317.39 286.837C315.973 285.921 314.372 285.328 312.7 285.1C309.7 284.6 307.1 285.9 305.5 288.9C305.169 289.695 305.006 290.55 305.024 291.411C305.041 292.271 305.237 293.119 305.6 293.9C306.1 294.8 307.6 296.2 309.4 296.2C312.4 296.2 313.2 294.2 313.3 293.7C313.6 291.5 312.3 290.6 311.7 290.4C311.1 290.2 309.5 290.2 309.1 291.4C309 291.8 309 292.5 309.3 293" stroke="#703D29" stroke-width="0.5" stroke-linecap="round"/>
<path d="M269.8 317C265.8 318.7 263 320 260.6 323.7C259.919 324.921 259.573 326.302 259.6 327.7C259.6 329.8 260.6 332.2 262.3 333.7C263.018 334.366 263.875 334.864 264.809 335.158C265.743 335.452 266.73 335.535 267.7 335.4C269.2 335.2 270.7 334.1 270.9 333.4" stroke="#703D29" stroke-width="0.5" stroke-linecap="round"/>
<path d="M308 243.3C306.3 243.9 305 246.7 305 249.3C305 252.3 306.4 254.3 308.2 255.3" stroke="#703D29" stroke-width="0.5"/>
<path d="M310 253.1C306.8 257.2 305 259.6 305 264.4C304.9 269 306.3 272.1 309 275.4" stroke="#703D29" stroke-width="0.5" stroke-linecap="round"/>
<path d="M292.7 185.6L293 185.2C294.3 183.2 296.7 182.7 298.5 184C300.5 185.6 301.1 188.3 300.5 191.2C300.287 192.11 299.895 192.968 299.345 193.724C298.796 194.479 298.1 195.117 297.3 195.6" stroke="#703D29" stroke-width="0.5"/>
<path d="M212 184.7C210 183.7 208.3 183.9 207 185.4C206.417 186.235 206.01 187.179 205.803 188.177C205.597 189.174 205.596 190.202 205.8 191.2C206.2 193.3 206.8 194.2 208.6 195.8" stroke="#703D29" stroke-width="0.5" stroke-linecap="round"/>
<path d="M206.9 185.6C204.4 184 201.7 184.6 200.3 186.9C199.295 188.326 198.834 190.064 199 191.8C199.094 193.305 199.565 194.762 200.368 196.037C201.172 197.313 202.283 198.366 203.6 199.1" stroke="#703D29" stroke-width="0.5"/>
<path d="M199.7 187.8C198.4 187.966 197.201 188.592 196.321 189.564C195.441 190.535 194.937 191.79 194.9 193.1C194.9 196.7 195.8 198.1 197.8 200.8C199.8 203.5 206.3 208.5 206.3 214.2C206.3 217.6 205.3 219.8 202.9 220.9C201.3 221.6 199.4 220.9 198.6 220.1C196.6 218.2 197.4 214.9 199.5 214.5C202.1 214.1 202.6 218.2 200.1 217.9" stroke="#703D29" stroke-width="0.5"/>
<path d="M195.2 191.3C193.2 191.5 191.2 193.3 191.2 195.3C191.2 198.4 192.4 199.8 194.9 202.9C196.9 205.5 202.9 210.1 202.8 214.5C202.8 216.1 201.6 218.2 200.5 217.9" stroke="#703D29" stroke-width="0.5"/>
<path d="M190.5 252.9C191.5 250.6 193.9 251.6 194 252.9C194.4 255.9 191.8 256.7 190 256.2C189 256 188.4 255.4 188 254.7C187.636 254.023 187.479 253.254 187.551 252.489C187.622 251.724 187.917 250.998 188.4 250.4C188.671 250.01 189.01 249.671 189.4 249.4C190.1 249 190.9 248.9 192.1 248.9C196.5 248.9 200.4 254.2 201.7 259.7C202.424 262.852 202.492 266.12 201.9 269.3C201.229 272.689 199.598 275.813 197.2 278.3C194.965 280.456 192.261 282.065 189.3 283C188.256 283.311 187.144 283.311 186.1 283C183.9 282.4 182.4 280.2 183.6 277.5C184.6 275.4 187.9 274.3 189.4 276.9C189.5 277.2 189.7 277.6 189.7 278.2C189.7 278.9 189.4 279.7 188.9 280C187.8 280.8 185.9 280.6 186 278.5" stroke="#703D29" stroke-width="0.5" stroke-linecap="round"/>
<path d="M187 280.3C187.8 280.6 188.3 280.6 189.3 280.1L190.8 279.3C192.8 278.2 195.3 276.3 197.5 272.1C198.119 270.965 198.589 269.755 198.9 268.5C199.1 267.6 199.3 266.7 199.3 265.8C199.339 264.119 199.171 262.44 198.8 260.8C198.342 258.173 197.243 255.7 195.6 253.6C194.6 252.3 193.9 251.6 192.1 251.6M184.6 276.3C184.493 275.762 184.532 275.205 184.711 274.686C184.89 274.167 185.203 273.705 185.619 273.347C186.035 272.989 186.539 272.748 187.079 272.649C187.618 272.549 188.175 272.595 188.691 272.781C189.207 272.966 189.665 273.286 190.018 273.707C190.37 274.128 190.604 274.634 190.697 275.175C190.789 275.716 190.736 276.272 190.544 276.786C190.351 277.3 190.025 277.753 189.6 278.1" stroke="#703D29" stroke-width="0.5"/>
<path d="M185.8 273.2C185.916 272.511 186.27 271.884 186.799 271.427C187.329 270.971 188.001 270.713 188.7 270.7C189.496 270.7 190.259 271.016 190.821 271.579C191.384 272.141 191.7 272.904 191.7 273.7C191.637 274.471 191.279 275.187 190.7 275.7" stroke="#703D29" stroke-width="0.5"/>
<path d="M191.5 273C193.045 271.851 194.301 270.358 195.169 268.64C196.036 266.922 196.492 265.025 196.5 263.1C196.5 259.8 195.2 256.4 193.6 255.1" stroke="#703D29" stroke-width="0.5"/>
<path d="M195.7 271.5C194.491 273.517 192.764 275.174 190.7 276.3" stroke="#703D29" stroke-width="0.5" stroke-linecap="round"/>
<path d="M203.7 283C202.9 281.2 201.5 280.4 199.1 280.1C196.786 279.924 194.476 280.484 192.5 281.7C190.61 282.556 188.922 283.799 187.543 285.349C186.165 286.9 185.128 288.723 184.5 290.7C184.04 292.188 183.837 293.744 183.9 295.3C183.9 298.2 184.7 301.3 185.5 302.8C186.1 304.2 187.9 310 197.7 314C204.36 316.124 211.309 317.203 218.3 317.2C226.6 317.5 234.3 317.8 238.7 323.3" stroke="#703D29" stroke-width="0.5"/>
<path d="M191.7 284.7C194.4 283 199.3 280.7 203.8 282.9C205.354 283.601 206.598 284.846 207.3 286.4C207.732 287.704 207.821 289.098 207.559 290.446C207.296 291.795 206.69 293.053 205.8 294.1C205.1 294.8 203.7 296.1 201.8 296.2C198.8 296.2 198.1 294.2 198 293.7C197.7 291.5 199 290.6 199.6 290.4C200.1 290.2 201.8 290.2 202.2 291.4C202.3 291.8 202.3 292.5 202 293" stroke="#703D29" stroke-width="0.5" stroke-linecap="round"/>
<path d="M202.2 292.6C202.34 292.129 202.349 291.628 202.226 291.153C202.102 290.677 201.851 290.244 201.5 289.9C200.886 289.31 200.104 288.925 199.262 288.8C198.42 288.674 197.559 288.814 196.8 289.2C195.994 289.578 195.303 290.165 194.8 290.9L193.8 292.1L193 294.1C191 299.7 194.2 305.7 198.2 308.2C201.693 310.253 205.65 311.388 209.7 311.5L215 311.8H228.4L234.4 312.4L238.8 313.2L240.3 313.6L241.3 313.9C244.001 314.657 246.59 315.766 249 317.2C249.7 317.6 250.5 318 251 318.6L252.1 319.6C253.6 321 255.2 322.6 255.6 324.9V326.2C255.6 327.6 254.5 329.6 251.3 330.2" stroke="#703D29" stroke-width="0.5"/>
<path d="M239 326.7C238 328.5 239 329.3 240.2 329.4C241.9 329.6 242.8 328.3 242.9 327.1C243.1 325.1 241.4 323.2 239.4 323.3C238.531 323.32 237.688 323.596 236.976 324.094C236.264 324.593 235.716 325.291 235.4 326.1C235.189 326.711 235.088 327.354 235.1 328C235.003 329.187 235.361 330.366 236.1 331.3C236.655 331.92 237.332 332.418 238.09 332.763C238.847 333.107 239.668 333.29 240.5 333.3C243.9 333.4 246.5 330.3 246.5 327C246.5 320.9 237.4 317.5 233.7 316.6C229.012 315.488 224.218 314.884 219.4 314.8C216.5 314.6 214.4 314.7 211.3 314.4C208.5 314.1 207 313.9 204.1 313.3C200.372 312.464 196.925 310.672 194.1 308.1C191.439 306.102 189.596 303.204 188.915 299.947C188.234 296.69 188.762 293.296 190.4 290.4C191.294 288.969 192.493 287.753 193.91 286.837C195.327 285.921 196.928 285.328 198.6 285.1C201.6 284.6 204.2 285.9 205.7 288.9C206.5 290.3 206.3 292.7 205.7 293.9C205.289 294.575 204.719 295.138 204.038 295.539C203.358 295.94 202.589 296.167 201.8 296.2C198.8 296.2 198.1 294.2 198 293.7C197.7 291.5 199 290.6 199.6 290.4C200.1 290.2 201.8 290.2 202.2 291.4C202.3 291.8 202.3 292.5 202 293" stroke="#703D29" stroke-width="0.5"/>
<path d="M218.6 185.6C218.5 185.466 218.4 185.333 218.3 185.2C217 183.2 214.6 182.7 212.8 184C210.8 185.6 210.2 188.3 210.8 191.2C211.013 192.11 211.406 192.968 211.955 193.724C212.505 194.479 213.2 195.117 214 195.6" stroke="#703D29" stroke-width="0.5" stroke-linecap="round"/>
<path d="M293.4 191.7C290.2 195.2 286.9 196.3 282.1 196.5C280.6 196.5 277.7 196 276.1 194.8C275.1 194 273.8 192.8 274.6 190.4C275.1 188.9 277.6 184.7 277.6 181.7C277.8 177.2 276.1 174.7 273.4 173.8C268.4 172 263 177 259.8 178.1C258.484 178.558 257.092 178.761 255.7 178.7C254.1 178.7 253.2 178.7 251.5 178.1C248.3 177 242.9 172.1 237.9 173.8C235.2 174.8 233.5 177.2 233.7 181.8C233.7 184.7 236.2 188.9 236.7 190.4C237.5 192.7 236.3 194 235.2 194.8C233.393 195.904 231.318 196.492 229.2 196.5C224.3 196.3 221.2 195.2 217.9 191.7" stroke="#703D29" stroke-width="0.5"/>
<path d="M237.9 315.5C238.5 315.8 238 315.4 242.1 317.2C245.9 318.9 248.7 320.4 251.1 324.2C252.036 326.018 252.284 328.113 251.8 330.1" stroke="#703D29" stroke-width="0.5" stroke-linecap="round"/>
<path d="M238.1 332.8C238.907 333.215 239.794 333.454 240.7 333.5C244.1 333.6 246.7 330.5 246.7 327.2C246.7 325 245.5 323.2 243.8 321.6" stroke="#703D29" stroke-width="0.5"/>
<path d="M238.9 326.7C238 328.6 239.2 329.5 240.4 329.7C242.1 329.9 243 328.5 243.2 327.3C243.243 326.647 243.108 325.995 242.808 325.414C242.509 324.833 242.057 324.344 241.5 324" stroke="#703D29" stroke-width="0.5" stroke-linecap="round"/>
<path d="M312 187.8C314.6 187.8 316.9 190.7 316.9 193.6C316.9 197 315.1 199.1 313.8 200.6C312.8 201.9 311.6 203 310.2 204.4" stroke="#703D29" stroke-width="0.5"/>
<path d="M309 185.1C309.956 185.511 310.76 186.21 311.3 187.1C312.27 188.539 312.695 190.276 312.5 192C312.4 195.4 310 197.7 307.8 199.1M304 185.1L304.5 185.7C305.098 186.508 305.514 187.436 305.721 188.419C305.928 189.403 305.921 190.419 305.7 191.4C305.539 192.304 305.188 193.163 304.671 193.921C304.154 194.68 303.482 195.32 302.7 195.8M298.7 184.2C300.7 185.8 301.4 188.6 300.7 191.4C300.2 193.4 298.9 194.7 297.4 195.6M306.3 228.5C306.5 229.2 306.9 229.5 307.5 230C308.845 231.388 310.537 232.389 312.4 232.9C313.236 233.141 314.113 233.203 314.975 233.082C315.836 232.961 316.662 232.661 317.4 232.2M187 275.4C188 275.4 189 276 189.7 277.2C189.895 277.57 189.998 277.982 190 278.4C190 279.1 189.7 279.8 189.2 280.2C188 280.9 186 280.6 186.1 278.5" stroke="#703D29" stroke-width="0.5" stroke-linecap="round"/>
<path d="M193.2 249C197.2 249.8 200.9 254.5 202.2 259.7C202.924 262.852 202.992 266.12 202.4 269.3C201.729 272.689 200.098 275.813 197.7 278.3C197.2 278.9 196.7 279.3 196 279.8L195.1 280.4M188.8 270.7C190.4 270.7 191.8 272.2 191.8 273.9C191.79 274.643 191.505 275.355 191 275.9" stroke="#703D29" stroke-width="0.5"/>
<path d="M187.7 272.6C189.4 272.6 191 274.2 191 275.9C191.008 276.381 190.903 276.858 190.695 277.292C190.487 277.725 190.18 278.105 189.8 278.4" stroke="#703D29" stroke-width="0.5"/>
<path d="M203.2 255.6C204.7 257.6 205.8 259.5 206.2 261.8M206.2 268.6C205.934 269.712 205.531 270.787 205 271.8C204.276 273.178 203.33 274.428 202.2 275.5" stroke="#703D29" stroke-width="0.5" stroke-linecap="round"/>
<path d="M203.4 243.5C204.718 244.432 205.7 245.765 206.2 247.3" stroke="#703D29" stroke-width="0.5"/>
<path d="M206.3 239.6C205.747 241.052 204.814 242.33 203.6 243.3M196.3 229.5L198 229.1L199 228.3L199.7 227.3L200.2 225.9L200.5 224.7" stroke="#703D29" stroke-width="0.5" stroke-linecap="round"/>
<path d="M192.8 223.4L190.8 224.1C189.669 224.635 188.702 225.464 188 226.5C187.099 227.97 186.488 229.6 186.2 231.3C186 232 185.8 234.3 186.2 236.6C186.552 238.252 187.232 239.816 188.2 241.2L189 242.2C190 243.2 191 243.9 192.5 243.6" stroke="#703D29" stroke-width="0.5"/>
<path d="M202.4 215.8C202.2 216.8 201.6 218.1 200 218" stroke="#703D29" stroke-width="0.5" stroke-linecap="round"/>
<path d="M196.5 222.8C195 221.3 191.7 220.9 188.5 223C188 223.2 187.6 223.6 187.2 224C186.788 224.356 186.419 224.758 186.1 225.2L184.9 227.2C184.597 227.84 184.362 228.51 184.2 229.2C183.6 231.5 183.6 233.7 183.6 234.2L183.9 236.4C184.198 238.16 184.807 239.854 185.7 241.4C186.314 242.561 187.197 243.557 188.276 244.305C189.355 245.054 190.598 245.532 191.9 245.7C193.3 245.8 195.8 245.1 195.9 243.3" stroke="#703D29" stroke-width="0.5"/>
<path d="M291 189.7C291.2 188.3 292.8 188.1 293.4 188.9C294.4 190.1 293.8 192.1 291.9 192.7C291.347 192.818 290.772 192.777 290.241 192.583C289.711 192.388 289.246 192.047 288.9 191.6C288 190.6 288.1 189.4 288.4 188.4C288.6 187.7 289.1 187.2 289.8 186.7C291.9 185 295.5 185.4 296.6 188.2C298.1 191.8 294.9 194.5 291.9 196.5C288.1 199 283.9 199.5 280.6 199.5C273.3 199.4 267.7 195.9 264.1 193.9C263.3 193.4 262.4 193.5 262 194.1C261.5 194.7 261.5 195.6 262.2 196.2" stroke="#703D29" stroke-width="0.5" stroke-linecap="round"/>
<path d="M292.5 188.4C293.3 188.4 293.5 188.8 293.7 189.1C294.7 190.3 294 192.3 292.1 192.9M306.4 234.1C303.6 237.1 306.1 242.4 308.2 243.6C308.9 244.1 309.2 243.8 309.8 244.2" stroke="#703D29" stroke-width="0.5" stroke-linecap="round"/>
<path d="M306.5 228.3C305.5 229 305.3 229.7 305.2 230.9C305.165 231.488 305.253 232.076 305.46 232.627C305.667 233.179 305.987 233.68 306.4 234.1C308.389 235.952 310.983 237.019 313.7 237.1C315.441 237.165 317.157 236.675 318.6 235.7C320.098 234.687 321.167 233.155 321.6 231.4M305 281V283C304.6 285.2 304.3 286.5 303.3 288.5C302.461 290.201 301.308 291.728 299.9 293C298.55 294.379 296.956 295.498 295.2 296.3C293.559 297.14 291.809 297.746 290 298.1C288.187 298.453 286.347 298.654 284.5 298.7H279.5L274 298C272.3 297.8 271.3 297.7 269.6 297.7C266.596 297.615 263.606 298.125 260.8 299.2C258.973 299.904 257.281 300.919 255.8 302.2C255.2 301.6 252.8 300 250.6 299.2C249.287 298.635 247.91 298.232 246.5 298C244.7 297.7 243.7 297.7 241.9 297.7C240.1 297.7 239.2 297.8 237.4 298C235.4 298.2 234.1 298.5 232 298.6C230 298.7 229 298.8 227 298.7C224.8 298.7 223.6 298.5 221.4 298.1C219.591 297.746 217.841 297.14 216.2 296.3C214.2 295.3 213.2 294.6 211.5 293C210.128 291.719 209.009 290.193 208.2 288.5C207.286 286.792 206.709 284.925 206.5 283V199.6H305V281Z" stroke="#703D29" stroke-width="0.5"/>
<path d="M198.3 292.5C198.3 291.97 198.511 291.461 198.886 291.086C199.261 290.711 199.77 290.5 200.3 290.5C200.831 290.5 201.339 290.711 201.714 291.086C202.089 291.461 202.3 291.97 202.3 292.5C202.3 293.031 202.089 293.539 201.714 293.914C201.339 294.289 200.831 294.5 200.3 294.5C199.77 294.5 199.261 294.289 198.886 293.914C198.511 293.539 198.3 293.031 198.3 292.5ZM186.1 278.4C186.1 277.4 186.7 276.6 187.5 276.6C188.3 276.6 188.9 277.4 188.9 278.4C188.9 279.4 188.3 280.2 187.5 280.2C186.7 280.2 186.1 279.4 186.1 278.4Z" fill="#C7B37F" stroke="#C7B37F" stroke-width="0.3"/>
<path d="M193 242.9C193 242.1 193.7 241.4 194.4 241.4C195.2 241.4 195.8 242.1 195.8 242.9C195.8 243.7 195.2 244.3 194.4 244.3C193.7 244.3 193.1 243.7 193.1 242.9H193ZM217.6 190.4C217.5 189.5 218 188.8 218.6 188.8C219.3 188.7 220 189.3 220.1 190.1C220.1 190.9 219.7 191.6 219 191.7C218.3 191.7 217.6 191.2 217.6 190.4Z" fill="#C7B37F"/>
<path d="M191.4 251.2C191.175 251.291 190.971 251.428 190.8 251.6L190.3 252.3L190.1 253.3M193.9 274.6L194.6 273.8L195.2 273L195.6 272.3L196.1 271.3M195.1 282.3L193.9 282.9L193 283.4C192.657 283.619 192.323 283.852 192 284.1L191 284.9M203 254.6L202.4 253.9L201.7 253.2L200.9 252.7" stroke="#C7B37F" stroke-width="0.5" stroke-linecap="round"/>
<path d="M203.3 244L202.3 244.4C201.944 244.518 201.574 244.585 201.2 244.6" stroke="#C7B37F" stroke-width="0.5"/>
<path d="M190 230.8C190 231.2 190.1 231.5 190.3 231.9L191 233.3C191.565 234.157 192.318 234.875 193.2 235.4L194.4 236.1M193.5 231.4L194.5 231.9C195.257 232.23 196.074 232.4 196.9 232.4L198.4 232.3M204.1 199.8L202.5 198.8C201.572 198.179 200.76 197.4 200.1 196.5L199.4 195.5M205.4 191.9L205.9 193.2L207.1 194.9C207.8 195.7 208.4 195.9 209.3 196.5M210.4 191.8L210.9 193L211.6 194L212.6 195C213.2 195.5 213.6 195.6 214.2 196" stroke="#C7B37F" stroke-width="0.5" stroke-linecap="round"/>
<path d="M266.6 185.3C266.6 183.9 265.3 183.8 264.7 183.8C263.3 183.8 262.9 184.8 261 185.8C259.409 186.777 257.566 187.264 255.7 187.2C253.786 187.288 251.895 186.762 250.3 185.7C248.4 184.7 248.1 183.8 246.7 183.8C245.9 183.8 244.8 184.5 244.9 185.8V186.5C244.9 186.5 245.1 186.5 245.1 186.7C245.1 186 245.2 185.7 245.5 185.3C245.655 185.098 245.851 184.931 246.075 184.811C246.299 184.69 246.546 184.618 246.8 184.6C248.3 184.6 248.8 185.6 250.7 186.6C252.28 187.612 254.124 188.134 256 188.1C258 188.1 259.1 187.8 261.4 186.6C263.3 185.6 263.8 184.6 265.3 184.6C265.8 184.6 266.1 184.9 266.3 185.4V186.1H266.5C266.5 186 266.7 185.9 266.6 185.3Z" fill="#703D29" stroke="#703D29" stroke-width="0.1"/>
<path d="M211.5 299.2C211.9 298.8 212.3 298.9 212.3 298.7L212.1 298.5L211.4 298.3L210.7 298C210.7 298 210.4 297.8 210.3 298C210.3 298.3 211.2 298.3 210.8 299.1C210.8 299.3 210.7 299.6 210.2 300.1L208.1 302.4L207.9 302.6V299L208 297.6C208.2 297.2 208.6 297.6 208.7 297.3C208.7 297.1 208.7 297.1 208.5 297C208.3 297 208.1 297 207.5 296.7L206.8 296.4C206.7 296.4 206.4 296.2 206.3 296.4L206.4 296.6C206.7 296.8 206.8 296.9 206.8 297.3V303.3C206.8 303.7 206.9 303.9 207 303.9L207.3 303.7L211.5 299.1V299.2Z" fill="#703D29"/>
<path d="M214 300.1C214.3 299.3 214.8 299.8 214.9 299.5L214.6 299.3L213.6 299L212.6 298.6H212.3C212.3 299 213.3 299 213 299.9L211.6 304.3C211.3 305.1 210.8 304.7 210.7 305V305.1L211.7 305.4L212.9 305.8H213.2C213.3 305.5 212.2 305.6 212.6 304.5L214 300.1ZM217 301.1C217.1 300.5 217.4 300.5 217.7 300.6C218.5 300.9 218.7 301.7 218.5 302.6C218.3 303.1 218.1 303.6 216.9 303.3C216.6 303.2 216.3 303.1 216.4 302.9L217 301.1ZM214.7 305C214.3 306.1 213.7 305.6 213.7 306L213.9 306.1L215.2 306.5L215.9 306.7H216.2C216.2 306.3 215.3 306.5 215.6 305.5L216.1 303.9C216.1 303.6 216.1 303.5 216.6 303.6C217 303.8 217.1 303.9 217.2 304.3L217.5 306C217.5 306.6 217.7 307.3 218.3 307.4C218.6 307.6 219.3 307.5 219.3 307.2V307.1H219L218.7 306.8L218.2 303.8L218.8 303.6C219.1 303.4 219.4 303.2 219.6 302.6C219.7 302.2 219.9 300.9 218.1 300.3L216.5 299.9L215.5 299.6H215.3C215.2 300 216.2 299.9 215.9 300.9L214.7 304.9V305ZM221.4 307C221.2 308 220.4 307.4 220.2 307.7C220.2 307.9 220.3 308 220.5 308L221.7 308.2L222.8 308.6L223.3 308.5C223.3 308.2 222.2 308.2 222.5 307.1L223.5 302.9C223.5 302.4 223.7 302.4 224 302.5L224.7 302.7C225.7 302.9 225.2 303.8 225.5 303.9C225.8 303.9 225.7 303.6 225.8 303.4V302.3L223.2 301.7L220.7 301.1C220.5 301.1 220.5 301.1 220.5 301.3L220 302.5V302.8C220.5 302.9 220.5 301.6 221.4 301.8L222.1 302C222.5 302.1 222.6 302.2 222.5 302.6L221.5 306.9L221.4 307ZM231.6 304.3C231.9 303.8 232.3 303.9 232.3 303.7L232 303.5H231.3L230.6 303.3C230.5 303.3 230.2 303.2 230.2 303.3C230.2 303.7 231.1 303.5 230.9 304.3C230.9 304.5 230.8 304.9 230.4 305.4L228.7 308.1L228.6 308.3V308L228 304.8C227.901 304.374 227.867 303.936 227.9 303.5C227.9 303.1 228.4 303.3 228.5 303L228.2 302.8L227.2 302.7L226.4 302.5C226.3 302.5 226 302.4 226 302.5L226.1 302.7C226.5 302.9 226.6 303 226.6 303.4L227.7 309.3C227.8 309.7 227.9 309.8 228 309.8L228.2 309.6L231.6 304.3ZM232.1 309.7L232.2 310.1L233.6 310.7C234.7 310.9 235.6 310.2 235.9 309C236.1 307.8 235.6 307.3 234.7 306.7C233.7 305.9 233.2 305.7 233.4 305.1C233.4 304.5 233.9 304.1 234.4 304.3C235.9 304.5 235.8 306.3 236 306.3C236.1 306.3 236.2 306.3 236.2 306L236.3 304.7V304.4H235.8C235.5 304.4 235.3 304 234.6 303.9C233.6 303.7 232.8 304.4 232.6 305.5C232.4 306.5 232.8 306.9 233.6 307.4C234.8 308.3 235.3 308.4 235.2 309.3C235 310 234.4 310.4 233.8 310.3C232.8 310.1 232.5 309.2 232.3 308.3L232.2 308C232 308 232 308.3 232 308.4V309.7H232.1ZM244.7 306.2C245 305.6 245.3 305.7 245.4 305.5C245.4 305.3 245.2 305.3 245.1 305.3H244.3L243.6 305.2L243.2 305.3C243.2 305.7 244.2 305.3 244 306.3C244 306.4 244 306.8 243.7 307.3L242.3 310.2L242.1 310.4V310.2L241.1 307C240.967 306.58 240.9 306.141 240.9 305.7C240.9 305.3 241.5 305.4 241.5 305.2C241.5 305 241.5 305 241.2 305H240.2L239.4 304.9C239.3 304.9 239 304.8 239 304.9L239.1 305.1C239.5 305.3 239.6 305.4 239.7 305.7L241.4 311.5C241.5 311.9 241.6 312 241.7 312L241.9 311.7L244.7 306.2Z" fill="#703D29"/>
<path d="M246 310.8C246 311.8 245.2 311.6 245.2 312H246.2L247.2 312.1L247.6 312C247.6 311.5 246.5 312.2 246.5 310.3V306.9C246.5 306.9 246.7 306.9 246.8 307.1L250.8 312.1H251.1V311.9L251.2 306.6C251.2 305.6 252 305.8 252 305.5L251.8 305.4H249.8V305.5C249.8 305.8 250.8 305.7 250.8 306.5V309.7L250.7 310.1L250.4 309.8L247 305.6C246.9 305.4 247 305.3 246.7 305.3H245.3L245.2 305.5C245.2 305.9 246.2 305.3 246.1 307.2V310.8H246ZM254.4 306.5C254.4 305.5 255 305.9 255 305.6L254.7 305.5H252.4C252.4 305.9 253.3 305.6 253.3 306.5V311.1C253.3 312.1 252.7 311.8 252.7 312.1V312.2H255L255.3 312.1C255.3 311.8 254.3 312.2 254.3 311.1L254.4 306.5ZM258 310.9C258 312.1 257 311.6 257 311.9C257 312.2 257.2 312.2 257.3 312.2H259.7C260 312.2 260.2 312.2 260.2 312C260.2 311.7 259.1 312 259.1 310.8V306.5C259.1 306 259.1 306 259.4 306H260.2C261.2 306 260.9 307 261.2 307C261.5 307 261.4 306.6 261.4 306.5L261.3 305.6C261.3 305.6 261.3 305.4 261.1 305.4H256C255.8 305.4 255.8 305.6 255.8 305.7L255.7 306.9L255.8 307.3C256.2 307.3 255.9 306 256.9 306H257.6C258 306 258.1 306 258.1 306.5V310.9H258ZM263 309.1H262.7V308.7L263.3 306.9H263.4L264.4 308.6V308.9L264.2 309L263 309.1ZM264.5 309.5C264.7 309.5 264.8 309.5 265.1 310.3L265.3 310.9C265.3 311.5 264.7 311.5 264.7 311.7C264.7 311.9 264.9 311.8 265 311.8H266L267 311.7C267.3 311.7 267.4 311.7 267.4 311.5C267.4 311.2 266.9 311.6 266.6 310.9L263.8 305.3L263.6 305L263.4 305.4L261.5 311.3C261.3 311.8 260.9 311.8 260.9 312C260.9 312.2 261.1 312.1 261.2 312.1H262.7C262.9 312 263.2 312.1 263.2 311.8C263.2 311.6 262.2 311.8 262.2 311.1L262.3 310.4C262.5 309.7 262.6 309.7 262.8 309.7L264.5 309.5ZM271.1 305.5C271.1 304.9 271.1 304.9 272.1 304.8C273.7 304.5 273.2 305.8 273.6 305.7C273.8 305.7 273.7 305.3 273.7 305.2L273.6 304.2H273.4L271.4 304.4L269.2 304.7C269 304.7 269 304.7 269 304.9C269 305.2 270 304.9 270 305.7L270.6 310.1C270.8 311.3 270.1 310.8 270.1 311.3H270.3L271.4 311.2L272.4 311.1C272.6 311.1 272.8 311.1 272.8 310.9C272.8 310.6 271.8 310.9 271.7 309.9L271.5 308.5C271.5 308 271.4 307.9 271.8 307.8H272.4C273.3 307.6 273.2 308.7 273.4 308.6C273.7 308.6 273.6 308.3 273.5 308.1L273.3 306.5C273.3 306.2 273.1 306.2 273.1 306.2C272.9 306.2 273 307.2 272.3 307.2L271.7 307.3C271.3 307.3 271.3 307.3 271.3 306.9L271.1 305.5ZM274.3 307.7C274.6 309.7 276 310.7 277.7 310.4C280.4 309.9 280.5 307.4 280.2 306.2C279.9 304.2 278.4 303.2 276.7 303.5C274.7 303.9 273.9 305.7 274.3 307.7ZM275.2 307C274.9 305.6 275.2 304.3 276.6 304C277.6 303.7 278.9 304.6 279.3 306.7C279.6 308.3 279.3 309.7 277.9 309.9C276.4 310.2 275.5 308.4 275.2 307ZM281.9 303.7C281.7 303.1 282 303 282.3 303C283.1 302.8 283.8 303.3 284 304.3C284.1 304.8 284.2 305.3 283 305.6C282.7 305.7 282.4 305.8 282.3 305.6L281.9 303.6V303.7ZM281.9 308.2C282.2 309.4 281.4 309.2 281.5 309.5C281.5 309.7 281.7 309.7 281.8 309.6L283.1 309.3L283.8 309.2C284 309.2 284 309 284 309C284 308.6 283.2 309.2 283 308.2L282.6 306.6C282.5 306.3 282.4 306.2 282.9 306.1C283.3 306.1 283.5 306.1 283.8 306.4L284.8 307.7C285.2 308.2 285.6 308.7 286.3 308.6C286.6 308.5 287.1 308.1 287 307.9C287 307.8 287 307.7 286.9 307.8H286.3L284.3 305.5L284.8 305C284.9 304.7 285.1 304.3 285 303.7C284.9 303.3 284.4 302 282.5 302.5L280.9 302.9L279.9 303.1L279.7 303.3C279.8 303.7 280.7 303.1 280.9 304.1L281.9 308.2ZM288.8 306.7C289.1 307.7 288 307.6 288.1 307.9C288.1 308.1 288.3 308.1 288.4 308.1L289.6 307.7L290.8 307.4C291 307.4 291.2 307.4 291.1 307.2C291.1 306.9 290.1 307.4 289.8 306.3L288.7 302.1C288.6 301.7 288.7 301.6 289 301.5L289.7 301.3C290.7 301 290.7 302.1 291 302.1C291.2 302.1 291 301.7 291 301.6L290.6 300.7C290.6 300.7 290.6 300.5 290.4 300.5L287.9 301.2L285.4 301.9C285.2 301.9 285.3 302 285.3 302.1L285.5 303.4C285.5 303.5 285.5 303.7 285.7 303.7C286 303.6 285.5 302.4 286.4 302.2L287.1 302C287.4 302 287.5 302 287.7 302.4L288.7 306.7H288.8ZM293.2 300.8C292.9 299.9 293.6 300.1 293.5 299.8H293.2C292.8 299.8 292.5 300 292.2 300.1L291.2 300.3C291.2 300.3 290.9 300.3 291 300.5C291 300.8 292 300.3 292.2 301.1L293.4 305.5C293.6 306.5 293 306.3 293.1 306.7L294.1 306.5L295.4 306.2C295.6 306.1 295.6 306 295.6 305.9C295.6 305.6 294.7 306.3 294.4 305.2L293.2 300.8ZM295 302.9C295.6 304.8 297.1 305.6 298.8 305.1C301.4 304.2 301.1 301.8 300.7 300.6C300.1 298.6 298.4 297.9 296.9 298.4C294.9 299.1 294.3 301 295 302.9ZM295.8 302.1C295.4 300.8 295.4 299.4 296.8 298.9C297.8 298.5 299.1 299.2 299.8 301.3C300.3 302.8 300.3 304.1 298.8 304.6C297.4 305.1 296.3 303.4 295.8 302.1ZM301.9 297.8C301.7 297.2 301.9 297.1 302.3 297C303.1 296.7 303.8 297.2 304.1 298C304.3 298.6 304.5 299 303.3 299.6C303 299.6 302.7 299.8 302.6 299.6L301.9 297.8ZM302.6 302.3C303 303.3 302.2 303.3 302.4 303.6C302.4 303.8 302.6 303.7 302.7 303.6C303.1 303.6 303.5 303.3 303.9 303.2L304.6 302.9C304.8 302.9 304.8 302.8 304.8 302.7C304.7 302.4 304 303 303.6 302.1L303 300.6C303 300.2 302.8 300.2 303.3 300C303.7 299.9 303.8 299.9 304.2 300.2L305.4 301.4C305.9 301.8 306.4 302.2 307 302C307.3 301.9 307.7 301.5 307.6 301.2C307.6 301.2 307.6 301.1 307.5 301.2H306.9L304.7 299.2L305 298.7C305.1 298.4 305.2 298 305 297.4C304.8 297 304.2 295.8 302.4 296.5L300.8 297.2L299.8 297.5V297.7C299.9 298 300.6 297.3 301 298.3L302.6 302.3Z" fill="#703D29"/>
<path d="M211.302 204.442H253.338V246.426H211.302V204.442Z" fill="#D52B1E"/>
<path d="M231.014 237.466C231.014 237.466 231.014 239.002 230.605 240.179C230.093 241.562 230.093 241.562 229.632 242.227C229.135 243.039 228.472 243.737 227.686 244.275C226.662 244.89 225.638 245.197 224.614 245.095C221.85 244.89 220.518 241.818 219.904 239.36C219.238 236.749 217.344 235.264 216.064 236.288C215.347 236.8 215.347 237.722 215.91 238.643C216.462 239.309 217.189 239.805 218.01 240.077L216.525 241.971C216.525 241.971 213.299 241.562 212.685 238.183C212.429 236.903 213.043 234.547 215.194 233.831C217.907 232.909 219.597 234.855 220.467 236.493C221.594 238.746 222.106 242.842 225.28 242.227C227.021 241.869 227.84 239.36 227.84 238.183L229.069 236.851L230.963 237.466H231.014Z" fill="white"/>
<path d="M233.626 237.466C233.626 237.466 233.626 239.002 234.035 240.179C234.547 241.562 234.547 241.562 235.008 242.227C235.505 243.039 236.168 243.737 236.954 244.275C237.978 244.89 239.002 245.197 240.026 245.095C242.79 244.89 244.122 241.818 244.736 239.36C245.402 236.749 247.296 235.264 248.576 236.288C249.293 236.8 249.293 237.722 248.73 238.643C248.178 239.309 247.451 239.805 246.63 240.077L248.115 241.971C248.115 241.971 251.341 241.562 251.955 238.183C252.211 236.903 251.597 234.547 249.446 233.831C246.733 232.909 245.043 234.855 244.173 236.493C243.046 238.746 242.534 242.842 239.36 242.227C237.619 241.869 236.8 239.36 236.8 238.183L235.571 236.851L233.677 237.466H233.626Z" fill="white"/>
<path d="M236.083 219.648L241.613 213.658C241.613 213.658 242.432 212.992 242.432 211.917L241.306 212.122L241.05 211.507L240.998 210.944L242.534 210.586V209.92L242.688 209.254L241.05 209.357L241.203 208.64L241.459 208.128L242.432 207.923H243.405C244.326 206.182 248.115 204.646 250.778 207.411C252.723 209.459 252.314 213.146 249.754 214.17C249.181 214.424 248.547 214.506 247.929 214.406C247.311 214.306 246.735 214.028 246.272 213.606L247.296 211.558C248.678 212.429 249.856 211.405 249.754 210.33C249.651 208.947 248.73 208.128 247.552 208.026C246.374 207.923 245.504 208.538 244.992 209.562C244.685 210.227 244.838 210.688 244.736 211.405C244.634 212.173 244.736 212.582 244.48 213.35C244.23 214.057 243.808 214.691 243.251 215.194L237.619 221.338L215.603 245.094L213.965 243.558L236.083 219.648Z" fill="#FEDF00"/>
<path d="M219.904 221.696C219.904 221.696 221.286 228.557 225.997 238.848C228.403 237.978 229.786 237.414 232.346 237.414C234.854 237.414 236.237 237.926 238.643 238.848C241.265 233.358 243.307 227.609 244.736 221.696L232.346 205.824L219.904 221.696Z" fill="white"/>
<path d="M233.523 211.149L242.125 222.259C242.125 222.259 240.999 227.635 237.517 235.725C236.135 235.418 234.957 235.162 233.523 235.059V211.149ZM231.117 211.149L222.515 222.259C222.515 222.259 223.642 227.635 227.123 235.725C228.506 235.418 229.683 235.162 231.117 235.059V211.149Z" fill="#FEDF00"/>
<path d="M257.8 204.4H300V246.4H258L257.8 204.4Z" fill="#FEDF00"/>
<path d="M263.7 204.4H270V246.4H263.7V204.4ZM275.7 204.4H282V246.4H275.8L275.7 204.4ZM287.7 204.4H294V246.4H287.8L287.7 204.4Z" fill="#D52B1E"/>
<path d="M211.4 282.8C211.6 283.6 211.8 284.8 212.5 286.2C213.3 287.4 213 287.4 214.7 289.2C216.552 291.004 218.874 292.251 221.4 292.8C224.8 293.8 227.1 293.8 229.9 293.7C232.1 293.6 233.8 293.3 235.2 293.1C237.2 292.9 238.6 292.7 240.9 292.6C241.933 292.55 242.967 292.55 244 292.6C245.2 292.6 246.4 292.9 247.7 293.1C250.5 293.7 253.3 294.8 253.3 294.8V250.9H211.3V280.9L211.4 282.8Z" fill="#FEDF00"/>
<path d="M216.3 290.5L218.3 291.7L221 292.7V250.9H216.3V290.5ZM239.7 292.5V250.9H235V293.1L239.7 292.6V292.5ZM249 250.9H244.4V292.6C245.951 292.751 247.489 293.018 249 293.4V250.9ZM230.4 250.9V293.6H225.7V250.9H230.4Z" fill="#D52B1E" stroke="#D52B1E" stroke-width="0.3"/>
<path d="M299.776 282.829C299.593 284.01 299.212 285.153 298.65 286.208C297.882 287.385 298.138 287.385 296.448 289.28C294.617 291.086 292.307 292.329 289.792 292.864C287.022 293.594 284.152 293.871 281.293 293.683C279.091 293.581 277.453 293.325 276.019 293.171C274.074 292.864 272.589 292.71 270.387 292.659C269.33 292.607 268.27 292.607 267.213 292.659C264.019 293.02 260.875 293.742 257.843 294.809V250.88H299.93V280.832L299.776 282.829Z" fill="#FEDF00"/>
<path d="M268.595 254.464L268.288 254.566L267.878 254.976C267.674 255.181 267.52 255.232 267.264 255.386L266.957 255.642C266.803 255.795 266.957 255.949 266.803 256.154C266.752 256.358 266.65 256.461 266.496 256.666C266.291 256.87 266.138 256.922 265.984 257.178L265.37 257.69L265.216 257.741H264.909C264.704 257.843 264.653 258.048 264.499 258.15L264.653 258.458L265.062 259.174C265.165 259.328 265.165 259.533 265.318 259.584C265.574 259.686 265.779 259.686 265.984 259.635C266.394 259.738 266.65 259.738 267.008 259.891L267.776 260.301C268.032 260.454 268.186 260.506 268.442 260.557H269.363V260.71L270.387 261.222C270.362 261.288 270.345 261.357 270.336 261.427C270.285 261.581 270.234 261.786 270.285 261.837C270.592 262.81 270.899 263.373 271.053 263.475C271.36 263.578 271.462 263.936 271.616 264.243L271.462 264.397C271.155 264.704 270.848 264.909 270.592 265.318C270.234 265.933 269.978 265.933 270.438 266.752L271.206 267.981C271.411 268.339 271.514 268.595 271.616 269.005C271.718 269.363 271.77 269.619 271.77 270.029L272.282 270.182L272.64 269.875L272.947 269.261V268.749C272.845 268.698 272.794 268.544 272.845 268.39C272.845 268.186 273.101 268.237 273.203 268.083C273.357 267.827 272.998 267.674 272.845 267.52C272.538 267.162 272.128 267.059 272.026 266.547C272.026 266.445 272.026 266.342 272.23 266.189L273.254 265.267C273.357 265.318 273.562 265.37 273.766 265.318L274.432 265.523C274.739 265.626 274.893 265.523 275.046 265.523H275.251L275.302 265.83C275.354 266.342 275.251 267.366 275.405 267.622L275.558 267.93L275.661 268.237V269.261L275.558 270.131C275.558 270.336 275.456 270.49 275.302 270.643C275.2 270.848 274.995 270.848 274.79 271.002V271.514L275.354 271.77L276.019 271.923L276.378 271.77L276.429 271.462L276.685 271.206C276.89 271.104 277.094 271.206 277.146 271.155C277.248 271.002 277.146 270.95 277.146 270.746C277.146 270.438 277.043 270.234 276.992 269.926C276.918 269.452 276.901 268.971 276.941 268.493C276.941 268.186 276.941 267.981 277.043 267.725C277.094 267.213 277.248 267.008 277.35 266.598C277.504 266.086 277.504 265.779 277.555 265.318C279.282 265.578 281.043 265.474 282.726 265.011C283.136 265.37 283.597 265.626 284.109 265.83V266.342C284.109 266.496 284.109 266.547 284.211 266.701L284.365 266.854C284.518 266.854 284.621 266.854 284.723 266.752C284.826 266.65 284.826 266.547 284.826 266.394V266.035H285.747V266.598C285.798 266.752 285.901 266.803 286.003 266.803C286.051 266.826 286.104 266.838 286.157 266.838C286.21 266.838 286.262 266.826 286.31 266.803C286.464 266.701 286.413 266.496 286.464 266.291V265.933L286.976 265.728C286.99 265.881 286.99 266.035 286.976 266.189L286.822 266.65C286.72 266.957 286.566 267.059 286.413 267.366C286.208 267.674 286.157 267.878 285.901 268.134L285.594 268.493L285.286 268.954L284.826 269.466C284.467 269.773 284.211 269.568 283.802 269.926L283.648 270.438L284.365 270.746L285.03 270.848L285.235 270.746C285.235 270.592 285.235 270.438 285.389 270.336C285.491 270.182 285.594 270.182 285.747 270.131C285.952 270.131 286.157 270.131 286.259 270.029C286.464 269.875 286.464 269.517 286.618 269.261C286.995 268.501 287.516 267.823 288.154 267.264L289.024 266.547C289.126 266.342 289.28 266.291 289.28 266.035L289.178 265.728L289.075 265.216C289.843 265.574 289.587 265.574 289.69 265.933C289.843 266.24 289.69 266.445 289.741 266.803C289.792 267.213 289.997 267.366 289.997 267.776C290.048 268.237 289.946 268.493 289.843 268.954C289.792 269.363 289.792 269.619 289.587 269.978C289.466 270.276 289.273 270.54 289.024 270.746L288.717 271.002L288.666 271.514L289.229 271.718L290.048 271.923L290.253 271.77C290.355 271.411 290.253 270.899 290.458 270.899C290.662 270.848 290.816 270.899 290.867 270.746V270.387L291.226 268.083L291.43 267.11L291.635 266.24C291.994 265.216 291.533 265.062 291.123 264.397C290.867 264.038 290.765 263.885 290.765 263.629V262.144C290.749 261.666 290.749 261.188 290.765 260.71L290.97 260.608C291.584 260.25 291.84 260.147 292.198 259.328C292.307 259.087 292.36 258.824 292.352 258.56V258.048L292.147 257.536C292.067 257.384 291.963 257.246 291.84 257.126C291.482 256.614 290.97 256.563 290.458 256.358C289.69 256.102 289.178 256.154 288.41 256.102C287.488 256 287.027 256 286.157 256.102C285.133 256.102 284.57 256.307 283.546 256.461L281.037 256.666C279.859 256.666 278.784 256.41 278.067 256.461C276.838 256.563 276.787 256.87 274.893 257.024C274.245 257.077 273.597 257.111 272.947 257.126L271.821 256.768C272.282 256.614 272.384 256.512 272.589 256.256C272.742 256.051 272.691 255.898 272.896 255.693L273.254 255.181C273.118 255.079 272.961 255.009 272.794 254.976H272.282C272.068 254.984 271.859 255.036 271.667 255.13L271.258 255.437L270.131 254.822C269.651 254.578 269.131 254.422 268.595 254.362V254.464Z" fill="#D52B1E"/>
<path d="M291.226 260.864L290.816 261.018C290.355 261.222 289.997 261.222 289.485 261.274C288.154 261.376 287.283 260.71 285.901 260.813C285.184 260.864 284.877 261.427 284.109 261.632C283.822 261.693 283.531 261.727 283.238 261.734L283.494 261.222C283.494 261.222 282.88 261.376 282.47 261.376C282.194 261.371 281.92 261.337 281.651 261.274L282.163 260.762L281.498 260.659C281.31 260.567 281.137 260.446 280.986 260.301C281.278 260.262 281.568 260.211 281.856 260.147C282.624 259.942 282.88 259.533 283.853 259.43C284.416 259.43 285.389 259.43 287.744 259.84C289.28 260.096 289.997 259.942 290.56 259.686C290.97 259.533 291.072 259.174 291.123 258.765C291.174 258.355 290.918 258.048 290.714 257.843C290.662 257.843 290.458 257.69 290.15 257.638" stroke="#FEDF00" stroke-width="0.512" stroke-linecap="round"/>
<path d="M268.698 256.307C268.442 256.307 268.237 256.307 268.032 256.461C267.776 256.614 267.725 256.819 267.52 257.024C267.776 257.075 267.93 257.229 268.134 257.178C268.339 257.178 268.39 257.075 268.544 256.922C268.698 256.717 268.749 256.563 268.749 256.307H268.698Z" fill="#FCD900" stroke="#FEDF00" stroke-width="0.256"/>
<path d="M274.432 263.066C274.566 263.473 274.737 263.867 274.944 264.243C275.046 264.653 274.944 264.858 275.046 265.267V266.086M278.528 262.502L278.374 263.168L277.862 264.96V265.318M272.23 263.27C272.691 263.373 272.538 264.96 273.203 265.318" stroke="#FEDF00" stroke-width="0.512" stroke-linecap="round"/>
<path d="M286.771 266.137L286.976 265.984C287.494 265.772 287.964 265.458 288.358 265.062" stroke="#FEDF00" stroke-width="0.512"/>
<path d="M282.829 265.216C284.621 264.755 285.85 263.885 286.72 263.731M284.672 262.963H285.082C285.85 262.81 285.952 263.27 286.464 263.578C287.437 264.09 287.539 264.755 288.666 265.318L288.87 265.37L289.28 265.574" stroke="#FEDF00" stroke-width="0.512" stroke-linecap="round"/>
<path d="M265.062 258.304H265.421L265.831 258.201C265.984 258.201 266.087 258.201 266.189 258.304C266.291 258.304 266.291 258.355 266.343 258.457C266.343 258.56 266.445 258.611 266.394 258.713C266.394 258.816 266.24 258.918 266.087 258.918C265.984 258.918 265.882 258.918 265.831 258.765C265.816 258.732 265.809 258.697 265.809 258.662C265.809 258.627 265.816 258.592 265.831 258.56C265.759 258.596 265.68 258.615 265.6 258.615C265.52 258.615 265.441 258.596 265.37 258.56C265.304 258.54 265.243 258.507 265.19 258.463C265.137 258.419 265.094 258.365 265.062 258.304Z" fill="#FCD900" stroke="#FEDF00" stroke-width="0.256"/>
<path d="M268.851 263.27L267.827 262.81C268.032 262.707 268.186 262.707 268.339 262.554C268.493 262.349 268.493 262.144 268.595 261.888C268.698 261.632 268.698 261.376 268.954 261.171C269.107 261.069 269.363 261.069 269.517 261.12C269.722 261.12 269.927 261.325 269.978 261.478C269.978 261.786 269.875 261.99 269.824 262.246C269.824 262.554 269.671 262.707 269.722 262.963C269.722 263.168 269.824 263.27 269.927 263.475L268.903 263.27H268.851ZM268.339 263.782C268.33 263.723 268.339 263.662 268.364 263.607C268.39 263.552 268.431 263.506 268.482 263.474C268.534 263.443 268.593 263.427 268.654 263.429C268.714 263.431 268.773 263.451 268.822 263.486C268.871 263.521 268.909 263.57 268.93 263.626C268.952 263.683 268.956 263.744 268.943 263.803C268.93 263.862 268.899 263.916 268.856 263.958C268.812 264 268.757 264.028 268.698 264.038C268.653 264.046 268.608 264.043 268.565 264.031C268.521 264.019 268.481 263.998 268.447 263.969C268.412 263.939 268.385 263.903 268.367 263.862C268.348 263.821 268.339 263.776 268.339 263.731V263.782ZM267.469 255.283H267.367C267.162 255.078 267.162 254.874 267.059 254.669C266.977 254.473 266.925 254.266 266.906 254.054V253.03C266.906 252.877 266.906 252.723 266.803 252.57C266.803 252.467 266.599 252.416 266.65 252.365C266.65 252.314 266.803 252.365 266.855 252.365C267.059 252.365 267.162 252.416 267.367 252.57C267.52 252.723 267.623 252.877 267.674 253.082L267.879 253.85L268.032 254.259L268.288 254.566L267.93 254.976L267.469 255.283ZM269.312 260.71L270.439 261.222C271.21 260.758 271.831 260.083 272.231 259.277C272.691 258.355 272.743 257.894 272.947 257.024L272.026 256.768H271.821C271.565 257.69 271.463 258.15 271.002 258.918C270.592 259.584 270.131 260.096 269.671 260.454L269.312 260.71ZM271.872 270.029L272.282 269.363L272.999 268.8H273.203C273.197 269.289 273.111 269.773 272.947 270.234L272.743 270.746L272.487 271.002C272.231 270.592 271.821 270.336 271.821 269.978L271.872 270.029ZM288.768 270.95L289.485 271.258L290.253 271.718V271.974L289.485 272.077C289.264 272.094 289.041 272.094 288.819 272.077H288.307L288 271.872C288.256 271.514 288.41 271.053 288.717 270.95H288.768ZM283.751 269.926L284.467 270.182L285.235 270.694C285.235 270.746 285.287 270.848 285.235 270.899C284.785 271.02 284.319 271.072 283.853 271.053L283.341 271.002L282.983 270.848C283.29 270.49 283.443 269.978 283.751 269.926ZM274.842 271.002L275.61 271.258L276.378 271.77V272.026C275.908 272.134 275.425 272.169 274.944 272.128H274.432L274.125 271.923C274.381 271.565 274.535 271.104 274.842 271.002ZM270.234 255.744C269.927 255.59 269.722 255.232 269.927 254.925C269.978 254.822 270.131 254.822 270.234 254.72C270.336 254.566 270.285 254.464 270.234 254.31L270.183 253.798L270.08 253.286C270.08 252.979 270.08 252.774 270.285 252.467C270.387 252.314 270.643 252.16 270.695 252.16C270.797 252.211 270.695 252.416 270.695 252.57C270.695 252.826 270.746 252.928 270.848 253.184L271.207 253.85C271.309 254.157 271.411 254.259 271.411 254.566C271.411 254.822 271.411 254.925 271.309 255.181C271.243 255.341 271.137 255.482 271.002 255.59C270.882 255.689 270.742 255.759 270.592 255.795C270.492 255.824 270.385 255.824 270.285 255.795L270.234 255.744Z" fill="#0065BD"/>
<path d="M268.595 273.203L268.288 273.306L267.878 273.715C267.674 273.92 267.52 273.971 267.264 274.125L266.957 274.381C266.803 274.534 266.957 274.688 266.803 274.893C266.752 275.098 266.65 275.2 266.496 275.405C266.291 275.61 266.138 275.661 265.984 275.917L265.37 276.429L265.216 276.48H264.909C264.704 276.582 264.653 276.787 264.499 276.89L264.653 277.197L265.062 277.914C265.165 278.067 265.165 278.272 265.318 278.323C265.574 278.426 265.779 278.426 265.984 278.374C266.394 278.477 266.65 278.477 267.008 278.63L267.776 279.04C268.032 279.194 268.186 279.245 268.442 279.296H269.363V279.45L270.387 279.962C270.362 280.028 270.345 280.096 270.336 280.166C270.285 280.32 270.234 280.525 270.285 280.576C270.592 281.549 270.899 282.112 271.053 282.214C271.36 282.317 271.462 282.675 271.616 282.982L271.462 283.136C271.155 283.443 270.848 283.648 270.592 284.058C270.234 284.672 269.978 284.672 270.438 285.491L271.206 286.72C271.411 287.078 271.514 287.334 271.616 287.744C271.718 288.102 271.77 288.358 271.77 288.768L272.282 288.922L272.64 288.614L272.947 288V287.488C272.845 287.437 272.794 287.283 272.845 287.13C272.845 286.925 273.101 286.976 273.203 286.822C273.357 286.566 272.998 286.413 272.845 286.259C272.538 285.901 272.128 285.798 272.026 285.286C272.026 285.184 272.026 285.082 272.23 284.928L273.254 284.006C273.357 284.058 273.562 284.109 273.766 284.058L274.432 284.262C274.739 284.365 274.893 284.262 275.046 284.262H275.251L275.302 284.57C275.354 285.082 275.251 286.106 275.405 286.362L275.558 286.669L275.661 286.976V288L275.558 288.87C275.558 289.075 275.456 289.229 275.302 289.382C275.2 289.587 274.995 289.587 274.79 289.741V290.253L275.354 290.509L276.019 290.662L276.378 290.509L276.429 290.202L276.685 289.946C276.89 289.843 277.094 289.946 277.146 289.894C277.248 289.741 277.146 289.69 277.146 289.485C277.146 289.178 277.043 288.973 276.992 288.666C276.918 288.192 276.901 287.71 276.941 287.232C276.941 286.925 276.941 286.72 277.043 286.464C277.094 285.952 277.248 285.747 277.35 285.338C277.504 284.826 277.504 284.518 277.555 284.058C279.282 284.318 281.043 284.213 282.726 283.75C283.136 284.109 283.597 284.365 284.109 284.57V285.082C284.109 285.235 284.109 285.286 284.211 285.44L284.365 285.594C284.518 285.594 284.621 285.594 284.723 285.491C284.826 285.389 284.826 285.286 284.826 285.133V284.774H285.747V285.338C285.798 285.491 285.901 285.542 286.003 285.542C286.051 285.565 286.104 285.577 286.157 285.577C286.21 285.577 286.262 285.565 286.31 285.542C286.464 285.44 286.413 285.235 286.464 285.03V284.672L286.976 284.467C286.99 284.621 286.99 284.775 286.976 284.928L286.822 285.389C286.72 285.696 286.566 285.798 286.413 286.106C286.208 286.413 286.157 286.618 285.901 286.874L285.594 287.232L285.286 287.693L284.826 288.205C284.467 288.512 284.211 288.307 283.802 288.666L283.648 289.178L284.365 289.485L285.03 289.587L285.235 289.485C285.235 289.331 285.235 289.178 285.389 289.075C285.491 288.922 285.594 288.922 285.747 288.87C285.952 288.87 286.157 288.87 286.259 288.768C286.464 288.614 286.464 288.256 286.618 288C286.995 287.241 287.516 286.562 288.154 286.003L289.024 285.286C289.126 285.082 289.28 285.03 289.28 284.774L289.178 284.467L289.075 283.955C289.843 284.314 289.587 284.314 289.69 284.672C289.843 284.979 289.69 285.184 289.741 285.542C289.792 285.952 289.997 286.106 289.997 286.515C290.048 286.976 289.946 287.232 289.843 287.693C289.792 288.102 289.792 288.358 289.587 288.717C289.466 289.016 289.273 289.279 289.024 289.485L288.717 289.741L288.666 290.253L289.229 290.458L290.048 290.662L290.253 290.509C290.355 290.15 290.253 289.638 290.458 289.638C290.662 289.587 290.816 289.638 290.867 289.485V289.126L291.226 286.822L291.43 285.85L291.635 284.979C291.994 283.955 291.533 283.802 291.123 283.136C290.867 282.778 290.765 282.624 290.765 282.368V280.883C290.749 280.405 290.749 279.927 290.765 279.45L290.97 279.347C291.584 278.989 291.84 278.886 292.198 278.067C292.307 277.826 292.36 277.564 292.352 277.299V276.787L292.147 276.275C292.067 276.123 291.963 275.985 291.84 275.866C291.482 275.354 290.97 275.302 290.458 275.098C289.69 274.842 289.178 274.893 288.41 274.842C287.488 274.739 287.027 274.739 286.157 274.842C285.133 274.842 284.57 275.046 283.546 275.2L281.037 275.405C279.859 275.405 278.784 275.149 278.067 275.2C276.838 275.302 276.787 275.61 274.893 275.763C274.245 275.816 273.597 275.85 272.947 275.866L271.821 275.507C272.282 275.354 272.384 275.251 272.589 274.995C272.742 274.79 272.691 274.637 272.896 274.432L273.254 273.92C273.118 273.818 272.961 273.748 272.794 273.715H272.282C272.068 273.723 271.859 273.776 271.667 273.869L271.258 274.176L270.131 273.562C269.651 273.317 269.131 273.161 268.595 273.101V273.203Z" fill="#D52B1E"/>
<path d="M291.226 279.603L290.816 279.757C290.355 279.962 289.997 279.962 289.485 280.013C288.154 280.115 287.283 279.45 285.901 279.552C285.184 279.603 284.877 280.166 284.109 280.371C283.822 280.432 283.531 280.466 283.238 280.474L283.494 279.962C283.494 279.962 282.88 280.115 282.47 280.115C282.194 280.111 281.92 280.076 281.651 280.013L282.163 279.501L281.498 279.398C281.31 279.306 281.137 279.185 280.986 279.04C281.278 279.001 281.568 278.95 281.856 278.886C282.624 278.682 282.88 278.272 283.853 278.17C284.416 278.17 285.389 278.17 287.744 278.579C289.28 278.835 289.997 278.682 290.56 278.426C290.97 278.272 291.072 277.914 291.123 277.504C291.174 277.094 290.918 276.787 290.714 276.582C290.662 276.582 290.458 276.429 290.15 276.378" stroke="#FEDF00" stroke-width="0.512" stroke-linecap="round"/>
<path d="M268.698 275.046C268.442 275.046 268.237 275.046 268.032 275.2C267.776 275.354 267.725 275.558 267.52 275.763C267.776 275.814 267.93 275.968 268.134 275.917C268.339 275.917 268.39 275.814 268.544 275.661C268.698 275.456 268.749 275.302 268.749 275.046H268.698Z" fill="#FCD900" stroke="#FEDF00" stroke-width="0.256"/>
<path d="M274.432 281.805C274.566 282.212 274.737 282.607 274.944 282.982C275.046 283.392 274.944 283.597 275.046 284.006V284.826M278.528 281.242L278.374 281.907L277.862 283.699V284.058M272.23 282.01C272.691 282.112 272.538 283.699 273.203 284.058" stroke="#FEDF00" stroke-width="0.512" stroke-linecap="round"/>
<path d="M286.771 284.877L286.976 284.723C287.494 284.511 287.964 284.198 288.358 283.802" stroke="#FEDF00" stroke-width="0.512"/>
<path d="M282.829 283.955C284.621 283.494 285.85 282.624 286.72 282.47M284.672 281.702H285.082C285.85 281.549 285.952 282.01 286.464 282.317C287.437 282.829 287.539 283.494 288.666 284.058L288.87 284.109L289.28 284.314" stroke="#FEDF00" stroke-width="0.512" stroke-linecap="round"/>
<path d="M265.062 277.043H265.421L265.831 276.941C265.984 276.941 266.087 276.941 266.189 277.043C266.291 277.043 266.291 277.094 266.343 277.197C266.343 277.299 266.445 277.35 266.394 277.453C266.394 277.555 266.24 277.657 266.087 277.657C265.984 277.657 265.882 277.657 265.831 277.504C265.816 277.472 265.809 277.437 265.809 277.401C265.809 277.366 265.816 277.331 265.831 277.299C265.759 277.335 265.68 277.354 265.6 277.354C265.52 277.354 265.441 277.335 265.37 277.299C265.304 277.279 265.243 277.246 265.19 277.202C265.137 277.158 265.094 277.104 265.062 277.043Z" fill="#FCD900" stroke="#FEDF00" stroke-width="0.256"/>
<path d="M268.851 282.01L267.827 281.549C268.032 281.446 268.186 281.446 268.339 281.293C268.493 281.088 268.493 280.883 268.595 280.627C268.698 280.371 268.698 280.115 268.954 279.91C269.107 279.808 269.363 279.808 269.517 279.859C269.722 279.859 269.927 280.064 269.978 280.218C269.978 280.525 269.875 280.73 269.824 280.986C269.824 281.293 269.671 281.446 269.722 281.702C269.722 281.907 269.824 282.01 269.927 282.214L268.903 282.01H268.851ZM268.339 282.522C268.33 282.462 268.339 282.401 268.364 282.346C268.39 282.291 268.431 282.245 268.482 282.214C268.534 282.182 268.593 282.166 268.654 282.168C268.714 282.17 268.773 282.19 268.822 282.225C268.871 282.26 268.909 282.309 268.93 282.366C268.952 282.422 268.956 282.484 268.943 282.542C268.93 282.601 268.899 282.655 268.856 282.697C268.812 282.739 268.757 282.767 268.698 282.778C268.653 282.785 268.608 282.783 268.565 282.771C268.521 282.759 268.481 282.737 268.447 282.708C268.412 282.679 268.385 282.642 268.367 282.601C268.348 282.56 268.339 282.515 268.339 282.47V282.522ZM267.469 274.022H267.367C267.162 273.818 267.162 273.613 267.059 273.408C266.977 273.212 266.925 273.005 266.906 272.794V271.77C266.906 271.616 266.906 271.462 266.803 271.309C266.803 271.206 266.599 271.155 266.65 271.104C266.65 271.053 266.803 271.104 266.855 271.104C267.059 271.104 267.162 271.155 267.367 271.309C267.52 271.462 267.623 271.616 267.674 271.821L267.879 272.589L268.032 272.998L268.288 273.306L267.93 273.715L267.469 274.022ZM269.312 279.45L270.439 279.962C271.21 279.498 271.831 278.822 272.231 278.016C272.691 277.094 272.743 276.634 272.947 275.763L272.026 275.507H271.821C271.565 276.429 271.463 276.89 271.002 277.658C270.592 278.323 270.131 278.835 269.671 279.194L269.312 279.45ZM271.872 288.768L272.282 288.102L272.999 287.539H273.203C273.197 288.028 273.111 288.512 272.947 288.973L272.743 289.485L272.487 289.741C272.231 289.331 271.821 289.075 271.821 288.717L271.872 288.768ZM288.768 289.69L289.485 289.997L290.253 290.458V290.714L289.485 290.816C289.264 290.833 289.041 290.833 288.819 290.816H288.307L288 290.611C288.256 290.253 288.41 289.792 288.717 289.69H288.768ZM283.751 288.666L284.467 288.922L285.235 289.434C285.235 289.485 285.287 289.587 285.235 289.638C284.785 289.759 284.319 289.811 283.853 289.792L283.341 289.741L282.983 289.587C283.29 289.229 283.443 288.717 283.751 288.666ZM274.842 289.741L275.61 289.997L276.378 290.509V290.765C275.908 290.874 275.425 290.908 274.944 290.867H274.432L274.125 290.662C274.381 290.304 274.535 289.843 274.842 289.741ZM270.234 274.483C269.927 274.33 269.722 273.971 269.927 273.664C269.978 273.562 270.131 273.562 270.234 273.459C270.336 273.306 270.285 273.203 270.234 273.05L270.183 272.538L270.08 272.026C270.08 271.718 270.08 271.514 270.285 271.206C270.387 271.053 270.643 270.899 270.695 270.899C270.797 270.95 270.695 271.155 270.695 271.309C270.695 271.565 270.746 271.667 270.848 271.923L271.207 272.589C271.309 272.896 271.411 272.998 271.411 273.306C271.411 273.562 271.411 273.664 271.309 273.92C271.243 274.08 271.137 274.221 271.002 274.33C270.882 274.428 270.742 274.498 270.592 274.534C270.492 274.563 270.385 274.563 270.285 274.534L270.234 274.483Z" fill="#0065BD"/>
<path d="M211.3 204.4H253.3V246.4H211.3V204.4ZM257.8 204.4H300V246.4H258L257.8 204.4ZM211.4 282.8C211.6 283.6 211.8 284.8 212.5 286.2C213.3 287.4 213 287.4 214.7 289.2C216.552 291.004 218.874 292.251 221.4 292.8C224.8 293.8 227.1 293.8 229.9 293.7C232.1 293.6 233.8 293.3 235.2 293.1C237.2 292.9 238.6 292.7 240.9 292.6C241.933 292.55 242.967 292.55 244 292.6C245.2 292.6 246.4 292.9 247.7 293.1C250.5 293.7 253.3 294.8 253.3 294.8V250.9H211.3V280.9L211.4 282.8ZM299.8 282.8C299.7 283.6 299.4 284.8 298.7 286.2C297.9 287.4 298.2 287.4 296.5 289.2C294.648 291.004 292.326 292.251 289.8 292.8C287.035 293.565 284.164 293.869 281.3 293.7C279.1 293.6 277.4 293.3 276 293.1C274.143 292.839 272.274 292.672 270.4 292.6C269.334 292.547 268.266 292.547 267.2 292.6C266 292.6 264.8 292.9 263.5 293.1C260.7 293.7 257.8 294.8 257.8 294.8V250.9H300V280.9L299.8 282.8Z" stroke="#703D29" stroke-width="0.4"/>
</g>
<defs>
<clipPath id="clip0_2_2">
<rect width="512" height="512" fill="white"/>
</clipPath>
</defs>
</svg>
