<svg width="512" height="512" viewBox="0 0 512 512" fill="none" xmlns="http://www.w3.org/2000/svg">
<g clip-path="url(#clip0_2_151)">
<path fill-rule="evenodd" clip-rule="evenodd" d="M0 0H512V512H0V0Z" fill="#000001"/>
<path fill-rule="evenodd" clip-rule="evenodd" d="M341.3 0H512V512H341.3V0Z" fill="#009900"/>
<path fill-rule="evenodd" clip-rule="evenodd" d="M170.7 0H341.3V512H170.7V0Z" fill="#BF0000"/>
<path fill-rule="evenodd" clip-rule="evenodd" d="M272.532 277.852H279.555C279.555 280.559 281.247 283.436 283.362 285.043H269.825C271.94 283.182 272.532 280.813 272.532 277.852Z" fill="white" stroke="#BD6B00" stroke-width="0.423055"/>
<path fill-rule="evenodd" clip-rule="evenodd" d="M227.858 237.831L231.75 242.061L279.978 242.23L283.87 238L271.517 237.746L265.594 233.515H246.133L240.549 237.831H227.858Z" fill="white"/>
<path fill-rule="evenodd" clip-rule="evenodd" d="M247.572 232.923H264.24C266.44 231.739 267.202 227.931 267.202 225.816C267.202 219.555 262.717 216.509 258.317 216.339C257.641 216.339 256.879 215.832 256.71 215.239C256.287 213.886 256.371 212.955 255.864 213.04C255.525 213.04 255.61 213.886 255.271 215.07C255.018 215.747 254.341 216.339 253.579 216.424C248.164 216.678 244.61 220.655 244.695 225.816C244.78 229.2 245.203 231.231 247.572 232.923Z" fill="white" stroke="#BD6B00" stroke-width="0.423055"/>
<path fill-rule="evenodd" clip-rule="evenodd" d="M220.243 292.235H291.57L285.224 287.074H226.504L220.243 292.235Z" fill="white"/>
<path fill-rule="evenodd" clip-rule="evenodd" d="M252.987 272.69L254.256 276.583H257.218L254.848 272.69H252.987ZM251.295 276.583L252.141 280.475H255.525L254.256 276.583H251.295ZM257.218 276.583L259.587 280.475H264.579L260.687 276.583H257.218ZM228.027 285.382C230.65 282.928 232.342 280.898 232.342 277.936H238.772C238.772 279.629 239.365 280.559 240.295 280.475H246.81V276.667H242.072V255.768C241.903 248.322 251.041 244.092 254.764 244.092H232.511V243.415H279.301V244.092H256.879C263.563 244.092 269.994 250.438 270.078 255.768V261.691H269.232L269.148 255.853C269.148 250.015 261.787 244.6 255.864 244.769C250.787 244.853 242.834 249.761 242.918 255.768V257.63L255.018 257.714L254.933 259.83L256.794 261.014L260.602 262.199V265.414L263.31 266.175V269.306L266.525 270.744V273.96L268.64 275.229L268.555 278.529L271.348 280.475H264.748L268.894 285.128H262.717L259.671 280.475H255.695L257.471 285.044H253.241L252.141 280.475H246.895V285.382H228.111H228.027ZM246.81 272.69V276.583H251.295L250.449 272.69H246.726H246.81Z" fill="white"/>
<path d="M254.256 276.583L252.987 272.69H254.848L257.218 276.583M254.256 276.583H257.218M254.256 276.583L255.525 280.475H252.141M254.256 276.583H251.295M257.218 276.583L259.587 280.475H264.579L260.687 276.583H257.218ZM251.295 276.583L252.141 280.475M251.295 276.583H246.81V272.69H246.726H250.449L251.295 276.583ZM252.141 280.475L253.241 285.044H257.471L255.695 280.475H259.671L262.717 285.128H268.894L264.748 280.475H271.348L268.555 278.529L268.64 275.229L266.525 273.96V270.744L263.31 269.306V266.175L260.602 265.414V262.199L256.794 261.014L254.933 259.83L255.018 257.714L242.918 257.63V255.768C242.834 249.761 250.787 244.853 255.864 244.769C261.787 244.6 269.148 250.015 269.148 255.853L269.232 261.691H270.078V255.768C269.994 250.438 263.563 244.092 256.879 244.092H279.301V243.415H232.511V244.092H254.764C251.041 244.092 241.903 248.322 242.072 255.768V276.667H246.81V280.475H240.295C239.365 280.559 238.772 279.629 238.772 277.936H232.342C232.342 280.898 230.65 282.928 228.027 285.382H228.111H246.895V280.475H252.141Z" stroke="#BD6B00" stroke-width="0.423055"/>
<path fill-rule="evenodd" clip-rule="evenodd" d="M247.064 265.921H249.856V272.352H247.064V265.921Z" stroke="#BD6B00" stroke-width="0.423055"/>
<path fill-rule="evenodd" clip-rule="evenodd" d="M243.088 272.775H245.795V268.037C245.795 266.006 247.657 263.891 248.503 263.806C249.518 263.806 250.956 265.752 251.041 267.868V272.775H253.918V260.591H243.088V272.775ZM264.748 275.567H268.132V278.275H264.748V275.567ZM262.717 271.083H266.102V273.706H262.717V271.083ZM259.417 266.514H262.802V269.137H259.417V266.514ZM256.625 262.706H260.01V265.329H256.625V262.706Z" stroke="#BD6B00" stroke-width="0.423055"/>
<path fill-rule="evenodd" clip-rule="evenodd" d="M254.341 272.775L257.894 272.944L264.071 278.359V275.144L261.956 273.621V271.083L258.91 269.39V266.598L255.948 265.583V261.945L254.51 260.676L254.341 272.775Z" stroke="#BD6B00" stroke-width="0.423055"/>
<path fill-rule="evenodd" clip-rule="evenodd" d="M269.063 264.737H269.909V270.744H269.063V264.737Z" fill="white" stroke="#BD6B00" stroke-width="0.423055"/>
<path fill-rule="evenodd" clip-rule="evenodd" d="M219.904 244.6C218.889 242.907 217.62 246.969 213.304 249.93C211.358 251.284 209.92 254.922 209.92 257.291C209.92 258.983 210.089 260.591 209.92 262.199C209.835 263.129 208.735 265.414 209.497 266.006C211.358 267.36 213.812 270.575 214.912 271.675C215.927 272.521 216.773 267.191 217.45 264.906C218.296 262.368 217.958 259.237 220.158 256.953C221.681 255.26 225.573 253.737 225.235 253.061L219.904 244.6Z" fill="white" stroke="#BD6B00" stroke-width="0.423055"/>
<path fill-rule="evenodd" clip-rule="evenodd" d="M219.65 257.63C219.314 256.831 218.858 256.09 218.297 255.43C217.757 254.761 217.059 254.238 216.266 253.907C215.486 253.676 214.785 253.237 214.235 252.638C213.911 252.275 213.679 251.84 213.558 251.368C213.462 250.809 213.462 250.236 213.558 249.676L213.304 249.93C211.358 251.284 209.92 254.922 209.92 257.291C209.894 257.94 209.894 258.589 209.92 259.237C210.089 259.66 210.174 260.083 210.428 260.337L211.358 261.014L213.643 261.606C214.498 261.991 215.252 262.571 215.843 263.299C216.459 263.951 216.972 264.693 217.366 265.499L217.535 264.822C218.212 262.537 218.127 259.83 219.735 257.63H219.65Z" fill="#BF0000" stroke="#BD6B00" stroke-width="0.423055"/>
<path d="M213.558 249.592C213.135 252.384 214.743 253.399 216.266 253.907C217.789 254.499 219.058 256.107 219.65 257.63M209.751 258.899C210.428 261.437 212.12 261.099 213.643 261.606C215.166 262.199 216.773 264.145 217.45 265.668" stroke="#BD6B00" stroke-width="0.423055"/>
<path fill-rule="evenodd" clip-rule="evenodd" d="M218.466 242.907L219.312 242.4L234.288 267.698L233.442 268.206L218.466 242.907Z" fill="white" stroke="#BD6B00" stroke-width="0.423055"/>
<path fill-rule="evenodd" clip-rule="evenodd" d="M220.073 241.892C220.073 242.341 219.895 242.771 219.578 243.089C219.26 243.406 218.83 243.584 218.381 243.584C217.932 243.584 217.502 243.406 217.184 243.089C216.867 242.771 216.689 242.341 216.689 241.892C216.689 241.443 216.867 241.013 217.184 240.695C217.502 240.378 217.932 240.2 218.381 240.2C218.83 240.2 219.26 240.378 219.578 240.695C219.895 241.013 220.073 241.443 220.073 241.892ZM232.934 221.585H239.026V222.939H232.934V221.585ZM232.934 224.208H239.026V235.885H232.934V224.208ZM232.596 219.978H239.365C239.534 217.693 237.249 215.24 235.98 215.24C234.626 215.324 232.511 217.778 232.596 219.978Z" fill="white" stroke="#BD6B00" stroke-width="0.423055"/>
<path fill-rule="evenodd" clip-rule="evenodd" d="M249.772 218.624C248.503 219.132 247.487 220.57 246.895 222.262C246.303 223.954 246.049 225.901 246.387 227.424C246.387 228.016 246.641 228.354 246.81 228.693C246.98 228.947 247.149 229.116 247.318 229.116C247.572 229.116 247.826 229.116 247.91 228.862L248.08 228.185C247.995 226.493 247.995 224.97 248.333 223.616C248.71 222.113 249.61 220.793 250.872 219.893C251.126 219.724 251.21 219.47 251.295 219.301C251.292 219.078 251.2 218.865 251.041 218.709C250.702 218.455 250.195 218.37 249.772 218.624ZM249.941 218.962C250.279 218.793 250.618 218.962 250.787 219.047L250.872 219.216C250.872 219.301 250.872 219.385 250.618 219.555C249.318 220.508 248.391 221.884 247.995 223.447C247.644 225.001 247.558 226.603 247.741 228.185C247.741 228.368 247.682 228.546 247.572 228.693C247.572 228.693 247.572 228.777 247.403 228.693C247.403 228.693 247.233 228.693 247.064 228.439C246.897 228.121 246.783 227.778 246.726 227.424C246.472 225.901 246.726 224.039 247.318 222.347C247.91 220.824 248.841 219.47 249.856 218.962H249.941Z" fill="#BD6B00"/>
<path fill-rule="evenodd" clip-rule="evenodd" d="M251.972 220.232C250.702 220.824 249.856 222.178 249.433 223.785C248.984 225.411 248.897 227.115 249.179 228.777C249.349 229.877 250.026 230.47 250.533 230.47C250.787 230.554 251.041 230.47 251.21 230.216C251.379 229.962 251.464 229.708 251.379 229.37C251.041 228.016 250.956 226.493 251.126 225.054C251.379 223.616 251.972 222.347 252.987 221.585C253.241 221.332 253.41 221.162 253.41 220.908C253.418 220.817 253.407 220.725 253.378 220.637C253.349 220.55 253.302 220.469 253.241 220.401C252.902 220.147 252.395 220.062 251.972 220.232ZM252.141 220.655C252.479 220.485 252.818 220.57 252.987 220.655L253.072 220.908L252.818 221.247C252.25 221.702 251.778 222.266 251.429 222.905C251.081 223.544 250.862 224.246 250.787 224.97C250.533 226.493 250.702 228.1 250.956 229.37C251.041 229.708 250.956 229.877 250.956 230.046L250.533 230.131C250.279 230.131 249.687 229.708 249.518 228.693C249.264 227.254 249.349 225.393 249.772 223.87C250.195 222.347 251.041 221.078 252.141 220.655Z" fill="#BD6B00"/>
<path fill-rule="evenodd" clip-rule="evenodd" d="M232.596 245.361H239.365V254.668H232.596V245.361ZM233.019 260.083H239.534V262.114H233.019V260.083ZM232.85 263.552H239.618V270.914H232.85V263.552ZM232.342 272.437H239.703V276.583H232.342V272.437ZM233.273 258.391H239.195L240.38 256.361H232.257L233.273 258.391ZM241.226 251.115L241.311 246.038H245.372C243.626 247.397 242.209 249.132 241.226 251.115Z" fill="white" stroke="#BD6B00" stroke-width="0.423055"/>
<path fill-rule="evenodd" clip-rule="evenodd" d="M233.696 253.23C233.696 254.33 234.965 253.907 234.965 253.315V248.576C234.965 247.73 236.996 247.9 236.996 248.492V253.568C236.996 254.415 238.434 254.33 238.349 253.568V247.646C238.349 245.784 233.696 245.869 233.696 247.561V253.23ZM233.696 264.483H238.518V270.406H233.696V264.483Z" stroke="#BD6B00" stroke-width="0.423055"/>
<path fill-rule="evenodd" clip-rule="evenodd" d="M236.742 267.022H238.434V267.868H236.742V267.022ZM233.78 267.022H235.473V267.868H233.78V267.022ZM235.473 264.483H236.742V267.022H235.473V264.483ZM235.473 267.868H236.742V270.491H235.473V267.868ZM208.651 204.409C208.989 209.063 207.466 211.686 205.013 211.263C204.336 208.725 205.859 206.948 208.651 204.409ZM203.151 214.817C200.951 213.717 202.559 205.086 203.405 201.448C203.997 206.102 205.097 212.701 203.151 214.817Z" fill="white"/>
<path d="M236.742 267.022H238.434V267.868H236.742M236.742 267.022V267.868M236.742 267.022V264.483H235.473V267.022M236.742 267.022H235.473M236.742 267.868H235.473M236.742 267.868V270.491H235.473V267.868M235.473 267.022H233.78V267.868H235.473M235.473 267.022V267.868M208.651 204.409C208.989 209.063 207.466 211.686 205.013 211.263C204.336 208.725 205.859 206.948 208.651 204.409ZM203.151 214.817C200.951 213.717 202.559 205.086 203.405 201.448C203.997 206.102 205.097 212.701 203.151 214.817Z" stroke="#BD6B00" stroke-width="0.423055"/>
<path fill-rule="evenodd" clip-rule="evenodd" d="M203.913 215.24C207.635 216.509 210.681 212.532 211.612 207.879C208.566 212.109 203.574 212.109 203.997 215.24H203.913ZM201.12 219.555C198.244 218.793 199.936 209.655 200.528 206.017C201.12 209.825 203.151 218.286 201.12 219.555ZM202.136 219.301C202.305 216.17 205.436 217.017 207.635 215.324C207.212 217.017 205.943 219.724 202.136 219.301ZM198.582 223.532C195.705 222.685 197.398 212.871 197.228 208.809C198.074 212.363 200.782 222.601 198.582 223.532ZM199.936 223.109C202.305 223.87 205.436 222.262 205.689 219.47C203.574 220.909 200.359 219.809 199.936 223.109Z" fill="white" stroke="#BD6B00" stroke-width="0.423055"/>
<path fill-rule="evenodd" clip-rule="evenodd" d="M196.382 227.847C193.675 228.1 194.859 219.724 194.859 211.94C195.875 219.216 198.667 225.901 196.382 227.847Z" fill="white" stroke="#BD6B00" stroke-width="0.423055"/>
<path fill-rule="evenodd" clip-rule="evenodd" d="M197.398 227.508C199.259 228.354 202.559 226.916 203.49 223.785C200.105 225.224 197.905 223.785 197.398 227.508ZM219.058 208.725C218.55 212.871 216.858 215.24 214.404 214.817C213.728 212.278 215.758 210.586 219.058 208.725ZM212.458 219.216C216.604 219.809 218.043 216.678 220.919 212.532C216.943 215.409 212.289 215.917 212.458 219.301V219.216Z" fill="white" stroke="#BD6B00" stroke-width="0.423055"/>
<path fill-rule="evenodd" clip-rule="evenodd" d="M211.189 218.793C208.989 216.086 211.189 212.617 212.881 209.74C212.543 214.055 213.981 216.509 211.189 218.793ZM210.343 223.278C210.005 220.57 214.574 219.978 216.604 218.54C215.843 220.063 214.912 224.208 210.258 223.278H210.343Z" fill="white" stroke="#BD6B00" stroke-width="0.423055"/>
<path fill-rule="evenodd" clip-rule="evenodd" d="M209.328 223.278C206.197 222.939 207.466 217.609 209.751 214.732C208.82 218.793 211.443 221.585 209.328 223.278Z" fill="white" stroke="#BD6B00" stroke-width="0.423055"/>
<path fill-rule="evenodd" clip-rule="evenodd" d="M206.959 227.762C203.405 226.07 205.689 221.67 206.959 219.047C206.451 222.516 209.328 225.139 206.959 227.677V227.762Z" fill="white" stroke="#BD6B00" stroke-width="0.423055"/>
<path fill-rule="evenodd" clip-rule="evenodd" d="M207.635 227.254C209.497 229.793 213.135 226.577 213.897 222.854C210.766 225.477 208.397 225.054 207.635 227.339V227.254ZM199.513 244.43C199.174 240.792 201.882 234.277 199.936 230.723C199.682 230.216 200.528 228.946 201.12 229.708C201.967 230.977 202.813 234.531 203.236 233.177C203.574 231.739 203.659 229.285 204.928 228.777C205.774 228.523 206.874 228.27 206.536 229.623C206.197 230.808 205.52 232.5 206.282 232.585C206.705 232.585 207.974 230.893 209.074 230.046C209.92 229.37 211.274 230.554 209.92 231.569C205.859 234.954 201.882 236.561 199.513 244.43ZM192.152 299.004C191.644 299.004 191.052 298.751 191.644 299.512C196.467 305.435 197.821 307.127 204.843 306.281C211.866 305.35 213.558 303.404 218.55 300.612C219.996 299.852 221.577 299.385 223.204 299.24C224.83 299.095 226.47 299.274 228.027 299.766C229.38 300.189 230.227 300.189 229.211 299.174C228.196 298.243 227.096 296.889 225.827 295.958C222.67 293.847 218.824 293.029 215.081 293.674C210.005 294.52 205.689 297.82 200.528 299.089C197.764 299.647 194.916 299.647 192.152 299.089V299.004ZM232.596 309.581C233.442 309.75 234.034 311.442 234.542 310.342C235.219 308.396 234.711 306.958 233.865 307.042C232.85 307.296 231.242 309.581 232.596 309.581Z" fill="white" stroke="#BD6B00" stroke-width="0.423055"/>
<path fill-rule="evenodd" clip-rule="evenodd" d="M188.852 241.638C187.836 240.454 188.09 240.115 189.698 240.031C190.882 240.031 193.252 240.877 194.182 240.115C195.028 239.523 194.605 236.985 195.028 235.885C195.198 235.123 195.621 234.192 196.721 235.715C199.767 240.623 203.49 246.546 205.182 252.299C206.028 255.514 205.182 260.591 202.305 263.975C202.305 261.099 201.29 259.153 200.02 256.699C198.328 253.568 192.321 244.853 188.852 241.554V241.638Z" fill="white"/>
<path fill-rule="evenodd" clip-rule="evenodd" d="M201.459 267.36C204.843 267.36 205.436 262.876 205.436 261.606C203.743 261.945 200.867 264.737 201.459 267.36ZM230.65 311.273C233.019 311.781 232.934 306.027 230.48 303.574C231.58 307.296 228.788 310.681 230.565 311.188L230.65 311.273ZM229.634 311.188C229.804 313.896 222.865 310.85 221.173 308.65C225.235 310.427 229.465 308.989 229.634 311.188ZM226.673 307.296C226.927 309.919 220.75 307.55 218.804 305.52C222.95 306.873 226.419 305.096 226.673 307.212V307.296ZM227.773 307.635C230.227 308.227 229.804 302.22 227.435 300.189C228.619 304.166 225.912 307.043 227.773 307.635ZM225.235 303.997C227.688 304.589 226.25 299.428 224.473 297.397C224.812 301.12 223.627 303.743 225.319 303.997H225.235ZM223.965 303.997C224.219 306.704 219.396 304.673 217.535 302.05C221.596 303.32 223.712 301.797 223.965 303.997ZM222.696 301.881C224.219 300.781 222.612 297.82 219.566 297.989C219.904 299.766 220.919 302.981 222.696 301.881ZM234.542 314.319C234.626 317.027 227.773 315.673 225.573 312.796C229.973 313.642 234.288 312.119 234.457 314.319H234.542ZM207.128 309.412C207.382 312.119 199.851 309.073 197.99 306.535C201.967 307.889 206.874 307.212 207.128 309.412ZM211.697 310.512C213.304 309.412 210.089 306.535 207.466 305.858C207.805 307.635 210.005 311.612 211.697 310.596V310.512ZM212.205 312.458C212.374 314.911 204.166 313.558 202.051 311.273C209.074 312.542 211.951 310.342 212.205 312.458Z" fill="white" stroke="#BD6B00" stroke-width="0.423055"/>
<path fill-rule="evenodd" clip-rule="evenodd" d="M216.097 314.065C216.943 316.35 209.074 315.757 206.282 314.488C210.766 314.488 215.42 312.458 216.097 314.065Z" fill="white" stroke="#BD6B00" stroke-width="0.423055"/>
<path fill-rule="evenodd" clip-rule="evenodd" d="M219.735 315.758C220.581 317.788 213.304 317.788 209.751 316.604C214.489 316.604 218.889 313.727 219.735 315.758ZM225.065 316.857C226.419 319.311 218.635 319.48 216.181 318.296C220.581 317.704 223.965 314.911 225.065 316.857ZM216.012 312.712C213.558 314.235 213.727 309.666 211.781 306.535C214.827 309.327 217.704 311.273 216.012 312.712Z" fill="white" stroke="#BD6B00" stroke-width="0.423055"/>
<path fill-rule="evenodd" clip-rule="evenodd" d="M220.412 314.404C218.381 316.18 216.689 309.919 214.827 306.366C217.873 309.75 222.273 312.881 220.412 314.319V314.404ZM226.165 316.096C224.473 318.127 219.396 310.173 217.535 305.943C220.327 309.242 227.519 314.404 226.165 316.096ZM221.258 322.188C220.412 325.234 207.551 319.311 206.028 316.18C213.474 320.073 221.427 319.226 221.258 322.103V322.188ZM180.052 259.745C179.714 259.322 178.868 259.745 179.037 260.676C179.291 261.945 181.152 268.46 184.368 270.66C186.652 272.352 198.751 274.975 204.166 276.159C207.212 276.752 209.666 278.275 211.697 280.644C211.002 277.836 210.154 275.068 209.159 272.352C208.143 269.814 205.436 267.106 202.559 267.021C197.398 266.768 190.629 266.345 185.637 264.229C183.376 263.276 181.416 261.726 179.968 259.745H180.052Z" fill="white" stroke="#BD6B00" stroke-width="0.423055"/>
<path fill-rule="evenodd" clip-rule="evenodd" d="M209.92 285.551C211.612 286.736 213.389 282.421 211.358 278.275C211.274 282.252 208.143 283.605 209.92 285.551Z" fill="white" stroke="#BD6B00" stroke-width="0.423055"/>
<path fill-rule="evenodd" clip-rule="evenodd" d="M211.528 289.528C213.812 290.205 214.489 286.144 213.051 282.928C213.304 286.398 209.412 288.513 211.528 289.528Z" fill="white" stroke="#BD6B00" stroke-width="0.423055"/>
<path fill-rule="evenodd" clip-rule="evenodd" d="M213.304 292.743C215.504 293.843 216.266 289.697 214.743 286.736C214.912 290.543 211.612 291.728 213.304 292.659V292.743Z" fill="white" stroke="#BD6B00" stroke-width="0.423055"/>
<path fill-rule="evenodd" clip-rule="evenodd" d="M212.374 292.997C211.528 295.535 206.451 290.713 205.605 288.09C208.735 291.22 212.966 290.797 212.374 292.912V292.997Z" fill="white" stroke="#BD6B00" stroke-width="0.423055"/>
<path fill-rule="evenodd" clip-rule="evenodd" d="M210.089 289.02C209.074 291.559 202.728 284.79 201.29 281.659C204.42 284.79 210.766 287.159 210.089 288.936V289.02Z" fill="white" stroke="#BD6B00" stroke-width="0.423055"/>
<path fill-rule="evenodd" clip-rule="evenodd" d="M208.82 285.044C207.805 288.005 200.951 280.136 198.921 277.344C202.305 280.39 209.582 282.928 208.82 285.044ZM208.566 282.167C211.105 281.659 208.482 279.628 205.436 276.329C205.351 279.798 205.859 282.251 208.566 282.167Z" fill="white" stroke="#BD6B00" stroke-width="0.423055"/>
<path fill-rule="evenodd" clip-rule="evenodd" d="M204.42 280.136C205.52 279.036 203.49 278.529 200.951 275.652C200.528 277.598 203.32 281.151 204.505 280.136H204.42ZM216.266 292.997C217.62 293.843 218.466 291.051 216.858 288.597C216.435 291.305 215.081 291.982 216.266 292.997ZM187.329 275.821C184.537 277.513 180.052 270.744 178.868 267.952C181.322 271.167 187.837 274.044 187.329 275.821Z" fill="white" stroke="#BD6B00" stroke-width="0.423055"/>
<path fill-rule="evenodd" clip-rule="evenodd" d="M189.783 279.713C188.175 281.405 183.268 276.752 181.575 274.383C184.114 276.667 190.459 276.921 189.783 279.713Z" fill="white" stroke="#BD6B00" stroke-width="0.423055"/>
<path fill-rule="evenodd" clip-rule="evenodd" d="M192.405 283.267C191.898 285.636 184.79 280.305 183.098 277.767C186.144 280.728 192.913 280.475 192.405 283.267Z" fill="white" stroke="#BD6B00" stroke-width="0.423055"/>
<path fill-rule="evenodd" clip-rule="evenodd" d="M191.306 285.89C190.206 288.005 184.367 282.675 182.929 279.967C186.567 283.013 192.236 283.774 191.39 285.89H191.306ZM188.344 275.483C190.121 273.537 189.36 272.606 188.006 269.56C187.329 272.69 186.229 273.96 188.344 275.483ZM190.798 279.121C194.182 279.29 190.798 275.229 189.952 271.76C190.29 275.652 189.106 278.782 190.798 279.121Z" fill="white" stroke="#BD6B00" stroke-width="0.423055"/>
<path fill-rule="evenodd" clip-rule="evenodd" d="M192.913 282.336C195.198 281.829 194.605 278.529 192.744 274.552C193.167 278.867 190.798 281.321 192.913 282.336ZM192.067 288.851C191.221 291.39 184.621 285.467 183.606 283.098C186.99 285.974 192.659 286.905 192.067 288.851Z" fill="white" stroke="#BD6B00" stroke-width="0.423055"/>
<path fill-rule="evenodd" clip-rule="evenodd" d="M196.044 292.912C195.113 295.451 188.175 290.205 186.06 287.328C190.206 290.713 196.551 290.374 196.044 292.912Z" fill="white" stroke="#BD6B00" stroke-width="0.423055"/>
<path fill-rule="evenodd" clip-rule="evenodd" d="M200.105 297.058C199.005 300.697 191.729 294.859 189.613 291.982C194.182 295.535 200.613 294.52 200.105 297.058ZM193.336 287.751C195.282 288.682 196.044 283.182 194.944 279.206C194.944 283.436 190.967 286.651 193.252 287.667L193.336 287.751Z" fill="white" stroke="#BD6B00" stroke-width="0.423055"/>
<path fill-rule="evenodd" clip-rule="evenodd" d="M196.636 292.151C199.005 292.828 198.328 286.821 196.213 282.844C195.959 286.821 194.267 290.459 196.636 292.151ZM200.867 296.297C203.405 296.382 201.713 291.136 199.513 288.174C199.851 291.982 198.667 295.789 200.867 296.297ZM196.213 298.497C195.367 299.851 193.506 297.397 190.29 295.536C193.167 296.382 196.551 297.228 196.213 298.497ZM194.69 253.907C197.228 252.045 195.282 248.661 194.69 245.446C193.844 248.492 191.813 252.553 194.69 253.907ZM194.69 258.391C190.883 257.968 191.475 253.23 191.306 250.184C192.49 254.33 195.536 255.007 194.69 258.476V258.391ZM195.198 257.799C198.328 257.63 198.159 254.076 198.328 250.522C196.721 253.822 194.944 254.33 195.198 257.799Z" fill="white" stroke="#BD6B00" stroke-width="0.423055"/>
<path fill-rule="evenodd" clip-rule="evenodd" d="M195.113 262.199C192.575 262.452 191.39 259.999 190.883 256.276C193.167 259.745 195.198 258.645 195.113 262.199ZM195.959 261.945C199.09 262.368 198.498 258.73 198.498 256.022C197.482 258.56 194.944 259.406 195.959 261.945Z" fill="white" stroke="#BD6B00" stroke-width="0.423055"/>
<path fill-rule="evenodd" clip-rule="evenodd" d="M191.052 260.422C191.306 262.791 192.829 266.852 195.282 265.922C196.213 263.045 193.082 262.453 191.052 260.422Z" fill="white" stroke="#BD6B00" stroke-width="0.423055"/>
<path fill-rule="evenodd" clip-rule="evenodd" d="M195.959 266.175C194.944 264.145 198.497 263.045 199.174 260.337C199.597 264.229 199.259 266.768 195.959 266.26V266.175ZM185.89 241.469C187.836 239.438 186.144 236.054 185.552 232.839C184.706 235.885 183.437 239.946 185.89 241.469ZM185.89 245.361C182.506 245.784 181.66 238.846 181.237 235.8C182.421 239.946 186.313 241.723 185.89 245.446V245.361ZM186.567 245.361C188.936 244.092 188.429 241.384 189.106 239.438C187.583 241.892 186.06 242.23 186.567 245.361Z" fill="white" stroke="#BD6B00" stroke-width="0.423055"/>
<path fill-rule="evenodd" clip-rule="evenodd" d="M185.806 249.93C182.337 250.184 180.221 242.484 180.052 239.438C181.152 243.584 186.313 245.784 185.89 249.93H185.806ZM186.567 249.761C189.952 248.999 189.529 246.799 189.021 243.33C187.921 246.884 186.06 246.123 186.567 249.761Z" fill="white" stroke="#BD6B00" stroke-width="0.423055"/>
<path fill-rule="evenodd" clip-rule="evenodd" d="M185.806 254.33C181.914 255.007 182.168 248.746 179.037 244.261C181.745 247.646 186.652 251.876 185.806 254.33ZM186.652 254.076C189.698 254.245 190.036 249.761 189.867 247.899C189.106 249.761 185.637 251.453 186.737 254.161L186.652 254.076Z" fill="white" stroke="#BD6B00" stroke-width="0.423055"/>
<path fill-rule="evenodd" clip-rule="evenodd" d="M179.714 249.507C181.152 254.33 183.268 259.153 185.806 258.814C187.075 256.022 183.352 255.684 179.714 249.507Z" fill="white" stroke="#BD6B00" stroke-width="0.423055"/>
<path fill-rule="evenodd" clip-rule="evenodd" d="M186.737 258.053C185.721 255.937 189.275 254.922 189.952 252.215C190.375 256.107 190.036 258.645 186.737 258.053ZM180.729 255.007C182.845 259.322 183.775 264.314 186.652 263.552C187.752 260.168 183.437 259.491 180.729 255.007Z" fill="white" stroke="#BD6B00" stroke-width="0.423055"/>
<path fill-rule="evenodd" clip-rule="evenodd" d="M187.244 262.791C185.975 260.422 189.529 259.66 190.459 256.53C190.883 260.591 190.459 263.552 187.244 262.706V262.791ZM193.336 233.6C195.367 234.108 197.567 231.823 196.805 228.354C194.436 228.862 193.421 231.062 193.336 233.6ZM186.652 231.823C186.821 232.839 188.09 232.923 187.667 231.485C187.351 230.552 187.351 229.541 187.667 228.608C188.075 227.343 188.075 225.981 187.667 224.716C187.329 223.87 186.144 224.377 186.652 225.054C187.16 225.816 187.244 227.424 186.821 228.185C186.314 229.285 186.483 230.723 186.652 231.823ZM206.028 245.361C205.182 246.461 203.574 245.699 204.843 244.092C205.859 242.823 207.382 241.723 207.382 240.369C207.551 238.677 208.482 236.138 209.412 235.208C210.343 234.277 211.443 235.546 210.428 236.223C209.328 236.9 208.566 239.946 208.651 241.13C208.566 242.823 206.959 244.092 206.028 245.361ZM203.49 243.415C202.643 244.6 201.459 243.838 202.136 241.977C202.728 240.707 202.813 239.015 203.49 238.084C204.505 236.646 206.028 235.462 206.959 234.531C207.974 233.685 208.651 234.531 207.805 235.377C206.768 236.413 205.833 237.546 205.013 238.761C203.828 240.623 204.336 242.146 203.49 243.415ZM190.206 237.323C190.121 239.015 191.475 239.354 191.39 236.985C191.39 234.446 189.529 232.077 190.544 228.27C191.221 226.408 191.221 222.939 190.883 221.162C190.544 219.301 189.19 220.485 189.783 221.924C190.29 223.616 189.698 226.662 189.275 228.27C188.006 232.839 190.29 235.038 190.121 237.323H190.206ZM193.844 228.016C193.675 229.623 192.321 229.708 192.744 227.593C193.082 225.9 193.082 224.547 192.744 223.108C192.236 221.332 192.405 218.286 192.744 217.016C193.167 215.663 194.436 216.424 193.929 217.439C193.338 219.039 193.249 220.78 193.675 222.431C194.182 224.124 194.098 226.493 193.844 228.1V228.016ZM180.645 259.406C181.321 260.168 182.337 259.66 181.491 258.56C180.645 257.714 180.898 257.545 180.391 256.53C179.883 255.345 179.968 254.753 179.375 253.991C178.783 253.145 178.022 253.991 178.529 254.584C179.206 255.43 179.037 255.937 179.375 256.699C180.222 257.968 179.968 258.645 180.645 259.406ZM197.905 280.221C198.939 280.792 199.819 281.607 200.467 282.595C201.116 283.583 201.514 284.714 201.628 285.89C201.717 287.997 202.296 290.054 203.32 291.897C201.628 291.474 200.782 288.766 200.528 286.144C200.274 283.436 198.836 282.336 197.99 280.221H197.905ZM202.22 285.213C203.659 287.836 205.605 288.851 205.774 290.797C205.943 293.082 206.112 293.166 206.705 295.366C205.013 294.943 204.589 294.774 204.166 291.389C203.913 289.02 201.967 287.413 202.22 285.213Z" fill="white" stroke="#BD6B00" stroke-width="0.423055"/>
<path fill-rule="evenodd" clip-rule="evenodd" d="M246.726 309.581C247.572 311.104 248.418 313.388 250.11 312.965C250.11 311.865 248.333 311.019 246.726 309.581ZM249.264 310.089C252.395 311.442 255.187 311.104 255.61 313.135C252.564 313.473 251.379 312.288 249.179 310.089H249.264ZM235.642 299.343C237.744 300.977 239.234 303.273 239.872 305.858C240.554 308.197 241.581 310.421 242.918 312.458C240.718 310.979 239.125 308.756 238.434 306.197C237.842 303.658 237.08 301.712 235.642 299.428V299.343ZM238.265 299.343C240.634 301.204 242.834 303.404 243.511 306.027C244.187 308.481 244.61 310.342 246.218 312.796C243.68 311.189 242.749 308.819 241.988 306.197C241.395 303.658 239.872 301.797 238.265 299.428V299.343ZM246.049 305.52C246.016 305.308 246.057 305.092 246.164 304.907C246.272 304.722 246.441 304.58 246.641 304.504C247.365 304.249 248.099 304.023 248.841 303.827C249.687 303.574 250.195 304.166 250.195 304.589V306.281C250.195 306.873 250.026 306.958 249.603 307.043C249.01 307.127 248.164 307.212 247.572 307.635C247.064 307.973 246.557 307.72 246.303 307.212L246.049 305.52ZM255.018 305.52C255.018 305.012 254.848 304.589 254.51 304.504C253.868 304.238 253.173 304.123 252.479 304.166C251.633 304.166 251.549 304.335 251.549 304.674V306.45C251.549 307.127 251.549 307.127 251.887 307.296C252.479 307.296 253.41 307.296 254.002 307.804C254.425 308.058 254.848 307.804 254.933 307.296L255.018 305.52Z" fill="white"/>
<path fill-rule="evenodd" clip-rule="evenodd" d="M292.162 244.6C293.177 242.907 294.446 246.969 298.762 249.93C300.708 251.284 302.146 254.922 302.146 257.291C302.146 258.983 301.977 260.591 302.146 262.199C302.231 263.129 303.331 265.414 302.569 266.006C300.708 267.36 298.254 270.575 297.154 271.675C296.139 272.521 295.293 267.191 294.616 264.906C293.77 262.368 294.108 259.237 291.908 256.953C290.385 255.26 286.493 253.737 286.831 253.061L292.162 244.6Z" fill="white" stroke="#BD6B00" stroke-width="0.423055"/>
<path fill-rule="evenodd" clip-rule="evenodd" d="M292.416 257.63C292.752 256.831 293.208 256.09 293.769 255.43C294.309 254.761 295.007 254.238 295.8 253.907C296.579 253.676 297.281 253.237 297.831 252.638C298.154 252.275 298.387 251.84 298.508 251.368C298.604 250.809 298.604 250.236 298.508 249.676L298.761 249.93C300.708 251.284 302.146 254.922 302.146 257.291C302.172 257.94 302.172 258.589 302.146 259.237C301.977 259.66 301.892 260.083 301.638 260.337L300.708 261.014L298.423 261.606C297.568 261.991 296.814 262.571 296.223 263.299C295.607 263.951 295.094 264.693 294.7 265.499L294.531 264.822C293.854 262.537 293.939 259.83 292.331 257.63H292.416Z" fill="#BF0000" stroke="#BD6B00" stroke-width="0.423055"/>
<path d="M298.508 249.592C298.931 252.384 297.323 253.399 295.8 253.907C294.277 254.499 293.008 256.107 292.416 257.63M302.315 258.899C301.638 261.437 299.946 261.099 298.423 261.606C296.9 262.199 295.292 264.145 294.616 265.668" stroke="#BD6B00" stroke-width="0.423055"/>
<path fill-rule="evenodd" clip-rule="evenodd" d="M293.6 242.907L292.754 242.4L277.778 267.698L278.624 268.206L293.6 242.907Z" fill="white" stroke="#BD6B00" stroke-width="0.423055"/>
<path fill-rule="evenodd" clip-rule="evenodd" d="M291.993 241.892C291.993 242.341 292.171 242.771 292.488 243.089C292.806 243.406 293.236 243.584 293.685 243.584C294.134 243.584 294.564 243.406 294.881 243.089C295.199 242.771 295.377 242.341 295.377 241.892C295.377 241.443 295.199 241.013 294.881 240.695C294.564 240.378 294.134 240.2 293.685 240.2C293.236 240.2 292.806 240.378 292.488 240.695C292.171 241.013 291.993 241.443 291.993 241.892ZM279.132 221.585H273.04V222.939H279.132V221.585ZM279.132 224.208H273.04V235.885H279.132V224.208ZM279.47 219.978H272.701C272.532 217.693 274.817 215.24 276.086 215.24C277.44 215.324 279.555 217.778 279.47 219.978Z" fill="white" stroke="#BD6B00" stroke-width="0.423055"/>
<path fill-rule="evenodd" clip-rule="evenodd" d="M262.294 218.624C263.563 219.132 264.579 220.57 265.171 222.262C265.763 223.954 266.017 225.901 265.679 227.424C265.679 228.016 265.425 228.354 265.256 228.693C265.086 228.947 264.917 229.116 264.748 229.116C264.494 229.116 264.24 229.116 264.156 228.862L263.986 228.185C264.071 226.493 264.071 224.97 263.733 223.616C263.356 222.113 262.456 220.793 261.194 219.893C260.94 219.724 260.856 219.47 260.771 219.301C260.774 219.078 260.866 218.865 261.025 218.709C261.363 218.455 261.871 218.37 262.294 218.624ZM262.125 218.962C261.787 218.793 261.448 218.962 261.279 219.047L261.194 219.216C261.194 219.301 261.194 219.385 261.448 219.555C262.748 220.508 263.675 221.884 264.071 223.447C264.422 225.001 264.508 226.603 264.325 228.185C264.325 228.368 264.384 228.546 264.494 228.693C264.494 228.693 264.494 228.777 264.663 228.693C264.663 228.693 264.833 228.693 265.002 228.439C265.169 228.121 265.283 227.778 265.34 227.424C265.594 225.901 265.34 224.039 264.748 222.347C264.156 220.824 263.225 219.47 262.21 218.962H262.125Z" fill="#BD6B00"/>
<path fill-rule="evenodd" clip-rule="evenodd" d="M260.094 220.232C261.363 220.824 262.21 222.178 262.633 223.785C263.082 225.411 263.169 227.115 262.886 228.777C262.717 229.877 262.04 230.47 261.533 230.47C261.279 230.554 261.025 230.47 260.856 230.216C260.687 229.962 260.602 229.708 260.687 229.37C261.025 228.016 261.11 226.493 260.94 225.054C260.687 223.616 260.094 222.347 259.079 221.585C258.825 221.332 258.656 221.162 258.656 220.908C258.648 220.817 258.659 220.725 258.688 220.637C258.717 220.55 258.764 220.469 258.825 220.401C259.164 220.147 259.671 220.062 260.094 220.232ZM259.925 220.655C259.587 220.485 259.248 220.57 259.079 220.655L258.994 220.908L259.248 221.247C259.816 221.702 260.288 222.266 260.637 222.905C260.985 223.544 261.204 224.246 261.279 224.97C261.533 226.493 261.363 228.1 261.11 229.37C261.025 229.708 261.11 229.877 261.11 230.046L261.533 230.131C261.786 230.131 262.379 229.708 262.548 228.693C262.802 227.254 262.717 225.393 262.294 223.87C261.871 222.347 261.025 221.078 259.925 220.655Z" fill="#BD6B00"/>
<path fill-rule="evenodd" clip-rule="evenodd" d="M279.47 245.361H272.701V254.668H279.47V245.361ZM279.047 260.083H272.532V262.114H279.047V260.083ZM279.216 263.552H272.447V270.914H279.216V263.552ZM279.724 272.437H272.363V276.583H279.724V272.437ZM278.793 258.391H272.87L271.686 256.361H279.809L278.793 258.391ZM270.84 251.115L270.755 246.038H266.694C268.44 247.397 269.857 249.132 270.84 251.115Z" fill="white" stroke="#BD6B00" stroke-width="0.423055"/>
<path fill-rule="evenodd" clip-rule="evenodd" d="M278.37 253.23C278.37 254.33 277.101 253.907 277.101 253.315V248.576C277.101 247.73 275.07 247.9 275.07 248.492V253.568C275.07 254.415 273.632 254.33 273.717 253.568V247.646C273.717 245.784 278.37 245.869 278.37 247.561V253.23ZM278.37 264.483H273.547V270.406H278.37V264.483Z" stroke="#BD6B00" stroke-width="0.423055"/>
<path fill-rule="evenodd" clip-rule="evenodd" d="M275.324 267.022H273.632V267.868H275.324V267.022ZM278.286 267.022H276.593V267.868H278.286V267.022ZM276.593 264.483H275.324V267.022H276.593V264.483ZM276.593 267.868H275.324V270.491H276.593V267.868ZM303.415 204.409C303.077 209.063 304.6 211.686 307.053 211.263C307.73 208.725 306.207 206.948 303.415 204.409ZM308.915 214.817C311.115 213.717 309.507 205.086 308.661 201.448C308.069 206.102 306.969 212.701 308.915 214.817Z" fill="white"/>
<path d="M275.324 267.022H273.632V267.868H275.324M275.324 267.022V267.868M275.324 267.022V264.483H276.593V267.022M275.324 267.022H276.593M275.324 267.868H276.593M275.324 267.868V270.491H276.593V267.868M276.593 267.022H278.286V267.868H276.593M276.593 267.022V267.868M303.415 204.409C303.077 209.063 304.6 211.686 307.053 211.263C307.73 208.725 306.207 206.948 303.415 204.409ZM308.915 214.817C311.115 213.717 309.507 205.086 308.661 201.448C308.069 206.102 306.969 212.701 308.915 214.817Z" stroke="#BD6B00" stroke-width="0.423055"/>
<path fill-rule="evenodd" clip-rule="evenodd" d="M308.153 215.24C304.43 216.509 301.384 212.532 300.454 207.879C303.5 212.109 308.492 212.109 308.069 215.24H308.153ZM310.945 219.555C313.822 218.793 312.13 209.655 311.538 206.017C310.945 209.825 308.915 218.286 310.945 219.555ZM309.93 219.301C309.761 216.17 306.63 217.017 304.43 215.324C304.853 217.017 306.123 219.724 309.93 219.301ZM313.484 223.532C316.361 222.685 314.668 212.871 314.838 208.809C313.991 212.363 311.284 222.601 313.484 223.532ZM312.13 223.109C309.761 223.87 306.63 222.262 306.376 219.47C308.492 220.909 311.707 219.809 312.13 223.109Z" fill="white" stroke="#BD6B00" stroke-width="0.423055"/>
<path fill-rule="evenodd" clip-rule="evenodd" d="M315.684 227.847C318.391 228.1 317.207 219.724 317.207 211.94C316.191 219.216 313.399 225.901 315.684 227.847Z" fill="white" stroke="#BD6B00" stroke-width="0.423055"/>
<path fill-rule="evenodd" clip-rule="evenodd" d="M314.668 227.508C312.807 228.354 309.507 226.916 308.576 223.785C311.961 225.224 314.161 223.785 314.668 227.508ZM293.008 208.725C293.516 212.871 295.208 215.24 297.662 214.817C298.338 212.278 296.308 210.586 293.008 208.725ZM299.608 219.216C295.462 219.809 294.023 216.678 291.146 212.532C295.123 215.409 299.777 215.917 299.608 219.301V219.216Z" fill="white" stroke="#BD6B00" stroke-width="0.423055"/>
<path fill-rule="evenodd" clip-rule="evenodd" d="M300.877 218.793C303.077 216.086 300.877 212.617 299.185 209.74C299.523 214.055 298.085 216.509 300.877 218.793ZM301.723 223.278C302.061 220.57 297.492 219.978 295.462 218.54C296.223 220.063 297.154 224.208 301.807 223.278H301.723Z" fill="white" stroke="#BD6B00" stroke-width="0.423055"/>
<path fill-rule="evenodd" clip-rule="evenodd" d="M302.738 223.278C305.869 222.939 304.6 217.609 302.315 214.732C303.246 218.793 300.623 221.585 302.738 223.278Z" fill="white" stroke="#BD6B00" stroke-width="0.423055"/>
<path fill-rule="evenodd" clip-rule="evenodd" d="M305.107 227.762C308.661 226.07 306.377 221.67 305.107 219.047C305.615 222.516 302.738 225.139 305.107 227.677V227.762Z" fill="white" stroke="#BD6B00" stroke-width="0.423055"/>
<path fill-rule="evenodd" clip-rule="evenodd" d="M304.43 227.254C302.569 229.793 298.931 226.577 298.169 222.854C301.3 225.477 303.669 225.054 304.43 227.339V227.254ZM312.553 244.43C312.892 240.792 310.184 234.277 312.13 230.723C312.384 230.216 311.538 228.946 310.945 229.708C310.099 230.977 309.253 234.531 308.83 233.177C308.492 231.739 308.407 229.285 307.138 228.777C306.292 228.523 305.192 228.27 305.53 229.623C305.869 230.808 306.546 232.5 305.784 232.585C305.361 232.585 304.092 230.893 302.992 230.046C302.146 229.37 300.792 230.554 302.146 231.569C306.207 234.954 310.184 236.561 312.553 244.43ZM319.914 299.004C320.422 299.004 321.014 298.751 320.422 299.512C315.599 305.435 314.245 307.127 307.223 306.281C300.2 305.35 298.508 303.404 293.516 300.612C292.07 299.852 290.489 299.385 288.862 299.24C287.236 299.095 285.596 299.274 284.039 299.766C282.685 300.189 281.839 300.189 282.855 299.174C283.87 298.243 284.97 296.889 286.239 295.958C289.395 293.847 293.242 293.029 296.985 293.674C302.061 294.52 306.377 297.82 311.538 299.089C314.302 299.647 317.15 299.647 319.914 299.089V299.004ZM279.47 309.581C278.624 309.75 278.032 311.442 277.524 310.342C276.847 308.396 277.355 306.958 278.201 307.042C279.216 307.296 280.824 309.581 279.47 309.581Z" fill="white" stroke="#BD6B00" stroke-width="0.423055"/>
<path fill-rule="evenodd" clip-rule="evenodd" d="M323.214 241.638C324.229 240.454 323.976 240.115 322.368 240.031C321.183 240.031 318.814 240.877 317.884 240.115C317.038 239.523 317.461 236.985 317.038 235.885C316.868 235.123 316.445 234.192 315.345 235.715C312.299 240.623 308.576 246.546 306.884 252.299C306.038 255.514 306.884 260.591 309.761 263.975C309.761 261.099 310.776 259.153 312.045 256.699C313.738 253.568 319.745 244.853 323.214 241.554V241.638Z" fill="white"/>
<path fill-rule="evenodd" clip-rule="evenodd" d="M310.607 267.36C307.223 267.36 306.63 262.876 306.63 261.606C308.323 261.945 311.199 264.737 310.607 267.36ZM281.416 311.273C279.047 311.781 279.132 306.027 281.586 303.574C280.486 307.296 283.278 310.681 281.501 311.188L281.416 311.273ZM282.432 311.188C282.262 313.896 289.201 310.85 290.893 308.65C286.831 310.427 282.601 308.989 282.432 311.188ZM285.393 307.296C285.139 309.919 291.316 307.55 293.262 305.52C289.116 306.873 285.647 305.096 285.393 307.212V307.296ZM284.293 307.635C281.839 308.227 282.262 302.22 284.632 300.189C283.447 304.166 286.155 307.043 284.293 307.635ZM286.831 303.997C284.378 304.589 285.816 299.428 287.593 297.397C287.254 301.12 288.439 303.743 286.747 303.997H286.831ZM288.101 303.997C287.847 306.704 292.67 304.673 294.531 302.05C290.47 303.32 288.354 301.797 288.101 303.997ZM289.37 301.881C287.847 300.781 289.454 297.82 292.5 297.989C292.162 299.766 291.147 302.981 289.37 301.881ZM277.524 314.319C277.44 317.027 284.293 315.673 286.493 312.796C282.093 313.642 277.778 312.119 277.609 314.319H277.524ZM304.938 309.412C304.684 312.119 312.215 309.073 314.076 306.535C310.099 307.889 305.192 307.212 304.938 309.412ZM300.369 310.512C298.762 309.412 301.977 306.535 304.6 305.858C304.261 307.635 302.061 311.612 300.369 310.596V310.512ZM299.862 312.458C299.692 314.911 307.9 313.558 310.015 311.273C302.992 312.542 300.115 310.342 299.862 312.458Z" fill="white" stroke="#BD6B00" stroke-width="0.423055"/>
<path fill-rule="evenodd" clip-rule="evenodd" d="M295.969 314.065C295.123 316.35 302.992 315.757 305.784 314.488C301.3 314.488 296.646 312.458 295.969 314.065Z" fill="white" stroke="#BD6B00" stroke-width="0.423055"/>
<path fill-rule="evenodd" clip-rule="evenodd" d="M292.331 315.758C291.485 317.788 298.762 317.788 302.315 316.604C297.577 316.604 293.177 313.727 292.331 315.758ZM287.001 316.857C285.647 319.311 293.431 319.48 295.885 318.296C291.485 317.704 288.101 314.911 287.001 316.857ZM296.054 312.712C298.508 314.235 298.338 309.666 300.285 306.535C297.239 309.327 294.362 311.273 296.054 312.712Z" fill="white" stroke="#BD6B00" stroke-width="0.423055"/>
<path fill-rule="evenodd" clip-rule="evenodd" d="M291.654 314.404C293.685 316.18 295.377 309.919 297.238 306.366C294.192 309.75 289.793 312.881 291.654 314.319V314.404ZM285.901 316.096C287.593 318.127 292.669 310.173 294.531 305.943C291.739 309.242 284.547 314.404 285.901 316.096ZM290.808 322.188C291.654 325.234 304.515 319.311 306.038 316.18C298.592 320.073 290.639 319.226 290.808 322.103V322.188ZM332.014 259.745C332.352 259.322 333.198 259.745 333.029 260.676C332.775 261.945 330.914 268.46 327.698 270.66C325.414 272.352 313.315 274.975 307.899 276.159C304.853 276.752 302.4 278.275 300.369 280.644C301.064 277.836 301.912 275.068 302.907 272.352C303.923 269.814 306.63 267.106 309.507 267.021C314.668 266.768 321.437 266.345 326.429 264.229C328.69 263.276 330.65 261.726 332.098 259.745H332.014Z" fill="white" stroke="#BD6B00" stroke-width="0.423055"/>
<path fill-rule="evenodd" clip-rule="evenodd" d="M302.146 285.551C300.454 286.736 298.677 282.421 300.708 278.275C300.792 282.252 303.923 283.605 302.146 285.551Z" fill="white" stroke="#BD6B00" stroke-width="0.423055"/>
<path fill-rule="evenodd" clip-rule="evenodd" d="M300.538 289.528C298.254 290.205 297.577 286.144 299.015 282.928C298.762 286.398 302.654 288.513 300.538 289.528Z" fill="white" stroke="#BD6B00" stroke-width="0.423055"/>
<path fill-rule="evenodd" clip-rule="evenodd" d="M298.761 292.743C296.562 293.843 295.8 289.697 297.323 286.736C297.154 290.543 300.454 291.728 298.761 292.659V292.743Z" fill="white" stroke="#BD6B00" stroke-width="0.423055"/>
<path fill-rule="evenodd" clip-rule="evenodd" d="M299.692 292.997C300.538 295.535 305.615 290.713 306.461 288.09C303.331 291.22 299.1 290.797 299.692 292.912V292.997Z" fill="white" stroke="#BD6B00" stroke-width="0.423055"/>
<path fill-rule="evenodd" clip-rule="evenodd" d="M301.977 289.02C302.992 291.559 309.338 284.79 310.776 281.659C307.646 284.79 301.3 287.159 301.977 288.936V289.02Z" fill="white" stroke="#BD6B00" stroke-width="0.423055"/>
<path fill-rule="evenodd" clip-rule="evenodd" d="M303.246 285.044C304.261 288.005 311.115 280.136 313.145 277.344C309.761 280.39 302.484 282.928 303.246 285.044ZM303.5 282.167C300.961 281.659 303.584 279.628 306.63 276.329C306.715 279.798 306.207 282.251 303.5 282.167Z" fill="white" stroke="#BD6B00" stroke-width="0.423055"/>
<path fill-rule="evenodd" clip-rule="evenodd" d="M307.646 280.136C306.546 279.036 308.576 278.529 311.115 275.652C311.538 277.598 308.746 281.151 307.561 280.136H307.646ZM295.8 292.997C294.446 293.843 293.6 291.051 295.208 288.597C295.631 291.305 296.985 291.982 295.8 292.997ZM324.737 275.821C327.529 277.513 332.014 270.744 333.198 267.952C330.745 271.167 324.229 274.044 324.737 275.821Z" fill="white" stroke="#BD6B00" stroke-width="0.423055"/>
<path fill-rule="evenodd" clip-rule="evenodd" d="M322.283 279.713C323.891 281.405 328.798 276.752 330.491 274.383C327.952 276.667 321.606 276.921 322.283 279.713Z" fill="white" stroke="#BD6B00" stroke-width="0.423055"/>
<path fill-rule="evenodd" clip-rule="evenodd" d="M319.66 283.267C320.168 285.636 327.275 280.305 328.968 277.767C325.922 280.728 319.153 280.475 319.66 283.267Z" fill="white" stroke="#BD6B00" stroke-width="0.423055"/>
<path fill-rule="evenodd" clip-rule="evenodd" d="M320.76 285.89C321.86 288.005 327.698 282.675 329.137 279.967C325.499 283.013 319.83 283.774 320.676 285.89H320.76ZM323.722 275.483C321.945 273.537 322.706 272.606 324.06 269.56C324.737 272.69 325.837 273.96 323.722 275.483ZM321.268 279.121C317.884 279.29 321.268 275.229 322.114 271.76C321.776 275.652 322.96 278.782 321.268 279.121Z" fill="white" stroke="#BD6B00" stroke-width="0.423055"/>
<path fill-rule="evenodd" clip-rule="evenodd" d="M319.153 282.336C316.868 281.829 317.461 278.529 319.322 274.552C318.899 278.867 321.268 281.321 319.153 282.336ZM319.999 288.851C320.845 291.39 327.445 285.467 328.46 283.098C325.076 285.974 319.407 286.905 319.999 288.851Z" fill="white" stroke="#BD6B00" stroke-width="0.423055"/>
<path fill-rule="evenodd" clip-rule="evenodd" d="M316.022 292.912C316.953 295.451 323.891 290.205 326.006 287.328C321.86 290.713 315.514 290.374 316.022 292.912Z" fill="white" stroke="#BD6B00" stroke-width="0.423055"/>
<path fill-rule="evenodd" clip-rule="evenodd" d="M311.961 297.058C313.061 300.697 320.337 294.859 322.453 291.982C317.884 295.535 311.453 294.52 311.961 297.058ZM318.73 287.751C316.784 288.682 316.022 283.182 317.122 279.206C317.122 283.436 321.099 286.651 318.814 287.667L318.73 287.751Z" fill="white" stroke="#BD6B00" stroke-width="0.423055"/>
<path fill-rule="evenodd" clip-rule="evenodd" d="M315.43 292.151C313.061 292.828 313.738 286.821 315.853 282.844C316.107 286.821 317.799 290.459 315.43 292.151ZM311.199 296.297C308.661 296.382 310.353 291.136 312.553 288.174C312.215 291.982 313.399 295.789 311.199 296.297ZM315.853 298.497C316.699 299.851 318.561 297.397 321.776 295.536C318.899 296.382 315.515 297.228 315.853 298.497ZM317.376 253.907C314.838 252.045 316.784 248.661 317.376 245.446C318.222 248.492 320.253 252.553 317.376 253.907ZM317.376 258.391C321.183 257.968 320.591 253.23 320.76 250.184C319.576 254.33 316.53 255.007 317.376 258.476V258.391ZM316.868 257.799C313.738 257.63 313.907 254.076 313.738 250.522C315.345 253.822 317.122 254.33 316.868 257.799Z" fill="white" stroke="#BD6B00" stroke-width="0.423055"/>
<path fill-rule="evenodd" clip-rule="evenodd" d="M316.953 262.199C319.491 262.452 320.676 259.999 321.183 256.276C318.899 259.745 316.868 258.645 316.953 262.199ZM316.107 261.945C312.976 262.368 313.568 258.73 313.568 256.022C314.584 258.56 317.122 259.406 316.107 261.945Z" fill="white" stroke="#BD6B00" stroke-width="0.423055"/>
<path fill-rule="evenodd" clip-rule="evenodd" d="M321.014 260.422C320.76 262.791 319.237 266.852 316.784 265.922C315.853 263.045 318.983 262.453 321.014 260.422Z" fill="white" stroke="#BD6B00" stroke-width="0.423055"/>
<path fill-rule="evenodd" clip-rule="evenodd" d="M316.107 266.175C317.122 264.145 313.568 263.045 312.892 260.337C312.469 264.229 312.807 266.768 316.107 266.26V266.175ZM326.175 241.469C324.229 239.438 325.922 236.054 326.514 232.839C327.36 235.885 328.629 239.946 326.175 241.469ZM326.175 245.361C329.56 245.784 330.406 238.846 330.829 235.8C329.645 239.946 325.752 241.723 326.175 245.446V245.361ZM325.499 245.361C323.13 244.092 323.637 241.384 322.96 239.438C324.483 241.892 326.006 242.23 325.499 245.361Z" fill="white" stroke="#BD6B00" stroke-width="0.423055"/>
<path fill-rule="evenodd" clip-rule="evenodd" d="M326.26 249.93C329.729 250.184 331.844 242.484 332.014 239.438C330.914 243.584 325.752 245.784 326.176 249.93H326.26ZM325.499 249.761C322.114 248.999 322.537 246.799 323.045 243.33C324.145 246.884 326.006 246.123 325.499 249.761Z" fill="white" stroke="#BD6B00" stroke-width="0.423055"/>
<path fill-rule="evenodd" clip-rule="evenodd" d="M326.26 254.33C330.152 255.007 329.898 248.746 333.029 244.261C330.321 247.646 325.414 251.876 326.26 254.33ZM325.414 254.076C322.368 254.245 322.029 249.761 322.199 247.899C322.96 249.761 326.429 251.453 325.329 254.161L325.414 254.076Z" fill="white" stroke="#BD6B00" stroke-width="0.423055"/>
<path fill-rule="evenodd" clip-rule="evenodd" d="M332.352 249.507C330.914 254.33 328.798 259.153 326.26 258.814C324.991 256.022 328.714 255.684 332.352 249.507Z" fill="white" stroke="#BD6B00" stroke-width="0.423055"/>
<path fill-rule="evenodd" clip-rule="evenodd" d="M325.329 258.053C326.345 255.937 322.791 254.922 322.114 252.215C321.691 256.107 322.03 258.645 325.329 258.053ZM331.337 255.007C329.222 259.322 328.291 264.314 325.414 263.552C324.314 260.168 328.629 259.491 331.337 255.007Z" fill="white" stroke="#BD6B00" stroke-width="0.423055"/>
<path fill-rule="evenodd" clip-rule="evenodd" d="M324.822 262.791C326.091 260.422 322.537 259.66 321.606 256.53C321.183 260.591 321.606 263.552 324.822 262.706V262.791ZM318.73 233.6C316.699 234.108 314.499 231.823 315.261 228.354C317.63 228.862 318.645 231.062 318.73 233.6ZM325.414 231.823C325.245 232.839 323.976 232.923 324.399 231.485C324.715 230.552 324.715 229.541 324.399 228.608C323.991 227.343 323.991 225.981 324.399 224.716C324.737 223.87 325.922 224.377 325.414 225.054C324.906 225.816 324.822 227.424 325.245 228.185C325.752 229.285 325.583 230.723 325.414 231.823ZM306.038 245.361C306.884 246.461 308.492 245.699 307.223 244.092C306.207 242.823 304.684 241.723 304.684 240.369C304.515 238.677 303.584 236.138 302.654 235.208C301.723 234.277 300.623 235.546 301.638 236.223C302.738 236.9 303.5 239.946 303.415 241.13C303.5 242.823 305.107 244.092 306.038 245.361ZM308.576 243.415C309.422 244.6 310.607 243.838 309.93 241.977C309.338 240.707 309.253 239.015 308.576 238.084C307.561 236.646 306.038 235.462 305.107 234.531C304.092 233.685 303.415 234.531 304.261 235.377C305.298 236.413 306.233 237.546 307.053 238.761C308.238 240.623 307.73 242.146 308.576 243.415ZM321.86 237.323C321.945 239.015 320.591 239.354 320.676 236.985C320.676 234.446 322.537 232.077 321.522 228.27C320.845 226.408 320.845 222.939 321.183 221.162C321.522 219.301 322.876 220.485 322.283 221.924C321.776 223.616 322.368 226.662 322.791 228.27C324.06 232.839 321.776 235.038 321.945 237.323H321.86ZM318.222 228.016C318.391 229.623 319.745 229.708 319.322 227.593C318.984 225.9 318.984 224.547 319.322 223.108C319.83 221.332 319.66 218.286 319.322 217.016C318.899 215.663 317.63 216.424 318.137 217.439C318.728 219.039 318.817 220.78 318.391 222.431C317.884 224.124 317.968 226.493 318.222 228.1V228.016ZM331.421 259.406C330.744 260.168 329.729 259.66 330.575 258.56C331.421 257.714 331.168 257.545 331.675 256.53C332.183 255.345 332.098 254.753 332.691 253.991C333.283 253.145 334.044 253.991 333.537 254.584C332.86 255.43 333.029 255.937 332.691 256.699C331.844 257.968 332.098 258.645 331.421 259.406ZM314.161 280.221C313.126 280.792 312.247 281.607 311.598 282.595C310.95 283.583 310.551 284.714 310.438 285.89C310.349 287.997 309.77 290.054 308.746 291.897C310.438 291.474 311.284 288.766 311.538 286.144C311.792 283.436 313.23 282.336 314.076 280.221H314.161ZM309.846 285.213C308.407 287.836 306.461 288.851 306.292 290.797C306.123 293.082 305.953 293.166 305.361 295.366C307.053 294.943 307.476 294.774 307.899 291.389C308.153 289.02 310.099 287.413 309.846 285.213Z" fill="white" stroke="#BD6B00" stroke-width="0.423055"/>
<path fill-rule="evenodd" clip-rule="evenodd" d="M265.34 309.581C264.494 311.104 263.648 313.388 261.956 312.965C261.956 311.865 263.733 311.019 265.34 309.581ZM262.802 310.089C259.671 311.442 256.879 311.104 256.456 313.135C259.502 313.473 260.687 312.288 262.886 310.089H262.802ZM276.424 299.343C274.322 300.977 272.831 303.273 272.194 305.858C271.512 308.197 270.485 310.421 269.148 312.458C271.348 310.979 272.941 308.756 273.632 306.197C274.224 303.658 274.986 301.712 276.424 299.428V299.343ZM273.801 299.343C271.432 301.204 269.232 303.404 268.555 306.027C267.878 308.481 267.455 310.342 265.848 312.796C268.386 311.189 269.317 308.819 270.078 306.197C270.671 303.658 272.194 301.797 273.801 299.428V299.343ZM266.017 305.52C266.05 305.308 266.009 305.092 265.901 304.907C265.794 304.722 265.625 304.58 265.425 304.504C264.701 304.249 263.967 304.023 263.225 303.827C262.379 303.574 261.871 304.166 261.871 304.589V306.281C261.871 306.873 262.04 306.958 262.463 307.043C263.056 307.127 263.902 307.212 264.494 307.635C265.002 307.973 265.509 307.72 265.763 307.212L266.017 305.52ZM257.048 305.52C257.048 305.012 257.217 304.589 257.556 304.504C258.198 304.238 258.893 304.123 259.587 304.166C260.433 304.166 260.517 304.335 260.517 304.674V306.45C260.517 307.127 260.517 307.127 260.179 307.296C259.587 307.296 258.656 307.296 258.064 307.804C257.641 308.058 257.217 307.804 257.133 307.296L257.048 305.52Z" fill="white"/>
<path fill-rule="evenodd" clip-rule="evenodd" d="M280.147 329.295C280.147 330.311 280.316 331.157 280.993 331.918C277.123 330.749 272.954 331.081 269.317 332.849C267.794 333.526 265.933 332.003 267.709 330.564C270.248 328.618 275.917 329.718 280.147 329.295ZM231.496 329.295C231.57 330.156 231.454 331.022 231.157 331.834C234.88 330.395 238.857 331.664 242.665 333.187C245.203 334.287 245.457 332.341 245.034 331.749C244.566 331.041 243.94 330.452 243.206 330.026C242.472 329.6 241.65 329.35 240.803 329.295H231.496ZM234.711 310.935C233.611 310.512 232.427 310.935 231.327 312.119C227.688 315.673 223.373 319.142 219.904 321.934C218.635 323.034 217.366 325.065 222.781 327.011C223.035 327.18 227.011 328.703 229.55 328.703C230.65 328.703 230.65 330.226 230.396 330.649C229.973 331.495 230.311 331.834 229.465 332.595C228.534 333.441 229.465 334.372 230.311 333.695C233.357 330.987 238.434 332.764 243.257 334.287C244.441 334.626 246.472 334.541 246.472 332.934C246.472 331.241 247.741 330.057 248.503 329.972C250.533 330.311 260.348 330.395 263.31 330.057C265.002 329.803 265.171 332.51 266.102 333.441C266.779 334.203 269.232 334.372 271.009 333.61C274.394 332.087 279.47 332.087 281.586 333.61C282.432 334.203 283.193 333.61 282.686 333.018C282.009 332.172 282.093 331.664 281.755 330.987C280.909 329.295 281.586 328.957 282.432 328.872C291.739 327.603 294.785 324.472 291.908 321.849C288.185 318.634 284.124 315.334 280.57 311.527C279.555 310.512 278.878 310.089 276.932 310.935C270.194 313.99 262.92 315.686 255.525 315.927C248.362 315.464 241.327 313.805 234.711 311.019V310.935Z" fill="white"/>
<path fill-rule="evenodd" clip-rule="evenodd" d="M278.54 311.442L277.186 311.781C269.571 314.488 262.633 316.35 255.441 316.35C248.418 316.35 241.057 314.319 234.373 311.611C233.961 311.47 233.515 311.47 233.103 311.611C232.68 311.696 232.257 311.95 232.003 312.204C228.876 315.331 225.541 318.243 222.019 320.919C221.427 321.342 221.512 322.442 222.442 322.78C229.465 325.318 236.319 329.972 255.948 329.803C275.832 329.634 282.855 325.065 289.116 322.949C289.539 322.78 289.962 322.526 290.216 322.103C290.276 322.002 290.315 321.89 290.329 321.774C290.344 321.657 290.334 321.539 290.3 321.426C290.191 321.161 290.017 320.928 289.793 320.749C286.155 317.788 282.347 315.419 279.809 311.95C279.555 311.527 279.047 311.442 278.54 311.527V311.442ZM278.54 311.865C278.963 311.865 279.386 311.865 279.47 312.119C282.009 315.757 285.985 318.042 289.539 321.003L289.877 321.595C289.901 321.649 289.913 321.706 289.913 321.765C289.913 321.823 289.901 321.881 289.877 321.934C289.793 322.188 289.37 322.442 289.031 322.526C282.601 324.726 275.747 329.295 256.033 329.464C236.403 329.633 229.634 324.98 222.612 322.442C221.935 322.103 222.019 321.426 222.273 321.257C225.827 318.549 229.211 315.503 232.257 312.457C232.519 312.212 232.84 312.037 233.188 311.95H234.203C240.89 314.855 248.069 316.463 255.356 316.688C262.717 316.688 269.74 314.827 277.355 312.204C277.763 312.042 278.189 311.928 278.624 311.865H278.54Z" fill="#BD6B00"/>
<path fill-rule="evenodd" clip-rule="evenodd" d="M230.396 183.764C230.396 182.58 232.088 182.495 231.919 184.103C231.665 186.049 235.726 191.125 236.065 194.256C236.319 196.371 234.796 198.148 233.357 199.333C232.528 199.92 231.553 200.27 230.539 200.345C229.525 200.419 228.51 200.216 227.604 199.756C226.842 199.079 226.165 196.964 226.758 196.117C226.927 195.864 227.858 199.248 229.888 199.248C232.68 199.248 234.965 197.133 234.965 195.271C235.134 192.056 230.481 186.979 230.396 183.764ZM238.434 191.718C238.942 191.379 239.619 192.818 239.111 193.156C238.688 193.41 237.842 192.056 238.434 191.633V191.718ZM239.703 188.756C239.449 188.925 239.026 188.756 239.111 188.587C239.924 187.457 240.961 186.507 242.157 185.795C242.495 185.626 243.003 186.133 242.834 186.387C241.971 187.39 240.903 188.198 239.703 188.756ZM250.364 180.295C250.618 179.787 252.141 179.195 252.564 178.857C252.902 178.434 253.072 179.195 252.902 179.449C252.649 180.041 251.295 180.887 250.703 180.972C250.449 180.972 250.195 180.634 250.364 180.38V180.295ZM254.002 180.549C254.448 179.424 255.176 178.433 256.118 177.672C256.541 177.418 257.218 177.672 257.048 178.011C256.474 179.13 255.631 180.089 254.595 180.803C254.341 181.057 253.918 180.803 254.002 180.549ZM250.872 182.833C250.618 183.003 250.787 183.426 250.956 183.51C251.464 183.68 252.226 183.68 252.649 183.51C253.156 183.172 252.902 181.057 252.226 182.157C251.718 182.833 251.379 182.664 250.872 182.833ZM244.695 187.572C243.595 186.726 245.034 185.541 246.134 186.387C248.418 188.079 242.749 194.679 239.703 197.725C239.111 198.317 238.603 196.879 239.365 196.117C241.568 194.272 243.479 192.104 245.034 189.687C245.372 189.264 245.626 188.333 244.695 187.572ZM257.641 181.987C257.725 181.141 256.287 181.987 256.287 180.887C256.287 180.295 257.894 179.872 258.571 180.549C259.671 181.734 258.825 183.68 256.879 183.849C255.356 183.849 252.649 186.133 253.072 186.556C253.495 187.149 257.641 187.487 260.094 187.149C261.617 186.895 261.279 188.249 259.756 188.418C258.233 188.587 257.048 188.418 255.695 188.925C254.002 189.349 253.326 191.464 252.395 192.31C252.226 192.479 251.718 191.633 251.887 191.295C252.564 190.279 253.579 188.756 254.764 188.249C255.441 187.995 252.733 187.91 251.887 187.656C251.21 187.487 251.379 186.556 251.633 186.049C251.972 185.372 254.51 182.749 255.61 182.833C256.541 182.833 257.556 182.58 257.641 181.987ZM261.871 182.157C262.379 181.734 262.717 181.057 263.14 180.634C263.394 180.38 263.902 180.634 263.817 181.31C263.733 181.903 262.971 182.326 262.548 182.749C262.125 183.003 261.702 182.41 261.956 182.157H261.871ZM267.371 180.211C268.132 180.211 268.217 181.564 267.54 181.734C267.032 181.903 266.694 180.295 267.371 180.211ZM265.594 184.441C265.594 185.71 266.186 185.626 267.286 185.541C268.386 185.541 269.317 185.541 269.317 184.526C269.317 183.426 268.725 182.41 268.471 183.172C268.386 183.849 268.217 185.033 267.794 184.526C267.456 184.103 267.625 184.018 266.948 184.695C266.525 185.118 266.525 184.526 266.271 184.187C266.102 183.933 265.594 184.356 265.594 184.526V184.441ZM257.81 190.533C257.556 192.141 257.81 194.341 258.571 194.341C259.587 194.341 261.617 190.956 262.633 189.095C263.225 188.079 264.156 187.91 263.733 189.01C263.14 190.618 263.225 194.087 263.733 195.102C264.071 195.61 266.271 194.594 266.609 193.833C267.286 192.395 266.694 189.772 266.948 188.164C267.032 187.149 268.048 186.895 267.963 187.91C267.83 190.023 267.802 192.141 267.879 194.256C267.879 195.102 270.332 196.287 270.671 193.748C270.84 192.225 271.686 190.618 270.671 188.925C269.994 187.826 271.601 187.91 272.448 189.433C273.04 190.448 271.94 192.141 272.025 193.41C272.025 195.441 270.502 196.625 269.402 196.625C268.386 196.625 267.709 195.356 266.863 195.356C266.017 195.356 265.002 196.794 264.325 196.71C261.279 196.54 262.887 192.225 261.956 192.141C260.94 192.141 259.841 196.371 258.571 196.287C257.387 196.117 256.033 192.733 256.625 191.379C257.048 190.025 257.894 189.687 257.81 190.533ZM272.109 183.764C270.671 182.918 272.109 180.634 272.871 181.395C274.224 183.087 275.578 186.895 276.594 187.233C277.186 187.402 277.101 184.356 277.524 183.003C277.863 181.903 279.047 182.241 278.878 183.595C278.793 184.018 277.186 189.01 277.355 189.179C278.482 191.291 279.417 193.5 280.147 195.779C280.401 196.794 279.216 196.117 279.047 195.948C278.286 194.764 277.017 190.448 277.017 190.702L275.578 197.217C275.409 198.063 274.14 197.894 274.478 196.371C274.732 195.187 276.424 189.349 276.34 189.095C275.371 187.008 273.921 185.182 272.109 183.764Z" fill="white"/>
<path fill-rule="evenodd" clip-rule="evenodd" d="M274.647 197.81C274.309 197.81 273.632 198.656 275.663 199.079C278.286 199.586 281.247 198.656 282.093 196.033C283.193 192.902 283.785 189.941 284.378 188.841C285.055 187.572 285.901 187.656 285.224 185.795C284.801 184.356 283.955 184.78 283.785 185.541C283.362 187.487 281.585 194.002 280.993 195.102C279.978 197.302 277.863 198.148 274.647 197.81Z" fill="white"/>
<path fill-rule="evenodd" clip-rule="evenodd" d="M280.063 187.487C279.724 186.895 279.047 187.487 279.216 188.079C279.257 188.318 279.381 188.535 279.568 188.69C279.754 188.845 279.989 188.929 280.232 188.925C280.824 188.925 282.093 189.01 282.093 188.079C282.093 187.402 281.501 186.81 281.162 187.572C280.739 188.249 280.316 188.164 280.063 187.572V187.487ZM280.655 184.949C280.486 185.118 280.655 185.879 280.909 185.795C281.881 185.802 282.84 185.569 283.701 185.118C283.87 184.949 283.785 184.526 283.532 184.526C282.685 184.526 281.332 184.526 280.655 184.949ZM288.101 186.895C288.777 185.879 290.47 185.795 289.793 187.233C288.055 190.722 286.278 194.191 284.462 197.64C283.785 198.825 283.278 198.233 283.785 197.302C284.378 196.117 287.931 187.149 288.101 186.895Z" fill="white"/>
<path fill-rule="evenodd" clip-rule="evenodd" d="M281.586 199.333C281.416 198.656 280.316 197.641 280.486 199.502C280.655 202.717 285.139 201.702 286.408 200.602C287.678 199.502 286.662 204.24 288.27 204.748C289.116 205.002 290.808 203.817 291.654 202.717C293.939 199.756 295.462 195.441 297.577 192.564C298.423 191.379 297.154 190.533 296.731 191.464C294.7 194.679 292.331 201.279 289.708 202.971C287.593 204.325 288.27 201.279 288.185 200.263C288.101 199.587 287.255 198.571 286.155 199.502C285.27 200.21 284.156 200.571 283.024 200.517C282.432 200.517 281.839 200.517 281.586 199.333Z" fill="white"/>
<path fill-rule="evenodd" clip-rule="evenodd" d="M289.539 193.41C289.539 193.156 288.608 193.072 288.693 194.002C288.693 194.679 289.539 194.848 289.624 194.848C290.893 193.833 289.37 194.341 289.539 193.325V193.41ZM287.593 197.133C287.339 197.133 287.085 197.979 287.762 198.064L291.062 197.894C291.4 197.894 291.57 197.133 290.724 197.217C289.708 197.217 288.439 196.964 287.593 197.217V197.133ZM235.134 183.087C235.557 183.087 236.488 184.272 236.403 184.695C236.403 184.864 235.388 184.695 235.134 184.441C234.88 184.187 234.965 183.087 235.134 183.087ZM230.65 191.887C229.804 192.395 230.819 193.325 231.496 192.902C233.865 191.295 237.419 189.687 238.265 186.556C238.519 185.541 239.449 183.934 240.38 183.595C241.226 183.172 242.58 185.203 243.426 183.595C243.934 182.749 245.71 184.187 246.134 183.257C246.641 182.157 246.387 181.564 246.387 180.38C246.387 179.703 245.795 179.534 245.372 180.634C245.203 181.141 245.372 181.649 245.287 181.987C245.118 182.157 244.78 182.326 244.441 182.157C244.272 181.987 244.441 181.564 243.934 181.311C243.764 181.311 243.426 181.226 243.257 181.48C242.664 182.58 242.411 183.595 241.48 182.326C240.718 181.48 240.295 179.703 239.788 182.072C239.618 182.918 238.349 184.103 237.588 184.103C236.657 184.103 236.911 181.564 234.88 181.987C233.78 182.241 233.865 184.272 234.034 184.949C234.288 186.049 237.419 185.287 237.165 185.964C236.657 188.249 233.442 190.533 230.65 191.887ZM211.443 203.056C211.358 203.479 211.866 204.494 212.374 204.579C212.881 204.579 213.22 203.479 213.051 203.056C212.881 202.802 211.528 202.802 211.443 203.056ZM214.235 207.202C213.897 206.863 212.881 207.794 213.728 208.471C214.151 208.894 215.843 209.401 216.266 208.64C216.943 207.625 215.674 203.986 216.266 203.563C216.689 203.14 218.635 205.932 219.65 206.102C221.935 206.44 221.343 202.21 223.881 202.548C225.488 202.717 225.658 200.687 225.404 199.333C225.235 198.064 223.204 196.287 222.273 195.441C221.089 194.425 220.496 196.287 221.258 196.794C222.273 197.641 224.05 199.248 224.304 200.263C224.389 200.771 223.119 201.786 222.612 201.533C221.427 200.856 220.412 198.148 219.396 197.556C219.058 197.387 218.212 197.81 218.55 198.656C219.058 199.587 221.089 200.94 221.173 201.956C221.258 202.802 220.327 204.663 219.65 204.663C218.889 204.663 217.112 202.379 216.52 201.279C216.181 200.856 215.251 200.856 215.081 201.617C215.026 203.18 215.168 204.744 215.504 206.271C215.674 207.625 214.743 207.709 214.235 207.202ZM210.851 199.925C210.512 200.263 211.528 200.94 211.697 200.771C212.035 200.433 213.474 198.825 213.22 198.233C212.966 197.725 211.02 196.541 210.682 197.133C210.089 198.064 212.543 198.571 212.12 198.825C211.647 199.13 211.219 199.5 210.851 199.925ZM214.32 192.818C214.32 192.818 214.997 194.933 215.504 194.002C215.843 193.41 214.32 192.818 214.32 192.818ZM215.335 196.202C215.166 196.202 214.489 196.794 214.912 197.048C215.589 197.387 217.366 197.725 216.943 196.456C216.689 195.694 219.65 196.456 218.889 194.425C218.583 193.799 218.077 193.293 217.45 192.987C217.112 192.987 216.181 193.41 216.774 193.748C217.197 193.918 218.466 194.679 218.043 195.187C217.45 195.694 217.112 194.933 216.435 195.102C216.097 195.102 216.35 196.118 216.097 196.371C216.097 196.541 215.504 196.033 215.335 196.118V196.202ZM219.989 188.164C219.467 188.595 219.108 189.193 218.973 189.856C218.973 190.026 219.227 190.364 219.396 190.279C219.918 189.884 220.279 189.313 220.412 188.672C220.412 188.418 220.243 187.995 219.989 188.164ZM222.358 187.91C221.681 187.064 223.204 185.71 223.796 187.487C224.219 188.587 228.45 194.171 229.296 196.033C229.973 197.302 229.296 197.81 228.534 196.879C226.419 194.171 224.642 190.787 222.358 187.91ZM226.758 187.995C227.519 187.149 229.042 185.457 228.619 184.61C228.281 183.764 227.35 183.764 227.181 184.018C226.335 185.118 227.858 184.864 227.604 185.203C227.181 186.049 226.758 186.556 226.504 187.403C226.419 187.656 226.588 188.164 226.758 187.995ZM292.585 190.702C291.993 190.279 293.093 188.164 293.854 189.01C295.8 191.295 296.731 198.825 297.323 204.494C297.323 204.494 296.477 205.255 296.477 205.086C296.477 202.125 295.208 192.902 292.585 190.702ZM247.657 183.426C246.98 181.903 248.587 181.395 248.841 182.411C249.941 187.318 252.649 191.041 254.764 194.341C255.356 195.356 254.764 196.033 253.325 195.018C252.31 194.341 251.21 191.718 250.787 191.633C249.772 191.464 247.572 195.864 243.088 194.595C241.903 194.256 241.988 190.787 241.903 189.264C241.903 188.503 242.749 188.418 242.749 189.264C242.749 190.702 242.749 193.664 244.526 193.833C246.049 193.833 249.264 191.802 249.941 190.11C250.618 188.418 248.333 185.118 247.657 183.341V183.426Z" fill="white"/>
<path fill-rule="evenodd" clip-rule="evenodd" d="M293.77 203.902C294.108 202.886 298.931 194.764 299.608 192.987C299.946 192.141 301.3 194.51 299.946 195.779C298.762 196.794 295.293 202.548 294.616 204.578C294.277 205.425 293.431 205.002 293.77 203.902Z" fill="white"/>
<path fill-rule="evenodd" clip-rule="evenodd" d="M301.977 196.202C302.823 192.818 305.023 196.71 303.077 198.571C300.2 201.448 299.269 206.948 294.616 207.794C293.431 208.048 291.231 207.201 290.554 206.694C290.3 206.525 290.723 205.34 291.485 205.932C292.585 206.778 294.954 207.032 296.223 206.017C298.988 203.322 300.975 199.931 301.977 196.202ZM253.748 206.948C253.495 207.201 252.902 207.201 252.818 207.54C252.564 208.724 252.818 209.401 252.564 210.586C252.31 211.77 251.464 211.77 251.549 210.84C251.549 209.655 252.649 207.878 251.887 207.794C251.379 207.709 251.041 207.032 251.549 206.694C252.479 206.101 252.987 206.186 253.579 206.355C253.833 206.44 253.918 206.778 253.748 206.948Z" fill="white"/>
<path fill-rule="evenodd" clip-rule="evenodd" d="M253.072 205.255C251.887 206.44 250.703 206.863 249.603 208.217C249.095 208.724 249.18 209.486 248.841 210.247C248.587 211.009 247.657 211.094 247.403 211.009C246.98 210.671 247.064 209.317 246.557 209.994C246.049 210.755 245.795 211.686 245.118 211.686C244.526 211.686 243.426 210.417 244.018 210.417C245.964 210.163 245.88 208.724 246.557 208.555C247.403 208.471 247.403 209.824 247.995 209.571C248.333 209.401 248.587 207.794 249.01 207.371C250.28 206.017 251.295 205.34 252.649 204.325C253.241 203.817 253.749 204.748 253.072 205.34V205.255ZM257.556 209.486C256.541 209.655 256.71 210.924 257.048 211.009C257.471 211.263 258.233 211.347 258.487 209.909C258.656 209.317 258.741 212.87 260.01 211.517C260.856 210.671 262.633 211.686 263.394 210.671C263.987 209.909 264.24 209.401 263.733 208.386C263.563 208.132 262.887 208.217 262.887 208.978C262.887 209.655 262.463 210.417 261.787 210.332C261.448 210.247 261.956 208.724 261.617 208.301C261.538 208.224 261.432 208.18 261.321 208.18C261.211 208.18 261.104 208.224 261.025 208.301C260.771 208.64 261.279 210.163 260.517 210.332C259.502 210.501 260.01 209.317 259.671 209.148C258.233 208.471 258.148 209.317 257.556 209.401V209.486ZM265.171 206.948C265.933 206.778 265.679 206.778 266.863 205.848C267.286 205.509 267.371 206.525 267.286 206.948C267.286 207.54 266.44 207.117 266.186 207.709C265.848 208.471 266.017 210.247 265.848 210.924C265.848 211.263 265.171 211.263 265.171 210.924C265.002 210.078 265.256 209.232 265.171 208.132C265.171 207.794 264.748 207.201 265.171 207.032V206.948ZM260.94 204.832C260.771 205.594 260.771 206.186 260.771 206.778C260.771 207.201 261.617 206.948 261.617 206.863C261.617 206.186 261.787 205.171 261.617 204.917C261.448 204.832 261.025 204.663 260.94 204.832Z" fill="white"/>
<path fill-rule="evenodd" clip-rule="evenodd" d="M255.61 196.964L254.425 201.702L252.733 198.487V201.786L249.01 197.387L250.28 202.125L246.895 199.248L248.757 202.463L242.834 198.656L246.557 203.056L241.818 200.687L245.203 203.563L237.588 200.687L244.949 204.325C248.293 202.803 251.936 202.051 255.61 202.125C259.756 202.125 263.479 202.971 266.186 204.325L273.632 200.687L266.017 203.563L269.402 200.687L264.748 203.056L268.386 198.656L262.464 202.463L264.325 199.248L260.941 202.04L262.21 197.387L258.571 201.786V198.487L256.879 201.702L255.61 196.964Z" fill="white"/>
<path d="M249 299.7L248.9 301.9H248.5V300.4C248.407 299.955 248.273 299.52 248.1 299.1C247.966 298.751 247.799 298.416 247.6 298.1C247.356 297.718 247.089 297.35 246.8 297L247.5 295.2C248.008 295.779 248.383 296.461 248.6 297.2C248.908 297.999 249.077 298.844 249.1 299.7M254.6 296.3C254.6 296.9 254.5 297.3 254.3 297.5C254.1 297.8 253.7 298 253.3 298.1L253.5 299.2C253.592 299.763 253.592 300.337 253.5 300.9V301.9H253.1V300.9C253.059 300.628 252.992 300.36 252.9 300.1C252.804 299.832 252.704 299.565 252.6 299.3C252.432 298.885 252.232 298.483 252 298.1L251.2 296.8L251.7 295.2L252.5 296.1L253.2 296.3C253.9 296.3 254.2 296 254.2 295.3H254.5C254.495 295.467 254.495 295.633 254.5 295.8V296.3M259.6 300.2L259.2 301.9L258.6 301.3C258.451 300.983 258.349 300.646 258.3 300.3C258.267 299.834 258.267 299.366 258.3 298.9C258.007 298.979 257.703 299.012 257.4 299C257 299 256.7 299 256.4 298.7C256.276 298.607 256.175 298.486 256.106 298.347C256.036 298.208 256 298.055 256 297.9C256 297.2 256.2 296.6 256.6 296.1C256.9 295.5 257.3 295.2 257.8 295.2C258.1 295.2 258.4 295.3 258.5 295.5L258.8 296.3V297.9C258.8 298.6 258.8 299.1 259 299.3C259 299.6 259.3 299.8 259.6 300.2ZM258.1 297.3C258.1 296.9 257.8 296.7 257.4 296.7C257.26 296.698 257.122 296.732 257 296.8C256.8 296.9 256.8 297 256.8 297.1C256.8 297.3 257 297.4 257.6 297.4C257.766 297.419 257.934 297.419 258.1 297.4M265 299.7L264.8 301.8C264.4 301.5 264 301 263.7 300.3C263.238 299.234 262.87 298.13 262.6 297C262.371 298.01 262.104 299.01 261.8 300L261.2 301.3C261.045 301.541 260.841 301.745 260.6 301.9V299.9L261.4 298.7C261.659 298.261 261.86 297.79 262 297.3C262.142 296.64 262.242 295.972 262.3 295.3H262.7L263.4 297.3C263.753 298.207 264.299 299.026 265 299.7Z" fill="white"/>
<path d="M280.5 319.2C280.8 319.5 281 319.8 281.1 320.2L281.3 321.4H280.7C280.506 321.01 280.271 320.641 280 320.3C279.682 319.951 279.349 319.618 279 319.3L277.7 318.1C277.183 317.647 276.65 317.213 276.1 316.8L275.6 316.4L275.4 315.8C275.335 315.37 275.302 314.935 275.3 314.5L277.4 316.2C278.089 316.774 278.756 317.375 279.4 318L280.5 319.2ZM272.9 314.6L272.8 316.2L270.3 316.1L270.5 314.5H272.9M279.6 321.6L273.6 323.5L272.4 321.9L277.6 320.4C277.449 320.156 277.282 319.922 277.1 319.7L276.4 319.2C276.393 319.354 276.354 319.505 276.285 319.642C276.216 319.78 276.119 319.902 276 320C275.777 320.228 275.503 320.4 275.2 320.5C274.741 320.623 274.259 320.623 273.8 320.5C273.3 320.5 273 320.2 272.8 319.9C272.471 319.394 272.298 318.803 272.3 318.2C272.3 317.4 272.5 316.9 272.9 316.7C273.5 316.5 274.3 316.7 275.4 317.2C276.351 317.662 277.174 318.348 277.8 319.2L279.6 321.6ZM274.9 318.4C274.707 318.313 274.506 318.246 274.3 318.2C274.137 318.153 273.963 318.153 273.8 318.2C273.713 318.211 273.63 318.244 273.56 318.296C273.49 318.349 273.434 318.419 273.4 318.5C273.365 318.561 273.346 318.63 273.346 318.7C273.346 318.77 273.365 318.839 273.4 318.9L273.8 319.1H274.3C274.422 319.025 274.525 318.922 274.6 318.8L274.9 318.4ZM268.5 317.2L268.1 318.8L265.6 318.5L266 317L268.5 317.2ZM274.5 323.2L273.1 323.6C272.637 323.678 272.163 323.678 271.7 323.6C271.283 323.591 270.873 323.488 270.5 323.3C270.3 323.7 269.9 324 269.4 324.3C268.984 324.483 268.547 324.617 268.1 324.7L267.1 325L266.3 323.4L267.3 323.2L268.3 322.9L268.9 322.5C268.679 322.347 268.444 322.213 268.2 322.1C268.015 322.005 267.806 321.97 267.6 322C267.535 321.977 267.465 321.977 267.4 322C267.369 322.098 267.369 322.202 267.4 322.3H266.9C266.5 321.6 266.4 321.1 266.6 320.7C266.9 320.3 267.4 320 268.2 319.8C269 319.6 269.7 319.6 270.3 319.8C270.9 319.8 271.3 320.1 271.5 320.4C271.6 320.6 271.7 320.8 271.6 321C271.6 321.2 271.6 321.5 271.3 322C271.625 322.107 271.975 322.107 272.3 322L273.6 321.7L274.5 323.2ZM268.1 324.7L266.8 324.9C266.1 324.9 265.5 324.9 265 324.5C264.387 323.969 263.936 323.276 263.7 322.5L263.1 320.8C263.004 320.414 262.795 320.066 262.5 319.8L261.7 319.5L262.2 317.8L263.3 318.7L264.1 320L264.5 321.2C264.717 321.827 265.057 322.405 265.5 322.9C265.7 323.2 265.9 323.3 266.2 323.2L267.5 323L268.1 324.7ZM262.6 318.7L261.7 320.2L259.4 319.6L260.2 318.1L262.6 318.7ZM264 325.4L258 325.9L257.7 324.3L262.7 323.8C262.561 323.521 262.354 323.281 262.1 323.1C261.847 322.913 261.579 322.745 261.3 322.6L261.8 321.1C262.3 321.4 262.8 321.7 263 322.1C263.2 322.5 263.5 323.1 263.6 323.8L264 325.4ZM259.2 326.2C258.596 326.175 257.995 326.108 257.4 326C256.956 325.902 256.522 325.769 256.1 325.6C255.779 325.738 255.444 325.839 255.1 325.9H252.1C251.6 325.9 251.3 325.9 251.1 325.7L250.5 324.9C250.125 325.229 249.681 325.468 249.2 325.6C248.781 325.738 248.341 325.806 247.9 325.8H246.5L246.7 324L248 324.1C248.7 324.1 249.3 324.1 249.7 323.8C250.3 323.5 250.7 323 250.7 322.4H251.3C251.259 322.733 251.226 323.066 251.2 323.4C251.2 323.7 251.2 323.9 251.5 324L252.2 324.2H255.1C255.5 324 255.7 323.7 255.8 323.2L255.9 322.9C256.027 322.822 256.161 322.755 256.3 322.7L256.7 322.6V323.2L256.4 324C256.946 324.21 257.518 324.345 258.1 324.4C258.1 324.3 258.1 324.1 257.9 323.9C257.9 323.6 257.7 323.5 257.7 323.4C257.714 323.325 257.748 323.256 257.8 323.2L258.1 323L258.9 322.3L259.2 323C259.2 323.2 259.3 323.5 259.2 323.8L259.1 326.2M250.1 319.2L248.6 320.2L247.5 319.6L246.4 320.4L244.9 319.5L246.3 318.5L247.5 319.2L248.6 318.3L250.1 319.2ZM247.7 325.6L241.9 324.6L242.6 323L247.4 323.8C247.484 323.54 247.484 323.26 247.4 323C247.253 322.784 247.086 322.583 246.9 322.4L248.2 321.1C248.5 321.5 248.7 321.9 248.7 322.3C248.7 322.7 248.7 323.3 248.3 324L247.7 325.6ZM242.8 324.8L241.6 324.5C240.9 324.4 240.5 324.1 240.4 323.6C240.3 323.1 240.5 322.4 241.1 321.4L242.1 319.7L242.3 318.8L242 318.2L243.8 317L244 318.1C244 318.5 243.8 319 243.4 319.5L242.8 320.7C242.438 321.205 242.198 321.787 242.1 322.4C242.1 322.7 242.2 322.9 242.5 322.9L243.7 323.2L242.8 324.8ZM239.8 318.5L237.8 319.4L236.4 318L238.4 317.2L239.8 318.5ZM238.9 323.8C238.58 324.245 238.171 324.619 237.7 324.9C237.3 325.2 236.8 325.3 236.3 325.4C235.67 325.486 235.03 325.486 234.4 325.4C233.649 325.271 232.912 325.071 232.2 324.8C231.174 324.516 230.242 323.963 229.5 323.2C229 322.6 229 322 229.5 321.4C229.919 320.881 230.427 320.441 231 320.1C231.964 319.615 232.967 319.213 234 318.9L234.4 319.3C233.4 319.7 232.6 320 232.2 320.3C231.826 320.469 231.487 320.707 231.2 321C230.9 321.4 230.9 321.8 231.3 322.3C232.728 323.425 234.482 324.057 236.3 324.1C237.3 324.1 237.9 323.8 238.2 323.5L238.6 322.8L238.7 321.4L240.7 320.2L240.6 321.4C240.5 321.8 240.2 322.2 239.8 322.7L238.9 323.8Z" fill="#BF0000"/>
</g>
<defs>
<clipPath id="clip0_2_151">
<rect width="512" height="512" fill="white"/>
</clipPath>
</defs>
</svg>
