<svg width="512" height="512" viewBox="0 0 512 512" fill="none" xmlns="http://www.w3.org/2000/svg">
<g clip-path="url(#clip0_2_283)">
<path d="M0 0H512V512H0V0Z" fill="#012169"/>
<path d="M0 0L256 256ZM256 0L0 256Z" fill="black"/>
<path d="M0 0L256 256M256 0L0 256" stroke="white" stroke-width="50"/>
<mask id="mask0_2_283" style="mask-type:luminance" maskUnits="userSpaceOnUse" x="0" y="0" width="299" height="299">
<path d="M0 0V128H298.7V256H256L0 0ZM256 0H128V298.7H0V256L256 0Z" fill="white"/>
</mask>
<g mask="url(#mask0_2_283)">
<path d="M0 0L256 256ZM256 0L0 256Z" fill="black"/>
<path d="M0 0L256 256M256 0L0 256" stroke="#C8102E" stroke-width="30"/>
</g>
<path d="M128 0V298.7ZM0 128H298.7Z" fill="black"/>
<path d="M128 0V298.7M0 128H298.7" stroke="white" stroke-width="75"/>
<path d="M128 0V298.7ZM0 128H298.7Z" fill="black"/>
<path d="M128 0V298.7M0 128H298.7" stroke="#C8102E" stroke-width="50"/>
<path d="M0 256H256V0H341.3V341.3H0V256Z" fill="#012169"/>
<path d="M323.6 224.1C323.6 314.5 333.4 345.6 353 366.6C363.328 378.064 375.092 388.147 388 396.6C400.906 388.144 412.67 378.061 423 366.6C442.5 345.6 452.3 314.5 452.3 224.1C438.1 230.6 430 233.8 418.3 233.6C407.658 232.533 397.346 229.3 388 224.1C378.654 229.3 368.342 232.533 357.7 233.6C346 233.8 337.9 230.6 323.7 224.1H323.6Z" fill="white"/>
<path d="M390.06 269.374C393 276.581 402.8 284.589 405.348 288.593C402.016 292.597 401.428 292.197 401.82 299.404C407.7 293.198 407.7 292.397 411.62 293.398C419.852 301.806 413.188 320.024 406.132 324.028C399.468 328.233 400.644 324.028 390.452 329.234C394.96 333.238 400.448 328.633 404.956 329.834C407.308 332.837 403.78 338.042 405.74 343.248C409.66 342.847 409.268 334.639 410.052 331.636C412.992 320.825 430.436 313.418 431.22 303.408C434.944 301.606 438.472 302.807 442.98 305.41C440.824 296.201 433.376 296.201 431.416 293.398C426.712 285.99 422.596 277.782 412.6 275.38C405.152 273.978 405.74 275.98 400.84 272.577C397.704 270.175 388.492 265.77 390.06 269.374" fill="#FF9900"/>
<path d="M410.248 279.184C411.114 279.184 411.816 278.467 411.816 277.582C411.816 276.698 411.114 275.98 410.248 275.98C409.382 275.98 408.68 276.698 408.68 277.582C408.68 278.467 409.382 279.184 410.248 279.184Z" fill="white"/>
<path d="M365.635 300.385C370.5 294.364 372.852 281.774 375.127 277.603C380.15 278.742 380.078 279.46 386.134 275.74C378.014 273.328 377.321 273.702 376.355 269.695C379.786 258.334 398.671 255.843 405.435 260.345C412.188 264.4 407.999 265.301 417.268 272.074C418.628 266.133 412.077 263.328 411.01 258.696C412.51 255.169 418.665 255.924 422.255 251.723C420.076 248.37 413.154 252.558 410.188 253.252C399.456 255.646 384.891 243.353 375.86 247.32C372.56 244.798 371.951 241.051 372.097 235.765C365.133 242.013 368.614 248.739 367.103 251.818C362.89 259.525 357.708 267.076 360.3 277.225C362.568 284.605 364.026 283.139 363.37 289.154C362.756 293.108 363.248 303.484 365.635 300.385" fill="#FF9900"/>
<path d="M364.692 277.572C364.287 276.79 363.338 276.491 362.573 276.904C361.807 277.317 361.514 278.286 361.919 279.068C362.324 279.85 363.273 280.149 364.038 279.736C364.804 279.323 365.097 278.354 364.692 277.572Z" fill="white"/>
<path d="M405.13 304.339C397.567 303.201 385.797 307.657 381.124 307.826C379.481 302.847 380.12 302.538 373.87 299.17C376.048 307.514 376.72 307.926 373.86 310.843C362.562 313.72 350.708 298.503 350.984 290.264C350.89 282.264 353.812 285.459 354.696 273.855C349.013 275.74 350.049 282.916 346.718 286.244C342.986 286.757 340.436 280.988 335.058 280.023C333.374 283.661 340.464 287.545 342.58 289.778C350.137 297.919 347.364 317.007 355.36 322.848C354.953 327.036 352.127 329.506 347.62 332.113C356.459 334.968 360.297 328.447 363.659 328.175C372.299 327.871 381.308 328.494 388.475 320.98C393.489 315.181 391.506 314.665 396.887 312.127C400.519 310.619 408.962 304.822 405.13 304.339" fill="#FF9900"/>
<path d="M386.495 316.962C386.049 317.72 386.289 318.704 387.031 319.16C387.773 319.615 388.737 319.37 389.183 318.612C389.629 317.853 389.389 316.869 388.647 316.414C387.905 315.958 386.941 316.204 386.495 316.962Z" fill="white"/>
<path d="M339.8 347.4C343.214 354.425 347.664 360.897 353 366.6C363.328 378.063 375.092 388.147 388 396.6C400.904 388.141 412.667 378.059 423 366.6C428.336 360.897 432.786 354.425 436.2 347.4H339.8Z" fill="#99CCFF"/>
<path d="M321 220.5C321 314.7 331.1 347.1 351.5 369C362.288 380.855 374.555 391.274 388 400C401.42 391.242 413.655 380.789 424.4 368.9C444.8 347 455 314.7 455 220.5C440.2 227.3 431.7 230.6 419.5 230.5C408.5 230.2 396.9 224.8 388 220.5C379 224.8 367.4 230.2 356.5 230.5C344.2 230.6 335.8 227.3 320.9 220.5H321ZM325 225.5C338.9 232 346.9 235.1 358.4 234.9C368.806 233.826 378.881 230.627 388 225.5C396.4 229.5 407.3 234.7 417.6 234.9C429.1 235.1 437 231.9 451 225.5C451 314.5 441.4 345.1 422.2 365.7C412.108 376.926 400.614 386.807 388 395.1C375.348 386.818 363.82 376.936 353.7 365.7C334.5 345.1 325 314.4 325 225.5Z" fill="#FDC301"/>
</g>
<defs>
<clipPath id="clip0_2_283">
<rect width="512" height="512" fill="white"/>
</clipPath>
</defs>
</svg>
