<svg width="512" height="512" viewBox="0 0 512 512" fill="none" xmlns="http://www.w3.org/2000/svg">
<g clip-path="url(#clip0_2_305)">
<path d="M0 0H512V512H0V0Z" fill="#FF0000"/>
<path d="M204.9 99.5C199.9 99.5 191.7 101.1 191.9 104.9C177.9 102.6 176.5 108.3 177.3 113.4C178.7 111.4 180.3 110.3 181.5 110.1C183.4 109.8 185.3 110.4 187.3 111.6C189.171 112.816 190.856 114.299 192.3 116C187.5 117.1 183.7 116.4 179.9 115.7C177.727 115.258 175.658 114.41 173.8 113.2C172.2 112.1 171.7 111.1 169.2 108.5C166.3 105.5 163.2 106.4 164.2 111C166.4 115.3 170.2 117.3 174.9 118C177.1 118.4 180.5 119.2 184.3 119.2C188.1 119.2 192.4 118.7 194.8 119.2C193.4 120 191.8 121.6 188.6 122.2C185.4 122.8 180.6 120.2 177.6 119.6C178 122.1 181.1 124.4 187.3 125.6C197.5 127.8 206 129.6 211.6 132.6C217.2 135.6 220.7 139.4 223.2 142.4C228.2 148.4 228.5 152.9 228.8 153.9C229.8 163.4 226.6 168.7 220.4 170.3C217.4 171.1 211.9 169.6 209.9 167.3C207.9 164.9 205.9 160.9 206.5 154.6C207 152.1 209.9 145.6 207.5 144.3C196.393 138.226 184.902 132.881 173.1 128.3C170.4 127.2 168.1 130.8 167.3 132.3C159.439 131.189 151.923 128.342 145.299 123.966C138.674 119.59 133.107 113.795 129 107C124.4 98.9 116.9 107 118.1 114.7C120.2 123.3 126.7 129.5 134.6 133.9C142.6 138.4 152.7 142.7 162.9 142.5C168.4 143.5 168.4 150.7 161.8 152C148.8 152 138.6 151.8 128.9 142.4C121.5 135.7 117.4 143.7 119.5 148.2C123.1 162.2 143.1 166.2 163.3 161.6C171.1 160.3 166.4 168.6 164.2 168.8C155.8 174.8 140.7 180.8 127.4 168.7C121.3 164 117.2 168 119.4 174.7C125.4 192.2 147.9 188.5 163.4 179.9C167.4 177.7 171 182.9 166.1 186.8C146.9 200.2 137.2 200.4 128.5 195.2C117.7 190.9 116.7 203 123.2 207C130.4 211.4 148.6 208 162.1 199.6C167.8 195.4 168.1 202 164.4 204.6C148.5 218.4 142.2 222.1 125.6 219.8C117.4 219.2 117.6 229.3 124 233.3C132.8 238.7 150.1 229.7 163.5 218.6C169.1 215.6 170.1 220.6 167.3 226.4C161.386 234.765 153.341 241.394 144 245.6C137.774 248.071 130.887 248.318 124.5 246.3C118.3 244.1 117.5 250.5 120.9 256.3C122.9 259.8 131.5 261 140.6 257.7C149.8 254.5 159.6 246.9 166.3 237.9C172.3 232.8 171.5 239.7 168.8 244.6C155.3 265.9 142.9 273.8 126.7 272.5C119.4 271.3 117.8 276.9 122.4 282.1C130.4 288.8 140.6 288.5 149.4 281.9C159.989 271.342 170.26 260.471 180.2 249.3C185.7 244.9 187.5 249.3 185.9 258.3C184.4 263.4 180.7 268.8 170.6 272.8C163.6 276.8 168.8 282.2 174 282.3C176.9 282.3 182.7 279 187 274C192.9 267.5 193.2 263 196.5 252.9C199.5 247.9 204.9 250.2 204.9 255.4C202.3 265.6 200.1 267.4 194.9 271.6C189.8 276.3 198.3 277.9 201.2 276C209.5 270.4 212.5 263.2 215.3 256.6C217.3 251.8 223.1 254.1 220.4 261.9C214 280.4 203.4 287.7 184.9 291.5C183 291.8 181.9 292.9 182.5 295.1L190 302.6C178.5 305.9 169.2 307.8 157.8 311.1L142 300.6C140.5 297.2 139.8 291.9 131.6 295.6C125.9 293 123.4 294 120.2 296.6C124.7 296.7 126.7 297.9 128.5 300C130.8 306 136.1 306.6 141.5 305C145 307.9 146.9 310.2 150.5 313.2L132.7 312.6C126.4 305.9 121.4 306.3 116.9 311.6C113.4 312.1 111.9 312.1 109.6 316.3C113.3 314.8 115.6 314.3 117.3 316C123.9 319.9 128.3 319 131.6 316L150.3 317.1C148 319.1 144.7 320.2 142.3 322.3C132.6 319.5 127.6 323.3 125.9 331.1C124.499 334.235 124.014 337.701 124.5 341.1C125.5 337.9 127 335.2 129.8 333.5C138.4 335.7 141.6 332.2 142.1 327C146.3 323.6 152.6 322.9 156.7 319.4C161.6 321 163.9 322 168.8 323.5C170.5 328.8 174.5 330.9 180.8 329.5C188.5 329.8 187.1 332.9 187.8 335.4C189.8 331.8 189.8 328.4 185 325.1C183.3 320.5 179.5 318.4 174.6 321.1C169.9 319.8 168.7 317.9 164.1 316.5C175.8 312.8 184.1 312 195.9 308.2C198.9 311 201.1 313 204.1 315.4C205.7 316.4 207.1 316.6 208.1 315.4C215.4 304.8 218.7 295.4 225.5 288.4C228.1 285.5 231.5 281.6 235.1 280.6C236.9 280.2 239.1 280.4 240.6 282C242 283.6 243.2 286.4 242.6 290.7C242 296.9 240.6 298.9 238.8 302.5C237.1 306.2 234.9 308.5 232.8 311.3C228.4 317 222.7 320.3 219.3 322.5C212.5 326.9 209.6 325 204.3 324.7C197.6 325.5 195.8 328.8 201.3 333.4C205.474 335.699 210.305 336.51 215 335.7C218.3 335.1 222 330.9 224.8 328.7C227.8 325.1 232.9 329.3 229.5 333.4C223.2 340.9 216.9 345.8 209.2 345.7C201 346.7 202.5 351.4 207.9 353.6C217.7 357.6 226.5 350.1 230.9 345.1C234.4 341.4 236.9 341.2 236.2 347.1C232.8 357.6 228.1 361.7 220.5 362.2C214.3 361.7 214.2 366.4 218.8 369.7C229.1 376.7 236.5 364.7 240 357.3C242.5 350.7 246.3 353.8 246.7 359.3C246.7 366.6 243.5 372.5 234.7 380C241.4 390.7 249.2 401.7 256 412.5L276.5 184.3L256 148.3C253.9 146.3 246.7 137.8 244.8 136.6C244.1 135.9 243.7 135.4 244.7 135C245.7 134.6 247.9 134.2 249.5 134C245.1 129.6 241.5 128.2 233.2 125.8C235.2 125 237.2 125.5 243.1 125.2C239.448 120.234 234.451 116.418 228.7 114.2C233.2 111.2 234 110.9 238.5 107.2C230.8 106.6 224.2 105.2 217.7 103.2C213.664 101.277 209.34 100.027 204.9 99.5ZM205.6 108.5C209.6 108.5 212.2 109.9 212.2 111.5C212.2 113.2 209.7 114.6 205.6 114.6C201.6 114.6 199 113.1 199 111.4C199 109.7 201.6 108.4 205.6 108.4V108.5Z" fill="#000001"/>
<path d="M307.1 99.5C312.1 99.5 320.3 101.1 320.1 104.9C334.1 102.6 335.5 108.3 334.7 113.4C333.3 111.4 331.7 110.3 330.5 110.1C328.6 109.8 326.7 110.4 324.7 111.6C322.829 112.816 321.144 114.299 319.7 116C324.5 117.1 328.3 116.4 332.1 115.7C334.273 115.258 336.342 114.41 338.2 113.2C339.8 112.1 340.3 111.1 342.8 108.5C345.7 105.5 348.8 106.4 347.8 111C345.6 115.3 341.8 117.3 337.1 118C334.9 118.4 331.5 119.2 327.7 119.2C323.9 119.2 319.6 118.7 317.2 119.2C318.6 120 320.2 121.6 323.4 122.2C326.6 122.8 331.4 120.2 334.4 119.6C334 122.1 330.9 124.4 324.7 125.6C314.5 127.8 306 129.6 300.4 132.6C294.8 135.6 291.3 139.4 288.8 142.4C283.8 148.4 283.5 152.9 283.2 153.9C282.2 163.4 285.4 168.7 291.6 170.3C294.6 171.1 300.1 169.6 302.1 167.3C304.1 164.9 306.1 160.9 305.5 154.6C305 152.1 302.1 145.6 304.5 144.3C315.607 138.226 327.098 132.881 338.9 128.3C341.6 127.2 343.9 130.8 344.7 132.3C352.561 131.189 360.077 128.342 366.701 123.966C373.326 119.59 378.893 113.795 383 107C387.6 98.9 395.1 107 393.9 114.7C391.8 123.3 385.3 129.5 377.4 133.9C369.4 138.4 359.3 142.7 349.1 142.5C343.6 143.5 343.6 150.7 350.2 152C363.2 152 373.4 151.8 383.1 142.4C390.5 135.7 394.6 143.7 392.5 148.2C388.9 162.2 368.9 166.2 348.7 161.6C340.9 160.3 345.6 168.6 347.8 168.8C356.2 174.8 371.3 180.8 384.6 168.7C390.7 164 394.8 168 392.6 174.7C386.6 192.2 364.1 188.5 348.6 179.9C344.6 177.7 341 182.9 345.9 186.8C365.1 200.2 374.8 200.4 383.5 195.2C394.3 190.9 395.3 203 388.8 207C381.6 211.4 363.4 208 349.9 199.6C344.2 195.4 343.9 202 347.6 204.6C363.5 218.4 369.8 222.1 386.4 219.8C394.6 219.2 394.4 229.3 388 233.3C379.2 238.7 361.9 229.7 348.5 218.6C342.9 215.6 341.9 220.6 344.7 226.4C350.614 234.765 358.659 241.394 368 245.6C374.226 248.071 381.113 248.318 387.5 246.3C393.7 244.1 394.5 250.5 391.1 256.3C389.1 259.8 380.5 261 371.4 257.7C362.2 254.5 352.4 246.9 345.7 237.9C339.7 232.8 340.5 239.7 343.2 244.6C356.7 265.9 369.1 273.8 385.3 272.5C392.6 271.3 394.2 276.9 389.6 282.1C381.6 288.8 371.4 288.5 362.6 281.9C352.011 271.342 341.74 260.471 331.8 249.3C326.3 244.9 324.5 249.3 326.1 258.3C327.6 263.4 331.3 268.8 341.4 272.8C348.4 276.8 343.2 282.2 338 282.3C335.1 282.3 329.3 279 325 274C319.1 267.5 318.8 263 315.5 252.9C312.5 247.9 307.1 250.2 307.1 255.4C309.7 265.6 311.9 267.4 317.1 271.6C322.2 276.3 313.7 277.9 310.8 276C302.5 270.4 299.5 263.2 296.7 256.6C294.7 251.8 288.9 254.1 291.6 261.9C298 280.4 308.6 287.7 327.1 291.5C329 291.8 330.1 292.9 329.5 295.1L322 302.6C333.5 305.9 342.8 307.8 354.2 311.1L370 300.6C371.5 297.2 372.2 291.9 380.4 295.6C386.1 293 388.6 294 391.8 296.6C387.3 296.7 385.3 297.9 383.5 300C381.2 306 375.9 306.6 370.5 305C367 307.9 365.1 310.2 361.5 313.2L379.3 312.6C385.6 305.9 390.6 306.3 395.1 311.6C398.6 312.1 400.1 312.1 402.4 316.3C398.7 314.8 396.4 314.3 394.7 316C388.1 319.9 383.7 319 380.4 316L361.7 317.1C364 319.1 367.3 320.2 369.7 322.3C379.4 319.5 384.4 323.3 386.1 331.1C387.501 334.235 387.986 337.701 387.5 341.1C386.5 337.9 385 335.2 382.2 333.5C373.6 335.7 370.4 332.2 369.9 327C365.7 323.6 359.4 322.9 355.3 319.4C350.4 321 348.1 322 343.2 323.5C341.5 328.8 337.5 330.9 331.2 329.5C323.5 329.8 324.9 332.9 324.2 335.4C322.2 331.8 322.2 328.4 327 325.1C328.7 320.5 332.5 318.4 337.4 321.1C342.1 319.8 343.3 317.9 347.9 316.5C336.2 312.8 327.9 312 316.1 308.2C313.1 311 310.9 313 307.9 315.4C306.3 316.4 304.9 316.6 303.9 315.4C296.6 304.8 293.3 295.4 286.5 288.4C283.9 285.5 280.5 281.6 276.9 280.6C275.1 280.2 272.9 280.4 271.4 282C270 283.6 268.8 286.4 269.4 290.7C270 296.9 271.4 298.9 273.2 302.5C274.9 306.2 277.1 308.5 279.2 311.3C283.6 317 289.3 320.3 292.7 322.5C299.5 326.9 302.4 325 307.7 324.7C314.4 325.5 316.2 328.8 310.7 333.4C306.527 335.699 301.695 336.51 297 335.7C293.7 335.1 290 330.9 287.2 328.7C284.2 325.1 279.1 329.3 282.5 333.4C288.8 340.9 295.1 345.8 302.8 345.7C311 346.7 309.5 351.4 304.1 353.6C294.3 357.6 285.5 350.1 281.1 345.1C277.6 341.4 275.1 341.2 275.8 347.1C279.2 357.6 283.9 361.7 291.5 362.2C297.7 361.7 297.8 366.4 293.2 369.7C282.9 376.7 275.5 364.7 272 357.3C269.5 350.7 265.7 353.8 265.3 359.3C265.3 366.6 268.5 372.5 277.3 380C270.6 390.7 262.8 401.7 256 412.5L235.5 184.3L256 148.3C258.1 146.3 265.3 137.8 267.2 136.6C267.9 135.9 268.3 135.4 267.3 135C266.3 134.6 264.1 134.2 262.5 134C266.9 129.6 270.5 128.2 278.8 125.8C276.8 125 274.8 125.5 268.9 125.2C272.552 120.234 277.549 116.418 283.3 114.2C278.8 111.2 278 110.9 273.5 107.2C281.2 106.6 287.8 105.2 294.3 103.2C298.336 101.277 302.66 100.027 307.1 99.5ZM306.4 108.5C302.4 108.5 299.8 109.9 299.8 111.5C299.8 113.2 302.3 114.6 306.4 114.6C310.4 114.6 313 113.1 313 111.4C313 109.7 310.4 108.4 306.4 108.4V108.5Z" fill="#000001"/>
</g>
<defs>
<clipPath id="clip0_2_305">
<rect width="512" height="512" fill="white"/>
</clipPath>
</defs>
</svg>
