<svg width="512" height="512" viewBox="0 0 512 512" fill="none" xmlns="http://www.w3.org/2000/svg">
<g clip-path="url(#clip0_2_324)">
<path d="M0 0H512V512H0V0Z" fill="#3A7DCE"/>
<path d="M107.7 240.9C104.2 233 104.2 233 104.2 225.2C102.4 225.2 102.1 225.6 101.1 225.2C100.1 224.9 99.7 232.5 96.4 231C95.9 230.3 98.8 224.8 95.6 222.6C94.6 221.8 95.9 217.3 95.4 215.4C95.4 215.4 91.4 217.7 88.4 209.5C87 207.4 85 211.5 85 211.5C85 211.5 85.9 214 84.3 214.5C82 212.7 80.4 213.7 77.6 211.2C74.7 208.7 78.2 205.8 72.8 203.6C76.3 193.8 76.3 195.8 85 191.8C79.8 187.9 79.8 187.9 76.3 182C71 180 69.3 178.1 64.1 174.2C57.1 164.4 53.6 144.8 53.6 131C58 126.4 64.1 146.7 72.8 152.6L85 158.5C92 162.5 93.7 166.3 99 170.3L114.6 176.2C121.6 182 125.1 189.9 130.3 191.8C136 191.8 137.1 188.2 138.9 187.9C149.1 187.4 154.4 185.9 156.4 182.4C158.4 179.6 163.4 184 177.4 178.1L175.6 170.3C175.6 170.3 179.4 166.8 184.4 168.3C184.2 164.7 183.9 155.2 188.8 150.8C185.8 147.3 187.8 144.8 187.8 144.8C187.8 144.8 190.6 141.8 191 140.2C189.5 131.5 192.2 131.4 192.9 128.9C193.5 126.3 190.5 127.2 191.3 123.7C192.2 120.2 197.3 119.3 197.9 116.4C198.6 113.6 196.4 112.1 196.6 111.4C197.6 108.7 196.7 102.2 196.6 99.7C205.9 96.8 209 88.3 212.3 91.8C214 80 215.8 76.1 226.3 76.1C227.7 72.5 222.4 69.4 224.5 68.3C228 67.8 230.6 68 234.7 74C236 75.9 236.2 71.1999 237.5 70.6999C238.9 70.1999 242 70.2 242.5 67.9C242.9 65.5 243.6 62.4 245.4 58.5C246.9 55.3 248 59.7 249.4 65.9C256.7 66.2 273.3 68.0999 280.3 70.1999C285.5 71.7999 289 68.7 294 68.1C297.7 72.3 301.2 69.1 303.1 78.1C305.9 82.8 310.4 78.4 311.4 79.9C317.3 97.9 337.4 85.7 338.8 86C341.4 86 344.5 94.1 346.5 94C349.8 93.3 348.9 90.8 351.7 91.8C351 98.6 357.4 106.5 357.4 111.5C357.4 111.5 358.9 112.4 360.4 110.9C361.8 109.4 363.1 105.5 364.4 105.6C367.4 106.1 368.7 106.6 372.2 107.2C381.6 110.9 386.5 111.7 390.2 113.5C391.8 117.1 393.5 118.9 397 118.2C399.8 120.4 397.7 123.2 399.4 123.4C402.9 121.4 404.1 119.3 407.5 121.2C411 123.2 414.5 127.2 416.3 131C416.3 133 414.5 140.8 416.3 152.6C417.1 156.6 417.6 159.6 421.3 166.4C420.3 173.3 426 184.9 426 187.9C426 191.8 423.2 193.9 421.5 197.7C428.5 203.7 421.5 213.4 418 219.3C444.2 225.2 432 237 452.9 231.1C447.6 244.8 449.5 243.7 454.7 257.4C444.3 265.3 454.5 267.7 447.5 277.4C447.1 278.1 451.7 286 458.1 286C456.4 301.7 451.1 295.8 452.9 319.3C439.1 319 444.7 336.9 435.4 335C436 346.3 440.7 347.2 438.9 358.6C431.9 360.6 431.9 360.6 428.5 366.4L423.2 364.4C421.5 374.3 418 376.2 423.2 386C423.2 386 416.5 386.3 414.5 386C414.4 389.4 417.5 390.3 418 393.9C417.7 395.3 408 401.5 400.6 401.7C398.6 406.6 405.8 411.7 405.4 414.2C397.2 415.9 393.6 427.2 393.6 427.2C393.6 427.2 397.8 429.2 397.1 431.2C394.8 429.3 393.6 429.2 390.1 429.2C388.4 429.7 384.1 429.1 380.1 436.8C375.6 438.5 373.5 437.8 370.1 442.9C368.6 438.1 366.4 442.9 363.8 444.9C361.1 446.7 357.6 451.3 357.1 451.1C357.2 449.8 358.7 444.9 358.7 444.9L350 446.9H349C348.2 447 348.4 441.2 346.8 441.4C345.1 441.7 340.4 448.7 338.8 449C337.2 449.2 336.7 446.7 335.3 447C333.9 447.1 331.2 454.4 330.3 454.6C329.3 454.8 325.3 450.2 322 450.8C304.8 457.6 302.1 437.4 299.4 448.8C295.8 446.7 296.4 447.9 292.8 449C290.5 449.7 290.3 445.5 288.2 445.6C284 445.7 284.2 450.1 282 448.8C280.2 439.6 269 441.3 267.9 437.3C267 433.3 272.7 433.3 274.6 430.5C276 426.5 273.1 425 278.9 421.1C286.3 415.4 282 413.3 283.3 409C285.7 402.8 285.7 401.3 283.7 395.8C283.7 395.8 277.9 378.2 276.7 378.2C273.3 377.1 273.3 384.7 268.2 386.8C257.7 390.7 239.2 376.8 236 376.8C233 376.9 219.5 380.5 220 372.8C218 380.3 210.4 374.6 210 374.6C203 374.6 205.7 380.6 201 380.4C198.9 379.6 177.4 378.2 177.4 378.2V382.2L163.4 374.2L151.2 370.3C140.8 366.4 146 356.6 128.6 362.5V350.7H119.9C123.3 327.2 119.9 339 118.1 317.4L111.1 319.4C104.1 308.7 120.8 310.8 105.9 303.6C105.9 303.6 106.2 291.9 102.4 295.8C101.7 296.3 104.2 301.7 104.2 301.7C90.2 299.7 86.7 295.8 86.7 280.1C86.7 280.1 98.2 282 97.2 280.1C95.6 277.1 93.4 258.1 93.8 256.8C93.6 254.2 104.5 247.7 102.4 241.5C103.7 240.9 107.7 240.9 107.7 240.9Z" fill="white"/>
<path d="M462.255 298C461.739 299.258 461.825 300.516 462.341 301.483C463.287 299.838 462.513 299.161 462.341 298H462.255ZM52.7951 153.419C52.7951 153.419 50.2145 153.032 50.7306 155.645C51.5908 153.709 52.7091 153.516 52.7951 153.419ZM52.537 147.226C51.0747 147.226 49.2682 147.032 49.9564 149.645C50.8166 147.613 52.537 147.322 52.537 147.226ZM63.4617 182.355C63.4617 182.355 65.6983 182.161 65.1821 184.774C64.3219 182.838 63.4617 182.451 63.4617 182.355Z" stroke="white" stroke-width="2.28098" stroke-linejoin="round"/>
</g>
<defs>
<clipPath id="clip0_2_324">
<rect width="512" height="512" fill="white"/>
</clipPath>
</defs>
</svg>
