<svg width="512" height="512" viewBox="0 0 512 512" fill="none" xmlns="http://www.w3.org/2000/svg">
<g clip-path="url(#clip0_2_328)">
<path d="M0 0H512V512H0V0Z" fill="#74ACDF"/>
<path d="M0 170.7H512V341.4H0V170.7Z" fill="white"/>
<path d="M252.723 257.331L281.907 320.819C281.907 320.819 282.419 322.048 283.238 321.741C284.058 321.331 283.546 320.102 283.546 320.102L259.277 254.566M258.56 279.347C258.15 288.973 264.09 294.298 263.373 302.899C262.554 311.603 267.264 316.416 268.493 319.795C269.517 323.174 267.264 325.12 268.186 325.632C269.21 326.144 271.258 323.482 270.643 318.669C269.926 313.958 266.342 312.525 267.162 301.978C267.981 291.43 262.861 288.973 264.09 279.45" fill="#F6B40E"/>
<path d="M252.723 257.331L281.907 320.819C281.907 320.819 282.419 322.048 283.238 321.741C284.058 321.331 283.546 320.102 283.546 320.102L259.277 254.566M258.56 279.347C258.15 288.973 264.09 294.298 263.373 302.899C262.554 311.603 267.264 316.416 268.493 319.795C269.517 323.174 267.264 325.12 268.186 325.632C269.21 326.144 271.258 323.482 270.643 318.669C269.926 313.958 266.342 312.525 267.162 301.978C267.981 291.43 262.861 288.973 264.09 279.45" stroke="#85340A" stroke-width="1.1264"/>
<path d="M252.463 255.976L255.13 325.799C255.13 325.799 255.133 327.131 256.007 327.16C256.921 327.095 256.918 325.764 256.918 325.764L259.576 255.93M249.431 278.55C245.369 287.286 248.818 294.478 244.864 302.151C240.776 309.879 243.286 316.128 243.129 319.72C242.781 323.234 239.956 324.169 240.611 324.995C241.361 325.86 244.272 324.184 245.546 319.502C246.687 314.876 243.924 312.18 248.717 302.749C253.51 293.318 249.72 289.088 254.5 280.76" fill="#F6B40E"/>
<path d="M252.463 255.976L255.13 325.799C255.13 325.799 255.133 327.131 256.007 327.16C256.921 327.095 256.918 325.764 256.918 325.764L259.576 255.93M249.431 278.55C245.369 287.286 248.818 294.478 244.864 302.151C240.776 309.879 243.286 316.128 243.129 319.72C242.781 323.234 239.956 324.169 240.611 324.995C241.361 325.86 244.272 324.184 245.546 319.502C246.687 314.876 243.924 312.18 248.717 302.749C253.51 293.318 249.72 289.088 254.5 280.76" stroke="#85340A" stroke-width="1.1264"/>
<path d="M252.742 254.624L228.485 320.153C228.485 320.153 227.978 321.384 228.775 321.746C229.643 322.036 230.15 320.805 230.15 320.805L259.331 257.304M241.301 274.319C234.205 280.836 234.64 288.801 228.051 294.376C221.317 299.952 221.244 306.686 219.724 309.944C218.058 313.057 215.09 312.84 215.379 313.854C215.741 314.94 219.072 314.506 222.041 310.668C224.865 306.83 223.344 303.282 231.381 296.404C239.419 289.525 237.536 284.167 245.139 278.302" fill="#F6B40E"/>
<path d="M252.742 254.624L228.485 320.153C228.485 320.153 227.978 321.384 228.775 321.746C229.643 322.036 230.15 320.805 230.15 320.805L259.331 257.304M241.301 274.319C234.205 280.836 234.64 288.801 228.051 294.376C221.317 299.952 221.244 306.686 219.724 309.944C218.058 313.057 215.09 312.84 215.379 313.854C215.741 314.94 219.072 314.506 222.041 310.668C224.865 306.83 223.344 303.282 231.381 296.404C239.419 289.525 237.536 284.167 245.139 278.302" stroke="#85340A" stroke-width="1.1264"/>
<path d="M253.516 253.482L206.029 304.74C206.029 304.74 205.09 305.684 205.687 306.323C206.379 306.923 207.318 305.98 207.318 305.98L258.579 258.479M235.41 267.3C226.36 270.605 223.713 278.13 215.492 280.759C207.137 283.333 204.494 289.527 201.842 291.955C199.112 294.194 196.452 292.858 196.332 293.905C196.251 295.047 199.494 295.92 203.705 293.511C207.783 291.046 207.736 287.186 217.794 283.907C227.852 280.627 228.163 274.957 237.431 272.448" fill="#F6B40E"/>
<path d="M253.516 253.482L206.029 304.74C206.029 304.74 205.09 305.684 205.687 306.323C206.379 306.923 207.318 305.98 207.318 305.98L258.579 258.479M235.41 267.3C226.36 270.605 223.713 278.13 215.492 280.759C207.137 283.333 204.494 289.527 201.842 291.955C199.112 294.194 196.452 292.858 196.332 293.905C196.251 295.047 199.494 295.92 203.705 293.511C207.783 291.046 207.736 287.186 217.794 283.907C227.852 280.627 228.163 274.957 237.431 272.448" stroke="#85340A" stroke-width="1.1264"/>
<path d="M260.403 280.986C260.915 290.202 266.138 294.298 265.114 302.797C267.366 296.141 261.939 290.919 262.246 281.088M254.362 256.717L274.33 300.339L257.638 255.386" fill="#85340A"/>
<path d="M250.506 280.769C247.453 289.479 250.71 295.262 246.511 302.722C251.14 297.435 248.124 290.533 252.17 281.569M254.212 256.035L255.966 303.979L257.749 256.059" fill="#85340A"/>
<path d="M241.446 276.781C235.291 283.66 236.088 290.249 229.354 295.535C235.653 292.421 235.509 284.891 242.677 278.157M254.335 255.348L237.608 300.313L257.593 256.724" fill="#85340A"/>
<path d="M234.601 269.63C226.283 273.629 224.497 280.022 216.253 282.328C223.264 281.862 226.012 274.85 235.212 271.372M254.711 254.761L222.05 289.902L257.195 257.279" fill="#85340A"/>
<path d="M254.669 252.723L191.181 281.907C191.181 281.907 189.952 282.419 190.259 283.238C190.669 284.058 191.898 283.546 191.898 283.546L257.434 259.277M232.653 258.56C223.027 258.15 217.702 264.09 209.101 263.373C200.397 262.554 195.584 267.264 192.205 268.493C188.826 269.517 186.88 267.264 186.368 268.186C185.856 269.21 188.518 271.258 193.331 270.643C198.042 269.926 199.475 266.342 210.022 267.162C220.57 267.981 223.027 262.861 232.55 264.09" fill="#F6B40E"/>
<path d="M254.669 252.723L191.181 281.907C191.181 281.907 189.952 282.419 190.259 283.238C190.669 284.058 191.898 283.546 191.898 283.546L257.434 259.277M232.653 258.56C223.027 258.15 217.702 264.09 209.101 263.373C200.397 262.554 195.584 267.264 192.205 268.493C188.826 269.517 186.88 267.264 186.368 268.186C185.856 269.21 188.518 271.258 193.331 270.643C198.042 269.926 199.475 266.342 210.022 267.162C220.57 267.981 223.027 262.861 232.55 264.09" stroke="#85340A" stroke-width="1.1264"/>
<path d="M256.024 252.463L186.201 255.13C186.201 255.13 184.869 255.133 184.84 256.007C184.905 256.921 186.236 256.918 186.236 256.918L256.07 259.576M233.45 249.431C224.714 245.369 217.522 248.818 209.849 244.864C202.121 240.776 195.872 243.286 192.28 243.129C188.766 242.781 187.831 239.956 187.005 240.611C186.14 241.361 187.816 244.272 192.498 245.546C197.124 246.687 199.82 243.924 209.251 248.717C218.682 253.51 222.912 249.72 231.24 254.5" fill="#F6B40E"/>
<path d="M256.024 252.463L186.201 255.13C186.201 255.13 184.869 255.133 184.84 256.007C184.905 256.921 186.236 256.918 186.236 256.918L256.07 259.576M233.45 249.431C224.714 245.369 217.522 248.818 209.849 244.864C202.121 240.776 195.872 243.286 192.28 243.129C188.766 242.781 187.831 239.956 187.005 240.611C186.14 241.361 187.816 244.272 192.498 245.546C197.124 246.687 199.82 243.924 209.251 248.717C218.682 253.51 222.912 249.72 231.24 254.5" stroke="#85340A" stroke-width="1.1264"/>
<path d="M257.376 252.742L191.847 228.485C191.847 228.485 190.616 227.978 190.254 228.775C189.964 229.643 191.195 230.15 191.195 230.15L254.696 259.331M237.681 241.301C231.164 234.205 223.199 234.64 217.624 228.051C212.048 221.317 205.314 221.244 202.056 219.724C198.943 218.058 199.16 215.09 198.146 215.379C197.06 215.741 197.494 219.072 201.332 222.041C205.17 224.865 208.718 223.344 215.596 231.381C222.475 239.419 227.833 237.536 233.698 245.139" fill="#F6B40E"/>
<path d="M257.376 252.742L191.847 228.485C191.847 228.485 190.616 227.978 190.254 228.775C189.964 229.643 191.195 230.15 191.195 230.15L254.696 259.331M237.681 241.301C231.164 234.205 223.199 234.64 217.624 228.051C212.048 221.317 205.314 221.244 202.056 219.724C198.943 218.058 199.16 215.09 198.146 215.379C197.06 215.741 197.494 219.072 201.332 222.041C205.17 224.865 208.718 223.344 215.596 231.381C222.475 239.419 227.833 237.536 233.698 245.139" stroke="#85340A" stroke-width="1.1264"/>
<path d="M258.518 253.516L207.26 206.029C207.26 206.029 206.316 205.09 205.677 205.687C205.077 206.379 206.02 207.318 206.02 207.318L253.521 258.579M244.7 235.41C241.395 226.36 233.87 223.713 231.241 215.492C228.667 207.137 222.473 204.494 220.045 201.842C217.806 199.112 219.142 196.452 218.095 196.332C216.953 196.251 216.08 199.494 218.489 203.705C220.954 207.783 224.814 207.736 228.093 217.794C231.373 227.852 237.043 228.163 239.552 237.431" fill="#F6B40E"/>
<path d="M258.518 253.516L207.26 206.029C207.26 206.029 206.316 205.09 205.677 205.687C205.077 206.379 206.02 207.318 206.02 207.318L253.521 258.579M244.7 235.41C241.395 226.36 233.87 223.713 231.241 215.492C228.667 207.137 222.473 204.494 220.045 201.842C217.806 199.112 219.142 196.452 218.095 196.332C216.953 196.251 216.08 199.494 218.489 203.705C220.954 207.783 224.814 207.736 228.093 217.794C231.373 227.852 237.043 228.163 239.552 237.431" stroke="#85340A" stroke-width="1.1264"/>
<path d="M231.014 260.403C221.798 260.915 217.702 266.138 209.203 265.114C215.859 267.366 221.081 261.939 230.912 262.246M255.283 254.362L211.661 274.33L256.614 257.638" fill="#85340A"/>
<path d="M231.231 250.506C222.521 247.453 216.738 250.71 209.278 246.511C214.565 251.14 221.467 248.124 230.431 252.17M255.965 254.212L208.021 255.966L255.941 257.749" fill="#85340A"/>
<path d="M235.219 241.446C228.34 235.291 221.751 236.088 216.465 229.354C219.579 235.653 227.109 235.509 233.843 242.677M256.652 254.335L211.687 237.608L255.276 257.593" fill="#85340A"/>
<path d="M242.37 234.601C238.371 226.283 231.978 224.497 229.672 216.253C230.138 223.264 237.15 226.012 240.628 235.212M257.239 254.711L222.098 222.05L254.721 257.195" fill="#85340A"/>
<path d="M259.277 254.669L230.093 191.181C230.093 191.181 229.581 189.952 228.762 190.259C227.942 190.669 228.454 191.898 228.454 191.898L252.723 257.434M253.44 232.653C253.85 223.027 247.91 217.702 248.627 209.101C249.446 200.397 244.736 195.584 243.507 192.205C242.483 188.826 244.736 186.88 243.814 186.368C242.79 185.856 240.742 188.518 241.357 193.331C242.074 198.042 245.658 199.475 244.838 210.022C244.019 220.57 249.139 223.027 247.91 232.55" fill="#F6B40E"/>
<path d="M259.277 254.669L230.093 191.181C230.093 191.181 229.581 189.952 228.762 190.259C227.942 190.669 228.454 191.898 228.454 191.898L252.723 257.434M253.44 232.653C253.85 223.027 247.91 217.702 248.627 209.101C249.446 200.397 244.736 195.584 243.507 192.205C242.483 188.826 244.736 186.88 243.814 186.368C242.79 185.856 240.742 188.518 241.357 193.331C242.074 198.042 245.658 199.475 244.838 210.022C244.019 220.57 249.139 223.027 247.91 232.55" stroke="#85340A" stroke-width="1.1264"/>
<path d="M259.537 256.024L256.87 186.201C256.87 186.201 256.867 184.869 255.993 184.84C255.079 184.905 255.082 186.236 255.082 186.236L252.424 256.07M262.569 233.45C266.631 224.714 263.182 217.522 267.136 209.849C271.224 202.121 268.714 195.872 268.871 192.28C269.219 188.766 272.044 187.831 271.389 187.005C270.639 186.14 267.728 187.816 266.454 192.498C265.313 197.124 268.076 199.82 263.283 209.251C258.49 218.682 262.28 222.912 257.5 231.24" fill="#F6B40E"/>
<path d="M259.537 256.024L256.87 186.201C256.87 186.201 256.867 184.869 255.993 184.84C255.079 184.905 255.082 186.236 255.082 186.236L252.424 256.07M262.569 233.45C266.631 224.714 263.182 217.522 267.136 209.849C271.224 202.121 268.714 195.872 268.871 192.28C269.219 188.766 272.044 187.831 271.389 187.005C270.639 186.14 267.728 187.816 266.454 192.498C265.313 197.124 268.076 199.82 263.283 209.251C258.49 218.682 262.28 222.912 257.5 231.24" stroke="#85340A" stroke-width="1.1264"/>
<path d="M259.258 257.376L283.515 191.847C283.515 191.847 284.022 190.616 283.225 190.254C282.357 189.964 281.85 191.195 281.85 191.195L252.669 254.696M270.699 237.681C277.795 231.164 277.36 223.199 283.949 217.624C290.683 212.048 290.756 205.314 292.276 202.056C293.942 198.943 296.91 199.16 296.621 198.146C296.259 197.06 292.928 197.494 289.959 201.332C287.135 205.17 288.656 208.718 280.619 215.596C272.581 222.475 274.464 227.833 266.861 233.698" fill="#F6B40E"/>
<path d="M259.258 257.376L283.515 191.847C283.515 191.847 284.022 190.616 283.225 190.254C282.357 189.964 281.85 191.195 281.85 191.195L252.669 254.696M270.699 237.681C277.795 231.164 277.36 223.199 283.949 217.624C290.683 212.048 290.756 205.314 292.276 202.056C293.942 198.943 296.91 199.16 296.621 198.146C296.259 197.06 292.928 197.494 289.959 201.332C287.135 205.17 288.656 208.718 280.619 215.596C272.581 222.475 274.464 227.833 266.861 233.698" stroke="#85340A" stroke-width="1.1264"/>
<path d="M258.484 258.518L305.971 207.26C305.971 207.26 306.91 206.316 306.313 205.677C305.621 205.077 304.682 206.02 304.682 206.02L253.421 253.521M276.59 244.7C285.64 241.395 288.287 233.87 296.508 231.241C304.863 228.667 307.506 222.473 310.158 220.045C312.888 217.806 315.548 219.142 315.668 218.095C315.749 216.953 312.506 216.08 308.295 218.489C304.217 220.954 304.264 224.814 294.206 228.093C284.148 231.373 283.837 237.043 274.569 239.552" fill="#F6B40E"/>
<path d="M258.484 258.518L305.971 207.26C305.971 207.26 306.91 206.316 306.313 205.677C305.621 205.077 304.682 206.02 304.682 206.02L253.421 253.521M276.59 244.7C285.64 241.395 288.287 233.87 296.508 231.241C304.863 228.667 307.506 222.473 310.158 220.045C312.888 217.806 315.548 219.142 315.668 218.095C315.749 216.953 312.506 216.08 308.295 218.489C304.217 220.954 304.264 224.814 294.206 228.093C284.148 231.373 283.837 237.043 274.569 239.552" stroke="#85340A" stroke-width="1.1264"/>
<path d="M251.597 231.014C251.085 221.798 245.862 217.702 246.886 209.203C244.634 215.859 250.061 221.081 249.754 230.912M257.638 255.283L237.67 211.661L254.362 256.614" fill="#85340A"/>
<path d="M261.494 231.231C264.547 222.521 261.29 216.738 265.489 209.278C260.86 214.565 263.876 221.467 259.83 230.431M257.788 255.965L256.034 208.021L254.251 255.941" fill="#85340A"/>
<path d="M270.554 235.219C276.709 228.34 275.912 221.751 282.646 216.465C276.347 219.579 276.491 227.109 269.323 233.843M257.665 256.652L274.392 211.687L254.407 255.276" fill="#85340A"/>
<path d="M277.399 242.37C285.717 238.371 287.503 231.978 295.747 229.672C288.736 230.138 285.988 237.15 276.788 240.628M257.289 257.239L289.95 222.098L254.805 254.721" fill="#85340A"/>
<path d="M257.331 259.277L320.819 230.093C320.819 230.093 322.048 229.581 321.741 228.762C321.331 227.942 320.102 228.454 320.102 228.454L254.566 252.723M279.347 253.44C288.973 253.85 294.298 247.91 302.899 248.627C311.603 249.446 316.416 244.736 319.795 243.507C323.174 242.483 325.12 244.736 325.632 243.814C326.144 242.79 323.482 240.742 318.669 241.357C313.958 242.074 312.525 245.658 301.978 244.838C291.43 244.019 288.973 249.139 279.45 247.91" fill="#F6B40E"/>
<path d="M257.331 259.277L320.819 230.093C320.819 230.093 322.048 229.581 321.741 228.762C321.331 227.942 320.102 228.454 320.102 228.454L254.566 252.723M279.347 253.44C288.973 253.85 294.298 247.91 302.899 248.627C311.603 249.446 316.416 244.736 319.795 243.507C323.174 242.483 325.12 244.736 325.632 243.814C326.144 242.79 323.482 240.742 318.669 241.357C313.958 242.074 312.525 245.658 301.978 244.838C291.43 244.019 288.973 249.139 279.45 247.91" stroke="#85340A" stroke-width="1.1264"/>
<path d="M255.976 259.537L325.799 256.87C325.799 256.87 327.131 256.867 327.16 255.993C327.095 255.079 325.764 255.082 325.764 255.082L255.93 252.424M278.55 262.569C287.286 266.631 294.478 263.182 302.151 267.136C309.879 271.224 316.128 268.714 319.72 268.871C323.234 269.219 324.169 272.044 324.995 271.389C325.86 270.639 324.184 267.728 319.502 266.454C314.876 265.313 312.18 268.076 302.749 263.283C293.318 258.49 289.088 262.28 280.76 257.5" fill="#F6B40E"/>
<path d="M255.976 259.537L325.799 256.87C325.799 256.87 327.131 256.867 327.16 255.993C327.095 255.079 325.764 255.082 325.764 255.082L255.93 252.424M278.55 262.569C287.286 266.631 294.478 263.182 302.151 267.136C309.879 271.224 316.128 268.714 319.72 268.871C323.234 269.219 324.169 272.044 324.995 271.389C325.86 270.639 324.184 267.728 319.502 266.454C314.876 265.313 312.18 268.076 302.749 263.283C293.318 258.49 289.088 262.28 280.76 257.5" stroke="#85340A" stroke-width="1.1264"/>
<path d="M254.624 259.258L320.153 283.515C320.153 283.515 321.384 284.022 321.746 283.225C322.036 282.357 320.805 281.85 320.805 281.85L257.304 252.669M274.319 270.699C280.836 277.795 288.801 277.36 294.376 283.949C299.952 290.683 306.686 290.756 309.944 292.276C313.057 293.942 312.84 296.91 313.854 296.621C314.94 296.259 314.506 292.928 310.668 289.959C306.83 287.135 303.282 288.656 296.404 280.619C289.525 272.581 284.167 274.464 278.302 266.861" fill="#F6B40E"/>
<path d="M254.624 259.258L320.153 283.515C320.153 283.515 321.384 284.022 321.746 283.225C322.036 282.357 320.805 281.85 320.805 281.85L257.304 252.669M274.319 270.699C280.836 277.795 288.801 277.36 294.376 283.949C299.952 290.683 306.686 290.756 309.944 292.276C313.057 293.942 312.84 296.91 313.854 296.621C314.94 296.259 314.506 292.928 310.668 289.959C306.83 287.135 303.282 288.656 296.404 280.619C289.525 272.581 284.167 274.464 278.302 266.861" stroke="#85340A" stroke-width="1.1264"/>
<path d="M253.482 258.484L304.74 305.971C304.74 305.971 305.684 306.91 306.323 306.313C306.923 305.621 305.98 304.682 305.98 304.682L258.479 253.421M267.3 276.59C270.605 285.64 278.13 288.287 280.759 296.508C283.333 304.863 289.527 307.506 291.955 310.158C294.194 312.888 292.858 315.548 293.905 315.668C295.047 315.749 295.92 312.506 293.511 308.295C291.046 304.217 287.186 304.264 283.907 294.206C280.627 284.148 274.957 283.837 272.448 274.569" fill="#F6B40E"/>
<path d="M253.482 258.484L304.74 305.971C304.74 305.971 305.684 306.91 306.323 306.313C306.923 305.621 305.98 304.682 305.98 304.682L258.479 253.421M267.3 276.59C270.605 285.64 278.13 288.287 280.759 296.508C283.333 304.863 289.527 307.506 291.955 310.158C294.194 312.888 292.858 315.548 293.905 315.668C295.047 315.749 295.92 312.506 293.511 308.295C291.046 304.217 287.186 304.264 283.907 294.206C280.627 284.148 274.957 283.837 272.448 274.569" stroke="#85340A" stroke-width="1.1264"/>
<path d="M280.986 251.597C290.202 251.085 294.298 245.862 302.797 246.886C296.141 244.634 290.919 250.061 281.088 249.754M256.717 257.638L300.339 237.67L255.386 254.362" fill="#85340A"/>
<path d="M280.769 261.494C289.479 264.547 295.262 261.29 302.722 265.489C297.435 260.86 290.533 263.876 281.569 259.83M256.035 257.788L303.979 256.034L256.059 254.251" fill="#85340A"/>
<path d="M276.781 270.554C283.66 276.709 290.249 275.912 295.535 282.646C292.421 276.347 284.891 276.491 278.157 269.323M255.348 257.665L300.313 274.392L256.724 254.407" fill="#85340A"/>
<path d="M269.63 277.399C273.629 285.717 280.022 287.503 282.328 295.747C281.862 288.736 274.85 285.988 271.372 276.788M254.761 257.289L289.902 289.95L257.279 254.805" fill="#85340A"/>
<path d="M256 284.4C271.685 284.4 284.4 271.685 284.4 256C284.4 240.315 271.685 227.6 256 227.6C240.315 227.6 227.6 240.315 227.6 256C227.6 271.685 240.315 284.4 256 284.4Z" fill="#F6B40E" stroke="#85340A" stroke-width="1.5"/>
<path d="M265.7 250C263.7 250 261.9 250.8 260.8 252.5C263 254.5 267.8 254.7 271.1 252.3C270.409 251.555 269.575 250.958 268.646 250.546C267.718 250.133 266.716 249.913 265.7 249.9V250ZM265.7 250.4C267.6 250.4 269.3 251.2 269.6 252.1C267.4 254.5 263.9 254.3 261.7 252.5C262.7 251 264.2 250.4 265.7 250.4Z" fill="#843511"/>
<path d="M266.1 248.6C263.3 248.6 262.6 249.2 261.3 250.3C260 251.4 259.3 251.2 259.1 251.4C258.9 251.6 259.1 252.3 259.5 252.1C260 251.8 260.9 251.4 262.2 250.3C263.5 249.3 264.8 249.3 266.2 249.3C270 249.3 272.2 252.5 272.7 252.3C273.1 252.1 270.5 248.6 266.1 248.6Z" fill="#85340A"/>
<path d="M274 249.9C269 245.5 262.6 244.9 259.1 248.1C258.281 249.189 257.733 250.457 257.5 251.8C257 254.3 257.8 257 259.8 259.8C259.5 259.8 259.1 259.9 258.8 260.2C257.1 256.8 256.5 253.4 257.1 250.2L257.8 247.7C262.6 243.7 269.2 243.3 274 249.9Z" fill="#85340A"/>
<path d="M265.6 254.1C266.705 254.1 267.6 253.205 267.6 252.1C267.6 250.996 266.705 250.1 265.6 250.1C264.496 250.1 263.6 250.996 263.6 252.1C263.6 253.205 264.496 254.1 265.6 254.1Z" fill="#85340A"/>
<path d="M271.3 253.4C267.6 256.2 263.9 256 261.7 254.7C259.5 253.4 259.5 252.9 260 252.9C260.4 252.9 260.9 253.4 262.6 254.3C264.4 255.1 267 255.1 271.4 253.3L271.3 253.4Z" fill="#85340A"/>
<path d="M251.6 260C251.265 260.047 250.948 260.179 250.677 260.382C250.407 260.585 250.193 260.854 250.054 261.162C249.916 261.471 249.858 261.81 249.886 262.147C249.915 262.484 250.028 262.808 250.215 263.09C250.403 263.371 250.659 263.6 250.959 263.756C251.26 263.912 251.594 263.989 251.933 263.98C252.271 263.971 252.601 263.876 252.893 263.705C253.184 263.533 253.428 263.291 253.6 263C254.4 263.6 255.4 263.6 256 263.6H256.3C256.8 263.6 257.9 263.6 258.6 263C259 263.5 259.6 263.8 260.2 263.8C260.659 263.755 261.089 263.553 261.416 263.227C261.743 262.901 261.948 262.473 261.995 262.013C262.042 261.554 261.929 261.093 261.675 260.708C261.42 260.323 261.041 260.037 260.6 259.9C261.1 260.1 261.5 260.6 261.5 261.2C261.5 261.558 261.358 261.901 261.105 262.155C260.851 262.408 260.508 262.55 260.15 262.55C259.792 262.55 259.449 262.408 259.195 262.155C258.942 261.901 258.8 261.558 258.8 261.2C258.57 261.727 258.193 262.177 257.714 262.496C257.236 262.816 256.675 262.99 256.1 263C255.533 262.958 254.987 262.77 254.514 262.455C254.04 262.139 253.657 261.707 253.4 261.2C253.4 261.9 252.8 262.5 252.1 262.5C251.755 262.553 251.404 262.467 251.122 262.261C250.841 262.054 250.653 261.745 250.6 261.4C250.547 261.055 250.633 260.703 250.839 260.422C251.046 260.141 251.355 259.953 251.7 259.9L251.6 260ZM253.8 265.8C251.6 265.8 250.8 267.8 248.8 269.1C249.8 268.6 250.8 267.8 252.3 266.9C253.8 266 255.1 267.1 256 267.1C256.9 267.1 258.2 266 259.7 266.9C261.2 267.8 262.1 268.6 263.2 269.1C261.2 267.7 260.4 265.8 258.2 265.8C257.435 265.857 256.688 266.061 256 266.4C255 266 254.2 265.8 253.8 265.8Z" fill="#85340A"/>
<path d="M253 268.3C252.2 268.3 251 268.6 249.4 269.1C253.4 268.1 254.2 269.5 256 269.5C257.7 269.5 258.6 268.2 262.6 269.1C258.2 267.7 257.3 268.6 256 268.6C255.1 268.6 254.5 268.3 253 268.3Z" fill="#85340A"/>
<path d="M249.6 269H248.8C253.4 269.5 251.2 272.1 256 272.1C260.8 272.1 258.6 269.5 263.2 269.1C258.4 268.6 259.9 271.5 256 271.5C252.3 271.5 253.4 269 249.6 269Z" fill="#85340A"/>
<path d="M238.3 249.9C243.3 245.5 249.7 244.9 253.2 248.1C254.019 249.189 254.567 250.457 254.8 251.8C255.3 254.3 254.5 257 252.5 259.8C252.8 259.8 253.2 259.9 253.5 260.2C255.2 256.8 255.8 253.4 255.2 250.2L254.5 247.7C249.7 243.7 243.1 243.3 238.3 249.9Z" fill="#85340A"/>
<path d="M246.2 248.6C249 248.6 249.7 249.2 251 250.3C252.3 251.4 253 251.2 253.2 251.4C253.4 251.6 253.2 252.3 252.8 252.1C252.3 251.8 251.4 251.4 250.1 250.3C248.8 249.3 247.5 249.3 246.1 249.3C242.3 249.3 240.1 252.5 239.6 252.3C239.2 252.1 241.8 248.6 246.2 248.6Z" fill="#85340A"/>
<path d="M246.1 250C244.1 250 242.3 250.8 241.2 252.5C243.4 254.5 248.2 254.7 251.5 252.3C250.809 251.555 249.975 250.958 249.046 250.546C248.118 250.133 247.116 249.913 246.1 249.9V250ZM246.1 250.4C248 250.4 249.7 251.2 250 252.1C247.8 254.5 244.3 254.3 242.1 252.5C243.1 251 244.6 250.4 246.1 250.4Z" fill="#843511"/>
<path d="M246.3 254.1C247.405 254.1 248.3 253.205 248.3 252.1C248.3 250.996 247.405 250.1 246.3 250.1C245.195 250.1 244.3 250.996 244.3 252.1C244.3 253.205 245.195 254.1 246.3 254.1Z" fill="#85340A"/>
<path d="M241 253.4C244.7 256.2 248.4 256 250.6 254.7C252.8 253.4 252.8 252.9 252.3 252.9C251.9 252.9 251.4 253.4 249.7 254.3C247.9 255.1 245.3 255.1 240.9 253.3L241 253.4Z" fill="#85340A"/>
</g>
<defs>
<clipPath id="clip0_2_328">
<rect width="512" height="512" fill="white"/>
</clipPath>
</defs>
</svg>
