<svg width="512" height="512" viewBox="0 0 512 512" fill="none" xmlns="http://www.w3.org/2000/svg">
<g clip-path="url(#clip0_2_382)">
<path d="M0 0H512V512H0V0Z" fill="#000066"/>
<path d="M0 256L512 0V512L0 256Z" fill="#BD1021"/>
<path d="M41.3999 256L511.4 27.3999V484.6" fill="white"/>
<path d="M334.9 288.5C340.3 288.8 340.1 294.2 340.1 294.2L359.4 294.7C361.9 287.9 364.4 288.7 369.1 292.1C371.96 294.052 375.095 295.568 378.4 296.6C380.4 287 394 288.9 394 288.9C399.8 275 400.3 275.2 396.8 273.4C394.727 272.367 393.018 270.728 391.9 268.7C388.975 264.811 387.114 260.227 386.5 255.4C386.1 251.9 382 257.1 381.3 256.1C380.6 254.9 374.5 255.6 374.5 255.6C376 257.2 370.9 256.2 370.9 256.2C371.4 256.7 370.9 258.2 370.9 258.2C370.4 257.5 366.5 256.8 366.5 256.8C366.194 257.427 365.789 258.001 365.3 258.5C363.2 257.7 359 257.8 359 257.8C354.893 257.656 350.831 258.697 347.3 260.8C345.6 261.8 339.3 264.8 334.3 269.8C329.2 274.8 326.3 274.1 326.3 274.1C324.8 279.7 312.7 286.4 312.7 286.4C310.7 288.1 304.6 288.9 301.5 286.4C298.4 283.8 301.5 279 301.5 279C302.7 277 303.8 277 303.9 269.5C304 264.5 309.2 260.3 314.6 254.5C321.2 247.2 330.5 235.2 330.5 235.2C330.5 238.9 332.5 239.5 332.5 239.5C334.3 235.8 336.9 232.8 336.9 232.8C337.1 233.1 337.5 233.3 337.5 233.3C339.5 230.5 340.8 229.4 340.8 229.4C340.1 229.1 334.3 229.4 329 234.1C323.6 238.8 320 237.2 320 237.2C316.3 236 316 233.2 316 233.2C313.2 221.4 323.9 213.2 323.9 213.2C309.6 209.7 319.9 191.5 337.7 183.7C355.4 176 355.2 172.5 355.2 172.5C356.017 173.502 356.69 174.612 357.2 175.8C357.2 175.7 358.6 173.8 368.9 169.2C374.206 166.945 379.239 164.093 383.9 160.7C385.3 163.3 385.1 165.1 385.1 165.1C413.1 155.3 440.6 132.7 440.6 132.7C441.4 134.6 441 137.5 441 137.5C445.6 133.2 462 123.5 462 123.5C462.3 129.7 457.2 132.1 457.2 132.1C457.599 132.885 457.869 133.729 458 134.6C463.214 131.324 468.349 127.923 473.4 124.4C478 128.4 473.9 134.8 473.9 134.8C475.5 134.6 476.6 133.2 476.6 133.2C477.9 140 470.3 146 470.3 146C471.58 145.772 472.802 145.296 473.9 144.6C472.4 152 458.4 160.2 458.4 160.2C460.4 162 458.5 164.4 456.8 165.6C455.1 166.6 452.2 169 453.1 170C454 171 460.2 166.5 460.2 166.5C461.2 169.6 453.3 175.8 453.3 175.8C458.9 176.5 474.3 169.5 474.3 169.5C473 175.5 467.3 180.1 460 182.8C452.9 185.5 453.3 185.9 453.3 185.9C454.5 186.9 464.3 184 464.3 184C461.4 190.6 451.1 195.2 451.1 195.2C453.9 197.7 457.8 194.8 461.7 192.2C466.37 189.242 471.415 186.921 476.7 185.3C482.4 183.3 486.5 184.8 486.5 184.8C491.5 183.3 495.5 185.5 495.5 185.5C504.7 186.2 505.7 189.5 505.7 189.5C506.7 189.8 507.5 190.2 509.9 192C512.3 193.7 512.1 199.1 512 201.8C512 204.4 511.2 204.4 510.7 205.1C510.3 205.9 510.2 206.7 510.2 207.7C510.2 208.7 507.8 215.1 493.5 215.1H471.7C470.5 215.1 469.1 215.8 469.1 215.8C463.1 218.8 466.3 213.8 459.1 219.6C451.9 225.6 448.2 224.6 448.2 224.6C444.209 228.713 439.858 232.461 435.2 235.8C430.9 238.6 431.6 238.3 435.4 239.9C439.2 241.5 444.8 239.9 444.8 239.9C441.2 242.4 443.8 243.5 443.8 243.5C448.4 240.5 451.4 241.6 451.4 241.6C452.9 245.8 447.4 252.4 447.4 252.4C449.5 252.6 453.5 252.4 453.5 252.4C452.5 255.2 448.6 258.3 445.7 259.2C442.7 260.2 443.2 260.6 444.1 262.2C444.9 264.1 444.3 265.9 444.3 265.9C439.1 262.4 439 265.5 439 265.5C438.4 269.6 438.5 275.7 438.5 275.7C434.9 273.9 434.7 276.3 434.7 276.3C433.499 279.354 431.657 282.116 429.3 284.4C429.2 282.1 427 281.4 427 281.4C424.7 285.9 420.4 288.6 420.4 288.6C419.9 292.4 421 297.7 421 297.7C418.2 297.2 417.2 297.2 416.8 297.8C416.4 298.5 417.4 298.8 417.4 298.8L453 299.7C453.5 299.7 455.6 300 455.6 303.7C455.7 307.7 452.6 307.9 452.6 307.9L413.6 306.9C413.6 306.9 413.8 308 411.8 309.1C409.8 310.2 410.5 307.9 409.8 312.7C409.3 317.4 401.6 312.3 401.6 312.3C400.3 314.2 397.3 316.6 397.3 316.6C395.5 311.3 393.7 309.6 390.9 314.2C388.2 318.8 396 318 396 318L444.2 311C446.7 310.8 449.3 311 450.5 314.4C451.5 317.9 444.9 318.4 444.9 318.4L398 323.6C397 326.3 393.1 326.2 393.1 326.2C393.5 328.8 390.7 330.5 389.3 331.4C387.8 332.4 383.3 332 383.3 332C377.9 335.7 375.3 332.8 375.3 332.8C371.7 334.3 369.5 333.6 366.6 332.4C363.6 331.1 363.9 327.6 363.9 327.6L334.3 330.6C333.444 330.948 332.663 331.457 332 332.1C333 333.4 329.8 336.5 329.8 336.5C330.8 337.1 332.4 338.8 332.7 342.5C332.9 346.5 327.9 347.1 330.4 349.9C332.8 352.6 337.5 350.3 342.7 347.9C347.7 345.4 352.7 345.7 354.9 345.7C357.1 345.7 363.2 347.3 367 348.7C370.8 349.9 372.1 349.1 372.4 347.2C372.6 345.2 374.4 344.7 374.4 344.7C373.9 346.6 374.9 347.5 374.9 347.5C376.4 347.5 378.9 346.1 378.9 346.1C378.7 347.6 376.8 348.5 376.8 348.5C373.1 350.9 378.2 350 378.2 350C383.574 348.558 389.149 348.017 394.7 348.4C399.878 349.951 404.954 351.821 409.9 354C410.3 352.7 410.1 349.6 410.1 349.6C411.811 350.079 413.342 351.053 414.5 352.4C415.8 351.1 415 348.8 415 348.8C425.2 354.6 412.8 357.2 409.5 358.4C406.2 359.4 406.2 360.8 406.2 360.8C409 360 410.9 359.6 413.2 359.4C415.4 359.3 414.6 359.4 420.1 358.4C425.6 357.2 428.4 359.6 428.4 359.6C423.8 359.8 422.4 361.2 422.4 361.2C425.4 363.1 422.6 364.8 422.6 364.8C418.5 359.6 414.9 365 414.9 365C417.241 364.973 419.56 365.45 421.7 366.4C422.6 367 424.7 368.1 427.4 369.4C431.2 371 430.4 370 433.4 371C436.4 372.2 435.2 375 435.2 375C434.297 373.485 432.876 372.348 431.2 371.8C431 374.9 427.9 375.5 427.9 375.5C431.8 371.3 423.5 369.4 419.6 369.5C415.8 369.5 412.9 372 412.9 372C420.7 379.4 426.1 377 426.1 377C425.1 379.6 418.7 378.5 418.7 378.5C421.7 380.8 421.3 382.4 421.3 382.4C419.7 380.8 417.2 381.6 411.5 378C406 374.4 401 375.6 401 375.6C406.5 381.3 399 384.8 399 384.8C396.2 386.5 400.2 388.5 400.2 388.5C396.7 389.2 396.2 385.7 396.2 385.7C394.4 385.3 391.8 387.5 391.8 387.5C392 384 396.7 385.8 396.8 382.1C396.9 378.4 392.5 375.5 379.3 377.3C366.1 379.2 362.3 374.9 362.3 374.9C361.1 374.9 361 376.1 361 376.1C363 378.2 364 379.1 363.7 380.5C363.3 382 364.4 382.5 364.4 382.5C361.9 382.3 361.8 379.5 361.8 379.5C361.8 380.7 361.3 380.7 360.5 382C359.7 383.3 360.5 384.8 360.5 384.8C359.4 383.9 357.5 382.8 359.3 380.3C360.6 378.3 356.5 375.8 356.5 375.8C354.8 374.1 350.5 375.7 350.5 375.7C341.5 377.4 336.3 371.7 336.3 371.7C335.3 371.7 333.3 371.2 333.3 371.2C323.8 375.4 315.4 366.2 315.4 366.2C308.3 367.6 305 364.2 302.9 360.7C301.667 358.342 299.702 356.447 297.3 355.3C294.5 353.7 291.8 348.7 294.5 346.1C296.7 343.8 296.1 343.3 296.1 343.3C292.3 337 302.6 335.1 302.9 333.5C303.1 331.4 305.3 330 307.6 329.8C310 329.7 310 329.8 311.6 328.4C313 326.7 315.9 328.7 315.9 328.7C316.6 328.3 321.7 324.3 326.2 326.3C330.8 328.3 334.6 327 334.6 327C337.8 326.3 364.5 322.7 364.5 322.7C366.1 320 367.5 316.9 374.8 315.3C382.1 313.7 387.6 308.9 387.6 308.9C386.3 307.5 384.1 307.6 383 307.5C381.9 307.4 379.6 305.3 379.6 305.3C378.2 306 377.6 305.7 367.9 311.6C359.2 316.8 358.9 306.4 358.9 306.4H340.2C339.9 310.4 336.9 312 336.9 312L329.9 312.3C326.2 310.3 326.2 303.5 326.2 303.5C314.983 303.253 303.892 305.906 294 311.2C270.6 299.3 252.3 296.5 252.3 296.5C280.7 293.5 295.8 285.5 295.8 285.5C305.012 291.117 315.437 294.443 326.2 295.2C326.7 289.5 330.6 288.1 330.6 288.1L334.9 288.5Z" fill="black"/>
<path d="M301 335.7C295.1 339.1 296.2 341 296.7 342.1C297.2 343.1 297.3 344.2 295.7 345.9C294 347.5 294.2 348.1 294.2 348.1C294.5 353.8 298.5 355.1 300.2 356.5C301.7 357.6 304.1 361.4 304.1 361.4C305.001 362.867 306.291 364.055 307.827 364.831C309.363 365.608 311.085 365.944 312.8 365.8C315.2 365.8 315 365.6 313.8 364.5L310.2 361.5C312.554 362.559 314.664 364.09 316.4 366C322.4 372.6 328 371.7 330.4 371.4C332.9 371.1 332.5 369.6 332.5 369.6C332.4 369.4 330.1 369.2 330.1 369.2C320.9 368.4 318.2 362.4 318.2 362.4C322.821 366.464 328.747 368.735 334.9 368.8C337.5 368.7 337.3 369.5 336.8 369.6C336.2 369.7 335.5 369.6 334.2 369.5C333 369.5 333 369.7 333.2 370.3C333.6 370.7 334.7 370.8 336.2 370.7C337.6 370.7 336.4 370.9 340.2 373.7C344 376.7 353.2 374.3 353.2 374.3C347.2 372.8 346.4 370 346.4 370C338.2 371 334.9 366.1 334.9 366.1C333.062 364.672 331.086 363.432 329 362.4C324.4 360.4 323.7 356.2 323.7 356.2C325 358.2 327.5 360.2 330.7 361.2C334 362 334.8 362.4 334.8 362.4C333.999 362.581 333.161 362.512 332.4 362.2C329.2 361.2 331 362.5 331 362.5C334.6 365.4 335.5 365.1 335.5 365.1C344.8 366.1 340.2 362.4 340.2 362.4C346.7 364 347.9 361.5 347.9 361.5C349.3 364.5 354.3 363.3 354.3 363.3C347.6 366.6 352.6 365.6 352.6 365.6C359.4 364.4 360.8 366.1 360.8 366.1C362.5 367.8 364.4 367.6 364.4 367.6C364.4 367.6 365.6 367.6 368.1 368.1C370.7 368.6 374.7 370.8 378.4 370.4C382 369.9 382.7 371 382.7 371C381.9 370.8 380.3 370.5 377.5 371.8C374.6 373.1 369.6 373.5 362.3 371.8C355 370.1 354.5 370.4 354.5 370.4C356.086 371.461 357.335 372.953 358.1 374.7C358.4 375.9 359.7 376 359.7 376C360.2 374.4 362.3 373.7 362.3 373.7C363.8 375 367.7 376.7 367.7 376.7C368.1 375.9 367.7 375.3 367.7 375.3C370.4 378 373.7 377.2 373.7 377.2C374.5 376.6 374.3 375 374.3 375C375.4 375 375.6 375.7 376.3 376.3C377.3 376.7 379.7 376.4 379.7 376.4C378.7 376 378 374.6 378 374.6C381.8 372.1 389.7 373.1 389.7 373.1C395.4 374.2 394.7 378 394.7 378C395.754 378.607 396.7 379.384 397.5 380.3C398 378.9 397.5 377.6 397.5 377.6C400.2 378.8 400.7 381.9 400.7 381.9C403.7 378.4 397.8 374.5 397.8 374.5C400.7 374.1 403.8 374.4 405.8 374.6C408.386 375.055 410.803 376.195 412.8 377.9C414.689 379.163 416.789 380.078 419 380.6C419 379.8 416.8 378.5 416.3 378.2C415.8 378 415.6 377.2 415.6 377.2C417.6 377.6 418.9 377.4 418.9 377.4C415.775 375.669 412.856 373.589 410.2 371.2C412.8 371.5 414.3 369.9 414.3 369.9C408.8 369.9 408.6 368.6 408.6 368.6C409.3 368.7 411.8 369.4 415.1 368.7C418.4 368 422.9 368.7 422.9 368.7C420.5 364.9 411.4 365.6 408.4 365.7C405.4 365.9 404.4 365.5 404.4 365.5C404.8 365.3 405.4 364.8 407.6 364.7C409.9 364.7 412.2 365 414.8 363.1C417.3 361.4 420.9 362 420.9 362C420.1 360.2 415.9 359.6 412.3 362C408.7 364.2 405.3 363.6 405.3 363.6C411.1 362.8 412.7 360.7 412.7 360.7C411.1 360.2 410.1 360.8 406.7 361.5C403.2 362.2 402.3 361 402.3 361C406 358.8 408.7 357.9 408.7 357.9C405.5 357.1 402.5 355.7 402.5 355.7C399.2 358.9 396.5 360.7 390.1 357.4C383.7 353.9 380.3 354.4 380.3 354.4C382.717 353.039 385.463 352.374 388.235 352.48C391.007 352.586 393.694 353.458 396 355C400.2 357.5 401.5 355.5 401.5 355.5C400.1 354.7 400.3 353.9 400.3 353.9C410.5 359.1 415 355.9 417.3 354.4C419.5 352.8 416.2 350.8 416.2 350.8C416 354 411.8 355.7 408.5 354.5C405.2 353.4 402.2 352 397.5 349.9C392.7 347.9 386.9 349 381.3 350.2C375.7 351.3 375.1 350.8 374.5 350.4C374 349.9 373.8 348.6 370.9 349.7C368.1 350.9 361.5 347.8 357.4 346.8C351.753 345.78 345.927 346.733 340.9 349.5C335.1 352.8 332.2 352 330.5 351.2C328.8 350.4 327.6 348.2 329.5 346.2C331.4 344.2 331.5 343.8 331.4 341C331.2 338.2 328.4 336.5 328.4 336.5C331 333.9 331.6 333.2 330.7 332.1C329.9 331 331.2 331 332.7 330.3C334.2 329.7 333.5 329.6 333.2 328.7C332.8 327.9 332 328.1 332 328.1C328.6 328.2 326.7 327.2 326.7 327.2C321.2 324.7 315.9 329.7 315.9 329.7C312.8 327.2 312 328.9 311.4 329.4C311 330 309.8 330.4 308.4 330.6C307 330.7 304.9 331.2 304.3 332.6C304.3 332.6 303.6 333.6 304.3 334.6C304.3 334.6 305.2 336 303.7 337.6C302.1 339.2 301.5 339.5 302.1 341C302.5 342.5 302.4 343.7 301.7 344.6C301.7 344.6 301 343.8 301.2 342.8C301.4 341.8 301.4 341.1 301.2 340.6C301.2 340.6 299.6 342.1 299.4 343.2C299.4 343.2 298.7 341.5 301 339.2C303.2 337 304.3 335.9 303.6 335C303.1 334.3 301.5 335.4 301.1 335.7H301Z" fill="#FFC221"/>
<path d="M307.5 360.6C307.5 360.6 304.7 358.4 305 355.4C305.3 352.4 305.3 352.2 305 351.4C305 351.4 304.4 351.7 304.5 352.9L304.3 355.3C304.3 355.3 302.8 352.9 302.1 352.4C302.1 352.4 302.7 349.8 301.9 348.7C301.1 347.6 300.3 347.5 299.4 347.9C298 348.3 297.1 349.5 301.4 353.1C301.4 353.1 303 354.4 304.1 357.1C305.2 360 307.1 360.4 307.4 360.6H307.5ZM321.5 352.3C321.5 352.3 321.2 350.7 322.8 347.7C323.313 346.79 323.599 345.769 323.634 344.724C323.669 343.68 323.451 342.643 323 341.7C322.7 340.9 322.5 341.2 324 339.9C326 338.3 323.3 336.3 326.5 333.5C326.5 333.5 328.5 331.8 328.9 331.1C328.9 331.1 325.7 332.8 323.5 333.7C321.3 334.6 313.2 338.6 315 341.3C316.8 344 316.6 344.1 316.3 345.3C316.3 345.3 311.3 342.7 313.2 338.5C313.2 338.5 313.9 336.9 315.9 334.9C317.9 333.2 316.8 335.3 320.5 333.1C320.5 333.1 323.5 331.3 325.1 329C325.1 329 323.1 330.2 322.4 330.4C322.4 330.4 318 331.2 316.2 333C314.5 335 310.7 338.1 311.9 341.7C311.9 341.7 307.6 341.2 306.6 336.7C306.6 336.7 298.5 346.6 315.6 351.3C315.6 351.3 318.6 352.2 321.5 352.3Z" fill="black"/>
<path d="M396.2 318.9C402.6 318 439.4 312.4 442.8 312C446.4 311.7 447.8 311.2 449 314.2C450.4 317.4 444 317.5 444 317.5L400 322.5C398 322.7 397.5 321.9 397.5 321.9L395.8 319.7C395.8 319.7 395.3 319.1 396.2 318.9Z" fill="#FFC221"/>
<path d="M306.4 339C306.4 339 301.6 348.9 320.3 351.3C320.3 351.3 320.3 350.3 321.1 348.6C321.9 347.1 323.5 343.9 321.9 341.9C320.4 339.9 323.2 340.9 323.5 338.2C324 335.6 323.3 335.9 324.6 334.2C324.6 334.2 318.8 336.3 316.6 338.9C314.3 341.5 319.6 343.4 316.6 346.3C316.6 346.3 313.8 345.3 312.3 342.4C312.3 342.4 308.7 342.5 306.3 338.9L306.4 339Z" fill="#5A3719"/>
<path d="M324.7 351.2C324.7 351.2 329.3 355.2 334.7 355C340.2 354.8 342.6 353.4 344 351.2C344 351.2 345 352.8 345 353.9C345 353.9 349.8 350 358 353.5C366.2 357 363.6 355.9 365.4 356.2C365.4 356.2 361.9 355.6 354 359.2C345.8 362.9 324.4 361.6 324.6 351.2H324.7Z" fill="black"/>
<path d="M317 333.5C317 333.5 319 333.9 321 331.5C321 331.5 318.3 332.1 317 333.5ZM301.3 352.1C301.3 352.1 297.5 349.1 299.9 348.5C299.9 348.5 301.7 348.1 301.3 352.1Z" fill="#5A3719"/>
<path d="M385.1 371C385.1 371 387.3 367.3 393.1 367.3C399.1 367.3 399.7 370.1 407.1 370.6C407.1 370.6 398.2 373.1 392 370.9C390.901 370.457 389.725 370.237 388.54 370.254C387.355 370.271 386.186 370.525 385.1 371Z" fill="black"/>
<path d="M326.6 353.9C326.6 353.9 335.6 359.2 343.4 353.4C343.4 353.4 344 354 344.6 355.4C344.6 355.4 350.6 349.7 361.2 355.9C361.2 355.9 359.9 355.7 354.9 357.9C348.4 360.7 332 362.6 326.6 353.8V353.9Z" fill="#5A3719"/>
<path d="M360.8 359.3C360.8 359.3 369.3 360.3 376.4 359.8C380.8 359.6 385.6 358.8 383.3 360.2C380.8 361.7 382 361.9 392.2 361C402.2 360 392.1 362.9 399 363.8C399 363.8 382.1 372.4 360.8 359.3Z" fill="black"/>
<path d="M383 353.9C383 353.9 388 352.1 392.7 354.2C397.2 356.4 396.5 356.6 399.6 356.9C399.6 356.9 397.5 359.9 392.4 357.5C389.484 355.796 386.308 354.58 383 353.9ZM388.6 369.1C388.6 369.1 393.5 366.7 398.9 369.2C399.5 369.6 400.9 370.2 402.4 370.5C402.4 370.5 398.3 371.8 394 370.5C392.247 369.867 390.439 369.398 388.6 369.1ZM364.4 360.4C364.4 360.4 375.4 361.4 381.2 360.2C381.2 360.2 374.4 363.5 391.6 362C391.6 362 395.3 361.6 394.9 362.2C394.4 362.8 394.1 363.2 396 363.8C396 363.8 383.3 369.6 364.4 360.4Z" fill="#5A3719"/>
<path d="M310 351.2C310 351.2 310.1 352 312.5 353.1C315 354.1 316.3 356.1 316.8 357.1C317.168 357.845 317.687 358.505 318.324 359.038C318.961 359.572 319.702 359.968 320.5 360.2C320.5 360.2 311.9 362 308.2 357.5C308.2 357.5 305.2 354.4 309.9 351.2" fill="black"/>
<path d="M377.2 370.9C377.2 370.9 373.9 370.6 369.2 369.1C364.6 367.4 363.4 368.8 360.8 366.9C358.2 364.9 352.9 366.1 352 366.3C351 366.3 348.2 366.3 351.6 364C351.6 364 348.9 364 347.8 362.5C347.8 362.5 346.6 363.8 341.8 363.3C341.8 363.3 344 366.6 335.5 365.6C336.918 367.258 338.797 368.457 340.898 369.045C342.999 369.633 345.228 369.582 347.3 368.9C347.3 368.9 346.7 371.5 350.6 372.5C354.6 373.5 355.3 374.2 357.4 375C357.4 375 357.6 373.4 352.4 369.6C352.4 369.6 355.2 369.5 359.2 370.5C363.2 371.5 372.3 373.7 377.2 370.9ZM379.3 374.8C379.3 374.8 380.2 376.8 382.8 376.3C385.3 375.8 389.5 375.1 393.6 377.2C393.6 377.2 394.4 373.7 386.1 373.5C386.1 373.5 381 373.7 379.3 374.8ZM309.7 352.4C309.7 352.4 306.5 355 309.4 357.7C312 360.2 316.1 360 318.1 359.9C318.1 359.9 316.8 359.3 315.9 357.7C314.8 356.2 314.8 355.1 312.6 354.1C310.4 353.1 310.1 352.9 309.7 352.4ZM306.5 338.9C306.5 338.9 301.6 348.9 320.4 351.3C320.4 351.3 320.4 350.3 321.2 348.6C321.8 347.1 323.5 343.9 322 341.9C320.4 339.9 323.2 340.9 323.6 338.2C324 335.6 323.3 335.9 324.6 334.2C324.6 334.2 318.8 336.3 316.6 338.9C314.3 341.5 319.6 343.4 316.6 346.3C316.6 346.3 313.8 345.3 312.3 342.5C312.3 342.5 308.7 342.5 306.3 338.9H306.5Z" fill="#5A3719"/>
<path d="M355.4 362C355.4 362 359.4 361.3 369.3 365C379.3 368.7 383.4 367.8 384.9 367.8C384.9 367.8 379.3 370.7 370.6 366.8C362.9 363.4 362.4 364.8 355.4 362Z" fill="black"/>
<path d="M417.8 359.8C417.8 359.8 420 359.7 421.4 360.2C421.4 360.2 422.2 359.5 424.4 359.2C424.4 359.2 423 358 417.8 359.8ZM411 354.2C411 354.2 413.2 354.2 414 353C414 353 412.7 351.6 411 350.8C411 350.8 411.4 352.5 411 354.2ZM334.5 328.8C334.5 328.8 334 327.6 336.5 327.3L369.8 322.5C369.8 322.5 371.4 322.5 371.7 323.5C371.9 324.8 371.5 325.6 364 326.5C356.5 327.3 336.7 329.8 336.7 329.8C336.7 329.8 334.7 330.2 334.5 328.8Z" fill="#FFC221"/>
<path d="M364.7 327.4C364.7 327.4 364.7 331.8 369.2 332.4C373.5 333.1 375 332.2 376.2 329.9C376.5 329.3 377.8 324.7 375.9 324.4C374.857 324.266 373.798 324.368 372.8 324.7C371.3 325.4 369.9 326.1 370.3 326.8C371.5 328.5 371.7 328.8 371.3 329C370.2 329.3 369.4 328.3 369.2 327.6C369 326.8 369.8 326.3 366.9 326.8C365.7 326.9 364.7 326.9 364.7 327.4Z" fill="#FFC221"/>
<path d="M383.3 324C385.5 324.3 385.3 329.1 382.7 331.3C379.7 333.7 377 332.8 377 332.8C375.4 332.2 375.7 332.4 376.8 330.7C377.8 329 378.4 326.8 377.8 325.3C377.6 324.8 378.1 324.3 378.8 324.3C378.8 324.3 381 323.8 383.3 324Z" fill="#FFC221"/>
<path d="M385.3 324.5C385.3 324.5 386.9 326.5 384.9 330.3C384.9 330.3 383.9 331.4 386 331.3C388 331.1 392.6 329 392 326.2C392 326.2 392 325.5 390.7 325.5C389.5 325.6 390.5 324.9 391 324.7C391.5 324.7 393 324 389 321.4C389 321.4 388.4 320.9 387.6 321.1C387 321.4 384.9 322.1 384.9 323.5C384.9 324 385.3 324.5 385.3 324.5Z" fill="#FFC221"/>
<path d="M389.6 321C389.6 321 392.9 323.3 392.8 324C392.8 324.6 392.5 325.6 393.4 325.4C394.2 325.4 397.6 324.6 396.7 322.4C395.7 320.1 394.7 319.4 393.2 318.7C391.6 318.2 391.2 318.9 389.8 320C389.8 320 388.8 320.6 389.6 321ZM372.5 324.2C372.5 324.2 373 322.6 370.1 321.9C370.1 321.9 371.3 320.9 373.8 321.4C376.1 321.9 375.9 323.6 375.9 323.7C375.9 323.7 374 323.7 372.5 324.2ZM378.7 323.8C378.7 323.8 381.9 323.2 383.4 323.4C383.4 323.4 381.8 319.8 377.4 320.9C377.4 320.9 379 322.9 378.7 323.8ZM384.3 323C384.3 323 384.3 321.8 387.1 320.7C387.1 320.7 385.8 319.4 383.8 319.6C381.7 319.6 381.2 320.4 381.2 320.4C381.2 320.4 383.7 321.3 384.3 322.9V323ZM385.3 319C385.3 319 387.2 319.6 388.3 320.5C388.3 320.5 389.9 318.7 391.3 318.3C391.3 318.3 388.6 316.9 385.3 319.1V319Z" fill="#FFC221"/>
<path d="M294 310.3C294 310.3 301.7 303.8 306 304.6C310.3 305.4 308.2 304.9 312.8 304.1C317.6 303.4 322.4 302.9 324.4 303.1C324.4 303.1 318.6 299.1 308.5 299.1C308.5 299.1 301.4 301.6 296.5 304.9C296.5 304.9 286.9 299.6 277.1 302.7C277.1 302.7 287.8 306.7 294.1 310.3H294Z" fill="#5A3719"/>
<path d="M375.6 321.6L376.9 321.4C376.9 321.4 379 324 377.5 324C376.2 324 376.6 323.7 376.5 323C376.343 322.43 375.988 321.934 375.5 321.6H375.6ZM365.9 321.8C365.9 321.8 365.1 322.8 366.6 322.6C368.4 322.3 368.1 322.6 369.9 321.3C369.9 321.3 371.2 320 373.4 320.8C373.4 320.8 375.2 321.4 376.7 320.7C378.3 319.9 378.6 320 379.4 320C380.2 320.1 380.2 320.3 381.2 319.5C382.4 318.7 384.2 319.3 385.4 318.3C386.6 317.3 388.1 318.2 385.4 316.3C385.4 316.3 384.8 315.7 384.9 315.3C384.9 315.3 385.9 315.6 386.8 316.3C387.6 317 388.8 316.8 389.1 316.6C389.1 316.6 389.3 314.2 391.6 312C394 309.8 394 309.7 392.6 309.7C391.2 309.7 388.9 309.1 388.1 309.7C387.3 310.3 380.4 314.8 376.3 315.6C372.3 316.4 368.6 317.6 365.9 321.8ZM257.9 296.8C257.9 296.8 270.4 300 273.1 301.3C273.1 301.3 273.8 299.3 268.1 297.7C268.1 297.7 281.9 297.3 296.3 303.9C296.3 303.9 303.3 297.9 325.9 299.7C325.9 299.7 325.9 297.7 326.1 296.2C326.1 296.2 310.3 295.7 295.8 286.9C295.8 286.9 282.7 293.3 257.9 296.9V296.8ZM326.9 302.8C326.2 290.1 330.9 288.9 330.9 288.9C330.9 288.9 333.3 289 335.7 289.4C335.7 289.4 331.9 294 332.9 303.1C332.9 303.1 333.3 304.5 330.1 304.5C326.9 304.5 327 303 327 303L326.9 302.8Z" fill="#FFC221"/>
<path d="M330.3 311.2C330.3 311.2 327.9 308.8 327.7 306C327.7 306 327.7 305.3 330 305.3C332.4 305.4 332.7 305.2 333.3 306.6C333.8 307.9 335.3 310.7 335.7 311.1L330.3 311.2Z" fill="#5A3719"/>
<path d="M335.4 304.9C335.167 303.278 335.067 301.639 335.1 300C335.3 293 336.4 293.6 336.9 294.5H339.4C339.4 294.5 337.6 286.5 335.4 291.2C333.816 294.706 333.261 298.59 333.8 302.4C334 304.5 334.2 305.8 334.5 306.6L335.4 304.9Z" fill="#FFC221"/>
<path d="M362.8 304.9C362.8 304.9 367.4 305.7 360.3 307.3C360.3 307.3 360.6 316 369 309.9C369 309.9 374.1 306.7 377.5 305.4C377.5 305.4 379.3 304.9 379.1 303.5C379.1 303.5 379.3 301.9 377.5 302.3C377.5 302.3 376 302.3 375 302C375 302 374 300.8 373.4 301.2C372.7 301.7 371.1 301.4 372.4 303C373.6 304.4 374 304 374.6 303.6C375.2 303.2 377.9 302.2 375.4 304.4C372.9 306.6 371 303.1 370.2 302.4L362.8 304.9ZM339.3 305.9H337.3C337.3 305.9 336.1 307.5 335.3 304.9L334.6 306.6C334.6 306.6 337 315.9 339.3 305.9Z" fill="#5A3719"/>
<path d="M336.4 295.1C336.4 295.1 335.3 301.3 336.7 304.9L359.2 305.4C359.2 305.4 358.9 301.1 359.2 295.1H356C356 295.1 355.5 300.1 356 303.1H355.4C355.4 303.1 355 298.9 355.4 295.1H352.8C352.8 295.1 352.4 299.7 352.7 303.1H352.2C352.2 303.1 351.8 299.1 352.2 295.1H349.7C349.7 295.1 349.2 299.2 349.7 303.1H349C349 303.1 348.5 299 349 295.1H346.1C346.1 295.1 345.5 299 346.1 303.1H345.6C345.6 303.1 344.9 299.2 345.6 295.1H342.7C342.7 295.1 342.1 299.5 342.7 303.1H342.1C342.1 303.1 341.7 298.9 342.2 295.1H339.5C339.5 295.1 338.8 298.8 339.5 303.1H338.8C338.8 303.1 338.4 299.9 339 295.1H336.4ZM360.1 306.2C360.1 306.2 359.6 295.2 361.6 292.4C363.7 289.6 364.2 290.1 367.8 292.4C371.4 294.7 376 297.2 376.8 297.4C377.5 297.7 378.6 298 378.6 300C378.6 302 378.9 302.6 375.8 300C375.4 299.7 373.9 298.4 372.8 298C370.1 297.2 373.5 298.6 374.5 300.1C375.3 301.3 376.1 301.1 373.9 301.7C369.255 303.057 364.652 304.557 360.1 306.2Z" fill="#FFC221"/>
<path d="M368 298.3C368 298.3 366.3 296.3 368.5 295.9C370.5 295.4 370.7 299.1 371.1 301.3C371.4 303.6 368.5 299.1 368.1 298.4L368 298.3ZM365 308C365 308 362.6 308.9 364.2 309.6C365.8 310.4 370.2 306.7 368.7 307C367.1 307.2 365 308 365 308ZM368.3 304.6C368.3 304.6 370.4 304.4 369.9 305.3C369.6 306.3 368.8 305.7 368.5 305.4C368.1 305.3 366.7 304.7 368.3 304.6Z" fill="black"/>
<path d="M379.7 301.7C379.7 301.7 380.2 305.9 383.8 307C383.8 307 386 307.5 385.5 305.7L384.9 303.5C384.6 302.8 383.1 302.4 382.9 302.3C382.8 302.3 382.6 301.8 383.6 302.2C384.6 302.5 384.7 302.6 384.6 301.8C384.6 301.1 384 301.4 383.1 301C382.8 300.8 383.1 300.5 383.5 300.6C383.9 300.6 384.8 301 384.8 299.6C384.8 299.6 385 298.7 383.9 298.7C382.7 298.7 382.8 298.1 383.1 298C383.5 298 384.7 298.8 385.1 297.3C385.5 295.9 383.4 296.8 383.7 296C384 295.2 385.5 296.4 385.5 295.5C385.7 294.7 386.9 294.3 384.8 294C383.9 293.9 384.8 293.4 385.8 293.6C387 293.7 387.7 292.4 388.3 291.9C389.1 291.4 392.8 289.2 387.7 289.9C382.7 290.6 381.2 293.1 381 293.6C379.762 296.108 379.309 298.931 379.7 301.7Z" fill="#FFC221"/>
<path d="M391.4 305C392.1 304.9 392.7 305 392.9 305.4C393.7 307.1 391.9 306.6 390.8 307.8C389.7 309 389.6 308.8 388.2 308.4C386.7 307.9 386.2 305.7 386.2 305.7C386 304.9 386.6 304.9 387.3 305C387.3 305 389.8 305.3 391.4 305ZM386 304.1C386 304.1 386 304.5 387 304.6C387.7 304.6 390.2 304.9 391.8 304.4C391.8 304.4 392.2 304.4 392 303.4C392 303.4 392 302.7 390.7 303C389.3 303.2 387.4 303 386.7 302.9C386.1 302.7 385.7 302.9 386 304V304.1ZM385.8 301.1C385.8 301.1 385.8 302.3 387 302.5H390.7C391.3 302.5 392.2 302.2 392.3 301.5C392.3 300.6 392.6 300.1 390.9 300.5C389.2 300.9 387.3 300.6 387.1 300.5C386.9 300.5 385.8 300.2 385.8 301V301.1ZM386.4 298.3C386.4 298.3 386 299 386.1 299.5C386.1 300.1 387.1 300.4 388.8 300.4C390.5 300.4 392.1 300.1 392.2 299.5C392.3 298.9 392.7 298.2 391.4 298.5C390.141 298.702 388.859 298.702 387.6 298.5C386.9 298.2 386.4 298.1 386.4 298.3Z" fill="#FFC221"/>
<path d="M450.2 305.1C450.2 305.1 450.2 306.2 451.1 307.5L402.9 306.1C402.9 306.1 403.5 305.7 403.7 303.8L450.2 305.1Z" fill="#5A3719"/>
<path d="M386.8 296.4C386.8 296.4 386.4 297.6 387.2 297.8C388 298.1 389.5 298.3 391.5 298C391.5 298 392.5 298 392.8 297C393.2 296 393.1 296.5 390.4 296C390.4 296 389.5 295.7 392 295.7C392 295.7 393.5 295.7 393.6 295.5C393.9 295.3 395.8 293.7 393.3 293.9C390.9 293.9 392.1 293.4 393.3 293.4C394.6 293.4 394.9 293.7 395.3 293.4C395.7 293.1 395.3 293.2 394.7 292.5C394.1 291.8 394.5 292 395 292.5C395.5 292.8 395.8 292.9 396.3 292.5C396.9 291.9 395.9 291.2 396.3 291.3C396.7 291.3 397 292.2 398.5 291.5C400.2 290.6 402.3 291 402.9 291.5C403.4 291.9 405.1 292.5 406.1 291.5C407.1 290.5 404.9 289.5 405.8 289.5C406.8 289.3 407.4 289.7 407.8 288.9C408.2 288.1 406.3 287.5 408.1 286.9C409.8 286.5 408.3 281.6 407.8 281.2C407.8 281.2 405.8 282.3 403.7 285.7C401.5 289.2 400.2 291.3 397.3 290.2C393.3 288.6 391 290.9 390.3 291.2C389.3 291.9 392.5 292.2 390.6 292.2C388.8 292.2 388.8 292.4 388.6 292.7C388.5 292.9 388.6 293.2 389 293.3C389.3 293.3 390 293.9 388.9 293.9C387.7 293.9 386.9 293.7 387.3 294.9C387.3 294.9 387.3 295.1 387.9 295.2C388.6 295.2 388.9 296 387.6 296C386.8 296 386.8 296.3 386.8 296.4ZM391.2 308.4C391.2 308.4 390.4 309 391.5 309.1C392.7 309.1 393.3 309.4 393.7 308.8C394.1 308.2 395.7 308.4 394.7 307.5C393.5 306.6 392.8 307.1 391.2 308.5V308.4Z" fill="#FFC221"/>
<path d="M396.2 293.9C396.2 293.9 400.2 290.1 403.5 292.7L407.3 295.7C407.3 295.7 407.7 296 406.8 296.8C405.8 297.7 406.8 297.7 407.8 297.1C408.8 296.6 408.8 297.1 409.3 297.7C409.8 298.2 410.5 298.5 408.9 298.5H404C404 298.5 401.8 298.7 403 297.7C404 296.8 403.8 295.7 403.3 295.7C402.7 295.7 403.3 296.3 402.9 296.7C402.5 297.1 401.8 297.5 400.9 297.5C400 297.5 399.5 298.1 400.7 298.5C402 299 400.6 299.3 399.9 299.3C399.2 299.3 396.2 299.5 399.3 299.9C402.5 300.3 399 300.2 401.3 301.5C404 303 402.1 306.1 401.1 306.4C401.1 306.4 400.1 307 401.4 306.8C402.8 306.6 403.5 306.5 402.5 307.2C401.6 308 399.7 310.3 397.1 308.5C397.1 308.5 395.8 308 398 307.8C400.2 307.8 396.2 307.2 395.5 306.8C394.9 306.4 392.5 303.8 394 304.1C395.6 304.4 395 303.5 394 303.2C393.1 302.9 393 301.5 394 301.7C395 302.1 396.2 302.7 397.1 302.6C398 302.6 397.7 302.2 395.9 301.7C394.1 301.1 393.4 301 393.8 299.5C394.2 298 396.2 300.1 395.8 299C395.3 297.8 393.5 298.4 394.4 297C395.3 295.6 395.6 296.1 396 296.3C396.4 296.4 397 296.3 396 295.5C395.1 294.9 396 294.1 396.2 293.9Z" fill="#FFC221"/>
<path d="M399 295C399 295 399 294.5 399.8 294.6C400.5 294.6 400.3 294.3 400.5 294.1C400.7 294.1 402.5 294.7 400.8 295.3C400.2 295.5 399.2 295.3 399.1 295H399Z" fill="black"/>
<path d="M403 299.2C403 299.2 401.6 299.9 402.8 301.3C403.8 302.6 403.8 303 403.8 303.8C403.7 304.6 450.2 305.1 450.2 305.1C450.2 305.1 450.1 302.1 452 300.4L403 299.2Z" fill="#FFC221"/>
<path d="M450.9 304.3C450.9 304.3 451.1 301.7 452.5 300.9C453.3 300.4 454.3 300.7 454.7 302.7C455.4 305.6 452.9 308.1 451.8 307C450.8 306 451 304.3 451 304.3H450.9Z" fill="#5A3719"/>
<path d="M397.6 315.1C397.6 315.1 400.7 312.4 401.2 311.3C401.2 311.3 409.6 317.3 409.1 311.8C409.1 311.8 409.1 310.3 409.3 308.9C409.3 308.9 412.3 309.3 412.8 306.9L405 306.6C405 306.6 404.2 306.4 403 307.7C401.8 309 399.3 310.4 397 309.2C397 309.2 396 308.4 395 309.1C394 309.8 394 309.9 394.8 310.7C395.6 311.5 397.3 313.8 397.6 315.1ZM415.6 298.7L411 298.6C411 298.6 409.4 296.2 406.1 293.6C406.1 293.6 405.1 293.2 406.9 291.7C408.9 290.2 409.4 288.7 409.4 287.9C409.4 287.3 409.4 286.1 410.1 286.9C410.7 287.8 415.4 292.1 416.1 290.9C416.8 289.6 417 289 417 288.6C417.2 288.2 417.3 287 418 288.3C418.7 289.5 419.1 289.2 419.2 292.3C419.2 292.3 419.2 295.6 419.8 296.7C419.8 296.7 413.8 294.8 415.7 298.7H415.6ZM395.8 288.9C395.8 288.9 399.3 290.9 401 288.3C402.6 285.7 403.8 285.3 402.5 282.6C401.2 280.2 402.5 279 403.5 277.9C404.5 276.9 405.4 277.1 405.5 272.9C405.6 268.9 408.5 267.6 409.7 266.3C411 265.1 414.1 263.2 409.3 262.3C404.6 261.6 395 259.1 392.6 255.4C390.1 251.7 389 253.9 389 254C389 254.2 388.2 256.9 390.6 261.8C393 266.7 395.1 269.8 397.6 271.4C399.9 273.1 402 273.9 400.8 277.2C399.6 280.5 397.6 286.3 395.8 289V288.9Z" fill="#7B3C20"/>
<path d="M408.7 278.5C408.7 278.5 409.2 287 415.4 290C415.4 290 416.8 286.7 416.2 283.4C416.2 283.4 418.2 283.6 418.8 284.5C418.8 284.5 418.8 282.1 416 281.2C413 280.3 414.5 274.8 415.5 274.2C416.5 273.6 416.2 272.4 415.5 271.4C414.8 270.4 414.7 269 417.1 269.6C419.5 270.2 419.1 269 417.6 267.8C416.2 266.6 416.3 265.1 418.3 265.1C420.3 265.1 423.8 263.1 421.7 262.5C419.7 261.9 419 261.2 421.7 260.5C424.6 259.5 426 258.6 423.9 258.4C421.7 258.1 420.3 257.4 422.4 257.1C424.4 256.7 422.1 254.6 419.7 254.5C417.2 254.4 412.2 255.3 416.2 252.1C420.2 248.9 410.5 251.3 414.5 249.1C418.5 247.1 413.1 247.9 412.3 247.9C411.6 247.9 411.6 247.9 411.9 246.9C412.2 245.8 411.4 245.2 410.1 245.9C409 246.6 409 246.6 409.1 245.1C409.1 243.6 407.7 244.7 406.8 245.1C405.8 245.5 403.7 247.1 402.7 246.3C401.9 245.3 401.4 244.4 398.7 246C395.8 247.7 396.5 246.3 396.6 245.5C396.6 244.7 397.6 241.9 393.9 245C390.2 248.1 393.1 241.7 390.2 243.8C387.2 246 386.9 246.4 386.4 245.5C386 244.5 385.4 243.7 382.1 245.8C378.8 247.8 381.3 244.5 381.7 243.8C382.2 243 383.6 238.3 380.7 242C380.7 242 379.3 244.6 376.2 240C376.2 240 373 244.6 372.1 242.5C371.2 240.5 370.4 240.3 369.3 241.6C368.3 242.9 369 241.6 368.6 240.4C368.1 239.4 367.8 237.3 362.3 241.2C356.9 245.3 364.3 242.4 360.1 244.2C355.9 246 345.8 251.7 355 250.4C364.3 249.1 350.5 254 353.7 254.9C356.9 255.8 355.9 258.6 368 255.3C380 252 378 254.8 384.2 252.1C390.4 249.5 382.8 253 391 252.9C399.3 252.6 392.4 252.9 394 254.5C395.7 256.2 402.6 260.2 409 261C415.6 261.6 417.2 259.2 415.4 262C413.4 264.8 412.8 265.9 411.7 267C410.7 267.8 407.5 270.1 407.4 274C407.4 277.9 402.4 278.5 404.2 282.9L408.7 278.5Z" fill="#5A3719"/>
<path d="M419.4 288C419.4 288 417.9 286.9 417.9 285C417.9 285 418.9 285.2 419.4 285.8C419.4 285.8 423.1 281.6 418.5 280.1C414.1 278.5 416.3 274.5 417.9 274.5C419.4 274.5 419.7 274.1 418.4 272.3C417.1 270.7 417.2 270.5 419.8 270.1C422.2 269.7 422 269.1 420.8 268.5C420.054 268.075 419.379 267.535 418.8 266.9C418.8 266.9 426 263.8 423.7 262.3C421.3 260.9 423.7 261.3 425.7 259.8C427.9 258.3 428.2 258 428.4 257.4C428.4 257.4 426.4 257.6 424.8 257.4C424.8 257.4 426.6 256.4 424.8 254.9C423 253.4 422.4 252.2 419.4 252.9C416.6 253.5 417.6 252.6 418.6 251.4C419.8 250.2 419.3 249.5 417.2 249.2C417.2 249.2 417.5 248 419 246.5C419 246.5 415.1 246.8 413.8 246.1C413.8 246.1 415.4 245.1 415.4 243.7C415.4 243.7 413.4 244.5 410.6 244.2C410.6 244.2 412.3 242.8 412.3 241.6C412.3 241.6 407.5 242.6 405.3 244.3C405.3 244.3 404.9 244.3 404.6 243.7C404.2 243.3 403.9 242.7 398.7 244.3C398.7 244.3 399.3 242 400.6 241C401.8 240.2 401.6 238.4 393.6 243.4C393.6 243.4 392.5 242.8 391.6 240.4C391.6 240.4 389.8 242.8 388.5 243.6C388.5 243.6 387.3 244.1 387.5 242.6C387.7 240.9 386.7 242 385.9 242.6C385.1 242.9 384.5 244.1 384.9 240.9C385.3 237.7 383.7 237 383.7 237C383.7 237 381.3 240.6 379.8 241C379.8 241 377.2 238.4 376.2 236.7C375.3 235.1 375.3 234.4 374.4 237.4C373.4 240.4 372.4 240.6 372.4 240.6C372.4 240.6 370.7 239.2 370.5 238.4C370.5 238.4 370.3 239.3 369.7 239.6C369.7 239.6 368.3 237.9 368.4 235.6C368.4 235.6 359.7 240.4 358.6 243.3C358.6 243.3 350.4 242.8 347.1 243.4C347.1 243.4 347.9 240.8 350.1 239.4C350.1 239.4 347.9 239.2 347.8 237C347.8 237 349.5 237.2 350.6 237C351.6 236.7 349.1 233.6 351.8 233.5C354.5 233.5 356.2 234.8 355.1 231.2C353.8 227.6 354.3 227.6 354.3 227.6C354.3 227.6 359.1 230.4 359.8 229.6C360.6 229 359.2 227.6 363.4 228.2C367.6 229 366.4 226.6 368.1 226.4C369.7 226.4 370.5 227.4 369.5 219.9C368.5 212.4 374.6 223.6 370.5 212.2C370.5 212.2 369.5 208.7 366.9 207.2C366.9 207.2 366.3 209.7 363.6 207.6C360.7 205.3 355.2 204.6 357.6 202.8C359.9 201 361 198.8 360.3 197.3C360.3 197.3 357.5 200.1 352.8 198.1C349 196.4 348.2 199.4 344.4 198.6C344.4 198.6 344.4 197.6 347.6 195C350.9 192.4 345.8 195.8 343.8 196.3C341.8 196.8 341.2 196.3 345.4 193C349.7 189.7 358.2 184 357 179.1C357 179.1 359 181.7 364.3 179.8C369.5 178 373.5 177.3 375 174.5C376.6 171.9 380.7 169.2 381.8 168.5C382.9 167.9 384.3 167.5 382.7 170.1C381 172.7 378.4 177.1 371.2 180.1C363.9 183.1 361.2 185.2 359.8 186.9C358.5 188.4 351.8 191.9 356.2 191.4C360.5 190.7 367.9 191.4 364.4 190.4C361 189.4 357 191 360.2 188.1C363.4 185.2 364 184.3 368.6 182.3C373.3 180.3 378.4 175.9 377.9 180.7C377.4 185.3 368.7 190.4 366.6 191.9C364.5 193.5 365.3 193.3 365.3 193.9C365.3 194.5 365 195.8 364.1 196.3C363.2 196.9 363.5 197.6 363.7 198.9C364 200.3 363.5 200.8 364.1 201C364.8 201.2 365.4 201.3 365.6 202.2C365.9 203.2 366.3 203.3 367.6 203.2C368.8 203.1 369.6 203.2 369.6 204C369.8 204.7 371 205.7 371.1 203.5C371.2 201.2 372.1 200.8 369.8 201.8C367.5 202.8 367 202.5 367.1 201.4C367.1 200.4 366.8 200.6 365.9 200.5C364.9 200.5 364.6 199.1 366.3 198.2C368 197.3 368 198.2 370.1 196.4C372.2 194.6 372.2 194.2 372.6 193.4C372.9 192.5 369.6 195.8 367.9 196.5C366.3 197.3 366.8 196 367.1 194.2C367.3 192.4 371.3 189.9 373.1 189.9C375 189.9 379.1 190.9 377.4 193.5C375.6 196 370.5 199 372.6 199.2C374.8 199.4 375.2 198.6 376.5 199.6C377.7 200.8 376.5 203.1 376 204.3C375.425 205.461 374.607 206.484 373.6 207.3C373.6 207.3 371.3 203.1 371.4 206.4C371.4 209.7 370.9 210.8 371.4 210.9C371.9 211.1 374.4 212.8 375.2 212.8C376 212.8 370.8 215.2 373 215.4C375.2 215.6 378.8 214.4 380 212.1C380 212.1 375.4 211.1 373.7 209.4C373.7 209.4 378.8 208.2 377.4 203.2C377.4 203.2 382.6 204.6 380.4 207C378.1 209.3 376.7 209 378.7 209.6C380.7 210.2 381.5 210.8 381.5 210.8C381.5 210.8 382.9 211.5 382.1 212.5C381.3 213.7 381.3 215.3 382.1 215.2C382.6 215.2 384.8 214.2 383.1 213.2C381.1 212 385.1 212.2 383.4 211.2C381.8 210.2 381.3 210.1 380.9 209.6C380.4 209.2 401.9 196.6 391 201.3C391 201.3 393.3 196.3 396.5 196.3C399.5 196.3 399.8 198.8 398.1 200.8C396.2 202.7 395.1 205.7 390.9 206.3C390.9 206.3 396.9 209.3 389.8 214.1C389.8 214.1 388.2 214.8 388.8 215.3C389.4 215.9 393.6 213.5 394.2 212.1C394.776 210.669 395.888 209.52 397.3 208.9C398.9 208.1 406.9 202.7 409.3 198.6C411.7 194.6 412.3 194.5 416.9 190.7C421.5 186.9 420.8 187.7 421.4 186.8C422 185.9 422.2 184.4 424.4 183.2C426.4 182 434.8 177.4 437.4 175.5C440 173.6 445.4 170.1 447.6 167.2C449.9 164.3 456.1 160.6 457.6 161.2C459.2 162 457.6 164.2 453.9 166.9C450.2 169.6 441.3 176.9 439.8 178.1C436.163 181.006 432.12 183.365 427.8 185.1C425 185.5 425.3 186.5 423.6 188.4C421.9 190.3 417.9 194.1 416.6 195.1C415.3 196.3 412.1 198.4 411.9 200C411.8 201.5 412.5 201.7 409.9 204C406.136 207.532 401.853 210.466 397.2 212.7C397.2 212.7 402 214.3 399.2 217.6C396.3 220.8 396.5 220.3 396.3 220.6C396.3 220.6 403.5 219.4 398.5 225.1C398.5 225.1 397.4 226.8 399.7 225.1C402.1 223.1 401.1 220.7 400.8 220.4C400.8 220.4 404.7 217.9 409.2 217.9C413.6 217.9 413.4 217.5 409.4 216.4C409.4 216.4 412.3 212.9 414.6 214.7C417.1 216.3 416.3 217.4 413.8 218.7C411.2 220.1 407.5 220.5 404.8 222.1C404.8 222.1 410 223.1 412.8 221C415.6 218.8 415.8 219.9 416.1 220.3C416.5 220.7 416.8 221.3 415.6 223.2C414.3 225 414.2 225 414.3 225.4C414.3 225.9 414.1 227.1 411.6 227.4C409.2 227.9 407.9 229 408.8 230.2C409.6 231.4 409.6 234.3 407.5 234.1C405.4 233.8 405.9 232.1 405.1 231.4C404.3 230.8 403.1 229.8 399.3 231.7C395.5 233.7 395.3 231.3 395.4 230C395.4 230 393 232.2 390.9 230.3C388.9 228.3 390.7 227.5 391.9 226.5C393.1 225.5 397.9 223.4 395 223.8C392 224.1 387.8 224.3 386.9 222.2C385.8 219.9 388.9 220.2 389.5 220.4C390 220.5 391.9 222.2 392.1 220.1C392.1 217.8 395.3 217.6 394.2 217.1C393.2 216.8 391.6 218.1 391.2 218.7C391.2 218.7 389 215.6 385.4 216.5C381.8 217.6 386.5 217.2 387.4 217.4C388.4 217.5 387.8 219.4 384.6 222.3C381.4 225.1 382.8 224.3 385.2 224.3C387.7 224.3 393.5 224.3 390.2 227C386.7 229.9 385.3 231.2 383.6 230.8C381.8 230.3 383.7 229.1 384.6 228.5C385.4 228.1 385.8 227.2 384.1 227.9C382.4 228.5 381.9 228.6 380.5 226.3C379.2 223.8 379.7 224.6 380.3 223C380.9 221.4 382.2 219.8 380.6 220.4C379 221 379.2 221 379.3 219.2C379.4 217.4 377.5 217 377.5 217C377.5 217 378.4 218.8 377.6 220C377 221.1 376.9 221.5 378 221.8C379.2 222.1 380.2 223.1 378.7 224.1C377.1 225.1 377.4 225 378.3 225.6C379.3 226.3 380.7 227 379.2 228.5C377.7 229.9 378.9 229.5 379.7 229.5C380.5 229.5 382.1 230.1 382.1 231.5C382.1 233 382.1 233.3 384.5 232C386.9 230.6 391.7 230.8 391.7 232.6C391.6 234.6 391 235.1 393.7 233.4C396.2 231.8 397.3 234.9 399.1 233.4C400.8 231.9 402 230.4 404.1 233C406.1 235.6 405.4 236.3 402.9 238.2C400.5 240 404.2 238.6 406 237.6C407.8 236.6 413.2 236 416.3 237.4C419.3 238.7 420.2 238.4 422.3 237.4C424.7 236.6 425.8 236.4 429.2 238.6C431.45 240.288 434.187 241.2 437 241.2C437 241.2 433.3 242.7 429 242.9C424.8 243.3 422.6 243.9 421.8 244.6C421.8 244.6 424.3 246.3 424.8 248.1C424.8 248.1 427.6 247.7 428.9 248.2C428.9 248.2 428.3 250.2 429.9 251.3C431.7 252.4 432.9 252.8 431.6 254.3C430.3 255.8 433.6 255.1 431.7 257.1C429.9 259.3 429.4 260.2 429.3 262C429.3 263.6 429.7 263.8 428.1 264C426.5 264.2 428.4 266 427.6 268.3C426.9 270.3 422.3 270.1 422.5 276C422.5 276 423.8 273.2 426.5 270.6C429.2 268.2 429.3 267.9 429.2 266.4C429.2 264.9 429.1 265.2 430.6 264.1C431.9 262.9 429.9 261.9 431.4 260.2C432.8 258.6 431.5 258.9 433.3 257.3C434.9 255.7 431.7 255.5 433.5 253.8C435.1 252.2 429.2 250.1 431 249.1C432.7 248 435.6 246.4 425.7 246.6C425.7 246.6 428.1 242.6 436.4 243.5C436.4 243.5 434.4 245.1 434.1 246.6L435.7 247.3C435.7 247.3 435.3 248.4 433.7 249.7C433.7 249.7 438.2 252.2 438.9 253.7C438.9 253.7 436.2 254.5 435.5 255.7C435.5 255.7 436.7 257.1 437.1 258.7C437.1 258.7 434.1 258.4 433.7 260.7C433.3 262.9 432.4 261.4 432.4 262.7C432.4 264 432.4 264.6 431.4 264.8C430.4 265 431.2 266.1 431.4 266.8C431.5 267.6 431.9 269.3 431.8 269.8C431.8 269.8 430.2 269.8 429.5 270C429.5 270 430 273.3 428.2 273.7C426.4 274.2 429.2 274.9 427.2 275.2C425.3 275.5 425.6 275.7 423.2 279.9C423.2 279.9 425.2 278.8 427.2 277.4C429.4 276 427.2 276.4 430.6 273.1C434 269.6 433.4 269.4 433.1 267.7C432.8 266 432.8 264.6 434 262.9C435.3 261.3 435.6 259.4 440.1 259.7C440.1 259.7 438.8 256.7 437.1 256C437.1 256 439.3 254.5 441.5 254.4C441.5 254.4 439.5 251.9 435.5 249.7C435.5 249.7 438.8 246.8 439.6 245.5C439.6 245.5 438.1 245.8 436.8 245.5C436.8 245.5 437.4 244.2 440.4 242.2C440.4 242.2 442.1 243.7 441.9 245.3C441.9 245.3 447.1 242.4 449.9 242.8C449.9 242.8 451.4 246.4 444.3 253.3C444.3 253.3 448.7 253.7 450.6 253.5C450.6 253.5 449.6 256.8 444.2 258.8C438.9 260.8 445.3 263.2 439.9 262.8C434.5 262.4 436.1 264.2 436.3 266.9C436.4 269.7 436.6 272.6 436.5 273.3C436.5 273.3 432.2 271.9 432.3 276.1C432.3 280.3 430 281.2 429.6 281.6C429.6 281.6 428.3 280.6 426.4 279.8C426.4 279.8 423.7 284.9 419.4 287.9V288Z" fill="#5A3719"/>
<path d="M413.2 235.2C413.2 235.2 414.6 235 417.2 236.6C419.6 238.2 422.1 234.9 419.4 234.1C416.5 233.3 419.4 232.2 421.8 234.3C424.4 236.3 425.4 235.3 426.3 234.6C427.3 233.9 428.3 233.4 426.6 232.3C424.9 231.1 427.8 231.7 429.1 232.6C430.4 233.4 429.9 234.2 429.7 234.4C429.5 234.7 429.4 237.4 431.9 234.9C434.5 232.3 435.8 229.8 435.7 228.5C435.7 228.5 437.1 229.4 437.3 231C437.5 232.6 439.5 230.2 440.1 229.3C440.8 228.5 441.8 226.2 441.7 224.5C441.7 224.5 443.4 227.2 446 224.5C448.5 221.9 447.5 223.5 450.5 222.7C453.963 221.763 457.086 219.855 459.5 217.2C461.6 214.6 461.8 216.4 464.5 215.7C467.2 215 472.6 211.3 473.1 209.2C473.6 207.2 473.5 205.9 472.8 206.7C472 207.3 472.3 206.7 471.2 206.1C469.9 205.3 468.2 207 468.2 207C468.2 207 469.9 208.3 468.6 208.9C467.3 209.4 466.2 211.3 463.6 210.5C461.2 209.8 458.6 212.9 458.6 212.9C458.6 212.9 460.8 214.6 457.8 215.7C455 216.9 455.4 217.2 453.7 216C453.7 216 450.6 219.9 448.7 220.7C448.7 220.7 448 220.7 447.5 219.9C447.5 219.9 445.5 222.2 444.5 222.6C444.5 222.6 443.1 221.4 442 221C442 221 439.5 224 437.5 225C437.5 225 436.9 223.8 435.6 223C435.6 223 435 227 430.7 229.3C430.7 229.3 431 228.3 428.8 226.8C428.8 226.8 423.5 231.4 421.5 231.9C419.4 232.3 421.2 230.9 421.5 230.3C421.8 229.7 423.1 227.8 420.5 227C417.9 226.2 418.5 227.6 417.9 227.8C417.3 228.1 417.3 227.3 415.5 227.6C413.9 227.8 414.1 228.6 413.4 228.9C412.6 229.1 409.6 228.4 409.8 230.3C410 232.3 411.4 233.7 408.8 234.8C406.1 236 409.8 235.8 413.2 235.2Z" fill="#7B3C20"/>
<path d="M423.9 229.7C423.9 229.7 424.5 227.1 422.3 225.9C422.3 225.9 436.3 223.7 425.7 218.3C425.7 218.3 438.4 215.8 435.4 211.8C432.4 207.8 429.4 208.5 429.1 208.7C428.7 208.7 431.8 206.3 432.6 206.7C433.4 207 443.6 210.8 440.9 207.5C438.4 204.2 438.6 204.4 438.2 203.4C438.2 203.4 441.5 203.4 446.6 208.3C446.6 208.3 447.6 207.3 447.6 205.2C447.6 205.2 451.1 206.2 452.3 207.3C452.3 207.3 452.9 206.1 452.6 205.3C452.6 205.3 455.8 207 456.9 208.8C456.9 208.8 458.3 207.6 458.5 206.1C458.5 206.1 461.6 207.4 462.5 208.4C462.5 208.4 463.5 207 463.1 205.1C463.1 205.1 468.2 206.6 469 203.5C469 203.5 474.1 204.5 470.8 206.5C466.4 209.2 470.3 205.9 465.8 209C462.4 211.5 460.5 214.3 458.8 213.7C457.6 213.2 456.1 216.7 454.5 215.1C452.9 213.3 452.9 214.1 451.6 215.9C450.715 217.222 449.711 218.461 448.6 219.6C448.6 219.6 447.8 219.1 447 218.3C447 218.3 446 220 444.8 221.3C444.8 221.3 443.8 219.9 442.1 219.1C442.1 219.1 439.5 222.1 438 223.1C438 223.1 436.4 221.6 434.9 221.1C434.9 221.1 434.6 225.1 431.5 227.1C431.5 227.1 430.9 225.9 428.8 225.1C428.8 225.1 427.3 227.5 423.9 229.6V229.7Z" fill="#5A3719"/>
<path d="M416.5 223.5C416.5 223.5 414.8 224.8 415.9 226.2C417 227.6 417.1 225.9 418.5 225.9C419.9 225.7 437.1 222.7 421.5 218.1C421.5 218.1 422.1 217.4 424.8 217.3C427.5 216.9 437.3 214.3 432.8 210.8C428.2 207.4 424.3 212 428.2 207.8C431.2 204.5 428.8 202.9 428.8 202.9L417.8 210.1C415.8 211.1 412.8 213.4 416.3 214.4C419.7 215.4 422 210.7 422.3 211.8C422.6 212.8 415.4 216.8 416.5 218.7C417.5 220.5 417.3 222.1 419 221.7C420.8 221.4 425.6 222.6 421.7 222.5C417.8 222.3 416.5 223.5 416.5 223.5Z" fill="#5A3719"/>
<path d="M422.7 214.8C422.7 214.8 421.1 216 423.2 215.4C425.3 214.8 429.5 213.9 428.8 212.9C427.9 211.7 425.2 213 422.8 214.9L422.7 214.8Z" fill="black"/>
<path d="M450.4 196.9C450.4 196.9 458.4 196.6 461.7 198.9C465 201.1 466.6 202.6 467.6 202.9C467.6 202.9 467.4 205.9 462.3 203.7C462.3 203.7 462.6 205.2 462 206.7C462 206.7 460.1 205.3 458 204.9C458 204.9 457.5 206 456.9 206.7C456.9 206.7 454.6 204.4 451.9 203.7L451.1 205.3C451.1 205.3 448.3 203.6 446.1 203.6C446.1 203.6 446.6 205.3 446.1 206.1C446.1 206.1 440.4 201.4 435.2 202C435.2 202 437.7 205.7 439.3 207.5C439.3 207.5 428.8 206.7 430.6 201C432.3 195.4 430.5 196.8 437.3 196.9H450.4Z" fill="#7B3C20"/>
<path d="M401.3 212.5C401.3 212.5 400.1 213.5 401.3 214.3C402.5 215.1 406.6 212.1 407.2 211.7C407.8 211.2 409.2 211.3 407.2 212.9C405.2 214.5 403.2 216.1 401.7 217.8C401.7 217.8 408.7 215.8 413.2 212C417.7 208 413 210.6 420.7 206.9C428.4 203.1 432.4 197.2 428.3 197.9C424.2 198.5 420.4 203.2 417.2 205C414 206.8 412.2 207 412.7 206C413.2 205 415.5 205.3 420 201.8C424.4 198.2 423.4 198.6 423.4 197.3C423.4 196 421.8 192.9 428.4 189.4C435.1 185.9 455.8 173.9 457.6 169.6C457.6 169.6 451.6 170.3 443.6 176.2C439.18 179.88 434.348 183.035 429.2 185.6C427 186.4 427.2 185.8 425.9 187.6C422.443 191.213 418.84 194.682 415.1 198C413.7 199 413.2 199.8 413.1 202C413.1 203.1 404.1 210 401.4 212.5H401.3Z" fill="#5A3719"/>
<path d="M428.7 196.7C428.7 196.7 427 197.3 425.6 196.7C424.1 195.9 424.6 192.7 428.2 190.8C432.417 188.504 436.924 186.789 441.6 185.7C441.6 185.7 441.1 189.7 430.8 193.3C430.8 193.3 431.5 195.3 428.7 196.7Z" fill="#5A3719"/>
<path d="M432.3 194C432.3 194 432.6 195 432.3 195.9C432.3 195.9 451.3 197.7 461.3 186.1C461.3 186.1 447.7 187.4 442.3 190.6C442.3 190.6 445.8 186.4 455.9 182.9C466 179.4 470.2 174.9 471.1 172.6C471.1 172.6 458.1 177.1 452.1 177.1C452.1 177.1 450.9 177.1 449.7 177.7C448.5 178.4 440.4 184.3 438.2 185.3C438.2 185.3 442.8 184.9 444.4 183.5C444.4 183.5 441.2 192 432.3 194Z" fill="#AA5323"/>
<path d="M395.7 204.9C395.7 204.9 393.2 206.7 394.2 207.5C395.2 208.4 397 208.5 400.7 205.5C404.5 202.2 413.6 194.5 407.8 194.2C407.8 194.2 400.5 193.7 400.8 198.2C401 202.7 396 204.6 395.7 204.9ZM378.7 202.2C378.7 202.2 383.6 205.1 381.7 207.4C381.7 207.4 396.6 194.8 392.3 192C388.3 189.3 385 194.5 386 195C387 195.5 389.1 194.6 388.4 195.5C385.331 197.962 382.089 200.201 378.7 202.2ZM374.8 198.2C374.8 198.2 378.1 199.2 378.3 200.6C378.3 201.9 388.1 193.7 385.5 190.2C384.3 188.7 379 188 378.7 191.2C378.4 194.2 383.6 190.8 381.7 193C379.5 196 375.6 197.7 374.8 198.2ZM409.6 191.3C409.6 191.3 407.6 192.8 409.5 193.7C411.4 194.6 412.5 193.2 413.5 192.4C414.4 191.5 419 188.1 420 186C421.2 183.8 422.7 183.1 424.4 182C426.1 181 437.9 175 445.2 168.5C452.5 162 449.4 163.7 456.9 159.5C464.4 155.3 469.4 151.5 471 146.9C471 146.9 467.5 148.1 464.5 150.1C461.4 152.1 454.5 156.4 453 157.1C451.6 157.6 449.8 157.7 448.7 158.8C447.7 159.9 447.7 161.2 444.1 164.2C440.4 167.2 421.7 180.4 419.4 182.3C416.078 185.239 412.811 188.239 409.6 191.3Z" fill="#5A3719"/>
<path d="M394.6 195.7C394.6 195.7 396.6 194.6 400.5 194.9C404.3 195.1 419.5 180.3 423.9 177.4C430.732 172.729 437.402 167.826 443.9 162.7C445.9 160.8 446.2 158.9 447.8 157.8C449.4 156.8 450.9 156.9 454.6 154.8C458.3 152.7 476.2 142 475.2 135.8C475.2 135.8 448.5 151.7 442.4 156.9C433.892 163.553 425.118 169.858 416.1 175.8C413.1 177.8 410.7 181 405.6 185.2C400.5 189.2 395.4 192.8 394.6 195.7Z" fill="#AA5323"/>
<path d="M389 190C389 190 393.9 189.5 394.6 192C394.6 192 405.1 184.7 407.6 181.7C410 178.7 406.7 180.4 412.7 176.5C422.521 169.97 432.158 163.168 441.6 156.1C444.4 153.6 449.9 150.3 454.2 147.3C458.6 144.4 475.5 136.1 473.6 129.3L458.4 139.4C455.6 141.3 454.4 140.2 451.6 142.4C448.6 144.7 442.4 149.1 441.3 150.6C436.425 154.817 431.317 158.756 426 162.4C421.3 165.4 411 171.5 405.9 175.9C400.314 180.663 394.646 185.331 388.9 189.9L389 190Z" fill="#AA5323"/>
<path d="M373.7 188.6C373.7 188.6 376.1 188.6 377 189.6C377 189.6 381.5 185.5 386.4 189.6C386.4 189.6 404.4 177.3 406.2 174.3C408 171.3 411 171.2 417.9 166.1C424.9 161 429.3 158.8 433.9 155.3C438.6 151.6 442.6 147.5 445.9 145.3C449.2 143.2 457.7 137.6 456.3 132.9C456.3 132.9 449.4 136.7 445 141.6C440.5 146.6 441 142.4 436.4 146.4C431.135 151.293 425.292 155.525 419 159C413.2 161.9 416.7 161.6 412.4 164.3C408.3 167 408.6 166.6 407 167C404.918 167.497 403.036 168.613 401.6 170.2C398.445 172.891 394.989 175.206 391.3 177.1C385.052 180.407 379.126 184.291 373.6 188.7L373.7 188.6Z" fill="#AA5323"/>
<path d="M379 179.3C379 179.3 378.1 177.3 379.8 175.8C381.5 174.4 384.8 170.6 385.2 168.3C385.7 165.8 385.3 166.3 390.2 164.2C404.651 158.152 418.344 150.433 431 141.2C433 139.6 438 136.2 439.9 134.6C439.9 134.6 440.8 137.2 438.6 139.1C431.25 144.814 423.57 150.09 415.6 154.9C413.3 156.2 407.6 159.1 405.5 160.9C403.5 162.5 403.8 163 394.6 167.5C385.5 171.9 385.1 172.5 385.3 172.8C385.6 173.2 389.7 171.4 391.7 170.2C393.7 169.1 401.1 165.6 403.4 163.8C405.6 162 409.4 159.3 411 158.4C412.6 157.6 426 149.4 430 146.5C433.8 143.7 434.9 142.8 435.7 143.3C436.5 143.7 437.9 143.7 436.2 145.3C434.5 146.9 429 151.9 426.9 153.3C424.8 154.6 418.2 158.5 416.4 159.4C414.6 160.4 413.9 162.1 412.8 162.9C411.8 163.7 408.8 165.7 405.2 166.5C401.6 167.3 401 170.1 398.6 171.7C396.2 173.2 379.3 182.3 378.8 182.7C378.8 182.7 379.8 181.7 379.1 179.3H379Z" fill="#AA5323"/>
<path d="M437.5 141.3C437.5 141.3 436.6 142.1 437.1 142.6C437.7 143.3 440.1 144.9 443.1 142C447.287 138.066 451.767 134.456 456.5 131.2C458.9 129.7 460.2 128.3 460.1 126.2C460.1 126.2 448 132.7 437.5 141.3ZM454.2 140.3C454.2 140.3 456 137.1 460.6 134.2C465.2 131.2 472.1 127 472.9 126C472.9 126 474.5 127.8 471 130.1C467.149 132.522 463.348 135.022 459.6 137.6C457.993 138.821 456.157 139.705 454.2 140.2V140.3Z" fill="#AA5323"/>
<path d="M361.4 174C361.4 174 356.4 176.7 358.2 178.4C360 180 362.7 179.5 363.9 179C364.9 178.6 367.1 178 367.4 178C367.7 177.9 372.1 176.6 373.3 174.5C374.3 172.5 377.3 170.1 379.7 168.5C382.1 166.8 383 165 382.6 163.8C382.6 163.8 362.6 173.2 361.4 174ZM331.2 197.4C331.2 197.4 334.8 195.3 339.7 196.6C339.7 196.6 339.5 195.5 338.7 194.8C338.7 194.8 344.7 193.3 346 190.6C347.3 187.9 347.6 188.6 348.7 187.8C349.9 187 357.9 180.5 357 179.1C356 177.7 355.9 175.9 355.2 175.2C355.2 175.2 353.6 177.5 345.7 181.2C337.9 185.1 329.2 187.9 322.8 196.4C316.5 205 317.2 209.9 324.9 212.1C324.9 212.1 330.3 208.7 343.6 209.8C356.9 211.1 361.4 216 362.3 216.9C363.1 217.9 365.8 221.1 363.2 226.7C363.2 226.7 365.9 227.8 366 225.3C366.3 222.7 366.4 223.3 367 223.6C367.7 224.1 368.4 224.1 368 222.2C367.8 220.2 367 215.9 365.6 214.4C364.5 212.9 365.9 213.6 366.6 213.8C367.4 214.2 370.2 216.5 368.6 212.2C366.9 208.2 366.4 210.2 366.3 210.3C366.3 210.6 366 211.6 362.3 208.9C359.491 206.731 356.304 205.103 352.9 204.1C350.5 203.5 352.2 203.5 353.7 203C355.2 202.4 357 202.2 357.7 200.5C357.7 200.5 356.3 200.9 353.7 199.9C351.619 199.289 349.425 199.17 347.291 199.552C345.156 199.933 343.14 200.806 341.4 202.1C341.4 202.1 342.7 197.1 338.8 197.4C334.8 197.7 332.2 197.6 328 200.9C328 200.9 327.8 195.9 331.7 193.3C335.7 190.7 335.1 192.3 337.3 191.6C339.5 191 339.7 188.8 338.7 188C338.7 188 343.9 189 352.5 181.8C352.5 181.8 347.8 187.8 342.2 189.1C342.2 189.1 341.3 192.4 336.2 193.1C331.2 193.7 331.3 196.7 331.3 197.4H331.2Z" fill="#7B3C20"/>
<path d="M316.6 227C316.6 227 319 211.9 333.2 210.8C345.4 209.8 349.4 211.4 351.8 212.2C354.2 213 360.3 214.7 357.9 216.7C355.6 218.6 354.3 218.3 354.3 218.3C354.3 218.3 356.9 215.3 354.5 214.7C352 214.3 351.9 215.7 351.5 216.9C351.1 218.3 351.1 219.7 349.8 220.7C349.8 220.7 348.6 219.3 346.8 220.5C345 221.7 346.6 221.8 347.3 221.6C348 221.4 348.9 221 348.7 222.2C348.5 223.2 347.6 225.2 344.7 226.7C341.7 228.1 341.8 228.1 338.4 228.7C334.9 229.2 331.7 230.6 327.3 234.3C322.8 238.2 318 236.9 317 232.7C316.2 229 316.6 227 316.6 227Z" fill="#5A3719"/>
<path d="M332.7 226.4C332.7 226.4 334 223.4 331.7 222.1C331.7 222.1 324.3 223.4 322 221.2C322 221.2 330 220.7 335 218.7C340 216.9 338.6 215.5 336.9 215.1C335.1 214.8 331.9 215.6 331.6 217.1C331.6 217.1 330.6 215.6 331.9 214.4C333.2 213.3 335.1 213.1 336.9 213.6C338.7 214.1 340.2 214.9 346 211.9C346 211.9 349.4 212.7 349.5 214.9C349.5 217.2 349.3 218.1 348.9 218.4C348.7 218.8 348.3 219.4 347.6 219.4C346.9 219.4 345.9 219.2 345.1 220.7C344.3 222.3 343.7 223.7 342.2 224.7C342.2 224.7 343.9 219.8 339.6 218.7C339.6 218.7 336.1 220.7 333.4 220.9C333.4 220.9 336.9 224.1 332.6 226.4H332.7Z" fill="black"/>
<path d="M340.4 217.4C340.4 217.4 338.8 215.7 340.9 215.4C343.1 215.4 345.9 216.9 345.3 218.3C344.8 219.6 342.3 219.5 340.4 217.4Z" fill="#5A3719"/>
<path d="M461.4 193.7C461.4 193.7 457.4 194.8 461.1 197.3C464.7 199.7 466.5 201.8 469.1 202.4C471.8 203.1 474.5 204 474.5 206.7C474.5 209.3 473.9 210.4 472.5 212.2C471 214.1 473.3 214.8 475.2 213.8L480 211.5C481.2 210.7 483.3 210.8 481.5 211.8C479.5 212.8 477.5 213.4 480 213.4C482.4 213.5 497.3 213.8 500.4 212.8C503.5 211.8 507.6 211.5 507.9 207.5C507.9 207.5 508.1 205.7 509.2 204.9C510.4 204.1 511.2 202.4 509.5 203.5C507.8 204.8 506.5 205.3 506.2 205C505.9 204.6 505.7 204.4 507 203.8C508.2 203.2 508.9 203.8 510 202.2C511.2 200.4 511.1 200.7 510.5 200C509.9 199.4 508.5 199 509.2 198.2C509.9 197.3 510.5 194.9 507.8 196.2C505.1 197.7 499.7 201.4 497.1 202C494.7 202.6 492.8 203.3 489.5 204C486.337 204.642 483.297 205.79 480.5 207.4C476.9 209.4 477.2 206.2 477.8 205.8C477.8 205.8 479.2 208.3 482.8 205.1C486.4 202 485.2 204.9 494.1 202C502.9 199.1 500.8 198.6 504.2 196.9C507.8 195.1 511 194.9 508.6 192.5C506.1 190.1 505.9 189.9 502.8 192.5C497.817 196.234 491.968 198.642 485.8 199.5C485.8 199.5 505.8 190.9 503.8 189.7C502.039 188.532 500.119 187.623 498.1 187C496.7 186.6 496.3 186.3 493.1 187.8C489.9 189.2 489.4 189.5 488.5 189.6C487.5 189.6 484.8 190.2 481 192.2C477.2 194.2 475.2 195 472.5 196.5C472.5 196.5 474.3 192.9 482.3 190.5C490.1 188.2 494.1 186.1 493.3 185.7C492.5 185.3 490.4 184.8 489 185.2C487.5 185.4 488 185 483 187C478.3 188.8 480.3 188.4 476.5 189.3C472.5 190.1 471 190.9 469.1 191.7C469.1 191.7 469.9 190.7 472.5 189.7C473.9 189.3 471 188.7 474.8 188.6H475.8C479.014 187.913 482.112 186.768 485 185.2C484.2 185 479.6 184.5 474.8 186.8C470.1 188.9 472.2 188.2 470.6 188.4C469 188.8 465.4 191 464.2 192C463 193 461.4 193.7 461.4 193.7Z" fill="white"/>
<path d="M344.1 215.3C344.1 215.3 346 215.9 346.5 217.2C347 218.5 348.1 216.6 348.1 216C348.1 215.5 346.9 212.8 344.9 214C342.9 215.2 343.9 215.2 344.1 215.3Z" fill="#5A3719"/>
<path d="M339 241.1C339 241.1 342.9 239.3 346.3 239.5C346.3 239.5 344.9 234.8 347.3 235.5C349.6 236.4 348.9 236.1 349.4 236.1C349.4 236.1 349.6 233 348.9 231.7C348.9 231.7 351.4 232.3 353.8 232.3C353.8 232.3 351.5 227.9 354 224.8C354.461 225.689 355.097 226.475 355.871 227.111C356.644 227.747 357.539 228.22 358.5 228.5V225.9C358.5 225.9 360.3 225.7 361.8 226.4C363.2 227.2 364.4 218.4 360.1 216.4C360.1 216.4 359.1 218.1 355.1 218.9C351.1 219.7 351.1 220.5 349.5 223.6C347.9 226.7 346.5 226.6 343 228.8C340.603 230.63 338.711 233.038 337.5 235.8C337.5 235.8 339.2 237.8 339 241.1Z" fill="#7B3C20"/>
<path d="M472.5 189.7C473.9 189.5 471 188.7 474.8 188.6H475.8C479.014 187.913 482.112 186.768 485 185.2C484.2 185 479.6 184.5 474.8 186.7C470 188.9 472.2 188.2 470.6 188.5C468.287 189.302 466.124 190.485 464.2 192C463 193 461.4 193.7 461.4 193.7C461.4 193.7 457.4 194.8 461.1 197.3C464.7 199.7 466.5 201.8 469.1 202.4C471.8 203.1 474.5 204 474.5 206.7C474.558 207.705 474.411 208.71 474.067 209.656C473.723 210.602 473.19 211.467 472.5 212.2C471 214.1 473.3 214.8 475.2 213.8L480 211.5C481.2 210.7 483.3 210.8 481.4 211.8C479.4 212.8 477.5 213.4 480 213.4C482.4 213.5 497.3 213.8 500.4 212.8C503.5 211.8 507.6 211.5 507.9 207.5C507.9 207.5 508.1 205.7 509.2 204.9C510.4 204.1 511.2 202.4 509.5 203.5C507.8 204.8 506.5 205.3 506.2 205C505.9 204.6 505.7 204.4 507 203.8C508.2 203.2 508.9 203.8 510 202.2C511.2 200.4 511.1 200.7 510.5 200C510.1 199.7 509.6 199.5 509.4 199.1C509.4 199.1 508.4 198.3 507.4 199C505.071 200.262 502.581 201.204 500 201.8C498.2 202 496.2 202.8 493 204.4C489.8 206 484.2 209.4 483.3 206.2L480.5 207.4C476.8 209.3 477.1 206.6 477.8 205.8C477.8 205.8 475.8 208 475.9 206.1C475.9 204.1 477.2 204.4 479.4 203.8C481.5 203.1 484.9 201.8 483.5 200.6C482.1 199.5 480.6 201.8 479.1 202.5C477.5 203.2 474.4 203.8 473.9 201.5C473.4 199.3 473.4 197.7 469.3 197.5C465.1 197.3 465.2 194.6 466.3 193.5C467.6 192.4 468.5 190.5 472.5 189.7Z" fill="#999999"/>
<path d="M485.9 210C485.9 210 492.4 207.1 498.4 205.7C504.4 204.3 499.7 205.9 498.7 206.2C497.7 206.5 488.3 209.6 486.1 210.7C483.9 211.7 484.3 210.8 485.9 210.2V210ZM487.3 211.5C487.3 211.5 494.7 209 496.1 210C497.5 211 496.3 210.6 494.7 210.8C493.1 211 488.7 211.8 487.5 211.8C486.3 211.8 487.3 211.5 487.3 211.5ZM499.2 208.9C499.2 208.9 500.6 208.6 500.7 209.2C500.8 209.7 500.1 209.8 499.3 209.7C498.5 209.5 497.9 209.1 499.2 208.9Z" fill="black"/>
<path d="M305 273C305 273 304.7 266.5 308 263.2C311.3 259.9 327 243.5 329.4 238.9C329.4 238.9 331.4 240.3 331.5 242.9C331.5 242.9 334.2 238.4 336.3 236.6C336.3 236.6 338.2 238.6 337.9 242.4C337.9 242.4 341.7 240.4 347.6 240.4C347.6 240.4 345.3 242.8 345.3 244.4C345.3 244.4 353.4 243.4 357.8 244.2C357.8 244.2 346.5 250.4 349.6 251C352.9 251.6 356.1 251 356.1 251C356.1 251 352.5 254.6 346.8 255.3C346.8 255.3 354.1 255.3 355.6 256.9C355.6 256.9 348.5 257.9 342.8 262.3C342.8 262.3 342.2 262 342.2 260.4C342.2 260.4 342 261.9 340.4 263.3C338.7 264.6 334.9 267.5 333.4 269C332 270.4 329.4 273.3 326.4 273.2C326.4 273.2 327 270.9 324.9 270.2C323.807 269.833 322.632 269.789 321.514 270.073C320.397 270.357 319.385 270.956 318.6 271.8C318.6 271.8 311 272 308.5 272.3C308.5 272.3 310.2 269.6 311.8 269.6C313.4 269.6 319.8 270.6 320.4 266.2C320.9 261.9 316.3 263 318 260.5C319.8 257.9 319.4 258 319.5 257.7C319.5 257.7 318 258.5 317.2 260.8C316.502 263.397 314.908 265.664 312.7 267.2C310.575 268.535 308.794 270.35 307.5 272.5C307.5 272.5 306.1 272.7 304.9 273H305Z" fill="white"/>
<path d="M312.3 269C312.3 269 312.5 268.3 314.7 267.8C317 267.4 317.2 266.4 316.8 265.8C316.5 265.5 315.2 265.5 317.3 262.9C317.3 262.9 318.1 263.2 318.6 263.8C319.2 264.4 321.6 269.6 312.3 269.1V269Z" fill="white"/>
<path d="M307 264.5C307 268.8 312.7 267.2 312.7 267.2C311.189 268.264 309.812 269.506 308.6 270.9C309 268.9 305.4 268.3 305.4 268.3C305.728 266.956 306.268 265.674 307 264.5ZM327.6 241.5L329.4 238.9C329.4 238.9 331.4 240.3 331.5 242.9C331.5 242.9 334.2 238.4 336.3 236.6C336.3 236.6 338.2 238.6 337.9 242.4C337.9 242.4 341.7 240.4 347.6 240.4C347.6 240.4 345.3 242.8 345.3 244.4C345.3 244.4 353.4 243.4 357.8 244.2C357.8 244.2 346.5 250.4 349.6 251C352.9 251.6 356.1 251 356.1 251C356.1 251 352.5 254.6 346.8 255.3C346.8 255.3 354.1 255.3 355.6 256.9C355.6 256.9 353.4 257.2 350.6 258.2C350.6 258.2 348.6 256.2 342.5 256.6C342.5 256.6 347.2 253.9 351 253C351 253 349.4 250.9 346.7 252.8C346.7 252.8 341.6 249.3 345.9 246.3C345.9 246.3 342.9 245.7 340.9 247.1C340.9 247.1 340.9 244.6 343.1 243.6C343.1 243.6 337.4 242.6 336.1 246.8C336.1 246.8 334.9 245.1 335.5 243.2C335.5 243.2 332 245.2 330.4 247.4C330.4 247.4 329.8 243.1 327.6 241.5ZM316.6 268.8C315.6 269.1 314.1 269.2 312.3 269.1C312.3 269.1 312.4 268.5 313.7 268.1C313.7 268.1 314 268.8 316.5 268.8" fill="#999999"/>
<path d="M327 252.6C327 252.6 329.6 254.6 330.5 255.8C330.5 255.8 332.9 254.2 333.7 252.8C333.7 252.8 335.7 254 336.2 255.8C336.2 255.8 337.6 255 337.8 253.8C337.8 253.8 341.1 254.4 342.2 255.4C342.2 255.4 342.7 252.4 342.2 250.3C342.2 250.3 344.5 250.5 345.9 251.1C345.9 251.1 344.6 249 351.2 246.3C351.2 246.3 346.2 247.4 344.2 249.5C344.2 249.5 342.2 249.7 341.2 249.1V253.8C341.2 253.8 340 253.2 337.5 252.6C337.5 252.6 336.9 253.7 336.5 254C336.5 254 334.8 252.6 334.2 251.1C334.2 251.1 331.7 253.3 330.9 254.2C330.9 254.2 328.5 252.6 326.9 252.6H327Z" fill="black"/>
<path d="M312 285.2C312 285.2 313 285.7 315.4 283.7C317.8 281.7 324.7 277.4 325.3 273.9C326 270.4 323.1 270.2 320.9 271.2C318.6 272.2 319.6 274.2 319.7 274.8C319.7 275.4 319.9 277.8 316.2 281.2L311.9 285.2H312Z" fill="#FFC221"/>
<path d="M311.2 286.2C311.2 286.2 305.7 283.9 310.6 281.5C315.5 279.1 317.7 278.4 318.3 276.3C318.9 274.3 318.6 274.6 316.7 275.4C314.9 276.3 307.9 279.5 306.9 276.5C306.9 276.5 309.7 277.6 313.3 275.9C316.9 274.1 319.9 273.6 317.6 272.9C315.3 272.2 307 273.1 305.7 273.5C304.3 273.9 304.7 273.8 304.4 275.1C304.2 276.5 302.7 279.4 302.1 280.1C301.6 281 300.1 284.5 302.7 286.1C304.004 286.799 305.458 287.173 306.938 287.191C308.417 287.208 309.88 286.868 311.2 286.2Z" fill="#FFC221"/>
<path d="M309 274.3C309 274.3 307.8 274.5 308 275C308.3 275.4 308.6 275.4 309 275.4C309.5 275.4 310.2 275.1 310.3 274.9C310.3 274.5 309.5 274.1 309.1 274.3H309Z" fill="black"/>
<path d="M310.8 285C310.8 285 308.3 283.8 311.2 282.2C314.2 280.6 317.2 279 317.7 278.4C317.7 278.4 316.3 280.4 310.9 285H310.8Z" fill="white"/>
</g>
<defs>
<clipPath id="clip0_2_382">
<rect width="512" height="512" fill="white"/>
</clipPath>
</defs>
</svg>
