<svg width="512" height="512" viewBox="0 0 512 512" fill="none" xmlns="http://www.w3.org/2000/svg">
<g clip-path="url(#clip0_2_570)">
<mask id="mask0_2_570" style="mask-type:luminance" maskUnits="userSpaceOnUse" x="0" y="0" width="512" height="512">
<path d="M0 0H512V512H0V0Z" fill="white"/>
</mask>
<g mask="url(#mask0_2_570)">
<path d="M0 0V512H768V0H0Z" fill="#3399CC"/>
<path d="M0 341.3V369.8H768V341.3H0ZM0 398.3V426.7H768V398.2H0V398.3Z" fill="#FFFF00"/>
<path d="M122 28L124.4 30.5L122.1 28.1L122 28ZM124.4 32.8L126.8 35.2L124.5 32.8H124.4Z" fill="#99CCCC"/>
<path d="M124.4 35.2L126.8 37.5999L124.5 35.2H124.4Z" fill="#CCCCFF"/>
<path d="M122 40L124.4 42.3L122.1 40H122Z" fill="#CC6666"/>
<path d="M124.4 44.7L126.8 47.0999L124.5 44.7H124.4Z" fill="#FFCCCC"/>
<path d="M115 47.1001L117.3 49.5001L114.9 47.1001H115Z" fill="#66CCCC"/>
<path d="M121.7 32.8999L105 96.1999L41.5 113.4L104.8 129.9L121.7 193.2L138.6 129.9L201.8 113L138.5 96.1999L121.7 32.8999Z" fill="#CC0000" stroke="white" stroke-width="3"/>
<path d="M115 49.5L117.3 51.9L114.9 49.5" fill="#99CCFF"/>
<path d="M115 59L117.3 61.4L114.9 59" fill="#FFCCCC"/>
<path d="M107.8 70.9999L110.2 73.2999L107.8 70.8999V70.9999Z" fill="#99CCCC"/>
<path d="M136.3 70.9999L138.7 73.2999L136.4 70.8999L136.3 70.9999Z" fill="#99CCCC"/>
<path d="M105.4 78L107.8 80.4L105.4 78.1V78Z" fill="#99CCCC"/>
<path d="M138.7 78L141.1 80.4L138.7 78.1V78Z" fill="#99CCCC"/>
<path d="M95 100.3L96.7 101.1L95.1 100.3" fill="#CC3333"/>
<path d="M64.9999 104.2L67.2999 106.6L64.8999 104.2H64.9999Z" fill="#99CCFF"/>
<path d="M50.6001 109L53.0001 111.4L50.7001 109H50.6001Z" fill="#CCCCFF"/>
<path d="M50.6001 118.5L53.0001 121L50.7001 118.6L50.6001 118.5Z" fill="#CCCCFF"/>
<path d="M62.5 123.3L64.9 125.7L62.6 123.3H62.5Z" fill="#6699CC"/>
<path d="M64.9999 123.3L67.2999 125.7L64.8999 123.3H64.9999Z" fill="#99CCFF"/>
<path d="M80.7998 124L82.3998 124.9L80.7998 124.1" fill="#CC3333"/>
<path d="M95 128.8L96.7 129.6L95.1 128.8" fill="#CC3333"/>
<path d="M115 168.5L117.3 170.9L114.9 168.5" fill="#FFCCCC"/>
<path d="M115 178L117.3 180.4L114.9 178H115Z" fill="#99CCFF"/>
<path d="M115 180.4L117.3 182.8L114.9 180.4" fill="#66CCCC"/>
<path d="M124.4 182.8L126.8 185.2L124.5 182.8H124.4Z" fill="#FFCCCC"/>
<path d="M122 187.6L124.4 189.9L122.1 187.6H122Z" fill="#CC6666"/>
<path d="M124.4 192.3L126.8 194.7L124.5 192.3H124.4Z" fill="#CCCCFF"/>
<path d="M124.4 194.7L126.8 197.1L124.5 194.7" fill="#99CCCC"/>
</g>
</g>
<defs>
<clipPath id="clip0_2_570">
<rect width="512" height="512" fill="white"/>
</clipPath>
</defs>
</svg>
