<svg width="512" height="512" viewBox="0 0 512 512" fill="none" xmlns="http://www.w3.org/2000/svg">
<g clip-path="url(#clip0_2_772)">
<path d="M0 0H512V512H0V0Z" fill="#3F9C35"/>
<path d="M0 0H512V341.3H0V0Z" fill="#ED2939"/>
<path d="M0 0H512V170.7H0V0Z" fill="#00B9E4"/>
<path d="M238.8 332.8C281.215 332.8 315.6 298.415 315.6 256C315.6 213.584 281.215 179.2 238.8 179.2C196.385 179.2 162 213.584 162 256C162 298.415 196.385 332.8 238.8 332.8Z" fill="white"/>
<path d="M255.9 320C291.246 320 319.9 291.346 319.9 256C319.9 220.654 291.246 192 255.9 192C220.554 192 191.9 220.654 191.9 256C191.9 291.346 220.554 320 255.9 320Z" fill="#ED2939"/>
<path d="M324.2 213.3L332.3 236.3L354.3 225.8L343.9 247.8L366.9 256L343.9 264.2L354.3 286.2L332.3 275.7L324.2 298.7L316 275.7L294 286.2L304.5 264.2L281.5 256L304.5 247.8L294 225.8L316 236.3L324.2 213.3Z" fill="white"/>
</g>
<defs>
<clipPath id="clip0_2_772">
<rect width="512" height="512" fill="white"/>
</clipPath>
</defs>
</svg>
