<svg width="512" height="512" viewBox="0 0 512 512" fill="none" xmlns="http://www.w3.org/2000/svg">
<g clip-path="url(#clip0_2_764)">
<mask id="mask0_2_764" style="mask-type:luminance" maskUnits="userSpaceOnUse" x="0" y="0" width="512" height="512">
<path d="M0 0H512V512H0V0Z" fill="white"/>
</mask>
<g mask="url(#mask0_2_764)">
<path fill-rule="evenodd" clip-rule="evenodd" d="M0 0H512V512H0V0Z" fill="#000099"/>
<path fill-rule="evenodd" clip-rule="evenodd" d="M77 0L514 437V0H77Z" fill="#FFCC00"/>
<path fill-rule="evenodd" clip-rule="evenodd" d="M461.4 470.4L435.3 451.3L408.4 470.3L418.6 439.1L392.2 419.9H424.9L435.1 388.9L445.1 420L477.9 420.1L451.7 439.5L461.4 470.4ZM538.1 480.8H505.4L495.4 449.6L485.2 480.7H452.4L478.8 499.9L468.7 531.1L495.5 512.1L521.7 531.1L511.9 500.2L538.1 480.8ZM391.8 379.6L418 360.2H385.3L375.2 329L365 360H332.3L358.7 379.3L348.6 410.4L375.4 391.4L401.5 410.5L391.8 379.6ZM331.5 319.2L357.7 299.8L324.9 299.7L314.9 268.5L304.7 299.7L272 299.6L298.4 318.8L288.2 350L315.1 331L341.2 350.1L331.5 319.2ZM271.8 259.5L298 240.1H265.3L255.2 208.9L245 240H212.3L238.7 259.2L228.6 290.4L255.4 271.4L281.5 290.4L271.8 259.5ZM211.4 199.2L237.6 179.9L204.8 179.8L194.8 148.6L184.6 179.8L151.9 179.7L178.3 198.9L168.1 230.1L195 211.1L221.1 230.1L211.4 199.3V199.2ZM151.7 139.3L178 120L145.3 119.9L135.3 88.7L125 119.8H92.2001L118.6 139L108.5 170.2L135.3 151.2L161.4 170.2L151.7 139.3ZM91.7001 79.3L118 60L85.3001 59.8999L75.3001 28.7L65.0001 59.7999H32.2001L58.6001 79L48.5001 110.2L75.3001 91.2L101.5 110.2L91.7001 79.3ZM31.7001 19.2999L58.0001 -4.95911e-05L25.2001 -0.10005L15.2001 -31.3L4.8001 -0.20005H-27.8999L-1.3999 19L-11.4999 50.2L15.3001 31.2L41.4001 50.2L31.7001 19.2999Z" fill="white"/>
</g>
</g>
<defs>
<clipPath id="clip0_2_764">
<rect width="512" height="512" fill="white"/>
</clipPath>
</defs>
</svg>
