<svg width="512" height="512" viewBox="0 0 512 512" fill="none" xmlns="http://www.w3.org/2000/svg">
<g clip-path="url(#clip0_2_779)">
<path d="M0 -0.199951H512V512H0V-0.199951Z" fill="#00267F"/>
<path d="M170.7 -0.199951H341.3V512H170.7V-0.199951Z" fill="#FFC726"/>
<path d="M256 173.3C250.5 188.4 244.8 204.2 232.7 216.3C237.431 214.838 242.348 214.064 247.3 214V277.6L229.3 280.3C228.6 280.3 228.4 279.3 228.4 277.9C226.531 259.65 222.606 241.669 216.7 224.3C216.3 222 209.5 213 214.7 214.6C215.4 214.6 222.4 217.6 221.3 216.2C211.254 206.066 198.275 199.349 184.2 197C183 196.7 182.2 197.3 183.3 198.7C201.3 226.4 216.4 259.1 216.3 297.9C223.3 297.9 240.3 293.8 247.3 293.8V338.7H256.1L258.1 213.3L256 173.3Z" fill="#000001"/>
<path d="M256 173.3C261.5 188.4 267.2 204.2 279.3 216.3C274.569 214.838 269.652 214.064 264.7 214V277.6L282.7 280.3C283.4 280.3 283.6 279.3 283.6 277.9C285.469 259.65 289.394 241.669 295.3 224.3C295.7 222 302.5 213 297.3 214.6C296.6 214.6 289.6 217.6 290.7 216.2C300.746 206.066 313.725 199.349 327.8 197C329 196.7 329.8 197.3 328.7 198.7C310.7 226.4 295.6 259.1 295.7 297.9C288.7 297.9 271.7 293.8 264.7 293.8V338.7H255.9L253.9 213.3L256 173.3Z" fill="#000001"/>
</g>
<defs>
<clipPath id="clip0_2_779">
<rect width="512" height="512" fill="white"/>
</clipPath>
</defs>
</svg>
