<svg width="512" height="512" viewBox="0 0 512 512" fill="none" xmlns="http://www.w3.org/2000/svg">
<g clip-path="url(#clip0_2_805)">
<mask id="mask0_2_805" style="mask-type:luminance" maskUnits="userSpaceOnUse" x="-1" y="-1" width="513" height="513">
<path d="M-0.117432 -0.0390625H511.88V511.958H-0.117432V-0.0390625Z" fill="white"/>
</mask>
<g mask="url(#mask0_2_805)">
<path fill-rule="evenodd" clip-rule="evenodd" d="M-178 -0.0390625L250.908 255.96L-178 511.958V-0.0390625ZM679.523 -0.0390625L250.908 255.96L679.23 511.958L679.523 -0.0390625Z" fill="#18B637"/>
<path fill-rule="evenodd" clip-rule="evenodd" d="M-178 -0.0390625L250.908 255.96L679.23 -0.0390625H-178ZM-178 511.958L250.908 255.96L679.23 511.958H-178Z" fill="#CF0921"/>
<path fill-rule="evenodd" clip-rule="evenodd" d="M679.523 -0.0390625H599.651L-178 464.27V511.958H-98.1284L679.523 47.6498V-0.0390625Z" fill="white"/>
<path fill-rule="evenodd" clip-rule="evenodd" d="M398.948 255.96C398.948 295.222 383.351 332.877 355.588 360.64C327.825 388.403 290.17 404 250.908 404C211.645 404 173.99 388.403 146.227 360.64C118.464 332.877 102.867 295.222 102.867 255.96C102.867 216.697 118.464 179.042 146.227 151.279C173.99 123.516 211.645 107.919 250.908 107.919C290.17 107.919 327.825 123.516 355.588 151.279C383.351 179.042 398.948 216.697 398.948 255.96Z" fill="white"/>
<path fill-rule="evenodd" clip-rule="evenodd" d="M-178 -0.0390625V47.6498L599.651 511.958H679.523V464.27L-98.1284 -0.0390625H-178Z" fill="white"/>
<path fill-rule="evenodd" clip-rule="evenodd" d="M279.872 200.079L260.562 200.372L250.615 216.755L240.668 200.372L221.651 200.079L231.013 183.11L221.651 166.433L240.96 165.848L250.908 149.464L260.855 166.141H279.872L270.802 183.11L279.872 200.079ZM215.507 311.841H196.197L186.25 328.517L176.302 312.133L156.993 311.548L166.355 294.872L157.285 277.903L176.302 277.61L186.25 261.226L196.197 277.61L215.507 278.195L206.144 294.872L215.507 311.841ZM345.993 311.841H326.683L316.736 328.517L306.789 312.133L287.771 311.548L296.841 294.872L287.771 277.903L307.081 277.61L317.028 261.226L326.976 277.61L345.993 278.195L336.631 294.872L345.993 311.841Z" fill="#CF0921" stroke="#18B637" stroke-width="3.90093"/>
</g>
</g>
<defs>
<clipPath id="clip0_2_805">
<rect width="512" height="512" fill="white"/>
</clipPath>
</defs>
</svg>
