<svg width="512" height="512" viewBox="0 0 512 512" fill="none" xmlns="http://www.w3.org/2000/svg">
<g clip-path="url(#clip0_2_830)">
<path d="M0 0H512V512H0V0Z" fill="#CF142B"/>
<path d="M0 0H256V256H0V0Z" fill="#000066"/>
<path d="M256 0V32L161 128L256 221.5V256H222.5L127 162L34 256H0V222L93 128.5L0 37V0H31L127 94L220 0H256Z" fill="white"/>
<path d="M92 162L97.5 179L21 256H0V254.5L92 162ZM154 156L181 160L256 233.5V256L154 156ZM256 0L160 98L158 76L233 0H256ZM0 0.5L96.5 95L67 91L0 24.5V0.5Z" fill="#C8102E"/>
<path d="M88 0V256H168V0H88ZM0 88V168H256V88H0Z" fill="white"/>
<path d="M0 104V152H256V104H0ZM104 0V256H152V0H104Z" fill="#C8102E"/>
<path d="M467 146.6V308.2C467 351.3 380.9 365.4 380.9 365.4C380.9 365.4 294.4 351.4 294.4 308V146.6H467Z" fill="white"/>
<path d="M467 308.2C467 351.3 380.9 365.4 380.9 365.4C380.9 365.4 294.4 351.4 294.4 308C294.4 308 294.4 304.5 296.2 302.6C296.2 302.6 295.2 309.7 300.7 315.2C300.7 315.2 296.4 307.4 300.7 299.9C300.7 299.9 299.1 309.7 305.1 315.2C305.1 315.2 301.8 307.3 305.5 298.5C305.5 298.5 303.7 312.8 310.3 315.8C310.3 315.8 312.1 307.4 309.4 302.2C309.4 302.2 314 304 313.7 316C313.7 316 315.2 314.2 315.5 305.5C315.5 305.5 315.8 315.5 319.1 317.8C319.1 317.8 320.3 316.8 318.7 312.3C317.2 307.9 319.3 306.3 319.7 306.3C319.7 306.3 319 311.3 323.1 315.1C323.1 315.1 321.4 307.2 323.9 306.1C323.9 306.1 323.3 312.8 328.6 314.2C328.6 314.2 329 312.3 327.8 310.2C327.8 310.2 326.8 307.7 327.6 305.7C327.6 305.7 329.2 311.7 331.5 312.7C331.5 312.7 330.2 309.1 331.5 305.7C331.5 305.7 331.7 310.7 336.3 312.8C336.3 312.8 333.3 308.8 334.3 304.6L363.1 306L378 306.7L422.7 303.7L430.3 297C430.3 297 433.4 301.1 428.6 307.8C428.6 307.8 433.3 307 434.9 299.5C434.9 299.5 436.8 303.6 434.2 308.3C434.2 308.3 439.4 302.9 440.2 297C440.2 297 442.2 302.8 437.2 309C437.2 309 441.7 307.4 443.6 300.9C443.6 300.9 445.1 304.9 440.8 310.4C440.8 310.4 448.9 306.3 448.8 297.4C448.8 297.4 452 302.2 448.2 309C448.2 309 452.2 305.3 452.8 299.7C452.8 299.7 455 302.2 452.5 309.1C452.5 309.1 457.5 304.3 458.4 299.2C458.4 299.2 459.4 304 455.1 310C455.1 310 458.1 309.2 460.9 303.4C460.9 303.4 461.6 305.8 459.1 310C459.1 310 461.8 309.5 463.6 304.1C463.6 304.1 464 307.3 463.1 310.1C463.1 310.1 465.3 308.8 465.8 302.8C465.8 302.8 466.9 304.7 466.9 307.2V308L467 308.2Z" fill="#2F8F22"/>
<path d="M422.7 214.7C422.7 214.7 419.7 215.3 415.8 214.1C412 212.9 410.4 213.4 409.2 214.1C409.2 214.1 410.8 211 407 208.5C407 208.5 408.2 211.7 406.5 213.1C406.5 213.1 405.8 213.8 404.8 212.8C404.8 212.8 403.5 211.3 402.1 210.4C402.1 210.4 405.3 209.2 404.7 205.9C404.1 202.6 402.3 202.3 401.5 201.8C401.338 202.592 401.338 203.408 401.5 204.2C401.5 204.2 397.9 202.2 402.7 199.5C407.5 196.8 406.7 195.1 405.7 193.7C404.776 192.286 403.588 191.063 402.2 190.1C402.2 190.1 403.2 191.7 402.9 193C402.8 194.2 400.5 195 401 192.9C401.5 190.5 401 190.9 401 188.6C401 188.6 405.2 190 407 185.8C407 185.8 408.5 181.5 403.2 179.4C403.2 179.4 404.5 181.2 403.9 182.4C403.9 182.4 402.7 184.6 401.4 183C400.1 181.3 399.1 180.8 399.2 178.8C399.2 178.8 404.2 179.5 402.8 174.1C402.8 174.1 402 177.7 395.6 172.9C395.6 172.9 399.8 168.7 398.1 165.3C398.1 165.3 397.7 163.8 393.3 164.6C393.3 164.6 397.1 162.2 395.5 160.1C395.5 160.1 394.7 158.8 391 160.5C391 160.5 392.4 158.2 388.8 155.5C388.8 155.5 386.5 156.7 385.3 157.9C385.3 157.9 382.9 154.9 381.3 153.6C381.3 153.6 378.5 154.7 377.8 157.9C377.8 157.9 376.4 156.4 373.5 155.5C373.5 155.5 372 158.3 373.9 160.5C373.9 160.5 372.5 160.5 370 159.4C370 159.4 367.1 158.2 367.6 160.5C368 162.9 368.2 163.5 368.8 164.7C368.8 164.7 362.4 163.2 362.6 166.7C362.67 167.89 362.981 169.052 363.514 170.118C364.047 171.184 364.791 172.13 365.7 172.9C365.7 172.9 362.1 177.7 359 174.1C359 174.1 357.8 175.3 360.2 178.3C360.2 178.3 362.6 180.8 360.6 182.5C360.6 182.5 358.1 184.5 356.9 180.5C356.9 180.5 352.7 184.6 357.6 187.7C357.6 187.7 360.7 189.5 363.9 186.7C363.9 186.7 362.9 194.7 359.9 193.1C359.9 193.1 358.1 191.9 361.3 190.2C361.3 190.2 356.5 189.6 355.8 194.2C355.8 194.2 355.2 197.7 359.4 199.2C359.4 199.2 362.5 200.4 359.3 202.8C359.3 202.8 356.9 204.5 358.4 207.2C358.4 207.2 360.2 210 355.6 210.4C355.6 210.4 353.2 210.4 352.2 210C352.2 210 351.2 212 351.9 214C351.9 214 349.5 212.3 344.4 214.2C339.1 216.2 339.4 214.8 339.1 215.4L337.6 217.8C337.6 217.8 340.3 221.4 340.4 221.1L339.8 225.1L341.3 225.7L352 220.9L363 215.2L372 215.6L377.5 216.9L384.8 217.5L390.2 214.7H397.8L406.1 218.9L415.7 224.6L420.7 225.6L424.5 225.3V217.5L422.7 214.7Z" fill="#D40000" stroke="black" stroke-width="1.2" stroke-linejoin="round"/>
<path d="M335.6 223.7C335.6 223.7 339.7 225.9 341.6 223.4C341.6 223.4 343.8 219 338.8 217.4C338.8 217.4 341.5 214.2 338.5 211.2C338.5 211.2 337 209.6 334.4 210.7C334.4 210.7 333.2 208.4 330.7 208.5C330.7 208.5 328.3 208.5 327.6 211C327.6 211 324.5 209.8 322.8 211.6C322.8 211.6 319.8 214.8 323.8 217.4L326.8 217.7L329.6 216.3L332.8 217.2C332.8 217.2 332 220.4 335.6 223.7Z" fill="#D40000" stroke="black" stroke-width="1.2" stroke-linejoin="round"/>
<path d="M429 216.1C430.388 215.946 431.79 216.229 433.009 216.91C434.228 217.592 435.204 218.637 435.8 219.9C438.5 226.1 432.8 229.5 432.8 229.5C433.2 230.8 433.3 232.7 433.3 232.7C441.2 233.7 439.8 242.5 439.8 242.5L437.1 240.3C432.6 238.5 427.8 242.5 424.5 248.9C421.2 255.5 422.7 258.4 423.3 266.2C423.9 273.9 436.4 278.6 436.4 278.6L426.6 303.6C422.8 313.6 414.7 309.5 412.3 307.3C410.1 305.3 409.5 306.5 408.4 307.3C407.2 308.3 413.7 313.3 401.8 318.1C390.2 322.8 388.1 326.4 386.1 327.6C384.2 328.8 376.1 328.1 375.4 327C374.4 326 374.9 326 371.8 324.1C368.8 322.4 363.7 320.6 358.1 317.9C352.5 315.2 352.6 311.7 352.7 311C352.7 310.3 354.7 304.5 348.1 309.1C341.5 313.8 335.9 306.9 335.9 306.9C334.7 305.2 329.1 290.5 329.1 290.5C327.945 286.406 326.508 282.396 324.8 278.5C324.8 278.5 324.5 279.3 329.4 276.5C334.1 273.8 336.4 269.2 338.1 264.6C339.7 260 338.1 252.1 337.5 250.6C336.9 249 333.3 241.7 328.8 240.2C324.3 238.6 321.2 242.6 321.2 242.6C321.2 242.6 319.9 233.6 327.8 232.6C327.8 232.6 327.8 230.8 328.3 229.5C328.3 229.5 322.7 226.1 325.3 219.9C325.3 219.9 327.1 215.6 332.1 216.1L330.9 218.5C330.9 218.5 329.7 231.1 348.2 222.7C366.7 214.1 366.1 212.5 376.8 217.9L384.4 217.8C384.4 217.8 395.5 212.5 399.1 214.8C402.7 217.1 415.4 224.2 415.4 224.2C415.4 224.2 427.8 228.9 430.4 220.2L429 216.1Z" fill="#64B4D1" stroke="black" stroke-width="1.2"/>
<path d="M373.1 271C373.1 271 372.5 267.1 371.9 264.6C371.9 264.6 370.5 260.7 372.9 257.8L375.7 254.5C375.7 254.5 377.5 252.1 379.7 251.8C379.7 251.8 382.1 251.8 382.2 251.3C382.4 250.8 384.9 246.8 390.8 251.3C390.8 251.3 392.5 248.3 395.5 247.7C395.5 247.7 398.5 246.9 400.1 249.1C400.1 249.1 403.5 246.5 406.5 250.8C406.5 250.8 410.5 248.4 413.7 253.1C413.7 253.1 417.6 251.1 420.1 255.2C422.6 259.5 422.1 261.2 422.1 261.2L424.1 268L430.6 276L415.3 281.8H408.4L394.7 285.4L370.4 287.3L363.7 279.3L373.2 271H373.1Z" fill="white" stroke="#00247D" stroke-width="1.2" stroke-miterlimit="10"/>
<path d="M352.6 311.5C352.6 311.5 349 311.6 347.1 312.7C345.3 313.5 343.9 314.5 341.8 315.9C341.8 315.9 340.7 317.2 336.5 316.4C336.5 316.4 329.4 314.7 329.4 320.4C329.4 320.4 320.5 321 324.1 328.7C324.1 328.7 326.5 334.7 331.5 330.5C331.5 330.5 328.3 335 334.5 336.8C334.5 336.8 338.9 338 340.2 333.3C340.2 333.3 340.9 331.5 339.2 329.3C339.2 329.3 341.4 328.9 342.8 326.6C342.8 326.6 338.3 332.4 343.3 334.6C343.3 334.6 349.6 336.1 350 329.6C350 329.6 349.4 326.4 351.9 325.3C351.9 325.3 356.9 324.1 359 318.7C359 318.7 351.9 314.8 352.6 311.5ZM337.9 254C337.9 254 332.3 251.5 329.6 254C329.6 254 326 251.8 322.1 254C322.1 254 318.4 256.4 315.8 259.2C315.8 259.2 314 260.7 314.6 265.6C314.6 265.6 315.6 269.1 315 270.7C315 270.7 313.8 270.5 311.3 273.5C311.3 273.5 308.3 277 305.3 273.8C305.3 273.8 306.3 278.4 311.5 277.6C311.5 277.6 309 279.6 311.1 284.6C311.1 284.6 312.8 288.2 310.1 292.8C310.1 292.8 314.7 291 314.6 285.6C314.6 285.6 314.1 282 315.6 279.6C315.6 279.6 314.1 281.8 317.2 286.7C317.2 286.7 319.6 290.3 317.7 293.9C317.7 293.9 322.1 292.3 321.7 286.9C321.2 281.5 318.7 283.7 320.3 278.7C320.3 278.7 320.8 281.3 322.1 282.7C323.096 283.54 323.845 284.635 324.268 285.868C324.691 287.101 324.771 288.425 324.5 289.7C324.5 289.7 327.1 286.3 326.5 282.9C326.329 281.368 325.889 279.879 325.2 278.5L333.5 273.7L337.8 266.2L337.9 254Z" fill="#D40000" stroke="black" stroke-width="1.2" stroke-linejoin="round"/>
<path d="M325.2 275.5C325.2 275.5 321.6 275.3 321.2 272.5M315 270.7C315 270.7 316.2 270.7 317.4 271.9C317.4 271.9 318.1 273.1 319.4 272.9" stroke="black" stroke-width="1.2" stroke-miterlimit="10"/>
<path d="M330.3 265.2C330.3 265.2 328.5 265.2 327.4 264.4C327.4 264.4 326.4 263.7 325.9 264.8C325.9 264.8 324.9 266.4 326.6 267.1C326.6 267.1 328.9 268.3 325.4 270.5C325.4 270.5 329.4 268.9 327.8 266.9C327.8 266.9 326 265.7 326.6 265.2C326.6 265.2 326.8 264.8 327.6 265.2C328.3 265.8 329.7 265.6 330.3 265.2Z" fill="black"/>
<path d="M385 275L387 274.4L373.1 226.4H372.6L385 275Z" fill="#784421" stroke="black" stroke-width="1.2"/>
<path d="M338.5 328.3C338.5 328.3 335.3 326.4 332.5 328.6C332.5 328.6 332.9 327.4 335 326.9C335 326.9 336.1 323.7 339.2 324C339.2 324 337.9 325.6 336.2 326.8C336.2 326.8 338.1 327 338.7 328.3H338.5Z" fill="black"/>
<path d="M327 335.8C327 335.8 321.8 332.6 324.7 327.1C324.7 327.1 325.5 325.6 327.1 325.9C327.1 325.9 330.3 326.9 327.8 331.4C327.8 331.4 326.5 334.3 327.1 335.9L327 335.8ZM337.6 341.1C337.6 341.1 330.2 337.7 332.5 331.9C332.5 331.9 333.2 329.9 334.8 330.1C334.8 330.1 337.7 330.3 337.1 334.1C337.1 334.1 336.3 337.7 337.6 341.1Z" fill="#64B4D1" stroke="#00247D" stroke-width="1.2" stroke-miterlimit="2.6"/>
<path d="M336 319.6C336 319.6 333.8 321.3 333 322.4C333 322.4 332 321.2 330.8 320.6C330.8 320.6 332.2 320.3 332.9 320.9C332.9 320.9 334.1 319.9 336 319.6Z" fill="black"/>
<path d="M342.6 339.6C342.6 339.6 348.6 338.2 347.4 332.1C347.4 332.1 346.8 329.5 344.4 329.9C344.4 329.9 341.4 330.7 343.3 334.5C343.3 334.5 344.5 337.1 342.6 339.6Z" fill="#64B4D1" stroke="#00247D" stroke-width="1.2" stroke-miterlimit="2.6"/>
<path d="M369 212.7L374.7 214.6C374.7 214.6 380 216.9 386.9 214.6L392.2 212.6L388.6 218V220.9L390.8 224.1C390.8 224.1 389.4 224.7 385.4 222.1C385.4 222.1 381 218.7 375.7 222.1C375.7 222.1 372.7 224.1 370.4 224.1L373.8 220.3L372.5 216.8L368.9 212.5L369 212.7Z" fill="#F5CE00" stroke="black" stroke-width="1.2" stroke-miterlimit="2.6"/>
<path d="M344.9 332.5C344.9 332.5 345.1 332.1 344.9 332L344.4 332.2C344.4 332.2 343.8 333.2 344.4 334.6C344.4 334.6 344.9 335.5 344.6 336.4L344.7 336.8C344.7 336.8 345 336.7 345 336.4C345 336.4 345.3 335.6 344.7 334.6C344.7 334.6 344.1 333.2 344.9 332.5Z" fill="white"/>
<path d="M425.3 223.7C425.3 223.7 421.2 225.9 419.3 223.4C419.3 223.4 417.3 219 422.3 217.4C422.3 217.4 419.5 214.2 422.3 211.2C422.3 211.2 423.9 209.6 426.5 210.7C426.5 210.7 427.7 208.4 430.2 208.5C430.2 208.5 432.6 208.5 433.3 211C433.3 211 436.5 209.8 438.3 211.6C438.3 211.6 441.1 214.8 437 217.4L434.2 217.7L431.3 216.3L428.2 217.2C428.2 217.2 429 220.4 425.3 223.7Z" fill="#D40000" stroke="black" stroke-width="1.2" stroke-linejoin="round"/>
<path d="M392.2 220.4C392.2 220.4 392.2 221.2 391.4 221.4C391.4 221.4 390.4 221.7 389.8 220.5V220.2C389.8 219.7 389.6 218.2 391.2 216.9C391.2 216.9 393.9 214.8 398.9 217.4C403.723 220.112 408.661 222.614 413.7 224.9C413.7 224.9 416.7 226.5 421.5 226.7C421.5 226.7 428.1 227.2 430.8 222.6C430.8 222.6 433 219.1 430.8 216.8C430.8 216.8 430 215.8 428.6 216C427.872 216.162 427.23 216.59 426.8 217.2C426.8 217.2 425.7 218.6 426.8 219.7C426.8 219.7 428.4 220.7 429 218.7C429 218.9 429.5 220.4 428.7 221.6C428.7 221.6 424.7 227.6 413.7 221.5L399.5 213.4C399.5 213.4 392.3 209.7 387.9 215.5C387.9 215.5 384.4 220.3 388.9 223.4C388.9 223.4 392.3 225.4 394.3 222.2C394.3 222.2 396.1 219.1 393.3 217.8C393.3 217.8 391 216.6 390 219C389 221.4 391.8 222 392 220.3C392 220.3 392 219.9 392.3 220.3L392.2 220.4Z" fill="#F5CE00" stroke="black" stroke-width="1.2" stroke-miterlimit="2.6"/>
<path d="M335.3 245.2V236.2C335.3 235.4 335.3 235 336.5 234C337.5 233.2 338.7 231.7 340.2 235.7C340.2 235.7 343.4 232.2 344.5 231.7C344.5 231.7 346.4 230.2 347.7 232.4C347.7 232.4 349.4 229.8 350.7 229.2C350.7 229.2 353.9 227.2 354 233.4L356.5 231C356.5 231 358.5 229.5 360.7 231.7C360.7 231.7 364.3 235.3 364.7 236.3C364.7 236.3 365.6 237.3 365.7 239C365.7 239 365.7 241 366.7 242C366.7 242 367.9 243 368.9 243.2C368.9 243.2 371.4 243.3 372.5 245.8C372.5 245.8 372.9 245.3 374.2 257V278.5L359.8 295.6L336.6 289L327.4 285.1L325.3 278.5L334.3 272.6L339 259.6L337.6 250.3L335.3 245.1V245.2Z" fill="#E4CB5E" stroke="black" stroke-width="1.2" stroke-miterlimit="2.6"/>
<path d="M399 256.4L400.2 254.9L402.7 252.9C402.7 252.9 406.7 263.3 406.9 265.6V268.8C406.9 268.8 412.9 270.4 414 279.5L409 288.7L401.3 284.3L399 282.8V256.4Z" fill="#784421" stroke="black" stroke-width="1.2"/>
<path d="M325.7 328.4C325.7 328.4 325.9 328.1 325.7 327.8L325.2 328.2C325.2 328.2 323.6 329.9 324.9 332.6C324.9 332.6 324.9 333 325.3 332.8C325.3 332.8 325.5 332.8 325.3 332.5C325.3 332.5 324.1 330.1 325.7 328.5V328.4Z" fill="white"/>
<path d="M349 326.6C349 326.6 349.1 325.8 348.7 325C348.7 325 348.3 324.4 348.4 323.5M354 233.4C354 233.4 354 235.7 354.7 237.4C355.3 239 357.7 241.9 357.7 243.3" stroke="black" stroke-width="1.2" stroke-miterlimit="10"/>
<path d="M408.4 311.5C408.4 311.5 412 311.6 413.9 312.7C415.8 313.5 417.2 314.5 419.4 315.9C419.4 315.9 420.4 317.2 424.5 316.4C424.5 316.4 431.8 314.7 431.8 320.4C431.8 320.4 440.5 321 436.9 328.7C436.9 328.7 434.5 334.7 429.5 330.5C429.5 330.5 432.7 335 426.5 336.8C426.5 336.8 422.1 338 420.8 333.3C420.8 333.3 420.1 331.5 421.8 329.3C421.8 329.3 419.8 328.9 418.3 326.6C418.3 326.6 422.8 332.4 417.8 334.6C417.8 334.6 411.5 336.1 411.1 329.6C411.1 329.6 411.6 326.4 409.2 325.3C409.2 325.3 404.2 324.1 402 318.7C402 318.7 409.1 314.8 408.4 311.5Z" fill="#D40000" stroke="black" stroke-width="1.2" stroke-linejoin="round"/>
<path d="M351.2 243.4L357.2 291.2M352.6 243.3L359.3 287.9M353.8 243.1L361.5 287.3" stroke="black" stroke-width="1.2" stroke-miterlimit="10"/>
<path d="M366 283.5L368.1 282.8L354.1 234.8H353.7L366 283.5Z" fill="#784421" stroke="black" stroke-width="1.2"/>
<path d="M358 241.3L372.2 276.8M357.2 241.8L370.7 278.8" stroke="black" stroke-width="1.2" stroke-miterlimit="10"/>
<path d="M335 337.6C335 337.6 333.3 336.1 333.5 333.3C333.5 333.3 333.5 332.7 333.3 332.6C333.3 332.6 332.9 332.5 332.9 333.2C332.9 333.2 332.5 336.1 334.5 337.7C334.5 337.7 334.6 338 334.8 337.9C334.8 337.9 335.1 337.9 334.8 337.6H335Z" fill="white"/>
<path d="M358.8 240.8L373.1 273.2M355 242.8L364 286.5" stroke="black" stroke-width="1.2" stroke-miterlimit="10"/>
<path d="M427.4 275C421 271.4 419.6 263.6 419.6 263.6C418.728 258.77 419.32 253.79 421.3 249.3C425.3 240.7 432.3 239 432.3 239C432.3 239 425.5 243.8 423.5 250.2C423.5 250.2 422.1 255.7 423 260.9C423.8 266.4 423.4 265 424.7 269.2L427.4 275.2V275Z" fill="#F5CE00" stroke="black" stroke-width="1.2" stroke-miterlimit="2.6"/>
<path d="M400 254.7L373.5 263.2L372 275.2C365.7 284.3 352.8 285.9 352.8 285.9L362.8 296.6L381.9 300.6L392.1 292.8L401.3 284.4C400.3 279.9 400.8 273.2 400.8 273.2C400.8 272 401.3 269.4 401.3 269.4C401.3 269.4 399.7 258.7 400.1 254.9L400 254.7Z" fill="#784421" stroke="black" stroke-width="1.2"/>
<path d="M372.4 272.2C372.4 272.2 389.9 266.7 400.4 262.2M363.9 282.2C363.9 282.2 385.9 278.2 401.3 269.4L406.9 265.6" stroke="black" stroke-width="1.2" stroke-miterlimit="10"/>
<path d="M406.9 268.8L400.9 273.2C400.9 273.2 376.3 284.4 357.6 284.8M400.8 281.2C400.8 281.2 381.9 290.9 371.2 291" stroke="black" stroke-width="1.2" stroke-miterlimit="10"/>
<path d="M423.2 254C423.2 254 428.8 251.5 431.5 254C431.5 254 435.1 251.8 439.2 254C439.2 254 442.7 256.4 445.4 259.2C445.4 259.2 447.2 260.7 446.6 265.6C446.6 265.6 445.6 269.1 446.2 270.7C446.2 270.7 447.4 270.5 449.8 273.5C449.8 273.5 453 277 455.8 273.8C455.8 273.8 454.9 278.4 449.8 277.6C449.8 277.6 452.2 279.6 450 284.6C450 284.6 448.5 288.2 451 292.8C451 292.8 446.4 291 446.7 285.6C446.7 285.6 447 282 445.7 279.6C445.7 279.6 447 281.8 443.9 286.7C443.9 286.7 441.6 290.3 443.6 293.9C443.6 293.9 439 292.3 439.6 286.9C439.9 281.5 442.6 283.7 440.8 278.7C440.8 278.7 440.5 281.3 439.2 282.7C438.204 283.54 437.454 284.635 437.032 285.868C436.609 287.101 436.529 288.425 436.8 289.7C436.8 289.7 434.2 286.3 434.8 282.9C435.4 279.4 435.9 278.5 435.9 278.5L427.6 273.7L423.4 266.2L423.2 254Z" fill="#D40000" stroke="black" stroke-width="1.2" stroke-linejoin="round"/>
<path d="M328 284.4C328 284.4 328.8 280.7 332.2 282C332.2 282 333.4 276 340 275.8C346.4 275.6 346.8 282.2 346.8 282.6C346.8 282.6 348.8 279.8 351.8 280.1C351.8 280.1 357.4 279.8 355.5 288.6L356.5 289.8C356.5 289.8 360.5 279.9 369.2 282.4C369.2 282.4 377.5 285 372.2 293.1C372.2 293.1 376.3 298.6 379.8 298.1C383.4 297.6 386.5 296.5 389.9 290.3C393.5 284.1 401.6 283.1 403.6 283.5C405.6 283.8 407.3 285.3 407.6 286.7C407.6 286.7 412 272.4 427.5 274.5L433.7 277.8L436.1 278.8L432.5 288.8L424 308L417.5 310L410.7 306.1L408.3 307.3L408.2 313.2L399.2 319.6L393 322.1L386.2 326.9L384.6 331.1C384.6 331.1 380.9 329.4 376.6 331.1L375.1 327.5L371.1 323.8L355.6 316.4L352.8 307.4L350 306.1L346.8 309.7L342.2 310.3L335.3 305.5L327.8 284.5L328 284.4Z" fill="white" stroke="#00247D" stroke-width="1.2" stroke-miterlimit="10"/>
<path d="M395.5 214C395.5 214 389.5 213.8 389.8 220" stroke="black" stroke-width="1.2" stroke-miterlimit="2.6"/>
<path d="M434.4 279.3C424.1 276.1 421.3 265 421.3 265C420.109 259.824 420.563 254.405 422.6 249.5C427.4 238.5 435.2 238.5 435.2 238.5C436.233 238.325 437.294 238.562 438.154 239.16C439.014 239.758 439.605 240.67 439.8 241.7C440.1 244.1 438.5 245 438.5 245C435.7 246.5 433.9 244.5 433.9 244.5C432.7 242.9 433.7 241.6 433.7 241.6C434.4 240.6 435.7 241.2 435.7 241.2C436.9 241.4 436.7 242.8 436.7 242.8C436.7 242.8 437 241.2 435.5 241C435.5 241 432.3 240.3 428.7 244.8C428.7 244.8 423.9 250.9 423.9 258.9C423.9 258.9 423.3 273.7 438.7 277.5C438.7 277.5 437 279.9 434 288.6C434 288.6 430.7 299.8 427.6 305.9C427.6 305.9 423.3 314.5 413.8 311C413.8 311 408.2 308.5 408.2 304.5C408.2 304.5 407.8 300.7 411.2 300.5C411.2 300.5 414.5 300.2 414.5 303C414.5 303 414.5 306 410.9 305.4C410.9 305.4 409.7 305.1 409.9 303.9C409.9 303.9 410.1 302.7 411.6 303.3C413.2 303.9 411.6 303.3 411.6 303.2C411.6 303.2 411 302.9 410.4 303.2C410.4 303.2 409.8 303.2 409.8 304.2C409.8 304.2 409.8 304.8 410.6 305.3L412.2 305.5C412.2 305.5 413.2 307.5 415.3 308.2C416.48 308.553 417.726 308.628 418.941 308.419C420.155 308.211 421.304 307.726 422.3 307C423.641 305.838 424.672 304.36 425.3 302.7C427.353 298.318 429.124 293.809 430.6 289.2C430.6 289.2 432.4 283.5 433.9 280.5L434.4 279.3Z" fill="#F5CE00" stroke="black" stroke-width="1.2" stroke-miterlimit="2.6"/>
<path d="M405.3 307.4C405.3 307.4 407.3 307.2 407.3 308.9C407.3 308.9 407.3 311.3 404.1 310.8C404.1 310.8 401.1 310.2 402.2 306.8C402.2 306.8 402.9 304.5 405.8 304.8C405.8 304.8 408.5 304.8 409.8 308.6C409.8 308.6 410.7 311.9 409 314.6C407.2 317.6 402.8 319.6 400.7 320.6C400.7 320.6 391.9 323.9 389.3 325.9C389.3 325.9 385.3 328.8 387.2 331.5C387.2 331.5 387.9 332.6 388.8 332.6C388.8 332.6 390 332.6 390.2 331.4C390.2 331.4 390.2 332.1 389.4 332.4C389.4 332.4 388.6 332.8 387.8 332.1C387.8 332.1 386.8 331.1 387.5 329.7C387.5 329.7 388.6 328.1 391.1 329.1C391.1 329.1 393.1 330.2 392.3 332.4C392.3 332.4 391.5 334.5 389 334.4C389 334.4 387 334.4 385.7 333.2C383.8 331.1 383.7 327.2 385.5 325.2C385.5 325.2 387.1 323.1 390.3 321.6L399.3 318.1C401.701 317.204 403.883 315.807 405.7 314C405.7 314 407 312.6 407.5 310C407.5 310 407.8 308 406.6 307.6L405.4 307.3L405.3 307.4Z" fill="#F5CE00" stroke="black" stroke-width="1.2" stroke-miterlimit="2.6"/>
<path d="M405.5 307.4C405.5 307.4 407.7 307 409 309.6C409 309.6 409.7 311.1 409.8 312.1M410.6 303.1C410.6 303.1 408.4 303.4 409.5 306.5C410.7 309.4 412.5 310.2 413.1 310.7" stroke="black" stroke-width="1.2" stroke-miterlimit="2.6"/>
<path d="M369 220.4C369 220.4 369 221.2 369.9 221.4C369.9 221.4 370.7 221.6 371.2 220.5L371.3 220.2C371.3 219.7 371.6 218.2 370 216.9C370 216.9 367.3 214.8 362.3 217.4C362.3 217.4 358.3 219.4 355.6 221C355.6 221 348.4 224.8 347.5 225C347.5 225 344.4 226.6 339.6 226.8C339.6 226.8 333 227.3 330.3 222.7C330.3 222.7 328.2 219.2 330.3 216.9C330.3 216.9 331.1 215.9 332.6 216.1C333.2 216.2 333.8 216.5 334.4 217.3C334.4 217.3 335.4 218.7 334.2 219.8C334.2 219.8 332.7 220.8 332.1 218.8C332.1 219 331.7 220.4 332.6 221.8C332.6 221.8 336.5 227.7 347.4 221.5L361.7 213.5C361.7 213.5 368.8 209.8 373.2 215.5C373.2 215.5 376.7 220.3 372.2 223.5C372.2 223.5 368.9 225.5 366.8 222.3C366.8 222.3 365.1 219.3 367.8 217.9C367.8 217.9 370.1 216.7 371.2 219.1C372.2 221.5 369.2 222.1 369.1 220.4C369.1 220.4 369.1 220 368.9 220.4H369ZM333.8 275.1C340.1 271.6 341.5 263.6 341.5 263.6C342.9 255.6 339.8 249.3 339.8 249.3C335.8 240.7 328.8 239 328.8 239C328.8 239 335.7 243.8 337.6 250.2C337.6 250.2 339.1 255.7 338.2 260.9C337.3 266.4 337.7 265 336.4 269.2L333.8 275.1Z" fill="#F5CE00" stroke="black" stroke-width="1.2" stroke-miterlimit="2.6"/>
<path d="M365.7 214C365.7 214 371.7 213.8 371.3 220" stroke="black" stroke-width="1.2" stroke-miterlimit="2.6"/>
<path d="M326.6 279.3C337 276.1 339.7 265 339.7 265C340.923 259.834 340.504 254.416 338.5 249.5C333.8 238.5 325.9 238.5 325.9 238.5C324.882 238.353 323.847 238.603 323.009 239.199C322.171 239.795 321.595 240.69 321.4 241.7C321 244.1 322.7 245 322.7 245C325.4 246.5 327.2 244.5 327.2 244.5C328.4 242.9 327.4 241.6 327.4 241.6C326.7 240.6 325.4 241.2 325.4 241.2C324.2 241.4 324.4 242.8 324.4 242.8C324.4 242.8 324.1 241.2 325.7 241C325.7 241 328.9 240.3 332.5 244.8C332.5 244.8 337.2 250.9 337.2 258.9C337.2 258.9 337.8 273.7 322.4 277.5C322.4 277.5 324.1 279.9 327.1 288.6C327.1 288.6 330.4 299.8 333.6 305.9C333.6 305.9 337.8 314.5 347.4 311C347.4 311 353 308.5 353 304.5C353 304.5 353.3 300.7 350 300.5C350 300.5 346.6 300.2 346.6 303C346.6 303 346.6 306 350.2 305.4C350.2 305.4 351.4 305.1 351.2 303.9C351.2 303.9 351.1 302.7 349.5 303.3C348 303.9 349.5 303.3 349.5 303.2C349.5 303.2 350.1 302.9 350.7 303.2C350.7 303.2 351.3 303.2 351.3 304.2C351.3 304.2 351.3 304.8 350.6 305.3L349 305.5C349 305.5 348 307.5 345.8 308.2C344.625 308.594 343.371 308.69 342.149 308.481C340.927 308.272 339.777 307.763 338.8 307C337.459 305.838 336.428 304.36 335.8 302.7C333.747 298.318 331.977 293.808 330.5 289.2C330.5 289.2 328.8 283.5 327.3 280.5L326.7 279.3H326.6Z" fill="#F5CE00" stroke="black" stroke-width="1.2" stroke-miterlimit="2.6"/>
<path d="M355.8 307.4C355.8 307.4 353.9 307.2 353.9 308.9C353.9 308.9 353.9 311.3 357 310.8C357 310.8 360 310.2 359 306.8C359 306.8 358.2 304.5 355.3 304.8C355.3 304.8 352.6 304.8 351.4 308.6C351.4 308.6 350.4 311.9 352.1 314.6C353.9 317.6 358.3 319.6 360.5 320.6C360.5 320.6 369.2 323.9 371.8 325.9C371.8 325.9 375.8 328.8 373.9 331.5C373.9 331.5 373.3 332.6 372.3 332.6C372.3 332.6 371.1 332.6 371 331.4C371 331.4 371 332.1 371.7 332.4C371.7 332.4 372.5 332.8 373.3 332.1C373.3 332.1 374.3 331.1 373.6 329.7C373.6 329.7 372.6 328.1 370.1 329.1C370.1 329.1 368 330.2 368.9 332.4C368.9 332.4 369.7 334.5 372.2 334.4C372.2 334.4 374.1 334.4 375.4 333.2C377.3 331.1 377.4 327.2 375.7 325.2C375.7 325.2 374.1 323.1 371 321.6C369 321 365.5 319.5 361.9 318.1C359.477 317.25 357.285 315.846 355.5 314C355.5 314 354.2 312.6 353.7 310C353.7 310 353.3 308 354.5 307.6L355.7 307.3L355.8 307.4Z" fill="#F5CE00" stroke="black" stroke-width="1.2" stroke-miterlimit="2.6"/>
<path d="M355.6 307.4C355.6 307.4 353.4 307 352.1 309.6C352.1 309.6 351.4 311.1 351.3 312.1M350.6 303.1C350.6 303.1 352.7 303.4 351.6 306.5C350.5 309.4 348.6 310.2 348.1 310.7M375.5 219.6C375.5 219.6 380.6 216.3 385.9 219.9M346.2 251.2C346.2 251.2 346.9 248.2 343.5 243.2L340.3 235.7M347.7 232.4L350.1 239L353 245.8" stroke="black" stroke-width="1.2" stroke-miterlimit="2.6"/>
<path d="M348.5 254.3C348.5 254.3 350.5 256.4 350.3 259.9M342.3 252C342.3 252 344.3 253 344.1 258.8C344.1 258.8 344.1 262.8 347.1 265M341.9 266.4C341.9 266.4 348.5 265.7 349 269.9C349 269.9 349 273.9 351.4 274.2C351.4 274.2 354.7 274.5 355.4 277.8M344 271C344 271 345.2 272.7 346.4 273.6M352.6 266.6C352.6 266.6 354.3 269.3 354.6 270.7M360 235.7C360 235.7 361.5 237.8 363 238.7M366.2 248.3C366.2 248.3 369.5 249.9 369.1 258.3C369.1 258.3 368.6 263.3 370.1 266" stroke="black" stroke-width="1.2" stroke-miterlimit="10"/>
<path d="M350.5 242.6L350.8 243.4C350.8 243.4 356.8 243.7 360 239.6L359.6 238.8C359.6 238.8 354.4 238.5 350.6 242.6H350.5Z" fill="#784421" stroke="black" stroke-width="1.2"/>
<path d="M372 274.5C372 274.5 392.7 268.5 400.7 264.9" stroke="black" stroke-width="1.2" stroke-miterlimit="10"/>
<path d="M369.9 236.5L369.7 235.9L379.7 231.9L380 232.7L369.9 236.5Z" fill="#784421" stroke="black" stroke-width="1.2"/>
<path d="M370.7 236.1L377.5 269.4M371.9 235.8L379.7 268.8M373.2 235.2L381.7 268.1M376.6 234L388.1 258.6M378.1 233.6L390.4 257.8M379.2 233L392.5 257.3M377 269.6L382.3 268M373.1 266.4C373.1 266.4 388.4 261.9 400.1 257.2M372.9 268C372.9 268 392.3 263 400.1 259.2M378.8 283.8L379.8 287.1L382.6 286.1L381.7 283M386.7 281.7L387.7 284.7L390.4 283.8L389.4 280.8M373.4 263.2L373.2 259L398.7 251.3L400.1 254.9M384.1 255.7L385.4 259.5M392.9 253.1L394.6 256.7M395 252.4L396.6 255.7M397.1 251.7L398.6 255.3M398.6 251.3L401.5 249.7L402.7 252.8M400.1 250.5L401.5 253.8" stroke="black" stroke-width="1.2" stroke-miterlimit="10"/>
<path d="M336.9 299.1C336.9 299.1 331.9 294 336.9 289.1C336.9 289.1 331.4 286.5 332.2 282.1M345.8 303.1C345.8 303.1 340.6 303.8 342.1 293.7C342.1 293.7 340 297.7 339.2 299.7C338.887 300.695 338.914 301.765 339.276 302.742C339.638 303.72 340.315 304.549 341.2 305.1C342.2 305.7 346.8 306.9 348.2 303.9M340 287.7C340 287.7 337.8 289.6 339.4 293.1M342.1 288.1C342.1 288.1 342.3 291.6 344.1 293.5M343.7 286.8C343.7 286.8 343.7 290.8 346.5 293.4M345.1 285.4C345.1 285.4 345.1 289.9 348.4 292.8M361.9 292.1C361.9 292.1 363.6 288.2 367.1 288.5C367.1 288.5 365.5 289.3 365.5 291C365.5 291 365.2 294 368.3 294.2C368.3 294.2 370.8 294.6 372.2 293.2" stroke="#00247D" stroke-width="1.2" stroke-miterlimit="10"/>
<path d="M370.5 309.1C370.5 309.1 361.5 304.9 362.5 299C362.5 299 362.9 295.4 366.5 293.6M364.5 297.4C364.5 297.4 363.7 299.9 365.5 301.7M366.5 295.7C366.5 295.7 365.4 298.5 367.3 300.5M368.7 294.2C368.7 294.2 367.4 296.6 368.9 298.7M360.6 309.7C360.6 309.7 365.4 314 369.2 314M359 311.1C359 311.1 363.6 314.7 366.4 315.3M357.4 312.1C357.4 312.1 363 317 366.4 317.3M380.1 321.9C380.1 321.9 374.7 324.9 379 328.1M376.6 318.7L385.6 314.1M378.8 320.3C378.8 320.3 387.9 314.8 390.5 313.6M383.5 320.8C383.5 320.8 391.2 315.6 395.5 313.3M388.6 320.4C388.6 320.4 394 316.4 399.1 313.3M400.9 308.2C400.9 308.2 398.3 304.3 389.7 308.2C389.7 308.2 392.9 305.3 399.1 303M407.7 286.7C407.7 286.7 408.4 289.8 407.7 291.7" stroke="#00247D" stroke-width="1.2" stroke-miterlimit="10"/>
<path d="M393.9 301.7C393.9 301.7 395.6 299.1 400.2 297.7C400.2 297.7 401.4 300.7 404.9 300.2C404.9 300.2 410.2 299.1 408.5 293.2C408.5 293.2 407.5 289 401.4 288.5M419.4 281.2C419.4 281.2 425.6 282.4 425.4 287.3C425.4 287.3 426.1 294.9 418.1 296.3M424.6 284.3C424.6 284.3 426.3 280.6 430.1 279.1M425.6 276.9C425.6 276.9 427.2 279.7 428.3 280M424.7 279L426.7 281.5M424.1 281C424.555 281.606 425.094 282.145 425.7 282.6M392.3 251.8C392.3 251.8 393.5 249.8 396.6 250.6M408.8 266.4C408.8 266.4 410.7 258.6 417.2 261.4M414.6 260.8C414.6 260.8 415.2 257.2 413.6 255.3M410.1 260.5C410.1 260.5 410.9 262 410.1 263.2" stroke="#00247D" stroke-width="1.2" stroke-miterlimit="10"/>
<path d="M423.5 341C423.5 341 430.9 337.7 428.7 331.9C428.7 331.9 428 329.9 426.3 330.1C426.3 330.1 423.4 330.2 423.9 334.1C423.9 334.1 424.9 337.9 423.4 341.1L423.5 341Z" fill="#64B4D1" stroke="#00247D" stroke-width="1.2" stroke-miterlimit="2.6"/>
<path d="M426.2 337.6C426.2 337.6 427.8 336.1 427.6 333.3C427.6 333.3 427.5 332.7 427.7 332.6C427.7 332.6 428.1 332.5 428.1 333.2C428.1 333.2 428.6 336.1 426.6 337.7C426.6 337.7 426.6 338 426.3 337.9C426.3 337.9 426.1 337.9 426.2 337.6Z" fill="white"/>
<path d="M434 335.8C434 335.8 439.3 332.6 436.4 327.1C436.4 327.1 435.6 325.6 434 325.9C434 325.9 430.8 326.9 433.3 331.4C433.3 331.4 434.5 334.3 434 335.9V335.8Z" fill="#64B4D1" stroke="#00247D" stroke-width="1.2" stroke-miterlimit="2.6"/>
<path d="M435.4 328.4C435.4 328.4 435.1 328.1 435.4 327.8L435.7 328.2C435.7 328.2 437.3 329.9 436.1 332.6C436.1 332.6 435.9 333 435.6 332.8V332.5C435.6 332.5 436.8 330.1 435.4 328.5V328.4Z" fill="white"/>
<path d="M418.4 339.6C418.4 339.6 412.6 338.2 413.7 332.1C413.7 332.1 414.2 329.5 416.7 329.9C416.7 329.9 419.7 330.7 417.8 334.5C417.8 334.5 416.6 337.1 418.4 339.6Z" fill="#64B4D1" stroke="#00247D" stroke-width="1.2" stroke-miterlimit="2.6"/>
<path d="M416.2 332.5C416.2 332.5 416 332.1 416.2 332C416.2 332 416.5 332 416.6 332.2C416.6 332.2 417.2 333.2 416.8 334.6C416.8 334.6 416.3 335.5 416.5 336.4C416.5 336.4 416.5 336.7 416.3 336.8L416 336.4C416 336.4 415.8 335.6 416.3 334.6C416.3 334.6 416.9 333.2 416.3 332.5H416.2Z" fill="white"/>
<path d="M422.6 328.3C422.6 328.3 425.9 326.4 428.6 328.6C428.6 328.6 428.3 327.4 426.2 326.9C426.2 326.9 425.1 323.7 422 324C422 324 423.2 325.6 425 326.8C425 326.8 423.2 327 422.6 328.3ZM425 319.6C425 319.6 427.4 321.3 428.2 322.4C428.2 322.4 429 321.2 430.2 320.6C430.2 320.6 428.9 320.3 428.2 320.9C428.2 320.9 427 319.9 425.1 319.6H425Z" fill="black"/>
<path d="M412.1 326.6C412.1 326.6 411.9 325.8 412.5 325C412.5 325 412.8 324.4 412.7 323.5M436.1 275.5C436.1 275.5 439.5 275.3 440.1 272.5M446.1 270.7C446.1 270.7 444.9 270.7 443.8 271.9C443.8 271.9 443 273.1 441.8 272.9" stroke="black" stroke-width="1.2" stroke-miterlimit="10"/>
<path d="M431 265.2C431 265.2 432.7 265.2 433.7 264.4C433.7 264.4 434.7 263.7 435.4 264.8C435.4 264.8 436.4 266.4 434.5 267.1C434.5 267.1 432.4 268.3 435.8 270.5C435.8 270.5 431.7 268.9 433.4 266.9C433.4 266.9 435.2 265.7 434.5 265.2C434.5 265.2 434.3 264.8 433.5 265.2C432.8 265.8 431.5 265.6 430.9 265.2H431Z" fill="black"/>
<path d="M433.3 221.6C433.3 221.6 434.2 220.4 433.8 217.2C433.4 214 436.4 213.5 437.5 214.4C437.5 214.4 438.7 215.4 437.5 217.5C436.646 219.333 435.153 220.79 433.3 221.6Z" fill="#64B4D1" stroke="#00247D" stroke-width="1.2" stroke-miterlimit="2.6"/>
<path d="M434.4 219C434.4 219 435.6 217.9 435 215.4L435.1 215.2H435.5C435.5 215.2 436.1 218 434.9 219.4C434.9 219.4 434.6 219.7 434.4 219.4V219Z" fill="white"/>
<path d="M432.5 220.4C432.5 220.4 432.4 219 430.1 216.8C427.7 214.4 429.6 212.4 431.1 212.4C431.1 212.4 432.5 212.4 433.1 214.7C433.583 216.611 433.371 218.631 432.5 220.4Z" fill="#64B4D1" stroke="#00247D" stroke-width="1.2" stroke-miterlimit="2.6"/>
<path d="M432.1 217.4C432.1 217.4 432.1 215.8 430 214.1V213.7H430.3C430.3 213.7 432.6 215.5 432.6 217.5C432.6 217.5 432.6 217.8 432.4 217.8C432.4 217.8 432.1 217.8 432.1 217.4Z" fill="white"/>
<path d="M429.3 219.3C429.3 219.3 428.7 218.3 425.8 217.2C423 216.2 423.7 213.7 424.8 213.2C424.8 213.2 426.2 212.7 427.5 214.3C428.682 215.696 429.321 217.471 429.3 219.3Z" fill="#64B4D1" stroke="#00247D" stroke-width="1.2" stroke-miterlimit="2.6"/>
<path d="M428 217.3C428 217.3 427.4 215.9 424.7 215.2C424.7 215.2 424.5 215.2 424.5 214.9C424.5 214.9 424.5 214.7 424.9 214.8C424.9 214.8 427.7 215.4 428.6 217.2L428.4 217.5C428.4 217.5 428.2 217.5 428.1 217.3H428Z" fill="white"/>
<path d="M431 220.4C431 220.4 429.7 220.9 426.6 219.4C423.6 217.9 422.2 220.5 422.8 221.7C422.8 221.7 423.3 223.3 425.7 222.9C427.733 222.789 429.655 221.935 431.1 220.5L431 220.4Z" fill="#64B4D1" stroke="#00247D" stroke-width="1.2" stroke-miterlimit="2.6"/>
<path d="M424 221.4C424 221.4 425.3 222.4 427.8 221.4H428.2C428.2 221.4 428.2 221.6 428 221.7C428 221.7 425.3 222.9 423.5 221.8C423.5 221.8 423.3 221.8 423.5 221.5H423.9L424 221.4Z" fill="white"/>
<path d="M426.6 210.7C426.6 210.7 428.1 211.5 427.8 213.2" stroke="black" stroke-width="1.2" stroke-miterlimit="2.6"/>
<path d="M433.3 211C433.3 211 433.9 212.9 433.3 214" stroke="black" stroke-width="1.2" stroke-miterlimit="10"/>
<path d="M327.6 221.6C327.6 221.6 326.7 220.4 327.1 217.2C327.4 213.8 324.6 213.5 323.5 214.4C323.5 214.4 322.3 215.4 323.4 217.5C324.254 219.333 325.747 220.791 327.6 221.6Z" fill="#64B4D1" stroke="#00247D" stroke-width="1.2" stroke-miterlimit="2.6"/>
<path d="M326.5 219C326.5 219 325.5 217.9 325.9 215.4V215.2H325.4C325.4 215.2 324.9 218 326.1 219.4C326.1 219.4 326.4 219.7 326.5 219.4V219Z" fill="white"/>
<path d="M328.5 220.4C328.5 220.4 328.5 219 330.9 216.8C333.3 214.4 331.4 212.4 329.9 212.4C329.9 212.4 328.4 212.4 327.9 214.7C327.417 216.611 327.629 218.631 328.5 220.4Z" fill="#64B4D1" stroke="#00247D" stroke-width="1.2" stroke-miterlimit="2.6"/>
<path d="M328.9 217.4C328.9 217.4 328.9 215.8 330.9 214.1C330.9 214.1 331.1 213.8 330.9 213.7H330.7C330.7 213.7 328.3 215.5 328.3 217.5C328.3 217.5 328.3 217.8 328.6 217.8C328.6 217.8 328.9 217.8 328.9 217.4Z" fill="white"/>
<path d="M331.6 219.3C331.6 219.3 332.2 218.3 335.2 217.2C337.9 216.2 337.2 213.7 336 213.2C336 213.2 334.8 212.7 333.4 214.3C332.218 215.696 331.579 217.471 331.6 219.3Z" fill="#64B4D1" stroke="#00247D" stroke-width="1.2" stroke-miterlimit="2.6"/>
<path d="M333 217.3C333 217.3 333.5 215.9 336.1 215.2C336.1 215.2 336.4 215.2 336.4 214.9C336.4 214.9 336.4 214.7 336.1 214.8C336.1 214.8 333.3 215.4 332.5 217.2V217.5C332.5 217.5 332.8 217.5 332.9 217.3H333Z" fill="white"/>
<path d="M329.8 220.4C329.8 220.4 331.3 220.9 334.2 219.4C337.3 217.9 338.7 220.5 338.2 221.7C338.2 221.7 337.6 223.3 335.2 222.9C333.167 222.789 331.245 221.935 329.8 220.5V220.4Z" fill="#64B4D1" stroke="#00247D" stroke-width="1.2" stroke-miterlimit="2.6"/>
<path d="M337 221.4C337 221.4 335.7 222.4 333 221.4H332.8V221.7C332.8 221.7 335.7 222.9 337.3 221.8C337.3 221.8 337.6 221.8 337.3 221.5L337 221.4Z" fill="white"/>
<path d="M334.4 210.7C334.4 210.7 332.8 211.5 333.2 213.2" stroke="black" stroke-width="1.2" stroke-miterlimit="2.6"/>
<path d="M327.6 211C327.6 211 327 212.9 327.6 214" stroke="black" stroke-width="1.2" stroke-miterlimit="10"/>
<path d="M394.1 193.6C394.1 193.6 395.1 196.3 394.7 198.8C394.3 201.2 394.8 201.7 395.7 202.2C396.4 202.5 398 201.8 398.1 200C398.1 200 400.1 203.8 396.4 206.3C396.4 206.3 393.6 208 391.4 205.9C390.5 205 390.2 202.9 390.6 200.9C390.6 200.9 391.2 198.2 390.2 195.4C390.2 195.4 391.7 197 391.4 200.3C391.4 200.3 390.5 206.3 394.9 205.9C394.9 205.9 397.9 205.9 398 202.3C398 202.3 396.8 203.5 395.5 203.1C394.896 202.957 394.371 202.585 394.036 202.063C393.7 201.541 393.58 200.909 393.7 200.3C393.9 198.7 394.3 196 394.1 193.6ZM389.3 203.1C389.3 203.1 389 207.9 384.8 209C384.8 209 385.4 208.1 384.4 205.7C384.4 205.7 383.4 204.5 383.4 202.4C383.4 202.4 382.3 203.4 383.7 206.2C384.7 207.9 383.8 209.8 383.6 209.9C383.2 210 390.6 208.9 389.2 203.2L389.3 203.1ZM383.7 198.6C383.7 198.6 382.7 197.4 382.5 194.8C382.5 192.1 382.1 191.4 381.7 191.2C381.7 191.2 382.2 193.5 382.1 194.8C382.1 196.3 382.1 197.2 382.4 197.8C382.4 197.8 380 198.1 378.6 194.8C377.3 191.5 375.9 191.8 375.1 191.8C375.1 191.8 376 191.9 377.5 194.8C379.2 197.8 379.7 198.5 383.7 198.5V198.6ZM373 191.6C373 191.6 374.2 194.8 374.3 196.4C374.3 196.4 371.2 195.4 370.3 192.9C370.3 192.9 367.1 193.9 368.3 197.6C368.3 197.6 365.5 196.6 364.2 194.4C364.2 194.4 365.7 195.6 367.2 196.1C367.2 196.1 367 193 370.8 191.9C370.8 191.9 371.4 194.6 373.5 195.2L373 191.6ZM378 186.2C378 186.2 379.2 187.7 381.3 187.7C381.933 187.764 382.573 187.659 383.152 187.396C383.732 187.132 384.232 186.719 384.6 186.2C384.6 186.2 384.4 188.8 381.3 188.9C381.3 188.9 378 188.9 378 186.2ZM364.5 204.7L366.5 206.6C366.5 206.6 367.7 207.8 368.5 206.3C368.5 206.3 369.9 203.9 371.5 204.1C371.5 204.1 370.2 204.8 369.1 207.1C369.1 207.1 368.8 207.8 367.9 207.9C367.4 207.9 366.9 208.1 366.1 207.2L364.5 204.8V204.7ZM381.2 175.3C378 175.3 380.7 177.7 380.7 177.7C380.7 181.7 377.7 183.1 375.5 181.9C373.2 180.7 375 177.9 375 177.9C375 177.9 372.6 179.4 374 181.8C375.6 184.2 379.8 183 381.2 180.9C382.8 183.1 386.9 184.2 388.4 181.8C390 179.4 387.5 177.8 387.5 177.8C387.5 177.8 389.3 180.7 387.1 181.8C384.9 183.1 381.7 181.8 381.8 177.8C381.8 177.8 384.6 175.3 381.3 175.3H381.2ZM383.2 170.9C383.2 170.9 384.4 172.9 384.2 175.9C384.2 175.9 385.2 172.9 383.2 171V170.9ZM373.2 175.6C373.2 175.6 373 173.4 370.8 173.2C370.8 173.2 372.8 174.5 373.2 175.6ZM389.3 175.6C389.3 175.6 389.6 173.4 391.7 173.2C391.7 173.2 389.9 174.5 389.3 175.6ZM370 178.8C370 178.8 371.7 179.3 372.6 178.1L370 178.8ZM364.6 165.7C364.6 165.7 366.6 165.6 368.5 168.4C368.5 168.4 366.5 169.4 366.1 170C366.1 170 366.1 169 367.1 168.3C367.1 168.3 366.7 166.9 364.6 165.8V165.7ZM396.6 165.7C396.6 165.7 394.6 165.6 392.8 168.4C392.8 168.4 394.7 169.4 395.2 170C395.2 170 395.2 169 394.2 168.3C394.2 168.3 394.6 166.9 396.6 165.8V165.7ZM381.9 167.9C381.9 167.9 383.6 168.4 385.7 167.2C385.7 167.2 388.4 165.8 390 167.2C390 167.2 388.6 166.5 385.7 167.9C385.7 167.9 383 169.5 381.9 167.9Z" fill="black"/>
<path d="M383.7 169.6C383.7 169.6 385.2 167.1 389.7 167.6C389.7 167.6 388.5 171.2 383.7 169.6Z" fill="white"/>
<path d="M386.7 169.9C387.142 169.9 387.5 169.407 387.5 168.8C387.5 168.192 387.142 167.7 386.7 167.7C386.258 167.7 385.9 168.192 385.9 168.8C385.9 169.407 386.258 169.9 386.7 169.9Z" fill="#784421"/>
<path d="M386.7 169.5C386.976 169.5 387.2 169.187 387.2 168.8C387.2 168.413 386.976 168.1 386.7 168.1C386.424 168.1 386.2 168.413 386.2 168.8C386.2 169.187 386.424 169.5 386.7 169.5Z" fill="black"/>
<path d="M374.2 164.1C374.2 164.1 376.9 164.4 378.7 165.3C378.7 165.3 380.5 166.5 382.5 165C382.5 165 384.8 163.6 386.2 161.9C386.2 161.9 382.8 164.2 381.5 164.6C381.5 164.6 380.3 163.6 379.9 162.3C379.9 162.3 380 161.3 381.9 159.6C381.9 159.6 379.4 160.4 378.9 162.5C379.248 163.356 379.757 164.137 380.4 164.8C380.4 164.8 379.9 165.1 378.7 164.2C378.7 164.2 376 163.4 374.2 164.2V164.1ZM381.3 181.1C379 183.2 381.3 183 381.3 183C381.3 183 383.7 183.2 381.3 181V181.1ZM379.9 167.9C379.9 167.9 378.1 168.4 375.9 167.2C375.9 167.2 373.3 165.8 371.7 167.2C371.7 167.2 373.1 166.5 376 167.9C376 167.9 378.8 169.5 380 167.9H379.9Z" fill="black"/>
<path d="M378.1 169.6C378.1 169.6 376.7 167.1 372.1 167.6C372.1 167.6 373.3 171.2 378.1 169.6Z" fill="white"/>
<path d="M375 169.9C375.442 169.9 375.8 169.407 375.8 168.8C375.8 168.192 375.442 167.7 375 167.7C374.558 167.7 374.2 168.192 374.2 168.8C374.2 169.407 374.558 169.9 375 169.9Z" fill="#784421"/>
<path d="M375 169.5C375.276 169.5 375.5 169.187 375.5 168.8C375.5 168.413 375.276 168.1 375 168.1C374.724 168.1 374.5 168.413 374.5 168.8C374.5 169.187 374.724 169.5 375 169.5Z" fill="black"/>
<path d="M467.3 146.6V308.2C467.3 351.3 381.1 365.4 381.1 365.4C381.1 365.4 294.8 351.4 294.8 308.2V146.6H467.3Z" stroke="black" stroke-width="1.2"/>
</g>
<defs>
<clipPath id="clip0_2_830">
<rect width="512" height="512" fill="white"/>
</clipPath>
</defs>
</svg>
