<svg width="512" height="512" viewBox="0 0 512 512" fill="none" xmlns="http://www.w3.org/2000/svg">
<g clip-path="url(#clip0_2_926)">
<path d="M0 0H512V512H0V0Z" fill="#F7E017"/>
<path d="M0 35.6001V263L512 369.7V248.7L0 35.6001Z" fill="white"/>
<path d="M0 156.4V263.1L512 476.4V369.8L0 156.4Z" fill="#000001"/>
<path d="M238.719 405.119C226.238 403.741 214.229 399.56 203.59 392.888C201.884 391.751 200.319 390.755 200.035 390.755C199.75 390.755 199.608 392.106 199.608 393.671C199.608 398.222 197.759 400.497 193.208 401.706C188.799 402.844 182.115 400.568 176.71 396.017C171.586 391.632 165.604 388.363 159.146 386.417C152.419 384.816 145.338 385.726 139.235 388.977C138.632 389.402 137.957 389.715 137.244 389.902C136.462 389.902 136.533 384.995 137.386 383.502C138.453 381.368 141.013 379.377 144.07 378.311C145.635 377.742 146.915 377.031 146.915 376.675C146.915 376.391 146.346 375.253 145.706 374.115C143.644 370.488 144.497 367.004 148.124 364.231C151.822 361.386 158.079 360.96 163.555 363.022C164.48 363.416 165.43 363.749 166.399 364.017C167.11 364.017 166.684 362.951 164.693 360.035C162.417 356.693 161.919 355.057 162.204 351.004C162.399 348.523 163.473 346.193 165.233 344.433C166.993 342.674 169.323 341.6 171.804 341.404C175.928 341.12 178.488 342.542 184.604 348.302C201.029 364.834 222.602 375.27 245.759 377.884C251.661 378.595 263.395 378.24 270.292 377.173C292.144 373.527 312.404 363.422 328.461 348.16C333.012 343.893 335.146 342.755 338.915 342.755C342.115 342.755 344.39 343.751 346.737 346.311C348.87 348.657 349.581 350.862 349.297 354.488C349.155 356.764 348.799 357.831 347.448 360.106C345.457 363.306 345.812 363.662 349.723 362.097C355.128 359.964 361.741 360.96 365.297 364.373C368.426 367.36 368.71 370.346 366.292 374.328C365.368 375.822 364.657 377.173 364.657 377.457C364.657 377.884 365.368 378.026 368.568 378.595C372.835 379.306 375.323 382.435 375.323 387.271C375.323 388.693 375.11 389.902 374.897 389.902C374.683 389.902 373.048 389.262 371.341 388.551C366.363 386.488 363.519 385.991 357.688 386.062C353.279 386.062 351.786 386.275 348.728 387.271C343.609 389.051 338.896 391.83 334.861 395.448C330.31 399.502 327.466 400.782 323.057 400.711C318.932 400.711 316.159 399.502 314.666 397.155C313.884 395.875 313.741 395.164 313.955 392.32C314.097 390.471 314.026 388.977 313.955 388.977C313.741 388.977 312.177 389.973 310.399 391.182C306.34 394.092 301.917 396.459 297.244 398.222C278.528 405.001 258.498 407.362 238.719 405.119Z" fill="#CF1126"/>
<path d="M246.257 373.475C232.502 372.211 219.175 368.023 207.169 361.192C195.163 354.361 184.754 345.045 176.639 333.866C159.288 310.257 153.884 279.04 159.146 250.524C161.99 237.511 167.679 224.497 177.279 215.253C169.365 231.677 167.187 250.28 171.093 268.088C177.493 303.502 207.359 333.44 243.128 338.631C257.35 342.684 271.928 338.346 285.439 334.008C315.306 323.484 338.061 295.182 340.763 263.537C343.11 246.471 340.55 228.622 332.799 213.049C337.208 215.395 342.755 224.569 346.026 230.684C357.403 252.729 357.901 279.111 351.217 302.648C342.115 332.586 319.217 358.826 288.995 368.355C275.207 372.663 260.744 374.398 246.328 373.475H246.257Z" fill="#CF1126"/>
<path d="M108.088 334.151C106.311 333.866 104.32 335.644 105.031 337.493C106.311 339.342 108.586 340.337 110.577 341.191C115.823 343.239 121.455 344.113 127.075 343.751C131.198 343.752 135.29 343.03 139.164 341.617C141.297 340.906 143.999 340.195 144.853 337.777C145.777 336.284 144.142 334.72 142.648 335.004C140.515 335.502 138.382 336.426 136.248 337.066C131.559 338.394 126.671 338.875 121.813 338.488C118.277 337.974 114.831 336.969 111.573 335.502C110.435 335.004 109.368 334.293 108.088 334.151Z" fill="#CF1126"/>
<path d="M110.079 326.755C108.302 326.471 106.737 328.604 107.448 330.311C108.87 332.302 111.217 333.369 113.422 334.293C117.267 335.801 121.382 336.503 125.51 336.355H126.577C130.088 336.37 133.568 335.694 136.817 334.364C138.737 333.582 141.155 332.8 142.008 330.666C142.648 329.457 142.15 327.751 140.586 327.609C139.306 327.609 138.097 328.462 136.817 328.817C132.185 330.73 127.163 331.511 122.168 331.093C119.039 330.737 116.124 329.6 113.279 328.249C112.213 327.751 111.288 326.969 110.079 326.826V326.755Z" fill="#CF1126"/>
<path d="M112.568 319.715C111.004 319.502 109.937 321.28 110.222 322.631C110.435 323.911 111.502 324.764 112.426 325.475C116.298 328.157 120.949 329.482 125.653 329.244H126.791C129.748 329.222 132.663 328.542 135.324 327.253C137.102 326.542 139.164 325.617 139.804 323.555C140.088 322.631 140.231 321.28 139.164 320.711C138.026 320.142 136.959 321.066 135.964 321.422C132.562 323.209 128.784 324.16 124.942 324.195C121.644 324.064 118.435 323.084 115.626 321.351C114.559 320.853 113.706 319.929 112.568 319.715Z" fill="#CF1126"/>
<path d="M86.3994 215.253C84.1239 217.6 85.9017 221.866 85.6883 224.853C86.9683 234.24 88.4617 243.698 91.9461 252.586C96.2128 261.12 105.315 265.742 110.791 273.351C112.782 276.978 112.071 281.386 112.497 285.44C112.782 296.32 112.711 307.271 112.497 318.151C117.475 320.711 122.808 323.129 128.497 322.204C131.839 321.422 138.097 320.924 138.808 317.582L138.097 261.049C136.177 255.289 130.275 252.302 125.937 248.604C122.312 245.025 118.938 241.2 115.839 237.155C113.991 233.955 106.666 232.889 109.297 238.293C110.862 243.058 114.773 246.542 115.768 251.52C115.982 254.293 119.324 259.342 116.479 260.906C114.727 257.816 112.073 255.334 108.871 253.795C105.742 251.449 100.551 250.453 99.4128 246.329C98.3882 240.462 95.6691 235.024 91.5905 230.684C92.6572 225.422 91.5905 218.809 87.0394 215.395L86.3994 215.253Z" fill="#CF1126"/>
<path d="M93.4395 216.32C91.3062 216.675 91.4484 219.306 92.3729 220.729C93.4269 223.789 93.6959 227.066 93.1551 230.258C97.0546 234.6 99.6651 239.944 100.693 245.689C100.693 247.822 102.968 248.533 104.462 249.6C107.946 251.804 111.786 253.44 114.915 256.213C115.555 256.924 116.053 257.635 115.626 256.213C115.128 254.364 114.915 252.373 113.493 251.022C111.502 248.889 109.084 247.04 106.24 246.471C106.026 243.484 104.604 240.782 103.324 238.222C101.902 235.733 100.408 233.102 97.9906 231.538C97.9906 227.2 97.9907 222.649 96.1418 218.595C95.5729 217.6 94.7195 216.391 93.4395 216.32Z" fill="#CF1126"/>
<path d="M99.3416 218.027C97.9194 218.453 98.2039 220.302 98.6305 221.369C99.2516 224.457 99.4905 227.609 99.3416 230.755C102.115 232.889 103.751 236.018 105.315 239.004C106.311 240.995 107.164 243.129 107.519 245.333C109.724 246.044 111.644 247.467 113.351 248.889C112.639 246.898 111.217 245.333 110.151 243.413C109.084 241.493 108.017 239.431 107.519 237.227C105.386 235.022 104.248 231.822 104.675 228.693C104.817 225.351 103.751 221.867 101.475 219.307C100.906 218.738 100.195 218.098 99.3416 218.027Z" fill="#CF1126"/>
<path d="M106.097 219.022C105.244 219.164 104.817 219.875 104.391 220.515C104.177 221.155 104.96 221.795 105.102 222.507C106.031 224.854 106.373 227.393 106.097 229.902C106.026 231.68 106.666 233.458 107.52 234.88C107.679 234.332 108.004 233.847 108.449 233.491C108.895 233.135 109.439 232.924 110.008 232.889C110.364 232.889 111.004 233.031 110.72 232.391C110.435 228.978 109.937 225.564 108.728 222.435C108.378 221.203 107.688 220.094 106.737 219.235C106.595 219.093 106.311 218.951 106.026 219.022H106.097Z" fill="#CF1126"/>
<path d="M403.91 334.151C405.688 333.866 407.679 335.644 406.968 337.493C405.688 339.342 403.412 340.337 401.421 341.191C396.175 343.239 390.544 344.113 384.923 343.751C380.8 343.752 376.709 343.03 372.835 341.617C370.701 340.906 367.999 340.195 367.146 337.777C366.221 336.284 367.857 334.72 369.35 335.004C371.484 335.502 373.617 336.426 375.75 337.066C380.439 338.394 385.328 338.875 390.186 338.488C393.721 337.974 397.168 336.969 400.426 335.502C401.563 335.004 402.63 334.293 403.91 334.151Z" fill="#CF1126"/>
<path d="M401.919 326.755C403.697 326.471 405.261 328.604 404.55 330.311C403.128 332.302 400.781 333.369 398.577 334.293C394.731 335.801 390.616 336.503 386.488 336.355H385.421C381.911 336.37 378.431 335.694 375.181 334.364C373.261 333.582 370.844 332.8 369.99 330.666C369.35 329.457 369.848 327.751 371.413 327.609C372.693 327.609 373.901 328.462 375.181 328.817C379.814 330.73 384.836 331.511 389.83 331.093C392.959 330.737 395.875 329.6 398.719 328.249C399.786 327.751 400.71 326.969 401.919 326.826V326.755Z" fill="#CF1126"/>
<path d="M399.43 319.715C400.995 319.502 402.061 321.28 401.777 322.631C401.563 323.911 400.497 324.764 399.572 325.475C395.7 328.157 391.05 329.482 386.346 329.244H385.208C382.251 329.222 379.336 328.542 376.675 327.253C374.897 326.542 372.835 325.617 372.195 323.555C371.91 322.631 371.768 321.28 372.835 320.711C373.972 320.142 375.039 321.066 376.035 321.422C379.436 323.209 383.215 324.16 387.057 324.195C390.355 324.064 393.563 323.084 396.372 321.351C397.439 320.853 398.292 319.929 399.43 319.715Z" fill="#CF1126"/>
<path d="M425.599 215.253C427.875 217.6 426.097 221.866 426.31 224.853C425.03 234.24 423.537 243.698 420.052 252.586C415.786 261.12 406.684 265.742 401.208 273.351C399.217 276.978 399.928 281.386 399.501 285.44C399.217 296.32 399.288 307.271 399.501 318.151C394.524 320.711 389.19 323.129 383.501 322.204C380.159 321.422 373.901 320.924 373.19 317.582L373.901 261.049C375.821 255.289 381.724 252.302 386.061 248.604C389.687 245.025 393.061 241.2 396.159 237.155C398.008 233.955 405.332 232.889 402.701 238.293C401.137 243.058 397.226 246.542 396.23 251.52C396.017 254.293 392.675 259.342 395.519 260.906C397.271 257.816 399.926 255.334 403.128 253.795C406.257 251.449 411.448 250.453 412.586 246.329C413.61 240.462 416.329 235.024 420.408 230.684C419.341 225.422 420.408 218.809 424.959 215.395L425.599 215.253Z" fill="#CF1126"/>
<path d="M418.559 216.32C420.693 216.675 420.55 219.306 419.626 220.729C418.572 223.789 418.303 227.066 418.844 230.258C414.944 234.6 412.334 239.944 411.306 245.689C411.306 247.822 409.03 248.533 407.537 249.6C404.053 251.804 400.213 253.44 397.084 256.213C396.444 256.924 395.946 257.635 396.373 256.213C396.87 254.364 397.084 252.373 398.506 251.022C400.497 248.889 402.915 247.04 405.759 246.471C405.973 243.484 407.395 240.782 408.675 238.222C410.097 235.733 411.59 233.102 414.008 231.538C414.008 227.2 414.008 222.649 415.857 218.595C416.426 217.6 417.279 216.391 418.559 216.32Z" fill="#CF1126"/>
<path d="M412.657 218.027C414.079 218.453 413.795 220.302 413.368 221.369C412.747 224.457 412.508 227.609 412.657 230.755C409.884 232.889 408.248 236.018 406.684 239.004C405.688 240.995 404.835 243.129 404.479 245.333C402.275 246.044 400.355 247.467 398.648 248.889C399.359 246.898 400.781 245.333 401.848 243.413C402.915 241.493 403.981 239.431 404.479 237.227C406.612 235.022 407.75 231.822 407.324 228.693C407.181 225.351 408.248 221.867 410.524 219.307C411.092 218.738 411.804 218.098 412.657 218.027Z" fill="#CF1126"/>
<path d="M405.901 219.022C406.755 219.164 407.181 219.875 407.608 220.515C407.821 221.155 407.039 221.795 406.897 222.507C405.968 224.854 405.626 227.393 405.901 229.902C405.972 231.68 405.332 233.458 404.479 234.88C404.319 234.332 403.995 233.847 403.549 233.491C403.104 233.135 402.559 232.924 401.99 232.889C401.635 232.889 400.995 233.031 401.279 232.391C401.563 228.978 402.061 225.564 403.27 222.435C403.62 221.203 404.31 220.094 405.261 219.235C405.403 219.093 405.688 218.951 405.972 219.022H405.901Z" fill="#CF1126"/>
<path d="M252.941 338.489C248.138 337.969 243.584 336.086 239.817 333.062C236.049 330.038 233.225 325.999 231.679 321.422C231.893 319.857 233.813 322.275 234.737 322.489C236.471 323.522 238.415 324.154 240.426 324.337C242.915 325.404 244.479 327.893 246.897 329.244C248.035 330.097 252.017 331.804 251.235 329.031C250.31 327.609 249.67 325.76 250.524 324.053C251.804 321.137 253.866 318.577 255.999 316.089C257.493 315.591 258.559 318.649 259.626 319.644C261.119 321.991 262.968 324.835 262.044 327.68C261.19 328.746 260.621 331.946 262.968 330.951C265.812 329.671 268.159 327.537 270.506 325.546C272.639 324.124 275.27 324.053 277.404 322.702C278.47 322.489 280.532 320.497 280.959 321.564C279.685 324.743 277.909 327.696 275.697 330.311C272.277 334.37 267.55 337.111 262.328 338.062C259.199 338.631 256.07 338.773 252.941 338.489Z" fill="#CF1126"/>
<path d="M264.177 327.253C264.39 325.333 263.964 323.413 262.968 321.564C261.475 318.577 259.413 315.875 257.279 313.102C255.288 311.964 254.221 315.733 252.941 316.8C250.879 319.857 248.319 322.986 248.177 326.755C247.039 328.533 244.906 325.333 243.981 324.266C242.086 321.83 241.083 318.819 241.137 315.733C240.965 310.725 241.837 305.737 243.697 301.084C245.119 297.102 247.324 293.262 247.11 288.995C247.253 285.653 246.613 282.097 243.981 279.893C241.421 277.902 245.617 277.475 246.897 278.471C249.173 278.684 250.381 282.382 252.444 281.457C253.226 279.537 253.439 277.191 255.146 275.697C256.781 273.422 258.488 276.622 259.057 278.186C260.266 279.466 259.057 282.809 260.906 282.88C263.181 281.244 264.817 278.613 267.733 277.973C268.941 277.262 270.932 277.973 269.368 279.253C267.235 281.315 265.386 283.804 264.959 286.862C264.319 290.631 265.244 294.471 266.879 297.813C270.079 304.497 272.568 312.035 270.932 319.502C270.221 322.773 267.946 325.617 265.244 327.537C264.888 327.751 264.319 327.751 264.177 327.253Z" fill="#CF1126"/>
<path d="M260.764 277.049C259.806 275.124 258.449 273.427 256.781 272.071C255.075 272.071 254.008 274.204 252.87 275.342C252.088 276.835 251.093 279.324 249.101 277.404C245.901 275.555 245.404 271.502 245.404 268.16C245.19 262.755 247.395 257.706 249.315 252.8C250.524 249.742 250.239 246.258 249.457 243.129C248.533 239.573 245.617 237.013 243.413 234.169C243.555 233.102 246.399 233.671 247.466 233.884C249.884 234.524 251.306 236.586 253.084 238.151C254.364 237.724 253.795 235.164 254.435 233.955C254.435 232.249 256.71 230.044 257.635 232.462C259.057 234.026 257.635 237.084 259.413 238.009C261.119 237.369 261.973 235.52 263.537 234.666C264.354 234.138 265.293 233.827 266.264 233.765C267.235 233.703 268.206 233.891 269.084 234.311C269.724 235.875 267.235 237.155 266.524 238.578C265.102 240.35 264.117 242.432 263.648 244.656C263.178 246.879 263.238 249.181 263.821 251.378C264.817 254.933 266.524 258.133 267.164 261.689C267.932 265.743 267.81 269.916 266.808 273.92C266.168 276.338 264.106 277.902 261.973 278.898C261.404 278.4 261.119 277.689 260.764 277.049Z" fill="#CF1126"/>
<path d="M250.026 232.462C247.608 230.684 246.826 229.049 246.826 225.706C246.826 224.071 247.182 223.147 248.248 221.582C249.955 219.307 249.67 218.595 247.324 219.235C243.555 220.302 241.777 219.378 241.635 216.178C241.635 214.613 241.919 213.973 243.982 211.413C245.688 209.422 246.328 208.355 245.973 208C245.617 207.715 243.626 209.422 239.573 213.547C237.031 216.226 234.323 218.744 231.466 221.084C224.497 225.778 217.813 226.489 214.755 222.862C213.19 221.013 213.262 220.018 215.039 218.88C216.172 218.115 217.22 217.233 218.168 216.249C221.653 213.067 225.495 210.299 229.617 208C232.177 206.72 232.746 205.867 231.11 205.867C228.977 205.867 222.222 210.275 217.03 214.969C215.537 216.391 213.333 217.955 212.195 218.524C209.031 219.678 205.607 219.925 202.311 219.235C200.746 218.738 197.831 216.035 197.831 215.04C197.831 214.827 198.542 214.258 199.253 213.76C200.412 213.105 201.507 212.343 202.524 211.484C206.648 207.929 214.47 204.16 220.657 202.809C222.648 202.453 221.866 201.387 219.662 201.529C213.134 202.775 207.023 205.636 201.884 209.849C195.982 214.755 187.093 214.258 184.248 208.924C183.751 208 183.395 207.147 183.537 207.004C188.574 205.733 193.443 203.871 198.044 201.458C202.006 199.122 206.372 197.554 210.915 196.835C212.906 196.48 213.048 195.484 211.128 195.271C208.568 194.987 204.728 196.267 197.973 199.538C189.226 203.875 186.737 204.658 182.186 204.373C177.919 204.089 175.573 203.022 172.231 199.822C169.955 197.689 166.826 192.355 167.395 191.715C171.087 192.492 174.861 192.802 178.631 192.64C184.533 192.64 186.168 192.498 189.297 191.573C195.41 189.636 201.172 186.731 206.364 182.969C213.683 176.777 222.946 173.354 232.533 173.298C241.35 173.298 246.897 175.289 251.875 180.338C253.582 182.044 255.004 183.111 255.217 182.898C255.43 182.684 255.644 179.698 255.715 176.284C255.715 176.284 258.346 176 258.915 176.782C258.915 182.258 258.915 182.755 259.768 182.755C260.266 182.755 260.835 182.187 261.19 181.333C261.902 179.555 264.746 177.067 267.733 175.502C274.133 172.302 285.297 172.16 294.257 175.289C298.541 176.914 302.547 179.193 306.133 182.044C311.364 185.724 317.117 188.6 323.199 190.578C328.035 192 336.71 192.355 341.048 191.289C342.317 190.995 343.598 190.758 344.888 190.578C346.524 190.578 343.75 195.982 340.479 199.182C334.506 205.013 326.755 204.942 315.875 199.111C309.048 195.413 300.941 193.422 300.941 195.413C300.941 195.84 301.368 196.124 302.008 196.124C304.355 196.124 308.906 197.689 315.306 200.747C319.327 203.065 323.737 204.632 328.319 205.369C329.955 205.369 330.026 206.435 328.461 208.711C326.826 211.129 324.053 212.267 320.141 212.267C316.373 212.267 314.239 211.484 310.897 208.711C305.208 204.018 291.27 198.755 291.768 201.6C291.91 202.098 292.55 202.453 294.044 202.667C300.049 203.971 305.672 206.649 310.47 210.489L314.666 213.547C315.448 213.973 315.448 214.115 314.808 215.324C313.813 217.315 311.11 218.809 308.266 219.093C304.568 219.52 301.297 218.382 297.955 215.538C290.844 209.635 284.23 205.369 282.097 205.369C280.319 205.369 281.101 206.364 284.23 208C288.278 210.144 292.051 212.77 295.466 215.822C296.888 217.173 298.524 218.453 299.021 218.738C300.373 219.449 300.301 220.444 298.879 222.293C297.457 224.142 295.039 224.995 291.981 224.64C285.866 224 281.03 221.084 273.493 213.262C271.7 211.26 269.75 209.406 267.662 207.715C266.666 207.715 267.306 209.067 269.226 211.271C271.644 213.902 272.07 215.395 271.146 217.671C270.364 219.52 269.013 220.018 266.31 219.235C263.466 218.524 263.039 219.235 264.888 221.44C267.59 224.924 267.235 229.049 263.822 231.964C263.116 232.644 262.298 233.198 261.404 233.6C261.119 233.6 260.408 232.889 259.768 231.893C257.635 228.622 255.715 228.622 253.582 231.893C253.132 232.62 252.657 233.332 252.159 234.026C251.44 233.517 250.728 232.995 250.026 232.462Z" fill="#CF1126"/>
<path d="M260.764 165.689L257.066 168.533L253.795 166.115V185.884H260.764V165.689Z" fill="#CF1126"/>
<path d="M238.15 145.28C237.504 153.275 235.331 161.071 231.75 168.249L239.644 160.924L245.119 167.467L251.093 160.782L257.137 166.471L262.968 160.569L269.013 167.68L274.275 161.849L283.235 168.249C279.964 161.138 275.626 155.022 276.124 144.924C267.519 151.324 246.968 152.462 238.15 145.209V145.28Z" fill="#CF1126"/>
<path d="M253.866 140.515C250.666 140.515 247.324 140.587 244.337 141.227C242.359 141.541 240.469 142.268 238.79 143.36C239.004 149.475 267.946 151.964 275.697 143.502C273.953 142.295 271.96 141.493 269.866 141.155C267.021 140.587 263.75 140.587 260.692 140.444V145.493H253.866V140.515Z" fill="#CF1126"/>
<path d="M259.484 109.511H255.004V144.64H259.555L259.484 109.511Z" fill="#CF1126"/>
<path d="M259.484 110.364L257.777 127.218L275.057 135.68L266.31 123.947L278.257 120.035L259.484 110.364ZM257.564 106.027C254.932 106.027 253.012 107.022 253.012 108.16C253.012 109.298 254.932 110.293 257.564 110.293C260.195 110.293 262.115 109.298 262.115 108.16C262.115 107.022 260.195 106.027 257.564 106.027Z" fill="#CF1126"/>
<path d="M249.6 401C252.5 400 254.1 398.3 255.2 395C255.678 393.742 256.013 392.433 256.2 391.1C255.9 390.1 254.6 390.1 253.3 391.3C252.3 392 252.3 392.4 252.5 394C253.2 398 251.8 399 244.2 399.8C243.5 399.8 241.3 399.8 239.4 399.5C235.8 399.1 234.6 399.5 235.9 400.5C236.57 400.959 237.314 401.297 238.1 401.5C240.1 402 247.5 401.7 249.6 400.9V401ZM265.3 400.3C265.7 399.9 267.1 399.3 268.5 398.8C270.3 398.2 271.3 397.6 272 396.4C274.2 393.1 273.8 390.3 270.6 386.4C268.8 384.4 268 384.4 266.6 386.8C265.4 388.8 265.4 388.8 267.2 389.3C268.2 389.5 269 390.3 269.5 391.1C271.4 394.4 270.8 396.4 268 396.4C265.4 396.4 264.7 396.8 264 398.4C263.714 399.073 263.513 399.778 263.4 400.5C263.4 401.2 264.4 401.1 265.3 400.3ZM260.1 396.5C260.6 395.2 260.8 392.9 260.7 388.1C260.7 384.4 260.6 381.3 260.4 381.1C260 380.8 257.9 382.1 257.6 383C257.5 383.5 257.7 384.5 258.1 385.3C258.8 386.6 258.9 387.8 258.7 392.8C258.4 399.1 258.8 400.1 260.1 396.5Z" fill="#F7E017"/>
<path d="M248.1 393.6C248.4 392.4 248.7 390 248.8 388.2C249 386.5 249.3 384.2 249.6 383.2C250.4 380.8 249.6 380.2 247.6 381.6L246.2 382.6L246.5 386.1C246.8 389.3 246.3 395.2 245.5 397.5C245.4 398.2 245.7 398 246.5 397.1C247.282 396.027 247.827 394.8 248.1 393.5V393.6ZM237.4 395.3C240 393.1 239.7 389.3 240.3 386.3C240.3 384.3 241.6 381.9 240.7 380.2C238.3 380.6 236.7 382.9 238 385.2C238.1 387.9 238 390.8 236.7 393.2C235.6 394.7 232 394.2 232.2 392.1C233.1 388.8 229.2 390.4 227.6 391.3C226.4 392.1 223.9 392.2 224.8 390.1C224.2 387.3 220.7 389.1 218.8 389.1C217 389.1 218.6 385.4 216 386.1C211.2 385.6 205.8 386.1 201.6 383.1C199.2 382 199.6 379.1 200.8 377.1C202.4 374.5 202.8 371.2 205.2 369.2C207.6 366.9 203 367.9 201.9 368.7C199.6 369.9 201.7 373.2 199.9 375C198.7 377 197.2 379.5 194.7 379.2C190.9 378.5 188.7 375 186.1 372.7C183.8 372.2 185.1 376.4 186.3 377.3C188.669 379.055 191.35 380.345 194.2 381.1C197 380.6 197.1 384.3 199.5 384.9C203.9 386.9 208.8 387.5 213.5 387.8C215.5 387.9 214.4 391.3 216.9 390.6C218.3 391 221.4 390.1 221.5 391.7C219.5 394.2 223.5 394.2 225.1 393.7C227.1 393.4 229.5 392.7 230.1 395.3C231.7 397.1 234.7 396.8 236.6 395.8L237.4 395.3Z" fill="#F7E017"/>
<path d="M195 373.7C195.7 372.7 196.9 370.7 197.6 369.2C198.145 367.885 198.85 366.642 199.7 365.5C201 364.1 200.3 363.3 198.2 363.8C197.2 364 196.7 364.4 196.6 365.3C196 368.3 194.9 371.4 193.9 372.8C192.1 375.4 192.1 375.5 192.9 375.5C193.2 375.5 194.1 374.7 194.9 373.7H195ZM168.2 357C166.2 357 166.2 358.3 168.1 359C169 359.3 169.8 360 170.4 361.4C172.4 365.1 173.4 365.8 178.4 366.2L181.7 366.5L181.8 368.5C181.9 369.5 182.2 370.5 182.4 370.5C182.7 370.5 183.9 369.9 185.2 369.3C187.5 368.1 189.8 365.3 189.8 363.6C189.8 362.5 187.8 361.2 186.2 361.2C184.952 361.385 183.777 361.903 182.8 362.7C179.2 365.3 175.4 364.7 173.3 361.4C171.6 358.6 169.8 357 168.2 357ZM185.6 364C186.6 364 186.8 364.7 186.3 366C185.9 367 184.7 367 184.3 366C184 365 184.6 364 185.6 364ZM320.5 359.6C319.2 359.6 318.8 359.9 318 361.2C316.6 363.2 316.5 367.5 317.8 369C318.5 370 318.6 370 320.3 369.3C322.6 368.3 323 368.4 322.9 369.6C322.9 372.8 318.4 378.8 313.7 382.1C312.739 382.632 311.89 383.345 311.2 384.2C310.8 385.2 312.6 384.9 314.7 383.8C317.7 382.3 321.5 378.4 323.1 375.3C324.3 372.8 324.5 372 324.7 367.7C324.7 363.7 324.7 362.6 324 361.2C323.3 359.7 323 359.6 321.1 359.6H320.5ZM320.7 362.4C321.7 362.4 321.8 362.6 321.9 364C322 365.2 321.9 365.9 321.2 366.5C320.2 367.3 320.2 367.3 319.4 366.1C318.4 364.4 319 362.4 320.7 362.4ZM299.1 392.7C302.675 391.21 305.589 388.475 307.3 385C307.827 383.939 308.262 382.835 308.6 381.7C308.6 381.1 306.6 380.2 305.3 380.2C304 380.2 303.9 379.3 304.3 377C304.9 374.7 304.3 371.9 303.3 371.9C302.9 371.9 302.3 372.4 301.9 373C301.2 374 301.2 374.5 301.7 376C302.4 378 301.8 379.7 299.9 381C298.9 381.7 298.4 382.5 298.4 383.2C298.4 383.8 298.5 384.3 298.6 384.3L300.9 383.2L302.9 382L304.2 383C304.8 383.5 305.4 384.4 305.4 384.9C305.4 387.4 298.2 391.7 293.2 392.1C290.6 392.3 290.2 392.1 289.2 391.3C288.5 390.5 288.2 389.9 288.4 389L289 386.3C289.5 384.1 288.5 384.4 286.9 387C285.5 389 285.1 391.4 285.9 392.6C286.5 393.6 290.6 394.5 293.5 394.3C295.3 394.2 297.2 393.7 299.1 392.7ZM326.8 377.2C329.4 374.6 330.6 371.4 330.6 366.5V362.8L332.7 361.8C335.5 360.5 338.2 357.8 338.2 356.4C338.2 354.8 337.5 354.9 336.3 356.6C335.4 357.8 334.3 358.5 329.9 360.5C328.8 361 328.7 361.3 328.5 365.9C328.2 371.2 327.5 373.1 324.5 376.8C322.7 378.9 322.6 379.2 323.9 379.2C324.4 379.2 325.7 378.4 326.9 377.2H326.8ZM298.3 374.2C298.6 373.5 297.1 373 296.5 373.6C296.2 373.9 296.2 374.3 296.4 374.6C296.8 375.3 298.1 375.1 298.4 374.3L298.3 374.2ZM337.6 364.1C337.9 363.3 336.4 362.8 335.8 363.4C335.5 363.7 335.5 364.2 335.7 364.4C336.1 365.1 337.4 364.9 337.7 364.1H337.6ZM290.3 336.5C289.3 337 288.8 338.1 288.1 339C287.6 339.3 288 339.6 288.3 340C290.1 341.9 290.8 344.5 291.7 347C292.5 349.8 293.6 352.9 292.7 355.9C292.3 357 291.4 358.2 290.1 357.9C287.9 357.7 285.8 357.2 283.7 357.2C281.7 357.2 280.2 359 278.3 358.8C277 358.9 277.1 356.3 275.9 357C275.3 358.4 275.6 359.9 275.5 361.4C275.8 361.6 276.4 361.4 276.7 361.4H280.7C280.9 362.8 280.8 364.4 281.8 365.4C283.2 365.9 284.7 365.4 285.9 364.9C287.3 364.3 287.5 362.6 287.9 361.4C288.3 360 290.1 360.4 291.2 359.8C292.454 359.367 293.532 358.538 294.272 357.437C295.012 356.336 295.373 355.024 295.3 353.7C295.2 349.6 293.6 345.7 292.4 341.9C291.8 340.2 291.4 338.5 290.7 336.8C290.7 336.7 290.5 336.5 290.3 336.6V336.5ZM283.9 359.8C285.3 359.8 285.9 361.5 285.7 362.7C285.1 364.3 283.1 363.3 282.7 362.1C282 361.1 282.5 359.7 283.9 359.8Z" fill="#F7E017"/>
<path d="M230.4 346.5C229.644 346.507 228.909 346.752 228.3 347.2C224.5 349.9 223.5 353 226.1 354.2C228 355.1 227.5 356.2 224.5 357.7C220.3 359.7 216.5 359.5 209.5 356.6C207.7 355.8 207.2 356.1 207.6 357.7C208 359.3 209.5 360.1 213 361C216.9 361.8 221.5 361.6 224.5 360.3C226.256 359.415 227.819 358.192 229.1 356.7L231.4 354.2L234.1 354.5C237.4 354.9 237.5 355 237.5 356.5C237.5 357.8 237.5 357.9 240.6 358.1L245.6 358.4C247 358.4 247.8 358.7 248.2 359.4C248.8 360.1 249.2 360.2 254.2 359.7C258.8 359.3 259.8 359.3 261.9 360.1C263.4 360.6 265 360.8 266.3 360.6C269.9 360.2 274.8 357.3 275.5 355.1C275.6 354.9 276.9 354.4 278.4 354.1C282 353.4 282.2 352.6 278.8 352.2C277.129 351.971 275.487 351.569 273.9 351C272.717 350.52 271.471 350.217 270.2 350.1C268.4 350.1 266.6 351.2 266.6 352.4C266.6 353.2 266.9 353.3 269.1 353.1C271.1 352.8 271.7 352.9 272.7 353.8C273.5 354.4 273.9 355 273.7 355.2C273.3 356 269.1 357.9 267.2 358.2C266.118 358.424 264.993 358.283 264 357.8C262.3 357 259.9 356.8 259.4 357.5C259.3 357.9 258.7 357.7 258 357L257 356L254.4 357C251.8 358 250.9 358 250.9 356.8C250.9 356.2 250.2 356.2 246.4 356.4C242.2 356.7 241.8 356.6 241 355.8C240.3 355 240.3 354.7 240.8 353.8C241.3 353.1 241.3 352.8 240.8 352.3C240.4 351.9 239.8 351.9 238.2 352.3C234.1 353.4 232.9 352.8 232.9 349.6C232.9 347.6 231.8 346.5 230.4 346.5ZM229.4 349.5C229.6 349.5 229.7 349.5 230 349.9C230.4 350.2 230.6 350.9 230.4 351.3C230.1 352.3 228.3 352.2 227.9 351.2C227.8 350.7 227.9 350.2 228.5 349.8L229.3 349.4L229.4 349.5Z" fill="#F7E017"/>
<path d="M222 352.4C224.4 350.8 224.4 351 224.7 346.5C225 343.5 225 343.2 224.1 343.2C222.9 343.2 222.2 344.5 222.2 347.1C222.2 348.7 222 349.5 221.2 350.4C219 352.4 213.8 351.5 213.2 348.9C213 348 213.2 347.2 214.3 345.7C216.6 342.5 216.1 341.7 213.3 344.1C211.3 345.8 211 345.8 211.4 344.4C211.7 343.1 211 342.5 209.4 342.9C208.7 343.1 208.3 343.6 208.1 344.6C207.9 345.6 207.4 346.1 206.7 346.2C205.4 346.6 203.3 345.4 203.3 344.3C203.3 343.6 206.5 339.7 210.6 335.3C211.691 334.316 212.664 333.208 213.5 332C213.5 331.8 212.6 331.6 211.6 331.6C210.1 331.6 209.8 331.8 209.8 332.5C209.8 332.9 207.7 335.7 205.1 338.5C199.8 344.5 199.4 345.8 202.1 347.3C203.149 347.93 204.356 348.245 205.579 348.21C206.802 348.175 207.989 347.789 209 347.1L210.7 345.9V348.1C210.7 350.8 211.2 351.7 213.4 352.9C214.736 353.571 216.225 353.879 217.717 353.791C219.21 353.703 220.652 353.223 221.9 352.4H222ZM333.3 315.5C331.3 316.7 332.8 319.2 333.1 320.8C332.3 323 329.5 323.6 327.4 324.1C324.4 324.5 322.3 327.1 321.2 329.7C320.6 331.4 319.1 334 317.5 331.4C316.1 330 313.5 328.9 311.9 330.5C310.6 331.7 310.3 333.5 309.8 335.1C309.1 333.9 308.8 332.1 307.2 331.7C304.7 332 305.6 335.2 306.7 336.5C307.8 338 308.8 340 307.7 341.8C306.9 344 303.7 345.4 301.7 343.6C300 342.6 301.2 339.3 299.5 339.1C298.6 339.8 298.5 343.2 297.2 341.3C296.2 339.7 296.7 337.5 295.5 336.1C294.1 336.3 292.9 338.7 293.4 340.1C295.129 342.767 296.287 345.763 296.8 348.9C297.3 350.2 296.8 352.6 297.9 353.1C298.7 351.1 297.9 348.9 298.6 346.9C300.4 346.7 302.6 347.5 304.5 347.1C307.3 346.7 309.5 344.4 310.4 341.9C310.7 339.9 310.4 338.1 310.3 336.2C312.5 336.5 314.8 336.5 316.9 337.2C317.9 338.8 316.6 341.1 316.3 342.8C315.2 346.4 312.3 349 309.6 351.4C308.5 352.1 308.3 353.9 310 353C313.7 351.4 316.4 348 318 344.4C319.2 341.7 318.2 338.6 319 335.8C320.1 333.6 322.8 334.1 324.8 334.1C326.8 334 328.6 331.6 327.8 329.6C327.2 327.3 329.7 326.2 331.3 325.4C333.5 324.3 335.3 322 335.1 319.4C335 318.1 335.1 315.6 333.3 315.5ZM325.4 328.8C327.8 329.5 325 334 323.7 331.1C323.4 330.1 324.3 328.8 325.4 328.8ZM314.4 332.1C317.5 331.9 316.4 336.4 313.8 334.4C312.4 333.7 312.8 332 314.4 332.1ZM202.7 349.5C202.8 349 202.6 348.7 202.2 348.7C201.3 348.7 200.8 349.5 201.2 350.1C201.6 350.8 202.6 350.4 202.7 349.5ZM238.9 345.5C238.9 344.8 238.6 344.5 238.1 344.7C236.9 344.9 236.7 346.4 237.9 346.4C238.6 346.4 238.9 346.1 238.9 345.4V345.5ZM194.2 323.8C192.7 323.5 191.8 324.7 191.3 325.8C190.3 327.7 188.9 329.5 187 330.5C185.6 330.9 184 330.3 182.9 329.6C181.4 328.9 181.8 327.2 181.1 326C180.1 325.2 178.3 326.3 178.3 327.6C178.2 329.3 179.8 330.3 181.1 330.9C182.2 331.6 183.8 332 184.3 333.4C184.3 334.6 184.7 335.9 186.2 335.4C187.8 335.4 188.2 337.4 187.5 338.6C186.767 339.906 186.486 341.418 186.7 342.9C187.5 343.6 188.3 341.9 188.9 341.3L190 339.8C192.8 340 195.7 340.3 198.5 340.2C200.5 340.2 202.3 338.9 203.5 337.5C205.4 335.5 206.9 333.3 209 331.7C210.5 331.3 209.7 328.5 208.1 329.3C206.7 329.9 206.3 331.4 205.3 332.4C203.7 334.4 202 336.4 199.9 338C198.4 338.6 196.7 338.4 195.1 338C194.5 337.5 196.4 337 196.7 336.4C197.6 335.4 198.7 334.6 199.1 333.4C198.6 332.4 197.1 332.3 196.1 332.3C193.4 332.6 191.4 334.8 188.8 335C186.8 335 187.8 332.9 188.8 332.2C190.5 330.1 192.4 328.1 194.3 326C194.8 325.4 196.7 324.8 195.5 324C195.1 323.8 194.6 323.8 194.2 323.8ZM195.5 334.4C196.8 335.1 194.6 336.4 193.7 336.2C192.5 336.5 192.5 335.3 193.5 335.1C194.1 334.8 194.8 334.4 195.5 334.4ZM191.4 337.2C192.1 337.2 193.7 337.9 192.2 338.3C191.2 339.1 190 337.5 191.4 337.2Z" fill="#F7E017"/>
<path d="M223.4 339C223.4 338 221.6 338.1 221.4 339.2C221.3 339.8 221.4 340 222.4 339.9C222.9 339.8 223.4 339.4 223.4 339ZM303.1 332C303.3 331 301.9 330.4 301.2 331C300.5 331.8 301.2 333.1 302.2 333C302.6 332.8 303 332.4 303.1 332ZM179.1 322.2C180.3 321.2 180.3 321.1 179.8 318.7C179 315.4 179.1 315 180.3 314.7C181.9 314.3 186 316.5 186.9 318.2C187.6 319.6 187.6 319.6 186.4 320.7C185.1 321.9 185.1 323.3 186.4 323.3C187.4 323.3 190.4 320.5 190.4 319.5C190.4 318.2 187.1 314.9 184.6 313.7C183.03 312.993 181.321 312.652 179.6 312.7C176.3 312.7 175.9 313.4 176.7 317.2C177.7 321.6 176.4 322.2 172.7 318.9C171.43 317.749 170.445 316.319 169.82 314.723C169.195 313.127 168.949 311.407 169.1 309.7C169.1 305.3 170.8 303.1 174.5 302.7C177.1 302.3 177 301.7 174.5 301.3C170.6 300.7 167.5 303.3 166.2 307.7C164.9 312.7 168 318.8 173.4 321.9C176.3 323.6 177.4 323.6 179.1 322.2ZM327.6 316.7C327.9 316.4 328.1 315.7 328.1 315.2C328.1 314.7 328.7 313.5 329.3 312.7C329.806 312.103 330.211 311.428 330.5 310.7C330.5 309.8 329 309.9 327.9 310.7C326.7 311.7 325.9 311.7 325.9 310.8C325.9 310.6 326.4 310.1 327.1 309.8C328.8 309 328.9 308.2 327.5 307.5C325.6 306.7 323.8 308.2 323.6 310.7C323.5 312.4 323.6 312.7 324.9 313.4C326.1 314.1 326.3 314.5 326.1 315.4C325.8 317.2 326.5 317.8 327.6 316.7ZM341.6 315.1C342.6 314.2 343.4 313.1 343.4 312.8C343.4 312.5 344.3 311.6 345.4 310.8C348.4 308.6 349.1 306.4 347.7 302.9C347.2 301.6 345.5 299.7 341.9 296.4C340.157 294.682 338.247 293.141 336.2 291.8C335.2 291.8 335.3 295.5 336.3 295.8C338.2 296.4 339.3 297.2 342.1 299.8C345.5 302.8 347 305.6 346.1 307.1C345.4 308.6 344.3 308.1 341.3 305.1C339.8 303.4 338.3 302.1 338 302.1C337.6 302.1 337.4 302.6 337.4 303.5C337.4 304.5 337.9 305.5 339.4 307.2C341.9 310 342.2 311.6 340.4 313.1C339.6 313.6 339 314.1 338.8 314.1C336.377 309.965 333.146 306.36 329.3 303.5C328.8 303.5 328.6 303.9 328.6 305C328.6 306.3 328.9 306.8 329.9 307.3C331.1 307.9 334.3 311.1 337.4 314.9C338.3 315.9 339.2 316.9 339.4 316.9C339.5 316.9 340.5 316.1 341.5 315.1H341.6ZM347.8 297.3C347.4 296 338.8 287.3 338 287.3C337.5 287.3 337.4 287.8 337.5 289.2C337.5 290.9 337.8 291.2 338.9 291.4C339.7 291.7 341.9 293.4 343.9 295.4C345.9 297.4 347.7 298.8 347.9 298.7L347.8 297.3ZM296.8 396C296.882 396.182 296.915 396.381 296.894 396.577C296.873 396.774 296.8 396.963 296.682 397.127C296.563 397.292 296.402 397.426 296.213 397.52C296.025 397.613 295.814 397.662 295.6 397.662C295.386 397.662 295.175 397.613 294.987 397.52C294.798 397.426 294.637 397.292 294.518 397.127C294.4 396.963 294.327 396.774 294.306 396.577C294.285 396.381 294.318 396.182 294.4 396C294.345 395.821 294.335 395.633 294.372 395.451C294.409 395.268 294.491 395.096 294.612 394.948C294.733 394.8 294.89 394.679 295.07 394.596C295.25 394.514 295.449 394.47 295.65 394.47C295.851 394.47 296.05 394.514 296.23 394.596C296.41 394.679 296.567 394.8 296.688 394.948C296.809 395.096 296.891 395.268 296.928 395.451C296.965 395.633 296.955 395.821 296.9 396H296.8ZM301.4 394.5C301.4 394.818 301.263 395.124 301.019 395.349C300.775 395.574 300.445 395.7 300.1 395.7C299.755 395.7 299.425 395.574 299.181 395.349C298.937 395.124 298.8 394.818 298.8 394.5C298.8 394.182 298.937 393.877 299.181 393.652C299.425 393.426 299.755 393.3 300.1 393.3C300.445 393.3 300.775 393.426 301.019 393.652C301.263 393.877 301.4 394.182 301.4 394.5Z" fill="#F7E017"/>
</g>
<defs>
<clipPath id="clip0_2_926">
<rect width="512" height="512" fill="white"/>
</clipPath>
</defs>
</svg>
