<svg width="512" height="512" viewBox="0 0 512 512" fill="none" xmlns="http://www.w3.org/2000/svg">
<g clip-path="url(#clip0_2_1642)">
<path fill-rule="evenodd" clip-rule="evenodd" d="M0 0H512V512H0V0Z" fill="#229E45"/>
<path fill-rule="evenodd" clip-rule="evenodd" d="M261.4 405.4L491.2 256.2L260 106.6L29.2998 256.6L261.4 405.4Z" fill="#F8E509"/>
<path fill-rule="evenodd" clip-rule="evenodd" d="M361.5 256C361.904 269.02 359.687 281.989 354.98 294.136C350.273 306.283 343.173 317.359 334.101 326.708C325.029 336.056 314.17 343.486 302.17 348.555C290.17 353.624 277.274 356.229 264.247 356.216C251.22 356.202 238.329 353.57 226.339 348.477C214.35 343.383 203.507 335.931 194.454 326.564C185.401 317.197 178.323 306.106 173.642 293.949C168.96 281.793 166.769 268.82 167.2 255.8C168.035 230.574 178.65 206.662 196.799 189.122C214.948 171.582 239.207 161.79 264.447 161.816C289.687 161.842 313.926 171.684 332.039 189.262C350.152 206.839 360.717 230.773 361.5 256Z" fill="#2B49A3"/>
<path fill-rule="evenodd" clip-rule="evenodd" d="M232.3 314.2L229.3 312.4L226.2 314L226.9 310.5L224.5 308L227.9 307.6L229.5 304.4L231 307.7L234.4 308.3L231.8 310.7M297.5 330.7L294.5 328.9L291.3 330.5L292 327L289.6 324.5L293.1 324.1L294.7 320.9L296.1 324.2L299.5 324.8L297 327.2M269.4 304.3L266.8 302.8L264.1 304.1L264.7 301.1L262.7 298.9L265.6 298.6L267 295.9L268.2 298.7L271.2 299.2L269 301.2M335.2 294.8L332.6 293.3L330 294.6L330.6 291.7L328.6 289.6L331.5 289.2L332.8 286.6L334.1 289.3L337 289.8L334.8 291.8M268.2 275.1L265.2 273.3L262.1 274.9L262.8 271.4L260.4 268.9L263.8 268.5L265.4 265.4L266.9 268.6L270.3 269.2L267.7 271.6M188 245L185 243.2L182 244.8L182.6 241.3L180.2 238.8L183.7 238.4L185.3 235.2L186.7 238.5L190.1 239.1L187.6 241.5M197.7 285L194.7 283.3L191.6 284.8L192.3 281.4L189.9 278.8L193.3 278.4L194.9 275.4L196.4 278.5L199.8 279.2L197.2 281.5M297.8 230.2L295.2 228.7L292.4 230L293 227L291 224.7L294 224.4L295.4 221.6L296.7 224.5L299.7 225L297.4 227.1M292.4 256.3L290 255L287.9 256L288.3 253.6L286.7 251.9L289.1 251.6L290.2 249.4L291.2 251.7L293.6 252.1L291.8 253.7M183.4 292.2L181.4 291L179.3 292L179.7 289.7L178.1 288L180.5 287.8L181.5 285.8L182.5 287.8L184.8 288.3L183.1 289.9M335.7 301.4L334 300.6L332.3 301.3L332.7 299.6L331.4 298.3L333.3 298.1L334.2 296.6L334.9 298.2L336.8 298.5L335.4 299.7" fill="#FFFFEF"/>
<path fill-rule="evenodd" clip-rule="evenodd" d="M183.5 292.3L181.5 291.1L179.4 292.1L179.9 289.8L178.2 288.1L180.5 287.9L181.6 285.9L182.6 287.9L184.9 288.4L183.2 290" fill="#FFFFEF"/>
<path fill-rule="evenodd" clip-rule="evenodd" d="M183.5 292.3L181.5 291.1L179.4 292.1L179.9 289.8L178.2 288.1L180.5 287.9L181.6 285.9L182.6 287.9L184.9 288.4L183.2 290M215.4 292.3L213.4 291.1L211.4 292.1L211.8 289.8L210.2 288.1L212.5 287.9L213.5 285.8L214.5 287.9L216.8 288.4L215.1 290M211.4 303L209.4 301.8L207.4 302.8L207.8 300.5L206.2 298.8L208.5 298.5L209.5 296.5L210.5 298.5L212.8 299L211.1 300.6M277.8 283.6L275.8 282.4L273.7 283.4L274.1 281.1L272.5 279.4L274.8 279.2L275.9 277.1L276.9 279.2L279.1 279.6L277.4 281.2M258.3 283.6L256.3 282.4L254.2 283.4L254.7 281.1L253.1 279.4L255.4 279.2L256.4 277.1L257.4 279.2L259.7 279.6L258 281.2M205.5 276.8L204.3 276.1L203 276.7L203.2 275.2L202.2 274.2L203.7 274L204.4 272.7L204.9 274.1L206.4 274.3L205.4 275.3M333.2 310L331.2 308.9L329.1 309.9L329.6 307.6L328 305.9L330.3 305.6L331.3 303.6L332.3 305.6L334.6 306.1L332.9 307.7M316.9 312.1L315.3 311.1L313.6 312.1L314 310.1L312.6 308.7L314.6 308.5L315.4 306.8L316.2 308.5L318.2 308.9L316.7 310.2M324.7 312L323.1 311L321.5 311.9L321.8 310.1L320.6 308.8L322.4 308.6L323.2 307L323.9 308.6L325.7 308.9L324.4 310.2M346.6 292.8L345.1 291.9L343.5 292.7L343.9 291L342.7 289.7L344.4 289.5L345.2 288L345.9 289.6L347.6 289.9L346.3 291.1M317 322.9L315 321.8L313 322.8L313.5 320.6L311.9 319.1L314.1 318.8L315.2 316.9L316.2 318.9L318.3 319.3L316.7 320.7M317.1 331.6L315.3 330.6L313.5 331.5L313.9 329.3L312.5 327.8L314.5 327.5L315.5 325.6L316.3 327.6L318.3 328L316.8 329.4M302.3 312L300.8 311.1L299.2 311.9L299.6 310.1L298.4 308.9L300.1 308.7L300.9 307.1L301.6 308.7L303.3 309L302 310.2M288.5 312L287 311.1L285.4 311.9L285.8 310.1L284.6 308.9L286.3 308.7L287.1 307.1L287.8 308.7L289.5 309L288.3 310.2M265 291.4L263.5 290.5L261.9 291.3L262.3 289.6L261.1 288.3L262.8 288.1L263.6 286.6L264.3 288.2L266 288.5L264.7 289.6M267.6 333.1L266.3 332.4L265 333.1L265.3 331.6L264.3 330.6L265.7 330.3L266.4 329L267 330.4L268.5 330.6L267.4 331.6M232.2 265.6L229.2 263.9L226.1 265.4L226.8 262L224.4 259.4L227.8 259L229.4 255.9L230.9 259.1L234.3 259.7L231.7 262.1" fill="#FFFFEF"/>
<path fill-rule="evenodd" clip-rule="evenodd" d="M355.1 291C356.982 286.097 358.453 281.046 359.5 275.9C307.9 230.5 250.3 207.2 177.5 212C174.892 217.096 172.75 222.418 171.1 227.9C204.498 224.527 238.23 228.41 269.988 239.284C301.745 250.158 330.779 267.765 355.1 290.9V291Z" fill="white"/>
<path d="M331.9 265.4L333.7 266.4C333.42 266.957 333.349 267.595 333.5 268.2C333.6 268.6 334 269.1 334.5 269.4C335.1 269.8 335.6 270 336.1 270C336.5 270 336.9 269.7 337.1 269.4C337.2 269.2 337.3 269 337.2 268.7L336.9 267.9L335.7 266.6C335.062 265.951 334.583 265.164 334.3 264.3C334.125 263.649 334.191 262.958 334.485 262.352C334.778 261.745 335.281 261.266 335.9 261C336.434 260.764 337.026 260.694 337.6 260.8C338.322 260.957 339.003 261.264 339.6 261.7C340.467 262.309 341.157 263.137 341.6 264.1C341.721 264.543 341.739 265.007 341.652 265.458C341.566 265.909 341.377 266.334 341.1 266.7L339.3 265.6C339.5 265.1 339.6 264.6 339.5 264.2C339.4 263.9 339 263.5 338.5 263.2C338 262.8 337.5 262.7 337.1 262.7C336.984 262.704 336.871 262.732 336.767 262.784C336.663 262.836 336.572 262.909 336.5 263C336.431 263.101 336.386 263.217 336.368 263.338C336.351 263.46 336.362 263.583 336.4 263.7C336.4 264.1 336.9 264.7 337.6 265.4L339.1 267.4C339.373 267.898 339.499 268.462 339.463 269.029C339.428 269.595 339.233 270.14 338.9 270.6C338.551 271.096 338.064 271.478 337.5 271.7C336.905 271.972 336.238 272.042 335.6 271.9C334.841 271.707 334.128 271.367 333.5 270.9C332.555 270.333 331.846 269.446 331.5 268.4C331.2 267.5 331.3 266.5 331.9 265.4ZM323.1 259.7L325.1 260.7C324.865 261.199 324.795 261.759 324.9 262.3C325 262.8 325.4 263.3 325.9 263.6C326.5 264 327 264.1 327.5 264C327.9 264 328.3 263.8 328.5 263.4C328.595 263.215 328.63 263.005 328.6 262.8C328.6 262.5 328.5 262.3 328.2 262L327 260.7C326.342 260.088 325.829 259.336 325.5 258.5C325.367 258.103 325.326 257.681 325.378 257.266C325.429 256.85 325.574 256.452 325.8 256.1C326.097 255.659 326.513 255.313 327 255.1C327.535 254.87 328.126 254.8 328.7 254.9C329.3 254.9 329.9 255.2 330.7 255.7C331.7 256.4 332.5 257.1 332.7 258C332.85 258.428 332.9 258.884 332.848 259.334C332.797 259.785 332.643 260.217 332.4 260.6L330.5 259.5C330.8 259 330.8 258.5 330.7 258.2C330.5 257.8 330.2 257.5 329.7 257.2C329.271 256.869 328.742 256.692 328.2 256.7C328.076 256.715 327.957 256.759 327.852 256.828C327.748 256.898 327.662 256.991 327.6 257.1C327.547 257.209 327.519 257.329 327.519 257.45C327.519 257.571 327.547 257.691 327.6 257.8C327.6 258.1 328.1 258.7 328.8 259.5C329.6 260.2 330.1 260.9 330.4 261.3C330.708 261.799 330.863 262.378 330.845 262.965C330.827 263.551 330.638 264.12 330.3 264.6C329.96 265.118 329.476 265.526 328.908 265.775C328.34 266.024 327.712 266.102 327.1 266C326.315 265.847 325.567 265.541 324.9 265.1C323.942 264.569 323.199 263.72 322.8 262.7C322.515 261.698 322.623 260.626 323.1 259.7ZM312.3 256.7L317.9 247.7L324.6 251.7L323.6 253.3L318.8 250.3L317.5 252.3L322.1 255.1L321.1 256.7L316.6 253.9L315.1 256.4L320.1 259.4L319.2 261L312.3 256.8V256.7ZM296.5 243.8L297.4 242.2L301.4 244.4L299.5 248.1C297.879 248.459 296.183 248.247 294.7 247.5C293.805 247.036 293.047 246.346 292.5 245.5C291.971 244.737 291.692 243.828 291.7 242.9C291.7 241.9 292 241 292.5 240.1C292.961 239.176 293.649 238.385 294.5 237.8C295.2 237.2 296.2 236.9 297.2 236.9C297.9 236.9 298.8 237.2 299.7 237.6C300.686 238.063 301.493 238.836 302 239.8C302.4 240.6 302.5 241.5 302.3 242.5L300.2 241.9C300.313 241.392 300.242 240.861 300 240.4C299.734 239.91 299.312 239.522 298.8 239.3C298.445 239.08 298.047 238.94 297.633 238.888C297.219 238.836 296.798 238.874 296.4 239C295.7 239.3 295 240 294.4 241C293.913 241.919 293.737 242.972 293.9 244C294.1 244.8 294.6 245.4 295.5 245.8L296.8 246.2H298.1L298.7 245L296.5 243.8ZM227.7 226.8L229.3 216.2L232.5 216.7L233.3 224.2L236.3 217.2L239.4 217.7L237.9 228.3L235.9 228L237.1 219.7L233.8 227.7L231.8 227.4L230.9 218.7L229.7 227.1L227.7 226.8ZM217 225.5L218 214.9L225.8 215.6L225.7 217.4L219.9 216.9L219.7 219.2L225 219.7L224.9 221.5L219.6 221L219.3 224L225.2 224.5L225 226.3L217 225.5Z" fill="#309E3A"/>
<path d="M181.4 218.8C181.4 217.8 181.6 216.8 181.9 216.1L182.9 214.7L184.4 213.7C185.139 213.446 185.921 213.344 186.7 213.4C187.394 213.395 188.082 213.535 188.719 213.811C189.356 214.086 189.928 214.491 190.4 215C191.4 216 191.7 217.3 191.7 219C191.7 220.8 191.1 222.1 190.2 223C189.699 223.486 189.103 223.861 188.448 224.102C187.794 224.343 187.096 224.445 186.4 224.4C185.713 224.418 185.031 224.294 184.394 224.035C183.757 223.777 183.181 223.391 182.7 222.9C182.206 222.368 181.834 221.734 181.609 221.043C181.385 220.353 181.313 219.621 181.4 218.9V218.8Z" fill="#309E3A"/>
<path d="M183.6 218.8C183.6 220 183.8 221 184.4 221.6C184.9 222.3 185.6 222.6 186.4 222.6C186.809 222.608 187.215 222.532 187.593 222.377C187.971 222.223 188.314 221.992 188.6 221.7C189.1 221.1 189.4 220.2 189.5 219C189.5 217.7 189.3 216.8 188.7 216.2C188.457 215.9 188.153 215.656 187.808 215.483C187.463 215.311 187.085 215.214 186.7 215.2C185.7 215.2 185 215.5 184.5 216.1C183.9 216.7 183.6 217.6 183.5 218.8H183.6Z" fill="#F7FFFF"/>
<path d="M194 224.4L194.1 213.7H198.6C199.8 213.7 200.6 213.9 201.1 214.1C201.6 214.3 202.1 214.6 202.3 215.1C202.5 215.6 202.8 216.1 202.8 216.8C202.8 217.6 202.5 218.2 202.1 218.8C201.6 219.3 200.9 219.6 199.9 219.8C200.4 220 200.8 220.3 201.1 220.6L202.3 222.4L203.6 224.4H201L199.5 222.1C199.134 221.542 198.733 221.008 198.3 220.5C198.133 220.323 197.928 220.186 197.7 220.1C197.378 219.985 197.041 219.917 196.7 219.9H196.2V224.4H194Z" fill="#309E3A"/>
<path d="M196.2 218.2H197.8C198.464 218.282 199.136 218.282 199.8 218.2L200.3 217.7C200.5 217.5 200.6 217.2 200.6 216.9C200.6 216.5 200.5 216.2 200.3 216C200.089 215.776 199.806 215.634 199.5 215.6H196.3L196.2 218.2Z" fill="white"/>
<path d="M206.2 214.2L210.1 214.4C210.777 214.41 211.45 214.511 212.1 214.7C212.67 214.915 213.183 215.257 213.6 215.7C214.067 216.253 214.408 216.902 214.6 217.6C214.8 218.3 214.8 219.1 214.8 220.1C214.83 220.866 214.693 221.629 214.4 222.336C214.106 223.044 213.663 223.68 213.1 224.2C212.7 224.5 212.2 224.8 211.6 225H209.6L205.6 224.9L206.2 214.2Z" fill="#309E3A"/>
<path d="M208.2 216.1L207.9 223.1L209.5 223.3H210.8L211.7 222.8C212 222.6 212.1 222.3 212.3 221.8L212.6 219.8L212.5 218C212.3 217.5 212.2 217.2 211.9 217C211.634 216.705 211.285 216.496 210.9 216.4C210.34 216.283 209.771 216.216 209.2 216.2L208.2 216.1Z" fill="white"/>
<path d="M258.5 233.3L261 222.9L264.3 223.7C265.6 224 266.4 224.3 266.8 224.5C267.3 224.8 267.8 225.2 268 225.8C268.3 226.5 268.3 227.2 268.1 228C268.011 228.516 267.789 228.999 267.456 229.403C267.123 229.806 266.69 230.116 266.2 230.3C265.856 230.469 265.482 230.571 265.1 230.6C264.356 230.535 263.619 230.401 262.9 230.2L261.5 229.9L260.5 233.8L258.5 233.3Z" fill="#309E3A"/>
<path d="M262.6 225.2L261.9 228.2L263.1 228.4C263.9 228.6 264.5 228.7 264.8 228.6C265.077 228.571 265.339 228.461 265.552 228.283C265.766 228.105 265.922 227.867 266 227.6L265.9 226.5C265.728 226.177 265.443 225.928 265.1 225.8L263.6 225.4L262.6 225.2Z" fill="white"/>
<path d="M268.4 236.3L271.9 226.2L276.2 227.7C276.98 227.92 277.721 228.257 278.4 228.7C278.8 229.1 279.1 229.6 279.3 230.2C279.5 230.8 279.3 231.3 279.1 231.9C278.9 232.7 278.4 233.2 277.8 233.5C277.456 233.7 277.075 233.83 276.68 233.881C276.285 233.933 275.884 233.905 275.5 233.8L276.3 235L276.9 237L277.4 239.4L275 238.6L274.3 235.9C274.144 235.254 273.943 234.619 273.7 234C273.614 233.772 273.477 233.567 273.3 233.4C272.996 233.179 272.659 233.01 272.3 232.9L271.9 232.8L270.4 237L268.4 236.3Z" fill="#309E3A"/>
<path d="M272.4 231.2L273.9 231.7L275.8 232.2C276.1 232.2 276.3 232.2 276.5 232L277 231.3V230.3C276.873 230.038 276.661 229.827 276.4 229.7L274.9 229.2L273.3 228.6L272.4 231.2Z" fill="white"/>
<path d="M280.9 235.9C281.154 234.985 281.597 234.133 282.2 233.4C282.5 232.9 283 232.6 283.5 232.3C283.994 232.028 284.539 231.858 285.1 231.8C285.8 231.8 286.6 231.8 287.4 232.1C288.079 232.27 288.714 232.58 289.265 233.011C289.817 233.441 290.271 233.983 290.6 234.6C291.2 235.8 291.3 237.3 290.7 238.9C290.535 239.619 290.229 240.299 289.8 240.9C289.371 241.5 288.827 242.01 288.2 242.4C287.583 242.707 286.909 242.884 286.221 242.918C285.533 242.952 284.845 242.844 284.2 242.6C283.522 242.43 282.886 242.12 282.335 241.69C281.784 241.259 281.329 240.717 281 240.1C280.412 238.768 280.376 237.258 280.9 235.9Z" fill="#309E3A"/>
<path d="M283 236.5C282.7 237.6 282.7 238.5 283 239.3C283.4 240.1 284 240.6 284.8 240.9C285.6 241.1 286.3 241 287 240.6C287.7 240.2 288.3 239.4 288.7 238.2C289 237 289 236.1 288.7 235.3C288.532 234.931 288.283 234.604 287.971 234.345C287.659 234.085 287.293 233.899 286.9 233.8C286.518 233.676 286.114 233.639 285.716 233.69C285.318 233.742 284.937 233.882 284.6 234.1C283.9 234.5 283.4 235.3 283 236.5Z" fill="white"/>
<path d="M301.7 250.8L306.6 241.3L310.6 243.3C311.6 243.9 312.3 244.3 312.6 244.7C313 245.2 313.2 245.7 313.3 246.2C313.4 246.7 313.3 247.4 312.9 247.9C312.6 248.6 312.1 249.1 311.4 249.4C310.7 249.6 310 249.6 309.1 249.3C309.4 249.7 309.6 250.2 309.7 250.6L310 252.7L310.2 255.2L307.9 254L307.6 251.2L307.3 249.2C307.214 248.972 307.077 248.767 306.9 248.6C306.633 248.355 306.329 248.152 306 248L305.6 247.8L303.6 251.8L301.7 250.8Z" fill="#309E3A"/>
<path d="M306.4 246.3L307.8 247L309.6 247.8C309.9 247.8 310.1 247.8 310.3 247.6C310.57 247.46 310.791 247.242 310.933 246.974C311.076 246.707 311.134 246.402 311.1 246.1C310.993 245.801 310.779 245.552 310.5 245.4C310.077 245.118 309.643 244.851 309.2 244.6L307.7 243.9L306.4 246.3Z" fill="white"/>
<path d="M341.2 270.3C341.8 269.3 342.4 268.7 343.2 268.3C343.688 267.975 344.23 267.738 344.8 267.6C345.329 267.498 345.872 267.498 346.4 267.6C347.1 267.7 347.9 268 348.6 268.6C349.191 268.961 349.701 269.441 350.097 270.009C350.493 270.577 350.766 271.221 350.9 271.9C351.045 273.355 350.654 274.813 349.8 276C349.42 276.645 348.915 277.208 348.314 277.655C347.712 278.101 347.028 278.423 346.3 278.6C345.623 278.727 344.927 278.712 344.256 278.557C343.585 278.402 342.953 278.111 342.4 277.7C341.809 277.339 341.3 276.86 340.904 276.292C340.508 275.724 340.234 275.079 340.1 274.4C339.989 273.684 340.02 272.954 340.191 272.25C340.363 271.547 340.672 270.884 341.1 270.3H341.2Z" fill="#309E3A"/>
<path d="M343 271.4C342.4 272.4 342.1 273.4 342.2 274.2C342.269 274.605 342.419 274.991 342.643 275.335C342.866 275.679 343.158 275.973 343.5 276.2C343.817 276.42 344.177 276.57 344.557 276.639C344.936 276.708 345.326 276.694 345.7 276.6C346.5 276.4 347.3 275.8 348 274.7C348.7 273.7 349 272.8 348.8 272C348.8 271.2 348.3 270.6 347.6 270C346.9 269.4 346.1 269.4 345.3 269.6C344.5 269.8 343.8 270.4 343.1 271.4H343Z" fill="white"/>
<path d="M246.4 229L248.1 221.4L253.7 222.7L253.4 224L249.4 223L249 224.7L252.7 225.6L252.4 226.9L248.7 225.9L248.2 228L252.4 229L252.1 230.3L246.4 229Z" fill="#309E3A"/>
</g>
<defs>
<clipPath id="clip0_2_1642">
<rect width="512" height="512" fill="white"/>
</clipPath>
</defs>
</svg>
