<svg width="512" height="512" viewBox="0 0 512 512" fill="none" xmlns="http://www.w3.org/2000/svg">
<g clip-path="url(#clip0_2_1686)">
<path d="M0 0H512V512H0V0Z" fill="#FFD520"/>
<path d="M0 512H512V0L0 512Z" fill="#FF4E12"/>
<path d="M281.9 162.5C277.9 161.1 275.5 163.1 275.6 168.2C275.7 173.2 278.4 176.1 282.3 174.2L281.9 162.5Z" fill="white" stroke="black" stroke-width="0.4"/>
<path d="M285.3 153.1C282.1 150.5 279 151.6 277.5 156.4C276 161.2 277.6 164.8 281.9 164.3L285.3 153.1Z" fill="white" stroke="black" stroke-width="0.4"/>
<path d="M290.7 144C287.9 141 284.7 141.5 282.5 146C280.3 150.5 281.2 154.3 285.5 154.5L290.7 144ZM287.2 188.2C282.4 190 281.9 196.5 284.9 200.5C287.9 204.5 293.4 205.3 296.5 200.5L287.2 188.2Z" fill="white" stroke="black" stroke-width="0.4"/>
<path d="M281.6 174.4C277.1 172.9 273 179 272.3 184.4C271.5 191.4 261.7 193.6 267.1 204.1C268.2 197.4 272.6 193.8 276.1 193.5C279.6 193.3 284.9 192.5 287.1 188.2L281.6 174.4ZM295.9 201.3C290.7 202.6 289.9 209.6 293.7 214.6C296.9 218.9 307 217.9 306.7 213.6L296 201.3H295.9ZM310.9 243.6C311.1 239.1 303.9 237.3 300.4 238.2C296.8 239.1 290.1 238.1 288.5 234.3C287.3 237.3 289.1 240.6 294.2 242.3C298 243.5 298 246.3 296.8 247.5C299.8 248 308.3 248 310.8 243.6H310.9Z" fill="white" stroke="black" stroke-width="0.4"/>
<path d="M306.8 214.7C301.6 212.5 298.5 215.9 296.6 219.3C293.6 224.2 284.8 217.9 281.8 224.4C285.8 222.7 290 226.4 291.9 227.7C297.5 231.3 308.1 230.2 309.6 221.7L306.8 214.7Z" fill="white" stroke="black" stroke-width="0.4"/>
<path d="M309.8 220.8C304.6 224.6 302.6 229.3 302.8 232.4C302.8 235.6 307.3 242.4 312 242.9C314.8 237.2 316.2 225.3 309.8 220.8ZM288.4 245C288.4 243.1 291.2 242.4 293.1 243C294.9 243.6 297.8 245.5 296.8 247.5L288.4 245ZM260 234.7C259.5 232.4 263.2 228.5 268 230.7C273 232.8 273.6 237 271.6 238.6L260 234.7Z" fill="white" stroke="black" stroke-width="0.4"/>
<path d="M272 238.8C271.6 237.6 275.1 235.1 281.1 236.6C287.1 238.1 288.6 242 288.4 245L272 238.8ZM259.4 234.7C262.5 232.3 261.4 227.7 258.5 226.4C253.4 223.9 255.3 217.4 252 216.1C248.7 214.9 245.6 212.6 245.5 210.3C243.8 213.5 244.8 216.3 247.1 218.3C249.4 220.3 245.3 228.5 248.2 230.7L259.4 234.7ZM192.1 232.9C189.5 228.8 183.1 229.6 180.6 232.4C177.9 235.4 178.3 239.6 180.8 241.4L192.1 232.9ZM207.1 226.8C206.1 221.3 199.5 220.6 195.9 222C192.2 223.4 189.7 229 192.1 233L207.1 226.8Z" fill="white" stroke="black" stroke-width="0.4"/>
<path d="M217.2 226C219.6 221.4 215 214.5 209.7 213.5C205.3 212.6 200.1 212.7 198.4 208.3C197.4 212.1 200.1 214.5 203.4 216.6C206.7 218.8 202.8 224.3 208.1 227.4L217.2 226Z" fill="white" stroke="black" stroke-width="0.4"/>
<path d="M216.7 226.2C215.7 222.9 217.9 218.4 222.4 218.7C226.9 219.1 229.4 222.3 227.4 226.4L216.7 226.2Z" fill="white" stroke="black" stroke-width="0.4"/>
<path d="M226.8 226.4C226.1 223 229 218.9 233.4 219.9C237.8 220.8 239.9 224.4 237.4 228.2L226.8 226.4Z" fill="white" stroke="black" stroke-width="0.4"/>
<path d="M236.7 228C236.3 224.6 239.3 220.6 243.7 221.8C248.1 222.9 250 226.6 247.2 230.3L236.7 228ZM161 285.6C152.6 285.6 150.5 287.6 149.3 296.2C147.8 307 162.5 308.2 161 285.6Z" fill="white" stroke="black" stroke-width="0.4"/>
<path d="M164.7 274.3C151.8 269.3 144.7 289.8 132 286.2C136.6 293.5 147.7 286.2 151.8 286.9C158.8 288.2 174 285.6 164.8 274.3H164.7ZM156.3 302.3C149.9 299.3 143 309.1 144.3 313.4C145.9 318.9 160.5 314.4 156.3 302.3ZM126.4 344.4C130 345.4 134.2 347.4 133.4 354.2C132.7 361 119.9 374.8 108.4 375.6C96.7999 376.3 92.6999 390.3 82.6999 386.4C91.9999 384.6 91.9999 374.1 99.2999 370.8C93.9999 368.9 91.2999 380.8 84.4999 380.8C77.6999 380.8 74.4999 391.7 66.1999 390.9C57.8999 390.2 56.9999 404 40.3999 404.2C27.7999 404.3 12.0999 419.2 6.3999 412.8C18.6999 411 23.6999 404.2 30.9999 396.7C42.7999 384.7 56.0999 390 60.6999 379.4C55.4108 382.935 49.1596 384.751 42.7999 384.6C35.0999 384.5 26.5999 396.9 17.9999 391.4C22.9999 390.8 26.2999 388.6 31.4999 383.1C36.8999 377.5 44.7999 381.1 51.0999 375.3C60.8999 366.3 69.2999 373.8 78.6999 362.5C76.0999 361.3 70.3999 362.2 65.1999 364.9C59.8999 367.7 53.1999 363 47.0999 366.3C47.7999 358.9 61.8999 363.1 70.6999 358C80.6999 352.2 88.7999 354 96.6999 354.6C85.6999 354.6 81.4999 344.2 66.3999 347.2C59.8999 348.5 54.5999 338.2 48.0999 343.4C48.2999 339.5 55.0999 336.4 62.0999 340.2C69.0999 343.9 72.0999 336.9 86.0999 345.7C91.7999 349.3 101.7 343.4 108 347.3C107.2 344.9 103.6 343.4 99.3999 343.8C102 338.4 119 339.1 126.4 344.5V344.4Z" fill="white" stroke="black" stroke-width="0.4"/>
<path d="M137.6 336.3C132.1 332 124.4 337.2 119.2 335.1C119.2 338.7 120.9 343.9 126.7 345.9C130.532 342.895 134.204 339.691 137.7 336.3H137.6Z" fill="white" stroke="black" stroke-width="0.4"/>
<path d="M146.3 324.1C137.6 319.7 136.1 330.6 129.3 328.4C129.6 331.5 132.1 335.4 137.6 336.3L146.3 324.1Z" fill="white" stroke="black" stroke-width="0.4"/>
<path d="M151.4 314.2C138.6 309.2 137 321.5 129.4 319.1C131.2 323.3 142 325.6 147.5 324.1L151.5 314.1L151.4 314.2ZM169 260.3C165.6 255.5 158.5 259.4 157.3 265.1C156.2 270.7 159 278.6 163.7 276.9L169 260.3Z" fill="white" stroke="black" stroke-width="0.4"/>
<path d="M177.7 245.2C171.7 243.9 165 244.5 165.7 250.2C163.5 251.2 162.8 258.7 169 260.3L177.7 245.3V245.2Z" fill="white" stroke="black" stroke-width="0.4"/>
<path d="M181.6 241.3C175.8 234.6 169.3 234.7 165.7 237.6C159.1 242.9 152.7 239.8 152.4 245.1C156.4 242.1 160 245.7 163.2 244.6C166.5 243.5 168.9 249.8 177.9 247.1L181.6 241.3ZM167.6 342.7C168.5 344.3 173.9 345.1 176.6 342.3C180 338.6 176.2 328.5 170.6 327.7C165.1 327 164.6 339.2 167.6 342.7Z" fill="white" stroke="black" stroke-width="0.4"/>
<path d="M161.3 343C169.3 345.8 172.6 339.3 168.3 335.1C166.14 337.851 163.802 340.457 161.3 342.9V343Z" fill="white" stroke="black" stroke-width="0.4"/>
<path d="M131.7 353.7C130.2 358.3 122.4 359 113.7 373.1C104.8 387.1 96.3998 381.2 94.2998 390.9C104.8 382.4 113.1 388 119.4 379.6C129 366.8 136.8 368.6 140.5 360C145.8 347.7 168.9 348 170.1 328.6C162.4 327.1 137.7 348 131.7 353.7ZM330 164C340 167.3 340.3 180.3 351.8 184.6C363.4 188.8 364.5 199.1 373.9 196.6C365.1 194.2 365.7 184.1 356.6 181.6C345.8 178.6 341.8 162.2 333.2 159.7M376 232.2C377.8 236.2 377.5 243.3 371.3 245.2C374.7 247.4 379.7 245.3 382.4 240.7C378.3 249.9 381.1 258.2 387.6 259.7C384.5 253.4 391.5 250.4 389.2 246.2C393.4 248 397 253.6 396.9 257.2C402.3 251.2 392.9 243.1 394.6 237.4L376 232.2ZM311 296.7C304.8 291.3 302.2 298.1 299.2 295.7C296.4 293.6 292.6 293.3 291.2 295.5C296.4 295.6 293.9 299.7 304.1 300.7C293.9 301.4 295.7 312.8 288.9 312.3C296.2 319.2 299.9 306.1 305.9 308.3C304.1 308.8 308.6 312.9 305.5 318.4C310.5 318.3 312.6 311.3 313.3 307.6L311 296.7ZM175.5 355.3C173.2 353.5 166.7 352.6 164.2 354.1C161.7 355.6 162.6 356 165.6 356.2C168.6 356.5 172.5 361.3 166 361.6C163 361.7 164 369 157.7 369.6C160.2 372.6 167.6 370.6 170.2 367.1C169.7 370 173.5 372.5 172 375.9C176.6 376.4 174 366.5 181.3 367C178.3 367.4 179.5 374.2 184.8 372.4C181.7 373.9 183.3 377.6 186.8 376.7C184.6 377.4 183.8 380.3 186.9 382C189.9 377.8 186.6 363 175.5 355.3ZM449 216.7C453.615 216.7 458.04 214.867 461.303 211.604C464.567 208.34 466.4 203.915 466.4 199.3C466.4 194.685 464.567 190.259 461.303 186.996C458.04 183.733 453.615 181.9 449 181.9C444.385 181.9 439.959 183.733 436.696 186.996C433.433 190.259 431.6 194.685 431.6 199.3C431.6 203.915 433.433 208.34 436.696 211.604C439.959 214.867 444.385 216.7 449 216.7Z" fill="white"/>
<path d="M330 164C340 167.3 340.3 180.3 351.8 184.6C363.4 188.8 364.5 199.1 373.9 196.6C365.1 194.2 365.7 184.1 356.6 181.6C345.8 178.6 341.8 162.2 333.2 159.7M131.7 353.7C130.2 358.3 122.4 359 113.7 373.1C104.8 387.1 96.3998 381.2 94.2998 390.9C104.8 382.4 113.1 388 119.4 379.6C129 366.8 136.8 368.6 140.5 360C145.8 347.7 168.9 348 170.1 328.6C162.4 327.1 137.7 348 131.7 353.7ZM376 232.2C377.8 236.2 377.5 243.3 371.3 245.2C374.7 247.4 379.7 245.3 382.4 240.7C378.3 249.9 381.1 258.2 387.6 259.7C384.5 253.4 391.5 250.4 389.2 246.2C393.4 248 397 253.6 396.9 257.2C402.3 251.2 392.9 243.1 394.6 237.4L376 232.2ZM311 296.7C304.8 291.3 302.2 298.1 299.2 295.7C296.4 293.6 292.6 293.3 291.2 295.5C296.4 295.6 293.9 299.7 304.1 300.7C293.9 301.4 295.7 312.8 288.9 312.3C296.2 319.2 299.9 306.1 305.9 308.3C304.1 308.8 308.6 312.9 305.5 318.4C310.5 318.3 312.6 311.3 313.3 307.6L311 296.7ZM175.5 355.3C173.2 353.5 166.7 352.6 164.2 354.1C161.7 355.6 162.6 356 165.6 356.2C168.6 356.5 172.5 361.3 166 361.6C163 361.7 164 369 157.7 369.6C160.2 372.6 167.6 370.6 170.2 367.1C169.7 370 173.5 372.5 172 375.9C176.6 376.4 174 366.5 181.3 367C178.3 367.4 179.5 374.2 184.8 372.4C181.7 373.9 183.3 377.6 186.8 376.7C184.6 377.4 183.8 380.3 186.9 382C189.9 377.8 186.6 363 175.5 355.3ZM449 216.7C453.615 216.7 458.04 214.867 461.303 211.604C464.567 208.34 466.4 203.915 466.4 199.3C466.4 194.685 464.567 190.259 461.303 186.996C458.04 183.733 453.615 181.9 449 181.9C444.385 181.9 439.959 183.733 436.696 186.996C433.433 190.259 431.6 194.685 431.6 199.3C431.6 203.915 433.433 208.34 436.696 211.604C439.959 214.867 444.385 216.7 449 216.7Z" stroke="black" stroke-width="0.4"/>
<path d="M358 237.7C363.3 232.7 371.3 230.2 376.8 234C382.3 237.7 400.7 242.2 409.8 236C418.8 229.7 423 226.4 427 227.2C430 231.7 433.7 233.8 438.2 234.2C439.6 235.7 444.5 237 447.2 236.6C451.2 237.6 456.2 236.3 460.1 232.1C466.1 232.9 471.7 228.4 473.9 221.6C480.3 220.9 480.7 213.7 476.6 209C472.9 208.2 475.8 195.5 462.1 198C467.8 201.5 463.4 208.6 468.2 211.8C465 211.8 460.8 213.2 459.8 218.1C461 214.7 459.6 212.5 458.7 211.7C458.8 208.8 452.4 201.7 446.4 204.3C450.7 205.3 448.3 212.3 451.4 214.9C450.226 214.96 449.08 215.278 448.043 215.831C447.006 216.384 446.103 217.159 445.4 218.1C443.7 215.2 438 212.2 434.4 212C434.4 211 434.3 209 433.8 208C431.871 204.604 431.099 200.673 431.6 196.8C428.6 200 426 204.6 424.6 207.8C419.8 204.6 408 209.3 402.4 210.6C396.9 211.9 378.4 208.8 374.1 204.3C368.151 199.558 361.158 196.302 353.7 194.8C343 191.7 342.9 180 331.1 171.9C330.9 186.5 353 232.7 358 237.7ZM235 348.7C239.455 348.7 243.728 346.93 246.879 343.78C250.03 340.629 251.8 336.356 251.8 331.9C251.8 327.445 250.03 323.171 246.879 320.021C243.728 316.87 239.455 315.1 235 315.1C230.544 315.1 226.271 316.87 223.12 320.021C219.97 323.171 218.2 327.445 218.2 331.9C218.2 336.356 219.97 340.629 223.12 343.78C226.271 346.93 230.544 348.7 235 348.7Z" fill="white" stroke="black" stroke-width="0.4"/>
<path d="M194.7 335.8C198.1 340.2 203.9 339.9 206.3 339.5C208.3 344.8 214.7 344.7 217.5 347.5C220.2 350.5 229.7 350.2 232.5 348.5C229.9 348.3 226.6 346.8 223.5 344.2C219.7 341 221.5 334.7 218.5 332.4C220.7 329.9 221.1 325.7 220.6 324.1C223 322.7 224.8 320.5 225 319.3C228.47 319.085 231.757 317.671 234.3 315.3C236.4 317.3 241.8 314.7 244.7 318.1C245.4 309.8 237.4 305.4 232.2 308.1C230 307.1 224.4 307.8 223.4 309.3C221.6 308.5 216.7 311 214.4 312.7C217 311.3 217.4 307.2 216.4 305.7C218.4 304.7 220.9 301.9 221.1 299.7C224.1 300.2 228.6 298.2 230.7 298.7C227.4 294.5 222 293 216.5 293.3C210.7 293.7 208.3 297.7 207.5 302C204.2 304 203 310.8 204.3 313.2C202.3 313.2 200.5 315 199.8 316.1C196.912 314.891 193.829 314.213 190.7 314.1M191.9 307.3C190.7 304 192.2 301.1 192.9 298.5C194.9 291.9 193.7 290.2 187.9 291.1C188.234 296.699 189.59 302.189 191.9 307.3Z" fill="white"/>
<path d="M194.7 335.8C198.1 340.2 203.9 339.9 206.3 339.5C208.3 344.8 214.7 344.7 217.5 347.5C220.2 350.5 229.7 350.2 232.5 348.5C229.9 348.3 226.6 346.8 223.5 344.2C219.7 341 221.5 334.7 218.5 332.4C220.7 329.9 221.1 325.7 220.6 324.1C223 322.7 224.8 320.5 225 319.3C228.47 319.085 231.757 317.671 234.3 315.3C236.4 317.3 241.8 314.7 244.7 318.1C245.4 309.8 237.4 305.4 232.2 308.1C230 307.1 224.4 307.8 223.4 309.3C221.6 308.5 216.7 311 214.4 312.7C217 311.3 217.4 307.2 216.4 305.7C218.4 304.7 220.9 301.9 221.1 299.7C224.1 300.2 228.6 298.2 230.7 298.7C227.4 294.5 222 293 216.5 293.3C210.7 293.7 208.3 297.7 207.5 302C204.2 304 203 310.8 204.3 313.2C202.3 313.2 200.5 315 199.8 316.1C196.912 314.891 193.829 314.213 190.7 314.1M191.9 307.3C190.7 304 192.2 301.1 192.9 298.5C194.9 291.9 193.7 290.2 187.9 291.1C188.234 296.699 189.59 302.189 191.9 307.3Z" stroke="black" stroke-width="0.4"/>
<path d="M187.5 291.4C189 293 194.4 293.7 194.9 288.9C195.6 283.4 193.4 281.3 188.6 283.4C188.2 284.7 187.8 289.8 187.6 291.4H187.5Z" fill="white" stroke="black" stroke-width="0.4"/>
<path d="M188.7 283.2C190.7 284 195 285.7 197.4 281C199.4 277.1 196.8 274.1 192.6 274.4C191.6 275.5 189.6 279.5 188.6 283.2H188.7Z" fill="white" stroke="black" stroke-width="0.4"/>
<path d="M192.4 274C192.9 275.5 198 280.5 201.8 276.9C205.5 273.3 205.5 267.9 199.9 265.9C198.4 266.1 193.9 271.4 192.4 274Z" fill="white" stroke="black" stroke-width="0.4"/>
<path d="M199.9 265.8C201 269 204.5 274.4 211.1 271.8C217.6 269.4 214.8 261.2 211.8 259.6C210.1 259.6 202.9 262.9 199.8 265.8H199.9Z" fill="white" stroke="black" stroke-width="0.4"/>
<path d="M211.8 259.6C211.3 262.3 211.8 269.9 220.8 269.7C229.6 269.7 227.1 259.2 224.8 257.7C221.2 257.7 215.1 257.8 211.8 259.6Z" fill="white" stroke="black" stroke-width="0.4"/>
<path d="M225.3 258C224.3 260.2 222 274.2 239.4 270.4C241.7 269.9 247.6 256.9 225.2 258.1L225.3 258Z" fill="white" stroke="black" stroke-width="0.4"/>
<path d="M234.8 259.3C233 261.1 237.6 275.3 249.4 272.9C261.2 270.5 251.3 257 234.8 259.3Z" fill="white" stroke="black" stroke-width="0.4"/>
<path d="M244.8 261.4C243 265.4 245.8 276.9 260.3 276.9C273.6 276.9 259.7 261.7 244.9 261.4H244.8Z" fill="white" stroke="black" stroke-width="0.4"/>
<path d="M256.3 264.8C255.3 267 254.2 279.2 271.3 280.3C283.8 281 280.8 263.4 256.3 264.8Z" fill="white" stroke="black" stroke-width="0.4"/>
<path d="M274.7 270C272.6 273.8 270.3 283.2 289.2 284C301.2 284.4 293.8 270.2 274.7 270Z" fill="white" stroke="black" stroke-width="0.4"/>
<path d="M290.4 272.9C287.7 276.6 289.7 284 296.7 285.4C305.5 287.2 306.7 278.9 300.7 274.9C294.7 270.9 290.4 272.9 290.4 272.9Z" fill="white" stroke="black" stroke-width="0.4"/>
<path d="M299 274.6C297 278.1 298.2 286.6 311.5 286.6C314.3 286.6 324.8 275.9 299 274.6ZM195.9 438.4C201.085 438.4 206.058 436.34 209.724 432.674C213.39 429.008 215.45 424.035 215.45 418.85C215.45 413.665 213.39 408.692 209.724 405.026C206.058 401.36 201.085 399.3 195.9 399.3C190.728 399.3 185.768 401.355 182.111 405.012C178.454 408.668 176.4 413.628 176.4 418.8C176.4 423.972 178.454 428.932 182.111 432.589C185.768 436.246 190.728 438.3 195.9 438.3V438.4Z" fill="white" stroke="black" stroke-width="0.4"/>
<path d="M339.1 154.3C337.6 155.8 334.5 160.3 333.9 162.1C327.3 181.7 344.8 196.4 354.9 217.4C359.109 226.917 360.813 237.353 359.85 247.715C358.888 258.077 355.29 268.021 349.4 276.6C345.1 282.3 346.4 283.9 340.9 289.7C338.8 291.9 336.4 294.7 337.1 302.7C340.7 301.5 345.7 304.7 346.7 307.5C349.2 306.3 352.7 306.8 354 308.3C358.2 306.3 361.8 307.3 365.5 311.3C368.8 310.8 372.3 311.3 375.5 314.8C377.3 311.3 380.8 310 383.3 310.8C383.1 306.3 387.6 303 391.6 304.8C391.274 303.506 391.304 302.147 391.686 300.869C392.069 299.59 392.791 298.439 393.775 297.537C394.759 296.635 395.969 296.016 397.276 295.745C398.583 295.475 399.939 295.563 401.2 296C405.7 292.5 414.7 292.2 419.2 297.5C411.2 295.2 411.5 303.8 404.7 303C406.5 308 401.9 311 397.4 312.5C400.3 311.2 403.4 309.5 404.4 311.3C406.9 309.1 412 309.9 413.2 311C416.6 310 419.8 310.8 421.2 314.8C425.8 317.6 428.8 324.6 425.5 329.8C424.5 324.3 420.8 324.6 419.3 322.3C415.7 323.6 412.3 323.6 411.3 321.3C409.3 323.3 402.4 325.1 399.4 322.1C398.3 326.6 394.4 330.4 389.9 330.4C391.1 333.9 387.6 339.9 384.9 342.9C389.1 345.2 387.9 350.2 386.9 353.2C393.4 354.2 387.9 360 399.2 363.8C393.6 365.5 382.8 363.8 381.3 357C375.8 356.7 372 351.2 372.3 345.4C368 341.4 367.3 335.7 373.3 331.6C368.3 333.1 365.5 325.1 358.3 328.4C354.6 330 345.1 327.2 345.2 323.9C343.7 326.4 334.5 325.4 333.2 321.1C330.2 322.7 323.2 320 323.3 315.8C319.4 317.6 314.2 314.4 314.4 310.4C310.8 309.9 310.4 306.7 310.6 303.9C307.4 302.4 308.3 299.2 309.6 295.5C307.3 293 308.3 289.5 310 286.2C307.5 283.7 308 280.7 308.8 277.2C296.7 276.2 281.6 273.2 247 262.6C194.8 246.6 180.7 284.2 192.2 307.8C205.6 335 190.7 340.9 195.2 361.3C200 362.3 202.5 366.3 202.2 370.6C205.1 370.6 207.2 373.3 206.2 378.3C207.527 378.085 208.886 378.182 210.17 378.581C211.454 378.98 212.628 379.671 213.6 380.6C215.3 377.3 221.1 376.6 224.1 380.4C230.7 379.9 233.9 385.1 233.7 391.7C235.259 394.653 235.946 397.989 235.68 401.318C235.415 404.647 234.208 407.832 232.2 410.5C232.5 407.9 232.2 404.1 232 401.8C231.8 397.7 226 396.8 226.6 393.4C223.6 393.7 220.7 392 219.7 389.8C218.828 390.536 217.78 391.034 216.658 391.244C215.536 391.455 214.379 391.37 213.3 391C216.7 392.5 219.3 398.6 218.3 402.6C220.1 405.6 219.7 411.1 217.6 413.6C216.6 418.4 212.8 420.2 207.9 418C209.118 417.182 210.1 416.059 210.749 414.743C211.399 413.427 211.692 411.964 211.6 410.5C209.956 408.834 208.963 406.635 208.8 404.3C203.9 405.1 197.1 400.9 195.8 399.3C193.239 399.313 190.706 399.83 188.345 400.823C185.984 401.815 183.842 403.262 182.04 405.082C180.239 406.902 178.814 409.059 177.846 411.43C176.878 413.801 176.387 416.339 176.4 418.9C175.9 414.9 170.8 410.9 171.4 407.5C168.4 398.2 172.7 389.5 185 387.8C183.5 384.3 188.7 380.6 186.7 376.6C182.792 369.481 177.986 362.894 172.4 357C176.7 349.7 175.4 340 172.9 333.9C169.3 325.2 165.9 327.4 153.1 341.4C132.1 364.4 104.3 358 79.6998 373.1C73.1998 377.1 66.6998 378.6 73.6998 371.6C80.6998 364.6 99.2998 357.6 111.4 351.5C134 340.2 153.1 321.3 160.6 284.7C178.3 198.5 243.5 226.9 284.6 243C323.3 258 316.3 223.9 296.7 203.3C273.2 178.6 277.9 159.1 288.9 143.5C308.8 140.8 346.8 147.7 339.1 154.3Z" fill="white" stroke="black" stroke-width="0.4"/>
<path d="M409 366C411.823 366 414.619 365.444 417.228 364.363C419.836 363.283 422.206 361.699 424.203 359.703C426.199 357.706 427.783 355.336 428.863 352.728C429.944 350.119 430.5 347.323 430.5 344.5C430.5 341.677 429.944 338.881 428.863 336.272C427.783 333.664 426.199 331.294 424.203 329.297C422.206 327.301 419.836 325.717 417.228 324.637C414.619 323.556 411.823 323 409 323C403.298 323 397.829 325.265 393.797 329.297C389.765 333.329 387.5 338.798 387.5 344.5C387.5 350.202 389.765 355.671 393.797 359.703C397.829 363.735 403.298 366 409 366Z" fill="white" stroke="black" stroke-width="0.4"/>
<path d="M327.1 155.3C322.3 176.4 326.3 186 333.4 195.3C347.9 214.5 359.4 258.3 342.9 286.9" stroke="black" stroke-width="0.4"/>
<path d="M352.2 262.2C354.2 261.4 358 259.1 358.9 254.9M353.7 253C354.3 249.4 360 247.8 360.1 244M353.8 238.8C353.5 235.1 359.5 231.7 358.6 227.9M350.6 225.3C350.1 223.2 355.6 219.1 354.1 215.7M346.4 212.1C345.3 209.7 349.1 207 347.4 204.4M340.4 201.5C340 199.9 342.4 196.3 341.1 194.2M334.4 189.2C334.9 188.5 336.9 187 336.1 185.1M330.2 180.1C331.1 179.6 333.5 178.8 333.2 177" stroke="black" stroke-width="0.4" stroke-linecap="round"/>
<path d="M204.5 416.8C199.5 415 193.2 417.5 192 421.8M195.7 425.7C196.4 421.4 202.9 419.5 204.9 421.5C200.8 419.3 198.8 427.3 202.4 427.5M236.2 326.4C233.2 327.9 232.2 333.4 236.2 337.5M240.7 327.6C238.6 329.4 238.7 334.6 241.8 335.9C239.2 334 241.8 330.8 243.8 330.6C245.6 330.6 246.8 332.8 244.6 335M417.1 340C410.1 338.2 404.4 346.3 410.8 353.6C410.8 346.6 415.8 341.9 421.8 343.2M419.1 348C418.742 347.986 418.384 348.046 418.05 348.177C417.716 348.308 417.413 348.506 417.16 348.76C416.906 349.013 416.708 349.316 416.577 349.65C416.446 349.984 416.386 350.342 416.4 350.7C416.4 352.1 417.6 353.4 419.5 353.4C420.8 353.4 421.8 352 421.8 350.8M443.8 193.8C445 198.2 450.8 199.9 455.5 198.9M455.5 196.1C451.9 196.3 448.9 192.9 449.1 190C449.1 192.1 454.1 193.1 455.5 191.7" stroke="black" stroke-width="0.4" stroke-linecap="round" stroke-linejoin="round"/>
<path d="M206.3 339.5C205.3 337 209.3 334.5 209.4 332.1C209.6 329.7 214 327.9 218.4 332.4M216.4 305.6C215.4 306 214.7 306.6 214 306.8M225 319.3C224 319.3 221.7 319.3 220.5 318.4M220.6 324.1C219.7 324.5 217.8 325.3 216.6 325.5M177.6 399.9C177.4 402.2 179.6 405.5 180.9 406.5M187.3 394.5C186.1 396.5 185.3 399.7 186.1 401.9M206.1 402.1C203.8 400.6 205.3 396.7 205.1 394.1C204.8 391.6 207.7 387.6 213.3 391.1M184.9 387.8C187.2 387.4 189.6 387.5 191.1 388.1M213.6 380.6C212.803 381.757 212.32 383.101 212.2 384.5M224.2 380.3C222.4 380.3 220.9 381.6 220.1 382.9M199.8 316C201.8 316.7 207 319.9 207.2 323.2M221.1 299.6C214.9 299.6 212.6 293.2 217.2 293.2M232.2 308C229.8 309 230.9 313.2 234.2 315.2M217.5 347.5C216.3 346 217.8 341.5 221.7 342.9M226.7 393.3C226.9 389.5 231.7 387.3 233.7 391.5M208.8 404.2C208.5 400 210.6 398.6 212.5 398.4C214.4 398.1 217.1 399.7 218.3 402.4M171.3 407.4C171.6 404.9 173.8 402.2 176 402.6M401.2 296C399.5 297.2 398.5 302.5 404.7 303M391.7 304.8C391.7 305.4 392.4 306.3 392.9 306.6M421.2 314.8C419.6 313.5 415.4 318.6 419.2 322.3M381.3 357C380.3 353.4 383.7 352.5 386.8 353.2M373.3 331.6C375.2 330.4 377.1 329 379.4 328.4M372.3 345.4C372.3 342.4 373.8 339.9 375.2 339.2M383.3 310.8C383.246 313.965 384.078 317.082 385.7 319.8M413.2 311C411.4 311.6 409.8 312.3 409.1 313.8M411.2 321.3C412.1 320.6 413.1 319.7 413.5 319.1M458.7 211.7C458.7 215.2 454.3 217.1 451.4 214.9M468.2 211.9C470.2 213.3 476.9 211.9 475.3 208M460 232C458.173 231.482 456.539 230.438 455.3 229M473.9 221.6C472.226 222.03 470.455 221.853 468.9 221.1M438.2 234.2C439.5 234.2 442.5 233.7 444.5 232.6M434.5 212C433.19 211.757 431.837 212.006 430.7 212.7M459.7 218.1C459.237 220.064 458.191 221.842 456.7 223.2" stroke="black" stroke-width="0.4" stroke-linecap="round"/>
<path d="M430.2 223.7C433.3 222.3 437.2 233 444.7 229.2M445.4 218.2C444.4 219.5 443.7 221.6 443.6 223.5" stroke="black" stroke-width="0.4" stroke-linecap="round" stroke-linejoin="round"/>
<path d="M295.2 201.8C296.2 201.7 298 201.3 298.3 200M166 318.8C169.8 320.9 172.4 324.6 170.8 330M338.6 190.4C339.8 191.1 344 191.1 346.4 190.2M349.4 192.9C349.4 194.6 349.8 201.3 346.4 202.7M347.7 201.7C350.8 202.7 357.1 202.4 359.1 196.7M354.7 201.5C355.238 202.323 355.594 203.252 355.744 204.224C355.893 205.196 355.834 206.188 355.569 207.135C355.303 208.082 354.839 208.961 354.206 209.714C353.574 210.467 352.787 211.076 351.9 211.5M355.9 205.7C359.6 206.9 368 207 367.1 199.9M364.3 205.7C366.8 209.2 377.8 213.3 376.1 206M354.1 215.8C358.4 216.8 364.4 213.9 361.9 206.4M373.9 210.2C374.6 213.1 388.6 216.1 386.7 209.6M384.1 213.3C386.7 219.3 400.7 218.9 396.3 210.8M394 217C396.8 220.4 409 218.4 404.2 210.2M404.1 216.9C411.7 222.6 420.6 214.4 411 208.3M415.4 215C422.1 220.4 430.4 210.6 424.5 207.8M361.7 212.8C363.9 213.4 368.4 213.1 369.4 209.2M367.7 211.8C367.5 217.6 377.1 219.8 379.5 213.2M376.3 216.7C378.1 220.5 386.5 222 387.9 216.7M386.5 219.1C387.9 222.9 395.2 222.5 397.2 218.6M394.5 221.1C396.8 226.1 406.1 226.1 408.2 218.9M406.6 222C410.2 224.3 418 223.4 417.4 216.4M415.9 221.4C421.3 225.8 428.9 221.5 425.2 214.1M424.8 227.1C427.7 226.7 429.2 220.9 426.2 219.4M357.9 228.2C363.9 224.9 365 219.4 360.9 214M363 222.7C366.8 224.9 374 222.5 375.2 217M368.2 223.3C370.2 226 370.7 229.4 367.9 232.6M369.9 226.8C376.6 222.6 384.9 230.3 378.7 235M377.6 226.4C379.1 226 381.7 223.3 382 220.1M380.6 229.3C383.3 226.4 402.2 232.3 390.3 238.3M389.3 221.3C393 222.8 394.9 227.9 389.3 229.7M394.1 234C398.1 229.8 410.7 232.5 406.2 237.7M403.2 232.3C405.4 224.7 418.9 229.4 414.5 232.6M400.5 224.6C400.8 226.2 400.9 229.9 398.5 231.9M411.7 223.2C411.954 224.034 412.022 224.914 411.902 225.777C411.781 226.641 411.473 227.467 411 228.2M420.3 223.2C421 224.7 422.3 227.2 419.5 229.4M312.8 165.5C312.9 172.7 315.4 177.5 325.1 172.9M315.8 174.1C311 180.5 316.4 187.4 325.8 180.5M301.1 177.2C307.6 184.2 319.3 179.1 311.8 168.4M319.7 183.2C318.4 190.2 324.1 191.5 328.7 188.4M295.3 178.4C296.5 185.3 303.6 190.8 310.5 186.4M304 188C304 197.9 317.7 199 320.8 188.7M315.8 195C320.3 204 329.8 200.4 333 194.9M306 180.4C307.8 184.9 311.3 189.8 319.5 186.1M280.9 178.3C282 182 288.6 186.3 296.1 181.3M285.6 183C281.6 188.9 289.6 194.4 299.2 185.6M290.3 190.3C292 198.5 295.3 205.2 307 194.5M301.1 198.8C305.4 204.1 311.9 207.3 318.1 198.4" stroke="black" stroke-width="0.4"/>
<path d="M322.7 200.3C322.3 206.6 323.6 209.7 328.5 209.5C332.3 209.3 336 206.2 338.1 202.9M327.6 209.5C327.5 216.6 333.1 222.3 343.6 215M332 217.9C330 223.3 336 232.1 347.8 227.5M307 203.5C306.2 210.5 312.7 215.1 323 206.2M312 211.2C312.4 216.9 318.8 223.7 328.2 213.9M316.5 218.4C315.8 228 324.7 230.8 332.2 223.4M303.2 211.2C305.2 211.3 306.7 209.6 307.7 208.3M307.4 218.3C309.1 218.6 312.1 217 313.1 215M311.8 229.7C313.8 231.8 320.6 230.3 321.4 227.4M319.4 229.5C323.1 238.3 333.1 238 337.3 228M335.3 231.6C337.3 236.7 342 240 349.8 238.2M339.1 236.8C334.7 244 340.5 252.4 350.3 244.1M341.5 247.5C341 252 345.2 257.2 350.8 257.8M323 234.3C321.5 244.5 328.8 249.3 338 244M312.4 239.2C314.8 241.1 319 241.3 323 239.8M328 245.8C325.7 254.3 334.5 260.4 342 250.9M315.8 240.6C315.8 245 320.2 249.8 327.6 248.4M348.3 257.2C343.3 260.6 342.3 266.6 349.3 270.5M336 255.5C336.2 260.5 338.6 263.5 344.3 263.9M328.6 252.8C321 259.7 328.4 267.8 337.4 260.9M333.8 263.1C331.3 271 340.8 275.8 345.8 267.7M318.3 246.2C315.5 254 319 259.2 325.4 258.7M308.4 244.7C308.7 249.4 312.7 251 317.3 250M311.3 249.6C307.8 256.2 313 259.6 319.8 257.2M340.4 271.7C339.3 275.9 339.9 278.9 346 280.3M340.8 277.6C333.3 281 332.8 288.2 338.5 292.8M334.8 269.7C333.906 270.469 333.21 271.441 332.768 272.534C332.326 273.627 332.151 274.809 332.259 275.983C332.367 277.157 332.753 278.289 333.386 279.283C334.02 280.277 334.881 281.106 335.9 281.7M301.9 246.7C297.6 251 301.6 262.6 311.1 256.2M326.3 261.4C320.5 266.2 323.2 274.9 332.7 272.4M316.7 257.8C313.7 266.3 316.7 269.3 323.4 269.5" stroke="black" stroke-width="0.4"/>
<path d="M295.4 246.4C294.47 247.046 293.688 247.883 293.105 248.854C292.522 249.826 292.153 250.91 292.02 252.035C291.888 253.16 291.996 254.3 292.337 255.38C292.679 256.46 293.245 257.455 294 258.3C296.2 260.8 300.5 259.7 301.8 256.4M284.6 243C278.9 250.4 284.6 259.2 292.8 256.6M315.5 265C309.6 267 305.1 272.5 308.8 277.1C310.8 279.9 320.2 280.3 322.8 269.6M304.8 258.1C301.5 263 302.6 267.6 308.8 270M304.5 267.2C300.9 269.2 298.5 271.6 299.3 276M296.3 259.6C295 265.5 296.6 269.1 300.3 270.9M296.2 266.6C290.6 266.2 287.7 268.6 289.6 274.1M290.1 268C284.5 266 283.7 261.2 286.1 256.2M285.3 263.6C279.3 263.8 276.6 266.8 276.6 271" stroke="black" stroke-width="0.4"/>
<path d="M277.1 240.1C272.7 242 271.3 247.9 273 251.1C274.6 254.4 279.8 254.7 282.9 252.5M264.9 235.5C260.8 240 265.4 248.8 272.6 246.6M254.6 231.9C250.8 237.2 254.9 246 264.6 243.5M265.1 268C264.1 261.7 270.6 257.6 278.6 265.7M274.7 253C273.574 254.048 272.708 255.343 272.17 256.784C271.631 258.225 271.436 259.771 271.6 261.3M244.2 229C240.1 236 245.1 242.5 254 240M267.5 246.5C261.5 252.4 263.5 258.3 268 261.7M263.7 253.4C254.7 253.5 254.3 263.8 261.6 267.1M256.9 243.1C253.3 245.6 252.1 252.5 258.4 255.3M256.7 258.5C252.9 256.8 248.4 258.9 248.7 263.3M251 258.7C247.6 250.7 237.7 252 238.6 260.3M253.8 248.7C251.6 249.1 247.4 250.4 245.8 253.7M246.4 239.7C242.4 244.2 245.4 249.7 248.7 250.7M234.4 227C233.7 232.4 235.8 235 242.6 234.6M236.8 233.9C234.2 240.5 237.7 243.3 244.5 242.9M238.3 241.9C234.3 246.7 237.1 251.9 241 254M236.4 248C229.3 247.1 228.2 255.4 230.5 259.3" stroke="black" stroke-width="0.4"/>
<path d="M230.7 226.3C226.3 228.2 223.7 233.7 226.1 237.1C228.5 240.5 233.3 239.4 235.9 237.6M227.6 238.6C224 244.1 227.3 248.3 231.2 249.9" stroke="black" stroke-width="0.4"/>
<path d="M213.6 225.7C210.6 228.7 212.5 234.8 219.5 235C225.1 235 228 229.7 226.3 226M218.5 235C216.2 240 217.6 245.4 226.1 244.5M229.8 252.4C224.5 250 217.5 252.4 220.5 258.7M219.7 243.5C217.6 246.5 218.4 250.8 220.7 253.5M219.4 251.5C215.8 252.1 212.4 254 214.6 259.5M214.1 255C209.6 253.7 203.8 257 207.3 261.6M206.5 257.2C202.7 256.6 198 260.7 201.8 264.8M200.3 261.4C196.8 262.4 192.6 266.4 196.3 269.4M218 241.7C213 244 212.4 249.7 214.8 253.7M212.7 231.3C205.2 234.2 205.3 244.3 213.6 247.3M210.1 245.1C205.5 247.8 204.7 252.8 207.7 256.1M202.2 227.5C199.2 228.5 199.4 237.8 207.4 237.5M193.9 230.7C187.9 234.7 195.1 244.9 204.9 237.6M199.5 240.1C198.6 244.2 199.8 248.8 206.5 249.3M199.9 245.6C198.59 246.262 197.544 247.348 196.93 248.681C196.316 250.014 196.171 251.515 196.519 252.941C196.866 254.366 197.686 255.632 198.845 256.533C200.003 257.433 201.433 257.915 202.9 257.9M184.7 236.7C178.6 242.4 189.7 247.3 193.9 239.1M176.2 246.1C173.2 249.8 183.7 259.3 188.3 243.4M189.5 243.1C189.7 246.9 192 249.1 196.6 249.4M196.6 253C189.1 254.2 186.7 263.5 195 265.5M182.8 251.8C182.6 255.3 186.2 258.2 190.4 257.6M194.1 265.2C187.3 266.7 186.5 275.5 192.5 275M189.4 283.2C183.7 281.5 183.6 274.8 188.6 272.2" stroke="black" stroke-width="0.4"/>
<path d="M184.7 277.3C179.9 280.1 181.8 287.1 184.3 288.1C186.8 289.1 188.8 287.8 189.1 285.7M188.7 295.3C189.2 298.6 177.1 297.3 183.3 287.2M183.3 295.9C179.2 302.3 185.8 307.5 190 302.1M183.8 303.6C182.2 308.8 188.4 312.5 192.4 308.5M170.3 255.5C168 260.1 179.3 261.8 180.1 252.3M167.1 262.3C164.9 271.3 181.9 269.5 177.5 257.8M177.9 263.8C179.031 264.328 180.269 264.584 181.516 264.547C182.764 264.511 183.985 264.183 185.083 263.59C186.181 262.998 187.125 262.156 187.84 261.133C188.555 260.111 189.021 258.935 189.2 257.7M184.1 264.1C184.419 265.373 184.991 266.569 185.781 267.617C186.571 268.665 187.564 269.543 188.7 270.2M175.9 266.5C175.2 271.4 180.1 275.4 185.7 275M176.7 271.2C174 275 173.2 282.2 181.8 282.8M163.6 272.5C162.2 276.4 170.4 280.4 175.2 274M161.1 282.4C160.4 285.4 167.8 289.4 171.9 276.8M168.6 283.2C170.4 286.3 176.3 288.8 179.9 282.7M174 286.4C172.5 290.8 176.7 295 181.7 293.7M164.7 285.4C163.7 291.7 170.9 295.4 175.4 292.1M159.8 288.1C157.7 296.2 168 299.2 171.8 293.2M169.3 295.6C169.6 300.1 176.7 304 182.2 300.2M156.7 299.4C156.2 301.4 164.7 303.4 165.9 296.4M161.6 301.1C163.6 306.3 170.4 307.5 174.3 301.2M172 303.7C172.9 308.5 179 311.2 184.5 307.9M186.7 309.8C185.3 316.2 192 321.3 196.1 317.8M176.1 308.7C174.1 315.7 182.8 319.7 187.7 315.8M165.5 305.1C165 311.7 170.1 315.6 176 312.7M154.3 305.7C152.6 310 161.9 313.5 166.3 309.9M148.5 317.4C150.9 320.2 159.2 317.4 160 311.3M157.7 315.8C160.7 319.3 167.9 321.2 170.7 313.7M168.3 317.6C168.1 323 177.8 326.9 180.9 316.9M192.3 318.9C191.4 321.5 193.5 325.7 197.8 326.2M184.3 317.2C183.7 320.2 188.1 324.5 192.7 322.8M193.7 324C192.4 327.3 193.4 332 197.8 332M194.1 330.1C190.8 332.9 192.1 337.8 196.9 338M192.4 334.8C187.7 337.9 189.4 344.8 195.5 344.4M178.3 321.4C178.3 328.2 186.7 329.2 188.3 323M185.1 327C183.8 331 187.1 334.9 192.2 333.8M186.1 375.5C187.2 377.1 191.9 374.3 190.6 371.5C189.4 368.8 184.4 370.3 185 373.2M189.5 370.4C190.1 364.9 183.5 364 181.9 368.8M184.3 366C186 363.3 180.4 359.5 178.2 363.5M180.2 361.9C181.7 357.9 175.4 356.1 174.9 359.8M173.5 354.5C174.3 352.5 181.3 353.7 178.3 357.9M183.7 362.9C186.5 360.4 181.8 355.2 178.9 357.1M202.3 370.6C200.1 370.8 197.8 372.2 199.4 376.9C200.6 380.1 205.4 380.3 206.1 378.3" stroke="black" stroke-width="0.4"/>
<path d="M199 372.9C197 371.5 192.3 373.9 194.4 378.3M194.4 378.3C196 381.7 200.1 380.3 200.7 378.6M194.4 378.3C193.5 380.4 188.1 381.3 187.1 379.3M190.7 373.1C191.9 372.4 193.9 373.3 194.4 374.3M190.4 342.2C186.7 344.6 189 351.8 194.6 350M189.2 348C186.3 350.3 189 357.4 194.4 354.7M190.1 354.7C188.1 356.7 190.1 362.3 195.3 361.3M189.3 357.5C188.3 357 185.3 357.4 184 359.2M186 332.1C183.3 334.7 184.6 340.1 189.8 340.5M185.1 337.5C181.1 339.5 181.1 347.4 189.1 347.7M184.8 346.4C182.6 348.2 183.6 355 189.3 354.1M186.6 353.9C185.8 354.7 185.6 356.7 186.3 357.6M184.1 351.3C182.1 351.3 179.4 352.8 178.7 354.9M175.1 347.6C175.9 345.6 182.1 345.7 182.5 351.6M183.1 344.6C182.406 344.744 181.762 345.07 181.235 345.544C180.707 346.018 180.316 346.625 180.1 347.3M180.4 326.2C177.7 328.6 176.4 336.3 184.6 337.8M175 342.1C175 340.1 180.6 338.3 182.5 341.4M171.4 330.9C172.2 332.4 176.1 334.6 178.4 332.9M151.2 318.6C151.163 319.503 151.324 320.403 151.672 321.237C152.019 322.071 152.545 322.819 153.211 323.428C153.878 324.038 154.67 324.495 155.532 324.766C156.394 325.038 157.304 325.117 158.2 325C162.4 324.5 163.2 320.8 162 318.4M158.8 325.1C156.1 328.5 159.5 333.3 162.6 331.9M162 322.7C163.6 322.1 169 321.3 170.6 323.8M144.6 323.8C143.3 325.6 151.1 327.5 153.6 323.8M151.1 325.8C150.8 328.2 152.1 332.5 158.5 330.8" stroke="black" stroke-width="0.4"/>
<path d="M159.5 334.6C160.5 332.6 155.7 329 152.1 332.9C148.4 336.8 152.6 341.2 154.8 339.7M142.8 326.2C140.8 329.5 148.2 335.5 152.3 329.9" stroke="black" stroke-width="0.4"/>
<path d="M138 331.9C135.3 334.6 138.6 339.5 142.5 338C146.5 336.5 146.1 332.4 145.2 331.3" stroke="black" stroke-width="0.4"/>
<path d="M132.8 336.9C130.8 338.9 132.8 343.4 135.8 343.4C138.8 343.4 140.5 341.1 139.9 338.2M144.9 336.5C144.4 339.5 148.7 341.5 151.5 338.7M151.6 333.5C152 332.8 151.6 331.8 151 331.3M128.3 340.8C125.8 342.8 131.1 348.2 134.4 343.2M147.2 339.7C145.6 341.2 148.1 345.2 150.6 344M138.6 342.5C138.9 345.2 144.2 347.2 147.6 343.1M141.4 345.1C140.6 346.9 142.3 349.6 144.3 349.2M191.4 360.7C189.4 364.5 195.7 369 200.2 364.4M195.9 366.4C194.9 368.4 196.1 371.4 197.9 372.4M190 370.7C190.5 368.9 193.2 367.1 195.6 368M186.8 365.8C187.1 364.1 189.4 362.4 191.1 362.8M334.6 287.4C325.7 287.6 329.5 301.9 337.1 299M331.7 298C330 300.9 333.4 305.5 337.1 302.8M336.1 303.3C333.5 307.7 342.9 314.4 346.7 307.5M343.7 310.2C343.7 314.3 355.9 316.9 354.1 308.7M353 313.2C355.8 318.1 366.6 318.6 365.5 311.2M363.1 316.3C365.4 319.6 375.9 321.6 375.6 314.8M320.3 275C321.8 278.9 327 280.3 332.6 278M317 277.8C320.6 280 315.4 290.3 310 286.2M317 284.2C321 286 325.7 284.7 327 279.2M324.7 283.4C325.1 286.3 329.2 288.6 334.7 287.4M315 286.4C320 290.7 312.8 299.4 309.5 295.4M316.9 289.7C319.3 291.4 325.5 290.4 326.1 285.7M323.3 289.7C323.8 292.7 326.3 293.8 329.6 294M315.6 293.8C318.1 297.3 324.3 298.4 327.1 293.7M331.7 301.7C327.8 302.5 324.1 299.7 324.3 296.3C324.8 301.1 318.9 303.6 315.2 301.5M310.7 303.9C313.9 305.5 317.4 299.4 314.7 295.1M314.4 310.4C318.4 310.7 318.8 304.7 315.2 301.4M323.3 315.8C326.6 315 325.6 307.8 317.7 307.3M333.2 321.1C336.4 320.2 333.9 312.3 325.2 312.8M345.2 323.8C347.3 320.6 340.2 315 334.5 317.9M351.1 328.4C355 329.4 357.6 319.2 345.3 320.8M358.3 328.4C361.6 327.4 364 321.4 354.1 323.4M365.8 328.9C368.8 330.4 370.2 321.6 361 323.9M322.8 300.5C324.1 302.7 323.6 307.1 321.2 308.3M323.2 305.8C325.7 306.8 329.1 305.8 331.1 301.8M327.6 305.8C328.3 307.5 328.6 311 327 312.8M328.2 308.8C331 310.3 334.2 308.3 335.6 305.4M333.9 307.9C335.9 309.1 337.6 315 334.3 317.4M336.1 314.7C338.5 314.8 342.1 314.8 344.3 311.7M342.7 313.4C344.8 314 347.3 317.6 346.4 320.7M346.6 319.6C349 319.3 353.1 317.6 354.2 314.8M353.1 316.7C354.166 317.343 355.024 318.279 355.574 319.395C356.123 320.512 356.341 321.763 356.2 323M356.2 321C358.6 320.8 360.7 319.6 361.4 317M360.7 318.7C362.5 319.3 364.7 321.3 364.7 323.7M364.5 322.2C366.3 321.9 367.5 320.8 368.7 319.1M373.4 318.8C375.7 321.1 372.7 328.6 368 327.2M325.2 166.6C320.6 169.4 307.4 168.6 313.9 157.6M326.5 159.2C317.3 162.9 306 155.8 317.8 148.2M314.7 145.7C307 145.7 301.9 158 312.2 162.2M284.9 150.8C282.9 154.8 290.1 159 294.9 155.1C298.8 152.1 298.5 143.9 296.2 140.8M281 160C278.5 168.3 297 168.8 294 155.6M280 172.3C280.6 178.6 297.7 176.6 292.2 163.9M294.2 160.4C295.6 162.3 299.3 165.5 305.7 164.9M297.2 151.5C297.8 153.7 301.6 155.5 306.5 153.8M125.9 342.6C121.5 345.7 128.2 350.6 130.6 345.2M122.5 345C118.2 348 124.8 353 127.3 347.6M118.9 347.3C114.6 350.4 121.2 355.3 123.7 349.9M115.1 349.5C111 351.7 115.8 357.1 120.1 352.3M111.1 351.5C106.9 353.7 111.8 359.1 116 354.4M132 345.1C132 348.3 138.1 349.6 140.3 344.8M136 348C134.1 350.4 137.6 353.4 139.5 352.3M127.9 347.6C127.7 350.3 133 351.8 135.6 348.9M130.8 350.4C129.1 352.6 132.4 355.6 134.6 354.7M124.4 350C124.6 352.2 127.6 354.6 130.9 353.2M126.3 352.9C125.1 354 125.7 356.7 127.5 357.5M119.8 352.7C119.3 354.7 122.6 358.1 126 355.9M120.5 354.9C118.5 356.6 118.7 358.9 121.3 359.3M115.7 354.7C115.4 356 117.1 358.2 119.3 357.9M104.9 354.6C102.9 355.6 108.1 361.1 111.3 356.1M100 356.9C97.5 358.1 103.7 364.1 106.5 357.9M116.3 356.6C114.3 357.1 113.1 359.9 114.7 361M109.9 357.6C109.7 358.8 112 360.6 113.9 359.9M108.3 358.1C106.3 359.3 107.3 362.6 109.6 362.1M101.6 360.3C99.8 361.6 101 364.3 103.4 363.6M104.8 360.1C104.8 360.8 106.4 361.9 107.7 361.5M95.4 359C93.2 360 93.3 365.5 100.7 362.5M90.4 361.2C87.4 362.7 88.4 366.9 95.1 362.9M95.6 363.2C94.8 363.8 93.9 366.6 97 365.5M90 364.5C88.7 365.6 89.5 368 92.3 367.1M83.5 364.9C81.2 366.2 86.2 367.9 89.5 364.5M85 366.5C84 367.5 84 370.5 86.6 369.5M78.6 367.7C77.1 368.9 79.6 370.4 84.4 368.3M80.4 369.3C78.7 370.8 78.9 372.6 81.4 372.1M75.3 370.1C73.3 371.9 76.1 373.1 79.5 371.7M75.3 372.1C72 373.6 73.4 376.4 75.5 375.3M186.5 381.7C185.7 383.4 188.2 384.7 190.6 384.4C192.9 384 195.1 382.1 193.4 379.4M193.4 382.7C195.7 384.5 199.8 382.5 199.8 379.8" stroke="black" stroke-width="0.4"/>
<path d="M332 116.7C322 111.7 301.1 102.3 295.2 109.9C300.6 107.6 316.4 110 329.5 122.1L332 116.7Z" fill="white" stroke="black" stroke-width="0.4"/>
<path d="M338 116.1C326.5 102.6 319.6 105.6 311.3 101C303.4 96.6001 290.9 95.7001 288.5 102.7C300 97.1001 310.5 105.7 316.9 106.7C325.9 108.1 330.9 115 333.5 118.2L338.1 116.2L338 116.1ZM381.8 114.4C375.8 100.6 362.9 104.2 357.2 98.4001C348.9 89.8001 328 81.9001 319.3 87.8001C338.3 86.8001 346.5 100.9 356.7 105.8C364 109.4 371.7 116.9 381.8 114.4Z" fill="white" stroke="black" stroke-width="0.4"/>
<path d="M359.2 112.9C348.9 100.1 333.2 88.8 325.8 93.1C335.4 93.6 338.4 100.2 345.2 104.5C352 108.8 348.9 114.9 359.2 112.9ZM310.2 135.5C299.5 131.5 278.4 129.5 268.6 141.8C284.9 144.5 309.6 143 310.3 135.5H310.2Z" fill="white" stroke="black" stroke-width="0.4"/>
<path d="M308.3 140.3C297.5 135.3 289 142.3 278.9 141.3C259.5 139.4 245.7 140.5 243.9 149.8C255 139.9 273.6 148.1 281.1 146C288.7 144 316.5 145.8 325.3 149.6C320.8 144 313.8 142.6 308.3 140.3ZM342.2 111.5C339.6 103.2 339.8 94.5001 352.2 95.1001C349.1 91.1001 337.5 89.1001 335.6 103.7C321.9 93.7001 307 91.9001 304.2 100.6C311.2 94.6001 322.2 99.0001 335.2 113.8C337.396 112.665 339.759 111.889 342.2 111.5Z" fill="white" stroke="black" stroke-width="0.4"/>
<path d="M323.3 123C315.5 118 305 109.8 323.4 106.5C315.6 102.2 304 104.1 305.3 118.7C284.1 110.1 269 113 265.8 121.4C262.3 130.7 275.4 135.9 277.6 130C275.2 131 267.1 128.2 271.3 123C275.6 117.7 297.5 121.6 318.3 132.5C324.1 135.5 343.9 135 323.3 123Z" fill="white" stroke="black" stroke-width="0.4"/>
<path d="M317.8 136.8C311.8 124.5 292.3 135.6 288.4 123.8C283 141.2 316.1 131.5 317.8 136.8ZM441.8 150.1C445.8 152.1 449.4 148.9 443.1 146.4C447.1 148.4 450.8 145.4 444.5 142.8C448.6 144.8 452.2 141.8 445.9 139.2C444.2 140.9 441.9 147.1 441.7 150.1H441.8ZM443.8 126.5C452.9 116.9 443.1 113.7 454.2 103.9C463.2 95.9 455.9 90.5 464.5 84.3C467.2 82.3 473.2 78.3 473.8 74.3C477.4 83.3 462.5 84.5 463.5 99.1C464.1 108.4 457.8 107.6 455.5 123.1C454.9 126.5 452.7 133.8 443.9 126.5H443.8Z" fill="white" stroke="black" stroke-width="0.4"/>
<path d="M447.9 130.7C452.9 119.9 458.7 120.1 461.4 115.9C466.7 107.9 477.9 117.3 487.4 110.1C485.7 120.3 473 116.7 467.4 123.2C462 129.7 457.4 132.7 447.9 130.7Z" fill="white" stroke="black" stroke-width="0.4"/>
<path d="M449.1 134.3C457.9 127.3 464.4 131.9 470.5 128.3C485.8 118.9 492 130.1 505.6 125.7C502 134.5 481.8 127 473 133.5C464.2 140 433.3 146.3 449.1 134.3ZM423.5 184.3C423.271 181.894 422.255 179.63 420.61 177.858C418.966 176.087 416.783 174.907 414.4 174.5C409.1 173.9 406.8 168.4 402.8 168.1C398.8 167.9 396.1 159.9 390.6 160C385.1 160.1 382.8 167.3 395.8 173.8C408.8 180.3 423 187.8 423.5 184.3ZM407.2 187.7C401.7 188 400.9 196 395.6 196.3C402.9 200.2 408.2 194.5 412 189.5L407.2 187.7Z" fill="white" stroke="black" stroke-width="0.4"/>
<path d="M411.7 188.7C407 192.7 405.6 201.2 412.5 203.6C408.3 197.9 419.8 195.3 416.2 190L411.7 188.7Z" fill="white" stroke="black" stroke-width="0.4"/>
<path d="M416.5 189C412.7 196.3 422.4 197.2 419.9 202.7C425.4 201.4 426.3 191 421.3 188.2L416.5 189Z" fill="white" stroke="black" stroke-width="0.4"/>
<path d="M379.6 173.4C388.6 172.9 396.9 177.8 402.4 185.7C405.9 190.7 417.7 192.7 421.8 188.7C425.8 184.7 423.5 176.2 413.5 178.9C411 174.7 403.7 176.2 400.2 172.7C396.7 169.1 383.1 159.1 379.6 173.4Z" fill="white" stroke="black" stroke-width="0.4"/>
<path d="M413.5 179C411.1 179.4 410.3 183.6 411.8 185.7ZM418.6 181.5C419.4 182.7 418.9 184.5 418.5 185.4ZM393.9 173.8C398.5 174 399.4 177.4 404.4 178.7Z" fill="white"/>
<path d="M413.5 179C411.1 179.4 410.3 183.6 411.8 185.7M418.6 181.5C419.4 182.7 418.9 184.5 418.5 185.4M393.9 173.8C398.5 174 399.4 177.4 404.4 178.7" stroke="black" stroke-width="0.4" stroke-linecap="round"/>
<path d="M390.8 162.4C406.8 166.4 419.6 169.9 427.5 174.4C437.051 179.168 448.046 180.168 458.3 177.2C469 174.2 489.6 171.4 488.6 184.7C494.2 178.1 487.1 170.9 472.8 169.7C473.1 163.1 466.1 157.2 461.1 161.1C465.7 160.5 469.7 169.1 460.6 172.7C461.076 171.157 461.085 169.507 460.626 167.958C460.168 166.41 459.263 165.031 458.024 163.995C456.785 162.959 455.267 162.312 453.662 162.135C452.057 161.958 450.435 162.259 449 163C453.3 164.3 457.7 171.5 448 174.3C441.9 176.1 433 173.8 426.4 169.8C419.8 165.8 382.6 151.2 390.7 162.3L390.8 162.4Z" fill="white" stroke="black" stroke-width="0.4"/>
<path d="M431.3 155.8C426.3 158.1 429.5 163.4 421.8 166.4C414 169.4 408.6 176.4 410.3 182.2C415.6 170.7 424.9 171.2 428.2 166.6C431.4 162.1 436.2 155.5 431.3 155.8Z" fill="white" stroke="black" stroke-width="0.4"/>
<path d="M432.7 156.6C432.4 165.8 425.2 162.4 428 175.3C429.84 180.829 429.77 186.816 427.8 192.3C435.8 186.5 430.7 174.1 434.3 169.4C436.409 166.741 438.096 163.773 439.3 160.6C437.3 165.9 437.5 175.6 442.6 178.2C438.5 168.4 453.8 160.4 443.2 149.1C441.7 151.8 437 156.7 432.7 156.6ZM407.1 147.4C408.3 149.4 409.6 154.1 408.5 156.7C411.525 154.671 413.999 151.922 415.7 148.7C420.9 149.4 422.9 155.8 418 158.7C421 158.7 426.2 158.7 429 155.2C425.5 151.3 414.6 145.3 407 147.4H407.1Z" fill="white" stroke="black" stroke-width="0.4"/>
<path d="M329 129.4C327.643 128.321 326.019 127.63 324.3 127.4C316.7 125.9 320.7 119.1 327.1 119.1C340.9 104.1 348.7 115.7 365.5 110.9C371.5 109.2 375.5 109.7 378.7 111.1C386.2 106.1 395 107.5 401.4 113.4C402.1 112.3 403.1 111.4 404.4 111C410.4 109.4 415.1 114.4 416.7 121C421.3 120 426.6 122.4 430.1 125.5C434.8 123 438.1 122.9 439.3 125.5C443.6 123.5 449.1 122.2 451.9 129C454.7 135.8 445.4 133.7 443.9 148C442.9 156.9 433.1 160.4 425.3 155C412.8 146.7 400.7 145.3 394.6 158.1C388.6 170.9 383.9 178.4 369.3 174.1C364 172.7 357.3 174.7 353 180.5C348.7 186.2 342.2 180.8 334.4 181.5C344.2 180 340.4 177.5 348.9 176.9C356.7 176.4 354.7 169.2 359.7 168.1C340.2 173.1 340.9 165.9 324.8 170.9C331.8 161.9 342.9 166.9 348.4 161.6C333.9 161.4 327.4 151.9 320.8 155.8C310.5 162.1 315 180 288.2 178.4C275.2 177.7 266.8 179.4 259 187.2C272.6 159.2 291 174.6 300 165.6C304.657 161.426 308.698 156.611 312 151.3C312.401 150.523 312.966 149.843 313.657 149.308C314.348 148.772 315.148 148.394 316 148.2C293.6 141.2 307.1 130.2 329 129.4Z" fill="white" stroke="black" stroke-width="0.4"/>
<path d="M439.3 125.5C439.7 126.2 439.8 127.1 439.8 128.2C439.8 133.8 431.6 134 431.1 142.2C430.8 146.4 430.3 148.8 427.4 148.3C424.5 147.8 422 143.3 424.8 138" fill="white"/>
<path d="M439.3 125.5C439.7 126.2 439.8 127.1 439.8 128.2C439.8 133.8 431.6 134 431.1 142.2C430.8 146.4 430.3 148.8 427.4 148.3C424.5 147.8 422 143.3 424.8 138" stroke="black" stroke-width="0.4" stroke-linecap="round"/>
<path d="M333.1 121.2C331.35 119.938 329.257 119.241 327.1 119.2ZM378.6 111.1C385.3 114 388.5 120.9 398.2 121.1C407.5 121.5 413.2 135 428.8 126.2L430 125.6M401.4 113.4C400.075 115.843 399.617 118.663 400.1 121.4ZM371.1 141.8C359.2 141.8 356.2 147.8 356.2 153.6C356.2 159.4 361.8 166.9 371.5 166.9C381.3 166.9 386.6 160.9 386.6 154.3C386.6 147.7 380.6 141.8 371 141.8H371.1Z" fill="white"/>
<path d="M333.1 121.2C331.35 119.938 329.257 119.241 327.1 119.2M378.6 111.1C385.3 114 388.5 120.9 398.2 121.1C407.5 121.5 413.2 135 428.8 126.2L430 125.6M401.4 113.4C400.075 115.843 399.617 118.663 400.1 121.4M371.1 141.8C359.2 141.8 356.2 147.8 356.2 153.6C356.2 159.4 361.8 166.9 371.5 166.9C381.3 166.9 386.6 160.9 386.6 154.3C386.6 147.7 380.6 141.8 371 141.8H371.1Z" stroke="black" stroke-width="0.4"/>
<path d="M373.2 166.6C372.9 163.4 367 163.9 367.2 161.4C367.4 158.9 370.5 157.8 370.5 154.4C370.5 151 375.8 150.6 377.5 153.4C379.3 156.1 384.6 161.4 385.7 158.7M377.6 153.3C375.99 155.021 375.061 157.269 374.987 159.625C374.914 161.98 375.7 164.282 377.2 166.1M381.3 157.6C380.5 159.5 380.3 162.4 381.3 164.1Z" fill="white"/>
<path d="M373.2 166.6C372.9 163.4 367 163.9 367.2 161.4C367.4 158.9 370.5 157.8 370.5 154.4C370.5 151 375.8 150.6 377.5 153.4C379.3 156.1 384.6 161.4 385.7 158.7M377.6 153.3C375.99 155.021 375.061 157.269 374.987 159.625C374.914 161.98 375.7 164.282 377.2 166.1M381.3 157.6C380.5 159.5 380.3 162.4 381.3 164.1" stroke="black" stroke-width="0.4"/>
<path d="M428.2 148.4C437.5 149.1 439 139 432.2 138.4M416.9 120.9C413.7 116.9 406.3 115.5 406.2 124.1" stroke="black" stroke-width="0.4"/>
<path d="M405.3 134C402.2 126.2 394.1 125 389.9 129C386.3 132.2 386.2 140.6 393.9 142.4C396.5 139.3 401.7 135.1 405.3 134ZM401.9 129.1C397.3 125.1 390.7 132.7 396.7 139.7ZM316 148C319 147.3 323.4 148.8 330.2 152C334.5 154 347.2 158.3 355.3 154C347 157 340.8 144.4 334.5 146C328.2 147.5 316.7 149.8 311.9 145.2C323.7 146 330 136.6 343.5 144.7C347.33 147.099 351.782 148.316 356.3 148.2C345.3 134.9 330.7 143.4 329.2 132.6C335.9 139.8 352.2 131 360.4 144.4M331.6 134.6C330 132.7 330.7 130.8 329.1 129.3Z" fill="white"/>
<path d="M401.9 129.1C397.3 125.1 390.7 132.7 396.7 139.7M316 148C319 147.3 323.4 148.8 330.2 152C334.5 154 347.2 158.3 355.3 154C347 157 340.8 144.4 334.5 146C328.2 147.5 316.7 149.8 311.9 145.2C323.7 146 330 136.6 343.5 144.7C347.33 147.099 351.782 148.316 356.3 148.2C345.3 134.9 330.7 143.4 329.2 132.6C335.9 139.8 352.2 131 360.4 144.4M331.6 134.6C330 132.7 330.7 130.8 329.1 129.3M405.3 134C402.2 126.2 394.1 125 389.9 129C386.3 132.2 386.2 140.6 393.9 142.4C396.5 139.3 401.7 135.1 405.3 134Z" stroke="black" stroke-width="0.4"/>
<path d="M416.9 121C414.1 118 408.1 120.3 409.8 126.3C410.434 124.895 411.405 123.668 412.625 122.726C413.846 121.784 415.28 121.157 416.8 120.9L416.9 121ZM399.8 137C401.469 135.726 403.324 134.714 405.3 134C404.543 132.001 403.265 130.24 401.6 128.9C400.2 127.9 396 133.5 399.8 137Z" fill="black"/>
<path d="M392.4 126.8C387.9 123.8 383.7 124.1 382.4 126.6C379.1 126.5 376.4 128.9 376.2 133.6M383.2 135.6C377.8 131.9 370.4 133.3 370.9 141.6M367.7 146.3C370.3 144.2 374.1 142.7 376.9 146.4M407.9 138.1C406.9 139.5 406.2 141.7 407.9 144.9C405.9 142.3 400.8 142.3 395.4 149.3M419.9 137.8C413.4 138.5 413.5 142.8 418.8 144.7M373.4 121.8C367.9 120.7 363.9 124 371.5 126.8M384 118C376.2 116 373 118 376.6 119.8M361.5 149.2C361.2 152 362.8 155.6 367.3 151.5M363 157.5C363 158.3 362.9 159.1 362.4 159.8M344.9 120.8C340.2 119.3 339.3 114.9 344.8 115.3M343.3 130.9C338 129.1 338 123.9 342.4 124.5M353.1 128.2C346.9 126.7 346.7 122.5 351.3 123.1M353.8 115.1C350.6 114.9 345.5 118.6 354 120.7M363 122.5C355.3 121.3 355.5 124.5 360 126.5M368.8 115.2C362.8 114.1 360.8 117.6 364.8 119.1M350.3 137C348.9 135.8 347.7 130.1 354.6 131.8M364.6 135.2C360 134 355.6 138.5 359.8 141.2M370.8 129.8C365.8 129 361.8 130.3 364.4 132.1" stroke="black" stroke-width="0.4" stroke-linecap="round"/>
<path d="M416.6 121C415.123 121.269 413.733 121.891 412.549 122.814C411.364 123.737 410.421 124.933 409.8 126.3" fill="white"/>
<path d="M416.6 121C415.123 121.269 413.733 121.891 412.549 122.814C411.364 123.737 410.421 124.933 409.8 126.3" stroke="black" stroke-width="0.4"/>
</g>
<defs>
<clipPath id="clip0_2_1686">
<rect width="512" height="512" fill="white"/>
</clipPath>
</defs>
</svg>
