<svg width="512" height="512" viewBox="0 0 512 512" fill="none" xmlns="http://www.w3.org/2000/svg">
<g clip-path="url(#clip0_2_1778)">
<mask id="mask0_2_1778" style="mask-type:luminance" maskUnits="userSpaceOnUse" x="0" y="0" width="512" height="512">
<path d="M0 0H511.872V511.872H0V0Z" fill="white"/>
</mask>
<g mask="url(#mask0_2_1778)">
<path fill-rule="evenodd" clip-rule="evenodd" d="M0 0H1023.85V340.044H0V0Z" fill="#B20000"/>
<path fill-rule="evenodd" clip-rule="evenodd" d="M0 340.044H1023.85V511.975H0V340.044Z" fill="#429F00"/>
<path fill-rule="evenodd" clip-rule="evenodd" d="M0 0H113.314V511.872H0V0Z" fill="white"/>
<path fill-rule="evenodd" clip-rule="evenodd" d="M5.3664 8.6688H10.836V17.3376H5.3664V8.6688ZM21.5688 8.6688H37.7712V17.3376H21.672L21.5688 8.6688ZM26.9352 0H32.4048V8.6688H26.832L26.9352 0ZM53.9736 0H59.34V8.6688H53.9736V0ZM75.6456 8.6688H91.7448V17.3376H75.5424L75.6456 8.6688ZM80.9088 0H86.2752V8.6688H80.9088V0ZM16.2024 17.3376H27.0384V26.0064H16.2024V17.3376ZM32.4048 17.3376H43.2408V26.0064H32.4048V17.3376ZM70.176 17.3376H81.012V26.0064H70.176V17.3376ZM86.3784 17.3376H97.008V26.0064H86.4816L86.3784 17.3376ZM10.836 26.0064H21.5688V34.6752H10.836V26.0064ZM37.7712 26.0064H48.6072V34.6752H37.7712V26.0064ZM64.8096 26.0064H75.5424V34.6752H64.8096V26.0064ZM91.7448 26.0064H102.581V34.6752H91.7448V26.0064ZM102.581 8.6688H107.947V17.3376H102.581V8.6688ZM5.3664 34.6752H16.2024V43.344H5.3664V34.6752ZM43.1376 34.6752H53.9736V43.344H43.1376V34.6752ZM97.2144 34.6752H107.947V43.344H97.2144V34.6752ZM10.836 60.888H21.5688V69.5568H10.836V60.888ZM16.2024 69.5568H27.0384V78.2256H16.2024V69.5568ZM37.8744 60.888H48.504V69.5568H37.7712L37.8744 60.888ZM32.4048 69.5568H43.1376V78.2256H32.4048V69.5568ZM21.5688 78.2256H37.7712V86.688H21.672L21.5688 78.2256ZM26.9352 86.688H32.4048V95.46H26.832L26.9352 86.688ZM64.8096 60.6816H75.5424V69.4536H64.8096V60.6816ZM70.176 69.4536H81.012V78.1224H70.176V69.4536ZM91.848 60.7848H102.581V69.4536H91.7448L91.848 60.7848ZM86.3784 69.4536H97.008V78.1224H86.4816L86.3784 69.4536ZM75.5424 78.1224H91.848V86.688H75.5424V78.1224ZM81.012 86.688H86.3784V95.46H81.012V86.688ZM53.9736 78.1224H59.34V86.688H53.9736V78.1224ZM0 78.1224H5.3664V86.688H0V78.1224ZM107.947 78.1224H113.314V86.688H107.947V78.1224ZM26.9352 121.466H32.4048V130.135H26.832L26.9352 121.466ZM21.5688 130.135H37.7712V138.804H21.672L21.5688 130.135ZM16.2024 138.804H43.2408V147.473H16.2024V138.804ZM81.012 121.466H86.3784V130.135H81.012V121.466Z" fill="#B20000"/>
<path fill-rule="evenodd" clip-rule="evenodd" d="M75.5424 130.135H91.848V138.804H75.5424V130.135ZM70.176 138.804H97.1112V147.473H70.176V138.804ZM75.5424 182.148H102.581V190.92H75.5424V182.148ZM64.8096 147.576H102.581V156.245H64.8096V147.576ZM10.836 147.576H48.504V156.245H10.836V147.576ZM16.2024 190.92H32.4048V199.692H16.2024V190.92ZM10.836 182.354H37.7712V191.023H10.836V182.354ZM86.3784 164.914H113.314V173.686H86.4816L86.3784 164.914ZM81.012 190.92H97.2144V199.589H81.012V190.92ZM21.5688 199.589H27.0384V208.258H21.5688V199.589ZM86.3784 199.589H91.7448V208.258H86.3784V199.589ZM0 164.81H27.0384V173.582H0V164.81ZM48.504 182.251H64.8096V190.92H48.504V182.251ZM53.9736 190.92H59.34V199.589H53.9736V190.92ZM37.7712 164.81H75.5424V173.582H37.7712V164.81ZM59.4432 34.7783H70.176V43.3439H59.34L59.4432 34.7783ZM48.504 43.3439H64.7064V52.0127H48.504V43.3439ZM43.0344 52.0127H53.8704V60.6815H43.1376L43.0344 52.0127ZM59.2368 52.0127H70.176V60.6815H59.34L59.2368 52.0127ZM0 43.3439H10.836V52.0127H0V43.3439ZM5.3664 52.0127H16.2024V60.6815H5.3664V52.0127ZM102.581 43.3439H113.314V52.0127H102.581V43.3439ZM97.008 52.0127H107.844V60.6815H97.2144L97.008 52.0127ZM0 130.135H5.3664V138.804H0V130.135ZM107.947 130.135H113.314V138.804H107.947V130.135ZM48.6072 199.589H64.8096V208.258H48.504L48.6072 199.589ZM43.1376 208.258H53.9736V216.926H43.1376V208.258ZM59.34 208.258H70.176V216.926H59.34V208.258ZM37.7712 216.926H48.6072V225.595H37.7712V216.926ZM64.8096 216.926H75.5424V225.595H64.8096V216.926ZM32.4048 225.595H43.2408V234.264H32.4048V225.595ZM70.176 225.595H81.012V234.264H70.176V225.595ZM26.9352 234.264H37.7712V242.933H26.9352V234.264ZM75.5424 234.264H86.3784V242.933H75.5424V234.264ZM16.2024 242.933H32.4048V251.602H16.2024V242.933ZM81.012 242.933H97.2144V251.602H81.012V242.933ZM91.7448 234.264H102.581V242.933H91.7448V234.264ZM97.2144 225.595H107.947V234.264H97.2144V225.595ZM102.581 216.926H113.314V225.595H102.581V216.926ZM10.7328 234.264H21.672V242.933H10.836L10.7328 234.264ZM5.3664 225.595H16.2024V234.264H5.3664V225.595Z" fill="#B20000"/>
<path fill-rule="evenodd" clip-rule="evenodd" d="M0 216.926H10.836V225.595H0V216.926ZM21.672 251.602H27.0384V260.27H21.5688L21.672 251.602ZM86.3784 251.602H91.7448V260.27H86.3784V251.602ZM53.9736 225.595H59.34V234.264H53.9736V225.595ZM37.7712 251.602H43.1376V260.27H37.7712V251.602ZM70.176 251.602H75.5424V260.27H70.176V251.602ZM53.9736 251.602H59.34V260.27H53.9736V251.602ZM0 251.602H5.3664V260.27H0V251.602ZM107.947 251.602H113.314V260.27H107.947V251.602ZM53.9736 130.135H59.34V138.804H53.9736V130.135ZM27.0384 43.4473H32.4048V52.0129H27.0384V43.4473ZM81.012 43.4473H86.3784V52.0129H81.012V43.4473ZM48.504 104.026H64.7064V112.694H48.504V104.026ZM37.7712 112.798H53.9736V121.466H37.7712V112.798Z" fill="#B20000"/>
<path fill-rule="evenodd" clip-rule="evenodd" d="M43.1376 121.466H48.6072V130.135H43.1376V121.466ZM32.4048 104.129H43.2408V112.798H32.4048V104.129ZM37.7712 95.4601H53.9736V104.129H37.7712V95.4601ZM43.1376 86.7913H48.6072V95.4601H43.1376V86.7913ZM59.34 95.4601H75.5424V104.129H59.34V95.4601ZM64.8096 86.7913H70.176V95.4601H64.8096V86.7913ZM70.176 104.129H81.012V112.798H70.176V104.129ZM59.34 112.798H75.5424V121.466H59.34V112.798ZM64.8096 121.466H70.176V130.135H64.8096V121.466ZM86.3784 104.129H97.2144V112.798H86.3784V104.129ZM91.7448 95.4601H107.947V104.129H91.848L91.7448 95.4601ZM102.581 104.129H113.314V112.798H102.581V104.129Z" fill="#B20000"/>
<path fill-rule="evenodd" clip-rule="evenodd" d="M91.848 112.798H107.947V121.466H91.848V112.798ZM97.2144 121.466H102.581V130.135H97.2144V121.466ZM97.2144 86.7913H102.581V95.4601H97.2144V86.7913ZM0 104.129H10.836V112.798H0V104.129ZM5.3664 95.4601H21.672V104.129H5.3664V95.4601ZM16.2024 104.129H27.0384V112.798H16.2024V104.129Z" fill="#B20000"/>
<path fill-rule="evenodd" clip-rule="evenodd" d="M5.3664 112.798H21.672V121.466H5.3664V112.798ZM10.836 121.466H16.2024V130.135H10.836V121.466ZM10.836 86.7913H16.2024V95.4601H10.836V86.7913ZM5.3664 156.142H27.0384V164.81H5.3664V156.142ZM32.4048 156.142H54.0768V164.81H32.4048V156.142ZM59.34 156.142H81.012V164.81H59.34V156.142ZM86.3784 156.142H108.05V164.81H86.3784V156.142ZM43.1376 173.479H70.176V182.251H43.1376V173.479ZM5.3664 173.479H32.4048V182.251H5.3664V173.479ZM81.012 173.479H107.947V182.251H81.012V173.479ZM107.947 208.258H113.314V216.926H107.947V208.258ZM0 208.258H5.3664V216.926H0V208.258ZM5.3664 503.306H10.836V494.534H5.3664V503.306ZM21.5688 503.306H37.7712V494.534H21.672L21.5688 503.306ZM26.9352 511.872H32.4048V503.306H26.832L26.9352 511.872ZM53.9736 511.872H59.34V503.306H53.9736V511.872ZM75.6456 503.306H91.7448V494.638H75.5424L75.6456 503.306ZM81.012 511.872H86.3784V503.306H81.012V511.872ZM16.2024 494.534H27.0384V485.866H16.2024V494.534ZM32.4048 494.534H43.2408V485.866H32.4048V494.534ZM70.176 494.534H81.012V485.866H70.176V494.534ZM86.3784 494.534H97.008V485.866H86.4816L86.3784 494.534ZM37.8744 485.866H48.504V477.197H37.7712L37.8744 485.866ZM64.7064 485.866H75.5424V477.197H64.8096L64.7064 485.866ZM91.7448 485.866H102.581V477.197H91.7448V485.866ZM102.581 503.306H107.947V494.534H102.581V503.306ZM5.3664 477.197H16.2024V468.528H5.3664V477.197ZM43.1376 477.197H53.9736V468.528H43.1376V477.197ZM97.2144 477.197H107.947V468.528H97.2144V477.197ZM10.836 451.19H21.5688V442.522H10.836V451.19ZM16.2024 442.522H27.0384V433.853H16.2024V442.522ZM37.8744 451.19H48.504V442.522H37.7712L37.8744 451.19ZM32.4048 442.522H43.1376V433.853H32.4048V442.522ZM21.5688 433.853H37.7712V425.184H21.672L21.5688 433.853ZM26.9352 425.184H32.4048V416.515H26.832L26.9352 425.184ZM64.8096 451.19H75.5424V442.522H64.8096V451.19ZM70.176 442.522H81.012V433.853H70.176V442.522ZM91.848 451.19H102.581V442.522H91.7448L91.848 451.19ZM86.3784 442.522H97.008V433.853H86.4816L86.3784 442.522ZM75.5424 433.853H91.848V425.184H75.5424V433.853ZM81.012 425.184H86.3784V416.515H81.012V425.184ZM53.9736 433.853H59.34V425.184H53.9736V433.853ZM0 433.853H5.3664V425.184H0V433.853ZM107.947 433.853H113.314V425.184H107.947V433.853ZM27.0384 390.509H32.4048V381.737H27.0384V390.509Z" fill="#B20000"/>
<path fill-rule="evenodd" clip-rule="evenodd" d="M21.672 381.84H37.7712V373.068H21.672V381.84ZM16.2024 373.068H43.2408V364.399H16.2024V373.068ZM81.012 390.406H86.3784V381.84H81.012V390.406ZM75.5424 381.84H91.848V373.068H75.5424V381.84ZM70.176 373.068H97.1112V364.399H70.176V373.068ZM75.5424 329.724H102.581V321.055H75.5424V329.724ZM64.8096 364.399H102.581V355.73H64.8096V364.399ZM10.836 364.399H48.504V355.73H10.836V364.399ZM16.2024 321.055H32.4048V312.386H16.2024V321.055ZM10.836 329.724H37.7712V321.055H10.836V329.724ZM86.3784 347.062H113.314V338.496H86.4816L86.3784 347.062ZM81.012 321.055H97.2144V312.386H81.012V321.055ZM0 347.062H27.0384V338.496H0V347.062ZM48.504 329.724H64.8096V321.055H48.504V329.724ZM53.9736 321.055H59.34V312.386H53.9736V321.055ZM37.7712 347.062H75.5424V338.496H37.7712V347.062ZM59.4432 477.197H70.176V468.528H59.34L59.4432 477.197ZM48.504 468.528H64.7064V459.859H48.504V468.528ZM43.0344 459.859H53.8704V451.19H43.1376L43.0344 459.859ZM59.2368 459.859H70.176V451.19H59.34L59.2368 459.859ZM0 468.528H10.836V459.859H0V468.528ZM5.3664 459.859H16.2024V451.19H5.3664V459.859ZM102.581 468.528H113.314V459.859H102.581V468.528ZM97.1112 459.859H107.947V451.19H97.2144L97.1112 459.859ZM0 381.84H5.3664V373.171H0V381.84ZM107.947 381.84H113.314V373.171H107.947V381.84ZM43.1376 303.821H53.9736V295.152H43.1376V303.821ZM59.34 303.821H70.176V295.152H59.34V303.821ZM37.7712 295.152H48.6072V286.483H37.7712V295.152ZM64.8096 295.152H75.5424V286.483H64.8096V295.152ZM32.4048 286.38H43.1376V277.608H32.4048V286.38ZM70.176 286.38H81.012V277.608H70.176V286.38ZM26.9352 277.608H37.7712V269.042H26.9352V277.608ZM75.5424 277.608H86.3784V269.042H75.5424V277.608ZM16.2024 269.042H32.4048V260.27H16.2024V269.042ZM81.012 269.042H97.2144V260.27H81.012V269.042ZM91.7448 277.711H102.581V268.939H91.7448V277.711ZM97.2144 286.277H107.947V277.711H97.2144V286.277ZM102.581 295.049H113.314V286.38H102.581V295.049ZM10.7328 277.711H21.672V268.939H10.836L10.7328 277.711ZM5.3664 286.277H16.2024V277.711H5.3664V286.277ZM0 295.152H10.836V286.483H0V295.152ZM21.672 260.374H27.0384V251.705H21.5688L21.672 260.374ZM53.9736 286.483H59.34V277.608H53.9736V286.483ZM53.9736 381.943H59.34V373.171H53.9736V381.943ZM27.0384 468.631H32.4048V459.962H27.0384V468.631ZM81.012 468.631H86.3784V459.962H81.012V468.631ZM48.504 407.846H64.7064V399.178H48.504V407.846ZM37.668 399.178H53.8704V390.509H37.7712L37.668 399.178ZM43.0344 390.406H48.504V381.84H43.0344V390.406ZM32.3016 407.846H43.0344V399.178H32.4048L32.3016 407.846ZM37.7712 416.515H53.9736V407.846H37.7712V416.515ZM43.1376 425.184H48.6072V416.515H43.1376V425.184ZM59.34 416.515H75.5424V407.846H59.34V416.515ZM64.8096 425.184H70.176V416.515H64.8096V425.184ZM70.176 407.846H81.012V399.178H70.176V407.846ZM59.34 399.178H75.5424V390.509H59.34V399.178ZM64.8096 390.406H70.176V381.84H64.8096V390.406ZM86.3784 407.846H97.008V399.178H86.4816L86.3784 407.846ZM91.7448 416.515H107.947V407.846H91.848L91.7448 416.515ZM102.581 407.846H113.314V399.178H102.581V407.846ZM91.7448 399.178H107.947V390.509H91.848L91.7448 399.178ZM97.2144 390.406H102.581V381.84H97.2144V390.406ZM97.2144 425.184H102.581V416.515H97.2144V425.184ZM0 407.846H10.836V399.178H0V407.846Z" fill="#B20000"/>
<path fill-rule="evenodd" clip-rule="evenodd" d="M5.3664 416.515H21.672V407.846H5.3664V416.515ZM16.2024 407.846H27.0384V399.178H16.2024V407.846ZM5.3664 399.178H21.672V390.509H5.3664V399.178ZM10.836 390.406H16.2024V381.84H10.836V390.406ZM10.836 425.184H16.2024V416.515H10.836V425.184ZM5.3664 355.73H27.0384V347.062H5.3664V355.73ZM32.4048 355.73H54.0768V347.062H32.4048V355.73ZM59.34 355.73H81.012V347.062H59.34V355.73ZM86.3784 355.73H108.05V347.062H86.3784V355.73ZM43.1376 338.496H70.176V329.827H43.1376V338.496ZM5.3664 338.496H32.4048V329.827H5.3664V338.496ZM81.012 338.496H107.947V329.827H81.012V338.496ZM107.947 303.821H113.314V295.152H107.947V303.821ZM0 303.718H5.3664V295.049H0V303.718ZM48.504 260.374H53.9736V268.939H48.6072L48.504 260.374ZM59.34 260.374H64.8096V268.939H59.34V260.374ZM59.34 242.933H64.8096V251.602H59.34V242.933ZM48.6072 242.933H53.9736V251.602H48.6072V242.933ZM10.836 477.197H21.5688V485.866H10.836V477.197ZM86.3784 312.386H91.7448V303.718H86.3784V312.386ZM21.5688 312.386H26.9352V303.718H21.672L21.5688 312.386ZM48.6072 303.718H64.8096V312.386H48.504L48.6072 303.718Z" fill="#B20000"/>
</g>
</g>
<defs>
<clipPath id="clip0_2_1778">
<rect width="512" height="512" fill="white"/>
</clipPath>
</defs>
</svg>
