<svg width="512" height="512" viewBox="0 0 512 512" fill="none" xmlns="http://www.w3.org/2000/svg">
<g clip-path="url(#clip0_2_1926)">
<path d="M0 0H512V512H0V0Z" fill="#008000"/>
<path d="M268.2 311.6C302 311.6 329.4 284.2 329.4 250.4C329.4 216.6 302 189.2 268.2 189.2C234.4 189.2 207 216.6 207 250.4C207 284.2 234.4 311.6 268.2 311.6Z" fill="#FFE000"/>
<path d="M287.3 300.8C315.135 300.8 337.7 278.235 337.7 250.4C337.7 222.565 315.135 200 287.3 200C259.465 200 236.9 222.565 236.9 250.4C236.9 278.235 259.465 300.8 287.3 300.8Z" fill="#008000"/>
<path d="M75.2 253.4C110.657 253.4 139.4 224.657 139.4 189.2C139.4 153.743 110.657 125 75.2 125C39.7433 125 11 153.743 11 189.2C11 224.657 39.7433 253.4 75.2 253.4Z" fill="#FFE000"/>
<path d="M70.7 237.6H86.7C86.7 237.6 87.5 236.1 86.6 235.4C85.7 234.6 82.3 234.4 83.2 231.9C85.2 226.5 85.4 228.2 86.6 215.5C87.8 202.8 88.3 182.9 88.3 182.9H86C86 182.9 86.5 189.1 85.1 197.2C83.8 205.2 83.4 205.9 81.9 212.2C80.5 218.3 80.2 218.8 78.9 222.5C77.6 226.1 77.4 226.2 75.4 229.5L72.9 233.7C72.3 234.7 71.6 234.4 71.2 235.1C70.8 235.9 70.7 237.6 70.7 237.6Z" fill="#802000" stroke="#7B3100" stroke-width="1.4"/>
<path d="M83 142.5C83 145 82.8 148.2 81.8 150.9C80.8 153.9 79.6 156.9 79.7 159.9C78 160.6 76.3 156.4 74.7 158.9C75.9 162.2 78.7 164.9 80.6 167.9C80.9 168.9 83.6 171.4 82.1 171.9C78.1 170.6 77.1 165.5 74.6 162.4C73.1789 159.828 71.1332 157.656 68.6515 156.083C66.1699 154.51 63.3321 153.587 60.4 153.4C58.1 153.4 50.8 152.8 52.7 156.6C55.5 158.6 59 159.8 61.7 161.9C63.8 162.1 67.5 165.5 67.3 166.9C63.7 165.4 62 163.6 58.1 162.1C52.8 160.1 45.5 161.2 42.6 166.5C42 167.9 41.2 171.8 42.9 172.2C44.9 169.1 47.9 165.6 52.1 166.5C55.4 166.8 48.3 172.8 51.1 171.5C51.9 171.2 53.9 169.9 55.2 169.8C56.6 169.6 57.4 170.6 58.4 170.8C60.5 171.1 61.1 171.9 60.9 172.4C60.7 173 59.9 172.5 57.9 173.2C56.9 173.5 56.3 174.5 55 174.9C53.8 175.3 51.2 175.3 50.3 174.9C46.9 173.5 41.4 173.8 40.3 177.9C40.3 179.9 38.7 177.8 38 178.6C37.4 180.6 37.2 182.6 34.2 182.5C32.4 184.4 30.6 186.4 28.2 187.7C29.6 190.8 35 184.6 34.7 187.2C32.4 190.4 35.9 191.1 37.5 188.6C40.1 185.8 43.4 182.5 47.3 185.3C49.2 187 50.3 184.3 51.6 184.5C52.5 186.7 53.6 184.5 54.6 184C56.1 183.8 55.6 186 57.6 184.6C61.3 182.1 65.9 184.2 69.6 181.8C73.4 180 70.1 183.2 69 184.5C67.3 187.8 68.8 192.2 65 194.2C63.6 198.2 66.8 203.4 63.5 206.3C63 208.2 67.8 208 69.1 208.7C71.5 208.8 69.1 203.4 71.3 202.7C74.4 204.6 74.3 199.2 73.7 197.5C74 193.8 74.2 189.7 76 186.2C78 182.1 79.9 187.9 77.6 189.6C76.4 193.4 74.6 198.3 77.4 201.8C78.3 202 78.9 204 80 204.6C81 205.3 82.5 204.5 82.8 202.6C84.2 197.2 83.5 191.2 85.5 185.9C86.8 184.2 88.8 185.6 89.6 187.1C92.4 190.3 94.3 194.3 97.6 197C100.731 198.289 103.289 200.669 104.8 203.7C104.8 206.1 111.6 206.4 109.6 203.7C107.6 201.2 108.9 198.5 110.9 196.8C111.9 197.1 111.6 195.2 110.9 195.9C109.5 195.6 109.4 193.1 111.2 194.3C114.4 195.3 111 192 109.9 191.9C107.2 190.3 104.2 188.4 102.9 185.5C106.3 185.5 109.9 187.5 113.4 186.3C116.3 184.8 119.1 186.4 120.1 188.9C122.3 188.5 121.4 186.4 120.1 185.6C121.7 185 122.8 183.6 120.9 182.4C119.9 181 122.3 178.8 119.3 178.9C119.4 176.6 118.5 174.6 116.1 173.8C113.6 171.7 106.4 176.8 106.6 172.1C105.9 169.6 109.6 171.8 110.6 170.5C111.6 167.8 105.6 168.1 107.6 166C108.8 165.2 115 164 110.2 163C109.125 163.315 107.995 163.389 106.888 163.216C105.782 163.043 104.727 162.628 103.8 162C102.1 165 97.1 160.4 98 165.6C97.3 167.6 93 172.6 91.7 168.7C92.7 165.7 98 164.7 96.3 160.7C96.1 158.1 94 161.1 93 160.9C92.5 159.3 94.5 157.4 96 157C98.7 159.2 98.8 154.3 101.5 154.7C103.5 154.3 100.8 153.5 100.3 153.1C100.8 151.7 103.8 150.9 100.9 149.7C98.3 147.7 96.4 151.7 94.3 151.8C92.3 149.5 96.1 148.4 97.2 147.2C97.2 146.2 94.9 146.9 95.6 146.2C96.2 145 100.4 144.9 98.4 143.3C95.5 142.3 91.8 142.6 89 143.8C87.2 144.4 86.7 148.4 85.2 148.2C84.4 146.5 85.4 143 83 142.4V142.5ZM96.7 181.4C99 181 96.7 184.7 95.7 184.7C95.8 183.4 92.5 183.5 94.6 182.3C95.2363 181.847 95.947 181.508 96.7 181.3V181.4Z" fill="#008000"/>
<path d="M415.175 327.487L419.223 340.075L431.589 335.391L424.274 346.409L435.649 353.158L422.466 354.307L424.28 367.408L415.175 357.819L406.064 367.402L407.878 354.307L394.701 353.152L406.075 346.403L398.755 335.385L411.121 340.069L415.175 327.487Z" fill="#FFE000"/>
<path d="M341.679 211.119L345.727 223.706L358.093 219.022L350.778 230.041L362.153 236.79L348.97 237.939L350.784 251.04L341.679 241.45L332.568 251.034L334.382 237.939L321.205 236.784L332.58 230.035L325.259 219.017L337.625 223.7L341.679 211.119Z" fill="#FFE000"/>
<path d="M415.175 131.498L419.223 144.086L431.589 139.402L424.274 150.421L435.649 157.169L422.466 158.318L424.28 171.419L415.175 161.83L406.064 171.414L407.878 158.318L394.701 157.163L406.075 150.415L398.755 139.396L411.121 144.08L415.175 131.498Z" fill="#FFE000"/>
<path d="M480.504 191.52L484.553 204.107L496.918 199.423L489.604 210.442L500.978 217.191L487.796 218.34L489.61 231.441L480.504 221.851L471.393 231.435L473.207 218.34L460.031 217.185L471.405 210.436L464.085 199.418L476.45 204.102L480.504 191.52Z" fill="#FFE000"/>
<path d="M444.573 250.491L447.775 258.337L456.222 258.955L449.747 264.426L451.771 272.651L444.573 268.183L437.375 272.657L439.393 264.432L432.919 258.961L441.377 258.343L444.573 250.491Z" fill="#FFE000"/>
</g>
<defs>
<clipPath id="clip0_2_1926">
<rect width="512" height="512" fill="white"/>
</clipPath>
</defs>
</svg>
