<svg width="512" height="512" viewBox="0 0 512 512" fill="none" xmlns="http://www.w3.org/2000/svg">
<g clip-path="url(#clip0_2_1989)">
<path d="M0 0H512V512H0V0Z" fill="#000066"/>
<path fill-rule="evenodd" clip-rule="evenodd" d="M344.8 250.1L350.5 231.8L335.1 220.1L354.5 219.9L361 201.8L367.3 219.9L386.7 220.5L371.1 231.9L376.7 250.3L360.8 239.3M390.5 253.7L401.9 238.4L391.3 222.1L409.7 228.5L421.7 213.7V233L439.7 240.1L421.3 245.6L420.4 264.8L409.1 249M301.1 265.5L300.3 246.3L281.9 240.6L300.1 233.6V214.5L312.1 229.4L330.5 223.2L319.7 239.3L331.1 254.7L312.5 249.7M268.9 294.7L260.9 277.3L241.7 279.3L255.7 265.8L248.5 248.1L265.2 257.1L279.8 244.1L276.1 263.2L292.4 272.9L273.4 275.7M254.2 336.7L239.6 324.6L223.1 334.6L230.1 316.3L216.1 303.5L235 304.4L242.7 286.4L247.4 305.2L266.3 306.9L250.3 317.7M253.8 384L235.6 378.7L224.6 394.7L223.8 375L205.8 369L223.5 362.1V342.4L235.2 357.9L253.2 351.8L242.7 368.1M275.1 424L256.4 426.6L252.6 445.7L244 428L225.2 429.8L238.7 416.3L230.8 398.3L247.7 407.6L261.7 394.6L258.7 413.9M308.1 455.6L291.4 464.6L294.4 483.9L280.3 470.3L263.3 478.6L271.3 461.2L257.8 447.1L276.8 449.9L285.5 432.9L289.2 451.9M348.3 461.9L339.3 478.7L352.1 493.2L333 489.6L323.2 506L320.5 487L301.6 482.6L319 474.4L317.1 455.4L330.6 469.3M393.6 454.9L392.9 474.1L410.9 481.1L392.3 486.7L391 505.8L380 490.1L361.2 495L373.1 479.6L362.8 463.5L381.1 469.7M440.9 246.5L454 260.4L471.5 252.3L462.5 269.7L475 284L456.3 281L446.5 298L444 278.7L425.4 274.7L442.6 266M480.2 289.1L486.2 307.4L505.3 307.7L489.8 319.4L495 338L479.4 327L463.4 338.1L469.4 319.6L454.2 308L473.5 307.5M494.9 344L492.7 363L510 371.6L491 375.6L488 394.6L478.5 377.9L459.4 381.1L472.4 366.8L463.6 349.8L481.3 357.7M484.5 401.4L476 418.5L489.3 432.5L470.2 429.7L460.9 446.4L457.6 427.5L438.6 423.8L455.6 415L453.1 396L467.1 409.5M456.2 452.5L440.1 462.5L444.2 481.5L429.4 468.9L412.9 478.3L419.9 460.3L405.5 447.1L424.6 448.7L432.3 431.1L437.2 450.1" fill="white"/>
<path d="M0 -0.5H256V255.5H0V-0.5Z" fill="#000066"/>
<path d="M256 -0.5V31.5L161 127.5L256 221V255.5H222.5L127 161.5L34 255.5H0V221.5L93 128L0 36.5V-0.5H31L127 93.5L220 -0.5H256Z" fill="white"/>
<path d="M92 161.5L97.5 178.5L21 255.5H0V254L92 161.5ZM154 155.5L181 159.5L256 233V255.5L154 155.5ZM256 -0.5L160 97.5L158 75.5L233 -0.5H256ZM0 0L96.5 94.5L67 90.5L0 24V0Z" fill="#C8102E"/>
<path d="M88 -0.5V255.5H168V-0.5H88ZM0 87.5V167.5H256V87.5H0Z" fill="white"/>
<path d="M0 103.5V151.5H256V103.5H0ZM104 -0.5V255.5H152V-0.5H104Z" fill="#C8102E"/>
</g>
<defs>
<clipPath id="clip0_2_1989">
<rect width="512" height="512" fill="white"/>
</clipPath>
</defs>
</svg>
