<svg width="512" height="512" viewBox="0 0 512 512" fill="none" xmlns="http://www.w3.org/2000/svg">
<g clip-path="url(#clip0_2_2006)">
<path d="M0 0H170.7V512H0V0Z" fill="#007A5E"/>
<path d="M170.7 0H341.3V512H170.7V0Z" fill="#CE1126"/>
<path d="M341.3 0H512V512H341.3V0Z" fill="#FCD116"/>
<path d="M256 210.489L241.778 253.724L263.396 261.12L256 210.489Z" fill="#FCD116"/>
<path d="M256 210.489L270.222 253.724L248.604 261.12L256 210.489Z" fill="#FCD116"/>
<path d="M299.284 241.936L253.769 241.771L253.416 264.616L299.284 241.936Z" fill="#FCD116"/>
<path d="M299.284 241.936L262.559 268.823L248.845 250.549L299.284 241.936Z" fill="#FCD116"/>
<path d="M282.751 292.819L268.844 249.481L247.007 256.205L282.751 292.819Z" fill="#FCD116"/>
<path d="M282.751 292.819L245.831 266.201L258.974 247.511L282.751 292.819Z" fill="#FCD116"/>
<path d="M229.249 292.819L266.169 266.201L253.026 247.511L229.249 292.819Z" fill="#FCD116"/>
<path d="M229.249 292.819L243.156 249.481L264.993 256.205L229.249 292.819Z" fill="#FCD116"/>
<path d="M212.716 241.936L249.441 268.823L263.155 250.549L212.716 241.936Z" fill="#FCD116"/>
<path d="M212.716 241.936L258.231 241.771L258.584 264.616L212.716 241.936Z" fill="#FCD116"/>
</g>
<defs>
<clipPath id="clip0_2_2006">
<rect width="512" height="512" fill="white"/>
</clipPath>
</defs>
</svg>
