<svg width="512" height="512" viewBox="0 0 512 512" fill="none" xmlns="http://www.w3.org/2000/svg">
<g clip-path="url(#clip0_2_2027)">
<path d="M0 0H512V512H0V0Z" fill="#EE1C25"/>
<path d="M204.8 104.96L74.2402 189.44L128 51.2L174.08 189.44L51.2002 104.96H204.8Z" fill="#FFFF00"/>
<path d="M236.577 33.0493L283.097 55.8344L234.403 64.2012L265.968 27.3271L262.929 76.9066L236.577 33.0493Z" fill="#FFFF00"/>
<path d="M295.87 78.2082L329.881 117.326L281.736 106.078L325.192 84.3783L303.084 128.897L295.87 78.2082Z" fill="#FFFF00"/>
<path d="M306.574 152.531L321.655 202.154L282.279 172.21L330.834 170.146L292.454 201.774L306.574 152.531Z" fill="#FFFF00"/>
<path d="M266.01 205.632L260.775 257.178L236.032 214.4L281.575 231.219L234.01 245.568L266.01 205.632Z" fill="#FFFF00"/>
</g>
<defs>
<clipPath id="clip0_2_2027">
<rect width="512" height="512" fill="white"/>
</clipPath>
</defs>
</svg>
