<svg width="512" height="512" viewBox="0 0 512 512" fill="none" xmlns="http://www.w3.org/2000/svg">
<g clip-path="url(#clip0_2_2058)">
<mask id="mask0_2_2058" style="mask-type:luminance" maskUnits="userSpaceOnUse" x="0" y="0" width="512" height="512">
<path d="M0 0H512V512H0V0Z" fill="white"/>
</mask>
<g mask="url(#mask0_2_2058)">
<path fill-rule="evenodd" clip-rule="evenodd" d="M-32 0H736V512H-32V0Z" fill="#002A8F"/>
<path fill-rule="evenodd" clip-rule="evenodd" d="M-32 102.4H736V204.8H-32V102.4ZM-32 307.2H736V409.6H-32V307.2Z" fill="white"/>
<path fill-rule="evenodd" clip-rule="evenodd" d="M-32 0L408.7 255.7L-32 511V0Z" fill="#CB1515"/>
<path fill-rule="evenodd" clip-rule="evenodd" d="M161.8 325.5L114.3 290L67.1 325.8L84.7 267.7L37.5 231.7L95.8 231.3L113.9 173.3L132.4 231.1L190.7 231.2L143.8 267.5L161.8 325.5Z" fill="white"/>
</g>
</g>
<defs>
<clipPath id="clip0_2_2058">
<rect width="512" height="512" fill="white"/>
</clipPath>
</defs>
</svg>
