<svg width="512" height="512" viewBox="0 0 512 512" fill="none" xmlns="http://www.w3.org/2000/svg">
<g clip-path="url(#clip0_2_2049)">
<mask id="mask0_2_2049" style="mask-type:luminance" maskUnits="userSpaceOnUse" x="0" y="0" width="512" height="512">
<path d="M0 0H512V512H0V0Z" fill="white"/>
</mask>
<g mask="url(#mask0_2_2049)">
<path fill-rule="evenodd" clip-rule="evenodd" d="M-123.4 233H723V439H-123.5L-123.4 233Z" fill="white"/>
<path fill-rule="evenodd" clip-rule="evenodd" d="M-122.8 0H723.2V256.6H-122.8V0ZM-122.5 385.9H729.6V512H-122.5V385.9Z" fill="#081873"/>
<path fill-rule="evenodd" clip-rule="evenodd" d="M-122.5 302.6H723.5V342.2H-122.5V302.6Z" fill="#DE3929"/>
<path fill-rule="evenodd" clip-rule="evenodd" d="M131 399.2L137.6 419.6H159L141.6 432.3L148.2 452.8L131 440L113.6 452.7L120.3 432.2L102.9 419.5H124.4M317 250.4L323.7 270.9H345L327.6 283.5L334.2 304L316.8 291.3L299.4 304L306 283.5L288.6 270.9H310.2M88.2 335.3L94.8 355.8H116.3L99 368.6L105.7 389L88.3 376.4L70.9 389L77.5 368.6L60.1 355.9H81.6M317 329.5L323.7 349.9H345L327.6 362.6L334.2 383L316.8 370.4L299.4 383.1L306 362.6L288.6 349.9H310.2M269.7 188.2L276.4 208.6H298L280.6 221.3L287.2 241.8L269.8 229.1L252.4 241.8L259.1 221.3L241.6 208.6H263.2M198.7 163.4L205.4 183.9H226.9L209.5 196.5L216.1 217L198.7 204.4L181.3 217L188 196.5L170.6 183.9H192M127.5 186.8L134.2 207.3H155.7L138.3 219.9L145 240.4L127.5 227.7L110.1 240.4L116.8 219.9L99.4 207.3H121M86.2 250.5L92.8 271H114.4L96.9 283.6L103.6 304.1L86.2 291.4L68.8 304.1L75.4 283.6L58 271H79.5M198.7 420.4L205.4 440.9H226.9L209.5 453.5L216.2 474L198.7 461.3L181.3 474L188 453.5L170.6 440.9H192M274.2 399.2L280.8 419.6H302.3L285 432.3L291.7 452.8L274.3 440.1L256.8 452.8L263.5 432.3L246.1 419.6H267.6" fill="#FFCE08"/>
</g>
</g>
<defs>
<clipPath id="clip0_2_2049">
<rect width="512" height="512" fill="white"/>
</clipPath>
</defs>
</svg>
