<svg width="512" height="512" viewBox="0 0 512 512" fill="none" xmlns="http://www.w3.org/2000/svg">
<g clip-path="url(#clip0_2_2068)">
<mask id="mask0_2_2068" style="mask-type:luminance" maskUnits="userSpaceOnUse" x="0" y="0" width="513" height="513">
<path d="M0 0H513V513H0V0Z" fill="white"/>
</mask>
<g mask="url(#mask0_2_2068)">
<path d="M0 0H769.5V513H0V0Z" fill="#002B7F"/>
<path d="M0 320.625H769.5V384.75H0V320.625Z" fill="#F9E814"/>
<path d="M85.5 42.75L94.05 72.675H128.25L98.325 85.5L106.875 115.425L85.5 102.6L59.85 119.7L68.4 89.775L47.025 72.675H76.95L85.5 42.75Z" fill="white"/>
<path d="M171 114L182.4 153.9H228L188.1 171L199.5 210.9L171 193.8L136.8 216.6L148.2 176.7L119.7 153.9H159.6L171 114Z" fill="white"/>
</g>
</g>
<defs>
<clipPath id="clip0_2_2068">
<rect width="512" height="512" fill="white"/>
</clipPath>
</defs>
</svg>
