<svg width="512" height="512" viewBox="0 0 512 512" fill="none" xmlns="http://www.w3.org/2000/svg">
<g clip-path="url(#clip0_2_2077)">
<path d="M0 0H512V512H0V0Z" fill="#0021AD"/>
<path d="M0 0H512V512L0 0Z" fill="#1C8A42"/>
<path d="M256 317.7C290.076 317.7 317.7 290.076 317.7 256C317.7 221.924 290.076 194.3 256 194.3C221.924 194.3 194.3 221.924 194.3 256C194.3 290.076 221.924 317.7 256 317.7Z" fill="#FFC639"/>
<path d="M218.3 228.3C222.6 234.1 228.9 243.8 234.1 241.3C238.1 241.3 240.1 241.6 240.7 244.3C247.4 244.97 254.16 243.916 260.339 241.238C266.517 238.56 271.908 234.348 276 229C276 229 276.8 229 276.5 224.2C276.5 222 279.5 222.5 279.5 223.2C279.9 224.2 279.8 225 280.4 225C281.6 224.6 283.3 221.9 284.7 220.2C285 219.4 284.8 218.6 284.9 217.6C285.7 215.8 287.5 216.2 287.9 217.2C288.2 217.8 288.2 218.2 288.6 218.9C290.4 220.1 293.8 218.9 294.1 218.9C294.4 217.4 295.4 217.6 295.4 217.6C296.6 217.3 296.1 217.4 297 217.8C296.2 226 298.6 226.4 298.4 230.6C298.4 235.3 297 236.6 297 238.4C297.4 240.6 304.3 240.7 302 242.5C299.8 243.7 302 245.8 298.7 246.6C289.3 251.4 287.5 255.5 287.5 255.5C287.5 255.5 285.2 259.9 284.9 259.9C283.3 262.9 281.4 261.3 280.2 262.7C279.7 264.5 279.1 268.6 280.2 270.7C280.7 273.5 280.2 275.1 279.4 278C278.8 284 276.4 284.9 276.1 287C275.1 289.2 276.4 299.8 275.3 299.8C268.3 299.9 263 298.5 260.3 297.9C262.9 286.3 261.9 276.1 261.9 275.1C261.2 266.8 249.5 268.8 247.7 267.7C246.2 267.4 245.3 266.2 244.7 265.7C243.1 265.5 242.5 265.1 240.8 264.9C240 265.3 240.5 265.8 238.6 266.3C234 266.9 231.9 262.3 231.9 262.3C232.1 260.7 221.4 262.6 215.5 261.3C213.1 262.6 212.1 266.5 210.1 267C210.1 268.2 206.9 266 206.2 264.8C206.2 261.3 209.3 259.8 209.3 259.8C211.8 257.9 213.3 257.6 214.6 256.4C215.2 253.4 214.9 251.1 216.2 248.8C217.2 247.1 218.9 247.8 220 247.1C221.2 246.3 221.7 241.1 220.6 239.8L215.6 235.3C214 230.8 217.4 228 218.3 228.3Z" fill="#1C8A42"/>
<path d="M452.3 63.7001C449.5 52.7001 424.4 28.9001 405.7 13.7001C401.2 10.7001 398.3 12.5001 398.8 16.8001C401.2 20.8001 402.9 25.0001 405.3 28.9001C405.9 31.5001 407.2 33.3001 407.8 35.9001C407.8 35.9001 408 40.4001 408.4 40.9001C411.642 44.1526 413.926 48.2353 415 52.7001C417.958 58.9949 422.139 64.6379 427.3 69.3001C433.9 73.5001 429.1 86.4001 429.3 93.3001C429.3 97.6001 426.1 97.1001 423.4 96.6001C401.9 76.8001 380.6 76.8001 361.8 71.1001C354.4 70.3001 354.3 73.8001 356.7 75.7001C369.8 89.7001 382.2 99.3001 398.4 107.3L406.6 112.4L416 120.2C423.2 124.9 423.8 129.2 423.8 129.6C424 138.4 419.3 145.2 418 147.9C415.5 157.2 410.5 158.9 410.5 158.9C370.4 185.9 349.3 192.9 284.1 184.6C283.1 184.1 276.9 185.1 284.1 187.7C300.7 193.2 341.4 202.1 380.8 183.4C390.3 176.8 396.7 179 403.5 175C414.8 168 430.8 159.4 433.8 158.5C442.5 153.8 467.1 148.5 472.8 143.8C479.3 143.3 486 142.4 486.5 136.8C488.6 135.5 491.7 136.5 494 131.9C499.2 131 498.3 129.2 498.3 129.2C497 125.5 492.3 124 488.8 121.4C483.7 119.7 480.2 119.2 476.5 121L473 122.6C473 122.6 467.5 121.8 467.5 121.4C455.4 120.7 456.5 80.4001 452.3 63.7001Z" fill="#FFC639"/>
<path d="M116.678 312.79L107.94 304.598L99.1339 312.654L100.09 300.775L88.2794 298.864L98.1781 292.173L92.3072 281.797L103.708 285.415L108.145 274.356L112.446 285.483L123.847 282.07L117.839 292.31L127.669 299.137L115.859 300.843L116.678 312.79Z" fill="white"/>
<path d="M147.535 411.436L138.114 405.224L128.967 411.777L132.243 401.196L122.959 394.71L134.291 394.437L137.705 383.856L141.528 394.301L152.928 394.233L143.849 400.854L147.467 411.368L147.535 411.436Z" fill="white"/>
<path d="M118.385 496.497L109.647 488.305L100.841 496.36L101.796 484.482L89.9861 482.57L99.8848 475.88L94.0138 465.503L105.414 469.122L109.852 458.062L114.153 469.19L125.553 465.776L119.546 476.016L129.376 482.843L117.566 484.55L118.385 496.497Z" fill="white"/>
<path d="M40.1512 396.895L31.413 388.703L22.6066 396.758L23.5623 384.88L11.7521 382.969L21.6508 376.278L15.7799 365.902L27.1805 369.52L31.6178 358.461L35.9186 369.588L47.3192 366.175L41.3117 376.415L51.1422 383.242L39.332 384.948L40.1512 396.895Z" fill="white"/>
<path d="M190.68 370.817L181.942 362.625L173.135 370.68L174.091 358.802L162.281 356.891L172.18 350.2L166.309 339.824L177.709 343.442L182.147 332.383L186.447 343.51L197.848 340.097L191.84 350.337L201.671 357.164L189.861 358.87L190.68 370.817Z" fill="white"/>
</g>
<defs>
<clipPath id="clip0_2_2077">
<rect width="512" height="512" fill="white"/>
</clipPath>
</defs>
</svg>
