<svg width="512" height="512" viewBox="0 0 512 512" fill="none" xmlns="http://www.w3.org/2000/svg">
<g clip-path="url(#clip0_2_2090)">
<path d="M0 0H512V512H0V0Z" fill="white"/>
<path d="M243 425.2C242.888 425.154 242.785 425.086 242.7 425V424.9L241.3 423.5C239.899 421.923 238.565 420.288 237.3 418.6L232 412L231.3 411.1L224.7 409.1L219.9 406.8L222.4 403.9L231.4 407.7L238 409.1L250.2 418.1C247.853 420.146 245.584 422.281 243.4 424.5C243.32 424.626 243.253 424.76 243.2 424.9L244 424.4L244.8 425.1L243.1 425.2H243ZM197.5 411.5C191.7 411.5 186 409.9 180.5 406.7C175 403.5 181.3 405.4 183 404.1C184.6 402.9 187.6 401.4 192.5 401.4C198.3 401.4 205.3 403.4 213.4 407.2C213.1 407.4 206.7 411.5 197.5 411.5ZM172.5 406C171.4 406 170.5 405.5 169.7 404.8C169.093 404.083 168.68 403.222 168.5 402.3C168.236 401.153 168.135 399.975 168.2 398.8C168.636 398.575 169.111 398.439 169.6 398.4C171.8 398.4 173.5 400.4 174.2 402.2C174.6 403.2 174.7 404.1 174.5 404.8C174.3 405.5 173.4 405.9 172.5 405.9V406ZM216.5 400.8C201.7 398.8 195.5 393.4 192.8 389.2C191.098 386.707 190.287 383.712 190.5 380.7C190.5 380.7 191.5 380.5 192.8 380.5C196.8 380.5 206.8 382.5 216.5 400.8ZM186.2 397.9C179.9 397.9 175 396.9 171.9 394.7C170.519 393.821 169.411 392.574 168.7 391.1C168.447 390.562 168.279 389.989 168.2 389.4C170.614 388.428 173.198 387.952 175.8 388C180.8 388 188.2 389.6 196 397.2C192.748 397.608 189.477 397.841 186.2 397.9ZM155.6 396.7C148.9 396.7 139.7 394.7 134 389C138.753 387.872 143.615 387.269 148.5 387.2C154.8 387.2 159.5 388.4 162.7 390.8C163.9 391.6 164.5 392.4 164.6 393.2C164.7 393.8 164.4 394.5 163.7 395C162.3 396 159.7 396.7 156.1 396.7H155.6ZM133.9 385.7C133.515 385.686 133.137 385.589 132.792 385.417C132.447 385.244 132.143 385 131.9 384.7C131.392 384.059 131.048 383.304 130.9 382.5C130.5 380.9 130.6 379.4 130.6 379.4C130.901 379.213 131.246 379.11 131.6 379.1C132.6 379.1 133.4 379.6 133.9 380.1C134.522 380.722 135 381.473 135.3 382.3C135.6 383.3 135.7 384 135.5 384.6C135.3 385.1 134.7 385.6 133.9 385.6V385.7ZM183.9 384.5C182.8 384.5 181.9 384.1 181.2 383.4C180.593 382.683 180.18 381.822 180 380.9C179.726 379.721 179.625 378.508 179.7 377.3C180.112 377.122 180.552 377.02 181 377C183.2 377 185 378.9 185.6 380.7C186 381.7 186.1 382.7 185.9 383.3C185.6 384 184.8 384.5 183.9 384.5ZM159.5 383.5C146.1 383 139.1 379.2 135.7 376.1C134.177 374.785 132.921 373.189 132 371.4C131.696 370.76 131.462 370.09 131.3 369.4C131.3 369.4 132.5 368.9 134.6 368.9H134.9C139.4 368.9 148.7 370.8 159.5 383.5ZM174.1 382.1C166.441 381.278 159.32 377.771 154 372.2C151.993 370.08 150.459 367.558 149.5 364.8C149.5 364.8 150.9 364.5 152.9 364.4C153.2 364.392 153.5 364.392 153.8 364.4C159.2 364.5 169.1 367 174.1 382.1ZM118.7 376.9C115.1 376.9 111.7 376.6 108.5 375.7C102.8 374.3 100.4 372.2 99.3 370.6C98.8757 369.934 98.6026 369.183 98.5 368.4C98.4623 368.101 98.4623 367.799 98.5 367.5C98.5 367.5 102.2 366.5 107.4 366.4C110.051 366.353 112.699 366.587 115.3 367.1C120.75 368.23 125.613 371.283 129 375.7C129 375.7 124.7 376.9 118.7 376.9ZM143.7 367.9C142.7 367.9 141.7 367.4 141 366.7C140.393 365.983 139.98 365.122 139.8 364.2C139.533 363.054 139.432 361.875 139.5 360.7C139.912 360.522 140.352 360.42 140.8 360.4H140.9C143.1 360.4 144.8 362.2 145.5 364.1C145.9 365.1 146 365.9 145.7 366.7C145.4 367.4 144.7 367.8 143.7 367.8V367.9ZM124.9 365.2C124.8 365.2 119.8 364 114.7 360.8C109.9 357.8 104.2 352.8 103.4 344.8C102.6 336.8 103.9 344.6 104.6 344.6H104.8C106.2 344.6 109.1 345 112.6 347.6C117.1 351 121.2 357 124.9 365.3V365.2ZM137.2 364.8C137.2 364.8 133.6 363.4 129.2 359.6C122.862 354.228 117.921 347.4 114.8 339.7C114.8 339.7 115.8 339.2 117.3 339.1C117.4 339.096 117.5 339.096 117.6 339.1H118C120 339.1 123.1 340 126.6 343.8C131.606 349.954 135.222 357.117 137.2 364.8ZM105.2 363.8C101.2 363.8 99.8 361.6 99.3 360.7C98.9081 359.682 98.7708 358.583 98.9 357.5C99.5533 357.325 100.224 357.225 100.9 357.2H101.1C104.3 357.2 106.9 358.9 108 360.5C108.2 360.8 108.9 362 108.3 362.8C107.9 363.5 106.9 363.8 105.3 363.8H105.2ZM96.2 352.4C93.9 352.4 90.4 352.2 86.7 351.6C83 350.9 80.9 347.8 79.8 345.3C79.0627 343.609 78.5581 341.826 78.3 340C89.6 340.3 95 343.6 97.5 346.3C99.051 347.938 100.003 350.053 100.2 352.3L96.2 352.4ZM108 340.6C107.075 339.443 106.208 338.242 105.4 337C104 334.9 102.8 332.7 102.8 331C102.708 328.526 102.508 326.057 102.2 323.6L101.5 318.6C101.8 318.8 108.6 321.3 108.6 327.7C108.6 334.1 108 340.5 108 340.6ZM99.2 340H98.9C96.9 339.6 93.4 338 89.5 335.8C85.7986 333.833 82.4251 331.302 79.5 328.3C77.7 326.2 76.5 322.8 76.3 318.3C76.1376 316.303 76.1376 314.297 76.3 312.3C76.679 312.13 77.0853 312.028 77.5 312C79 312 80.5 312.7 82.7 314.2C84.6985 315.603 86.5721 317.175 88.3 318.9C90.4544 321.055 92.4907 323.325 94.4 325.7C96.5255 329.663 98.3635 333.774 99.9 338V339.5C99.8198 339.678 99.6776 339.82 99.5 339.9C99.368 339.927 99.232 339.927 99.1 339.9L99.2 340Z" fill="#435125"/>
<path d="M219.7 425.2C219.812 425.154 219.915 425.086 220 425V424.9L221.4 423.5C222.801 421.923 224.135 420.288 225.4 418.6L230.7 412L231.4 411.1L238 409.1L242.8 406.8L240.3 403.9L231.3 407.7L224.7 409.1L212.5 418.1C214.847 420.146 217.116 422.281 219.3 424.5C219.38 424.626 219.447 424.76 219.5 424.9L218.7 424.4L217.9 425.1L219.6 425.2H219.7ZM265.2 411.5C271 411.5 276.7 409.9 282.2 406.7C287.7 403.5 281.4 405.4 279.7 404.1C278.1 402.9 275.1 401.4 270.2 401.4C264.4 401.4 257.4 403.4 249.3 407.2C249.6 407.4 256 411.5 265.2 411.5ZM290.2 406C291.3 406 292.2 405.5 293 404.8C293.607 404.083 294.02 403.222 294.2 402.3C294.464 401.153 294.565 399.975 294.5 398.8C294.064 398.575 293.589 398.439 293.1 398.4C290.9 398.4 289.2 400.4 288.5 402.2C288.1 403.2 288 404.1 288.2 404.8C288.4 405.5 289.3 405.9 290.2 405.9V406ZM246.2 400.8C261 398.8 267.2 393.4 269.9 389.2C271.602 386.707 272.413 383.712 272.2 380.7C272.2 380.7 271.2 380.5 269.9 380.5C265.9 380.5 255.9 382.5 246.2 400.8ZM276.5 397.9C282.8 397.9 287.7 396.9 290.8 394.7C292.181 393.821 293.289 392.574 294 391.1C294.253 390.562 294.421 389.989 294.5 389.4C292.086 388.428 289.502 387.952 286.9 388C281.9 388 274.5 389.6 266.7 397.2C269.952 397.608 273.223 397.841 276.5 397.9ZM307.1 396.7C313.8 396.7 323 394.7 328.7 389C323.947 387.872 319.085 387.269 314.2 387.2C307.9 387.2 303.2 388.4 300 390.8C298.8 391.6 298.2 392.4 298.1 393.2C298 393.8 298.3 394.5 299 395C300.4 396 303 396.7 306.6 396.7H307.1ZM328.8 385.7C329.185 385.686 329.563 385.589 329.908 385.417C330.253 385.244 330.557 385 330.8 384.7C331.308 384.059 331.652 383.304 331.8 382.5C332.2 380.9 332.1 379.4 332.1 379.4C331.799 379.213 331.454 379.11 331.1 379.1C330.1 379.1 329.3 379.6 328.8 380.1C328.178 380.722 327.7 381.473 327.4 382.3C327.1 383.3 327 384 327.2 384.6C327.4 385.1 328 385.6 328.8 385.6V385.7ZM278.8 384.5C279.9 384.5 280.8 384.1 281.5 383.4C282.107 382.683 282.52 381.822 282.7 380.9C282.974 379.721 283.075 378.508 283 377.3C282.588 377.122 282.148 377.02 281.7 377C279.5 377 277.7 378.9 277.1 380.7C276.7 381.7 276.6 382.7 276.8 383.3C277.1 384 277.9 384.5 278.8 384.5ZM303.2 383.5C316.6 383 323.6 379.2 327 376.1C328.523 374.785 329.779 373.189 330.7 371.4C331.004 370.76 331.238 370.09 331.4 369.4C331.4 369.4 330.2 368.9 328.1 368.9H327.8C323.3 368.9 314 370.8 303.2 383.5ZM288.6 382.1C296.259 381.278 303.38 377.771 308.7 372.2C310.707 370.08 312.241 367.558 313.2 364.8C313.2 364.8 311.8 364.5 309.8 364.4C309.5 364.392 309.2 364.392 308.9 364.4C303.5 364.5 293.6 367 288.6 382.1ZM344 376.9C347.6 376.9 351 376.6 354.2 375.7C359.9 374.3 362.3 372.2 363.4 370.6C363.824 369.934 364.097 369.183 364.2 368.4C364.238 368.101 364.238 367.799 364.2 367.5C364.2 367.5 360.5 366.5 355.3 366.4C352.649 366.353 350.001 366.587 347.4 367.1C341.95 368.23 337.087 371.283 333.7 375.7C333.7 375.7 338 376.9 344 376.9ZM319 367.9C320 367.9 321 367.4 321.7 366.7C322.307 365.983 322.72 365.122 322.9 364.2C323.167 363.054 323.268 361.875 323.2 360.7C322.788 360.522 322.348 360.42 321.9 360.4H321.8C319.6 360.4 317.9 362.2 317.2 364.1C316.8 365.1 316.7 365.9 317 366.7C317.3 367.4 318 367.8 319 367.8V367.9ZM337.8 365.2C337.9 365.2 342.9 364 348 360.8C352.8 357.8 358.5 352.8 359.3 344.8C360.1 336.8 358.8 344.6 358.1 344.6H357.9C356.5 344.6 353.6 345 350.1 347.6C345.6 351 341.5 357 337.8 365.3V365.2ZM325.5 364.8C325.5 364.8 329.1 363.4 333.5 359.6C339.838 354.228 344.779 347.4 347.9 339.7C347.9 339.7 346.9 339.2 345.4 339.1C345.3 339.096 345.2 339.096 345.1 339.1H344.7C342.7 339.1 339.6 340 336.1 343.8C331.094 349.954 327.478 357.117 325.5 364.8ZM357.5 363.8C361.5 363.8 362.9 361.6 363.4 360.7C363.792 359.682 363.929 358.583 363.8 357.5C363.147 357.325 362.476 357.225 361.8 357.2H361.6C358.4 357.2 355.8 358.9 354.7 360.5C354.5 360.8 353.8 362 354.4 362.8C354.8 363.5 355.8 363.8 357.4 363.8H357.5ZM366.5 352.4C368.8 352.4 372.3 352.2 376 351.6C379.7 350.9 381.8 347.8 382.9 345.3C383.637 343.609 384.142 341.826 384.4 340C373.1 340.3 367.7 343.6 365.2 346.3C363.649 347.938 362.697 350.053 362.5 352.3L366.5 352.4ZM354.7 340.6C355.625 339.443 356.492 338.242 357.3 337C358.7 334.9 359.9 332.7 359.9 331C359.992 328.526 360.192 326.057 360.5 323.6L361.2 318.6C360.9 318.8 354.1 321.3 354.1 327.7C354.1 334.1 354.7 340.5 354.7 340.6ZM363.5 340H363.8C365.8 339.6 369.3 338 373.2 335.8C376.901 333.833 380.275 331.302 383.2 328.3C385 326.2 386.2 322.8 386.4 318.3C386.562 316.303 386.562 314.297 386.4 312.3C386.021 312.13 385.615 312.028 385.2 312C383.7 312 382.2 312.7 380 314.2C378.002 315.603 376.128 317.175 374.4 318.9C372.246 321.055 370.209 323.325 368.3 325.7C366.175 329.663 364.336 333.774 362.8 338V339.5C362.88 339.678 363.022 339.82 363.2 339.9C363.332 339.927 363.468 339.927 363.6 339.9L363.5 340Z" fill="#435125"/>
<path d="M468.3 81.5L466.3 82.3L465.5 82.6L463.1 82.4L460.8 83.5L456.8 86.3L456.6 86.4L455.1 86.8L453.7 86.2L452.9 86.6L452.6 88.2L451.9 89.4L450.9 90.1L447.7 90.4L445 91.8L441.4 90.8L439.8 91.5L436.3 94.6L434.5 95.5H433.9L431.5 95.3L430.5 95.7L429 97L426.2 97.2L425.3 97.8L423.9 100.6L422.4 102.2L421.6 102.3L420.6 102L419.9 102.1L419.6 103.9L419 104.7L417 105.3L415.6 106.6L414.2 107.2H412L410.3 108.2L406.9 108.5L405.6 109.8L405.2 110.1L404.6 110.5L403.6 111.1L403.3 111.3L402 111L400.5 111.6L399.9 110.6L398.9 111.3H397.5L395.8 110.6L394.5 110L393.5 110.2L393.2 111.8V112L392.2 113.3L390.3 114.4L390.1 114.8L388 117.5L384 121.8L380.5 123.5L377 124.5L374.5 126.5L368 129.8L357.8 134.9L355.7 135.6L352.7 136L347.4 138L342.6 139.4L342.3 139.5L341.4 139.8L334.8 141.8L331.7 141.5L329.8 142.2L325 141.6L321.7 141.7L319.7 142.1L315.7 144.1L309 147.2L306.8 149.2L303.3 151.1L299.3 152.3V150.6L297.9 151L296.9 151.3L293.6 151.8H291.8L290.7 151.5H290.5L283.8 153.8L276.4 154.5L272.7 155.7H269.9L268.1 156.1L264.7 156.6L263.5 156.2H263.2L253.2 156.6L248.6 156.1L246.4 156.6L242.8 155.3L237.4 154.7L236.2 154.3L233.4 153.5L232.1 154.2L231.1 154.3L228.9 153.5H228L226.2 154.2L225.1 153.9L224.1 153.1L221.7 152.8L220.3 151.5L212.3 152.6L210.1 152L202.8 149.8L201.6 149.9L200.2 150.9L198 151.8L196.1 152.3H193.5L190.5 151.6L187.5 150.1L186.3 149.8L183.8 150.1H183L178.4 147.6L172.4 143.9L168.3 141.9L166.7 141.7L166.5 142.4L167.3 144.8L167.6 147.2L167.5 149.3V150.7L167.8 151.9L169.3 153.5L169.9 155.2L170.4 159.7V164.3L169.6 171.6L169.4 172.6L168.5 176.5L167.8 179.9L164.8 189.2L163.9 190.3L161.9 191.7L157.2 194.9L153.8 196.9L152.8 197.3L150 197.5L148.3 197.4L146.1 196.2L144.1 195.7L141.3 193.7L138.2 193.1L134.8 191.1L134 190.1L132.1 189.9L129.6 189.1L128.6 188.9L128 188.7L124.8 188.6L121.8 187.2L120.2 186.8L118 186.7L115.7 187.7L114.6 188.3L113.1 187.7H112.1L110.8 189.6L110.7 189.9L109.9 190.3H108L107.2 190.6L106 191.1L105 191.6L104.5 191.8H104.1L103.6 192H102.9L101.7 191.4L101.1 191L100 190.8L99.4 191.2V193.2L98.8 194.3L97 196L95.3 197.5L94.1 199.3L91 206.4L89 209.4L88.4 210L86.4 212.3L84.5 213.7L80.3 216.9L76.3 218.4L72.9 219.1H71.3L68.1 218.7L65.3 217.8L62.2 215.8L58.7 213.1L53.8 208.2L53.1 207.8H53L51.5 206.8H50.3L49.9 207.5L49.6 208.5L49.4 209.5L48.9 215V215.3L49.2 217.5L53 222.8L54.1 225.6L54.3 225.9L55.1 227.2L55.7 228.2L57 232L56.1 234.2L56.6 235.6L55.4 236.5L55.2 237.7L58.6 242L59.3 243.8L58.5 246.4L57.2 247.8L56.8 248.2L57 249.3L58.6 250.7L61.2 253.1L62.6 256.6L63.6 257.5L64.9 257.2L65.6 257.8H66.6L67.6 258.8L68.3 259.1L69.4 259.6L70.2 260.7L70.4 264L72 268.2V270.8L73 272.4L73.3 273.7L72.8 277.2L74 278.3L75.3 278L76.2 278.2L77.6 279.3L79.3 281.9L80.9 281.7L81.9 282.2L86.9 286.7L88.1 287.3L89.1 287.7L90.1 288.7L91.6 287.7H91.8L93.5 287.5L94.3 288L95.7 289H97.7L101.7 290.3L103.6 290.7L107.2 293L108.8 294L109.7 294.7L110.9 295.7L113.3 296.7L115.3 297.2L116.5 297.5L117.4 297.8L121.9 299.6L124.3 300.1L126.6 301L128.2 301.6H129.4L131.1 300.1H132.8L134.2 300.4L135.5 300.2L137.6 298.9L138.1 298.2L139.6 297.5L144.6 296.9L146.1 297.4L149.9 295.7L152.5 296.4L154.7 295.6L159.7 296.7L161 297.7L162.4 299.3H164.2L163.6 300.5L165.7 302.8L167.7 305.8V306.1L169.2 310.2L170.2 311.7L171 313.7V315.1L169.9 316L169.7 316.5V316.7L169.9 317.2L170.3 317L171.1 316.5L172.1 316.4L173.9 316.6H175L176.9 315.8L178.1 315.2L180.1 316H182.2L183.1 316.4L185.7 317.5L187 317.7L187.5 317.3L187.8 316.6L187.6 315.8L186.6 314.6L184.5 312.1L183.5 310.8L182.9 309L182.7 306.6L182.5 305L182.8 302.9L183.4 302.1L183.8 300.4L183.9 300L185.1 298.4L188.3 296.4L191.7 293.4L194.4 291.5L197.2 290.3V290L197.6 290.1L204.6 287.7H204.8L207.9 287.1L229.2 288.6L230 288.4L230.7 286.4L231.1 286L231.3 285.8L233.7 284.8L234.7 284.6L237.7 285.4L239 285.7L241 284.6H242.4L245.4 283H247.2L247.8 282.8L251.3 280.2L254.7 279.2L255.7 278.8L255.9 278.6L259.4 276.8L261.6 275.1L263.5 274.1L265.5 273.6L271 273.2L272.1 271.4L274.4 271L275.9 269.4L277.5 268.8L278.6 267.1L279.6 265.7L281 264.9L285.3 264.7L290.5 265.3L291.2 264.9L292.3 260.7L293.5 259.9L296.8 255.2V252L297.4 249.9L297 246.1L297.5 242.3L299.5 237.5L301.3 235.5L304.2 233.6L305.7 233L307.7 232.6H308.1L308.6 232.5L315.8 232.4H318.4L320.8 232.3L326.8 233.3L327.3 233.5L329.3 234.1L331.7 236L334.2 238.4L334.7 238.9L336.3 239.5L336.8 239.8L338.2 239.5L340.1 238.5L341.5 237.3L343.5 236.3V236.2L344.6 234.5L345.1 233.8L348.9 232.3L353.4 232.1L353.9 231.8L354.2 231.7L355.3 230.3H356.4L359.1 231.3L361 230.9L362.5 231.5L363.6 231.3L365.8 231.1L368.2 232.7L369.6 232.9L374.4 235.7H374.8L375 235.8L375.6 235.7L376.5 235.4L376.7 235.5L377.2 236.3L378 236.4L378.9 235.2L378.5 234.7L378.4 234.5L376.7 234.1L375.1 231.5L376.6 229.9L374.3 227.1L373.9 226.6L373.8 226.4L373 225.2L369 219L363.6 214.8L361.8 213.3L361.1 212.8L358.3 209.9L356.3 207.3L356 206.7L355.6 205.7L354.4 203.2L352.4 201.5L350.6 199.7V199.6L347 194.8L346.4 194L345.6 193.5H343.8L343.6 193.3V193.2L344.4 192.2L345.4 192L345.8 191.1L344 185.9V185.7L343.8 184.1L345.3 176.5L345.5 175.5L348 170.5L349.6 169.2L351.2 165.9L352.7 163.8L354.1 162.4L354.3 162.3L356.8 160.8L358.9 160.5L360.9 160.2L364.4 161.2H368.4L369.9 161L372.4 160.2L373.6 159.5L374.2 158.5L375.4 154.3L375.9 152.9L376.6 151.5L381.2 146.2L384.6 143.1L392.3 137.4L396.1 135.2L398 134L415.2 126.4L419.6 121.9L421.9 119.5L426.1 116.8L430.9 114.8L435 111.5L435.9 110.4L437.1 106.7L438 106.5L438.9 104.6L439.1 104.1L442.5 101.7L442.9 101.5L456 95L458 95.2L459 93.7L462.8 93.1L463.4 92.9L464.4 92.5L465.2 91.1V90.8L465.3 87.2L466.1 86.2L466.6 83.8L467 83.2L467.4 82.7L468.5 81.9L468.3 81.5Z" fill="#D47600"/>
</g>
<defs>
<clipPath id="clip0_2_2090">
<rect width="512" height="512" fill="white"/>
</clipPath>
</defs>
</svg>
