<svg width="512" height="512" viewBox="0 0 512 512" fill="none" xmlns="http://www.w3.org/2000/svg">
<g clip-path="url(#clip0_2_2116)">
<mask id="mask0_2_2116" style="mask-type:luminance" maskUnits="userSpaceOnUse" x="0" y="0" width="512" height="512">
<path d="M0 0H512V512H0V0Z" fill="white"/>
</mask>
<g mask="url(#mask0_2_2116)">
<path fill-rule="evenodd" clip-rule="evenodd" d="M-258.3 0H769.2V512H-258.3V0Z" fill="#108C00"/>
<path fill-rule="evenodd" clip-rule="evenodd" d="M-260 178.2H772.6V228.3H-260V178.2Z" fill="#FFD600"/>
<path fill-rule="evenodd" clip-rule="evenodd" d="M181 0H229.5V512H181.1L181 0Z" fill="#FFD600"/>
<path fill-rule="evenodd" clip-rule="evenodd" d="M227.8 0H276.2V512H227.8V0Z" fill="#000001"/>
<path fill-rule="evenodd" clip-rule="evenodd" d="M-260 226.6H772.6V276.8H-260V226.6Z" fill="#000001"/>
<path fill-rule="evenodd" clip-rule="evenodd" d="M-260 276.8H772.6V326.9H-260V276.8Z" fill="white"/>
<path fill-rule="evenodd" clip-rule="evenodd" d="M276.2 0H324.7V512H276.2V0Z" fill="white"/>
<path d="M120.8 256.4C120.8 332.339 182.092 393.9 257.7 393.9C333.308 393.9 394.6 332.339 394.6 256.4C394.6 180.461 333.308 118.9 257.7 118.9C182.092 118.9 120.8 180.461 120.8 256.4Z" fill="#E72910"/>
<path fill-rule="evenodd" clip-rule="evenodd" d="M250.5 137L256.1 121L261.2 136.7C261.2 136.7 278.3 137.2 278.3 136.9C278.3 136.6 264.8 147.2 264.8 147.2L270.9 164.8C270.7 164.3 256.1 153.9 256.1 153.9C256.1 153.9 241.3 164.3 241.6 164.3C241.9 164.3 247.2 147.3 247.2 147.3L233.9 137.2L250.5 136.9V137Z" fill="black"/>
<path fill-rule="evenodd" clip-rule="evenodd" d="M251.3 137.7L256 124L260.4 137.6C260.4 137.6 275.3 138 275.3 137.8C275.3 137.6 263.6 146.8 263.6 146.8L268.8 162C268.6 161.5 256 152.6 256 152.6C256 152.6 243.2 161.6 243.4 161.6C243.6 161.6 248.4 146.8 248.4 146.8L236.8 138L251.2 137.8L251.3 137.7Z" fill="#FFE700"/>
<path fill-rule="evenodd" clip-rule="evenodd" d="M253.3 140L256.1 132L258.7 139.9C258.7 139.9 267.2 140.1 267.2 139.9C267.2 139.7 260.5 145.1 260.5 145.1L263.5 153.9C263.4 153.6 256.1 148.5 256.1 148.5L248.9 153.7C249.1 153.7 251.7 145.2 251.7 145.2L245.1 140.2L253.3 140Z" fill="#108C00"/>
<path fill-rule="evenodd" clip-rule="evenodd" d="M356.9 211.8L362.5 195.8L367.5 211.5C367.5 211.5 384.7 212.1 384.7 211.8C384.7 211.5 371.2 222.1 371.2 222.1L377.2 239.7C377 239.2 362.5 228.8 362.5 228.8C362.5 228.8 347.7 239.2 348 239.2C348.3 239.2 353.6 222.2 353.6 222.2L340.3 212L356.9 211.7V211.8Z" fill="black"/>
<path fill-rule="evenodd" clip-rule="evenodd" d="M357.6 212.6L362.5 198.7L366.9 212.4C366.9 212.4 381.7 212.8 381.7 212.6C381.7 212.4 370 221.6 370 221.6L375.3 236.7C375.1 236.3 362.5 227.3 362.5 227.3C362.5 227.3 349.7 236.3 349.9 236.3C350.1 236.3 354.8 221.5 354.8 221.5L343.3 212.8L357.6 212.6Z" fill="#FFE700"/>
<path fill-rule="evenodd" clip-rule="evenodd" d="M359.7 214.9L362.5 206.9L365 214.7L373.6 214.9L366.8 220C366.8 220 370 229 369.8 228.8C369.8 228.5 362.5 223.4 362.5 223.4L355.2 228.5L358 220L351.4 215L359.7 214.9Z" fill="#108C00"/>
<path fill-rule="evenodd" clip-rule="evenodd" d="M325.9 330.6L331.5 314.6L336.5 330.4C336.5 330.4 353.7 330.9 353.7 330.7C353.7 330.5 340.2 341 340.2 341L346.2 358.5C346 358 331.5 347.7 331.5 347.7C331.5 347.7 316.7 358 316.9 358C317.1 358 322.6 341 322.6 341L309.3 331L325.9 330.6Z" fill="black"/>
<path fill-rule="evenodd" clip-rule="evenodd" d="M326.6 331.4L331.5 317.6L335.9 331.2C335.9 331.2 350.7 331.7 350.7 331.4C350.7 331.1 339 340.4 339 340.4L344.3 355.6C344.1 355.1 331.5 346.2 331.5 346.2C331.5 346.2 318.7 355.2 318.9 355.2C319.1 355.2 323.8 340.4 323.8 340.4L312.3 331.7L326.6 331.4Z" fill="#FFE700"/>
<path fill-rule="evenodd" clip-rule="evenodd" d="M328.7 333.7L331.5 325.7L334 333.6C334 333.6 342.6 333.9 342.6 333.7C342.6 333.5 335.8 338.9 335.8 338.9L338.8 347.6C338.8 347.4 331.5 342.2 331.5 342.2L324.2 347.4L327 338.9L320.4 333.9L328.7 333.7Z" fill="#108C00"/>
<path fill-rule="evenodd" clip-rule="evenodd" d="M177.2 330.6L182.8 314.6L187.8 330.4C187.8 330.4 204.9 330.9 204.9 330.7C204.9 330.5 191.4 341 191.4 341L197.6 358.5C197.3 358 182.8 347.7 182.8 347.7C182.8 347.7 168 358 168.2 358C168.4 358 173.9 341 173.9 341L160.6 331L177.2 330.6Z" fill="black"/>
<path fill-rule="evenodd" clip-rule="evenodd" d="M178 331.4L182.8 317.6L187.2 331.2C187.2 331.2 202 331.7 202 331.4C202 331.1 190.3 340.4 190.3 340.4L195.6 355.6C195.4 355.1 182.8 346.2 182.8 346.2C182.8 346.2 170 355.2 170.2 355.2C170.4 355.2 175.1 340.4 175.1 340.4L163.6 331.7L178 331.4Z" fill="#FFE700"/>
<path fill-rule="evenodd" clip-rule="evenodd" d="M180 333.7L182.8 325.7L185.3 333.6C185.3 333.6 193.9 333.9 193.9 333.7C193.9 333.5 187.1 338.9 187.1 338.9L190.1 347.6C190.1 347.4 182.8 342.2 182.8 342.2L175.5 347.4L178.3 338.9L171.7 333.9L180 333.7Z" fill="#108C00"/>
<path fill-rule="evenodd" clip-rule="evenodd" d="M150 208.7L155.6 192.7L160.7 208.5C160.7 208.5 177.8 209 177.8 208.7C177.8 208.4 164.3 219.1 164.3 219.1L170.4 236.6C170.1 236.1 155.6 225.8 155.6 225.8C155.6 225.8 140.8 236 141.1 236C141.4 236 146.7 219 146.7 219L133.4 209L150 208.7Z" fill="black"/>
<path fill-rule="evenodd" clip-rule="evenodd" d="M150.8 209.5L155.6 195.7L160.1 209.3C160.1 209.3 174.8 209.8 174.8 209.5C174.8 209.2 163.1 218.5 163.1 218.5L168.4 233.7C168.2 233.2 155.6 224.3 155.6 224.3C155.6 224.3 142.8 233.3 143.1 233.3C143.4 233.3 147.9 218.5 147.9 218.5L136.4 209.8L150.8 209.5Z" fill="#FFE700"/>
<path fill-rule="evenodd" clip-rule="evenodd" d="M152.8 211.8L155.6 203.8L158.2 211.7L166.7 211.8L160 217L163 225.7C162.9 225.5 155.6 220.3 155.6 220.3L148.4 225.5C148.6 225.5 151.2 217 151.2 217L144.6 212L152.8 211.8Z" fill="#108C00"/>
<path fill-rule="evenodd" clip-rule="evenodd" d="M324.6 174.1L319 190.1L314 174.4C314 174.4 296.8 173.9 296.8 174.1C296.8 174.3 310.3 163.8 310.3 163.8L304.3 146.3C304.5 146.8 319 157.1 319 157.1C319 157.1 333.8 146.8 333.5 146.8C333.2 146.8 327.9 163.8 327.9 163.8L341.2 173.8L324.6 174.1Z" fill="black"/>
<path fill-rule="evenodd" clip-rule="evenodd" d="M323.9 173.3C323.9 173.6 318.9 187.2 318.9 187.2L314.6 173.6C314.6 173.6 299.8 173.1 299.8 173.3C299.8 173.5 311.5 164.4 311.5 164.4L306.2 149.2C306.4 149.7 319 158.6 319 158.6C319 158.6 331.8 149.6 331.6 149.6C331.4 149.6 326.7 164.4 326.7 164.4L338.2 173.1L323.9 173.3Z" fill="#FFE700"/>
<path fill-rule="evenodd" clip-rule="evenodd" d="M321.8 171L319 179L316.5 171.2C316.5 171.2 307.9 170.9 307.9 171.1C307.9 171.3 314.7 165.9 314.7 165.9L311.7 157.2C311.7 157.4 319 162.6 319 162.6L326.3 157.4C326.1 157.4 323.4 165.9 323.4 165.9L330.1 170.9L321.8 171.1V171Z" fill="#108C00"/>
<path fill-rule="evenodd" clip-rule="evenodd" d="M367.3 290.3L361.7 306.3L356.7 290.5C356.7 290.5 339.5 290 339.5 290.3C339.5 290.6 353 280 353 280L347 262.4C347.2 262.9 361.7 273.2 361.7 273.2C361.7 273.2 376.5 262.9 376.2 262.9C375.9 262.9 370.6 279.9 370.6 279.9L384 290L367.3 290.3Z" fill="black"/>
<path fill-rule="evenodd" clip-rule="evenodd" d="M366.6 289.5L361.7 303.3L357.3 289.7C357.3 289.7 342.5 289.3 342.5 289.5C342.5 289.7 354.2 280.5 354.2 280.5L348.9 265.3C349.1 265.8 361.7 274.7 361.7 274.7C361.7 274.7 374.5 265.7 374.3 265.7C374.1 265.7 369.4 280.5 369.4 280.5L380.9 289.3L366.6 289.5Z" fill="#FFE700"/>
<path fill-rule="evenodd" clip-rule="evenodd" d="M364.5 287.2L361.7 295.2L359.2 287.3C359.2 287.3 350.6 287.1 350.6 287.3C350.6 287.5 357.4 282.1 357.4 282.1L354.4 273.3C354.4 273.6 361.7 278.7 361.7 278.7L369 273.5C368.8 273.5 366.1 282.1 366.1 282.1L372.8 287.1L364.5 287.2Z" fill="#108C00"/>
<path fill-rule="evenodd" clip-rule="evenodd" d="M261.4 375.3L255.8 391.3L250.8 375.5C250.8 375.5 233.6 375 233.6 375.2C233.6 375.4 247.1 364.9 247.1 364.9L241.1 347.4C241.3 347.9 255.8 358.2 255.8 358.2C255.8 358.2 270.6 347.9 270.3 347.9C270 347.9 264.7 364.9 264.7 364.9L278 375L261.4 375.3Z" fill="black"/>
<path fill-rule="evenodd" clip-rule="evenodd" d="M260.7 374.4L255.8 388.4L251.4 374.7C251.4 374.7 236.6 374.2 236.6 374.5C236.6 374.8 248.3 365.5 248.3 365.5L243 350.3C243.2 350.8 255.8 359.7 255.8 359.7C255.8 359.7 268.6 350.7 268.4 350.7C268.2 350.7 263.5 365.5 263.5 365.5L275 374.2L260.7 374.5V374.4Z" fill="#FFE700"/>
<path fill-rule="evenodd" clip-rule="evenodd" d="M258.6 372.2L255.8 380.2L253.3 372.3C253.3 372.3 244.7 372 244.7 372.2C244.7 372.4 251.5 367 251.5 367L248.5 358.3C248.5 358.5 255.8 363.7 255.8 363.7L263.1 358.5L260.3 367L266.9 372L258.6 372.2Z" fill="#108C00"/>
<path fill-rule="evenodd" clip-rule="evenodd" d="M162 290.3L156.3 306.3L151.3 290.5C151.3 290.5 134.1 290 134.1 290.3C134.1 290.6 147.6 280 147.6 280L141.6 262.4C141.8 262.9 156.3 273.2 156.3 273.2L171 263L165.3 280L178.6 290.1L162 290.4V290.3Z" fill="black"/>
<path fill-rule="evenodd" clip-rule="evenodd" d="M161.2 289.5L156.3 303.3L151.9 289.7C151.9 289.7 137.1 289.3 137.1 289.5C137.1 289.7 148.8 280.5 148.8 280.5L143.5 265.3C143.7 265.8 156.3 274.7 156.3 274.7C156.3 274.7 169.1 265.7 168.9 265.7C168.7 265.7 164 280.5 164 280.5L175.5 289.3L161.2 289.5Z" fill="#FFE700"/>
<path fill-rule="evenodd" clip-rule="evenodd" d="M159.1 287.2L156.3 295.2L153.8 287.3C153.8 287.3 145.2 287.1 145.2 287.3C145.2 287.5 152 282.1 152 282.1L149 273.3C149 273.6 156.3 278.7 156.3 278.7L163.6 273.5L160.8 282.1L167.4 287.1L159.1 287.2Z" fill="#108C00"/>
<path fill-rule="evenodd" clip-rule="evenodd" d="M198.7 175.8L193.1 191.8L187.9 176.1C187.9 176.1 170.9 175.6 170.9 175.8C170.9 176 184.4 165.5 184.4 165.5L178.3 148C178.5 148.5 193 158.8 193 158.8C193 158.8 207.8 148.5 207.6 148.5C207.4 148.5 202 165.5 202 165.5L215.2 175.5L198.7 175.8Z" fill="black"/>
<path fill-rule="evenodd" clip-rule="evenodd" d="M197.9 175L193 189L188.6 175.3C188.6 175.3 173.8 174.8 173.8 175.1C173.8 175.4 185.5 166.1 185.5 166.1L180.2 150.9C180.4 151.4 193 160.3 193 160.3C193 160.3 205.8 151.3 205.6 151.3C205.4 151.3 200.8 166.1 200.8 166.1L212.2 174.8L197.9 175.1V175Z" fill="#FFE700"/>
<path fill-rule="evenodd" clip-rule="evenodd" d="M195.8 172.8L193 180.8L190.5 172.9C190.5 172.9 182 172.6 182 172.8C182 173 188.7 167.6 188.7 167.6L185.7 158.9C185.7 159.1 193 164.3 193 164.3L200.3 159.1L197.5 167.6L204.1 172.6L195.8 172.8Z" fill="#108C00"/>
<path d="M280.195 326.345C284.255 325.93 286.373 309.406 284.928 289.438C283.482 269.47 279.019 253.619 274.96 254.035C270.901 254.45 268.782 270.975 270.227 290.943C271.673 310.911 276.136 326.761 280.195 326.345Z" fill="#009200" stroke="black" stroke-width="0.535138"/>
<path d="M287.669 326.249C291.962 325.811 294.242 309.271 292.761 289.306C291.28 269.342 286.598 253.513 282.305 253.951C278.011 254.39 275.732 270.93 277.213 290.894C278.694 310.859 283.375 326.688 287.669 326.249Z" fill="#009200" stroke="black" stroke-width="0.550352"/>
<path d="M284.377 332.051C287.815 331.696 289.334 313.519 287.769 291.451C286.204 269.383 282.149 251.781 278.711 252.136C275.273 252.491 273.754 270.669 275.319 292.737C276.884 314.804 280.939 332.406 284.377 332.051Z" fill="#009200" stroke="black" stroke-width="0.517704"/>
<path fill-rule="evenodd" clip-rule="evenodd" d="M223.939 309.237C230.224 308.953 227.503 305.586 230.677 303.793C233.85 301.999 238.35 303.175 239.71 305.413C241.05 307.65 239.962 309.852 241.72 309.878C243.457 309.904 290.847 307.791 292.55 309.657C294.273 311.523 294.539 315.231 292.774 316.668C291.01 318.106 231.084 318.946 229.019 317.429C226.954 315.935 223.932 309.592 223.939 309.237Z" fill="#A95600" stroke="black" stroke-width="0.538573"/>
<path fill-rule="evenodd" clip-rule="evenodd" d="M257.521 314.015C257.397 318.78 264.426 317.421 264.507 321.403C264.289 325.619 252.736 321.661 252.645 313.949C253.138 306.232 264.449 302.428 264.595 306.84C264.684 310.488 257.63 309.249 257.506 314.014L257.521 314.015Z" fill="#FFFF00" stroke="black" stroke-width="0.527227"/>
<path fill-rule="evenodd" clip-rule="evenodd" d="M261.665 314.118C261.541 318.884 268.571 317.525 268.651 321.507C268.433 325.723 256.88 321.765 256.789 314.052C257.282 306.336 268.594 302.532 268.739 306.944C268.828 310.592 261.774 309.352 261.65 314.118L261.665 314.118Z" fill="#FFFF00" stroke="black" stroke-width="0.527227"/>
<path fill-rule="evenodd" clip-rule="evenodd" d="M266.12 313.911C265.995 318.677 273.025 317.318 273.105 321.299C272.888 325.515 261.334 321.557 261.244 313.845C261.737 306.129 273.048 302.325 273.194 306.737C273.283 310.385 266.229 309.145 266.104 313.911L266.12 313.911Z" fill="#FFFF00" stroke="black" stroke-width="0.527227"/>
<path fill-rule="evenodd" clip-rule="evenodd" d="M270.264 313.911C270.139 318.677 277.169 317.318 277.249 321.299C277.032 325.515 265.478 321.557 265.388 313.845C265.881 306.129 277.192 302.325 277.338 306.737C277.427 310.385 270.373 309.145 270.248 313.911L270.264 313.911Z" fill="#FFFF00" stroke="black" stroke-width="0.527227"/>
<path d="M290.247 316.974C292.44 317.006 294.255 315.212 294.302 312.968C294.348 310.723 292.609 308.877 290.416 308.845C288.223 308.813 286.407 310.607 286.361 312.851C286.314 315.096 288.054 316.942 290.247 316.974Z" fill="#A95600" stroke="black" stroke-width="0.465908"/>
<path d="M267.073 307.251C269.029 306.957 270.236 303.217 269.77 298.899C269.304 294.58 267.34 291.318 265.384 291.612C263.428 291.907 262.221 295.646 262.687 299.965C263.154 304.283 265.117 307.546 267.073 307.251Z" fill="#009200" stroke="black" stroke-width="0.592605"/>
<path d="M260.98 306.725C262.936 306.43 264.143 302.691 263.677 298.372C263.21 294.054 261.247 290.791 259.291 291.086C257.335 291.38 256.128 295.12 256.594 299.438C257.06 303.757 259.024 307.019 260.98 306.725Z" fill="#009200" stroke="black" stroke-width="0.592605"/>
<path d="M256.648 298.938C258.604 298.644 259.812 294.904 259.345 290.586C258.879 286.267 256.915 283.005 254.959 283.299C253.003 283.594 251.796 287.333 252.262 291.652C252.729 295.97 254.692 299.233 256.648 298.938Z" fill="#009200" stroke="black" stroke-width="0.592605"/>
<path d="M263.079 299.333C264.962 299.022 266.072 294.902 265.56 290.131C265.048 285.359 263.106 281.743 261.224 282.054C259.341 282.365 258.231 286.485 258.743 291.256C259.256 296.028 261.197 299.643 263.079 299.333Z" fill="#009200" stroke="black" stroke-width="0.611753"/>
<path d="M271.513 299.324C273.398 299.036 274.535 295.18 274.054 290.711C273.572 286.241 271.653 282.851 269.769 283.138C267.884 283.425 266.746 287.281 267.228 291.751C267.71 296.22 269.628 299.611 271.513 299.324Z" fill="#009200" stroke="black" stroke-width="0.591894"/>
<path d="M266.849 296.465C268.734 296.178 269.871 292.322 269.39 287.852C268.908 283.383 266.989 279.992 265.105 280.28C263.22 280.567 262.082 284.423 262.564 288.892C263.046 293.362 264.964 296.752 266.849 296.465Z" fill="#009200" stroke="black" stroke-width="0.591894"/>
<path d="M261.019 292.371C262.903 292.084 264.041 288.228 263.559 283.759C263.077 279.289 261.159 275.899 259.274 276.186C257.389 276.473 256.252 280.329 256.734 284.799C257.215 289.268 259.134 292.658 261.019 292.371Z" fill="#009200" stroke="black" stroke-width="0.591894"/>
<path d="M255.572 290.009C257.457 289.722 258.594 285.866 258.112 281.396C257.631 276.927 255.712 273.536 253.827 273.823C251.942 274.111 250.805 277.967 251.287 282.436C251.768 286.906 253.687 290.296 255.572 290.009Z" fill="#009200" stroke="black" stroke-width="0.591894"/>
<path fill-rule="evenodd" clip-rule="evenodd" d="M248.819 214.347C248.819 214.347 236.863 224.787 238.423 253.01C240.182 281.405 265.366 294.735 265.366 294.735C265.366 294.735 271.702 286.657 270.775 263.869C268.724 230.489 256.777 215.785 256.777 215.785L248.837 214.35L248.819 214.347Z" fill="#804BFF" stroke="black" stroke-width="0.471764"/>
<path d="M275.515 308.395C277.492 308.455 279.348 304.992 279.662 300.659C279.975 296.327 278.626 292.766 276.649 292.706C274.672 292.646 272.816 296.109 272.503 300.442C272.189 304.774 273.538 308.335 275.515 308.395Z" fill="#009200" stroke="black" stroke-width="0.592605"/>
<path d="M269.614 306.788C271.591 306.848 273.448 303.384 273.761 299.052C274.074 294.72 272.726 291.159 270.749 291.099C268.772 291.039 266.915 294.502 266.602 298.834C266.288 303.167 267.637 306.727 269.614 306.788Z" fill="#009200" stroke="black" stroke-width="0.592605"/>
<path d="M266.744 298.352C268.721 298.412 270.578 294.949 270.891 290.616C271.205 286.284 269.856 282.723 267.879 282.663C265.902 282.603 264.045 286.066 263.732 290.399C263.419 294.731 264.767 298.292 266.744 298.352Z" fill="#009200" stroke="black" stroke-width="0.592605"/>
<path d="M273.001 299.89C274.909 299.921 276.738 296.066 277.087 291.28C277.436 286.494 276.173 282.589 274.265 282.558C272.357 282.528 270.528 286.383 270.179 291.169C269.83 295.955 271.094 299.859 273.001 299.89Z" fill="#009200" stroke="black" stroke-width="0.611753"/>
<path d="M281.301 301.389C283.207 301.444 285.015 297.853 285.34 293.37C285.666 288.886 284.384 285.207 282.479 285.153C280.573 285.098 278.764 288.689 278.439 293.172C278.114 297.656 279.395 301.335 281.301 301.389Z" fill="#009200" stroke="black" stroke-width="0.591894"/>
<path d="M277.223 297.743C279.129 297.797 280.938 294.207 281.263 289.723C281.588 285.24 280.307 281.561 278.401 281.506C276.495 281.452 274.687 285.042 274.361 289.526C274.036 294.009 275.317 297.688 277.223 297.743Z" fill="#009200" stroke="black" stroke-width="0.591894"/>
<path d="M272.218 292.672C274.124 292.727 275.933 289.136 276.258 284.653C276.583 280.169 275.302 276.49 273.396 276.436C271.49 276.381 269.682 279.972 269.356 284.456C269.031 288.939 270.313 292.618 272.218 292.672Z" fill="#009200" stroke="black" stroke-width="0.591894"/>
<path d="M267.282 289.374C269.188 289.429 270.997 285.838 271.322 281.355C271.647 276.871 270.366 273.192 268.46 273.138C266.554 273.083 264.746 276.674 264.42 281.157C264.095 285.641 265.377 289.32 267.282 289.374Z" fill="#009200" stroke="black" stroke-width="0.591894"/>
<path d="M286.418 291.895C291.655 289.894 290.364 275.468 283.535 259.675C276.706 243.882 266.924 232.702 261.687 234.704C256.45 236.705 257.74 251.13 264.57 266.923C271.399 282.716 281.181 293.896 286.418 291.895Z" fill="#C90000" stroke="black" stroke-width="0.227401"/>
<path d="M266.436 237.755C268.876 237.797 270.885 236.079 270.923 233.917C270.961 231.754 269.013 229.967 266.572 229.924C264.132 229.882 262.123 231.6 262.085 233.762C262.047 235.925 263.995 237.712 266.436 237.755Z" fill="#009200" stroke="black" stroke-width="0.528668"/>
<path d="M269.91 232.117C272.097 232.155 273.901 230.433 273.939 228.27C273.976 226.108 272.234 224.324 270.047 224.286C267.859 224.248 266.056 225.97 266.018 228.132C265.98 230.295 267.723 232.078 269.91 232.117Z" fill="#009200" stroke="black" stroke-width="0.533845"/>
<path d="M264.523 232.023C266.71 232.061 268.514 230.339 268.552 228.176C268.59 226.014 266.847 224.23 264.66 224.192C262.473 224.154 260.669 225.876 260.631 228.038C260.594 230.201 262.336 231.984 264.523 232.023Z" fill="#009200" stroke="black" stroke-width="0.533845"/>
<path d="M265.624 227.737C267.91 227.777 269.792 226.164 269.827 224.134C269.863 222.105 268.038 220.427 265.752 220.388C263.466 220.348 261.584 221.961 261.549 223.99C261.513 226.019 263.338 227.697 265.624 227.737Z" fill="#009200" stroke="black" stroke-width="0.528746"/>
<path d="M265.187 223.067C267.473 223.106 269.355 221.494 269.391 219.464C269.426 217.435 267.602 215.757 265.315 215.717C263.029 215.677 261.148 217.29 261.112 219.32C261.077 221.349 262.901 223.027 265.187 223.067Z" fill="#009200" stroke="black" stroke-width="0.528746"/>
<path d="M259.395 229.032C261.582 229.07 263.386 227.348 263.423 225.186C263.461 223.023 261.719 221.24 259.532 221.201C257.344 221.163 255.541 222.885 255.503 225.047C255.465 227.21 257.208 228.994 259.395 229.032Z" fill="#009200" stroke="black" stroke-width="0.533845"/>
<path d="M260.522 223.852C262.709 223.89 264.512 222.204 264.549 220.086C264.586 217.968 262.843 216.22 260.656 216.182C258.468 216.144 256.665 217.83 256.628 219.948C256.591 222.066 258.334 223.814 260.522 223.852Z" fill="#009200" stroke="black" stroke-width="0.528351"/>
<path d="M254.034 224.068C256.474 224.111 258.483 222.392 258.521 220.23C258.559 218.068 256.611 216.28 254.17 216.238C251.73 216.195 249.721 217.914 249.683 220.076C249.645 222.238 251.593 224.026 254.034 224.068Z" fill="#009200" stroke="black" stroke-width="0.528668"/>
<path d="M262.179 217.315C264.465 217.355 266.347 215.742 266.382 213.713C266.418 211.683 264.593 210.006 262.307 209.966C260.021 209.926 258.139 211.539 258.104 213.568C258.068 215.598 259.893 217.275 262.179 217.315Z" fill="#009200" stroke="black" stroke-width="0.528746"/>
<path d="M256.683 218.189C258.87 218.228 260.673 216.542 260.71 214.424C260.747 212.306 259.004 210.558 256.817 210.519C254.63 210.481 252.826 212.167 252.79 214.285C252.753 216.403 254.496 218.151 256.683 218.189Z" fill="#009200" stroke="black" stroke-width="0.528351"/>
<path d="M248.184 224.277C250.371 224.315 252.175 222.593 252.212 220.431C252.25 218.269 250.508 216.485 248.321 216.447C246.133 216.408 244.33 218.13 244.292 220.293C244.254 222.455 245.997 224.239 248.184 224.277Z" fill="#009200" stroke="black" stroke-width="0.533845"/>
<path d="M249.583 221.278C251.77 221.316 253.573 219.63 253.61 217.512C253.647 215.394 251.904 213.646 249.717 213.608C247.53 213.57 245.727 215.256 245.69 217.374C245.653 219.492 247.396 221.24 249.583 221.278Z" fill="#009200" stroke="black" stroke-width="0.528351"/>
<path d="M251.297 218.095C253.484 218.134 255.287 216.448 255.324 214.33C255.361 212.212 253.618 210.464 251.43 210.425C249.243 210.387 247.44 212.073 247.403 214.191C247.366 216.309 249.109 218.057 251.297 218.095Z" fill="#009200" stroke="black" stroke-width="0.528351"/>
<path d="M291.533 291.912C298.261 289.527 297.15 272.346 289.052 253.539C280.954 234.732 268.936 221.419 262.209 223.805C255.481 226.19 256.592 243.371 264.69 262.178C272.788 280.985 284.806 294.298 291.533 291.912Z" fill="#009200" stroke="black" stroke-width="0.464966"/>
<path d="M290.64 270.95C291.885 270.356 291.472 266.699 289.718 262.782C287.963 258.864 285.532 256.17 284.287 256.765C283.042 257.359 283.455 261.016 285.209 264.933C286.964 268.85 289.395 271.544 290.64 270.95Z" fill="#009200" stroke="black" stroke-width="0.472824"/>
<path fill-rule="evenodd" clip-rule="evenodd" d="M286.281 263.826C296.818 276.613 295.456 284.755 294.339 291.631C291.024 283.7 289.274 278.711 278.737 265.925C268.2 253.138 273.463 244.156 274.185 239.406C275.768 243.514 275.744 251.039 286.281 263.826Z" fill="#009200" stroke="black" stroke-width="0.484337"/>
<path fill-rule="evenodd" clip-rule="evenodd" d="M287.232 274.156C297.769 286.942 296.408 295.084 295.29 301.96C291.975 294.029 290.225 289.041 279.688 276.254C269.152 263.467 274.414 254.485 275.137 249.735C276.719 253.844 276.695 261.369 287.232 274.156Z" fill="#009200" stroke="black" stroke-width="0.484337"/>
<path fill-rule="evenodd" clip-rule="evenodd" d="M287.618 282.48C298.419 295.038 297.226 303.207 296.251 310.104C292.772 302.247 290.919 297.297 280.118 284.739C269.317 272.181 274.393 263.089 275.017 258.325C276.685 262.399 276.817 269.922 287.618 282.48Z" fill="#009200" stroke="black" stroke-width="0.484326"/>
<path d="M285.793 264.451C288.26 263.819 287.752 257.649 284.658 250.669C281.564 243.69 277.056 238.544 274.589 239.176C272.122 239.808 272.63 245.979 275.724 252.958C278.818 259.937 283.326 265.083 285.793 264.451Z" fill="#009200" stroke="black" stroke-width="0.480043"/>
<path d="M280.358 269.468C282.578 269.082 282.429 264.084 280.026 258.304C277.622 252.524 273.873 248.151 271.653 248.537C269.433 248.922 269.581 253.921 271.985 259.701C274.389 265.481 278.138 269.854 280.358 269.468Z" fill="#009200" stroke="black" stroke-width="0.467386"/>
<path d="M275.068 274.278C277.295 273.939 277.25 268.94 274.967 263.114C272.684 257.287 269.028 252.839 266.801 253.178C264.575 253.518 264.62 258.516 266.903 264.343C269.186 270.169 272.842 274.617 275.068 274.278Z" fill="#009200" stroke="black" stroke-width="0.467205"/>
<path d="M278.923 254.1C280.717 253.768 280.493 250.008 278.424 245.701C276.355 241.394 273.223 238.171 271.43 238.502C269.636 238.834 269.859 242.594 271.928 246.901C273.998 251.208 277.129 254.431 278.923 254.1Z" fill="#009200" stroke="black" stroke-width="0.482248"/>
<path d="M274.039 257.573C275.851 257.34 275.869 253.572 274.079 249.158C272.289 244.744 269.369 241.355 267.557 241.588C265.745 241.822 265.726 245.589 267.516 250.004C269.306 254.418 272.226 257.807 274.039 257.573Z" fill="#009200" stroke="black" stroke-width="0.481917"/>
<path fill-rule="evenodd" clip-rule="evenodd" d="M267.489 244.51C270.597 252.099 271.853 258.927 270.283 259.755C268.714 260.584 264.924 255.093 261.816 247.504" fill="#009200"/>
<path d="M267.489 244.51C270.597 252.099 271.853 258.927 270.283 259.755C268.714 260.584 264.924 255.093 261.816 247.504" stroke="black" stroke-width="0.476786"/>
<path d="M273.547 248.651C275.36 248.417 275.378 244.649 273.588 240.235C271.798 235.821 268.878 232.432 267.066 232.665C265.253 232.899 265.235 236.666 267.025 241.081C268.815 245.495 271.735 248.884 273.547 248.651Z" fill="#009200" stroke="black" stroke-width="0.481917"/>
<path d="M268.342 251.159C270.161 250.96 270.262 247.194 268.568 242.747C266.874 238.3 264.027 234.856 262.208 235.054C260.39 235.253 260.289 239.019 261.983 243.466C263.676 247.913 266.524 251.357 268.342 251.159Z" fill="#009200" stroke="black" stroke-width="0.481966"/>
<path fill-rule="evenodd" clip-rule="evenodd" d="M262.229 234.331C265.258 239.463 266.891 244.259 265.867 245.038C264.843 245.818 261.558 242.282 258.528 237.149" fill="#009200"/>
<path d="M262.229 234.331C265.258 239.463 266.891 244.259 265.867 245.038C264.843 245.818 261.558 242.282 258.528 237.149" stroke="black" stroke-width="0.478022"/>
<path fill-rule="evenodd" clip-rule="evenodd" d="M264.32 230.917C267.349 236.049 268.982 240.845 267.958 241.624C266.934 242.404 263.648 238.867 260.619 233.735" fill="#009200"/>
<path d="M264.32 230.917C267.349 236.049 268.982 240.845 267.958 241.624C266.934 242.404 263.648 238.867 260.619 233.735" stroke="black" stroke-width="0.478022"/>
<path fill-rule="evenodd" clip-rule="evenodd" d="M273.63 231.538C277.841 238.541 280.107 245.087 278.679 246.153C277.251 247.22 272.679 242.396 268.468 235.392" fill="#009200"/>
<path d="M273.63 231.538C277.841 238.541 280.107 245.087 278.679 246.153C277.251 247.22 272.679 242.396 268.468 235.392" stroke="black" stroke-width="0.477028"/>
<path fill-rule="evenodd" clip-rule="evenodd" d="M267.517 227.753C270.558 233.407 272.201 238.687 271.178 239.543C270.156 240.399 266.863 236.501 263.822 230.848" fill="#009200"/>
<path d="M267.517 227.753C270.558 233.407 272.201 238.687 271.178 239.543C270.156 240.399 266.863 236.501 263.822 230.848" stroke="black" stroke-width="0.470102"/>
<path fill-rule="evenodd" clip-rule="evenodd" d="M267.111 219.902C265.085 221.957 267.071 225.779 268.923 227.145C270.992 229.034 282.678 241.339 290.902 230.93C284.305 230.821 271.98 215.338 267.111 219.902Z" fill="#804BFF" stroke="black" stroke-width="0.485519"/>
<path fill-rule="evenodd" clip-rule="evenodd" d="M265.661 213.789C263.635 215.844 265.621 219.666 267.473 221.032C269.542 222.922 281.228 235.227 289.452 224.818C282.854 224.709 270.53 209.225 265.661 213.789Z" fill="#804BFF" stroke="black" stroke-width="0.485519"/>
<path fill-rule="evenodd" clip-rule="evenodd" d="M263.796 207.988C261.77 210.043 263.756 213.865 265.608 215.231C267.677 217.12 279.363 229.425 287.587 219.016C280.99 218.907 268.665 203.424 263.796 207.988Z" fill="#804BFF" stroke="black" stroke-width="0.485519"/>
<path fill-rule="evenodd" clip-rule="evenodd" d="M259.756 201.357C257.73 203.412 259.716 207.234 261.568 208.6C263.637 210.489 275.323 222.795 283.546 212.386C276.949 212.277 264.624 196.793 259.756 201.357Z" fill="#804BFF" stroke="black" stroke-width="0.485519"/>
<path fill-rule="evenodd" clip-rule="evenodd" d="M245.239 194.656C249.43 191.592 257.146 190.69 263.142 193.754C268.148 196.208 276.445 206.134 282.701 208.49C281.041 208.856 279.309 208.934 277.609 208.718C275.909 208.502 274.273 207.996 272.8 207.231C267.219 211.218 265.244 211.793 259.545 212.58C251.669 213.666 245.123 211.614 242.86 207.535C240.495 203.689 241.523 197.521 245.239 194.656Z" fill="#804BFF" stroke="black" stroke-width="0.516507"/>
<path d="M253.79 202.707C255.781 202.742 257.41 201.838 257.43 200.688C257.45 199.538 255.853 198.578 253.863 198.543C251.873 198.508 250.243 199.412 250.223 200.562C250.203 201.712 251.8 202.672 253.79 202.707Z" fill="#FF0000" stroke="black" stroke-width="0.469283"/>
<path d="M244.292 212.245C246.896 211.277 248.527 209.208 247.936 207.623C247.345 206.039 244.755 205.539 242.152 206.507C239.548 207.475 237.917 209.544 238.508 211.128C239.099 212.713 241.689 213.213 244.292 212.245Z" fill="#FFFF00" stroke="black" stroke-width="0.509711"/>
<path d="M253.694 201.724C254.404 201.736 254.989 201.248 254.999 200.635C255.01 200.021 254.443 199.513 253.733 199.501C253.023 199.488 252.439 199.976 252.428 200.59C252.417 201.204 252.984 201.711 253.694 201.724Z" fill="black"/>
<path fill-rule="evenodd" clip-rule="evenodd" d="M246.012 203.124C246.348 204.715 245.174 206.897 242.614 207.697C239.998 208.814 238.026 211.299 236.897 215.348C232.878 206.189 235.394 202.261 239.604 201.277C243.235 200.072 245.423 200.198 246.012 203.124Z" fill="#FFFF00" stroke="black" stroke-width="0.604842"/>
<path d="M242.243 204.65C242.746 204.624 243.131 204.188 243.103 203.677C243.074 203.165 242.642 202.772 242.139 202.798C241.636 202.824 241.251 203.26 241.28 203.772C241.308 204.283 241.74 204.677 242.243 204.65Z" fill="black"/>
</g>
</g>
<defs>
<clipPath id="clip0_2_2116">
<rect width="512" height="512" fill="white"/>
</clipPath>
</defs>
</svg>
