<svg width="512" height="512" viewBox="0 0 512 512" fill="none" xmlns="http://www.w3.org/2000/svg">
<g clip-path="url(#clip0_2_2372)">
<path d="M256 0H512V512H256V0Z" fill="white"/>
<path d="M0 0H256V512H0V0Z" fill="#006233"/>
<path d="M367 192C352.912 167.598 331.165 148.526 305.132 137.743C279.1 126.961 250.237 125.069 223.02 132.362C195.803 139.654 171.753 155.724 154.6 178.079C137.447 200.433 128.149 227.823 128.149 256C128.149 284.177 137.447 311.567 154.6 333.921C171.753 356.276 195.803 372.346 223.02 379.639C250.237 386.931 279.1 385.04 305.132 374.257C331.165 363.474 352.912 344.402 367 320C353.741 336.561 335.664 348.595 315.269 354.439C294.875 360.283 273.168 359.647 253.15 352.621C233.132 345.595 215.791 332.524 203.522 315.216C191.254 297.907 184.664 277.215 184.664 256C184.664 234.785 191.254 214.093 203.522 196.784C215.791 179.476 233.132 166.405 253.15 159.379C273.168 152.353 294.875 151.717 315.269 157.561C335.664 163.405 353.741 175.439 367 192ZM371.2 256L256 218.4L327.7 316.6V195.4L256 293.6L371.2 256Z" fill="#D21034"/>
</g>
<defs>
<clipPath id="clip0_2_2372">
<rect width="512" height="512" fill="white"/>
</clipPath>
</defs>
</svg>
