<svg width="512" height="512" viewBox="0 0 512 512" fill="none" xmlns="http://www.w3.org/2000/svg">
<g clip-path="url(#clip0_2_2586)">
<path fill-rule="evenodd" clip-rule="evenodd" d="M0 0H512V512H0V0Z" fill="#FFE800"/>
<path fill-rule="evenodd" clip-rule="evenodd" d="M0 256H512V512H0V256Z" fill="#00148E"/>
<path fill-rule="evenodd" clip-rule="evenodd" d="M0 384H512V512H0V384Z" fill="#DA0010"/>
<path fill-rule="evenodd" clip-rule="evenodd" d="M213.5 244.2L158.8 301.9L157.8 300.7L212.5 242.9L213.5 244.2ZM251.5 253.6L180 329L178.8 327.8L250.3 252.4L251.6 253.6H251.5Z" fill="black"/>
<path fill-rule="evenodd" clip-rule="evenodd" d="M181.09 329.074L175.154 335.098L168.297 340.238L173.313 333.328L179.249 327.304L181.09 329.074Z" fill="#808080" stroke="black" stroke-width="0.340239"/>
<path fill-rule="evenodd" clip-rule="evenodd" d="M162.69 299.574L156.754 305.598L149.897 310.738L154.913 303.828L160.849 297.804L162.69 299.574Z" fill="#808080" stroke="black" stroke-width="0.340239"/>
<path fill-rule="evenodd" clip-rule="evenodd" d="M167.108 112.081C167.108 112.081 161.09 275.668 185.162 275.668C209.234 275.668 221.304 258.464 221.304 258.464L221.032 168.554L167.108 112.081Z" fill="#FFDF00" stroke="black" stroke-width="0.541996"/>
<path fill-rule="evenodd" clip-rule="evenodd" d="M181.83 127.341C181.83 135.943 179.144 258.464 191.18 258.464C203.216 258.464 221.304 249.862 221.304 249.862L221.032 168.554L181.83 127.341Z" fill="#0000C4" stroke="black" stroke-width="0.541996"/>
<path fill-rule="evenodd" clip-rule="evenodd" d="M189.65 135.603C189.65 144.205 191.18 241.26 203.25 241.26H221.304L221.032 168.554L189.65 135.603Z" fill="#E10000" stroke="black" stroke-width="0.541996"/>
<path fill-rule="evenodd" clip-rule="evenodd" d="M165.7 112.2L220.3 169.9L221.3 168.7L166.6 111L165.6 112.2H165.7Z" fill="black"/>
<path fill-rule="evenodd" clip-rule="evenodd" d="M149.828 143.852C149.828 143.852 134.252 300.371 180.98 300.371C219.92 300.371 219.92 275.68 227.708 275.68L219.92 218.02L149.828 143.852Z" fill="#FFDF00" stroke="black" stroke-width="0.603103"/>
<path d="M184.286 171.636C184.605 171.614 196.065 146.16 224.39 130.248" stroke="black" stroke-width="0.641616"/>
<path fill-rule="evenodd" clip-rule="evenodd" d="M182.581 146.816C186.563 148.717 189.072 150.908 191.35 153.465C186.78 152.494 184.421 152.103 180.439 150.202C176.457 148.302 173.431 145.388 171.027 143.031C173.997 143.951 178.577 144.905 182.581 146.816Z" fill="#005B00" stroke="black" stroke-width="0.291759"/>
<path fill-rule="evenodd" clip-rule="evenodd" d="M194.883 161.533C195.151 162.061 194.858 162.799 194.214 163.156C193.57 163.513 192.828 163.366 192.554 162.825C192.279 162.284 192.585 161.573 193.229 161.216C193.873 160.858 194.615 161.005 194.883 161.533Z" fill="#FF0000" stroke="black" stroke-width="0.203051"/>
<path fill-rule="evenodd" clip-rule="evenodd" d="M204.595 130.251C202.858 134.776 200.94 137.762 198.73 140.55C199.723 135.521 200.144 132.94 201.882 128.415C203.62 123.89 206.156 120.252 208.206 117.356C207.322 120.663 206.342 125.701 204.595 130.251Z" fill="#005B00" stroke="black" stroke-width="0.276504"/>
<path fill-rule="evenodd" clip-rule="evenodd" d="M201.492 130.234C201.075 134.669 200.155 138.107 198.945 141.595C198.622 137.289 198.383 135.138 198.799 130.703C199.215 126.269 200.504 121.948 201.556 118.487C201.574 121.472 201.91 125.775 201.492 130.234Z" fill="#005B00" stroke="black" stroke-width="0.242108"/>
<path fill-rule="evenodd" clip-rule="evenodd" d="M204.966 136.102C202.613 138.745 200.624 139.856 198.53 140.55C200.614 136.843 201.634 134.869 203.987 132.226C206.34 129.584 208.876 128.394 210.913 127.472C209.411 129.719 207.332 133.445 204.966 136.102Z" fill="#005B00" stroke="black" stroke-width="0.260972"/>
<path fill-rule="evenodd" clip-rule="evenodd" d="M186.296 143.991C188.83 147.212 190.017 150.277 190.86 153.65C187.452 151.212 185.648 150.068 183.114 146.847C180.58 143.625 179.261 139.647 178.23 136.442C180.325 138.327 183.748 140.751 186.296 143.991Z" fill="#005B00" stroke="black" stroke-width="0.290495"/>
<path fill-rule="evenodd" clip-rule="evenodd" d="M177.553 162.856C180.992 165.625 182.821 168.488 184.29 171.725C179.933 169.908 177.646 169.093 174.207 166.324C170.768 163.555 168.653 159.798 166.988 156.765C169.721 158.271 174.095 160.072 177.553 162.856Z" fill="#005B00" stroke="black" stroke-width="0.320063"/>
<path fill-rule="evenodd" clip-rule="evenodd" d="M193.395 161.569C190.771 165.913 187.906 168.846 184.615 171.62C186.153 166.873 186.813 164.444 189.438 160.1C192.062 155.756 195.846 152.166 198.905 149.305C197.553 152.446 196.034 157.201 193.395 161.569Z" fill="#005B00" stroke="black" stroke-width="0.321174"/>
<path fill-rule="evenodd" clip-rule="evenodd" d="M197.752 165.891C193.372 168.914 189.556 170.458 185.49 171.655C189.232 167.748 191.046 165.691 195.427 162.668C199.807 159.645 204.696 157.881 208.626 156.494C205.887 158.928 202.157 162.852 197.752 165.891Z" fill="#005B00" stroke="black" stroke-width="0.319128"/>
<path fill-rule="evenodd" clip-rule="evenodd" d="M226.555 127.416C224.709 129.642 223.046 131.011 221.25 132.235C222.761 129.639 223.485 128.296 225.331 126.069C227.177 123.843 229.319 122.201 231.042 120.898C229.916 122.575 228.411 125.177 226.555 127.416Z" fill="#005B00" stroke="black" stroke-width="0.15918"/>
<path fill-rule="evenodd" clip-rule="evenodd" d="M224.63 126.646C223.544 128.999 222.36 130.749 221 132.49C221.638 130.114 221.912 128.918 222.998 126.565C224.084 124.212 225.648 122.029 226.912 120.283C226.352 121.905 225.722 124.28 224.63 126.646Z" fill="#005B00" stroke="black" stroke-width="0.142789"/>
<path fill-rule="evenodd" clip-rule="evenodd" d="M226.141 130.995C224.277 132.118 222.908 132.455 221.555 132.55C223.459 130.812 224.42 129.874 226.284 128.751C228.148 127.629 229.852 127.323 231.213 127.096C229.92 128.118 228.016 129.867 226.141 130.995Z" fill="#005B00" stroke="black" stroke-width="0.153484"/>
<path fill-rule="evenodd" clip-rule="evenodd" d="M201.527 146.227C198.088 148.309 195.274 149.473 192.35 150.445C195.509 147.876 197.068 146.534 200.507 144.453C203.946 142.371 207.516 141.008 210.38 139.931C208.139 141.557 204.985 144.134 201.527 146.227Z" fill="#005B00" stroke="black" stroke-width="0.199045"/>
<path fill-rule="evenodd" clip-rule="evenodd" d="M212.713 145.35C208.152 148.065 204.274 149.332 200.18 150.23C204.193 146.574 206.153 144.638 210.714 141.923C215.275 139.208 220.226 137.8 224.202 136.701C221.302 138.948 217.3 142.62 212.713 145.35Z" fill="#005B00" stroke="black" stroke-width="0.318436"/>
<path d="M182.72 189.291C183.013 189.128 180.19 165.363 198.624 140.767" stroke="black" stroke-width="0.642841"/>
<path fill-rule="evenodd" clip-rule="evenodd" d="M212.082 137.333C212.35 137.861 212.057 138.599 211.414 138.956C210.77 139.313 210.028 139.166 209.753 138.625C209.479 138.084 209.785 137.373 210.429 137.016C211.073 136.658 211.814 136.805 212.082 137.333Z" fill="#FF0000" stroke="black" stroke-width="0.203051"/>
<path fill-rule="evenodd" clip-rule="evenodd" d="M220.282 132.533C220.55 133.061 220.258 133.799 219.614 134.156C218.97 134.513 218.228 134.366 217.953 133.825C217.679 133.284 217.985 132.573 218.629 132.216C219.273 131.858 220.014 132.005 220.282 132.533Z" fill="#FF0000" stroke="black" stroke-width="0.203051"/>
<path fill-rule="evenodd" clip-rule="evenodd" d="M191.123 147.034C191.323 147.434 190.961 148.078 190.303 148.454C189.645 148.83 188.948 148.804 188.743 148.394C188.538 147.984 188.91 147.36 189.568 146.984C190.226 146.608 190.923 146.634 191.123 147.034Z" fill="#FF0000" stroke="black" stroke-width="0.179023"/>
<path fill-rule="evenodd" clip-rule="evenodd" d="M193.423 146.034C193.623 146.434 193.261 147.078 192.603 147.454C191.945 147.83 191.248 147.804 191.043 147.394C190.838 146.984 191.21 146.36 191.868 145.984C192.526 145.608 193.223 145.634 193.423 146.034Z" fill="#FF0000" stroke="black" stroke-width="0.179023"/>
<path fill-rule="evenodd" clip-rule="evenodd" d="M192.123 148.134C192.323 148.534 191.961 149.178 191.303 149.554C190.645 149.93 189.948 149.904 189.743 149.494C189.538 149.084 189.91 148.46 190.568 148.084C191.226 147.708 191.923 147.734 192.123 148.134Z" fill="#FF0000" stroke="black" stroke-width="0.179023"/>
<path fill-rule="evenodd" clip-rule="evenodd" d="M201.51 147.66C201.806 148.248 201.48 149.067 200.766 149.462C200.052 149.857 199.23 149.691 198.926 149.088C198.623 148.485 198.964 147.696 199.678 147.301C200.393 146.906 201.214 147.072 201.51 147.66Z" fill="#FF0000" stroke="black" stroke-width="0.225413"/>
<path fill-rule="evenodd" clip-rule="evenodd" d="M203.21 145.96C203.506 146.548 203.18 147.367 202.466 147.762C201.751 148.157 200.93 147.991 200.626 147.388C200.323 146.785 200.664 145.996 201.378 145.601C202.092 145.206 202.914 145.372 203.21 145.96Z" fill="#FF0000" stroke="black" stroke-width="0.225413"/>
<path fill-rule="evenodd" clip-rule="evenodd" d="M203.611 146.76C203.907 147.348 203.581 148.167 202.866 148.562C202.152 148.957 201.33 148.791 201.027 148.188C200.723 147.585 201.064 146.796 201.778 146.401C202.493 146.006 203.315 146.172 203.611 146.76Z" fill="#FF0000" stroke="black" stroke-width="0.225413"/>
<path fill-rule="evenodd" clip-rule="evenodd" d="M165.404 160.359C165.404 168.59 149.828 259.219 188.812 283.91C204.388 292.141 227.752 275.68 227.752 283.91L219.964 218.019L165.404 160.359Z" fill="#0000C4" stroke="black" stroke-width="0.603103"/>
<path fill-rule="evenodd" clip-rule="evenodd" d="M180.98 176.821C180.98 185.051 173.192 250.942 196.6 267.449C212.176 283.91 251.16 279.446 251.16 279.446L219.964 218.02L180.98 176.821Z" fill="#E10000" stroke="black" stroke-width="0.603103"/>
<path fill-rule="evenodd" clip-rule="evenodd" d="M148.8 144L220.3 219.4L221.6 218.2L150 142.8L148.8 144Z" fill="black"/>
<path fill-rule="evenodd" clip-rule="evenodd" d="M136.925 135.528L141.562 136.537L142.978 137.989C142.793 137.968 144.394 139.44 142.589 141.334C140.784 143.228 137.962 140.314 137.962 140.314C137.962 140.314 138.988 145.111 141.828 148.022C144.668 150.933 147.882 150.482 147.882 150.482C147.882 150.482 144.681 147.751 146.855 145.686C149.032 143.601 150.077 145.243 150.077 145.243L152.909 148.146L154.724 146.241L143.388 134.622L142.362 129.825L135.331 128.373L136.927 135.51L136.925 135.528Z" fill="#CECECC" stroke="black" stroke-width="0.173513"/>
<path fill-rule="evenodd" clip-rule="evenodd" d="M150.673 103.163L156.003 111.275L163.005 112.875L158.314 115.884L166.722 115.353L170.449 117.838L171.873 115.702L168.135 113.21L165.4 105.233L164.418 110.732L160.256 104.872L150.67 103.144L150.673 103.163Z" fill="#CECECC" stroke="black" stroke-width="0.179877"/>
<path fill-rule="evenodd" clip-rule="evenodd" d="M171.017 109.358C171.017 109.826 170.411 110.224 169.714 110.224C169.017 110.224 168.381 109.826 168.381 109.358C168.381 108.89 168.987 108.469 169.714 108.469C170.442 108.469 171.017 108.867 171.017 109.358ZM169.139 111.207C169.139 119.584 175.471 155.152 175.986 156.018C176.017 157.071 174.532 157.515 173.835 156.228C171.835 152.157 167.533 118.788 167.381 110.996C167.29 107.79 168.502 107.533 169.896 107.603C171.017 107.65 172.411 108.469 172.411 109.452C172.411 110.622 170.654 111.487 169.139 111.207Z" fill="#E10000" stroke="black" stroke-width="0.355032"/>
<path fill-rule="evenodd" clip-rule="evenodd" d="M172.194 113.215C171.966 113.655 171.203 113.889 170.547 113.728C169.892 113.567 169.487 113.046 169.715 112.606C169.943 112.166 170.718 111.91 171.402 112.078C172.086 112.246 172.434 112.753 172.194 113.215ZM169.527 114.519C171.505 130.232 164.403 154.602 164.454 155.557C163.981 156.532 162.356 156.629 162.339 155.236C162.003 154.335 170.142 132.303 167.976 113.915C169.453 110.88 170.718 110.918 171.995 111.306C173.027 111.609 173.939 112.701 173.46 113.625C172.89 114.725 170.815 115.133 169.527 114.519Z" fill="#0000C4" stroke="black" stroke-width="0.359547"/>
<path fill-rule="evenodd" clip-rule="evenodd" d="M154.907 139.36C154.907 140.12 154.133 140.766 153.243 140.766C152.353 140.766 151.541 140.12 151.541 139.36C151.541 138.6 152.315 137.916 153.243 137.916C154.172 137.916 154.907 138.562 154.907 139.36ZM152.508 142.362C152.508 155.966 160.596 213.726 161.254 215.132C161.293 216.842 159.397 217.564 158.507 215.474C155.952 208.862 150.457 154.674 150.263 142.02C150.147 136.814 151.695 136.396 153.476 136.51C154.907 136.586 156.688 137.916 156.688 139.512C156.688 141.412 154.443 142.818 152.508 142.362Z" fill="#E10000" stroke="black" stroke-width="0.511312"/>
<path fill-rule="evenodd" clip-rule="evenodd" d="M156.947 145.14C156.657 145.86 155.681 146.248 154.841 145.99C154.002 145.733 153.482 144.886 153.772 144.166C154.062 143.446 155.053 143.022 155.929 143.29C156.805 143.559 157.252 144.384 156.947 145.14ZM153.539 147.29C156.133 172.922 147.143 212.756 147.212 214.314C146.611 215.91 144.532 216.081 144.505 213.807C144.071 212.339 154.398 176.313 151.552 146.316C153.429 141.35 155.049 141.402 156.684 142.026C158.006 142.512 159.177 144.287 158.568 145.799C157.843 147.599 155.19 148.282 153.539 147.29Z" fill="#0000C4" stroke="black" stroke-width="0.51325"/>
<path fill-rule="evenodd" clip-rule="evenodd" d="M289.6 244.2L344.3 301.9L345.3 300.7L290.6 242.9L289.6 244.2ZM251.6 253.6L323 329L324.2 327.8L252.7 252.4L251.4 253.6H251.6Z" fill="black"/>
<path fill-rule="evenodd" clip-rule="evenodd" d="M321.91 329.074L327.846 335.098L334.703 340.238L329.687 333.328L323.751 327.304L321.91 329.074Z" fill="#808080" stroke="black" stroke-width="0.340239"/>
<path fill-rule="evenodd" clip-rule="evenodd" d="M340.41 299.574L346.346 305.598L353.203 310.738L348.187 303.828L342.251 297.804L340.41 299.574Z" fill="#808080" stroke="black" stroke-width="0.340239"/>
<path fill-rule="evenodd" clip-rule="evenodd" d="M336.092 112.081C336.092 112.081 342.11 275.668 318.038 275.668C293.966 275.668 281.896 258.464 281.896 258.464L282.168 168.554L336.092 112.081Z" fill="#FFDF00" stroke="black" stroke-width="0.541996"/>
<path fill-rule="evenodd" clip-rule="evenodd" d="M321.37 127.341C321.37 135.943 324.056 258.464 312.02 258.464C299.984 258.464 281.896 249.862 281.896 249.862L282.168 168.554L321.37 127.341Z" fill="#0000C4" stroke="black" stroke-width="0.541996"/>
<path fill-rule="evenodd" clip-rule="evenodd" d="M313.55 135.603C313.55 144.205 312.02 241.26 299.95 241.26H281.896L282.168 168.554L313.55 135.603Z" fill="#E10000" stroke="black" stroke-width="0.541996"/>
<path fill-rule="evenodd" clip-rule="evenodd" d="M337.4 112.2L282.8 170L281.8 168.8L336.5 111.1L337.5 112.3L337.4 112.2Z" fill="black"/>
<path fill-rule="evenodd" clip-rule="evenodd" d="M295.677 155.399C295.677 155.399 311.225 174.961 318.687 190.173C326.143 205.418 334.811 228.703 334.811 228.703C334.811 228.703 329.923 205.704 320.529 187.378C308.213 164.334 295.662 156.725 295.677 155.399Z" fill="#005B00" stroke="black" stroke-width="0.256821"/>
<path fill-rule="evenodd" clip-rule="evenodd" d="M292.49 140.274C292.49 140.274 309.268 163.68 316.931 181.139C324.584 198.632 333.11 224.916 333.11 224.916C333.11 224.916 328.963 199.544 319.261 178.446C306.475 151.835 292.383 141.689 292.49 140.274Z" fill="#005B00" stroke="black" stroke-width="0.285261"/>
<path fill-rule="evenodd" clip-rule="evenodd" d="M309.109 117.717C309.109 117.717 321.376 153.648 325.144 175.824C328.892 198.02 331.225 228.535 331.225 228.535C331.225 228.535 333.502 202.971 328.459 175.751C321.489 140.896 308.608 118.821 309.109 117.717Z" fill="#005B00" stroke="black" stroke-width="0.331196"/>
<path fill-rule="evenodd" clip-rule="evenodd" d="M296.541 115.588C296.541 115.588 312.789 147.665 319.037 169.456C325.267 191.278 331.031 222.755 331.031 222.755C331.031 222.755 330.408 194.168 322.323 167.641C311.461 133.942 296.168 117.033 296.541 115.588Z" fill="#005B00" stroke="black" stroke-width="0.333201"/>
<path fill-rule="evenodd" clip-rule="evenodd" d="M317.711 124.597C317.711 124.597 326.256 159.174 328.492 179.882C330.713 200.604 331.514 228.625 331.514 228.625C331.514 228.625 334.222 205.854 331.142 180.367C326.789 147.646 317.272 125.513 317.711 124.597Z" fill="#005B00" stroke="black" stroke-width="0.298014"/>
<path fill-rule="evenodd" clip-rule="evenodd" d="M294.152 126.532C294.152 126.532 310.365 154.105 317.028 173.378C323.677 192.682 330.34 220.894 330.34 220.894C330.34 220.894 328.478 194.75 319.931 171.342C308.537 141.671 293.878 127.9 294.152 126.532Z" fill="#005B00" stroke="black" stroke-width="0.303663"/>
<path fill-rule="evenodd" clip-rule="evenodd" d="M292.38 145.147C292.38 145.147 309.14 167.049 316.735 183.842C324.32 200.67 332.71 226.232 332.71 226.232C332.71 226.232 328.74 201.173 319.115 180.922C306.42 155.431 292.26 146.576 292.38 145.147Z" fill="#005B00" stroke="black" stroke-width="0.288799"/>
<path fill-rule="evenodd" clip-rule="evenodd" d="M294.584 134.729C294.584 134.729 310.256 159.72 317.09 177.876C323.913 196.064 331.189 223.093 331.189 223.093C331.189 223.093 328.251 197.41 319.55 175.427C308.026 147.644 294.41 136.128 294.584 134.729Z" fill="#005B00" stroke="black" stroke-width="0.284983"/>
<path fill-rule="evenodd" clip-rule="evenodd" d="M312.884 118.498C312.884 118.498 323.129 153.72 325.676 175.182C328.202 196.66 328.876 225.983 328.876 225.983C328.876 225.983 332.513 201.726 328.971 175.354C323.927 141.546 312.326 119.516 312.884 118.498Z" fill="#005B00" stroke="black" stroke-width="0.322592"/>
<path fill-rule="evenodd" clip-rule="evenodd" d="M299.357 109.867C299.357 109.867 313.99 143.33 319.164 165.622C324.32 187.944 328.549 219.846 328.549 219.846C328.549 219.846 329.297 191.296 322.521 164.115C313.325 129.53 298.915 111.273 299.357 109.867Z" fill="#005B00" stroke="black" stroke-width="0.333887"/>
<path fill-rule="evenodd" clip-rule="evenodd" d="M321.44 128.06C321.44 128.06 327.972 161.167 329.022 180.793C330.055 200.431 329.264 226.831 329.264 226.831C329.264 226.831 333.244 205.612 331.627 181.434C329.155 150.366 320.952 128.89 321.44 128.06Z" fill="#005B00" stroke="black" stroke-width="0.285717"/>
<path fill-rule="evenodd" clip-rule="evenodd" d="M295.674 120.312C295.674 120.312 310.888 149.244 316.578 169.193C322.251 189.172 327.308 218.19 327.308 218.19C327.308 218.19 327.188 191.552 319.796 167.297C309.833 136.52 295.287 121.684 295.674 120.312Z" fill="#005B00" stroke="black" stroke-width="0.315233"/>
<path fill-rule="evenodd" clip-rule="evenodd" d="M353.272 143.852C353.272 143.852 368.848 300.371 322.12 300.371C283.18 300.371 283.18 275.679 275.392 275.679L283.18 218.019L353.272 143.852Z" fill="#FFDF00" stroke="black" stroke-width="0.603103"/>
<path fill-rule="evenodd" clip-rule="evenodd" d="M337.696 160.359C337.696 168.59 353.272 259.219 314.288 283.91C298.712 292.141 275.348 275.68 275.348 283.91L283.136 218.019L337.696 160.359Z" fill="#0000C4" stroke="black" stroke-width="0.603103"/>
<path fill-rule="evenodd" clip-rule="evenodd" d="M322.12 176.821C322.12 185.051 329.908 250.942 306.5 267.449C290.924 283.91 251.94 279.446 251.94 279.446L283.136 218.02L322.12 176.821Z" fill="#E10000" stroke="black" stroke-width="0.603103"/>
<path fill-rule="evenodd" clip-rule="evenodd" d="M354.3 144L282.8 219.4L281.5 218.2L353.1 142.8L354.3 144Z" fill="black"/>
<path fill-rule="evenodd" clip-rule="evenodd" d="M366.275 135.528L361.637 136.537L360.221 137.989C360.407 137.968 358.805 139.44 360.611 141.334C362.416 143.228 365.238 140.314 365.238 140.314C365.238 140.314 364.211 145.111 361.371 148.022C358.531 150.933 355.318 150.482 355.318 150.482C355.318 150.482 358.519 147.751 356.345 145.686C354.168 143.601 353.123 145.243 353.123 145.243L350.291 148.146L348.476 146.241L359.812 134.622L360.838 129.825L367.869 128.373L366.273 135.51L366.275 135.528Z" fill="#CECECC" stroke="black" stroke-width="0.173513"/>
<path fill-rule="evenodd" clip-rule="evenodd" d="M352.327 103.163L346.997 111.275L339.995 112.875L344.686 115.884L336.278 115.353L332.551 117.838L331.127 115.702L334.865 113.21L337.6 105.233L338.582 110.732L342.744 104.872L352.33 103.144L352.327 103.163Z" fill="#CECECC" stroke="black" stroke-width="0.179877"/>
<path fill-rule="evenodd" clip-rule="evenodd" d="M331.982 109.358C331.982 109.826 332.588 110.224 333.285 110.224C333.982 110.224 334.618 109.826 334.618 109.358C334.618 108.89 334.012 108.469 333.285 108.469C332.558 108.469 331.982 108.867 331.982 109.358ZM333.861 111.207C333.861 119.584 327.528 155.152 327.013 156.018C326.983 157.071 328.467 157.515 329.164 156.228C331.164 152.157 335.467 118.788 335.618 110.996C335.709 107.79 334.497 107.533 333.103 107.603C331.982 107.65 330.588 108.469 330.588 109.452C330.588 110.622 332.346 111.487 333.861 111.207Z" fill="#E10000" stroke="black" stroke-width="0.355032"/>
<path fill-rule="evenodd" clip-rule="evenodd" d="M330.905 113.215C331.133 113.655 331.897 113.889 332.552 113.728C333.208 113.567 333.613 113.046 333.385 112.606C333.157 112.166 332.381 111.91 331.697 112.078C331.013 112.246 330.666 112.753 330.905 113.215ZM333.573 114.519C331.595 130.232 338.697 154.602 338.646 155.557C339.119 156.532 340.743 156.629 340.76 155.236C341.097 154.335 332.957 132.303 335.123 113.915C333.647 110.88 332.381 110.918 331.105 111.306C330.073 111.609 329.161 112.701 329.64 113.625C330.21 114.725 332.285 115.133 333.573 114.519Z" fill="#0000C4" stroke="black" stroke-width="0.359547"/>
<path fill-rule="evenodd" clip-rule="evenodd" d="M348.093 139.36C348.093 140.12 348.867 140.766 349.757 140.766C350.647 140.766 351.459 140.12 351.459 139.36C351.459 138.6 350.685 137.916 349.757 137.916C348.828 137.916 348.093 138.562 348.093 139.36ZM350.492 142.362C350.492 155.966 342.404 213.726 341.746 215.132C341.707 216.842 343.603 217.564 344.493 215.474C347.048 208.862 352.543 154.674 352.737 142.02C352.853 136.814 351.305 136.396 349.524 136.51C348.093 136.586 346.312 137.916 346.312 139.512C346.312 141.412 348.557 142.818 350.492 142.362Z" fill="#E10000" stroke="black" stroke-width="0.511312"/>
<path fill-rule="evenodd" clip-rule="evenodd" d="M346.152 145.14C346.442 145.86 347.419 146.248 348.258 145.99C349.098 145.733 349.618 144.886 349.328 144.166C349.038 143.446 348.047 143.022 347.171 143.29C346.295 143.559 345.848 144.384 346.152 145.14ZM349.561 147.29C346.966 172.922 355.957 212.756 355.887 214.314C356.489 215.91 358.567 216.081 358.595 213.807C359.029 212.339 348.701 176.313 351.547 146.316C349.67 141.35 348.051 141.402 346.415 142.026C345.094 142.512 343.922 144.287 344.531 145.799C345.256 147.599 347.91 148.282 349.561 147.29Z" fill="#0000C4" stroke="black" stroke-width="0.51325"/>
<path fill-rule="evenodd" clip-rule="evenodd" d="M227.796 341.57C231.351 343.728 235.379 344.864 239.478 344.864C243.578 344.864 247.606 343.728 251.16 341.57V275.679H235.584C243.372 300.371 243.372 325.109 227.752 341.57H227.796Z" fill="#E10000" stroke="black" stroke-width="0.603103"/>
<path fill-rule="evenodd" clip-rule="evenodd" d="M239.357 276.178C239.357 322.552 228.095 332.875 228.095 342.202C232.785 342.202 235.912 337.853 239.357 331.879C244.048 322.552 244.498 275.444 244.048 276.178H239.357Z" fill="#0000C4" stroke="black" stroke-width="0.496852"/>
<path fill-rule="evenodd" clip-rule="evenodd" d="M229.976 276.178C229.738 303.269 218.104 328.368 220.304 333.923C222.795 338.901 229.976 322.552 239.357 331.827C244.048 322.552 244.498 275.444 244.048 276.125L229.976 276.178Z" fill="#0000C4" stroke="black" stroke-width="0.496852"/>
<path fill-rule="evenodd" clip-rule="evenodd" d="M231.157 276.425C231.157 307.4 220.372 309.465 220.372 317.725C225.062 317.725 231.131 313.21 231.157 313.63C235.848 307.4 236.298 275.935 235.848 276.425H231.157Z" fill="#FFDF00" stroke="black" stroke-width="0.406065"/>
<path fill-rule="evenodd" clip-rule="evenodd" d="M221.776 276.425C221.538 294.52 210.169 309.92 212.369 313.63C214.886 316.92 221.776 307.4 231.157 313.63C235.848 307.4 236.298 275.935 235.848 276.425H221.776Z" fill="#FFDF00" stroke="black" stroke-width="0.406065"/>
<path fill-rule="evenodd" clip-rule="evenodd" d="M275.304 341.57C271.749 343.728 267.722 344.864 263.622 344.864C259.523 344.864 255.495 343.728 251.94 341.57V275.679H267.516C259.728 300.371 259.728 325.109 275.348 341.57H275.304Z" fill="#E10000" stroke="black" stroke-width="0.603103"/>
<path fill-rule="evenodd" clip-rule="evenodd" d="M263.743 276.178C263.743 322.552 275.006 332.875 275.006 342.202C270.315 342.202 267.188 337.853 263.743 331.879C259.053 322.552 258.602 275.444 259.053 276.178H263.743Z" fill="#0000C4" stroke="black" stroke-width="0.496852"/>
<path fill-rule="evenodd" clip-rule="evenodd" d="M273.124 276.178C273.363 303.269 284.996 328.368 282.797 333.923C280.306 338.901 273.124 322.552 263.743 331.827C259.053 322.552 258.602 275.444 259.053 276.125L273.124 276.178Z" fill="#0000C4" stroke="black" stroke-width="0.496852"/>
<path fill-rule="evenodd" clip-rule="evenodd" d="M272.043 276.425C272.043 307.4 282.829 309.465 282.829 317.725C278.138 317.725 272.07 313.21 272.043 313.63C267.353 307.4 266.902 275.935 267.353 276.425H272.043Z" fill="#FFDF00" stroke="black" stroke-width="0.406065"/>
<path fill-rule="evenodd" clip-rule="evenodd" d="M281.424 276.425C281.663 294.52 293.031 309.92 290.832 313.63C288.314 316.92 281.424 307.4 272.043 313.63C267.353 307.4 266.902 275.935 267.353 276.425H281.424Z" fill="#FFDF00" stroke="black" stroke-width="0.406065"/>
<path fill-rule="evenodd" clip-rule="evenodd" d="M192.274 282.76L184.201 288.778L192.274 294.796L196.306 291.787L198.322 294.796L200.338 300.814L202.363 294.796L204.379 291.787H312.55V285.769H204.37L202.354 282.743C202.354 279.734 202.777 276.725 204.379 276.725H212.443C212.443 273.716 208.411 267.698 200.338 267.698C192.274 267.698 188.233 273.716 188.233 276.725H196.306C197.899 276.725 198.322 279.734 198.322 282.76L196.306 285.769L192.274 282.76Z" fill="#908F8A" stroke="black" stroke-width="0.556619"/>
<path fill-rule="evenodd" clip-rule="evenodd" d="M216.003 297.01H286.71V300.674H216.024L216.003 297.01ZM216.003 293.325H286.71V297.01H216.024L216.003 293.325ZM216.003 289.661H286.71V293.346H216.024L216.003 289.661ZM216.003 285.998H286.71V289.661H216.024L216.003 285.998ZM216.003 282.334H286.71V285.998H216.024L216.003 282.334ZM216.003 278.649H286.71V282.334H216.024L216.003 278.649ZM216.003 275.006H286.71V278.649H216.024L216.003 275.006Z" fill="#B74D00"/>
<path d="M286.71 297.01H216.003L216.024 300.674H286.71V297.01ZM286.71 297.01V293.325H216.003L216.024 297.01H286.71ZM286.71 289.661H216.003L216.024 293.346H286.71V289.661ZM286.71 289.661V285.998M286.71 289.661H216.024L216.003 285.998H286.71M286.71 285.998V282.334M286.71 285.998H216.024L216.003 282.334H286.71M286.71 282.334V278.649M286.71 282.334H216.024L216.003 278.649H286.71M286.71 278.649V275.006H216.003L216.024 278.649H286.71Z" stroke="black" stroke-width="0.37529"/>
<path fill-rule="evenodd" clip-rule="evenodd" d="M220.208 274.961L246.39 300.629H250.133L223.97 274.982H220.227L220.208 274.961Z" fill="#908F8A" stroke="black" stroke-width="0.654449"/>
<path fill-rule="evenodd" clip-rule="evenodd" d="M220.208 300.639L246.39 274.971H250.133L223.97 300.618H220.227L220.208 300.639Z" fill="#908F8A" stroke="black" stroke-width="0.654449"/>
<path fill-rule="evenodd" clip-rule="evenodd" d="M219.792 274.961V300.629H223.509V274.961H219.792Z" fill="#908F8A" stroke="black" stroke-width="0.646333"/>
<path fill-rule="evenodd" clip-rule="evenodd" d="M253.608 274.961L279.79 300.629H283.533L257.37 274.982H253.627L253.608 274.961Z" fill="#908F8A" stroke="black" stroke-width="0.654449"/>
<path fill-rule="evenodd" clip-rule="evenodd" d="M253.608 300.639L279.79 274.971H283.533L257.37 300.618H253.627L253.608 300.639Z" fill="#908F8A" stroke="black" stroke-width="0.654449"/>
<path fill-rule="evenodd" clip-rule="evenodd" d="M279.292 274.961V300.629H283.009V274.961H279.292Z" fill="#908F8A" stroke="black" stroke-width="0.646333"/>
<path fill-rule="evenodd" clip-rule="evenodd" d="M253.292 274.961V300.629H257.009V274.961H253.292Z" fill="#908F8A" stroke="black" stroke-width="0.646333"/>
<path fill-rule="evenodd" clip-rule="evenodd" d="M245.792 274.961V300.629H249.509V274.961H245.792Z" fill="#908F8A" stroke="black" stroke-width="0.646333"/>
<path fill-rule="evenodd" clip-rule="evenodd" d="M305.72 201.558C305.72 242.478 281.256 275.679 251.16 275.679C221.064 275.679 196.6 242.478 196.6 201.558C196.6 160.638 221.02 127.391 251.16 127.391C281.3 127.391 305.72 160.592 305.72 201.512V201.558ZM297.932 201.558C297.932 237.921 276.988 267.449 251.16 267.449C225.332 267.449 204.388 237.921 204.388 201.558C204.388 165.149 225.332 135.621 251.16 135.621C276.988 135.621 297.932 165.149 297.932 201.558Z" fill="#FFDF00" stroke="black" stroke-width="0.603103"/>
<path fill-rule="evenodd" clip-rule="evenodd" d="M272.412 133.25C265.856 129.483 258.684 127.391 251.16 127.391C243.636 127.391 236.464 129.483 229.908 133.203L232.988 140.829C238.521 137.459 244.796 135.685 251.182 135.685C257.569 135.685 263.843 137.459 269.376 140.829L272.412 133.25Z" fill="#FFDF00" stroke="black" stroke-width="0.603103"/>
<path fill-rule="evenodd" clip-rule="evenodd" d="M272.512 270.15C265.956 273.917 258.784 276.009 251.26 276.009C243.736 276.009 236.564 273.917 230.008 270.197L233.088 262.571C238.621 265.941 244.896 267.715 251.282 267.715C257.669 267.715 263.943 265.941 269.476 262.571L272.512 270.15Z" fill="#FFDF00" stroke="black" stroke-width="0.603103"/>
<path fill-rule="evenodd" clip-rule="evenodd" d="M298 201.5C298 237.9 277 267.4 251.2 267.4C225.3 267.4 204.4 237.9 204.4 201.5C204.4 165.1 225.4 135.6 251.2 135.6C277 135.6 297.9 165.1 297.9 201.5H298Z" fill="#A7CFFF"/>
<path fill-rule="evenodd" clip-rule="evenodd" d="M297.932 201.558C298.416 213.927 295.908 219.972 292.696 232.853C291.86 234.248 287.856 229.83 285.48 227.645C283.104 225.459 282.048 229.598 279.056 226.25C276.108 222.809 274.216 227.18 272.016 224.297C269.816 221.414 249.444 221.042 249.444 220.763C251.468 219.74 261.852 220.856 260.18 215.601C258.288 210.114 246.54 215.415 244.956 208.44C243.856 201.465 221.372 201.186 219.744 199.512C220.404 202.116 237.256 203.232 236.86 209.975C236.464 212.765 220.272 213.555 218.688 215.88C217.368 218.81 231.448 215.09 231.932 218.67C231.932 220.158 229.864 218.67 222.56 220.995C218.864 222.158 229.336 225.785 225.376 227.784C221.416 229.784 212.924 230.667 213.276 231.504C214.596 235.689 232.944 240.618 231.14 241.316C224.628 244.385 221.196 246.384 218.072 248.151C208.918 234.564 204.123 218.236 204.388 201.558C218.336 196.257 215.388 195.141 241.172 195.141C266.956 195.141 275.492 196.211 297.932 201.558Z" fill="#AFFF7B" stroke="black" stroke-width="0.603103"/>
<path fill-rule="evenodd" clip-rule="evenodd" d="M297.932 201.559C294.412 201.559 290.716 203.14 286.932 203.14C283.104 203.14 279.232 201.512 275.272 201.512C271.312 201.512 266.78 203.651 262.732 203.651C258.64 203.651 255.076 201.559 250.984 201.559C246.892 201.559 242.8 203.14 238.752 203.14C234.704 203.14 230.7 201.512 226.784 201.512C222.868 201.512 218.996 203.14 215.256 203.14C211.516 203.14 207.864 201.512 204.388 201.512C204.388 192.445 205.708 183.796 208.084 175.891C219.964 176.821 212.924 168.59 219.964 168.59C222.019 168.472 224.075 168.818 225.994 169.604C227.913 170.389 229.652 171.597 231.096 173.147C232.152 173.147 237.432 167.846 243.372 168.59C249.268 169.334 247.112 181.285 254.988 181.889C258.948 185.051 261.28 187.051 266.736 188.353C274.524 189.097 296.832 187.19 296.964 188.26C297.606 192.66 297.93 197.106 297.932 201.559Z" fill="white" stroke="black" stroke-width="0.603103"/>
<path fill-rule="evenodd" clip-rule="evenodd" d="M259.234 241.662C259.234 239.593 261.327 238.213 261.327 234.91C261.327 231.607 259.467 231.534 259.405 228.449C259.374 227.178 261.001 225.908 261.714 225.763C262.427 225.617 263.032 228.449 263.032 229.066C263.032 229.683 262.303 227.541 261.699 227.505C261.094 227.469 259.792 227.723 259.792 228.34C259.792 229.574 262.086 231.099 261.916 235.237C261.745 239.302 259.947 240.537 259.947 241.771C259.947 243.005 260.722 246.417 260.722 246.417C260.722 246.417 259.219 243.695 259.219 241.626L259.234 241.662Z" fill="black" stroke="black" stroke-width="0.31627"/>
<path fill-rule="evenodd" clip-rule="evenodd" d="M261.266 241.362C261.266 239.293 259.173 237.914 259.173 234.61C259.173 231.307 261.033 231.234 261.095 228.149C261.25 226.697 259.266 225.753 258.553 225.644C257.84 225.535 257.003 228.548 257.003 229.129C257.003 229.71 257.84 227.241 258.445 227.205C259.049 227.169 260.708 227.423 260.708 228.04C260.708 229.274 258.414 230.799 258.584 234.937C258.755 239.003 260.553 240.237 260.553 241.471C260.553 242.705 259.778 246.117 259.778 246.117C259.778 246.117 261.281 243.395 261.281 241.326L261.266 241.362Z" fill="black" stroke="black" stroke-width="0.31627"/>
<path fill-rule="evenodd" clip-rule="evenodd" d="M261.3 224.5C261.3 225.5 260.8 226.4 260.3 226.4C259.6 226.4 259.1 225.6 259.1 224.5C259.1 223.4 259.6 222.7 260.2 222.7C260.8 222.7 261.3 223.5 261.3 224.5ZM275.4 230H275.8V244.7H275.4V230ZM278.6 228.8H279V243.6H278.6V228.8Z" fill="black"/>
<path fill-rule="evenodd" clip-rule="evenodd" d="M276.1 237V236.5L279.1 237.1V237.4L276.1 237Z" fill="black"/>
<path fill-rule="evenodd" clip-rule="evenodd" d="M234.112 239.77C234.112 239.77 245.552 245.071 248.06 248.233C250.524 251.395 249.556 251.395 249.556 251.395L274.944 252.464C274.944 250.883 279.432 250.883 280.444 247.163C281.456 243.49 281.456 242.42 281.456 242.42L273.492 245.071L273.932 240.328H266.98L265.968 245.071L251.008 244.559L252.02 231.865L249.028 232.376L248.588 244.466C248.06 244.466 234.596 240.793 234.068 239.77H234.112Z" fill="#B74D00" stroke="black" stroke-width="0.603103"/>
<path fill-rule="evenodd" clip-rule="evenodd" d="M211.12 164.079C211.12 164.079 227.708 158.871 251.644 159.243C275.58 159.615 292.168 165.195 291.816 165.195C291.464 165.195 287.24 156.639 287.24 156.639C287.24 156.639 270.344 151.757 251.292 151.385C232.284 151.013 215.696 155.105 216.092 155.477L211.12 164.079Z" fill="#FEDE00" stroke="#FEDE00" stroke-width="0.603103"/>
<path fill-rule="evenodd" clip-rule="evenodd" d="M241 152.8L251.3 152.6V158.6L241.1 158.8L241 152.8ZM217.4 156.1L213.8 162L226 160.5L225 154.5L217.4 156.1ZM227.8 153.8L238 152.9L238.5 158.9L228.3 159.8L227.8 153.8ZM264.7 153.2L254.5 152.5L254.1 158.5L264.3 159.2L264.7 153.2ZM286.7 157L290.4 164.3L279.4 161.5L280.6 155.7L286.7 157ZM277.8 154.8L267.7 153.5L267 159.4L277.1 160.7L277.8 154.8Z" fill="#38A9F9"/>
<path fill-rule="evenodd" clip-rule="evenodd" d="M251.644 167.427L250.544 161.15L247.2 166.497L248.432 160.22L243.46 163.8L246.804 158.546L240.908 159.848L245.968 156.314L240.028 155.151L245.968 153.942L240.908 150.408L246.804 151.71L243.416 146.456L248.432 150.036L247.2 143.759L250.544 149.106L251.644 142.829L252.788 149.106L256.088 143.759L254.9 150.036L259.872 146.456L256.484 151.71L262.424 150.408L257.364 153.942L263.304 155.151L257.364 156.314L262.424 159.848L256.484 158.546L259.872 163.8L254.9 160.22L256.132 166.497L252.788 161.15L251.644 167.427Z" fill="#FFDF00" stroke="black" stroke-width="0.603103"/>
<path fill-rule="evenodd" clip-rule="evenodd" d="M259.01 155.033C259.01 158.642 256.172 161.552 252.646 161.552C249.12 161.552 246.282 158.642 246.282 155.033C246.282 151.425 249.12 148.476 252.646 148.476C256.172 148.476 259.01 151.425 259.01 155.072V155.033Z" fill="#FFDF00" stroke="black" stroke-width="0.544614"/>
<path fill-rule="evenodd" clip-rule="evenodd" d="M252 153.4C252 153.8 251.1 154.1 250 154.1C248.9 154.1 247.8 153.8 247.8 153.4C247.8 153 248.8 152.6 249.9 152.6C251 152.6 252.1 153 252.1 153.4H252ZM256.7 153.4C256.7 153.8 255.9 154.1 255.1 154.1C254.3 154.1 253.5 153.8 253.5 153.4C253.5 153 254.2 152.6 255.1 152.6C256 152.6 256.6 153 256.6 153.4H256.7Z" fill="black"/>
<path d="M251.074 155.983L251.512 156.234C250.458 155.593 250.939 155.831 252.589 157.45C253.542 156.91 253.725 156.416 254.319 155.746" stroke="black" stroke-width="0.604054"/>
<path d="M248.832 158.499L249.184 158.871C248.348 157.941 248.744 158.406 250.592 159.615C252.352 159.848 254.156 159.057 255.212 157.755" stroke="black" stroke-width="0.603103"/>
<path fill-rule="evenodd" clip-rule="evenodd" d="M223.5 170.7C223.5 170.7 224.2 176.7 219.5 184.2C215 191.6 215.7 189 215.7 189C215.7 189 217.8 193 217.5 193C217.2 193 213.9 189.4 213.9 189.4L210.1 193.4C210.1 193.4 213.6 187.1 213.2 187.1C212.8 187.1 212.2 184.9 212.2 184.9L215 183.8C215 183.8 219.2 176 219.2 176.3C219.2 176.6 206.5 184.9 206.5 184.9L223.5 170.7ZM226.3 173C225.9 173 228 179 229.8 182C230.9 184.032 231.516 186.291 231.6 188.6L237.6 191.6L229.8 180.1L234.8 181.9L226.3 173ZM226.3 188.6C226.3 188.6 230.5 193.1 230.9 194.6C231.3 196.1 231.2 199.4 231.2 199.4L229.5 195.7L227 199.1C227 199.1 228.8 193.8 228.4 193.5C228 193.2 225.6 195.3 225.6 195.3L226.6 192C226.6 191.7 226.6 189.7 226.3 188.6ZM205 199.1C206.4 197.9 209.3 197.1 209.3 197.1C209.3 197.1 207.5 200.1 207.1 200.1C206.7 200.1 205.7 200.1 205.1 199.1H205ZM253.7 182.7C253.7 182.7 262.8 188.3 262.8 188.7C262.8 189.1 256.8 186 256.8 186L253.7 182.7ZM237.2 171C237.9 171.4 250.6 181.8 250.2 181.8C249.8 181.8 244.6 178.8 244.6 179.2V181.8L241.8 175.8L241.1 178.1L237.2 171.1V171ZM240.4 187.8L243.9 194.8L247.4 194.1C247.4 194.1 240.7 187.8 240.4 187.8ZM251.4 183.3L251.7 190C251.7 190 253.7 191.9 253.7 191.5C253.7 191.1 251.7 183.7 251.3 183.3H251.4Z" fill="#B7E1FF"/>
<path fill-rule="evenodd" clip-rule="evenodd" d="M147.8 92.2001C147.8 92.2001 163.7 83.5001 181.8 76.9001C195.038 72.0518 208.696 68.4365 222.6 66.1001C228 66.1001 237.1 79.5001 238.6 79.5001C240.2 79.5001 246.3 75.8001 253.9 75.8001C261.5 75.8001 266.1 81.8001 267.7 81.8001H281.4C282.9 81.8001 276.8 66.8001 281.4 67.6001C283.7 68.0001 303.2 71.0001 321.3 76.8001C339.4 82.8001 365.1 93.1001 365.1 93.1001C365.1 93.1001 323.1 98.7001 311.9 97.1001C310.4 97.8001 311.9 106.9 309.7 102.9C306.2 102.1 293.3 100.1 291 100.1C288.7 100.1 284.5 102.7 278.4 104.1C273.776 105.279 269.175 106.545 264.6 107.9L274.6 123.5L262.3 129.5C262.3 129.5 254.7 111.6 251.6 111.6C248.5 111.6 247.1 124.3 243.2 123.6C239.4 122.8 237.9 111.6 234.9 108.6C231.8 105.6 215.7 104.6 209.6 103.1C203.5 101.6 193.6 100.4 188.3 98.9001C183 97.4001 177.6 102.7 175.3 102.7C173 102.7 178.3 98.2001 176.1 97.4001C173.9 96.6001 172.3 99.7001 170.7 99.7001C169.2 99.7001 153.2 96.7001 151.7 95.9001C150.1 95.2001 155.5 92.2001 154 92.2001H147.8Z" fill="#984000"/>
<path fill-rule="evenodd" clip-rule="evenodd" d="M261.195 84.5001C261.195 88.7401 257.796 92.1801 253.621 92.1801C249.447 92.1801 246.064 88.7401 246.064 84.5001C246.064 80.2601 249.447 76.8401 253.621 76.8401C257.796 76.8401 261.195 80.2801 261.195 84.5001Z" fill="#808080" stroke="#772600" stroke-width="0.672138"/>
<path fill-rule="evenodd" clip-rule="evenodd" d="M223.648 86.2C225.029 84.616 226.738 82.216 231.209 82.216C232.239 81.808 232.239 79.408 234.628 79.408C237.038 79.408 236.338 81.808 238.068 82.624C239.778 83.416 253.848 81.808 253.848 81.808C253.848 81.808 255.208 83.008 255.208 84.616C255.208 86.224 254.178 87.4 253.848 87.4C253.518 87.4 239.778 86.2 238.748 86.608C237.718 87.016 237.038 87.4 234.628 87.4C232.239 87.4 231.538 84.616 229.828 84.616C228.119 84.616 226.409 84.208 223.648 86.224V86.2Z" fill="#984000" stroke="#772600" stroke-width="1.17846"/>
<path d="M265.507 85.4161H270.987C272.965 85.4401 273.644 86.1361 275.457 86.2081H280.257C282.008 86.1361 282.935 85.6561 284.707 85.4161C287.694 85.3681 286.684 85.1041 286.087 83.0161C285.551 81.4561 285.469 80.7121 284.707 79.8241C284.418 77.9041 283.759 77.2321 283.677 75.0241C283.368 73.3441 282.791 72.2161 283.347 70.2241C284.13 71.5921 284.439 72.1441 286.437 72.2401C288.497 72.2401 289.3 72.1681 290.557 73.0321C291.505 74.2081 292.782 73.8241 294.677 73.8241C296.243 74.1601 296.51 75.0961 297.746 75.8161C299.209 76.7761 300.157 77.0161 302.196 77.0161C303.844 77.3761 305.286 77.6401 306.316 78.2161C307.202 79.4401 308.582 79.7521 310.436 79.8241C311.466 79.8241 312.29 79.7041 313.176 79.4161C314.762 79.5121 316.369 79.4161 318.326 79.4161C319.603 81.1441 319.891 81.7921 322.096 81.8161C323.62 83.0641 324.897 83.2561 326.216 83.8081H331.366C333.22 83.9761 333.796 84.8641 335.486 85.4161C336.935 86.1792 338.42 86.8443 339.935 87.4081C341.41 87.7192 342.907 87.8559 344.405 87.8161C345.662 88.5841 347.207 88.6321 348.175 89.4001C349.597 89.7601 351.533 90.1921 352.625 90.6001C354.438 90.8881 355.138 91.5601 356.745 91.8001C358.125 92.2801 356.292 92.6641 355.365 93.0001C353.346 92.9281 353.202 92.0401 351.245 91.8001C350.215 91.1041 348.649 91.2001 347.125 90.6001H346.795C348.155 91.5601 349.473 92.1601 348.855 93.8161C347.104 93.8161 345.683 93.5521 344.055 93.4081C342.325 93.0241 341.542 92.6161 339.606 92.6161C341.542 92.0641 342.036 92.6641 343.375 93.4081C343.87 95.3281 342.799 94.6081 340.965 94.6081C339.4 93.9601 338.452 93.1681 336.516 93.0001H332.396C334.435 93.0961 334.868 93.9841 336.165 95.0161C336.268 95.6401 336.145 95.5921 335.135 95.8081C334.064 94.7281 332.684 94.3681 331.015 93.8161C329.388 93.7441 327.678 93.5761 326.216 93.0001C325.206 92.9281 325.371 91.5361 327.596 93.8161C328.935 94.7281 329.409 95.4961 329.306 96.2161C327.534 95.6881 326.669 94.8721 325.536 94.2001C323.995 93.5775 322.365 93.3085 320.736 93.4081C318.964 92.8561 320.921 92.5441 322.096 94.6081C324.65 96.7201 321.766 95.8081 320.736 95.4001C319.191 94.8961 317.584 94.1521 316.266 93.8161C315.236 93.4561 314.329 93.1201 313.176 93.0001C314.968 93.1921 315.565 93.9361 316.266 95.4001C318.079 96.8401 316.183 96.1441 314.556 95.8081C313.526 94.7521 312.187 94.2001 311.466 93.0001C309.756 92.0161 309.694 90.8401 310.786 93.4081C311.054 94.2241 310.992 96.0001 311.116 96.2161C309.859 94.6081 310.127 94.2001 308.726 94.2001C307.758 93.4321 306.357 92.8321 305.636 91.8001C304.318 91.6561 304.235 91.1041 302.896 90.6001C303.988 92.1121 305.451 93.6001 306.316 95.0161C307.882 96.0241 308.314 96.9361 309.406 97.8001C309.839 98.6881 311.054 99.4081 309.756 98.2081C308.273 96.5281 307.181 96.1201 304.956 95.0161C303.679 93.8161 303.226 93.3361 301.866 92.2081C300.012 91.5121 300.733 91.1281 301.866 93.4081C303.164 94.8001 304.153 96.3361 305.286 97.4161C306.174 98.6526 307.216 99.7284 308.376 100.608C308.685 101.136 309.612 101.232 308.376 101.4C307.346 100.296 305.822 99.6001 304.606 98.5921C302.896 98.0401 302.093 97.0081 300.836 95.8081C300.012 94.3921 298.694 93.3121 297.746 92.2081C295.769 91.2961 298.138 93.0721 298.776 94.2001C299.209 95.6641 299.765 96.8401 300.136 98.2081C300.713 99.5281 298.406 97.8961 297.746 97.4161C296.391 96.3932 294.869 95.7069 293.276 95.4001C291.911 95.0818 290.537 94.8176 289.156 94.6081C287.611 94.1281 290.001 95.7601 290.887 97.4161C292.617 99.3121 289.177 97.7521 288.147 97.4161C286.446 97.0795 284.721 96.9428 282.997 97.0081C280.793 97.1521 282.379 97.4881 282.997 98.5921C283.677 99.2161 284.15 100.512 284.027 100.992C282.585 100.752 281.349 100.272 279.557 100.2C278.115 100.752 276.405 100.608 274.757 100.608C274.695 101.616 275.066 100.752 275.787 101.808C276.982 102.36 277.764 103.032 277.517 103.8H267.567C266.476 104.136 267.794 103.968 268.597 105.408C268.144 106.704 267.567 106.2 266.187 106.2C265.26 105.768 263.386 105.576 262.417 105C261.449 105 261.532 104.712 260.708 104.592C263.592 106.992 262.15 106.392 263.798 108.192C264.065 108.312 264.725 108.6 264.127 108.6M241.488 121.392C241.282 121.392 240.829 120.096 240.128 118.992C239.634 117.552 239.016 118.368 238.398 116.184C238.48 113.928 238.542 113.544 238.398 111.384C236.997 110.232 236.4 109.896 235.308 107.784C233.577 106.104 235.576 103.224 235.905 101.112C234.381 100.728 233.639 103.872 231.311 105C229.622 106.32 231.105 102.264 230.281 99.9121C229.725 96.5761 228.057 101.592 227.439 103.008C226.306 103.896 225.955 105.048 224.349 103.392C224.349 102.168 225.358 98.7121 224.925 98.0401C223.319 98.9761 221.217 101.76 219.549 102.192C217.86 101.784 219.899 98.6401 219.899 96.3121C219.281 96.0721 216.871 102.504 215.882 102.552C214.893 102.6 215.326 96.3121 214.852 96.4561C214.131 97.6561 212.668 100.152 211.659 101.016C209.702 100.704 211.947 96.8161 212.236 95.3761C212.565 93.6481 210.402 98.6881 209.249 99.0001C208.404 99.8641 206.736 100.44 206.159 100.608C206.818 99.1201 210.073 96.1201 209.867 95.2561C207.951 95.3281 205.046 98.2561 203.419 98.6161C202.348 98.6161 200.865 99.0241 200.679 99.0001C200.762 97.0801 204.676 95.4961 205.294 94.3201C203.378 94.6801 199.69 96.6481 198.619 98.2081C197.342 98.5201 195.735 98.9281 194.499 98.2081C194.685 96.4081 197.569 92.9281 198.207 91.7761C196.456 92.6641 195.591 93.3601 193.737 93.7681C193.387 94.1761 192.398 95.0401 192.707 94.1761C193.263 92.4961 194.087 91.7761 194.767 90.5761C193.222 90.9121 192.645 91.9441 190.997 92.9761C189.947 93.0241 186.939 96.5521 185.93 96.6001C184.221 98.1691 182.227 99.2611 180.1 99.7921C178.534 100.128 177.772 100.512 177.01 101.4C177.793 99.7921 178.987 98.2801 180.1 97.4161C180.779 95.9593 181.871 94.8225 183.19 94.2001C183.581 93.6481 184.652 93.5041 183.519 93.4081C182.551 94.4161 180.903 95.5681 180.1 96.2161C179.049 96.9841 177.834 97.7521 177.339 97.4161C177.896 95.6881 178.884 95.2561 179.75 93.8161C181.562 92.4721 179.75 93.3361 178.369 93.8161C177.484 94.7281 175.897 95.4241 174.6 96.2161C173.158 96.6481 172.189 97.6561 170.48 98.2081C170.48 98.7841 170.974 97.1761 171.18 96.6001C172.581 94.8241 172.952 94.3201 174.6 93.8161C175.012 93.1201 175.506 93.4081 174.27 93.4081C173.322 94.3681 172.045 94.8961 170.83 95.8081C169.614 96.1201 168.028 96.2161 166.38 96.2161C164.238 96.5041 164.423 96.6961 166.38 95.4001C167.472 94.2001 168.378 94.5121 168.44 93.0001C167.142 94.1041 165.556 94.9201 163.97 95.8081C162.652 95.8561 162.301 96.2161 160.88 96.2161C161.56 95.4001 161.972 94.3681 162.94 93.8161C164.382 91.9681 162.034 93.4561 161.56 93.8161H156.41C155.503 95.1601 156.369 93.8161 157.11 93.0001C157.996 92.4721 158.923 91.7761 158.82 91.4161C157.79 92.4481 156.616 92.9281 155.73 93.8161C154.782 94.1521 153.67 94.2961 153.67 94.6081C154.432 93.3361 155.648 92.5441 156.43 91.4161C157.584 91.1281 158.573 90.6961 158.82 90.2161H154.02H157.44C159.191 90.2161 160.674 90.0241 162.26 89.8081C164.979 89.2801 162.013 89.0161 160.53 89.0161C160.262 88.3921 161.395 88.0561 162.59 87.8161C163.62 87.2401 164.918 86.7361 166.03 86.2081C167.012 85.8597 167.938 85.3245 168.77 84.6241C167.74 84.6721 167.74 84.9601 166.71 85.0081C168.255 84.8881 169.347 84.6241 171.18 84.6241C172.69 84.0442 174.175 83.3794 175.63 82.6321C176.248 81.7681 176.495 81.8161 174.95 81.8161C176.33 81.3121 178.287 81.0481 179.399 80.6161C180.819 80.2696 182.201 79.7383 183.519 79.0321C184.529 78.2401 185.106 77.3041 186.259 76.6321C187.598 77.6881 187.619 77.8321 190.029 77.8321C191.965 77.8081 193.16 77.2561 194.149 76.2241C195.632 75.7441 195.9 74.9281 197.589 74.6401C199.176 74.9306 200.782 75.0591 202.389 75.0241C204.037 74.5201 205.623 73.5841 206.839 72.6241C207.889 72.0241 209.146 71.1601 210.279 70.6321C211.515 71.3761 212.504 71.9761 214.049 72.2401C215.635 71.9521 216.479 71.0401 217.818 70.6321C218.644 69.6081 219.725 68.9114 220.908 68.6401C222.907 67.4881 222.762 69.0001 223.648 70.2241C224.678 71.4721 225.997 70.8721 227.418 71.4241C228.221 72.8641 228.798 73.8241 229.828 74.6161C230.632 75.7681 231.579 76.0561 233.268 76.2241C233.886 77.1841 233.392 77.8561 234.628 78.2161C235.122 78.8401 235.967 79.0801 236.688 79.4161" stroke="#772600" stroke-width="0.778229"/>
<path d="M261.552 111.192V111.384C261.552 110.832 261.552 111.144 261.902 112.2C262.026 113.064 261.737 112.968 261.387 113.592C261.325 114.48 261.222 115.128 261.222 116.184C261.099 117.048 260.687 117.864 260.357 118.584C260.028 119.328 258.606 119.76 258.647 120.792C257.823 121.056 257.803 120.432 257.782 119.376C257.288 118.728 257.123 117.84 256.752 116.976C256.546 116.16 256.052 115.536 255.722 114.576C255.228 113.688 254.795 113.424 254.363 112.392C254.177 111.912 254.218 111.288 253.848 111C253.291 110.16 252.921 110.04 251.952 109.992C251.211 110.184 250.922 110.568 250.243 110.784C249.707 111 248.677 110.928 248.018 111.192C247.853 111.504 248.347 111.672 248.533 112.392C248.08 112.824 247.915 113.568 247.668 114.192C247.256 114.792 246.988 115.08 246.802 115.992C247.091 116.544 246.844 117.288 246.473 117.792C246.349 118.704 245.958 119.208 245.772 119.976C245.237 120.432 245.031 120.84 244.578 121.584C244.186 122.232 243.836 122.184 242.868 122.184C242.106 121.944 242.003 121.464 241.323 121.176C241.261 120.936 241.199 120.864 240.973 120.792" stroke="#782600" stroke-width="0.689288"/>
<path fill-rule="evenodd" clip-rule="evenodd" d="M242.2 119.4C242.2 119.4 241.9 123.1 239.5 125.6C237.1 128.1 232.1 131 232.1 131C232.1 131 238.8 127.9 239.5 128.5C240.2 129.2 235.2 134.8 235.2 134.8C235.2 134.8 241.7 128.9 242.6 128.9C243.5 128.9 245.3 134.6 246 134.5C246.7 134.4 244.5 127.3 244.8 126.2C245.1 125.1 244.8 119.2 244.8 119.2L242.2 119.4ZM257.7 118.9C257.7 118.9 257.4 122.9 254.9 125.5C252.4 128.1 247.5 131.3 247.5 131.3C247.5 131.3 254.3 127.9 254.9 128.7C255.6 129.4 250.6 135.3 250.6 135.3C250.6 135.3 257.2 129.1 258 129.1C258.8 129.1 260.8 135.1 261.5 135.1C262.2 134.9 259.9 127.3 260.3 126.1C260.6 125 260.3 118.6 260.3 118.6L257.7 118.9ZM236 82.6C236 83.4 235.3 84 234.4 84C233.5 84 232.8 83.4 232.8 82.6C232.8 81.8 233.5 81.3 234.4 81.3C235.3 81.3 236 81.9 236 82.6Z" fill="#812E00"/>
</g>
<defs>
<clipPath id="clip0_2_2586">
<rect width="512" height="512" fill="white"/>
</clipPath>
</defs>
</svg>
