<svg width="512" height="512" viewBox="0 0 512 512" fill="none" xmlns="http://www.w3.org/2000/svg">
<g clip-path="url(#clip0_2_2427)">
<path d="M0 341.3H512V512H0V341.3Z" fill="#000001"/>
<path d="M0 170.7H512V341.3H0V170.7Z" fill="white"/>
<path d="M0 0H512V170.7H0V0Z" fill="#CE1126"/>
<path d="M256.681 258.047L315.134 312.319L310.953 213.759C310.356 198.826 297.385 202.239 287.913 207.615C278.441 213.759 267.433 213.759 255.999 209.749C244.479 213.759 233.556 213.759 224.084 207.615C214.697 202.239 201.641 198.826 201.044 213.759L196.863 312.319L256.681 258.047Z" fill="white" stroke="#C09300" stroke-width="1.10933" stroke-linejoin="round"/>
<path d="M207.785 210.346L203.689 306.175L196.863 312.319L201.044 213.759C203.06 212.213 205.346 211.056 207.785 210.346ZM215.977 217.172L212.564 297.385L205.737 304.383L209.833 211.796C211.199 213.162 215.209 216.49 215.977 217.172ZM223.401 223.316L220.756 290.218L215.209 295.593L218.623 219.306C219.988 220.586 222.719 222.548 223.401 223.316ZM231.508 226.73L228.863 283.732L223.487 288.084L226.132 224.682C227.497 225.279 230.143 226.73 231.508 226.73ZM239.017 226.73L237.055 274.26L231.508 279.636L233.641 227.327C234.921 227.327 238.42 227.327 239.017 226.73Z" fill="#C09300"/>
<path d="M304.212 210.346L308.308 306.175L315.134 312.319L310.953 213.759C308.937 212.213 306.651 211.056 304.212 210.346ZM296.02 217.172L299.433 297.385L306.26 304.383L302.164 211.796C300.798 213.162 296.788 216.49 296.02 217.172ZM288.596 223.316L291.241 290.218L296.788 295.593L293.374 219.306C292.009 220.586 289.278 222.548 288.596 223.316ZM280.489 226.73L283.134 283.732L288.51 288.084L285.865 224.682C284.5 225.279 281.854 226.73 280.489 226.73ZM272.98 226.73L274.942 274.26L280.489 279.636L278.356 227.327C277.076 227.327 273.577 227.327 272.98 226.73Z" fill="#C09300"/>
<path d="M258.729 268.799L266.921 306.175L264.191 308.905L261.375 306.772L256.767 273.492L258.729 306.772L255.999 310.185L253.353 306.772L255.316 273.492L250.623 306.772L247.807 308.905L245.076 306.175L253.268 268.884H258.729V268.799Z" fill="#C09300" stroke="#C09300" stroke-width="0.938663"/>
<path d="M237.652 252.415L221.353 310.185L243.796 313.599L253.268 270.164L237.652 252.415Z" fill="white" stroke="#C09300" stroke-width="1.024" stroke-linejoin="round"/>
<path d="M232.276 272.212L234.239 276.906L244.82 266.836" stroke="#C09300" stroke-width="1.10933" stroke-linejoin="round"/>
<path d="M239.615 260.266L241.833 281.002L248.575 272.127M245.844 275.54L249.513 288.34M250.964 283.647L243.54 294.911M245.844 306.175L243.455 294.911M243.455 294.911L241.407 283.476L236.372 290.218L234.239 282.452L227.241 289.62L230.74 302.591L235.689 294.57L238.335 302.761L243.455 294.911Z" stroke="#C09300" stroke-width="1.10933" stroke-linejoin="round"/>
<path d="M226.132 308.905L230.655 302.505L233.556 312.319L237.652 305.492L240.297 313.684" stroke="#C09300" stroke-width="1.10933" stroke-linejoin="round"/>
<path d="M274.345 252.415L290.644 310.185L268.201 313.599L258.729 270.164L274.345 252.415Z" fill="white" stroke="#C09300" stroke-width="1.024" stroke-linejoin="round"/>
<path d="M279.721 272.212L277.759 276.906L267.177 266.836" stroke="#C09300" stroke-width="1.10933" stroke-linejoin="round"/>
<path d="M272.383 260.266L270.164 281.002L263.423 272.127M266.153 275.54L262.484 288.34M261.033 283.647L268.457 294.911M266.153 306.175L268.543 294.911M268.543 294.911L270.591 283.476L275.625 290.218L277.759 282.452L284.756 289.62L281.257 302.591L276.308 294.57L273.663 302.761L268.543 294.911Z" stroke="#C09300" stroke-width="1.10933" stroke-linejoin="round"/>
<path d="M285.865 308.905L281.342 302.505L278.441 312.319L274.345 305.492L271.7 313.684" stroke="#C09300" stroke-width="1.10933" stroke-linejoin="round"/>
<path d="M255.999 336.041C273.065 336.041 289.278 334.676 298.836 332.031C302.846 331.263 302.846 329.215 302.846 326.484C306.942 325.119 304.894 320.34 307.71 320.34C304.809 321.193 304.297 315.647 300.884 316.329C300.884 311.551 296.02 310.953 292.009 312.319C283.902 314.964 269.566 315.647 255.999 315.647C242.345 314.964 228.18 314.964 219.988 312.233C215.977 310.953 211.199 311.551 211.199 316.329C207.785 315.647 207.188 321.108 204.372 320.34C207.188 320.34 205.055 325.204 209.151 326.484C209.151 329.215 209.151 331.263 213.247 332.031C222.633 334.676 239.017 336.041 255.999 336.041Z" fill="white" stroke="#C09300" stroke-width="2.04799" stroke-linecap="round" stroke-linejoin="round"/>
<path d="M232.873 310.185C238.335 310.953 244.479 311.551 249.257 310.953C251.988 310.953 253.951 315.647 248.489 316.329C243.796 316.927 236.287 316.329 232.276 315.647C226.998 314.723 221.76 313.584 216.575 312.233C211.796 310.185 215.209 306.26 217.94 306.772C222.812 308.333 227.807 309.475 232.873 310.185ZM279.124 310.185C273.662 310.953 267.518 311.551 262.911 310.953C260.009 310.953 258.047 315.647 263.508 316.329C268.286 316.927 275.71 316.329 279.721 315.647C283.134 314.964 290.644 313.684 295.422 312.233C300.201 310.185 296.788 306.26 294.057 306.772C289.186 308.333 284.19 309.475 279.124 310.185Z" fill="white" stroke="#C09300" stroke-width="1.10933" stroke-linecap="round" stroke-linejoin="round"/>
<path d="M215.892 307.54C211.796 306.772 209.919 311.551 211.199 314.281C211.796 312.916 214.612 312.916 215.209 311.551C215.977 309.503 214.612 309.503 215.977 307.54H215.892ZM232.276 320.084C232.276 317.353 234.921 317.695 234.921 314.964C234.921 313.684 234.239 311.551 232.873 311.551C232.162 311.591 231.491 311.892 230.988 312.396C230.484 312.899 230.183 313.57 230.143 314.281C229.545 316.927 232.276 317.353 232.276 320.084ZM251.646 312.319C255.657 312.319 255.23 317.695 253.353 320.425C253.353 318.463 249.94 317.695 249.94 316.329C249.94 314.281 253.012 314.281 251.646 312.319ZM296.02 307.54C300.201 306.772 302.164 311.551 300.798 314.281C300.201 312.916 297.385 312.916 296.788 311.551C296.02 309.503 297.385 309.503 296.02 307.54ZM279.892 319.999C279.892 317.268 277.161 317.609 277.161 314.879C277.161 313.599 277.844 311.465 279.209 311.465C279.92 311.506 280.591 311.807 281.095 312.31C281.598 312.814 281.899 313.485 281.94 314.196C282.537 316.841 279.806 317.268 279.806 319.999H279.892ZM260.265 312.319C256.254 312.319 256.681 317.695 258.558 320.425C258.558 318.463 261.972 317.695 261.972 316.329C261.972 314.281 258.9 314.281 260.265 312.319Z" fill="white" stroke="#C09300" stroke-width="1.10933" stroke-linecap="round" stroke-linejoin="round"/>
<path d="M217.343 308.906C218.708 308.906 220.756 309.503 221.353 310.271L217.343 308.906ZM224.084 310.954C224.767 310.954 227.497 311.551 228.777 312.319L224.084 310.954ZM248.489 313.684C247.209 313.684 244.479 313.684 243.796 314.281L248.489 313.599V313.684ZM241.065 313.684C240.297 312.916 237.652 312.916 236.287 313.684H241.065ZM294.654 308.906C293.206 308.924 291.802 309.402 290.644 310.271L294.654 308.906ZM287.998 310.954C287.145 310.954 284.585 311.551 283.22 312.319L287.998 310.954ZM263.508 313.684C264.788 313.684 267.518 313.684 268.286 314.281L263.508 313.599V313.684ZM270.932 313.684C271.7 312.916 274.345 312.916 275.71 313.684H270.932Z" fill="white" stroke="#C09300" stroke-width="0.767997" stroke-linecap="round" stroke-linejoin="round"/>
<path d="M216.148 319.657C215.721 319.572 215.465 319.145 215.636 318.804C215.721 318.207 216.148 317.951 216.489 318.121C216.831 318.121 217.257 318.633 217.257 318.804L216.916 319.401L216.745 319.487C216.745 319.657 216.404 319.657 216.148 319.657ZM263.081 322.985C262.911 322.985 262.569 322.559 262.569 322.388C262.569 322.047 263.081 321.535 263.423 321.535L264.105 321.876C264.361 322.132 264.361 322.644 264.02 322.9C263.849 323.071 263.337 323.071 263.081 322.9V322.985ZM263.337 325.119C262.996 324.948 262.911 324.777 262.825 324.436C262.825 324.009 262.825 323.924 263.252 323.668L263.593 323.497L263.935 323.668C264.276 323.839 264.532 324.009 264.532 324.351C264.532 324.607 264.276 324.863 263.935 325.033C263.679 325.204 263.593 325.204 263.337 325.033V325.119Z" fill="#C09300"/>
<path d="M219.988 315.732C219.647 315.732 219.22 316.074 218.964 316.244C218.452 316.33 217.769 316.671 217.257 316.244C216.745 316.159 216.063 316.244 215.977 316.927C216.063 317.524 216.831 317.78 217.343 317.439C217.684 317.012 218.623 316.671 218.793 317.439C218.367 318.122 218.452 318.889 218.111 319.487C218.111 319.913 217.855 320.255 217.684 320.596C217.257 320.596 216.831 320.596 216.489 320.852C216.224 320.852 215.963 320.914 215.726 321.032C215.489 321.151 215.283 321.323 215.124 321.535C214.783 322.047 214.441 322.559 214.356 323.241C214.441 323.753 215.209 323.924 215.721 324.009L217.428 324.521L220.159 325.289C221.524 325.716 222.889 325.887 224.255 326.228L224.681 326.313C225.279 326.484 225.535 325.887 225.535 325.46L226.388 322.388C226.559 321.961 226.815 321.108 226.047 321.279C225.62 321.535 225.193 321.961 224.681 321.961C223.913 321.961 224.34 322.815 224.681 323.071C224.681 323.583 224.511 324.18 224.255 324.607C223.743 324.863 223.231 324.607 222.719 324.436C222.292 324.436 221.268 324.18 221.695 323.583L222.121 322.047C222.377 321.535 222.377 320.937 222.548 320.34C222.207 319.743 221.695 320.596 221.268 320.681C220.927 320.852 219.903 320.937 220.415 321.535C220.927 321.876 220.585 322.473 220.415 322.985C220.415 323.583 219.732 323.839 219.22 323.583C218.708 323.583 217.94 323.156 218.367 322.644L218.793 321.108L219.391 319.401C219.391 318.804 219.647 318.378 219.903 317.866C219.903 317.268 220.329 316.756 220.329 316.159C220.329 315.903 220.159 315.818 219.988 315.818V315.732ZM216.831 321.961C216.87 321.939 216.914 321.927 216.959 321.927C217.004 321.927 217.048 321.939 217.087 321.961C217.257 322.132 217.257 322.303 217.087 322.473L216.831 322.644C216.404 322.644 216.319 322.559 216.319 322.388C216.319 322.303 216.319 322.217 216.575 322.132C216.679 322.057 216.794 322 216.916 321.961H216.831ZM215.977 326.228C215.551 325.887 215.636 325.631 216.233 325.119C216.575 324.948 216.66 324.948 217.001 325.204C217.513 325.631 217.513 325.887 217.001 326.313C216.831 326.484 216.745 326.484 216.575 326.484C216.319 326.484 216.233 326.484 215.977 326.313V326.228ZM218.537 327.081C218.347 327.022 218.187 326.891 218.091 326.716C217.996 326.541 217.972 326.335 218.025 326.143C218.196 325.801 218.281 325.716 218.793 325.716C219.391 325.716 219.476 325.801 219.561 326.313C219.561 326.655 219.561 326.74 219.305 326.911C219.21 326.986 219.1 327.04 218.982 327.07C218.865 327.099 218.742 327.103 218.623 327.081H218.537ZM294.654 327.081C294.484 326.996 294.398 326.911 294.398 326.655C294.398 326.313 294.569 326.057 295.081 325.887C295.593 325.631 295.934 325.631 296.105 326.057C296.361 326.569 296.361 326.74 296.02 327.081C295.849 327.337 295.764 327.337 295.337 327.337C294.91 327.337 294.825 327.337 294.654 327.167V327.081ZM222.121 328.105C221.78 328.105 221.609 327.764 221.609 327.423C221.609 327.167 221.609 327.081 221.78 326.911L222.292 326.74L222.804 326.825C223.231 327.167 223.316 327.508 223.06 327.849C222.804 328.191 222.548 328.191 222.036 328.105H222.121ZM240.724 328.959L240.553 328.703C240.553 328.191 240.553 327.764 240.724 327.252C240.809 326.825 240.724 326.399 240.895 325.972L241.236 323.583C241.236 323.156 241.236 322.729 241.407 322.388C241.492 321.705 241.407 321.108 241.577 320.511C241.577 320.255 241.833 319.657 242.089 319.999C242.431 320.511 242.857 320.852 243.284 321.279C243.625 321.535 243.284 321.876 243.028 321.961C242.687 322.047 242.601 322.473 242.601 322.815L242.431 323.839C242.431 324.436 242.431 324.948 242.26 325.545L242.175 327.081L242.004 328.105C242.004 328.447 242.004 328.873 241.663 329.044C241.407 329.215 240.98 329.215 240.809 328.959H240.724ZM266.068 320.596L264.959 321.62C264.447 322.047 265.385 322.217 265.471 322.559C265.641 323.071 265.641 323.583 265.641 324.095C265.812 324.607 265.897 325.033 265.812 325.545C265.812 326.143 265.129 325.972 264.788 326.313C264.361 326.484 264.191 326.911 263.935 327.167C263.732 327.595 263.616 328.059 263.593 328.532C263.593 328.959 263.337 329.385 263.593 329.727L263.679 329.897H264.105L265.385 329.812C266.409 329.641 267.519 329.641 268.543 329.556L270.42 329.385C270.932 329.471 271.188 328.959 271.188 328.532C270.847 327.935 271.103 327.337 270.847 326.825C270.676 326.143 270.761 325.545 270.676 324.948C270.676 324.436 270.079 324.265 269.823 324.607C269.481 324.948 268.969 325.033 268.799 325.375C268.543 325.887 269.311 325.887 269.481 326.228L269.567 327.508C269.652 328.02 269.14 328.02 268.713 328.105C268.287 328.276 267.689 328.361 267.433 327.849C267.263 327.423 267.263 326.996 267.263 326.569C267.263 325.716 267.007 325.033 267.007 324.265C267.007 323.412 266.751 322.473 266.751 321.535C266.751 321.108 266.665 320.511 266.068 320.596ZM265.556 327.593H265.812V328.276L265.556 328.361C265.444 328.397 265.33 328.425 265.215 328.447C265.158 328.449 265.101 328.449 265.044 328.447C264.873 328.276 264.873 328.02 265.129 327.764L265.556 327.593ZM239.956 319.743C239.7 319.743 239.273 320.34 238.932 320.255C238.164 320.34 238.249 321.108 238.847 321.364V322.047C238.932 322.729 238.505 323.327 238.591 324.009C238.591 324.692 238.335 325.46 238.335 326.228C238.079 326.996 238.079 327.764 237.993 328.532C237.908 329.215 237.396 328.959 236.969 328.788V327.935C237.055 327.167 236.543 326.996 235.945 326.911C235.348 326.911 235.092 326.484 235.263 325.972C235.519 325.631 236.116 325.716 236.543 325.716C237.396 325.887 237.311 324.777 236.884 324.351C236.543 323.839 235.86 323.497 235.689 322.985C235.689 322.303 235.263 321.535 234.665 321.193C233.727 321.108 232.959 321.876 232.703 322.729C232.276 322.729 231.849 322.9 231.508 323.071C230.911 323.241 230.057 324.265 230.911 324.692C231.337 324.777 232.788 325.119 232.105 325.716C231.764 326.399 231.081 326.399 230.484 326.228C229.887 326.228 229.204 325.887 229.204 325.204C229.119 324.521 229.119 323.839 228.863 323.241C228.692 322.559 227.924 322.729 227.839 323.412C227.241 323.839 227.327 324.607 227.753 325.119C228.009 325.716 227.753 326.484 227.497 326.996C227.327 327.849 226.473 327.849 225.876 328.02C225.62 328.191 224.511 328.02 224.937 328.617C225.577 328.912 226.293 329.002 226.985 328.873C227.668 328.873 228.265 328.276 228.692 327.679C229.119 327.252 229.887 327.508 230.569 327.508C231.167 327.508 231.849 327.935 232.532 327.593C232.703 327.167 233.556 326.313 233.812 327.167C233.812 327.935 234.409 328.276 235.092 328.191C235.86 328.191 235.519 328.703 235.519 329.215C235.519 329.983 236.116 330.409 236.799 330.751H237.481C238.079 330.495 238.761 330.239 239.017 329.556C239.273 328.959 239.273 328.276 239.444 327.679C239.615 326.74 239.785 325.716 239.785 324.777C240.041 323.924 239.956 322.985 240.127 322.047L240.383 320.084C240.383 319.658 240.212 319.658 239.956 319.743ZM234.239 323.241C234.324 323.241 234.409 323.412 234.409 323.668C234.409 324.009 234.58 324.265 234.836 324.351V324.607L234.153 324.777C233.727 324.777 233.385 324.607 233.129 324.351L232.959 324.18L233.215 324.009L233.641 323.583C233.897 323.327 234.068 323.241 234.239 323.241ZM290.558 316.5C290.067 316.535 289.581 316.621 289.108 316.756C288.254 316.756 287.828 317.609 288.681 318.121C289.193 319.401 289.961 317.78 290.814 317.951C292.009 318.122 292.094 319.487 292.35 320.511C292.35 321.449 292.692 322.388 292.948 323.327C293.801 324.265 292.35 324.863 291.753 324.18C291.241 323.583 290.046 322.9 289.449 323.668C288.681 324.009 288.596 325.033 287.998 325.375C286.974 325.631 286.889 324.351 286.292 323.839C285.78 323.071 284.841 322.985 284.073 322.815C283.732 322.047 283.902 320.767 283.22 320.255C282.537 320.511 281.342 321.705 282.366 322.303C283.22 323.156 281.94 323.497 281.513 324.009C280.83 324.777 280.66 325.716 280.66 326.569C279.55 327.167 279.38 325.887 279.209 325.119C279.209 324.18 278.356 324.436 277.758 324.777C276.905 325.119 276.564 325.887 276.052 326.484V328.191C276.222 328.959 277.076 328.617 277.588 328.532C278.441 328.191 278.782 329.129 278.1 329.641C277.588 330.153 276.222 329.897 276.393 330.836H277.758C278.612 330.58 279.636 329.897 279.721 328.873C279.892 328.02 281.172 328.105 281.854 327.935C282.708 327.679 283.817 327.593 284.073 328.788C284.67 329.385 285.95 330.068 286.633 329.215C286.958 329.009 287.219 328.716 287.385 328.368C287.551 328.021 287.615 327.634 287.572 327.252C287.486 326.569 288.681 326.569 289.022 326.996C289.449 327.679 290.814 327.508 291.497 326.996C292.18 326.569 292.35 325.631 293.374 325.631L297.982 324.351C299.177 324.095 297.812 323.327 297.47 322.815C296.617 322.388 295.764 324.265 294.74 323.327C293.886 322.729 293.972 321.62 293.716 320.681C293.46 319.487 293.545 318.121 292.692 317.268C292.18 316.671 291.326 316.5 290.558 316.5ZM284.756 324.607C284.841 324.607 285.012 324.607 285.182 324.777C285.524 324.948 285.78 325.289 285.78 325.631C285.78 325.801 285.78 325.801 285.524 325.887L285.097 326.057C284.926 326.057 284.5 325.801 284.5 325.631V325.289C284.329 324.948 284.329 324.948 284.5 324.777L284.756 324.607ZM290.302 324.948C290.644 324.948 290.814 324.948 290.985 325.204C291.07 325.545 290.985 325.716 290.644 325.887L290.217 326.057L289.876 325.801C289.705 325.716 289.62 325.631 289.62 325.46C289.62 325.204 289.961 324.948 290.302 324.863V324.948ZM282.622 324.948C282.793 324.948 282.878 324.948 282.964 325.119C283.134 325.289 283.22 325.375 283.22 325.631V326.143C283.22 326.399 283.22 326.313 282.708 326.313C282.196 326.313 282.11 326.313 282.11 325.801C282.11 325.46 282.11 325.375 282.366 325.204C282.452 325.033 282.622 325.033 282.708 325.033L282.622 324.948ZM278.014 326.228C278.095 326.253 278.168 326.297 278.228 326.356C278.287 326.416 278.331 326.489 278.356 326.569C278.356 326.825 278.356 326.996 278.185 327.081C277.929 327.167 277.502 327.252 277.332 327.081C277.329 327.053 277.329 327.025 277.332 326.996C277.161 326.911 277.161 326.825 277.332 326.74V326.655L277.503 326.399C277.555 326.316 277.635 326.253 277.728 326.222C277.821 326.191 277.923 326.193 278.014 326.228ZM285.865 327.252L286.292 327.337V327.849H285.268L285.182 327.679C285.182 327.508 285.182 327.423 285.353 327.337L285.865 327.252ZM271.273 331.348C271.188 331.348 271.017 331.263 271.188 331.177C271.273 330.921 271.615 330.836 271.871 330.665C272.335 330.488 272.747 330.194 273.065 329.812C273.065 329.471 273.407 329.3 273.407 328.959L273.321 327.764C273.206 327.406 272.963 327.102 272.639 326.911C272.383 326.825 272.041 326.74 271.956 326.399C271.956 326.143 272.212 325.887 272.297 325.631L272.809 324.607C273.065 324.351 273.407 324.607 273.492 324.777L273.919 325.631C274.175 325.887 274.345 326.143 274.431 326.484C274.601 326.825 274.772 327.081 274.772 327.337L274.943 328.447C274.943 328.873 274.942 329.385 274.772 329.812L274.26 330.495C274.004 330.751 273.748 331.007 273.407 331.092C273.151 331.177 272.98 331.433 272.639 331.433H271.359L271.273 331.348ZM265.385 331.689C265.215 331.519 265.129 331.433 265.129 331.177C265.129 330.921 265.129 330.921 265.385 330.665C265.727 330.324 265.897 330.324 266.58 330.665C267.177 331.007 267.433 331.007 267.433 330.751C267.519 330.58 267.86 330.324 268.287 330.324C268.444 330.33 268.595 330.39 268.713 330.495C268.884 330.665 268.969 330.751 268.969 331.092C268.969 331.519 268.969 331.519 268.713 331.775C268.457 331.945 268.457 331.945 268.116 331.945C267.964 331.937 267.818 331.884 267.697 331.793C267.575 331.702 267.484 331.577 267.433 331.433C267.433 331.263 267.433 331.177 267.263 331.348L267.092 331.433C266.921 331.433 266.58 331.689 266.409 331.86L265.983 331.945C265.641 331.945 265.641 331.945 265.385 331.689ZM248.489 324.095C247.892 324.095 247.295 324.607 247.209 325.204C247.38 325.801 247.892 326.484 247.551 327.081C247.807 327.935 246.868 328.276 246.271 327.849C245.929 326.996 245.759 326.143 245.161 325.289C244.479 325.119 244.223 326.228 243.711 326.655C243.967 327.252 244.649 327.849 244.735 328.617C244.905 329.471 244.393 330.324 243.796 330.665C243.199 331.263 242.345 331.092 241.663 331.177C240.809 331.689 242.26 331.86 242.687 331.86C243.54 331.945 244.479 331.86 245.247 331.177C245.844 330.921 245.759 329.727 246.527 329.641L250.623 329.897C251.305 330.068 252.415 329.812 252.927 330.324C252.927 331.177 253.78 331.86 254.548 332.201C254.975 332.372 255.401 331.775 255.828 331.689C256.681 331.433 256.425 330.409 256.937 329.983H261.204C261.375 329.983 261.46 329.556 261.716 329.385L261.545 327.764C261.289 327.081 261.545 326.228 261.119 325.631C260.351 325.46 259.753 326.057 259.071 326.143C258.217 326.484 257.62 327.252 257.535 328.105C257.108 328.873 256.34 327.935 256.681 327.252L256.596 326.399C256.169 325.972 255.401 326.143 254.804 326.057L252.244 325.887C251.391 325.887 250.623 325.972 249.94 325.801C249.087 325.801 249.087 324.948 249.087 324.265C248.916 324.136 248.703 324.075 248.489 324.095ZM250.196 327.252L251.049 327.337H252.159C253.012 327.508 253.865 327.508 254.719 327.508C254.889 327.508 255.06 327.679 255.231 327.849V329.556C255.231 329.812 255.231 330.153 255.06 330.239C255.015 330.307 254.957 330.365 254.889 330.409C254.764 330.387 254.646 330.337 254.542 330.264C254.439 330.19 254.353 330.094 254.292 329.983V328.788C254.123 328.645 253.915 328.556 253.695 328.532L251.476 328.447L249.769 328.361C249.513 328.276 249.172 328.361 249.001 328.02C248.831 327.849 249.087 327.508 249.343 327.423C249.611 327.303 249.902 327.244 250.196 327.252ZM259.839 327.508C259.924 327.508 260.009 327.508 260.009 327.764L260.18 328.191C260.18 328.276 260.18 328.361 260.009 328.361C259.583 328.532 259.156 328.532 258.985 328.361C258.985 328.276 258.985 327.935 259.156 327.849L259.839 327.508Z" fill="#C09300"/>
<path d="M255.999 279.21C283.817 257.876 281.428 226.474 281.428 226.474L279.294 226.644C273.406 226.644 259.497 223.231 256.255 219.05C252.841 222.89 238.505 226.73 232.703 226.73L230.569 226.474C230.569 226.474 228.095 257.791 255.999 279.21Z" fill="white" stroke="#C09300" stroke-width="0.938663"/>
<path d="M279.209 228.692H278.526C273.236 228.692 260.948 226.047 256.169 221.951C251.22 225.706 238.676 228.778 233.471 228.778C233.241 228.769 233.013 228.74 232.788 228.692C232.835 234.085 233.58 239.449 235.007 244.65C238.429 257.18 245.788 268.279 255.999 276.308C266.215 268.248 273.573 257.121 276.99 244.564C278.409 239.391 279.155 234.057 279.209 228.692Z" fill="white" stroke="#C09300" stroke-width="0.767997"/>
<path d="M246.953 226.132C242.37 227.625 237.604 228.486 232.788 228.692L232.873 232.191C233.165 236.377 233.879 240.523 235.007 244.564C237.301 252.957 241.375 260.757 246.953 267.434V226.132ZM264.532 226.132V268.116C270.379 261.286 274.634 253.241 276.99 244.564C278.116 240.522 278.831 236.377 279.124 232.191L279.209 228.778H278.526C275.284 228.778 269.652 227.754 264.532 226.047V226.132Z" fill="#C09300"/>
<path d="M266.495 215.892C267.092 215.978 265.727 212.906 265.727 212.906C267.263 214.442 272.895 214.869 272.895 214.869C269.481 213.333 266.068 201.983 266.495 192.853C266.836 183.807 265.215 180.223 263.935 178.858C262.228 177.151 256.681 175.615 253.097 175.445C250.964 175.359 251.391 176.981 251.391 176.981C247.551 176.042 243.711 175.615 242.004 176.81C240.468 177.834 240.127 183.21 241.321 182.271C244.137 179.967 246.612 182.101 248.319 184.575C249.855 186.709 249.769 192.853 247.551 200.106C245.586 205.589 242.7 210.697 239.017 215.21C242.431 215.21 247.209 212.223 247.209 212.223L246.1 216.916C249.684 215.21 252.5 212.565 252.5 212.565L255.913 216.149C257.023 214.613 259.327 212.565 259.327 212.565C259.327 212.565 262.143 215.551 266.495 215.978V215.892Z" fill="white" stroke="#C09300" stroke-width="1.024"/>
<path d="M252.671 194.218C252.671 194.218 250.793 208.213 247.209 212.138M255.743 193.791C255.743 193.791 254.889 208.042 252.5 212.565M258.388 194.389C258.388 194.389 258.388 209.919 259.241 212.565M261.801 195.157C261.801 195.157 262.484 208.213 265.726 212.906" stroke="#C09300" stroke-width="1.10933"/>
<path d="M249.172 187.391C249.096 186.402 248.804 185.441 248.319 184.575C246.612 182.015 244.137 179.967 241.321 182.271C241.321 182.271 242.26 179.285 244.393 179.199C245.929 179.114 249.599 180.394 252.841 185.855C252.841 185.855 250.452 185.343 249.855 185.855C248.831 186.709 249.257 187.391 249.257 187.391H249.172Z" fill="#C09300" stroke="#C09300" stroke-width="0.255999"/>
<path d="M240.98 178.602C241.236 177.749 241.577 177.066 242.089 176.81C243.796 175.615 247.551 175.957 251.391 176.981C251.391 176.981 251.049 175.359 253.097 175.445C256.681 175.615 262.143 177.151 263.849 178.858C264.396 179.458 264.829 180.152 265.129 180.906C264.276 179.711 261.887 179.797 261.289 179.882C260.436 179.967 259.839 179.882 258.644 180.223C258.047 180.394 257.193 180.565 256.681 180.906C256.34 181.247 255.999 182.271 255.487 182.271C254.633 182.271 254.633 182.101 254.377 181.845C254.121 181.418 253.951 180.906 253.609 180.991C252.756 181.077 251.22 180.394 249.343 178.858C247.38 177.322 246.612 176.981 244.223 177.151C241.663 177.322 240.98 178.773 240.98 178.773V178.602Z" fill="#C09300" stroke="#C09300" stroke-width="0.255999"/>
<path d="M254.975 180.821C255.54 180.821 255.999 180.362 255.999 179.797C255.999 179.231 255.54 178.773 254.975 178.773C254.409 178.773 253.951 179.231 253.951 179.797C253.951 180.362 254.409 180.821 254.975 180.821Z" fill="white"/>
</g>
<defs>
<clipPath id="clip0_2_2427">
<rect width="512" height="512" fill="white"/>
</clipPath>
</defs>
</svg>
