<svg width="512" height="512" viewBox="0 0 512 512" fill="none" xmlns="http://www.w3.org/2000/svg">
<g clip-path="url(#clip0_2_2714)">
<path d="M0 0H512V256H0V0Z" fill="#000001"/>
<path d="M0 256H512V512H0V256Z" fill="#007A3D"/>
<path d="M0 149.3H512V362.6H0V149.3Z" fill="white"/>
<path d="M0 0L256 256L0 512V0Z" fill="#C4111B"/>
<path d="M390 326.034C428.678 326.034 460.034 294.679 460.034 256C460.034 217.321 428.678 185.966 390 185.966C351.321 185.966 319.966 217.321 319.966 256C319.966 294.679 351.321 326.034 390 326.034Z" fill="#C4111B"/>
<path d="M416.25 326.034C454.928 326.034 486.284 294.679 486.284 256C486.284 217.321 454.928 185.966 416.25 185.966C377.571 185.966 346.216 217.321 346.216 256C346.216 294.679 377.571 326.034 416.25 326.034Z" fill="white"/>
<path d="M371.235 298.348L400.971 277.02L430.708 298.759L419.634 263.69L449.37 242.157L412.661 241.952L401.382 207.089L389.795 241.849L353.188 241.747L382.617 263.485L371.235 298.348Z" fill="#C4111B"/>
</g>
<defs>
<clipPath id="clip0_2_2714">
<rect width="512" height="512" fill="white"/>
</clipPath>
</defs>
</svg>
