<svg width="512" height="512" viewBox="0 0 512 512" fill="none" xmlns="http://www.w3.org/2000/svg">
<g clip-path="url(#clip0_2_2723)">
<mask id="mask0_2_2723" style="mask-type:luminance" maskUnits="userSpaceOnUse" x="0" y="0" width="512" height="512">
<path d="M0 0H512V512H0V0Z" fill="white"/>
</mask>
<g mask="url(#mask0_2_2723)">
<path fill-rule="evenodd" clip-rule="evenodd" d="M-48 0H543.5V512H-48V0Z" fill="#BE0027"/>
<path fill-rule="evenodd" clip-rule="evenodd" d="M-48 512L543.5 511.7V256L-48 512Z" fill="#B4D7F4"/>
<path fill-rule="evenodd" clip-rule="evenodd" d="M-48 0L543.5 0.3V256L-48 0Z" fill="#239E46"/>
<path fill-rule="evenodd" clip-rule="evenodd" d="M148.8 351.4C140.1 353.8 135.1 360.6 135.2 367L178 366.8C178.4 359.9 172.8 353.6 164.2 351.1C206.2 350.3 242.6 334.5 249.2 324.5C242.7 321.6 235.1 326.2 229.7 325.1C242.5 319.2 280.9 294.3 274.7 267.7C269.644 280.349 260.581 290.992 248.9 298C263.2 276.2 282.9 253.5 265.9 236C266.7 246.2 259.3 257.4 256.1 258.2C264.4 235.2 272.4 206.2 254.3 187.2C256.7 194.1 255.8 213.5 252.5 214.4C251.5 198.7 248.8 165.8 232.3 166.3C237.6 170.9 239.8 183.7 240 196.5C236.2 187.7 232 181.1 222.8 174.5C214.655 160.396 203.058 148.593 189.1 140.2C189.348 146.094 191.036 151.837 194.017 156.928C196.998 162.018 201.181 166.3 206.2 169.4C198.7 168.9 191.2 154.7 183.2 154.3C176.8 154 171.8 160.1 161.3 156.6C162.5 160 167.3 161.6 168.3 164.1C166.2 165.6 160.8 163.9 156.4 161.6C162.5 169.8 171.9 174.6 179.9 173C189.4 171.2 199.6 172.2 209.3 177.7C203.246 178.968 197.014 179.137 190.9 178.2C196.6 183.9 200.3 187.7 210.1 187.6C218.9 187.6 223.5 183 225.7 185.8C231.2 192.3 234.9 198.8 239.5 206.4C229.3 207.6 232.4 195 221.1 188.5C214.8 201.7 228.4 217.2 237.7 223.7C237.7 233.6 239.2 241.7 243.4 249.3C246.2 254.6 249.9 260 248.5 272C243 268 237.5 254.3 239.5 243.5C232.5 245.4 229.9 257.5 233.1 263.7C235.6 268.4 237.2 277.4 234.4 281.4C231.6 285.1 231.4 284.7 231.4 292.7C231.4 297.5 228.8 303.2 224.4 307.1C225.4 303.8 226.4 297.9 225.4 294.3C221.9 300.2 213.3 306.2 210.6 312.5C207.9 318.8 207.2 329.7 194.3 332.2C177.6 335.5 171.8 338.4 161.1 342.8C159.9 334.7 163.5 317.7 170.3 318.7C177 319.9 197.1 311.7 189.9 294.7C188.5 300.1 183.7 305.3 178.6 305.6C184.1 298.4 194 290.9 189.2 278.9C186.3 284.996 181.676 290.107 175.9 293.6C182.8 280.5 176.7 276.6 168.6 287.3C165.6 291.5 163.6 299.9 161.7 310.5C158.5 301.9 158.7 290.5 154.9 281.3C150.9 271.3 160.2 268.6 164.5 269.4C175.1 272.3 192.9 272.3 191.5 254.7C187 260.7 178.9 262.5 170.2 260.4C180 253.2 187.7 239.9 176.8 232.9C176.303 237.028 174.791 240.969 172.401 244.372C170.01 247.774 166.815 250.532 163.1 252.4C161.334 245.829 161.231 238.921 162.8 232.3C158.5 236.8 155.4 246.1 152.9 256.8C152.823 248.747 153.934 240.728 156.2 233C158.4 224.7 164 230.1 172.5 230.7C180.7 231.2 192 226.7 189.9 215.5C187.1 219.9 181.3 221.6 175.4 221.2C182.5 216.9 194.8 209.2 188.1 197.6C185.2 202 184.3 205.8 176.1 207.2C178.2 202.2 178.6 195.2 185 192.5C173.6 190.2 167.1 197.7 163.8 209.3C162.4 201.3 160.8 198.3 160.5 192.3C166.7 185.5 167.3 172.1 154 169.2C153.2 176 153.5 177.7 155 183.2C148.7 179.6 140 177.5 134 182.8C138 187.1 144.2 190.8 153.7 186.2C151.4 193.5 145.6 192.2 137.6 189.4C142.5 198.6 148.6 200.3 155.5 199.2C159 208.6 159.2 215.7 148.8 229.4C149.2 220.9 148.6 214.6 141.8 207.7C136.1 202 131.4 208 140.4 220.6C133.814 215.372 129.11 208.14 127 200C125.2 210.1 126.8 222 132.4 228.8C129.7 231.6 126.7 228.5 122.3 221.6C123.9 243.8 133.4 248 146.2 243.1C146.5 255.3 146.5 266.6 147.2 281.3C141.695 272.709 134.133 265.629 125.2 260.7C123.5 266.7 129.7 274.4 133.2 278.7C127.9 277.7 116.5 269 116.5 269C115.3 278.9 128.1 288 136.4 292.1C126.7 291.7 122.4 288.1 116.1 282.1C116.2 309.5 145.8 304.7 151.4 300.5L153.9 343.1C145.5 341.7 146.2 339.1 139 338.5C119.1 337.7 103.3 314.6 98.1 297.6C96.6 300.4 97.8 303.3 96.4 306.8C93.2 298.4 89.1 287.7 83.5 282.7C84.9 287.5 85.1 292.5 84.6 301.5C82.7 295.6 80.9 293.8 80.8 286.9C80.9 281.6 85.9 277.7 85.7 270.2C85.5 264.8 80.5 253 79.7 243.8C77.3 253.3 75.8 263.2 72.1 269C74 259 73.4 252 76.5 245.3C80.1 238.1 83.1 231.8 80.7 224.6C78.4 227.4 79.2 229.9 73.5 236.6C72.2 229.3 80.9 217.6 89.3 212.8C95.3 209.8 102.7 198.5 97.9 190.8C92.3 194.8 89.8 200.3 81.9 209.5C87.5 187.5 102.1 181.8 119.6 181.7C123.6 181.7 131.3 180.3 133.6 175.2C128.6 177.1 122.7 177.3 117.6 176.2C121.3 170.8 129.3 171.5 136.7 171.4C142.5 171.4 151.6 170.6 155.3 162.4C147.253 165.472 138.455 165.996 130.1 163.9C141.2 158.1 158.6 157.5 167.5 149.9C157.3 142.4 131.9 151.8 115.9 162.8C120.4 158.7 127.5 151.4 131.4 145.5C122.6 141.3 100.4 165.9 92.8 180.5C85.6 184.5 82.7 191 79.8 195.5C83.8 182.4 84.1 172.9 87.3 162.2C62.5 170.7 72.8 216.7 67.4 227.7C68 215.5 67.5 199.9 62.5 191.9C54.9 197.7 54.2 232.1 61.5 260.8C58.8 253.1 53.9 245.9 52.4 236.6C41 257.3 59 281.6 74 300.9C62.0401 293.477 51.865 283.506 44.2 271.7C46.2 308.7 84.9 316.4 90.9 325.5C82.7 321.7 67.2 314.2 60.5 322.1C69.781 323.826 78.6843 327.178 86.8 332C96.8 344.5 115.8 350 148.8 351.4Z" fill="#F3E295"/>
</g>
</g>
<defs>
<clipPath id="clip0_2_2723">
<rect width="512" height="512" fill="white"/>
</clipPath>
</defs>
</svg>
