<svg width="512" height="512" viewBox="0 0 512 512" fill="none" xmlns="http://www.w3.org/2000/svg">
<g clip-path="url(#clip0_2_2744)">
<mask id="mask0_2_2744" style="mask-type:luminance" maskUnits="userSpaceOnUse" x="-1" y="-1" width="513" height="513">
<path d="M-0.152222 -0.0102539H511.656V511.798H-0.152222V-0.0102539Z" fill="white"/>
</mask>
<g mask="url(#mask0_2_2744)">
<path fill-rule="evenodd" clip-rule="evenodd" d="M-237.908 3.54614H799.515V501.338H-238.013L-237.908 3.54614Z" fill="#FFC621"/>
<path fill-rule="evenodd" clip-rule="evenodd" d="M-240 342.346H798.887V511.798H-240V342.346Z" fill="#EF2118"/>
<path fill-rule="evenodd" clip-rule="evenodd" d="M-237.908 -0.0102539H799.515V179.902H-237.908V-0.0102539Z" fill="#298C08"/>
<path d="M261.884 371.676C321.297 371.676 369.461 323.512 369.461 264.1C369.461 204.687 321.297 156.523 261.884 156.523C202.472 156.523 154.308 204.687 154.308 264.1C154.308 323.512 202.472 371.676 261.884 371.676Z" fill="#006BC6"/>
<path fill-rule="evenodd" clip-rule="evenodd" d="M213.964 188.165L207.688 192.663L231.118 225.717L237.394 221.637L213.964 188.165ZM243.461 266.092L233.838 259.293L237.813 246.741L189.697 247.369L175.785 236.7L241.369 235.967L253.607 199.044L259.988 214.106L243.252 266.197L243.461 266.092ZM319.924 195.383L313.648 190.676L289.276 223.102L295.029 227.809L319.924 195.383ZM254.549 246.95L258.001 235.758H271.285L256.118 190.048L262.08 173.521L282.582 235.967L321.493 236.386L309.255 247.16L254.549 246.95ZM345.132 298.204L347.747 290.673L309.464 277.494L306.744 284.293L345.132 298.1V298.204ZM276.096 251.762L287.812 251.553L291.996 264.209L330.698 235.758L348.166 236.386L295.134 275.088L306.64 312.221L292.623 303.853L275.992 251.762H276.096ZM256.222 353.747L264.172 353.852L264.486 313.371L257.164 312.953L256.327 353.747H256.222ZM278.188 273.414L282.059 284.502L271.494 292.556L310.824 320.275L315.844 337.011L262.289 299.146L230.805 321.844L234.256 305.945L278.293 273.519L278.188 273.414ZM174.948 286.385L177.354 293.916L215.951 281.678L214.069 274.565L174.948 286.385ZM258.21 282.41L248.796 289.523L237.917 281.782L223.796 327.806L209.362 337.743L228.922 274.983L197.542 252.18L213.755 250.507L258.21 282.41Z" fill="#FFC621"/>
</g>
</g>
<defs>
<clipPath id="clip0_2_2744">
<rect width="512" height="512" fill="white"/>
</clipPath>
</defs>
</svg>
