<svg width="512" height="512" viewBox="0 0 512 512" fill="none" xmlns="http://www.w3.org/2000/svg">
<g clip-path="url(#clip0_2_3172)">
<path d="M0 0V512H512V0.2H322V0H0Z" fill="#68BFE5"/>
<path d="M310.2 254V390.4C310.2 435 390.8 461.5 390.8 461.5C390.8 461.5 471.4 435 471.4 390.5V254H310.2Z" fill="white"/>
<path d="M379.6 302V363.4H310.2V385.7H379.7V457.2L390.8 461.5L402 457.2V385.7H471.4V363.4H402V302H379.6Z" fill="#D21034"/>
<path d="M310.2 254H471.4V306.7H310.2V254Z" fill="#D21034"/>
<path d="M323.091 293.5C328.085 293.5 332.133 290.225 332.133 286.186C332.133 282.147 328.085 278.873 323.091 278.873C318.097 278.873 314.049 282.147 314.049 286.186C314.049 290.225 318.097 293.5 323.091 293.5Z" fill="white" stroke="black" stroke-width="0.531888" stroke-miterlimit="3"/>
<path d="M323.091 286.452C327.534 286.452 331.136 284.636 331.136 282.396C331.136 280.157 327.534 278.341 323.091 278.341C318.648 278.341 315.046 280.157 315.046 282.396C315.046 284.636 318.648 286.452 323.091 286.452Z" fill="white" stroke="black" stroke-width="0.531888" stroke-miterlimit="3"/>
<path d="M323.091 294.63C327.534 294.63 331.136 292.814 331.136 290.574C331.136 288.334 327.534 286.519 323.091 286.519C318.648 286.519 315.046 288.334 315.046 290.574C315.046 292.814 318.648 294.63 323.091 294.63Z" fill="white" stroke="black" stroke-width="0.531888" stroke-miterlimit="3"/>
<path d="M323.091 290.242C327.534 290.242 331.136 288.426 331.136 286.186C331.136 283.946 327.534 282.13 323.091 282.13C318.648 282.13 315.046 283.946 315.046 286.186C315.046 288.426 318.648 290.242 323.091 290.242Z" fill="white" stroke="black" stroke-width="0.531888" stroke-miterlimit="3"/>
<path d="M467.4 296.3L466.1 292.6C466.1 292.6 462.5 291.2 462.2 289.2C461.6 284.2 459.7 282.2 457 281.5C456.245 281.26 455.449 281.171 454.66 281.24C453.87 281.308 453.102 281.533 452.4 281.9C451.6 283.1 447.5 283.1 445.2 283.2C442.9 283.3 442.9 282.2 442.9 282.2C442.407 282.214 441.919 282.102 441.481 281.874C441.044 281.647 440.672 281.311 440.4 280.9C439.2 278.6 438.4 277.7 437.8 277.5C440.8 277.5 443 276.1 446.3 272.6C450 268.8 452.6 270.3 452.6 270.3C450.8 273.8 453.2 273.5 453.2 273.5C458 271.1 453.8 264.8 452.3 265.1C450.9 265.4 450.5 264.4 450.5 264.4C450.5 265.5 448.8 266 448.8 266C450.1 258.9 445.8 257 445.8 257C445.2 257.6 444.8 259 444.8 259C443.7 263.2 439.8 262.6 435.4 260.5C431 258.4 419.3 262.7 415.6 264.1C412 265.6 405.3 267.9 399.3 264.5C393.3 261.1 391.8 261.7 389.4 262.4C387 263 382.8 264 381.3 263.2C380.242 262.666 379.083 262.36 377.9 262.3C378.4 262.1 377.7 261.1 377.7 261.1C375.9 258.6 377.9 257.1 377.9 257.1C377.9 257.1 374.6 258.1 375.9 263.9L376.5 264.8C376.5 264.8 377 266.6 378 267.1V267.5C378 267.5 378.8 267.1 379 268.3C379.4 269.5 380.6 268.4 381.2 267.4C381.2 267.4 380.2 272.7 386.8 274C386.8 274 386.1 273.2 386.4 272.6C386.7 272.1 385.6 271.6 385.7 270.8C385.7 270 384 269.6 385.4 269C386.8 268.3 387.4 267 390.4 268.8C393.2 270.5 395.5 270.1 395.5 270.1C395.5 270.1 393.7 266.5 394.7 266.5C395.7 266.5 400.1 272 402.3 271.7C404.5 271.4 408.7 269 410.8 269.9C410.8 269.9 411 268.8 419 267.4C427 266 437 262 440.7 265.5C440.7 265.5 441.1 268.3 442.7 269C442.7 269 442.4 274.8 432.4 271.6L428.8 270.6C428.8 270.6 428.3 268.9 409.3 273.8C409.3 273.8 408.3 274.2 407.5 274.8C406.8 275.3 405.8 274.4 402 275.8C398.2 277.2 384.3 281.8 375.7 280.1C373.8 279.6 372 279.8 372 279.6C371.9 279.2 373 279.6 373 279.6C372.3 278.9 372 278.8 372 278.8C364.8 278.1 366.1 274.8 366.1 274.8L366.5 275.8C367.7 274.3 366 270.6 366 270.6C365.971 270.499 365.937 270.399 365.9 270.3L366.5 269.9C370 266.9 374 266.4 374 266.4C371.6 263.4 366.6 265 366.6 265C366.6 261.5 365.2 257.4 365.2 257.4C360.2 257.9 357.4 262 357.4 262C357.3 258.4 352.6 256.3 352.6 256.3C354.3 258.3 353.2 263.3 353.2 263.3L353.4 263.5H353L352.9 264.5H352.7C352.7 264.5 351 265.1 348.9 269.7C348.9 269.7 348.7 270.7 347.9 271.7V271.4C347.9 271.4 345.7 274.4 340.5 271.4C340.5 271.4 333.5 267.2 331 267.4C328.5 267.5 326.9 268.7 327 269.4C327 269.4 321.4 268.9 319.5 272.1C319.5 272.1 315.2 273.7 318.9 277.1C318.9 277.1 319.3 278.7 320.4 279.5C320.4 279.5 320.2 276.3 321 277.3C321 277.3 321.2 277.6 321.6 277.8C321.6 278.2 322 279.5 322.8 280.1L323.3 279.9C323.374 279.149 323.542 278.41 323.8 277.7H324L323.9 277.8L324.9 279.3L326 278.7C326.6 278.7 327.3 279.2 327.3 279.2L328.6 278.2V278.1C329.9 278.3 330.2 275.8 330.2 275.8C330.745 275.93 331.312 275.944 331.864 275.84C332.415 275.737 332.938 275.519 333.4 275.2C334 277.2 338.6 279.5 338.6 279.5H338.8L338.2 279.9C340.2 281.4 344.2 281 344.2 281C342.6 281.7 342.8 284.7 342.8 284.7C341.8 285.1 341.8 286 341.8 286C344.9 287.3 347.1 286.3 347.1 286.3C347.3 287.3 347.1 287.4 347.1 287.4C345.8 290.1 345.2 292.8 345.2 292.8V293C345.2 293 339.6 295 337.2 297.7C337.2 297.7 336.9 296.9 336.2 296.9C335.5 296.9 333.3 295.1 332.3 294.9C331.3 294.5 329.8 295.1 329.4 294.7C329.1 294.2 329.3 291.1 328.6 290.6L327.9 288.6C327.4 289.6 325.5 289.4 325.5 289.4C325.229 289.594 324.962 289.794 324.7 290L323.9 289.9C323.7 289.9 323.5 290.5 323.3 291C323.232 291.066 323.166 291.133 323.1 291.2V290.6C322.7 290.9 321.9 290.5 321.6 290.5L321.1 291.4L319.3 291.6C319 291.7 319.3 294.1 319.3 294.1C317 295.4 318.1 297.2 318.1 297.2C319.3 303.2 329.6 300.6 330.4 301.3C331.1 302.1 332.9 302.3 333.9 302.3C334.8 302.3 335.9 304.5 337.3 304.7C338.6 305 337.3 303 343.3 301.5C349.5 300 351.5 297.5 351.5 297.5C353.5 297.2 354 294.8 354.1 293.9L354.2 295.4C354.5 297.4 353.1 298.2 353.1 298.2L358.3 296.6C360.4 296.1 360.2 294.3 360.2 294.3C362.2 300 365.8 300.3 365.8 300.3C366.6 298.2 366.5 297.5 366.5 297.5H368.1C368.1 296.2 367.1 295.3 366.5 294.9L369 296.5L370 296.3C370 297.2 371.4 298 371.4 298L371.6 296.8C372.8 298.4 375 297.8 375 297.8C374.948 297.53 374.881 297.263 374.8 297C379.5 299.9 386.9 296.2 386.9 296.2C388.9 296.6 389.2 295.4 389.2 295.4C391.5 295.7 392 294.2 392 294.2C397.4 293.7 401.2 289.9 401.2 289.9C403.8 289.7 403.9 287.9 403.9 287.9C403.9 287.9 406.6 288.3 409.1 285.1C415.1 276.6 423.9 281.1 423.9 281.1L418.9 281.4C405.4 281.3 410.9 290.4 410.9 290.4H411.8C413.1 290.6 417.4 294.1 415.8 296.7V296.8C413 300.5 407.9 297 406.5 293.8C405 290.6 402.1 291.3 402.1 291.3C402.1 291.3 394.5 292.6 397.6 298.6H397.7C397.8 300.1 398.7 301.8 401.4 303.5C402.9 305.6 407.9 305.8 411.6 305C413.3 304.7 422.3 300.8 422.3 300.8C423 298.8 425.3 299.3 427.3 296.5C429.3 293.6 424.3 292.6 423.3 291.1C422.2 289.5 423.6 289.8 423.6 289.8C427.9 292.2 428.3 284.6 428.3 284.6C428.413 285.845 428.877 287.032 429.638 288.023C430.399 289.015 431.426 289.77 432.6 290.2C435 287.8 433.2 282.9 433.2 282.9C438.9 293.1 442.4 291.5 442.4 291.5C439.3 289.5 440.8 287 440.8 287C443.6 297.8 454.8 288.4 454.8 288.4C454.3 290 454.8 290.9 455.8 291.9C456.8 292.9 458 293.3 457.5 295.2C456.9 297 451.7 296.6 451.7 296.6C451.7 296.6 446.6 296.4 447.1 300.6C447.3 301.6 450.7 302 452 301.8C452 301.8 451.5 301.8 453.3 302.1L455.5 302.2C457.7 302.2 460 301.8 460 301.8C463 301.1 462.5 300.1 462.5 300.1C467 299.3 467.5 296.3 467.5 296.3H467.4Z" fill="#FFD100" stroke="black" stroke-width="0.8" stroke-miterlimit="3"/>
<path d="M319 277.6C319 277.6 319.2 277 319.7 276.9C320 276.9 320.5 277.1 320.9 277.7L321.1 277.5C321.1 277.5 319.9 275.7 320.4 274.5C320.6 274 321.2 273.5 322 273.5V273.1C321 273.3 320.4 273.7 320.1 274.4C320.013 274.657 319.978 274.929 320 275.2C320 275.8 320.2 276.4 320.4 276.8C320.169 276.632 319.882 276.561 319.6 276.6C319.2 276.7 318.9 277 318.8 277.2L319 277.6ZM460 301.5C457 302 452.4 302.2 452 301.3C452 301.2 452 300.5 454.5 298.9L454.2 298.4C452.2 299.8 451.2 300.8 451.6 301.5C452.2 303.2 458.8 302.2 460.1 302L460 301.5ZM401.6 303.3C400.9 302.2 401.2 300.7 402.6 298.9L402.1 298.6C400.6 300.6 400.3 302.3 401.1 303.6L401.6 303.3Z" fill="black"/>
<path d="M397.5 298.7C397.5 300.5 398.8 302.2 401.3 303.7L401.6 303.3C399.3 301.9 398.1 300.3 398 298.6C398 296.1 400.6 294.2 400.6 294.1L400.3 293.7C400.2 293.7 397.3 295.8 397.5 298.7ZM449.5 299.3C448.7 300.6 449 302.1 449 302.1H449.5C449.5 302.1 449.3 300.7 450 299.6C450.236 299.277 450.535 299.004 450.879 298.798C451.222 298.592 451.603 298.456 452 298.4V297.9C450.9 298.1 450 298.6 449.5 299.3ZM330.3 276H330.1V276.1C330.1 276.1 329.8 277.7 329.1 278.1C328.999 278.169 328.883 278.214 328.762 278.232C328.64 278.249 328.516 278.238 328.4 278.2L327.2 277.5C326.9 277.2 326.7 277.1 326.4 277.2C326.102 276.836 325.958 276.369 326 275.9C326.1 275.1 326.6 274.4 327.5 273.8L327.4 273.5C326.4 274.2 325.8 275 325.7 275.8C325.6 276.8 326.1 277.4 326.2 277.5H326.3C326.6 277.4 326.7 277.5 327 277.7L328.3 278.5H329.3C330 278 330.3 276.6 330.3 276.3C333.6 277 336.3 273 336.3 272.9L336.1 272.7C336.1 272.7 333.4 276.7 330.3 276Z" fill="black"/>
<path d="M322.5 275.4C322.3 276 322.5 276.7 322.8 277.3C323.2 277.9 323.5 278.2 323.9 278.3C324.4 278.3 324.7 278 325 277.7C325.2 277.4 325.5 277.2 325.6 277.3L325.9 277.5L326.2 277.3L325.7 277C325.4 277 325.1 277.2 324.8 277.4C324.5 277.7 324.2 278 323.9 277.9C323.7 277.9 323.4 277.6 323.1 277.1C322.938 276.852 322.828 276.573 322.776 276.281C322.725 275.989 322.733 275.689 322.8 275.4C323.1 274 324.8 272.9 324.8 272.9V272.7C324.7 272.7 322.8 273.7 322.5 275.4ZM318 296C318.2 295.4 318.6 295 319.3 294.6C319.2 294.6 320 295.3 320.7 295.2L321.1 295C321.3 295.1 322.5 296.2 322.5 297.6C322.5 297.9 322.5 298.2 322.3 298.5L322.6 298.6C323.6 296.6 321.3 294.6 321.3 294.6H321.1L320.6 294.9C320.1 294.9 319.4 294.3 319.3 294.3C318.4 294.7 317.9 295.3 317.7 295.9L318 296ZM328.4 290.7C327.7 290.7 325.8 291.1 325.2 292C325 292.4 325 292.8 325.2 293.2L325.4 293.9C326 295.4 326.6 297 327.2 297.4L327.4 297.1C326.8 296.8 326.2 295.1 325.7 293.7L325.4 293.1C325.33 292.96 325.293 292.806 325.293 292.65C325.293 292.494 325.33 292.34 325.4 292.2C326 291.4 327.6 291 328.4 291C328.8 291 328.9 292.5 329 293.5H329.3C329.3 292 329.1 290.6 328.3 290.7H328.4Z" fill="black"/>
<path d="M323.3 292.2C323.179 292.314 323.089 292.455 323.036 292.612C322.984 292.769 322.972 292.937 323 293.1C323 293.2 323.1 297.1 325 297.9L325.1 297.6C323.4 296.9 323.3 293.1 323.3 293.1C323.3 293.1 323.2 292.7 323.5 292.4C323.7 292.2 324.3 292.2 325.1 292.4V292.1C324.3 291.8 323.6 291.9 323.3 292.2Z" fill="black"/>
<path d="M321.8 292.5C321 293.1 321 294.7 321 294.8H321.3C321.3 294.8 321.3 293.2 322 292.8C322.2 292.6 322.6 292.6 323 292.8V292.5C322.6 292.3 322.1 292.3 321.8 292.5Z" fill="black"/>
<path d="M365.709 271.094C365.709 271.094 366.573 273.088 366.573 274.618C366.573 274.884 366.44 275.083 366.374 275.282L366.041 274.418L365.842 275.083C365.842 275.083 365.443 276.014 366.041 277.011C366.839 278.341 368.834 279.139 372.025 279.471V279.538C371.932 279.536 371.84 279.559 371.759 279.604L371.626 279.737V280.003C371.759 280.335 372.091 280.335 372.823 280.335L373.288 280.402L373.687 280.535L373.621 280.468C374.285 280.468 375.15 280.668 376.014 281L375.349 281.133L376.081 281.466C376.147 281.466 381.865 283.793 384.192 285.654C383.527 286.253 380.668 288.314 375.748 287.117L374.95 286.918L375.482 287.582C375.482 287.582 378.74 291.306 379.405 293.566C378.275 293.566 373.953 293.566 372.424 292.236L372.091 292.569C372.091 292.569 374.086 295.627 374.618 297.954C373.953 298.087 372.623 298.154 371.759 297.023L371.36 296.558L371.161 297.888C370.762 297.555 370.23 297.156 370.23 296.624V296.359L369.033 296.558L366.507 295.029C366.378 294.934 366.245 294.845 366.108 294.763L365.842 295.228L366.241 295.428C366.772 295.827 367.703 296.558 367.77 297.622H366.174V297.954C366.174 298.154 366.174 298.885 365.576 300.414C364.844 300.281 362.052 299.284 360.39 294.563L359.858 294.696V294.829C359.858 295.295 359.725 296.359 358.262 296.757L353.941 298.087C354.319 297.543 354.507 296.888 354.473 296.226V295.694C354.391 295.121 354.347 294.544 354.34 293.965C354.34 292.968 354.539 292.369 355.27 291.97L355.004 291.439C354.938 291.439 348.622 294.032 345.497 292.968C345.63 292.303 346.162 290.175 347.226 287.915L347.093 288.048C347.292 287.915 347.492 287.649 347.292 286.585V286.253L346.96 286.386C346.96 286.386 344.965 287.316 342.04 286.253C342.04 285.987 342.239 285.588 342.838 285.322L343.037 285.255V284.723C343.037 283.926 343.103 282.064 344.234 281.665L344.101 281.133C344.101 281.133 340.71 281.399 338.649 280.269C339.539 279.629 340.561 279.197 341.641 279.006H341.84V278.74C341.831 278.213 341.719 277.693 341.508 277.211C342.306 277.477 343.236 277.676 343.569 277.41L343.702 277.344L343.569 275.282H343.037L343.103 277.011L341.109 276.546L340.311 276.28L340.843 276.945C341.165 277.413 341.328 277.972 341.308 278.54C340.102 278.801 338.967 279.323 337.984 280.069L337.652 280.335L337.984 280.535C339.58 281.599 342.04 281.732 343.303 281.665C342.737 282.56 342.437 283.598 342.439 284.657V284.923C342.174 285.077 341.947 285.289 341.775 285.542C341.602 285.795 341.488 286.083 341.441 286.386V286.585L341.574 286.652C343.223 287.41 345.095 287.529 346.827 286.984V287.582C345.497 290.375 344.832 293.101 344.832 293.101V293.367H345.032C347.625 294.43 352.146 293.034 354.207 292.303C353.941 292.768 353.741 293.3 353.741 293.965C353.749 294.723 353.816 295.478 353.941 296.226C353.941 297.755 352.943 298.353 352.877 298.353L353.076 298.885L358.395 297.289C359.592 296.957 360.057 296.226 360.257 295.627C362.318 300.547 365.576 300.946 365.775 301.013H365.975L366.041 300.813C366.393 299.964 366.617 299.068 366.706 298.154C367.238 298.133 367.77 298.111 368.302 298.087V297.755C368.302 297.289 368.235 296.89 368.036 296.558L368.967 297.09L369.831 296.957C370.03 297.821 371.094 298.553 371.227 298.619L371.559 298.819L371.759 297.688C373.089 298.819 374.884 298.486 375.017 298.486L375.216 298.42V298.154C374.95 296.359 373.754 294.231 373.022 293.101C375.349 294.165 379.604 294.098 379.804 294.098H380.07V293.766C379.194 291.566 377.933 289.54 376.346 287.782C381.798 288.779 384.724 285.92 384.857 285.787L385.056 285.588L384.79 285.455C382.401 283.747 379.811 282.341 377.078 281.266L377.676 281.133L377.011 280.801C375.817 280.191 374.496 279.872 373.155 279.87C372.49 279.072 372.158 279.006 372.091 278.939C368.368 278.54 367.038 277.543 366.507 276.745V276.546L366.64 276.346C366.972 275.881 367.105 275.282 367.105 274.618C367.105 272.889 366.241 270.961 366.241 270.894L365.709 271.094Z" fill="black"/>
<path d="M348.755 270.03C348.755 270.03 348.356 272.025 346.627 273.022C345.298 273.687 343.635 273.687 341.574 272.822L341.308 272.756V273.022C341.457 273.878 341.934 274.641 342.638 275.149C343.502 275.814 344.832 276.08 346.561 275.947C345.962 276.612 344.167 278.873 344.167 281.133V281.466C344.433 281.599 347.226 282.396 348.555 280.734C348.555 281.399 348.821 283.726 349.686 284.591C350.217 285.122 350.35 285.787 350.35 286.386C350.35 286.918 350.217 287.316 350.217 287.316L350.085 287.715L350.417 287.449C350.55 287.383 353.143 285.455 353.941 282.995C353.941 282.995 354.406 282.33 355.204 282.131V282.463C355.204 283.46 355.603 285.189 358.395 286.253L358.595 286.319V286.12C358.587 285.965 358.587 285.809 358.595 285.654C358.595 284.923 358.595 283.66 359.326 282.995C359.621 282.721 359.818 282.36 359.89 281.964C359.962 281.569 359.904 281.161 359.725 280.801C360.323 280.934 361.653 281.399 362.185 282.396C362.983 283.859 365.709 282.662 365.842 282.662L365.775 282.33C365.775 282.33 364.578 282.596 363.847 282.131C363.694 282.011 363.567 281.86 363.476 281.688C363.384 281.516 363.329 281.327 363.315 281.133L363.182 279.538C363.182 278.873 363.049 278.407 362.717 278.075C363.049 278.075 363.781 278.075 364.047 278.74C364.578 279.804 366.241 279.87 366.307 279.87L366.905 279.936L366.44 279.604C366.44 279.604 364.977 278.673 365.243 277.41L365.443 276.479C365.842 274.817 366.507 272.091 365.908 270.362L365.642 270.495C365.775 270.894 365.842 271.426 365.842 271.958C365.842 273.421 365.376 275.282 365.177 276.413L364.911 277.344C364.9 277.454 364.9 277.565 364.911 277.676C364.911 278.54 365.376 279.139 365.775 279.471C365.31 279.405 364.645 279.139 364.446 278.607C363.98 277.676 362.916 277.676 362.451 277.742L362.052 277.809L362.318 278.075C362.783 278.341 362.85 278.74 362.85 279.604L362.983 281.133C363.049 281.665 363.315 282.064 363.648 282.33C364.047 282.596 364.446 282.596 364.778 282.662C363.98 282.862 362.85 282.995 362.451 282.263C361.72 280.801 359.592 280.468 359.526 280.402H359.193L359.326 280.668C359.326 280.668 359.592 281.067 359.592 281.599C359.592 281.931 359.459 282.396 359.127 282.729C358.395 283.46 358.262 284.856 358.262 285.588V285.854C355.869 284.856 355.47 283.394 355.47 282.529V281.865L355.603 281.665H355.337C354.987 281.725 354.655 281.863 354.367 282.071C354.079 282.278 353.842 282.549 353.675 282.862C353.014 284.487 351.936 285.909 350.55 286.984C350.588 286.764 350.61 286.542 350.616 286.319C350.616 285.721 350.483 284.989 349.952 284.391C348.954 283.46 348.821 280.402 348.821 280.402V279.87L348.555 280.335C347.492 282.197 344.433 281.266 344.367 281.266C344.234 278.939 347.026 275.881 347.026 275.814L347.292 275.548H346.893C345.098 275.814 343.702 275.548 342.771 274.884C342.243 274.462 341.868 273.878 341.707 273.221C343.702 273.953 345.43 274.019 346.76 273.288C347.335 272.939 347.832 272.475 348.221 271.926C348.61 271.378 348.882 270.755 349.021 270.097C351.015 265.708 352.677 264.977 352.677 264.977L352.611 264.711C352.478 264.711 350.749 265.376 348.755 270.03Z" fill="black"/>
<path d="M353.209 263.448H353.076L351.481 265.642H351.946C356.907 266.033 361.56 268.205 365.044 271.759L365.243 271.958L366.772 270.296L366.64 270.097C362.318 263.315 353.276 263.448 353.143 263.448H353.209ZM353.342 264.046C354.406 264.046 362.118 264.246 366.108 270.23L365.243 271.16C361.736 267.827 357.224 265.746 352.411 265.243C352.721 264.844 353.031 264.445 353.342 264.046Z" fill="black"/>
<path d="M351.946 267.969C351.23 268.905 350.752 270 350.55 271.16L350.616 271.426C350.154 271.911 349.798 272.486 349.569 273.115C349.34 273.745 349.244 274.415 349.287 275.083C349.287 275.947 349.42 276.812 349.686 277.609L349.885 278.075C350.683 280.335 351.414 282.33 355.071 281.133C358.528 280.069 358.661 279.803 359.526 278.341L359.792 278.008C360.257 277.21 360.789 277.078 361.321 276.878C361.986 276.679 362.65 276.479 363.315 275.282L363.847 274.418C364.512 273.554 365.31 272.424 365.376 271.094H365.11C364.912 272.248 364.407 273.327 363.648 274.219L362.983 275.149C362.838 275.517 362.604 275.843 362.302 276.098C362.001 276.353 361.641 276.53 361.254 276.612C360.898 276.68 360.561 276.821 360.263 277.027C359.965 277.234 359.714 277.5 359.526 277.809L359.26 278.208C358.462 279.604 358.329 279.803 354.938 280.867C351.614 281.931 350.949 280.269 350.151 277.942L349.952 277.476C349.021 274.95 349.752 272.424 351.015 271.493L351.414 271.16L350.816 271.227V271.16C350.816 270.695 351.281 269.432 352.146 268.168C352.943 267.105 354.805 266.107 354.805 266.041L354.672 265.775C354.539 265.841 352.744 266.905 351.946 267.969Z" fill="black"/>
<path d="M350.35 277.211C350.949 277.609 351.747 277.543 352.81 277.211C352.81 277.543 352.81 278.341 353.475 278.873C354.273 279.538 355.47 279.67 357.132 279.272V278.939C355.536 279.338 354.34 279.205 353.675 278.607C353.463 278.401 353.3 278.152 353.197 277.876C353.093 277.6 353.052 277.305 353.076 277.011V276.745L352.877 276.878C351.88 277.277 351.082 277.343 350.483 276.878C349.486 276.213 349.553 274.418 349.553 274.418H349.287C349.287 274.418 349.154 276.413 350.35 277.211Z" fill="black"/>
<path d="M352.212 274.751C351.813 274.884 351.68 275.216 351.68 275.482V275.681C351.813 276.479 352.678 277.011 353.409 277.211C354.207 277.41 355.138 277.476 355.47 277.011C355.603 276.812 355.736 276.479 355.47 275.881C355.184 275.32 354.693 274.89 354.1 274.679C353.506 274.469 352.854 274.495 352.279 274.751H352.212ZM353.542 276.945C352.877 276.745 352.079 276.28 352.013 275.615C352.013 275.615 351.946 275.149 352.345 275.016C352.859 274.808 353.432 274.802 353.95 275C354.469 275.197 354.893 275.583 355.138 276.08C355.337 276.346 355.337 276.612 355.204 276.745C355.005 277.078 354.273 277.144 353.542 276.945ZM353.276 278.74C353.077 280.402 353.276 280.468 353.342 280.468H353.475L353.608 280.402L354.539 279.072L353.342 278.54V278.74H353.276ZM353.608 279.006L354.074 279.205L353.542 279.936L353.608 279.006ZM350.816 277.41L350.75 278.939L352.079 277.343L350.75 277.211V277.41H350.816ZM351.082 277.543H351.481L351.082 278.075V277.543Z" fill="black"/>
<path d="M349.885 276.878C349.885 276.878 350.882 278.806 351.082 279.538C351.148 279.936 351.747 280.468 352.412 280.668C353.076 280.934 353.741 280.934 354.207 280.601L355.071 279.87C355.337 279.538 355.47 279.471 355.736 279.538V279.205C355.337 279.205 355.137 279.338 354.872 279.604L354.007 280.269C353.475 280.668 352.877 280.535 352.545 280.402C351.88 280.202 351.414 279.737 351.348 279.405C351.148 278.74 350.218 276.812 350.151 276.745L349.885 276.878ZM351.215 271.16C350.465 271.555 349.894 272.221 349.619 273.022L349.885 273.088C349.885 273.088 350.35 271.892 351.281 271.426C351.532 271.312 351.804 271.253 352.079 271.253C352.354 271.253 352.626 271.312 352.877 271.426L352.943 271.16C352.279 270.894 351.747 270.894 351.148 271.16H351.215ZM358.395 274.618C358.528 274.618 360.523 276.213 359.393 278.075L359.592 278.274C360.922 276.08 358.595 274.352 358.595 274.285L358.395 274.618ZM352.279 274.883C352.279 274.883 351.946 276.014 353.608 276.413C353.608 276.413 352.079 276.413 351.946 276.014C351.88 275.615 351.946 274.751 352.279 274.883ZM357.265 276.213C357.265 276.346 357.132 276.413 357.066 276.413C357.022 276.415 356.98 276.403 356.944 276.379C356.908 276.356 356.88 276.32 356.866 276.28C356.866 276.147 356.933 276.08 357.066 276.08C357.132 276.08 357.265 276.147 357.265 276.28V276.213ZM357.398 277.011C357.398 277.078 357.398 277.144 357.265 277.144C357.222 277.146 357.179 277.135 357.143 277.111C357.107 277.087 357.08 277.052 357.066 277.011C357.066 276.958 357.087 276.907 357.124 276.87C357.161 276.833 357.212 276.812 357.265 276.812C357.332 276.812 357.398 276.878 357.398 277.011Z" fill="black"/>
<path d="M356.201 276.812C356.311 276.812 356.401 276.722 356.401 276.612C356.401 276.502 356.311 276.413 356.201 276.413C356.091 276.413 356.002 276.502 356.002 276.612C356.002 276.722 356.091 276.812 356.201 276.812Z" fill="black"/>
<path d="M356.733 277.676C356.733 277.729 356.712 277.78 356.675 277.817C356.637 277.854 356.587 277.875 356.534 277.875C356.481 277.875 356.43 277.854 356.393 277.817C356.355 277.78 356.334 277.729 356.334 277.676C356.334 277.609 356.401 277.543 356.534 277.543L356.733 277.676ZM352.013 272.822C352.013 272.875 351.992 272.926 351.954 272.964C351.917 273.001 351.866 273.022 351.813 273.022C351.76 273.022 351.71 273.001 351.672 272.964C351.635 272.926 351.614 272.875 351.614 272.822C351.632 272.795 351.657 272.773 351.686 272.757C351.715 272.741 351.747 272.733 351.78 272.733C351.813 272.733 351.845 272.741 351.874 272.757C351.903 272.773 351.928 272.795 351.946 272.822H352.013Z" fill="black"/>
<path d="M351.946 273.753C352.056 273.753 352.146 273.664 352.146 273.554C352.146 273.444 352.056 273.354 351.946 273.354C351.836 273.354 351.747 273.444 351.747 273.554C351.747 273.664 351.836 273.753 351.946 273.753Z" fill="black"/>
<path d="M350.949 273.421C351.059 273.421 351.148 273.332 351.148 273.221C351.148 273.111 351.059 273.022 350.949 273.022C350.839 273.022 350.75 273.111 350.75 273.221C350.75 273.332 350.839 273.421 350.949 273.421Z" fill="black"/>
<path d="M351.414 274.285C351.417 274.328 351.405 274.371 351.381 274.407C351.357 274.443 351.322 274.47 351.281 274.485C351.228 274.485 351.178 274.464 351.14 274.426C351.103 274.389 351.082 274.338 351.082 274.285C351.082 274.232 351.103 274.182 351.14 274.144C351.178 274.107 351.228 274.086 351.281 274.086C351.322 274.1 351.357 274.127 351.381 274.163C351.405 274.199 351.417 274.242 351.414 274.285ZM354.606 267.903C354.606 267.903 356.933 269.365 354.672 272.091C354.672 272.091 355.802 271.227 355.869 269.831C356.002 268.434 355.071 267.304 354.539 267.903H354.606ZM363.581 271.825C362.783 272.224 361.72 271.493 361.188 270.828C360.656 270.163 359.526 269.964 358.794 271.227C358.129 272.424 357.132 272.889 357.132 272.889C357.132 272.889 358.129 272.357 359.127 271.227C360.124 270.163 360.722 271.027 361.72 271.559C362.65 272.091 362.85 272.224 363.515 271.892V271.825H363.581Z" fill="black"/>
<path d="M363.382 272.025C363.17 272.189 362.906 272.272 362.638 272.26C362.37 272.248 362.115 272.141 361.919 271.958C361.254 271.426 360.789 270.761 360.057 271.16C359.259 271.559 357.863 272.623 357.863 272.623C357.863 272.623 360.19 271.027 360.656 271.426C361.055 271.759 362.118 272.623 362.717 272.357L363.382 272.025Z" fill="black"/>
<path d="M361.587 272.955C360.855 272.423 360.124 273.62 359.526 273.487C358.861 273.354 358.395 272.291 358.395 272.291C358.395 272.291 358.927 273.354 359.725 273.155C360.589 272.889 361.121 272.357 361.653 272.756C362.118 273.155 361.587 272.955 361.587 272.955Z" fill="black"/>
<path d="M360.457 273.155C360.267 273.194 360.07 273.191 359.882 273.146C359.693 273.101 359.517 273.015 359.365 272.895C359.213 272.774 359.089 272.622 359.002 272.449C358.915 272.276 358.867 272.086 358.861 271.892C358.861 271.892 359.326 273.088 360.589 272.889L360.457 273.155Z" fill="black"/>
<path d="M360.39 272.224C360.456 272.557 360.456 272.756 360.058 272.756C359.659 272.756 359.393 272.623 359.393 272.224C359.393 271.892 360.324 271.958 360.39 272.224ZM355.204 270.23C355.188 270.341 355.132 270.443 355.046 270.516C354.961 270.59 354.851 270.63 354.739 270.628C354.473 270.628 354.406 270.496 354.406 270.23C354.406 269.964 354.406 269.764 354.739 269.764C355.071 269.764 355.204 269.964 355.204 270.23Z" fill="black"/>
<path d="M353.542 268.567C353.542 268.567 356.068 268.567 354.872 271.692C354.872 271.692 355.802 270.163 355.204 269.033C354.539 267.969 353.675 268.235 353.675 268.235C353.675 268.235 353.409 268.434 353.542 268.567Z" fill="black"/>
<path d="M353.542 269.831C353.542 270.495 353.941 271.094 354.739 271.759L354.938 271.493C354.207 270.894 353.808 270.363 353.808 269.831C353.808 269.299 354.207 268.966 354.207 268.966L354.007 268.767C354.007 268.767 353.542 269.166 353.475 269.831H353.542Z" fill="black"/>
<path d="M354.074 270.362C354.14 270.695 354.473 271.027 354.871 271.16L355.004 270.894C354.672 270.761 354.406 270.495 354.34 270.23C354.207 269.698 354.605 269.099 354.605 269.099L354.34 268.9C354.34 268.9 353.874 269.698 354.074 270.362ZM357.464 272.091C357.464 272.091 357.93 273.088 357.265 274.152L356.6 275.216C356.6 275.216 357.398 273.687 357.065 273.088C356.8 272.424 357.464 272.091 357.464 272.091ZM367.171 282.596C369.698 283.061 375.482 287.582 375.482 287.582L375.815 287.183C375.615 286.984 369.897 282.529 367.238 282.064L367.105 282.596H367.171ZM369.432 288.912C369.565 291.239 372.091 292.635 372.091 292.702L372.424 292.236C372.424 292.236 370.097 290.907 369.964 288.912H369.432ZM363.249 289.444C363.249 291.97 365.642 295.029 365.775 295.162L366.174 294.829C366.174 294.829 363.781 291.771 363.781 289.444H363.249ZM355.204 289.71C355.603 290.574 355.603 290.973 355.47 291.173C355.337 291.439 355.071 291.439 355.071 291.439L355.137 291.97C355.337 291.97 355.736 291.837 355.935 291.439C356.201 290.973 356.135 290.308 355.669 289.444L355.204 289.71Z" fill="black"/>
<path d="M319 277.1C319 277.1 319 278.8 320.4 279.8C320.4 279.8 320.2 278 320.6 277.2C320.6 277.2 319.9 276.4 318.9 277.2L319 277.1ZM321.6 278.2C321.6 278.2 321.9 279.7 322.8 280.4L323.3 280.3C323.3 280.3 323.6 278.3 323.9 278.1C324.2 277.9 322.6 278.8 321.6 278.2Z" fill="white" stroke="black" stroke-width="0.2" stroke-miterlimit="3"/>
<path d="M323.9 278.1L324.9 279.7L326.1 279.1L325.8 277.2C325.8 277.2 325.1 277 323.8 278.2L323.9 278.1Z" fill="white" stroke="black" stroke-width="0.2" stroke-miterlimit="3"/>
<path d="M328.6 278.4L327.3 279.5C327.3 279.5 326.6 279 326 279.1L326.3 277.4C326.3 277.4 327.3 276.7 328.6 278.4ZM319.2 294.4C319.2 294.4 319 292.1 319.3 291.9C319.3 291.9 320.3 292.2 320.6 291.9C320.6 291.9 321.2 293.8 321 294.5C320.9 295.3 320 295 319.2 294.5V294.4ZM325.2 292C325.2 292 325.2 290 325.5 289.7C325.5 289.7 327.5 290 327.9 289L328.6 290.9C328.6 290.9 326.4 290.7 325.2 291.9V292Z" fill="white" stroke="black" stroke-width="0.2" stroke-miterlimit="3"/>
<path d="M323.1 292.4C323.1 292.4 323.5 290.3 323.9 290.2C323.9 290.2 324.9 290.5 325.2 290.2V292.7C325.2 292.7 325.2 291.6 323.2 292.4H323.1ZM320.9 292.7C320.9 292.7 321.3 290.8 321.6 290.8C321.9 290.8 322.7 291.3 323.1 291V292.4C323.1 292.4 321.4 292 321.1 294.4L320.9 292.7Z" fill="white"/>
<path d="M323.1 292.4C323.1 292.4 323.5 290.3 323.9 290.2C323.9 290.2 324.9 290.5 325.2 290.2V292.7C325.2 292.7 325.2 291.6 323.2 292.4H323.1ZM323.1 292.4V291C322.7 291.3 321.9 290.8 321.6 290.8C321.3 290.8 320.9 292.7 320.9 292.7L321.1 294.4C321.4 292 323.1 292.4 323.1 292.4Z" stroke="black" stroke-width="0.2" stroke-miterlimit="3"/>
<path d="M351 331.2C351 331.2 356.3 336.2 355 340.4C355 340.4 358.3 333.1 354.7 331C351 328.8 350.9 330.5 351 331.2Z" fill="#00A651" stroke="black" stroke-width="0.5" stroke-miterlimit="4.8"/>
<path d="M344.4 336C344.4 336 343 337.9 344.5 339.2C344.5 339.2 342.9 341.6 344.1 343.6C344.1 343.6 343.1 345.7 343.4 348C343.4 348 342.5 351.5 344.4 353.1C344.4 353.1 346.4 354.1 347.3 353.3C347.3 353.3 349 350.6 347.9 347.9C347.9 347.9 349.2 345.6 347.8 342.8C347.8 342.8 348.2 341.1 347 339.2C347 339.2 347.8 338 347.1 337C347.1 337 344.6 334.4 344.4 336Z" fill="#964B36" stroke="black" stroke-width="0.5" stroke-miterlimit="4.8"/>
<path d="M345.9 329.8C345.9 329.8 339.6 317.8 335.2 317.3C330.9 316.8 330.6 312.5 330.6 312.5C330.6 312.5 331.1 314.5 334.6 314.5C338.1 314.5 344.9 319.5 345.6 323.2C346.4 327 347.1 326.5 347.1 326.5L345.9 329.8Z" fill="#00A651" stroke="black" stroke-width="0.5" stroke-miterlimit="4.8"/>
<path d="M345.9 329C345.9 329 348.2 313.8 358.1 313.5C368 313.2 364.7 314.3 367.1 312.7C367.1 312.7 360.4 316.2 356.3 316.7C352.2 317.2 348.8 325.2 348.9 326.7C349 328.2 346.7 331.1 345.5 330.1C344.4 329.1 345.9 329 345.9 329Z" fill="#00A651" stroke="black" stroke-width="0.5" stroke-miterlimit="4.8"/>
<path d="M348.1 334.6C348.1 334.6 350.4 328.6 354.3 330.6C354.3 330.6 351.3 324.8 345.9 329.8C345.9 329.8 348.3 333.1 348.2 334.6H348.1ZM340.6 328.6C340.6 328.6 344 342 339 346C339 346 339.1 339.1 336.1 335C333.1 330.9 339.1 326.4 340.7 328.5L340.6 328.6Z" fill="#00A651" stroke="black" stroke-width="0.5" stroke-miterlimit="4.8"/>
<path d="M341 331C341 331 347 336.6 347.3 338.5C347.7 340.4 349 332.9 346.3 330.7C344.586 329.429 342.601 328.574 340.5 328.2L341 331Z" fill="#00A651" stroke="black" stroke-width="0.5" stroke-miterlimit="4.8"/>
<path d="M330.1 345.8C330.1 345.8 330.7 348.1 332.1 348.6C332.1 348.6 332.2 350.3 333.5 350.9C333.5 350.9 332.8 352.3 334 353.2C334 353.2 333.7 356.2 334.8 356.8C334.8 356.8 337.4 356.6 338.3 355.8C338.3 355.8 338.9 353.9 337.4 352C337.4 352 337.6 350.2 336.2 349.2C336.2 349.2 336.6 346.7 334.8 345.8C334.8 345.8 334.5 343.8 333.4 342.8C333.4 342.8 331.1 346 330.1 345.8Z" fill="#964B36" stroke="black" stroke-width="0.5" stroke-miterlimit="4.8"/>
<path d="M333 342.9C333 342.9 325.3 340 321 344.1C321 344.1 327.6 345 328.5 346.3C329.3 347.6 333.4 344.2 333.1 342.9H333Z" fill="#00A651" stroke="black" stroke-width="0.5" stroke-miterlimit="4.8"/>
<path d="M330.7 347.7L329.3 346.6C328.5 346.1 322 344.3 321.1 350.6C321.1 350.6 318.8 344.4 322.2 343.6C325.6 342.6 328.4 344.6 330.7 347.6M325.6 334.9C325.6 334.9 328 339.9 328.9 340.3C329.7 340.5 330.4 339.6 330.4 339.6C330.4 339.6 327.2 335 325.6 334.9ZM323.8 326.9C323.8 326.9 321.8 320.3 319.5 322.1C317.1 323.8 317.7 328.6 317.7 328.6C317.7 328.6 312.9 323.7 315.7 319.8C318.5 315.9 323.9 320.2 323.9 327L323.8 326.9Z" fill="#00A651"/>
<path d="M330.7 347.7L329.3 346.6C328.5 346.1 322 344.3 321.1 350.6C321.1 350.6 318.8 344.4 322.2 343.6C325.6 342.6 328.4 344.6 330.7 347.6M325.6 334.9C325.6 334.9 328 339.9 328.9 340.3C329.7 340.5 330.4 339.6 330.4 339.6C330.4 339.6 327.2 335 325.6 334.9ZM323.8 326.9C323.8 326.9 321.8 320.3 319.5 322.1C317.1 323.8 317.7 328.6 317.7 328.6C317.7 328.6 312.9 323.7 315.7 319.8C318.5 315.9 323.9 320.2 323.9 327L323.8 326.9Z" stroke="black" stroke-width="0.5" stroke-miterlimit="4.8"/>
<path d="M329.2 340.6C329.2 340.6 329.2 341.9 330.2 342.2C331 342.6 332.6 343.2 332.6 342.5C332.6 341.8 331.4 338.9 330.9 339.2C330.4 339.6 329.5 339.6 329.2 340.6Z" fill="#964B36" stroke="black" stroke-width="0.5" stroke-miterlimit="4.8"/>
<path d="M327.7 332.9C327.7 332.9 327.5 327.1 331.2 324.9C331.2 324.9 332 325.1 332.4 323.9C332.4 323.9 329.4 331.2 330.2 334.9V335.4" fill="#00A651"/>
<path d="M327.7 332.9C327.7 332.9 327.5 327.1 331.2 324.9C331.2 324.9 332 325.1 332.4 323.9C332.4 323.9 329.4 331.2 330.2 334.9V335.4" stroke="black" stroke-width="0.5" stroke-miterlimit="4.8"/>
<path d="M328.5 325.8C328.5 325.8 335.3 311.8 343.5 316.7C343.5 316.7 334.9 318.4 331.8 324.6L328.6 329.2L328.5 325.8Z" fill="#00A651" stroke="black" stroke-width="0.5" stroke-miterlimit="4.8"/>
<path d="M324.9 331C324.9 331 322.9 321.6 321.6 320.3C320.3 319.1 318.2 317.7 315.7 319.8C315.7 319.8 320.1 315.9 324.7 319.2C329.4 322.5 328.4 327.6 328.4 327.6L327.9 334.1L324.7 331.2" fill="#00A651"/>
<path d="M324.9 331C324.9 331 322.9 321.6 321.6 320.3C320.3 319.1 318.2 317.7 315.7 319.8C315.7 319.8 320.1 315.9 324.7 319.2C329.4 322.5 328.4 327.6 328.4 327.6L327.9 334.1L324.7 331.2" stroke="black" stroke-width="0.5" stroke-miterlimit="4.8"/>
<path d="M332.1 342.1C332.1 342.1 323.8 326.5 318.5 337.6C318.5 337.6 317.5 340.5 318.5 341.6C318.5 341.6 315.5 339.4 316.9 333.8C318.3 328.4 327.5 330.8 330.1 335.4C332.7 339.9 333.5 342.1 333.1 342.4C332.7 342.6 332.1 342.1 332.1 342.1ZM355.4 346.6C355.4 346.6 361.4 334.2 365 339.9C365 339.9 366 342.6 364.4 343.8C364.4 343.8 362.1 340.8 359.9 344.4C357.9 347.9 358.7 347.6 358.7 347.6C358.7 347.6 356.4 348.3 355.4 346.6Z" fill="#00A651" stroke="black" stroke-width="0.5" stroke-miterlimit="4.8"/>
<path d="M364.4 343.8C364.4 343.8 367.7 345.5 366.6 349C366.6 349 371 340.6 364.9 339.9C364.9 339.9 366.1 342.5 364.5 343.8H364.4ZM364.8 335.2C364.8 335.2 372.8 337.5 373 340.9C373 340.9 374.3 334.4 369.8 332.4C369.8 332.4 364.4 333.2 364.8 335.2Z" fill="#00A651" stroke="black" stroke-width="0.5" stroke-miterlimit="4.8"/>
<path d="M368.3 324.8C371.7 318.2 376 327 376 327C376 327 377.5 320 373.2 318.8C368.9 317.6 366.2 333.5 366.2 333.5L361.2 334.6C361.2 334.6 362.6 320.7 370.1 319.4L371 319.6" fill="#00A651"/>
<path d="M368.3 324.8C371.7 318.2 376 327 376 327C376 327 377.5 320 373.2 318.8C368.9 317.6 366.2 333.5 366.2 333.5L361.2 334.6C361.2 334.6 362.6 320.7 370.1 319.4L371 319.6" stroke="black" stroke-width="0.5" stroke-miterlimit="4.8"/>
<path d="M362.3 328.8C362.3 328.8 357.5 319.1 354.3 318.1C351 317.1 356.1 315.6 358.1 317.4C360.1 319.4 363.8 321.7 363.4 326.7L362.4 328.8H362.3ZM357.4 342.2C357.4 342.2 358.8 335.6 362.6 333.6C366.3 331.6 369.8 332.3 369.8 332.3C369.8 332.3 365.3 333.3 364.6 335.6C363.8 337.9 362.6 338 362.6 338L357.4 342.2Z" fill="#00A651" stroke="black" stroke-width="0.5" stroke-miterlimit="4.8"/>
<path d="M355.4 346.6C355.4 346.6 353.3 350.6 353.8 351.3C353.8 351.3 351.5 354.5 352.4 356.2C352.4 356.2 354.7 357.9 355.7 357.2C355.7 357.2 358.3 353.5 357.6 351.5C357.6 351.5 359.3 349.1 358.6 347.6C358.6 347.6 356.1 347.8 355.4 346.6Z" fill="#964B36" stroke="black" stroke-width="0.5" stroke-miterlimit="4.8"/>
<path d="M344.4 339.5C344.5 339.5 345.8 340.2 346.7 339.9L347.3 339.4L346.8 339.1C346.5 339.7 345.1 339.2 344.6 339L344.4 339.5ZM344.2 343.4L344.1 343.9C344.2 343.9 346.7 344.4 348 343.3L347.6 342.9C346.6 343.9 344.2 343.4 344.2 343.4ZM343.5 347.8L343.2 348.2C343.2 348.2 346.2 350.4 348.2 348.1L347.7 347.7C346.1 349.7 343.7 347.9 343.6 347.7L343.5 347.8ZM332.1 348.4V348.7C332.3 348.7 334.8 347.7 335 345.8H334.7C334.5 347.5 332.1 348.4 332.1 348.4ZM333.5 350.7V351C333.6 351 335.9 350.8 336.3 349.2H336C335.7 350.6 333.5 350.7 333.5 350.7ZM334 353.1V353.4C334 353.4 336.7 353.5 337.5 352.1L337.3 351.9C336.5 353.2 334 353.1 334 353.1ZM353.6 351.5C353.6 351.5 354.8 352.6 356.1 352.5C356.424 352.494 356.743 352.419 357.035 352.281C357.328 352.144 357.589 351.946 357.8 351.7L357.4 351.4C357.056 351.754 356.593 351.967 356.1 352C355.701 351.982 355.31 351.884 354.949 351.712C354.589 351.54 354.266 351.298 354 351L353.6 351.5Z" fill="#000001"/>
<path d="M431.4 360.6C431.245 360.668 431.109 360.771 431 360.9L431.4 360.6ZM440.6 358.3C440.6 358.1 440.5 358.2 440.4 358.1L440 357.3H439.7L439 355.9C439.017 355.834 439.017 355.766 439 355.7C439.004 355.567 439.004 355.433 439 355.3C438.9 355.2 438.8 355.3 438.7 355.1V354.4L438.6 354V353.4C438.613 353.267 438.613 353.133 438.6 353C438.4 352.6 438.2 352.3 438.2 351.8L438.3 350.8L438.1 349.8L438.3 348.9V343.6C438.1 343.2 438.2 342.9 438.1 342.6V340.6L438 343.1C438 340.9 437.8 338.8 437.8 338.8L434.5 337.3C434.5 337.3 434.2 343.4 434.3 344.3C434.3 345.1 434.6 351 434.5 351.7C434.3 352.4 434 355.9 434 355.9C434 355.9 432.4 357.1 431.7 358.4C431.1 359.6 431.2 360.1 431 360.1L432.6 359.8L431.4 360.6C431.515 360.553 431.641 360.538 431.764 360.555C431.887 360.573 432.003 360.623 432.1 360.7L432.4 360.9L432.6 360.7L433.3 361.1L433.7 360.8L433.9 360.4H435C435.3 360.4 435.5 360 435.8 359.7C436.1 359.5 436.3 359.4 436.6 359.4C436.9 359.4 437.2 359.7 437.5 359.8C437.7 359.8 437.9 359.8 438.1 359.5L438.4 358.9H440.3L440.6 359.1L440.7 358.7V358.3H440.6Z" fill="#964B36"/>
<path d="M431.4 360.6C431.245 360.668 431.109 360.771 431 360.9L431.4 360.6ZM431.4 360.6L432.6 359.8L431 360.1C431.2 360.1 431.1 359.6 431.7 358.4C432.4 357.1 434 355.9 434 355.9C434 355.9 434.3 352.4 434.5 351.7C434.6 351 434.3 345.1 434.3 344.3C434.2 343.4 434.5 337.3 434.5 337.3L437.8 338.8C437.8 338.8 438 340.9 438 343.1L438.1 340.6V342.6C438.2 342.9 438.1 343.2 438.3 343.6V348.9L438.1 349.8L438.3 350.8L438.2 351.8C438.2 352.3 438.4 352.6 438.6 353C438.613 353.133 438.613 353.267 438.6 353.4V354L438.7 354.4V355.1C438.8 355.3 438.9 355.2 439 355.3C439.004 355.433 439.004 355.567 439 355.7C439.017 355.766 439.017 355.834 439 355.9L439.7 357.3H440L440.4 358.1C440.5 358.2 440.6 358.1 440.6 358.3H440.7V358.7L440.6 359.1L440.3 358.9H438.4L438.1 359.5C437.9 359.8 437.7 359.8 437.5 359.8C437.2 359.7 436.9 359.4 436.6 359.4C436.3 359.4 436.1 359.5 435.8 359.7C435.5 360 435.3 360.4 435 360.4H433.9L433.7 360.8L433.3 361.1L432.6 360.7L432.4 360.9L432.1 360.7C432.003 360.623 431.887 360.573 431.764 360.555C431.641 360.538 431.515 360.553 431.4 360.6Z" stroke="black" stroke-width="0.3" stroke-miterlimit="4.8"/>
<path d="M433.9 360.5L434.4 360.6L434.5 360.8C434.53 360.818 434.565 360.827 434.6 360.827C434.635 360.827 434.67 360.818 434.7 360.8L435 360.9H435.3L435.7 361C435.9 361.1 436.1 361 436.3 360.9C436.5 360.7 436.6 360.9 436.8 361.1C437 361.3 437 361.2 437.1 361.1C437.099 361.067 437.099 361.033 437.1 361L437.4 360.9L437.8 360.8L438.1 360.6L438.5 360.8C438.571 360.824 438.638 360.857 438.7 360.9C438.9 360.6 439.3 360.5 439.5 360.3H440.8C440.9 360.2 440.9 360.1 441.1 360.1L441.8 360.5C441.9 360.5 442.5 360.7 442.4 360.2C442.4 359.8 442 360.1 441.9 359.8V359.2C441.865 359.109 441.811 359.027 441.742 358.958C441.673 358.889 441.591 358.835 441.5 358.8H441.2L441 358.3C440.9 358.3 440.8 358.4 440.6 358.3L440.4 358.1C440.1 357.8 439.9 358.3 439.7 358.2C439.5 358.2 439.3 357.7 439.1 357.5C439.1 357.4 438.8 357 438.7 357.1C438.5 357.2 438.7 357.6 438.6 357.8C438.5 357.9 438.2 357.8 438.2 357.8C438 357.8 438 357.8 437.9 358.1C437.6 358.4 437.5 358.7 437.2 358.7L436.7 358.5C436.6 358.6 436.5 358.8 436.3 358.8C436.168 358.827 436.032 358.827 435.9 358.8C435.7 358.8 435.6 358.5 435.5 358.4C435.5 358.373 435.489 358.348 435.471 358.329C435.452 358.311 435.427 358.3 435.4 358.3C435.373 358.3 435.348 358.311 435.329 358.329C435.311 358.348 435.3 358.373 435.3 358.4L435.1 358.3C434.9 358.2 434.9 358.3 434.8 358.5V359L434.4 359.4L434 359.5C433.9 359.5 433.7 359.8 433.6 359.5C433.5 359.1 433.9 358.4 433.4 358.5C433.4 358.5 433.2 358.5 433.1 358.8V359.4C433.1 359.7 432.5 360.2 432.6 360.4C432.6 360.7 432.9 360.4 433 360.4C433.1 360.5 433 360.7 433.2 360.8C433.3 361.1 433.9 360.4 433.9 360.8M431.8 358.1V358L431.3 357.8L430.9 358.2C430.6 358.7 430.7 359.2 430.2 359.2H429.8C429.6 359.3 429.8 359.7 429.8 359.9V360.2C429.7 360.2 429.6 360.2 429.5 360.4C429.5 360.8 429.8 360.7 429.9 360.7H430.9L431.5 360.5L432 360.4C432.087 360.242 432.154 360.074 432.2 359.9V359.5C432.2 359.3 432.4 359.4 432.5 359.1C432.5 358.4 431.8 358.9 431.9 358.2" fill="#964B36"/>
<path d="M433.9 360.5L434.4 360.6L434.5 360.8C434.53 360.818 434.565 360.827 434.6 360.827C434.635 360.827 434.67 360.818 434.7 360.8L435 360.9H435.3L435.7 361C435.9 361.1 436.1 361 436.3 360.9C436.5 360.7 436.6 360.9 436.8 361.1C437 361.3 437 361.2 437.1 361.1C437.099 361.067 437.099 361.033 437.1 361L437.4 360.9L437.8 360.8L438.1 360.6L438.5 360.8C438.571 360.824 438.638 360.857 438.7 360.9C438.9 360.6 439.3 360.5 439.5 360.3H440.8C440.9 360.2 440.9 360.1 441.1 360.1L441.8 360.5C441.9 360.5 442.5 360.7 442.4 360.2C442.4 359.8 442 360.1 441.9 359.8V359.2C441.865 359.109 441.811 359.027 441.742 358.958C441.673 358.889 441.591 358.835 441.5 358.8H441.2L441 358.3C440.9 358.3 440.8 358.4 440.6 358.3L440.4 358.1C440.1 357.8 439.9 358.3 439.7 358.2C439.5 358.2 439.3 357.7 439.1 357.5C439.1 357.4 438.8 357 438.7 357.1C438.5 357.2 438.7 357.6 438.6 357.8C438.5 357.9 438.2 357.8 438.2 357.8C438 357.8 438 357.8 437.9 358.1C437.6 358.4 437.5 358.7 437.2 358.7L436.7 358.5C436.6 358.6 436.5 358.8 436.3 358.8C436.168 358.827 436.032 358.827 435.9 358.8C435.7 358.8 435.6 358.5 435.5 358.4C435.5 358.373 435.489 358.348 435.471 358.329C435.452 358.311 435.427 358.3 435.4 358.3C435.373 358.3 435.348 358.311 435.329 358.329C435.311 358.348 435.3 358.373 435.3 358.4L435.1 358.3C434.9 358.2 434.9 358.3 434.8 358.5V359L434.4 359.4L434 359.5C433.9 359.5 433.7 359.8 433.6 359.5C433.5 359.1 433.9 358.4 433.4 358.5C433.4 358.5 433.2 358.5 433.1 358.8V359.4C433.1 359.7 432.5 360.2 432.6 360.4C432.6 360.7 432.9 360.4 433 360.4C433.1 360.5 433 360.7 433.2 360.8C433.3 361.1 433.9 360.4 433.9 360.8M431.8 358.1V358L431.3 357.8L430.9 358.2C430.6 358.7 430.7 359.2 430.2 359.2H429.8C429.6 359.3 429.8 359.7 429.8 359.9V360.2C429.7 360.2 429.6 360.2 429.5 360.4C429.5 360.8 429.8 360.7 429.9 360.7H430.9L431.5 360.5L432 360.4C432.087 360.242 432.154 360.074 432.2 359.9V359.5C432.2 359.3 432.4 359.4 432.5 359.1C432.5 358.4 431.8 358.9 431.9 358.2" stroke="black" stroke-width="0.3" stroke-miterlimit="4.8"/>
<path d="M440.2 338.7C440.2 339.7 439.6 340.4 438.8 340.4C438 340.4 437.4 339.6 437.4 338.7C437.4 337.8 438 337.1 438.8 337.1C439.6 337.1 440.2 337.8 440.2 338.7ZM435.7 336.7C435.7 337.7 435 338.3 434.3 338.3C433.5 338.3 432.9 337.6 432.9 336.7C432.9 335.8 433.5 335.1 434.3 335.1C435 335.1 435.7 335.8 435.7 336.7Z" fill="black" stroke="black" stroke-width="0.5" stroke-miterlimit="4.8"/>
<path d="M438 337.3C438 338.3 437.4 339 436.7 339C435.9 339 435.3 338.2 435.3 337.3C435.3 336.4 435.9 335.7 436.7 335.7C437.4 335.7 438 336.4 438 337.3Z" fill="black" stroke="black" stroke-width="0.5" stroke-miterlimit="4.8"/>
<path d="M435.7 338.8C435.7 339.8 435.1 340.5 434.4 340.5C433.6 340.5 433 339.7 433 338.8C433 337.9 433.6 337.2 434.4 337.2C435.1 337.2 435.7 337.9 435.7 338.8Z" fill="black" stroke="black" stroke-width="0.5" stroke-miterlimit="4.8"/>
<path d="M437.9 340C437.9 341 437.3 341.7 436.5 341.7C435.7 341.7 435.1 341 435.1 340.1C435.1 339.1 435.7 338.4 436.5 338.4C437.3 338.4 437.9 339.2 437.9 340.1V340Z" fill="black" stroke="black" stroke-width="0.5" stroke-miterlimit="4.8"/>
<path d="M438.5 322.3C438.5 322.3 452.5 302.9 467.4 323.1C467.4 323.1 467.4 325.1 466.1 327.1L465.7 325.6L464.9 325.8L464.6 324.8L463 324.7L463.5 322.6L461.7 323.9L462 322.4L460 324.4L460.2 320.2L458.1 323.8L458.3 321.3L457.6 322.4L457.1 321L456.5 322.4L455.5 321.7V322.7L453.7 321.2L453.1 323.2L452.1 321.1L451.9 322.5L451.1 320.8L450.9 322.7L448.1 321.4L448.7 323.2L447.3 322.2L447.6 323.2L445.6 322.8L445.8 323.9L443.8 323.6L444.2 324.6L441.4 324.2L442.4 325.3L442.1 325.8C442.1 325.8 457.2 320.8 458.2 339.6L455.5 341L456.2 339.5L455.5 339L453.2 337.2L453.8 334.8L453.1 335.1L452.9 333.7L452.6 334L451.6 332.6L451.4 333.1L450.8 331.4L450.2 332.6L449.8 329.8L448.8 331.6L448.7 330.6L448.3 331.2L447.1 329.7L446.7 330.7L446.2 329.9L445.8 330.9L444.4 329.6V330.6L443.6 329.8L443.2 330.3L441 329.2V330.2L439.8 329.2L439.4 330.2C439.4 330.2 453.1 338 448.8 350.6L448.1 352.3L447.8 348L446.6 350.3L447.4 345.3L446.6 346.3L446.4 344.3L445.3 346.3L444.9 344.1L444.4 344.7L443.7 341.5L443 342.9L442 339.2L441.3 340.7L440.8 337.6L440.3 339.5L438.8 336.7L438.5 337.8L437.7 335.6L437.2 336.3C437.2 336.3 434.7 336.3 433.9 335.6C433.1 335 431 339.4 431 339.4L431.3 336.7L430.3 338.5V336.7L428.8 342L428.4 338.2L427.5 341.5L427.1 340.5L426.9 341.9L426.4 341.4L425.9 342.8L425.1 342.2V344.2L424.4 343.2L423.7 346.2L423.4 345V346.4L422.7 345.6L422.1 348.6L421.2 347.4V349.5L421.5 351.1L420.5 350.6L420.9 353.3C420.9 353.3 416.9 346 421.6 339C426.3 332 432.6 330 432.6 330L431.9 329.5L431.8 328.8L428 330.8L428.1 329.6L427.1 330.4L426.9 329.2L426.3 330.3L426.1 329.8L425.3 331.2L424.8 329.2L424.1 331.6L423.5 329.9L422.2 333.5V330.8L421.2 333.6L420.9 330.6L420.1 334.1V330.9L419 334.1L418.2 331.1L417.7 334L417 331.7L416.2 335.1L415.1 332.1L414.5 336.6L413.7 334.8L413.6 338.1L412.7 336.1L413.6 340.3L412.5 338.7L412.8 341.3L411.2 338.5L411.3 341.9L410.5 340.7L410.1 342C410.1 342 409.7 329 418.6 326.4C427.5 323.9 433.3 327.2 433.3 327.2L429.9 324.4L430.3 323.6H429L429.5 322.6H427L427.7 321.6L425.7 321.9V321.3L424.5 322.3L425 321.2L423.2 322.3V320.6L422.2 322.1L421.7 320.6L417.7 324.6L418.8 320.4L418.1 321.4L418 320.4L416.8 322.2L416.6 320.9L416.1 322.4L415.7 320.7L414.8 322.4L414 320.8L413.6 322.9L412.9 321.9L412.2 323.4L411.2 322.4L411.1 323.4L409.1 322.6L409.6 324.1L408.1 322.8L407.7 324.8L406.8 323.8L406.2 326.3L405.6 323.9L404.9 325.9C404.9 325.9 412.8 305.7 432.6 318.9C432.6 318.9 434.8 320.9 435.3 322.4C435.8 323.9 435.3 322.7 435.3 322.7L435 308.7L435.8 314.7L436.3 312.7L436.1 315.7L438.1 311.4C438.1 311.4 435.8 318.7 436.6 321.4C436.6 321.4 437.6 312.9 440.6 311.9L437.8 317.9L438.6 317.8L438 319H438.8L437.8 321L437.4 322L437.9 323L438.6 322.3H438.5Z" fill="#00A651" stroke="black" stroke-width="0.5" stroke-miterlimit="4.8"/>
<path d="M436.5 330.5L436.9 330.8C436.9 330.8 438.2 329.5 440.2 331.2L440.6 330.8C438.1 328.7 436.5 330.5 436.5 330.5ZM435.9 323.7L435.8 324.1L436.8 323.7L436.1 324.9L437.5 324.4L435.7 326.7L436.2 327.1L439 323.3L437.2 323.9L438 322.6L436.5 323.3L436.8 321.3H436.3L435.9 323.7Z" fill="black"/>
<path d="M433.2 323.8L433.8 325.2L432.8 324.8L435.8 329.8L436.1 329.4L435.5 330.9L436 331.1L437.3 327.9L436.8 327.6L435.8 328.9L434.1 325.9L434.9 326.2L434.1 324.4L435.1 325.1V323.1H434.6V324.1L433 323L433.3 323.8H433.2ZM431.4 330.2L431.6 330.7C432.4 330.4 433 330.3 433.6 330.6C434.1 330.8 434.3 331.4 434.3 331.4L434.8 331.3C434.8 331.3 434.6 330.5 433.8 330.1C433.1 329.8 432.3 329.8 431.4 330.2ZM433.6 335.6L433.2 332.8H433.7L434.2 335.6H433.6ZM437.5 335.2L436.8 333L437.3 332.9L438 335L437.5 335.2ZM438.9 336.8L438.4 334.6L438.9 334.5L439.4 336.6L438.9 336.8Z" fill="black"/>
<path d="M332 401C332 401 329.6 400 328.5 400.8C327.5 401.6 327.5 402.7 326.6 402.6C326.6 402.6 330.2 403.4 331 402.5L332 401.3M332.4 402.1C332.4 402.1 330.8 404.1 331.4 405.3C331.9 406.5 333 406.6 332.8 407.5C332.8 407.5 334.3 404.2 333.6 403.3L332.6 402.1M329.8 396.3C329.8 396.3 327.3 397.1 327 398.3C326.7 399.7 327.6 400.4 326.9 401C326.9 401 330 399.2 330 398C330.009 397.498 329.976 396.996 329.9 396.5M331.2 397.2C331.2 397.2 332.4 394.9 331.6 393.8C330.9 392.7 329.7 392.8 329.9 391.8C329.9 391.8 328.9 395.4 329.9 396.2L330.9 397.2M328.8 396.3C328.8 396.3 328.8 393.8 327.7 393.1C326.6 392.4 325.6 393 325.3 392.1C325.3 392.1 325.9 395.7 327.1 396.1L328.6 396.4M333 400.6C333 400.6 335.7 399.7 336 402.6C336.1 405.6 335.8 404.6 335.8 404.6C335.8 404.6 334.4 401.4 332.8 400.9L333 400.6Z" fill="#00A651"/>
<path d="M332 401C332 401 329.6 400 328.5 400.8C327.5 401.6 327.5 402.7 326.6 402.6C326.6 402.6 330.2 403.4 331 402.5L332 401.3M332.4 402.1C332.4 402.1 330.8 404.1 331.4 405.3C331.9 406.5 333 406.6 332.8 407.5C332.8 407.5 334.3 404.2 333.6 403.3L332.6 402.1M329.8 396.3C329.8 396.3 327.3 397.1 327 398.3C326.7 399.7 327.6 400.4 326.9 401C326.9 401 330 399.2 330 398C330.009 397.498 329.976 396.996 329.9 396.5M331.2 397.2C331.2 397.2 332.4 394.9 331.6 393.8C330.9 392.7 329.7 392.8 329.9 391.8C329.9 391.8 328.9 395.4 329.9 396.2L330.9 397.2M328.8 396.3C328.8 396.3 328.8 393.8 327.7 393.1C326.6 392.4 325.6 393 325.3 392.1C325.3 392.1 325.9 395.7 327.1 396.1L328.6 396.4M333 400.6C333 400.6 335.7 399.7 336 402.6C336.1 405.6 335.8 404.6 335.8 404.6C335.8 404.6 334.4 401.4 332.8 400.9L333 400.6Z" stroke="black" stroke-width="0.5" stroke-miterlimit="4.8"/>
<path d="M332.3 402.1L332.6 404.4H333L332.7 402.1L333.7 397.2H333.2L332.3 402.1Z" fill="black"/>
<path d="M329.9 401.4L329.7 401.7C331 402.2 332.8 400.7 332.9 400.7L332.7 400.4C332.7 400.4 330.9 401.8 329.9 401.4ZM333.2 398.5L327.2 395.5L327.4 395L333.4 398L333.2 398.5Z" fill="black"/>
<path d="M328.9 397.8L328.5 397.5L329.7 396.2L330.1 396.6L328.9 397.8ZM330.9 397.2L329.7 394.5L330.2 394.2L331.5 397L330.9 397.2ZM332.8 400.6V401.2C334.4 401.1 334.8 402.2 334.8 402.2L335.4 402C335.4 401.7 334.7 400.5 332.8 400.6Z" fill="black"/>
<path d="M360.5 401.9C362.5 400.8 362.9 396.8 362.9 396.8C362.5 398.2 358.8 399.7 358.8 399.7C361.5 398 364.8 390.3 364.8 390.3C363.9 393.1 356.8 395.3 352.1 397.9C347.5 400.5 349.9 407.9 349.9 407.9C347.709 405.61 346.247 402.722 345.7 399.6C345.2 396.1 343.8 394.8 340.7 394.4C337.5 394 335.7 397.5 335.7 397.5L331 400L335.7 400.2C335.7 400.2 339.1 401.3 339.1 404C339.1 406.7 336.1 417.3 341.1 423.3C344.5 427.4 357.1 429.8 357.1 429.8" fill="white"/>
<path d="M360.5 401.9C362.5 400.8 362.9 396.8 362.9 396.8C362.5 398.2 358.8 399.7 358.8 399.7C361.5 398 364.8 390.3 364.8 390.3C363.9 393.1 356.8 395.3 352.1 397.9C347.5 400.5 349.9 407.9 349.9 407.9C347.709 405.61 346.247 402.722 345.7 399.6C345.2 396.1 343.8 394.8 340.7 394.4C337.5 394 335.7 397.5 335.7 397.5L331 400L335.7 400.2C335.7 400.2 339.1 401.3 339.1 404C339.1 406.7 336.1 417.3 341.1 423.3C344.5 427.4 357.1 429.8 357.1 429.8" stroke="black" stroke-width="0.7" stroke-miterlimit="4.8"/>
<path d="M351.3 410.1C351.3 410.1 352.3 405.3 355.3 405.5C358.5 405.7 359.4 402 361.3 401.4C363.1 400.8 372.7 398.3 373.8 393.6C373.8 393.6 372.8 401.2 364.1 405C364.1 405 371.1 402.7 372 401.1C372 401.1 368.8 407.9 361.2 409C361.2 409 368.4 408.4 369.4 406.5C369.4 406.5 366.2 410.8 360.9 411.3C360.9 411.3 365.8 413.3 367.1 411.6C367.1 411.6 364.4 414.8 361.1 415L362 415.3C362 415.3 358.8 419 355.4 416.5C351.9 414 351.8 417.1 351.8 417.1" fill="white"/>
<path d="M351.3 410.1C351.3 410.1 352.3 405.3 355.3 405.5C358.5 405.7 359.4 402 361.3 401.4C363.1 400.8 372.7 398.3 373.8 393.6C373.8 393.6 372.8 401.2 364.1 405C364.1 405 371.1 402.7 372 401.1C372 401.1 368.8 407.9 361.2 409C361.2 409 368.4 408.4 369.4 406.5C369.4 406.5 366.2 410.8 360.9 411.3C360.9 411.3 365.8 413.3 367.1 411.6C367.1 411.6 364.4 414.8 361.1 415L362 415.3C362 415.3 358.8 419 355.4 416.5C351.9 414 351.8 417.1 351.8 417.1" stroke="black" stroke-width="0.7" stroke-miterlimit="4.8"/>
<path d="M358.4 417.3C358.4 417.3 362.4 424.1 362.9 427.7C362.9 427.7 370.6 436.3 373.5 436.7C373.5 436.7 372.2 437.3 369.7 435.2C369.7 435.2 371.7 437.4 372.2 437.5C372.6 437.5 370.5 437.3 370.2 436.7C370.2 436.7 371 438 371.6 438.2L371 438C371 438 370 437.9 369.5 437.5C369 437.1 369.3 438.5 369.3 438.5C369.3 438.5 368.1 438.2 367.7 437.8C367.3 437.4 367.9 438.7 367.9 438.7L366.9 438.4L366.1 438.9C366.1 438.9 366.1 439.4 365.5 439C365.1 438.6 364.2 439 364.2 439C364.2 439 363.5 439.6 363.2 439.2C362.9 438.8 361.7 440.7 361.7 440.7L356.6 428.4" fill="white"/>
<path d="M358.4 417.3C358.4 417.3 362.4 424.1 362.9 427.7C362.9 427.7 370.6 436.3 373.5 436.7C373.5 436.7 372.2 437.3 369.7 435.2C369.7 435.2 371.7 437.4 372.2 437.5C372.6 437.5 370.5 437.3 370.2 436.7C370.2 436.7 371 438 371.6 438.2L371 438C371 438 370 437.9 369.5 437.5C369 437.1 369.3 438.5 369.3 438.5C369.3 438.5 368.1 438.2 367.7 437.8C367.3 437.4 367.9 438.7 367.9 438.7L366.9 438.4L366.1 438.9C366.1 438.9 366.1 439.4 365.5 439C365.1 438.6 364.2 439 364.2 439C364.2 439 363.5 439.6 363.2 439.2C362.9 438.8 361.7 440.7 361.7 440.7L356.6 428.4" stroke="black" stroke-width="0.7" stroke-miterlimit="4.8"/>
<path d="M363.2 439.6L356.8 427.3L357.5 427L363.9 439.2L363.2 439.6ZM368.8 438.7L357.8 426.4L358.4 425.9L369.4 438.2L368.8 438.7ZM371.4 437.7L358.8 426L359.3 425.4L372 437L371.4 437.7Z" fill="black"/>
<path d="M339.846 398.282C339.846 398.282 339.048 396.819 338.316 397.417C337.652 397.949 337.253 398.082 337.12 398.016C337.12 398.016 337.785 398.016 338.25 397.683C338.649 397.284 339.314 397.484 339.846 398.348V398.282ZM335.458 397.617L335.923 398.547L335.391 400.077L335.79 400.21L336.255 398.547L335.79 397.484L335.458 397.617Z" fill="black"/>
<path d="M339.713 398.082C339.713 398.082 339.048 398.747 338.25 398.614L337.386 398.414H338.582C339.048 398.414 339.646 398.215 339.713 398.082Z" fill="black"/>
<path d="M339.513 398.215C339.513 398.215 338.715 397.417 338.184 397.683C338.184 397.683 339.114 397.351 339.646 398.149L339.513 398.215Z" fill="black"/>
<path d="M339.38 398.082C339.38 398.082 338.516 398.68 337.585 398.082L337.519 397.949H337.651C337.651 397.949 338.782 398.415 339.38 398.082Z" fill="black"/>
<path d="M338.649 398.215C338.796 398.215 338.915 398.096 338.915 397.949C338.915 397.802 338.796 397.683 338.649 397.683C338.502 397.683 338.383 397.802 338.383 397.949C338.383 398.096 338.502 398.215 338.649 398.215Z" fill="black"/>
<path d="M339.4 420.4C339.4 420.4 338.7 421.7 339.1 422.4C339.4 423.1 341 423.5 341.1 424.5C341.4 425.5 341.9 425.5 342.6 425.3L343.6 425.2C343.6 425.2 340.5 423.5 339.6 420.9L339.4 420.4Z" fill="black"/>
<path d="M438.8 395.6C438.8 395.6 444.3 388.2 449.3 390.2C454.3 392.2 457.5 393.1 457.5 393.1C457.5 393.1 457.6 398.1 455 398.1C452.3 398.1 449.8 393.1 447.4 394.5C445 396 443 398 442.9 398.7C442.7 399.4 436.5 399.6 438.8 395.7V395.6Z" fill="#964B36" stroke="black" stroke-width="0.3" stroke-miterlimit="4.8"/>
<path d="M417.5 431.2C417.5 431.2 416 432.8 416.7 433.2C417.4 433.6 418.7 433.2 418.7 432.6C418.7 432 417.8 431 417.5 431.2Z" fill="#964B36" stroke="black" stroke-width="0.5" stroke-miterlimit="4.8"/>
<path d="M416.3 432.8C416.3 432.8 413.4 431.1 411.2 435C408.9 438.9 407 445.2 405.7 446C404.4 446.8 418.5 439.8 418.7 436.9C418.7 436.9 419.7 433.1 418.1 433.1C416.7 433.2 416.6 433.4 416.3 432.7V432.8Z" fill="#964B36" stroke="black" stroke-width="0.5" stroke-miterlimit="4.8"/>
<path d="M416.7 433.2C416.7 433.2 413.7 433.9 413.1 438.1C412.5 442.3 408.4 444.4 408.1 444.6M457.5 393C457.5 393 453 394.6 453.8 397.7Z" fill="#964B36"/>
<path d="M416.7 433.2C416.7 433.2 413.7 433.9 413.1 438.1C412.5 442.3 408.4 444.4 408.1 444.6M457.5 393C457.5 393 453 394.6 453.8 397.7" stroke="black" stroke-width="0.3" stroke-miterlimit="4.8"/>
<path d="M423.1 402.1C423.1 402.1 423.2 391.5 431.9 392C433.6 392.1 432.8 394 432.8 394C432.8 394 434.7 392.7 435.5 394.8C435.5 394.8 438.3 393.6 438.5 396.3C438.5 396.3 441.5 395.9 441.2 398.3C441.2 398.3 443.2 397.9 443.2 399.6C443.2 399.6 445.5 398.6 445.2 401C445.2 401 447.8 399.3 447.4 402.4C447.4 402.4 450.1 400.6 451 403.7C452 406.7 448.3 413.4 444.8 415.1" fill="#FFF200"/>
<path d="M423.1 402.1C423.1 402.1 423.2 391.5 431.9 392C433.6 392.1 432.8 394 432.8 394C432.8 394 434.7 392.7 435.5 394.8C435.5 394.8 438.3 393.6 438.5 396.3C438.5 396.3 441.5 395.9 441.2 398.3C441.2 398.3 443.2 397.9 443.2 399.6C443.2 399.6 445.5 398.6 445.2 401C445.2 401 447.8 399.3 447.4 402.4C447.4 402.4 450.1 400.6 451 403.7C452 406.7 448.3 413.4 444.8 415.1" stroke="black" stroke-width="0.3" stroke-miterlimit="4.8"/>
<path d="M447.2 402.8C447.2 402.8 448.4 411.1 443.7 414.1L443.9 414.3C448.7 411.3 447.5 402.8 447.5 402.7H447.2V402.8ZM441.6 411.8L441.8 412C444.8 409.1 445.4 401.4 445.4 401H445.1C445.1 401.1 444.5 409 441.6 411.8ZM438.8 409.9H439.1C439.5 405.2 443.3 399.7 443.3 399.7L443 399.5C443 399.5 439.2 405.1 438.8 409.9ZM436.7 408.5H437C437.5 402.8 441.3 398.5 441.3 398.5L441.1 398.2C441.1 398.2 437.2 402.7 436.7 408.5ZM433.7 406.6H433.9C434.2 399.8 438.7 396.5 438.8 396.4L438.6 396.2C438.6 396.2 433.9 399.6 433.6 406.6H433.7ZM430.8 404.9H431.2C430.9 398.7 435.7 394.9 435.7 394.9L435.6 394.7C435.6 394.7 430.6 398.6 430.8 404.9ZM425.8 402.7H426.1C426.323 400.774 427.091 398.951 428.313 397.446C429.535 395.94 431.161 394.814 433 394.2L432.9 393.9C431.019 394.552 429.362 395.726 428.123 397.284C426.883 398.842 426.112 400.72 425.9 402.7H425.8Z" fill="black"/>
<path d="M418 415C418 415 416.5 405.2 422.4 402C422.4 402 423.4 401.8 424.1 403.2C424.1 403.2 427.2 401.9 427.3 404.5C427.3 404.5 428.8 403.3 429.3 405C429.3 405 432.6 404.3 431.9 406.8C431.9 406.8 434.7 406 434.5 408.4C434.5 408.4 437.3 407.4 436.8 409.4C436.8 409.4 439.8 408.8 439.1 411.2C439.1 411.2 442.7 410.8 441.6 413.4C441.6 413.4 444.3 412.7 443.7 414.8C443.7 414.8 447.3 415.4 445.7 417.6C443.106 420.802 439.731 423.281 435.9 424.8" fill="#00A651"/>
<path d="M418 415C418 415 416.5 405.2 422.4 402C422.4 402 423.4 401.8 424.1 403.2C424.1 403.2 427.2 401.9 427.3 404.5C427.3 404.5 428.8 403.3 429.3 405C429.3 405 432.6 404.3 431.9 406.8C431.9 406.8 434.7 406 434.5 408.4C434.5 408.4 437.3 407.4 436.8 409.4C436.8 409.4 439.8 408.8 439.1 411.2C439.1 411.2 442.7 410.8 441.6 413.4C441.6 413.4 444.3 412.7 443.7 414.8C443.7 414.8 447.3 415.4 445.7 417.6C443.106 420.802 439.731 423.281 435.9 424.8" stroke="black" stroke-width="0.3" stroke-miterlimit="4.8"/>
<path d="M414.8 425C414.8 425 412.4 416.7 417 414.6C417 414.6 417.8 414.4 418 415.2C418 415.2 419 413.9 419.8 415.1C419.8 415.1 422.1 414 422.6 415.7C422.6 415.7 424.2 414.4 425 416.3C425 416.3 426.4 415.7 426.4 417.3C426.4 417.3 428.4 416.3 428.4 418.3C428.4 418.3 430.4 417.5 430 419.6C430 419.6 433 420 432 421.4C432 421.4 434.7 422.1 433.7 423.2C433.7 423.2 436.6 422.9 435 424.8C435 424.8 437.2 424.1 436 426.5C434.7 428.9 430.9 431.5 428.1 431.9" fill="#00A651"/>
<path d="M414.8 425C414.8 425 412.4 416.7 417 414.6C417 414.6 417.8 414.4 418 415.2C418 415.2 419 413.9 419.8 415.1C419.8 415.1 422.1 414 422.6 415.7C422.6 415.7 424.2 414.4 425 416.3C425 416.3 426.4 415.7 426.4 417.3C426.4 417.3 428.4 416.3 428.4 418.3C428.4 418.3 430.4 417.5 430 419.6C430 419.6 433 420 432 421.4C432 421.4 434.7 422.1 433.7 423.2C433.7 423.2 436.6 422.9 435 424.8C435 424.8 437.2 424.1 436 426.5C434.7 428.9 430.9 431.5 428.1 431.9" stroke="black" stroke-width="0.3" stroke-miterlimit="4.8"/>
<path d="M417.7 431.4C417.7 431.4 412.6 426.4 415 425C415 425 416 425.3 416.4 426.4C416.4 426.4 417.7 424.6 418.4 426.4C418.4 426.4 420.2 425.8 420.2 427.1L421.7 428.1C421.7 428.1 423.4 428.1 423.1 429.1C423.1 429.1 425 428.9 424.9 429.9C424.9 429.9 426.5 429.9 426.4 431C426.4 431 429.1 431.5 427.9 432.9C427.9 432.9 423 433.9 419.6 432.5C419.6 432.5 417.8 431.9 417.6 431.5L417.7 431.4Z" fill="#00A651" stroke="black" stroke-width="0.3" stroke-miterlimit="4.8"/>
<path d="M435.2 423.2L435.3 423.5C438.3 422.3 443.6 415.2 443.8 414.8L443.6 414.7C443.6 414.7 438.2 422.1 435.2 423.2ZM433.5 421.9L433.6 422.2C436.657 419.654 439.379 416.731 441.7 413.5L441.5 413.3C441.5 413.3 436.1 420.5 433.5 421.9ZM432 421.3L432.2 421.5C435 419.2 439 411.5 439.2 411.3L438.9 411.1C438.9 411.2 434.7 419.1 431.9 421.3H432ZM430.6 419.5H430.9C431.5 415.7 436.9 409.7 436.9 409.5L436.7 409.4C436.5 409.6 431.2 415.6 430.7 419.5H430.6ZM419.8 414.9H420.1C419.6 409.4 424.1 403.4 424.2 403.3L424 403.1C424 403.1 419.3 409.3 419.8 414.9ZM422.6 415.3H422.9C422.2 410.9 427.3 404.7 427.4 404.6L427.2 404.4C426.9 404.7 421.9 410.8 422.6 415.4V415.3ZM427 416.9H427.3C427.3 411.9 432 406.9 432 406.9L431.8 406.7C431.8 406.7 426.9 411.8 427 416.9ZM416.5 425.9H416.8C415.1 421.3 418.1 415.4 418.1 415.3L417.8 415.2C417.8 415.2 414.8 421.2 416.5 426V425.9ZM418.5 426.3L418.8 426.2C417.3 421.5 419.8 415.2 419.9 415.2L419.6 415C419.6 415 417 421.5 418.6 426.3H418.5ZM426.8 431L426.9 431.3C431.9 429.5 435.1 425 435.2 424.9L434.9 424.8C434.9 424.8 431.7 429.2 426.9 431H426.8ZM425.8 429.9L425.9 430.2C429.9 428.4 433.6 423.4 433.6 423.4L433.4 423.2C433.4 423.2 429.7 428.2 425.8 429.9ZM424.8 429.5L425 429.8C428.1 427.5 432 421.8 432.1 421.8L431.9 421.6C431.9 421.6 427.9 427.3 424.9 429.6L424.8 429.5ZM419.9 426.6H420.2C420.082 422.832 420.98 419.101 422.8 415.8L422.5 415.6C422.5 415.6 419.2 421.6 419.9 426.6ZM422.1 428L422.3 428.2C425.5 425.3 426.5 417.6 426.6 417.2H426.3C426.3 417.3 425.2 425.2 422.1 428Z" fill="black"/>
<path d="M424.3 428.9L424.4 429.2C428.9 425.9 430.1 419.6 430.2 419.6H429.9C429.9 419.6 428.7 425.7 424.3 428.9ZM424.8 415.5V416.3L421.4 427.3L421.7 427.4L425.1 416.4C424.6 411 429.3 405.1 429.3 405.1L429.1 404.9C429.1 404.9 424.8 410.3 424.8 415.5Z" fill="black"/>
<path d="M428.3 418.1C428.3 418.3 427.3 425.9 423.2 428.7L423.3 428.9C427.5 426 428.6 418.6 428.6 418.3C430.4 416.1 434.6 408.5 434.6 408.5L434.4 408.3C434.4 408.4 430.2 415.9 428.4 418.1H428.3ZM416.3 426.4C416.3 426.6 417 430.4 417.8 431.7L418 431.5C417.3 430.2 416.6 426.5 416.6 426.4H416.3ZM418.3 426.4C418.3 428.4 418.3 431.4 418.1 431.7H418.4C418.6 431.4 418.5 427.3 418.5 426.5H418.2L418.3 426.4Z" fill="black"/>
<path d="M418.4 431.8L418.7 432C420 429.1 420.4 427.1 420.4 427.1H420.1C420.1 427.1 419.7 429.1 418.4 431.8Z" fill="black"/>
<path d="M418.7 432L418.8 432.2C420.286 431.312 421.363 429.875 421.8 428.2H421.5C421.5 428.2 421 430.6 418.7 431.9V432ZM419.1 432.1V432.4C421.5 432.2 423.1 429.3 423.2 429.2L423 429C423 429 421.3 432 419.1 432.1Z" fill="black"/>
<path d="M419.4 432.3V432.6C420.463 432.583 421.511 432.342 422.476 431.894C423.44 431.446 424.3 430.801 425 430L424.8 429.8C424.8 429.8 423 432.1 419.4 432.3Z" fill="black"/>
<path d="M419.6 432.4V432.7C419.8 432.7 424.6 433.7 426.3 431.2L426.1 431C424.5 433.4 419.7 432.4 419.6 432.4Z" fill="black"/>
<path d="M310.2 254V390.4C310.2 435 390.8 461.5 390.8 461.5C390.8 461.5 471.4 435 471.4 390.5V254H310.2Z" stroke="black" stroke-width="2.8" stroke-miterlimit="4.8"/>
<path d="M0 0H256V256H0V0Z" fill="#012169"/>
<path d="M256 0V32L161 128L256 221.5V256H222.5L127 162L34 256H0V222L93 128.5L0 37V0H31L127 94L220 0H256Z" fill="white"/>
<path d="M92 162L97.5 179L21 256H0V254.5L92 162ZM154 156L181 160L256 233.5V256L154 156ZM256 0L160 98L158 76L233 0H256ZM0 0.5L96.5 95L67 91L0 24.5V0.5Z" fill="#C8102E"/>
<path d="M88 0V256H168V0H88ZM0 88V168H256V88H0Z" fill="white"/>
<path d="M0 104V152H256V104H0ZM104 0V256H152V0H104Z" fill="#C8102E"/>
</g>
<defs>
<clipPath id="clip0_2_3172">
<rect width="512" height="512" fill="white"/>
</clipPath>
</defs>
</svg>
