<svg width="512" height="512" viewBox="0 0 512 512" fill="none" xmlns="http://www.w3.org/2000/svg">
<g clip-path="url(#clip0_2_3284)">
<path d="M0 0H512V512H0V0Z" fill="#012169"/>
<path fill-rule="evenodd" clip-rule="evenodd" d="M315.192 323.163C314.556 323.147 313.919 323.178 313.288 323.258C310.051 323.83 304.91 334.397 302.15 340.585C297.675 345.916 295.39 350.105 293.582 353.151C292.82 354.389 291.678 355.722 292.058 357.34C285.394 358.958 285.014 364.67 285.014 366.86C285.014 369.335 285.775 370.478 285.775 370.478L289.774 377.903V377.998C294.058 386.852 300.246 398.657 303.863 399.609C308.814 401.037 321.761 396.277 331.471 387.994C350.181 395.786 370.229 399.86 390.495 399.99C413.153 399.99 433.526 394.563 449.424 387.994C459.134 396.277 471.986 401.037 477.032 399.609C480.554 398.657 486.838 386.757 491.122 377.998L495.025 370.478C495.025 370.478 495.786 369.335 495.786 366.955C495.786 364.766 495.406 358.958 488.742 357.435C489.122 355.817 488.075 354.389 487.314 353.151C485.41 350.01 483.125 345.821 478.746 340.394C475.89 334.206 470.749 323.83 467.607 323.258C463.038 322.497 453.327 324.782 453.327 325.638V326.114L433.621 344.488C433.621 344.964 434.573 358.292 438.381 370.192C422.952 375.681 406.68 378.42 390.305 378.284C371.455 378.284 355.366 374.952 342.324 370.097C344.774 361.711 346.369 353.099 347.084 344.393L327.568 326.114V325.638C327.568 324.972 320.047 323.163 315.192 323.163ZM320.142 346.011C322.618 346.011 325.188 348.106 327.378 350.295L327.187 351.628C326.41 355.059 325.392 358.431 324.141 361.719C319.279 358.927 314.717 355.641 310.527 351.914C312.622 349.629 316.049 346.582 319.666 346.106L320.142 346.011ZM460.658 346.011H461.134C464.751 346.582 468.178 349.629 470.368 351.914C466.15 355.647 461.556 358.933 456.659 361.719C455.407 358.432 454.389 355.059 453.613 351.628C453.531 351.187 453.467 350.742 453.422 350.295C455.517 348.01 458.182 346.011 460.658 346.011ZM302.626 372.096C305.196 374.095 308.623 376.38 312.717 378.76C311.612 379.501 310.388 380.048 309.099 380.378C307.386 380.759 305.672 380.664 303.863 380.283C303.182 378.551 302.796 376.717 302.721 374.857C302.67 373.937 302.638 373.017 302.626 372.096ZM478.27 372.096L478.079 374.857C478.003 376.716 477.616 378.55 476.937 380.283C475.435 380.641 473.876 380.69 472.354 380.428C470.832 380.167 469.379 379.599 468.083 378.76C472.272 376.38 475.699 374.095 478.27 372.096Z" fill="url(#paint0_linear_2_3284)" stroke="white" stroke-width="9.52"/>
<path fill-rule="evenodd" clip-rule="evenodd" d="M332.098 357.13C332.098 357.13 325.235 346.042 319.696 346.924C314.038 347.68 308.74 354.736 308.379 355.114C305.245 352.338 302.454 349.163 300.071 345.664C300.432 345.286 308.74 324.874 313.315 323.992C318.157 323.521 323.035 324.3 327.522 326.26L332.098 357.13Z" fill="url(#paint1_linear_2_3284)" stroke="black" stroke-width="1.47802"/>
<path fill-rule="evenodd" clip-rule="evenodd" d="M347.148 345.286C347.148 346.042 344.74 375.274 335.108 385.48C325.476 395.686 309.462 401.986 303.804 400.474C298.265 398.836 285.382 369.352 285.382 369.352C285.382 369.352 298.988 383.464 309.101 381.07C319.215 378.802 325.235 361.036 327.161 352.342C329.088 343.774 327.522 326.764 327.522 326.764L347.268 345.286H347.148Z" fill="url(#paint2_linear_2_3284)" stroke="black" stroke-width="1.47802"/>
<path fill-rule="evenodd" clip-rule="evenodd" d="M448.802 357.13C448.802 357.13 455.665 346.042 461.203 346.924C466.862 347.68 472.16 354.736 472.521 355.114C475.655 352.338 478.446 349.163 480.829 345.664C480.467 345.286 472.16 324.874 467.585 323.992C462.743 323.521 457.865 324.3 453.377 326.26L448.802 357.13Z" fill="url(#paint3_linear_2_3284)" stroke="black" stroke-width="1.47802"/>
<path fill-rule="evenodd" clip-rule="evenodd" d="M433.752 345.286C433.752 346.042 436.16 375.274 445.792 385.48C455.424 395.686 471.437 401.986 477.096 400.474C482.635 398.836 495.517 369.352 495.517 369.352C495.517 369.352 481.912 383.464 471.799 381.07C461.685 378.802 455.665 361.036 453.739 352.342C451.812 343.774 453.377 326.764 453.377 326.764L433.632 345.286H433.752Z" fill="url(#paint4_linear_2_3284)" stroke="black" stroke-width="1.47802"/>
<path fill-rule="evenodd" clip-rule="evenodd" d="M302.293 340.347C297.819 345.774 295.439 350.058 293.535 353.199C291.631 356.341 292.773 360.815 297.057 367.003C301.817 373.667 340.278 400.038 390.448 400.038C440.619 400.038 479.079 373.762 483.744 367.003C488.123 360.72 489.266 356.341 487.362 353.199C485.458 350.058 483.078 345.774 478.603 340.347C478.603 348.534 446.711 378.427 390.448 378.427C334.185 378.427 302.293 348.534 302.293 340.347Z" fill="url(#paint5_linear_2_3284)" stroke="black" stroke-width="1.428"/>
<path fill-rule="evenodd" clip-rule="evenodd" d="M476.231 396.13L484.9 381.136L480.565 377.986C479.361 381.766 474.425 383.026 473.582 387.814C472.739 392.602 476.953 397.264 476.231 396.13Z" fill="url(#paint6_linear_2_3284)" stroke="black" stroke-width="1.47802"/>
<path fill-rule="evenodd" clip-rule="evenodd" d="M484.2 391.78C484.2 391.78 485.765 385.102 480.829 384.22C476.013 383.464 473.364 388 474.086 386.236C474.809 384.22 477.698 382.33 478.18 375.652C478.541 368.974 477.819 365.32 477.819 365.32C477.819 365.32 479.745 356.752 487.571 357.886C495.518 359.146 495.879 365.446 495.879 367.714C495.879 369.982 495.156 371.242 495.156 371.242L484.2 391.78Z" fill="url(#paint7_linear_2_3284)" stroke="black" stroke-width="1.47802"/>
<path d="M456.8 366.1L458.4 369L459.4 368.3L458.7 366.5L458.9 366.1L460.8 364.9L465.6 373.6V374L464.6 374.7L465.1 375.5L469.7 372.5L469.3 371.7L468.3 372.3H467.8L463 363.6L464.8 362.4H465.2L466.4 364L467.4 363.3L465.8 360.5L456.8 366.2V366.1ZM445.1 372.8L445.5 373.6L446.5 373.2L446.9 373.3L451.1 382.1V382.5L450.1 383.1L450.5 383.9L455.1 381.5L454.7 380.6L453.7 381H453.3L451.3 376.8L456 374.4L458 378.4V378.8L457 379.5L457.4 380.3L462.1 377.9L461.7 377.1L460.7 377.5L460.3 377.3L456 368.6L456.1 368.2L457.1 367.6L456.7 366.8L452 369.2L452.4 370L453.4 369.6L453.8 369.7L455.6 373.3L450.9 375.8L449.1 372.2L449.3 371.8L450.2 371.2L449.8 370.4L445.1 372.8ZM442.4 380.3L442.7 381.1L444 380.8L444.4 381L445.4 384.6L444.4 385C441.8 385.8 439.6 384.5 438.7 381.3C437.7 378.2 438.8 375.8 441.4 375C441.921 374.859 442.465 374.825 443 374.9L443.3 375.1L444.3 376.8L445.5 376.4L444.7 373.4C443.2 373.4 441.9 373.6 440.7 374C436.9 375.3 435.1 378.4 436.1 382.1C437.1 385.8 440.4 387.5 444.1 386.3C445.437 385.845 446.688 385.169 447.8 384.3L446.6 380.3L446.8 380L447.8 379.6L447.6 378.6L442.4 380.3ZM431.6 390.5L436.8 388.9L436.6 387.9L435.3 388.2L435 388.1L432.2 378.6L432.3 378.3L433.5 377.8L433.2 377L428 378.6L428.2 379.4L429.5 379.2L429.8 379.3L432.6 388.8L432.4 389.1L431.4 389.6L431.6 390.5ZM403.2 395.1L412.4 394.3L412.1 391H411L410.8 393L410.6 393.4L406.6 393.8L406.2 388.8H408.5L408.8 389L409 390.3H410L409.7 385.9H408.7V387.3L408.4 387.7L406.2 387.8L405.8 383.4L409.2 383.2L409.5 383.3L409.8 385L411 384.9L410.8 381.9L402.2 382.8V383.6H403.3L403.5 383.9L404.4 393.7L404.2 394L403.2 394.2V395.1ZM389.4 383V384H390.5L390.7 384.3L390.9 394.1L390.7 394.4L389.7 394.6V395.4H394.6V394.5H393.6L393.2 394.1V389.5L398.1 389.4L398.2 394L398 394.4H397V395.4H401.8V394.4H400.8L400.5 394L400.4 384.2L400.6 383.8H401.6V382.8H396.7V383.8L397.7 383.9L398.1 384.2V388.2L393.1 388.3V384.3L393.4 384H394.4V383H389.4ZM379 382.7V386H380.2L380.5 384L380.7 383.8H382.7V393.8L382.4 394.2H381.3V395.2H386.4V394.4L385.3 394.2L385 393.9L385.1 383.9H387.1L387.5 384.1L387.7 386.1H388.9V382.9L379 382.7ZM363.1 393.2L372.1 393.6L372.2 390.4L371.2 390.3L370.8 392.3L370.5 392.5L366.6 392.3L366.9 387.4L369.1 387.6L369.2 387.8L369.4 389.2H370.4L370.5 385H369.5L369.3 386.2L369.1 386.4H366.9L367.1 382L370.4 382.1L370.6 382.4L370.9 384H372V381L363.7 380.6V381.6L364.7 381.7L364.9 382L364.5 391.8L364.2 392.1H363.2V393.1L363.1 393.2ZM342.5 387.8L347.2 389.5L347.5 388.6L346.5 388.2L346.3 387.8L349.2 378.4L349.5 378.2L350.7 378.5L350.9 377.6L346.1 376L345.8 376.8L346.8 377.3L347.1 377.6L344.1 387L343.8 387.3L342.8 386.9L342.5 387.8ZM333.9 384.6C334.793 385.313 335.81 385.856 336.9 386.2C339.5 387 341.6 386 342.3 384C342.462 383.451 342.483 382.87 342.361 382.31C342.238 381.751 341.977 381.231 341.6 380.8C340.8 379.8 340.1 379.3 339.7 378.8C339 378 338.7 377.2 338.9 376.4C339.2 375.5 340.2 375 341.4 375.4L342.5 376.1V376.4L342.3 378.3L343.5 378.7L344.3 375.9C343.479 375.167 342.53 374.591 341.5 374.2C339.2 373.4 337.3 374.5 336.6 376.4C336.468 376.869 336.436 377.36 336.505 377.842C336.574 378.324 336.742 378.787 337 379.2C337.6 380.1 338.3 380.7 338.8 381.2C339.8 382.2 340.1 383.1 339.8 384C339.5 385 338.5 385.5 337.2 385C336.724 384.809 336.285 384.539 335.9 384.2L335.7 383.9L336.1 381.7L334.9 381.3L333.9 384.6ZM323.1 380L331.3 384L332.6 381L331.6 380.6L330.6 382.2L330.3 382.4L326.7 380.6L328.7 376.3L330.7 377.3V377.6L330.4 378.9L331.3 379.4L333 375.4L332.2 375L331.4 376.1L331.1 376.3L329.1 375.3L330.9 371.3L333.9 372.8L334.1 373.2L333.6 374.7L334.6 375.2L335.9 372.6L328.2 368.8L327.9 369.6L328.7 370.1L328.9 370.6L324.9 379.4L324.5 379.5L323.5 379.2L323.1 380ZM321.8 365.2L317.8 362.3L317.2 363.1L318.1 363.8V364.2L312.9 372.3L312.5 372.4L311.7 371.9L311.1 372.8L315.2 375.5C316.7 376.5 317.9 377 319.2 376.8C320.9 376.7 322.5 375.7 323.6 373.8C325.6 370.6 325.1 367.4 321.8 365.2ZM320.1 365.2L320.9 365.8C323.1 367.3 323.3 369.5 321.5 372.3C319.7 375.1 317.6 375.9 315.5 374.3L314.6 373.9L320.1 365.3V365.2ZM352.7 378.1L352.5 378.9L353.5 379.2L353.7 379.5L351.7 389.1L351.4 389.4L350.4 389.3L350.2 390.1L354.9 391.1L355.1 390.4L354.1 390L353.8 389.6L354.6 385.6H355C356.6 386 357 386.9 357 388.7C357 389.7 357 390.4 357.8 391.4C358.1 391.8 358.6 392.2 359.5 392.4C360.028 392.505 360.563 392.572 361.1 392.6L361.2 391.7H361.1C359.9 391.4 359.5 391 359.4 390C359.3 389 359.4 388 359 387C358.707 386.329 358.172 385.793 357.5 385.5C359.5 385.5 360.5 384.7 360.9 383.1C361.3 381.1 360.3 379.7 357.7 379.1L352.7 378.1ZM355.9 379.8L356.6 379.9C358.2 380.3 358.9 381.3 358.6 382.8C358.2 384.5 357.3 385.1 355.5 384.7C355.3 384.7 355.1 384.7 354.9 384.5L355.9 379.8ZM416.3 380.8L416.4 381.8H417.8L419.4 391.7L419.1 391.9L418.1 392.2L418.2 393L423.2 392.2V391.3L422 391.4L421.7 391.2L421.1 387.1H421.4C423.2 386.7 423.8 387.4 424.7 389.1C425.1 389.9 425.3 390.7 426.4 391.3C426.9 391.5 427.6 391.7 428.4 391.5C429.011 391.375 429.612 391.208 430.2 391L430 390.2H429.8C428.6 390.4 428 390.2 427.4 389.3C426.9 388.5 426.6 387.5 426 386.8C425.5 386.3 424.8 386 424 386C425.9 385.2 426.8 384 426.5 382.3C426.2 380.3 424.5 379.4 421.8 379.8L416.3 380.8ZM420.2 381.2H421C422.7 380.8 423.8 381.5 424 383C424.2 384.7 423.5 385.6 421.6 386H420.9L420.1 381.2H420.2Z" fill="black"/>
<path fill-rule="evenodd" clip-rule="evenodd" d="M304.669 396.13L296 381.136L300.335 377.986C301.539 381.766 306.475 383.026 307.318 387.814C308.16 392.602 303.947 397.264 304.669 396.13Z" fill="url(#paint8_linear_2_3284)" stroke="black" stroke-width="1.47802"/>
<path fill-rule="evenodd" clip-rule="evenodd" d="M296.7 391.78C296.7 391.78 295.135 385.102 300.071 384.22C304.887 383.464 307.536 388 306.814 386.236C306.091 384.22 303.202 382.33 302.72 375.652C302.359 368.974 303.081 365.32 303.081 365.32C303.081 365.32 301.155 356.752 293.329 357.886C285.382 359.146 285.021 365.446 285.021 367.714C285.021 369.982 285.744 371.242 285.744 371.242L296.7 391.78Z" fill="url(#paint9_linear_2_3284)" stroke="black" stroke-width="1.47802"/>
<path fill-rule="evenodd" clip-rule="evenodd" d="M390.568 373.56C390.568 373.56 299.666 346.596 300.268 244.788L300.87 109.968H480.145L480.747 244.032C481.349 345.84 390.447 373.434 390.447 373.434L390.568 373.56Z" fill="#0072C4" stroke="white" stroke-width="4.80356"/>
<path fill-rule="evenodd" clip-rule="evenodd" d="M313.3 140.1C313.5 140.1 314.5 139.1 315.6 138.1C317 137.4 318.3 136.5 319.6 135.7C320.8 135.2 322.9 134.7 323.8 134.2C325.15 133.567 326.345 132.645 327.3 131.5C327.4 129.7 327.7 128.4 327.7 126.4L331.7 124.4C333.7 123.8 334 123.1 335.9 122.8C337.1 122.4 339.1 122.4 340.8 122.4C342.7 122.4 343.8 123.8 345.5 124C347.5 124.8 348.5 125.4 350.1 126.8C350.9 127.9 351.5 128.8 353.1 129.7C354.2 130.4 355.4 131.3 356.8 131.7C358.4 132.6 359.7 133.1 360.9 134.4C362.1 135.2 362.6 136.4 363.5 137.2C364.721 138.238 366.026 139.175 367.4 140C369 141 370.6 141.8 373.1 141.6C374.5 141.6 376 141.4 377.6 141.6C379.5 141.6 381.3 141.6 382.9 142.1C384.9 142.1 386.4 142.3 388.2 142.5C389.9 142.8 391.6 142.8 393.4 142.8C395.1 143.3 396.9 143.2 398.7 143.2H409.3C411.3 143.2 413.2 143.3 414.5 143.6C416.273 143.58 418.043 143.446 419.8 143.2C421.8 143.2 423.4 142.9 425.5 142.8H431.8C433.5 143.3 435.6 143.6 436.8 144.5C438.3 144.9 439 145.6 440.5 146.1C441.951 146.707 443.249 147.629 444.3 148.8C445.483 150.096 446.492 151.542 447.3 153.1C448.3 154.6 448.7 156.4 449.5 158.2C449.9 160 450.3 161.7 450.3 163.7C450.7 165.4 450.7 167.3 450.7 169.2C450.2 171 450.2 173 449.5 174.7C449.5 176.7 449.1 178.4 448.8 179.8C448.5 181.5 448 182.5 448 184.6V190.1C448 191.9 447.5 193.1 447.3 195.1C446.287 197.047 445.385 199.05 444.6 201.1C443.43 201.914 442.414 202.93 441.6 204.1C440.8 204.8 440.4 205.5 440.5 205.8C442 206.3 441.6 207.4 441.6 209.3C441.8 210.9 441.9 212.8 442.4 214.5C442.5 216.3 442.9 217.5 443.4 218.8C444.1 219.6 444.3 219.2 442.7 219.2C441.7 220 440.5 219.6 440.1 218C439.254 216.675 438.74 215.166 438.6 213.6C438.4 211.9 438.1 210.1 437.6 208.9C437.3 206.7 436.7 206.7 434.6 206.6C433.5 205.6 432.1 205.4 430 205.4C428 205.4 427.8 205.2 427.7 207.4V212.9C427.3 214.5 426.7 215.8 426.2 217.2C425.1 218 424.6 219.4 423.2 220.3C422.5 222.1 421.6 222.4 419.8 222.8L417.6 220C418.6 218.2 419.6 218 420.2 216C421 214.5 421.5 213.5 422 212.1C421.2 210.9 420.6 210.3 419.8 208.6C418.976 207.245 418.305 205.803 417.8 204.3C416.7 203.8 414.8 203.7 413.8 203.1C411.9 202.6 411.5 204.7 409.3 204.7H404C401.7 204.7 401.1 205.9 399.1 205.8C398.5 206 397.1 205.8 395 205.8C393.4 206.4 391.5 206.2 389.7 206.2C387.8 206.2 386.3 205.7 384.8 205.4C383.1 204.9 381.4 204.4 379.6 204.3C377.3 204.3 376.5 204.4 375 205.4C373.9 206.1 372.2 207.7 371 208.6C370.4 209.9 370.1 212.1 369.3 213.6C369 215.3 368.3 216.2 367.8 217.6C367.205 219.134 366.868 220.756 366.8 222.4C366.6 225 366.1 224.7 364.5 223.9C363.9 222.8 362.9 221.6 362.2 220.3C362.6 218.3 363 217.4 363 215.3C362.6 213.6 361.8 213.8 360.8 214.9C360.8 216.9 360.8 218.5 359.9 219.6C359.589 220.85 358.799 221.928 357.7 222.6C357.2 224.2 355.9 224.9 354.7 225.5V223.8C353.8 222.1 354.7 220.6 354.7 218.4C354.7 216.4 354.6 215.1 355.1 213.4C355.1 211.4 354.3 209.6 354 208.2C353.3 206.7 352.9 206 351 205.4C349.6 204.8 347.7 204.2 346.8 203C345.945 201.796 344.766 200.86 343.4 200.3C341.8 199.7 340.9 199.1 339.6 198.3C338.6 197 337.6 196.5 337 194.8C336.2 193.6 336.1 191.3 335.6 189.7C335.417 188.086 335.014 186.504 334.4 185C334.234 183.36 333.865 181.748 333.3 180.2L332.2 175.1C332.2 173.2 332.2 171.3 331.7 169.6V164.1C331.5 162.5 331.4 160.1 331 159C331 156.8 330.8 155.7 330.2 154.2C329.4 152.8 329.4 152.2 328 151.9C327 153.1 325.5 153.7 323.5 153.9C322.1 153.6 320.2 153.3 318.6 152.7C317.1 152.4 316.1 151.7 314.9 151.1C314.19 150.025 313.423 148.991 312.6 148C312.3 146 311.9 144.9 311.8 142.8C311.8 141.4 311.8 142.2 313.4 140.1H313.3Z" fill="#BCBCBC"/>
<path fill-rule="evenodd" clip-rule="evenodd" d="M335.6 154.3L335.9 154C335.2 154.6 335.5 154.3 336.9 153.7C337.8 153.3 339.3 152.4 339.9 151.7C340.5 151.5 341.7 151 342.3 150.4C343 149.6 343.7 148.9 344.7 148.2C345.7 147.3 346.7 147 347.9 146.2C349.3 146.1 349.9 145.4 351.3 145.9C352.6 146.2 353.2 146.2 354.3 145.1C355.3 144.5 356.5 143.7 356.9 142.7V140.9C356.9 142.7 356.5 143.4 355.3 143.9C354.5 145 353.3 146.1 352.9 147.1C352 148.3 351.9 148.9 351.1 149.5C350.3 150.4 349.1 150.9 348.9 152.4C349.3 153 348.9 153.4 349.8 153.4C350.5 154.1 351.3 153.8 352.4 153.4C353.237 152.45 353.912 151.369 354.4 150.2L356.4 147.3C357.4 146.7 357.9 146.2 358.2 145.1C359.2 144.5 360.2 143.8 360.9 143.1C361.7 142.7 362.1 142.3 363.3 142.1C363.365 143.16 363.085 144.213 362.5 145.1C362.2 146.7 362.3 147.4 362.8 148.4C363.5 148.9 363.4 149.4 363.8 150.4C364.3 149.4 364.5 147.6 364.7 146.4V146.2C364.7 147.4 364.7 149 364.3 149.8C364.3 151.5 364.8 152.2 365.2 153.4C365.6 154.1 366 154.4 366.5 154.8C366.5 153.2 367 152.2 367 150.8C367.4 151.8 367.3 153.3 367.5 154.6C367.6 155.9 368.1 156.8 368.5 157.9C369.2 158.2 369.4 159.4 369.6 158.5C370.3 156.5 370.3 154.4 370.7 152.4C370.679 151.239 370.882 150.084 371.3 149L370.7 152.3C370.7 151.3 370.9 149.8 371.3 149V148.7C371.573 150.186 371.74 151.69 371.8 153.2C371.8 154.4 371.8 155.6 372.1 156.8C372.9 156.4 373.5 155.4 374 154.3C374.542 153.222 375.213 152.215 376 151.3L374 154.3C374.542 153.222 375.213 152.215 376 151.3V151C375.86 152.262 375.793 153.531 375.8 154.8C375.8 156.1 375.8 157.6 376.1 158.5C376.4 159.9 376.8 160.2 376.9 161.7C376.9 162.5 376.7 163.4 377.1 163.7C378.3 164 378.3 163.4 378.4 161.8C378.4 160 378.9 158.8 379 157.1C379 155 379.3 157.3 379.5 158.1C379.986 159.275 380.257 160.529 380.3 161.8C380.3 162.6 380.3 163.4 380.6 163.8C381.6 163.3 382 162.1 382.6 161.5L384.3 158.7C385.7 158.5 385.6 157.9 385.6 156.3C385.6 154.9 385.6 153.5 385.9 152.3C386.334 151.122 386.701 149.92 387 148.7C387.5 148.4 388 149.2 388.3 149.8C388.9 150.8 388.8 152 388.8 153.4C389.142 154.581 389.612 155.721 390.2 156.8C390.708 157.782 391.347 158.69 392.1 159.5C392.3 160.5 392.3 162 392.3 163.2C393.3 162 393.5 160.2 393.6 158.5C393.4 157.3 393.4 155.7 393.1 154.5C393.043 153.379 392.841 152.269 392.5 151.2C391.7 150.8 391.5 150.4 392.3 149.2C393.1 148.5 394.1 148.9 395.5 149C396.2 149.8 396.5 150.2 396.5 151.8C396.5 153.3 396.5 154.4 397.1 155.4C397.6 156.2 398.1 156.8 398.4 158.1C398.8 158.6 399.1 159.1 399.7 158.5C400 157.7 400.3 156 400.5 155.1C400.8 154.1 401.3 153.5 401.8 153.1C401.8 154.7 401.8 155.6 402.4 156.8L403.7 159.8C404.3 160.3 404.4 161.1 405.1 161.5C405.3 160.2 405.3 158.7 405.3 157.1V153.1C405.4 151.9 405.7 151.1 406.2 150.1C407 151.2 407 151.6 407 153.1C407.8 152.8 408 152.2 408.3 151.2C408.8 150.6 409.1 150.4 409.3 151.8L410.1 155.9C410.6 156.6 411.3 158.1 411.9 158.7C412.383 159.525 412.953 160.296 413.6 161C414 161.8 414.1 162.4 415.2 162.6C415.2 160.8 415.2 158.9 414.9 157.1C414.9 155.5 414.5 154.9 414.4 153.4C413.9 152.5 413.7 151.1 413.8 150.6C414.891 151.519 415.748 152.685 416.3 154L417.9 157.7C418.658 158.529 419.328 159.434 419.9 160.4C420.9 161.2 421.4 162.1 422.4 162.9C422.9 163.4 424 163.7 424.2 163.4C424.2 161.8 423.9 160.4 423.4 159C423.396 157.852 423.122 156.722 422.6 155.7C421.6 154.8 420.7 154.2 420.2 152.9C419.8 152.5 419.8 152.3 419.7 151.5C421.092 152.639 422.335 153.95 423.4 155.4C423.943 156.25 424.702 156.94 425.6 157.4C426 158 427.6 158.7 428.7 159C429.368 159.871 430.326 160.474 431.4 160.7L428.7 159C429.368 159.871 430.326 160.474 431.4 160.7V161C431.216 159.398 430.669 157.859 429.8 156.5C429.259 155.289 428.394 154.251 427.3 153.5C426.646 152.47 425.755 151.613 424.7 151C424 150.2 422.9 148.7 422.3 148.2C423.5 147.4 424.8 148.7 426 149.2C427.1 150.4 428 151.9 428.7 152.6C429.34 153.953 430.183 155.201 431.2 156.3C432.3 156.9 433 157.6 434 158.5C435.7 158.9 435 158.3 434.6 157.1C434 155.5 434.6 155.5 435.6 156.5C436.4 157.1 437.3 157.9 438.3 158.5C438.8 159 439.5 159.5 440.1 159C440.5 158.6 440.5 158.6 440.5 158.2C439.9 156.4 439.3 155.2 438 154.6C437.4 153.7 436.4 152.9 435.6 152.1L434 149.8L435.7 152C435.1 151.2 434.5 150.8 434 149.8H433.8C435.4 149.8 436 150.3 437.2 151C438.176 151.421 439.01 152.115 439.6 153C440.1 153.6 441 154.3 441.6 155.1L444.1 157.1C445.1 158.2 445.1 159 445.1 160.7C445.8 161.5 445.8 163.1 446.1 164C445.8 165.6 445.3 164.3 445.1 163.4C445.1 162.2 444.5 162.3 443.6 162.6C443.6 164.3 443.8 164.7 444.4 166C444.273 166.963 443.931 167.886 443.4 168.7C442.7 169.1 442.6 167.9 442 167.4C442 165.7 441.5 165.4 440.4 164.6V165.7C441 166.9 441.7 167.9 441.8 169.6C442.189 170.758 442.359 171.979 442.3 173.2C442.3 174.6 442.3 175.9 442 177.2L441.8 180.7V188.5C441.586 189.688 441.485 190.893 441.5 192.1L441.8 188.5C441.6 189.5 441.5 190.7 441.5 192.1V192.4C441 191 440.5 189.8 440.1 188.3C439.308 187.467 438.695 186.48 438.3 185.4L437.8 181.9C437.4 180.9 437 179.9 436.1 180.5C435.8 182.5 436.3 183.7 437 185.7C437.4 187 437.4 188.1 437.8 189.4C438.4 190.8 438.9 191 437.8 192.6C437.2 193.6 437 193.8 436.8 194.9C435.8 195.4 435.5 195.7 435.4 196.9C435.1 195.8 434.3 194.5 433.8 193.3L432.5 189.3C431.8 188.3 431.1 186.9 430.4 186.3C429.6 185.4 428.7 183.8 428.2 183C427.2 181.8 426.9 181 426 180.5C425.9 179.9 425.6 179.2 425 179.7C425 181 425 182.4 425.3 183.5C425.6 185.1 426 186 426.1 187.6V190.7C425.5 189.1 424.7 187.8 424.2 186.3C423.6 185.4 423.2 183.8 422.4 183.3C421.9 182.1 421.6 181.3 421 180.5C420.9 179.7 420.5 179.7 420.2 179.1C420.2 180.6 420.7 181.2 421 182.4C421.503 183.459 421.71 184.633 421.6 185.8C420.9 183.8 420.3 181.7 419.4 179.9C418.6 178.8 417.8 177.3 417.4 176.2C416.5 175.3 415.7 175.2 414.9 174.6C414.196 174.285 413.579 173.805 413.1 173.2C413.2 174.7 413.8 175.7 414.1 176.8C414.3 178.2 415 179.3 415.2 180.5C414.9 182.4 414.4 179.9 414.2 179.1C413.97 177.914 413.493 176.789 412.8 175.8C412 175.2 411.5 174.3 410.6 173.8C409.8 173.5 410.1 173.8 410.1 174.8C410.1 176.6 410.1 177.8 410.6 178.8C411.2 179.6 411.2 180.6 411.2 182.1C411.2 183.5 410.9 184.6 410.9 186.1V188.2C410.3 187.1 409.7 186.3 409.3 184.9C408.4 183.6 408.1 182.7 407.5 181.3C406.9 181 405.8 180.8 405.3 181.3C405.4 182.7 406.1 183.3 406.2 184.9C405.1 185.9 405.2 186.3 404.5 184.6C404 183.3 403.2 183.4 402.4 182.6C401.1 182.6 401.5 181.6 401.1 180.4C401.1 179.4 401.1 178.3 400.8 177.4C399.3 177.4 398.5 177.4 397.6 178.2C397.2 179 397.4 180.6 397.6 181.9V185.7C397.3 186.7 396.8 186.7 396.6 188C396 189.1 395.9 190.4 395.5 191.2C394.5 192.2 394.9 192.2 394.5 190.7V181.7L394.7 178.2C394.2 177.1 394 176.8 392.2 176.8C391.9 177.5 392.1 178.8 392.2 179.6C392.2 181 392.4 182.3 392.5 183.2C392.5 184.7 392.7 185.6 392.8 186.8C392.8 188.3 392.5 189.4 391.8 190.1C390.8 190.4 391.6 191.1 390.7 191.3C389.606 190.786 388.595 190.112 387.7 189.3C386.7 189 385.7 188.8 384.3 188.8C382.5 188.8 382.5 188.5 381.9 187.2C381.432 185.733 381.097 184.227 380.9 182.7C380.2 181.4 380.1 180.5 379.9 179C379.521 178.194 378.934 177.503 378.2 177C377.8 178.5 377.4 179.7 377.4 181.3C377.1 181.9 377 183.6 376.9 184.3C376.3 183.5 376.1 181.9 375.8 180.7C375.3 179.1 374.8 178 373.1 178.5C371.4 178.5 371.3 178.5 371.3 180.5L373.3 183.7V187.7C373.3 189.3 373.5 189.7 372.3 190.1C371.784 188.404 370.971 186.813 369.9 185.4C369.8 184.4 369.5 184.6 368.3 184.6C367.6 184.6 366.9 184.5 366.5 184.9V187.3C365.8 187.5 365.6 187.3 365.2 186.8C364.7 187.6 365.1 188.8 365.2 189.8C364.958 190.904 364.518 191.954 363.9 192.9C363.7 192.5 363.4 192.7 363.9 192.7L358.9 191.1C358.1 191.1 357.4 192 356.9 192.7C355.5 193.1 354.9 193.5 353.4 193.5C352 193.5 351.3 193.8 350 193.8C349 194 347.8 194.1 346.5 194.1C345.8 193.8 344.5 193.8 344.1 193.5C344.7 192.7 345.3 192.3 345.8 191.1C346.523 190.493 347.192 189.823 347.8 189.1L350 186.8C350.4 185.4 351 185.2 351.9 184.6C353.5 184.6 353.7 185.2 355.3 185.4C356.8 186 357.7 186.3 358.6 185.1C359.8 184.6 360.8 183.7 362.2 183.5L364.9 181.9C366.1 181.1 366.5 180.4 367.5 179.6C367.8 178.4 368.7 177.6 368.3 176.3C366.9 175.9 366 176 365.1 176.8C364.1 177.8 363.8 178.2 362.5 179C361.5 179.3 360.8 179.8 359.5 180.2C358.5 180.6 357.1 180.4 355.9 180.4C354.7 180.4 353.1 180.4 352.4 180.7C353.533 179.863 354.779 179.19 356.1 178.7C357.1 178 357.6 177.7 359.1 177.7C359.7 176.8 360.4 176.8 360.7 175.4C361.1 173.8 359.7 174.3 358.5 174.9C357.5 175.1 356.2 175.9 355.3 176.2C354.202 176.567 353.057 176.769 351.9 176.8C351.5 176.3 352.1 175.9 352.4 175.2C353.6 174.7 353.8 174.5 354 173.2C352.6 173.4 352 173.9 350.7 174C349.4 174.4 348 174.5 346.5 174.6H342.8C341.5 174.6 340.8 174.3 339.3 174.3C338.3 173.7 338.3 173.5 338.3 171.8C339.1 170.8 339.9 171 341.5 171L344.4 169.6C345.4 169.4 346 169 345.8 168.5H342C340.5 167.8 342 167.6 342.8 167.1C344.1 167.1 345.4 167.1 346.3 167.6C347.9 167.6 348.5 167 349.8 166C350.8 165.2 351.2 164.6 352.4 164C353.2 163.1 354 162.6 354.4 161.8C355.6 160.8 356.4 160.2 356.9 159.3C357.6 158.9 358.1 158.5 357.7 157.9C356 158.1 355.3 158.7 354.2 159.5C353.63 160.172 352.954 160.746 352.2 161.2C351.169 161.921 349.956 162.336 348.7 162.4C347.3 162.4 346.3 162.1 344.9 162.1C343.5 161.9 344.8 161.6 345.2 160.9C345.8 160.6 346.2 159.7 345.8 159C344.6 158.6 343.3 158.7 342 158.7H338.3C336.9 158.7 336.3 158.4 335.3 157.9C335.1 157.1 335.3 157.3 336.3 157.3C337.516 157.283 338.725 157.115 339.9 156.8C341.1 156.4 341.3 155.9 341.5 154.6C340.2 154.6 338.8 154.6 338 154.3H335.6ZM312.6 148C312.3 146 311.9 144.9 311.8 142.8C311.8 141.4 311.8 142.2 313.3 140.1C313.5 140.1 314.5 139.1 315.6 138.1C317 137.4 318.3 136.5 319.6 135.7C320.7 135.2 322.9 134.7 323.8 134.2C325.15 133.567 326.345 132.645 327.3 131.5C327.3 129.7 327.6 128.4 327.6 126.4L331.7 124.4C333.7 123.8 334 123.1 335.9 122.8C337.1 122.4 339.1 122.4 340.8 122.4C342.7 122.4 343.8 123.8 345.5 124C347.5 124.8 348.5 125.4 350 126.8C350.9 127.9 351.5 128.8 353 129.7C354.2 130.4 355.4 131.3 356.8 131.7C356.8 133.1 357.1 132.9 356.1 132.9C355.9 134.3 355.6 134.3 354.2 134.3C353.226 133.782 352.4 133.025 351.8 132.1C352.4 130.6 352 133.2 351.8 133.7C351.1 134.3 350.8 134.8 350 134.3C349.5 132.9 349.2 132 349.2 130.3C348.9 128.6 348.5 129.9 348.2 130.6C347.7 132.1 347.9 132.6 348.4 133.7L344.9 133.5C343.9 133.2 342.9 133.5 341.7 133.9C340.3 134.9 340.7 134.9 341.4 135.9C342.7 136.3 343.6 136.9 344.7 137.5C345.8 137.4 347.1 137 348.4 136.7C349.7 136.3 350.8 136.7 352.1 136.7C352.8 137.1 353.6 137.2 354 137.5C354 138.5 354 139.3 353.7 139.8C353.2 140.2 352.7 141.2 351.7 141.4C350.581 142.077 349.368 142.582 348.1 142.9C346.5 142.9 345.8 143.3 344.6 143.9C344.5 145.4 344 145.8 342.7 146.2C341.582 146.765 340.352 147.072 339.1 147.1C338.3 147.1 337.5 147.1 337.2 146.7C338.092 145.772 338.804 144.687 339.3 143.5C339.6 142.9 340.1 142.5 339.6 142C338 142 337.6 142 337.4 143.6C337.3 145.2 336.7 145.4 335.6 145.9C335.9 144.6 336 143.5 336.4 142.3C335.277 142.495 334.14 142.595 333 142.6C332.2 143.2 331.8 143.3 332.2 144.2C331.1 144.6 329.7 144.4 328.4 144.2C327.3 144.2 327.9 143.7 327.1 143.2C326.5 142.1 326 141.8 324.7 141.8C324.1 142.6 323 142.8 322.3 143.4C321.1 143.8 320.4 143.4 319.3 142.9C318.1 142.9 318.3 143.3 318.5 144.3C319.1 144.6 318.5 145 319.4 145.1C320.2 145.8 320.8 145.9 322.3 145.9C323.4 145.7 324.7 145.7 326 145.7C327.3 145.7 327.1 146 327.1 147.3C326.3 148 325 147.9 323.6 147.9C322.504 147.765 321.43 147.496 320.4 147.1C319.2 147 318.2 146.7 317.2 147.1C316.8 147.6 315.6 147.7 317 147.9C317.6 148.4 320.7 148.1 320.8 149.1C321.6 149.9 321.4 151 320.2 151C319.915 150.823 319.586 150.729 319.25 150.729C318.914 150.729 318.585 150.823 318.3 151L314.8 151.1C316.8 151.3 313.3 148.9 312.6 148Z" fill="#FEFEFE"/>
<path fill-rule="evenodd" clip-rule="evenodd" d="M321 138.7L319.4 139.8C318.287 140.463 317.218 141.198 316.2 142C315.6 142.5 315.6 142.8 314.9 142.8C316.1 142.7 316.7 142.3 317.9 141.8C319.2 141.6 320.5 141.3 321.2 140.6C322 140.4 321.2 139.3 321 138.6V138.7ZM333.2 125.7C333.4 125.7 333.7 126.4 334.2 127C334.7 128 335.1 128.8 335.1 130.1C335.4 128.7 335.9 127.7 336.1 126.2C335.7 125.4 335.7 125.2 334.5 125.1C334.5 125.9 334.7 125.3 333.2 125.6V125.7Z" fill="#BCBCBC"/>
<path fill-rule="evenodd" clip-rule="evenodd" d="M325.077 137.502C324.475 137.502 326.041 136.872 326.643 136.746C327.124 135.738 327.365 135.108 328.208 134.478C329.532 134.478 330.255 134.982 330.857 135.864C332.061 136.242 332.422 136.746 333.746 136.998C334.348 137.502 334.95 137.502 333.746 137.88C333.024 138.258 331.94 138.384 330.616 138.384C329.529 138.469 328.466 138.769 327.485 139.266C325.679 139.266 325.92 139.266 325.077 137.502Z" fill="#C4C4C2" stroke="black" stroke-width="1.10851"/>
<path fill-rule="evenodd" clip-rule="evenodd" d="M338 125.9V126.2C338 125.4 338 125.8 338.3 127.2C338.7 128.2 338.8 129.2 338.8 130.7C339.589 130.042 340.178 129.176 340.5 128.2C340.5 126 340.1 126 338 125.9ZM347.8 157.9H348.1C347.3 157.9 347.8 157.9 349.1 157.1C350.1 156.4 350.8 155.5 352.1 155.1C353.098 154.226 354.252 153.548 355.5 153.1C356.2 152.8 356.8 152.4 357.5 152.8C357.3 154.2 357 154.8 355.8 155.4C355.2 156.2 354.3 156.7 353.4 157C352.6 157.4 351.6 157.5 351.3 158.5C349.8 159.1 349.7 159 347.9 157.9H347.8ZM352.9 165.9L355.9 163.2C356.614 162.136 357.492 161.191 358.5 160.4C359.3 159.2 360.3 158.4 360.9 157.4L363 154.6C363 155.8 362.9 157.4 363.3 158.1C363.396 159.289 363.116 160.478 362.5 161.5C361.9 162.5 361.5 163.1 360 163.8C358.9 164.4 358.1 164.6 357.2 165.4C356.399 165.922 355.564 166.39 354.7 166.8C354 167.1 354.3 167 352.9 166V165.9ZM344.6 172.3H344.9C344.1 172.3 344.5 172.4 346 171.5C347.1 170.4 348 169.9 349.4 169.3C350.543 169.261 351.666 168.989 352.7 168.5C353.3 168.3 353.7 167.9 354.2 168.5C355.1 169.6 355.3 170 354 170.7C353.202 171.342 352.284 171.817 351.3 172.1C350.7 172.7 349.3 172.7 348 172.9C347 172.9 346.4 173.1 346 172.3L348.1 172.9C347.1 172.9 346.5 173.1 344.6 172.3ZM356 172.3V172.1C356 172.9 356 172.5 356.6 170.9C357.6 169.4 358 168.5 359.3 168.2C359.9 167.4 360.9 167.2 362.3 166.8C362.7 167.6 362.3 168.6 362.3 169.6C361.9 170.6 360.9 171.3 360.3 172.1C359.5 172.7 359.3 173.2 357.9 173.5C356.9 173.5 357.5 173.5 356.1 172.3H356Z" fill="#BCBCBC"/>
<path fill-rule="evenodd" clip-rule="evenodd" d="M330 136.2C330 137 329.5 137.6 328.7 137.6C327.9 137.6 327.3 137 327.3 136.2C327.3 135.4 328 134.8 328.7 134.8C329.5 134.8 330 135.4 330 136.2Z" fill="black"/>
<path fill-rule="evenodd" clip-rule="evenodd" d="M333.267 214.296H334.351C330.98 214.296 333.027 214.044 338.565 218.706C340.973 216.69 340.973 216.438 342.779 219.966C343.983 221.856 344.224 219.714 346.03 217.698C346.873 221.73 347.354 225.888 350.244 222.108C353.615 222.108 356.986 221.856 358.792 223.242C360.959 227.4 360.237 222.486 361.923 224.376C366.739 224.88 366.618 220.092 371.675 218.832C374.805 222.99 376.25 219.84 380.103 217.824C383.113 218.58 385.882 223.242 386.484 218.706C388.892 214.674 389.013 214.926 390.698 218.706C393.106 220.974 394.069 217.698 395.996 216.564C399.608 218.706 403.581 219.084 408.758 217.698C409.721 221.352 411.889 219.714 414.176 218.706C418.872 220.848 420.437 221.478 425.855 218.706C428.504 215.43 427.059 218.832 428.985 220.974C432.959 219.714 431.875 219.462 436.45 219.84C441.146 219.84 441.507 219.84 442.831 216.564C445.239 218.958 445.962 220.722 449.213 217.698C454.269 217.698 452.704 218.328 455.594 216.438C457.881 221.478 458.363 217.95 461.012 219.84C459.523 223.562 456.898 226.663 453.547 228.66C451.5 232.44 450.176 236.22 446.082 237.732C443.072 240.882 439.821 242.772 436.45 245.544C431.875 246.804 426.818 246.552 421.641 246.552H376.852C373.722 248.316 368.424 249.072 364.09 249.954C359.274 249.954 353.615 249.954 350.244 248.82C347.956 246.426 343.983 243.78 341.816 241.008C339.408 239.118 339.408 235.464 337.481 233.196C335.796 230.046 335.073 225.006 333.267 222.108V214.296Z" fill="#005120" stroke="#002B0D" stroke-width="1.64224"/>
<path fill-rule="evenodd" clip-rule="evenodd" d="M436.45 224.376V225.384C436.45 222.36 436.57 223.998 434.283 229.92C433.922 231.306 432.838 231.684 431.152 232.188M426.938 228.786H428.022C424.049 232.566 421.4 234.456 420.557 238.866L428.022 228.786C424.049 232.566 421.4 234.456 420.557 238.866M412.009 223.242C412.009 223.242 411.888 227.148 410.925 228.786ZM399.246 224.376H400.33H399.126C399.969 224.376 399.608 224.376 399.126 224.376H399.246ZM339.648 224.376C340.13 224.376 342.297 227.904 344.946 229.92C344.344 233.196 343.26 236.976 344.946 240M348.197 231.054C348.678 231.054 350.725 234.582 353.494 236.598L348.197 231.054C348.678 231.054 350.725 234.582 353.494 236.598V237.732C353.494 234.204 353.254 230.676 354.578 228.786C355.782 230.928 357.227 234.204 357.708 231.054C363.728 230.802 366.618 229.038 370.471 227.652C370.471 229.29 370.23 228.534 371.675 229.92M443.915 225.384H444.998C442.952 227.148 441.386 230.802 439.701 233.196M400.33 222.108H408.758Z" fill="#005120"/>
<path d="M436.45 224.376V225.384C436.45 222.36 436.57 223.998 434.283 229.92C433.922 231.306 432.838 231.684 431.152 232.188M426.938 228.786H428.022M428.022 228.786C424.049 232.566 421.4 234.456 420.557 238.866L428.022 228.786ZM412.009 223.242C412.009 223.242 411.888 227.148 410.925 228.786M407.795 231.054V232.062M399.126 224.376H400.33H399.246H399.126ZM399.126 224.376C399.608 224.376 399.969 224.376 399.126 224.376ZM339.648 224.376C340.13 224.376 342.297 227.904 344.946 229.92C344.344 233.196 343.26 236.976 344.946 240M353.494 236.598C350.725 234.582 348.678 231.054 348.197 231.054L353.494 236.598ZM353.494 236.598V237.732C353.494 234.204 353.254 230.676 354.578 228.786C355.782 230.928 357.227 234.204 357.708 231.054C363.728 230.802 366.618 229.038 370.471 227.652C370.471 229.29 370.23 228.534 371.675 229.92M443.915 225.384H444.998C442.952 227.148 441.386 230.802 439.701 233.196M400.33 222.108H408.758" stroke="#002B0D" stroke-width="1.64224"/>
<path fill-rule="evenodd" clip-rule="evenodd" d="M330.7 230C317.9 230 313.7 243.4 300.9 243.4H300.1V244.2C300.1 253.5 300.8 262.2 302.1 270.2C314 269.4 318.3 256.8 330.7 256.8C343.5 256.8 347.8 270.2 360.6 270.2C373.4 270.2 377.6 256.8 390.4 256.8C403.2 256.8 407.5 270.2 420.4 270.2C433.1 270.2 437.4 256.8 450.2 256.8C462.5 256.8 466.9 269.2 478.7 270.1C480.131 261.307 480.801 252.408 480.7 243.5H480C467.2 243.5 463 230.1 450.2 230.1C437.4 230.1 433 243.5 420.3 243.5C407.6 243.5 403.3 230.1 390.4 230.1C377.6 230.1 373.4 243.5 360.6 243.5C347.9 243.5 343.5 230.1 330.6 230.1L330.7 230ZM330.7 282.3C320.7 282.3 316 290.4 308.3 293.9C310.85 300.907 314.03 307.668 317.8 314.1C321.412 311.024 325.959 309.262 330.7 309.1C343.5 309.1 347.8 322.5 360.5 322.5C373.4 322.5 377.6 309.1 390.5 309.1C403.2 309.1 407.5 322.5 420.3 322.5C433 322.5 437.3 309.1 450.2 309.1C454.835 309.254 459.279 310.982 462.8 314C466.565 307.565 469.745 300.804 472.3 293.8C464.8 290.2 460 282.3 450.2 282.3C437.4 282.3 433 295.6 420.2 295.6C407.5 295.6 403.2 282.3 390.4 282.3C377.6 282.3 373.4 295.6 360.5 295.6C347.7 295.6 343.5 282.3 330.7 282.3ZM390.4 334.4C377.6 334.4 373.4 347.9 360.6 347.9C348.5 347.9 344 335.9 332.7 334.6C345.087 348.16 359.955 359.226 376.5 367.2C380.5 364.1 384.5 370.9 390.3 370.9C396.3 370.9 400.3 364 404.2 367C420.583 359.08 435.311 348.119 447.6 334.7C436.7 336.3 432.2 347.9 420.3 347.9C407.5 347.9 403.3 334.5 390.4 334.5V334.4Z" fill="white"/>
<path d="M311.52 289.304C315.674 287.827 319.896 286.565 324.17 285.526L343.809 305.3L327.664 308.701L311.52 289.304Z" stroke="#512007" stroke-width="0.615928"/>
<path d="M349.698 315.045C350.004 310.496 358.678 284.392 358.678 284.392M352.658 315.342L359.495 284.59M355.005 315.44L360.719 284.59M350.004 311.287C351.535 310.496 355.923 309.31 355.923 309.31M352.147 306.739C353.576 306.739 356.535 305.552 356.535 305.552M352.964 303.278C354.418 302.745 355.922 302.348 357.454 302.092M353.576 298.927L358.372 298.136M355.719 295.17C355.719 295.467 358.985 295.467 358.985 295.467M356.535 291.808L359.801 292.302" stroke="#512007" stroke-width="0.602709"/>
<path d="M402.379 334.986C402.017 327.205 391.777 282.549 391.777 282.549M398.885 333.464L390.813 282.718M395.271 329.573C395.03 326.697 389.367 282.887 389.367 282.887M402.017 328.558C400.21 327.205 395.03 325.175 395.03 325.175M399.487 320.777C397.801 320.777 394.307 318.747 394.307 318.747M398.524 314.857C396.806 313.946 395.031 313.266 393.222 312.827M397.801 307.414L392.138 306.061M395.271 300.986C395.271 301.494 391.415 301.494 391.415 301.494M394.307 295.235L390.451 296.081" stroke="#512007" stroke-width="0.571026"/>
<path d="M432.042 323.514C431.681 317.72 421.44 284.469 421.44 284.469M428.549 322.38L420.476 284.595M424.934 319.484C424.693 317.342 419.031 284.721 419.031 284.721M431.681 318.728C429.874 317.72 424.693 316.209 424.693 316.209M429.151 312.934C427.464 312.934 423.97 311.423 423.97 311.423M428.187 308.526C426.47 307.847 424.695 307.341 422.886 307.014M427.464 302.984L421.802 301.976M424.934 298.198C424.934 298.575 421.079 298.576 421.079 298.576M423.97 293.915L420.115 294.545" stroke="#512007" stroke-width="0.615928"/>
<path fill-rule="evenodd" clip-rule="evenodd" d="M387.181 328.097L388.266 236.152C388.266 236.152 391.398 235.775 391.398 236.152C391.398 236.53 391.037 327.72 390.675 328.097C390.314 328.475 386.82 328.727 387.181 328.097ZM421.518 240.183L420.795 317.391L418.386 320.414L419.109 240.183H421.518Z" fill="#DD8B59" stroke="#512007" stroke-width="0.615928"/>
<path fill-rule="evenodd" clip-rule="evenodd" d="M348.267 312.983C348.267 312.983 351.881 350.769 392.121 349.635C432.362 348.502 443.566 311.598 443.566 311.598L426.097 310.842C425.735 310.842 412.121 328.475 394.531 328.097C376.941 327.72 371.399 323.311 367.543 319.659C363.688 315.88 360.315 310.464 360.315 310.464L339.833 302.025L341.038 310.086L348.267 312.983ZM457.06 309.205L455.855 304.166V299.884L457.783 295.35C457.783 295.35 427.301 300.01 427.301 300.388L427.181 308.953L457.06 309.079V309.205Z" fill="#DD8B59" stroke="#512007" stroke-width="0.615928"/>
<path d="M346.941 312.605C348.025 312.605 356.097 314.495 356.097 314.495L364.531 326.208M451.277 299.884L450.554 307.441H455.493L455.132 299.884H451.277ZM446.096 300.262L445.735 308.323L448.867 307.945L449.228 300.262H446.096ZM440.795 308.323V302.025L443.927 300.892L444.289 307.189L440.795 308.323ZM434.771 307.945L435.494 302.403L439.108 302.781L439.349 308.701L434.771 307.945ZM428.144 307.945L428.506 303.159L432.12 302.781V308.323L428.144 307.945Z" stroke="#512007" stroke-width="0.615928"/>
<path d="M352.845 314.117C353.206 314.494 360.194 339.055 393.808 339.055C427.422 339.055 435.494 311.22 435.494 311.22" stroke="#512007" stroke-width="0.615928"/>
<path d="M440.795 311.976C440.795 311.976 424.651 348.502 393.808 345.983C363.085 343.464 358.146 331.372 355.736 325.075C353.327 318.777 351.881 313.739 351.881 313.739" stroke="#512007" stroke-width="0.615928"/>
<path fill-rule="evenodd" clip-rule="evenodd" d="M360.555 310.464C360.917 308.323 360.917 241.946 360.917 241.946L358.869 241.694L358.507 309.331L360.555 310.59V310.464ZM310.556 288.926L337.062 302.403L336.459 304.292C336.459 304.292 310.918 291.697 310.918 291.319C310.918 290.942 311.159 289.43 310.556 288.8V288.926Z" fill="#DD8B59" stroke="#512007" stroke-width="0.615928"/>
<path fill-rule="evenodd" clip-rule="evenodd" d="M322.725 284.896C322.725 285.903 326.58 308.323 326.58 308.323C326.58 308.323 328.99 308.701 328.99 308.323L324.893 285.274L322.725 284.896ZM347.303 285.526C348.628 285.526 372.603 281.495 372.603 281.495L372.121 285.526L348.628 288.045L347.303 285.526Z" fill="#DD8B59" stroke="#512007" stroke-width="0.615928"/>
<path fill-rule="evenodd" clip-rule="evenodd" d="M350.676 255.171C351.519 255.171 359.109 259.202 362.362 258.194C365.615 257.186 363.447 254.415 364.049 254.415C364.772 254.415 367.182 256.305 368.627 254.793C370.073 253.408 371.037 249 370.434 249.377C369.712 249.755 351.158 256.683 350.796 255.171H350.676Z" fill="#FECF3E" stroke="#512007" stroke-width="0.615928"/>
<path fill-rule="evenodd" clip-rule="evenodd" d="M347.664 264.366C348.989 264.744 376.338 256.683 376.338 256.683C376.338 256.683 376.338 259.202 375.977 259.202L347.664 266.885V264.366Z" fill="#DD8B59" stroke="#512007" stroke-width="0.615928"/>
<path fill-rule="evenodd" clip-rule="evenodd" d="M410.916 253.03C410.916 253.03 412.723 257.438 414.531 256.683C416.338 255.927 418.024 254.416 418.024 254.416C418.024 254.416 419.47 258.194 421.88 257.438C424.289 256.683 425.735 252.652 425.735 252.652C425.735 252.652 428.145 253.408 429.229 253.03C430.313 252.652 431.639 246.732 431.639 246.732L410.916 253.03ZM408.868 288.548C408.507 289.304 410.675 291.068 412.482 291.068C414.29 291.068 414.892 288.549 415.253 289.304C415.615 289.934 415.615 293.335 420.073 292.201C424.53 291.068 424.651 287.793 424.651 287.793C424.651 287.793 423.326 288.926 426.458 289.304C429.591 289.682 432.723 284.518 432.482 284.518C432 284.518 409.591 288.926 408.868 288.548Z" fill="#FECF3E" stroke="#512007" stroke-width="0.615928"/>
<path fill-rule="evenodd" clip-rule="evenodd" d="M348.748 253.66C348.528 254.795 348.611 255.972 348.989 257.06L371.881 249C371.881 249 372.844 247.11 371.881 247.11C370.917 247.11 348.387 254.415 348.628 253.786L348.748 253.66ZM378.868 248.622C379.471 248.622 402.241 240.939 402.241 240.939C402.241 240.939 402.603 244.213 402.241 244.213L380.917 250.763L378.748 248.622H378.868Z" fill="#DD8B59" stroke="#512007" stroke-width="0.615928"/>
<path fill-rule="evenodd" clip-rule="evenodd" d="M408.868 264.744C408.868 264.744 405.374 268.774 406.458 274.19C407.543 279.732 408.868 284.518 409.229 284.518C409.591 284.518 413.446 277.213 417.663 276.835C421.88 276.457 429.59 280.865 429.59 280.865C429.59 280.865 428.506 272.049 428.867 268.018C429.229 263.988 435.132 257.06 435.132 257.06L408.868 264.618V264.744Z" fill="#FECF3E" stroke="#512007" stroke-width="0.615928"/>
<path fill-rule="evenodd" clip-rule="evenodd" d="M377.061 258.068C377.061 258.068 376.338 261.469 376.7 261.469L406.458 253.408V251.015L377.061 257.942V258.068Z" fill="#DD8B59" stroke="#512007" stroke-width="0.615928"/>
<path fill-rule="evenodd" clip-rule="evenodd" d="M339.23 302.403C339.23 302.403 332.242 301.396 332.604 303.159C332.965 305.048 336.098 306.812 336.459 307.945C336.821 309.079 335.375 312.983 337.544 312.731C339.592 312.353 341.64 310.842 341.64 309.708L341.278 303.411L339.23 302.403Z" fill="#B6B6B4" stroke="#512007" stroke-width="0.615928"/>
<path fill-rule="evenodd" clip-rule="evenodd" d="M378.146 284.14V286.659L403.326 283.007L402.603 281.117L378.146 284.14Z" fill="#DD8B59" stroke="#512007" stroke-width="0.615928"/>
<path fill-rule="evenodd" clip-rule="evenodd" d="M348.267 288.548C348.748 288.548 348.267 291.823 351.158 291.067C353.929 290.312 354.652 288.548 354.652 288.548C354.652 288.548 355.375 292.579 359.23 292.201C363.086 291.823 365.254 287.415 365.254 287.415C365.254 287.415 365.495 290.69 367.905 289.556C370.314 288.422 371.037 285.903 371.037 285.903L348.989 289.178L348.267 288.548ZM348.267 266.885C348.267 266.885 345.134 268.018 346.218 274.568C347.303 281.117 349.833 284.896 350.074 284.896C350.435 284.896 353.206 278.598 357.423 277.591C361.64 276.331 368.989 280.865 368.989 280.865C368.989 280.865 368.266 274.946 369.351 269.53C370.124 266.003 371.694 262.72 373.929 259.957C373.929 259.957 349.351 266.885 348.387 266.885H348.267Z" fill="#FECF3E" stroke="#512007" stroke-width="0.615928"/>
<path fill-rule="evenodd" clip-rule="evenodd" d="M407.181 285.904L407.543 288.171C407.543 288.171 432.844 284.896 432.844 284.392C432.844 284.14 432.843 281.873 432.362 281.873C432 281.873 407.543 286.281 407.061 285.904H407.181ZM406.82 262.476L407.181 264.995L436.94 256.683C436.94 256.683 437.663 254.416 437.301 254.416C436.94 254.416 407.543 263.61 406.82 262.476Z" fill="#DD8B59" stroke="#512007" stroke-width="0.615928"/>
<path d="M456.578 293.209L434.891 257.438M432 282.251C432.361 281.243 433.446 259.202 433.446 259.202M409.952 250.763C409.952 250.763 409.591 253.03 409.952 253.03C410.314 253.03 432 247.488 432 247.11C432 246.732 434.169 244.591 432.361 244.969C430.675 245.347 410.675 251.896 409.952 250.763Z" stroke="#512007" stroke-width="0.615928"/>
<path fill-rule="evenodd" clip-rule="evenodd" d="M379.591 249.755C380.796 250.007 383.326 253.786 384.772 253.03C386.218 252.274 388.266 250.007 388.266 250.007C388.266 250.007 387.904 254.415 390.675 253.786C393.567 253.03 393.928 250.007 393.928 250.007C393.928 250.007 395.977 251.267 397.784 250.007C399.47 249 401.157 243.458 400.555 243.458C399.952 243.458 380.194 250.007 379.471 249.755H379.591ZM378.868 260.335C378.868 261.091 375.254 266.885 376.459 272.427C377.664 277.968 379.471 283.007 379.832 283.007C380.194 283.007 385.495 277.213 390.073 276.079C394.531 274.946 401.278 279.732 400.916 279.732C400.555 279.732 399.109 274.19 399.109 270.159C399.109 266.129 404.41 253.786 404.41 253.786L378.868 260.335ZM378.868 286.785C378.868 287.037 379.832 289.556 382.362 289.556C384.772 289.556 385.133 287.037 385.133 287.037C385.133 287.037 384.772 291.445 388.627 291.067C392.483 290.69 393.808 286.659 393.808 286.659C393.808 286.659 394.169 288.926 397.422 287.793C400.555 286.659 404.651 283.007 404.41 283.007C404.049 283.007 379.109 287.793 378.748 286.785H378.868Z" fill="#FECF3E" stroke="#512007" stroke-width="0.615928"/>
<path fill-rule="evenodd" clip-rule="evenodd" d="M381.716 267.268C382.211 267.289 382.679 267.515 383.015 267.897C383.352 268.278 383.53 268.784 383.511 269.302C383.491 269.821 383.276 270.31 382.912 270.662C382.548 271.014 382.065 271.2 381.57 271.179C381.075 271.158 380.607 270.932 380.271 270.551C379.934 270.17 379.756 269.664 379.775 269.145C379.794 268.627 380.01 268.138 380.374 267.786C380.738 267.434 381.22 267.248 381.716 267.268Z" fill="#BE0F17" stroke="#512007" stroke-width="0.603966"/>
<path fill-rule="evenodd" clip-rule="evenodd" d="M394.388 263.909C394.883 263.929 395.35 264.155 395.687 264.537C396.024 264.918 396.202 265.424 396.183 265.942C396.163 266.461 395.948 266.95 395.584 267.302C395.22 267.654 394.737 267.84 394.242 267.819C393.746 267.798 393.279 267.572 392.942 267.191C392.606 266.81 392.428 266.304 392.447 265.785C392.466 265.267 392.682 264.778 393.046 264.426C393.41 264.074 393.892 263.888 394.388 263.909Z" fill="#BE0F17" stroke="#512007" stroke-width="0.603966"/>
<path fill-rule="evenodd" clip-rule="evenodd" d="M388.052 270.82C388.547 270.841 389.015 271.067 389.351 271.449C389.688 271.83 389.866 272.336 389.847 272.854C389.827 273.373 389.612 273.862 389.248 274.214C388.884 274.566 388.401 274.752 387.906 274.731C387.41 274.71 386.943 274.484 386.607 274.103C386.27 273.722 386.092 273.216 386.111 272.697C386.13 272.179 386.346 271.69 386.71 271.338C387.074 270.986 387.556 270.8 388.052 270.82Z" fill="#BE0F17" stroke="#512007" stroke-width="0.603966"/>
<path fill-rule="evenodd" clip-rule="evenodd" d="M388.052 260.261C388.547 260.281 389.015 260.507 389.351 260.889C389.688 261.27 389.866 261.776 389.847 262.294C389.827 262.813 389.612 263.302 389.248 263.654C388.884 264.006 388.401 264.192 387.906 264.171C387.41 264.15 386.943 263.924 386.607 263.543C386.27 263.162 386.092 262.656 386.111 262.137C386.13 261.619 386.346 261.13 386.71 260.778C387.074 260.426 387.556 260.24 388.052 260.261Z" fill="#BE0F17" stroke="#512007" stroke-width="0.603966"/>
<path d="M390.675 237.16C390.675 236.908 401.519 241.946 401.519 242.324C401.519 242.702 440.072 296.232 440.434 296.232M421.157 242.324L431.036 246.732L434.169 254.793M360.194 241.694C359.833 241.694 371.037 250.511 371.037 250.511L372.483 257.69M322.122 295.098C326.941 292.957 360.917 261.847 360.917 261.847M312.966 289.178L351.158 255.549M376.7 260.587L412.844 323.311M408.506 286.533C408.506 286.533 412.723 301.27 416.94 303.537C420.086 305.302 423.142 307.236 426.097 309.33" stroke="#512007" stroke-width="0.615928"/>
<path d="M408.024 286.911C408.024 286.911 411.036 304.292 415.253 307.567C419.47 310.842 423.687 314.495 423.687 314.495" stroke="#512007" stroke-width="0.615928"/>
<path d="M379.025 285.609C379.025 285.609 383.121 309.792 391.555 315.334C396.721 318.692 401.862 322.093 406.976 325.536" stroke="#512007" stroke-width="0.615928"/>
<path d="M378.663 285.231C378.663 285.231 387.699 304.376 395.53 310.17C403.121 316.09 413.602 321.506 413.602 321.506M349.266 286.869C351.676 291.277 351.314 299.716 354.085 302.613C356.633 305.623 358.968 308.822 361.073 312.185M349.869 287.121C351.314 289.262 355.17 300.22 357.579 303.494C359.386 306.517 377.217 325.158 377.217 325.158" stroke="#512007" stroke-width="0.615928"/>
<path fill-rule="evenodd" clip-rule="evenodd" d="M371.314 326.04C371.314 326.404 371.245 326.764 371.112 327.1C370.979 327.436 370.784 327.742 370.537 327.999C370.291 328.257 369.999 328.461 369.678 328.6C369.356 328.739 369.011 328.811 368.663 328.811C368.315 328.811 367.971 328.739 367.649 328.6C367.327 328.461 367.035 328.257 366.789 327.999C366.543 327.742 366.348 327.436 366.214 327.1C366.081 326.764 366.013 326.404 366.013 326.04C366.013 325.305 366.292 324.6 366.789 324.081C367.286 323.561 367.96 323.269 368.663 323.269C369.366 323.269 370.04 323.561 370.537 324.081C371.035 324.6 371.314 325.305 371.314 326.04ZM384.205 331.96C384.205 332.594 383.964 333.203 383.535 333.652C383.105 334.101 382.523 334.353 381.916 334.353C381.309 334.353 380.727 334.101 380.297 333.652C379.868 333.203 379.627 332.594 379.627 331.96C379.627 331.325 379.868 330.716 380.297 330.267C380.727 329.819 381.309 329.567 381.916 329.567C382.523 329.567 383.105 329.819 383.535 330.267C383.964 330.716 384.205 331.325 384.205 331.96ZM400.711 333.471C400.711 334.106 400.47 334.714 400.04 335.163C399.611 335.612 399.029 335.864 398.422 335.864C397.815 335.864 397.232 335.612 396.803 335.163C396.374 334.714 396.133 334.106 396.133 333.471C396.133 332.836 396.374 332.228 396.803 331.779C397.232 331.33 397.815 331.078 398.422 331.078C399.029 331.078 399.611 331.33 400.04 331.779C400.47 332.228 400.711 332.836 400.711 333.471ZM415.048 327.803C415.048 329.063 414.205 329.944 413.12 329.944C412.036 329.944 411.193 328.937 411.193 327.803C411.193 326.67 412.036 325.536 413.12 325.536C414.205 325.536 415.048 326.544 415.048 327.803ZM426.614 320.624C426.614 321.758 425.53 322.639 424.325 322.639C423.12 322.639 422.036 321.758 422.036 320.624C422.036 319.49 423.12 318.609 424.325 318.609C425.53 318.609 426.614 319.49 426.614 320.624Z" fill="black" stroke="#512007" stroke-width="0.615928"/>
<path fill-rule="evenodd" clip-rule="evenodd" d="M358.664 242.03C357.579 242.786 340.11 247.194 342.519 246.816C344.929 246.438 359.025 250.595 358.664 249.335C358.302 248.076 358.664 242.786 358.664 242.03ZM388.422 236.614C387.699 236.614 377.579 240.644 377.94 240.644C378.302 240.644 389.507 243.919 389.145 243.163C388.784 242.408 388.784 237.622 388.422 236.614ZM418.904 240.267C418.181 240.644 406.253 243.541 408.422 243.919C410.591 244.297 418.542 247.194 418.542 246.438C418.542 245.808 418.542 240.644 418.904 240.141V240.267Z" fill="#FF0000" stroke="#512007" stroke-width="0.615928"/>
<path d="M406.253 325.914C406.615 320.12 416.856 286.869 416.856 286.869M409.747 324.78L417.82 286.995M413.362 321.883C413.603 319.742 419.265 287.121 419.265 287.121M406.615 321.128C408.422 320.12 413.603 318.609 413.603 318.609M409.145 315.334C410.832 315.334 414.326 313.822 414.326 313.822M410.109 310.926C411.826 310.247 413.601 309.741 415.41 309.414M410.832 305.384L416.494 304.376M413.362 300.598C413.362 300.975 417.217 300.975 417.217 300.975M414.326 296.315L418.181 296.945" stroke="#512007" stroke-width="0.615928"/>
<path d="M376.493 326.03C376.855 320.011 387.095 285.467 387.095 285.467M379.987 326.423L388.059 285.729M382.758 326.554L389.505 285.729M376.855 321.058C378.662 320.011 383.842 318.441 383.842 318.441M379.385 315.039C381.071 315.039 384.565 313.469 384.565 313.469M380.349 310.459C382.066 309.754 383.841 309.229 385.65 308.889M381.071 304.702L386.734 303.655M383.601 299.73C383.601 300.122 387.457 300.122 387.457 300.122M384.565 295.281L388.421 295.935" stroke="#512007" stroke-width="0.627785"/>
<path d="M372.427 322.043C372.065 316.214 361.825 282.76 361.825 282.76M368.933 320.903L360.861 282.887M365.318 317.988C365.077 315.834 359.415 283.013 359.415 283.013M372.065 317.228C370.258 316.214 365.077 314.693 365.077 314.693M369.535 311.399C367.849 311.399 364.355 309.878 364.355 309.878M368.571 306.964C366.854 306.281 365.079 305.772 363.27 305.443M367.849 301.388L362.186 300.374M365.318 296.572C365.318 296.953 361.463 296.953 361.463 296.953M364.355 292.264L360.499 292.898" stroke="#512007" stroke-width="0.617803"/>
<path fill-rule="evenodd" clip-rule="evenodd" d="M424.651 310.842L457.903 311.598L458.265 309.079L423.928 308.701L424.651 310.842ZM426.096 301.647C429.952 301.647 458.987 295.854 458.987 295.854C458.987 295.854 460.072 292.075 458.987 292.075C457.903 292.075 426.096 299.128 426.096 299.128V301.647Z" fill="#DD8B59" stroke="#512007" stroke-width="0.615928"/>
<path fill-rule="evenodd" clip-rule="evenodd" d="M388.052 265.54C388.547 265.561 389.015 265.787 389.351 266.169C389.688 266.55 389.866 267.056 389.847 267.574C389.827 268.093 389.612 268.582 389.248 268.934C388.884 269.286 388.401 269.472 387.906 269.451C387.41 269.43 386.943 269.204 386.607 268.823C386.27 268.442 386.092 267.936 386.111 267.417C386.13 266.899 386.346 266.41 386.71 266.058C387.074 265.706 387.556 265.52 388.052 265.54Z" fill="#BE0F17" stroke="#512007" stroke-width="0.603966"/>
<path d="M0 0H256V256H0V0Z" fill="#012169"/>
<path d="M256 0V32L161 128L256 221.5V256H222.5L127 162L34 256H0V222L93 128.5L0 37V0H31L127 94L220 0H256Z" fill="white"/>
<path d="M92 162L97.5 179L21 256H0V254.5L92 162ZM154 156L181 160L256 233.5V256L154 156ZM256 0L160 98L158 76L233 0H256ZM0 0.5L96.5 95L67 91L0 24.5V0.5Z" fill="#C8102E"/>
<path d="M88 0V256H168V0H88ZM0 88V168H256V88H0Z" fill="white"/>
<path d="M0 104V152H256V104H0ZM104 0V256H152V0H104Z" fill="#C8102E"/>
</g>
<defs>
<linearGradient id="paint0_linear_2_3284" x1="100.738" y1="579.083" x2="125.967" y2="564.621" gradientUnits="userSpaceOnUse">
<stop stop-color="#A43907"/>
<stop offset="1" stop-color="white"/>
</linearGradient>
<linearGradient id="paint1_linear_2_3284" x1="331.937" y1="350.733" x2="299.329" y2="332.872" gradientUnits="userSpaceOnUse">
<stop stop-color="#A43907"/>
<stop offset="1" stop-color="white"/>
</linearGradient>
<linearGradient id="paint2_linear_2_3284" x1="352.234" y1="363.745" x2="281.526" y2="354.525" gradientUnits="userSpaceOnUse">
<stop stop-color="#A43907"/>
<stop offset="1" stop-color="white"/>
</linearGradient>
<linearGradient id="paint3_linear_2_3284" x1="482.776" y1="333.774" x2="450.042" y2="335.516" gradientUnits="userSpaceOnUse">
<stop stop-color="#A43907"/>
<stop offset="1" stop-color="white"/>
</linearGradient>
<linearGradient id="paint4_linear_2_3284" x1="496.057" y1="351.903" x2="426.532" y2="356.062" gradientUnits="userSpaceOnUse">
<stop stop-color="#A43907"/>
<stop offset="1" stop-color="white"/>
</linearGradient>
<linearGradient id="paint5_linear_2_3284" x1="488.314" y1="370.145" x2="292.583" y2="370.145" gradientUnits="userSpaceOnUse">
<stop stop-color="#A43907"/>
<stop offset="1" stop-color="white"/>
</linearGradient>
<linearGradient id="paint6_linear_2_3284" x1="297.961" y1="384.472" x2="584.235" y2="385.499" gradientUnits="userSpaceOnUse">
<stop stop-color="#A43907"/>
<stop offset="1" stop-color="white"/>
</linearGradient>
<linearGradient id="paint7_linear_2_3284" x1="495.196" y1="368.936" x2="472.049" y2="369.607" gradientUnits="userSpaceOnUse">
<stop stop-color="#A43907"/>
<stop offset="1" stop-color="white"/>
</linearGradient>
<linearGradient id="paint8_linear_2_3284" x1="291.795" y1="391.821" x2="314.225" y2="393.305" gradientUnits="userSpaceOnUse">
<stop stop-color="#A43907"/>
<stop offset="1" stop-color="white"/>
</linearGradient>
<linearGradient id="paint9_linear_2_3284" x1="313.652" y1="388.56" x2="272.916" y2="378.511" gradientUnits="userSpaceOnUse">
<stop stop-color="#A43907"/>
<stop offset="1" stop-color="white"/>
</linearGradient>
<clipPath id="clip0_2_3284">
<rect width="512" height="512" fill="white"/>
</clipPath>
</defs>
</svg>
