<svg width="512" height="512" viewBox="0 0 512 512" fill="none" xmlns="http://www.w3.org/2000/svg">
<g clip-path="url(#clip0_2_3165)">
<mask id="mask0_2_3165" style="mask-type:luminance" maskUnits="userSpaceOnUse" x="0" y="0" width="512" height="512">
<path d="M0.0146484 0H511.887V511.872H0.0146484V0Z" fill="white"/>
</mask>
<g mask="url(#mask0_2_3165)">
<path fill-rule="evenodd" clip-rule="evenodd" d="M-252 0H771.847V511.872H-252V0Z" fill="#6797D6"/>
<path fill-rule="evenodd" clip-rule="evenodd" d="M272.153 87.204H312.194L279.686 109.289L292.07 145.202L259.769 123.014L227.261 145.202L239.645 109.289L207.24 87.1008H247.488L259.872 51.2904M272.256 425.906H312.298L279.79 403.718L292.174 367.805L259.872 389.993L227.364 367.805L239.748 403.718L207.343 425.906H247.488L259.872 461.717M105.072 237.463L143.462 225.698L118.798 256.452L141.192 287.102L103.73 275.338L79.1688 306.091L80.6136 268.114L43.0488 256.349L81.4392 244.687L82.7808 206.71M414.053 237.463L375.766 225.698L400.327 256.349L377.933 287.102L415.498 275.338L439.956 306.091L438.614 268.114L476.179 256.349L437.789 244.687L436.447 206.71" fill="white"/>
</g>
</g>
<defs>
<clipPath id="clip0_2_3165">
<rect width="512" height="512" fill="white"/>
</clipPath>
</defs>
</svg>
