<svg width="512" height="512" viewBox="0 0 512 512" fill="none" xmlns="http://www.w3.org/2000/svg">
<g clip-path="url(#clip0_2_3504)">
<path d="M0 0H512V512H0V0Z" fill="#CE1126"/>
<path d="M71.7 71.7H440.3V440.3H71.7V71.7Z" fill="#007A5E"/>
<path d="M71.7 71.7H440.3L71.7 440.4H440.3L71.7 71.7Z" fill="#FCD116"/>
<path d="M255.9 317.5C289.81 317.5 317.3 290.01 317.3 256.1C317.3 222.19 289.81 194.7 255.9 194.7C221.99 194.7 194.5 222.19 194.5 256.1C194.5 290.01 221.99 317.5 255.9 317.5Z" fill="#CE1126"/>
<path d="M256 199.68L238.596 253.243L265.378 261.945" fill="#FCD116"/>
<path d="M256 199.68L273.404 253.243L246.622 261.945" fill="#FCD116"/>
<path d="M309.564 238.596H253.244V266.756" fill="#FCD116"/>
<path d="M309.564 238.596L264 271.7L247.448 248.918" fill="#FCD116"/>
<path d="M289.104 301.564L271.7 248L244.918 256.702" fill="#FCD116"/>
<path d="M289.104 301.564L243.54 268.46L260.092 245.678" fill="#FCD116"/>
<path d="M222.896 301.564L268.46 268.46L251.908 245.678" fill="#FCD116"/>
<path d="M222.896 301.564L240.3 248L267.081 256.702" fill="#FCD116"/>
<path d="M202.436 238.596L248 271.7L264.552 248.918" fill="#FCD116"/>
<path d="M202.436 238.596H258.756V266.756" fill="#FCD116"/>
<path d="M139.6 2.52002L129.316 34.1712L145.142 39.3132" fill="#FCD116"/>
<path d="M139.6 2.52002L149.884 34.1712L134.059 39.3132" fill="#FCD116"/>
<path d="M171.251 25.516H137.971V42.156" fill="#FCD116"/>
<path d="M171.251 25.516L144.327 45.0775L134.546 31.6154" fill="#FCD116"/>
<path d="M159.161 62.7241L148.877 31.073L133.052 36.215" fill="#FCD116"/>
<path d="M159.161 62.7241L132.237 43.1626L142.018 29.7006" fill="#FCD116"/>
<path d="M120.039 62.7241L146.963 43.1626L137.182 29.7005" fill="#FCD116"/>
<path d="M120.039 62.7241L130.323 31.0729L146.148 36.2149" fill="#FCD116"/>
<path d="M107.949 25.5159L134.873 45.0774L144.654 31.6153" fill="#FCD116"/>
<path d="M107.949 25.5159H141.229V42.1559" fill="#FCD116"/>
<path d="M256 2.62L245.716 34.2712L261.541 39.4132" fill="#FCD116"/>
<path d="M256 2.62L266.284 34.2712L250.459 39.4132" fill="#FCD116"/>
<path d="M287.651 25.616H254.371V42.256" fill="#FCD116"/>
<path d="M287.651 25.616L260.727 45.1775L250.946 31.7154" fill="#FCD116"/>
<path d="M275.561 62.8241L265.277 31.1729L249.452 36.315" fill="#FCD116"/>
<path d="M275.561 62.8241L248.637 43.2626L258.418 29.8006" fill="#FCD116"/>
<path d="M236.439 62.824L263.363 43.2625L253.582 29.8005" fill="#FCD116"/>
<path d="M236.439 62.824L246.723 31.1729L262.548 36.3149" fill="#FCD116"/>
<path d="M224.349 25.616L251.273 45.1775L261.054 31.7154" fill="#FCD116"/>
<path d="M224.349 25.616H257.629V42.256" fill="#FCD116"/>
<path d="M372.4 2.62L362.116 34.2712L377.941 39.4132" fill="#FCD116"/>
<path d="M372.4 2.62L382.684 34.2712L366.858 39.4132" fill="#FCD116"/>
<path d="M404.051 25.616H370.771V42.256" fill="#FCD116"/>
<path d="M404.051 25.616L377.127 45.1775L367.346 31.7154" fill="#FCD116"/>
<path d="M391.961 62.8241L381.677 31.1729L365.852 36.315" fill="#FCD116"/>
<path d="M391.961 62.8241L365.037 43.2626L374.818 29.8006" fill="#FCD116"/>
<path d="M352.839 62.824L379.763 43.2625L369.982 29.8005" fill="#FCD116"/>
<path d="M352.839 62.824L363.123 31.1729L378.948 36.3149" fill="#FCD116"/>
<path d="M340.749 25.616L367.673 45.1775L377.454 31.7154" fill="#FCD116"/>
<path d="M340.749 25.616H374.029V42.256" fill="#FCD116"/>
<path d="M99.8 256.8C107.5 271.1 122.4 286.6 135.5 292.1C135.7 277.6 130.5 258.9 123.5 244.1L99.8 256.8Z" fill="#CE1126"/>
<path d="M86.8 207.6C97.9 230.9 57.8 286.3 124.6 299.3C115.633 286.214 111.562 270.388 113.1 254.6C127.873 261.509 140.012 273.017 147.7 287.4C165.2 224 102.9 227.9 86.7 207.6H86.8Z" fill="#FCD116"/>
<path d="M139.6 444.62L129.316 476.271L145.142 481.413" fill="#FCD116"/>
<path d="M139.6 444.62L149.884 476.271L134.059 481.413" fill="#FCD116"/>
<path d="M171.251 467.616H137.971V484.256" fill="#FCD116"/>
<path d="M171.251 467.616L144.327 487.177L134.546 473.715" fill="#FCD116"/>
<path d="M159.161 504.824L148.877 473.173L133.052 478.315" fill="#FCD116"/>
<path d="M159.161 504.824L132.237 485.263L142.018 471.801" fill="#FCD116"/>
<path d="M120.039 504.824L146.963 485.263L137.182 471.8" fill="#FCD116"/>
<path d="M120.039 504.824L130.323 473.173L146.148 478.315" fill="#FCD116"/>
<path d="M107.949 467.616L134.873 487.177L144.654 473.715" fill="#FCD116"/>
<path d="M107.949 467.616H141.229V484.256" fill="#FCD116"/>
<path d="M256 444.72L245.716 476.371L261.541 481.513" fill="#FCD116"/>
<path d="M256 444.72L266.284 476.371L250.459 481.513" fill="#FCD116"/>
<path d="M287.651 467.716H254.371V484.356" fill="#FCD116"/>
<path d="M287.651 467.716L260.727 487.277L250.946 473.815" fill="#FCD116"/>
<path d="M275.561 504.924L265.277 473.273L249.452 478.415" fill="#FCD116"/>
<path d="M275.561 504.924L248.637 485.363L258.418 471.901" fill="#FCD116"/>
<path d="M236.439 504.924L263.363 485.363L253.582 471.9" fill="#FCD116"/>
<path d="M236.439 504.924L246.723 473.273L262.548 478.415" fill="#FCD116"/>
<path d="M224.349 467.716L251.273 487.277L261.054 473.815" fill="#FCD116"/>
<path d="M224.349 467.716H257.629V484.356" fill="#FCD116"/>
<path d="M372.4 444.82L362.116 476.471L377.941 481.613" fill="#FCD116"/>
<path d="M372.4 444.82L382.684 476.471L366.858 481.613" fill="#FCD116"/>
<path d="M404.051 467.816H370.771V484.456" fill="#FCD116"/>
<path d="M404.051 467.816L377.127 487.377L367.346 473.915" fill="#FCD116"/>
<path d="M391.961 505.024L381.677 473.373L365.852 478.515" fill="#FCD116"/>
<path d="M391.961 505.024L365.037 485.463L374.818 472.001" fill="#FCD116"/>
<path d="M352.839 505.024L379.763 485.463L369.982 472.001" fill="#FCD116"/>
<path d="M352.839 505.024L363.123 473.373L378.948 478.515" fill="#FCD116"/>
<path d="M340.749 467.816L367.673 487.377L377.454 473.915" fill="#FCD116"/>
<path d="M340.749 467.816H374.029V484.456" fill="#FCD116"/>
</g>
<defs>
<clipPath id="clip0_2_3504">
<rect width="512" height="512" fill="white"/>
</clipPath>
</defs>
</svg>
