<svg width="512" height="512" viewBox="0 0 512 512" fill="none" xmlns="http://www.w3.org/2000/svg">
<g clip-path="url(#clip0_2_3629)">
<path d="M0 0H512V512H0V0Z" fill="white"/>
<path d="M205 0H307V512H205V0Z" fill="#FF0000"/>
<path d="M0 205H512V307H0V205Z" fill="#FF0000"/>
<path fill-rule="evenodd" clip-rule="evenodd" d="M114.1 397.9C115.2 379.9 118.4 364.5 118.4 364.5C118.4 364.5 107.8 365.5 102.5 365.5C97.2 365.5 86.6 364.5 86.6 364.5C86.6 364.5 89.8 379.8 90.9 397.9C72.9 396.8 57.5 393.6 57.5 393.6C57.5 393.6 58.5 401.6 58.5 409.5C58.5 417.4 57.5 425.4 57.5 425.4C57.5 425.4 72.8 422.2 90.9 421.1C89.8 439.1 86.6 454.5 86.6 454.5C86.6 454.5 94.6 453.5 102.5 453.5C110.5 453.5 118.4 454.5 118.4 454.5C118.4 454.5 115.2 439.2 114.1 421.1C132.1 422.2 147.5 425.4 147.5 425.4C147.5 425.4 146.5 414.8 146.5 409.5C146.5 404.2 147.5 393.6 147.5 393.6C147.5 393.6 132.2 396.8 114.1 397.9ZM421.1 90.9C422.2 72.9 425.4 57.5 425.4 57.5C425.4 57.5 414.8 58.5 409.5 58.5C404.2 58.5 393.6 57.5 393.6 57.5C393.6 57.5 396.8 72.9 397.9 90.9C379.9 89.8 364.5 86.6 364.5 86.6C364.5 86.6 365.5 94.6 365.5 102.5C365.5 110.5 364.5 118.4 364.5 118.4C364.5 118.4 379.8 115.2 397.9 114.1C396.8 132.1 393.6 147.5 393.6 147.5C393.6 147.5 401.6 146.5 409.5 146.5C417.4 146.5 425.4 147.5 425.4 147.5C425.4 147.5 422.2 132.2 421.1 114.1C439.1 115.2 454.5 118.4 454.5 118.4C454.5 118.4 453.5 107.8 453.5 102.5C453.5 97.3 454.5 86.6 454.5 86.6C454.5 86.6 439.1 89.8 421.1 90.9ZM114.1 90.9C115.2 72.9 118.4 57.5 118.4 57.5C118.4 57.5 107.8 58.5 102.5 58.5C97.2 58.5 86.6 57.5 86.6 57.5C86.6 57.5 89.8 72.9 90.9 90.9C72.9 89.8 57.5 86.6 57.5 86.6C57.5 86.6 58.5 94.6 58.5 102.5C58.5 110.5 57.5 118.4 57.5 118.4C57.5 118.4 72.8 115.2 90.9 114.1C89.8 132.1 86.6 147.5 86.6 147.5C86.6 147.5 94.6 146.5 102.5 146.5C110.5 146.5 118.4 147.5 118.4 147.5C118.4 147.5 115.2 132.2 114.1 114.1C132.1 115.2 147.5 118.4 147.5 118.4C147.5 118.4 146.5 107.8 146.5 102.5C146.5 97.3 147.5 86.6 147.5 86.6C147.5 86.6 132.2 89.8 114.1 90.9ZM421.1 397.9C422.2 379.9 425.4 364.5 425.4 364.5C425.4 364.5 414.8 365.5 409.5 365.5C404.2 365.5 393.6 364.5 393.6 364.5C393.6 364.5 396.8 379.8 397.9 397.9C379.9 396.8 364.5 393.6 364.5 393.6C364.5 393.6 365.5 401.6 365.5 409.5C365.5 417.4 364.5 425.4 364.5 425.4C364.5 425.4 379.8 422.2 397.9 421.1C396.8 439.1 393.6 454.5 393.6 454.5C393.6 454.5 401.6 453.5 409.5 453.5C417.4 453.5 425.4 454.5 425.4 454.5C425.4 454.5 422.2 439.2 421.1 421.1C439.1 422.2 454.5 425.4 454.5 425.4C454.5 425.4 453.5 414.8 453.5 409.5C453.5 404.2 454.5 393.6 454.5 393.6C454.5 393.6 439.1 396.8 421.1 397.9Z" fill="#FF0000"/>
</g>
<defs>
<clipPath id="clip0_2_3629">
<rect width="512" height="512" fill="white"/>
</clipPath>
</defs>
</svg>
