<svg width="512" height="512" viewBox="0 0 512 512" fill="none" xmlns="http://www.w3.org/2000/svg">
<g clip-path="url(#clip0_2_4197)">
<path d="M0 0H512V512H0V0Z" fill="#DA000C"/>
<path d="M0 0H512V343H0V0Z" fill="white"/>
<path d="M137.2 232.6H265.2V320.6H137.2V232.6Z" fill="#000001"/>
<path d="M203.6 307.8H125.6L108.2 319.2V331.2H203.6M171 257.2C182.2 257.2 191.4 266.6 191.4 278.2V307.6H206V195.6H125.4V307.6H150.6V278.2C150.6 267 159.6 257.2 171 257.2Z" fill="#DA000C"/>
<path d="M203.6 307.8H125.6L108.2 319.2V331.2H203.6M171 257.2C182.2 257.2 191.4 266.6 191.4 278.2V307.6H206V195.6H125.4V307.6H150.6V278.2C150.6 267 159.6 257.2 171 257.2Z" stroke="black" stroke-width="2" stroke-linecap="square"/>
<path d="M153 120H190.2V188H153V120Z" fill="#000001"/>
<path d="M190 177.4H157.6V165.8H133.8V177.4H117.8V165.8H108V186.6H190M117.6 186.6H187.6V195.6H117.6V186.6ZM145.6 95.2V166H157.6V146.6C157.6 139.4 162.6 133.4 169.8 133H170.6C172.386 133 174.154 133.352 175.805 134.035C177.455 134.719 178.954 135.72 180.217 136.983C181.48 138.246 182.481 139.746 183.165 141.396C183.848 143.046 184.2 144.814 184.2 146.6V166H195.6V95.2H145.6ZM141 85.6V95.2H199.6V85.6H141ZM133.6 67.4V85.6H203.6V67.4H193V76.8H179.8V67.4H159.8V76.8H146.8V67.4H133.6ZM108 319.2H204ZM266 313.6H201.2L181.6 323V337H266" fill="#DA000C"/>
<path d="M190 177.4H157.6V165.8H133.8V177.4H117.8V165.8H108V186.6H190M108 319.2H204M266 313.6H201.2L181.6 323V337H266M117.6 186.6H187.6V195.6H117.6V186.6ZM145.6 95.2V166H157.6V146.6C157.6 139.4 162.6 133.4 169.8 133H170.6C172.386 133 174.154 133.352 175.805 134.035C177.455 134.719 178.954 135.72 180.217 136.983C181.48 138.246 182.481 139.746 183.165 141.396C183.848 143.046 184.2 144.814 184.2 146.6V166H195.6V95.2H145.6ZM141 85.6V95.2H199.6V85.6H141ZM133.6 67.4V85.6H203.6V67.4H193V76.8H179.8V67.4H159.8V76.8H146.8V67.4H133.6Z" stroke="black" stroke-width="2" stroke-linecap="square"/>
<path d="M181.6 323H268Z" fill="#DA000C"/>
<path d="M181.6 323H268" stroke="black" stroke-width="2"/>
<path d="M374.8 232.6H246.8V320.6H374.8V232.6Z" fill="#000001"/>
<path d="M308.4 307.8H386.4L403.8 319.2V331.2H308.4M341 257.2C329.8 257.2 320.6 266.6 320.6 278.2V307.6H306V195.6H386.6V307.6H361.4V278.2C361.4 267 352.4 257.2 341 257.2Z" fill="#DA000C"/>
<path d="M308.4 307.8H386.4L403.8 319.2V331.2H308.4M341 257.2C329.8 257.2 320.6 266.6 320.6 278.2V307.6H306V195.6H386.6V307.6H361.4V278.2C361.4 267 352.4 257.2 341 257.2Z" stroke="black" stroke-width="2" stroke-linecap="square"/>
<path d="M359 120H321.8V188H359V120Z" fill="#000001"/>
<path d="M322 177.4H354.4V165.8H378.2V177.4H394.2V165.8H404V186.6H322M394.4 186.6H324.4V195.6H394.4V186.6ZM366.4 95.2V166H354.4V146.6C354.4 139.4 349.4 133.4 342.2 133H341.4C339.614 133 337.846 133.352 336.195 134.035C334.545 134.719 333.046 135.72 331.783 136.983C330.52 138.246 329.519 139.746 328.835 141.396C328.152 143.046 327.8 144.814 327.8 146.6V166H316.4V95.2H366.4ZM371 85.6V95.2H312.4V85.6H371ZM378.4 67.4V85.6H308.4V67.4H319V76.8H332.2V67.4H352.2V76.8H365.2V67.4H378.4ZM404 319.2H308ZM246 313.6H310.8L330.4 323V337H246" fill="#DA000C"/>
<path d="M322 177.4H354.4V165.8H378.2V177.4H394.2V165.8H404V186.6H322M404 319.2H308M246 313.6H310.8L330.4 323V337H246M394.4 186.6H324.4V195.6H394.4V186.6ZM366.4 95.2V166H354.4V146.6C354.4 139.4 349.4 133.4 342.2 133H341.4C339.614 133 337.846 133.352 336.195 134.035C334.545 134.719 333.046 135.72 331.783 136.983C330.52 138.246 329.519 139.746 328.835 141.396C328.152 143.046 327.8 144.814 327.8 146.6V166H316.4V95.2H366.4ZM371 85.6V95.2H312.4V85.6H371ZM378.4 67.4V85.6H308.4V67.4H319V76.8H332.2V67.4H352.2V76.8H365.2V67.4H378.4Z" stroke="black" stroke-width="2" stroke-linecap="square"/>
<path d="M330.4 323H244Z" fill="#DA000C"/>
<path d="M330.4 323H244" stroke="black" stroke-width="2"/>
<path d="M290.6 300C285.2 302 280.6 304.8 275.6 307.6C269.378 311.154 263.428 315.165 257.8 319.6C255.8 321 253.8 322.4 252.4 324.4C250.4 326 248.4 328.4 248.8 331.4C248.8 332.6 250.4 329.8 251.6 329.6C253.499 328.584 255.705 328.299 257.8 328.8C260.4 326 263.8 324.2 266.6 322C274.752 316.1 283.46 311.01 292.6 306.8L290.6 300Z" fill="#F8D80E" stroke="black" stroke-width="1.6" stroke-linecap="round"/>
<path d="M264.8 314.8V322.6ZM269.6 311.4V319.2ZM274.4 308.4V316ZM279.4 305.4V313.4Z" fill="#F8D80E"/>
<path d="M264.8 314.8V322.6M269.6 311.4V319.2M274.4 308.4V316M279.4 305.4V313.4" stroke="black" stroke-width="2" stroke-linecap="round"/>
<path d="M221.8 300.4L219.4 307C230.453 311.239 241.041 316.601 251 323C254.4 325.4 258 327.6 260.6 330.8C261.2 332.4 259.6 333.8 258 333.2C256.6 332.8 255 332.2 253.6 333.2C251.4 334.2 249.4 337.6 252.6 338.6C257.4 341.8 264.8 340.4 267 335C268.2 332.2 268.4 328.6 266 326.2C262 321.6 256.4 318.2 251.2 314.8C241.862 309.109 232.021 304.289 221.8 300.4Z" fill="#F8D80E" stroke="black" stroke-width="1.6" stroke-linecap="round"/>
<path d="M252 316L251.4 322.8ZM257.6 319.4L256 326ZM263.6 324L260 329.2ZM265.4 336.4L260.2 333.6ZM267 330.8L261 331.4ZM259.4 339.4L259 334.2ZM257 333.6L252.2 337.2ZM233.4 305.8V312ZM246 312.6V319.6ZM239.6 309.2V315.8Z" fill="#F8D80E"/>
<path d="M252 316L251.4 322.8M257.6 319.4L256 326M263.6 324L260 329.2M265.4 336.4L260.2 333.6M267 330.8L261 331.4M259.4 339.4L259 334.2M257 333.6L252.2 337.2M233.4 305.8V312M246 312.6V319.6M239.6 309.2V315.8" stroke="black" stroke-width="2" stroke-linecap="round"/>
<path d="M215.6 455.2V471.2H225.6V463.2H239.4V471.2H250.2V455.2H215.6ZM215.6 477.2V493.2H250V477.2H239.2V485.2H225.4V477.2H215.6Z" fill="#F8D80E" stroke="black" stroke-width="2"/>
<path d="M250 387.4H260V503.4H250V387.4Z" fill="#F8D80E" stroke="black" stroke-width="2"/>
<path d="M250 397.4H260V497.4H250V397.4ZM255.2 358.8L276.4 371.2L255.2 383.6L233.8 371.2L255.2 358.8ZM226.6 366.8H221.2V375.6H226.6L255.2 392.2L283.6 375.6H289.2V366.8H283.6L255.2 350.2L226.6 366.8Z" fill="#F8D80E" stroke="black" stroke-width="2"/>
<path d="M254.6 328.6C252.272 329.073 250.189 330.359 248.724 332.228C247.258 334.097 246.505 336.427 246.6 338.8V361.2C246.784 363.579 247.812 365.814 249.499 367.501C251.186 369.188 253.421 370.216 255.8 370.4C257.779 370.548 259.756 370.092 261.471 369.092C263.185 368.092 264.555 366.596 265.4 364.8L262 362.8C261.528 363.971 260.687 364.957 259.604 365.607C258.521 366.256 257.256 366.535 256 366.4C252.8 366.4 250.2 363.2 250.6 360.2V337.8C250.751 336.333 251.456 334.978 252.571 334.012C253.685 333.046 255.126 332.541 256.6 332.6C257.8 332.2 259.6 334 260.4 332.6C261.6 330.8 259.6 329.6 258.4 328.6H254.6ZM266.2 336.4C265.223 337.769 263.916 338.87 262.4 339.6V354.6L266.4 356.8V336.4H266.2Z" fill="#F8D80E" stroke="black" stroke-width="2"/>
<path d="M225.6 76.8H284.2V183.2H225.6V76.8Z" fill="#000001"/>
<path d="M221.6 76.8V165.8H240.2V139.4C240.2 133.4 244.2 124.8 256 124.8C267.8 124.8 272 133.4 272 139.4V166H290.4V76.8H221.6ZM253.2 86.8H258.8V117.2H253.2V86.8ZM236.6 92.8H242.6V115H236.6V92.8ZM269.6 92.8H275.4V115H269.4L269.6 92.8ZM215.2 64V76.6H296.8V64H215.2ZM207.6 49.2V64H304.6V49.2H292.4V57.2H278.4V49.2H262.8V57.2H249.2V49.2H233.4V57.2H220V49.2H207.6ZM189.6 195.6V204.8H322.6V195.6H189.6Z" fill="#DA000C" stroke="black" stroke-width="2"/>
<path d="M184 165.8V195.8H328V165.8H314.4V177.4H296V165.8H271.6V177.4H240V165.8H215.6V177.4H197.6V165.8H184Z" fill="#DA000C" stroke="black" stroke-width="2"/>
<path d="M201.4 204.8V313.6H227V272.8C227 253.8 239.8 244.8 256 244.8C271.6 244.8 285 253.8 285 272.8V313.6H310.6V204.8H201.4Z" fill="#DA000C" stroke="black" stroke-width="2" stroke-linejoin="round"/>
</g>
<defs>
<clipPath id="clip0_2_4197">
<rect width="512" height="512" fill="white"/>
</clipPath>
</defs>
</svg>
