<svg width="512" height="512" viewBox="0 0 512 512" fill="none" xmlns="http://www.w3.org/2000/svg">
<g clip-path="url(#clip0_2_4235)">
<path d="M0 0H512V512H0V0Z" fill="white"/>
<path d="M0 256H512V512H0V256ZM53.3 256C53.3 278.417 57.7153 300.614 66.2938 321.324C74.8722 342.034 87.4459 360.852 103.297 376.703C119.148 392.554 137.966 405.128 158.676 413.706C179.386 422.285 201.583 426.7 224 426.7C246.417 426.7 268.614 422.285 289.324 413.706C310.034 405.128 328.852 392.554 344.703 376.703C360.554 360.852 373.128 342.034 381.706 321.324C390.285 300.614 394.7 278.417 394.7 256C394.7 210.728 376.716 167.309 344.703 135.297C312.691 103.284 269.272 85.3 224 85.3C178.728 85.3 135.309 103.284 103.297 135.297C71.2844 167.309 53.3 210.728 53.3 256Z" fill="#D00C33"/>
</g>
<defs>
<clipPath id="clip0_2_4235">
<rect width="512" height="512" fill="white"/>
</clipPath>
</defs>
</svg>
