<svg width="512" height="512" viewBox="0 0 512 512" fill="none" xmlns="http://www.w3.org/2000/svg">
<g clip-path="url(#clip0_2_4247)">
<path d="M0 0H512V512H0V0Z" fill="#E32118"/>
<path d="M0 0H512V341.3H0V0Z" fill="white"/>
<path d="M0 0H512V170.7H0V0Z" fill="#3E9A00"/>
<path d="M0 0V512L160 256L0 0Z" fill="#0073CE"/>
<path d="M215 204.5H296.7V290.1C296.7 318.9 259.2 296.7 256 312.1C250.4 296.3 215.2 319.1 215.2 288.4L215 204.5Z" fill="white" stroke="black"/>
<path d="M261.7 298.4C261.7 298.4 260.7 299.5 258.7 298.7C256.8 297.8 256.6 243.8 256.6 243.8C260.9 239.1 264.3 237.7 264.3 237.7L266.8 239.7C257.2 244.7 258.1 251.7 258.9 263.9C259.2 268.4 259.2 274.1 260.2 279.7C261.7 286.7 264.7 292.7 264.9 297.2C265.1 300 261.7 298.5 261.7 298.5V298.4Z" fill="#73452B" stroke="black" stroke-width="0.2"/>
<path d="M255.1 236.4H259C255.7 267.4 258.5 285.7 258.5 294.6C258.5 297.6 260.2 298.6 260 298.6C256.2 302.9 254.2 298.4 254.2 298.4L255.1 236.4Z" fill="#73452B" stroke="black" stroke-width="0.2"/>
<path d="M249.1 298.4C245.5 300.2 245.1 296.8 245.3 296.4C253.2 280.4 256.6 245.1 249.3 241.3L249.8 237.9C252.5 238.7 255.1 242.3 255.1 242.3C256.1 281.8 255.1 298 254.5 298.7C250.6 302.7 249.1 298 248.9 297.6" fill="#A36629"/>
<path d="M249.1 298.4C245.5 300.2 245.1 296.8 245.3 296.4C253.2 280.4 256.6 245.1 249.3 241.3L249.8 237.9C252.5 238.7 255.1 242.3 255.1 242.3C256.1 281.8 255.1 298 254.5 298.7C250.6 302.7 249.1 298 248.9 297.6" stroke="black" stroke-width="0.2"/>
<path d="M249 297.8C248.3 294.4 254.5 285.6 254 276.5M259.4 284C261.3 289.3 262.2 294 261.7 298.5" stroke="black" stroke-width="0.2"/>
<path d="M267.7 221.9C269 220.4 269 220.4 271.3 220.4C271.7 217.2 277.1 217.2 277.5 221.2C281.8 220.4 282.6 222.9 280.9 225.5C284.9 224.5 288.6 225.5 287.5 230.2C294.8 232.2 292 237.2 288.8 238.2C288.4 241.5 285.4 242.6 281.3 241.2C276.3 244.9 273.3 243.6 270.9 240C265.1 240.8 264.7 239.6 262.2 236.4C257.7 238.3 256.8 238.3 253 235.9C252.8 238.9 251.7 238.1 249.8 237.9C250 241.7 248.5 243.4 245.1 242.1C247.6 247.5 241.1 249.8 237.8 245.3C234.8 245.5 234.6 244.7 233.1 243.6C231.9 247.9 227.1 247.3 226.3 244.9C220.3 244 221 240.9 225.9 240.6C226.3 237.2 229.3 237.9 231.2 238.3C231.4 236.2 232.7 236.6 233.8 237C233.1 235.5 233.6 234.7 235.5 234.2C232.7 230.6 234.5 229.3 237.2 228C235.7 224.6 238.2 224.8 240.2 224.6C240 221 241 220.4 244.9 219.9C244.4 218.7 245.1 217.6 247.2 217.6C245.9 214 247.6 213.1 251.5 213.8C252.1 208.5 263.5 211 262.5 218.2C265.8 218.7 266.8 219.3 267.7 221.9Z" fill="#009A3B" stroke="black" stroke-width="0.2"/>
<path d="M244.9 220C245.7 220.4 246.8 220 247 222.3C248.7 219.3 250.8 221 250.8 224.4M262.6 218.2C261.7 219.5 258.6 219.5 258.9 222.9C257.9 221.4 255.8 221 254.9 222.5M267.7 221.9C267.7 222.7 267.5 225.3 266.7 226.6M280.9 225.5C281.1 225.7 277.9 225.5 276.4 226.5M288.8 238.3C288 237.9 286.2 236.8 285 238.5C285 237.6 285 235.3 282.6 235.3M281.4 241.3C281.4 239.1 280.9 238.5 280.4 237.9M274.4 238.3C272.6 237 270.9 238.9 270.9 240M261.9 236.4C261.9 235.5 261.3 233.8 262.8 233.2M237.6 245.3C238 243.2 239.6 243.2 239.3 242.1M239.3 242.1C239.1 240.4 237.2 238.9 234.8 241.3M239.3 242.1C240.6 241.7 241.9 241.9 242.3 242.6M235.7 234.2C236.6 233.4 238.7 233.6 240 234.2M240 229.2C241 229.2 243 228.7 243.6 230.6C245.9 227 247.6 227.4 248.1 228.3M252.3 227.8C254 227.2 257 228.9 258.7 231.8C259.6 229.6 260.9 230 262.2 229.8M270.2 231.8C273 230.6 274.7 233.2 275.6 234.2C276.9 232.5 277.9 232.5 279.2 232.5M244.4 237C245.1 236 246.6 235.7 247.6 236.4C247.4 234.4 248.7 233.6 249.6 234" stroke="black" stroke-width="0.2"/>
<path d="M253.2 192.6L248.5 192.8L246.2 197L243.6 193L238.9 193.2L241 188.9L238.5 184.9L243.4 184.7L245.5 180.5L248.1 184.5L252.8 184.3L250.6 188.5L253.2 192.6ZM233.2 194.1L228.4 195.3L227.2 199.8L223.8 196.4L219.3 197.5L220.5 193L217.4 189.5L221.8 188.4L223.1 183.8L226.5 187.2L231.2 186.2L229.7 190.7L233.2 194.1ZM213.7 198.1L209.5 200.2L209.2 205L205.2 202.4L200.9 204.4L201.3 199.7L197.3 197.1L201.6 194.9L202 190.2L205.8 192.8L210.1 190.8L209.9 195.5L213.7 198.1ZM259.4 192.6L264.1 192.8L266.2 197L268.8 193L273.5 193.2L271.3 188.9L273.9 184.9L269.2 184.7L266.8 180.5L264.3 184.5L259.6 184.3L261.7 188.5L259.4 192.6ZM279.4 194.1L283.9 195.3L285.2 199.8L288.6 196.4L293.1 197.5L291.8 193L295.2 189.5L290.5 188.4L289.2 183.8L285.8 187.2L281.4 186.2L282.6 190.7L279.4 194.1ZM298.6 198.1L302.9 200.2L303.1 205L307.1 202.4L311.4 204.4L311.2 199.7L315 197.1L310.8 194.9L310.6 190.2L306.6 192.8L302.2 190.8L302.7 195.5L298.6 198.1Z" fill="#FFD700" stroke="black" stroke-width="0.8"/>
<path d="M304.4 288.4L309.7 296.1L314.7 288.8L311.2 282.7L304.4 288.4ZM270.4 310.8L270.9 318.5C270.9 318.5 273 318.5 274.9 317.9C276.7 317.2 278.2 315.9 278.2 315.9L277.9 311.9L270.4 310.8ZM241.9 310.8L241.4 318.3C241.4 318.3 239.5 318.3 237.6 317.9C236.459 317.576 235.379 317.069 234.4 316.4L232.3 311.2L241.9 310.8ZM207.5 288.4L202 296.1L196 286.3L200.5 281.6L207.5 288.4Z" fill="white" stroke="black" stroke-width="0.8"/>
<path d="M234.2 326.2C234.2 333.4 278.2 333.4 278.2 326.2V316C278.2 321.3 234.2 320.2 234.2 316V326.2Z" fill="white" stroke="black" stroke-width="0.8"/>
<path d="M195 302.5C198.8 322.1 234.2 322.5 234.2 322.5V316C233.4 313.4 234.8 312.5 240.6 311.7C243 311.5 241.9 308.1 241.9 308.1C241.9 308.1 226.5 310.8 215.6 306.6C200.9 300.6 198.8 289.1 198.8 289.1C198.8 289.1 197.8 298.1 194.9 302.5H195ZM317.2 302.5C313.6 322.1 278.2 322.5 278.2 322.5V316C278.8 313.4 277.2 312.5 271.5 311.7C269.2 311.5 270.5 308.1 270.5 308.1C270.5 308.1 285.8 310.8 296.7 306.6C311.2 300.6 312.9 289.1 312.9 289.1C312.9 289.1 314.4 298.1 317.2 302.5Z" fill="white" stroke="black" stroke-width="0.8"/>
<path d="M197.7 295C187.9 289.7 195.6 284.2 196.4 268.4C197.9 278 208.8 282 207.5 288.2C203 288.4 200.9 281.6 198.8 289.1L197.7 295ZM314.4 295C324.2 289.5 316.1 284.2 315.3 268.4C313.8 278 303.1 282 304.3 288.2C308.7 288.4 310.8 281.6 312.9 289.1L314.4 294.8V295Z" fill="white" stroke="black" stroke-width="0.8"/>
<path d="M203.7 302.3L204.7 303.1L202.4 305.7C201.4 306.7 201.2 307.4 201.9 308C202.7 308.8 203.3 308.5 204.1 307.6L206.7 304.9L207.5 305.7L205 308.7C203.6 310.3 202.3 309.9 201.2 308.9C200.2 308.1 199.7 306.8 201.2 305.2L203.7 302.3ZM208 305.9L209 306.6L208.8 311.6L211.2 308L212.2 308.7L208.8 314.2L207.5 313.6L207.7 308.5L205.4 312.1L204.4 311.5L208 305.9ZM209.9 314.9L212.9 308.9L213.9 309.5L211.2 315.3L209.9 314.9ZM214.6 309.8L212.2 315.9L214.6 316.8C216.8 317.6 217.8 316.6 218.5 314.8C219.2 312.8 218.9 311.5 216.7 310.6L214.6 309.8ZM215.4 311.3C217.6 312 217.8 312.9 217.2 314.3C216.6 315.8 216 316.3 213.9 315.3L215.4 311.3ZM221.6 312.1L217.8 317.9L219.3 318.3L220.1 316.8L222.7 317.4L222.9 318.9L224.4 319.1L222.9 312.3L221.6 312.1ZM222 313.6L222.5 316.2L220.8 316L222 313.6ZM225.3 312.6L225 319.3H227.5C229.9 319.3 230.5 318.1 230.6 316.1C230.6 314.1 229.9 312.9 227.6 312.8L225.3 312.6ZM226.5 313.8C228.9 313.8 229.3 314.6 229.2 316.2C229.2 317.8 228.8 318.5 226.4 318.2L226.5 313.8ZM247.6 321.9V328.7H249.1V326.2C249.1 326.2 250.4 326.2 251.5 326C252.3 325.8 252.9 325.2 252.9 323.9C252.9 322.6 252.2 321.9 250.9 321.9H247.6ZM249.1 322.9L250.6 323C251.9 323 251.6 324.9 250.6 324.9H249.1V322.9ZM255.3 321.9L252.5 328.7H254L254.7 327H257.5L258.1 328.7H259.6L256.8 321.9H255.3ZM256 323.4L257 326H255.1L256 323.4ZM259.6 327.4L263.2 323H260V322H265.1V323L261.3 327.5H265.1V328.8H259.6V327.4ZM281.1 314.2L282.4 314L283 317.9C283.3 319.2 282.6 320.2 281.7 320.5C280.6 320.9 279.2 320.5 279 318.7L280 318.5C280.3 319.6 280.8 319.7 281.3 319.5C281.7 319.4 281.9 318.7 281.8 318.1L281.1 314.2ZM283.3 313.9L284.5 313.6L285.1 316.8C285.4 318.2 285.8 318.8 286.7 318.6C287.7 318.4 287.9 317.8 287.7 316.6L286.9 313.2L288.2 313L289 316.5C289.5 318.5 288.5 319.5 287 319.7C285.7 319.9 284.4 319.6 284 317.6L283.3 313.9ZM289.9 316.8L290.9 316.4C291.5 317.4 292.3 317.3 292.9 317C293.8 316.6 293.9 315.8 293.5 315.6C292.8 315.2 291.4 315.7 290.5 315.4C289.6 315.1 289.2 314.5 289.2 313.7C289.3 312.7 290.2 312.2 291.2 311.9C292.2 311.6 293.2 311.7 293.9 312.9L292.7 313.4C292.2 312.7 291.7 312.7 291.2 312.9C290.8 313.1 290.2 313.5 290.5 314.1C290.8 314.5 292.4 314.2 293.2 314.2C294.1 314.2 294.8 314.9 294.9 315.7C295 316.8 294.6 317.4 293.3 318C291.6 318.6 290.2 317.9 289.9 316.8ZM295.6 311.5L293.9 312.3L293.5 311.3L298.2 309.3L298.6 310.2L296.9 311L298.9 315.7L297.8 316.4L295.6 311.5ZM298.4 309.1L299.4 308.5L302.4 314L301.4 314.7L298.4 309.1ZM305.7 309.5L306.9 309.1C307.047 309.498 307.094 309.926 307.038 310.346C306.982 310.767 306.823 311.167 306.577 311.512C306.33 311.857 306.003 312.137 305.624 312.326C305.244 312.516 304.824 312.61 304.4 312.6C301.2 312.6 300.8 309 301.4 307.8C302.2 305.8 304.6 305.9 305.7 307L304.6 307.8C303.9 307 302.4 307.5 302.3 308.3C302.21 308.919 302.316 309.551 302.603 310.107C302.89 310.662 303.344 311.115 303.9 311.4C304.9 311.9 306.4 310.7 305.7 309.5ZM305 305.1L306 304.2L310 309.3L308.9 310.2L305 305.1ZM309 301.9L308 302.7L310.4 309.1L311.4 308.1L310.8 306.8L312.7 305.1L314 305.7L315 304.9L309 301.9ZM309.5 303.4L311.6 304.4L310.4 305.7L309.5 303.4Z" fill="black"/>
</g>
<defs>
<clipPath id="clip0_2_4247">
<rect width="512" height="512" fill="white"/>
</clipPath>
</defs>
</svg>
