<svg width="512" height="512" viewBox="0 0 512 512" fill="none" xmlns="http://www.w3.org/2000/svg">
<g clip-path="url(#clip0_2_4281)">
<path d="M0 0H512V512H0V0Z" fill="#000066"/>
<path d="M373.4 348.6C373.4 348.6 371.1 354.6 369.8 354.6C368.5 354.6 363.8 352.1 363.8 352.1C363.8 352.1 360.3 357.6 358.5 357.9C356.7 358.3 351.9 357.1 351.9 357.1C351.9 357.1 347.4 357.1 347.2 356.5C347 355.8 347.4 354.5 347.4 354.5C347.4 354.5 340.8 359.7 339.4 359.4C337.9 359.1 333 352.9 333 352.9L332.2 356.1L322.9 355.8L314.7 350.6C314.7 350.6 310.1 358.1 309.9 357.9C309.8 357.8 301.9 359.7 301.9 359.7L301.4 358.3L296.2 355.2C296.2 355.2 300.2 349.4 300.2 349.2L298.3 348.5L295.3 350.9L289.3 354.9L283.3 352.1L285.9 347.1L286.2 343.5L291 336.4L349 280L377.6 332.8L373.4 348.6Z" fill="#6A4C2D" stroke="black" stroke-width="0.9"/>
<path d="M414.6 352L429.6 351.5L423.3 348.3L480.8 346.1L472.7 343.1L465.5 333.3L435.7 331C435.7 331 433.4 329.3 429.7 330.2C429.7 327.9 426.8 324.8 426.8 324.8L408.5 323.5L397 331.3L404.7 351.1L414.6 352Z" fill="white" stroke="black" stroke-width="0.9"/>
<path d="M355.8 182.9L357.3 177.7C357.3 177.7 360 173.2 360 171.2C360 169.2 362 166.9 362 166.9C362 166.9 368 165.2 369.4 168.9C375.9 159 383.6 168.4 383.6 168.4L385.7 165.9L390 160.6C390 160.6 396.2 166.4 396.3 167.4C396.3 168.4 397.3 167.7 397.3 167.7L404 167.1C403.78 168.437 403.902 169.809 404.357 171.086C404.812 172.363 405.584 173.503 406.6 174.4C408.9 175.8 411 184 411 184L355.8 182.9Z" fill="url(#paint0_linear_2_4281)" stroke="black" stroke-width="0.9"/>
<path d="M414.6 244.4C415.8 243.7 419.4 242.6 418.9 237.2C418.5 231.9 413.9 231.3 411.3 231.5C409.462 231.786 407.753 232.623 406.4 233.9L397.9 228.5C397.9 228.5 402.2 201.5 406.7 199.9C411 196.8 411.7 195.5 411.7 194.8C411.7 194 410.2 192.3 410.2 192.3L382.4 189L356.1 192C356.1 192 354.1 195.2 354.4 196.4C354.6 197.7 354.7 199 359.4 202.6C364.6 206.6 368.2 229.6 368.2 229.6C368.2 229.6 360.8 233.2 360.4 232.8C359.9 232.4 357.7 231.9 356.6 232.1C355.4 232.3 351.6 234.2 351.6 239.3C351.6 244.3 355.4 247.3 355.4 247.3C355.4 247.3 380.5 244.3 384.3 251.3C387.9 242.9 411.8 245.8 414.6 244.4Z" fill="#656263" stroke="black" stroke-width="0.9"/>
<path d="M441.6 216.5C441.6 216.5 441.9 213.5 444 212.2C446 210.8 460 210.1 463.3 212.2C466.7 214.2 467.9 224.5 467.9 224.5C467.9 224.5 469.9 228.2 470.1 230.8L470.5 235.2C470.5 235.2 481.7 249.7 481.8 262.8C483 271.6 482.8 295.4 479.3 304.4C479.289 310.918 477.601 317.323 474.4 323C474.4 323 475.5 325 475.4 327C475.3 329.2 474.2 331.1 474.2 331.1L490.4 339.1L484.4 336.9L490.4 341.9L483.6 338.7L487.6 342.7L477.8 338.3L482.1 342.5L474.7 339L479 343.5C478.9 343.2 472.6 340.7 472.6 340.7L472.9 343.1C472.9 343.1 467.9 342.8 467.9 339.1C465.4 337.6 463.7 335.7 463.7 335.7L452.2 333.7L439.2 294.7L442.2 228.7L443 225.4L441.6 216.5Z" fill="black" stroke="black" stroke-width="0.9" stroke-linejoin="round"/>
<path d="M433 427.4C433 427.4 426.2 413.4 422.9 413.1C419.9 407.4 433.4 360.5 459.4 357.8C473.7 359 460.6 374.3 451.2 369.6C452.3 373.7 457 379.6 457 379.6C457 379.6 438.4 387.6 433 427.4ZM343.2 429.4C343.2 429.4 348.8 413.4 352.2 413.2C355.5 413 343.2 359.8 316.5 359.4C302.1 360.6 315.3 376 324.8 371.3C323.7 375.5 318.9 381.3 318.9 381.3C318.9 381.3 337.7 389.5 343.2 429.4Z" fill="#FFBB00" stroke="black" stroke-width="0.9"/>
<path d="M367.7 329.4C367.7 329.3 361.1 331.4 365.3 338.6C365.7 335.8 368.6 334.1 368.6 334.1C368.6 334.1 364.1 339.5 368.9 344C369.5 339.7 372.2 338.4 372.2 338.4C372.2 338.4 368.8 348.2 372.2 350.2C372.6 346.3 375.2 344.6 375.2 344.6C375.2 344.6 372.1 353.4 374.8 355.4C375.1 352 377.4 350.6 377.4 350.6C377.4 350.6 376 359.6 379.5 360.3C379.6 357.1 382.2 354 382.2 354C382.2 354 381 361.4 386.6 361.8C386.6 358.9 387.6 355.7 387.6 355.7C387.6 355.7 390.2 363.7 393.8 362.3V355.6C393.8 355.6 396.1 363.2 400.5 361.8C399.9 359.6 400.8 357.1 400.8 357.1C400.8 357.1 403.1 361.8 407.3 360.3C408 358.9 407.1 356.1 407.1 356.1C407.1 356.1 413.1 362.4 415.1 358.6C416.9 354.8 410.1 353.6 410.1 353.6H414.7C414.7 353.6 413.3 349.6 407.1 348.8C409.2 347.8 411.4 348.6 411.4 348.6C411.4 348.6 410.1 343.7 403.8 343.2C406.2 342.4 408.9 343 408.9 343C408.9 343 408.1 338.4 401.2 337.1C402.2 335.9 405.2 336.3 405.2 336.3C405.2 336.3 402.4 332 399.2 332.3C396.2 332.5 367.6 329.3 367.7 329.3V329.4Z" fill="#00713D" stroke="black" stroke-width="0.9"/>
<path d="M395.8 352.6C395.8 352.6 398.3 353.8 398.3 354.9M397.3 350.6C397.3 350.6 400.5 352.9 400.5 354.6M400.1 349.5C400.1 349.5 402.7 351.1 402.8 353.5M404.4 350.5C404.4 350.5 405.7 353.3 405.3 353.8M407 352C407.2 354.2 406.8 354.3 406.8 354.3M375.3 338.1C375.3 338.1 378.3 340.1 378.1 342.8M375.1 340.5C375.1 340.5 376.5 341.8 376.2 342.7M378.8 338.2C378.8 338.2 380.8 341 380.2 342.9M382.2 340C382.2 340 383.2 341.7 382.3 342.7M383.9 340.8C383.9 340.8 384.9 342.6 383.9 343.2M382.6 346.6C382.6 346.6 385.5 347.2 385.9 349.3M384.3 344.6C384.3 344.6 387.3 344.8 387.6 348M388.2 343.5C388.3 343.5 390.2 347 389.9 348M392 343.9C392 343.9 392.8 347.1 392.2 348.2M394.5 345.1V348.9M390.7 340C390.7 340 392.6 340.7 392.5 342.5M392.5 338.3C392.5 338.3 394.9 339.7 394.6 342.3M395.2 337.2C395.2 337.2 397.3 339.7 396.5 342.4M398.8 337.8C398.8 337.8 398.1 340.8 398.4 342.1M401 339.9C401 339.9 399.7 340.9 400.4 342.2M389.3 351.6C389.3 351.6 389.8 354 389.3 354.3M386.4 350.3C386.4 350.3 387.8 352.9 387.4 354.2M383.2 350.2C383.2 350.2 384.9 352.1 384.8 353.6M380.6 350.6C380.6 350.6 382.2 352 382.1 352.9M379.3 352.8C379.3 352.8 380.8 354.3 380.7 354.7" stroke="#3EC26D" stroke-width="0.9" stroke-linecap="round"/>
<path d="M347.3 247.2L368.6 246.8C368.6 246.8 382.6 246.8 384.1 251.4C386.8 245.3 399 245.7 399 245.7L421 244.9L421.4 298.1C419.404 307.443 415.087 316.133 408.848 323.368C402.608 330.603 394.648 336.151 385.7 339.5C376.505 336.38 368.31 330.861 361.963 323.512C355.616 316.163 351.348 307.252 349.6 297.7L347.3 247.2Z" fill="white" stroke="black" stroke-width="0.9"/>
<path d="M354.9 247L385.9 329.6L413.9 245.2C405.2 245.8 386.5 243.8 384.2 251.8C380.6 244.7 361 247.5 354.9 247Z" fill="#006B00" stroke="black" stroke-width="0.9"/>
<path d="M376 291.7C377.2 292.3 377.1 269.3 378.7 268.6L379.9 263.8C378.6 261.4 372.5 261.6 370.3 263.6C370.746 265.052 371.247 266.486 371.8 267.9C374.8 272.8 374.2 292.2 376 291.7Z" fill="#FFC900" stroke="#006B00" stroke-width="0.5" stroke-linecap="round"/>
<path d="M367.7 113.7C367.7 113.7 369.9 111.2 370 110.6C370 110 380 109.6 385.8 98.6C389.1 92.9 385.8 96.2 385.8 96.2L385.6 93.5C385.6 93.5 389.6 89.5 388.2 87.5C386.7 85.4 387.2 90.2 384.8 90.1C382.4 90 383.7 84.9 383.7 84.9C383.7 84.9 383.5 84.3 382.8 84C381.8 84.1 382.1 85.9 381.2 86C380.3 86.3 379.5 82 379.5 82C379.5 82 378 80 376.7 86.2C377.4 92.9 381.7 91.6 381.7 95.9C381.7 100.3 377.9 103.7 376.8 103.9C375.8 103.9 376.1 100.1 376.1 100.1C376.1 100.1 375.5 98.3 375.1 98.3C374.7 98.3 377.3 97.9 376.9 93C376 87 375.3 94.4 373.7 94C372.1 93.8 373.3 88.6 373.9 88C374.5 87.4 373.2 84.9 369.8 91.3C369.5 94.3 369.1 90.5 368.4 90.7C367.2 93.2 367.4 94.9 369.1 97.2C371.6 99.5 373.1 101.8 373.1 103C372.9 104.2 371.6 106.9 369.9 106.9C368.1 106.9 369.9 103.6 369.9 102.5C369.8 101.5 366.8 97.5 366.8 97.5C366.8 97.5 364.7 94.1 364.8 94C365.1 93.9 364.7 93.4 363.7 96.8C362.7 100.3 361.5 94.6 361.5 94.6C361.5 94.6 360.1 98.8 363.1 101.4C360.8 101.1 360.6 102 360.6 102C360.6 103.2 363.6 103.7 364.1 105.8C364.5 107.8 360.9 109.1 360.9 109.1C360.9 109.1 362.4 111.1 366.6 107.1C366.632 108.715 366.061 110.283 365 111.5C366.4 112.1 367.5 112 367.7 113.7Z" fill="#CDAD56" stroke="black" stroke-width="0.9" stroke-linejoin="round"/>
<path d="M354 113.7L352 110.4C352 109.8 343 111 338.6 100C335.8 94.7 338.6 97.8 338.6 97.8L338.8 95.3C338.8 95.3 335.8 91.6 337.1 89.7C338.4 87.8 337.8 92.2 339.5 92.2C341.5 92.2 340.4 87.5 340.4 87.5C340.4 87.5 340.6 86.9 341.2 86.7C342 86.7 342.4 89.5 343.2 89.7C343.9 89.9 345.4 86.5 345.9 85.7C346.6 85.7 346.6 83 347.7 88.7C347.1 94.7 342.1 93.6 342.1 97.5C342.1 101.5 345.3 104.6 346.2 104.7C347.2 104.7 346.8 101.3 346.8 101.3C346.8 101.3 347.3 99.7 347.7 99.7C348 99.7 344.7 100.3 345.1 95.8C345.8 91.6 347.5 96.1 348.9 95.8C350.2 95.5 348.7 91.3 349.1 90.7C349.1 90.1 351.1 87.3 351.9 93.4C352.2 96.2 353.7 91 354.3 91.1C355.3 93.4 353.9 96.4 352.4 98.5C350.4 100.6 349.4 102.9 349.4 104C349.5 105 350 106.4 351.6 106.4C353.1 106.4 352.1 104.5 352.2 103.5C352.2 102.5 354.8 99.3 354.8 99.3C355.3 98.5 354.8 97 355.4 96.3C356.2 96.3 356.5 95.2 357.4 98.3C358.2 101.5 359.3 96.3 359.3 96.3C359.3 96.3 360.4 100.2 357.9 102.5C359.9 102.2 360 103.1 360 103.1C360 104.1 359 104.6 358.7 106.5C358.4 108.5 359.7 109.5 359.7 109.5C359.7 109.5 358.5 111.4 354.9 107.7C354.942 109.146 355.431 110.543 356.3 111.7C355.1 112.2 354.2 112.2 354 113.7Z" fill="#CDAD56" stroke="black" stroke-width="0.8" stroke-linejoin="round"/>
<path d="M408.7 259.3C406.8 257.6 406.7 259.1 405.7 258.7C405.3 258.6 404.9 258.1 404.5 257.7C404.2 257.4 403.8 257.3 403.3 257.1L402.8 258.6C402.7 259.1 403.3 259.9 403.3 260.6C403.2 261.7 402.7 262.6 401.3 263C401.7 262.3 401.9 262.2 401.8 261.3C401.8 260.8 400.4 259.9 400.6 259.5C400.8 258.7 401.2 257.9 400.9 257.2C400.4 257.6 399.6 257.4 399 257.6C398.6 257.8 398.5 258.7 397.9 259.1C397.2 259.4 395.7 259.2 394.4 258.5C395.2 257.9 395.8 258.3 396.6 257.7C397 257.4 396.9 256.2 397.3 255.9L399 255C398.7 254.6 398.7 254 398.4 253.6C398 253.2 396.4 253.3 396.1 252.9C395.4 252.1 395.6 251.1 394.9 250.3C396.7 250.9 396.4 251.8 396.9 251.7C397.7 251.3 398.5 251.2 398.9 251.4C399.4 251.6 400.3 252.7 400.7 252.9L401.3 251.3C401.5 250.8 400.6 249.9 400.7 249.4C401.1 248.4 401.9 247.5 402.2 246.5L402.6 249.3C402.7 249.7 403.6 250 403.7 250.5C403.7 251 403.2 252.1 403.3 252.5H405.1C405.6 252.3 405.9 251.1 406.4 251C407.4 250.8 408.2 250.9 409.3 251C408.5 251.8 407.9 251.7 407.4 252.4C407 252.7 407.6 253.7 406.4 254.4C406 254.6 404.9 254.3 404.5 254.6L405.5 255.8C405.9 256.2 407.5 256.3 407.8 256.8C408.5 257.5 408.8 258.5 408.7 259.3ZM361 260.1C362.9 258.5 363.1 259.9 364 259.5C364.5 259.4 364.8 258.9 365.2 258.5C365.5 258.2 365.9 258.1 366.4 257.9L366.9 259.4C367.1 259.9 366.4 260.7 366.4 261.4C366.6 262.6 367 263.4 368.4 263.9C368 263.1 367.8 263 367.9 262.1C367.9 261.6 369.3 260.7 369.2 260.3C368.9 259.6 368.5 258.7 368.8 258C369.4 258.4 370.1 258.2 370.7 258.4C371.2 258.6 371.2 259.5 371.9 259.9C372.6 260.2 374.1 260 375.3 259.3C374.6 258.7 373.9 259.1 373.2 258.6C372.8 258.3 372.8 257 372.4 256.7L370.7 255.8C371.1 255.4 371 254.8 371.4 254.4C371.7 254 373.3 254.1 373.6 253.7C374.3 252.9 374.2 251.9 374.9 251.1C373.1 251.7 373.3 252.6 372.9 252.5C372 252.1 371.2 252 370.7 252.2C370.3 252.4 369.4 253.5 369 253.7L368.4 252.1C368.2 251.6 369.2 250.7 369 250.2C368.7 249.2 367.8 248.4 367.5 247.4L367.1 250.1C367.1 250.6 366.1 250.8 366.1 251.3C366 251.8 366.5 252.9 366.5 253.3H364.7C364.2 253.1 363.8 251.9 363.3 251.8C362.3 251.6 361.5 251.7 360.5 251.8C361.2 252.6 361.8 252.6 362.3 253.2C362.7 253.5 362.2 254.5 363.3 255.2C363.7 255.4 364.8 255.1 365.2 255.4L364.2 256.6C363.8 257 362.2 257.2 361.9 257.6C361.2 258.3 360.9 259.3 361 260.1Z" fill="#FFC900"/>
<path d="M407 264.6C405.3 266 394.5 268.7 394.4 278.1C394.3 287.5 396.3 289.7 394.3 289.9C390.3 289.9 389.8 279.4 389.9 274.8C390 270.1 390.1 270.8 390.1 270.8C390.1 270.8 392.8 271.6 392.6 273.8C392.4 276.1 395.3 268.2 394.3 266.1C396.1 267.9 398.4 267.1 398.4 267.1C398.4 266.9 397.1 265.5 396.5 264.4C396 263.4 398.5 265 398.5 265C398.5 265 398.6 263.2 396.4 263.3C393.4 263.3 396.9 262.3 396.9 262.3C396.9 262.3 398.5 263.9 399.7 262.3C398.4 260.9 396.7 260.3 396.7 260.3C396.7 260.3 395.1 257.3 392.9 256.7C390.5 256.1 390.9 257.7 388 257.5C387.5 258.5 387.5 258.7 388.6 259C386.6 260.3 387.6 263 387.6 263C387.6 263 390.7 261.7 390.6 263.8C390.5 266 388.8 265.6 387.6 264.3C386.6 263.7 386.3 264.9 386.3 264.9L387.9 266.5C387.9 266.5 384.9 266.5 384.1 268.5C384.978 268.367 385.875 268.471 386.7 268.8C386.7 268.8 383.2 270.4 382.9 271.2C382.5 272 382.4 270.2 382.3 270.2L379 269.1L377.8 274.2C377.8 274.2 380.1 276.4 381.3 275.7C382.5 275 384.8 272.9 386.1 273.5C382.2 276.5 378.3 280.7 376.1 281.3C375.6 280.9 373.7 278.9 372.9 279.9C372.1 280.9 372.7 282 373.7 281.9C374.7 281.9 370.5 282.9 371.4 284.7C372.2 286.5 372.1 286.3 372.9 285.9C373.7 285.4 372.2 285.3 375.2 284.4C378.1 283.6 378 282.8 378 282.8C378 282.8 377.4 284.1 375.8 284.4C374.3 284.8 373 284.8 373.4 285.3C373.7 285.7 374.4 286.6 374.1 287.1C373.9 287.5 377.4 284.6 378.3 286.9C380.6 286.9 382.2 283.9 381.1 282.3C381.1 284.1 382.3 284.7 381.6 285.5C381 286.3 386.9 282.8 384 280.6C384.8 282.4 384.9 283.8 384.9 283.8C384.9 283.8 386.2 283.8 386.6 283.2C386.9 282.8 385.9 284.6 386.3 284.9C386.8 285.3 388.9 287.3 388 288.7C387.5 287.9 387.3 286.6 386.7 286.7C386 286.8 383.2 288.8 381.5 289C379.9 289 383.5 295.2 383.5 295.2C383.5 295.2 381 294.8 380.6 295C380.3 295.3 378.6 292.9 378.3 294.3C377.7 296.1 378.8 295.4 378.8 295.4C378.8 295.4 377.4 294.7 376.6 295.5C375.8 296.4 375 297.2 375.6 297.5C376.2 297.9 378.6 297.9 379 297.8C379.3 297.7 376.2 298 376 298.4C375.7 298.7 375.3 300.1 376 300.5C376.6 301 378.3 300.3 378.4 299.9C378.5 299.6 378.6 301.2 378.6 301.2C378.6 301.2 381.6 301.5 381.6 298.5C381.6 295.5 381.8 300.6 381.8 300.6C381.8 300.6 384.7 301.1 384.8 298.1C384.8 295.1 385.1 300.1 385.1 300.1C385.1 300.1 387.1 299.6 387.1 299.1C387.1 298.6 386.9 305.1 385.6 306.9C383.4 305.4 382.1 307.8 382.1 307.8C382.1 307.8 382.2 311.3 382 312.1C381.8 312.9 383.4 311.6 383.5 311.3C383.7 310.9 385.7 309.9 385.8 309.7L386.4 308.3C386.4 308.3 386 309.9 385.2 310.2C384.4 310.4 383.7 311.2 384 312C384.3 312.7 385.6 313.2 386 313.9C386.4 314.6 388 309.7 388 309.7L388.1 310.7C388.1 310.7 390.1 310.3 390.4 309.4C390.6 308.4 388.2 307.6 390.1 306C392.1 304.5 390.1 307.4 390.1 307.4C390.1 307.4 390.8 309.7 391.3 309.7C391.7 309.7 392.8 305.4 391.7 304.3L393.4 305.7C393.4 305.7 395 301.2 393.3 300.7L390.8 299.8C390.8 299.8 391.8 298.6 391.3 298.5C390.8 298.4 393.6 301.1 394.1 300.5C394.5 299.7 395.1 297.5 391.9 296.4C388.7 295.2 391.9 291.8 391.9 291.8C391.9 291.8 393.9 294.2 395.3 292.9C396.7 291.6 395.2 291.6 395.2 291.6C395.2 291.6 399.3 289 399.4 287.6L397.3 287.8C397.3 287.8 399.6 286.2 399.1 283.8C398.1 285 397 285 397 285C397 285 399 283 398.6 281.1C397.4 282.1 397.6 282.8 396.7 282.5C396 282.3 394.7 274.8 397.7 274.3C400.9 273.8 399.2 278 399.3 278C399.4 278 404 276 399.3 273C400.4 272.6 402.8 274.8 402.8 274.8C402.8 274.8 401.8 269.5 396.8 272.8C398 271.4 398.8 270.6 399.8 270.8C400.8 271.1 404.3 270.8 404.3 269.7C403.5 268.9 401.6 270 400.5 269.7C399.5 269.3 407.7 268.7 407 264.7V264.6Z" fill="#FFC900" stroke="#006B00" stroke-width="0.5" stroke-linecap="round" stroke-linejoin="round"/>
<path d="M371.6 267.7C371.6 267.7 376.1 265.2 378.3 268.3M380 273.1C380 273.1 378.5 274.7 378.2 274.7M383.1 278.1C383.1 278.1 387.2 278.5 389.9 274.1" stroke="#006B00" stroke-width="0.5" stroke-linecap="round"/>
<path d="M387.6 276.8C387.6 276.8 387.9 279.2 388.6 279.2C389.2 279.2 387.5 279.8 386.8 279.3C387.6 280.3 388 282.3 386.8 283" stroke="#006B00" stroke-width="0.5" stroke-linecap="round"/>
<path d="M385.4 306.8C385.4 306.8 384 308.5 382.2 308.6Z" fill="#E80000"/>
<path d="M385.4 306.8C385.4 306.8 384 308.5 382.2 308.6" stroke="#006B00" stroke-width="0.5" stroke-linecap="round"/>
<path d="M387.1 299.2C387.1 299.2 386.2 294.4 386.8 293.2C387.1 291.7 388.6 291.2 389.7 289.1" stroke="#006B00" stroke-width="0.5" stroke-linecap="round"/>
<path d="M386.7 295.8C386.7 295.8 385.6 298.6 380.7 297.7M388 288.6C388 288.6 388.3 292.4 383.9 291M382.5 271.4C382.5 271.4 380.7 273.1 381.5 275.4" stroke="#006B00" stroke-width="0.5" stroke-linecap="round"/>
<path d="M389.2 267.3C389.2 267.3 391.6 266.3 392 265.8C392.626 265.199 393.134 264.487 393.5 263.7C393.7 263 391.9 261.9 392.8 260.3C393.4 259.6 394.2 259.5 395.5 260.3C396.8 261.2 394.3 257.7 392.9 257.6C391.6 257.5 390.7 258.6 390.4 258.3C390 258.1 390.4 259.3 389.9 259.3C389.4 259.3 391 260.3 390.9 260.8C390.9 261.4 392.7 263.4 392.6 263.9C392.5 264.4 389.8 267.1 389.2 267.3Z" fill="#006B00"/>
<path d="M391 259.4C392 259.1 392.1 259.4 392 260.4C391.5 260.1 391.3 259.9 391 259.4Z" fill="#FFC900" stroke="#FFC900" stroke-width="0.5" stroke-linecap="round" stroke-linejoin="round"/>
<path d="M383.8 312.5C383.8 312.5 383.4 315 384.3 315.2C384.3 314.2 384.5 313.6 384.7 313.3L383.7 312.5H383.8ZM381.7 309.4C380.9 309.4 379.4 310.1 379.8 311C380.5 310.3 381.2 311 381.6 310.4C381.8 310.2 381.8 309.7 381.7 309.4ZM381.7 307.7C381.7 307.7 380.4 307.4 380.2 308.4C381.1 308.3 381.4 308.2 381.7 308.4V307.7ZM376 293.6C376 293.6 376.8 293.9 377 294.8C377.7 294.4 378 292.5 376 293.6ZM374 295.7C374.1 295.7 375.7 294.7 376 295.7C375.6 296 375.4 296.3 375.1 296.3C374.9 296.3 374.5 295.7 374.1 295.7H374ZM373.9 299.2C373.9 299.2 374.9 298.2 375.4 298.8C375.7 299.5 375 299.4 375 299.4L373.9 299.2ZM372.5 280C372.5 280 371.1 279.4 370.5 280.4C371.5 280.5 371.8 280.8 372.2 281.2C372 280.8 371.9 280.2 372.5 280ZM370 287.2C370 287.2 370 285.6 370.7 284.9C371.1 285.2 371.2 285.5 371.5 286C371 286.2 370.2 286.2 369.9 287.2H370ZM373.4 286C373.4 286 372 286.7 372.4 287.5C372.9 287 373.4 287.2 373.4 287.1V286.1V286Z" fill="#E80000" stroke="#006B00" stroke-width="0.5" stroke-linejoin="round"/>
<path d="M371.3 270.5C370.8 271.1 372 272.5 373.2 272.2C373.5 270.8 371.6 270 371.3 270.5Z" fill="#FFC900" stroke="#006B00" stroke-width="0.5" stroke-linejoin="round"/>
<path d="M372.7 269.4C372.7 269.4 372.9 270.5 373.9 270.2C373.8 269.3 373 268.7 373 268.7C373 268.9 373.2 269.3 372.7 269.4ZM373.4 272.7C373.4 272.7 373.9 273.4 375.1 272C374.6 272.2 373.6 271.7 373.6 271.7C373.6 271.7 373.6 272.7 373.4 272.7Z" fill="#E80000" stroke="#006B00" stroke-width="0.5" stroke-linejoin="round"/>
<path d="M371.3 267.9C370.8 268.5 371.5 269.3 372.7 269.1C373 267.7 371.6 267.4 371.3 267.9Z" fill="#FFC900" stroke="#006B00" stroke-width="0.5" stroke-linejoin="round"/>
<path d="M371.8 262.1C371.8 262.1 376.6 260.8 379.1 262.8C381.7 264.8 381.7 263 381.7 263C381.7 263 385.4 264.4 386.5 264.1C387.5 263.8 385.7 264.2 387.2 263.3C388.7 262.4 384.2 263.5 383.8 261.6C383.2 260.5 383.9 259 382.4 259.5C381.3 258.1 383.1 257.1 382.7 255.7C381.6 256.4 381 255.4 380.1 257.3C378.1 256.9 379.8 254.1 377.6 253.8C377.6 255.8 375.9 256 375.8 257.1C374.8 257.8 370.5 260.4 371.8 262.1Z" fill="url(#paint1_linear_2_4281)"/>
<path d="M316.4 418.8C319.4 418 336.4 422.5 342.9 429.5C341.5 417 338.1 407.5 338.1 407.5C338.1 407.5 328 404.6 326.6 406C324.6 408.1 318.5 414.5 316.4 418.8ZM311.2 361.2C310 361.4 308.8 362.2 307.6 364.2C306.2 367.5 305.3 376 303.3 378C301.3 380 299.5 380.2 299.5 382C299.5 383.8 299.7 388 305.1 389.5C310.4 389.7 318.9 381 318.9 381C318.9 381 323.3 376.2 325 371.1C314.8 374.7 307.4 365.1 311.2 361.2ZM460 416.8C450.174 417.426 440.796 421.136 433.2 427.4C434.043 419.987 435.651 412.681 438 405.6C439.2 405.2 448 402.7 449.3 404.1C451.3 406.2 457.8 412.6 459.9 416.8H460ZM464.7 359.6C465.9 359.8 466.3 361.3 467.3 363.3C468.6 366.6 470 371.5 472 373.5C474 375.5 475.7 378.3 475.7 380.1C475.7 381.9 475.3 384.3 470 385.8C464.7 386 457 379.2 457 379.2C457 379.2 452.7 374.5 451 369.4C461.2 372.9 467.8 363.8 464.7 359.6Z" fill="#C01500" stroke="black" stroke-width="0.9"/>
<path d="M305.3 407.9C305.3 407.9 315.9 415.2 316.1 418.6C344.8 376 418 362.8 459.7 415.6C462.614 411.488 466.494 408.157 471 405.9C427 348.6 339.7 355.7 305.3 407.9Z" fill="#FFBB00" stroke="black" stroke-width="0.9"/>
<path d="M414 245.2H418.2L410.8 254.6L419.8 265L402.1 287.2L418.7 307.2C416.9 311.7 414.7 315.8 411.9 319.5L402.4 308.9L419.7 287.3L405.5 271.2L414 245.2ZM354.3 247.1L349.9 247.2L358.2 256.2L349.4 267.3L367.8 287.3L352.5 307.7C354.376 312.355 356.828 316.756 359.8 320.8L368.8 309.4L350.3 288.7L363.9 271.4L354.3 247.1Z" fill="#1E5AA6" stroke="black" stroke-width="0.9"/>
<path d="M375 300.8L368.5 309.6L391.9 336.8C396.1 334.7 399.3 332.3 402.9 329.4L390.7 315.3L395.7 300.6L402.8 308.9L380.4 337.5C376.216 335.654 372.311 333.231 368.8 330.3L380.6 315.3L375 300.8ZM367.8 287.2L372 292.6L369.3 285.3L367.8 287.2ZM398.4 292L401.9 287.4L400.6 285.6L398.4 292Z" fill="#1E5AA6" stroke="black" stroke-width="0.9"/>
<path d="M447.9 217.2C447.9 217.2 452 213.7 454.9 213.6" stroke="#FFF700" stroke-width="0.9" stroke-linecap="round"/>
<path d="M448.5 216.7C448.5 216.7 473.2 213.2 473.9 212.4M448.6 217C448.6 216.8 476.1 214.6 476.1 214.6" stroke="#FFF700" stroke-width="0.9" stroke-linecap="round"/>
<path d="M479.5 217.1C477.7 215.6 448.5 217 448.5 217L476 219.2M448.4 217C448.4 217 477 217.1 477.4 217.8M448.2 217.1C448.3 217.1 476.2 219.6 478.9 223.1" stroke="#FFF700" stroke-width="0.9" stroke-linecap="round"/>
<path d="M480.4 228.1C480.4 228.1 470.9 216.8 448.1 217.1" stroke="#FFF700" stroke-width="0.9" stroke-linecap="round"/>
<path d="M448.2 217.2C448.2 217.2 464 218.3 469 223.8" stroke="#FFF700" stroke-width="0.9" stroke-linecap="round"/>
<path d="M448.5 217C448.5 217 458.7 215 469.5 228" stroke="#FFF700" stroke-width="0.9" stroke-linecap="round"/>
<path d="M442 228.7C442 228.7 456.2 229.3 456.2 230.7C456.2 232 445.7 234.7 445.5 240.5C445.4 246.4 453.5 246.8 454.1 254.1C454.7 261.5 447.8 262.6 446.4 264.6C445 265.6 441.6 275.9 442.1 282.1C442.5 288.1 444.3 308.9 447.5 313.1C450 315 453.7 321.2 457.8 319.3C461.8 317.3 459 310.3 458.6 308.3C458.2 306.3 460.3 303.2 460.3 300.3C460.3 297.3 458.7 295 458.9 294.3C459 293.6 470.1 296.9 469.4 307.9C468.7 318.9 464.3 315.5 464.3 315.5C464.3 315.5 465.7 329 462.2 330.8C456 334.2 451.4 330.1 451.4 330.1L452 332.9L447.2 330.4C447.2 330.4 441.1 321.7 439.7 317.8C437.915 309.59 437.076 301.201 437.2 292.8C437.8 289 438.2 267.1 437.9 265.9C437.6 264.9 436.5 246.5 437.2 243.7C437.9 240.9 442.2 228.7 442.1 228.7H442Z" fill="url(#paint2_linear_2_4281)" stroke="black" stroke-width="0.9"/>
<path d="M426.8 225C426.8 225 436.6 215.5 442.3 216.6C445.3 216.6 442.5 218.7 442.5 218.7C442.5 218.7 447.5 219.1 448.2 221.3C448.3 222.3 445.8 222.6 445.8 222.6C445.8 222.6 447.8 223 448 224.8C448.2 226.6 427 225.2 426.8 225.1V225Z" fill="#FF7000" stroke="black" stroke-width="0.9"/>
<path d="M427.3 224.7C427.3 224.7 437.9 223.3 442.3 218.8" stroke="black" stroke-width="0.9"/>
<path d="M438 221.8C438 221.8 445.8 221.5 445.8 222.6" stroke="black" stroke-width="0.9"/>
<path d="M465.7 335.4C465.7 335.4 472.3 333.9 474.2 331.5C475.2 330.7 481.1 340.3 465.7 335.5V335.4Z" fill="white" stroke="black" stroke-width="0.9" stroke-linejoin="round"/>
<path d="M463.9 280.3C463.9 280.3 464.7 285.4 462.3 288.9C461.1 290.3 457.3 292.6 457.3 294.3C457.3 296 458.7 298.2 458.5 300.1C458.2 302.1 456.1 304.1 456.2 305.7C456.2 307.3 458.6 316.2 458.3 316.4M451.7 263.6C451.7 263.6 446.4 265.4 445.3 270.6" stroke="white" stroke-width="0.9" stroke-linecap="round"/>
<path d="M449.4 221.8C449.4 221.8 451.2 226.8 457.1 222C453.3 216.9 449.4 221.9 449.4 221.8Z" fill="#C75B00" stroke="black" stroke-width="0.9"/>
<path d="M453.7 221.6C453.7 221.8 453.5 222 453.1 222C452.8 222 452.5 221.8 452.5 221.6C452.5 221.3 452.8 221.1 453.1 221.1C453.5 221.1 453.7 221.3 453.7 221.6Z" fill="black"/>
<path d="M401.7 210.2C401.7 210.2 412.7 222.2 419.9 222C421.2 225.5 416.7 228.8 414.9 230.3C411.2 229.2 407.9 230.6 399.5 220.1C400 213.5 401.8 210.4 401.7 210.1V210.2ZM416.7 182.3C418.1 177.9 421 174.3 423.4 174C422.8 170.6 428.7 155.6 445.7 149.9C446.7 157.6 438.4 165.1 438.4 165.1C438.4 165.1 463.5 160.8 468.6 154.4C468.1 157.3 463 175.1 436.2 175C446.4 184.6 433 192.3 427.2 190C437.8 182 424.2 177 416.7 182.3Z" fill="white" stroke="black" stroke-width="0.9"/>
<path d="M425.3 176C430.3 172.8 432.2 172.8 436.3 173.4C433.3 173.8 433.3 174 433.3 174C433.3 174 433.1 174.4 434.9 176C432.9 175.5 431 174.4 425.3 176Z" fill="#CCCCCD" stroke="#CCCCCC" stroke-width="0.9"/>
<path d="M423.3 174C423.3 174 433.3 168.6 438.9 165" stroke="black" stroke-width="0.9"/>
<path d="M414.7 230.3C414.7 230.3 428.5 234.1 430.1 214.3C427.1 205.7 422.9 187.3 429.3 181.9C423.4 177.9 417.1 182 417.1 182C416.7 183 411.5 190.4 418.5 203.4C401.8 199 408.6 214.7 408.6 214.7C409.3 212.2 418.1 209.9 420.3 222.5C421.3 225.6 414.3 230.5 414.7 230.3Z" fill="#0000FF" stroke="black" stroke-width="0.9"/>
<path d="M430.2 214.5C430.2 214.5 444.8 206.6 444.4 188.3C432 188.5 427.6 204.6 427.6 204.6L430.2 214.5Z" fill="#0000FF" stroke="black" stroke-width="0.9"/>
<path d="M364.9 213.5C364.9 213.5 354.1 222.9 347.9 219.9C343.4 222.7 338.1 217.9 338.1 217.9C338.1 217.9 344.3 240.9 366.7 224.2C366.468 220.581 365.865 216.996 364.9 213.5Z" fill="white" stroke="black" stroke-width="0.9"/>
<path d="M347.8 219.5C348.8 214.7 352.5 212.4 355.5 216.9C359.5 217.7 363.5 201.2 349.2 203.9C353.2 182.3 341.2 174.2 341.2 174.2C341.2 174.2 336.9 198.2 338.8 202.6C340.8 207 336 194.4 320.5 190.9C320.2 208.9 337.8 217.4 337.8 217.4C337.8 217.4 342.8 222 347.8 219.5Z" fill="#0000FF" stroke="black" stroke-width="0.9"/>
<path d="M349.2 203.8C349.2 203.8 342.5 209.5 344 217.3M339 203C339 203 337.4 208.6 340.8 216.5" stroke="black" stroke-width="0.9"/>
<path d="M338 218.4C338 218.4 341 213.3 347.8 219.8" stroke="black" stroke-width="0.9"/>
<path d="M339.2 183.2C339.2 183.1 328.9 183.2 335.1 193.6C330.5 195.1 320.3 188.4 327.4 179.6C304.4 179 295 168 295 157.8C301.7 164.8 317.9 162 323.6 166.3C316.6 159.8 318 150.8 318 150.8C318 150.8 337.7 156.7 341.2 174.1C340 177.5 339.5 183.5 339.2 183.2Z" fill="white" stroke="black" stroke-width="0.9"/>
<path d="M323.4 165.8C327.2 169.7 336.9 170.8 341.9 175.1" stroke="black" stroke-width="0.9"/>
<path d="M327.9 177.2C327.9 177.2 335.9 176.2 338.3 179C335.1 179 334.1 178.3 329.5 180C330.8 179.3 330.5 178.1 331.2 178.1C331.9 178.1 328.2 177.2 327.9 177.2Z" fill="#CCCCCD" stroke="#CCCCCC" stroke-width="0.6"/>
<path d="M368.1 114C368.1 114 372.5 110.2 377.4 113.7C375.2 120.2 367.4 117.7 367.4 117.7C367.4 117.7 367.6 121 366.8 122.5C368.4 123.7 369.7 127.6 369.7 127.6C369.7 127.6 377.7 125.6 379.5 129.2C382.5 128.8 384.8 129.2 384.8 129.2C384.8 129.2 391 127.6 393.2 127.6C395.5 127.6 402.5 129.4 403.2 130.7C403.8 132 406.2 140.7 407.7 140.7C409.3 140.5 403.9 142.7 402.5 140.5C401.1 138.3 401.5 143.4 401.5 143.4C401.5 143.4 405.9 148.1 406.4 149.1C406.9 150.1 403.7 158.6 406.1 164.5C404 164.7 403.8 166.9 403.8 166.9C403.7 169.5 400.4 170.2 400.4 170.2L399.6 166.7L397.4 168L398.4 165.2C398.4 165.2 401.4 158 401.6 155.6C401.8 153.3 398.8 149.1 396.5 149.1C394.2 149.1 392.5 156.5 392.5 156.5C392.5 156.5 391.3 162.1 391.7 162.6L390.1 160.8C390.1 160.8 389.1 164.2 388.3 165.2C387.5 166.2 385.8 166.7 385.8 166.7C385.8 166.7 384.7 163.3 385 162C385.4 160.7 391.4 155.6 391 152C390.4 148.3 391 149.2 390.8 149.1C390.6 149 387.7 146.4 387.5 144.9C387.4 143.5 383.6 146.8 378.7 145.7C377.2 148.4 377 155 377 155C377 155 376.5 162.9 377.5 163.8C378.5 164.8 374.9 166.7 374.9 166.7L372.3 170.2L371.3 168.2L369.6 169.4L370.6 166.8C370.6 164.8 373.1 159.4 373.1 154.8C373.1 150.3 373.5 145.5 373.5 145.5C373.5 145.5 368.6 145.2 368.8 150.1C368.9 155.1 367.6 155.4 367.8 156.8C368.1 158.2 369.4 162.2 369 163.4C368.6 164.6 367 165 367 165L366.7 165.6C366.7 165.6 361.9 167.8 362 168.8L361.9 166.2L361.6 162.4C361.6 162.4 364.5 160.6 364.5 156C364.5 151.4 363.8 150.8 364 149.8C364 148.8 364.7 144.9 364.6 144.5C364.5 144.2 361.9 145.5 361.1 145.5C360.3 145.5 362.5 142.9 362.8 140.9C363 138.9 360.2 142.7 357.8 140.5C358.9 138.1 360.6 137.4 360.8 135.5C361.1 133.7 359 137.1 357.2 135.8C357.3 134.1 359.2 132.6 359.2 132.6C359.2 132.6 357.7 132.4 357.1 132.6C355.9 132.2 358.4 130.4 358.5 127.7C358.6 125.1 357.1 124.1 357.1 124C357.1 123.8 354.5 121.6 354.1 120.7C353.7 119.8 353.7 118.7 353.7 118.7C353.7 118.7 349.4 121.9 344.3 115.3C348.9 111.3 353.9 114.3 353.9 114.3C353.9 114.3 355.2 110.6 361.2 110.8C367.2 111.1 368.4 114.5 368.2 114.1L368.1 114Z" fill="#923F00" stroke="black" stroke-width="0.9"/>
<path d="M400.9 181.4C400.9 181.4 411.9 181.7 412 187.6C412.1 193.5 408.7 191.9 408.6 191.9L400.6 190.9L400.9 181.4Z" fill="#0000FF" stroke="black" stroke-width="0.9"/>
<path d="M390.2 179.8C390.2 179.8 403.9 179.7 403.2 185.6C402.4 191.6 398.9 190.4 398.9 190.4L392.3 189.9L390.2 179.8Z" fill="#FFFEFF" stroke="black" stroke-width="0.9"/>
<path d="M382.5 179.1L390.5 179.8C390.5 179.8 395.2 180.4 395 185C394.8 189.6 390.1 189.7 390.1 189.7L382.4 189.2L382.5 179.1Z" fill="#0000FF" stroke="black" stroke-width="0.9"/>
<path d="M364 181.4C363.9 181.4 353 181.7 352.8 187.6C352.8 193.5 356.2 191.9 356.3 191.9L364.3 190.9L364 181.4Z" fill="white" stroke="black" stroke-width="0.9"/>
<path d="M374.6 179.8C374.6 179.8 361 179.7 361.7 185.6C362.5 191.6 366 190.4 366 190.4L372.6 189.9L374.6 179.8Z" fill="#0000FF" stroke="black" stroke-width="0.9"/>
<path d="M382.3 179.1L374.4 179.8C374.4 179.8 369.6 180.4 369.9 185C370.1 189.6 374.7 189.7 374.7 189.7L382.4 189.2L382.3 179.1Z" fill="white" stroke="black" stroke-width="0.9"/>
<path d="M403.5 245C403.5 245 409.2 236.6 411.6 237.5C413.7 238.2 412.1 244.7 411.1 245.3L403.5 245ZM364.5 246.5C362.7 244 360.1 237.1 357.7 239C355.7 239.7 357.2 246.2 358.2 246.8L364.5 246.5Z" fill="#5E0043" stroke="black" stroke-width="0.9"/>
<path d="M368.3 229.9C368.3 229.9 379.3 236.7 383 236.9C386.7 237.1 398.2 228 398.2 228" stroke="black" stroke-width="0.9"/>
<path d="M369.4 203L371.4 200.4L382.1 205.8L393 201L395 203.3L383 211.8L369.4 203Z" fill="#5E0043" stroke="black" stroke-width="0.9"/>
<path d="M360.9 203C361.8 204 368.6 212.4 369.9 219.3C371.1 226.3 369.2 209.8 369.2 209.8C369.2 209.8 377.7 214 378 216.7C378.2 219.3 382 216.5 382.2 216L357.6 200L360.9 203ZM403 202.5C403 202.5 394 214.3 395 227.1C393.2 221 394.7 210.8 394.7 210.8L392.7 212.1C392.7 212.1 390.7 220.7 388.2 222.1C387.7 221.1 387.8 220.7 387.8 220.7C387.8 220.7 385.1 224.2 384.5 224.6C384 224.9 384.7 236.6 384.7 236.6C384.7 236.6 385.7 245 386.7 244.9C385.779 245.361 384.878 245.862 384 246.4L382.9 223.9L385.4 221.4C385.4 221.4 388.8 217.3 389 213.3C388.126 214.042 387.103 214.588 386 214.9C386 214.9 385.5 220.6 384.2 221.4C382.8 222.2 382.8 223.6 382.8 223.6L382.5 216.2L403 202.5Z" fill="#474747" stroke="#474747" stroke-width="0.9" stroke-linejoin="round"/>
<path d="M382.5 216.1L384.2 251.6" stroke="black" stroke-width="0.9" stroke-linecap="round"/>
<path d="M360.7 233C360.7 233 364.7 235.5 366.2 242.7C379.6 241.7 383.7 246.5 383.7 246.5C383.7 246.5 394.7 241.2 399.7 242.2C401.558 239.063 403.847 236.202 406.5 233.7" stroke="black" stroke-width="0.9"/>
<path d="M355 198.3L382.5 216.3L407.1 199.6C407.1 199.6 412.3 196.8 411.8 194.8C411.4 192.8 409.6 193.5 408.8 193.8C407.8 194.2 382.9 211.8 382.9 211.8L356.4 195.1C356.4 195.1 354.4 194.5 354.1 195.7C353.7 197 354.8 197.7 355.1 198.3H355Z" fill="#B4B6B9" stroke="black" stroke-width="0.9"/>
<path d="M404 193.6C404 193.6 397 190.6 397 193.2C397 195.8 397.3 196.1 398.4 197.7C399.5 199.4 397.5 200.4 397.5 200.4L396.9 198.6C396.5 197.5 392.7 196.6 392.4 195.4C392 194 393.2 191.9 390.9 191.7C388.7 191.4 386.5 192.6 386 195.2C385.6 197.7 382.7 203.8 382.7 203.8L383 190.1C388 190.4 397.2 191.5 404.2 192.3C402.1 192 405 192.5 404.9 193.2C404.7 193.8 404 193.8 404.1 193.6H404ZM379.3 190.2C378 190.2 371.7 190.9 370.2 191.9C368.6 192.8 372.7 194.2 372.2 195.5C371.7 196.7 371.6 199.3 369.6 198.7C367.6 198.2 361 194.9 360.8 193.7C360.6 192.7 359.2 192.6 359.2 192.6C359.2 192.6 378.4 190 379.2 190.2H379.3Z" fill="#474747" stroke="#474747" stroke-width="0.9" stroke-linejoin="round"/>
<path d="M382.3 188.6V205.4M369.4 168.8L361.5 181.7" stroke="black" stroke-width="0.9"/>
<path d="M383.5 168.5C383.5 168.5 386.9 173.1 386.5 174.4C387.758 175.991 388.739 177.783 389.4 179.7" fill="url(#paint3_linear_2_4281)"/>
<path d="M383.5 168.5C383.5 168.5 386.9 173.1 386.5 174.4C387.758 175.991 388.739 177.783 389.4 179.7" stroke="black" stroke-width="0.9"/>
<path d="M396.4 167.8C396.4 167.8 389.2 177.9 389.4 178.7" stroke="black" stroke-width="0.9"/>
<path d="M359.4 119.3C359.3 119.9 358.4 120.1 357.4 119.8C356.4 119.5 355.7 118.8 355.9 118.2C356.1 117.6 356.9 117.4 357.9 117.7C358.9 118 359.6 118.7 359.4 119.3ZM362.3 119C362.5 119.7 363.4 119.9 364.4 119.6C365.4 119.3 366 118.6 365.9 118C365.7 117.4 364.8 117.2 363.9 117.5C362.9 117.8 362.2 118.5 362.3 119.1V119Z" fill="black"/>
<path d="M447 330.2C447 330.2 444.2 330.7 444.3 331C444.4 331.2 436.5 331.5 436.3 331.2C436.2 331 435.2 332.6 435.2 332.6L436.4 331.8C436.4 331.8 438.4 333.8 439 333.6C439.5 333.5 438.7 334.4 438.9 334.6C439 334.7 439.6 334.2 439.6 334.2L452.6 334L447 330.2ZM451.8 334.3L441.1 334.6C441.1 334.6 438.5 337 438.3 337.6C438.1 338.2 440 338.3 440 338.3L440.6 340.3L442 339.8C442 339.8 451 341.2 459.3 339.3C463.5 337.9 464.3 336.1 461.3 335C458.3 334 451.8 334.3 451.8 334.3Z" fill="#FF7000" stroke="black" stroke-width="0.9" stroke-linejoin="round"/>
<path d="M415.4 356L434.4 355.2L430.9 352.2L482.7 350.1L480.9 346L422.9 348.3L429.9 351.6L414.3 352L414.7 353.7L410.7 353.5C410.7 353.5 415.2 355.3 415.4 356.1V356Z" fill="url(#paint4_linear_2_4281)" stroke="black" stroke-width="0.9"/>
<path d="M436.8 250.4C435.3 249.6 428.6 248.7 421.2 253.6L421.5 270.7C421.5 270.7 432.4 264.8 437.7 266.2C437.4 260.9 437.4 254 436.8 250.4Z" fill="url(#paint5_linear_2_4281)" stroke="black" stroke-width="0.9"/>
<path d="M331 302.5L286 347.3M351.1 302.8L314.5 351.1M349.5 290.3L300.6 349.4M299.1 348.6L303.9 343.1M358.8 320L339.8 346.2M339 349.6L339.5 359.6M367.5 329.2L347.4 354.3M363.9 352.4L372 339M367 336.4L357.2 347.4M364 325.9L357.3 334.1M355.4 314C355.4 314 334.9 343.9 335.3 346.3M353.3 310C352.8 310.4 335.6 333 335.6 333M334.6 340.3L331.6 344M327.6 349.8L322.9 356" stroke="black" stroke-width="0.9"/>
<path d="M328.8 233.7C328.8 233.7 327.4 238 328.8 240.2C330.2 242.4 338.8 260 338.8 260C338.8 260 344.8 252.7 347 252.5C349.2 252.3 348.2 271.5 348.2 271.5C348.2 271.5 344.6 274.8 342.4 274.6C340.3 274.4 347.8 282.1 347.6 288.6C347.4 295.2 337.6 327.6 334.1 328.2C330.6 328.8 335.7 322.2 335.5 320.5C335.3 318.7 334.3 319.9 333.5 317.9C332.7 315.9 334.7 312.9 334.3 310.9C333.9 309 332.2 309.4 332 308C331.8 306.6 333.1 306.2 333 304.7C332.7 303.1 330.6 303.5 330.8 302.1C331 300.7 331.2 301.3 331 298.7C330.8 296.2 330.4 300.5 328.2 300.7C326 300.9 324.2 305.9 324.2 305.9C324.2 305.9 319.9 311.9 315.5 309.2C318.1 314.8 316.1 317.2 315.1 317.3C314.1 317.5 315.9 321.7 313.6 321.9C311.2 322.1 315.3 331.2 312.6 331.9C315.6 333.3 313.2 335.1 313.2 335.1C313.2 335.1 306.3 335.7 307.8 344.6C287.7 337.5 277.8 325.2 278 312.8C278.2 300.3 282.1 289 291.8 284.8C294.6 274.6 299.3 263.5 299.3 263.5C299.3 263.5 298.5 259 299.1 256C299.7 253 302.5 250 302.5 250C302.5 250 302.1 243 302.3 239.4C302.5 235.8 303.9 234.3 304.1 232.3C304.3 230.3 303.5 220.3 305.5 218.4C307.5 216.7 311.2 216.9 313.2 215.7C315.2 214.5 317.7 212.3 320.2 212.5C322.9 212.7 325 214.5 325 214.5C325 214.5 334.7 214.5 335.3 218.2C335.9 222 333.3 223.4 333.3 223.4C333.3 223.4 334.7 228.7 328.8 233.7Z" fill="#8A9396" stroke="#2B2B2B" stroke-width="0.9"/>
<path d="M320.2 220C320.5 220.5 319.8 221.5 318.6 222.2C317.4 222.8 316.2 222.9 315.9 222.2C315.6 221.7 316.3 220.7 317.5 220.1C318.7 219.5 319.9 219.4 320.2 220Z" fill="#CECFCF" stroke="#2B2B2B" stroke-width="0.9"/>
<path d="M318.5 221C318.5 221.3 318.2 221.6 317.8 221.6C317.4 221.6 317.1 221.3 317.1 221C317.1 220.6 317.4 220.3 317.8 220.3C318.2 220.3 318.5 220.6 318.5 221Z" fill="black"/>
<path d="M333 227.5C333 227.5 335.4 238.2 332.5 245.6M333.7 222.8C333.7 222.8 338.4 229 337.8 236.8M334.2 221.5C334.3 221.5 338.2 224.8 338 227.1M335.1 220.1C335.1 220.1 337.7 221.9 338.3 223.7" stroke="#2B2B2B" stroke-width="0.4"/>
<path d="M333.9 219C333.9 219 324.7 234 325.9 243.4" stroke="black" stroke-width="0.9"/>
<path d="M334.5 218.6C334.5 218.6 322.3 225.8 320 249.6" stroke="#2B2B2B" stroke-width="0.4"/>
<path d="M333.1 223L328.3 226.6" stroke="black" stroke-width="0.9"/>
<path d="M315.5 251C315.5 251 322.3 222.7 334.3 218.6" stroke="#2B2B2B" stroke-width="0.4"/>
<path d="M339 260.5C339 260.5 345.5 252.3 347 252.6C348.6 252.9 348.1 271.5 348.1 271.5C348.1 271.5 343.3 275.1 342.2 275C341.2 274.8 347.6 283.7 347.5 287L347.2 290.4C347.2 290.4 347.2 288.4 345.7 285.2C344.2 282.1 345.1 278.4 335.3 270.4C332.8 265.4 340.1 273.4 341.6 272.2C343.1 271 338.9 260.6 339 260.5Z" fill="#2B2B2B" stroke="#2B2B2B" stroke-width="0.9"/>
<path d="M327.5 214.5C327.5 214.5 324.7 215.2 324.4 216.4C324 217.4 322.4 218.6 321.5 218.2C320.6 217.8 319 216.5 319 216.5" stroke="#2B2B2B" stroke-width="0.9"/>
<path d="M312 224C312 224 307.9 228.2 309.8 228.7C311.8 229.1 313.9 225.4 313.9 225.4C313.9 225.4 313.9 231.8 315.7 230.8C317.4 229.8 322.5 226.2 322.5 226.2C322.5 226.2 324.3 226 324.6 226.2C325 226.2 329.3 230 332.2 228.7C330.6 232.9 328.7 233.4 328.7 233.4C328.7 233.4 325.7 237.2 321.9 236.4C318 235.4 317 233.9 317 233.9C317 233.9 313.8 234.1 312.8 232.6C311.8 231.1 311.5 230.3 311.5 230.3C311.5 230.3 309.6 232.1 309.1 231.3C308.6 230.3 309.1 225.3 312 224.1V224Z" fill="#2B2B2B" stroke="#2B2B2B" stroke-width="0.9" stroke-linejoin="round"/>
<path d="M335.2 218.3C335.2 218.3 327.6 216.1 325 219.8C322.4 223.6 323 225.7 324.4 226" stroke="#2B2B2B" stroke-width="0.9"/>
<path d="M336.3 218.1C336.3 219.1 335.7 219.7 334.9 219.7C334.1 219.7 333.5 219 333.5 218.1C333.5 217.2 334.1 216.5 334.9 216.5C335.7 216.5 336.3 217.2 336.3 218.1Z" fill="black"/>
<path d="M314.3 237.5C314.3 237.5 317.3 242.2 321.1 243.5C324.8 244.8 318.5 246 314.8 243.5C312.2 239.8 312.8 237.2 312.8 237.2C312.8 237.2 313.6 236.5 314.3 237.5ZM340.7 265.5C340.7 265.5 332.1 253.5 329.6 252.8C327.1 252.1 331.5 251.6 334.1 254.2C336.8 256.7 333.4 250 333.4 250L340.7 265.5Z" fill="#2B2B2B" stroke="#2B2B2B" stroke-width="0.9"/>
<path d="M313.5 335.2C316.8 334.3 331.3 343.5 334.5 345.8C337.8 348.1 344.7 346.7 344.7 346.7C344.7 346.7 341.5 348.6 339.5 349C337.5 349.5 345.4 349.5 345.4 349.5C345.4 349.5 326.8 354.6 308 344.7C306.3 337 312 335.3 313.5 335.2Z" fill="#2B2B2B" stroke="#2B2B2B" stroke-width="0.9" stroke-linejoin="round"/>
<path d="M334.7 268.5C334.7 268.5 332.2 268 331 266.5C329.7 265.2 328 261.6 326.1 260.2C324.3 258.7 315.1 253.6 311.7 254C308.4 254.3 307.4 253.6 307 253.2C306.6 252.8 305.2 253.4 305.4 255.2C305.7 256.8 302.9 260.6 303.9 262.4C304.9 264.2 309.7 271.4 310.6 271.7C311.6 271.9 311 275.9 311 275.9C311 275.9 315.2 280.2 316.3 280.4C317.3 280.7 318.4 281.4 318.3 282.4C318.2 283.4 313.6 289 313.6 289C313.6 289 308.8 291.5 308.7 293C308.7 294.4 309.9 297.3 313.7 298.3C318.661 299.109 323.737 298.871 328.6 297.6C329.344 295.413 329.683 293.109 329.6 290.8C329.2 290.3 326.6 288.7 325.3 288.9C324 289.2 322.9 290.2 323 290.5C323 290.7 321.1 291.7 321.1 290.8C321.1 289.8 325 285.5 325.3 285.8C325.7 286.2 331.2 286.8 332.2 289.5C333.2 292.2 333.2 294.2 336 293.9C338.9 293.6 342.9 290.9 343.2 285.5C343.6 280.1 340 276.4 339.2 275.8C338.2 275.3 335.2 273.5 335 272.7C334.8 271.9 334.2 269.1 334.7 268.5Z" fill="#2B2B2B" stroke="#2B2B2B" stroke-width="0.9"/>
<path d="M283.3 292.6C283.3 292.6 292.5 290.2 294.9 290.3C297.2 290.3 306.2 294.5 308.9 297.1C311.4 299.6 316.8 305.7 320.3 305.1C323.8 304.6 324.8 303.9 324.8 303.9L323.4 306.5C323.4 306.5 320.6 307.3 319.2 306.9C317.7 306.6 315 305.7 312.2 302.9C309.4 300.2 300.8 292.9 293.4 293.4C286.1 293.9 281.9 301.1 281.9 301.1C281.9 301.1 281.9 297.6 282.3 296.8C282.6 296 280.7 298.5 280.7 298.5L283.3 292.6Z" fill="#2B2B2B" stroke="#2B2B2B" stroke-width="0.9"/>
<path d="M317.2 299.7C317.2 299.7 319.5 300.4 323.3 300.4C327.1 300.4 329.2 298.7 329.2 298.7L328.9 297.2L329.5 295.2C329.5 295.2 332.5 298.2 332.4 298.7C332.3 299.3 331.2 299.6 331.2 299.6L330.8 298.1L329.8 299.4C329.8 299.4 324.2 303.8 321.2 303.1C318.2 302.5 315.4 300.5 316.2 300.1C316.9 299.6 317.3 299.7 317.2 299.7ZM303.8 307.5C303.8 307.5 300.5 307.5 299 308.2C297.5 308.9 297 309.8 296 309.6C295 309.6 294.2 308.2 294.5 307.6C294.9 306.9 296.8 305.8 300.5 306.1C304.3 306.4 303.8 307.5 303.8 307.5ZM315.4 316.5C315.4 316.4 315.2 311.7 313.4 309.8C312.751 309.096 311.932 308.569 311.022 308.272C310.111 307.974 309.14 307.915 308.2 308.1C307.2 308.3 312 310.4 312.5 311.8C312.9 313.2 314.5 317 314.1 317.9C313.6 318.9 312.9 315.2 310 314.2C307 313.2 303 313.8 303.8 315.1C304.7 316.4 307.9 315.1 309.6 318C311.3 320.8 312.6 323.7 312.6 323.7L313.1 321.7L314.5 321.3L314.7 317.4L315.4 316.5Z" fill="#2B2B2B" stroke="#2B2B2B" stroke-width="0.9"/>
<path d="M313 331.7L310 325.7C310 325.7 309 321.8 306.5 320.7C304 319.7 300.5 319.9 300.5 321.2C300.5 322.5 306 324.2 306.3 324.9C306.7 325.6 306.5 326.8 306 326.9C305.6 326.9 303.1 325.9 301.9 326.2C300.6 326.5 299.9 328.2 298.1 327.7C296.2 327.2 294.7 321.3 295.4 320.7C296.1 320.1 294 321.7 293.6 320.2C293.2 318.7 294.2 313.9 293.6 313.2C292.8 312.7 289.3 310.6 289.3 310.2C289.3 309.8 289.5 286.5 308.9 305.8C300.6 295.9 297.3 297 295.8 296.9C294.6 296.9 287.1 297.6 285.2 307.2C283.2 316.8 281 310.8 281 310.8C281 310.8 280.6 315 282.6 316.2C284.6 317.4 281.6 320.8 281.6 320.8C281.6 320.8 278.1 312 278.6 308.1C277.767 314.735 279.175 321.457 282.6 327.2C289.068 334.587 297.188 340.343 306.3 344C313.4 333.2 313.1 331.9 313.1 331.7H313Z" fill="#2B2B2B" stroke="#2B2B2B" stroke-width="0.9" stroke-linejoin="round"/>
<path d="M300.3 331.8C300.3 331.8 304.3 332.3 305.3 334.3C306.4 336.3 306.9 339.4 306.9 339.4C307.5 338.1 307.9 337 309.1 336C310.4 335 311.4 335 311.3 334.2C311.3 333.5 307.2 329.2 305.1 329C303.1 328.7 299.4 331.2 299.4 331.2C299.4 331.2 298.7 332.2 300.4 331.8H300.3Z" fill="#8A9396" stroke="#2B2B2B" stroke-width="0.9" stroke-linejoin="round"/>
<path d="M309.3 342C309.3 342 319.5 346.7 336.2 347" stroke="#8A9396" stroke-width="0.9" stroke-linecap="round"/>
<path d="M343.2 294.9C343.2 294.9 342.3 303.4 335.8 320.2" stroke="#2B2B2B" stroke-width="0.9" stroke-linecap="round"/>
<path d="M342 300.1C342 300.1 340 306.2 334.5 310.8" stroke="#2B2B2B" stroke-width="0.9"/>
<path d="M312.2 406L314 404L314.5 404.5L314.4 404.7L314.2 404.9V405L314.4 405.2L316.7 407.2L316.9 407.4H317L317.2 407.3L317.6 406.6C317.667 406.333 317.667 406.067 317.6 405.8C317.6 405.6 317.5 405.333 317.3 405L318 404.6L319 406.5L316.3 409.5L315.7 409.1L315.9 408.9L316 408.7V408.5L315.8 408.3L313.5 406.3L313.3 406.1H313.1L313 406.3L312.8 406.5L312.2 406ZM316 401.7L319.3 398.5L320.9 399.3L320.6 399.9L319.8 399.8H319.2L318.7 400.3L318.1 400.9L319.1 401.9L319.2 401.7L319.5 401.3V401.1L319.3 400.8L319.1 400.7L319.6 400.2L321.2 401.8L320.8 402.3L320.6 402.1L320.3 401.9H320.1L319.8 402.2L319.6 402.4L320.5 403.3L320.6 403.4H320.7L320.9 403.3L321.3 402.9L321.8 402.2V401.5C321.8 401.167 321.733 400.867 321.6 400.6L322.3 400.3L323.3 402.3L319.9 405.5L319.4 405V404.9L319.7 404.6V404.4L319.5 404.2L317.4 402.1L317.1 401.9H317L316.8 402L316.6 402.2L316.1 401.7H316ZM322.9 395.2C323.567 394.6 324.233 394.333 324.9 394.4C325.7 394.4 326.367 394.733 326.9 395.4C327.233 395.8 327.467 396.267 327.6 396.8C327.667 397.267 327.6 397.733 327.4 398.2C327.267 398.667 326.933 399.1 326.4 399.5C325.867 399.967 325.267 400.2 324.6 400.2C323.733 400.2 323.033 399.867 322.5 399.2C321.967 398.533 321.733 397.867 321.8 397.2C321.8 396.4 322.133 395.733 322.8 395.2H322.9ZM323.4 395.8C323.133 396.067 323 396.4 323 396.8C323 397.267 323.2 397.733 323.6 398.2C324 398.667 324.433 398.967 324.9 399.1C325.3 399.1 325.633 399 325.9 398.8C326.233 398.533 326.4 398.2 326.4 397.8C326.4 397.333 326.2 396.867 325.8 396.4L324.9 395.7L324.1 395.5C323.833 395.5 323.6 395.6 323.4 395.8ZM328.8 390.4L329.2 390.1H329.3L331.9 388.4L331.8 388.2L332.2 387.9L333.9 389.1L333.4 389.7L332.8 389.4H331.7V389.8L333.5 392.3L333.7 392.6H334L334.4 392.4L334.8 393L332.6 394.5L332.2 393.9H332.3L332.6 393.6V393.4L332.4 393.1L330.6 390.5L330.5 390.4H330.4C330.267 390.467 330.167 390.6 330.1 390.8L330 391.4V392.1L329.3 392.3L328.8 390.3V390.4ZM333.7 387.2L337.6 384.8L339 386L338.5 386.6C338.3 386.4 338.067 386.267 337.8 386.2H337.2C337 386.2 336.8 386.3 336.6 386.5L335.9 386.9L336.6 388.1L336.8 387.9L337.1 387.7C337.167 387.633 337.167 387.567 337.1 387.5V387.1L336.9 386.9L337.5 386.6L338.7 388.6L338.1 388.9L338 388.7L337.8 388.4H337.6L337.2 388.6L337 388.7L337.6 389.7L337.7 390H337.8L338.1 389.9L338.5 389.6C338.767 389.467 338.967 389.3 339.1 389.1L339.4 388.4V387.4H340.1L340.5 389.4L336.5 391.8L336.1 391.2H336.3L336.5 390.9C336.567 390.9 336.567 390.833 336.5 390.7V390.4L334.9 387.9L334.7 387.6H334.6L334.3 387.7L334.1 387.8L333.7 387.2ZM339.2 383.9L342.2 382.4L342.8 382.1L343.6 382L344.2 382.2L344.7 382.7C344.9 383.1 344.9 383.467 344.7 383.8C344.567 384.2 344.367 384.533 344.1 384.8L345.7 385.4L346 385.5H346.4L346.6 385.3L347 386L345.4 386.8L342.8 385.5L342.4 385.7L342.9 386.7L343.1 387H343.5L343.7 386.8L344.1 387.5L341.7 388.7L341.4 388.1L341.6 387.9L341.8 387.8V387.4L340.3 384.6L340.2 384.4H339.8L339.6 384.6L339.2 383.9ZM341.4 383.8L342 385L342.8 384.6L343.3 384.2C343.433 384.133 343.5 384.033 343.5 383.9V383.4L343.2 383.2C343.067 383.133 342.933 383.133 342.8 383.2L342.2 383.4L341.4 383.8ZM345.3 380.8L348.4 379.4L349.1 379.2H349.8C350.067 379.2 350.3 379.267 350.5 379.4L350.9 380C351.033 380.333 351.033 380.667 350.9 381C350.7 381.4 350.433 381.733 350.1 382L351.7 382.7L352 382.8H352.5L352.7 382.7L353 383.3L351.4 384L348.8 382.6L348.4 382.8L348.9 383.8L349 384.1H349.4L349.7 384L350 384.7L347.5 385.7L347.2 385H347.4L347.7 384.8V384.4L346.4 381.6L346.3 381.3H345.9L345.7 381.5L345.3 380.8ZM347.5 380.8L348.1 382.1L348.8 381.7L349.5 381.4L349.7 381V380.6L349.4 380.3C349.267 380.233 349.133 380.233 349 380.3L348.4 380.4L347.5 380.8ZM353.5 377.4L354.7 376.9L357.7 380.3L358 380.6H358.4L358.6 381.3L356.2 382.2L356 381.4H356.1C356.233 381.4 356.333 381.333 356.4 381.2V381.1L356.2 380.8L355.9 380.4L354.4 381V381.9H355L355.2 382.5L353.2 383.2L353 382.5L353.3 382.4V382.2L353.4 382L353.5 377.4ZM354.4 380.2L355.4 379.8L354.4 378.6V380.2ZM357.8 375.8L360.1 375.1L361.9 378.1V374.6L364.4 373.9L364.6 374.6L364.3 374.7C364.167 374.7 364.1 374.767 364.1 374.9V375.2L364.9 378.2L365 378.5H365.7L365.9 379.1L363.4 379.9L363.2 379.1H363.4L363.6 379L363.7 378.8V378.6L362.7 375.4V380.1L362 380.3L359.6 376.4L360.5 379.6V379.8H361.2L361.4 380.4L359.3 381.1L359.1 380.3H359.3L359.5 380.2L359.6 380V379.7L358.7 376.7V376.5H358L357.8 375.8ZM368.6 373L371.4 372.5L372.4 372.4L373 372.6L373.5 373.1L373.8 373.7C373.867 374.167 373.767 374.567 373.5 374.9C373.167 375.3 372.7 375.567 372.1 375.7L371.1 375.8L371.4 376.8V377.1H372.1L372.2 377.8L369.6 378.3L369.5 377.6H369.7L370 377.5V377L369.5 374L369.4 373.8L369.3 373.7H368.8L368.6 373ZM370.7 373.5L371 375H371.5L372.1 374.7C372.233 374.633 372.3 374.533 372.3 374.4V373.9C372.3 373.7 372.2 373.533 372 373.4L370.7 373.5ZM374.4 372L377.7 371.5H378.4L379.1 371.6C379.367 371.733 379.567 371.9 379.7 372.1L379.9 372.7C379.967 373.167 379.867 373.533 379.6 373.8C379.333 374.067 379 374.267 378.6 374.4L379.9 375.6L380.2 375.8H380.9V376.6L379.2 376.8L377.2 374.7H376.8V375.8L377 376.2C377.133 376.267 377.267 376.267 377.4 376.2H377.6L377.7 377L375.1 377.3L375 376.6H375.2L375.5 376.5V376L375.2 373V372.8L375 372.7H374.5L374.4 372ZM376.4 372.6L376.7 374L377.5 373.9L378.2 373.7L378.5 373.4V373L378.4 372.6L378 372.4H377.4L376.4 372.6ZM384.2 370.8C385.067 370.8 385.767 371.033 386.3 371.5C386.833 372.033 387.167 372.7 387.3 373.5C387.3 374.033 387.167 374.533 386.9 375C386.7 375.4 386.367 375.733 385.9 376C385.567 376.267 385.067 376.433 384.4 376.5C383.6 376.5 382.933 376.3 382.4 375.9C381.733 375.433 381.4 374.767 381.4 373.9C381.4 373.033 381.633 372.333 382.1 371.8C382.633 371.2 383.3 370.867 384.1 370.8H384.2ZM384.2 371.8C383.8 371.8 383.467 371.933 383.2 372.2C382.933 372.6 382.833 373.133 382.9 373.8C382.9 374.4 383.067 374.867 383.4 375.2C383.667 375.467 384 375.6 384.4 375.6C384.8 375.6 385.133 375.433 385.4 375.1C385.667 374.7 385.767 374.2 385.7 373.6C385.7 373.133 385.633 372.8 385.5 372.6C385.367 372.267 385.167 372.033 384.9 371.9C384.7 371.767 384.467 371.7 384.2 371.7V371.8ZM388.3 370.8H392.1L392.7 371.2L393.1 371.8L393.2 372.4C393.2 372.867 393.033 373.267 392.7 373.6C392.367 373.933 391.867 374.1 391.2 374.1H390.2V375.1L390.3 375.3L390.4 375.4H390.9V376.2H388.3V375.4H388.8L388.9 375.3V371.5H388.3V370.8ZM390.3 371.7V373.2H391.4L391.7 372.9L391.8 372.4C391.8 372.133 391.7 371.933 391.5 371.8L390.9 371.7H390.3ZM394.2 370.8L397.5 371C397.767 371 398 371.067 398.2 371.2C398.467 371.2 398.7 371.3 398.9 371.5L399.4 372V372.7C399.4 373.1 399.267 373.433 399 373.7C398.667 373.9 398.3 374.033 397.9 374.1L398.9 375.5L399.1 375.7L399.3 375.8H399.6L399.8 375.9V376.6H398L396.4 374.1H396L395.9 375.1V375.5L396 375.6H396.5V376.4L393.8 376.2V375.5H394.4L394.5 375.4V375.1L394.8 372.1V371.8L394.7 371.7H394.3L394.1 371.6L394.2 370.8ZM396.2 371.8L396 373.3H397.6L397.9 373C398.033 372.933 398.1 372.833 398.1 372.7L398 372.3L397.7 372H397L396.1 371.8H396.2ZM401 371.3L403.5 371.7V372.4H402.9L402.7 372.8L402.4 375.8V376.2H402.7L403 376.3L402.9 377.1L400.3 376.7V376H400.9L401 375.7L401.4 372.7V372.2H401.1L400.8 372.1L400.9 371.3H401ZM406.6 372.1L407.8 372.3L408.7 376.8L408.8 377.2L409.2 377.3L409.1 378.1L406.5 377.6L406.6 376.9H407.1L407.2 376.8V376L405.5 375.7L405.2 376.2L405.1 376.4V376.5L405.2 376.6L405.6 376.7L405.5 377.5L403.4 377.1L403.5 376.4H403.8L404 376.3L404.2 376.1L406.6 372.1ZM405.9 375L406.9 375.2L406.7 373.6L405.9 375ZM411 373L413.4 373.5L413.5 377L415.3 374L417.7 374.6L417.5 375.3H417L416.8 375.6L416.1 378.6C416.033 378.733 416.033 378.8 416.1 378.8V379H416.3L416.6 379.1L416.4 379.9L413.9 379.2L414.1 378.5H414.7V378.3L415.6 375L413.2 379L412.5 378.9L412.3 374.3L411.5 377.5V377.9H411.8L412.1 378L411.9 378.7L409.7 378.2L409.9 377.5H410.5L410.7 377.2L411.4 374.2V373.8H411.2L410.9 373.7L411.1 372.9L411 373ZM422 376L424.7 377C425.033 377.067 425.3 377.2 425.5 377.4C425.7 377.533 425.833 377.7 425.9 377.9L426.1 378.5V379.2C425.9 379.667 425.567 380 425.1 380.2C424.7 380.333 424.2 380.267 423.6 380L422.7 379.7L422.4 380.7L422.3 380.9V381.1H422.6L422.8 381.3L422.6 382L420.1 381L420.4 380.4H420.5L420.8 380.5H421L421.1 380.2L422.1 377.3L422.2 377V376.9L421.9 376.8L421.7 376.7L422 376ZM423.5 377.5L423 378.9L423.4 379.1L424 379.2L424.4 379.1L424.7 378.7V378.1C424.567 377.9 424.367 377.767 424.1 377.7L423.5 377.5ZM427.5 378L430.5 379.4L431.2 379.7L431.7 380.2L432 380.9L431.8 381.6C431.667 381.933 431.4 382.167 431 382.3C430.667 382.433 430.3 382.433 429.9 382.3L430.4 384V384.3L430.6 384.5L430.8 384.6L431 384.7L430.7 385.4L429.2 384.7L428.5 381.8L428.1 381.7L427.7 382.7L427.5 383V383.1L427.8 383.3H428L427.7 384.1L425.3 383L425.6 382.3L425.8 382.4H426.3V382.1L427.6 379.3L427.7 379.1V379L427.5 378.8H427.2L427.5 378ZM429 379.6L428.4 380.9L429.1 381.3L429.8 381.5L430.3 381.4L430.5 381.1C430.567 380.967 430.567 380.833 430.5 380.7L430.4 380.3L429.8 380L429 379.6ZM436.5 382.2C437.233 382.6 437.733 383.133 438 383.8C438.2 384.533 438.1 385.267 437.7 386C437.433 386.467 437.1 386.833 436.7 387.1C436.3 387.367 435.833 387.5 435.3 387.5C434.833 387.5 434.333 387.367 433.8 387.1C433.133 386.7 432.667 386.2 432.4 385.6C432.067 384.867 432.133 384.1 432.6 383.3C433 382.567 433.533 382.1 434.2 381.9C434.933 381.633 435.7 381.733 436.5 382.2ZM436.1 382.9C435.7 382.7 435.367 382.7 435.1 382.9C434.567 383.1 434.167 383.467 433.9 384C433.633 384.533 433.533 385.033 433.6 385.5C433.667 385.9 433.867 386.2 434.2 386.4C434.6 386.533 434.967 386.533 435.3 386.4C435.767 386.2 436.1 385.867 436.3 385.4C436.567 384.933 436.7 384.567 436.7 384.3L436.6 383.5C436.467 383.233 436.3 383.033 436.1 382.9ZM440.5 384.3L441 384.6V384.8L443.5 386.4L443.7 386.3L444.1 386.5L443.7 388.5L442.9 388.3V387.6L442.8 387L442.5 386.7H442.4L442.2 386.8L440.6 389.5L440.4 389.8V389.9L440.5 390L440.9 390.3L440.5 390.9L438.2 389.5L438.6 388.9H438.8L439.1 389.1H439.2L439.4 388.8L441.1 386.1C441.167 385.967 441.167 385.9 441.1 385.9V385.8L440.6 385.7L440 385.8L439.4 386.2L439 385.6L440.5 384.3ZM445.4 387.6L449.1 390.2L448.6 392L447.9 391.8V391L447.7 390.4L447.2 390L446.5 389.5L445.7 390.5L445.9 390.7L446.3 390.9H446.5L446.8 390.6V390.5L447.5 390.9L446.1 392.7L445.6 392.3V392.1C445.733 392.033 445.8 391.933 445.8 391.8V391.6L445.5 391.3L445.3 391.2L444.6 392.2L444.4 392.4V392.5L444.6 392.7L445 392.9L445.8 393.3C446.067 393.367 446.333 393.367 446.6 393.3L447.4 392.9L447.8 393.5L446.1 394.8L442.2 392L442.7 391.4L443.1 391.7H443.3L443.5 391.4L445.2 389L445.4 388.7V388.6L445.2 388.4L445 388.2L445.4 387.6ZM451.5 395.4L453.5 397L453 397.6H452.9L452.6 397.4H452.5L452.3 397.6L451.3 398.9L450.6 398.4V398C450.333 398 450.1 397.933 449.9 397.8L449.2 397.3C448.8 397.033 448.5 396.667 448.3 396.2C448.167 395.733 448.167 395.267 448.3 394.8C448.3 394.333 448.5 393.867 448.9 393.4C449.233 393 449.633 392.733 450.1 392.6C450.5 392.4 450.933 392.333 451.4 392.4C451.933 392.467 452.367 392.667 452.7 393L453.2 393.5L453.6 394.1H453.8L454.2 394.4L453.5 396.1L452.8 395.8V394.8L452.7 394.2L452.3 393.8L451.7 393.5L450.9 393.7L450.1 394.3C449.833 394.633 449.667 394.967 449.6 395.3C449.467 395.633 449.467 395.967 449.6 396.3C449.6 396.5 449.7 396.667 449.9 396.8L450.4 397.1H450.9L451.2 396.9V396.7L451.4 396.5V396.4L451.2 396.1L451 396L451.5 395.4ZM457.3 397.1L458.3 398L456.5 402.1V402.6L456.7 402.9L456.2 403.5L454.2 401.7L454.8 401.2H454.9L455.2 401.4H455.3L455.5 401.1L455.7 400.6L454.5 399.6L453.9 399.8L453.7 399.9V400.2L454 400.4L453.5 401L452 399.5L452.5 399L452.7 399.2H452.9L453.2 399.1L457.3 397.1ZM455.3 399.1L456 399.9L456.6 398.4L455.2 399.1H455.3ZM460.9 400.3L461.3 400.7L461.2 400.8L463.2 403.1L463.5 403L463.8 403.3L462.9 405.1L462.2 404.8L462.4 404.1V403.5C462.4 403.3 462.333 403.167 462.2 403.1H461.9L459.7 405.3L459.4 405.6V405.8L459.7 406.1L459.2 406.7L457.4 404.7L457.9 404.2L458 404.3L458.3 404.6H458.4L458.7 404.3L461 402.1L461.1 402V401.9L460.7 401.7H460L459.4 401.8L459.1 401.1L460.9 400.3Z" fill="black"/>
<path d="M0 0H256V256H0V0Z" fill="#012169"/>
<path d="M256 0V32L161 128L256 221.5V256H222.5L127 162L34 256H0V222L93 128.5L0 37V0H31L127 94L220 0H256Z" fill="white"/>
<path d="M92 162L97.5 179L21 256H0V254.5L92 162ZM154 156L181 160L256 233.5V256L154 156ZM256 0L160 98L158 76L233 0H256ZM0 0.5L96.5 95L67 91L0 24.5V0.5Z" fill="#C8102E"/>
<path d="M88 0V256H168V0H88ZM0 88V168H256V88H0Z" fill="white"/>
<path d="M0 104V152H256V104H0ZM104 0V256H152V0H104Z" fill="#C8102E"/>
</g>
<defs>
<linearGradient id="paint0_linear_2_4281" x1="413.403" y1="177.225" x2="413.711" y2="157.095" gradientUnits="userSpaceOnUse">
<stop stop-color="#474747"/>
<stop offset="1" stop-color="#FF5500"/>
</linearGradient>
<linearGradient id="paint1_linear_2_4281" x1="406.556" y1="252.785" x2="406.591" y2="264.157" gradientUnits="userSpaceOnUse">
<stop stop-color="#B50000"/>
<stop offset="1" stop-color="#FFC500"/>
</linearGradient>
<linearGradient id="paint2_linear_2_4281" x1="456.481" y1="259.733" x2="475.056" y2="259.49" gradientUnits="userSpaceOnUse">
<stop stop-color="#D5DFFF"/>
<stop offset="1" stop-color="white"/>
</linearGradient>
<linearGradient id="paint3_linear_2_4281" x1="409.863" y1="173.406" x2="416.553" y2="173.406" gradientUnits="userSpaceOnUse">
<stop stop-color="#474747"/>
<stop offset="1" stop-color="#FF5500"/>
</linearGradient>
<linearGradient id="paint4_linear_2_4281" x1="506.649" y1="353.144" x2="503.394" y2="332.913" gradientUnits="userSpaceOnUse">
<stop stop-color="#D5DFFF"/>
<stop offset="1" stop-color="white"/>
</linearGradient>
<linearGradient id="paint5_linear_2_4281" x1="460.982" y1="266.667" x2="452.681" y2="253.279" gradientUnits="userSpaceOnUse">
<stop stop-color="#D5DFFF"/>
<stop offset="1" stop-color="white"/>
</linearGradient>
<clipPath id="clip0_2_4281">
<rect width="512" height="512" fill="white"/>
</clipPath>
</defs>
</svg>
