<svg width="512" height="512" viewBox="0 0 512 512" fill="none" xmlns="http://www.w3.org/2000/svg">
<g clip-path="url(#clip0_2_4393)">
<path d="M0 0H512V512H0V0Z" fill="#4997D0"/>
<path d="M170.7 0H341.3V512H170.7V0Z" fill="white"/>
<path d="M236.318 311.781C238.225 311.493 239.285 310.918 240.556 310.486M242.181 307.536C243.119 308.494 243.842 309.648 244.299 310.918M238.578 307.249C239.476 308.102 240.196 309.129 240.697 310.27M205.736 211.997C205.029 213.149 203.617 213.94 202.345 214.444M202.133 214.3C202.133 213.292 201.992 212.141 202.133 211.134M200.791 214.731C200.791 215.019 201.074 215.738 201.215 216.17M202.698 216.89L201.286 217.105M198.461 216.458C198.461 218.328 198.673 220.487 198.814 222.141M197.542 221.422C197.896 221.997 198.249 222.501 198.673 222.789M195.424 227.465C195.777 228.112 196.13 228.904 196.342 230.343M198.955 226.961L197.542 228.041M198.743 231.206C198.037 231.853 197.189 232.285 196.271 232.717M193.587 261.781C194.305 263.085 195.264 264.233 196.412 265.163M196.836 266.386C196.09 266.292 195.37 266.047 194.717 265.666M197.825 271.781L199.026 272.501M198.743 274.947C199.591 275.522 200.509 276.601 201.356 277.752M200.368 279.767C201.356 279.983 202.133 280.27 202.628 280.486M201.921 282.285H203.334M204.252 278.472L203.899 281.493M204.605 282.645L204.888 281.493M208.208 285.81L208.137 288.112M235.824 308.184L234.976 309.335M233.281 306.529L232.787 305.234" stroke="#24420E" stroke-width="0.285132"/>
<path d="M260.332 317.177C259.748 316.321 258.941 315.649 258.002 315.234C252.563 312.357 247.125 310.99 241.05 309.982C239.567 309.767 238.155 308.4 236.671 307.68C233.14 306.026 229.255 305.378 225.865 303.58C225.653 303.508 224.806 303.004 224.452 302.501C223.04 300.918 220.568 300.414 219.085 298.903C213.152 293.292 206.936 288.112 203.687 280.558C199.732 271.422 194.858 261.997 195.494 251.638C195.918 245.019 195 238.4 196.554 232.213C198.955 222.861 201.921 213.724 207.431 206.026L206.512 206.602C201.282 214.519 197.59 223.384 195.635 232.717C194.011 238.976 194.929 245.666 194.576 252.141C193.87 262.573 198.814 271.997 202.698 281.134C205.947 288.616 212.233 293.867 218.096 299.551C219.65 300.99 222.051 301.493 223.464 303.148C223.888 303.566 224.363 303.929 224.876 304.227C228.337 305.954 232.222 306.601 235.753 308.328C237.166 309.047 238.578 310.342 239.991 310.63C245.931 311.38 251.707 313.131 257.083 315.81C258.019 316.231 258.824 316.902 259.414 317.752L260.332 317.105" fill="#406325"/>
<path d="M260.332 317.177C259.748 316.321 258.941 315.649 258.002 315.234C252.563 312.357 247.125 310.99 241.05 309.982C239.567 309.767 238.155 308.4 236.671 307.68C233.14 306.026 229.255 305.378 225.865 303.58C225.653 303.508 224.806 303.004 224.452 302.501C223.04 300.918 220.568 300.414 219.085 298.903C213.152 293.292 206.936 288.112 203.687 280.558C199.732 271.422 194.858 261.997 195.494 251.638C195.918 245.019 195 238.4 196.554 232.213C198.955 222.861 201.921 213.724 207.431 206.026L206.512 206.602C201.282 214.519 197.59 223.384 195.635 232.717C194.011 238.976 194.929 245.666 194.576 252.141C193.87 262.573 198.814 271.997 202.698 281.134C205.947 288.616 212.233 293.867 218.096 299.551C219.65 300.99 222.051 301.493 223.464 303.148C223.888 303.566 224.363 303.929 224.876 304.227C228.337 305.954 232.222 306.601 235.753 308.328C237.166 309.047 238.578 310.342 239.991 310.63C245.931 311.38 251.707 313.131 257.083 315.81C258.019 316.231 258.824 316.902 259.414 317.752L260.332 317.105" stroke="#24420E" stroke-width="0.142566"/>
<path d="M203.97 278.76C202.515 273.228 202.466 267.41 203.828 261.853C208.561 271.206 207.007 278.904 203.97 278.76ZM236.389 311.421C230.63 312.766 225.305 315.589 220.921 319.623C231.586 319.695 237.872 314.371 236.389 311.421ZM241.686 308.328C236.862 302.925 233.461 296.367 231.798 289.263C242.392 297.105 245.147 306.745 241.686 308.328Z" fill="#67923D" stroke="#24420E" stroke-width="0.142566"/>
<path d="M238.084 308.4C233 304.008 229.109 298.36 226.783 291.997C237.59 297.896 241.121 306.529 238.084 308.4ZM227.066 303.508C227.772 297.896 223.11 286.098 221.768 284.803C219.65 296.673 223.887 304.659 227.066 303.508ZM207.784 286.026C206.643 281.041 206.765 275.842 208.137 270.918C212.022 279.335 210.468 286.17 207.784 286.026ZM198.107 230.774C201.974 225.678 207.089 221.708 212.94 219.264C208.137 229.767 200.226 233.58 198.107 230.774Z" fill="#67923D" stroke="#24420E" stroke-width="0.142566"/>
<path d="M198.602 226.746C201.404 220.945 205.639 215.986 210.891 212.357C208.278 223.652 201.215 229.048 198.602 226.746ZM218.308 298.112C215.044 292.325 213.27 285.792 213.152 279.119C221.062 288.112 221.627 297.321 218.237 298.112H218.308ZM198.037 271.853C193.093 272.645 182.922 268.544 181.792 267.321C192.104 265.019 199.026 268.76 198.037 271.853ZM196.483 264.875C197.048 260.918 202.557 253.508 203.758 252.933C203.052 261.566 198.531 266.314 196.483 264.875ZM232.716 307.033C225.836 308.594 219.48 311.968 214.282 316.817C226.995 316.889 234.552 310.558 232.716 307.033Z" fill="#67923D" stroke="#24420E" stroke-width="0.142566"/>
<path d="M204.04 278.688C207.007 278.832 208.561 271.206 203.828 261.853C204.72 267.423 204.792 273.097 204.04 278.688ZM211.951 293.076C207.595 289.111 202.321 286.338 196.624 285.019C202.91 293.724 210.68 295.882 211.951 293.076ZM194.717 254.947C192.713 248.388 189.118 242.45 184.264 237.681C185.323 250.055 191.751 256.889 194.717 254.947ZM200.65 279.623C197.119 276.961 187.23 275.738 185.818 276.17C193.022 282.213 200.085 282.285 200.65 279.623ZM194.011 261.781C190.96 257.459 186.842 254.034 182.074 251.853C185.959 260.774 192.386 264.083 194.011 261.709V261.781ZM195.988 227.537C196.553 222.069 192.033 210.703 190.762 209.408C188.714 220.918 192.81 228.616 195.918 227.537H195.988ZM199.096 216.818C201.003 212.141 199.661 200.703 198.743 199.264C194.223 208.976 196.059 216.961 199.096 216.818Z" fill="#406325" stroke="#24420E" stroke-width="0.142566"/>
<path d="M202.628 211.278C204.573 206.906 205.423 202.11 205.1 197.321C200.014 204.3 200.156 210.918 202.628 211.278ZM206.866 206.89C210.001 203.339 212.189 199.029 213.222 194.372C206.371 199.408 204.605 205.739 206.866 206.89ZM195.494 237.969C195.565 238.616 194.788 232.069 188.431 224.803C188.714 235.451 192.81 239.479 195.494 237.969ZM218.52 299.695C212.902 296.708 206.632 295.223 200.297 295.378C209.196 302.86 217.884 303.004 218.52 299.695ZM227.066 303.508C223.817 304.587 219.65 296.673 221.698 284.803C222.615 291.255 224.397 297.549 226.995 303.508H227.066ZM236.46 311.421C237.872 314.371 231.657 319.695 221.062 319.623C229.538 316.026 236.036 312.5 236.46 311.493V311.421ZM241.616 308.256C245.076 306.601 242.392 297.105 231.727 289.263C237.802 298.76 241.969 306.961 241.616 308.256Z" fill="#406325" stroke="#24420E" stroke-width="0.142566"/>
<path d="M238.084 308.328C241.05 306.385 237.59 297.896 226.783 291.997C233.493 300.054 238.225 307.105 238.084 308.328ZM207.854 286.026C210.468 286.17 212.092 279.335 208.208 270.918C208.702 278.832 208.49 285.306 207.854 286.026ZM198.107 230.846C200.226 233.58 207.996 229.839 212.869 219.336C208.525 223.884 203.552 227.762 198.107 230.846Z" fill="#406325" stroke="#24420E" stroke-width="0.142566"/>
<path d="M198.743 226.746C201.286 229.048 208.278 223.652 210.891 212.357C205.241 220.487 199.873 226.602 198.743 226.746ZM218.308 298.04C221.627 297.249 221.133 288.112 213.152 279.119C216.683 288.832 218.802 296.961 218.308 298.04ZM197.896 271.853C198.884 268.76 192.033 265.091 181.792 267.321C190.479 268.904 197.33 270.918 197.896 271.853ZM196.554 264.947C198.602 266.242 202.981 261.566 203.828 252.933C201.981 257.272 199.531 261.318 196.554 264.947ZM232.716 307.105C234.482 310.702 227.066 316.961 214.352 316.889C224.382 312.644 232.222 308.4 232.716 307.105Z" fill="#406325" stroke="#24420E" stroke-width="0.142566"/>
<path d="M199.096 274.947C196.138 270.154 191.998 266.234 187.089 263.58C190.621 273.364 197.119 277.321 199.096 274.947Z" fill="#406325" stroke="#24420E" stroke-width="0.142566"/>
<path d="M194.152 237.321C196.977 233.94 206.512 230.702 207.996 230.846C202.345 238.4 195.282 239.911 194.152 237.321ZM211.88 293.076C210.609 295.954 202.91 293.796 196.553 285.091C201.256 288.494 206.419 291.184 211.88 293.076ZM194.646 254.947C191.68 256.889 185.394 250.055 184.264 237.681C188.925 247.249 193.446 254.587 194.646 254.947ZM200.579 279.623C200.085 282.285 193.022 282.213 185.888 276.242C190.599 278.085 195.548 279.224 200.579 279.623ZM193.87 261.709C192.245 264.012 185.959 260.774 182.074 251.853C187.866 257.609 193.022 261.709 193.94 261.709H193.87ZM195.847 227.465C192.739 228.616 188.714 220.99 190.691 209.48C192.598 219.192 194.929 226.889 195.847 227.465ZM199.026 216.746C195.988 216.961 194.152 208.976 198.672 199.264C198.107 208.472 198.319 216.026 199.026 216.746ZM202.557 211.278C200.156 210.846 199.944 204.3 205.1 197.321C203.572 201.818 202.715 206.523 202.557 211.278ZM206.795 206.89C204.605 205.667 206.3 199.408 213.152 194.444C210.441 198.25 208.299 202.444 206.795 206.89Z" fill="#67923D" stroke="#24420E" stroke-width="0.142566"/>
<path d="M195.494 237.969C192.739 239.479 188.714 235.451 188.431 224.803C191.963 233.22 194.505 237.609 195.494 237.969ZM218.449 299.695C217.813 303.004 209.196 302.86 200.297 295.45C209.62 298.544 217.46 300.27 218.449 299.695ZM212.657 292.86C209.991 288.727 208.388 283.977 207.996 279.047C214.352 285.306 215.2 292.069 212.798 292.86H212.657ZM200.791 274.875C198.249 270.702 197.966 259.839 198.672 258.328C204.535 266.889 203.828 274.659 200.791 274.875ZM198.884 274.947C196.977 277.321 190.479 273.436 187.018 263.58C190.393 267.952 194.393 271.783 198.884 274.947Z" fill="#67923D" stroke="#24420E" stroke-width="0.142566"/>
<path d="M194.152 237.321C195.282 239.911 202.204 238.4 207.925 230.918C199.449 235.81 196.13 237.969 194.152 237.321ZM200.721 274.731C203.758 274.515 204.464 266.817 198.602 258.328C200.166 263.67 200.881 269.231 200.721 274.803V274.731ZM212.728 292.86C215.129 292.141 214.282 285.306 207.996 279.047C211.103 286.026 213.081 291.997 212.728 292.86Z" fill="#406325" stroke="#24420E" stroke-width="0.142566"/>
<path d="M195.424 250.127C196.836 244.084 194.223 233.868 192.386 231.71C189.067 242.789 192.245 250.846 195.424 250.127Z" fill="#406325" stroke="#24420E" stroke-width="0.142566"/>
<path d="M195.282 251.566C191.044 252.501 189.137 242.933 192.386 232.069C193.093 241.782 194.364 250.846 195.212 251.494L195.282 251.566Z" fill="#67923D" stroke="#24420E" stroke-width="0.142566"/>
<path d="M194.364 251.494C194.984 245.121 197.17 239.009 200.721 233.724C202.133 245.091 197.542 252.645 194.364 251.494Z" fill="#67923D" stroke="#24420E" stroke-width="0.142566"/>
<path d="M194.435 251.422C197.613 252.573 202.133 245.091 200.721 233.724C198.249 243.292 195.423 250.846 194.435 251.422Z" fill="#406325" stroke="#24420E" stroke-width="0.142566"/>
<path d="M195.353 258.4C196.331 252.144 198.914 246.263 202.84 241.35C203.405 253.004 198.39 259.983 195.353 258.4Z" fill="#67923D" stroke="#24420E" stroke-width="0.142566"/>
<path d="M195.423 258.472C198.39 260.055 203.405 253.148 202.84 241.566C199.732 250.774 196.483 258.04 195.423 258.472Z" fill="#406325" stroke="#24420E" stroke-width="0.142566"/>
<path d="M197.26 221.782C197.689 221.782 198.037 221.427 198.037 220.99C198.037 220.553 197.689 220.199 197.26 220.199C196.831 220.199 196.483 220.553 196.483 220.99C196.483 221.427 196.831 221.782 197.26 221.782Z" fill="#BA1F3E" stroke="#511124" stroke-width="0.142566"/>
<path d="M203.193 217.321C203.622 217.321 203.97 216.967 203.97 216.53C203.97 216.093 203.622 215.738 203.193 215.738C202.764 215.738 202.416 216.093 202.416 216.53C202.416 216.967 202.764 217.321 203.193 217.321Z" fill="#BA1F3E" stroke="#511124" stroke-width="0.142566"/>
<path d="M200.65 214.875C201.079 214.875 201.427 214.521 201.427 214.084C201.427 213.647 201.079 213.292 200.65 213.292C200.221 213.292 199.873 213.647 199.873 214.084C199.873 214.521 200.221 214.875 200.65 214.875Z" fill="#BA1F3E" stroke="#511124" stroke-width="0.142566"/>
<path d="M194.223 266.386C194.73 266.386 195.141 265.967 195.141 265.45C195.141 264.934 194.73 264.515 194.223 264.515C193.716 264.515 193.305 264.934 193.305 265.45C193.305 265.967 193.716 266.386 194.223 266.386Z" fill="#BA1F3E" stroke="#511124" stroke-width="0.142566"/>
<path d="M195.988 254.875C196.496 254.875 196.907 254.456 196.907 253.94C196.907 253.423 196.496 253.004 195.988 253.004C195.481 253.004 195.07 253.423 195.07 253.94C195.07 254.456 195.481 254.875 195.988 254.875Z" fill="#BA1F3E" stroke="#511124" stroke-width="0.142566"/>
<path d="M205.312 281.781C205.819 281.781 206.23 281.363 206.23 280.846C206.23 280.329 205.819 279.911 205.312 279.911C204.805 279.911 204.393 280.329 204.393 280.846C204.393 281.363 204.805 281.781 205.312 281.781Z" fill="#BA1F3E" stroke="#511124" stroke-width="0.142566"/>
<path d="M201.215 283.148C201.722 283.148 202.133 282.729 202.133 282.213C202.133 281.696 201.722 281.278 201.215 281.278C200.708 281.278 200.297 281.696 200.297 282.213C200.297 282.729 200.708 283.148 201.215 283.148Z" fill="#BA1F3E" stroke="#511124" stroke-width="0.142566"/>
<path d="M232.504 305.594C233.011 305.594 233.422 305.175 233.422 304.659C233.422 304.142 233.011 303.724 232.504 303.724C231.997 303.724 231.586 304.142 231.586 304.659C231.586 305.175 231.997 305.594 232.504 305.594Z" fill="#BA1F3E" stroke="#511124" stroke-width="0.142566"/>
<path d="M234.552 310.702C235.06 310.702 235.471 310.283 235.471 309.767C235.471 309.25 235.06 308.831 234.552 308.831C234.045 308.831 233.634 309.25 233.634 309.767C233.634 310.283 234.045 310.702 234.552 310.702Z" fill="#BA1F3E" stroke="#511124" stroke-width="0.142566"/>
<path d="M313.305 226.53C313.799 226.961 314.153 227.105 314.93 227.897M310.268 214.3C310.268 213.292 309.844 211.638 309.632 210.703M312.104 212.861C312.104 214.228 311.892 215.523 311.327 216.746M308.361 216.386C309.632 217.537 310.833 218.544 312.104 219.192M314.788 220.055C314.859 221.494 314.718 222.933 314.294 224.371M314.576 225.451L315.495 223.796M314.153 232.573C315.141 232.789 316.13 234.012 316.625 235.091M316.978 234.156L318.108 232.573M319.309 254.731C318.814 255.595 318.247 256.413 317.613 257.177M314.788 257.177C315.353 258.184 315.918 259.335 316.625 260.055M318.39 264.299C317.563 265.495 316.475 266.48 315.212 267.177M315.353 270.414C314.576 270.99 313.588 272.573 312.74 273.796M318.673 259.263L317.19 259.911M316.201 254.587L317.048 255.307M310.48 282.213H309.067M307.584 280.918L308.008 282.069M302.64 285.738C302.428 287.105 302.569 288.4 302.71 289.767M305.748 283.292L306.454 284.875M309.208 284.803L307.443 285.019M285.689 303.22L284.982 304.515M293.387 301.637C292.328 301.781 291.41 301.637 290.492 301.493M286.607 305.81C285.901 305.45 285.194 305.306 284.488 305.09M274.105 307.033C273.47 307.536 272.693 308.759 271.986 309.911M271.563 306.673C269.868 307.608 269.303 309.335 268.455 310.846M270.433 312.86C269.303 312.572 268.031 311.997 266.689 311.421M278.484 310.918C276.86 310.054 275.165 310.198 273.47 309.911M281.098 309.623C278.484 309.119 276.154 309.191 273.823 309.551M279.332 307.68L278.343 307.249M274.388 311.205L272.763 310.27M313.658 274.875C312.811 275.45 311.892 276.529 311.045 277.681M312.316 220.415L310.762 219.839" stroke="#24420E" stroke-width="0.285132"/>
<path d="M252.069 317.105C252.634 316.169 253.552 315.666 254.4 315.162C259.838 312.285 265.277 310.99 271.351 309.982C272.834 309.695 274.247 308.328 275.73 307.68C279.261 305.954 283.146 305.306 286.536 303.58C286.748 303.436 287.596 302.932 287.949 302.429C289.361 300.846 291.833 300.342 293.317 298.831C299.25 293.22 305.465 288.04 308.714 280.486C312.669 271.35 317.543 261.925 316.907 251.566C316.483 244.947 317.401 238.328 315.848 232.141C313.889 222.788 310.197 213.9 304.971 205.954L305.889 206.53C311.128 214.469 314.82 223.359 316.766 232.717C318.39 238.904 317.472 245.594 317.825 252.141C318.532 262.501 313.587 271.925 309.703 281.134C306.454 288.616 300.168 293.796 294.305 299.479C292.752 300.918 290.35 301.421 288.938 303.076C288.513 303.495 288.038 303.857 287.525 304.155C284.064 305.882 280.179 306.601 276.648 308.256C275.235 308.975 273.823 310.27 272.41 310.558C266.47 311.308 260.694 313.059 255.318 315.738C254.383 316.159 253.577 316.83 252.987 317.68L252.069 317.105Z" fill="#406325" stroke="#24420E" stroke-width="0.142566"/>
<path d="M308.008 280.918C309.985 275.594 308.008 263.076 307.019 261.494C302.287 272.573 304.617 281.35 308.008 280.918Z" fill="#406325" stroke="#24420E" stroke-width="0.142566"/>
<path d="M302.993 285.954C304.617 281.925 303.487 272.069 302.71 270.846C298.826 279.263 300.38 286.17 302.993 285.954ZM314.929 232.645C311.366 227.989 306.665 224.368 301.298 222.141C305.677 231.71 312.952 235.235 314.929 232.645Z" fill="#406325" stroke="#24420E" stroke-width="0.142566"/>
<path d="M313.799 226.889C311.464 222.049 307.935 217.909 303.558 214.875C305.748 224.228 311.61 228.76 313.799 226.889ZM317.119 237.609C314.647 234.731 306.383 231.925 305.112 232.069C310.056 238.544 316.13 239.911 317.119 237.609ZM315.141 270.99C320.195 270.954 325.146 269.538 329.479 266.889C320.368 264.875 314.294 268.256 315.141 270.99ZM315 266.889C315 262.861 310.55 254.803 309.35 253.94C308.997 262.573 312.811 267.968 315 266.889Z" fill="#406325" stroke="#24420E" stroke-width="0.142566"/>
<path d="M315.353 257.033C314.363 250.803 311.781 244.947 307.866 240.055C307.301 251.709 312.316 258.616 315.353 257.033ZM277.919 311.206C282.37 315.204 287.779 317.934 293.599 319.119C287.384 310.27 279.403 308.256 277.99 311.206H277.919Z" fill="#406325" stroke="#24420E" stroke-width="0.142566"/>
<path d="M308.008 280.774C304.547 281.206 302.287 272.573 307.019 261.494C306.666 271.709 307.16 279.983 308.008 280.774ZM270.291 312.141C276.046 313.535 281.365 316.38 285.759 320.414C275.094 320.486 268.808 315.162 270.221 312.213L270.291 312.141ZM270.291 306.457C271.704 300.702 280.886 291.206 282.651 290.558C280.109 302.86 272.975 308.903 270.291 306.457ZM285.335 303.508C285.514 296.916 287.337 290.479 290.633 284.803C292.752 296.601 288.514 304.587 285.335 303.508ZM300.521 293.004C304.857 289.049 310.105 286.277 315.777 284.947C309.491 293.652 301.792 295.81 300.45 293.004H300.521ZM318.673 254.659C319.379 250.127 325.524 241.781 326.866 241.062C326.018 250.846 321.004 256.17 318.673 254.731V254.659Z" fill="#67923D" stroke="#24420E" stroke-width="0.142566"/>
<path d="M310.409 282.069C315.737 279.299 321.663 277.938 327.643 278.112C319.308 285.091 311.045 285.163 310.409 282.069ZM317.684 264.443C320.884 259.93 325.196 256.357 330.185 254.084C326.089 263.436 319.379 266.889 317.684 264.443ZM316.624 231.638C316.624 226.17 322.275 215.307 323.687 214.228C324.464 225.81 319.662 233.076 316.624 231.638ZM311.751 213.005C310.544 208.29 310.52 203.343 311.68 198.616C315.565 206.458 314.294 213.005 311.68 213.005H311.751Z" fill="#67923D" stroke="#24420E" stroke-width="0.142566"/>
<path d="M308.714 211.422C305.005 206.827 302.48 201.362 301.368 195.523C309.703 202.213 311.539 210.199 308.714 211.422ZM316.978 236.242C316.766 236.889 319.097 230.702 327.007 225.235C324.182 235.523 319.238 238.4 316.978 236.242ZM292.893 300.918C299.267 297.59 306.356 295.933 313.517 296.098C303.487 304.587 293.599 304.731 292.893 300.918ZM302.993 285.954C300.38 286.098 298.755 279.263 302.64 270.846C302.145 278.76 302.357 285.234 302.993 285.954ZM314.929 232.645C313.022 235.235 305.747 231.782 301.368 222.141C305.333 226.331 309.907 229.873 314.929 232.645ZM313.729 226.889C311.539 228.76 305.747 224.3 303.558 214.875C308.29 221.638 312.74 226.746 313.729 226.889ZM317.119 237.681C316.13 239.911 310.127 238.616 305.182 232.141C312.528 236.386 315.424 238.184 317.19 237.681H317.119ZM315.283 270.918C314.364 268.184 320.438 264.947 329.55 266.961C324.624 267.533 319.813 268.868 315.283 270.918ZM315 266.889C312.74 267.968 308.996 262.645 309.35 254.012C310.613 258.582 312.516 262.944 315 266.961V266.889Z" fill="#67923D" stroke="#24420E" stroke-width="0.142566"/>
<path d="M315.283 257.177C312.245 258.76 307.301 251.853 307.866 240.271C310.974 249.479 314.223 256.745 315.283 257.177ZM278.061 311.206C279.473 308.184 287.313 310.198 293.599 318.975C285.83 314.155 279.12 310.846 278.061 311.206Z" fill="#67923D" stroke="#24420E" stroke-width="0.142566"/>
<path d="M285.335 303.364C288.584 304.515 292.752 296.601 290.703 284.731C288.726 294.803 286.324 302.788 285.335 303.436V303.364Z" fill="#406325" stroke="#24420E" stroke-width="0.142566"/>
<path d="M292.61 299.623C295.284 293.531 296.402 286.849 295.859 280.199C288.796 289.983 289.22 299.119 292.61 299.623ZM270.221 312.213C268.808 315.162 274.953 320.486 285.618 320.342C277.142 316.889 270.644 313.292 270.221 312.213ZM270.362 306.385C273.046 308.831 280.109 302.86 282.651 290.558C276.93 299.479 271.563 306.242 270.362 306.385ZM300.521 293.004C301.792 295.882 309.491 293.724 315.848 285.019C311.145 288.422 305.982 291.112 300.521 293.004ZM318.743 254.659C321.074 256.17 326.018 250.846 326.866 241.134C324.829 246.026 322.092 250.584 318.743 254.659ZM310.409 282.069C311.115 285.234 319.238 285.091 327.643 278.112C318.814 280.99 311.398 282.573 310.48 282.069H310.409ZM317.755 264.371C319.52 266.817 326.16 263.364 330.256 254.012C326.632 258.094 322.416 261.588 317.755 264.371ZM316.766 231.566C319.732 233.005 324.535 225.81 323.687 214.3C320.862 223.652 317.755 231.062 316.695 231.566H316.766ZM311.822 212.933C314.294 213.005 315.636 206.458 311.68 198.544C312.387 206.098 312.387 212.285 311.822 212.933ZM308.785 211.35C311.61 210.127 309.773 202.213 301.439 195.523C304.65 200.395 307.125 205.73 308.785 211.35ZM316.978 236.314C319.238 238.472 324.182 235.594 327.007 225.235C321.498 232.501 318.037 236.17 316.978 236.314ZM292.963 300.99C293.67 304.731 303.487 304.587 313.446 296.17C302.922 299.623 294.094 301.637 292.963 300.99Z" fill="#406325" stroke="#24420E" stroke-width="0.142566"/>
<path d="M297.766 295.45C299.797 290.926 300.672 285.951 300.309 280.99C295.012 288.184 295.224 295.019 297.766 295.378V295.45ZM311.61 274.803C314.152 270.702 314.435 259.767 313.729 258.256C307.866 266.817 308.573 274.587 311.61 274.803Z" fill="#406325" stroke="#24420E" stroke-width="0.142566"/>
<path d="M292.61 299.551C289.22 299.119 288.867 289.983 295.789 280.27C293.246 290.198 291.975 298.544 292.61 299.551ZM317.472 250.415C316.766 244.803 320.297 235.954 322.134 234.228C323.97 244.587 320.227 251.494 317.472 250.415ZM297.766 295.378C295.224 295.019 295.012 288.184 300.309 280.99C298.752 285.628 297.895 290.479 297.766 295.378ZM314.294 220.415C312.74 216.098 314.294 206.026 315.141 204.731C318.885 213.508 316.978 220.631 314.294 220.415ZM273.258 306.817C275.023 301.062 284.7 291.709 286.536 290.99C283.499 303.58 275.942 309.407 273.258 306.817ZM311.822 276.889C314.76 272.105 318.875 268.187 323.758 265.522C320.227 275.306 313.729 279.263 311.751 276.889H311.822ZM311.68 274.731C308.643 274.443 307.937 266.817 313.799 258.256C312.236 263.598 311.52 269.159 311.68 274.731Z" fill="#67923D" stroke="#24420E" stroke-width="0.142566"/>
<path d="M317.472 251.709C321.145 253.076 323.829 244.659 322.134 234.515C321.307 240.449 319.74 246.251 317.472 251.781V251.709Z" fill="#406325" stroke="#24420E" stroke-width="0.142566"/>
<path d="M318.037 251.422C318.39 246.026 313.093 234.875 311.68 233.652C310.268 245.019 314.859 252.573 318.037 251.422ZM314.294 220.343C317.048 220.631 318.885 213.58 315.141 204.731C315.424 213.005 315 219.695 314.294 220.343ZM273.328 306.745C276.012 309.407 283.499 303.58 286.536 291.062C280.321 299.911 274.529 306.601 273.328 306.745ZM311.892 276.889C313.87 279.263 320.368 275.378 323.899 265.522C320.481 269.905 316.433 273.737 311.892 276.889Z" fill="#406325" stroke="#24420E" stroke-width="0.142566"/>
<path d="M317.966 251.35C314.788 252.573 310.268 245.091 311.68 233.724C314.152 243.22 316.978 250.774 317.966 251.35Z" fill="#67923D" stroke="#24420E" stroke-width="0.142566"/>
<path d="M315.777 224.372C316.206 224.372 316.554 224.017 316.554 223.58C316.554 223.143 316.206 222.789 315.777 222.789C315.348 222.789 315 223.143 315 223.58C315 224.017 315.348 224.372 315.777 224.372Z" fill="#BA1F3E" stroke="#511124" stroke-width="0.142566"/>
<path d="M318.461 232.933C318.89 232.933 319.238 232.578 319.238 232.141C319.238 231.704 318.89 231.35 318.461 231.35C318.032 231.35 317.684 231.704 317.684 232.141C317.684 232.578 318.032 232.933 318.461 232.933Z" fill="#BA1F3E" stroke="#511124" stroke-width="0.142566"/>
<path d="M319.45 260.055C319.957 260.055 320.368 259.636 320.368 259.12C320.368 258.603 319.957 258.184 319.45 258.184C318.943 258.184 318.532 258.603 318.532 259.12C318.532 259.636 318.943 260.055 319.45 260.055Z" fill="#BA1F3E" stroke="#511124" stroke-width="0.142566"/>
<path d="M315.777 255.019C316.284 255.019 316.695 254.6 316.695 254.084C316.695 253.567 316.284 253.148 315.777 253.148C315.27 253.148 314.859 253.567 314.859 254.084C314.859 254.6 315.27 255.019 315.777 255.019Z" fill="#BA1F3E" stroke="#511124" stroke-width="0.142566"/>
<path d="M305.394 283.724C305.902 283.724 306.313 283.305 306.313 282.788C306.313 282.272 305.902 281.853 305.394 281.853C304.887 281.853 304.476 282.272 304.476 282.788C304.476 283.305 304.887 283.724 305.394 283.724Z" fill="#BA1F3E" stroke="#511124" stroke-width="0.142566"/>
<path d="M309.844 285.666C310.351 285.666 310.762 285.247 310.762 284.731C310.762 284.214 310.351 283.796 309.844 283.796C309.337 283.796 308.926 284.214 308.926 284.731C308.926 285.247 309.337 285.666 309.844 285.666Z" fill="#BA1F3E" stroke="#511124" stroke-width="0.142566"/>
<path d="M279.897 308.975C280.404 308.975 280.815 308.557 280.815 308.04C280.815 307.524 280.404 307.105 279.897 307.105C279.39 307.105 278.979 307.524 278.979 308.04C278.979 308.557 279.39 308.975 279.897 308.975Z" fill="#BA1F3E" stroke="#511124" stroke-width="0.142566"/>
<path d="M274.953 312.572C275.46 312.572 275.871 312.154 275.871 311.637C275.871 311.121 275.46 310.702 274.953 310.702C274.446 310.702 274.035 311.121 274.035 311.637C274.035 312.154 274.446 312.572 274.953 312.572Z" fill="#BA1F3E" stroke="#511124" stroke-width="0.142566"/>
<path d="M310.48 220.343C310.909 220.343 311.257 219.988 311.257 219.551C311.257 219.114 310.909 218.76 310.48 218.76C310.051 218.76 309.703 219.114 309.703 219.551C309.703 219.988 310.051 220.343 310.48 220.343Z" fill="#BA1F3E" stroke="#511124" stroke-width="0.142566"/>
<path d="M223.746 282.141C223.605 282.86 224.311 283.796 225.159 283.58C225.512 283.58 225.653 283.22 225.3 283.22C225.017 283.364 224.664 283.22 224.452 283.004C224.283 282.812 224.167 282.577 224.118 282.324C224.068 282.071 224.086 281.809 224.17 281.565L223.746 282.141Z" fill="#8C959D" stroke="#485654" stroke-width="0.071283"/>
<path d="M225.794 283.58C225.088 284.443 224.029 284.803 223.393 284.227C222.969 283.796 222.828 283.364 223.04 282.788L222.333 283.724C222.333 283.724 222.757 284.659 223.464 285.019C224.382 285.378 225.582 284.803 226.289 283.868C226.854 283.148 227.419 282.141 226.995 281.278C226.673 280.72 226.175 280.289 225.582 280.055L224.876 280.774C225.229 280.63 225.724 280.774 226.077 281.062C226.995 281.781 226.501 282.86 225.794 283.58Z" fill="#8C959D"/>
<path d="M225.794 283.58C225.582 283.867 225.318 284.111 225.017 284.299C224.664 284.443 224.311 284.587 223.958 284.515C223.772 284.512 223.594 284.435 223.464 284.299C223.379 284.255 223.305 284.194 223.244 284.12C223.183 284.046 223.138 283.96 223.11 283.868C222.969 283.724 222.969 283.58 222.898 283.364C222.898 283.148 222.898 283.004 223.04 282.788L223.11 282.86L222.333 283.796V283.724L223.04 284.659L223.534 284.947L224.099 285.019C224.502 285.011 224.894 284.886 225.229 284.659C225.582 284.515 225.936 284.227 226.147 283.939L226.854 282.932C226.995 282.573 227.136 282.213 227.066 281.781C227.066 281.565 227.066 281.422 226.924 281.206C226.601 280.693 226.133 280.292 225.582 280.055H225.653L224.947 280.846H224.876C225.017 280.702 225.229 280.702 225.371 280.702L225.936 280.846C226.218 281.062 226.501 281.35 226.571 281.709C226.642 282.069 226.571 282.429 226.43 282.716C226.289 283.076 226.077 283.364 225.794 283.58ZM225.794 283.58C226.077 283.364 226.218 283.076 226.359 282.716C226.501 282.429 226.571 281.997 226.501 281.709C226.43 281.35 226.147 281.134 225.865 280.99C225.582 280.774 225.159 280.702 224.947 280.846H224.876L225.582 279.983C226.169 280.226 226.665 280.655 226.995 281.206C227.136 281.35 227.207 281.565 227.207 281.781C227.207 282.213 227.136 282.645 226.924 283.004C226.783 283.364 226.571 283.724 226.218 284.011C226.006 284.371 225.653 284.587 225.3 284.803C224.947 285.019 224.594 285.162 224.099 285.162C223.892 285.171 223.685 285.137 223.491 285.063C223.297 284.989 223.12 284.876 222.969 284.731C222.678 284.439 222.439 284.098 222.263 283.724L222.969 282.788H223.11L223.04 283.364C223.04 283.508 223.04 283.724 223.181 283.868L223.534 284.227C223.605 284.371 223.817 284.443 223.958 284.443C224.311 284.515 224.664 284.443 225.017 284.299L225.794 283.58Z" fill="#485654"/>
<path d="M280.886 219.551L252.563 247.968L223.534 276.17L220.285 280.055C218.873 281.709 217.177 283.868 215.2 285.81C214.847 286.314 214.423 286.098 213.999 286.386C212.728 287.105 211.386 288.4 210.468 289.479L201.78 299.191C201.286 299.839 201.074 300.198 201.498 300.63L206.159 306.961C207.007 307.824 207.996 308.256 208.419 307.536C210.609 303.58 216.189 297.608 218.308 292.932C219.508 290.055 221.062 284.947 222.192 283.724C223.605 282.141 227.207 278.112 230.527 274.587L231.233 273.868C231.374 273.58 231.586 273.364 231.868 273.148C248.467 255.882 267.678 234.947 281.663 220.199L280.886 219.551Z" fill="#6C301E" stroke="#351710" stroke-width="0.142566" stroke-linejoin="round"/>
<path d="M222.051 276.242C221.203 276.242 220.638 275.738 220.003 275.235C220.85 275.522 221.698 275.81 222.475 275.45L222.051 276.242Z" fill="#8C959D" stroke="#485654" stroke-width="0.071283"/>
<path d="M310.409 198.544L287.949 217.393C287.737 217.681 287.525 217.609 287.313 217.393L285.265 215.667V215.235L286.254 214.228C286.395 214.084 286.254 214.012 286.183 213.796L285.759 213.364C285.547 213.292 285.406 213.364 285.265 213.508L284.276 214.587C283.782 214.587 283.358 215.019 283.287 215.595C269.726 229.048 258.002 241.062 244.511 254.299L228.549 269.839C227.984 270.558 225.512 271.925 223.887 273.004C223.322 273.364 222.828 273.724 222.616 274.083L221.345 278.04C220.921 278.904 219.579 280.918 219.579 281.062L222.263 283.724L230.103 275.163L230.738 274.443C230.219 273.711 229.601 273.057 228.902 272.501L228.408 272.141C228.337 271.997 228.619 271.781 228.761 271.637C247.407 253.22 267.607 233.005 283.993 216.53C284.221 216.618 284.472 216.618 284.7 216.53L286.748 218.76C287.172 219.264 287.596 219.264 287.949 219.048L310.48 198.544H310.409Z" fill="#B2B6BA" stroke="#485654" stroke-width="0.142566"/>
<path d="M221.415 277.896H221.839L222.192 277.824L222.687 276.098L223.252 274.371L222.757 276.098L222.263 277.824L221.839 277.968L221.415 277.896Z" fill="#485654"/>
<path d="M226.501 276.673C226.735 276.673 226.924 276.48 226.924 276.242C226.924 276.003 226.735 275.81 226.501 275.81C226.267 275.81 226.077 276.003 226.077 276.242C226.077 276.48 226.267 276.673 226.501 276.673Z" stroke="#485654" stroke-width="0.142566"/>
<path d="M223.817 279.407C224.051 279.407 224.241 279.214 224.241 278.975C224.241 278.737 224.051 278.544 223.817 278.544C223.583 278.544 223.393 278.737 223.393 278.975C223.393 279.214 223.583 279.407 223.817 279.407Z" stroke="#485654" stroke-width="0.142566"/>
<path d="M228.478 272.141C228.017 271.803 227.591 271.417 227.207 270.99C227.669 271.328 228.095 271.713 228.478 272.141Z" fill="#485654"/>
<path d="M271.704 226.53L274.176 229.048L274.6 228.616L272.128 226.17L271.704 226.602V226.53Z" fill="#8C959D" stroke="#485654" stroke-width="0.071283"/>
<path d="M276.663 283.131C276.769 283.857 276.019 284.756 275.183 284.498C274.83 284.48 274.706 284.114 275.059 284.132C275.334 284.289 275.694 284.163 275.916 283.958C276.094 283.775 276.221 283.546 276.283 283.296C276.345 283.045 276.339 282.783 276.267 282.535L276.663 283.131Z" fill="#8C959D" stroke="#485654" stroke-width="0.071283"/>
<path d="M274.548 284.466C275.212 285.364 276.253 285.776 276.915 285.233C277.359 284.823 277.521 284.398 277.337 283.813L277.998 284.782C277.998 284.782 277.529 285.695 276.807 286.019C275.872 286.333 274.701 285.698 274.04 284.729C273.51 283.983 272.994 282.948 273.459 282.107C273.808 281.566 274.325 281.16 274.928 280.956L275.599 281.71C275.254 281.548 274.753 281.667 274.386 281.937C273.435 282.61 273.877 283.713 274.548 284.466Z" fill="#8C959D"/>
<path d="M274.548 284.466C274.746 284.764 274.998 285.021 275.289 285.224C275.635 285.385 275.981 285.546 276.337 285.492C276.523 285.498 276.705 285.43 276.841 285.301C276.928 285.261 277.005 285.204 277.069 285.133C277.133 285.062 277.183 284.978 277.215 284.887C277.363 284.751 277.37 284.607 277.45 284.395C277.461 284.179 277.468 284.036 277.337 283.813L277.263 283.881L277.994 284.854L277.998 284.782L277.247 285.681L276.74 285.944L276.172 285.988C275.77 285.96 275.385 285.816 275.06 285.572C274.715 285.411 274.376 285.106 274.178 284.808L273.521 283.767C273.397 283.401 273.273 283.034 273.364 282.607C273.375 282.391 273.381 282.247 273.533 282.039C273.88 281.543 274.367 281.165 274.928 280.956L274.858 280.952L275.525 281.778L275.596 281.782C275.462 281.631 275.25 281.62 275.109 281.613L274.538 281.729C274.245 281.93 273.949 282.204 273.861 282.559C273.774 282.915 273.827 283.278 273.954 283.572C274.078 283.939 274.276 284.237 274.548 284.466ZM274.548 284.466C274.276 284.237 274.149 283.942 274.025 283.576C273.898 283.282 273.848 282.847 273.932 282.563C274.02 282.207 274.312 282.006 274.601 281.876C274.894 281.675 275.321 281.624 275.525 281.778L275.596 281.782L274.932 280.884C274.334 281.098 273.819 281.502 273.462 282.035C273.314 282.172 273.233 282.384 273.223 282.6C273.202 283.031 273.252 283.465 273.447 283.835C273.57 284.202 273.765 284.571 274.104 284.876C274.298 285.246 274.641 285.479 274.983 285.713C275.325 285.946 275.671 286.107 276.165 286.132C276.371 286.15 276.579 286.127 276.777 286.062C276.974 285.998 277.157 285.894 277.314 285.757C277.619 285.48 277.874 285.151 278.068 284.786L277.408 283.817L277.266 283.81L277.309 284.388C277.303 284.532 277.292 284.747 277.144 284.884L276.774 285.226C276.697 285.366 276.482 285.427 276.341 285.42C275.984 285.474 275.635 285.385 275.289 285.224L274.548 284.466Z" fill="#485654"/>
<path d="M222.593 217.773L249.519 247.566L277.161 277.178L280.219 281.22C281.551 282.943 283.141 285.183 285.023 287.221C285.351 287.742 285.785 287.547 286.194 287.856C287.43 288.637 288.708 289.998 289.573 291.121L297.785 301.254C298.247 301.925 298.442 302.295 297.998 302.705L293.038 308.797C292.15 309.617 291.142 309.999 290.753 309.259C288.756 305.198 283.469 298.956 281.577 294.18C280.516 291.246 279.209 286.067 278.139 284.789C276.804 283.138 273.399 278.935 270.252 275.249L269.582 274.495C269.454 274.201 269.253 273.975 268.981 273.745C253.231 255.674 235.047 233.808 221.786 218.381L222.593 217.773Z" fill="#6C301E" stroke="#351710" stroke-width="0.142566" stroke-linejoin="round"/>
<path d="M278.639 277.323C279.485 277.366 280.074 276.891 280.733 276.419C279.872 276.665 279.012 276.91 278.253 276.512L278.639 277.323Z" fill="#8C959D" stroke="#485654" stroke-width="0.071283"/>
<path d="M194.112 195.322L215.642 215.266C215.84 215.564 216.055 215.503 216.277 215.298L218.405 213.675L218.426 213.244L217.487 212.189C217.353 212.038 217.497 211.973 217.578 211.761L218.022 211.351C218.237 211.29 218.375 211.369 218.509 211.519L219.445 212.646C219.939 212.671 220.341 213.123 220.384 213.702C233.284 227.814 244.418 240.397 257.257 254.29L272.455 270.605C272.985 271.351 275.389 272.84 276.96 273.998C277.507 274.386 277.983 274.77 278.178 275.14L279.258 279.155C279.64 280.038 280.883 282.117 280.877 282.261L278.068 284.786L270.648 275.845L270.048 275.095C270.601 274.389 271.25 273.766 271.975 273.246L272.486 272.911C272.564 272.771 272.292 272.541 272.158 272.391C254.417 253.068 235.21 231.871 219.634 214.601C219.402 214.678 219.151 214.665 218.928 214.566L216.776 216.691C216.328 217.173 215.905 217.152 215.562 216.919L194.042 195.319L194.112 195.322Z" fill="#B2B6BA" stroke="#485654" stroke-width="0.142566"/>
<path d="M279.194 279.008L278.771 278.987L278.422 278.897L278.011 277.148L277.529 275.395L277.94 277.144L278.351 278.894L278.767 279.058L279.194 279.008Z" fill="#485654"/>
<path d="M274.174 277.533C273.94 277.521 273.76 277.319 273.771 277.081C273.782 276.843 273.981 276.659 274.215 276.671C274.449 276.682 274.629 276.885 274.617 277.123C274.606 277.361 274.407 277.545 274.174 277.533Z" stroke="#485654" stroke-width="0.142566"/>
<path d="M276.723 280.397C276.489 280.385 276.309 280.183 276.321 279.945C276.332 279.707 276.531 279.523 276.765 279.535C276.998 279.546 277.179 279.749 277.167 279.987C277.156 280.225 276.957 280.409 276.723 280.397Z" stroke="#485654" stroke-width="0.142566"/>
<path d="M272.416 272.908C272.893 272.593 273.337 272.229 273.741 271.821C273.263 272.136 272.819 272.5 272.416 272.908Z" fill="#485654"/>
<path d="M231.429 225.2L228.839 227.592L228.437 227.14L231.023 224.82L231.426 225.272L231.429 225.2Z" fill="#8C959D" stroke="#485654" stroke-width="0.071283"/>
<path d="M223.534 303.076C216.703 301.409 209.558 301.633 202.84 303.724C214.352 309.479 223.675 307.033 223.464 303.004L223.534 303.076ZM286.395 305.45C291.904 303.076 305.324 304.947 306.948 306.17C295.506 311.853 286.112 309.407 286.324 305.45H286.395Z" fill="#67923D" stroke="#24420E" stroke-width="0.142566"/>
<path d="M223.393 303.148C223.605 307.105 214.352 309.551 202.84 303.795C213.646 304.515 222.475 304.083 223.322 303.076L223.393 303.148ZM286.395 305.522C286.254 309.479 295.506 311.925 307.019 306.17C296.212 306.889 287.384 306.457 286.465 305.45L286.395 305.522Z" fill="#406325" stroke="#24420E" stroke-width="0.142566"/>
<path d="M276.153 299.191C261.929 279.11 243.589 262.418 222.404 250.271C224.876 250.127 230.456 253.076 232.787 254.587C249.667 265.666 264.076 280.342 279.12 297.608C278.272 298.472 277.707 299.047 276.719 299.767L276.153 299.191Z" fill="#B2B6BA" stroke="#485654" stroke-width="0.142566"/>
<path d="M277.637 299.047L276.507 299.911C260.262 278.616 237.66 258.256 222.333 250.271C243.593 260.199 261.463 280.27 277.425 298.903H277.496L277.637 299.047Z" fill="#8C959D"/>
<path d="M277.637 299.047L276.507 299.911C269.001 290.092 260.683 280.946 251.645 272.573C244.887 266.254 237.713 260.413 230.173 255.091C227.631 253.364 225.017 251.709 222.333 250.271V250.127C227.984 252.789 233.211 256.026 238.225 259.695C243.169 263.292 247.831 267.393 252.351 271.637C256.816 275.914 261.127 280.353 265.277 284.947C269.514 289.551 273.47 294.299 277.566 298.975L277.637 299.047ZM277.637 299.047C273.54 294.299 269.514 289.695 265.277 285.091C261.129 280.495 256.818 276.055 252.351 271.781C247.831 267.537 243.169 263.508 238.225 259.839C233.281 256.242 227.984 252.932 222.404 250.343V250.199C227.731 253.279 232.851 256.716 237.731 260.486C247.46 268.05 256.491 276.503 264.711 285.738C268.858 290.318 272.817 295.07 276.577 299.983L277.637 299.047Z" fill="#485654"/>
<path d="M282.51 295.594C281.098 296.026 279.897 296.529 278.767 297.249C278.626 298.256 277.354 299.407 276.295 299.623L275.871 299.047H275.73L275.306 299.263C274.882 299.263 274.388 299.407 274.176 299.983C273.893 300.702 274.388 301.637 275.023 302.213C275.73 302.716 276.012 302.932 276.719 302.932C277.495 302.716 277.919 301.997 278.131 301.781C280.744 305.019 282.722 306.817 286.042 309.407C287.525 309.407 288.302 308.472 287.807 307.393C287.666 307.033 287.242 306.817 286.889 306.961V306.601C288.584 305.018 289.361 303.004 287.525 299.551C285.971 296.673 284.205 295.666 282.581 295.666H282.51V295.594ZM286.889 298.903C287.242 299.407 287.384 299.911 287.596 300.342C288.726 302.501 287.807 305.162 285.971 305.954H285.83C286.112 305.45 285.265 304.371 284.841 304.731C285.053 304.227 284.347 303.292 283.782 303.508C284.064 303.004 283.428 302.141 282.793 302.429C283.075 301.925 282.581 301.134 281.875 301.278C282.086 300.702 281.592 299.983 280.956 300.126C280.956 299.551 280.815 299.263 280.603 299.047C281.309 298.472 282.228 297.537 283.005 297.105C284.912 296.242 286.112 297.824 286.889 298.903Z" fill="#FAB81C" stroke="#6C301E" stroke-width="0.142566"/>
<path d="M287.737 301.206C287.384 300.99 287.172 300.63 287.313 300.414C287.454 300.126 287.807 300.054 288.161 300.27C288.514 300.414 288.726 300.774 288.655 300.99C288.514 301.277 288.09 301.349 287.737 301.206Z" fill="#FAB81C" stroke="#6C301E" stroke-width="0.071283"/>
<path d="M287.525 300.486C287.172 300.27 286.96 299.911 287.101 299.623C287.242 299.407 287.596 299.335 287.949 299.551C288.302 299.695 288.514 300.055 288.443 300.27C288.302 300.558 287.878 300.63 287.525 300.486Z" fill="#FAB81C" stroke="#6C301E" stroke-width="0.071283"/>
<path d="M287.101 299.623C286.748 299.479 286.536 299.119 286.677 298.903C286.819 298.616 287.172 298.544 287.525 298.688C287.878 298.903 288.09 299.263 287.949 299.479C287.878 299.767 287.454 299.839 287.101 299.623Z" fill="#FAB81C" stroke="#6C301E" stroke-width="0.071283"/>
<path d="M286.536 298.903C286.183 298.688 285.971 298.328 286.112 298.112C286.254 297.896 286.607 297.824 286.96 297.968C287.313 298.184 287.525 298.544 287.454 298.76C287.313 298.975 286.889 299.119 286.536 298.903Z" fill="#FAB81C" stroke="#6C301E" stroke-width="0.071283"/>
<path d="M285.83 298.184C285.406 298.04 285.265 297.608 285.406 297.465V297.321C285.547 297.393 285.9 297.465 285.83 297.249C285.83 297.105 285.759 297.033 285.83 297.105L286.254 297.249C286.607 297.465 286.819 297.824 286.677 298.04C286.607 298.328 286.183 298.4 285.83 298.184Z" fill="#FAB81C" stroke="#6C301E" stroke-width="0.071283"/>
<path d="M278.131 301.781C278.626 300.486 279.544 299.335 280.603 299.047ZM278.272 301.997C279.191 302.141 280.603 301.062 280.956 300.126ZM279.12 303.004C280.25 303.292 281.451 302.141 281.945 301.278ZM280.18 304.155C281.592 304.155 282.369 303.22 282.793 302.429ZM281.239 305.234C282.44 305.234 283.499 304.299 283.782 303.508ZM282.228 306.242C283.57 306.242 284.417 305.594 284.841 304.803ZM283.428 307.249C284.629 307.321 285.547 306.601 285.83 305.954ZM284.7 308.328C285.83 308.328 286.607 307.608 286.889 306.889Z" fill="#FAB81C"/>
<path d="M278.131 301.781C278.445 300.871 279.009 300.072 279.756 299.479C279.968 299.263 280.25 299.119 280.603 299.047C280.299 299.142 280.012 299.288 279.756 299.479C279.493 299.69 279.256 299.931 279.049 300.198C278.662 300.672 278.352 301.207 278.131 301.781ZM278.272 301.997C278.555 301.997 278.838 301.997 279.12 301.853L279.826 301.421L280.533 300.846L280.956 300.126C280.888 300.404 280.741 300.654 280.533 300.846C280.145 301.289 279.661 301.634 279.12 301.853C278.838 301.997 278.555 302.069 278.272 301.997ZM279.12 303.004H279.968L280.674 302.572C281.164 302.237 281.574 301.795 281.875 301.278L281.38 301.997L280.745 302.644L280.038 303.004H279.12ZM280.18 304.155C280.462 304.155 280.745 304.155 280.956 304.011L281.663 303.652L282.369 303.076L282.793 302.357C282.587 302.913 282.217 303.39 281.733 303.724L281.027 304.083L280.18 304.155ZM281.239 305.234C281.804 305.234 282.298 305.019 282.722 304.659C283.152 304.356 283.513 303.964 283.782 303.508C283.711 303.724 283.57 304.011 283.358 304.227L282.793 304.731L282.087 305.162C281.812 305.244 281.523 305.269 281.239 305.234ZM282.228 306.242C282.51 306.242 282.793 306.242 283.005 306.098C283.527 305.98 284.012 305.733 284.417 305.378L284.841 304.731L284.417 305.45C284.205 305.594 283.994 305.81 283.711 305.882C283.287 306.17 282.793 306.242 282.298 306.242H282.228ZM283.428 307.249C283.92 307.242 284.404 307.119 284.841 306.889L285.406 306.529C285.547 306.313 285.759 306.17 285.83 305.954C285.83 306.17 285.618 306.385 285.477 306.529C285.201 306.806 284.866 307.014 284.499 307.139C284.132 307.263 283.742 307.301 283.358 307.249H283.428ZM284.7 308.328L285.406 308.256L285.971 307.968L286.466 307.536L286.889 306.961C286.722 307.401 286.417 307.774 286.021 308.021C285.626 308.268 285.161 308.376 284.7 308.328Z" fill="#6C301E"/>
<path d="M233.346 297.308C248.715 278.121 267.995 262.566 289.85 251.72C287.39 251.427 281.649 254.035 279.234 255.402C261.738 265.442 246.5 279.222 230.477 295.549C231.273 296.462 231.804 297.07 232.749 297.848L233.346 297.308Z" fill="#B2B6BA" stroke="#485654" stroke-width="0.142566"/>
<path d="M231.874 297.075L232.952 298.005C250.408 277.729 274.155 258.77 289.92 251.725C268.12 260.351 249.113 279.308 232.094 296.944L232.024 296.939L231.874 297.075Z" fill="#8C959D"/>
<path d="M231.874 297.075L232.952 298.005C241.017 288.657 249.852 280.029 259.362 272.217C266.476 266.317 273.977 260.92 281.813 256.063C284.452 254.493 287.157 252.999 289.92 251.725L289.929 251.581C284.133 253.897 278.727 256.813 273.508 260.172C268.363 263.464 263.471 267.276 258.711 271.24C254.006 275.239 249.443 279.411 245.034 283.745C240.535 288.086 236.311 292.586 231.949 297.007L231.874 297.075ZM231.874 297.075C236.24 292.582 240.527 288.229 245.025 283.889C249.433 279.552 253.995 275.381 258.703 271.384C263.462 267.42 268.35 263.68 273.499 260.316C278.644 257.024 284.125 254.04 289.846 251.792L289.854 251.648C284.357 254.402 279.046 257.523 273.955 260.992C263.803 267.955 254.296 275.847 245.552 284.57C241.146 288.89 236.918 293.395 232.877 298.072L231.874 297.075Z" fill="#485654"/>
<path d="M227.21 293.333C228.595 293.849 229.765 294.425 230.851 295.211C230.933 296.225 232.135 297.451 233.18 297.73L233.637 297.181L233.778 297.19L234.188 297.431C234.611 297.456 235.097 297.63 235.275 298.217C235.515 298.952 234.967 299.856 234.299 300.392C233.564 300.852 233.27 301.051 232.565 301.008C231.802 300.746 231.421 300.002 231.222 299.774C228.424 302.848 226.345 304.523 222.881 306.908C221.4 306.819 220.679 305.838 221.236 304.791C221.397 304.44 221.833 304.25 222.177 304.415L222.198 304.056C220.598 302.374 219.94 300.316 221.974 296.98C223.693 294.201 225.514 293.302 227.136 293.401L227.206 293.405L227.21 293.333ZM222.646 296.372C222.265 296.853 222.094 297.348 221.858 297.766C220.604 299.852 221.365 302.564 223.152 303.465L223.293 303.474C223.041 302.954 223.95 301.928 224.352 302.313C224.17 301.797 224.929 300.906 225.481 301.156C225.228 300.636 225.913 299.813 226.53 300.138C226.278 299.619 226.817 298.859 227.514 299.045C227.336 298.458 227.871 297.769 228.498 297.951C228.531 297.377 228.689 297.098 228.913 296.895C228.241 296.278 227.379 295.289 226.629 294.811C224.776 293.834 223.485 295.342 222.646 296.372Z" fill="#FAB81C" stroke="#6C301E" stroke-width="0.142566"/>
<path d="M221.666 298.619C222.031 298.425 222.264 298.079 222.135 297.855C222.011 297.559 221.663 297.466 221.298 297.66C220.937 297.782 220.704 298.128 220.762 298.348C220.886 298.644 221.305 298.741 221.666 298.619Z" fill="#FAB81C" stroke="#6C301E" stroke-width="0.0712831"/>
<path d="M221.92 297.914C222.285 297.719 222.517 297.373 222.393 297.077C222.265 296.853 221.916 296.76 221.551 296.954C221.19 297.077 220.958 297.423 221.016 297.643C221.14 297.938 221.559 298.036 221.92 297.914Z" fill="#FAB81C" stroke="#6C301E" stroke-width="0.0712831"/>
<path d="M222.393 297.077C222.754 296.955 222.986 296.609 222.858 296.385C222.734 296.089 222.385 295.996 222.024 296.118C221.659 296.312 221.427 296.659 221.555 296.883C221.609 297.174 222.028 297.272 222.393 297.077Z" fill="#FAB81C" stroke="#6C301E" stroke-width="0.0712831"/>
<path d="M222.999 296.393C223.364 296.199 223.596 295.853 223.468 295.629C223.34 295.405 222.991 295.312 222.63 295.434C222.265 295.628 222.033 295.975 222.091 296.194C222.219 296.418 222.634 296.587 222.999 296.393Z" fill="#FAB81C" stroke="#6C301E" stroke-width="0.0712831"/>
<path d="M223.746 295.718C224.177 295.6 224.344 295.177 224.211 295.025L224.219 294.882C224.074 294.945 223.717 294.995 223.8 294.784C223.809 294.641 223.883 294.573 223.809 294.641L223.377 294.759C223.012 294.953 222.78 295.299 222.908 295.523C222.962 295.815 223.381 295.912 223.746 295.718Z" fill="#FAB81C" stroke="#6C301E" stroke-width="0.0712831"/>
<path d="M231.222 299.774C230.803 298.451 229.954 297.247 228.913 296.895ZM231.068 299.981C230.143 300.069 228.796 298.906 228.498 297.951ZM230.163 300.935C229.018 301.154 227.887 299.932 227.444 299.041ZM229.039 302.02C227.629 301.935 226.907 300.954 226.53 300.138ZM227.918 303.033C226.72 302.961 225.717 301.963 225.481 301.156ZM226.873 303.979C225.533 303.898 224.725 303.2 224.348 302.385ZM225.615 304.912C224.413 304.911 223.538 304.137 223.293 303.474ZM224.283 305.912C223.155 305.844 222.422 305.079 222.181 304.344Z" fill="#FAB81C"/>
<path d="M231.222 299.774C230.961 298.846 230.445 298.015 229.734 297.377C229.535 297.149 229.261 296.989 228.913 296.895C229.211 297.008 229.489 297.171 229.734 297.377C229.984 297.604 230.206 297.859 230.397 298.138C230.756 298.635 231.035 299.187 231.222 299.774ZM231.068 299.981C230.786 299.964 230.504 299.946 230.23 299.786L229.55 299.312L228.879 298.695L228.498 297.951C228.549 298.232 228.682 298.491 228.879 298.695C229.24 299.161 229.703 299.534 230.23 299.786C230.504 299.946 230.782 300.035 231.068 299.981ZM230.163 300.935L229.317 300.884L228.637 300.41C228.168 300.046 227.784 299.58 227.514 299.045L227.966 299.793L228.563 300.478L229.247 300.879L230.163 300.935ZM229.039 302.02C228.757 302.003 228.475 301.986 228.271 301.829L227.587 301.428L226.916 300.81L226.535 300.067C226.708 300.634 227.05 301.133 227.513 301.495L228.197 301.897L229.039 302.02ZM227.918 303.033C227.354 302.999 226.873 302.754 226.471 302.369C226.06 302.041 225.722 301.627 225.481 301.156C225.539 301.376 225.663 301.671 225.862 301.9L226.396 302.437L227.076 302.91C227.346 303.009 227.632 303.05 227.918 303.033ZM226.873 303.979C226.591 303.962 226.308 303.945 226.105 303.788C225.591 303.639 225.121 303.363 224.737 302.985L224.352 302.313L224.733 303.057C224.936 303.213 225.135 303.441 225.413 303.53C225.819 303.843 226.308 303.945 226.802 303.974L226.873 303.979ZM225.615 304.912C225.125 304.875 224.649 304.723 224.226 304.467L223.683 304.074C223.555 303.85 223.351 303.694 223.293 303.474C223.281 303.689 223.48 303.918 223.612 304.07C223.872 304.362 224.194 304.59 224.553 304.737C224.912 304.884 225.3 304.945 225.686 304.916L225.615 304.912ZM224.283 305.912L223.582 305.798L223.035 305.476L222.567 305.015L222.177 304.415C222.319 304.865 222.602 305.255 222.982 305.526C223.363 305.796 223.82 305.932 224.283 305.912Z" fill="#6C301E"/>
<path d="M206.018 212.861C211.615 209.84 216.357 205.406 219.791 199.983C208.773 203.005 203.758 210.271 206.018 212.933V212.861ZM308.996 216.242C306.589 210.587 302.795 205.657 297.978 201.926C299.956 212.861 306.454 218.328 308.996 216.314V216.242Z" fill="#406325" stroke="#24420E" stroke-width="0.142566"/>
<path d="M206.018 212.861C203.687 210.271 208.702 203.077 219.72 200.055C211.951 206.098 206.159 211.71 206.018 212.861ZM308.996 216.242C306.383 218.4 300.026 212.933 298.049 202.069C303.134 209.983 307.937 216.098 308.996 216.242Z" fill="#67923D" stroke="#24420E" stroke-width="0.142566"/>
<path d="M236.389 269.048C236.389 269.048 232.08 269.551 230.809 263.436C229.538 256.889 234.552 256.242 234.552 256.242C234.552 256.242 240.273 255.594 243.876 255.522L245.429 268.472L236.389 269.048Z" fill="url(#paint0_radial_2_4393)" stroke="#999270" stroke-width="0.142566"/>
<path d="M236.954 267.105C236.954 267.105 234.129 267.609 233.564 263.076C233.14 259.839 235.117 259.407 235.117 259.407L241.615 260.558V266.458L236.954 267.105Z" fill="url(#paint1_radial_2_4393)" stroke="#999270" stroke-width="0.142566"/>
<path d="M235.117 259.407C235.117 259.407 239.355 259.119 241.474 258.832L242.392 262.932L237.378 263.22C237.378 263.22 237.024 259.551 235.117 259.407Z" fill="url(#paint2_radial_2_4393)" stroke="#999270" stroke-width="0.142566"/>
<path d="M234.27 256.314C234.27 256.314 239.567 254.947 240.273 260.918C240.415 262.501 239.567 266.098 236.954 267.105L246.771 266.026L245.853 255.235L242.604 255.522C242.604 255.522 235.541 255.738 234.27 256.242V256.314Z" fill="url(#paint3_radial_2_4393)" stroke="#999270" stroke-width="0.142566"/>
<path d="M236.389 269.048C236.389 269.048 273.046 266.53 276.789 266.673C287.949 260.486 276.789 236.098 267.395 222.429C268.455 219.336 246.277 212.429 236.318 213.077C234.976 213.077 233.775 213.221 232.645 213.292C227.207 213.868 227.136 220.99 229.326 225.523C231.445 229.839 250.797 265.091 237.236 268.904L236.389 269.048Z" fill="#F9F0AA" stroke="#999270" stroke-width="0.142566"/>
<path d="M275.659 236.817C273.187 231.566 270.221 226.53 267.395 222.429C268.455 219.336 246.277 212.429 236.318 213.077C234.976 213.077 233.775 213.221 232.645 213.292C227.207 213.868 227.136 220.99 229.326 225.523C230.032 226.818 232.363 231.278 234.906 236.817" fill="url(#paint4_linear_2_4393)"/>
<path d="M275.659 236.817C273.187 231.566 270.221 226.53 267.395 222.429C268.455 219.336 246.277 212.429 236.318 213.077C234.976 213.077 233.775 213.221 232.645 213.292C227.207 213.868 227.136 220.99 229.326 225.523C230.032 226.818 232.363 231.278 234.906 236.817" stroke="#999270" stroke-width="0.142566"/>
<path d="M238.366 245.235C242.322 255.738 244.511 266.817 237.236 268.904L236.389 269.048C236.389 269.048 273.116 266.53 276.789 266.673C282.863 263.292 282.298 254.587 279.049 245.091" fill="url(#paint5_linear_2_4393)"/>
<path d="M238.366 245.235C242.322 255.738 244.511 266.817 237.236 268.904L236.389 269.048C236.389 269.048 273.116 266.53 276.789 266.673C282.863 263.292 282.298 254.587 279.049 245.091" stroke="#999270" stroke-width="0.142566"/>
<path d="M232.999 215.379C230.385 215.379 229.679 217.969 229.75 219.551C229.82 223.868 232.999 224.012 232.999 224.012L237.236 223.796L239.214 215.019L232.999 215.379Z" fill="url(#paint6_radial_2_4393)" stroke="#999270" stroke-width="0.142566"/>
<path d="M232.999 215.379L239.214 215.019L239.92 221.566L234.411 221.854C234.411 221.854 236.177 216.602 232.999 215.379Z" fill="url(#paint7_linear_2_4393)" stroke="#999270" stroke-width="0.142566"/>
<path d="M267.395 222.429C272.128 221.71 272.057 215.235 268.808 212.573C257.86 212.141 243.522 212.501 233.069 213.292C234.27 213.292 237.589 213.58 237.943 217.969C238.016 218.92 237.861 219.875 237.492 220.752C237.123 221.63 236.55 222.402 235.824 223.005C235.007 223.63 234.02 223.981 232.999 224.012H235.541L237.66 223.724C252.492 221.782 267.325 222.429 267.325 222.429H267.395Z" fill="url(#paint8_linear_2_4393)" stroke="#999270" stroke-width="0.142566"/>
<path d="M240.839 232.573C240.697 232.357 240.556 232.069 240.273 231.997C240.132 231.997 239.85 231.997 239.92 231.71H240.485L241.615 231.566C241.898 231.638 241.827 231.925 241.615 231.925C241.262 231.925 241.474 232.285 241.545 232.501L242.463 234.659C242.534 234.947 242.746 235.163 242.957 235.163L243.734 235.091C243.946 234.947 243.876 234.659 243.876 234.371C243.805 234.156 244.229 234.228 244.229 234.371L244.511 235.379C244.511 235.523 244.37 235.451 244.229 235.451L242.11 235.594C241.898 235.594 241.545 235.81 241.404 235.594C241.404 235.307 241.827 235.451 241.827 235.235L241.615 234.515L240.839 232.573ZM244.229 232.285C244.158 232.141 244.017 231.853 243.734 231.782C243.593 231.782 243.311 231.782 243.311 231.494C243.452 231.35 243.664 231.494 243.805 231.494L245.006 231.35C245.218 231.35 245.288 231.71 245.006 231.638C244.794 231.638 244.794 231.925 244.864 232.141L245.924 234.587C245.924 234.731 246.065 234.947 246.277 235.019C246.418 235.019 246.701 235.019 246.771 235.235C246.771 235.451 246.489 235.307 246.348 235.307C245.994 235.307 245.641 235.307 245.218 235.451C245.076 235.451 244.864 235.451 244.864 235.235C244.864 235.019 245.218 235.235 245.288 234.947C245.288 234.731 245.147 234.515 245.006 234.228L244.229 232.357V232.285ZM247.407 232.861C247.407 233.005 247.69 232.861 247.76 232.861C247.972 232.861 248.184 232.789 248.184 232.573C248.184 232.213 247.972 231.853 247.69 231.71C247.478 231.494 247.195 231.566 246.913 231.566L246.983 231.925L247.407 232.861ZM247.831 234.012C247.972 234.228 248.043 234.515 248.255 234.731C248.396 234.875 248.678 234.803 248.82 234.731C249.032 234.731 249.173 234.515 249.102 234.371C249.032 233.868 248.749 233.436 248.255 233.292H247.548L247.69 233.652L247.831 234.012ZM246.418 232.285C246.277 232.069 246.206 231.71 245.924 231.566C245.783 231.566 245.5 231.638 245.429 231.422C245.429 231.206 245.853 231.35 245.994 231.278C246.63 231.278 247.266 231.062 247.831 231.278C248.325 231.422 248.82 231.853 248.89 232.429C248.89 232.717 248.678 232.933 248.467 233.005L248.82 233.077C249.243 233.22 249.597 233.508 249.809 233.94C249.95 234.228 250.02 234.587 249.809 234.875C249.526 235.163 249.102 235.163 248.82 235.163C248.255 235.163 247.76 235.163 247.195 235.307C246.983 235.307 246.913 234.947 247.195 234.947C247.407 234.947 247.407 234.659 247.336 234.515L246.418 232.357V232.285ZM251.645 230.918C251.857 230.918 251.927 231.134 251.998 231.278L252.21 231.925C251.998 232.069 251.857 231.782 251.786 231.638C251.645 231.494 251.504 231.278 251.292 231.35H250.444C250.303 231.494 250.444 231.638 250.515 231.782L250.939 232.789C251.08 232.789 251.362 232.789 251.504 232.573C251.504 232.429 251.292 232.069 251.645 232.141C251.857 232.285 251.786 232.573 251.927 232.789L252.281 233.58C252.069 233.796 251.927 233.508 251.857 233.292C251.716 233.076 251.362 233.077 251.15 233.077C251.009 233.077 251.15 233.22 251.15 233.292L251.574 234.371C251.716 234.587 252.069 234.587 252.281 234.587C252.492 234.587 252.846 234.587 252.987 234.3C253.128 234.156 252.775 233.796 252.987 233.724C253.269 233.724 253.269 234.012 253.34 234.156C253.34 234.371 253.481 234.587 253.552 234.731C253.552 234.875 253.34 234.875 253.269 234.875L251.15 235.019C250.868 235.019 250.515 235.163 250.444 234.875C250.444 234.659 250.939 234.803 250.868 234.515L250.585 233.796L249.809 231.853C249.667 231.638 249.526 231.35 249.243 231.35C249.102 231.35 248.82 231.35 248.961 231.062H249.667L251.645 230.918ZM253.269 231.853C253.199 231.638 253.057 231.35 252.775 231.206C252.634 231.206 252.281 231.206 252.281 230.918C252.492 230.774 252.775 230.918 252.987 230.918C253.552 230.918 254.117 230.702 254.682 230.918C255.247 230.99 255.741 231.566 255.812 232.213C255.812 232.501 255.6 232.717 255.318 232.789C255.106 232.789 255.459 232.861 255.53 232.933C256.024 233.148 256.236 233.58 256.518 234.012C256.589 234.156 256.872 234.515 256.942 234.156C256.942 233.796 257.366 234.156 257.295 234.371C257.295 234.659 257.013 234.803 256.801 234.803C256.518 234.803 256.165 234.659 256.024 234.371C255.741 233.94 255.53 233.436 255.106 233.148C255.033 233.074 254.942 233.022 254.843 232.997C254.743 232.971 254.639 232.974 254.541 233.005V233.364L254.965 234.228C255.106 234.443 255.388 234.443 255.671 234.443C255.883 234.515 255.812 234.875 255.53 234.803H254.329C254.117 234.947 253.693 234.803 253.834 234.587C254.046 234.587 254.329 234.443 254.188 234.228L253.481 232.357L253.269 231.853ZM254.258 232.573C254.399 232.717 254.682 232.573 254.894 232.573C255.106 232.573 255.106 232.213 255.035 232.069C254.965 231.71 254.753 231.35 254.399 231.206C254.258 231.206 253.834 231.062 253.764 231.278L254.258 232.429V232.573ZM259.344 233.724C259.414 233.94 259.555 234.156 259.767 234.228C259.909 234.228 260.191 234.228 260.262 234.443C260.262 234.659 259.979 234.515 259.838 234.587H258.708C258.496 234.659 258.284 234.587 258.284 234.371C258.425 234.228 258.779 234.371 258.779 234.084L258.425 233.292L257.648 231.206C257.578 230.99 257.295 230.99 257.154 230.99C256.942 230.99 256.66 230.99 256.66 231.278C256.66 231.494 256.801 231.71 256.66 231.853C256.448 231.853 256.377 231.638 256.306 231.494C256.306 231.278 256.165 231.062 256.024 230.774C256.024 230.63 256.306 230.702 256.377 230.702L259.344 230.559C259.555 230.559 259.697 230.702 259.697 230.918L259.979 231.638C259.909 231.853 259.626 231.638 259.555 231.422C259.485 231.206 259.202 230.918 258.92 230.918C258.779 230.918 258.496 230.918 258.355 231.062L258.496 231.566L259.344 233.724ZM262.028 233.077C261.886 233.077 261.957 233.292 261.957 233.364V233.94C262.028 234.228 262.31 234.156 262.522 234.228C262.663 234.228 262.593 234.587 262.381 234.515H261.533C261.321 234.587 260.968 234.443 261.18 234.228C261.321 234.228 261.462 234.156 261.533 234.012V230.415C261.674 230.199 261.886 230.415 261.957 230.559L264.5 233.796C264.641 233.94 264.853 234.084 265.065 234.084C265.276 234.084 265.347 234.443 265.065 234.371H264.005C263.864 234.371 263.652 234.515 263.511 234.371C263.369 234.3 263.511 234.084 263.652 234.084C263.864 234.084 263.652 233.796 263.581 233.652L263.158 233.077H262.028ZM262.804 232.717C262.946 232.717 262.804 232.645 262.804 232.573L261.886 231.35V232.789H262.804V232.717ZM264.994 231.422C264.923 231.134 264.782 230.702 264.429 230.702C264.217 230.702 263.935 230.559 264.076 230.415H265.276C265.771 230.343 266.265 230.343 266.689 230.487C267.749 230.846 268.596 231.782 268.808 232.933C268.808 233.364 268.737 233.868 268.384 234.084C267.819 234.443 267.184 234.371 266.618 234.3L265.63 234.371C265.418 234.371 265.347 234.012 265.63 234.084C265.912 234.084 265.912 233.724 265.771 233.58L264.994 231.422ZM266.407 233.22C266.477 233.436 266.548 233.724 266.76 233.94H267.466C267.819 233.94 267.96 233.58 267.96 233.292C267.93 232.763 267.785 232.247 267.537 231.782C267.254 231.278 266.83 230.918 266.265 230.774C266.032 230.734 265.793 230.734 265.559 230.774C265.488 230.774 265.559 230.918 265.559 231.062L266.407 233.22ZM251.504 242.141C251.504 242.357 251.786 242.573 252.069 242.573C252.21 242.573 252.563 242.573 252.563 242.861C252.422 243.005 252.139 242.861 251.998 242.861L250.939 243.004H250.303C250.162 243.004 250.162 242.717 250.374 242.717C250.585 242.717 250.797 242.645 250.797 242.429L250.656 241.853L249.809 239.839C249.809 239.623 249.526 239.623 249.314 239.623C249.173 239.623 248.89 239.695 248.82 239.479C248.82 239.264 249.173 239.335 249.314 239.192L250.02 238.976C250.162 238.976 250.232 239.048 250.232 239.192L251.504 242.141ZM251.998 238.904H253.411C253.693 238.904 253.552 238.544 253.693 238.544C253.976 238.544 253.976 238.904 253.976 239.048C253.976 239.335 253.764 239.551 253.552 239.479H252.492L252.846 240.343L253.269 240.199C253.976 240.199 254.823 240.63 255.106 241.35C255.247 241.71 255.318 242.069 255.106 242.429C254.823 242.789 254.399 242.861 253.976 242.861C253.623 242.861 253.269 242.789 252.987 242.429C252.916 242.285 252.916 241.925 253.128 241.997C253.411 241.997 253.623 242.141 253.623 242.429C253.693 242.573 253.976 242.501 254.117 242.501C254.329 242.501 254.541 242.357 254.541 242.141C254.541 241.781 254.399 241.422 254.188 241.134C254.046 240.846 253.693 240.63 253.269 240.63L252.704 240.702C252.492 240.702 252.492 240.487 252.422 240.343L251.927 238.976L252.069 238.904H251.998ZM256.872 239.623C256.73 239.335 256.589 238.976 256.236 238.904C256.095 238.904 255.741 238.832 255.953 238.616H257.083C257.578 238.472 258.143 238.544 258.567 238.688C259.626 239.048 260.474 239.983 260.686 241.134C260.686 241.566 260.615 241.997 260.191 242.285C259.697 242.573 259.061 242.501 258.496 242.501L257.578 242.645C257.366 242.645 257.295 242.285 257.578 242.285C257.79 242.285 257.79 241.997 257.719 241.781L256.872 239.623ZM258.284 241.422C258.355 241.638 258.496 241.925 258.708 242.141H259.414C259.697 242.069 259.838 241.71 259.838 241.422C259.838 240.918 259.626 240.415 259.344 239.911C259.061 239.407 258.637 239.048 258.072 238.976C257.838 238.935 257.6 238.935 257.366 238.976V239.264L258.284 241.422ZM262.804 238.328C263.016 238.328 263.087 238.544 263.158 238.688C263.158 238.904 263.299 239.048 263.369 239.264C263.228 239.479 263.016 239.264 262.946 239.048C262.875 238.904 262.734 238.688 262.522 238.688H261.604C261.462 238.832 261.604 239.048 261.604 239.12L262.028 240.127C262.239 240.127 262.451 240.127 262.593 239.983C262.734 239.839 262.381 239.479 262.734 239.551C262.946 239.551 262.946 239.911 263.016 240.127L263.369 240.918C263.299 241.206 263.016 240.918 262.946 240.702C262.875 240.487 262.593 240.487 262.381 240.487C262.239 240.487 262.098 240.487 262.239 240.63L262.663 241.71C262.804 241.997 263.158 241.925 263.369 241.925C263.652 241.925 263.935 241.925 264.076 241.71C264.217 241.566 263.935 241.278 264.076 241.134C264.358 241.134 264.429 241.35 264.429 241.494L264.641 242.213C264.641 242.285 264.429 242.213 264.358 242.213L262.169 242.357C261.957 242.357 261.674 242.501 261.533 242.285C261.392 241.997 261.886 242.141 261.957 241.925L261.745 241.278L260.968 239.192C260.827 238.976 260.686 238.76 260.403 238.688C260.262 238.688 259.979 238.688 260.12 238.4H260.827L262.804 238.328ZM243.593 248.616C243.664 248.976 244.017 249.12 244.299 249.192C244.864 249.335 245.5 249.551 245.853 249.983C246.065 250.271 246.206 250.63 246.206 250.99C246.206 251.35 245.853 251.638 245.5 251.709C245.147 251.853 244.723 251.781 244.299 251.638C244.158 251.566 244.229 251.925 243.946 251.853C243.805 251.709 243.876 251.422 243.805 251.206C243.725 250.961 243.631 250.72 243.522 250.486C243.522 250.271 243.805 250.486 243.876 250.63C244.087 251.062 244.511 251.35 245.006 251.422C245.288 251.422 245.571 251.278 245.571 250.99C245.571 250.63 245.288 250.271 245.006 250.127C244.511 249.911 244.017 249.839 243.593 249.551C243.391 249.433 243.221 249.267 243.098 249.066C242.975 248.865 242.902 248.636 242.887 248.4C242.887 248.112 243.169 247.825 243.452 247.753C243.805 247.609 244.158 247.609 244.582 247.753C244.723 247.753 244.794 247.537 245.006 247.681C245.006 247.825 245.006 247.968 245.147 248.112L245.359 248.76C245.218 248.904 245.006 248.76 245.006 248.616C244.794 248.328 244.653 248.04 244.299 248.04C244.017 248.04 243.734 248.04 243.593 248.256V248.616ZM248.255 247.393C248.537 247.393 248.537 247.609 248.608 247.753L248.749 248.328C248.749 248.544 248.467 248.328 248.396 248.184C248.325 248.04 248.184 247.825 247.902 247.825H247.054C246.913 247.968 247.054 248.184 247.054 248.256L247.407 249.263C247.619 249.263 247.831 249.263 247.972 249.12C248.113 248.976 247.831 248.688 248.043 248.616C248.325 248.616 248.325 248.976 248.396 249.12C248.396 249.407 248.608 249.695 248.678 250.055C248.608 250.271 248.325 250.055 248.325 249.839C248.255 249.623 247.972 249.551 247.76 249.623C247.619 249.623 247.478 249.623 247.548 249.767L247.972 250.846C248.043 251.062 248.255 251.062 248.467 251.062C248.749 251.062 249.102 251.062 249.314 250.846C249.455 250.702 249.314 250.415 249.314 250.271C249.526 250.127 249.738 250.271 249.738 250.486L249.879 251.206C249.879 251.35 249.667 251.35 249.597 251.35L247.478 251.494C247.195 251.494 246.913 251.709 246.771 251.494C246.771 251.206 247.125 251.278 247.195 251.062C247.195 250.918 247.195 250.702 247.054 250.486L246.348 248.328C246.348 248.112 246.136 247.897 245.853 247.897C245.712 247.897 245.429 247.825 245.571 247.609H246.277L248.255 247.393ZM251.221 250.415C251.292 250.63 251.433 250.846 251.645 250.918C251.857 250.918 252.139 250.846 252.21 251.062C252.21 251.35 251.857 251.206 251.716 251.206C251.292 251.206 251.009 251.206 250.585 251.35C250.444 251.35 250.232 251.35 250.162 251.206C250.162 250.918 250.515 251.062 250.585 250.918L250.515 250.343L249.809 248.184C249.667 247.968 249.597 247.681 249.314 247.681C249.173 247.681 248.89 247.681 248.961 247.393C249.032 247.249 249.243 247.393 249.455 247.393C249.95 247.393 250.444 247.177 251.009 247.249C251.268 247.267 251.517 247.357 251.729 247.509C251.94 247.661 252.107 247.87 252.21 248.112C252.351 248.4 252.351 248.832 252.21 249.048C251.857 249.335 251.433 249.407 251.009 249.479C250.868 249.479 251.009 249.623 251.009 249.695L251.221 250.415ZM250.797 249.12H251.292C251.504 249.048 251.645 248.832 251.574 248.616C251.574 248.256 251.433 247.968 251.221 247.753C251.009 247.537 250.656 247.537 250.444 247.609C250.303 247.681 250.444 247.825 250.444 247.968L250.797 249.12ZM255.176 250.199C255.176 250.343 255.318 250.63 255.53 250.63C255.671 250.63 256.024 250.63 256.024 250.846C256.024 251.062 255.671 250.99 255.53 250.99L254.399 251.062C254.258 251.062 254.046 251.062 254.046 250.846C254.188 250.702 254.541 250.846 254.541 250.558L254.329 249.695L253.623 247.609C253.623 247.393 253.34 247.465 253.128 247.465C252.987 247.465 252.704 247.465 252.634 247.681V248.256C252.492 248.4 252.281 248.256 252.351 248.04L252.069 247.321C252.069 247.105 252.281 247.177 252.422 247.105L255.318 246.961C255.53 246.961 255.671 247.105 255.671 247.321L255.953 248.04C255.883 248.184 255.6 248.04 255.6 247.897C255.459 247.681 255.247 247.393 254.894 247.393C254.753 247.393 254.541 247.321 254.329 247.393L254.47 247.897L255.176 250.199ZM256.66 247.825C256.589 247.609 256.518 247.321 256.236 247.249C256.095 247.249 255.812 247.249 255.812 246.961C255.883 246.817 256.095 246.961 256.236 246.961L257.507 246.817C257.719 246.745 257.86 247.105 257.648 247.105C257.437 247.105 257.225 247.249 257.295 247.465L257.648 248.616L258.143 250.199C258.143 250.343 258.355 250.486 258.496 250.486C258.708 250.486 258.99 250.486 258.92 250.774H258.425L257.295 250.918C257.154 250.918 256.872 250.774 257.013 250.63C257.154 250.558 257.437 250.63 257.437 250.343L257.225 249.479L256.66 247.825ZM260.756 246.674C260.968 246.674 260.968 246.889 261.039 247.033L261.18 247.609C261.109 247.825 260.827 247.609 260.827 247.465C260.756 247.249 260.615 247.033 260.332 247.033H259.555C259.414 247.177 259.555 247.393 259.555 247.537L259.909 248.472C260.05 248.472 260.262 248.472 260.474 248.328C260.615 248.256 260.332 247.897 260.544 247.897C260.827 247.897 260.827 248.184 260.897 248.328C260.897 248.688 261.109 248.976 261.18 249.263C261.109 249.479 260.827 249.263 260.827 249.12C260.756 248.904 260.474 248.832 260.262 248.832C260.191 248.832 259.909 248.832 260.05 248.976L260.403 250.055C260.474 250.271 260.756 250.343 260.897 250.343C261.18 250.343 261.533 250.343 261.745 250.127C261.886 249.983 261.745 249.695 261.816 249.479C262.028 249.407 262.169 249.551 262.169 249.767L262.31 250.486C262.31 250.63 262.169 250.63 262.028 250.63L259.909 250.702C259.626 250.702 259.414 250.846 259.202 250.702C259.132 250.415 259.555 250.486 259.626 250.343C259.654 250.247 259.662 250.146 259.65 250.047C259.638 249.948 259.606 249.853 259.555 249.767L258.849 247.609C258.849 247.393 258.637 247.105 258.355 247.105C258.213 247.105 257.931 246.961 258.072 246.817H258.779L260.827 246.674H260.756ZM262.169 247.393C262.098 247.105 261.886 246.889 261.604 246.889C261.392 246.961 261.251 246.458 261.604 246.602H262.663L263.158 247.249L264.711 249.335C264.57 249.335 264.711 249.192 264.641 249.12L264.923 246.53C265.065 246.386 265.418 246.53 265.63 246.386C265.842 246.386 266.336 246.386 266.195 246.674C265.912 246.674 265.63 246.817 265.771 247.105L266.618 249.695C266.618 249.983 266.901 250.127 267.183 250.055C267.395 250.055 267.395 250.486 267.183 250.415H265.912C265.7 250.486 265.347 250.486 265.418 250.199C265.63 250.199 265.983 250.055 265.842 249.767L265.135 247.465C265.206 247.537 265.135 247.681 265.135 247.753L264.994 249.911L264.923 250.486C264.711 250.558 264.641 250.415 264.57 250.271L262.522 247.609L262.663 247.825C262.875 248.544 263.016 249.263 263.299 249.911C263.299 250.199 263.652 250.271 263.864 250.271C264.146 250.415 263.935 250.63 263.723 250.558H262.663C262.451 250.558 262.451 250.271 262.663 250.271C263.016 250.271 262.946 249.911 262.804 249.695L262.169 247.393ZM268.314 247.968C268.314 248.112 268.596 247.968 268.667 247.968C268.879 247.968 269.091 247.968 269.161 247.681C269.161 247.393 269.02 246.961 268.808 246.817C268.525 246.602 268.243 246.674 267.96 246.674V247.033L268.314 247.968ZM268.667 249.12L268.949 249.839C269.161 249.983 269.373 249.911 269.585 249.911C269.726 249.911 269.938 249.767 269.867 249.551C269.867 249.12 269.656 248.616 269.232 248.472H268.525V248.688L268.667 249.12ZM267.325 247.393C267.254 247.105 267.183 246.817 266.901 246.674C266.76 246.674 266.477 246.674 266.477 246.458C266.477 246.242 266.83 246.458 266.972 246.386C267.678 246.386 268.243 246.242 268.879 246.386C269.373 246.53 269.797 247.033 269.797 247.537C269.797 247.825 269.514 248.04 269.302 248.184C269.302 248.04 269.585 248.184 269.656 248.184C270.009 248.328 270.362 248.616 270.503 249.048C270.644 249.335 270.715 249.695 270.503 249.983C270.221 250.271 269.797 250.271 269.444 250.271L267.819 250.343C267.607 250.343 267.537 249.983 267.819 250.055C268.031 250.055 268.102 249.767 267.96 249.551L267.325 247.393ZM270.927 247.249C270.927 247.033 270.786 246.674 270.503 246.53C270.362 246.53 270.079 246.53 270.079 246.314C270.221 246.098 270.503 246.314 270.786 246.242H272.198C272.763 246.242 273.258 246.674 273.399 247.249C273.47 247.537 273.399 247.968 273.116 248.112L272.834 248.256C273.258 248.4 273.611 248.76 273.823 249.12L274.176 249.695C274.317 249.839 274.388 249.623 274.388 249.479C274.67 249.335 274.812 249.695 274.67 249.911C274.6 250.199 274.176 250.271 273.964 250.199C273.838 250.192 273.718 250.147 273.617 250.07C273.517 249.993 273.441 249.888 273.399 249.767L272.693 248.544C272.481 248.472 272.269 248.328 272.057 248.472V248.76L272.41 249.623C272.481 249.839 272.763 249.911 272.975 249.911C273.258 249.911 273.258 250.271 272.975 250.199H271.704C271.563 250.199 271.28 250.343 271.209 250.199C271.068 249.839 271.492 249.983 271.633 249.839L271.492 249.192L270.927 247.249ZM271.845 247.968C271.916 248.184 272.269 247.968 272.41 247.968C272.622 247.968 272.763 247.753 272.693 247.609C272.693 247.249 272.551 246.889 272.339 246.674C272.128 246.53 271.845 246.53 271.633 246.602C271.492 246.602 271.563 246.817 271.633 246.961L271.845 247.897V247.968ZM276.719 246.098C276.93 246.098 276.93 246.314 277.001 246.458C277.001 246.674 277.142 246.889 277.213 247.033C277.072 247.249 276.86 247.033 276.789 246.889C276.789 246.745 276.648 246.458 276.365 246.458H275.447C275.306 246.53 275.447 246.745 275.447 246.889L275.73 247.897C275.942 247.897 276.154 247.897 276.295 247.753C276.507 247.681 276.224 247.393 276.436 247.249C276.719 247.249 276.719 247.537 276.719 247.753C276.719 248.112 276.93 248.4 277.001 248.688C276.93 248.904 276.648 248.688 276.648 248.544C276.648 248.328 276.365 248.184 276.154 248.256C276.083 248.256 275.8 248.112 275.871 248.256L276.224 249.479C276.295 249.695 276.507 249.695 276.719 249.695C277.001 249.695 277.354 249.695 277.566 249.551C277.707 249.407 277.566 249.12 277.637 248.976C277.849 248.832 278.061 248.976 277.99 249.192L278.131 249.911C278.131 250.055 277.919 250.055 277.849 250.055H275.659C275.447 250.055 275.235 250.199 275.094 250.055C274.882 249.767 275.235 249.839 275.377 249.695C275.518 249.551 275.377 249.335 275.377 249.192L274.741 246.961C274.741 246.745 274.529 246.458 274.317 246.458C274.105 246.458 273.893 246.386 273.964 246.17H274.67L276.719 246.098ZM253.552 255.522C253.552 255.307 253.411 254.947 253.128 254.803C252.916 254.803 252.634 254.803 252.775 254.587L253.481 254.515C254.046 254.515 254.611 254.371 255.176 254.515C256.024 254.659 256.801 255.379 257.013 256.17C257.154 256.745 257.225 257.321 256.872 257.825C256.518 258.256 255.883 258.4 255.318 258.4C254.823 258.4 254.399 258.4 253.976 258.544C253.834 258.616 253.552 258.472 253.693 258.256C253.905 258.256 254.188 258.184 254.117 257.896L253.834 256.817L253.552 255.522ZM254.682 257.321C254.753 257.537 254.823 257.825 254.965 257.968C255.176 258.112 255.459 258.04 255.671 257.968C255.953 257.968 256.236 257.681 256.306 257.321C256.362 256.777 256.264 256.228 256.024 255.738C255.933 255.515 255.788 255.319 255.603 255.169C255.418 255.018 255.198 254.917 254.965 254.875C254.708 254.826 254.444 254.826 254.188 254.875C254.117 254.875 254.188 255.019 254.188 255.163L254.682 257.321ZM259.697 254.084C259.909 254.084 259.909 254.299 259.979 254.443L260.12 255.091C259.979 255.235 259.767 255.091 259.767 254.947C259.697 254.731 259.555 254.515 259.344 254.515H258.425C258.284 254.587 258.425 254.803 258.425 254.947C258.425 255.307 258.567 255.666 258.637 255.954C258.849 255.954 259.061 255.954 259.202 255.81C259.344 255.666 259.132 255.379 259.344 255.307C259.626 255.307 259.555 255.666 259.626 255.81L259.838 256.745C259.838 256.961 259.485 256.745 259.485 256.602C259.485 256.386 259.202 256.242 258.99 256.314C258.92 256.314 258.637 256.242 258.779 256.386C258.779 256.745 258.92 257.105 259.061 257.537C259.061 257.753 259.344 257.753 259.555 257.753C259.838 257.753 260.191 257.753 260.403 257.537C260.544 257.393 260.403 257.105 260.544 256.961C260.686 256.817 260.827 257.033 260.827 257.249C260.827 257.465 260.827 257.681 260.968 257.968C260.897 258.112 260.756 258.04 260.615 258.04L258.496 258.184C258.284 258.184 258.072 258.328 257.86 258.184C257.719 258.04 257.931 257.896 258.143 257.896C258.355 257.825 258.284 257.537 258.213 257.393L257.719 255.091C257.648 254.875 257.507 254.587 257.295 254.587C257.083 254.587 256.872 254.515 256.942 254.299H257.648L259.697 254.084ZM264.288 257.033C264.288 257.249 264.5 257.465 264.711 257.537C264.853 257.537 265.135 257.537 265.206 257.681C265.276 257.896 264.923 257.825 264.782 257.825L263.581 257.896C263.369 257.896 263.158 257.968 263.016 257.896C262.804 257.896 262.875 257.609 263.087 257.609C263.299 257.609 263.511 257.537 263.581 257.321L263.511 256.745L263.016 254.731C263.016 254.515 262.804 254.515 262.593 254.515C262.451 254.515 262.169 254.659 262.098 254.443C262.098 254.155 262.451 254.227 262.593 254.155L263.369 253.868C263.511 253.868 263.581 253.94 263.581 254.084L264.288 257.033ZM266.901 254.659C266.901 254.371 266.689 254.084 266.407 254.084C266.195 254.084 265.912 254.084 265.842 254.299C265.771 254.587 265.842 254.875 266.124 255.019L266.76 255.379L266.901 254.947V254.659ZM267.466 256.745C267.466 256.386 267.042 256.17 266.76 256.026C266.618 256.026 266.477 255.882 266.407 255.954C266.297 256.034 266.212 256.144 266.162 256.272C266.112 256.399 266.099 256.539 266.124 256.673C266.265 257.105 266.477 257.393 266.83 257.393C267.113 257.465 267.395 257.393 267.537 257.105V256.745H267.466ZM268.172 256.602C268.172 256.961 268.031 257.321 267.749 257.537C267.395 257.825 266.83 257.825 266.336 257.681C265.912 257.609 265.63 257.249 265.488 256.817C265.488 256.458 265.559 256.098 265.842 255.81C265.912 255.81 266.195 255.738 265.983 255.666C265.63 255.522 265.276 255.235 265.276 254.803C265.135 254.443 265.276 254.084 265.63 253.868C265.942 253.704 266.304 253.664 266.643 253.758C266.983 253.851 267.276 254.07 267.466 254.371C267.607 254.659 267.607 255.019 267.466 255.235L267.042 255.594C267.395 255.594 267.749 255.882 267.89 256.17C268.031 256.242 268.102 256.458 268.102 256.602H268.172ZM270.432 257.033C270.574 257.033 270.786 256.889 270.786 256.745C270.856 256.602 270.786 256.242 270.998 256.314C271.209 256.314 271.139 256.53 271.209 256.745C271.209 257.033 271.209 257.321 270.927 257.537C270.786 257.681 270.574 257.609 270.362 257.609H269.161C269.02 257.609 268.808 257.753 268.667 257.609C268.525 257.465 268.667 257.249 268.667 257.105C268.808 256.602 269.091 256.242 269.373 255.954C269.656 255.738 269.938 255.522 269.938 255.163C269.938 254.875 269.938 254.587 269.797 254.299C269.747 254.218 269.681 254.148 269.604 254.093C269.526 254.038 269.439 253.999 269.347 253.979C269.255 253.959 269.16 253.958 269.067 253.976C268.975 253.994 268.886 254.03 268.808 254.084C268.596 254.155 268.455 254.443 268.596 254.587C268.737 254.731 269.02 254.587 269.091 254.875C269.232 255.019 269.091 255.307 268.879 255.307C268.596 255.307 268.314 255.091 268.172 254.803C268.102 254.443 268.243 254.012 268.596 253.796C268.949 253.58 269.373 253.58 269.797 253.652C270.15 253.796 270.503 254.084 270.644 254.515C270.715 254.803 270.715 255.163 270.574 255.45C270.291 255.954 269.726 256.17 269.373 256.673C269.302 256.745 269.232 256.889 269.302 257.105C269.302 256.889 269.585 256.961 269.656 256.961L270.432 257.033ZM273.187 256.745C273.187 256.889 273.399 257.105 273.611 257.177C273.752 257.177 274.035 257.177 274.105 257.321C274.247 257.537 273.893 257.537 273.752 257.537H271.845C271.704 257.465 271.845 257.177 271.986 257.249C272.198 257.249 272.41 257.177 272.481 256.961V256.386L271.986 254.371C271.986 254.156 271.774 254.155 271.633 254.155C271.421 254.155 271.209 254.299 271.139 254.155C270.998 253.868 271.351 253.868 271.492 253.796L272.339 253.508C272.551 253.508 272.551 253.58 272.622 253.724L273.187 256.745Z" fill="#B07E09"/>
<path d="M253.058 198.041L250.374 201.35C249.526 205.091 251.645 207.969 255.812 210.415C259.132 212.573 265.347 213.077 267.325 211.35L257.648 201.998L253.058 198.041Z" fill="url(#paint9_radial_2_4393)" stroke="#4C0505" stroke-width="0.142566"/>
<path d="M272.693 295.09L271.28 293.292C265.141 301.779 257.259 308.8 248.184 313.867C258.849 310.846 265.842 302.932 272.693 295.09ZM261.745 320.774C265.719 312.854 270.007 305.102 274.6 297.537L273.116 295.594C267.89 304.371 261.816 314.803 261.816 320.774H261.745ZM291.268 238.4C290.598 235.178 289.58 232.041 288.231 229.048C280.659 216.044 270.027 205.166 257.295 197.393V197.177H257.578L257.507 197.106H257.79L257.648 196.89H257.931L257.719 196.602H258.002L257.79 196.386H258.143L257.931 196.098H258.214L257.931 195.882L258.355 195.811L258.002 195.595L258.355 195.523L258.072 195.307L258.496 195.163L258.143 194.947L258.567 194.731L258.143 194.444L258.637 194.3L258.072 194.084L258.567 193.796H258.002L258.355 193.293H257.86L258.072 192.933H257.648L257.86 192.573L257.366 192.645L257.578 192.213L257.154 192.501L257.295 191.998L256.801 192.285L256.872 191.782L256.448 192.142L256.518 191.638L256.165 191.998V191.494L255.812 191.926V191.422L255.53 191.782L255.388 191.35L255.106 191.782L255.035 191.278L254.823 191.782L254.682 191.278L254.47 191.782L254.329 191.35L254.188 191.782L254.046 191.35L253.905 191.926L253.764 191.422L253.552 191.998L253.34 191.494V192.07L253.058 191.566V192.142L252.704 191.71V192.285L252.422 191.854V192.357L252.139 192.142L252.281 192.645L251.927 192.429L252.069 192.861L251.786 192.717L251.857 193.149H251.574L251.716 193.436H251.504L251.645 193.724C251.389 194.536 251.293 195.392 251.362 196.242C251.362 196.386 251.786 196.53 251.857 196.674C252.069 196.962 251.998 197.106 251.998 197.106C250.868 198.976 249.879 200.415 249.809 202.573C250.656 201.422 251.645 199.983 252.916 199.983C252.281 201.062 251.998 204.372 252.704 204.875L253.269 203.94C253.269 204.659 253.34 205.235 253.552 205.595C253.764 205.163 253.976 204.659 254.258 204.372C254.258 205.451 254.4 206.314 254.682 206.746C255.035 206.17 255.388 205.882 255.812 205.595C255.671 206.242 255.459 206.818 255.6 207.537C256.024 206.818 256.448 206.314 256.942 205.739C256.66 206.89 256.942 207.753 257.225 208.976C257.507 207.537 257.649 207.321 258.284 206.746C258.355 208.113 258.143 209.336 258.425 210.127C258.99 208.904 259.414 209.048 259.838 208.257C259.697 209.408 259.485 210.631 259.838 211.638C260.044 210.867 260.521 210.201 261.18 209.767C261.18 211.35 261.533 211.062 260.615 212.429C261.039 212.573 262.381 212.141 263.158 211.782C262.804 212.645 262.875 213.292 262.522 213.94C263.228 213.508 263.935 212.861 264.57 212.213C264.288 213.221 263.511 214.228 263.864 215.163C264.076 214.228 264.782 213.508 265.488 213.364C265.347 213.868 265.277 214.947 264.57 215.451C266.265 215.595 266.972 214.444 267.819 213.508C267.749 214.444 267.819 215.235 268.949 216.602C268.737 214.875 269.091 215.235 269.867 214.228C270.291 215.738 270.715 217.393 272.269 218.544C271.563 216.89 271.563 216.026 271.845 215.019C272.057 216.098 273.046 217.393 273.258 218.328C273.47 217.249 273.611 216.17 273.964 215.451C274.483 216.738 274.816 218.095 274.953 219.479C275.306 218.76 275.589 218.041 275.73 217.321C289.715 232.069 292.822 250.918 277.496 270.846C283.005 267.105 284.417 261.134 287.454 256.026C284.488 262.717 283.217 270.199 277.919 275.738C283.005 271.278 284.064 267.177 287.101 262.86C283.923 271.853 279.332 281.709 273.116 290.774L276.507 294.515L279.332 289.551C285.971 278.472 296.778 262.573 291.339 238.4H291.268Z" fill="#448127" stroke="#34541F" stroke-width="0.142566"/>
<path d="M251.221 195.091C250.515 195.235 250.232 195.523 249.667 196.098C250.374 196.242 250.868 196.314 251.504 196.314C251.645 196.314 251.716 196.026 251.716 195.882L251.574 195.163C251.574 195.019 251.15 195.091 251.009 195.163L251.221 195.091Z" fill="#EAC102" stroke="#A08307" stroke-width="0.142566"/>
<path d="M249.667 196.098C250.17 195.918 250.691 195.798 251.221 195.739C250.718 195.919 250.197 196.04 249.667 196.098Z" fill="#A08307"/>
<path d="M254.4 195.739C254.712 195.739 254.965 195.481 254.965 195.163C254.965 194.845 254.712 194.588 254.4 194.588C254.087 194.588 253.834 194.845 253.834 195.163C253.834 195.481 254.087 195.739 254.4 195.739Z" fill="black" stroke="black" stroke-width="0.071283"/>
<path d="M254.541 195.379C254.658 195.379 254.753 195.25 254.753 195.091C254.753 194.932 254.658 194.803 254.541 194.803C254.424 194.803 254.329 194.932 254.329 195.091C254.329 195.25 254.424 195.379 254.541 195.379Z" fill="url(#paint10_radial_2_4393)"/>
<path d="M261.816 320.558C263.096 316.247 264.85 312.096 267.042 308.184C268.612 305.199 270.284 302.272 272.057 299.407L273.893 296.529L272.128 299.407C270.429 302.327 268.781 305.277 267.184 308.256C265.117 312.201 263.324 316.287 261.816 320.486V320.558ZM248.467 313.723C256.719 310.068 263.934 304.352 269.444 297.105C266.661 299.79 264.021 302.624 261.533 305.594C257.618 308.979 253.21 311.721 248.467 313.723ZM274.812 292.644C275.377 291.925 275.871 291.062 276.365 290.27C277.882 287.888 279.296 285.44 280.603 282.932C281.592 281.278 282.44 279.551 283.287 277.896L285.9 272.86L284.7 275.378L283.428 277.968C281.716 281.334 279.903 284.645 277.99 287.896C276.997 289.524 275.937 291.108 274.812 292.644ZM278.979 274.587C281.401 271.667 283.421 268.423 284.982 264.947C287.278 259.706 288.71 254.115 289.22 248.4C289.162 249.358 289.138 250.318 289.149 251.278C288.555 256.038 287.17 260.66 285.053 264.947C283.458 268.421 281.416 271.663 278.979 274.587Z" fill="#34541F"/>
<path d="M277.849 270.414C280.319 267.74 282.39 264.71 283.993 261.422C285.175 258.968 286.213 256.446 287.101 253.868L287.313 253.22L287.525 252.573L287.949 251.278C288.672 247.626 288.72 243.869 288.09 240.199C288.134 242.054 288.299 243.905 288.584 245.738C288.584 247.609 288.443 249.479 288.09 251.278C287.878 251.709 287.807 252.213 287.666 252.645L287.454 253.292L287.172 253.94C286.199 256.508 285.162 259.05 284.064 261.566C283.285 263.213 282.388 264.8 281.38 266.314C280.352 267.828 279.168 269.227 277.849 270.486V270.414Z" fill="#34541F"/>
<path d="M273.681 291.421C274.6 290.27 275.377 289.047 276.224 287.824L277.495 286.026L278.696 284.227L280.815 280.342L282.651 276.386C283.923 273.724 285.123 271.062 286.183 268.256C288.295 262.781 289.558 257.005 289.926 251.134C290.521 245.264 289.896 239.332 288.09 233.724C290.083 239.288 290.76 245.253 290.068 251.134C289.693 257.027 288.431 262.826 286.324 268.328C285.265 271.062 284.064 273.724 282.793 276.386L280.815 280.342C280.179 281.709 279.544 283.004 278.767 284.227C278.414 284.947 277.99 285.45 277.566 286.098L276.295 287.896L273.752 291.493L273.681 291.421Z" fill="#34541F"/>
<path d="M275.659 293.652C278.982 288.116 282.138 282.477 285.123 276.745C289.437 268.01 291.549 258.318 291.268 248.544C291.268 245.307 290.986 242.069 290.421 238.904C290.444 238.904 290.468 238.904 290.491 238.904C291.127 242.069 291.339 245.379 291.339 248.544C291.322 255.033 290.467 261.491 288.796 267.753C287.867 270.868 286.686 273.9 285.265 276.817C282.255 282.526 279.075 288.14 275.73 293.652H275.659ZM256.024 199.048H257.013C258.019 199.209 258.995 199.524 259.909 199.983C262.268 201.261 264.413 202.913 266.265 204.875C264.389 202.981 262.246 201.381 259.909 200.127C258.674 199.57 257.365 199.207 256.024 199.048Z" fill="#34541F"/>
<path d="M267.607 206.818C267.607 206.818 269.726 208.113 270.927 209.983C270.927 209.983 267.607 209.336 265.277 206.674" fill="#448127"/>
<path d="M267.607 206.818C268.96 207.595 270.12 208.678 270.998 209.983L271.068 210.127H270.927C269.828 209.872 268.778 209.435 267.819 208.832C266.83 208.256 265.983 207.537 265.206 206.674C266.367 207.904 267.794 208.84 269.373 209.408L270.927 209.911V210.055C270.501 209.379 269.977 208.773 269.373 208.256C268.828 207.724 268.237 207.242 267.607 206.818Z" fill="#34541F"/>
<path d="M262.804 206.17C262.804 206.17 267.89 209.479 268.667 209.767C268.667 209.767 267.466 207.249 265.065 206.17" fill="#448127"/>
<path d="M262.804 206.17L265.7 207.969C266.425 208.409 267.155 208.841 267.89 209.264L268.596 209.695V209.767C268.22 208.992 267.719 208.287 267.113 207.681C266.518 207.064 265.826 206.553 265.065 206.17C265.865 206.488 266.588 206.979 267.183 207.609C267.793 208.239 268.294 208.969 268.667 209.767L268.808 209.911L268.596 209.839L267.113 208.976C265.655 208.052 264.218 207.092 262.804 206.098V206.17Z" fill="#34541F"/>
<path d="M264.853 204.516C264.853 204.516 267.466 205.667 268.102 207.609C268.102 207.609 263.299 205.595 262.451 204.516" fill="#448127"/>
<path d="M264.853 204.516C265.565 204.795 266.232 205.183 266.83 205.667L267.607 206.53L268.172 207.609V207.753H268.031C266.34 206.952 264.689 206.064 263.087 205.091L262.451 204.516L263.087 205.019L263.793 205.451C265.159 206.307 266.602 207.03 268.102 207.609H268.031C267.89 207.321 267.749 206.89 267.466 206.674C267.289 206.342 267.049 206.048 266.76 205.81C266.192 205.283 265.549 204.847 264.853 204.516Z" fill="#34541F"/>
<path d="M260.827 206.602C260.827 206.602 265.488 209.983 266.901 209.983C266.901 209.983 265.488 207.609 263.087 206.602" fill="#448127"/>
<path d="M260.827 206.602C262.534 207.694 264.277 208.726 266.054 209.695L266.901 209.911L266.83 210.055C266.389 209.306 265.841 208.627 265.206 208.041C264.569 207.463 263.856 206.979 263.087 206.602C264.3 207.084 265.371 207.877 266.195 208.904L266.901 209.983L267.042 210.055H266.901C266.548 210.055 266.265 209.983 265.983 209.839L265.277 209.48C263.692 208.693 262.2 207.728 260.827 206.602Z" fill="#34541F"/>
<path d="M260.827 207.609C260.827 207.609 263.228 209.767 264.641 209.767C264.641 209.767 263.228 207.393 260.827 206.314" fill="#448127"/>
<path d="M260.827 207.609C261.724 208.279 262.668 208.88 263.652 209.408L264.076 209.551L264.641 209.695L264.57 209.767C264.123 209.044 263.576 208.39 262.946 207.825C262.309 207.247 261.595 206.763 260.827 206.386C262.032 206.848 263.102 207.615 263.935 208.616L264.641 209.695L264.782 209.839H264.641C264.249 209.824 263.864 209.726 263.511 209.551C262.847 209.23 262.229 208.819 261.674 208.328C261.348 208.148 261.06 207.903 260.827 207.609Z" fill="#34541F"/>
<path d="M259.556 202.933C259.556 202.933 264.641 206.602 265.206 208.616C265.206 208.616 260.686 206.458 259.838 205.379" fill="#448127"/>
<path d="M259.556 202.933C261.468 204.337 263.242 205.927 264.853 207.681L265.347 208.544V208.76L265.206 208.688C263.561 207.834 261.958 206.897 260.403 205.882L261.109 206.314C262.456 207.162 263.874 207.884 265.347 208.472L265.206 208.616L264.712 207.753C263.681 206.413 262.495 205.205 261.18 204.156L259.556 202.933Z" fill="#34541F"/>
<path d="M231.304 306.601C226.862 308.968 221.907 310.156 216.895 310.054C223.958 304.155 230.809 304.011 231.304 306.601ZM280.603 309.839C284.276 313.22 295.436 315.594 297.201 315.162C289.715 307.465 281.592 306.673 280.603 309.839Z" fill="#406325" stroke="#24420E" stroke-width="0.142566"/>
<path d="M231.304 306.601C230.809 303.939 223.887 304.155 216.895 310.054C221.499 308.169 226.357 307.005 231.304 306.601ZM280.674 309.767C281.663 306.601 289.715 307.393 297.201 315.162C291.982 312.548 286.413 310.73 280.674 309.767Z" fill="#67923D" stroke="#24420E" stroke-width="0.142566"/>
</g>
<defs>
<radialGradient id="paint0_radial_2_4393" cx="0" cy="0" r="1" gradientUnits="userSpaceOnUse" gradientTransform="translate(232.999 261.997) scale(11.654 11.8704)">
<stop offset="0.2" stop-color="#F9F0AA"/>
<stop offset="1" stop-color="#B07E09"/>
</radialGradient>
<radialGradient id="paint1_radial_2_4393" cx="0" cy="0" r="1" gradientUnits="userSpaceOnUse" gradientTransform="translate(235.965 265.378) scale(7.69867 7.84166)">
<stop offset="0.2" stop-color="#F9F0AA"/>
<stop offset="1" stop-color="#B07E09"/>
</radialGradient>
<radialGradient id="paint2_radial_2_4393" cx="0" cy="0" r="1" gradientUnits="userSpaceOnUse" gradientTransform="translate(237.731 262.213) scale(6.92175 7.05032)">
<stop offset="0.2" stop-color="#F9F0AA"/>
<stop offset="1" stop-color="#B07E09"/>
</radialGradient>
<radialGradient id="paint3_radial_2_4393" cx="0" cy="0" r="1" gradientUnits="userSpaceOnUse" gradientTransform="translate(240.768 261.134) scale(12.2896 12.5179)">
<stop offset="0.2" stop-color="#F9F0AA"/>
<stop offset="1" stop-color="#B07E09"/>
</radialGradient>
<linearGradient id="paint4_linear_2_4393" x1="251.716" y1="226.674" x2="250.616" y2="207.108" gradientUnits="userSpaceOnUse">
<stop offset="0.2" stop-color="#B07E09" stop-opacity="0"/>
<stop offset="1" stop-color="#B07E09"/>
</linearGradient>
<linearGradient id="paint5_linear_2_4393" x1="258.213" y1="253.652" x2="259.972" y2="275.157" gradientUnits="userSpaceOnUse">
<stop offset="0.2" stop-color="#B07E09" stop-opacity="0"/>
<stop offset="1" stop-color="#B07E09"/>
</linearGradient>
<radialGradient id="paint6_radial_2_4393" cx="0" cy="0" r="1" gradientUnits="userSpaceOnUse" gradientTransform="translate(232.01 221.782) scale(9.18192 9.35246)">
<stop offset="0.2" stop-color="#F9F0AA"/>
<stop offset="1" stop-color="#B07E09"/>
</radialGradient>
<linearGradient id="paint7_linear_2_4393" x1="235.894" y1="219.695" x2="238.735" y2="213.331" gradientUnits="userSpaceOnUse">
<stop offset="0.2" stop-color="#F9F0AA"/>
<stop offset="1" stop-color="#B07E09"/>
</linearGradient>
<linearGradient id="paint8_linear_2_4393" x1="251.292" y1="210.846" x2="253.197" y2="234.726" gradientUnits="userSpaceOnUse">
<stop offset="0.2" stop-color="#F9F0AA"/>
<stop offset="1" stop-color="#B07E09"/>
</linearGradient>
<radialGradient id="paint9_radial_2_4393" cx="0" cy="0" r="1" gradientUnits="userSpaceOnUse" gradientTransform="translate(254.541 195.091) scale(0.21189 0.215826)">
<stop offset="0.3" stop-color="#A50A0A"/>
<stop offset="1" stop-color="#4C0505"/>
</radialGradient>
<radialGradient id="paint10_radial_2_4393" cx="0" cy="0" r="1" gradientUnits="userSpaceOnUse" gradientTransform="translate(254.53 195.043) scale(0.207033 0.22089)">
<stop stop-color="white"/>
<stop offset="1" stop-color="white" stop-opacity="0"/>
</radialGradient>
<clipPath id="clip0_2_4393">
<rect width="512" height="512" fill="white"/>
</clipPath>
</defs>
</svg>
