<svg width="512" height="512" viewBox="0 0 512 512" fill="none" xmlns="http://www.w3.org/2000/svg">
<g clip-path="url(#clip0_2_4560)">
<path fill-rule="evenodd" clip-rule="evenodd" d="M0 0H512V512H0V0Z" fill="#BE0027"/>
<path fill-rule="evenodd" clip-rule="evenodd" d="M20.5 20.5H490.5V491.5H20.5V20.5Z" fill="#3B5AA3"/>
<path fill-rule="evenodd" clip-rule="evenodd" d="M251.9 396.1C253.7 397.1 256.6 397.1 258.2 396.2C361.5 341.2 361.6 190.4 258.3 136.2C257.265 135.712 256.132 135.468 254.988 135.485C253.844 135.502 252.72 135.781 251.7 136.3C151 191.4 150.7 340.5 251.9 396.1Z" fill="#CBE0E5"/>
<path fill-rule="evenodd" clip-rule="evenodd" d="M251.9 398.9C253.5 400.2 256.7 400 258.2 398.9C334.3 341.9 334.8 306.4 331.4 306.4H180.7C178.4 306.4 182 342.5 251.9 398.8V398.9Z" fill="#ADD2D9"/>
<path fill-rule="evenodd" clip-rule="evenodd" d="M192.6 334.6C199.489 332.444 206.931 332.907 213.5 335.9C219.2 338.9 222.5 338.9 228.6 338.9C235.1 339 240.1 343.8 247.1 343.9C259.9 344.3 265.4 350.6 255.4 350.7C250.7 350.7 240.6 347.5 235.7 348.2C225.5 349.2 219 351.5 209.4 362.2L220.5 369.8C230.1 365.8 231.7 361.5 237 361.3C243 361.1 245 357.3 252 357.3C259.9 358.8 270.5 356.3 276.8 355C287.9 352.4 282.6 344.7 275.9 341.8C270.5 339.5 260.3 341.8 253.9 339.5C249.2 337.6 253.1 334.6 255.7 334C258.3 333.5 261.1 334.4 264.3 334.9C270.1 335.4 277.3 334.9 282.3 334C292.8 332.4 292.3 329.3 297.4 329.3C300.645 329.204 303.784 328.122 306.4 326.2C309.4 324.2 312.4 320.2 316 320.3L325.6 320.7L312 351L274 389.8L254.2 397.3L211 369L189 335.5L192.6 334.6Z" fill="#FDF9A1"/>
<path fill-rule="evenodd" clip-rule="evenodd" d="M242.4 305.1L329.4 304.7L331 297L325.4 296.4C322.2 296.2 316.9 299.7 313.3 299.7C310.7 299.7 307.8 295.1 305.3 295.2C300.9 295.2 300.5 299.2 296.3 299.2C292.9 299.2 291.5 296.6 287.1 296.8C282.5 297.1 282.9 299.6 277.1 299.5C269.4 299.3 266.4 292.6 260.3 292.5C250 292.5 249.7 302.3 242.4 305.1Z" fill="#179A3B"/>
<path fill-rule="evenodd" clip-rule="evenodd" d="M242.4 307L332 306.5V304.1L240.4 304.6L242.4 307Z" fill="#FDF9A1"/>
<path fill-rule="evenodd" clip-rule="evenodd" d="M279.2 334C280.6 339.2 282.1 341 287.6 342.4C293.1 343.7 301.5 338.4 296.3 333.2C291.3 328.4 286.1 327.2 281.7 322.8C272.3 313.6 258.2 290.9 258.2 275C258.2 261.2 256.9 233.1 256.9 206.5C256.9 204.7 251.7 211.3 251.7 213C251.9 236.6 251.9 254.3 252.8 278C254.3 295.4 262.6 307 269.8 317.6C273.1 322.6 277.8 328.1 279.2 333.9V334Z" fill="#A79270"/>
<path d="M223.782 261.1C223.582 260.488 223.318 259.939 222.991 259.455C222.67 258.964 222.285 258.545 221.836 258.2C221.394 257.855 220.891 257.591 220.327 257.409C219.764 257.227 219.146 257.136 218.473 257.136C217.37 257.136 216.367 257.421 215.464 257.991C214.561 258.561 213.842 259.4 213.309 260.509C212.776 261.618 212.509 262.979 212.509 264.591C212.509 266.203 212.779 267.564 213.318 268.673C213.858 269.782 214.588 270.621 215.509 271.191C216.43 271.761 217.467 272.045 218.618 272.045C219.685 272.045 220.624 271.818 221.436 271.364C222.255 270.903 222.891 270.255 223.346 269.418C223.806 268.576 224.036 267.585 224.036 266.445L224.727 266.591H219.127V264.591H226.218V266.591C226.218 268.124 225.891 269.458 225.236 270.591C224.588 271.724 223.691 272.603 222.546 273.227C221.406 273.845 220.097 274.155 218.618 274.155C216.97 274.155 215.521 273.767 214.273 272.991C213.03 272.215 212.061 271.112 211.364 269.682C210.673 268.252 210.327 266.555 210.327 264.591C210.327 263.118 210.524 261.794 210.918 260.618C211.318 259.436 211.882 258.43 212.609 257.6C213.336 256.77 214.197 256.133 215.191 255.691C216.185 255.248 217.279 255.027 218.473 255.027C219.455 255.027 220.37 255.176 221.218 255.473C222.073 255.764 222.833 256.179 223.5 256.718C224.173 257.252 224.733 257.891 225.182 258.636C225.63 259.376 225.939 260.197 226.109 261.1H223.782Z" fill="#BD0728"/>
<path d="M223.782 261.1L223.021 261.348L223.202 261.9H223.782V261.1ZM222.991 259.455L222.321 259.893L222.328 259.902L222.991 259.455ZM221.836 258.2L221.344 258.831L221.348 258.834L221.836 258.2ZM220.327 257.409L220.573 256.648L220.573 256.648L220.327 257.409ZM213.309 260.509L214.03 260.856L214.03 260.856L213.309 260.509ZM213.318 268.673L212.599 269.023L212.599 269.023L213.318 268.673ZM215.509 271.191L215.088 271.871L215.509 271.191ZM221.436 271.364L221.827 272.062L221.829 272.061L221.436 271.364ZM223.346 269.418L222.644 269.034L222.643 269.036L223.346 269.418ZM224.036 266.445L224.201 265.663L223.236 265.459V266.445H224.036ZM224.727 266.591V267.391L224.892 265.808L224.727 266.591ZM219.127 266.591H218.327V267.391H219.127V266.591ZM219.127 264.591V263.791H218.327V264.591H219.127ZM226.218 264.591H227.018V263.791H226.218V264.591ZM225.236 270.591L224.544 270.191L224.542 270.194L225.236 270.591ZM222.546 273.227L222.927 273.93L222.928 273.93L222.546 273.227ZM214.273 272.991L213.849 273.669L213.851 273.67L214.273 272.991ZM211.364 269.682L210.643 270.03L210.645 270.032L211.364 269.682ZM210.918 260.618L210.16 260.362L210.16 260.364L210.918 260.618ZM212.609 257.6L213.211 258.127L213.211 258.127L212.609 257.6ZM215.191 255.691L214.866 254.96L215.191 255.691ZM221.218 255.473L220.954 256.228L220.96 256.23L221.218 255.473ZM223.5 256.718L222.997 257.34L223.003 257.345L223.5 256.718ZM225.182 258.636L224.496 259.049L224.498 259.051L225.182 258.636ZM226.109 261.1V261.9H227.073L226.895 260.952L226.109 261.1ZM224.542 260.852C224.322 260.176 224.027 259.559 223.654 259.007L222.328 259.902C222.61 260.32 222.842 260.8 223.021 261.348L224.542 260.852ZM223.66 259.017C223.292 258.453 222.847 257.968 222.325 257.566L221.348 258.834C221.723 259.123 222.048 259.474 222.322 259.893L223.66 259.017ZM222.329 257.569C221.808 257.163 221.221 256.857 220.573 256.648L220.082 258.17C220.561 258.325 220.98 258.546 221.344 258.831L222.329 257.569ZM220.573 256.648C219.92 256.437 219.218 256.336 218.473 256.336V257.936C219.073 257.936 219.607 258.017 220.082 258.17L220.573 256.648ZM218.473 256.336C217.224 256.336 216.072 256.661 215.037 257.314L215.891 258.668C216.661 258.181 217.516 257.936 218.473 257.936V256.336ZM215.037 257.314C213.988 257.976 213.176 258.939 212.588 260.162L214.03 260.856C214.508 259.861 215.133 259.145 215.891 258.668L215.037 257.314ZM212.588 260.162C211.989 261.408 211.709 262.894 211.709 264.591H213.309C213.309 263.063 213.562 261.829 214.03 260.856L212.588 260.162ZM211.709 264.591C211.709 266.288 211.993 267.776 212.599 269.023L214.038 268.323C213.565 267.351 213.309 266.118 213.309 264.591H211.709ZM212.599 269.023C213.195 270.249 214.021 271.211 215.088 271.871L215.93 270.51C215.155 270.031 214.52 269.315 214.038 268.323L212.599 269.023ZM215.088 271.871C216.144 272.524 217.328 272.845 218.618 272.845V271.245C217.606 271.245 216.717 270.997 215.93 270.51L215.088 271.871ZM218.618 272.845C219.801 272.845 220.879 272.592 221.827 272.062L221.046 270.666C220.369 271.044 219.568 271.245 218.618 271.245V272.845ZM221.829 272.061C222.78 271.525 223.523 270.767 224.048 269.8L222.643 269.036C222.259 269.742 221.729 270.281 221.044 270.667L221.829 272.061ZM224.047 269.802C224.583 268.822 224.836 267.694 224.836 266.445H223.236C223.236 267.476 223.029 268.33 222.644 269.034L224.047 269.802ZM223.872 267.228L224.563 267.374L224.892 265.808L224.201 265.663L223.872 267.228ZM224.727 265.791H219.127V267.391H224.727V265.791ZM219.927 266.591V264.591H218.327V266.591H219.927ZM219.127 265.391H226.218V263.791H219.127V265.391ZM225.418 264.591V266.591H227.018V264.591H225.418ZM225.418 266.591C225.418 268.008 225.117 269.199 224.544 270.191L225.929 270.991C226.665 269.717 227.018 268.24 227.018 266.591H225.418ZM224.542 270.194C223.967 271.198 223.178 271.972 222.163 272.525L222.928 273.93C224.204 273.235 225.209 272.25 225.931 270.988L224.542 270.194ZM222.164 272.524C221.157 273.07 219.983 273.355 218.618 273.355V274.955C220.211 274.955 221.655 274.621 222.927 273.93L222.164 272.524ZM218.618 273.355C217.1 273.355 215.802 272.999 214.695 272.311L213.851 273.67C215.241 274.534 216.839 274.955 218.618 274.955V273.355ZM214.696 272.312C213.592 271.623 212.72 270.639 212.083 269.331L210.645 270.032C211.401 271.585 212.468 272.807 213.849 273.669L214.696 272.312ZM212.084 269.334C211.456 268.035 211.127 266.462 211.127 264.591H209.527C209.527 266.647 209.889 268.468 210.643 270.03L212.084 269.334ZM211.127 264.591C211.127 263.189 211.315 261.952 211.677 260.872L210.16 260.364C209.734 261.635 209.527 263.048 209.527 264.591H211.127ZM211.676 260.875C212.047 259.779 212.561 258.869 213.211 258.127L212.007 257.073C211.202 257.992 210.59 259.093 210.16 260.362L211.676 260.875ZM213.211 258.127C213.863 257.383 214.63 256.816 215.516 256.422L214.866 254.96C213.764 255.45 212.81 256.157 212.007 257.073L213.211 258.127ZM215.516 256.422C216.398 256.029 217.38 255.827 218.473 255.827V254.227C217.178 254.227 215.972 254.468 214.866 254.96L215.516 256.422ZM218.473 255.827C219.373 255.827 220.198 255.963 220.954 256.228L221.483 254.718C220.542 254.388 219.536 254.227 218.473 254.227V255.827ZM220.96 256.23C221.731 256.492 222.407 256.863 222.997 257.34L224.003 256.096C223.26 255.495 222.415 255.035 221.476 254.715L220.96 256.23ZM223.003 257.345C223.6 257.818 224.097 258.384 224.496 259.049L225.867 258.224C225.37 257.397 224.746 256.685 223.997 256.091L223.003 257.345ZM224.498 259.051C224.893 259.703 225.17 260.433 225.323 261.248L226.895 260.952C226.709 259.961 226.367 259.048 225.866 258.221L224.498 259.051ZM226.109 260.3H223.782V261.9H226.109V260.3Z" fill="white"/>
<path d="M246.273 255.382H248.527V267.709C248.527 268.982 248.227 270.118 247.627 271.118C247.033 272.112 246.194 272.897 245.109 273.473C244.024 274.042 242.752 274.327 241.291 274.327C239.83 274.327 238.558 274.042 237.473 273.473C236.388 272.897 235.546 272.112 234.946 271.118C234.352 270.118 234.055 268.982 234.055 267.709V255.382H236.309V267.527C236.309 268.436 236.509 269.245 236.909 269.955C237.309 270.658 237.879 271.212 238.618 271.618C239.364 272.018 240.255 272.218 241.291 272.218C242.327 272.218 243.218 272.018 243.964 271.618C244.709 271.212 245.279 270.658 245.673 269.955C246.073 269.245 246.273 268.436 246.273 267.527V255.382Z" fill="#BD0728"/>
<path d="M246.273 255.382V254.582H245.473V255.382H246.273ZM248.527 255.382H249.327V254.582H248.527V255.382ZM247.627 271.118L246.941 270.707L246.941 270.708L247.627 271.118ZM245.109 273.473L245.481 274.181L245.484 274.179L245.109 273.473ZM237.473 273.473L237.098 274.179L237.101 274.181L237.473 273.473ZM234.946 271.118L234.258 271.527L234.261 271.532L234.946 271.118ZM234.055 255.382V254.582H233.255V255.382H234.055ZM236.309 255.382H237.109V254.582H236.309V255.382ZM236.909 269.955L236.212 270.348L236.214 270.35L236.909 269.955ZM238.618 271.618L238.233 272.319L238.24 272.323L238.618 271.618ZM243.964 271.618L244.342 272.323L244.346 272.321L243.964 271.618ZM245.673 269.955L244.976 269.561L244.975 269.563L245.673 269.955ZM246.273 256.182H248.527V254.582H246.273V256.182ZM247.727 255.382V267.709H249.327V255.382H247.727ZM247.727 267.709C247.727 268.851 247.46 269.842 246.941 270.707L248.313 271.53C248.995 270.394 249.327 269.113 249.327 267.709H247.727ZM246.941 270.708C246.426 271.569 245.698 272.254 244.734 272.766L245.484 274.179C246.69 273.539 247.641 272.656 248.314 271.529L246.941 270.708ZM244.737 272.764C243.787 273.263 242.647 273.527 241.291 273.527V275.127C242.856 275.127 244.261 274.821 245.481 274.181L244.737 272.764ZM241.291 273.527C239.935 273.527 238.795 273.263 237.845 272.764L237.101 274.181C238.32 274.821 239.726 275.127 241.291 275.127V273.527ZM237.848 272.766C236.883 272.254 236.151 271.567 235.63 270.705L234.261 271.532C234.94 272.657 235.893 273.54 237.098 274.179L237.848 272.766ZM235.633 270.71C235.12 269.845 234.855 268.852 234.855 267.709H233.255C233.255 269.112 233.583 270.392 234.258 271.527L235.633 270.71ZM234.855 267.709V255.382H233.255V267.709H234.855ZM234.055 256.182H236.309V254.582H234.055V256.182ZM235.509 255.382V267.527H237.109V255.382H235.509ZM235.509 267.527C235.509 268.558 235.737 269.505 236.212 270.348L237.606 269.561C237.281 268.986 237.109 268.315 237.109 267.527H235.509ZM236.214 270.35C236.69 271.187 237.37 271.845 238.233 272.319L239.003 270.917C238.388 270.579 237.928 270.128 237.604 269.559L236.214 270.35ZM238.24 272.323C239.125 272.798 240.152 273.018 241.291 273.018V271.418C240.357 271.418 239.602 271.238 238.996 270.913L238.24 272.323ZM241.291 273.018C242.43 273.018 243.457 272.798 244.342 272.323L243.585 270.913C242.98 271.238 242.225 271.418 241.291 271.418V273.018ZM244.346 272.321C245.217 271.847 245.899 271.187 246.371 270.346L244.975 269.563C244.659 270.128 244.202 270.578 243.581 270.916L244.346 272.321ZM246.37 270.348C246.845 269.505 247.073 268.558 247.073 267.527H245.473C245.473 268.315 245.301 268.986 244.976 269.561L246.37 270.348ZM247.073 267.527V255.382H245.473V267.527H247.073Z" fill="white"/>
<path d="M262.718 274H260.354L267.191 255.382H269.518L276.354 274H273.991L268.427 258.327H268.282L262.718 274ZM263.591 266.727H273.118V268.727H263.591V266.727Z" fill="#BD0728"/>
<path d="M262.718 274V274.8H263.283L263.472 274.268L262.718 274ZM260.354 274L259.604 273.724L259.209 274.8H260.354V274ZM267.191 255.382V254.582H266.632L266.44 255.106L267.191 255.382ZM269.518 255.382L270.269 255.106L270.077 254.582H269.518V255.382ZM276.354 274V274.8H277.5L277.105 273.724L276.354 274ZM273.991 274L273.237 274.268L273.426 274.8H273.991V274ZM268.427 258.327L269.181 258.06L268.992 257.527H268.427V258.327ZM268.282 258.327V257.527H267.717L267.528 258.06L268.282 258.327ZM263.591 266.727V265.927H262.791V266.727H263.591ZM273.118 266.727H273.918V265.927H273.118V266.727ZM273.118 268.727V269.527H273.918V268.727H273.118ZM263.591 268.727H262.791V269.527H263.591V268.727ZM262.718 273.2H260.354V274.8H262.718V273.2ZM261.105 274.276L267.942 255.658L266.44 255.106L259.604 273.724L261.105 274.276ZM267.191 256.182H269.518V254.582H267.191V256.182ZM268.767 255.658L275.604 274.276L277.105 273.724L270.269 255.106L268.767 255.658ZM276.354 273.2H273.991V274.8H276.354V273.2ZM274.745 273.732L269.181 258.06L267.673 258.595L273.237 274.268L274.745 273.732ZM268.427 257.527H268.282V259.127H268.427V257.527ZM267.528 258.06L261.964 273.732L263.472 274.268L269.036 258.595L267.528 258.06ZM263.591 267.527H273.118V265.927H263.591V267.527ZM272.318 266.727V268.727H273.918V266.727H272.318ZM273.118 267.927H263.591V269.527H273.118V267.927ZM264.391 268.727V266.727H262.791V268.727H264.391Z" fill="white"/>
<path d="M285.454 255.282H288.145L294.473 270.736H294.691L301.018 255.282H303.709V273.9H301.6V259.755H301.418L295.6 273.9H293.564L287.745 259.755H287.564V273.9H285.454V255.282Z" fill="#BD0728"/>
<path d="M285.454 255.282V254.482H284.654V255.282H285.454ZM288.145 255.282L288.886 254.979L288.682 254.482H288.145V255.282ZM294.473 270.736L293.732 271.039L293.936 271.536H294.473V270.736ZM294.691 270.736V271.536H295.228L295.431 271.039L294.691 270.736ZM301.018 255.282V254.482H300.481L300.278 254.979L301.018 255.282ZM303.709 255.282H304.509V254.482H303.709V255.282ZM303.709 273.9V274.7H304.509V273.9H303.709ZM301.6 273.9H300.8V274.7H301.6V273.9ZM301.6 259.755H302.4V258.955H301.6V259.755ZM301.418 259.755V258.955H300.882L300.678 259.45L301.418 259.755ZM295.6 273.9V274.7H296.136L296.34 274.204L295.6 273.9ZM293.564 273.9L292.824 274.204L293.028 274.7H293.564V273.9ZM287.745 259.755L288.485 259.45L288.281 258.955H287.745V259.755ZM287.564 259.755V258.955H286.764V259.755H287.564ZM287.564 273.9V274.7H288.364V273.9H287.564ZM285.454 273.9H284.654V274.7H285.454V273.9ZM285.454 256.082H288.145V254.482H285.454V256.082ZM287.405 255.585L293.732 271.039L295.213 270.433L288.886 254.979L287.405 255.585ZM294.473 271.536H294.691V269.936H294.473V271.536ZM295.431 271.039L301.758 255.585L300.278 254.979L293.951 270.433L295.431 271.039ZM301.018 256.082H303.709V254.482H301.018V256.082ZM302.909 255.282V273.9H304.509V255.282H302.909ZM303.709 273.1H301.6V274.7H303.709V273.1ZM302.4 273.9V259.755H300.8V273.9H302.4ZM301.6 258.955H301.418V260.555H301.6V258.955ZM300.678 259.45L294.86 273.596L296.34 274.204L302.158 260.059L300.678 259.45ZM295.6 273.1H293.564V274.7H295.6V273.1ZM294.303 273.596L288.485 259.45L287.006 260.059L292.824 274.204L294.303 273.596ZM287.745 258.955H287.564V260.555H287.745V258.955ZM286.764 259.755V273.9H288.364V259.755H286.764ZM287.564 273.1H285.454V274.7H287.564V273.1ZM286.254 273.9V255.282H284.654V273.9H286.254Z" fill="white"/>
<path fill-rule="evenodd" clip-rule="evenodd" d="M211.9 207.3C210.7 209.5 214.6 206.7 215.5 206.3C220.5 204.6 222.5 198.3 231.1 202C237.9 205 247.1 203.3 242.3 206.2C236.3 209.8 224.6 213.7 224.3 231.2C225.3 232.9 225.5 232.6 226.3 230.8C228 226.8 236.6 215.6 240.8 216.6C242.5 217 247.4 211.6 247.6 213.1C248 217.5 240.8 226.3 240.9 238.1C240.9 240.9 244.3 241.8 245.9 239.9C247.5 238.2 248.4 236.4 251.3 234.2C256.3 230.1 254.9 212.7 255.5 213.5C259 218.1 259.5 231 264.9 236.3C269.2 240.7 272.8 238.6 271.9 232.5C269.9 220.2 264.1 223.7 261.4 211C260.8 208.5 260.7 206.3 263.9 207.3C267.9 208.5 270.3 210.3 273.3 214.9C276.3 219.2 281.8 223.3 285.1 225.9C290.7 230.2 292.7 226.4 290 220.9C286.566 214.548 280.956 209.649 274.2 207.1C269.6 205.5 267.9 205.4 263.8 204.6C262.8 204.4 261.5 202 263.5 200.8C267.867 197.653 272.957 195.658 278.3 195C283.3 194.9 287.3 198.9 290.8 200C297.9 201.8 297.8 197.3 294.8 194C292.2 191.2 286.8 186.5 281.8 187C271.6 188.3 272.2 188 266 192.2C263.7 193.5 261.2 195 262.1 193.4C264.4 189.3 262.2 190 265.8 185.8C268.5 182.8 270.5 180.5 273.3 179.8C275.9 179.1 279.3 176.4 280.3 175C282.9 171.5 280.7 169.5 276.8 170.7C273.4 171.7 271.5 173.9 269.2 174.5C263.7 176.2 259.2 188.8 258.6 190.5C257.7 192.7 256.8 191.6 256.9 189.8C257.7 181 258.5 166.1 255.4 160C250.7 151 251.1 155.2 249.3 159.5C247.075 165.912 247.075 172.888 249.3 179.3C250 182.6 252.7 186.3 253.3 189C253.6 191 252 188.3 251.2 187.1C248.2 182.6 246 179.5 241.2 177.1C236.386 175.136 231.105 174.615 226 175.6C224.7 176 227.5 178 228.7 178.9C231.9 181.5 238 182.3 242.1 184.9C245.7 186.9 248.4 188.4 249.5 191.4C250 193.6 250.7 196.9 249.3 196.8C245.4 196.6 239.4 193.3 227.1 194.6C220.8 195.5 215.4 200.9 211.9 207.3Z" fill="#239E46"/>
<path fill-rule="evenodd" clip-rule="evenodd" d="M238.7 319.8H242.3V325.8H238.7V319.8Z" fill="black"/>
<path fill-rule="evenodd" clip-rule="evenodd" d="M221 280.2C235.1 299.8 257.8 311.2 258.3 320.2L214 320C224.1 307.8 230.3 299.5 220.9 280.1L221 280.2Z" fill="#FDF9FF"/>
<path fill-rule="evenodd" clip-rule="evenodd" d="M208.1 320.6C227.4 324.9 250.3 327.2 265 320C265 324.3 260.2 330.4 256.2 330.4H219.3C223.6 329.8 226 328.5 233 328.1L213.4 328.4C211.3 328.4 207.4 322.7 208.1 320.6Z" fill="#A68861"/>
<path fill-rule="evenodd" clip-rule="evenodd" d="M251.7 406C252.764 406.499 253.925 406.758 255.1 406.758C256.275 406.758 257.436 406.499 258.5 406C369.6 346.9 369.7 184.7 258.7 126.4C257.596 125.854 256.382 125.569 255.15 125.569C253.919 125.569 252.704 125.854 251.6 126.4C143.3 185.7 143 346.1 251.7 405.9V406ZM252.3 392.6C253.224 393.029 254.231 393.252 255.25 393.252C256.269 393.252 257.276 393.029 258.2 392.6C351.2 337.9 352.3 193.3 258.3 141.5C256.5 140.2 253.9 140.6 252.1 141.5C163.1 194.2 158.1 332.9 252.3 392.5V392.6Z" fill="#BE0027"/>
<path d="M218.7 255.7C220.433 255.7 221.933 256.033 223.2 256.7C225 257.633 226.1 259.3 226.5 261.7H224.1C223.767 260.367 223.1 259.367 222.1 258.7C221.233 258.1 220.067 257.8 218.6 257.8C216.933 257.8 215.5 258.467 214.3 259.8C213.167 261.067 212.6 262.967 212.6 265.5C212.6 267.633 213.067 269.4 214 270.8C215 272.133 216.567 272.8 218.7 272.8C220.367 272.8 221.733 272.333 222.8 271.4C223.933 270.467 224.5 268.9 224.5 266.7H218.8V264.7H226.8V274.5H225.2L224.6 272.1C223.8 273.033 223.067 273.7 222.4 274.1C221.267 274.7 219.867 275 218.2 275C216.067 275 214.2 274.3 212.6 272.9C210.867 271.1 210 268.667 210 265.6C210 262.533 210.833 260.1 212.5 258.3C214.1 256.567 216.167 255.7 218.7 255.7Z" fill="#BD0728"/>
<path d="M236.5 256.2V267.6C236.5 268.933 236.733 270.033 237.2 270.9C237.933 272.233 239.2 272.9 241 272.9C243.067 272.9 244.5 272.2 245.3 270.8C245.7 270 245.9 268.933 245.9 267.6V256.2H248.4V266.6C248.4 268.8 248.067 270.533 247.4 271.8C246.333 274 244.267 275.1 241.2 275.1C238.067 275.1 235.933 274 234.8 271.8C234.2 270.533 233.9 268.8 233.9 266.6V256.2H236.5Z" fill="#BD0728"/>
<path d="M271.1 267L268.3 259L265.3 267H271.1ZM267 256.2H269.8L276.5 274.6H273.7L271.9 269.1H264.6L262.6 274.6H260.1L267 256.2Z" fill="#BD0728"/>
<path d="M285.1 256.1H288.7L293.9 271.7L299.2 256.1H302.7V274.5H300.3V259L295.1 274.5H292.7L287.4 259V274.5H285.1V256.1Z" fill="#BD0728"/>
</g>
<defs>
<clipPath id="clip0_2_4560">
<rect width="512" height="512" fill="white"/>
</clipPath>
</defs>
</svg>
