<svg width="512" height="512" viewBox="0 0 512 512" fill="none" xmlns="http://www.w3.org/2000/svg">
<g clip-path="url(#clip0_2_4582)">
<path d="M0 0H160V512H0V0Z" fill="#CE1126"/>
<path d="M160 0H512V256H160V0Z" fill="#FCD116"/>
<path d="M160 256H512V512H160V256Z" fill="#009E49"/>
<path d="M79.976 198.976L60.4807 258.976L90.4809 268.724" fill="#000001"/>
<path d="M79.976 198.976L99.4713 258.976L69.4712 268.724" fill="#000001"/>
<path d="M139.976 242.569H76.8883V274.113" fill="#000001"/>
<path d="M139.976 242.569L88.937 279.651L70.3959 254.131" fill="#000001"/>
<path d="M117.058 313.103L97.563 253.103L67.5628 262.851" fill="#000001"/>
<path d="M117.058 313.103L66.019 276.021L84.5601 250.501" fill="#000001"/>
<path d="M42.8938 313.103L93.9331 276.021L75.392 250.501" fill="#000001"/>
<path d="M42.8938 313.103L62.3891 253.103L92.3892 262.851" fill="#000001"/>
<path d="M19.9758 242.569L71.015 279.651L89.5561 254.131" fill="#000001"/>
<path d="M19.9758 242.569H83.0638V274.113" fill="#000001"/>
</g>
<defs>
<clipPath id="clip0_2_4582">
<rect width="512" height="512" fill="white"/>
</clipPath>
</defs>
</svg>
