<svg width="512" height="512" viewBox="0 0 512 512" fill="none" xmlns="http://www.w3.org/2000/svg">
<g clip-path="url(#clip0_2_4609)">
<path d="M0 0H512V512H0" fill="#EC1B2E"/>
<path d="M282.3 119.2C203 114 166.6 218 241.6 256.4C215.6 234 221 201 231.5 184L233.4 185C219.6 208.6 222.2 237.8 244.4 256C231.8 243.8 235 217 256.6 207.2C278.2 197.4 280.2 167.9 273 158.1C263.2 141.033 266.3 128.033 282.3 119.1V119.2ZM243.9 180L239.2 187.4L237.4 178.8L228.8 176.5L236.6 172.2L236 163.2L242.5 169.4L250.8 166.1L247.1 174.1L252.7 181L243.9 180Z" fill="white"/>
<path d="M392.378 248.291C372.818 171.265 262.66 168.784 249.316 251.98C262.585 220.33 295.639 215.268 315.052 220.001L314.688 222.117C287.978 216.285 261.011 227.782 250.562 254.519C258.271 238.766 284.748 233.528 300.743 251.042C316.738 268.556 345.413 261.343 352.508 251.467C365.711 236.872 379.033 235.803 392.473 248.26L392.378 248.291ZM322.688 230.558L314.197 228.375L321.82 224.006L321.35 215.116L327.85 221.205L336.224 217.853L332.336 225.951L338.039 232.825L329.288 231.778L324.456 239.237L322.688 230.558Z" fill="white"/>
<path d="M303.622 392.872C370.833 350.468 339.152 244.935 255.904 257.952C290.105 260.792 305.133 290.663 306.631 310.588L304.506 310.896C301.799 283.692 282.532 261.597 253.874 259.922C271.239 262.386 284.403 285.948 272.688 306.573C260.974 327.197 276.695 352.239 288.281 355.935C306.24 363.982 311.374 376.321 303.68 392.953L303.622 392.872ZM298.95 321.113L298.403 312.364L304.914 318.263L313.224 315.069L309.441 323.133L315.216 330.061L306.314 328.866L301.538 336.414L299.829 327.767L291.243 325.477L298.95 321.113Z" fill="white"/>
<path d="M138.689 353.138C199.788 403.956 290.365 341.214 252.26 266.064C260.128 299.468 236.363 322.992 217.876 330.573L216.926 328.647C241.962 317.666 257.022 292.514 249.76 264.741C252.782 282.018 234.441 301.818 211.206 297.051C187.971 292.283 169.013 314.973 169.078 327.134C166.975 346.701 156.825 355.396 138.63 353.219L138.689 353.138ZM205.493 326.521L213.645 323.297L210.046 331.312L215.651 338.228L206.814 337.122L202.009 344.756L200.395 335.919L191.74 333.71L199.436 329.413L198.961 320.539L205.493 326.521Z" fill="white"/>
<path d="M125.512 183.999C96.061 257.811 183.723 324.567 243.419 265.104C214.081 282.91 184.365 267.577 171.442 252.337L172.98 250.839C191.161 271.257 219.735 277.807 243.904 262.318C228.408 270.531 203.908 259.206 201.263 235.635C198.617 212.064 171.179 201.046 159.634 204.865C140.374 208.911 128.968 201.946 125.416 183.968L125.512 183.999ZM171.47 239.308L177.055 246.065L168.32 245.119L163.475 252.587L161.795 243.84L153.051 241.63L160.956 237.364L160.382 228.45L166.847 234.441L175.14 231.248L171.47 239.308Z" fill="white"/>
</g>
<defs>
<clipPath id="clip0_2_4609">
<rect width="512" height="512" fill="white"/>
</clipPath>
</defs>
</svg>
