<svg width="512" height="512" viewBox="0 0 512 512" fill="none" xmlns="http://www.w3.org/2000/svg">
<g clip-path="url(#clip0_2_4616)">
<path d="M0 0H512V512H0V0Z" fill="#00008B"/>
<path d="M256 0V32L161 128L256 221.5V256H222.5L127 162L34 256H0V222L93 128.5L0 37V0H31L127 94L220 0H256Z" fill="white"/>
<path d="M92 162L97.5 179L21 256H0V254.5L92 162ZM154 156L181 160L256 233.5V256L154 156ZM256 0L160 98L158 76L233 0H256ZM0 0.5L96.5 95L67 91L0 24.5V0.5Z" fill="#FF0000"/>
<path d="M88 0V256H168V0H88ZM0 88V168H256V88H0Z" fill="white"/>
<path d="M0 104V152H256V104H0ZM104 0V256H152V0H104Z" fill="#FF0000"/>
<path d="M202 402.8L156.2 408.2L160.8 454.1L128 421.7L95 453.9L99.9 408L54.1 402.2L93 377.4L69 338L112.6 353L128.4 309.6L143.9 353.1L187.6 338.4L163.3 377.6L202.1 402.7L202 402.8ZM424.7 410.8L404.2 413.4L406.4 433.9L391.6 419.5L376.9 434L378.9 413.5L358.4 411.1L375.7 399.9L364.8 382.4L384.4 388.9L391.3 369.4L398.4 388.8L417.9 382.1L407.2 399.7L424.7 410.8ZM415 293.6L417.7 280.6L407.9 271.6L421.1 270.1L426.6 258L432.1 270.1L445.3 271.6L435.5 280.6L438.2 293.6L426.6 287L415 293.6ZM330.9 233.6L310.6 235.8L312.4 256.1L298 241.6L283.2 255.7L285.6 235.4L265.4 232.7L282.7 221.9L272.2 204.4L291.5 211.2L298.7 192.1L305.4 211.4L324.8 205.1L313.9 222.4L330.9 233.6ZM506.7 200.8L485.8 203.5L488.1 224.4L473 209.7L458 224.5L460.1 203.5L439.2 201.1L456.9 189.6L445.8 171.7L465.8 178.4L472.8 158.6L480 178.4L499.9 171.5L488.9 189.5L506.7 200.8ZM424.6 117.3L403.9 119.6L405.8 140.4L391.1 125.6L376 140L378.4 119.3L357.7 116.5L375.4 105.5L364.7 87.6L384.4 94.5L391.7 75L398.5 94.7L418.3 88.2L407.2 105.8L424.6 117.3Z" fill="white"/>
</g>
<defs>
<clipPath id="clip0_2_4616">
<rect width="512" height="512" fill="white"/>
</clipPath>
</defs>
</svg>
