<svg width="512" height="512" viewBox="0 0 512 512" fill="none" xmlns="http://www.w3.org/2000/svg">
<g clip-path="url(#clip0_2_4623)">
<path d="M0 0H512V512H0V0Z" fill="#18C3DF"/>
<path d="M0 170.7H512V341.3H0V170.7Z" fill="white"/>
<path d="M256 227.556L247.467 256L261.689 258.844L256 227.556Z" fill="#18C3DF"/>
<path d="M256 227.556L264.533 256L250.311 258.844L256 227.556Z" fill="#18C3DF"/>
<path d="M283.052 247.21L253.363 247.884L255.053 262.289L283.052 247.21Z" fill="#18C3DF"/>
<path d="M283.052 247.21L258.637 264.116L251.537 251.469L283.052 247.21Z" fill="#18C3DF"/>
<path d="M228.948 247.21L253.363 264.116L260.463 251.469L228.948 247.21Z" fill="#18C3DF"/>
<path d="M228.948 247.21L258.637 247.884L256.947 262.289L228.948 247.21Z" fill="#18C3DF"/>
<path d="M272.719 279.012L262.904 250.984L249.726 257.043L272.719 279.012Z" fill="#18C3DF"/>
<path d="M272.719 279.012L249.096 261.016L258.931 250.355L272.719 279.012Z" fill="#18C3DF"/>
<path d="M239.281 279.012L262.904 261.016L253.07 250.355L239.281 279.012Z" fill="#18C3DF"/>
<path d="M239.281 279.012L249.096 250.984L262.274 257.043L239.281 279.012Z" fill="#18C3DF"/>
<path d="M398.2 182.056L389.667 210.5L403.889 213.344L398.2 182.056Z" fill="#18C3DF"/>
<path d="M398.2 182.056L406.733 210.5L392.511 213.344L398.2 182.056Z" fill="#18C3DF"/>
<path d="M425.252 201.71L395.563 202.384L397.253 216.789L425.252 201.71Z" fill="#18C3DF"/>
<path d="M425.252 201.71L400.837 218.616L393.737 205.969L425.252 201.71Z" fill="#18C3DF"/>
<path d="M371.148 201.71L395.563 218.616L402.663 205.969L371.148 201.71Z" fill="#18C3DF"/>
<path d="M371.148 201.71L400.837 202.384L399.147 216.789L371.148 201.71Z" fill="#18C3DF"/>
<path d="M414.919 233.512L405.104 205.484L391.926 211.543L414.919 233.512Z" fill="#18C3DF"/>
<path d="M414.919 233.512L391.296 215.516L401.13 204.855L414.919 233.512Z" fill="#18C3DF"/>
<path d="M381.481 233.512L405.104 215.516L395.27 204.855L381.481 233.512Z" fill="#18C3DF"/>
<path d="M381.481 233.512L391.296 205.484L404.474 211.543L381.481 233.512Z" fill="#18C3DF"/>
<path d="M398.2 267.356L389.667 295.8L403.889 298.644L398.2 267.356Z" fill="#18C3DF"/>
<path d="M398.2 267.356L406.733 295.8L392.511 298.644L398.2 267.356Z" fill="#18C3DF"/>
<path d="M425.252 287.01L395.563 287.684L397.253 302.089L425.252 287.01Z" fill="#18C3DF"/>
<path d="M425.252 287.01L400.837 303.916L393.737 291.269L425.252 287.01Z" fill="#18C3DF"/>
<path d="M371.148 287.01L395.563 303.916L402.663 291.269L371.148 287.01Z" fill="#18C3DF"/>
<path d="M371.148 287.01L400.837 287.684L399.147 302.089L371.148 287.01Z" fill="#18C3DF"/>
<path d="M414.919 318.812L405.104 290.784L391.926 296.843L414.919 318.812Z" fill="#18C3DF"/>
<path d="M414.919 318.812L391.296 300.816L401.13 290.155L414.919 318.812Z" fill="#18C3DF"/>
<path d="M381.481 318.812L405.104 300.816L395.27 290.155L381.481 318.812Z" fill="#18C3DF"/>
<path d="M381.481 318.812L391.296 290.784L404.474 296.843L381.481 318.812Z" fill="#18C3DF"/>
<path d="M113.8 182.056L105.267 210.5L119.489 213.344L113.8 182.056Z" fill="#18C3DF"/>
<path d="M113.8 182.056L122.333 210.5L108.111 213.344L113.8 182.056Z" fill="#18C3DF"/>
<path d="M140.852 201.71L111.163 202.384L112.853 216.789L140.852 201.71Z" fill="#18C3DF"/>
<path d="M140.852 201.71L116.437 218.616L109.337 205.969L140.852 201.71Z" fill="#18C3DF"/>
<path d="M86.7477 201.71L111.163 218.616L118.263 205.969L86.7477 201.71Z" fill="#18C3DF"/>
<path d="M86.7477 201.71L116.437 202.384L114.747 216.789L86.7477 201.71Z" fill="#18C3DF"/>
<path d="M130.519 233.512L120.704 205.484L107.526 211.543L130.519 233.512Z" fill="#18C3DF"/>
<path d="M130.519 233.512L106.896 215.516L116.73 204.855L130.519 233.512Z" fill="#18C3DF"/>
<path d="M97.0808 233.512L120.704 215.516L110.87 204.855L97.0808 233.512Z" fill="#18C3DF"/>
<path d="M97.0807 233.512L106.896 205.484L120.074 211.543L97.0807 233.512Z" fill="#18C3DF"/>
<path d="M113.8 267.356L105.267 295.8L119.489 298.644L113.8 267.356Z" fill="#18C3DF"/>
<path d="M113.8 267.356L122.333 295.8L108.111 298.644L113.8 267.356Z" fill="#18C3DF"/>
<path d="M140.852 287.01L111.163 287.684L112.853 302.089L140.852 287.01Z" fill="#18C3DF"/>
<path d="M140.852 287.01L116.437 303.916L109.337 291.269L140.852 287.01Z" fill="#18C3DF"/>
<path d="M86.7477 287.01L111.163 303.916L118.263 291.269L86.7477 287.01Z" fill="#18C3DF"/>
<path d="M86.7477 287.01L116.437 287.684L114.747 302.089L86.7477 287.01Z" fill="#18C3DF"/>
<path d="M130.519 318.812L120.704 290.784L107.526 296.843L130.519 318.812Z" fill="#18C3DF"/>
<path d="M130.519 318.812L106.896 300.816L116.73 290.155L130.519 318.812Z" fill="#18C3DF"/>
<path d="M97.0808 318.812L120.704 300.816L110.87 290.155L97.0808 318.812Z" fill="#18C3DF"/>
<path d="M97.0807 318.812L106.896 290.784L120.074 296.843L97.0807 318.812Z" fill="#18C3DF"/>
</g>
<defs>
<clipPath id="clip0_2_4623">
<rect width="512" height="512" fill="white"/>
</clipPath>
</defs>
</svg>
