<svg width="512" height="512" viewBox="0 0 512 512" fill="none" xmlns="http://www.w3.org/2000/svg">
<g clip-path="url(#clip0_2_4772)">
<path d="M0 0H512V512H0V0Z" fill="#D21034"/>
<path d="M0 0H512V256H0V0Z" fill="#00209F"/>
<path d="M175.2 191.6H336.8V320.2H175.2V191.6Z" fill="white"/>
<path d="M288.5 284.6L255.5 285.6L222.7 285.9C222.7 285.9 205.9 292.2 199 293.6C192.1 295 193 297.2 187.7 298.4C183.4 299.4 182.9 299.7 180.4 299.8C178.9 299.9 177.1 301.1 175.2 302.4V320.2H336.8V303.2C335.132 302.348 333.392 301.646 331.6 301.1C329.3 300.3 327.6 299.4 323.4 298.4C318.1 297.2 319 295 312.1 293.6C305.2 292.2 288.5 284.6 288.5 284.6Z" fill="#016A16" stroke="#016A16" stroke-width="0.3"/>
<path d="M246.581 244.907H248.97L253.407 263.168L252.383 268.971L246.581 244.907Z" fill="#F1B517" stroke="black" stroke-width="0.341334"/>
<path d="M244.021 232.619L245.727 246.784H247.434L244.021 232.79V232.619Z" fill="white" stroke="black" stroke-width="0.341334"/>
<path d="M248.629 263.851L241.29 244.224L244.021 244.054L252.554 267.947L248.629 263.851Z" fill="#F1B517" stroke="black" stroke-width="0.341334"/>
<path d="M237.877 232.96L240.949 246.614H243.338L237.877 232.96Z" fill="white" stroke="black" stroke-width="0.341334"/>
<path d="M242.143 257.024L237.877 247.638L239.583 247.296L247.605 262.656L242.143 257.024Z" fill="#F1B517" stroke="black" stroke-width="0.341334"/>
<path d="M232.074 236.886L237.024 249.856H239.413L232.245 236.886H232.074Z" fill="white" stroke="black" stroke-width="0.341334"/>
<path d="M242.826 258.39L223.2 237.056C217.055 241.835 218.25 250.71 218.25 250.71L240.437 268.118L242.826 258.39Z" fill="#0A328C" stroke="black" stroke-width="0.341334"/>
<path d="M254.09 269.995L239.583 255.318C233.439 255.659 238.218 264.704 238.559 265.899L253.919 279.041L254.09 269.995Z" fill="#D20014" stroke="black" stroke-width="0.341334"/>
<path d="M252.725 267.606L222.858 235.52L221.663 236.374L253.407 271.531L252.725 267.606ZM221.151 233.472L220.469 232.619V231.083L214.325 227.158L217.055 233.472L219.274 233.814L219.786 234.496L221.151 233.472Z" fill="#F1B517" stroke="black" stroke-width="0.341334"/>
<path d="M217.909 235.691C219.166 234.131 220.735 232.852 222.517 231.936L224.223 234.496L220.469 237.568L217.909 235.862V235.691Z" fill="#F1B517" stroke="black" stroke-width="0.341334"/>
<path d="M214.666 241.152L215.69 242.859C216.373 242.688 222.517 236.886 222.517 236.886H227.125L228.319 235.35C224.906 231.936 222.005 235.862 222.005 235.862L214.666 241.152Z" fill="#0A328C" stroke="#0A328C" stroke-width="0.341334"/>
<path d="M218.421 244.054C218.421 242.347 221.493 238.592 221.834 238.422C224.053 239.104 226.101 240.47 228.49 235.35C226.442 237.739 222.517 235.35 222.517 235.35L220.81 236.715V237.398L215.69 242.176L218.421 244.054Z" fill="#D20014" stroke="#D20014" stroke-width="0.341334"/>
<path d="M234.293 264.022L209.717 244.566C205.45 248.832 209.034 261.974 209.034 261.974L232.927 274.945L234.122 264.022H234.293Z" fill="#0A328C" stroke="black" stroke-width="0.341334"/>
<path d="M254.602 279.894L234.293 263.51C227.466 264.534 232.928 274.603 233.269 275.798L254.602 287.403V279.894Z" fill="#D20014" stroke="black" stroke-width="0.341334"/>
<path d="M253.749 276.481L210.058 243.712L209.205 244.736L254.944 280.577L253.749 276.481ZM208.01 242.006L207.327 241.323L206.986 239.958L200.159 237.056L204.085 242.688H206.303L206.986 243.371L208.01 242.006Z" fill="#F1B517" stroke="black" stroke-width="0.341334"/>
<path d="M205.279 244.736C206.256 242.994 207.595 241.481 209.205 240.299L211.253 242.518L208.181 246.102L205.279 244.736Z" fill="#F1B517" stroke="black" stroke-width="0.341334"/>
<path d="M203.061 250.198V252.075C203.743 251.734 209.375 245.76 209.375 245.76L213.642 244.907L214.666 243.542C211.594 239.958 208.351 244.736 208.351 244.736L203.061 250.198Z" fill="#0A328C" stroke="#0A328C" stroke-width="0.341334"/>
<path d="M206.474 253.44C206.133 251.734 208.522 246.955 208.863 246.614C211.594 247.467 213.983 248.662 214.837 243.2C213.13 245.931 208.863 243.883 208.863 243.883L207.498 245.59V246.443L203.231 252.075L206.474 253.44Z" fill="#D20014" stroke="#D20014" stroke-width="0.341334"/>
<path d="M232.415 275.968C221.868 270.035 211.344 264.062 200.842 258.048C198.623 261.974 200.671 267.435 201.695 268.288C201.695 270.848 200.671 272.214 202.89 277.675C203.573 281.089 205.109 284.331 207.498 286.209C210.229 297.131 221.493 297.985 225.759 288.939L232.415 275.968Z" fill="#0A328C" stroke="black" stroke-width="0.341334"/>
<path d="M253.066 287.574L231.733 275.115C224.906 275.969 231.733 288.769 232.245 289.963L253.066 297.302V287.574Z" fill="#D20014" stroke="black" stroke-width="0.341334"/>
<path d="M249.482 282.966L201.183 257.366L200.33 258.39L251.53 286.891L249.482 282.966ZM198.794 256L197.941 255.488L197.429 254.123L190.431 252.416L195.039 257.366L197.087 257.025L198.111 257.536L198.794 256Z" fill="#F1B517" stroke="black" stroke-width="0.341334"/>
<path d="M196.575 259.072C197.258 257.366 197.941 255.83 199.647 253.952L202.037 255.83L199.647 259.926L196.575 259.072Z" fill="#F1B517" stroke="black" stroke-width="0.341334"/>
<path d="M194.698 264.875L195.722 266.923L200.842 259.072L205.109 257.536L205.962 255.83C202.549 252.758 199.989 258.219 199.989 258.219L194.698 264.875Z" fill="#0A328C" stroke="#0A328C" stroke-width="0.341334"/>
<path d="M199.306 267.606C198.965 265.899 200.159 260.438 200.501 260.267C203.061 261.12 205.279 261.291 205.962 255.83C204.255 258.39 200.33 257.536 200.33 257.536L199.135 259.243L199.306 259.926L195.893 266.753L199.306 267.606Z" fill="#D20014" stroke="#D20014" stroke-width="0.341334"/>
<path d="M265.184 244.907H262.794L258.357 263.168L259.381 268.971L265.184 244.907Z" fill="#F1B517" stroke="black" stroke-width="0.341334"/>
<path d="M267.744 232.619L266.037 246.784H264.33L267.744 232.79V232.619Z" fill="white" stroke="black" stroke-width="0.341334"/>
<path d="M263.135 263.851L270.474 244.224L267.743 244.054L259.21 267.947L263.135 263.851Z" fill="#F1B517" stroke="black" stroke-width="0.341334"/>
<path d="M273.888 232.96L270.816 246.614H268.426L273.888 232.96Z" fill="white" stroke="black" stroke-width="0.341334"/>
<path d="M269.621 257.024L273.888 247.638L272.181 247.296L264.16 262.656L269.621 257.024Z" fill="#F1B517" stroke="black" stroke-width="0.341334"/>
<path d="M279.69 236.886L274.741 249.856H272.351L279.52 236.886H279.69Z" fill="white" stroke="black" stroke-width="0.341334"/>
<path d="M268.938 258.39L288.565 237.056C294.709 241.835 293.514 250.71 293.514 250.71L271.328 268.118L268.938 258.39Z" fill="#0A328C" stroke="black" stroke-width="0.341334"/>
<path d="M257.674 269.995L272.181 255.318C278.325 255.659 273.546 264.704 273.205 265.899L257.845 279.041L257.674 269.995Z" fill="#D20014" stroke="black" stroke-width="0.341334"/>
<path d="M259.04 267.606L288.906 235.52L290.101 236.374L258.357 271.531L259.04 267.606ZM290.613 233.472L291.296 232.619V231.083L297.44 227.158L294.709 233.472L292.49 233.814L291.978 234.496L290.613 233.472Z" fill="#F1B517" stroke="black" stroke-width="0.341334"/>
<path d="M293.856 235.691C292.599 234.131 291.029 232.852 289.248 231.936L287.541 234.496L291.296 237.568L293.856 235.862V235.691Z" fill="#F1B517" stroke="black" stroke-width="0.341334"/>
<path d="M297.098 241.152L296.074 242.859C295.391 242.688 289.247 236.886 289.247 236.886H284.639L283.445 235.35C286.858 231.936 289.759 235.862 289.759 235.862L297.098 241.152Z" fill="#0A328C" stroke="#0A328C" stroke-width="0.341334"/>
<path d="M293.344 244.054C293.344 242.347 290.272 238.592 289.93 238.422C287.712 239.104 285.664 240.47 283.274 235.35C285.322 237.739 289.248 235.35 289.248 235.35L290.954 236.715V237.398L296.074 242.176L293.344 244.054Z" fill="#D20014" stroke="#D20014" stroke-width="0.341334"/>
<path d="M277.472 264.022L302.048 244.566C306.314 248.832 302.73 261.974 302.73 261.974L278.837 274.945L277.642 264.022H277.472Z" fill="#0A328C" stroke="black" stroke-width="0.341334"/>
<path d="M257.162 279.894L277.472 263.51C284.298 264.534 278.837 274.603 278.496 275.798L257.162 287.403V279.894Z" fill="#D20014" stroke="black" stroke-width="0.341334"/>
<path d="M258.016 276.481L301.706 243.712L302.56 244.736L256.821 280.577L258.016 276.481ZM303.754 242.006L304.437 241.323L304.778 239.958L311.605 237.056L307.68 242.688H305.461L304.778 243.371L303.754 242.006Z" fill="#F1B517" stroke="black" stroke-width="0.341334"/>
<path d="M306.485 244.736C305.508 242.994 304.17 241.481 302.56 240.299L300.512 242.518L303.584 246.102L306.485 244.736Z" fill="#F1B517" stroke="black" stroke-width="0.341334"/>
<path d="M308.704 250.198V252.075C308.021 251.734 302.389 245.76 302.389 245.76L298.122 244.907L297.098 243.542C300.17 239.958 303.413 244.736 303.413 244.736L308.704 250.198Z" fill="#0A328C" stroke="#0A328C" stroke-width="0.341334"/>
<path d="M305.29 253.44C305.632 251.734 303.242 246.955 302.901 246.614C300.17 247.467 297.781 248.662 296.928 243.2C298.634 245.931 302.901 243.883 302.901 243.883L304.266 245.59V246.443L308.533 252.075L305.29 253.44Z" fill="#D20014" stroke="#D20014" stroke-width="0.341334"/>
<path d="M279.349 275.968C289.896 270.035 300.421 264.062 310.922 258.048C313.141 261.974 311.093 267.435 310.069 268.288C310.069 270.848 311.093 272.214 308.874 277.675C308.192 281.089 306.656 284.331 304.266 286.209C301.536 297.131 290.271 297.985 286.005 288.939L279.349 275.968Z" fill="#0A328C" stroke="black" stroke-width="0.341334"/>
<path d="M258.698 287.574L280.032 275.115C286.858 275.969 280.032 288.769 279.52 289.963L258.698 297.302V287.574Z" fill="#D20014" stroke="black" stroke-width="0.341334"/>
<path d="M262.282 282.966L310.581 257.366L311.434 258.39L260.234 286.891L262.282 282.966ZM312.97 256L313.824 255.488L314.336 254.123L321.333 252.416L316.725 257.366L314.677 257.025L313.653 257.536L312.97 256Z" fill="#F1B517" stroke="black" stroke-width="0.341334"/>
<path d="M315.189 259.072C314.506 257.366 313.824 255.83 312.117 253.952L309.728 255.83L312.117 259.926L315.189 259.072Z" fill="#F1B517" stroke="black" stroke-width="0.341334"/>
<path d="M317.066 264.875L316.042 266.923L310.922 259.072L306.656 257.536L305.802 255.83C309.216 252.758 311.776 258.219 311.776 258.219L317.066 264.875Z" fill="#0A328C" stroke="#0A328C" stroke-width="0.341334"/>
<path d="M312.458 267.606C312.8 265.899 311.605 260.438 311.264 260.267C308.704 261.12 306.485 261.291 305.802 255.83C307.509 258.39 311.434 257.536 311.434 257.536L312.629 259.243L312.458 259.926L315.872 266.753L312.458 267.606Z" fill="#D20014" stroke="#D20014" stroke-width="0.341334"/>
<path d="M253.92 214.358L253.066 229.718H258.016L257.333 214.358L262.453 213.846L261.941 207.702L249.141 208.214V213.675L253.92 214.358Z" fill="#016A16" stroke="#016A16" stroke-width="0.341334"/>
<path d="M255.626 208.043C242.314 194.731 231.903 201.216 229.514 203.094C231.221 203.435 232.586 202.411 233.44 202.24L231.733 204.288C231.733 204.288 236 202.582 236.512 202.582C235.829 203.094 235.146 204.288 235.146 204.288C235.488 204.288 237.877 202.411 238.218 202.411C237.536 203.094 237.365 204.971 237.365 204.971L239.413 204.118C239.925 204.459 239.242 205.142 239.584 205.142C242.997 204.8 247.605 208.043 248.117 209.067" fill="#016A16"/>
<path d="M255.626 208.043C242.314 194.731 231.903 201.216 229.514 203.094C231.221 203.435 232.586 202.411 233.44 202.24L231.733 204.288C231.733 204.288 236 202.582 236.512 202.582C235.829 203.094 235.146 204.288 235.146 204.288C235.488 204.288 237.877 202.411 238.218 202.411C237.536 203.094 237.365 204.971 237.365 204.971L239.413 204.118C239.925 204.459 239.242 205.142 239.584 205.142C242.997 204.8 247.605 208.043 248.117 209.067" stroke="black" stroke-width="0.341334"/>
<path d="M252.383 210.432C251.018 207.36 225.759 201.899 220.639 210.944C222.687 211.456 224.565 209.238 224.565 209.238V211.286L227.807 208.555L226.613 211.286L229.173 209.067V211.286L232.586 207.872L232.074 209.75L234.975 208.555L234.634 210.262" fill="#016A16"/>
<path d="M252.383 210.432C251.018 207.36 225.759 201.899 220.639 210.944C222.687 211.456 224.565 209.238 224.565 209.238V211.286L227.807 208.555L226.613 211.286L229.173 209.067V211.286L232.586 207.872L232.074 209.75L234.975 208.555L234.634 210.262" stroke="black" stroke-width="0.341334"/>
<path d="M251.189 210.944C244.703 206.678 234.805 209.579 234.805 209.579C228.319 212.992 224.906 212.48 224.223 219.136C224.735 218.966 226.442 216.747 226.442 216.747L227.807 219.307L228.149 215.723L229.173 218.624L230.879 213.846L231.221 217.088L233.61 213.846L234.634 214.87L235.658 212.31L236.682 214.016C236.682 214.016 238.389 212.992 239.242 213.504L240.949 211.456L241.461 212.992L243.167 211.286L243.679 212.48L245.215 211.115V212.139H250.335" fill="#016A16"/>
<path d="M251.189 210.944C244.703 206.678 234.805 209.579 234.805 209.579C228.319 212.992 224.906 212.48 224.223 219.136C224.735 218.966 226.442 216.747 226.442 216.747L227.807 219.307L228.149 215.723L229.173 218.624L230.879 213.846L231.221 217.088L233.61 213.846L234.634 214.87L235.658 212.31L236.682 214.016C236.682 214.016 238.389 212.992 239.242 213.504L240.949 211.456L241.461 212.992L243.167 211.286L243.679 212.48L245.215 211.115V212.139H250.335" stroke="black" stroke-width="0.341334"/>
<path d="M249.823 211.627C245.215 211.627 232.245 216.576 229.002 221.526C229.723 221.145 230.463 220.803 231.221 220.502L231.733 222.55L232.586 220.502L232.757 222.208C233.269 220.843 233.781 220.843 234.805 222.038L235.146 220.16L235.658 221.867L236.511 219.99C236.511 219.99 237.023 222.038 237.365 222.038C237.365 222.038 238.73 218.283 239.413 218.112L239.583 220.502L240.437 218.112L241.29 219.819V217.43L242.314 219.136C242.314 219.136 242.655 217.43 243.338 217.088L244.703 218.283L250.506 214.016" fill="#016A16"/>
<path d="M249.823 211.627C245.215 211.627 232.245 216.576 229.002 221.526C229.723 221.145 230.463 220.803 231.221 220.502L231.733 222.55L232.586 220.502L232.757 222.208C233.269 220.843 233.781 220.843 234.805 222.038L235.146 220.16L235.658 221.867L236.511 219.99C236.511 219.99 237.023 222.038 237.365 222.038C237.365 222.038 238.73 218.283 239.413 218.112L239.583 220.502L240.437 218.112L241.29 219.819V217.43L242.314 219.136C242.314 219.136 242.655 217.43 243.338 217.088L244.703 218.283L250.506 214.016" stroke="black" stroke-width="0.341334"/>
<path d="M250.677 212.822C244.703 215.04 239.242 223.403 239.754 226.816C242.314 223.403 241.802 223.915 242.997 227.84C242.997 227.84 243.338 224.427 243.85 224.086L244.703 226.475L244.874 223.232H245.727L245.557 221.355L246.751 222.208C246.41 221.014 246.239 220.672 247.434 219.648C247.434 219.648 245.727 219.819 247.093 217.088L248.287 218.112C248.287 218.112 247.946 216.918 248.287 216.406L252.725 215.04" fill="#016A16"/>
<path d="M250.677 212.822C244.703 215.04 239.242 223.403 239.754 226.816C242.314 223.403 241.802 223.915 242.997 227.84C242.997 227.84 243.338 224.427 243.85 224.086L244.703 226.475L244.874 223.232H245.727L245.557 221.355L246.751 222.208C246.41 221.014 246.239 220.672 247.434 219.648C247.434 219.648 245.727 219.819 247.093 217.088L248.287 218.112C248.287 218.112 247.946 216.918 248.287 216.406L252.725 215.04" stroke="black" stroke-width="0.341334"/>
<path d="M251.189 213.334L248.97 217.771L250.165 218.112L247.434 219.99L249.653 219.819C249.653 219.819 246.24 221.014 245.898 224.427L249.312 222.72C249.312 222.72 246.41 225.792 245.898 227.67L248.117 225.963C248.117 225.963 246.069 228.011 246.41 231.083L247.946 229.376C247.605 233.302 247.605 233.643 249.312 236.544C249.312 236.544 248.97 232.107 249.312 231.424L253.237 235.52L251.189 229.888C251.189 229.888 253.578 233.302 254.944 233.131L251.872 228.523L254.944 230.912L251.53 225.792L254.602 226.816C254.602 226.816 252.384 223.915 252.554 222.038L254.773 224.427C254.773 224.427 253.92 221.867 254.09 221.014L255.285 221.184L253.066 218.795L254.602 218.454L254.432 216.747L255.456 216.576V214.699M253.578 214.699C249.824 219.819 251.701 227.499 249.482 231.595Z" fill="#016A16"/>
<path d="M251.189 213.334L248.97 217.771L250.165 218.112L247.434 219.99L249.653 219.819C249.653 219.819 246.24 221.014 245.898 224.427L249.312 222.72C249.312 222.72 246.41 225.792 245.898 227.67L248.117 225.963C248.117 225.963 246.069 228.011 246.41 231.083L247.946 229.376C247.605 233.302 247.605 233.643 249.312 236.544C249.312 236.544 248.97 232.107 249.312 231.424L253.237 235.52L251.189 229.888C251.189 229.888 253.578 233.302 254.944 233.131L251.872 228.523L254.944 230.912L251.53 225.792L254.602 226.816C254.602 226.816 252.384 223.915 252.554 222.038L254.773 224.427C254.773 224.427 253.92 221.867 254.09 221.014L255.285 221.184L253.066 218.795L254.602 218.454L254.432 216.747L255.456 216.576V214.699M253.578 214.699C249.824 219.819 251.701 227.499 249.482 231.595" stroke="black" stroke-width="0.341334"/>
<path d="M256.138 208.043C269.45 194.731 279.861 201.216 282.25 203.094C280.543 203.435 279.178 202.411 278.325 202.24L280.031 204.288C280.031 204.288 275.765 202.582 275.253 202.582C275.935 203.094 276.618 204.288 276.618 204.288C276.277 204.288 273.887 202.411 273.546 202.411C274.229 203.094 274.399 204.971 274.399 204.971L272.351 204.118C271.839 204.459 272.522 205.142 272.181 205.142C268.767 204.8 264.159 208.043 263.647 209.067" fill="#016A16"/>
<path d="M256.138 208.043C269.45 194.731 279.861 201.216 282.25 203.094C280.543 203.435 279.178 202.411 278.325 202.24L280.031 204.288C280.031 204.288 275.765 202.582 275.253 202.582C275.935 203.094 276.618 204.288 276.618 204.288C276.277 204.288 273.887 202.411 273.546 202.411C274.229 203.094 274.399 204.971 274.399 204.971L272.351 204.118C271.839 204.459 272.522 205.142 272.181 205.142C268.767 204.8 264.159 208.043 263.647 209.067" stroke="black" stroke-width="0.341334"/>
<path d="M259.381 210.432C260.746 207.36 286.005 201.899 291.125 210.944C289.077 211.456 287.199 209.238 287.199 209.238V211.286L283.957 208.555L285.151 211.286L282.591 209.067V211.286L279.178 207.872L279.69 209.75L276.789 208.555L277.13 210.262" fill="#016A16"/>
<path d="M259.381 210.432C260.746 207.36 286.005 201.899 291.125 210.944C289.077 211.456 287.199 209.238 287.199 209.238V211.286L283.957 208.555L285.151 211.286L282.591 209.067V211.286L279.178 207.872L279.69 209.75L276.789 208.555L277.13 210.262" stroke="black" stroke-width="0.341334"/>
<path d="M260.575 210.944C267.061 206.678 276.959 209.579 276.959 209.579C283.445 212.992 286.858 212.48 287.541 219.136C287.029 218.966 285.322 216.747 285.322 216.747L283.957 219.307L283.615 215.723L282.591 218.624L280.885 213.846L280.543 217.088L278.154 213.846L277.13 214.87L276.106 212.31L275.082 214.016C275.082 214.016 273.375 212.992 272.522 213.504L270.815 211.456L270.303 212.992L268.597 211.286L268.085 212.48L266.549 211.115V212.139H261.429" fill="#016A16"/>
<path d="M260.575 210.944C267.061 206.678 276.959 209.579 276.959 209.579C283.445 212.992 286.858 212.48 287.541 219.136C287.029 218.966 285.322 216.747 285.322 216.747L283.957 219.307L283.615 215.723L282.591 218.624L280.885 213.846L280.543 217.088L278.154 213.846L277.13 214.87L276.106 212.31L275.082 214.016C275.082 214.016 273.375 212.992 272.522 213.504L270.815 211.456L270.303 212.992L268.597 211.286L268.085 212.48L266.549 211.115V212.139H261.429" stroke="black" stroke-width="0.341334"/>
<path d="M261.941 211.627C266.549 211.627 279.52 216.576 282.762 221.526C282.042 221.145 281.301 220.803 280.544 220.502L280.032 222.55L279.178 220.502L279.008 222.208C278.496 220.843 277.984 220.843 276.96 222.038L276.618 220.16L276.106 221.867L275.253 219.99C275.253 219.99 274.741 222.038 274.4 222.038C274.4 222.038 273.034 218.283 272.352 218.112L272.181 220.502L271.328 218.112L270.474 219.819V217.43L269.45 219.136C269.45 219.136 269.109 217.43 268.426 217.088L267.061 218.283L261.258 214.016" fill="#016A16"/>
<path d="M261.941 211.627C266.549 211.627 279.52 216.576 282.762 221.526C282.042 221.145 281.301 220.803 280.544 220.502L280.032 222.55L279.178 220.502L279.008 222.208C278.496 220.843 277.984 220.843 276.96 222.038L276.618 220.16L276.106 221.867L275.253 219.99C275.253 219.99 274.741 222.038 274.4 222.038C274.4 222.038 273.034 218.283 272.352 218.112L272.181 220.502L271.328 218.112L270.474 219.819V217.43L269.45 219.136C269.45 219.136 269.109 217.43 268.426 217.088L267.061 218.283L261.258 214.016" stroke="black" stroke-width="0.341334"/>
<path d="M261.087 212.822C267.061 215.04 272.522 223.403 272.01 226.816C269.45 223.403 269.962 223.915 268.767 227.84C268.767 227.84 268.426 224.427 267.914 224.086L267.061 226.475L266.89 223.232H266.037L266.207 221.355L265.013 222.208C265.354 221.014 265.525 220.672 264.33 219.648C264.33 219.648 266.037 219.819 264.671 217.088L263.477 218.112C263.477 218.112 263.818 216.918 263.477 216.406L259.039 215.04" fill="#016A16"/>
<path d="M261.087 212.822C267.061 215.04 272.522 223.403 272.01 226.816C269.45 223.403 269.962 223.915 268.767 227.84C268.767 227.84 268.426 224.427 267.914 224.086L267.061 226.475L266.89 223.232H266.037L266.207 221.355L265.013 222.208C265.354 221.014 265.525 220.672 264.33 219.648C264.33 219.648 266.037 219.819 264.671 217.088L263.477 218.112C263.477 218.112 263.818 216.918 263.477 216.406L259.039 215.04" stroke="black" stroke-width="0.341334"/>
<path d="M260.576 213.334L262.794 217.771L261.6 218.112L264.33 219.99L262.112 219.819C262.112 219.819 265.525 221.014 265.866 224.427L262.453 222.72C262.453 222.72 265.354 225.792 265.866 227.67L263.648 225.963C263.648 225.963 265.696 228.011 265.354 231.083L263.818 229.376C264.16 233.302 264.16 233.643 262.453 236.544C262.453 236.544 262.794 232.107 262.453 231.424L258.528 235.52L260.576 229.888C260.576 229.888 258.186 233.302 256.821 233.131L259.893 228.523L256.821 230.912L260.234 225.792L257.162 226.816C257.162 226.816 259.381 223.915 259.21 222.038L256.992 224.427C256.992 224.427 257.845 221.867 257.674 221.014L256.48 221.184L258.698 218.795L257.162 218.454L257.333 216.747L256.309 216.576V214.699M258.186 214.699C261.941 219.819 260.064 227.499 262.282 231.595Z" fill="#016A16"/>
<path d="M260.576 213.334L262.794 217.771L261.6 218.112L264.33 219.99L262.112 219.819C262.112 219.819 265.525 221.014 265.866 224.427L262.453 222.72C262.453 222.72 265.354 225.792 265.866 227.67L263.648 225.963C263.648 225.963 265.696 228.011 265.354 231.083L263.818 229.376C264.16 233.302 264.16 233.643 262.453 236.544C262.453 236.544 262.794 232.107 262.453 231.424L258.528 235.52L260.576 229.888C260.576 229.888 258.186 233.302 256.821 233.131L259.893 228.523L256.821 230.912L260.234 225.792L257.162 226.816C257.162 226.816 259.381 223.915 259.21 222.038L256.992 224.427C256.992 224.427 257.845 221.867 257.674 221.014L256.48 221.184L258.698 218.795L257.162 218.454L257.333 216.747L256.309 216.576V214.699M258.186 214.699C261.941 219.819 260.064 227.499 262.282 231.595" stroke="black" stroke-width="0.341334"/>
<path d="M257.674 284.161C257.674 284.161 259.551 267.094 259.551 259.926C259.551 254.123 258.186 241.494 258.186 241.494H252.554C252.554 241.494 251.701 254.123 251.871 259.926C251.871 267.094 253.749 284.161 253.749 284.161H257.674Z" fill="#F1B517" stroke="black" stroke-width="0.341334"/>
<path d="M252.042 242.347H258.869L258.015 237.739H253.066L252.042 242.347Z" fill="#F1B517" stroke="black" stroke-width="0.341334"/>
<path d="M252.554 238.592H258.528L257.333 233.984H253.578L252.554 238.592Z" fill="#F1B517" stroke="black" stroke-width="0.341334"/>
<path d="M252.896 235.008H258.016L256.992 230.4H253.749L252.896 235.008Z" fill="#F1B517" stroke="black" stroke-width="0.341334"/>
<path d="M257.162 229.888H253.749L253.237 231.595H257.503L257.162 229.888ZM257.845 280.577H253.407ZM258.186 277.163H253.066ZM258.869 273.75H252.383ZM259.21 270.166H252.383ZM259.21 266.411H252.213ZM259.381 262.998H251.871ZM259.381 260.096H251.53ZM259.381 256.342H251.53ZM259.21 252.758H251.53ZM258.869 249.003H251.871ZM258.527 245.59H252.213Z" fill="#F1B517"/>
<path d="M257.845 280.577H253.407M258.186 277.163H253.066M258.869 273.75H252.383M259.21 270.166H252.383M259.21 266.411H252.213M259.381 262.998H251.871M259.381 260.096H251.53M259.381 256.342H251.53M259.21 252.758H251.53M258.869 249.003H251.871M258.527 245.59H252.213M257.162 229.888H253.749L253.237 231.595H257.503L257.162 229.888Z" stroke="black" stroke-width="0.341334"/>
<path d="M255.967 203.094C254.602 202.582 252.042 200.875 252.725 199.851L253.919 197.803C255.626 194.048 253.919 195.414 253.919 194.39C253.578 193.024 260.405 194.048 260.405 196.608C260.405 197.462 259.893 196.95 260.063 201.046L258.698 203.606C257.718 203.734 256.721 203.617 255.797 203.264L255.967 203.094Z" fill="#0A328C" stroke="#0A328C" stroke-width="0.341334"/>
<path d="M256.65 213.334L254.943 211.798L255.455 199.68L257.162 200.192L256.65 213.163V213.334Z" fill="#F1B517" stroke="black" stroke-width="0.341334"/>
<path d="M258.869 203.606C259.893 202.923 260.575 201.046 259.893 200.022C258.186 197.803 256.991 198.656 254.09 197.632C253.578 198.315 252.383 199.339 252.554 200.363C256.479 202.07 254.943 200.704 256.309 200.875C256.991 200.875 257.333 201.728 258.869 203.435V203.606Z" fill="#D20014" stroke="#D20014" stroke-width="0.341334"/>
<path d="M236.341 273.579C235.999 272.726 234.634 272.043 232.927 272.043C231.221 272.043 230.026 272.726 229.514 273.579C229.456 273.355 229.456 273.12 229.514 272.897C229.514 271.702 231.05 270.849 232.927 270.849C234.975 270.849 236.511 271.702 236.511 272.897C236.569 273.12 236.569 273.355 236.511 273.579H236.341Z" fill="#016A16" stroke="white" stroke-width="0.341334" stroke-linecap="round"/>
<path d="M236.17 276.139C236.17 278.187 234.634 280.065 232.927 280.065C231.221 280.065 229.855 278.358 229.855 275.969V273.921H236.17V276.139Z" fill="#016A16" stroke="white" stroke-width="0.341334" stroke-linecap="round"/>
<path d="M232.927 274.774C234.624 274.774 235.999 274.086 235.999 273.238C235.999 272.39 234.624 271.702 232.927 271.702C231.231 271.702 229.855 272.39 229.855 273.238C229.855 274.086 231.231 274.774 232.927 274.774Z" fill="white"/>
<path d="M232.245 274.774L231.733 269.313H234.122L233.781 274.945H232.245V274.774Z" fill="#016A16" stroke="#F1B517" stroke-width="0.341334"/>
<path d="M236.341 273.238C235.999 274.091 234.634 274.774 232.927 274.774C231.221 274.774 230.026 274.091 229.514 273.238C229.456 273.462 229.456 273.697 229.514 273.921C229.514 275.115 231.05 275.969 232.927 275.969C234.975 275.969 236.511 275.115 236.511 273.921C236.569 273.697 236.569 273.462 236.511 273.238H236.341Z" fill="#016A16" stroke="white" stroke-width="0.341334" stroke-linecap="round"/>
<path d="M249.141 294.913L237.194 291.158L231.903 282.113L213.301 281.259L213.983 288.086L229.855 290.987L231.221 293.718L249.482 298.838L249.141 294.913Z" fill="#F1B517" stroke="black" stroke-width="0.341334"/>
<path d="M236.682 297.473L217.567 269.313L216.714 270.166L235.487 298.155L236.682 297.473Z" fill="#503200" stroke="black" stroke-width="0.341334"/>
<path d="M219.445 270.507L217.397 267.094C216.885 266.411 216.373 266.241 215.519 266.753C214.666 267.094 214.837 267.947 215.178 268.63L216.885 271.873L219.445 270.507Z" fill="white" stroke="black" stroke-width="0.341334"/>
<path d="M238.901 280.065L200.501 276.139L199.477 281.771L237.706 285.697L238.901 280.065Z" fill="#F1B517" stroke="black" stroke-width="0.341334"/>
<path d="M199.647 274.774L198.794 282.454H200.501L201.525 275.457L199.647 274.774ZM206.133 275.969L205.791 282.966H206.815L207.669 276.993L206.133 275.969ZM232.245 279.041L231.221 285.526H233.098L233.951 279.041H232.245ZM237.877 279.211L236.682 286.721L238.73 287.062L239.413 283.137C239.413 283.99 240.266 284.502 241.119 284.502C242.143 284.502 242.826 283.649 242.826 282.795C242.826 281.771 242.143 281.089 241.119 281.089C240.764 281.059 240.407 281.142 240.101 281.326C239.795 281.51 239.554 281.785 239.413 282.113L239.925 279.382L237.877 279.211ZM224.223 280.406L218.762 286.379L219.445 287.062L226.271 282.454L224.223 280.406ZM211.594 295.254L216.885 289.281L216.373 288.598L209.546 293.206L211.594 295.254ZM225.418 293.718L219.103 288.769L218.421 289.281L223.541 295.766L225.418 293.718ZM209.546 282.283L216.202 287.062L216.885 286.55L211.765 280.065L209.546 282.283ZM216.714 278.358L217.397 286.209H218.25L220.298 278.529L216.714 278.358ZM218.762 297.131L218.25 289.451H217.226L216.031 297.302L218.762 297.131ZM227.466 286.891L219.274 287.574V288.427L227.466 289.451V286.891ZM208.01 289.451L216.031 288.257V287.574L207.839 286.721V289.451H208.01Z" fill="#F1B517" stroke="black" stroke-width="0.341334"/>
<path d="M217.909 289.793C219.134 289.793 220.127 288.876 220.127 287.745C220.127 286.613 219.134 285.697 217.909 285.697C216.683 285.697 215.69 286.613 215.69 287.745C215.69 288.876 216.683 289.793 217.909 289.793Z" fill="#F1B517" stroke="black" stroke-width="0.341334"/>
<path fill-rule="evenodd" clip-rule="evenodd" d="M229.343 287.745C229.343 293.718 224.223 298.838 217.909 298.838C216.429 298.861 214.96 298.591 213.585 298.046C212.21 297.501 210.955 296.69 209.893 295.66C208.831 294.63 207.983 293.4 207.396 292.042C206.81 290.684 206.496 289.224 206.474 287.745C206.474 281.601 211.594 276.651 217.909 276.651C219.388 276.629 220.857 276.898 222.232 277.443C223.608 277.988 224.862 278.799 225.924 279.829C226.986 280.859 227.834 282.089 228.421 283.447C229.008 284.805 229.321 286.265 229.343 287.745ZM227.125 287.745C227.102 288.932 226.846 290.104 226.371 291.193C225.896 292.282 225.211 293.267 224.355 294.091C223.499 294.915 222.489 295.563 221.383 295.996C220.277 296.43 219.096 296.642 217.909 296.619C216.706 296.642 215.512 296.425 214.395 295.98C213.277 295.536 212.26 294.873 211.402 294.031C210.544 293.189 209.862 292.184 209.397 291.075C208.932 289.967 208.692 288.776 208.693 287.574C208.782 285.205 209.797 282.965 211.521 281.337C213.244 279.71 215.538 278.823 217.909 278.87C219.096 278.847 220.277 279.059 221.383 279.493C222.489 279.926 223.499 280.574 224.355 281.398C225.211 282.222 225.896 283.207 226.371 284.296C226.846 285.385 227.102 286.557 227.125 287.745Z" fill="#F1B517" stroke="black" stroke-width="0.341334" stroke-linecap="round"/>
<path d="M210.741 282.113L209.034 280.747ZM223.541 280.747L225.247 279.041ZM226.954 294.742L225.077 293.206ZM210.741 296.449L212.447 294.742ZM249.482 276.651L251.359 286.891L249.823 287.574L248.117 276.822L249.482 276.651Z" fill="#F1B517"/>
<path d="M210.741 282.113L209.034 280.747M223.541 280.747L225.247 279.041M226.954 294.742L225.077 293.206M210.741 296.449L212.447 294.742M249.482 276.651L251.359 286.891L249.823 287.574L248.117 276.822L249.482 276.651Z" stroke="black" stroke-width="0.341334"/>
<path d="M248.458 275.457C247.605 274.945 246.41 275.627 244.362 273.238C241.119 276.139 244.362 276.651 244.703 279.553C245.557 279.894 246.239 277.163 248.629 276.993L252.554 276.651L251.701 275.457H248.458Z" fill="white" stroke="black" stroke-width="0.341334"/>
<path d="M249.823 277.334L249.482 274.433C248.97 273.238 247.775 274.262 247.775 274.774L248.117 277.675L249.823 277.334Z" fill="white" stroke="black" stroke-width="0.341334"/>
<path fill-rule="evenodd" clip-rule="evenodd" d="M240.266 285.697V288.427C239.242 288.769 239.413 289.451 239.413 290.475V298.497C239.242 299.179 238.218 299.179 237.706 299.521C237.194 300.033 237.365 300.886 239.413 301.227L241.119 301.398C243.68 300.886 244.192 300.033 242.826 299.691C242.314 299.35 241.29 299.009 241.119 298.667V296.619H242.826C243.168 296.619 244.021 295.595 244.021 294.742V290.475C244.021 288.086 242.314 287.745 241.632 287.915V285.697H240.266ZM242.997 290.305C242.997 289.622 241.973 288.939 241.632 288.939C241.29 288.939 240.437 289.793 240.437 290.475V292.182C240.437 292.865 240.949 294.913 241.973 295.083C242.314 295.083 242.997 294.401 242.997 293.718V290.305Z" fill="#F1B517" stroke="black" stroke-width="0.341334"/>
<path d="M229.173 294.059C227.978 293.718 227.978 296.107 227.978 296.107H229.685C230.538 296.449 231.05 297.473 230.709 298.155C230.197 298.497 226.954 297.302 226.783 298.155C227.295 301.398 231.733 302.593 233.269 301.227C234.805 299.691 235.146 296.107 230.197 294.913L229.173 294.059ZM230.197 295.083L229.685 296.107Z" fill="white"/>
<path d="M229.685 296.107H227.978C227.978 296.107 227.978 293.718 229.173 294.059L230.197 294.913C235.146 296.107 234.805 299.691 233.269 301.227C231.733 302.593 227.295 301.398 226.783 298.155C226.954 297.302 230.197 298.497 230.709 298.155C231.05 297.473 230.538 296.449 229.685 296.107ZM229.685 296.107L230.197 295.083" stroke="black" stroke-width="0.341334"/>
<path d="M196.234 295.254L194.527 288.427ZM198.111 294.913L195.551 289.622ZM202.378 293.547L196.746 290.475ZM204.938 292.865L194.357 288.257Z" fill="#F1B517"/>
<path d="M196.234 295.254L194.527 288.427M198.111 294.913L195.551 289.622M202.378 293.547L196.746 290.475M204.938 292.865L194.357 288.257" stroke="black" stroke-width="0.341334"/>
<path d="M188.042 283.307L183.605 283.478C183.263 283.649 184.458 285.014 184.287 285.355C183.263 287.233 176.778 287.062 176.266 286.721C175.413 285.867 182.239 285.355 182.41 285.014C182.41 284.331 181.386 282.966 181.557 282.113C181.557 280.918 184.458 280.406 184.458 280.406L188.042 283.307Z" fill="#D20014" stroke="#D20014" stroke-width="0.341334"/>
<path d="M193.162 286.721L184.629 279.553C184.629 279.553 184.117 279.211 183.775 279.553C183.434 279.894 183.775 280.235 183.775 280.235L192.991 287.745L193.162 286.891V286.721Z" fill="#503200" stroke="black" stroke-width="0.341334"/>
<path d="M201.695 293.889L194.527 287.745L194.015 286.038L192.65 287.062C192.138 287.403 191.626 288.427 191.626 288.427H193.503L199.647 294.23L201.525 293.889H201.695Z" fill="#F1B517" stroke="black" stroke-width="0.341334"/>
<path d="M226.101 303.446C226.76 303.446 227.295 302.911 227.295 302.251C227.295 301.591 226.76 301.057 226.101 301.057C225.441 301.057 224.906 301.591 224.906 302.251C224.906 302.911 225.441 303.446 226.101 303.446Z" fill="#F1B517" stroke="black" stroke-width="0.341334"/>
<path d="M222.858 301.057C223.518 301.057 224.053 300.522 224.053 299.862C224.053 299.202 223.518 298.667 222.858 298.667C222.198 298.667 221.663 299.202 221.663 299.862C221.663 300.522 222.198 301.057 222.858 301.057Z" fill="#F1B517" stroke="black" stroke-width="0.341334"/>
<path d="M218.591 302.593C219.251 302.593 219.786 302.058 219.786 301.398C219.786 300.738 219.251 300.203 218.591 300.203C217.932 300.203 217.397 300.738 217.397 301.398C217.397 302.058 217.932 302.593 218.591 302.593Z" fill="#F1B517" stroke="black" stroke-width="0.341334"/>
<path d="M211.935 303.958C212.595 303.958 213.13 303.423 213.13 302.763C213.13 302.103 212.595 301.569 211.935 301.569C211.276 301.569 210.741 302.103 210.741 302.763C210.741 303.423 211.276 303.958 211.935 303.958Z" fill="#F1B517" stroke="black" stroke-width="0.341334"/>
<path d="M209.034 304.299C209.694 304.299 210.229 303.764 210.229 303.105C210.229 302.445 209.694 301.91 209.034 301.91C208.374 301.91 207.839 302.445 207.839 303.105C207.839 303.764 208.374 304.299 209.034 304.299Z" fill="#F1B517" stroke="black" stroke-width="0.341334"/>
<path d="M206.133 304.299C206.792 304.299 207.327 303.764 207.327 303.105C207.327 302.445 206.792 301.91 206.133 301.91C205.473 301.91 204.938 302.445 204.938 303.105C204.938 303.764 205.473 304.299 206.133 304.299Z" fill="#F1B517" stroke="black" stroke-width="0.341334"/>
<path d="M203.402 304.299C204.062 304.299 204.597 303.764 204.597 303.105C204.597 302.445 204.062 301.91 203.402 301.91C202.742 301.91 202.207 302.445 202.207 303.105C202.207 303.764 202.742 304.299 203.402 304.299Z" fill="#F1B517" stroke="black" stroke-width="0.341334"/>
<path d="M204.767 302.081C205.427 302.081 205.962 301.546 205.962 300.886C205.962 300.226 205.427 299.691 204.767 299.691C204.108 299.691 203.573 300.226 203.573 300.886C203.573 301.546 204.108 302.081 204.767 302.081Z" fill="#F1B517" stroke="black" stroke-width="0.341334"/>
<path d="M207.498 302.251C208.158 302.251 208.693 301.716 208.693 301.057C208.693 300.397 208.158 299.862 207.498 299.862C206.838 299.862 206.303 300.397 206.303 301.057C206.303 301.716 206.838 302.251 207.498 302.251Z" fill="#F1B517" stroke="black" stroke-width="0.341334"/>
<path d="M210.058 301.91C210.718 301.91 211.253 301.375 211.253 300.715C211.253 300.055 210.718 299.521 210.058 299.521C209.398 299.521 208.863 300.055 208.863 300.715C208.863 301.375 209.398 301.91 210.058 301.91Z" fill="#F1B517" stroke="black" stroke-width="0.341334"/>
<path d="M208.863 299.862C209.523 299.862 210.058 299.327 210.058 298.667C210.058 298.007 209.523 297.473 208.863 297.473C208.204 297.473 207.669 298.007 207.669 298.667C207.669 299.327 208.204 299.862 208.863 299.862Z" fill="#F1B517" stroke="black" stroke-width="0.341334"/>
<path d="M206.133 299.691C206.792 299.691 207.327 299.156 207.327 298.497C207.327 297.837 206.792 297.302 206.133 297.302C205.473 297.302 204.938 297.837 204.938 298.497C204.938 299.156 205.473 299.691 206.133 299.691Z" fill="#F1B517" stroke="black" stroke-width="0.341334"/>
<path fill-rule="evenodd" clip-rule="evenodd" d="M232.927 303.787C232.927 303.275 231.562 303.446 231.562 302.763C231.562 302.081 233.61 302.763 233.781 303.275C234.975 302.251 235.487 302.934 236.17 303.275C237.194 301.91 238.389 301.91 239.583 302.934C240.266 302.251 241.973 302.422 242.485 303.275C243.679 302.251 244.703 302.422 245.386 303.275C245.727 302.763 246.239 302.763 246.581 303.275C247.093 302.081 248.629 302.422 249.311 303.275C249.823 302.593 250.506 303.105 251.189 303.446C251.701 303.105 252.554 303.105 252.554 303.446C252.554 304.129 251.53 303.958 251.53 304.47C251.53 304.811 252.213 304.47 252.213 305.153C252.213 305.665 251.189 305.835 251.018 305.153C250.506 305.835 249.141 305.494 248.97 304.811C248.842 304.957 248.684 305.073 248.508 305.153C248.331 305.232 248.14 305.274 247.946 305.274C247.752 305.274 247.561 305.232 247.384 305.153C247.208 305.073 247.05 304.957 246.922 304.811C246.41 305.153 245.727 305.153 245.557 304.811C244.703 305.665 243.167 305.494 242.655 304.47H242.143C241.983 304.652 241.786 304.797 241.566 304.897C241.345 304.996 241.105 305.048 240.863 305.048C240.621 305.048 240.382 304.996 240.161 304.897C239.94 304.797 239.744 304.652 239.583 304.47C238.047 305.494 237.194 305.153 236.341 304.47C235.487 305.665 233.951 305.665 233.781 304.47C233.098 304.982 231.733 305.153 231.733 304.47C231.733 304.129 232.927 304.299 232.927 303.787ZM235.658 303.958C235.658 304.299 235.317 304.47 234.975 304.47C234.634 304.47 234.293 304.299 234.293 303.958C234.293 303.617 234.463 303.617 234.975 303.617C235.487 303.617 235.658 303.787 235.658 303.958ZM238.901 303.617C238.901 303.958 238.389 304.129 237.877 304.129C237.365 304.129 237.023 303.958 237.023 303.617C237.023 303.446 237.365 303.105 237.877 303.105C238.389 303.105 238.73 303.446 238.73 303.617H238.901ZM244.874 303.958C244.874 304.299 244.533 304.47 244.021 304.47C243.509 304.47 243.338 304.299 243.338 303.958C243.338 303.787 243.679 303.446 244.021 303.446C244.362 303.446 244.874 303.617 244.874 303.958ZM241.631 303.958C241.631 304.299 241.29 304.47 240.778 304.47C240.266 304.47 240.095 304.299 240.095 303.787C240.095 303.446 240.437 303.105 240.778 303.105C241.119 303.105 241.631 303.446 241.631 303.787V303.958ZM248.458 303.958C248.458 304.129 248.287 304.47 247.946 304.47C247.434 304.47 247.093 304.129 247.093 303.787C247.093 303.446 247.434 303.275 247.946 303.275C248.287 303.275 248.629 303.446 248.629 303.787L248.458 303.958ZM246.41 303.958C246.41 304.299 246.41 304.47 246.069 304.47C245.727 304.47 245.557 304.299 245.557 303.958C245.557 303.617 245.727 303.617 246.069 303.617L246.41 303.958ZM250.506 304.129C250.506 304.47 250.506 304.811 249.994 304.811C249.823 304.811 249.482 304.47 249.482 304.129C249.482 303.787 249.823 303.617 249.994 303.617C250.335 303.617 250.506 303.787 250.506 304.129Z" fill="#F1B517" stroke="black" stroke-width="0.341334"/>
<path d="M262.623 294.913L274.57 291.158L279.861 282.113L298.463 281.259L297.781 288.086L281.909 290.987L280.543 293.718L262.282 298.838L262.623 294.913Z" fill="#F1B517" stroke="black" stroke-width="0.341334"/>
<path d="M275.082 297.473L294.197 269.313L295.05 270.166L276.277 298.155L275.082 297.473Z" fill="#503200" stroke="black" stroke-width="0.341334"/>
<path d="M292.319 270.507L294.367 267.094C294.879 266.411 295.391 266.241 296.245 266.753C297.098 267.094 296.927 267.947 296.586 268.63L294.879 271.873L292.319 270.507Z" fill="white" stroke="black" stroke-width="0.341334"/>
<path d="M272.864 280.065L311.264 276.139L312.288 281.771L274.058 285.697L272.864 280.065Z" fill="#F1B517" stroke="black" stroke-width="0.341334"/>
<path d="M312.117 274.774L312.97 282.454H311.264L310.24 275.457L312.117 274.774ZM305.632 275.969L305.973 282.966H304.949L304.096 276.993L305.632 275.969ZM279.519 279.041L280.543 285.526H278.666L277.813 279.041H279.519ZM273.887 279.211L275.082 286.721L273.034 287.062L272.351 283.137C272.351 283.99 271.498 284.502 270.645 284.502C269.621 284.502 268.938 283.649 268.938 282.795C268.938 281.771 269.621 281.089 270.645 281.089C271.001 281.059 271.357 281.142 271.663 281.326C271.969 281.51 272.21 281.785 272.351 282.113L271.839 279.382L273.887 279.211ZM287.541 280.406L293.002 286.379L292.319 287.062L285.493 282.454L287.541 280.406ZM300.17 295.254L294.88 289.281L295.392 288.598L302.218 293.206L300.17 295.254ZM286.346 293.718L292.661 288.769L293.344 289.281L288.223 295.766L286.346 293.718ZM302.218 282.283L295.562 287.062L294.88 286.55L300 280.065L302.218 282.283ZM295.05 278.358L294.368 286.209H293.514L291.466 278.529L295.05 278.358ZM293.002 297.131L293.514 289.451H294.538L295.733 297.302L293.002 297.131ZM284.298 286.891L292.49 287.574V288.427L284.298 289.451V286.891ZM303.754 289.451L295.733 288.257V287.574L303.925 286.721V289.451H303.754Z" fill="#F1B517" stroke="black" stroke-width="0.341334"/>
<path d="M293.856 289.793C292.63 289.793 291.637 288.876 291.637 287.745C291.637 286.613 292.63 285.697 293.856 285.697C295.081 285.697 296.074 286.613 296.074 287.745C296.074 288.876 295.081 289.793 293.856 289.793Z" fill="#F1B517" stroke="black" stroke-width="0.341334"/>
<path fill-rule="evenodd" clip-rule="evenodd" d="M282.421 287.745C282.421 293.718 287.541 298.838 293.856 298.838C295.335 298.861 296.804 298.591 298.179 298.046C299.555 297.501 300.809 296.69 301.871 295.66C302.933 294.63 303.781 293.4 304.368 292.042C304.955 290.684 305.268 289.224 305.29 287.745C305.29 281.601 300.17 276.651 293.856 276.651C292.376 276.629 290.907 276.898 289.532 277.443C288.157 277.988 286.902 278.799 285.84 279.829C284.779 280.859 283.93 282.089 283.343 283.447C282.757 284.805 282.443 286.265 282.421 287.745ZM284.64 287.745C284.662 288.932 284.918 290.104 285.393 291.193C285.868 292.282 286.553 293.267 287.409 294.091C288.265 294.915 289.275 295.563 290.381 295.996C291.487 296.43 292.668 296.642 293.856 296.619C295.058 296.642 296.252 296.425 297.37 295.98C298.487 295.536 299.504 294.873 300.362 294.031C301.22 293.189 301.902 292.184 302.367 291.075C302.832 289.967 303.072 288.776 303.072 287.574C302.983 285.205 301.967 282.965 300.243 281.337C298.52 279.71 296.226 278.823 293.856 278.87C292.668 278.847 291.487 279.059 290.381 279.493C289.275 279.926 288.265 280.574 287.409 281.398C286.553 282.222 285.868 283.207 285.393 284.296C284.918 285.385 284.662 286.557 284.64 287.745Z" fill="#F1B517" stroke="black" stroke-width="0.341334" stroke-linecap="round"/>
<path d="M301.024 282.113L302.73 280.747ZM288.224 280.747L286.517 279.041ZM284.81 294.742L286.688 293.206ZM301.024 296.449L299.317 294.742ZM262.282 276.651L260.405 286.891L261.941 287.574L263.647 276.822L262.282 276.651Z" fill="#F1B517"/>
<path d="M301.024 282.113L302.73 280.747M288.224 280.747L286.517 279.041M284.81 294.742L286.688 293.206M301.024 296.449L299.317 294.742M262.282 276.651L260.405 286.891L261.941 287.574L263.647 276.822L262.282 276.651Z" stroke="black" stroke-width="0.341334"/>
<path d="M263.306 275.457C264.159 274.945 265.354 275.627 267.402 273.238C270.645 276.139 267.402 276.651 267.061 279.553C266.208 279.894 265.525 277.163 263.136 276.993L259.21 276.651L260.064 275.457H263.306Z" fill="white" stroke="black" stroke-width="0.341334"/>
<path d="M261.941 277.334L262.282 274.433C262.794 273.238 263.989 274.262 263.989 274.774L263.647 277.675L261.941 277.334Z" fill="white" stroke="black" stroke-width="0.341334"/>
<path fill-rule="evenodd" clip-rule="evenodd" d="M271.498 285.697V288.427C272.522 288.769 272.351 289.451 272.351 290.475V298.497C272.522 299.179 273.546 299.179 274.058 299.521C274.57 300.033 274.399 300.886 272.351 301.227L270.645 301.398C268.085 300.886 267.573 300.033 268.938 299.691C269.45 299.35 270.474 299.009 270.645 298.667V296.619H268.938C268.597 296.619 267.743 295.595 267.743 294.742V290.475C267.743 288.086 269.45 287.745 270.133 287.915V285.697H271.498ZM268.767 290.305C268.767 289.622 269.791 288.939 270.133 288.939C270.474 288.939 271.327 289.793 271.327 290.475V292.182C271.327 292.865 270.815 294.913 269.791 295.083C269.45 295.083 268.767 294.401 268.767 293.718V290.305Z" fill="#F1B517" stroke="black" stroke-width="0.341334"/>
<path d="M282.592 294.059C283.786 293.718 283.786 296.107 283.786 296.107H282.08C281.226 296.449 280.714 297.473 281.056 298.155C281.568 298.497 284.81 297.302 284.981 298.155C284.469 301.398 280.032 302.593 278.496 301.227C276.96 299.691 276.618 296.107 281.568 294.913L282.592 294.059ZM281.568 295.083L282.08 296.107Z" fill="white"/>
<path d="M282.08 296.107H283.786C283.786 296.107 283.786 293.718 282.592 294.059L281.568 294.913C276.618 296.107 276.96 299.691 278.496 301.227C280.032 302.593 284.469 301.398 284.981 298.155C284.81 297.302 281.568 298.497 281.056 298.155C280.714 297.473 281.226 296.449 282.08 296.107ZM282.08 296.107L281.568 295.083" stroke="black" stroke-width="0.341334"/>
<path d="M315.53 295.254L317.237 288.427ZM313.653 294.913L316.213 289.622ZM309.386 293.547L315.018 290.475ZM306.826 292.865L317.407 288.257Z" fill="#F1B517"/>
<path d="M315.53 295.254L317.237 288.427M313.653 294.913L316.213 289.622M309.386 293.547L315.018 290.475M306.826 292.865L317.407 288.257" stroke="black" stroke-width="0.341334"/>
<path d="M323.722 283.307L328.16 283.478C328.501 283.649 327.306 285.014 327.477 285.355C328.501 287.233 334.986 287.062 335.498 286.721C336.352 285.867 329.525 285.355 329.354 285.014C329.354 284.331 330.378 282.966 330.208 282.113C330.208 280.918 327.306 280.406 327.306 280.406L323.722 283.307Z" fill="#D20014" stroke="#D20014" stroke-width="0.341334"/>
<path d="M318.602 286.721L327.136 279.553C327.136 279.553 327.648 279.211 327.989 279.553C328.33 279.894 327.989 280.235 327.989 280.235L318.773 287.745L318.602 286.891V286.721Z" fill="#503200" stroke="black" stroke-width="0.341334"/>
<path d="M310.069 293.889L317.237 287.745L317.749 286.038L319.114 287.062C319.626 287.403 320.138 288.427 320.138 288.427H318.261L312.117 294.23L310.239 293.889H310.069Z" fill="#F1B517" stroke="black" stroke-width="0.341334"/>
<path d="M285.663 303.446C285.004 303.446 284.469 302.911 284.469 302.251C284.469 301.591 285.004 301.057 285.663 301.057C286.323 301.057 286.858 301.591 286.858 302.251C286.858 302.911 286.323 303.446 285.663 303.446Z" fill="#F1B517" stroke="black" stroke-width="0.341334"/>
<path d="M288.906 301.057C288.246 301.057 287.711 300.522 287.711 299.862C287.711 299.202 288.246 298.667 288.906 298.667C289.566 298.667 290.101 299.202 290.101 299.862C290.101 300.522 289.566 301.057 288.906 301.057Z" fill="#F1B517" stroke="black" stroke-width="0.341334"/>
<path d="M293.173 302.593C292.513 302.593 291.978 302.058 291.978 301.398C291.978 300.738 292.513 300.203 293.173 300.203C293.833 300.203 294.367 300.738 294.367 301.398C294.367 302.058 293.833 302.593 293.173 302.593Z" fill="#F1B517" stroke="black" stroke-width="0.341334"/>
<path d="M299.829 303.958C299.169 303.958 298.634 303.423 298.634 302.763C298.634 302.103 299.169 301.569 299.829 301.569C300.489 301.569 301.023 302.103 301.023 302.763C301.023 303.423 300.489 303.958 299.829 303.958Z" fill="#F1B517" stroke="black" stroke-width="0.341334"/>
<path d="M302.73 304.299C302.07 304.299 301.535 303.764 301.535 303.105C301.535 302.445 302.07 301.91 302.73 301.91C303.39 301.91 303.925 302.445 303.925 303.105C303.925 303.764 303.39 304.299 302.73 304.299Z" fill="#F1B517" stroke="black" stroke-width="0.341334"/>
<path d="M305.632 304.299C304.972 304.299 304.437 303.764 304.437 303.105C304.437 302.445 304.972 301.91 305.632 301.91C306.291 301.91 306.826 302.445 306.826 303.105C306.826 303.764 306.291 304.299 305.632 304.299Z" fill="#F1B517" stroke="black" stroke-width="0.341334"/>
<path d="M308.362 304.299C307.702 304.299 307.168 303.764 307.168 303.105C307.168 302.445 307.702 301.91 308.362 301.91C309.022 301.91 309.557 302.445 309.557 303.105C309.557 303.764 309.022 304.299 308.362 304.299Z" fill="#F1B517" stroke="black" stroke-width="0.341334"/>
<path d="M306.997 302.081C306.337 302.081 305.802 301.546 305.802 300.886C305.802 300.226 306.337 299.691 306.997 299.691C307.657 299.691 308.191 300.226 308.191 300.886C308.191 301.546 307.657 302.081 306.997 302.081Z" fill="#F1B517" stroke="black" stroke-width="0.341334"/>
<path d="M304.266 302.251C303.606 302.251 303.072 301.716 303.072 301.057C303.072 300.397 303.606 299.862 304.266 299.862C304.926 299.862 305.461 300.397 305.461 301.057C305.461 301.716 304.926 302.251 304.266 302.251Z" fill="#F1B517" stroke="black" stroke-width="0.341334"/>
<path d="M301.706 301.91C301.046 301.91 300.512 301.375 300.512 300.715C300.512 300.055 301.046 299.521 301.706 299.521C302.366 299.521 302.901 300.055 302.901 300.715C302.901 301.375 302.366 301.91 301.706 301.91Z" fill="#F1B517" stroke="black" stroke-width="0.341334"/>
<path d="M302.901 299.862C302.241 299.862 301.706 299.327 301.706 298.667C301.706 298.007 302.241 297.473 302.901 297.473C303.561 297.473 304.095 298.007 304.095 298.667C304.095 299.327 303.561 299.862 302.901 299.862Z" fill="#F1B517" stroke="black" stroke-width="0.341334"/>
<path d="M305.632 299.691C304.972 299.691 304.437 299.156 304.437 298.497C304.437 297.837 304.972 297.302 305.632 297.302C306.291 297.302 306.826 297.837 306.826 298.497C306.826 299.156 306.291 299.691 305.632 299.691Z" fill="#F1B517" stroke="black" stroke-width="0.341334"/>
<path fill-rule="evenodd" clip-rule="evenodd" d="M278.837 303.787C278.837 303.275 280.202 303.446 280.202 302.763C280.202 302.081 278.154 302.763 277.983 303.275C276.789 302.251 276.277 302.934 275.594 303.275C274.57 301.91 273.375 301.91 272.181 302.934C271.498 302.251 269.791 302.422 269.279 303.275C268.085 302.251 267.061 302.422 266.378 303.275C266.037 302.763 265.525 302.763 265.183 303.275C264.671 302.081 263.135 302.422 262.453 303.275C261.941 302.593 261.258 303.105 260.575 303.446C260.063 303.105 259.21 303.105 259.21 303.446C259.21 304.129 260.234 303.958 260.234 304.47C260.234 304.811 259.551 304.47 259.551 305.153C259.551 305.665 260.575 305.835 260.746 305.153C261.258 305.835 262.623 305.494 262.794 304.811C262.922 304.957 263.08 305.073 263.256 305.153C263.433 305.232 263.624 305.274 263.818 305.274C264.012 305.274 264.203 305.232 264.38 305.153C264.556 305.073 264.714 304.957 264.842 304.811C265.354 305.153 266.037 305.153 266.207 304.811C267.061 305.665 268.597 305.494 269.109 304.47H269.621C269.781 304.652 269.978 304.797 270.199 304.897C270.419 304.996 270.659 305.048 270.901 305.048C271.143 305.048 271.382 304.996 271.603 304.897C271.824 304.797 272.021 304.652 272.181 304.47C273.717 305.494 274.57 305.153 275.423 304.47C276.277 305.665 277.813 305.665 277.983 304.47C278.666 304.982 280.031 305.153 280.031 304.47C280.031 304.129 278.837 304.299 278.837 303.787ZM276.106 303.958C276.106 304.299 276.447 304.47 276.789 304.47C277.13 304.47 277.471 304.299 277.471 303.958C277.471 303.617 277.301 303.617 276.789 303.617C276.277 303.617 276.106 303.787 276.106 303.958ZM272.863 303.617C272.863 303.958 273.375 304.129 273.887 304.129C274.399 304.129 274.741 303.958 274.741 303.617C274.741 303.446 274.399 303.105 273.887 303.105C273.375 303.105 273.034 303.446 273.034 303.617H272.863ZM266.89 303.958C266.89 304.299 267.231 304.47 267.743 304.47C268.255 304.47 268.426 304.299 268.426 303.958C268.426 303.787 268.085 303.446 267.743 303.446C267.402 303.446 266.89 303.617 266.89 303.958ZM270.133 303.958C270.133 304.299 270.474 304.47 270.986 304.47C271.498 304.47 271.669 304.299 271.669 303.787C271.669 303.446 271.327 303.105 270.986 303.105C270.645 303.105 270.133 303.446 270.133 303.787V303.958ZM263.306 303.958C263.306 304.129 263.477 304.47 263.818 304.47C264.33 304.47 264.671 304.129 264.671 303.787C264.671 303.446 264.33 303.275 263.818 303.275C263.477 303.275 263.135 303.446 263.135 303.787L263.306 303.958ZM265.354 303.958C265.354 304.299 265.354 304.47 265.695 304.47C266.037 304.47 266.207 304.299 266.207 303.958C266.207 303.617 266.037 303.617 265.695 303.617L265.354 303.958ZM261.258 304.129C261.258 304.47 261.258 304.811 261.77 304.811C261.941 304.811 262.282 304.47 262.282 304.129C262.282 303.787 261.941 303.617 261.77 303.617C261.429 303.617 261.258 303.787 261.258 304.129Z" fill="#F1B517" stroke="black" stroke-width="0.341334"/>
<path d="M255.626 282.795C251.359 282.795 247.946 284.502 247.946 286.379C247.946 286.721 247.946 287.062 248.287 287.403C249.141 288.427 252.213 289.11 255.797 289.11C259.21 289.11 261.941 288.598 262.965 287.574C263.306 287.233 263.477 286.891 263.477 286.379C263.477 284.502 260.063 282.966 255.626 282.966V282.795Z" fill="#0A328C" stroke="#0A328C" stroke-width="0.341334"/>
<path d="M263.477 286.721V298.667C263.477 300.203 260.063 301.227 255.797 301.227C251.53 301.227 247.946 300.203 247.946 298.667V286.721C247.946 288.086 251.359 289.281 255.626 289.281C260.063 289.281 263.477 288.086 263.477 286.721Z" fill="#F1B517" stroke="black" stroke-width="0.341334"/>
<path d="M247.946 286.721V288.427L251.701 300.374L254.773 291.158L258.186 300.545L260.405 291.67L263.477 297.643V294.401L260.746 288.598C260.409 288.725 260.068 288.838 259.722 288.939L258.015 295.425L255.455 289.281C255.057 289.29 254.659 289.29 254.261 289.281L251.701 295.425L248.97 287.915C248.287 287.574 247.946 287.062 247.946 286.721Z" fill="#D20014" stroke="#D20014" stroke-width="0.341334"/>
<path d="M263.477 296.449V298.667C263.477 300.203 260.063 301.227 255.797 301.227C251.53 301.227 247.946 300.203 247.946 298.667V296.449C247.946 297.985 251.359 299.009 255.626 299.009C260.063 299.009 263.477 297.985 263.477 296.449Z" fill="#0A328C" stroke="#0A328C" stroke-width="0.341334"/>
<path d="M258.869 298.667L256.991 299.009V301.227L259.039 301.057L258.869 298.667ZM250.677 298.497V300.715L252.554 301.057V298.838C251.922 298.764 251.295 298.65 250.677 298.497ZM247.946 296.449V298.667C247.946 299.179 248.287 299.521 248.799 299.862V297.643C248.287 297.302 247.946 296.961 247.946 296.449ZM263.477 296.79C263.477 297.131 262.794 297.643 262.111 297.985V300.203C262.965 299.862 263.477 299.35 263.477 298.667V296.79Z" fill="#F1B517" stroke="black" stroke-width="0.341334"/>
<path d="M263.477 286.721V298.667C263.477 300.203 260.063 301.227 255.797 301.227C251.53 301.227 247.946 300.203 247.946 298.667V286.721" stroke="black" stroke-width="0.341334"/>
<path d="M261.77 285.867C261.77 286.721 259.04 287.574 255.797 287.574C252.383 287.574 249.653 286.721 249.653 285.867C249.653 285.014 252.384 284.331 255.626 284.331C259.04 284.331 261.77 285.014 261.77 286.038V285.867Z" fill="white" stroke="white" stroke-width="0.341334"/>
<path d="M253.749 287.062L254.09 289.11H255.797L255.967 287.062H253.749ZM260.746 286.55L259.039 286.891L259.21 288.939L260.917 288.598L260.746 286.55ZM251.53 283.137L250.335 283.649L250.506 285.355L251.53 285.014V283.137ZM255.626 282.625H255.114L255.455 284.673H256.479L256.821 282.625C256.423 282.61 256.024 282.61 255.626 282.625ZM260.234 283.307L260.063 285.014L261.258 285.526V283.819C260.928 283.627 260.586 283.456 260.234 283.307ZM249.141 288.086L249.482 285.867L247.775 285.014V287.574L249.141 288.086ZM263.477 287.574V285.355L262.111 285.867L263.477 287.574ZM279.349 273.067C280.714 273.067 282.762 274.774 282.933 277.334C282.933 279.041 280.031 279.041 280.031 279.041C280.031 279.894 278.325 280.577 276.959 280.747C275.594 280.747 277.301 278.187 277.301 278.187C276.447 275.969 277.642 273.579 277.642 273.579L279.349 273.067Z" fill="#F1B517" stroke="black" stroke-width="0.341334"/>
<path d="M277.301 278.187H278.666C278.666 278.187 278.666 278.699 279.007 278.699C279.349 278.699 279.519 278.017 279.519 278.017H281.567" fill="#F1B517"/>
<path d="M277.301 278.187H278.666C278.666 278.187 278.666 278.699 279.007 278.699C279.349 278.699 279.519 278.017 279.519 278.017H281.567" stroke="black" stroke-width="0.341334"/>
<path d="M280.032 274.603C281.226 273.75 280.202 272.043 279.349 272.043H277.642C276.618 272.043 275.253 273.067 275.423 273.75C275.423 274.603 276.106 274.945 276.789 274.774C277.13 274.774 277.813 273.75 278.154 273.75C278.666 273.75 279.861 274.774 280.032 274.603Z" fill="#D20014" stroke="#F1B517" stroke-width="0.341334"/>
<path fill-rule="evenodd" clip-rule="evenodd" d="M194.869 298.326C193.845 298.497 193.674 299.691 194.015 300.886C189.578 302.081 185.482 303.787 181.386 304.982C181.215 304.129 183.434 301.91 183.434 301.91C183.946 302.081 184.458 303.446 184.458 303.446C184.458 300.715 187.189 299.009 187.189 299.009C185.482 298.667 180.874 300.715 180.362 301.398C180.362 301.398 182.069 301.057 182.41 301.398C182.41 301.398 178.655 305.323 178.485 306.518C179.167 307.713 185.311 308.737 185.311 308.737C185.311 309.078 183.605 310.443 183.605 310.443C186.165 310.785 189.919 309.078 190.943 308.054C190.943 308.054 188.042 307.713 185.823 305.835C185.823 305.835 186.165 307.03 185.823 307.542C185.823 307.542 182.41 306.518 181.898 305.835C181.898 305.835 190.431 303.787 194.527 302.422C194.698 303.275 195.551 304.641 196.575 304.299C197.087 304.129 196.917 302.934 196.575 301.91C196.714 302.033 196.876 302.127 197.052 302.186C197.228 302.245 197.414 302.267 197.599 302.251C198.282 302.251 198.794 301.739 198.794 301.057C198.794 300.374 198.282 299.862 197.599 299.862C197.34 299.876 197.089 299.963 196.878 300.114C196.666 300.266 196.502 300.474 196.405 300.715C196.234 299.862 195.722 298.326 195.039 298.497L194.869 298.326ZM198.282 301.057C198.282 301.398 197.941 301.569 197.599 301.569C197.52 301.597 197.434 301.605 197.351 301.592C197.267 301.58 197.188 301.546 197.121 301.496C197.053 301.445 196.999 301.378 196.963 301.302C196.928 301.225 196.912 301.141 196.917 301.057C196.917 300.715 197.258 300.374 197.599 300.374C197.941 300.374 198.111 300.715 198.111 301.057H198.282Z" fill="#F1B517" stroke="black" stroke-width="0.341334"/>
<path d="M329.354 303.617C329.696 302.934 329.354 299.862 329.354 299.862C328.501 299.862 327.648 301.057 327.648 301.057C328.501 298.326 326.282 294.23 326.282 294.23C327.818 294.401 332.938 299.35 333.109 300.374C333.109 300.374 330.89 299.521 330.549 299.691C331.061 302.251 332.768 303.446 333.45 304.811C333.45 304.811 330.549 305.323 330.719 307.883H328.842C328.16 307.03 329.013 305.665 329.013 305.665L315.871 300.203C315.018 299.862 313.141 298.838 313.482 297.814C313.653 296.961 316.895 298.326 317.578 298.667L329.354 303.617Z" fill="#F1B517" stroke="black" stroke-width="0.341334"/>
<path d="M316.725 301.227L318.432 298.497C318.944 297.643 317.749 296.79 316.896 297.814L315.189 300.374C314.506 301.91 316.042 302.251 316.896 301.227H316.725Z" fill="#F1B517" stroke="black" stroke-width="0.341334"/>
<path d="M224.2 307.8L224.1 304.8L220.3 304.9L220.1 308.3L224.2 307.8Z" fill="white" stroke="black" stroke-width="0.3"/>
<path d="M196.7 312.2L191.7 309.4C212.4 311.3 216.7 304 221.7 303.6C224.7 303.4 225.2 307 219.3 305.3L220.8 309.1C220.8 309.1 206 317.4 191.6 314.1L196.6 312.1L196.7 312.2ZM287.2 307.8V304.8H291.9L292.1 308.2L287.1 307.8H287.2Z" fill="white" stroke="black" stroke-width="0.3"/>
<path d="M315.6 311.4L320.4 308.8C296.6 309.6 302 304.9 290.1 303.6C287.1 303.3 284.7 307.3 292.5 305.3L291 309.1H294.7C302.584 313.877 312.035 315.35 321 313.2L315.6 311.4Z" fill="white" stroke="black" stroke-width="0.3"/>
<path d="M219.2 305.3V310.7C219.2 310.7 232.4 315.7 255.9 315.7C279.5 315.7 292.6 310.7 292.6 310.7V305.3C292.6 305.3 282.6 309.9 255.9 309.9C229.3 309.9 219.2 305.3 219.2 305.3Z" fill="white" stroke="black" stroke-width="0.3"/>
<path d="M221.1 310.8L222.3 306.8L222.8 307L221.8 310.4L223.8 311L223.7 311.5L221.1 310.7V310.8ZM225 309V308.2L225.2 307.6L225.8 307.7L225.6 308.4L225.3 309.1L225 309ZM230.6 308.7L231.2 308.9L230.7 311.2C230.7 311.6 230.5 311.9 230.3 312.2L229.7 312.6C229.372 312.685 229.028 312.685 228.7 312.6C228.336 312.561 227.99 312.422 227.7 312.2C227.54 312.036 227.435 311.826 227.4 311.6V310.6L227.9 308.2L228.5 308.3L228 310.6C227.9 311 227.9 311.3 228 311.4C228 311.6 228 311.8 228.2 311.9L228.7 312.1H229.7C229.9 311.9 230 311.6 230.1 311.1L230.6 308.7ZM231.2 313L231.9 309H232.5L234.2 312.6L234.7 309.4L235.2 309.5L234.5 313.5H234L232.3 309.9L231.8 313.1H231.2V313ZM235.6 313.7L236.2 309.7H236.7L236.1 313.7H235.6ZM237.2 311.9C237.229 311.328 237.48 310.79 237.9 310.4C238.123 310.223 238.381 310.096 238.657 310.027C238.933 309.958 239.22 309.949 239.5 310C239.9 310 240.2 310.1 240.5 310.3C240.8 310.6 241 310.8 241.1 311.2C241.2 311.5 241.3 311.9 241.2 312.3C241.144 312.659 241.007 313.001 240.8 313.3C240.6 313.7 240.3 313.9 240 314C239.687 314.144 239.344 314.213 239 314.2C238.636 314.161 238.29 314.022 238 313.8C237.6 313.6 237.4 313.3 237.3 312.9C237.19 312.579 237.156 312.237 237.2 311.9ZM237.8 311.9C237.7 312.5 237.8 312.9 238 313.2C238.3 313.5 238.6 313.7 239 313.7C239.4 313.7 239.8 313.7 240.1 313.4C240.4 313.1 240.6 312.8 240.6 312.2C240.668 311.904 240.668 311.596 240.6 311.3C240.499 311.053 240.324 310.844 240.1 310.7C239.899 310.537 239.656 310.433 239.4 310.4C239 310.4 238.7 310.4 238.4 310.7C238 310.9 237.8 311.4 237.8 312V311.9ZM241.7 314.4L242 310.3H242.6L244.6 313.7L244.8 310.5H245.4L245 314.7H244.5L242.5 311.2L242.2 314.4H241.7ZM247.7 314.8L247.8 310.7L250.8 310.8L250.7 311.3H248.4V312.5H250.4L250.3 313H248.3V314.8H247.7ZM250.7 314.9L252.5 310.9H253.1L254.8 315H254.1L253.6 313.7H252L251.5 315H250.9L250.7 314.9ZM252 313.3H253.5L253.1 312.2C252.987 311.905 252.887 311.604 252.8 311.3C252.8 311.6 252.6 311.8 252.5 312.1L252 313.3ZM255.3 315V310.9H255.9V315H255.3ZM257.9 315V311.4H256.5V310.9H259.8V311.3H258.4L258.5 315H257.9ZM262.1 314.9L261.9 310.8H262.5L262.6 314.4L264.7 314.3V314.8H262.1V314.9ZM265 314.8L266.3 310.6H266.9L268.9 314.5H268.3L267.7 313.3L265.9 313.5L265.6 314.7H265V314.8ZM266 313H267.5L267 311.8C266.856 311.539 266.722 311.272 266.6 311C266.554 311.271 266.487 311.539 266.4 311.8L266.1 313H266ZM271 314.3L270.6 310.3L273.4 309.9V310.4L271.2 310.7L271.3 311.9L273.3 311.7V312.2L271.4 312.4L271.6 314.2L271.1 314.3H271ZM274.2 312C274.1 311.3 274.2 310.7 274.5 310.3C274.665 310.077 274.875 309.89 275.116 309.753C275.357 309.615 275.624 309.529 275.9 309.5C276.245 309.479 276.589 309.548 276.9 309.7C277.3 309.7 277.6 310 277.8 310.3C278.016 310.619 278.155 310.983 278.207 311.365C278.26 311.746 278.223 312.135 278.1 312.5C277.985 312.821 277.776 313.1 277.5 313.3C277.2 313.5 276.8 313.7 276.5 313.7C276.131 313.771 275.75 313.736 275.4 313.6C275.072 313.448 274.794 313.205 274.6 312.9C274.389 312.603 274.252 312.26 274.2 311.9V312ZM274.7 311.9C274.8 312.4 275 312.8 275.3 312.9C275.6 313.2 276 313.3 276.4 313.3C276.8 313.3 277.2 313 277.4 312.7C277.6 312.4 277.7 312 277.6 311.4C277.559 311.115 277.456 310.842 277.3 310.6C277.156 310.376 276.946 310.201 276.7 310.1C276.449 309.989 276.171 309.954 275.9 310C275.708 310.01 275.52 310.06 275.348 310.146C275.176 310.232 275.023 310.352 274.9 310.5C274.7 310.8 274.7 311.3 274.8 311.9H274.7ZM279.2 313.3L278.4 309.3L280.3 308.9H281.2C281.4 308.9 281.6 309 281.7 309.2C281.9 309.3 282 309.5 282 309.8C282.024 310.05 281.952 310.3 281.8 310.5C281.7 310.7 281.4 310.9 281 311L281.4 311.2L282 311.6L282.9 312.6L282.2 312.7L281.5 312C281.341 311.826 281.174 311.659 281 311.5C280.91 311.42 280.809 311.352 280.7 311.3C280.601 311.283 280.499 311.283 280.4 311.3H279.4L279.8 313.2H279.2V313.3ZM279.3 310.9L280.5 310.7C280.8 310.7 281 310.7 281.1 310.5C281.204 310.441 281.288 310.353 281.342 310.246C281.395 310.139 281.415 310.019 281.4 309.9C281.396 309.798 281.367 309.699 281.315 309.611C281.262 309.524 281.188 309.451 281.1 309.4H280.4L279.1 309.6L279.3 310.9ZM286 310.5H286.6C286.6 310.9 286.5 311.3 286.2 311.6C286 311.9 285.6 312.1 285.2 312.2C284.84 312.303 284.459 312.303 284.1 312.2C283.728 312.077 283.41 311.83 283.2 311.5C283.001 311.197 282.865 310.857 282.8 310.5V309.4C282.8 309 283 308.7 283.3 308.5C283.59 308.278 283.936 308.139 284.3 308.1C284.626 308.006 284.973 308.006 285.3 308.1C285.7 308.3 286 308.5 286.2 308.9L285.7 309.1C285.556 308.876 285.346 308.701 285.1 308.6C284.872 308.53 284.628 308.53 284.4 308.6C284 308.6 283.8 308.7 283.6 308.9C283.411 309.085 283.304 309.336 283.3 309.6C283.248 310.163 283.389 310.727 283.7 311.2C283.9 311.5 284.1 311.6 284.3 311.7C284.6 311.7 284.8 311.8 285.1 311.7C285.4 311.7 285.6 311.6 285.8 311.3C286 311.1 286.1 310.8 286 310.5ZM287.6 311.5L286.5 307.6L289.5 306.8V307.3L287.1 308L287.5 309.2L289.7 308.6L289.9 309L287.6 309.6L288 311L290.5 310.3L290.7 310.8L287.6 311.5Z" fill="#000001"/>
</g>
<defs>
<clipPath id="clip0_2_4772">
<rect width="512" height="512" fill="white"/>
</clipPath>
</defs>
</svg>
