<svg width="512" height="512" viewBox="0 0 512 512" fill="none" xmlns="http://www.w3.org/2000/svg">
<g clip-path="url(#clip0_2_4966)">
<mask id="mask0_2_4966" style="mask-type:luminance" maskUnits="userSpaceOnUse" x="1" y="0" width="522" height="521">
<path d="M1.74023 0H522.61V520.8H1.81024L1.74023 0Z" fill="white"/>
</mask>
<g mask="url(#mask0_2_4966)">
<path fill-rule="evenodd" clip-rule="evenodd" d="M642.1 520.8H-102V0H642.1V520.8Z" fill="#BA0000"/>
<path fill-rule="evenodd" clip-rule="evenodd" d="M287.62 382.55C287.83 381.85 288.32 375.55 288.04 375.55C287.76 375.55 278.45 364.49 278.66 364.49C278.87 364.49 290.7 367.15 290.7 366.73C290.7 366.38 295.46 355.11 295.46 354.83L301.2 368.62L312.82 373.73L304.63 380.45L306.52 393.75C306.52 393.96 298.33 386.05 298.33 386.05L289.23 387.03C289.23 387.03 288.04 382.97 287.62 382.55Z" fill="#FFEF00" stroke="black" stroke-width="2.24"/>
<path fill-rule="evenodd" clip-rule="evenodd" d="M224.2 210.49C216.5 214.48 186.61 248.64 182.48 253.89C179.05 261.66 172.33 271.39 165.4 277.69C158.05 283.29 153.92 290.99 154.97 298.13C154.9 307.16 159.87 313.25 163.93 319.62C166.31 322.42 169.53 324.31 172.89 324.52C179.89 325.5 180.52 327.6 183.95 328.93C197.74 347.69 218.25 361.48 232.95 372.33C239.659 375.547 245.804 379.825 251.15 385C254.268 391.28 255.298 398.393 254.09 405.3L243.17 446.6C241.28 457.87 251.08 455.35 251.57 453.11C256.05 447.37 262.63 451.43 272.01 418.25L284.96 400.75C284.96 400.75 290 398.79 290 398.3C297.56 389.2 291.75 384.02 287.48 382.34L278.03 378.84C278.03 378.84 267.04 367.92 266.55 367.92C261.37 352.73 235.75 320.39 229.87 315.91C226.981 312.597 223.606 309.741 219.86 307.44C213.91 304.57 211.95 303.59 208.31 302.12C205.23 300.93 207.4 297.57 209.36 296.03C229.59 285.04 245.62 272.79 265.08 260.33L268.09 258.3L261.09 218.4L228.68 206.99C227 208.18 225.74 209.3 224.2 210.49Z" fill="white" stroke="black" stroke-width="2.66"/>
<path fill-rule="evenodd" clip-rule="evenodd" d="M251.29 420.35C251.43 419.93 271.59 416.22 271.59 416.22L269.14 423.71L249.05 429.73L251.29 420.35Z" fill="#FFEC00"/>
<path d="M198.72 344.4C200.794 339.632 203.809 335.333 207.587 331.76C211.364 328.187 215.824 325.415 220.7 323.61" stroke="black" stroke-width="2.24"/>
<path d="M250.59 420.49C251.92 420.14 257.66 418.39 259.34 418.18L264.66 416.78C266.69 416.29 267.88 415.94 269.98 415.59C271.59 414.89 273.2 414.54 274.88 414.12M246.88 432.95C247.09 432.74 248.49 431.55 249.47 430.92C250.66 430.57 254.58 428.82 256.12 428.61L260.88 427.21C262.63 426.79 263.68 426.37 265.57 426.02C267.024 425.417 268.521 424.926 270.05 424.55" stroke="black" stroke-width="2.45"/>
<path d="M255.14 347.34H254.86C255.77 347.34 255.21 347.27 253.95 348.74C253.53 349.93 249.82 352.52 247.02 352.52C245.62 352.66 243.59 352.8 242.26 352.8C241.84 352.8 241.35 352.52 240.93 352.52M254.86 406.98H256.26C257.8 406.98 259.27 407.19 260.6 407.26C262.07 407.26 263.54 407.68 265.01 407.68C266.41 407.89 268.23 407.82 269.7 408.03C271.38 408.03 272.78 408.38 274.53 408.38M274.53 408.38C275.93 408.38 276.7 408.66 278.31 408.66L274.53 408.38ZM244.99 442.26C245.13 442.05 246.39 440.86 247.3 440.23C248.35 439.88 251.99 438.2 253.39 437.92L257.73 436.52C259.34 436.1 260.39 435.68 262.07 435.33C263.4 434.7 264.73 434.28 266.13 433.93M272.15 391.93C271.31 394.31 272.36 394.94 272.85 395.92C273.55 396.9 275.51 398.44 278.59 399.42L282.09 400.54C283 400.68 283.42 400.89 284.12 401.17M157.56 304.71H157.84C156.93 304.71 157.49 304.78 159.03 303.59C159.94 302.54 160.71 302.05 161.62 301M176.32 325.36C176.46 325.36 193.12 316.96 194.94 315.14C196.2 314.23 197.11 313.32 198.65 312.27C199.63 311.78 200.33 311.08 201.24 310.52C202.01 309.4 202.99 308.77 203.55 307.72C204.6 306.88 204.18 305.9 204.95 304.85C205.37 303.73 206.14 301.91 206.35 300.86M227.56 313.32C227.63 313.95 227.28 315.77 227.35 317.17C227.28 318.78 225.18 323.82 222.66 325.36" stroke="black" stroke-width="2.24"/>
<path d="M197.6 313.18L204.53 315.28C210.417 317.89 216.042 321.054 221.33 324.73C222.38 325.57 224.27 326.34 225.04 327.32C226.16 328.3 227 329.42 227.84 330.54C228.847 331.61 229.738 332.783 230.5 334.04C233.72 336.63 242.4 354.69 242.68 355.74C243.188 356.771 243.655 357.822 244.08 358.89C244.78 359.59 245.2 360.64 245.83 361.76C246.46 363.16 247.16 363.86 247.93 364.98C248.84 365.68 250.1 366.87 251.36 367.57C252.62 368.69 253.88 369.11 254.86 369.88C256.19 370.44 271.45 380.1 272.15 380.59C273.55 381.71 277.75 386.19 274.81 389.34C273.55 390.39 272.43 391.86 271.31 392.49C270.157 393.445 268.824 394.159 267.39 394.59C260.53 396.69 257.03 395.99 255.7 395.99H254.3M164 279.09C165.89 279.79 165.12 279.23 166.87 280.07C168.06 280.56 168.83 280.56 170.02 280.98C171.21 281.4 174.64 282.03 176.32 283.71C177.51 284.76 178.42 285.67 179.82 286.51C181.269 287.47 182.818 288.268 184.44 288.89C186.12 289.52 187.94 290.22 189.62 290.29H197.6H193.4H197.46" stroke="black" stroke-width="2.24"/>
<path fill-rule="evenodd" clip-rule="evenodd" d="M163.51 298.34C167.85 298.06 175.06 299.39 175.2 299.39L184.79 299.25C189.76 298.76 190.88 296.8 191.72 295.47C193.61 292.6 194.87 291.55 196.34 289.38C198.65 287.63 201.87 291.69 201.94 291.69C210.13 299.39 203.62 308.77 203.13 309.12C199.07 312.76 198.23 313.04 195.78 310.66C193.33 307.79 192.56 306.46 190.53 305.48C186.68 303.59 178.56 305.06 178.42 305.06L174.22 306.6C172.19 307.3 170.93 309.05 167.57 309.68C164.07 309.89 162.88 309.54 161.2 306.74C158.82 303.17 160.01 298.83 163.51 298.34Z" fill="#FFE606" stroke="black" stroke-width="2.24"/>
<path fill-rule="evenodd" clip-rule="evenodd" d="M390.17 122.78C389.54 122.85 383.87 125.58 383.87 125.79C383.87 126 378.97 139.65 378.9 139.44C378.83 139.23 375.26 127.54 374.91 127.82C374.56 128.03 362.45 129.43 362.31 129.5C362.1 129.64 371.41 117.81 371.41 117.81L370.15 105.14L380.09 108.92L390.8 100.8C390.94 100.73 388 111.79 388 111.79L393.32 119.14C393.32 119.14 390.31 122.22 390.17 122.78Z" fill="#FFEF00" stroke="black" stroke-width="2.24"/>
<path fill-rule="evenodd" clip-rule="evenodd" d="M271.31 262.36C278.59 267.19 322.97 276.5 329.62 277.48C338.02 276.64 349.92 277.69 358.74 280.63C367.21 284.34 375.89 284.13 381.7 279.79C389.54 275.45 392.41 268.03 395.98 261.45C397.31 257.95 397.38 254.24 395.91 251.16C393.25 244.65 394.86 243.04 394.3 239.4C403.89 218.26 405.85 193.62 408.16 175.35C407.677 167.935 408.386 160.491 410.26 153.3C414.178 147.524 419.846 143.156 426.43 140.84L467.87 130.13C478.58 126.21 471.58 118.93 469.34 119.63C462.2 118.51 462.48 110.81 428.95 118.93L407.39 116.13C407.39 116.13 403.19 112.77 402.77 112.98C391.15 110.88 389.47 118.44 390.17 122.99L391.71 132.93C391.71 132.93 387.51 147.84 387.79 148.33C377.15 160.23 361.26 198.73 360.21 206.08C359.79 213.01 357.13 211.75 357.83 218.47C357.83 223.79 357.27 220.5 359.02 231.35C359.44 234.57 355.45 234.36 353.14 233.45C333.61 221.13 315.06 213.15 294.69 202.37L291.47 200.69L260.18 226.31L266.06 260.19C267.88 261.1 269.56 261.59 271.31 262.36Z" fill="white" stroke="black" stroke-width="2.66"/>
<path fill-rule="evenodd" clip-rule="evenodd" d="M440.92 135.94C440.5 136.01 427.41 120.26 427.41 120.26L435.11 118.72L450.23 133.28L440.92 135.94Z" fill="#FFEC00"/>
<path d="M400.53 218.96C395.356 219.497 390.127 218.98 385.158 217.44C380.189 215.9 375.584 213.369 371.62 210" stroke="black" stroke-width="2.24"/>
<path d="M441.41 136.5C440.5 135.52 436.16 131.32 435.11 129.92C433.879 128.585 432.595 127.301 431.26 126.07L427.62 122.01C426.325 120.881 425.109 119.665 423.98 118.37M454.08 133.56C453.033 133.253 452.023 132.83 451.07 132.3C450.23 131.46 446.8 128.8 445.82 127.68C444.683 126.46 443.492 125.293 442.25 124.18L438.89 120.68C437.669 119.718 436.522 118.665 435.46 117.53" stroke="black" stroke-width="2.45"/>
<path d="M375.4 168.35L375.54 168.63C375.12 167.86 375.33 168.35 377.22 168.63C378.48 168.49 382.54 170.45 383.94 172.83C384.864 174.144 385.728 175.498 386.53 176.89C386.74 177.24 386.74 177.87 386.95 178.15M427.55 139.37L427.41 139.16L426.85 138.11C426.15 136.85 425.59 135.31 424.96 134.19C424.26 132.93 423.91 131.46 423.21 130.2C422.65 128.8 421.74 127.4 421.18 125.93C420.41 124.39 420.06 123.06 419.15 121.52M419.15 121.52C418.45 120.26 418.31 119.42 417.54 118.09L419.15 121.52ZM463.18 130.69C462.9 130.69 461.22 130.13 460.31 129.64C459.47 128.94 456.18 126.56 455.27 125.44C454.198 124.384 453.077 123.38 451.91 122.43C450.72 121.17 449.88 120.47 448.76 119.21C447.59 118.367 446.489 117.43 445.47 116.41M405.99 131.6C408.51 131.18 408.51 129.92 409.14 129.08C409.63 127.89 409.98 125.44 409.35 122.29C409.052 121.114 408.819 119.922 408.65 118.72C408.3 117.88 408.23 117.32 408.16 116.62M386.11 274.19L385.97 273.98C386.46 274.68 386.25 274.26 384.43 273.49C383.03 273.21 382.26 272.79 380.93 272.51M394.93 247.8C394.86 247.59 379.39 237.23 376.94 236.53C375.54 235.83 374.14 235.55 372.53 234.71C371.62 234.08 370.71 233.8 369.73 233.31C368.4 233.17 367.35 232.61 366.23 232.61C364.9 232.19 364.27 233.03 362.94 232.82L358.88 233.52M359.3 209.02C359.79 208.6 361.61 208.04 362.8 207.27C364.2 206.57 369.66 205.87 372.18 207.41" stroke="black" stroke-width="2.24"/>
<path d="M373.79 235.2L372.32 228.2C371.71 221.798 371.71 215.352 372.32 208.95C372.53 207.55 372.25 205.59 372.74 204.4C373.09 202.93 373.65 201.6 374.14 200.34C374.7 198.8 375.26 197.47 375.89 196.35C376.59 192.29 388.07 175.84 388.84 175.14C389.503 174.179 390.203 173.245 390.94 172.34C391.22 171.36 391.92 170.45 392.62 169.33C393.53 168.14 393.81 167.23 394.37 166.04C394.51 164.85 394.93 163.1 394.93 161.7C395.28 160.02 395.07 158.76 395.28 157.5C395.07 156.1 395.98 138.04 396.12 137.2C396.4 135.45 398.15 129.57 402.42 130.62C403.96 131.18 405.78 131.46 406.83 132.09C408.37 132.51 409.56 133.63 410.68 134.47C415.79 139.44 416.91 142.87 417.54 144.06L418.24 145.32M360.56 280.7L360.42 280.42C360.77 281.12 360.56 280.77 360.07 279.3L359.37 275.1C359.09 273.77 358.46 272.3 358.67 271.46C358.18 270.2 358.46 269.08 358.67 267.82C358.95 266.21 359.16 265.09 359.16 263.55C359.37 261.66 359.16 260.26 359.3 258.44C358.81 257.04 358.74 255.71 357.9 254.24C357.2 252.84 356.71 251.51 355.94 250.04L353.91 246.54" stroke="black" stroke-width="2.24"/>
<path fill-rule="evenodd" clip-rule="evenodd" d="M377.71 272.23C375.33 268.59 372.88 261.66 372.81 261.52L367.98 253.26C365.18 249.06 362.87 249.06 361.33 249.06C357.83 248.78 356.36 248.15 353.77 247.94C351.11 246.82 353.07 242.06 353 241.92C355.73 231.07 367.07 232.12 367.56 232.4C372.81 234.08 373.44 234.78 372.6 238C371.2 241.64 370.5 242.9 370.57 245.14C370.85 249.48 376.1 255.85 376.17 255.99L379.67 258.79C381.21 260.19 383.31 260.47 385.55 263.13C387.44 266.07 387.72 267.26 386.11 270.13C384.08 273.91 379.81 275.03 377.71 272.23Z" fill="#FFE606" stroke="black" stroke-width="2.24"/>
<path fill-rule="evenodd" clip-rule="evenodd" d="M108.84 171.64C109.33 172.06 114.72 175.35 114.86 175.14C115 174.93 129.07 171.71 129 171.92C128.93 172.13 121.09 181.44 121.44 181.58C121.79 181.79 129.63 191.17 129.84 191.24L115 189.98L105.06 198.03L102.82 187.6L90.2198 183.12C90.0098 183.05 100.86 179.41 100.86 179.41L104.08 171.01C104.08 171.01 108.28 171.78 108.84 171.64Z" fill="#FFEF00" stroke="black" stroke-width="2.24"/>
<path fill-rule="evenodd" clip-rule="evenodd" d="M290.7 194.6C290.77 185.85 274.25 143.57 271.45 137.48C265.427 129.708 260.916 120.875 258.15 111.44C256.61 102.34 251.71 95.13 244.85 92.75C236.94 88.55 229.17 90.16 221.75 90.79C218.04 91.56 214.89 93.59 213.14 96.46C209.15 102.2 206.91 101.78 204.18 104.3C181.22 107.8 159.52 119.7 143 127.75C137.062 132.211 130.444 135.686 123.4 138.04C114.09 138.11 107.3 133.7 104.08 131.32L72.4398 102.62C63.3398 95.76 61.0298 105.56 62.7798 107.1C65.8598 113.68 59.2798 117.6 84.3398 141.26L93.8598 160.86C93.8598 160.86 93.2998 166.18 93.7898 166.46C98.3398 177.31 105.69 174.58 109.05 171.5L116.54 164.71C116.54 164.71 131.24 160.09 131.52 159.6C147.34 161.98 188.22 154.21 194.94 150.99C201.03 147.63 201.38 150.5 206.63 146.23C211.04 143.29 208.66 145.6 216.78 138.18C219.23 136.08 221.26 139.58 221.68 141.96C222.17 165.06 225.6 184.87 227.7 207.9L228.12 211.4L266.69 223.65L291.82 200.13C291.54 198.1 291.12 196.42 290.77 194.53L290.7 194.6Z" fill="white" stroke="black" stroke-width="2.66"/>
<path fill-rule="evenodd" clip-rule="evenodd" d="M92.0398 121.94C92.3898 122.22 86.3698 141.82 86.3698 141.82L80.8398 136.22L84.7598 115.57L92.0398 121.94Z" fill="#FFEC00"/>
<path d="M183.6 110.25C186.888 114.275 189.328 118.923 190.772 123.916C192.215 128.908 192.633 134.142 192 139.3" stroke="black" stroke-width="2.24"/>
<path d="M92.2502 121.24C91.9702 122.57 90.8502 128.45 90.2202 130.06C89.7731 131.841 89.3995 133.639 89.1002 135.45L87.7002 140.7C87.4902 142.38 87.1402 144.06 86.6502 145.74M82.8702 112.21C83.0102 112.49 83.4302 114.31 83.5002 115.43C83.2902 116.62 82.9402 120.89 82.4502 122.43C82.0987 124.027 81.8184 125.638 81.6102 127.26L80.4202 132.02C80.3005 133.552 80.0665 135.073 79.7202 136.57" stroke="black" stroke-width="2.45"/>
<path d="M155.11 158.9L155.18 158.69C154.83 159.53 155.18 159.04 154.34 157.29C153.5 156.31 152.94 151.83 154.2 149.38C154.782 147.879 155.436 146.407 156.16 144.97C156.3 144.62 156.86 144.27 157 143.99M102.26 131.25L102.19 131.46L101.63 132.51C100.93 133.91 100.02 135.03 99.3901 136.22C98.6901 137.55 97.6401 138.6 97.0101 139.93C96.1701 141.12 95.4001 142.73 94.4901 143.92C93.6501 145.39 92.7401 146.51 91.9701 148.05M91.9701 148.05C91.2701 149.31 90.6401 149.87 89.9401 151.27L91.9701 148.05ZM75.4501 106.19C75.5901 106.47 76.1501 108.15 76.1501 109.2C76.0101 110.32 75.8701 114.31 75.4501 115.64C75.1701 117.18 74.8901 118.65 74.7501 120.19L73.7001 124.6C73.6243 126.013 73.437 127.417 73.1401 128.8M107.58 153.51C105.83 151.69 104.78 152.32 103.73 152.25C102.47 152.46 100.23 153.51 97.9201 155.75C97.1062 156.661 96.2415 157.526 95.3301 158.34C94.8401 159.04 94.4201 159.39 93.9301 159.88M237.78 91.98L237.64 92.26C238.06 91.42 237.71 91.91 238.13 93.8C238.62 95.13 238.69 96.04 239.25 97.3M210.83 99.12C210.76 99.26 210.48 117.95 211.25 120.33C211.53 121.87 211.95 123.13 212.16 125.02C212.16 126.07 212.37 127.05 212.44 128.1C213.14 129.29 213.21 130.48 213.84 131.46C214.19 132.79 215.24 132.86 215.8 134.05C216.64 134.89 217.9 136.43 218.67 137.06M197.88 150.15C197.32 149.94 195.78 148.75 194.59 148.19C193.19 147.35 189.69 143.22 189.48 140.28" stroke="black" stroke-width="2.24"/>
<path d="M211.88 123.69L206.84 128.8C201.816 132.8 196.426 136.315 190.74 139.3C189.48 139.86 187.94 141.26 186.68 141.4C185.28 142.03 183.88 142.24 182.48 142.52C180.94 142.87 179.54 143.22 178.28 143.22C174.43 144.9 154.48 144.27 153.36 144.06C152.191 144.036 151.023 143.966 149.86 143.85C148.95 144.06 147.76 143.99 146.5 144.06C144.96 143.92 144.05 144.2 142.72 144.41C141.74 144.9 139.99 145.53 138.87 146.3C137.26 146.93 136.28 147.77 135.16 148.26C129.404 151.888 123.57 155.389 117.66 158.76C116.05 159.46 110.17 161.21 108.7 157.08C108.35 155.47 107.58 153.79 107.51 152.53C107.09 151.06 107.3 149.45 107.44 148.05C108.84 141.05 111.01 138.25 111.64 137.06L112.34 135.8M257.24 109.9L257.1 110.11C257.45 109.41 257.31 109.83 256.33 111.02C255.28 111.86 254.09 113.12 253.18 113.96C252.27 114.87 251.36 116.13 250.52 116.48C249.68 117.6 248.63 117.88 247.51 118.58C246.142 119.045 244.828 119.656 243.59 120.4C241.91 121.31 240.79 122.15 239.25 123.06C238.34 124.32 237.36 125.09 236.45 126.56C235.75 127.89 234.91 129.01 234.14 130.48L232.25 134.12M244.15 208.46L244.5 207.97C244.01 208.95 244.15 208.67 244.64 207.06C244.64 205.17 245.06 202.86 245.13 201.11C245.41 199.36 245.69 197.4 245.69 195.51C245.62 193.41 245.62 191.52 245.27 189.49C245.27 187.6 245.06 185.64 244.99 183.75C244.985 182.008 244.798 180.272 244.43 178.57C244.393 176.973 244.229 175.381 243.94 173.81C244.15 172.48 243.8 171.29 243.52 170.31L242.26 165.06L241.21 160.86C241 159.32 240.16 157.36 239.81 155.96C239.282 154.849 238.905 153.671 238.69 152.46C238.2 151.34 237.57 150.08 237.29 148.82L235.75 145.04L234.35 141.4C233.86 140 233.16 138.81 232.88 137.34C232.39 136.85 232.25 136.36 231.97 135.94" stroke="black" stroke-width="2.24"/>
<path fill-rule="evenodd" clip-rule="evenodd" d="M240.72 100.17C238.97 104.16 234.49 109.97 234.42 110.11L230.22 118.65C228.26 123.34 229.52 125.23 230.29 126.56C231.97 129.57 232.32 131.18 233.58 133.49C234.07 136.29 228.96 137.34 228.89 137.41C218.39 141.05 213 130.97 212.93 130.41C211.53 125.16 211.74 124.25 214.96 123.2C218.67 122.29 220.14 122.29 221.96 120.96C225.46 118.37 227.91 110.46 227.98 110.32L228.47 105.91C228.75 103.81 227.77 101.85 228.82 98.56C230.22 95.41 231.06 94.5 234.42 94.22C238.62 93.87 241.98 96.88 240.72 100.17Z" fill="#FFE606" stroke="black" stroke-width="2.24"/>
<path fill-rule="evenodd" clip-rule="evenodd" d="M226.86 203.07C225.32 201.67 256.82 214.55 261.16 214.69C267.11 212.52 291.61 191.8 291.61 191.8C291.82 193.9 292.73 199.08 295.11 200.2C285.59 207.9 277.05 215.25 267.6 222.95C268.3 235.13 266.06 248.01 272.22 261.59C272.22 261.59 264.8 261.73 264.8 261.59C258.29 255.08 255.98 223.65 255.98 223.65L224.9 210C226.44 209.02 227.63 206.01 227 203.14L226.86 203.07Z" fill="#FFEF00" stroke="black" stroke-width="2.24"/>
<path d="M256.89 235.27C257.45 234.92 251.29 238.21 249.61 238.98C220.91 254.31 206.21 276.57 205.3 277.41C204.81 278.32 203.9 279.58 203.06 280.84C202.36 281.89 201.38 282.94 200.75 283.99C199.59 285.613 198.352 287.178 197.04 288.68C196.9 289.38 197.53 288.47 197.32 288.89M276.49 217.14C275.93 216.86 281.67 220.85 283.14 221.9C309.88 240.38 336.34 243.39 337.53 243.81C338.65 243.81 340.19 244.02 341.66 244.23C342.85 244.3 344.25 244.72 345.51 244.79C346.91 245 349.99 245.49 351.39 245.98C352.09 245.77 350.97 245.63 351.39 245.63" stroke="black" stroke-width="2.24"/>
</g>
</g>
<defs>
<clipPath id="clip0_2_4966">
<rect width="512" height="512" fill="white"/>
</clipPath>
</defs>
</svg>
