<svg width="512" height="512" viewBox="0 0 512 512" fill="none" xmlns="http://www.w3.org/2000/svg">
<g clip-path="url(#clip0_2_4998)">
<path d="M0 0H512V170.7H0V0Z" fill="#FF9933"/>
<path d="M0 170.7H512V341.3H0V170.7Z" fill="white"/>
<path d="M0 341.3H512V512H0V341.3Z" fill="#128807"/>
<path d="M256 324.267C293.703 324.267 324.267 293.703 324.267 256C324.267 218.297 293.703 187.733 256 187.733C218.297 187.733 187.733 218.297 187.733 256C187.733 293.703 218.297 324.267 256 324.267Z" fill="#000088"/>
<path d="M256 315.733C288.99 315.733 315.733 288.99 315.733 256C315.733 223.01 288.99 196.267 256 196.267C223.01 196.267 196.267 223.01 196.267 256C196.267 288.99 223.01 315.733 256 315.733Z" fill="white"/>
<path d="M256 267.947C262.598 267.947 267.947 262.598 267.947 256C267.947 249.402 262.598 244.053 256 244.053C249.402 244.053 244.053 249.402 244.053 256C244.053 262.598 249.402 267.947 256 267.947Z" fill="#000088"/>
<path d="M314.82 266.865C316.503 267.086 318.046 265.902 318.267 264.22C318.489 262.538 317.304 260.995 315.622 260.773C313.94 260.552 312.397 261.736 312.176 263.418C311.954 265.1 313.138 266.643 314.82 266.865Z" fill="#000088"/>
<path d="M256 315.733L258.048 279.893L256 262.827L253.952 279.893L256 315.733Z" fill="#000088"/>
<path d="M310.005 281.718C311.572 282.368 313.369 281.623 314.018 280.056C314.668 278.488 313.923 276.691 312.356 276.042C310.788 275.393 308.991 276.137 308.342 277.705C307.693 279.272 308.437 281.069 310.005 281.718Z" fill="#000088"/>
<path d="M240.54 313.698L251.795 279.609L254.234 262.594L247.838 278.549L240.54 313.698Z" fill="#000088"/>
<path d="M301.507 294.819C302.854 295.852 304.782 295.598 305.815 294.252C306.848 292.906 306.594 290.978 305.248 289.945C303.902 288.912 301.973 289.166 300.94 290.512C299.908 291.858 300.161 293.786 301.507 294.819Z" fill="#000088"/>
<path d="M226.134 307.731L245.827 277.716L252.587 261.912L242.28 275.668L226.134 307.731Z" fill="#000088"/>
<path d="M289.91 305.275C290.943 306.621 292.871 306.875 294.217 305.842C295.563 304.809 295.817 302.88 294.784 301.534C293.751 300.188 291.823 299.935 290.477 300.967C289.131 302 288.877 303.929 289.91 305.275Z" fill="#000088"/>
<path d="M213.763 298.238L240.553 274.343L251.173 260.827L237.657 271.447L213.763 298.238Z" fill="#000088"/>
<path d="M276 312.372C276.65 313.94 278.447 314.684 280.014 314.035C281.581 313.385 282.326 311.588 281.677 310.021C281.027 308.453 279.23 307.709 277.663 308.358C276.095 309.008 275.351 310.805 276 312.372Z" fill="#000088"/>
<path d="M204.269 285.867L236.331 269.72L250.087 259.413L234.283 266.173L204.269 285.867Z" fill="#000088"/>
<path d="M260.729 315.628C260.95 317.31 262.494 318.494 264.176 318.273C265.858 318.051 267.042 316.508 266.82 314.826C266.599 313.144 265.056 311.96 263.374 312.181C261.692 312.403 260.508 313.946 260.729 315.628Z" fill="#000088"/>
<path d="M198.302 271.46L233.45 264.162L249.406 257.767L232.39 260.206L198.302 271.46Z" fill="#000088"/>
<path d="M245.135 314.82C244.914 316.502 246.098 318.045 247.78 318.267C249.462 318.488 251.005 317.304 251.226 315.622C251.448 313.94 250.264 312.397 248.582 312.175C246.9 311.954 245.356 313.138 245.135 314.82Z" fill="#000088"/>
<path d="M196.267 256L232.107 258.048L249.173 256L232.107 253.952L196.267 256Z" fill="#000088"/>
<path d="M230.281 310.004C229.632 311.571 230.376 313.368 231.944 314.018C233.511 314.667 235.308 313.923 235.958 312.355C236.607 310.788 235.863 308.991 234.295 308.341C232.728 307.692 230.931 308.436 230.281 310.004Z" fill="#000088"/>
<path d="M198.302 240.54L232.391 251.794L249.406 254.233L233.451 247.838L198.302 240.54Z" fill="#000088"/>
<path d="M217.181 301.507C216.148 302.853 216.402 304.782 217.748 305.815C219.094 306.847 221.022 306.594 222.055 305.248C223.088 303.902 222.834 301.973 221.488 300.94C220.142 299.907 218.214 300.161 217.181 301.507Z" fill="#000088"/>
<path d="M204.269 226.133L234.284 245.827L250.088 252.587L236.332 242.28L204.269 226.133Z" fill="#000088"/>
<path d="M206.725 289.91C205.379 290.942 205.126 292.871 206.158 294.217C207.191 295.563 209.12 295.817 210.466 294.784C211.812 293.751 212.066 291.823 211.033 290.477C210 289.131 208.071 288.877 206.725 289.91Z" fill="#000088"/>
<path d="M213.762 213.762L237.657 240.553L251.173 251.173L240.553 237.657L213.762 213.762Z" fill="#000088"/>
<path d="M199.628 276.001C198.061 276.65 197.316 278.447 197.965 280.015C198.615 281.582 200.412 282.326 201.979 281.677C203.547 281.028 204.291 279.231 203.642 277.663C202.993 276.096 201.195 275.352 199.628 276.001Z" fill="#000088"/>
<path d="M226.133 204.269L242.28 236.332L252.587 250.088L245.827 234.284L226.133 204.269Z" fill="#000088"/>
<path d="M196.372 260.729C194.69 260.951 193.506 262.494 193.727 264.176C193.949 265.858 195.492 267.042 197.174 266.821C198.856 266.599 200.04 265.056 199.819 263.374C199.597 261.692 198.054 260.508 196.372 260.729Z" fill="#000088"/>
<path d="M240.54 198.302L247.838 233.451L254.233 249.406L251.794 232.391L240.54 198.302Z" fill="#000088"/>
<path d="M197.18 245.135C195.497 244.914 193.954 246.098 193.733 247.78C193.511 249.462 194.696 251.005 196.378 251.227C198.06 251.448 199.603 250.264 199.824 248.582C200.046 246.9 198.862 245.357 197.18 245.135Z" fill="#000088"/>
<path d="M256 196.267L253.952 232.107L256 249.173L258.048 232.107L256 196.267Z" fill="#000088"/>
<path d="M201.995 230.282C200.428 229.632 198.631 230.377 197.982 231.944C197.332 233.512 198.077 235.309 199.644 235.958C201.212 236.607 203.009 235.863 203.658 234.295C204.307 232.728 203.563 230.931 201.995 230.282Z" fill="#000088"/>
<path d="M271.46 198.302L260.205 232.391L257.766 249.406L264.162 233.451L271.46 198.302Z" fill="#000088"/>
<path d="M210.493 217.181C209.146 216.148 207.218 216.402 206.185 217.748C205.152 219.094 205.406 221.022 206.752 222.055C208.098 223.088 210.027 222.834 211.06 221.488C212.092 220.142 211.839 218.214 210.493 217.181Z" fill="#000088"/>
<path d="M285.866 204.269L266.173 234.284L259.413 250.088L269.72 236.332L285.866 204.269Z" fill="#000088"/>
<path d="M222.09 206.725C221.057 205.379 219.129 205.125 217.783 206.158C216.437 207.191 216.183 209.12 217.216 210.466C218.249 211.812 220.177 212.065 221.523 211.033C222.869 210 223.123 208.071 222.09 206.725Z" fill="#000088"/>
<path d="M298.237 213.762L271.447 237.657L260.827 251.173L274.343 240.553L298.237 213.762Z" fill="#000088"/>
<path d="M235.999 199.628C235.35 198.06 233.553 197.316 231.985 197.965C230.418 198.615 229.674 200.412 230.323 201.979C230.972 203.547 232.769 204.291 234.337 203.642C235.904 202.992 236.649 201.195 235.999 199.628Z" fill="#000088"/>
<path d="M307.731 226.133L275.668 242.28L261.912 252.587L277.716 245.827L307.731 226.133Z" fill="#000088"/>
<path d="M251.271 196.372C251.049 194.69 249.506 193.506 247.824 193.727C246.142 193.949 244.958 195.492 245.179 197.174C245.401 198.856 246.944 200.04 248.626 199.819C250.308 199.597 251.492 198.054 251.271 196.372Z" fill="#000088"/>
<path d="M313.698 240.54L278.549 247.838L262.594 254.233L279.609 251.794L313.698 240.54Z" fill="#000088"/>
<path d="M266.864 197.18C267.086 195.498 265.902 193.955 264.22 193.733C262.538 193.512 260.994 194.696 260.773 196.378C260.552 198.06 261.736 199.603 263.418 199.825C265.1 200.046 266.643 198.862 266.864 197.18Z" fill="#000088"/>
<path d="M315.733 256L279.893 253.952L262.826 256L279.893 258.048L315.733 256Z" fill="#000088"/>
<path d="M281.718 201.996C282.367 200.429 281.623 198.632 280.056 197.982C278.488 197.333 276.691 198.077 276.042 199.645C275.393 201.212 276.137 203.009 277.704 203.659C279.272 204.308 281.069 203.564 281.718 201.996Z" fill="#000088"/>
<path d="M313.697 271.46L279.609 260.206L262.594 257.767L278.549 264.162L313.697 271.46Z" fill="#000088"/>
<path d="M294.818 210.493C295.851 209.147 295.597 207.218 294.251 206.185C292.905 205.152 290.977 205.406 289.944 206.752C288.911 208.098 289.165 210.027 290.511 211.06C291.857 212.093 293.785 211.839 294.818 210.493Z" fill="#000088"/>
<path d="M307.73 285.867L277.715 266.173L261.911 259.413L275.667 269.72L307.73 285.867Z" fill="#000088"/>
<path d="M305.274 222.09C306.62 221.058 306.873 219.129 305.841 217.783C304.808 216.437 302.879 216.183 301.533 217.216C300.187 218.249 299.933 220.177 300.966 221.523C301.999 222.869 303.928 223.123 305.274 222.09Z" fill="#000088"/>
<path d="M298.237 298.238L274.342 271.447L260.826 260.827L271.446 274.343L298.237 298.238Z" fill="#000088"/>
<path d="M312.371 235.999C313.939 235.35 314.683 233.553 314.034 231.985C313.385 230.418 311.588 229.674 310.02 230.323C308.453 230.972 307.708 232.769 308.358 234.337C309.007 235.904 310.804 236.648 312.371 235.999Z" fill="#000088"/>
<path d="M285.866 307.731L269.72 275.668L259.413 261.912L266.172 277.716L285.866 307.731Z" fill="#000088"/>
<path d="M315.627 251.271C317.31 251.049 318.494 249.506 318.272 247.824C318.051 246.142 316.508 244.958 314.826 245.179C313.143 245.401 311.959 246.944 312.181 248.626C312.402 250.308 313.945 251.492 315.627 251.271Z" fill="#000088"/>
<path d="M271.46 313.698L264.162 278.549L257.766 262.594L260.205 279.609L271.46 313.698Z" fill="#000088"/>
</g>
<defs>
<clipPath id="clip0_2_4998">
<rect width="512" height="512" fill="white"/>
</clipPath>
</defs>
</svg>
