<svg width="512" height="512" viewBox="0 0 512 512" fill="none" xmlns="http://www.w3.org/2000/svg">
<g clip-path="url(#clip0_2_5099)">
<path d="M0 0H512V512H0V0Z" fill="white"/>
<path fill-rule="evenodd" clip-rule="evenodd" d="M512 444C506.3 451 501.4 467.4 486.1 467.4C455.6 467.4 448 432.8 425.1 432.8C409.9 432.8 402.3 467.5 387.1 467.5C356.5 467.5 348.9 432.8 326.1 432.8C310.8 432.8 303.2 467.5 288.1 467.5C257.5 467.5 249.9 432.8 227.1 432.8C211.8 432.8 204.2 467.5 189 467.5C158.5 467.5 150.9 432.8 128 432.8C112.7 432.8 105.1 467.5 89.9 467.5C59.4 467.5 51.8 432.8 28.9 432.8C13.7 432.8 9.2 457.5 0 457.5V502C9.2 502 13.7 477.3 29 477.3C51.8 477.3 59.5 512 89.9 512C105.2 512 112.8 477.3 128 477.3C150.9 477.3 158.5 512 189 512C204.2 512 211.8 477.3 227 477.3C249.9 477.3 257.6 512 288 512C303.3 512 310.9 477.3 326.1 477.3C349 477.3 356.6 512 387.1 512C402.3 512 409.9 477.3 425.1 477.3C448 477.3 455.7 512 486.1 512C501.4 512 506.3 502.2 512 495.2V444ZM512 357.4C506.3 364.5 501.4 380.8 486.1 380.8C455.6 380.8 448 346.2 425.1 346.2C409.9 346.2 402.3 380.8 387.1 380.8C356.5 380.8 348.9 346.2 326.1 346.2C310.8 346.2 303.2 380.8 288.1 380.8C257.5 380.8 249.9 346.2 227.1 346.2C211.8 346.2 204.2 380.8 189 380.8C158.5 380.8 150.9 346.2 128 346.2C112.7 346.2 105.1 380.8 89.9 380.8C59.4 380.8 51.8 346.2 28.9 346.2C13.7 346.2 9.2 370.9 0 370.9V415.5C9.2 415.5 13.7 390.8 29 390.8C51.8 390.8 59.5 425.5 89.9 425.5C105.2 425.5 112.8 390.8 128 390.8C150.9 390.8 158.5 425.5 189 425.5C204.2 425.5 211.8 390.8 227 390.8C249.9 390.8 257.6 425.5 288 425.5C303.3 425.5 310.9 390.8 326.1 390.8C349 390.8 356.6 425.5 387.1 425.5C402.3 425.5 409.9 390.8 425.1 390.8C448 390.8 455.7 425.5 486.1 425.5C501.4 425.5 506.3 415.7 512 408.6V357.4ZM512 270.8C506.3 278 501.4 294.3 486.1 294.3C455.6 294.3 448 259.6 425.1 259.6C409.9 259.6 402.3 294.3 387.1 294.3C356.5 294.3 348.9 259.6 326.1 259.6C310.8 259.6 303.2 294.3 288.1 294.3C257.5 294.3 249.9 259.6 227.1 259.6C211.8 259.6 204.2 294.3 189 294.3C158.5 294.3 150.9 259.6 128 259.6C112.7 259.6 105.1 294.3 89.9 294.3C59.4 294.3 51.8 259.6 28.9 259.6C13.7 259.6 9.2 284.4 0 284.4V328.9C9.2 328.9 13.7 304.3 29 304.3C51.8 304.3 59.5 338.9 89.9 338.9C105.2 338.9 112.8 304.3 128 304.3C150.9 304.3 158.5 338.9 189 338.9C204.2 338.9 211.8 304.3 227 304.3C249.9 304.3 257.6 338.9 288 338.9C303.3 338.9 310.9 304.3 326.1 304.3C349 304.3 356.6 338.9 387.1 338.9C402.3 338.9 409.9 304.3 425.1 304.3C448 304.3 455.7 338.9 486.1 338.9C501.4 338.9 506.3 329 512 322V270.8ZM512 184.3C506.3 191.3 501.4 207.7 486.1 207.7C455.6 207.7 448 173.1 425.1 173.1C409.9 173.1 402.3 207.7 387.1 207.7C356.5 207.7 348.9 173.1 326.1 173.1C310.8 173.1 303.2 207.7 288.1 207.7C257.5 207.7 249.9 173.1 227.1 173.1C211.8 173.1 204.2 207.7 189 207.7C158.5 207.7 150.9 173.1 128 173.1C112.7 173.1 105.1 207.7 89.9 207.7C59.4 207.7 51.8 173.1 28.9 173.1C13.7 173.1 9.2 197.8 0 197.8V242.4C9.2 242.4 13.7 217.7 29 217.7C51.8 217.7 59.5 252.4 89.9 252.4C105.2 252.4 112.8 217.7 128 217.7C150.9 217.7 158.5 252.4 189 252.4C204.2 252.4 211.8 217.7 227 217.7C249.9 217.7 257.6 252.4 288 252.4C303.3 252.4 310.9 217.7 326.1 217.7C349 217.7 356.6 252.4 387.1 252.4C402.3 252.4 409.9 217.7 425.1 217.7C448 217.7 455.7 252.4 486.1 252.4C501.4 252.4 506.3 242.4 512 235.4V184.3ZM512 97.7C506.3 104.7 501.4 121.2 486.1 121.2C455.6 121.2 448 86.5 425.1 86.5C409.9 86.5 402.3 121.2 387.1 121.2C356.5 121.2 348.9 86.5 326.1 86.5C310.8 86.5 303.2 121.2 288.1 121.2C257.5 121.2 249.9 86.5 227.1 86.5C211.8 86.5 204.2 121.2 189 121.2C158.5 121.2 150.9 86.5 128 86.5C112.7 86.5 105.1 121.2 89.9 121.2C59.4 121.2 51.8 86.5 28.9 86.5C13.7 86.6 9.1 111.5 0 111.5V156C9.2 156 13.7 131.3 29 131.3C51.8 131.3 59.4 165.9 90 165.9C105.2 165.9 112.8 131.3 128 131.3C150.9 131.3 158.5 165.9 189 165.9C204.2 165.9 211.8 131.3 227 131.3C249.9 131.3 257.5 165.9 288 165.9C303.3 165.9 310.9 131.3 326.1 131.3C349 131.3 356.6 165.9 387.1 165.9C402.3 165.9 409.9 131.3 425.1 131.3C448 131.3 455.7 165.9 486.1 165.9C501.3 165.9 506.3 156.1 512 149V98V97.7ZM512 11.2C506.3 18.2 501.4 34.7 486.1 34.7C455.6 34.7 448 0 425.1 0C409.9 0 402.3 34.7 387.1 34.7C356.5 34.7 348.9 0 326.1 0C310.8 0 303.2 34.7 288.1 34.7C257.5 34.7 249.9 0 227.1 0C211.8 0 204.2 34.7 188.9 34.7C158.4 34.7 151 0 128 0C112.7 0 105.2 34.7 89.9 34.7C59.4 34.7 51.8 0 28.9 0C13.8 0 9.2 24.8 0 24.8V69.4C9.2 69.4 13.7 44.7 29 44.7C51.8 44.7 59.4 79.4 90 79.4C105.2 79.4 112.8 44.7 128 44.7C150.9 44.7 158.5 79.4 189 79.4C204.2 79.4 211.8 44.7 227 44.7C249.9 44.7 257.5 79.4 288 79.4C303.3 79.4 310.9 44.7 326.1 44.7C349 44.7 356.6 79.4 387.1 79.4C402.3 79.4 409.9 44.7 425.1 44.7C448 44.7 455.7 79.4 486.1 79.4C501.3 79.4 506.3 69.5 512 62.4V11.2Z" fill="#000063"/>
<path fill-rule="evenodd" clip-rule="evenodd" d="M377.3 169L374 470.2C374 486.1 388.3 486.1 389.8 470.2L386.7 169.2L377.3 169Z" fill="#A24300" stroke="white" stroke-width="1.9"/>
<path fill-rule="evenodd" clip-rule="evenodd" d="M410.1 281L400.1 270L397.7 281.1L393.3 265.1L389.3 273.1L388.6 256.1L384.6 264.2L383.8 247.2L379.8 255.2L377.4 235.2L373.4 243.2L371.1 223.2L367.1 231.2L364.7 211.2L363.6 201.2L365.6 197.2L370.8 199.2L379.2 207.1L395.9 223L385.5 219L402.3 235L391.9 231L408.7 247L398.3 243L413.4 256L403 252L418.2 264.9L407.8 260.9L419.3 274.9L407.3 267.9L410.1 281Z" fill="#006D00" stroke="white" stroke-width="1.7"/>
<path d="M410.1 281L365.6 197.2M396 223L372 209.2L367.1 231.2" stroke="black" stroke-width="0.3"/>
<path d="M402.3 235L378.3 221.1L373.4 243.3" stroke="black" stroke-width="0.3"/>
<path d="M408.7 247L384.7 233.1L379.7 255.2" stroke="black" stroke-width="0.3"/>
<path d="M413.4 256L391 245L384.5 264.1" stroke="black" stroke-width="0.3"/>
<path d="M418.2 265L395.8 254L389.3 273.2" stroke="black" stroke-width="0.3"/>
<path d="M419.3 275L399 260L397.6 281.1" stroke="black" stroke-width="0.3"/>
<path fill-rule="evenodd" clip-rule="evenodd" d="M293.2 138L309.5 144.3L304.8 131.9L319 145.9L317.7 135.9L329.2 152.7L327.8 142.7L339.4 159.5L338 149.4L353 168.4L351.6 158.4L366.5 177.4L365.1 167.4L380.1 186.4L387.5 196L388.2 201L382.1 201.5L369.1 197.5L343.4 189.6L355.6 188.6L329.8 180.6L342.1 179.6L316.3 171.6L328.5 170.6L306.1 164.9L318.3 163.9L295.9 158.2L308.1 157.1L288.5 148.6L304.1 149.8L293.3 138H293.2Z" fill="#006D00" stroke="white" stroke-width="1.8"/>
<path d="M293.2 138L388.2 201M343.4 189.6L374.6 192L365.1 167.4" stroke="black" stroke-width="0.3"/>
<path d="M329.8 180.6L361 183L351.6 158.4" stroke="black" stroke-width="0.3"/>
<path d="M316.3 171.7L347.5 174L338 149.4" stroke="black" stroke-width="0.3"/>
<path d="M306.1 165H333.9L327.9 142.6" stroke="black" stroke-width="0.3"/>
<path d="M296 158.2H323.8L317.7 135.9" stroke="black" stroke-width="0.3"/>
<path d="M288.5 148.6L317 153.8L304.8 131.9" stroke="black" stroke-width="0.3"/>
<path fill-rule="evenodd" clip-rule="evenodd" d="M482.5 159L469 169L484 170.7L463 175.7L474.2 178.9L451.6 180.6L462.7 183.9L440.1 185.5L451.2 188.8L424.8 192.1L435.9 195.4L409.5 198.7L420.6 202.1L394.2 205.4L381 207L375.4 205.4L377.4 200.4L387.2 192.1L406.7 175.6L402.5 185.5L422 169L417.8 178.9L437.3 162.4L433.1 172.3L448.8 157.4L444.6 167.4L460.2 152.4L456.1 162.4L473.5 150.8L465.5 162.4L482.5 159Z" fill="#006D00" stroke="white" stroke-width="1.8"/>
<path d="M482.5 159L375.5 205.3M406.7 175.6L390.7 198.7L420.7 202.1" stroke="black" stroke-width="0.3"/>
<path d="M422 169L406 192L436 195.3" stroke="black" stroke-width="0.3"/>
<path d="M437.3 162.4L421.3 185.5L451.3 188.8" stroke="black" stroke-width="0.3"/>
<path d="M448.8 157.4L436.6 178.9L462.7 183.9" stroke="black" stroke-width="0.3"/>
<path d="M460.3 152.4L448 174L474 179" stroke="black" stroke-width="0.3"/>
<path d="M473.5 150.8L455.7 170.6H484" stroke="black" stroke-width="0.3"/>
<path fill-rule="evenodd" clip-rule="evenodd" d="M480.4 259.3L463.4 254.3L469.5 266.3L453.8 253.4L456.2 263.4L443 247.5L445.4 257.5L432.1 241.6L434.5 251.6L417.7 233.7L420.1 243.7L403.2 225.9L405.6 235.8L388.7 218L380.3 209L379.1 204.1L385.1 203.1L398.4 206.1L424.9 211.9L412.9 213.9L439.3 219.8L427.3 221.8L453.8 227.6L441.8 229.6L464.7 233.6L452.7 235.6L475.5 239.4L463.5 241.4L483.9 248.4H468.3L480.3 259.3H480.4Z" fill="#006D00" stroke="white" stroke-width="1.8"/>
<path d="M480.4 259.3L379 204M424.8 211.8L393.4 211.9L405.5 235.7" stroke="black" stroke-width="0.3"/>
<path d="M439.3 219.8H408L420 243.6" stroke="black" stroke-width="0.3"/>
<path d="M453.8 227.6L422.5 227.8L434.5 251.5" stroke="black" stroke-width="0.3"/>
<path d="M464.7 233.5L436.9 235.6L445.4 257.4" stroke="black" stroke-width="0.3"/>
<path d="M475.5 239.4L447.8 241.5L456.2 263.3" stroke="black" stroke-width="0.3"/>
<path d="M484 248.3L455 245.5L469.5 266.3" stroke="black" stroke-width="0.3"/>
<path fill-rule="evenodd" clip-rule="evenodd" d="M304.4 265L312.9 253.2L299.9 255.1L315.9 246.1L305.7 245.6L324.1 239L313.9 238.6L332.2 232.1L322 231.6L343 222.8L332.9 222.3L353.9 213.5L343.7 213.1L364.8 204.2L375.3 199.8L380.4 200L380.1 205L374.4 214.4L362.8 233.4L363.5 223.7L352 242.7L352.6 233L341.1 252L341.8 242.3L333 259L333.6 249.3L324.8 266L325.5 256.2L314.3 270.4L317.7 258.3L304.4 265Z" fill="#006D00" stroke="white" stroke-width="1.7"/>
<path d="M304.4 265L380.4 200M363 233.5L369.7 209.5L343.8 213.2" stroke="black" stroke-width="0.3"/>
<path d="M352 242.8L358.7 218.6L332.9 222.3" stroke="black" stroke-width="0.3"/>
<path d="M341.1 252L348 228L322.1 231.7" stroke="black" stroke-width="0.3"/>
<path d="M333 259L337 237.2L313.9 238.6" stroke="black" stroke-width="0.3"/>
<path d="M324.8 266L328.8 244.1L305.8 245.6" stroke="black" stroke-width="0.3"/>
<path d="M314.3 270.4L323.4 248.8L300 255.1" stroke="black" stroke-width="0.3"/>
<path fill-rule="evenodd" clip-rule="evenodd" d="M458 109L441.6 120L439 108.3L429.3 124.5L427.5 116.7L419.7 133.4L418.6 125.7L412.4 142.8L408.9 134.6L402.8 155.4L399.3 147.1L393.2 167.9L389.7 159.7L383.5 180.4L380.5 190.8L382.2 195L388.8 192.8L400.2 184.4L422.9 167.5L409.9 171.8L432.6 155L419.4 159.3L442.2 142.4L429.1 146.7L451.9 133.6L436.3 137.3L460.9 124.6L445.9 128.5L463.9 114.2L448.4 121.6L458 109Z" fill="#006D00" stroke="white" stroke-width="1.8"/>
<path d="M451.7 115L428 135.3L382.2 195" stroke="black" stroke-width="0.3"/>
<path d="M418 170L391.8 182.4L389.6 163.4" stroke="black" stroke-width="0.3"/>
<path d="M428 157.6L401.5 169.9L399.3 150.9" stroke="black" stroke-width="0.3"/>
<path d="M437.4 145L411.1 157.3L409.1 138.3" stroke="black" stroke-width="0.3"/>
<path d="M445.3 135.7L420.8 144.7L417.9 129.3" stroke="black" stroke-width="0.3"/>
<path d="M454.3 126.7L428 135.4L427 120.3" stroke="black" stroke-width="0.3"/>
<path d="M457.8 118.2L433.5 130.7L438.2 111.8" stroke="black" stroke-width="0.3"/>
<path fill-rule="evenodd" clip-rule="evenodd" d="M369.3 88.5L376.7 105.2L386.1 96.4L384.4 114.6L390.7 108.7L387.3 126.5L392.9 120.4L387.7 137.7L395.7 132.3L388.4 152.8L396.4 147.3L389 167.8L397 162.3L389.6 182.8L385.9 193.1L381.9 195.8L377.6 191L373 178.7L363.8 154.1L372.4 163.7L363.2 139.1L371.8 148.6L362.6 124L371.1 133.6L359.7 112.2L370.7 122.3L357.5 100.5L367.9 110.5L361.2 90.2L369.9 103.6L369.3 88.5Z" fill="#006D00" stroke="white" stroke-width="1.8"/>
<path d="M371.2 96.4L379 124.4L381.9 195.8" stroke="black" stroke-width="0.3"/>
<path d="M366.5 158.5L381.3 180.8L394.7 165.5" stroke="black" stroke-width="0.3"/>
<path d="M365.5 143.4L380.7 165.7L394.1 150.5" stroke="black" stroke-width="0.3"/>
<path d="M365.1 128.4L380.1 150.7L393.3 135.4" stroke="black" stroke-width="0.3"/>
<path d="M364 117L379.5 135.7L391.3 123.7" stroke="black" stroke-width="0.3"/>
<path d="M361.8 105.3L379 124.4L389 112" stroke="black" stroke-width="0.3"/>
<path d="M364 96.4L377.2 118L384.6 99.7" stroke="black" stroke-width="0.3"/>
<path fill-rule="evenodd" clip-rule="evenodd" d="M271.2 211.3L292.6 196.5L281.9 191L300.6 194.2L294.2 185.7L312.4 192.5L305.9 184L324.2 190.8L317.7 182.4L339.7 189.8L333.3 181.3L354.7 192.3L348.2 183.9L370.2 191.3L380.9 196.8L384.1 201.1L379.8 204.1L368.1 205.7L349.1 213.5L352.6 206.8L329 210L337.6 204.1L313.5 211.1L322 205.1L301.7 212.8L310.8 203.2L289.9 214.4L299 204.9L282 216.8L291.5 203.6L271.2 211.3Z" fill="#006D00" stroke="white" stroke-width="1.7"/>
<path d="M278 207.3L300 197.8L312 196L321.8 195.9L338.8 196.9L354 197.6L384 201" stroke="black" stroke-width="0.3"/>
<path d="M352 210.4L369 200L351.7 186.5" stroke="black" stroke-width="0.3"/>
<path d="M333 208.8L353.9 197.7L336.7 184.2" stroke="black" stroke-width="0.3"/>
<path d="M319.5 208.5L338.6 197L321.3 184.5M294.3 211.5L311.9 196.1L297.6 188.3" stroke="black" stroke-width="0.3"/>
<path d="M286.4 212.6L300.1 197.8L289.1 193.8M306 209.8L323.4 196L309.4 186.5" stroke="black" stroke-width="0.3"/>
<path fill-rule="evenodd" clip-rule="evenodd" d="M343.103 373.554L342.902 348.589L335.669 336.93C333.858 331.198 334.745 328.43 337.681 328.234C340.605 328.06 343.505 329.716 347.72 329.901C351.934 330.086 351.141 323.428 357.368 323.614C363.595 323.799 374.45 327.133 383.684 327.689C392.929 328.234 397.747 324.725 408.401 324.355C419.056 323.984 421.861 328.975 422.465 328.975C423.069 328.975 426.087 326.948 429.094 326.578C432.113 326.207 433.119 327.689 433.119 327.689C433.119 327.689 432.918 333.977 431.509 337.671C430.1 341.376 425.081 347.478 424.88 347.478C424.679 347.478 423.069 374.666 423.069 374.851C423.069 375.036 343.103 374.11 343.103 373.554Z" fill="#CC0000" stroke="black" stroke-width="0.151437"/>
<path fill-rule="evenodd" clip-rule="evenodd" d="M425.781 348.004C425.781 348.004 433.831 342.337 434.044 328.705C434.162 320.859 429.972 315.193 419.483 315.193C404.804 315.193 383.839 320.979 383.839 320.979V322.908C383.839 322.908 400.613 317.122 419.495 317.122C427.876 317.122 432.079 322.788 432.079 328.585C432.079 338.24 423.674 348.015 423.674 348.015V363.456H425.781V348.004Z" fill="#FFF100" stroke="black" stroke-width="0.151437"/>
<path fill-rule="evenodd" clip-rule="evenodd" d="M430.167 343.946C430.145 344.213 430.184 344.48 430.279 344.732C430.375 344.984 430.526 345.215 430.724 345.411C430.921 345.607 431.16 345.763 431.426 345.869C431.691 345.976 431.978 346.031 432.268 346.031C432.558 346.031 432.845 345.976 433.111 345.869C433.377 345.763 433.616 345.607 433.813 345.411C434.01 345.215 434.162 344.984 434.257 344.732C434.353 344.48 434.391 344.213 434.37 343.946C434.33 343.458 434.091 343.002 433.701 342.67C433.312 342.337 432.8 342.152 432.268 342.152C431.737 342.152 431.225 342.337 430.835 342.67C430.446 343.002 430.207 343.458 430.167 343.946Z" fill="white" stroke="black" stroke-width="0.151437"/>
<path fill-rule="evenodd" clip-rule="evenodd" d="M432.267 339.546C432.245 339.813 432.284 340.08 432.379 340.332C432.475 340.584 432.626 340.815 432.824 341.011C433.021 341.207 433.26 341.363 433.526 341.469C433.792 341.576 434.078 341.631 434.368 341.631C434.658 341.631 434.945 341.576 435.211 341.469C435.477 341.363 435.716 341.207 435.913 341.011C436.11 340.815 436.262 340.584 436.357 340.332C436.453 340.08 436.491 339.813 436.47 339.546C436.43 339.058 436.191 338.602 435.802 338.27C435.412 337.937 434.9 337.752 434.368 337.752C433.837 337.752 433.325 337.937 432.935 338.27C432.546 338.602 432.307 339.058 432.267 339.546Z" fill="white" stroke="black" stroke-width="0.151437"/>
<path fill-rule="evenodd" clip-rule="evenodd" d="M433.367 335.046C433.345 335.313 433.384 335.58 433.479 335.832C433.575 336.084 433.726 336.315 433.923 336.511C434.121 336.707 434.36 336.863 434.626 336.969C434.891 337.076 435.178 337.131 435.468 337.131C435.758 337.131 436.045 337.076 436.311 336.969C436.577 336.863 436.816 336.707 437.013 336.511C437.21 336.315 437.362 336.084 437.457 335.832C437.553 335.58 437.591 335.313 437.57 335.046C437.53 334.558 437.291 334.102 436.901 333.77C436.512 333.437 436 333.252 435.468 333.252C434.937 333.252 434.425 333.437 434.035 333.77C433.645 334.102 433.407 334.558 433.367 335.046Z" fill="white" stroke="black" stroke-width="0.151437"/>
<path fill-rule="evenodd" clip-rule="evenodd" d="M434.167 330.246C434.145 330.513 434.184 330.78 434.279 331.032C434.375 331.284 434.526 331.515 434.724 331.711C434.921 331.906 435.16 332.063 435.426 332.169C435.691 332.276 435.978 332.331 436.268 332.331C436.558 332.331 436.845 332.276 437.111 332.169C437.377 332.063 437.616 331.906 437.813 331.711C438.01 331.515 438.162 331.284 438.257 331.032C438.353 330.78 438.391 330.513 438.37 330.246C438.33 329.758 438.091 329.302 437.701 328.97C437.312 328.637 436.8 328.452 436.268 328.452C435.737 328.452 435.225 328.637 434.835 328.97C434.446 329.302 434.207 329.758 434.167 330.246Z" fill="white" stroke="black" stroke-width="0.151437"/>
<path fill-rule="evenodd" clip-rule="evenodd" d="M433.967 325.046C433.945 325.313 433.984 325.58 434.079 325.832C434.175 326.084 434.326 326.315 434.524 326.511C434.721 326.707 434.96 326.863 435.226 326.969C435.491 327.076 435.778 327.131 436.068 327.131C436.358 327.131 436.645 327.076 436.911 326.969C437.177 326.863 437.416 326.707 437.613 326.511C437.81 326.315 437.962 326.084 438.057 325.832C438.153 325.58 438.191 325.313 438.17 325.046C438.13 324.558 437.891 324.102 437.501 323.77C437.112 323.437 436.6 323.252 436.068 323.252C435.537 323.252 435.025 323.437 434.635 323.77C434.246 324.102 434.007 324.558 433.967 325.046Z" fill="white" stroke="black" stroke-width="0.151437"/>
<path fill-rule="evenodd" clip-rule="evenodd" d="M427.167 347.846C427.145 348.113 427.184 348.38 427.279 348.632C427.375 348.884 427.526 349.115 427.724 349.311C427.921 349.507 428.16 349.663 428.426 349.769C428.691 349.876 428.978 349.931 429.268 349.931C429.558 349.931 429.845 349.876 430.111 349.769C430.377 349.663 430.616 349.507 430.813 349.311C431.01 349.115 431.162 348.884 431.257 348.632C431.353 348.38 431.391 348.113 431.37 347.846C431.33 347.358 431.091 346.902 430.701 346.57C430.312 346.237 429.8 346.052 429.268 346.052C428.737 346.052 428.225 346.237 427.835 346.57C427.446 346.902 427.207 347.358 427.167 347.846Z" fill="white" stroke="black" stroke-width="0.151437"/>
<path fill-rule="evenodd" clip-rule="evenodd" d="M432.167 320.146C432.145 320.413 432.184 320.68 432.279 320.932C432.375 321.184 432.526 321.415 432.724 321.611C432.921 321.806 433.16 321.963 433.426 322.069C433.691 322.176 433.978 322.231 434.268 322.231C434.558 322.231 434.845 322.176 435.111 322.069C435.377 321.963 435.616 321.806 435.813 321.611C436.01 321.415 436.162 321.184 436.257 320.932C436.353 320.68 436.391 320.413 436.37 320.146C436.33 319.658 436.091 319.202 435.701 318.87C435.312 318.537 434.8 318.352 434.268 318.352C433.737 318.352 433.225 318.537 432.835 318.87C432.446 319.202 432.207 319.658 432.167 320.146Z" fill="white" stroke="black" stroke-width="0.151437"/>
<path fill-rule="evenodd" clip-rule="evenodd" d="M428.267 316.246C428.245 316.513 428.284 316.78 428.379 317.032C428.475 317.284 428.626 317.515 428.824 317.711C429.021 317.906 429.26 318.063 429.526 318.169C429.792 318.276 430.078 318.331 430.368 318.331C430.658 318.331 430.945 318.276 431.211 318.169C431.477 318.063 431.716 317.906 431.913 317.711C432.11 317.515 432.262 317.284 432.357 317.032C432.453 316.78 432.491 316.513 432.47 316.246C432.43 315.758 432.191 315.302 431.802 314.97C431.412 314.637 430.9 314.452 430.368 314.452C429.837 314.452 429.325 314.637 428.935 314.97C428.546 315.302 428.307 315.758 428.267 316.246Z" fill="white" stroke="black" stroke-width="0.151437"/>
<path fill-rule="evenodd" clip-rule="evenodd" d="M423.067 313.646C423.046 313.913 423.084 314.18 423.179 314.432C423.275 314.684 423.426 314.915 423.624 315.111C423.821 315.306 424.06 315.463 424.326 315.569C424.592 315.676 424.878 315.731 425.168 315.731C425.458 315.731 425.745 315.676 426.011 315.569C426.277 315.463 426.516 315.306 426.713 315.111C426.91 314.915 427.062 314.684 427.157 314.432C427.253 314.18 427.291 313.913 427.27 313.646C427.23 313.158 426.991 312.702 426.602 312.37C426.212 312.037 425.7 311.852 425.168 311.852C424.637 311.852 424.125 312.037 423.735 312.37C423.346 312.702 423.107 313.158 423.067 313.646Z" fill="white" stroke="black" stroke-width="0.151437"/>
<path fill-rule="evenodd" clip-rule="evenodd" d="M417.867 313.346C417.845 313.613 417.884 313.88 417.979 314.132C418.075 314.384 418.226 314.615 418.423 314.811C418.621 315.007 418.86 315.163 419.126 315.269C419.391 315.376 419.678 315.431 419.968 315.431C420.258 315.431 420.545 315.376 420.811 315.269C421.077 315.163 421.316 315.007 421.513 314.811C421.71 314.615 421.862 314.384 421.957 314.132C422.053 313.88 422.091 313.613 422.07 313.346C422.03 312.858 421.791 312.402 421.401 312.07C421.012 311.737 420.5 311.552 419.968 311.552C419.437 311.552 418.925 311.737 418.535 312.07C418.145 312.402 417.907 312.858 417.867 313.346Z" fill="white" stroke="black" stroke-width="0.151437"/>
<path fill-rule="evenodd" clip-rule="evenodd" d="M412.267 313.446C412.245 313.713 412.284 313.98 412.379 314.232C412.475 314.484 412.626 314.715 412.824 314.911C413.021 315.107 413.26 315.263 413.526 315.369C413.792 315.476 414.078 315.531 414.368 315.531C414.658 315.531 414.945 315.476 415.211 315.369C415.477 315.263 415.716 315.107 415.913 314.911C416.11 314.715 416.262 314.484 416.357 314.232C416.453 313.98 416.491 313.713 416.47 313.446C416.43 312.958 416.191 312.502 415.802 312.17C415.412 311.837 414.9 311.652 414.368 311.652C413.837 311.652 413.325 311.837 412.935 312.17C412.546 312.502 412.307 312.958 412.267 313.446Z" fill="white" stroke="black" stroke-width="0.151437"/>
<path fill-rule="evenodd" clip-rule="evenodd" d="M406.567 314.246C406.546 314.513 406.584 314.78 406.679 315.032C406.775 315.284 406.926 315.515 407.124 315.711C407.321 315.906 407.56 316.063 407.826 316.169C408.092 316.276 408.378 316.331 408.668 316.331C408.958 316.331 409.245 316.276 409.511 316.169C409.777 316.063 410.016 315.906 410.213 315.711C410.41 315.515 410.562 315.284 410.657 315.032C410.753 314.78 410.791 314.513 410.77 314.246C410.73 313.758 410.491 313.302 410.102 312.97C409.712 312.637 409.2 312.452 408.668 312.452C408.137 312.452 407.625 312.637 407.235 312.97C406.846 313.302 406.607 313.758 406.567 314.246Z" fill="white" stroke="black" stroke-width="0.151437"/>
<path fill-rule="evenodd" clip-rule="evenodd" d="M401.067 314.946C401.046 315.213 401.084 315.48 401.179 315.732C401.275 315.984 401.426 316.215 401.624 316.411C401.821 316.607 402.06 316.763 402.326 316.869C402.592 316.976 402.878 317.031 403.168 317.031C403.458 317.031 403.745 316.976 404.011 316.869C404.277 316.763 404.516 316.607 404.713 316.411C404.91 316.215 405.062 315.984 405.157 315.732C405.253 315.48 405.291 315.213 405.27 314.946C405.23 314.458 404.991 314.002 404.602 313.67C404.212 313.337 403.7 313.152 403.168 313.152C402.637 313.152 402.125 313.337 401.735 313.67C401.346 314.002 401.107 314.458 401.067 314.946Z" fill="white" stroke="black" stroke-width="0.151437"/>
<path fill-rule="evenodd" clip-rule="evenodd" d="M394.967 315.846C394.945 316.113 394.984 316.38 395.079 316.632C395.175 316.884 395.326 317.115 395.524 317.311C395.721 317.507 395.96 317.663 396.226 317.769C396.491 317.876 396.778 317.931 397.068 317.931C397.358 317.931 397.645 317.876 397.911 317.769C398.177 317.663 398.416 317.507 398.613 317.311C398.81 317.115 398.962 316.884 399.057 316.632C399.153 316.38 399.191 316.113 399.17 315.846C399.13 315.358 398.891 314.902 398.501 314.57C398.112 314.237 397.6 314.052 397.068 314.052C396.537 314.052 396.025 314.237 395.635 314.57C395.246 314.902 395.007 315.358 394.967 315.846Z" fill="white" stroke="black" stroke-width="0.151437"/>
<path fill-rule="evenodd" clip-rule="evenodd" d="M389.767 317.246C389.745 317.513 389.784 317.78 389.879 318.032C389.975 318.284 390.126 318.515 390.324 318.711C390.521 318.906 390.76 319.063 391.026 319.169C391.292 319.276 391.578 319.331 391.868 319.331C392.158 319.331 392.445 319.276 392.711 319.169C392.977 319.063 393.216 318.906 393.413 318.711C393.61 318.515 393.762 318.284 393.857 318.032C393.953 317.78 393.991 317.513 393.97 317.246C393.93 316.758 393.691 316.302 393.302 315.97C392.912 315.637 392.4 315.452 391.868 315.452C391.337 315.452 390.825 315.637 390.435 315.97C390.046 316.302 389.807 316.758 389.767 317.246Z" fill="white" stroke="black" stroke-width="0.151437"/>
<path fill-rule="evenodd" clip-rule="evenodd" d="M337.533 343.946C337.555 344.213 337.517 344.48 337.421 344.732C337.325 344.984 337.174 345.215 336.977 345.411C336.779 345.607 336.54 345.763 336.275 345.869C336.009 345.976 335.722 346.031 335.432 346.031C335.142 346.031 334.855 345.976 334.589 345.869C334.323 345.763 334.084 345.607 333.887 345.411C333.69 345.215 333.539 344.984 333.443 344.732C333.347 344.48 333.309 344.213 333.331 343.946C333.37 343.458 333.609 343.002 333.999 342.67C334.388 342.337 334.9 342.152 335.432 342.152C335.963 342.152 336.475 342.337 336.865 342.67C337.255 343.002 337.493 343.458 337.533 343.946Z" fill="white" stroke="black" stroke-width="0.151437"/>
<path fill-rule="evenodd" clip-rule="evenodd" d="M335.333 339.546C335.355 339.813 335.317 340.08 335.221 340.332C335.125 340.584 334.974 340.815 334.777 341.011C334.579 341.207 334.34 341.363 334.075 341.469C333.809 341.576 333.522 341.631 333.232 341.631C332.942 341.631 332.655 341.576 332.389 341.469C332.123 341.363 331.884 341.207 331.687 341.011C331.49 340.815 331.339 340.584 331.243 340.332C331.147 340.08 331.109 339.813 331.131 339.546C331.17 339.058 331.409 338.602 331.799 338.27C332.188 337.937 332.7 337.752 333.232 337.752C333.763 337.752 334.275 337.937 334.665 338.27C335.055 338.602 335.293 339.058 335.333 339.546Z" fill="white" stroke="black" stroke-width="0.151437"/>
<path fill-rule="evenodd" clip-rule="evenodd" d="M334.333 335.046C334.355 335.313 334.317 335.58 334.221 335.832C334.125 336.084 333.974 336.315 333.777 336.511C333.579 336.707 333.34 336.863 333.075 336.969C332.809 337.076 332.522 337.131 332.232 337.131C331.942 337.131 331.655 337.076 331.389 336.969C331.123 336.863 330.884 336.707 330.687 336.511C330.49 336.315 330.339 336.084 330.243 335.832C330.147 335.58 330.109 335.313 330.131 335.046C330.17 334.558 330.409 334.102 330.799 333.77C331.188 333.437 331.7 333.252 332.232 333.252C332.763 333.252 333.275 333.437 333.665 333.77C334.055 334.102 334.293 334.558 334.333 335.046Z" fill="white" stroke="black" stroke-width="0.151437"/>
<path fill-rule="evenodd" clip-rule="evenodd" d="M333.533 330.246C333.555 330.513 333.517 330.78 333.421 331.032C333.325 331.284 333.174 331.515 332.977 331.711C332.779 331.906 332.54 332.063 332.275 332.169C332.009 332.276 331.722 332.331 331.432 332.331C331.142 332.331 330.855 332.276 330.589 332.169C330.323 332.063 330.084 331.906 329.887 331.711C329.69 331.515 329.539 331.284 329.443 331.032C329.347 330.78 329.309 330.513 329.331 330.246C329.37 329.758 329.609 329.302 329.999 328.97C330.388 328.637 330.9 328.452 331.432 328.452C331.963 328.452 332.475 328.637 332.865 328.97C333.255 329.302 333.493 329.758 333.533 330.246Z" fill="white" stroke="black" stroke-width="0.151437"/>
<path fill-rule="evenodd" clip-rule="evenodd" d="M333.633 325.046C333.655 325.313 333.617 325.58 333.521 325.832C333.425 326.084 333.274 326.315 333.077 326.511C332.88 326.707 332.641 326.863 332.375 326.969C332.109 327.076 331.822 327.131 331.532 327.131C331.242 327.131 330.955 327.076 330.689 326.969C330.423 326.863 330.184 326.707 329.987 326.511C329.79 326.315 329.639 326.084 329.543 325.832C329.447 325.58 329.409 325.313 329.431 325.046C329.471 324.558 329.709 324.102 330.099 323.77C330.489 323.437 331 323.252 331.532 323.252C332.064 323.252 332.575 323.437 332.965 323.77C333.355 324.102 333.593 324.558 333.633 325.046Z" fill="white" stroke="black" stroke-width="0.151437"/>
<path fill-rule="evenodd" clip-rule="evenodd" d="M335.433 320.146C335.455 320.413 335.417 320.68 335.321 320.932C335.225 321.184 335.074 321.415 334.877 321.611C334.679 321.806 334.44 321.963 334.174 322.069C333.909 322.176 333.622 322.231 333.332 322.231C333.042 322.231 332.755 322.176 332.489 322.069C332.223 321.963 331.984 321.806 331.787 321.611C331.59 321.415 331.439 321.184 331.343 320.932C331.247 320.68 331.209 320.413 331.231 320.146C331.27 319.658 331.509 319.202 331.899 318.87C332.288 318.537 332.8 318.352 333.332 318.352C333.863 318.352 334.375 318.537 334.765 318.87C335.155 319.202 335.393 319.658 335.433 320.146Z" fill="white" stroke="black" stroke-width="0.151437"/>
<path fill-rule="evenodd" clip-rule="evenodd" d="M339.233 316.246C339.255 316.513 339.217 316.78 339.121 317.032C339.025 317.284 338.874 317.515 338.677 317.711C338.479 317.906 338.24 318.063 337.975 318.169C337.709 318.276 337.422 318.331 337.132 318.331C336.842 318.331 336.555 318.276 336.289 318.169C336.023 318.063 335.784 317.906 335.587 317.711C335.39 317.515 335.239 317.284 335.143 317.032C335.047 316.78 335.009 316.513 335.031 316.246C335.07 315.758 335.309 315.302 335.699 314.97C336.088 314.637 336.6 314.452 337.132 314.452C337.663 314.452 338.175 314.637 338.565 314.97C338.955 315.302 339.193 315.758 339.233 316.246Z" fill="white" stroke="black" stroke-width="0.151437"/>
<path fill-rule="evenodd" clip-rule="evenodd" d="M344.633 313.646C344.655 313.913 344.617 314.18 344.521 314.432C344.425 314.684 344.274 314.915 344.077 315.111C343.88 315.306 343.641 315.463 343.375 315.569C343.109 315.676 342.822 315.731 342.532 315.731C342.242 315.731 341.955 315.676 341.689 315.569C341.423 315.463 341.184 315.306 340.987 315.111C340.79 314.915 340.639 314.684 340.543 314.432C340.447 314.18 340.409 313.913 340.431 313.646C340.471 313.158 340.709 312.702 341.099 312.37C341.489 312.037 342 311.852 342.532 311.852C343.064 311.852 343.575 312.037 343.965 312.37C344.355 312.702 344.593 313.158 344.633 313.646Z" fill="white" stroke="black" stroke-width="0.151437"/>
<path fill-rule="evenodd" clip-rule="evenodd" d="M349.733 313.346C349.755 313.613 349.717 313.88 349.621 314.132C349.525 314.384 349.374 314.615 349.177 314.811C348.979 315.007 348.74 315.163 348.475 315.269C348.209 315.376 347.922 315.431 347.632 315.431C347.342 315.431 347.055 315.376 346.789 315.269C346.523 315.163 346.284 315.007 346.087 314.811C345.89 314.615 345.739 314.384 345.643 314.132C345.547 313.88 345.509 313.613 345.531 313.346C345.57 312.858 345.809 312.402 346.199 312.07C346.588 311.737 347.1 311.552 347.632 311.552C348.163 311.552 348.675 311.737 349.065 312.07C349.455 312.402 349.693 312.858 349.733 313.346Z" fill="white" stroke="black" stroke-width="0.151437"/>
<path fill-rule="evenodd" clip-rule="evenodd" d="M355.333 313.446C355.355 313.713 355.317 313.98 355.221 314.232C355.125 314.484 354.974 314.715 354.777 314.911C354.579 315.107 354.34 315.263 354.075 315.369C353.809 315.476 353.522 315.531 353.232 315.531C352.942 315.531 352.655 315.476 352.389 315.369C352.123 315.263 351.884 315.107 351.687 314.911C351.49 314.715 351.339 314.484 351.243 314.232C351.147 313.98 351.109 313.713 351.131 313.446C351.17 312.958 351.409 312.502 351.799 312.17C352.188 311.837 352.7 311.652 353.232 311.652C353.763 311.652 354.275 311.837 354.665 312.17C355.055 312.502 355.293 312.958 355.333 313.446Z" fill="white" stroke="black" stroke-width="0.151437"/>
<path fill-rule="evenodd" clip-rule="evenodd" d="M361.033 314.246C361.055 314.513 361.017 314.78 360.921 315.032C360.825 315.284 360.674 315.515 360.477 315.711C360.279 315.906 360.04 316.063 359.775 316.169C359.509 316.276 359.222 316.331 358.932 316.331C358.642 316.331 358.355 316.276 358.089 316.169C357.823 316.063 357.584 315.906 357.387 315.711C357.19 315.515 357.039 315.284 356.943 315.032C356.847 314.78 356.809 314.513 356.831 314.246C356.87 313.758 357.109 313.302 357.499 312.97C357.888 312.637 358.4 312.452 358.932 312.452C359.463 312.452 359.975 312.637 360.365 312.97C360.755 313.302 360.993 313.758 361.033 314.246Z" fill="white" stroke="black" stroke-width="0.151437"/>
<path fill-rule="evenodd" clip-rule="evenodd" d="M366.633 314.946C366.655 315.213 366.617 315.48 366.521 315.732C366.425 315.984 366.274 316.215 366.077 316.411C365.88 316.607 365.641 316.763 365.375 316.869C365.109 316.976 364.822 317.031 364.532 317.031C364.242 317.031 363.955 316.976 363.689 316.869C363.423 316.763 363.184 316.607 362.987 316.411C362.79 316.215 362.639 315.984 362.543 315.732C362.447 315.48 362.409 315.213 362.431 314.946C362.471 314.458 362.709 314.002 363.099 313.67C363.489 313.337 364 313.152 364.532 313.152C365.064 313.152 365.575 313.337 365.965 313.67C366.355 314.002 366.593 314.458 366.633 314.946Z" fill="white" stroke="black" stroke-width="0.151437"/>
<path fill-rule="evenodd" clip-rule="evenodd" d="M372.633 315.846C372.655 316.113 372.617 316.38 372.521 316.632C372.425 316.884 372.274 317.115 372.077 317.311C371.88 317.507 371.641 317.663 371.375 317.769C371.109 317.876 370.822 317.931 370.532 317.931C370.242 317.931 369.955 317.876 369.689 317.769C369.423 317.663 369.184 317.507 368.987 317.311C368.79 317.115 368.639 316.884 368.543 316.632C368.447 316.38 368.409 316.113 368.431 315.846C368.471 315.358 368.709 314.902 369.099 314.57C369.489 314.237 370 314.052 370.532 314.052C371.064 314.052 371.575 314.237 371.965 314.57C372.355 314.902 372.593 315.358 372.633 315.846Z" fill="white" stroke="black" stroke-width="0.151437"/>
<path fill-rule="evenodd" clip-rule="evenodd" d="M377.833 317.246C377.855 317.513 377.817 317.78 377.721 318.032C377.625 318.284 377.474 318.515 377.277 318.711C377.079 318.906 376.84 319.063 376.575 319.169C376.309 319.276 376.022 319.331 375.732 319.331C375.442 319.331 375.155 319.276 374.889 319.169C374.623 319.063 374.384 318.906 374.187 318.711C373.99 318.515 373.839 318.284 373.743 318.032C373.647 317.78 373.609 317.513 373.631 317.246C373.67 316.758 373.909 316.302 374.299 315.97C374.688 315.637 375.2 315.452 375.732 315.452C376.263 315.452 376.775 315.637 377.165 315.97C377.555 316.302 377.793 316.758 377.833 317.246Z" fill="white" stroke="black" stroke-width="0.151437"/>
<path fill-rule="evenodd" clip-rule="evenodd" d="M340.433 347.846C340.455 348.113 340.417 348.38 340.321 348.632C340.225 348.884 340.074 349.115 339.877 349.311C339.679 349.507 339.44 349.663 339.174 349.769C338.909 349.876 338.622 349.931 338.332 349.931C338.042 349.931 337.755 349.876 337.489 349.769C337.223 349.663 336.984 349.507 336.787 349.311C336.59 349.115 336.439 348.884 336.343 348.632C336.247 348.38 336.209 348.113 336.231 347.846C336.27 347.358 336.509 346.902 336.899 346.57C337.288 346.237 337.8 346.052 338.332 346.052C338.863 346.052 339.375 346.237 339.765 346.57C340.155 346.902 340.393 347.358 340.433 347.846Z" fill="white" stroke="black" stroke-width="0.151437"/>
<path fill-rule="evenodd" clip-rule="evenodd" d="M341.919 348.004C341.919 348.004 333.869 342.337 333.656 328.705C333.538 320.859 337.729 315.193 348.217 315.193C362.896 315.193 383.861 320.979 383.861 320.979V322.908C383.861 322.908 367.087 317.122 348.205 317.122C339.824 317.122 335.621 322.788 335.621 328.585C335.621 338.24 344.026 348.015 344.026 348.015V363.456H341.919V348.004Z" fill="#FFF100" stroke="black" stroke-width="0.151437"/>
<path fill-rule="evenodd" clip-rule="evenodd" d="M356.538 355.163C356.538 355.163 357.142 353.693 359.336 353.693C360.828 353.693 362.13 355.163 362.13 356.632V359.575H363.531V356.632C363.531 355.163 364.928 353.693 366.324 353.693C368.424 353.693 369.122 355.163 369.122 355.163C369.122 355.163 369.122 350.75 366.324 350.75C364.229 350.75 363.531 352.22 363.531 352.22C363.531 352.22 364.229 350.015 364.229 347.807C364.229 345.599 362.832 344.129 362.832 344.129C362.832 344.411 361.431 345.603 361.431 347.807C361.431 350.011 362.13 352.22 362.13 352.22C362.13 352.22 361.431 350.75 359.336 350.75C356.538 350.75 356.538 355.163 356.538 355.163Z" fill="#FFF100" stroke="black" stroke-width="0.121416"/>
<path fill-rule="evenodd" clip-rule="evenodd" d="M398.438 355.163C398.438 355.163 399.042 353.693 401.236 353.693C402.728 353.693 404.03 355.163 404.03 356.632V359.575H405.431V356.632C405.431 355.163 406.828 353.693 408.225 353.693C410.324 353.693 411.022 355.163 411.022 355.163C411.022 355.163 411.022 350.75 408.225 350.75C406.129 350.75 405.431 352.22 405.431 352.22C405.431 352.22 406.129 350.015 406.129 347.807C406.129 345.599 404.732 344.129 404.732 344.129C404.732 344.411 403.332 345.603 403.332 347.807C403.332 350.011 404.03 352.22 404.03 352.22C404.03 352.22 403.332 350.75 401.236 350.75C398.438 350.75 398.438 355.163 398.438 355.163Z" fill="#FFF100" stroke="black" stroke-width="0.121416"/>
<path fill-rule="evenodd" clip-rule="evenodd" d="M341.919 375.039V357.659C341.919 357.659 346.11 363.456 352.408 363.456C357.557 363.456 362.896 355.73 362.896 355.73C362.896 355.73 367.809 361.527 373.385 361.527C378.357 361.527 383.861 354.052 383.861 354.052C383.861 354.052 388.975 361.527 394.35 361.527C399.736 361.527 404.838 355.73 404.838 355.73C404.838 355.73 410.319 363.456 417.422 363.456C423.708 363.456 425.815 357.659 425.815 357.659V375.039H341.919Z" fill="#FFF100" stroke="black" stroke-width="0.151437"/>
<path fill-rule="evenodd" clip-rule="evenodd" d="M341.896 375.039V361.527C341.896 361.527 354.48 365.374 354.48 375.039H341.896Z" fill="#FFF100" stroke="black" stroke-width="0.151437"/>
<path fill-rule="evenodd" clip-rule="evenodd" d="M425.704 375.039V361.527C425.704 361.527 413.12 365.374 413.12 375.039H425.704Z" fill="#FFF100" stroke="black" stroke-width="0.151437"/>
<path fill-rule="evenodd" clip-rule="evenodd" d="M350.312 375.039C350.312 365.374 362.896 359.271 362.896 359.271C362.896 359.271 375.48 365.374 375.48 375.039H350.312Z" fill="#FFF100" stroke="black" stroke-width="0.151437"/>
<path fill-rule="evenodd" clip-rule="evenodd" d="M392.312 375.039C392.312 365.374 404.896 359.271 404.896 359.271C404.896 359.271 417.48 365.374 417.48 375.039H392.312Z" fill="#FFF100" stroke="black" stroke-width="0.151437"/>
<path fill-rule="evenodd" clip-rule="evenodd" d="M369.205 375.052C369.205 365.397 383.896 357.682 383.896 357.682C383.896 357.682 398.575 365.397 398.575 375.052H369.217H369.205Z" fill="#FFF100" stroke="black" stroke-width="0.151437"/>
<path fill-rule="evenodd" clip-rule="evenodd" d="M427.796 375.03C423.653 373.101 408.368 371.172 383.754 371.172C359.141 371.172 342.79 373.101 338.635 375.03C334.492 376.959 334.492 380.827 338.635 382.756C342.778 384.685 359.152 386.613 383.754 386.613C408.356 386.613 423.653 384.685 427.796 382.756C431.94 380.827 431.94 376.959 427.796 375.03Z" fill="white" stroke="black" stroke-width="0.150577"/>
<path fill-rule="evenodd" clip-rule="evenodd" d="M425.8 382.8C425.8 386.7 390.8 386.7 383.8 386.7C376.2 386.7 341.9 387.7 341.9 382.7C341.9 378.9 376.5 378.9 383.9 378.9C391.1 378.9 425.8 379.7 425.8 382.8Z" fill="#808080"/>
<path fill-rule="evenodd" clip-rule="evenodd" d="M346 368.9C346 370.2 345.2 371.2 344 371.2C342.8 371.2 341.9 370.2 341.9 368.9C341.9 367.6 342.8 366.6 343.9 366.6C345.1 366.6 346.1 367.6 346.1 368.9H346ZM425.8 368.9C425.8 370.2 424.8 371.2 423.6 371.2C422.5 371.2 421.6 370.2 421.6 368.9C421.6 367.6 422.5 366.6 423.6 366.6C424.8 366.6 425.7 367.6 425.7 368.9H425.8Z" fill="#CC0000"/>
<path fill-rule="evenodd" clip-rule="evenodd" d="M388 367.8C388 369 386.1 370 383.8 370C381.6 370 379.6 369 379.6 367.7C379.6 366.4 381.6 365.4 383.8 365.4C386 365.4 388 366.4 388 367.7V367.8Z" fill="black"/>
<path fill-rule="evenodd" clip-rule="evenodd" d="M408.1 367.8C408.1 369 406.7 370 405 370C403.3 370 401.9 369 401.9 367.7C401.9 366.4 403.3 365.4 404.9 365.4C406.5 365.4 408.1 366.4 408.1 367.7V367.8ZM365 367.8C365 369 363.6 370 361.8 370C360 370 358.6 369 358.6 367.7C358.6 366.4 360 365.4 361.8 365.4C363.6 365.4 365 366.4 365 367.7V367.8Z" fill="#006300"/>
<path fill-rule="evenodd" clip-rule="evenodd" d="M375.384 354.486C375.384 354.486 377.779 351.186 380.18 351.186H382.575V353.384C382.575 356.696 378.983 357.805 378.983 357.805H388.567C388.567 357.805 384.969 356.696 384.969 353.384V351.186H387.37C389.765 351.186 392.159 354.498 392.159 354.498V345.662C392.159 345.662 389.765 348.975 387.37 348.975H384.969V346.764C384.969 343.458 388.567 342.356 388.567 342.356H378.976C378.976 342.356 382.568 343.458 382.568 346.764V348.975H380.173C377.772 348.975 375.378 345.662 375.378 345.662V354.492L375.384 354.486Z" fill="#FFF100" stroke="black" stroke-width="0.142779"/>
<path fill-rule="evenodd" clip-rule="evenodd" d="M341.85 361.526H344.248C344.248 361.526 342.449 360.561 342.449 357.663V355.739H343.646C344.847 355.739 346.048 358.638 346.048 358.638V350.906C346.048 350.906 344.847 353.805 343.646 353.805H342.449V351.87C342.449 348.977 344.248 348.012 344.248 348.012H341.85V361.526Z" fill="#FFF100" stroke="black" stroke-width="0.141685"/>
<path fill-rule="evenodd" clip-rule="evenodd" d="M425.75 361.526H423.352C423.352 361.526 425.152 360.561 425.152 357.663V355.739H423.954C422.753 355.739 421.552 358.638 421.552 358.638V350.906C421.552 350.906 422.753 353.805 423.954 353.805H425.152V351.87C425.152 348.977 423.352 348.012 423.352 348.012H425.75V361.526Z" fill="#FFF100" stroke="black" stroke-width="0.141685"/>
<path fill-rule="evenodd" clip-rule="evenodd" d="M385.957 349.944C385.957 350.455 385.736 350.946 385.343 351.307C384.95 351.669 384.417 351.872 383.861 351.872C383.305 351.872 382.773 351.669 382.38 351.307C381.987 350.946 381.766 350.455 381.766 349.944C381.766 349.432 381.987 348.941 382.38 348.58C382.773 348.218 383.305 348.015 383.861 348.015C384.417 348.015 384.95 348.218 385.343 348.58C385.736 348.941 385.957 349.432 385.957 349.944Z" fill="white" stroke="black" stroke-width="0.151437"/>
<path fill-rule="evenodd" clip-rule="evenodd" d="M375.384 313.886C375.384 313.886 377.779 310.586 380.18 310.586H382.575V312.784C382.575 316.097 378.983 317.205 378.983 317.205H388.567C388.567 317.205 384.969 316.097 384.969 312.784V310.586H387.37C389.765 310.586 392.159 313.898 392.159 313.898V305.062C392.159 305.062 389.765 308.375 387.37 308.375H384.969V306.164C384.969 302.858 388.567 301.756 388.567 301.756H378.976C378.976 301.756 382.568 302.858 382.568 306.164V308.375H380.173C377.772 308.375 375.378 305.062 375.378 305.062V313.892L375.384 313.886Z" fill="#FFF100" stroke="black" stroke-width="0.142779"/>
<path fill-rule="evenodd" clip-rule="evenodd" d="M386.156 309.644C386.156 310.155 385.936 310.646 385.543 311.007C385.15 311.369 384.617 311.572 384.061 311.572C383.505 311.572 382.972 311.369 382.58 311.007C382.187 310.646 381.966 310.155 381.966 309.644C381.966 309.132 382.187 308.641 382.58 308.28C382.972 307.918 383.505 307.715 384.061 307.715C384.617 307.715 385.15 307.918 385.543 308.28C385.936 308.641 386.156 309.132 386.156 309.644Z" fill="white" stroke="black" stroke-width="0.151437"/>
<path fill-rule="evenodd" clip-rule="evenodd" d="M379.671 317.13H388.064V322.927H379.659L379.671 317.13Z" fill="#FFF100" stroke="black" stroke-width="0.151437"/>
<path fill-rule="evenodd" clip-rule="evenodd" d="M379.671 320.159H388.064V342.226H379.659L379.671 320.159Z" fill="#FFF100" stroke="black" stroke-width="0.151437"/>
<path fill-rule="evenodd" clip-rule="evenodd" d="M385.833 338.346C385.855 338.613 385.817 338.88 385.721 339.132C385.625 339.384 385.474 339.615 385.277 339.811C385.079 340.007 384.84 340.163 384.575 340.269C384.309 340.376 384.022 340.431 383.732 340.431C383.442 340.431 383.155 340.376 382.889 340.269C382.623 340.163 382.384 340.007 382.187 339.811C381.99 339.615 381.839 339.384 381.743 339.132C381.647 338.88 381.609 338.613 381.631 338.346C381.67 337.858 381.909 337.402 382.299 337.07C382.688 336.737 383.2 336.552 383.732 336.552C384.263 336.552 384.775 336.737 385.165 337.07C385.555 337.402 385.793 337.858 385.833 338.346Z" fill="white" stroke="black" stroke-width="0.151437"/>
<path fill-rule="evenodd" clip-rule="evenodd" d="M385.833 333.446C385.855 333.713 385.817 333.98 385.721 334.232C385.625 334.484 385.474 334.715 385.277 334.911C385.079 335.107 384.84 335.263 384.575 335.369C384.309 335.476 384.022 335.531 383.732 335.531C383.442 335.531 383.155 335.476 382.889 335.369C382.623 335.263 382.384 335.107 382.187 334.911C381.99 334.715 381.839 334.484 381.743 334.232C381.647 333.98 381.609 333.713 381.631 333.446C381.67 332.958 381.909 332.502 382.299 332.17C382.688 331.837 383.2 331.652 383.732 331.652C384.263 331.652 384.775 331.837 385.165 332.17C385.555 332.502 385.793 332.958 385.833 333.446Z" fill="white" stroke="black" stroke-width="0.151437"/>
<path fill-rule="evenodd" clip-rule="evenodd" d="M385.833 328.846C385.855 329.113 385.817 329.38 385.721 329.632C385.625 329.884 385.474 330.115 385.277 330.311C385.079 330.507 384.84 330.663 384.575 330.769C384.309 330.876 384.022 330.931 383.732 330.931C383.442 330.931 383.155 330.876 382.889 330.769C382.623 330.663 382.384 330.507 382.187 330.311C381.99 330.115 381.839 329.884 381.743 329.632C381.647 329.38 381.609 329.113 381.631 328.846C381.67 328.358 381.909 327.902 382.299 327.57C382.688 327.237 383.2 327.052 383.732 327.052C384.263 327.052 384.775 327.237 385.165 327.57C385.555 327.902 385.793 328.358 385.833 328.846Z" fill="white" stroke="black" stroke-width="0.151437"/>
<path fill-rule="evenodd" clip-rule="evenodd" d="M385.833 323.946C385.855 324.213 385.817 324.48 385.721 324.732C385.625 324.984 385.474 325.215 385.277 325.411C385.079 325.607 384.84 325.763 384.575 325.869C384.309 325.976 384.022 326.031 383.732 326.031C383.442 326.031 383.155 325.976 382.889 325.869C382.623 325.763 382.384 325.607 382.187 325.411C381.99 325.215 381.839 324.984 381.743 324.732C381.647 324.48 381.609 324.213 381.631 323.946C381.67 323.458 381.909 323.002 382.299 322.67C382.688 322.337 383.2 322.152 383.732 322.152C384.263 322.152 384.775 322.337 385.165 322.67C385.555 323.002 385.793 323.458 385.833 323.946Z" fill="white" stroke="black" stroke-width="0.151437"/>
<path fill-rule="evenodd" clip-rule="evenodd" d="M388.3 375.1C388.3 376 386.3 376.7 383.9 376.7C381.5 376.7 379.8 376 379.8 375.1C379.8 374.2 381.7 373.6 384 373.6C386.3 373.6 388.3 374.3 388.3 375.1ZM426.9 378.9C426.7 379.6 424.6 379.6 422.2 379C419.9 378.5 418.2 377.6 418.4 377C418.7 376.4 420.8 376.3 423.1 377C425.4 377.5 427.1 378.3 426.9 379V378.9ZM410.7 376.3C410.7 377.1 408.7 377.6 406.2 377.5C403.9 377.3 402 376.5 402 375.7C402.1 375 404.2 374.5 406.6 374.7C409 374.9 410.9 375.6 410.7 376.3ZM339.8 378.9C340 379.6 342.1 379.6 344.4 379C346.8 378.5 348.4 377.6 348.2 377C348 376.4 345.9 376.3 343.5 377C341.3 377.5 339.5 378.3 339.8 379V378.9ZM356.8 376C356.8 376.8 358.8 377.2 361.2 377C363.7 376.9 365.6 376.2 365.4 375.3C365.4 374.6 363.4 374.1 360.9 374.3C358.5 374.4 356.6 375.1 356.7 376H356.8Z" fill="black"/>
<path d="M0 0H256V256H0V0Z" fill="#012169"/>
<path d="M256 0V32L161 128L256 221.5V256H222.5L127 162L34 256H0V222L93 128.5L0 37V0H31L127 94L220 0H256Z" fill="white"/>
<path d="M92 162L97.5 179L21 256H0V254.5L92 162ZM154 156L181 160L256 233.5V256L154 156ZM256 0L160 98L158 76L233 0H256ZM0 0.5L96.5 95L67 91L0 24.5V0.5Z" fill="#C8102E"/>
<path d="M88 0V256H168V0H88ZM0 88V168H256V88H0Z" fill="white"/>
<path d="M0 104V152H256V104H0ZM104 0V256H152V0H104Z" fill="#C8102E"/>
</g>
<defs>
<clipPath id="clip0_2_5099">
<rect width="512" height="512" fill="white"/>
</clipPath>
</defs>
</svg>
