<svg width="512" height="512" viewBox="0 0 512 512" fill="none" xmlns="http://www.w3.org/2000/svg">
<g clip-path="url(#clip0_2_5226)">
<path d="M0 170.7H512V341.3H0V170.7Z" fill="white"/>
<path d="M0 0H512V170.7H0V0Z" fill="#CE1126"/>
<path d="M0 341.3H512V512H0V341.3Z" fill="#000001"/>
<path d="M331.629 224.642C330.656 224.175 329.771 223.542 329.013 222.773C328.453 221.839 328.826 221.839 331.256 222.399C335.553 223.707 338.356 223.147 341.159 220.904L343.588 218.849L346.391 220.157C348.073 221.091 349.755 221.652 350.128 221.465C351.436 221.091 354.052 217.728 353.866 216.607C353.866 215.299 354.987 215.672 355.734 217.167C356.855 220.157 355.174 223.707 351.997 224.455C350.689 224.828 349.381 224.642 347.139 223.894C344.523 222.96 343.962 222.96 342.654 223.894C341.088 225.077 339.211 225.778 337.253 225.911C335.295 226.044 333.341 225.603 331.629 224.642ZM342.467 214.738C341.202 212.453 340.558 209.875 340.599 207.264C340.785 206.142 341.159 205.769 342.093 206.142C343.962 206.703 344.336 208.011 343.962 211.748C343.962 215.112 343.401 216.046 342.467 214.738ZM216.15 211.188C215.963 213.617 220.634 219.783 222.69 220.904C221.195 221.465 219.513 221.278 218.205 221.839C210.731 229.313 183.823 255.473 178.965 261.827C193.54 262.2 209.61 261.64 223.25 261.079C223.25 251.176 232.593 250.615 238.947 247.065C242.123 252.11 250.158 251.736 251.28 259.398V292.285H127.018C126.548 294.778 125.559 297.146 124.116 299.233C122.674 301.321 120.809 303.082 118.642 304.403C116.476 305.724 114.056 306.575 111.539 306.902C109.023 307.229 106.466 307.023 104.034 306.299C107.771 302.562 114.124 301.067 116.367 295.648C118.235 283.689 112.629 276.402 108.892 269.488C113.593 267.981 118.012 265.708 121.972 262.761C117.675 275.841 133.558 274.533 145.143 274.159C145.517 269.675 145.33 264.443 141.966 263.695C146.264 262.014 147.012 261.453 154.299 255.473V273.412L240.442 273.225C240.442 267.619 241.937 258.463 237.452 258.463C233.341 258.463 237.452 270.049 234.088 270.049H167.379V258.837C170.182 255.847 169.809 256.034 189.055 236.787C190.924 234.919 204.564 222.586 216.337 211.188H216.15ZM382.642 210.627C387.314 213.243 391.051 216.607 396.657 218.101C396.096 220.531 393.854 221.465 393.293 223.894V274.346C399.646 275.654 401.141 271.917 404.131 270.049C404.878 278.083 410.11 285.932 409.737 292.472H382.642V210.627ZM346.391 237.722C346.391 237.722 356.295 229.313 356.295 228.939V272.851H363.396L363.209 223.707C366.012 220.717 371.804 216.607 373.112 213.617V292.098H310.701C309.767 275.841 309.58 259.024 328.64 262.574V256.034C328.079 254.913 326.958 256.221 326.771 254.726C329.761 251.736 330.695 250.989 338.917 243.888L339.104 272.851H346.391V237.722ZM322.847 272.478C324.155 274.346 328.826 274.346 328.453 270.983C327.892 268.18 321.913 269.114 322.847 272.478Z" fill="#007A3D"/>
<path d="M141.966 305.365C144.03 305.365 145.704 303.692 145.704 301.628C145.704 299.564 144.03 297.891 141.966 297.891C139.902 297.891 138.229 299.564 138.229 301.628C138.229 303.692 139.902 305.365 141.966 305.365Z" fill="#007A3D"/>
<path d="M259.688 210.814C264.36 213.243 268.097 216.793 273.89 218.288C273.142 220.531 271.087 221.465 270.526 223.894V274.346C276.879 275.654 278.187 272.104 281.177 270.048C282.111 278.083 287.157 286.118 286.97 292.472H259.688V210.814Z" fill="#007A3D"/>
</g>
<defs>
<clipPath id="clip0_2_5226">
<rect width="512" height="512" fill="white"/>
</clipPath>
</defs>
</svg>
