<svg width="512" height="512" viewBox="0 0 512 512" fill="none" xmlns="http://www.w3.org/2000/svg">
<g clip-path="url(#clip0_2_5234)">
<mask id="mask0_2_5234" style="mask-type:luminance" maskUnits="userSpaceOnUse" x="-1" y="0" width="513" height="512">
<path d="M-0.0294189 0H511.892V511.922H-0.0294189V0Z" fill="white"/>
</mask>
<g mask="url(#mask0_2_5234)">
<path fill-rule="evenodd" clip-rule="evenodd" d="M-192 0H703.966V511.922H-192V0Z" fill="white"/>
<path fill-rule="evenodd" clip-rule="evenodd" d="M-192 343.793H703.966V512.025H-192V343.793Z" fill="#DA0000"/>
<path fill-rule="evenodd" clip-rule="evenodd" d="M-21.7035 350.914H27.4245V354.32H-21.7035V350.914ZM-14.3756 367.84H-10.9697V371.143H-14.4788L-14.3756 367.84ZM27.5277 367.737V371.143H17.7227V367.737H27.5277ZM32.7914 350.914H36.1973V371.143H32.7914V350.914Z" fill="white"/>
<path fill-rule="evenodd" clip-rule="evenodd" d="M52.2981 367.737V371.143H33.7203V367.737H52.2981ZM17.7228 359.893H21.1287V371.143H17.7228V359.893Z" fill="white"/>
<path fill-rule="evenodd" clip-rule="evenodd" d="M49.5114 350.914H52.9173V371.143H49.6146L49.5114 350.914ZM41.1514 350.914H44.4541V371.143H41.2546L41.1514 350.914ZM-3.64174 358.964V362.37H-21.7035V358.964H-3.64174ZM35.5781 358.964V362.37H17.7227V358.964H35.5781Z" fill="white"/>
<path fill-rule="evenodd" clip-rule="evenodd" d="M17.7228 359.79H21.1287V371.143H17.7228V359.79Z" fill="white"/>
<path fill-rule="evenodd" clip-rule="evenodd" d="M17.7228 359.79H21.1287V371.143H17.7228V359.79Z" fill="white"/>
<path fill-rule="evenodd" clip-rule="evenodd" d="M17.7227 359.79H21.1287V371.143H17.7227V359.79ZM-21.4971 359.79H-18.1944V371.143H-21.7035L-21.4971 359.79ZM7.19531 359.79H10.6012V371.143H7.19531V359.79ZM-7.04767 359.79H-3.64174V371.143H-7.04767V359.79Z" fill="white"/>
<path fill-rule="evenodd" clip-rule="evenodd" d="M9.56908 367.737V371.143H-5.60278V367.737H9.56908ZM10.6012 358.964V362.37H1.00265V358.964H10.6012Z" fill="white"/>
<path fill-rule="evenodd" clip-rule="evenodd" d="M58.2843 350.914H107.309V354.32H58.2843V350.914ZM65.509 367.84H68.9149V371.143H65.6122L65.509 367.84ZM107.412 367.737V371.143H97.6073V367.737H107.412ZM112.676 350.914H116.082V371.143H112.676V350.914Z" fill="white"/>
<path fill-rule="evenodd" clip-rule="evenodd" d="M132.286 367.737V371.143H113.708V367.737H132.286ZM97.6073 359.893H101.013V371.143H97.6073V359.893Z" fill="white"/>
<path fill-rule="evenodd" clip-rule="evenodd" d="M129.499 350.914H132.905V371.143H129.499V350.914ZM121.036 350.914H124.442V371.143H121.036V350.914ZM76.2428 358.964V362.37H58.3875V358.964H76.2428ZM115.463 358.964V362.37H97.6072V358.964H115.463Z" fill="white"/>
<path fill-rule="evenodd" clip-rule="evenodd" d="M97.6073 359.79H101.013V371.143H97.6073V359.79Z" fill="white"/>
<path fill-rule="evenodd" clip-rule="evenodd" d="M97.6073 359.79H101.013V371.143H97.6073V359.79Z" fill="white"/>
<path fill-rule="evenodd" clip-rule="evenodd" d="M97.6072 359.79H101.013V371.143H97.6072V359.79ZM58.3875 359.79H61.6902V371.143H58.3875V359.79ZM87.183 359.79H90.4858V371.143H87.183V359.79ZM72.8369 359.79H76.2428V371.143H72.8369V359.79Z" fill="white"/>
<path fill-rule="evenodd" clip-rule="evenodd" d="M89.5569 367.737V371.143H74.2819V367.737H89.5569ZM90.589 358.964V362.37H80.8873V358.964H90.589Z" fill="white"/>
<path fill-rule="evenodd" clip-rule="evenodd" d="M138.685 350.914H187.71V354.32H138.685V350.914ZM146.013 367.84H149.419V371.143H146.013V367.84ZM187.916 367.737V371.143H178.111V367.737H187.916ZM193.076 350.914H196.482V371.143H193.18L193.076 350.914Z" fill="white"/>
<path fill-rule="evenodd" clip-rule="evenodd" d="M212.686 367.737V371.143H194.109V367.737H212.686ZM178.111 359.893H181.414V371.143H178.111V359.893Z" fill="white"/>
<path fill-rule="evenodd" clip-rule="evenodd" d="M209.9 350.914H213.306V371.143H209.9V350.914ZM201.54 350.914H204.842V371.143H201.437L201.54 350.914ZM156.643 358.964V362.37H138.788V358.964H156.643ZM195.966 358.964V362.37H178.111V358.964H195.966Z" fill="white"/>
<path fill-rule="evenodd" clip-rule="evenodd" d="M178.111 359.79H181.414V371.143H178.111V359.79Z" fill="white"/>
<path fill-rule="evenodd" clip-rule="evenodd" d="M178.111 359.79H181.414V371.143H178.111V359.79Z" fill="white"/>
<path fill-rule="evenodd" clip-rule="evenodd" d="M178.111 359.79H181.414V371.143H178.111V359.79ZM138.788 359.79H142.194V371.143H138.788V359.79ZM167.584 359.79H170.99V371.143H167.584V359.79ZM153.341 359.79H156.747V371.143H153.341V359.79Z" fill="white"/>
<path fill-rule="evenodd" clip-rule="evenodd" d="M169.958 367.737V371.143H154.786V367.737H169.958ZM170.99 358.964V362.37H161.391V358.964H170.99Z" fill="white"/>
<path fill-rule="evenodd" clip-rule="evenodd" d="M219.395 350.914H268.523V354.32H219.395V350.914ZM226.723 367.84H230.129V371.143H226.723V367.84ZM268.626 367.737V371.143H258.821V367.737H268.626ZM273.89 350.914H277.296V371.143H273.89V350.914Z" fill="white"/>
<path fill-rule="evenodd" clip-rule="evenodd" d="M293.397 367.737V371.143H274.819V367.737H293.397ZM258.821 359.893H262.227V371.143H258.821V359.893Z" fill="white"/>
<path fill-rule="evenodd" clip-rule="evenodd" d="M290.61 350.914H294.016V371.143H290.61V350.914ZM282.25 350.914H285.553V371.143H282.25V350.914ZM237.457 358.964V362.37H219.498V358.964H237.457ZM276.677 358.964V362.37H258.821V358.964H276.677Z" fill="white"/>
<path fill-rule="evenodd" clip-rule="evenodd" d="M258.821 359.79H262.227V371.143H258.821V359.79Z" fill="white"/>
<path fill-rule="evenodd" clip-rule="evenodd" d="M258.821 359.79H262.227V371.143H258.821V359.79Z" fill="white"/>
<path fill-rule="evenodd" clip-rule="evenodd" d="M258.821 359.79H262.227V371.143H258.821V359.79ZM219.601 359.79H222.904V371.143H219.498L219.601 359.79ZM248.294 359.79H251.7V371.143H248.294V359.79ZM234.051 359.79H237.457V371.143H234.051V359.79Z" fill="white"/>
<path fill-rule="evenodd" clip-rule="evenodd" d="M250.771 367.737V371.143H235.599V367.737H250.771ZM251.7 358.964V362.37H242.101V358.964H251.7Z" fill="white"/>
<path fill-rule="evenodd" clip-rule="evenodd" d="M-192 0H703.966V168.232H-192V0Z" fill="#239F40"/>
<path fill-rule="evenodd" clip-rule="evenodd" d="M300.621 350.914H349.646V354.32H300.621V350.914ZM307.949 367.84H311.355V371.143H307.949V367.84ZM349.853 367.737V371.143H340.048V367.737H349.853ZM355.013 350.914H358.522V371.143H355.013V350.914Z" fill="white"/>
<path fill-rule="evenodd" clip-rule="evenodd" d="M374.623 367.737V371.143H356.045V367.737H374.623ZM340.048 359.893H343.35V371.143H340.048V359.893Z" fill="white"/>
<path fill-rule="evenodd" clip-rule="evenodd" d="M371.836 350.914H375.242V371.143H371.836V350.914ZM363.476 350.914H366.779V371.143H363.476V350.914ZM318.683 358.964V362.37H300.725V358.964H318.683ZM357.903 358.964V362.37H340.048V358.964H357.903Z" fill="white"/>
<path fill-rule="evenodd" clip-rule="evenodd" d="M340.048 359.79H343.35V371.143H340.048V359.79Z" fill="white"/>
<path fill-rule="evenodd" clip-rule="evenodd" d="M340.048 359.79H343.35V371.143H340.048V359.79Z" fill="white"/>
<path fill-rule="evenodd" clip-rule="evenodd" d="M340.048 359.79H343.35V371.143H340.048V359.79ZM300.725 359.79H304.131V371.143H300.725V359.79ZM329.52 359.79H332.926V371.143H329.52V359.79ZM315.277 359.79H318.683V371.143H315.277V359.79Z" fill="white"/>
<path fill-rule="evenodd" clip-rule="evenodd" d="M331.894 367.737V371.143H316.722V367.737H331.894ZM332.926 358.964V362.37H323.328V358.964H332.926Z" fill="white"/>
<path fill-rule="evenodd" clip-rule="evenodd" d="M381.332 350.914H430.459V354.32H381.332V350.914ZM388.659 367.84H392.065V371.143H388.659V367.84ZM430.563 367.737V371.143H420.758V367.737H430.563ZM435.826 350.914H439.232V371.143H435.826V350.914Z" fill="white"/>
<path fill-rule="evenodd" clip-rule="evenodd" d="M455.333 367.737V371.143H436.755V367.737H455.333ZM420.758 359.893H424.164V371.143H420.758V359.893Z" fill="white"/>
<path fill-rule="evenodd" clip-rule="evenodd" d="M452.65 350.914H455.952V371.143H452.65V350.914ZM444.187 350.914H447.592V371.143H444.187V350.914ZM399.393 358.964V362.37H381.435V358.964H399.393ZM438.613 358.964V362.37H420.758V358.964H438.613Z" fill="white"/>
<path fill-rule="evenodd" clip-rule="evenodd" d="M420.758 359.79H424.164V371.143H420.758V359.79Z" fill="white"/>
<path fill-rule="evenodd" clip-rule="evenodd" d="M420.758 359.79H424.164V371.143H420.758V359.79Z" fill="white"/>
<path fill-rule="evenodd" clip-rule="evenodd" d="M420.758 359.79H424.164V371.143H420.758V359.79ZM381.538 359.79H384.841V371.143H381.435L381.538 359.79ZM410.23 359.79H413.636V371.143H410.23V359.79ZM395.987 359.79H399.393V371.143H395.987V359.79Z" fill="white"/>
<path fill-rule="evenodd" clip-rule="evenodd" d="M412.604 367.737V371.143H397.536V367.737H412.604ZM413.636 358.964V362.37H404.038V358.964H413.636Z" fill="white"/>
<path fill-rule="evenodd" clip-rule="evenodd" d="M462.145 350.914H511.17V354.32H462.145V350.914ZM469.37 367.84H472.776V371.143H469.37V367.84ZM511.273 367.737V371.143H501.571V367.737H511.273ZM516.537 350.914H519.943V371.143H516.537V350.914Z" fill="white"/>
<path fill-rule="evenodd" clip-rule="evenodd" d="M536.147 367.737V371.143H517.569V367.737H536.147ZM501.468 359.893H504.874V371.143H501.468V359.893Z" fill="white"/>
<path fill-rule="evenodd" clip-rule="evenodd" d="M533.36 350.914H536.766V371.143H533.36V350.914ZM524.897 350.914H528.303V371.143H524.897V350.914ZM480.104 358.964V362.37H462.145V358.964H480.104ZM519.323 358.964V362.37H501.571V358.964H519.323Z" fill="white"/>
<path fill-rule="evenodd" clip-rule="evenodd" d="M501.571 359.79H504.874V371.143H501.468L501.571 359.79Z" fill="white"/>
<path fill-rule="evenodd" clip-rule="evenodd" d="M501.571 359.79H504.874V371.143H501.468L501.571 359.79Z" fill="white"/>
<path fill-rule="evenodd" clip-rule="evenodd" d="M501.571 359.79H504.874V371.143H501.468L501.571 359.79ZM462.145 359.79H465.551V371.143H462.145V359.79ZM491.044 359.79H494.347V371.143H490.941L491.044 359.79ZM476.698 359.79H480.104V371.143H476.698V359.79Z" fill="white"/>
<path fill-rule="evenodd" clip-rule="evenodd" d="M493.314 367.737V371.143H478.246V367.737H493.314ZM494.347 358.964V362.37H484.748V358.964H494.347Z" fill="white"/>
<path fill-rule="evenodd" clip-rule="evenodd" d="M-21.7035 143.462H27.4245V146.765H-21.7035V143.462ZM-14.3756 160.285H-10.9697V163.588H-14.4788L-14.3756 160.285ZM27.5277 160.285V163.588H17.7227V160.182L27.5277 160.285ZM32.7914 143.462H36.1973V163.588H32.7914V143.462Z" fill="white"/>
<path fill-rule="evenodd" clip-rule="evenodd" d="M52.2981 160.182V163.588H33.7203V160.182H52.2981ZM17.7228 152.338H21.1287V163.691H17.7228V152.338Z" fill="white"/>
<path fill-rule="evenodd" clip-rule="evenodd" d="M49.5114 143.462H52.9173V163.588H49.6146L49.5114 143.462ZM41.1514 143.462H44.4541V163.588H41.2546L41.1514 143.462ZM-3.64174 151.409V154.815H-21.7035V151.512L-3.64174 151.409ZM35.5781 151.409V154.815H17.7227V151.512L35.5781 151.409Z" fill="white"/>
<path fill-rule="evenodd" clip-rule="evenodd" d="M17.7228 152.338H21.1287V163.691H17.7228V152.338Z" fill="white"/>
<path fill-rule="evenodd" clip-rule="evenodd" d="M17.7228 152.338H21.1287V163.691H17.7228V152.338Z" fill="white"/>
<path fill-rule="evenodd" clip-rule="evenodd" d="M17.7227 152.338H21.1287V163.691H17.7227V152.338ZM-21.4971 152.338H-18.1944V163.691H-21.7035L-21.4971 152.338ZM7.19531 152.338H10.6012V163.691H7.19531V152.338ZM-7.04767 152.338H-3.64174V163.691H-7.04767V152.338Z" fill="white"/>
<path fill-rule="evenodd" clip-rule="evenodd" d="M9.56908 160.182V163.588H-5.60278V160.182H9.56908ZM10.6012 151.512V154.815H1.00265V151.512H10.6012Z" fill="white"/>
<path fill-rule="evenodd" clip-rule="evenodd" d="M58.2843 143.462H107.309V146.765H58.2843V143.462ZM65.509 160.285H68.9149V163.588H65.6122L65.509 160.285ZM107.412 160.285V163.588H97.6073V160.182L107.412 160.285ZM112.676 143.462H116.082V163.588H112.676V143.462Z" fill="white"/>
<path fill-rule="evenodd" clip-rule="evenodd" d="M132.286 160.182V163.588H113.708V160.182H132.286ZM97.6073 152.338H101.013V163.691H97.6073V152.338Z" fill="white"/>
<path fill-rule="evenodd" clip-rule="evenodd" d="M129.499 143.462H132.905V163.588H129.499V143.462ZM121.036 143.462H124.442V163.588H121.036V143.462ZM76.2428 151.409V154.815H58.3875V151.512L76.2428 151.409ZM115.463 151.409V154.815H97.6072V151.512L115.463 151.409Z" fill="white"/>
<path fill-rule="evenodd" clip-rule="evenodd" d="M97.6073 152.338H101.013V163.691H97.6073V152.338Z" fill="white"/>
<path fill-rule="evenodd" clip-rule="evenodd" d="M97.6073 152.338H101.013V163.691H97.6073V152.338Z" fill="white"/>
<path fill-rule="evenodd" clip-rule="evenodd" d="M97.6072 152.338H101.013V163.691H97.6072V152.338ZM58.3875 152.338H61.6902V163.691H58.3875V152.338ZM87.183 152.338H90.4858V163.691H87.183V152.338ZM72.8369 152.338H76.2428V163.691H72.8369V152.338Z" fill="white"/>
<path fill-rule="evenodd" clip-rule="evenodd" d="M89.5569 160.182V163.588H74.2819V160.182H89.5569ZM90.589 151.512V154.815H80.8873V151.512H90.589Z" fill="white"/>
<path fill-rule="evenodd" clip-rule="evenodd" d="M138.685 143.462H187.71V146.765H138.685V143.462ZM146.013 160.285H149.419V163.588H146.013V160.285ZM187.916 160.285V163.588H178.111V160.182L187.916 160.285ZM193.076 143.462H196.482V163.588H193.18L193.076 143.462Z" fill="white"/>
<path fill-rule="evenodd" clip-rule="evenodd" d="M212.686 160.182V163.588H194.109V160.182H212.686ZM178.111 152.338H181.414V163.691H178.111V152.338Z" fill="white"/>
<path fill-rule="evenodd" clip-rule="evenodd" d="M209.9 143.462H213.306V163.588H209.9V143.462ZM201.54 143.462H204.842V163.588H201.437L201.54 143.462ZM156.643 151.409V154.815H138.788V151.512L156.643 151.409ZM195.966 151.409V154.815H178.111V151.512L195.966 151.409Z" fill="white"/>
<path fill-rule="evenodd" clip-rule="evenodd" d="M178.111 152.338H181.414V163.691H178.111V152.338Z" fill="white"/>
<path fill-rule="evenodd" clip-rule="evenodd" d="M178.111 152.338H181.414V163.691H178.111V152.338Z" fill="white"/>
<path fill-rule="evenodd" clip-rule="evenodd" d="M178.111 152.338H181.414V163.691H178.111V152.338ZM138.788 152.338H142.194V163.691H138.788V152.338ZM167.584 152.338H170.99V163.691H167.584V152.338ZM153.341 152.338H156.747V163.691H153.341V152.338Z" fill="white"/>
<path fill-rule="evenodd" clip-rule="evenodd" d="M169.958 160.182V163.588H154.786V160.182H169.958ZM170.99 151.512V154.815H161.391V151.512H170.99Z" fill="white"/>
<path fill-rule="evenodd" clip-rule="evenodd" d="M219.395 143.462H268.523V146.765H219.395V143.462ZM226.723 160.285H230.129V163.588H226.723V160.285ZM268.626 160.285V163.588H258.821V160.182L268.626 160.285ZM273.89 143.462H277.296V163.588H273.89V143.462Z" fill="white"/>
<path fill-rule="evenodd" clip-rule="evenodd" d="M293.397 160.182V163.588H274.819V160.182H293.397ZM258.821 152.338H262.227V163.691H258.821V152.338Z" fill="white"/>
<path fill-rule="evenodd" clip-rule="evenodd" d="M290.61 143.462H294.016V163.588H290.61V143.462ZM282.25 143.462H285.553V163.588H282.25V143.462ZM237.457 151.409V154.815H219.498V151.512L237.457 151.409ZM276.677 151.409V154.815H258.821V151.512L276.677 151.409Z" fill="white"/>
<path fill-rule="evenodd" clip-rule="evenodd" d="M258.821 152.338H262.227V163.691H258.821V152.338Z" fill="white"/>
<path fill-rule="evenodd" clip-rule="evenodd" d="M258.821 152.338H262.227V163.691H258.821V152.338Z" fill="white"/>
<path fill-rule="evenodd" clip-rule="evenodd" d="M258.821 152.338H262.227V163.691H258.821V152.338ZM219.601 152.338H222.904V163.691H219.498L219.601 152.338ZM248.294 152.338H251.7V163.691H248.294V152.338ZM234.051 152.338H237.457V163.691H234.051V152.338Z" fill="white"/>
<path fill-rule="evenodd" clip-rule="evenodd" d="M250.771 160.182V163.588H235.599V160.182H250.771ZM251.7 151.512V154.815H242.101V151.512H251.7Z" fill="white"/>
<path fill-rule="evenodd" clip-rule="evenodd" d="M300.621 143.462H349.646V146.765H300.621V143.462ZM307.949 160.285H311.355V163.588H307.949V160.285ZM349.853 160.285V163.588H340.048V160.182L349.853 160.285ZM355.013 143.462H358.522V163.588H355.013V143.462Z" fill="white"/>
<path fill-rule="evenodd" clip-rule="evenodd" d="M374.623 160.182V163.588H356.045V160.182H374.623ZM340.048 152.338H343.35V163.691H340.048V152.338Z" fill="white"/>
<path fill-rule="evenodd" clip-rule="evenodd" d="M371.836 143.462H375.242V163.588H371.836V143.462ZM363.476 143.462H366.779V163.588H363.476V143.462ZM318.683 151.409V154.815H300.725V151.512L318.683 151.409ZM357.903 151.409V154.815H340.048V151.512L357.903 151.409Z" fill="white"/>
<path fill-rule="evenodd" clip-rule="evenodd" d="M340.048 152.338H343.35V163.691H340.048V152.338Z" fill="white"/>
<path fill-rule="evenodd" clip-rule="evenodd" d="M340.048 152.338H343.35V163.691H340.048V152.338Z" fill="white"/>
<path fill-rule="evenodd" clip-rule="evenodd" d="M340.048 152.338H343.35V163.691H340.048V152.338ZM300.725 152.338H304.131V163.691H300.725V152.338ZM329.52 152.338H332.926V163.691H329.52V152.338ZM315.277 152.338H318.683V163.691H315.277V152.338Z" fill="white"/>
<path fill-rule="evenodd" clip-rule="evenodd" d="M331.894 160.182V163.588H316.722V160.182H331.894ZM332.926 151.512V154.815H323.328V151.512H332.926Z" fill="white"/>
<path fill-rule="evenodd" clip-rule="evenodd" d="M381.332 143.462H430.459V146.765H381.332V143.462ZM388.659 160.285H392.065V163.588H388.659V160.285ZM430.563 160.285V163.588H420.758V160.182L430.563 160.285ZM435.826 143.462H439.232V163.588H435.826V143.462Z" fill="white"/>
<path fill-rule="evenodd" clip-rule="evenodd" d="M455.333 160.182V163.588H436.755V160.182H455.333ZM420.758 152.338H424.164V163.691H420.758V152.338Z" fill="white"/>
<path fill-rule="evenodd" clip-rule="evenodd" d="M452.65 143.462H455.952V163.588H452.65V143.462ZM444.187 143.462H447.592V163.588H444.187V143.462ZM399.393 151.409V154.815H381.435V151.512L399.393 151.409ZM438.613 151.409V154.815H420.758V151.512L438.613 151.409Z" fill="white"/>
<path fill-rule="evenodd" clip-rule="evenodd" d="M420.758 152.338H424.164V163.691H420.758V152.338Z" fill="white"/>
<path fill-rule="evenodd" clip-rule="evenodd" d="M420.758 152.338H424.164V163.691H420.758V152.338Z" fill="white"/>
<path fill-rule="evenodd" clip-rule="evenodd" d="M420.758 152.338H424.164V163.691H420.758V152.338ZM381.538 152.338H384.841V163.691H381.435L381.538 152.338ZM410.23 152.338H413.636V163.691H410.23V152.338ZM395.987 152.338H399.393V163.691H395.987V152.338Z" fill="white"/>
<path fill-rule="evenodd" clip-rule="evenodd" d="M412.604 160.182V163.588H397.536V160.182H412.604ZM413.636 151.512V154.815H404.038V151.512H413.636Z" fill="white"/>
<path fill-rule="evenodd" clip-rule="evenodd" d="M462.145 143.462H511.17V146.765H462.145V143.462ZM469.37 160.285H472.776V163.588H469.37V160.285ZM511.273 160.285V163.588H501.571V160.182L511.273 160.285ZM516.537 143.462H519.943V163.588H516.537V143.462Z" fill="white"/>
<path fill-rule="evenodd" clip-rule="evenodd" d="M536.147 160.182V163.588H517.569V160.182H536.147ZM501.468 152.338H504.874V163.691H501.468V152.338Z" fill="white"/>
<path fill-rule="evenodd" clip-rule="evenodd" d="M533.36 143.462H536.766V163.588H533.36V143.462ZM524.897 143.462H528.303V163.588H524.897V143.462ZM480.104 151.409V154.815H462.145V151.512L480.104 151.409ZM519.323 151.409V154.815H501.571V151.512L519.323 151.409Z" fill="white"/>
<path fill-rule="evenodd" clip-rule="evenodd" d="M501.571 152.338H504.874V163.691H501.468L501.571 152.338Z" fill="white"/>
<path fill-rule="evenodd" clip-rule="evenodd" d="M501.571 152.338H504.874V163.691H501.468L501.571 152.338Z" fill="white"/>
<path fill-rule="evenodd" clip-rule="evenodd" d="M501.571 152.338H504.874V163.691H501.468L501.571 152.338ZM462.145 152.338H465.551V163.691H462.145V152.338ZM491.044 152.338H494.347V163.691H490.941L491.044 152.338ZM476.698 152.338H480.104V163.691H476.698V152.338Z" fill="white"/>
<path fill-rule="evenodd" clip-rule="evenodd" d="M493.314 160.182V163.588H478.246V160.182H493.314ZM494.347 151.512V154.815H484.748V151.512H494.347Z" fill="white"/>
<path fill-rule="evenodd" clip-rule="evenodd" d="M-68.8705 339.561H-62.7811V349.882H-68.8705V339.561ZM91.6211 339.561H97.7105V349.882H91.6211V339.561ZM-192 339.561H-186.014V349.882H-192V339.561ZM-110.567 339.561H-104.478V349.882H-110.567V339.561ZM-29.6507 339.561H-23.6645V349.882H-29.6507V339.561ZM10.3948 339.561H16.381V349.882H10.3948V339.561ZM51.1628 339.561H57.3554V349.882H51.1628V339.561ZM131.667 339.561H137.756V349.882H131.667V339.561ZM334.784 339.561H340.77V349.882H334.784V339.561ZM172.538 339.561H178.627V349.882H172.538V339.561ZM212.583 339.561H218.673V349.882H212.583V339.561ZM253.042 339.561H259.028V349.882H253.042V339.561ZM293.5 339.561H299.486V349.882H293.5V339.561ZM616.547 339.561H622.74V349.882H616.547V339.561ZM374.004 339.561H379.99V349.882H373.9L374.004 339.561ZM414.772 339.561H420.861V349.882H414.772V339.561ZM456.056 339.561H462.145V349.882H456.056V339.561ZM494.863 339.561H500.952V349.882H494.863V339.561ZM536.147 339.561H542.236V349.882H536.043L536.147 339.561ZM576.605 339.561H582.591V349.882H576.605V339.561ZM696.328 339.561H702.315V349.882H696.225L696.328 339.561ZM657.521 339.561H663.508V349.882H657.521V339.561ZM-151.438 339.561H-145.349V349.882H-151.438V339.561Z" fill="#D90000"/>
<path fill-rule="evenodd" clip-rule="evenodd" d="M-68.8705 162.659H-62.7811V173.083H-68.8705V162.659ZM91.6211 162.659H97.7105V173.083H91.6211V162.659ZM-192 162.659H-186.014V173.083H-192V162.659ZM-110.567 162.659H-104.478V173.083H-110.567V162.659ZM-29.6507 162.659H-23.6645V173.083H-29.6507V162.659ZM10.3948 162.659H16.381V173.083H10.3948V162.659ZM51.1628 162.659H57.3554V173.083H51.1628V162.659ZM131.667 162.659H137.756V173.083H131.667V162.659ZM334.784 162.659H340.77V173.083H334.784V162.659ZM172.538 162.659H178.627V173.083H172.538V162.659ZM212.583 162.659H218.673V173.083H212.583V162.659ZM253.042 162.659H259.028V173.083H253.042V162.659ZM293.5 162.659H299.486V173.083H293.5V162.659ZM616.547 162.659H622.74V173.083H616.547V162.659ZM374.004 162.659H379.99V173.083H373.9L374.004 162.659ZM414.772 162.659H420.861V173.083H414.772V162.659ZM456.056 162.659H462.145V173.083H456.056V162.659ZM494.863 162.659H500.952V173.083H494.863V162.659ZM536.147 162.659H542.236V173.083H536.043L536.147 162.659ZM576.605 162.659H582.591V173.083H576.605V162.659ZM696.328 162.659H702.315V173.083H696.225L696.328 162.659ZM657.521 162.659H663.508V173.083H657.521V162.659ZM-151.438 162.659H-145.349V173.083H-151.438V162.659Z" fill="#239E3F"/>
<path fill-rule="evenodd" clip-rule="evenodd" d="M279.67 197.544C288.236 207.865 314.245 265.146 263.982 302.715C240.347 320.467 255.002 321.293 255.725 324.389C293.706 304.16 306.091 276.912 305.782 252.348C305.472 227.888 292.571 206.317 279.773 197.544H279.67Z" fill="#DA0000"/>
<path fill-rule="evenodd" clip-rule="evenodd" d="M284.83 194.86C294.077 200.524 301.952 208.169 307.887 217.245C313.822 226.321 317.669 236.6 319.15 247.342C320.631 258.085 319.709 269.022 316.451 279.364C313.194 289.707 307.681 299.198 300.312 307.153C327.559 301.167 362.238 220.766 284.624 194.86H284.83ZM227.136 194.86C217.889 200.524 210.014 208.169 204.079 217.245C198.144 226.321 194.297 236.6 192.816 247.342C191.335 258.085 192.257 269.022 195.514 279.364C198.772 289.707 204.285 299.198 211.654 307.153C184.304 301.167 149.625 220.766 227.136 194.86Z" fill="#DA0000"/>
<path fill-rule="evenodd" clip-rule="evenodd" d="M232.193 197.544C223.73 207.865 197.618 265.146 247.881 302.715C271.516 320.467 256.86 321.293 256.138 324.389C218.26 304.16 205.771 276.912 206.081 252.348C206.391 227.888 219.395 206.317 232.193 197.544Z" fill="#DA0000"/>
<path fill-rule="evenodd" clip-rule="evenodd" d="M304.13 319.125C287.798 319.756 271.544 316.576 256.654 309.836C258.924 314.274 260.782 317.061 263.156 321.602C276.367 322.738 294.635 324.286 304.13 319.125ZM209.177 319.125C224.039 319.332 242.824 317.061 256.654 309.836C254.383 314.274 252.525 317.061 250.152 321.602C236.941 322.738 218.673 324.286 209.177 319.125ZM236.425 180.411C239.521 188.358 247.365 189.597 255.828 184.849C262.021 188.565 271.516 188.771 274.819 180.721C277.296 200.537 256.447 195.893 255.725 192.074C247.984 199.505 233.535 195.17 236.425 180.411Z" fill="#DA0000"/>
<path fill-rule="evenodd" clip-rule="evenodd" d="M256.344 331.614L264.188 322.634L265.22 202.498L255.931 194.241L246.642 202.085L248.5 323.047L256.344 331.614Z" fill="#DA0000"/>
</g>
</g>
<defs>
<clipPath id="clip0_2_5234">
<rect width="512" height="512" fill="white"/>
</clipPath>
</defs>
</svg>
