<svg width="512" height="512" viewBox="0 0 512 512" fill="none" xmlns="http://www.w3.org/2000/svg">
<g clip-path="url(#clip0_2_5525)">
<path d="M0 0H512V512H0V0Z" fill="white"/>
<path d="M0 0H512V153.6H0V0Z" fill="#000001"/>
<path d="M0 358.4H512V512H0V358.4Z" fill="#006600"/>
<path d="M164.28 408L170.04 411.2L319.48 152C328.12 150.08 332.92 141.76 337.72 133.44C340.92 127.68 353.72 105.6 359.16 76.8C343.978 90.2909 331.114 106.182 321.08 123.84C316.28 132.16 311.48 140.48 313.72 149.12L164.28 408Z" fill="black" stroke="black" stroke-width="3.2"/>
<path d="M164.28 408L170.04 411.2L319.48 152C328.12 150.08 332.92 141.76 337.72 133.44C340.92 127.68 353.72 105.6 359.16 76.8C343.978 90.2909 331.114 106.182 321.08 123.84C316.28 132.16 311.48 140.48 313.72 149.12L164.28 408Z" fill="white"/>
<path d="M347.42 408L341.66 411.2L192.22 152C183.58 150.08 178.78 141.76 173.98 133.44C170.78 127.68 157.98 105.6 152.54 76.8C167.721 90.2909 180.586 106.182 190.62 123.84C195.42 132.16 200.22 140.48 197.98 149.12L347.42 408Z" fill="black" stroke="black" stroke-width="3.2"/>
<path d="M347.42 408L341.66 411.2L192.22 152C183.58 150.08 178.78 141.76 173.98 133.44C170.78 127.68 157.98 105.6 152.54 76.8C167.721 90.2909 180.586 106.182 190.62 123.84C195.42 132.16 200.22 140.48 197.98 149.12L347.42 408Z" fill="white"/>
<path d="M255.8 102.4C236.6 102.4 204.6 153.6 195 179.2H0V332.8H195C204.7 358.4 236.7 409.6 255.9 409.6C275.1 409.6 307.1 358.4 316.7 332.8H512V179.2H316.6C307 153.6 275 102.4 255.8 102.4Z" fill="#BB0000"/>
<path d="M316.6 332.8C326.492 308.365 331.911 282.352 332.6 256C331.911 229.648 326.492 203.635 316.6 179.2C306.709 203.635 301.289 229.648 300.6 256C301.289 282.352 306.709 308.365 316.6 332.8Z" fill="black"/>
<path d="M195.1 332.8C185.209 308.365 179.789 282.352 179.1 256C179.789 229.648 185.209 203.635 195.1 179.2C204.992 203.635 210.411 229.648 211.1 256C210.411 282.352 204.992 308.365 195.1 332.8Z" fill="black"/>
<path d="M255.8 275.2C262.869 275.2 268.6 266.604 268.6 256C268.6 245.396 262.869 236.8 255.8 236.8C248.731 236.8 243 245.396 243 256C243 266.604 248.731 275.2 255.8 275.2Z" fill="white"/>
<path d="M259 274.56C259 274.56 271.8 300.16 271.8 341.76C271.8 383.36 259 408.96 259 408.96V274.56Z" fill="white"/>
<path d="M252.6 237.44C252.6 237.44 239.8 211.84 239.8 170.24C239.8 128.64 252.6 103.04 252.6 103.04V237.44Z" fill="white"/>
<path d="M252.6 274.56C252.6 274.56 239.8 300.16 239.8 341.76C239.8 383.36 252.6 408.96 252.6 408.96V274.56Z" fill="white"/>
<path d="M259 237.44C259 237.44 271.8 211.84 271.8 170.24C271.8 128.64 259 103.04 259 103.04V237.44Z" fill="white"/>
</g>
<defs>
<clipPath id="clip0_2_5525">
<rect width="512" height="512" fill="white"/>
</clipPath>
</defs>
</svg>
