<svg width="512" height="512" viewBox="0 0 512 512" fill="none" xmlns="http://www.w3.org/2000/svg">
<g clip-path="url(#clip0_2_5544)">
<mask id="mask0_2_5544" style="mask-type:luminance" maskUnits="userSpaceOnUse" x="-1" y="0" width="513" height="513">
<path d="M-0.0800781 0H511.969V512.049H0.04292L-0.0800781 0Z" fill="white"/>
</mask>
<g mask="url(#mask0_2_5544)">
<path fill-rule="evenodd" clip-rule="evenodd" d="M-128 0H640.75V512.049H-128V0Z" fill="#FF0000"/>
<path fill-rule="evenodd" clip-rule="evenodd" d="M105.454 261.129C119.107 244.524 147.397 260.76 170.521 248.829C143.092 250.305 128.209 235.668 106.561 237.759C128.947 223.983 148.012 242.187 173.104 234.807C139.894 232.101 141.37 217.218 111.235 215.127C138.049 203.688 151.21 226.935 177.532 221.646C146.536 214.512 142.477 196.308 119.476 192.372C153.055 187.329 150.841 207.132 183.805 209.592C150.349 195.324 159.205 182.778 131.161 171.954C162.526 171.216 160.435 192.864 192.046 198.522C164.986 181.302 168.307 165.558 145.921 153.258C172.489 153.75 175.072 180.933 202.132 189.297C178.024 170.232 184.297 153.996 163.51 136.899C189.832 143.049 186.019 166.542 213.448 181.425C193.153 158.916 200.902 142.68 183.19 124.107C208.528 132.348 198.934 154.611 225.256 175.767C210.127 150.921 219.475 135.054 204.592 114.021C228.208 126.321 216.769 148.953 238.663 171.585C228.331 146.124 238.663 130.257 228.085 107.625C248.257 122.754 236.326 146.985 252.562 170.232C246.658 138.252 260.434 132.963 256.129 105.042C271.381 123.861 254.284 142.68 265.969 170.232C264.739 138.867 281.344 131.487 278.392 106.272C293.644 128.904 269.905 148.584 279.868 172.815C282.328 142.926 302.008 135.3 302.377 112.053C314.308 133.332 288.232 148.707 292.537 176.997C301.024 145.755 321.934 141.942 324.517 120.909C331.651 145.509 303.115 157.071 304.837 184.377C313.324 156.702 339.4 153.381 344.812 132.963C348.01 159.039 322.303 163.713 315.169 192.495C328.699 169.125 352.315 167.034 362.893 148.461C362.032 174.291 333.004 177.612 324.148 201.843C340.876 181.302 361.786 184.869 378.514 166.665C376.792 190.035 347.272 188.682 331.528 212.79C349.732 196.062 377.038 201.105 390.937 186.714C390.199 207.255 354.037 205.779 336.817 224.106C357.973 212.667 384.664 219.432 400.162 208.608C397.21 226.689 359.08 222.63 340.63 236.652C365.845 229.641 385.279 240.342 405.82 232.593C395.857 250.182 361.171 239.112 342.721 250.551C364.615 246.861 387.862 260.022 407.788 255.84C401.269 270.969 363.262 254.856 342.598 264.45C367.198 264.081 383.188 279.825 405.82 278.718C393.52 292.494 360.064 273.552 340.63 276.75C364.369 281.67 382.45 301.35 400.531 302.334C385.771 313.65 358.096 287.82 335.587 291.141C358.711 297.291 378.145 323.613 391.429 324.228C377.161 334.068 348.871 301.719 329.56 302.826C352.93 313.527 363.754 340.341 379.252 344.154C360.187 350.304 341.368 315.003 320.827 313.773C344.566 328.779 345.919 351.657 364.246 361.743C345.058 366.663 331.282 326.688 310.987 323.367C330.544 337.635 333.373 368.262 346.411 377.979C326.731 378.963 319.72 337.266 299.671 331.239C316.891 345.63 312.709 376.749 325.993 390.156C305.698 385.974 308.281 349.566 287.002 337.266C302.254 356.7 294.382 384.129 304.468 399.627C284.542 391.632 293.275 359.037 274.21 340.587C284.542 361.251 273.472 385.236 281.59 405.162C263.509 396.306 275.686 357.807 261.787 342.432C268.183 366.294 256.375 385.974 261.172 407.253C242.599 385.728 264.001 364.203 247.888 342.063C252.07 367.401 234.481 384.867 237.31 406.023C222.55 388.803 245.182 361.128 233.743 339.48C236.203 364.203 213.448 385.851 215.047 401.472C203.116 381.546 228.331 357.93 221.566 335.175C220.09 358.791 197.212 371.583 192.907 392.985C185.158 369.369 212.464 352.272 210.127 329.025C202.255 351.165 180.115 360.021 172.243 381.423C165.847 357.807 198.196 345.261 199.057 320.415C189.094 343.785 162.526 348.828 153.793 366.663C150.472 343.293 187.618 332.715 188.971 310.452C177.04 331.854 148.012 332.592 137.926 349.689C136.45 326.319 175.564 323.367 181.714 298.89C169.783 317.094 137.926 314.88 124.765 329.64C126.856 307.869 169.045 306.516 175.81 287.082C160.066 302.211 130.915 295.938 114.31 307.992C123.535 286.59 163.264 291.141 172.12 275.643C154.654 284.868 123.535 276.012 108.16 285.114C122.182 264.942 153.055 276.996 170.521 262.974C142.108 267.156 125.011 255.84 105.331 261.129H105.454Z" fill="#FFFF00"/>
<path fill-rule="evenodd" clip-rule="evenodd" d="M355.882 256.086C356.351 269.407 354.132 282.686 349.358 295.131C344.584 307.576 337.353 318.932 328.095 328.521C318.837 338.111 307.743 345.738 295.474 350.947C283.204 356.156 270.012 358.841 256.682 358.841C243.353 358.841 230.16 356.156 217.891 350.947C205.622 345.738 194.528 338.111 185.27 328.521C176.012 318.932 168.78 307.576 164.006 295.131C159.232 282.686 157.014 269.407 157.483 256.086C158.388 230.381 169.236 206.031 187.74 188.167C206.245 170.303 230.962 160.319 256.682 160.319C282.403 160.319 307.12 170.303 325.624 188.167C344.129 206.031 354.977 230.381 355.882 256.086Z" fill="#FFFF00"/>
<path fill-rule="evenodd" clip-rule="evenodd" d="M343.09 256.332C343.09 267.655 340.86 278.867 336.527 289.328C332.194 299.789 325.842 309.294 317.836 317.301C309.829 325.307 300.324 331.659 289.863 335.992C279.402 340.325 268.19 342.555 256.867 342.555C245.544 342.555 234.332 340.325 223.871 335.992C213.41 331.659 203.905 325.307 195.898 317.301C187.892 309.294 181.54 299.789 177.207 289.328C172.874 278.867 170.644 267.655 170.644 256.332C170.644 233.448 179.735 211.501 195.916 195.32C212.098 179.138 234.044 170.048 256.929 170.048C279.813 170.048 301.759 179.138 317.941 195.32C334.122 211.501 343.213 233.448 343.213 256.332H343.09Z" fill="#FF0000"/>
<path fill-rule="evenodd" clip-rule="evenodd" d="M331.159 256.455C331.159 276.11 323.351 294.959 309.454 308.857C295.556 322.755 276.706 330.563 257.052 330.563C237.397 330.563 218.548 322.755 204.65 308.857C190.752 294.959 182.944 276.11 182.944 256.455C182.944 236.8 190.752 217.951 204.65 204.053C218.548 190.155 237.397 182.348 257.052 182.348C276.706 182.348 295.556 190.155 309.454 204.053C323.351 217.951 331.159 236.8 331.159 256.455Z" fill="#FFFF00"/>
<path fill-rule="evenodd" clip-rule="evenodd" d="M194.014 207.87C214.555 207.501 240.016 209.346 256.867 222.876C274.917 211.578 296.179 206.521 317.383 208.485L328.453 228.657C312.463 227.058 296.842 229.272 278.392 236.775C289.606 245.048 298.621 255.945 304.647 268.511C310.672 281.077 313.525 294.929 312.955 308.853C310.249 312.297 306.067 315.987 303.361 319.308C307.297 290.895 292.291 259.038 270.397 242.31C288.109 268.017 298.687 291.018 295.735 322.875L285.649 329.148C290.323 301.104 283.804 268.263 263.017 249.198C270.958 260.938 276.503 274.132 279.331 288.021C282.159 301.91 282.217 316.221 279.499 330.132C276.301 331.116 271.381 333.822 268.06 334.806C271.984 321.673 273.048 307.852 271.181 294.273C269.314 280.694 264.559 267.673 257.236 256.086C250.051 267.595 245.402 280.503 243.6 293.95C241.797 307.397 242.881 321.073 246.781 334.068L236.203 330.993C230.545 300.858 238.417 267.033 252.07 249.321C238.171 257.439 225.01 292.002 228.7 327.303L219.352 322.998C214.801 296.676 226.732 262.359 243.952 242.556C224.518 254.856 208.651 284.868 211.48 317.217C208.528 314.634 205.699 313.281 202.747 310.698C199.303 282.408 215.662 253.995 234.727 236.898C218.972 230.225 201.853 227.4 184.789 228.657C187.864 222.138 190.939 214.512 194.014 207.993V207.87Z" fill="#FF0000"/>
</g>
</g>
<defs>
<clipPath id="clip0_2_5544">
<rect width="512" height="512" fill="white"/>
</clipPath>
</defs>
</svg>
