<svg width="512" height="512" viewBox="0 0 512 512" fill="none" xmlns="http://www.w3.org/2000/svg">
<g clip-path="url(#clip0_2_5555)">
<path d="M0 0H512V512H0V0Z" fill="#032EA1"/>
<path d="M0 128H512V384H0V128Z" fill="#E00025"/>
<path d="M183.92 241.38H329.584V297.444H183.92V241.38Z" fill="white" stroke="black" stroke-width="1.28" stroke-linejoin="bevel"/>
<path d="M322.16 272.228H326.64V293.348H322.16V272.228ZM183.92 261.86H329.584V268.26H183.92V261.86ZM183.92 252.9H329.584V258.788H183.92V252.9Z" fill="white" stroke="black" stroke-width="1.28" stroke-linejoin="bevel"/>
<path d="M183.92 244.196H329.584V249.7H183.92V244.196Z" fill="white" stroke="black" stroke-width="1.152" stroke-linejoin="bevel"/>
<path d="M222.32 272.228H226.928V293.348H222.32V272.228ZM285.04 272.228H289.648V293.348H285.04V272.228ZM185.2 272.228H189.68V293.348H185.2V272.228ZM194.16 272.228H198.64V293.348H194.16V272.228ZM203.76 272.228H208.24V293.348H203.76V272.228ZM213.36 272.228H217.84V293.348H213.36V272.228ZM293.744 272.228H298.352V293.348H293.744V272.228ZM303.344 272.228H307.952V293.348H303.344V272.228ZM312.944 272.228H317.552V293.348H312.944V272.228Z" fill="white" stroke="black" stroke-width="1.28" stroke-linejoin="bevel"/>
<path d="M126.96 300.26C129.637 298.803 131.652 296.375 132.592 293.476H379.76C380.7 296.375 382.716 298.803 385.392 300.26H126.96Z" fill="white" stroke="black" stroke-width="1.28"/>
<path d="M253.04 156.004C253.04 156.004 252.912 150.756 255.984 150.628C258.928 150.628 258.8 156.004 258.8 156.004H253.04ZM237.04 225.764V218.724C237.04 215.14 233.456 214.884 233.456 212.324C233.456 212.324 232.944 208.484 233.968 206.692C235.376 211.812 237.808 210.916 237.808 208.74C237.808 206.948 236.528 205.156 233.584 200.676C232.56 199.268 233.2 194.788 234.48 193.124C234.992 196.964 235.632 198.884 237.296 198.884C238.32 198.884 239.088 198.244 239.088 196.324C239.088 193.764 237.424 192.484 236.528 190.18C236.087 189.033 235.985 187.784 236.235 186.581C236.484 185.378 237.075 184.272 237.936 183.396C238.576 187.236 238.448 188.772 240.112 188.772C243.568 187.62 240.112 182.628 239.344 181.348C238.576 179.94 240.624 176.996 240.624 176.996C241.648 180.452 241.904 180.708 243.184 180.324C244.72 179.94 244.464 177.764 242.672 175.972C241.52 174.692 241.648 173.028 242.928 171.748C244.208 174.18 245.744 174.052 245.872 172.516L244.848 166.884H267.12L265.968 172.388C265.712 173.924 267.76 174.308 269.04 171.748C270.32 173.028 270.448 174.82 269.296 175.972C267.504 177.764 267.248 179.94 268.784 180.324C270.064 180.708 270.32 180.324 271.344 176.996C271.344 176.996 273.264 178.916 272.624 181.348C271.856 182.628 268.4 187.748 271.856 188.772C273.52 188.772 273.392 187.236 274.032 183.396C274.872 184.286 275.438 185.398 275.665 186.601C275.892 187.803 275.77 189.045 275.312 190.18C274.544 192.484 272.752 193.764 272.752 196.324C272.752 198.244 273.648 198.884 274.672 198.884C276.336 198.884 276.976 197.092 277.488 193.124C278.768 194.788 279.408 199.268 278.384 200.804C275.44 205.156 274.032 206.948 274.032 208.74C274.032 210.916 276.592 211.812 277.872 206.692C279.024 208.484 278.512 212.324 278.512 212.324C278.512 214.884 275.056 215.14 274.928 218.724V225.764H237.04ZM246.256 166.884L245.744 162.916H266.096L265.584 166.884H246.256ZM247.536 162.788L247.28 159.588H264.56L264.176 162.788H247.536ZM250.48 159.46L250.096 156.132H261.616L261.488 159.46H250.48ZM292.72 300.26C290.16 299.364 286.32 296.548 286.32 293.86V262.756L289.648 258.404H222.32L225.52 262.756V293.86C225.52 296.548 222.96 299.364 220.4 300.26H292.72Z" fill="white" stroke="black" stroke-width="1.28"/>
<path d="M234.096 272.228H238.704V293.348H234.096V272.228ZM273.008 272.228H277.616V293.348H273.008V272.228Z" fill="white" stroke="black" stroke-width="1.28" stroke-linejoin="bevel"/>
<path d="M221.04 223.076V258.404H290.16V223.076C289.362 223.368 288.643 223.845 288.065 224.468C287.486 225.091 287.064 225.842 286.832 226.66V241.764H224.496V226.66C224.496 226.66 223.728 224.1 220.912 223.076H221.04Z" fill="white" stroke="black" stroke-width="1.28"/>
<path d="M280.688 300.26C278.384 299.364 273.52 296.548 273.52 293.86V259.044C274.032 257.124 276.592 255.972 278.256 254.692H232.56C234.736 255.972 237.168 256.868 238.064 259.044V293.86C238.064 296.548 234.224 299.364 231.92 300.26H280.688Z" fill="white" stroke="black" stroke-width="1.28"/>
<path d="M286.832 255.076V229.988H280.56V227.556H230.896V230.116H224.496V255.076H286.832ZM270.96 300.26C268.656 299.364 265.456 296.548 265.456 293.86V264.164L267.248 261.476H244.592L246.512 264.036V293.86C246.512 296.548 243.184 299.364 241.008 300.26H270.96Z" fill="white" stroke="black" stroke-width="1.28"/>
<path d="M250.096 261.476H261.616V300.26H250.096V261.476Z" fill="white" stroke="black" stroke-width="1.28"/>
<path d="M267.632 252.9C267.632 250.34 275.056 250.212 278.896 248.036H232.816C236.656 250.212 243.952 250.34 243.952 252.9L245.488 257.892L264.688 258.66L267.632 252.9Z" fill="white" stroke="black" stroke-width="1.28" stroke-linejoin="bevel"/>
<path d="M276.592 225.764C276.592 219.492 276.848 217.188 278.768 217.188V236.9C274.032 238.692 270.704 244.58 270.704 244.58H241.008C241.008 244.58 237.68 238.692 232.944 236.9V217.06C235.248 217.06 235.248 219.62 235.248 225.636L276.592 225.764ZM278.768 223.204C278.768 216.036 285.04 215.268 285.04 215.268V221.668C282.608 221.54 281.456 223.716 281.456 226.788C281.456 229.988 283.376 229.988 283.376 229.988V248.164H278.768V223.204Z" fill="white" stroke="black" stroke-width="1.28"/>
<path d="M232.944 223.204C232.944 216.036 226.672 215.268 226.672 215.268V221.668C229.104 221.54 230.256 223.716 230.256 226.788C230.256 229.988 228.336 229.988 228.336 229.988V248.164H232.944V223.204Z" fill="white" stroke="black" stroke-width="1.28"/>
<path d="M245.104 173.668H267.12M242.544 180.58H269.424M239.984 188.9H271.856M237.296 199.012H275.056M236.4 210.532H275.312" stroke="black" stroke-width="1.024"/>
<path d="M224.624 248.42H286.832M244.336 248.42H267.376V256.868H244.336V248.42Z" stroke="black" stroke-width="1.28"/>
<path d="M241.52 229.476C245.36 234.084 244.848 241.892 244.848 246.5H267.12C267.12 241.892 266.608 234.084 270.448 229.476H241.52ZM253.936 176.996L250.864 175.332V170.852C252.144 171.236 253.424 171.364 253.68 173.412C254.064 170.468 254.96 170.724 256.112 169.572C257.392 170.724 258.032 170.468 258.544 173.412C258.544 171.364 260.08 171.236 261.232 170.852V175.332L258.288 176.868L253.936 176.996Z" fill="white" stroke="black" stroke-width="1.28"/>
<path d="M253.68 184.292L248.56 180.708V176.74C250.48 177.124 252.4 177.38 252.656 179.556C253.168 176.356 254.32 174.82 256.112 173.54C257.776 174.82 258.928 176.356 259.568 179.556C259.696 177.38 261.744 177.124 263.408 176.74V180.836L258.416 184.292H253.68Z" fill="white" stroke="black" stroke-width="1.28"/>
<path d="M253.296 195.684L247.536 190.564V184.548C249.584 185.06 251.888 185.316 252.144 188.516C252.784 184.036 254.064 181.604 255.984 179.812C258.032 181.604 259.312 184.036 260.08 188.516C260.336 185.316 262.64 185.06 264.688 184.548V190.564L258.8 195.684H253.296ZM264.048 202.468L258.928 209.764H252.912L247.664 202.468H264.048ZM244.592 214.628C247.152 216.036 248.176 218.98 248.432 224.356H263.28C263.536 218.98 264.56 216.036 267.12 214.628H244.592Z" fill="white" stroke="black" stroke-width="1.28"/>
<path d="M267.376 202.34V195.172C266.274 195.407 265.25 195.918 264.399 196.656C263.548 197.395 262.899 198.338 262.512 199.396C262.512 196.836 259.312 191.332 255.856 188.516C252.4 191.588 249.072 196.708 249.2 199.268C248.56 197.348 246.896 195.812 244.336 195.172V202.468L267.376 202.34Z" fill="white" stroke="black" stroke-width="1.28" stroke-linejoin="bevel"/>
<path d="M268.4 214.628V207.46C265.712 208.228 263.92 209.636 263.152 211.684C263.152 209.124 259.696 203.62 255.856 200.804C252.016 204.004 248.432 208.996 248.56 211.684C247.92 209.764 246 208.228 243.312 207.46V214.756L268.4 214.628Z" fill="white" stroke="black" stroke-width="1.28" stroke-linejoin="bevel"/>
<path d="M271.472 229.604V221.156C268.807 221.989 266.504 223.704 264.944 226.02C264.944 221.54 259.824 214.5 255.856 212.324C251.76 214.628 246.768 221.796 246.768 226.02C245.168 223.688 242.82 221.972 240.112 221.156V229.604H271.472Z" fill="white" stroke="black" stroke-width="1.28" stroke-linejoin="bevel"/>
<path d="M269.68 248.42V239.716C266.608 240.868 265.84 243.684 264.816 245.732C265.2 236.9 259.952 227.556 255.856 225.124C251.76 227.556 246.384 237.156 246.896 245.604C245.872 243.812 244.976 240.868 242.032 239.716V248.292L269.68 248.42Z" fill="white" stroke="black" stroke-width="1.28" stroke-linejoin="bevel"/>
<path d="M267.632 261.476V252.772C264.432 253.54 264.304 254.692 263.28 256.612C263.664 251.364 259.952 245.348 255.856 243.044C251.76 245.348 248.176 251.364 248.432 256.612C247.408 254.692 247.28 253.54 244.08 252.772V261.476H267.632Z" fill="white" stroke="black" stroke-width="1.28"/>
<path d="M132.72 293.476V267.364C131.824 264.036 128.88 260.964 126.832 260.452V237.412L131.568 239.972L137.072 264.164V293.604L132.72 293.476Z" fill="white" stroke="black" stroke-width="1.28"/>
<path d="M132.72 293.604V267.364C131.824 264.036 128.88 260.964 126.832 260.452V235.876C130.032 235.876 131.568 239.972 131.568 239.972L137.072 264.164V293.476L132.72 293.604Z" fill="white" stroke="black" stroke-width="1.28"/>
<path d="M129.264 300.26C131.44 299.364 134.64 296.548 134.64 293.86V261.092L133.104 258.532H189.04L186.864 261.092V293.86C186.958 295.217 187.41 296.524 188.175 297.648C188.94 298.773 189.989 299.674 191.216 300.26H129.264Z" fill="white" stroke="black" stroke-width="1.28"/>
<path d="M179.824 300.26C177.648 299.364 174.448 296.548 174.448 293.86V262.756L179.056 258.404H141.168L145.776 262.756V293.86C145.776 296.548 142.576 299.364 140.4 300.26H179.824Z" fill="white" stroke="black" stroke-width="1.28"/>
<path d="M174.576 300.26C172.4 299.364 169.072 296.548 169.072 293.86V265.7L172.144 261.476H148.08L151.152 265.7V293.86C151.152 296.548 147.952 299.364 145.648 300.26H174.576Z" fill="white" stroke="black" stroke-width="1.28"/>
<path d="M154.48 261.476H165.872V300.388H154.352L154.48 261.476Z" fill="white" stroke="black" stroke-width="1.28"/>
<path d="M138.736 272.228H143.344V293.348H138.736V272.228ZM178.16 272.228H182.64V293.348H178.032L178.16 272.228ZM134.768 236.644H140.4V258.404H134.768V236.644ZM134.768 232.548H140.272V236.644H134.768V232.548ZM180.336 241.38H188.144V258.02H180.336V241.38Z" fill="white"/>
<path d="M134.768 236.644H140.4V258.404H134.768V236.644ZM134.768 236.644H140.272V232.548H134.768V236.644ZM138.736 272.228H143.344V293.348H138.736V272.228ZM178.16 272.228H182.64V293.348H178.032L178.16 272.228ZM180.336 241.38H188.144V258.02H180.336V241.38Z" stroke="black" stroke-width="1.28" stroke-linejoin="bevel"/>
<path d="M140.272 258.148V221.028C141.808 221.028 142.064 226.532 145.648 226.532C147.568 226.532 147.44 224.228 146.288 222.436C145.392 220.772 144.24 218.596 145.776 214.372C146.928 217.572 149.744 218.596 149.232 216.676C148.336 213.22 145.648 212.58 147.696 207.332C148.336 211.684 151.152 211.556 150.512 208.996C149.744 206.052 148.08 204.772 150.128 200.676C151.28 205.412 152.688 205.156 152.688 202.212C152.688 197.86 152.688 193.252 158.064 191.588C158.064 191.588 158.448 187.748 160.496 187.748C162.416 187.748 162.8 191.588 162.8 191.588C168.304 193.252 168.176 197.988 168.176 202.212C168.176 205.156 169.584 205.412 170.736 200.676C172.784 204.772 171.12 206.052 170.352 208.996C169.712 211.556 172.528 211.684 173.168 207.332C175.216 212.58 172.528 213.22 171.632 216.676C171.12 218.596 173.936 217.572 175.088 214.372C176.624 218.596 175.472 220.772 174.576 222.436C173.552 224.228 173.296 226.532 175.216 226.532C178.8 226.532 179.056 221.156 180.592 221.156V258.148H140.272ZM131.44 230.116V258.404H134.64V230.116C133.488 229.476 132.464 229.476 131.44 230.116Z" fill="white" stroke="black" stroke-width="1.28"/>
<path d="M131.696 248.42C135.664 250.468 139.632 252.9 140.656 258.404H131.696V248.42ZM186.992 239.972V258.404H189.552V239.972C188.784 239.588 187.632 239.46 186.992 239.972Z" fill="white" stroke="black" stroke-width="1.28"/>
<path d="M189.552 248.42C185.584 250.34 181.616 252.644 180.592 258.276H189.552V248.42ZM163.184 205.284L165.488 203.364V200.804C164.72 200.804 164.208 201.188 163.568 202.084C163.32 201.262 162.908 200.498 162.359 199.839C161.809 199.179 161.132 198.637 160.368 198.244C159.593 198.609 158.899 199.125 158.328 199.763C157.756 200.4 157.318 201.146 157.04 201.956C156.4 201.06 156.016 200.932 155.12 200.676V203.236L157.424 205.284H163.184Z" fill="white" stroke="black" stroke-width="1.28"/>
<path d="M164.464 211.556L165.488 209.124V205.924C164.72 205.924 164.208 206.308 163.568 207.204C163.32 206.382 162.908 205.618 162.359 204.959C161.809 204.299 161.132 203.757 160.368 203.364C159.593 203.729 158.899 204.245 158.328 204.883C157.756 205.52 157.318 206.266 157.04 207.076C156.4 206.18 156.016 206.052 155.12 205.924V209.124L156.144 211.556H164.464Z" fill="white" stroke="black" stroke-width="1.28"/>
<path d="M164.72 220.004L168.048 215.78V211.684C166.768 211.684 166.128 212.324 165.232 213.732C164.336 210.788 162.672 210.276 160.368 208.868C157.936 210.148 156.272 210.788 155.504 213.604C154.48 212.196 153.84 211.812 152.56 211.684V215.78L156.016 220.004H164.72Z" fill="white" stroke="black" stroke-width="1.28"/>
<path d="M165.616 228.324C165.616 228.324 169.712 224.868 169.84 222.948V218.468C168.304 218.596 166.896 218.98 165.744 220.9C164.72 217.188 163.184 216.164 160.368 214.5C157.424 216.164 155.888 217.188 154.992 220.9C153.712 218.98 152.432 218.596 150.768 218.34V222.948C151.843 224.978 153.274 226.799 154.992 228.324H165.616Z" fill="white" stroke="black" stroke-width="1.28"/>
<path d="M167.28 243.684C167.28 243.684 172.912 237.668 173.04 235.236V228.324C170.992 228.58 168.944 229.988 167.408 232.932C166.128 227.172 164.08 223.204 160.368 220.388C156.528 223.204 154.48 227.172 153.2 232.932C151.664 229.988 149.744 228.58 147.696 228.324V235.236C148.08 237.668 153.328 243.684 153.328 243.684H167.28Z" fill="white" stroke="black" stroke-width="1.28"/>
<path d="M167.28 252.772C167.28 252.772 172.016 248.036 173.04 245.988V239.076C170.992 239.332 168.944 240.74 167.408 243.556C167.066 241.227 166.268 238.988 165.06 236.968C163.852 234.947 162.257 233.184 160.368 231.78C156.528 234.596 154.48 237.796 153.2 243.556C151.664 240.74 149.744 239.332 147.696 239.076V245.988C148.976 248.036 153.328 252.772 153.328 252.772H167.28Z" fill="white" stroke="black" stroke-width="1.28"/>
<path d="M169.2 258.148C167.92 252.132 166.64 247.652 160.112 243.172C153.456 247.652 152.304 252.132 150.896 258.148H169.2Z" fill="white" stroke="black" stroke-width="1.28"/>
<path d="M172.656 261.476V252.772C169.584 254.052 166.896 255.716 165.872 257.636C164.848 252.772 162.672 250.724 159.984 247.78C157.296 250.724 155.504 252.9 154.352 257.636C153.328 255.716 150.64 253.924 147.696 252.772V261.476H172.656Z" fill="white" stroke="black" stroke-width="1.28"/>
<path d="M379.376 293.476V267.364C380.272 264.036 383.216 260.964 385.264 260.452V237.412L380.528 239.972L375.024 264.164V293.604L379.376 293.476Z" fill="white" stroke="black" stroke-width="1.28"/>
<path d="M379.376 293.604V267.364C380.272 264.036 383.216 260.964 385.264 260.452V235.876C382.064 235.876 380.528 239.972 380.528 239.972L375.024 264.164V293.476L379.376 293.604Z" fill="white" stroke="black" stroke-width="1.28"/>
<path d="M382.832 300.26C380.656 299.364 377.456 296.548 377.456 293.86V261.092L378.992 258.532H323.056L325.232 261.092V293.86C325.138 295.217 324.686 296.524 323.921 297.648C323.157 298.773 322.107 299.674 320.88 300.26H382.832Z" fill="white" stroke="black" stroke-width="1.28"/>
<path d="M332.272 300.26C334.448 299.364 337.648 296.548 337.648 293.86V262.756L333.04 258.404H370.928L366.32 262.756V293.86C366.32 296.548 369.52 299.364 371.696 300.26H332.272Z" fill="white" stroke="black" stroke-width="1.28"/>
<path d="M337.52 300.26C339.696 299.364 343.024 296.548 343.024 293.86V265.7L339.952 261.476H364.016L360.944 265.7V293.86C360.944 296.548 364.144 299.364 366.448 300.26H337.52Z" fill="white" stroke="black" stroke-width="1.28"/>
<path d="M357.616 261.476H346.224V300.388H357.744L357.616 261.476Z" fill="white" stroke="black" stroke-width="1.28"/>
<path d="M373.36 272.228H368.752V293.348H373.36V272.228ZM333.936 272.228H329.456V293.348H334.064L333.936 272.228ZM377.328 236.644H371.696V258.404H377.328V236.644ZM377.328 232.548H371.824V236.644H377.328V232.548ZM331.76 241.38H323.952V258.02H331.76V241.38Z" fill="white"/>
<path d="M377.328 236.644H371.696V258.404H377.328V236.644ZM377.328 236.644H371.824V232.548H377.328V236.644ZM373.36 272.228H368.752V293.348H373.36V272.228ZM333.936 272.228H329.456V293.348H334.064L333.936 272.228ZM331.76 241.38H323.952V258.02H331.76V241.38Z" stroke="black" stroke-width="1.28" stroke-linejoin="bevel"/>
<path d="M371.824 258.148V221.028C370.288 221.028 370.032 226.532 366.448 226.532C364.528 226.532 364.656 224.228 365.808 222.436C366.704 220.772 367.856 218.596 366.32 214.372C365.168 217.572 362.352 218.596 362.864 216.676C363.76 213.22 366.448 212.58 364.4 207.332C363.76 211.684 360.944 211.556 361.584 208.996C362.352 206.052 364.016 204.772 361.968 200.676C360.816 205.412 359.408 205.156 359.408 202.212C359.408 197.86 359.408 193.252 354.032 191.588C354.032 191.588 353.648 187.748 351.6 187.748C349.68 187.748 349.296 191.588 349.296 191.588C343.792 193.252 343.92 197.988 343.92 202.212C343.92 205.156 342.512 205.412 341.36 200.676C339.312 204.772 340.976 206.052 341.744 208.996C342.384 211.556 339.568 211.684 338.928 207.332C336.88 212.58 339.568 213.22 340.464 216.676C340.976 218.596 338.16 217.572 337.008 214.372C335.472 218.596 336.624 220.772 337.52 222.436C338.544 224.228 338.8 226.532 336.88 226.532C333.296 226.532 333.04 221.156 331.504 221.156V258.148H371.824ZM380.656 230.116V258.404H377.456V230.116C378.608 229.476 379.632 229.476 380.656 230.116Z" fill="white" stroke="black" stroke-width="1.28"/>
<path d="M380.4 248.42C376.432 250.468 372.464 252.9 371.44 258.404H380.4V248.42ZM325.104 239.972V258.404H322.544V239.972C323.312 239.588 324.464 239.46 325.104 239.972Z" fill="white" stroke="black" stroke-width="1.28"/>
<path d="M322.544 248.42C326.512 250.34 330.48 252.644 331.504 258.276H322.544V248.42ZM348.912 205.284L346.608 203.364V200.804C347.376 200.804 347.888 201.188 348.528 202.084C348.777 201.262 349.188 200.498 349.738 199.839C350.287 199.179 350.964 198.637 351.728 198.244C352.503 198.609 353.197 199.125 353.768 199.763C354.34 200.4 354.778 201.146 355.056 201.956C355.696 201.06 356.08 200.932 356.976 200.676V203.236L354.672 205.284H348.912Z" fill="white" stroke="black" stroke-width="1.28"/>
<path d="M347.632 211.556L346.608 209.124V205.924C347.376 205.924 347.888 206.308 348.528 207.204C348.777 206.382 349.188 205.618 349.738 204.959C350.287 204.299 350.964 203.757 351.728 203.364C352.503 203.729 353.197 204.245 353.768 204.883C354.34 205.52 354.778 206.266 355.056 207.076C355.696 206.18 356.08 206.052 356.976 205.924V209.124L355.952 211.556H347.632Z" fill="white" stroke="black" stroke-width="1.28"/>
<path d="M347.376 220.004L344.048 215.78V211.684C345.328 211.684 345.968 212.324 346.864 213.732C347.76 210.788 349.424 210.276 351.728 208.868C354.16 210.148 355.824 210.788 356.592 213.604C357.616 212.196 358.256 211.812 359.536 211.684V215.78L356.08 220.004H347.376Z" fill="white" stroke="black" stroke-width="1.28"/>
<path d="M346.48 228.324C346.48 228.324 342.384 224.868 342.256 222.948V218.468C343.792 218.596 345.2 218.98 346.352 220.9C347.376 217.188 348.912 216.164 351.728 214.5C354.672 216.164 356.208 217.188 357.104 220.9C358.384 218.98 359.664 218.596 361.328 218.34V222.948C360.253 224.978 358.822 226.799 357.104 228.324H346.48Z" fill="white" stroke="black" stroke-width="1.28"/>
<path d="M344.816 243.684C344.816 243.684 339.184 237.668 339.056 235.236V228.324C341.104 228.58 343.152 229.988 344.688 232.932C345.968 227.172 348.016 223.204 351.728 220.388C355.568 223.204 357.616 227.172 358.896 232.932C360.432 229.988 362.352 228.58 364.4 228.324V235.236C364.016 237.668 358.768 243.684 358.768 243.684H344.816Z" fill="white" stroke="black" stroke-width="1.28"/>
<path d="M344.816 252.772C344.816 252.772 340.08 248.036 339.056 245.988V239.076C341.104 239.332 343.152 240.74 344.688 243.556C345.031 241.227 345.829 238.988 347.037 236.968C348.244 234.947 349.839 233.184 351.728 231.78C355.568 234.596 357.616 237.796 358.896 243.556C360.432 240.74 362.352 239.332 364.4 239.076V245.988C363.12 248.036 358.768 252.772 358.768 252.772H344.816Z" fill="white" stroke="black" stroke-width="1.28"/>
<path d="M342.896 258.148C344.176 252.132 345.456 247.652 351.984 243.172C358.64 247.652 359.792 252.132 361.2 258.148H342.896Z" fill="white" stroke="black" stroke-width="1.28"/>
<path d="M339.44 261.476V252.772C342.512 254.052 345.2 255.716 346.224 257.636C347.248 252.772 349.424 250.724 352.112 247.78C354.8 250.724 356.592 252.9 357.744 257.636C358.768 255.716 361.456 253.924 364.4 252.772V261.476H339.44Z" fill="white" stroke="black" stroke-width="1.28"/>
<path d="M99.0561 332.004H413.04V348.004H99.0561V332.004ZM90.7361 348.004H421.36V364.004H90.7361V348.004ZM115.568 307.94H396.4V318.308H115.568V307.94Z" fill="white" stroke="black" stroke-width="1.28"/>
<path d="M107.376 318.308H404.848V331.876H107.376V318.308ZM120.432 300.004H391.792V307.94H120.432V300.004Z" fill="white" stroke="black" stroke-width="1.28"/>
<path d="M149.872 300.004H170.352V364.004H149.872V300.004Z" fill="white" stroke="black" stroke-width="1.28"/>
<path d="M154.48 300.004H165.872V364.004H154.352L154.48 300.004ZM245.36 300.004H265.84V364.004H245.36V300.004Z" fill="white" stroke="black" stroke-width="1.28"/>
<path d="M250.096 300.004H261.616V364.004H250.096V300.004ZM341.616 300.004H362.096V364.004H341.616V300.004Z" fill="white" stroke="black" stroke-width="1.28"/>
<path d="M346.096 300.004H357.616V364.004H346.096V300.004Z" fill="white" stroke="black" stroke-width="1.28"/>
<path d="M132.72 293.476H379.76M154.224 355.94H166M154.224 347.876H166M154.224 339.94H166M154.224 331.876H166M154.224 323.94H166M154.224 315.876H166M154.224 307.94H166M250.224 355.94H261.232M250.224 347.876H261.232M250.224 339.94H261.232M250.224 331.876H261.232M250.224 323.94H261.232M250.224 315.876H261.232M250.224 307.94H261.232M345.968 355.94H357.744M345.968 347.876H357.744M345.968 339.94H357.744M345.968 331.876H357.744M345.968 323.94H357.744M345.968 315.876H357.744M345.968 307.94H357.744" stroke="black" stroke-width="1.28"/>
</g>
<defs>
<clipPath id="clip0_2_5555">
<rect width="512" height="512" fill="white"/>
</clipPath>
</defs>
</svg>
