<svg width="512" height="512" viewBox="0 0 512 512" fill="none" xmlns="http://www.w3.org/2000/svg">
<g clip-path="url(#clip0_2_5628)">
<mask id="mask0_2_5628" style="mask-type:luminance" maskUnits="userSpaceOnUse" x="-1" y="0" width="513" height="512">
<path d="M-0.0175781 0.0395393H511.99V511.943H-0.0175781V0.0395393Z" fill="white"/>
</mask>
<g mask="url(#mask0_2_5628)">
<path fill-rule="evenodd" clip-rule="evenodd" d="M-164.335 0.0395393H671.413V306.39H-164.335V0.0395393Z" fill="#E73E2D"/>
<path fill-rule="evenodd" clip-rule="evenodd" d="M204.286 282.024C184.813 266.925 148.576 272.027 142.641 230.792C170.339 252.242 165.341 229.542 206.785 250.056L204.286 282.024Z" fill="#FEC74A" stroke="#D8AA3F" stroke-width="1.66608"/>
<path fill-rule="evenodd" clip-rule="evenodd" d="M209.492 263.28C195.539 242.871 159.51 236.727 166.486 195.596C186.271 224.544 188.458 201.427 221.675 233.603L209.388 263.28H209.492Z" fill="#FEC74A" stroke="#D8AA3F" stroke-width="1.66608"/>
<path fill-rule="evenodd" clip-rule="evenodd" d="M215.74 249.952C210.742 225.898 179.815 206.321 201.995 171.021C209.284 205.384 220.009 184.766 238.44 227.251L215.74 249.952Z" fill="#FEC74A" stroke="#D8AA3F" stroke-width="1.66608"/>
<path fill-rule="evenodd" clip-rule="evenodd" d="M230.318 237.664C232.921 213.09 209.492 185.079 241.356 158.213C237.711 193.097 254.372 176.956 258.85 222.774L230.214 237.664H230.318Z" fill="#FEC74A" stroke="#D8AA3F" stroke-width="1.66608"/>
<path fill-rule="evenodd" clip-rule="evenodd" d="M243.23 227.668C255.726 206.425 245.729 171.229 285.819 159.775C268.221 190.077 289.984 182.059 275.302 225.898L243.23 227.668Z" fill="#FEC74A" stroke="#D8AA3F" stroke-width="1.66608"/>
<path fill-rule="evenodd" clip-rule="evenodd" d="M262.078 230.271C280.613 214.027 282.383 177.581 324.035 179.456C297.69 202.572 320.911 201.948 293.108 238.81L262.078 230.271Z" fill="#FEC74A" stroke="#D8AA3F" stroke-width="1.66608"/>
<path fill-rule="evenodd" clip-rule="evenodd" d="M278.634 239.747C301.126 229.75 313.518 195.387 352.775 209.445C320.807 223.815 343.195 230.063 305.708 257.032L278.634 239.851V239.747Z" fill="#FEC74A" stroke="#D8AA3F" stroke-width="1.66608"/>
<path fill-rule="evenodd" clip-rule="evenodd" d="M292.379 254.95C316.85 251.618 338.405 222.045 372.143 246.619C337.364 251.409 357.148 263.697 313.622 279.108L292.379 254.95Z" fill="#FEC74A" stroke="#D8AA3F" stroke-width="1.66608"/>
<path fill-rule="evenodd" clip-rule="evenodd" d="M379.432 259.531L267.388 262.031L272.074 292.228L379.432 259.531Z" fill="#FEC74A" stroke="#D8AA3F" stroke-width="1.66608"/>
<path fill-rule="evenodd" clip-rule="evenodd" d="M362.98 218.4L259.162 258.282L276.552 291.604L362.98 218.4Z" fill="#FEC74A" stroke="#D8AA3F" stroke-width="1.66608"/>
<path fill-rule="evenodd" clip-rule="evenodd" d="M280.509 280.67L334.24 183.1L251.873 259.74L280.509 280.67Z" fill="#FEC74A" stroke="#D8AA3F" stroke-width="1.66608"/>
<path fill-rule="evenodd" clip-rule="evenodd" d="M279.534 272.591L296.817 163.126L242.986 260.496L279.534 272.591Z" fill="#FEC74A" stroke="#D8AA3F" stroke-width="1.72639"/>
<path fill-rule="evenodd" clip-rule="evenodd" d="M273.011 263.697L254.893 153.423L234.9 264.217L273.011 263.697Z" fill="#FEC74A" stroke="#D8AA3F" stroke-width="1.66608"/>
<path fill-rule="evenodd" clip-rule="evenodd" d="M263.564 254.348L211.239 162.336L231.33 274.182L263.564 254.348Z" fill="#FEC74A" stroke="#D8AA3F" stroke-width="1.72808"/>
<path fill-rule="evenodd" clip-rule="evenodd" d="M255.518 253.596L174.4 185.079L232.088 283.065L255.518 253.596Z" fill="#FEC74A" stroke="#D8AA3F" stroke-width="1.66608"/>
<path fill-rule="evenodd" clip-rule="evenodd" d="M145.973 218.921L232.921 290.77L246.354 253.18L145.869 218.817L145.973 218.921Z" fill="#FEC74A" stroke="#D8AA3F" stroke-width="1.66608"/>
<path fill-rule="evenodd" clip-rule="evenodd" d="M232.088 260.885L129.729 259.427L231.672 293.374L231.984 260.885H232.088Z" fill="#FEC74A" stroke="#D8AA3F" stroke-width="1.66608"/>
<path fill-rule="evenodd" clip-rule="evenodd" d="M315.08 279.316C315.421 287.59 314.086 295.847 311.154 303.592C308.223 311.337 303.757 318.409 298.023 324.384C292.289 330.359 285.407 335.113 277.789 338.36C270.172 341.608 261.976 343.282 253.696 343.282C245.415 343.282 237.219 341.608 229.602 338.36C221.984 335.113 215.102 330.359 209.368 324.384C203.634 318.409 199.168 311.337 196.237 303.592C193.305 295.847 191.97 287.59 192.311 279.316C192.311 263.022 198.784 247.396 210.305 235.874C221.827 224.352 237.454 217.88 253.748 217.88C270.042 217.88 285.668 224.352 297.19 235.874C308.711 247.396 315.184 263.022 315.184 279.316H315.08Z" fill="#FEC74A" stroke="#D8AA3F" stroke-width="1.66608"/>
<path fill-rule="evenodd" clip-rule="evenodd" d="M-165.168 303.37H674.745V511.943H-165.168V303.37Z" fill="#005989"/>
<path fill-rule="evenodd" clip-rule="evenodd" d="M-165.584 453.942C-149.965 461.231 -127.681 479.246 -103.731 479.246C-63.6409 479.038 -62.5996 451.86 -21.9889 453.213C18.6218 454.255 11.3327 482.786 66.2092 482.578C111.506 482.578 126.188 447.903 165.341 452.068C194.289 450.61 206.16 484.765 250.728 485.181C296.857 486.223 313.726 447.903 342.674 451.131C373.601 451.131 383.702 481.953 427.02 482.161C482.209 482.474 491.789 450.089 526.256 452.172C550.83 451.651 570.198 475.914 606.227 476.434C634.863 476.955 658.917 455.296 675.161 447.486L675.994 410.624C658.917 416.976 633.614 437.698 608.206 438.01C571.76 439.364 549.164 414.06 523.756 414.269C493.35 414.581 481.271 445.508 429.727 445.508C382.556 445.508 371.727 414.269 341.321 414.269C311.644 414.477 302.584 448.319 251.144 447.59C209.18 447.174 192.831 415.31 163.05 415.622C131.603 415.622 99.0101 446.549 64.1266 444.987C16.0185 442.904 5.60552 415.622 -25.9459 415.622C-49.4793 415.622 -74.887 441.238 -103.21 441.655C-131.325 442.176 -163.085 416.143 -166.001 415.622L-165.584 453.942ZM-165.584 381.051C-149.965 388.34 -127.681 406.355 -103.731 406.355C-63.6409 406.042 -62.5996 378.864 -21.9889 380.218C18.6218 381.259 11.3327 409.791 66.2092 409.687C111.506 409.583 126.188 375.012 165.341 379.177C194.289 377.615 206.16 411.874 250.728 412.29C296.857 413.332 313.726 375.012 342.674 378.136C373.601 378.136 383.702 408.958 427.02 409.27C482.209 409.479 491.789 377.198 526.256 379.177C550.83 378.656 570.198 402.918 606.227 403.543C634.863 404.064 658.917 382.301 675.161 374.595L675.994 337.733C658.917 343.981 633.614 364.807 608.206 365.015C571.76 366.369 549.164 341.065 523.756 341.274C493.35 341.586 481.271 372.513 429.727 372.513C382.556 372.513 371.727 341.274 341.321 341.274C311.644 341.586 302.584 375.324 251.144 374.699C209.18 374.179 192.831 342.419 163.05 342.731C131.603 342.731 99.0101 373.554 64.1266 372.096C16.0185 370.013 5.60552 342.731 -25.9459 342.731C-49.4793 342.731 -74.887 368.347 -103.21 368.764C-131.325 369.18 -163.085 343.252 -166.001 342.731L-165.584 381.051Z" fill="white"/>
<path fill-rule="evenodd" clip-rule="evenodd" d="M-165.584 308.889C-149.965 316.178 -127.681 334.193 -103.731 334.193C-63.7451 333.88 -62.7038 306.807 -22.1972 308.056C18.4135 309.097 11.1244 337.629 66.0009 337.525C111.297 337.525 125.98 302.85 164.924 307.015C193.977 305.557 205.743 339.712 250.311 340.128C296.336 341.169 313.31 302.85 342.258 306.078C373.08 306.078 383.181 336.9 426.395 337.108C481.584 337.317 491.164 305.036 525.631 307.119C550.205 306.598 569.469 330.756 605.498 331.381C634.134 331.902 658.188 310.139 674.328 302.433L675.161 265.571C658.188 271.923 632.78 292.645 607.477 292.853C571.031 294.207 548.435 268.903 523.132 269.216C492.726 269.424 480.647 300.455 429.102 300.455C382.035 300.455 371.206 269.216 340.904 269.216C311.227 269.424 302.064 303.162 250.728 302.537C208.763 302.121 192.415 270.257 162.738 270.569C131.29 270.569 98.8018 301.392 63.9183 299.934C15.8102 297.851 5.39725 270.569 -26.05 270.569C-49.5834 270.569 -74.9911 296.185 -103.314 296.602C-131.43 297.018 -163.085 271.09 -166.001 270.569L-165.584 308.889Z" fill="white"/>
<path fill-rule="evenodd" clip-rule="evenodd" d="M136.81 75.9503C197.83 71.7851 186.688 66.5786 211.263 62.6217C242.189 66.7869 245.73 85.5303 263.015 97.0887C263.015 97.0887 256.559 118.956 235.317 115.936C232.505 107.189 245.625 104.482 207.826 81.3651C185.855 80.1155 146.598 85.2179 136.81 75.9503ZM326.014 109.897L282.071 111.667V122.601C311.748 123.538 317.059 119.477 326.014 109.897Z" fill="#FFC84B" stroke="#D8AA3F" stroke-width="1.77021"/>
<path fill-rule="evenodd" clip-rule="evenodd" d="M174.817 108.022C182.523 104.065 186.271 105.731 192.936 105.419C197.517 113.749 201.787 114.478 211.783 115.52C216.208 122.07 222.138 127.465 229.077 131.251C236.016 135.038 243.762 137.106 251.665 137.283C281.55 136.45 291.026 115.52 311.123 113.229H332.366C328.825 107.189 326.118 103.753 318.412 103.441C300.286 102.193 282.074 103.384 264.265 106.981L239.273 113.229C231.984 109.688 213.97 90.8409 202.516 91.2574C195.747 93.0276 195.747 95.4226 192.415 97.9217C185.959 100.733 179.503 99.3795 174.713 108.022H174.817Z" fill="#FFC84B" stroke="#D8AA3F" stroke-width="1.66608" stroke-linejoin="round"/>
<path fill-rule="evenodd" clip-rule="evenodd" d="M205.014 98.8589C205.014 99.6874 204.685 100.482 204.099 101.068C203.514 101.654 202.719 101.983 201.891 101.983C201.062 101.983 200.267 101.654 199.682 101.068C199.096 100.482 198.767 99.6874 198.767 98.8589C198.767 98.0304 199.096 97.2358 199.682 96.65C200.267 96.0641 201.062 95.735 201.891 95.735C202.719 95.735 203.514 96.0641 204.099 96.65C204.685 97.2358 205.014 98.0304 205.014 98.8589Z" fill="#FFC84B" stroke="#D8AA3F" stroke-width="1.66608"/>
<path fill-rule="evenodd" clip-rule="evenodd" d="M225.528 107.814C270.408 53.6665 309.665 60.2267 360.897 56.5821C362.563 62.8299 361.938 72.2016 337.572 80.532C304.25 85.5303 244.376 120.726 244.167 120.726C233.025 120.206 225.216 108.543 225.424 107.814H225.528Z" fill="#FFC84B" stroke="#D8AA3F" stroke-width="1.77021"/>
<path d="M317.787 72.514L350.901 73.9718M314.247 77.9288L338.405 79.9073" stroke="#D9A43E" stroke-width="1.77021" stroke-linecap="round"/>
</g>
</g>
<defs>
<clipPath id="clip0_2_5628">
<rect width="512" height="512" fill="white"/>
</clipPath>
</defs>
</svg>
