<svg width="512" height="512" viewBox="0 0 512 512" fill="none" xmlns="http://www.w3.org/2000/svg">
<g clip-path="url(#clip0_2_5717)">
<path d="M0 0H512V512H0V0Z" fill="#000066"/>
<path d="M0 -0.5H256V255.5H0V-0.5Z" fill="#012169"/>
<path d="M256 -0.5V31.5L161 127.5L256 221V255.5H222.5L127 161.5L34 255.5H0V221.5L93 128L0 36.5V-0.5H31L127 93.5L220 -0.5H256Z" fill="white"/>
<path d="M92 161.5L97.5 178.5L21 255.5H0V254L92 161.5ZM154 155.5L181 159.5L256 233V255.5L154 155.5ZM256 -0.5L160 97.5L158 75.5L233 -0.5H256ZM0 0L96.5 94.5L67 90.5L0 24V0Z" fill="#C8102E"/>
<path d="M88 -0.5V255.5H168V-0.5H88ZM0 87.5V167.5H256V87.5H0Z" fill="white"/>
<path d="M0 103.5V151.5H256V103.5H0ZM104 -0.5V255.5H152V-0.5H104Z" fill="#C8102E"/>
<path d="M448.314 207.38V275.357C448.314 334.31 420.438 354.543 383.102 370.555C345.765 354.543 317.599 334.31 317.599 275.357V207.307H448.314V207.38Z" fill="white" stroke="white" stroke-width="6.98698" stroke-linejoin="round"/>
<path d="M277.06 365.023C279.171 370.555 294.163 377.906 311.631 368.517C323.494 361.821 331.136 352.505 338.487 335.765C340.525 331.544 341.617 326.304 336.74 323.174C332.883 320.336 326.551 317.206 323.785 314.441C322.402 312.985 321.02 311.966 320.001 310.947C320.729 311.675 321.384 312.33 322.039 313.349C329.026 321.719 321.747 333.946 314.033 341.297C308.429 346.537 298.385 359.419 283.683 347.192C280.553 344.426 273.203 355.926 277.133 365.023H277.06ZM489.144 365.023C486.669 370.555 471.676 377.906 454.573 368.517C442.782 361.821 435.067 352.505 427.425 335.765C425.679 331.544 424.587 326.304 429.463 323.174C433.321 320.336 439.653 317.206 442.418 314.441C443.801 312.985 444.82 311.966 446.203 310.947C445.475 311.675 444.82 312.33 444.165 313.349C437.178 321.719 444.456 333.946 451.807 341.297C457.411 346.537 467.819 359.419 482.521 347.192C485.65 344.426 492.637 355.926 489.071 365.023H489.144Z" fill="#FCEA83" stroke="white" stroke-width="6.98698" stroke-linejoin="round"/>
<path d="M383.102 395.009C410.977 395.009 453.918 382.418 476.989 338.458C480.774 331.18 476.989 327.323 472.404 324.921C467.221 322.311 462.5 318.869 458.43 314.732C464.034 320.336 462.943 324.193 459.158 330.452C441.327 360.147 416.945 375.14 383.102 375.14C349.259 375.14 324.877 360.147 307.046 330.452C303.261 324.193 302.169 320.336 307.41 314.804C303.4 318.992 298.666 322.42 293.436 324.921C288.923 327.323 285.066 331.18 288.923 338.458C311.922 382.418 355.154 395.009 383.102 395.009Z" fill="#FCEA83" stroke="white" stroke-width="6.98698" stroke-linejoin="round"/>
<path d="M318.545 336.057C317.817 332.563 313.378 333.946 311.995 338.167C310.111 335.753 308.455 333.171 307.046 330.452C302.897 324.193 302.169 319.972 308.137 314.077C310.903 311.311 316.507 308.109 320.292 311.602C328.298 318.225 324.149 329.07 318.545 336.057ZM447.295 336.057C448.022 332.563 452.899 333.946 454.282 338.167C456.028 335.693 457.775 333.291 459.158 330.452C463.306 324.193 464.034 319.972 457.702 314.077C455.301 311.311 449.696 308.109 445.548 311.602C437.833 318.225 441.69 329.07 447.295 336.057ZM277.06 365.023C273.566 359.783 270.801 346.1 270.073 342.68C269.054 339.55 268.69 336.712 272.547 335.402C276.405 333.946 279.826 338.822 281.572 343.044C283.319 347.192 286.158 353.451 289.287 361.166C281.572 356.654 275.313 359.71 277.06 365.023ZM489.144 365.023C492.273 359.783 495.039 346.1 496.131 342.68C496.859 339.55 497.514 336.712 493.656 335.402C489.799 333.946 486.378 338.822 484.631 343.044C482.885 347.192 480.046 353.451 476.916 361.166C484.631 356.654 490.527 359.71 489.144 365.023Z" fill="#C8102E" stroke="white" stroke-width="6.98698" stroke-linejoin="round"/>
<path d="M356.246 207.016C351.733 208.035 348.604 208.399 344.382 204.541C341.617 201.776 342.272 196.899 345.11 195.08C348.24 193.042 351.005 191.659 354.863 192.678C358.72 193.77 368.837 203.158 366.362 203.522C363.888 203.522 360.103 205.924 356.246 207.016ZM367.017 190.276C368.473 189.184 370.219 188.529 374.732 188.093C378.953 187.802 382.01 187.802 383.102 191.004C384.557 194.789 385.576 199.301 388.342 201.412C386.595 202.431 377.861 203.522 374.732 201.776C370.583 199.665 369.492 191.586 367.09 190.276H367.017ZM397.076 190.64C398.459 189.548 400.205 189.548 404.718 189.912C409.23 190.276 410.977 190.64 411.996 193.77C413.087 197.263 411.996 201.776 414.179 204.905C411.996 205.633 405.082 205.633 402.607 203.158C398.822 200.393 399.114 192.314 397.076 190.567V190.64Z" fill="white" stroke="white" stroke-width="6.98698" stroke-linejoin="round"/>
<path d="M417.964 192.678C414.834 191.95 412.724 191.659 411.414 192.678C413.088 194.789 411.705 203.158 415.198 205.924C417.6 207.671 423.932 208.108 425.315 204.177C427.061 200.684 427.061 195.444 418.037 192.678H417.964ZM382.083 189.184C383.102 188.166 385.212 187.802 389.361 187.802C393.946 187.802 396.639 188.529 398.095 191.295C399.55 194.789 399.114 199.301 401.588 202.139C400.569 203.522 391.108 203.522 388.342 201.412C384.485 198.937 384.121 190.931 382.083 189.184ZM352.461 192.314C352.461 190.567 354.863 190.276 361.195 189.912C367.381 189.184 367.745 189.548 369.856 194.061C370.875 196.535 372.257 200.684 375.096 202.067C367.381 203.886 364.907 204.905 360.758 202.431C357.728 200.536 355.225 197.907 353.48 194.789C353.116 193.77 353.116 192.678 352.388 192.314H352.461Z" fill="#073163" stroke="white" stroke-width="6.98698" stroke-linejoin="round"/>
<path d="M353.116 161.309C350.641 161.309 348.604 160.29 347.148 158.544C344.746 155.341 338.123 153.959 335.285 156.797C334.266 157.525 332.883 157.525 331.864 157.816C330.117 157.816 328.007 159.563 328.662 163.056C330.117 161.964 330.408 163.056 331.5 163.056C332.228 162.692 331.864 163.42 331.864 164.075C331.864 165.822 335.649 169.315 339.142 168.951C342.999 168.951 344.746 170.407 345.401 171.135C346.493 172.081 345.765 171.79 346.493 173.537C347.512 174.556 347.876 174.919 346.129 176.302C345.334 176.965 344.695 177.794 344.256 178.731C343.818 179.668 343.59 180.69 343.59 181.724C343.59 182.759 343.818 183.781 344.256 184.718C344.695 185.655 345.334 186.484 346.129 187.147C350.641 190.567 362.141 195.88 375.096 185.691C387.614 175.938 407.119 181.542 408.575 184.963C410.322 188.529 410.977 190.567 411.341 192.314C411.705 193.77 413.451 195.153 415.926 194.789C418.328 194.789 421.093 195.808 422.476 196.899C424.296 197.918 426.698 197.627 426.043 194.425C424.587 184.672 418.692 183.289 418.037 178.777C421.457 179.068 423.859 179.068 425.315 177.685C426.334 176.302 427.717 173.828 429.172 173.173C430.191 172.445 430.191 171.717 428.808 172.081C427.062 172.445 426.043 173.173 422.84 172.809C406.828 171.062 361.85 158.835 353.116 161.309Z" fill="#059334" stroke="white" stroke-width="6.98698" stroke-linejoin="round"/>
<path d="M424.296 173.173C421.636 175.05 419.362 177.422 417.6 180.16C414.179 184.672 403.699 189.184 390.744 189.184C378.225 189.184 370.584 187.147 364.979 182.634C362.587 180.721 360.001 179.062 357.265 177.685C353.48 175.938 352.752 172.081 353.771 168.951C352.752 170.698 352.097 172.445 349.986 172.081C348.531 172.081 345.765 172.081 346.493 173.537C346.129 172.809 346.129 171.79 345.765 171.353L345.037 170.698C346.129 171.426 348.604 169.315 350.35 169.315C351.733 169.679 353.48 167.932 353.116 165.822L352.097 161.309C354.863 159.854 391.472 166.55 398.823 167.205C406.101 167.569 427.062 170.698 424.296 173.173Z" fill="#000001" stroke="white" stroke-width="6.98698" stroke-linejoin="round"/>
<path d="M357.992 159.927C361.486 156.433 365.634 154.686 369.856 155.705H370.875C373.058 153.958 377.862 153.595 380.7 154.977H382.083C386.231 153.595 394.237 154.977 397.076 157.816L398.095 158.544C407.556 157.816 413.088 161.964 419.711 168.66C420.438 169.388 421.457 170.698 423.204 171.062C425.315 171.426 425.679 172.518 423.932 173.537C421.134 175.267 418.669 177.486 416.654 180.087C413.451 184.308 403.335 188.529 390.744 188.529C378.589 188.529 371.238 186.346 365.634 182.198C362.505 179.796 360.103 178.413 358.356 177.321C356.246 176.593 353.48 173.828 354.499 171.062C355.227 168.296 353.48 164.803 352.097 161.309C353.116 160.582 355.882 159.563 357.264 160.29L357.992 159.927Z" fill="#059334" stroke="white" stroke-width="6.98698" stroke-linejoin="round"/>
<path d="M419.711 168.66C413.16 161.964 407.556 157.816 398.095 158.471C398.095 158.835 398.095 159.927 397.731 160.654C404.325 163.613 410.17 168.016 414.834 173.537C416.29 172.081 418.692 170.407 419.711 168.66ZM397.076 157.816C394.237 155.05 386.231 153.595 382.083 155.05C382.083 156.433 382.083 158.544 381.355 159.927C383.83 160.945 385.867 163.42 387.978 165.822C389.434 165.458 392.854 164.439 394.601 164.075C395.644 162.081 396.473 159.983 397.076 157.816ZM380.7 154.977C377.862 153.595 372.985 153.958 370.875 155.705C370.147 157.161 369.856 159.927 369.856 161.309C371.311 161.309 373.349 162.328 374.004 163.056C376.188 162.328 378.953 160.945 379.972 159.927C380.336 158.471 380.991 156.433 380.7 155.05V154.977ZM357.992 159.927C361.486 156.433 365.634 154.686 369.856 155.705C369.128 156.797 368.837 158.835 368.837 160.945C364.979 160.582 360.103 161.673 357.992 163.056V159.927Z" fill="#00493D" stroke="white" stroke-width="6.98698" stroke-linejoin="round"/>
<path d="M413.451 174.192C409.067 169 403.603 164.827 397.44 161.964C397.44 162.328 396.712 163.711 396.348 164.803C398.459 167.932 402.607 174.919 404.354 178.777C406.101 178.049 410.977 175.938 413.451 174.192ZM386.959 181.906C387.562 177.15 387.903 172.363 387.978 167.569C389.725 167.205 393.218 166.186 394.601 165.822C396.348 168.66 400.569 176.011 402.316 179.432C398.095 180.451 391.108 182.198 386.959 181.906ZM374.732 165.167C376.479 164.439 378.953 162.983 380.627 161.673C382.083 162.692 384.849 165.167 385.867 166.55C385.867 169.679 384.849 178.777 384.485 181.834C381.719 181.834 377.207 181.179 374.732 179.796C375.096 174.556 375.46 168.66 374.732 165.167ZM357.265 169.315C357.628 168.587 357.992 166.186 357.992 165.167C360.758 163.42 367.745 161.673 372.985 164.439C373.349 167.932 372.985 176.666 372.621 178.777C367.953 174.981 362.817 171.801 357.337 169.315H357.265Z" fill="#00493D" stroke="white" stroke-width="6.98698" stroke-linejoin="round"/>
<path d="M339.87 162.983C339.142 162.983 338.778 160.945 337.395 160.945C337.031 160.945 336.013 161.309 335.649 160.945C335.649 161.673 336.013 162.401 336.376 162.692C336.74 163.711 338.487 163.056 339.87 163.056V162.983Z" fill="#000001"/>
<path d="M339.87 168.951C344.018 168.951 344.746 163.711 346.857 163.42M342.272 169.315C345.401 170.771 347.876 163.42 350.278 163.711M336.013 160.29C337.031 160.29 337.759 158.835 339.506 160.582C340.234 161.309 341.253 161.673 341.981 161.673M341.253 165.458C339.797 167.641 337.395 168.951 336.013 168.296M335.285 156.797C334.266 157.525 333.611 158.835 332.883 159.927M331.864 161.964V163.711" stroke="white" stroke-width="6.98698" stroke-linejoin="round"/>
<path d="M369.201 156.797C361.85 151.193 353.116 145.953 345.11 144.934C353.464 150.503 361.394 156.682 368.837 163.42" fill="black"/>
<path d="M369.201 156.797C361.85 151.193 353.116 145.953 345.11 144.934C353.464 150.503 361.394 156.682 368.837 163.42" stroke="white" stroke-width="6.98698" stroke-linejoin="round"/>
<path d="M373.349 151.557C364.615 145.589 354.499 138.966 344.746 138.311C353.873 143.599 362.002 150.447 368.764 158.544M384.485 141.804C388.425 132.848 394.26 124.852 401.588 118.369C398.095 125.719 394.31 140.712 392.491 146.68" fill="black"/>
<path d="M373.349 151.557C364.615 145.589 354.499 138.966 344.746 138.311C353.873 143.599 362.002 150.447 368.764 158.544M384.485 141.804C388.425 132.848 394.26 124.852 401.588 118.369C398.095 125.719 394.31 140.712 392.491 146.68" stroke="white" stroke-width="6.98698" stroke-linejoin="round"/>
<path d="M392.199 140.057C395.572 131.856 401.914 125.229 409.958 121.498C403.914 129.038 399.414 137.694 396.712 146.971" fill="black"/>
<path d="M392.199 140.057C395.572 131.856 401.914 125.229 409.958 121.498C403.914 129.038 399.414 137.694 396.712 146.971" stroke="white" stroke-width="6.98698" stroke-linejoin="round"/>
<path d="M395.329 146.971C402.011 136.743 411.589 128.736 422.84 123.973C414.106 132.706 401.224 148.718 398.095 155.05M400.205 154.686C406.464 151.193 419.056 145.589 428.08 147.408C422.549 149.446 405.809 157.088 398.459 164.148" fill="black"/>
<path d="M395.329 146.971C402.011 136.743 411.589 128.736 422.84 123.973C414.106 132.706 401.224 148.718 398.095 155.05M400.205 154.686C406.464 151.193 419.056 145.589 428.08 147.408C422.549 149.446 405.809 157.088 398.459 164.148" stroke="white" stroke-width="6.98698" stroke-linejoin="round"/>
<path d="M398.822 152.212C404.718 145.953 415.562 136.564 427.061 132.706C418.692 140.712 400.86 158.908 398.459 161.673M382.083 148.427C377.862 135.472 371.602 123.318 362.214 119.46C369.692 130.152 374.894 142.265 377.498 155.05M374.004 148.063C367.09 139.693 357.628 131.324 346.857 129.577C357.412 136.484 365.751 146.289 370.875 157.816" fill="black"/>
<path d="M398.822 152.212C404.718 145.953 415.562 136.564 427.061 132.706C418.692 140.712 400.86 158.908 398.459 161.673M382.083 148.427C377.862 135.472 371.602 123.318 362.214 119.46C369.692 130.152 374.894 142.265 377.498 155.05M374.004 148.063C367.09 139.693 357.628 131.324 346.857 129.577C357.412 136.484 365.751 146.289 370.875 157.816" stroke="white" stroke-width="6.98698" stroke-linejoin="round"/>
<path d="M377.934 147.699C369.201 131.979 362.505 129.213 358.72 126.083C361.85 131.979 369.492 147.699 374.004 154.322" fill="black"/>
<path d="M377.934 147.699C369.201 131.979 362.505 129.213 358.72 126.083C361.85 131.979 369.492 147.699 374.004 154.322" stroke="white" stroke-width="6.98698" stroke-linejoin="round"/>
<path d="M360.467 146.68C365.445 149.811 369.709 153.952 372.985 158.835" stroke="white" stroke-width="6.98698" stroke-linejoin="round"/>
<path d="M360.467 153.958C362.505 155.705 366.362 157.816 369.856 160.945ZM401.952 159.199C405.446 156.433 413.088 151.921 416.945 150.465ZM399.478 156.797C402.971 152.212 409.958 145.953 412.433 143.842ZM409.23 135.108C404.54 140.364 400.119 145.854 395.984 151.557ZM400.205 131.979C396.902 136.864 393.982 141.999 391.472 147.335ZM372.621 132.706C374.732 138.311 378.589 147.699 379.899 151.557ZM369.492 138.602C370.947 140.785 373.713 145.589 374.732 149.082Z" fill="black"/>
<path d="M360.467 153.958C362.505 155.705 366.362 157.816 369.856 160.945M401.952 159.199C405.446 156.433 413.088 151.921 416.945 150.465M399.478 156.797C402.971 152.212 409.958 145.953 412.433 143.842M409.23 135.108C404.54 140.364 400.119 145.854 395.984 151.557M400.205 131.979C396.902 136.864 393.982 141.999 391.472 147.335M372.621 132.706C374.732 138.311 378.589 147.699 379.899 151.557M369.492 138.602C370.947 140.785 373.713 145.589 374.732 149.082" stroke="white" stroke-width="6.98698" stroke-linejoin="round"/>
<path d="M381.355 136.855C381.355 133.725 383.466 130.305 385.576 130.305C387.978 130.305 389.725 134.453 389.725 136.855C389.725 139.693 387.614 142.095 385.576 142.095C383.393 142.095 381.355 140.057 381.355 136.855Z" fill="black" stroke="white" stroke-width="6.98698" stroke-linejoin="round"/>
<path d="M376.843 139.693C377.207 136.2 379.608 133.434 381.719 133.725C383.83 134.089 384.849 138.311 384.485 140.712C384.121 143.478 381.719 145.589 379.972 145.225C378.226 145.225 376.479 142.823 376.843 139.693ZM386.231 140.712C385.504 137.583 386.959 134.162 389.07 133.725C391.108 133.434 393.218 136.855 393.582 139.693C394.31 142.459 392.491 145.225 390.744 145.225C389.07 145.589 386.595 143.842 386.231 140.712Z" fill="black" stroke="white" stroke-width="6.98698" stroke-linejoin="round"/>
<path d="M380.991 143.478C380.991 140.057 383.102 136.928 385.212 136.928C387.614 136.928 389.361 140.712 389.361 143.478C389.361 146.316 387.323 148.718 385.212 148.718C383.102 148.718 380.991 146.68 380.991 143.478Z" fill="black" stroke="white" stroke-width="6.98698" stroke-linejoin="round"/>
<path d="M374.732 145.225C374.732 142.095 377.206 138.674 379.244 138.674C381.428 138.674 383.466 142.823 383.466 145.225C383.466 148.063 380.991 150.465 379.244 150.465C377.206 150.465 374.732 148.427 374.732 145.225ZM387.614 143.842C387.614 140.712 389.798 137.292 391.835 137.292C394.237 137.292 395.984 141.44 395.984 143.842C395.984 146.68 393.946 149.082 391.835 149.082C389.725 149.082 387.614 146.971 387.614 143.842Z" fill="black" stroke="white" stroke-width="6.98698" stroke-linejoin="round"/>
<path d="M386.231 146.68C386.231 143.187 388.706 140.057 390.744 140.057C392.927 140.057 394.965 143.842 394.965 146.608C394.965 149.446 392.854 151.921 390.744 151.921C388.706 151.921 386.231 149.737 386.231 146.68Z" fill="black" stroke="white" stroke-width="6.98698" stroke-linejoin="round"/>
<path d="M380.7 149.81C380.7 146.316 382.738 143.187 384.849 143.187C387.323 143.187 389.07 147.335 389.07 149.737C389.07 152.648 386.886 155.05 384.849 155.05C382.738 155.05 380.627 152.867 380.627 149.81H380.7ZM371.966 149.81C371.966 146.316 373.713 143.187 375.46 143.187C377.207 143.187 378.589 147.335 378.589 149.737C378.589 152.648 376.843 155.05 375.46 155.05C373.713 155.05 371.966 152.867 371.966 149.81ZM391.472 149.155C391.472 145.953 393.218 142.823 394.965 142.823C396.712 142.823 398.459 146.68 398.459 149.082C398.459 152.212 396.348 154.322 394.965 154.322C393.218 154.322 391.472 152.212 391.472 149.082V149.155Z" fill="black" stroke="white" stroke-width="6.98698" stroke-linejoin="round"/>
<path d="M393.582 154.977C394.31 151.557 396.348 148.718 397.731 149.155C399.186 149.446 399.478 153.595 398.822 156.069C398.459 159.199 396.348 160.945 394.965 160.582C393.509 160.29 392.854 157.816 393.509 155.05L393.582 154.977Z" fill="black" stroke="white" stroke-width="6.98698" stroke-linejoin="round"/>
<path d="M386.959 153.958C387.323 150.829 389.361 147.699 391.108 148.063C393.218 148.063 394.237 152.212 393.946 154.613C393.582 157.816 391.763 159.926 390.089 159.563C388.342 159.563 386.595 157.088 386.959 153.958ZM377.207 154.977C376.115 151.557 374.004 149.155 372.621 149.446C371.238 149.81 370.875 153.958 371.602 156.433C372.33 159.199 374.368 160.945 375.751 160.582C376.843 160.29 377.934 157.816 377.207 155.05V154.977Z" fill="black" stroke="white" stroke-width="6.98698" stroke-linejoin="round"/>
<path d="M374.732 154.322C374.732 151.193 376.479 148.063 378.225 148.063C380.336 148.063 381.719 151.921 381.719 154.322C381.719 157.452 379.972 159.563 378.225 159.563C376.77 159.563 374.732 157.452 374.732 154.322Z" fill="black" stroke="white" stroke-width="6.98698" stroke-linejoin="round"/>
<path d="M379.972 155.705C379.972 152.212 382.083 149.155 384.121 149.155C386.595 149.155 388.342 152.94 388.342 155.705C388.342 158.544 386.231 160.945 384.121 160.945C382.083 160.945 379.972 158.835 379.972 155.705ZM381.719 117.35C380.991 120.115 378.589 122.59 380.263 126.447C377.207 125.356 374.441 124.992 371.966 127.83C375.096 127.466 377.862 128.558 379.244 130.596C376.479 130.232 375.096 131.687 374.368 133.434C376.843 132.706 379.244 131.979 380.336 132.343C379.244 133.434 377.498 135.108 377.207 136.564C379.244 134.817 381.719 135.108 383.102 134.089C382.083 136.564 384.121 138.966 385.868 141.367C385.576 137.947 387.614 135.545 386.595 133.725C389.725 134.453 390.089 137.219 394.601 137.219C392.854 136.2 391.836 132.706 389.725 132.706C390.744 132.343 394.965 131.979 395.693 132.706C394.965 131.251 392.491 129.941 391.108 129.941C392.563 128.485 394.965 125.719 396.712 124.992C394.237 125.356 390.453 125.719 389.07 127.83C392.491 124.992 391.836 119.824 395.62 119.096C393.582 118.732 390.453 120.115 387.978 122.59C389.07 120.479 389.07 117.714 390.453 116.986C387.614 117.714 384.485 121.207 383.466 122.954C383.315 120.978 382.718 119.061 381.719 117.35Z" fill="black" stroke="white" stroke-width="6.98698" stroke-linejoin="round"/>
<path d="M383.466 122.954C383.466 123.973 383.466 126.083 383.102 126.738ZM387.978 122.59C387.25 123.318 385.868 125.719 385.868 127.83Z" fill="black"/>
<path d="M383.466 122.954C383.466 123.973 383.466 126.083 383.102 126.738M387.978 122.59C387.25 123.318 385.868 125.719 385.868 127.83" stroke="white" stroke-width="6.98698" stroke-linejoin="round"/>
<path d="M390.089 126.738C388.889 127.455 388.005 128.599 387.614 129.941" stroke="white" stroke-width="6.98698" stroke-linejoin="round"/>
<path d="M277.06 365.023C279.171 370.555 294.163 377.906 311.631 368.517C323.494 361.821 331.136 352.505 338.487 335.765C340.525 331.544 341.617 326.304 336.74 323.174C332.883 320.336 326.551 317.206 323.785 314.441C322.402 312.985 321.02 311.966 320.001 310.947C320.729 311.675 321.384 312.33 322.039 313.349C329.026 321.719 321.747 333.946 314.033 341.297C308.429 346.537 298.385 359.419 283.683 347.192C280.553 344.426 273.203 355.926 277.133 365.023H277.06ZM489.144 365.023C486.669 370.555 471.676 377.906 454.573 368.517C442.782 361.821 435.067 352.505 427.425 335.765C425.679 331.544 424.587 326.304 429.463 323.174C433.321 320.336 439.653 317.206 442.418 314.441C443.801 312.985 444.82 311.966 446.203 310.947C445.475 311.675 444.82 312.33 444.165 313.349C437.178 321.719 444.456 333.946 451.807 341.297C457.411 346.537 467.819 359.419 482.521 347.192C485.65 344.426 492.637 355.926 489.071 365.023H489.144Z" fill="#FCEA83" stroke="black" stroke-width="1.01893"/>
<path d="M383.102 395.009C410.977 395.009 453.918 382.418 476.989 338.458C480.774 331.18 476.989 327.323 472.404 324.921C467.221 322.311 462.5 318.869 458.43 314.732C464.034 320.336 462.943 324.193 459.158 330.452C441.327 360.147 416.945 375.14 383.102 375.14C349.259 375.14 324.877 360.147 307.046 330.452C303.261 324.193 302.169 320.336 307.41 314.804C303.4 318.992 298.666 322.42 293.436 324.921C288.923 327.323 285.066 331.18 288.923 338.458C311.922 382.418 355.154 395.009 383.102 395.009Z" fill="#FCEA83" stroke="black" stroke-width="1.01893"/>
<path d="M318.545 336.057C317.817 332.563 313.378 333.946 311.995 338.167C310.111 335.753 308.455 333.171 307.046 330.452C302.897 324.193 302.169 319.972 308.137 314.077C310.903 311.311 316.507 308.109 320.292 311.602C328.298 318.225 324.149 329.07 318.545 336.057ZM447.295 336.057C448.022 332.563 452.899 333.946 454.282 338.167C456.028 335.693 457.775 333.291 459.158 330.452C463.306 324.193 464.034 319.972 457.702 314.077C455.301 311.311 449.696 308.109 445.548 311.602C437.833 318.225 441.69 329.07 447.295 336.057ZM277.06 365.023C273.566 359.783 270.801 346.1 270.073 342.68C269.054 339.55 268.69 336.712 272.547 335.402C276.405 333.946 279.826 338.822 281.572 343.044C283.319 347.192 286.158 353.451 289.287 361.166C281.572 356.654 275.313 359.71 277.06 365.023ZM489.144 365.023C492.273 359.783 495.039 346.1 496.131 342.68C496.859 339.55 497.514 336.712 493.656 335.402C489.799 333.946 486.378 338.822 484.631 343.044C482.885 347.192 480.046 353.451 476.916 361.166C484.631 356.654 490.527 359.71 489.144 365.023Z" fill="#C8102E" stroke="black" stroke-width="1.01893"/>
<path d="M297.293 333.582L294.527 335.038C293.799 335.329 293.799 336.057 293.799 336.42H293.436L292.053 333.291H292.417C292.417 333.582 292.781 334.019 293.436 333.582L299.404 330.452C300.131 330.089 300.131 329.725 299.768 329.433L300.059 329.07L301.805 332.563H301.514C301.15 332.199 300.786 331.835 300.059 332.199L297.657 333.655L298.676 335.693L301.514 334.674C302.242 334.31 301.805 333.582 301.805 333.218H302.169L303.625 336.42C303.261 336.057 302.897 335.693 302.169 336.057L296.274 339.186C295.546 339.55 295.546 339.914 295.91 340.205L295.546 340.569L293.799 337.439L294.163 337.075C294.527 337.439 294.891 337.803 295.619 337.439L298.385 335.984L297.293 333.582ZM303.261 338.167C303.989 337.803 303.989 337.439 303.552 336.712H303.916L307.41 341.952L305.008 343.699V343.407C306.391 342.316 306.391 340.933 306.027 340.569C305.663 340.205 305.299 339.841 305.299 339.55C305.008 339.55 305.008 339.186 304.28 339.914L301.805 341.661C302.169 341.952 302.533 343.044 304.28 341.952H304.644L300.786 344.79V344.426C302.533 342.971 301.805 341.952 301.514 341.661L299.04 343.407C298.312 343.699 298.312 344.135 298.312 344.426C298.676 344.426 298.676 344.79 299.04 345.154C299.404 345.882 300.495 346.537 302.169 345.882L302.533 346.173L299.768 347.192L296.274 341.661H296.638C296.929 341.952 297.366 342.388 298.021 341.952L303.261 338.167ZM308.792 351.413L306.391 353.451C306.027 353.815 306.027 354.543 306.391 354.907H306.027L303.552 352.432L303.916 352.068C304.28 352.432 304.644 352.796 305.372 352.068L309.884 347.556C310.612 347.192 310.612 346.828 310.175 346.1L312.65 349.012C312.286 348.575 311.631 348.575 311.194 349.012L309.156 351.049L310.903 352.796L313.014 351.049C313.741 350.322 313.378 350.03 313.014 349.594L313.378 349.303L315.779 352.068H315.415C315.124 352.068 314.688 351.777 314.033 352.432L309.52 356.654C308.792 357.381 308.792 357.673 309.156 358.036V358.4L306.755 355.562C307.046 355.562 307.773 355.926 308.137 355.562L310.539 353.16L308.792 351.413ZM314.033 358.764L315.124 359.783L316.507 356.654C316.507 356.654 315.415 356.945 313.669 358.036L314.033 358.764ZM314.033 358.764L313.669 359.055L312.941 358.328C312.65 358.691 312.286 358.691 311.922 359.055C310.903 359.783 311.194 360.147 311.631 360.511V360.802L309.884 359.055H310.175L311.631 358.691L318.545 354.907L318.909 355.198C318.909 355.198 318.545 355.562 315.415 362.549C315.415 363.277 315.124 363.568 315.415 364.296L312.65 361.894L313.014 361.53C313.378 362.258 314.033 362.258 314.397 361.53C314.397 361.166 314.76 360.438 314.76 360.074L313.669 359.055L314.033 358.691V358.764ZM316.798 365.678L317.162 365.315C317.526 365.678 317.89 365.678 318.618 365.315L323.13 359.419L322.766 359.055C322.039 358.691 321.02 358.691 320.001 359.783V359.419L321.383 357.673L326.624 361.53L324.877 363.568H324.513C325.532 362.549 325.241 361.166 324.513 360.802V360.438L320.001 366.406C319.273 366.77 319.637 367.425 320.001 367.789H319.637L316.798 365.678Z" fill="#00493D"/>
<path d="M325.896 367.061L324.149 369.536C323.785 370.264 324.149 370.555 324.513 370.991L324.149 371.283L321.384 369.172V368.808C322.111 369.172 322.402 369.172 322.766 368.517L326.624 363.277C326.915 362.549 326.624 362.185 326.26 361.821L326.624 361.53L329.389 363.568V363.932C328.662 363.568 328.371 363.568 327.934 364.296L326.26 366.77L328.371 368.153L330.117 365.678C330.408 364.951 330.117 364.66 329.753 364.296L330.117 363.932L332.883 366.042V366.406C332.519 366.042 331.864 366.042 331.427 366.77L328.007 372.302C327.279 372.665 327.643 373.029 328.007 373.393V373.684L324.877 371.646H325.241C325.532 371.646 325.969 371.646 326.26 371.283L328.007 368.517L325.896 367.061ZM332.883 376.887L333.247 376.523C333.611 376.887 334.266 376.887 334.63 376.159L337.395 370.264C337.759 369.536 337.395 369.172 337.031 368.808L343 371.646L341.544 374.412L341.253 374.048C342.272 372.665 341.253 371.283 340.889 370.919C340.525 370.919 340.161 370.555 339.87 370.555C339.506 370.555 339.506 370.555 339.142 371.283C338.778 371.646 337.759 373.684 337.759 373.684C338.123 374.048 338.778 374.776 340.234 372.957H340.525L338.487 377.178L338.123 376.887C339.142 374.703 337.759 374.412 337.395 374.412L336.013 377.178C335.649 377.906 336.013 378.27 336.376 378.27V378.633L332.883 376.887ZM343 381.763C341.981 381.035 341.981 378.925 343 376.887C343.727 374.703 345.11 373.029 346.493 373.684C347.512 374.048 347.221 376.159 346.493 378.27C345.401 380.671 344.018 382.054 343 381.763H342.636C345.11 382.782 346.857 381.399 347.876 378.925C348.895 376.887 348.604 374.412 346.42 373.393C344.382 372.302 342.272 373.684 341.253 376.159C340.234 378.633 340.525 381.035 342.708 381.763H343ZM353.771 382.418L355.227 378.27C355.518 377.542 355.227 377.178 354.863 376.814L356.61 377.178V377.542C356.246 377.542 355.882 377.542 355.518 378.27L354.135 382.418C353.407 384.165 352.388 385.548 350.35 384.893C348.895 384.529 347.876 382.782 348.604 381.035L350.35 376.523C350.641 375.795 350.35 375.431 349.986 375.067V374.776L353.116 376.159V376.523C352.752 376.159 352.097 376.159 352.097 376.887L350.278 381.326C349.914 382.709 349.914 384.092 351.005 384.456C352.024 384.82 353.043 384.092 353.698 382.345L353.771 382.418ZM356.973 377.906C356.973 377.542 356.973 377.542 356.61 377.542L359.011 377.906L361.195 384.529L362.214 380.307C362.505 379.58 362.214 379.288 361.85 378.925L363.888 379.288L363.597 379.652C363.233 379.652 362.869 379.652 362.505 380.38L360.758 388.022H360.467L357.628 379.652L355.882 385.257C355.882 386.275 356.246 386.275 356.61 386.639V387.003L354.499 386.275V385.912C354.863 386.275 355.518 385.912 355.518 385.184L357.265 378.925L356.973 377.906ZM368.837 384.893C368.109 388.022 366.653 388.75 365.998 388.75H365.27C365.27 388.75 364.979 388.386 365.27 388.022L366.362 381.035C366.726 380.671 366.726 380.307 367.09 380.671H367.818C368.473 380.671 369.128 382.127 368.837 384.893L369.856 385.257C370.584 381.763 369.128 380.307 367.381 380.016C365.998 379.652 363.888 379.288 363.888 379.288V379.652C364.252 380.016 364.979 380.016 364.615 381.108L363.597 387.294C363.233 388.022 362.869 388.386 362.505 388.386H362.214L365.634 389.114C367.381 389.405 369.128 389.114 369.856 385.257L368.837 384.893ZM371.966 382.054C371.966 381.326 371.239 381.035 370.875 381.035V380.671L377.207 381.399L376.843 384.165C376.843 382.418 375.751 381.763 375.096 381.763C374.732 381.399 374.368 381.399 374.004 381.399C373.713 381.399 373.713 381.399 373.713 382.418L373.349 385.257C373.713 385.257 374.732 385.548 375.46 383.51L375.096 388.022H374.732C374.732 385.912 373.713 385.912 373.276 385.912L372.985 389.041C372.985 389.769 372.985 389.769 373.349 389.769L374.077 390.133C375.096 390.133 376.115 389.769 376.843 387.658H377.207L376.479 390.424L369.856 389.696C370.584 389.696 370.875 389.405 371.311 388.75L371.966 382.054ZM383.466 386.275C383.466 389.405 382.374 390.424 381.355 390.424C380.991 390.133 380.991 390.133 380.627 390.133L380.336 389.769L380.7 382.491C380.7 382.054 380.7 382.054 380.991 382.054H381.719C382.447 382.054 383.466 383.146 383.466 386.275H384.849C384.849 382.782 383.102 381.763 381.355 381.763C379.899 381.399 377.862 381.399 377.862 381.399V381.763C378.226 381.763 378.953 382.054 378.953 382.782L378.589 389.405C378.589 390.133 378.226 390.424 377.862 390.424V390.788H380.991C382.738 390.788 384.485 390.06 384.849 386.275H383.393H383.466ZM393.582 389.041C393.582 389.769 393.946 389.769 394.601 389.769V390.133L390.744 390.424C391.108 390.133 391.836 389.696 391.836 389.041L391.108 382.491C390.744 381.763 390.38 381.763 389.725 381.763V381.399L393.582 381.035C393.218 381.399 392.491 381.763 392.854 382.491L393.582 389.041ZM397.076 389.769V389.405C397.44 389.405 397.804 389.041 397.804 388.386L396.348 381.108H395.984C395.256 381.399 394.601 382.054 394.965 383.51H394.601L394.237 381.035L400.569 380.016L400.86 382.418H400.569C400.569 381.035 399.478 380.671 398.386 380.671H398.095L399.55 387.949C399.55 388.677 399.841 389.041 400.569 389.041V389.405L397.076 389.769ZM412.069 382.782L410.613 378.633C410.613 377.906 409.958 377.906 409.594 377.906V377.542L411.341 376.814V377.178C410.977 377.542 410.977 377.542 410.977 378.27L412.433 382.782C412.724 384.238 412.724 386.275 410.686 387.003C409.23 387.294 407.556 386.639 407.192 384.529L405.737 380.016C405.446 379.288 405.082 379.288 404.718 379.288L404.354 378.925L407.847 377.906V378.27C407.556 378.633 407.12 378.997 407.556 379.652L408.575 384.165C408.939 385.62 410.031 386.275 410.977 386.275C412.069 385.912 412.433 384.529 412.069 382.782ZM415.926 380.307C417.6 379.58 417.309 378.633 416.945 377.542C416.581 376.523 415.926 375.795 415.198 376.159C414.834 376.159 414.47 376.523 414.834 376.887L415.926 380.307ZM416.217 380.671L416.945 383.51C417.309 384.238 417.964 384.238 418.401 383.801V384.165L415.198 385.62L414.834 385.257C415.562 384.893 415.562 384.529 415.562 383.801L413.088 377.906C412.724 376.887 412.36 377.178 411.705 377.178V376.887L415.198 375.431C416.654 375.14 417.964 375.431 418.692 376.887C419.056 378.633 418.328 379.652 416.945 380.38C416.581 380.38 416.217 380.671 416.217 380.671Z" fill="#00493D"/>
<path d="M424.587 381.326C423.568 381.763 422.185 380.307 421.094 377.906C420.075 375.795 420.075 373.684 421.094 373.393C422.185 373.029 423.568 374.412 424.587 376.523C425.679 378.633 425.679 380.671 424.587 381.399C426.77 380.671 427.425 378.27 426.334 375.795C425.315 373.684 423.204 372.301 421.094 373.029C420.604 373.275 420.168 373.617 419.814 374.034C419.459 374.452 419.192 374.937 419.029 375.46C418.866 375.983 418.81 376.534 418.865 377.079C418.919 377.624 419.083 378.153 419.347 378.633C420.438 381.035 422.549 382.418 424.587 381.399V381.326ZM424.951 371.646H424.296L426.334 370.191L432.666 373.684L430.482 369.9C430.191 369.172 429.463 369.172 429.172 369.172V368.808L430.919 368.08C430.555 368.517 430.191 368.808 430.919 369.536L434.412 376.523L434.049 376.887L426.334 372.665L429.172 377.906C429.463 378.633 430.191 378.633 430.555 378.27V378.633L428.808 379.652V379.288C429.172 378.925 429.172 378.561 428.808 377.906L426.043 372.301L424.951 371.646ZM440.672 372.665V372.301C440.672 371.938 441.036 371.574 440.672 370.919L436.45 365.023H436.086C435.359 365.315 435.067 366.77 436.086 367.789L435.795 368.153L434.34 365.678L439.58 362.185L441.036 364.368C439.944 363.277 438.852 363.277 438.197 363.641L437.833 363.932L442.054 369.9C442.418 370.628 443.073 370.628 443.51 370.264V370.555L440.672 372.665Z" fill="#00493D"/>
<path d="M444.529 364.296L446.567 366.77C446.931 367.061 447.659 367.061 448.022 366.77V367.061L445.184 369.536V369.172C445.548 368.808 445.548 368.444 445.184 367.789L441.035 362.549C440.672 361.821 440.308 362.185 439.58 362.185L442.418 359.783V360.147C442.418 360.438 442.054 360.875 442.418 361.53L444.165 363.568L446.203 362.185L444.529 359.783C444.165 359.055 443.437 359.419 443.073 359.419L445.912 356.945V357.309C445.548 357.672 445.548 358.036 445.912 358.764L450.06 363.932C450.424 364.296 450.788 364.296 451.152 363.932L451.443 364.296L448.677 366.77L448.314 366.406C448.677 366.042 449.041 365.678 448.677 364.951L446.567 362.549L444.529 364.296ZM447.659 356.945C447.295 356.654 446.567 356.654 446.203 356.945V356.654L450.788 352.432L452.899 354.543H452.535C451.443 353.087 450.06 353.815 449.405 354.179C449.405 354.543 449.041 354.543 448.677 354.907C448.677 354.907 448.677 355.198 449.041 355.926L451.152 358.036C451.443 357.672 452.535 356.945 451.152 355.198H451.443L454.282 358.4V358.691C452.535 356.945 451.807 357.964 451.443 358.4L453.627 360.438C453.918 361.166 454.282 361.166 454.282 361.166L455.301 360.147C455.664 359.783 456.028 358.691 455.301 356.654H455.664L457.047 359.055L452.535 363.568L452.171 363.277C452.535 362.913 452.899 362.549 452.171 361.821L447.659 356.945ZM456.028 347.192C455.664 347.556 455.664 348.284 456.319 348.648C457.047 349.303 457.775 349.303 459.158 348.648C459.886 348.284 461.196 347.92 462.288 348.939C464.034 350.685 463.306 352.068 463.015 352.796C462.651 353.16 461.924 353.524 461.56 353.815C461.196 353.815 461.196 353.815 461.196 354.179V354.543L458.794 352.432H459.158C460.541 353.16 461.924 353.451 462.651 352.432C463.379 351.704 462.651 350.977 462.288 350.685C461.56 349.958 460.832 349.958 459.813 350.685C458.794 351.049 457.411 351.049 456.319 350.322C454.937 348.939 454.937 347.92 455.592 346.828L457.047 345.809C457.411 345.809 457.411 345.809 457.047 345.081L459.522 346.828H459.158C457.411 346.1 456.319 346.537 456.028 347.192ZM459.158 344.426C458.43 344.062 458.066 344.426 457.702 344.79H457.411L461.269 339.186L463.67 340.933L463.306 341.297C462.871 340.923 462.316 340.717 461.742 340.717C461.168 340.717 460.612 340.923 460.177 341.297C460.177 341.661 459.813 342.025 459.813 342.316C459.522 342.316 459.522 342.68 460.177 343.043C460.541 343.407 462.651 344.79 462.651 344.79C463.015 344.426 463.67 343.699 462.288 342.316V341.952L465.781 344.79C463.67 343.699 463.306 344.79 463.015 345.081L465.417 346.828C466.145 347.192 466.436 347.192 466.436 347.192C466.436 346.828 466.8 346.464 467.164 346.173C467.528 345.445 467.892 344.426 466.436 343.043L466.8 342.68L468.547 344.79L465.053 350.03H464.689C465.053 349.303 465.053 348.939 464.398 348.284L459.158 344.426ZM468.547 338.167L467.528 339.914C466.072 338.458 465.417 337.439 465.417 337.439L468.547 338.167ZM469.274 338.167C469.638 338.167 470.293 338.458 470.657 338.458C471.676 338.822 471.385 339.186 471.021 339.914H471.385L473.132 336.712C472.404 337.439 472.04 337.075 471.385 337.075C464.034 335.693 463.379 335.329 463.379 335.329V335.693L468.911 341.952C469.274 342.316 469.274 343.043 469.274 343.407H469.638L470.657 341.661L470.293 341.297C469.93 342.025 469.566 342.316 468.911 341.297L468.183 340.569L469.274 338.167ZM466.436 330.452C466.145 330.816 466.145 331.544 467.164 331.908C468.183 332.199 468.619 331.908 469.638 331.18C470.657 330.452 471.676 329.725 473.059 330.452C475.243 331.544 474.806 333.291 474.515 333.946L473.423 335.401V336.057L470.657 334.601C472.404 334.965 473.787 334.601 474.151 333.582C474.515 332.854 473.787 332.199 473.423 331.835C472.695 331.544 472.04 331.835 471.021 332.563C469.93 333.582 468.838 334.019 467.528 333.291C466.072 332.563 465.417 331.544 466.072 330.452C466.072 329.725 466.8 329.433 467.164 329.07C467.164 328.706 467.164 328.706 466.8 328.342V328.051L469.638 329.433H469.274C467.528 329.07 466.436 329.797 466.436 330.452Z" fill="#00493D"/>
<path d="M356.246 207.016C351.733 208.035 348.604 208.399 344.382 204.541C341.617 201.776 342.272 196.899 345.11 195.08C348.24 193.042 351.005 191.659 354.863 192.678C358.72 193.77 368.837 203.158 366.362 203.522C363.888 203.522 360.103 205.924 356.246 207.016ZM367.017 190.276C368.473 189.184 370.219 188.529 374.732 188.093C378.953 187.802 382.01 187.802 383.102 191.004C384.557 194.789 385.576 199.301 388.342 201.412C386.595 202.431 377.861 203.522 374.732 201.776C370.583 199.665 369.492 191.586 367.09 190.276H367.017ZM397.076 190.64C398.459 189.548 400.205 189.548 404.718 189.912C409.23 190.276 410.977 190.64 411.996 193.77C413.087 197.263 411.996 201.776 414.179 204.905C411.996 205.633 405.082 205.633 402.607 203.158C398.822 200.393 399.114 192.314 397.076 190.567V190.64Z" fill="white" stroke="black" stroke-width="1.01893"/>
<path d="M417.964 192.678C414.834 191.95 412.724 191.659 411.414 192.678C413.088 194.789 411.705 203.158 415.198 205.924C417.6 207.671 423.932 208.108 425.315 204.177C427.061 200.684 427.061 195.444 418.037 192.678H417.964ZM382.083 189.184C383.102 188.166 385.212 187.802 389.361 187.802C393.946 187.802 396.639 188.529 398.095 191.295C399.55 194.789 399.114 199.301 401.588 202.139C400.569 203.522 391.108 203.522 388.342 201.412C384.485 198.937 384.121 190.931 382.083 189.184ZM352.461 192.314C352.461 190.567 354.863 190.276 361.195 189.912C367.381 189.184 367.745 189.548 369.856 194.061C370.875 196.535 372.257 200.684 375.096 202.067C367.381 203.886 364.907 204.905 360.758 202.431C357.728 200.536 355.225 197.907 353.48 194.789C353.116 193.77 353.116 192.678 352.388 192.314H352.461Z" fill="#073163" stroke="black" stroke-width="1.01893"/>
<path d="M369.201 156.797C361.85 151.193 353.116 145.953 345.11 144.934C353.464 150.503 361.394 156.682 368.837 163.42" fill="#F9D050"/>
<path d="M369.201 156.797C361.85 151.193 353.116 145.953 345.11 144.934C353.464 150.503 361.394 156.682 368.837 163.42" stroke="black" stroke-width="0.436686"/>
<path d="M373.349 151.557C364.615 145.589 354.499 138.966 344.746 138.311C353.873 143.599 362.002 150.447 368.764 158.544M384.485 141.804C388.425 132.848 394.26 124.852 401.588 118.369C398.095 125.719 394.31 140.712 392.491 146.68" fill="#F9D050"/>
<path d="M373.349 151.557C364.615 145.589 354.499 138.966 344.746 138.311C353.873 143.599 362.002 150.447 368.764 158.544M384.485 141.804C388.425 132.848 394.26 124.852 401.588 118.369C398.095 125.719 394.31 140.712 392.491 146.68" stroke="black" stroke-width="0.436686"/>
<path d="M392.199 140.057C395.572 131.856 401.914 125.229 409.958 121.498C403.914 129.038 399.414 137.694 396.712 146.971" fill="#F9D050"/>
<path d="M392.199 140.057C395.572 131.856 401.914 125.229 409.958 121.498C403.914 129.038 399.414 137.694 396.712 146.971" stroke="black" stroke-width="0.436686"/>
<path d="M395.329 146.971C402.011 136.743 411.589 128.736 422.84 123.973C414.106 132.706 401.224 148.718 398.095 155.05M400.205 154.686C406.464 151.193 419.056 145.589 428.08 147.408C422.549 149.446 405.809 157.088 398.459 164.148" fill="#F9D050"/>
<path d="M395.329 146.971C402.011 136.743 411.589 128.736 422.84 123.973C414.106 132.706 401.224 148.718 398.095 155.05M400.205 154.686C406.464 151.193 419.056 145.589 428.08 147.408C422.549 149.446 405.809 157.088 398.459 164.148" stroke="black" stroke-width="0.436686"/>
<path d="M398.822 152.212C404.718 145.953 415.562 136.564 427.061 132.706C418.692 140.712 400.86 158.908 398.459 161.673M382.083 148.427C377.862 135.472 371.602 123.318 362.214 119.46C369.692 130.152 374.894 142.265 377.498 155.05M374.004 148.063C367.09 139.693 357.628 131.324 346.857 129.577C357.412 136.484 365.751 146.289 370.875 157.816" fill="#F9D050"/>
<path d="M398.822 152.212C404.718 145.953 415.562 136.564 427.061 132.706C418.692 140.712 400.86 158.908 398.459 161.673M382.083 148.427C377.862 135.472 371.602 123.318 362.214 119.46C369.692 130.152 374.894 142.265 377.498 155.05M374.004 148.063C367.09 139.693 357.628 131.324 346.857 129.577C357.412 136.484 365.751 146.289 370.875 157.816" stroke="black" stroke-width="0.436686"/>
<path d="M377.934 147.699C369.201 131.979 362.505 129.213 358.72 126.083C361.85 131.979 369.492 147.699 374.004 154.322" fill="#F9D050"/>
<path d="M377.934 147.699C369.201 131.979 362.505 129.213 358.72 126.083C361.85 131.979 369.492 147.699 374.004 154.322" stroke="black" stroke-width="0.436686"/>
<path d="M360.467 146.68C365.445 149.811 369.709 153.952 372.985 158.835" stroke="black" stroke-width="0.436686"/>
<path d="M360.467 153.958C362.505 155.705 366.362 157.816 369.856 160.945ZM401.952 159.199C405.446 156.433 413.088 151.921 416.945 150.465ZM399.478 156.797C402.971 152.212 409.958 145.953 412.433 143.842ZM409.23 135.108C404.54 140.364 400.119 145.854 395.984 151.557ZM400.205 131.979C396.902 136.864 393.982 141.999 391.472 147.335ZM372.621 132.706C374.732 138.311 378.589 147.699 379.899 151.557ZM369.492 138.602C370.947 140.785 373.713 145.589 374.732 149.082Z" fill="#F9D050"/>
<path d="M360.467 153.958C362.505 155.705 366.362 157.816 369.856 160.945M401.952 159.199C405.446 156.433 413.088 151.921 416.945 150.465M399.478 156.797C402.971 152.212 409.958 145.953 412.433 143.842M409.23 135.108C404.54 140.364 400.119 145.854 395.984 151.557M400.205 131.979C396.902 136.864 393.982 141.999 391.472 147.335M372.621 132.706C374.732 138.311 378.589 147.699 379.899 151.557M369.492 138.602C370.947 140.785 373.713 145.589 374.732 149.082" stroke="black" stroke-width="0.436686"/>
<path d="M381.355 136.855C381.355 133.725 383.466 130.305 385.576 130.305C387.978 130.305 389.725 134.453 389.725 136.855C389.725 139.693 387.614 142.095 385.576 142.095C383.393 142.095 381.355 140.057 381.355 136.855Z" fill="#F9D050" stroke="black" stroke-width="0.436686"/>
<path d="M376.843 139.693C377.207 136.2 379.608 133.434 381.719 133.725C383.83 134.089 384.849 138.311 384.485 140.712C384.121 143.478 381.719 145.589 379.972 145.225C378.226 145.225 376.479 142.823 376.843 139.693ZM386.231 140.712C385.504 137.583 386.959 134.162 389.07 133.725C391.108 133.434 393.218 136.855 393.582 139.693C394.31 142.459 392.491 145.225 390.744 145.225C389.07 145.589 386.595 143.842 386.231 140.712Z" fill="#F9D050" stroke="black" stroke-width="0.436686"/>
<path d="M380.991 143.478C380.991 140.057 383.102 136.928 385.212 136.928C387.614 136.928 389.361 140.712 389.361 143.478C389.361 146.316 387.323 148.718 385.212 148.718C383.102 148.718 380.991 146.68 380.991 143.478Z" fill="#F9D050" stroke="black" stroke-width="0.436686"/>
<path d="M374.732 145.225C374.732 142.095 377.206 138.674 379.244 138.674C381.428 138.674 383.466 142.823 383.466 145.225C383.466 148.063 380.991 150.465 379.244 150.465C377.206 150.465 374.732 148.427 374.732 145.225ZM387.614 143.842C387.614 140.712 389.798 137.292 391.835 137.292C394.237 137.292 395.984 141.44 395.984 143.842C395.984 146.68 393.946 149.082 391.835 149.082C389.725 149.082 387.614 146.971 387.614 143.842Z" fill="#F9D050" stroke="black" stroke-width="0.436686"/>
<path d="M386.231 146.68C386.231 143.187 388.706 140.057 390.744 140.057C392.927 140.057 394.965 143.842 394.965 146.608C394.965 149.446 392.854 151.921 390.744 151.921C388.706 151.921 386.231 149.737 386.231 146.68Z" fill="#F9D050" stroke="black" stroke-width="0.436686"/>
<path d="M380.7 149.81C380.7 146.316 382.738 143.187 384.849 143.187C387.323 143.187 389.07 147.335 389.07 149.737C389.07 152.648 386.886 155.05 384.849 155.05C382.738 155.05 380.627 152.867 380.627 149.81H380.7ZM371.966 149.81C371.966 146.316 373.713 143.187 375.46 143.187C377.207 143.187 378.589 147.335 378.589 149.737C378.589 152.648 376.843 155.05 375.46 155.05C373.713 155.05 371.966 152.867 371.966 149.81ZM391.472 149.155C391.472 145.953 393.218 142.823 394.965 142.823C396.712 142.823 398.459 146.68 398.459 149.082C398.459 152.212 396.348 154.322 394.965 154.322C393.218 154.322 391.472 152.212 391.472 149.082V149.155Z" fill="#F9D050" stroke="black" stroke-width="0.436686"/>
<path d="M393.582 154.977C394.31 151.557 396.348 148.718 397.731 149.155C399.186 149.446 399.478 153.595 398.822 156.069C398.459 159.199 396.348 160.945 394.965 160.582C393.509 160.29 392.854 157.816 393.509 155.05L393.582 154.977Z" fill="#F9D050" stroke="black" stroke-width="0.436686"/>
<path d="M386.959 153.958C387.323 150.829 389.361 147.699 391.108 148.063C393.218 148.063 394.237 152.212 393.946 154.613C393.582 157.816 391.763 159.926 390.089 159.563C388.342 159.563 386.595 157.088 386.959 153.958ZM377.207 154.977C376.115 151.557 374.004 149.155 372.621 149.446C371.238 149.81 370.875 153.958 371.602 156.433C372.33 159.199 374.368 160.945 375.751 160.582C376.843 160.29 377.934 157.816 377.207 155.05V154.977Z" fill="#F9D050" stroke="black" stroke-width="0.436686"/>
<path d="M374.732 154.322C374.732 151.193 376.479 148.063 378.225 148.063C380.336 148.063 381.719 151.921 381.719 154.322C381.719 157.452 379.972 159.563 378.225 159.563C376.77 159.563 374.732 157.452 374.732 154.322Z" fill="#F9D050" stroke="black" stroke-width="0.436686"/>
<path d="M379.972 155.705C379.972 152.212 382.083 149.155 384.121 149.155C386.595 149.155 388.342 152.94 388.342 155.705C388.342 158.544 386.231 160.945 384.121 160.945C382.083 160.945 379.972 158.835 379.972 155.705ZM381.719 117.35C380.991 120.115 378.589 122.59 380.263 126.447C377.207 125.356 374.441 124.992 371.966 127.83C375.096 127.466 377.862 128.558 379.244 130.596C376.479 130.232 375.096 131.687 374.368 133.434C376.843 132.706 379.244 131.979 380.336 132.343C379.244 133.434 377.498 135.108 377.207 136.564C379.244 134.817 381.719 135.108 383.102 134.089C382.083 136.564 384.121 138.966 385.868 141.367C385.576 137.947 387.614 135.545 386.595 133.725C389.725 134.453 390.089 137.219 394.601 137.219C392.854 136.2 391.836 132.706 389.725 132.706C390.744 132.343 394.965 131.979 395.693 132.706C394.965 131.251 392.491 129.941 391.108 129.941C392.563 128.485 394.965 125.719 396.712 124.992C394.237 125.356 390.453 125.719 389.07 127.83C392.491 124.992 391.836 119.824 395.62 119.096C393.582 118.732 390.453 120.115 387.978 122.59C389.07 120.479 389.07 117.714 390.453 116.986C387.614 117.714 384.485 121.207 383.466 122.954C383.315 120.978 382.718 119.061 381.719 117.35Z" fill="#F9D050" stroke="black" stroke-width="0.436686"/>
<path d="M383.466 122.954C383.466 123.973 383.466 126.083 383.102 126.738ZM387.978 122.59C387.25 123.318 385.868 125.719 385.868 127.83Z" fill="#F9D050"/>
<path d="M383.466 122.954C383.466 123.973 383.466 126.083 383.102 126.738M387.978 122.59C387.25 123.318 385.868 125.719 385.868 127.83" stroke="black" stroke-width="0.436686"/>
<path d="M390.089 126.738C388.889 127.455 388.005 128.599 387.614 129.941" stroke="black" stroke-width="0.436686"/>
<path d="M353.116 161.309C350.641 161.309 348.604 160.29 347.148 158.544C344.746 155.341 338.123 153.959 335.285 156.797C334.266 157.525 332.883 157.525 331.864 157.816C330.117 157.816 328.007 159.563 328.662 163.056C330.117 161.964 330.408 163.056 331.5 163.056C332.228 162.692 331.864 163.42 331.864 164.075C331.864 165.822 335.649 169.315 339.142 168.951C342.999 168.951 344.746 170.407 345.401 171.135C346.493 172.081 345.765 171.79 346.493 173.537C347.512 174.556 347.876 174.919 346.129 176.302C345.334 176.965 344.695 177.794 344.256 178.731C343.818 179.668 343.59 180.69 343.59 181.724C343.59 182.759 343.818 183.781 344.256 184.718C344.695 185.655 345.334 186.484 346.129 187.147C350.641 190.567 362.141 195.88 375.096 185.691C387.614 175.938 407.119 181.542 408.575 184.963C410.322 188.529 410.977 190.567 411.341 192.314C411.705 193.77 413.451 195.153 415.926 194.789C418.328 194.789 421.093 195.808 422.476 196.899C424.296 197.918 426.698 197.627 426.043 194.425C424.587 184.672 418.692 183.289 418.037 178.777C421.457 179.068 423.859 179.068 425.315 177.685C426.334 176.302 427.717 173.828 429.172 173.173C430.191 172.445 430.191 171.717 428.808 172.081C427.062 172.445 426.043 173.173 422.84 172.809C406.828 171.062 361.85 158.835 353.116 161.309Z" fill="#059334" stroke="black" stroke-width="1.01893"/>
<path d="M424.296 173.173C421.636 175.05 419.362 177.422 417.6 180.16C414.179 184.672 403.699 189.184 390.744 189.184C378.225 189.184 370.584 187.147 364.979 182.634C362.587 180.721 360.001 179.062 357.265 177.685C353.48 175.938 352.752 172.081 353.771 168.951C352.752 170.698 352.097 172.445 349.986 172.081C348.531 172.081 345.765 172.081 346.493 173.537C346.129 172.809 346.129 171.79 345.765 171.353L345.037 170.698C346.129 171.426 348.604 169.315 350.35 169.315C351.733 169.679 353.48 167.932 353.116 165.822L352.097 161.309C354.863 159.854 391.472 166.55 398.823 167.205C406.101 167.569 427.062 170.698 424.296 173.173Z" fill="#000001" stroke="black" stroke-width="1.01893"/>
<path d="M357.992 159.927C361.486 156.433 365.634 154.686 369.856 155.705H370.875C373.058 153.958 377.862 153.595 380.7 154.977H382.083C386.231 153.595 394.237 154.977 397.076 157.816L398.095 158.544C407.556 157.816 413.088 161.964 419.711 168.66C420.438 169.388 421.457 170.698 423.204 171.062C425.315 171.426 425.679 172.518 423.932 173.537C421.134 175.267 418.669 177.486 416.654 180.087C413.451 184.308 403.335 188.529 390.744 188.529C378.589 188.529 371.238 186.346 365.634 182.198C362.505 179.796 360.103 178.413 358.356 177.321C356.246 176.593 353.48 173.828 354.499 171.062C355.227 168.296 353.48 164.803 352.097 161.309C353.116 160.582 355.882 159.563 357.264 160.29L357.992 159.927Z" fill="#059334" stroke="black" stroke-width="1.01893"/>
<path d="M419.711 168.66C413.16 161.964 407.556 157.816 398.095 158.471C398.095 158.835 398.095 159.927 397.731 160.654C404.325 163.613 410.17 168.016 414.834 173.537C416.29 172.081 418.692 170.407 419.711 168.66ZM397.076 157.816C394.237 155.05 386.231 153.595 382.083 155.05C382.083 156.433 382.083 158.544 381.355 159.927C383.83 160.945 385.867 163.42 387.978 165.822C389.434 165.458 392.854 164.439 394.601 164.075C395.644 162.081 396.473 159.983 397.076 157.816ZM380.7 154.977C377.862 153.595 372.985 153.958 370.875 155.705C370.147 157.161 369.856 159.927 369.856 161.309C371.311 161.309 373.349 162.328 374.004 163.056C376.188 162.328 378.953 160.945 379.972 159.927C380.336 158.471 380.991 156.433 380.7 155.05V154.977ZM357.992 159.927C361.486 156.433 365.634 154.686 369.856 155.705C369.128 156.797 368.837 158.835 368.837 160.945C364.979 160.582 360.103 161.673 357.992 163.056V159.927Z" fill="#00493D" stroke="black" stroke-width="1.01893"/>
<path d="M413.451 174.192C409.067 169 403.603 164.827 397.44 161.964C397.44 162.328 396.712 163.711 396.348 164.803C398.459 167.932 402.607 174.919 404.354 178.777C406.101 178.049 410.977 175.938 413.451 174.192ZM386.959 181.906C387.562 177.15 387.903 172.363 387.978 167.569C389.725 167.205 393.218 166.186 394.601 165.822C396.348 168.66 400.569 176.011 402.316 179.432C398.095 180.451 391.108 182.198 386.959 181.906ZM374.732 165.167C376.479 164.439 378.953 162.983 380.627 161.673C382.083 162.692 384.849 165.167 385.867 166.55C385.867 169.679 384.849 178.777 384.485 181.834C381.719 181.834 377.207 181.179 374.732 179.796C375.096 174.556 375.46 168.66 374.732 165.167ZM357.265 169.315C357.628 168.587 357.992 166.186 357.992 165.167C360.758 163.42 367.745 161.673 372.985 164.439C373.349 167.932 372.985 176.666 372.621 178.777C367.953 174.981 362.817 171.801 357.337 169.315H357.265Z" fill="#00493D" stroke="black" stroke-width="1.01893"/>
<path d="M339.87 162.983C339.142 162.983 338.778 160.945 337.395 160.945C337.031 160.945 336.013 161.309 335.649 160.945C335.649 161.673 336.013 162.401 336.376 162.692C336.74 163.711 338.487 163.056 339.87 163.056V162.983Z" fill="#000001"/>
<path d="M339.87 168.951C344.018 168.951 344.746 163.711 346.857 163.42M342.272 169.315C345.401 170.771 347.876 163.42 350.278 163.711M336.013 160.29C337.031 160.29 337.759 158.835 339.506 160.582C340.234 161.309 341.253 161.673 341.981 161.673M341.253 165.458C339.797 167.641 337.395 168.951 336.013 168.296M335.285 156.797C334.266 157.525 333.611 158.835 332.883 159.927M331.864 161.964V163.711" stroke="black" stroke-width="1.01893"/>
<path d="M448.314 207.38V275.357C448.314 334.31 420.438 354.543 383.102 370.555C345.765 354.543 317.599 334.31 317.599 275.357V207.307H448.314V207.38Z" fill="white"/>
<path d="M383.102 264.877C386.231 264.877 391.108 262.111 395.329 257.89C399.841 253.013 407.556 251.339 415.562 257.89C423.568 264.513 428.444 261.747 432.666 257.89C436.814 254.105 440.308 252.65 448.314 252.65V207.38H317.526V252.722C325.532 252.722 329.026 254.178 333.247 257.963C337.395 261.82 342.272 264.586 350.35 257.963C358.72 251.412 365.998 253.086 370.875 257.963C374.732 262.184 379.608 264.95 383.102 264.95V264.877Z" fill="#C8102E"/>
<path d="M383.102 299.812C387.323 299.812 395.693 295.226 397.731 294.207C405.446 289.622 410.977 293.844 415.562 295.954C420.438 297.992 429.463 300.467 435.067 295.954C440.672 291.369 443.801 291.733 447.659 291.733C448.386 286.493 448.386 281.252 448.386 275.357V271.136C443.437 270.117 441.035 271.5 435.795 276.085C430.555 280.597 424.587 279.579 416.872 276.813C409.594 273.61 402.316 268.079 394.965 276.813C391.916 280.22 387.662 282.308 383.102 282.635C377.862 282.635 373.349 279.215 371.238 276.813C363.596 268.079 356.61 273.61 349.259 276.813C341.617 279.579 335.285 280.597 330.117 276.085C325.241 271.5 322.766 270.117 317.526 271.136V275.357C317.526 281.252 317.89 286.493 318.545 291.733C322.402 291.733 325.241 291.369 330.772 295.954C336.376 300.467 345.765 297.992 350.35 295.954C355.227 293.844 360.758 289.622 368.473 294.207C370.583 295.226 378.589 299.739 383.102 299.739V299.812ZM383.102 314.805C389.145 314.478 395.017 312.679 400.205 309.564C407.192 305.707 412.069 307.381 419.056 310.947C426.334 314.441 432.302 313.349 436.523 310.947C438.561 309.491 440.308 306.726 444.82 307.818C442.782 316.551 439.58 324.193 435.795 330.452C432.822 331.438 429.682 331.824 426.559 331.586C423.435 331.349 420.39 330.493 417.6 329.07C410.322 325.576 401.224 323.465 396.348 326.595C392.393 329.169 387.817 330.628 383.102 330.816C379.244 330.816 374.368 329.361 369.856 326.595C364.979 323.465 355.882 325.576 348.604 329.07C345.818 330.505 342.776 331.373 339.652 331.623C336.529 331.873 333.386 331.5 330.408 330.525C326.624 324.193 323.494 316.478 321.384 307.818C325.896 306.726 327.643 309.564 329.753 310.947C332.363 312.42 335.309 313.194 338.305 313.194C341.302 313.194 344.247 312.42 346.857 310.947C354.135 307.454 359.011 305.707 365.998 309.491C371.18 312.632 377.052 314.456 383.102 314.805ZM383.102 370.555C396.592 365.327 409.188 358.034 420.438 348.939C417.6 347.92 415.926 348.575 413.451 346.828C410.977 345.081 403.699 344.426 397.44 347.92C393.099 350.452 388.164 351.786 383.138 351.786C378.113 351.786 373.178 350.452 368.837 347.92C362.505 344.426 355.227 345.081 352.825 346.828C350.35 348.575 348.604 347.92 345.765 349.012C356.971 358.154 369.578 365.429 383.102 370.555Z" fill="#0B50A0"/>
<path d="M374.004 224.41C374.368 225.138 373.713 226.885 374.004 227.54C374.732 228.996 374.732 229.723 375.751 230.379H378.226C385.868 230.379 394.965 227.249 402.607 227.249C409.958 227.249 414.47 229.651 418.619 229.651C421.094 229.651 423.204 227.904 423.204 226.157C423.204 224.41 420.439 223.392 414.47 223.392C406.101 223.392 401.588 225.502 394.601 225.502C384.121 225.502 382.374 221.645 382.374 219.898C382.374 218.151 384.121 215.75 389.725 215.75C391.472 215.75 392.855 215.386 393.582 214.658C393.946 213.93 394.965 212.547 397.076 211.528C399.478 210.073 404.354 211.528 406.828 209.781C406.828 211.237 404.718 213.275 402.971 214.003C406.465 212.911 410.249 212.911 410.977 215.75C409.23 214.658 406.465 215.386 405.446 215.75C403.99 216.041 403.335 216.477 401.952 216.768C403.335 216.405 404.063 219.17 406.101 219.17C404.063 220.917 400.569 220.917 397.076 219.534C395.984 219.17 393.218 218.151 391.472 218.151C387.978 218.151 385.868 218.879 385.868 220.262C385.868 222.009 388.051 223.028 394.237 223.028C400.569 223.028 404.063 221.281 413.452 221.281C412.724 220.262 413.815 219.17 412.433 218.151C415.926 218.151 419.711 219.17 421.166 221.645C420.802 219.17 422.84 217.132 422.185 215.022C424.296 215.386 426.043 217.423 426.334 219.17C426.334 218.151 427.789 218.151 427.789 217.132C428.763 217.659 429.55 218.472 430.045 219.462C430.54 220.451 430.718 221.569 430.555 222.664C431.574 220.917 432.666 221.645 433.321 219.534C434.049 220.99 433.685 225.138 431.21 226.521C433.394 225.065 436.45 225.066 438.561 227.54C436.45 227.249 435.431 228.268 434.412 228.632C429.334 231.227 423.659 232.433 417.964 232.125C412.433 231.761 411.705 230.67 408.211 230.67C410.322 231.034 414.47 235.255 418.401 235.255C420.802 235.255 422.549 235.255 423.568 234.891C424.587 234.527 426.334 234.891 427.717 235.619C428.808 236.638 430.919 237.657 432.302 237.366C431.938 238.748 431.21 239.403 430.191 239.767C431.938 240.859 430.919 241.514 432.666 242.897C431.938 242.897 431.21 243.625 430.191 243.261C431.21 244.28 431.21 245.735 432.302 246.39C431.938 246.39 430.846 246.754 430.191 246.39C431.21 247.846 430.191 249.52 431.21 250.248C432.302 251.703 430.191 253.377 428.444 251.994C428.808 253.013 427.717 254.105 426.698 253.741C425.679 253.377 424.951 252.286 425.242 251.994C425.242 251.631 425.242 251.631 425.679 251.267C424.951 252.358 423.568 252.358 422.84 251.994C422.549 251.631 422.112 251.267 422.112 250.976C419.711 251.703 418.692 249.52 419.056 248.501C419.347 247.482 421.457 247.045 422.185 247.482C422.913 247.773 423.568 248.21 424.296 247.482C425.024 247.118 425.315 246.39 425.315 245.735C425.315 244.644 424.296 241.514 419.711 241.878C414.47 242.242 406.101 240.859 401.952 239.403C401.588 239.112 401.224 239.112 400.86 238.676C400.86 240.131 399.478 240.859 399.478 242.242C399.478 243.989 400.205 245.371 402.316 246.026C401.224 247.773 399.478 247.482 398.823 246.39C398.823 247.482 397.367 248.137 397.367 249.52C397.076 248.792 396.639 248.501 396.348 247.773C395.329 250.248 392.491 251.631 391.108 250.976C389.361 252.358 387.323 251.994 386.595 250.612C385.576 251.339 384.121 251.339 383.466 250.612C383.466 251.631 382.738 251.339 382.374 252.722C382.374 253.45 380.991 253.741 380.336 253.45C379.608 253.013 379.244 251.631 379.972 250.976C378.953 251.703 377.862 251.703 377.207 250.976C377.207 250.248 377.207 249.229 377.934 248.792H378.589C377.862 248.501 376.843 248.792 376.115 248.501C375.387 247.773 375.387 247.045 375.751 246.39C376.115 246.026 377.207 245.371 377.934 246.026L378.226 246.39C378.226 245.663 378.589 245.008 378.953 245.008C379.681 244.644 380.627 244.644 381.719 245.735C382.447 246.754 383.102 246.754 385.213 246.463C386.959 246.463 389.725 244.644 391.763 242.897C385.94 241.878 389.361 238.021 391.108 236.638C389.725 236.274 387.614 236.274 386.231 237.002C378.953 240.859 371.239 245.371 366.362 243.989C366.43 244.718 366.68 245.419 367.09 246.026C365.998 246.026 363.888 246.026 363.233 245.008C362.869 245.735 362.214 247.482 362.869 248.865C362.141 248.137 360.103 247.409 359.011 247.118C359.739 247.846 359.011 249.229 359.375 250.248C358.356 249.229 356.61 248.501 355.882 249.229C355.154 249.957 353.771 250.248 352.752 249.957C352.074 250.916 351.104 251.631 349.986 251.994C349.986 251.267 349.986 250.248 349.623 249.884C349.259 250.976 348.167 252.358 346.857 253.013C346.857 252.286 346.857 251.267 346.493 250.612C346.493 251.994 343.727 252.722 343.363 253.741C343.727 252.722 343.727 251.631 343.727 250.976C343.341 251.594 342.832 252.127 342.231 252.54C341.63 252.953 340.95 253.238 340.234 253.377C340.525 252.65 340.962 251.922 340.525 251.267C340.234 252.722 338.123 253.45 336.376 253.013C336.376 253.741 334.921 254.76 333.247 253.741C332.155 253.377 331.5 252.286 332.155 251.631C330.772 251.631 329.389 250.248 330.117 249.229C330.117 248.865 330.408 248.501 330.408 248.137C329.389 247.409 329.026 246.026 330.117 245.008C330.408 244.644 331.5 244.644 332.155 244.644C332.155 241.878 334.63 241.878 335.649 243.916C336.376 245.008 338.487 246.754 340.234 246.39C340.962 246.39 341.253 246.026 341.981 246.026C345.111 244.992 348.059 243.469 350.714 241.514C351.005 240.495 351.005 239.767 351.005 239.112C349.623 239.84 348.24 240.495 347.512 241.514V240.495C346.493 240.495 344.746 240.131 344.018 240.131C344.382 239.767 344.746 238.021 345.474 237.657C343.727 238.021 341.981 237.657 340.525 237.366C341.253 236.638 341.253 235.619 341.617 234.527C340.889 234.891 339.142 234.236 337.759 234.527C338.123 233.508 338.487 232.125 339.506 231.761C338.05 232.125 336.376 231.761 334.63 231.034C336.085 231.034 336.74 229.287 337.759 229.287C334.994 229.287 334.266 227.904 332.883 227.249C333.902 227.54 334.63 226.521 335.649 226.521C334.63 226.157 332.883 224.41 333.611 223.392C333.247 223.755 332.883 224.41 332.155 224.847C331.427 225.138 330.117 224.847 329.026 223.755C328.298 222.3 328.662 220.626 330.117 220.262C329.798 220.241 329.491 220.13 329.233 219.94C328.975 219.751 328.777 219.491 328.662 219.192C328.547 218.894 328.521 218.568 328.585 218.255C328.649 217.941 328.802 217.653 329.026 217.423C329.389 216.696 330.772 215.75 331.5 216.696L332.519 218.151C332.155 217.423 332.155 216.041 332.155 215.022C332.519 214.003 333.247 214.003 334.339 213.566C335.285 213.566 336.013 214.658 336.013 215.75C336.013 216.768 336.376 217.423 336.74 218.879L337.031 217.423C337.031 216.041 338.778 216.405 339.87 216.696C340.889 217.132 341.253 219.17 339.87 220.262C339.142 220.99 339.506 222.009 340.234 222.664C342.636 226.521 346.784 229.651 350.35 230.015C350.35 228.559 351.078 227.249 352.097 226.157C352.097 225.429 352.388 224.41 352.825 223.755C353.116 221.645 354.135 220.626 355.518 221.281C355.227 220.917 354.79 220.553 354.79 220.262C353.771 219.17 352.752 217.423 353.48 216.041C354.208 214.658 356.246 215.022 356.973 215.75C356.61 213.566 359.011 211.892 359.011 210.8C359.375 211.892 360.103 213.275 359.739 214.294C360.103 212.911 362.505 211.164 364.252 210.509C363.524 211.528 365.707 213.275 365.343 214.294C366.071 212.547 368.837 211.528 370.875 211.528C370.147 212.256 370.147 213.639 370.147 214.294C371.239 214.294 373.058 214.003 373.713 212.911C373.713 214.367 372.985 215.75 372.257 216.405C372.621 216.041 374.004 216.041 375.096 216.041C374.004 217.132 374.368 218.224 373.349 218.879C374.732 218.151 376.479 218.151 376.843 219.607C377.57 220.626 376.479 222.373 375.751 223.392C375.023 223.755 374.368 224.41 374.004 224.41Z" fill="#F9D050" stroke="black" stroke-width="1.01893"/>
<path d="M352.461 228.632C349.987 229.651 349.259 232.125 348.895 233.508" stroke="black" stroke-width="1.01893"/>
<path d="M352.097 231.034C348.604 233.217 347.148 234.891 347.876 238.748M353.771 241.587C355.954 240.859 357.264 240.131 359.011 237.002" stroke="black" stroke-width="1.01893"/>
<path d="M357.992 238.384C357.264 239.84 357.992 242.242 356.973 243.261C357.91 242.795 358.717 242.107 359.326 241.257C359.935 240.407 360.327 239.421 360.467 238.384" stroke="black" stroke-width="1.01893"/>
<path d="M358.72 242.242C360.103 241.514 362.214 239.403 363.233 237.002C362.869 238.02 363.233 239.767 362.505 240.859C364.252 239.112 364.979 238.02 365.343 236.274L365.634 237.729C366.362 237.002 367.09 236.274 367.09 234.891M367.017 235.91V237.657C368.473 236.638 368.837 235.255 368.837 233.508" stroke="black" stroke-width="1.01893"/>
<path d="M368.473 235.619C370.583 234.163 370.875 232.125 370.875 228.996M370.875 232.489C372.33 231.397 372.621 230.742 372.621 227.54M368.109 218.151C367.381 218.151 366.653 218.515 366.653 219.607C366.653 220.262 365.634 221.281 365.634 222.373C365.343 223.755 364.615 224.119 363.596 223.755C362.505 223.028 362.505 223.028 362.505 222.009C362.505 220.553 364.252 220.262 364.252 218.879C364.615 218.151 364.979 217.132 365.343 217.132C363.597 218.151 361.122 217.423 360.758 215.386" stroke="black" stroke-width="1.01893"/>
<path d="M371.238 219.17C370.511 219.534 369.783 218.442 368.837 218.879C368.473 218.879 367.381 219.17 367.09 218.879" stroke="black" stroke-width="1.01893"/>
<path d="M366.362 220.917C366.726 221.281 368.473 222.009 370.22 221.281C368.764 221.645 367.745 219.898 369.128 218.879M363.233 217.423C361.777 217.423 360.758 218.515 361.122 219.607C361.486 220.626 362.869 220.626 363.888 219.898M360.758 234.891C361.122 234.527 361.486 233.872 361.486 233.435C362.214 233.435 362.942 233.144 363.233 232.78C364.615 232.78 365.634 231.761 365.998 230.742C366.726 230.742 367.09 228.996 367.454 228.268C367.745 228.632 368.473 228.268 368.837 226.812C369.565 227.249 370.584 226.812 370.875 225.793M356.61 223.392C356.61 223.755 355.882 224.41 355.154 224.847C355.518 225.502 355.154 227.249 354.499 227.54C354.863 228.268 354.499 229.287 354.135 230.015C354.135 230.379 354.499 231.47 354.499 231.761M357.992 216.405C357.265 218.151 357.629 220.262 359.011 220.626" stroke="black" stroke-width="1.01893"/>
<path d="M358.72 221.936C358.356 223.755 358.356 226.157 357.992 227.249C357.628 227.977 356.973 230.378 359.739 231.034C362.869 231.761 364.615 231.397 366.362 226.157M371.602 239.767C371.602 240.131 371.238 240.859 370.583 240.859M374.004 239.112C374.004 239.84 373.276 240.859 372.985 241.15M376.479 238.384C376.479 239.112 376.479 240.131 375.751 240.495M355.227 216.768C355.518 216.768 355.954 217.496 356.246 218.151C355.227 217.423 354.135 219.17 354.79 220.262M354.135 222.664L352.752 223.755M353.116 225.793C352.752 225.793 352.388 226.157 352.097 226.157M336.376 219.534C336.376 219.17 336.376 219.17 336.74 218.806M333.247 218.515C332.883 218.515 332.883 218.515 332.519 218.151M333.538 223.392H334.266M332.155 221.281C331.602 220.732 330.888 220.375 330.117 220.262M351.369 234.236C348.895 236.274 347.876 238.02 347.512 240.495M353.771 235.91C353.153 237.206 352.198 238.312 351.005 239.112M340.234 246.39C339.069 246.766 337.833 246.869 336.622 246.693C335.411 246.516 334.256 246.064 333.247 245.371C332.883 245.007 332.519 245.007 332.155 244.644M350.641 241.587C350.35 242.897 349.914 244.644 349.259 245.007C352.097 243.552 354.499 241.514 354.863 238.384M330.408 248.137C331.5 247.773 332.592 248.501 333.247 247.773M391.108 236.638C391.835 237.002 392.854 237.365 393.218 237.657C393.582 236.929 394.965 235.91 395.984 235.619M366.362 243.989C365.998 242.533 366.726 240.859 368.837 240.131M352.752 249.884C353.116 249.156 353.116 248.137 353.48 247.482M337.395 250.976C337.031 251.703 336.376 252.358 336.376 253.013M332.155 251.631C332.155 251.631 332.155 251.267 332.519 251.267C333.247 250.975 334.266 250.248 334.63 249.52M379.608 246.754C378.88 247.118 378.589 246.754 378.225 246.39M379.244 248.501C379.244 248.501 378.953 248.865 378.517 248.865M380.991 250.248C380.627 250.612 380.263 250.976 379.972 250.976M391.108 250.976C391.835 250.612 392.199 249.884 392.563 248.501M386.595 250.612C387.614 250.248 388.342 249.52 389.361 248.501M396.348 247.773C396.348 247.045 396.348 246.39 396.712 245.735M422.185 250.976C421.457 250.248 421.457 249.229 422.549 248.501C423.277 248.137 423.568 247.773 424.296 247.482" stroke="black" stroke-width="1.01893"/>
<path d="M400.86 238.676C395.329 236.274 395.693 233.144 391.108 233.508M425.679 249.593C426.043 249.884 425.679 250.975 425.679 251.267M428.808 249.593C428.444 250.612 428.444 250.975 428.444 251.994M401.952 216.768H399.041M372.621 228.632C372.621 229.36 373.713 230.742 376.479 230.742C376.115 230.742 375.751 230.378 375.751 230.378M374.004 224.41C373.713 224.774 373.276 224.41 373.276 224.41C372.621 223.683 373.713 222.373 374.732 221.645C373.713 222.009 372.985 222.009 372.257 222.009C371.53 224.119 369.492 225.138 368.109 223.755C367.745 225.138 365.998 226.885 364.615 226.521C363.16 225.793 362.869 224.774 363.16 223.755C361.486 225.793 359.375 224.483 358.72 223.755C358.356 223.028 358.72 221.281 359.448 219.17" stroke="black" stroke-width="1.01893"/>
<path d="M396.348 237.657C395.329 238.384 394.237 237.657 393.218 238.748C392.491 239.476 393.582 239.767 394.237 239.767C393.946 240.859 393.946 241.223 395.693 241.223C394.965 242.242 397.076 242.606 396.712 243.989C397.15 243.534 397.451 242.965 397.58 242.347C397.709 241.729 397.66 241.087 397.44 240.495C397.076 239.403 395.256 238.748 396.348 237.657Z" fill="black"/>
<path d="M364.615 226.521C363.16 225.793 362.869 224.774 363.16 223.755C362.869 224.483 362.214 224.774 361.486 224.774C360.03 227.904 358.356 230.742 356.246 230.742C353.771 231.034 354.135 233.508 355.882 233.508C359.739 234.236 361.486 232.78 364.615 226.521ZM330.117 218.151C331.136 217.132 330.408 216.041 329.753 215.75C328.662 215.386 326.624 215.75 325.532 217.423C326.624 217.132 327.715 217.132 328.007 217.787C328.37 218.515 329.025 219.243 330.117 218.151ZM331.864 211.892C334.266 211.892 334.994 212.256 335.285 213.275C335.649 214.003 334.994 215.022 334.266 215.022C333.247 215.022 332.155 214.294 332.519 214.003C332.883 213.275 332.883 212.256 331.791 211.819L331.864 211.892ZM338.778 217.423C340.525 217.787 341.253 216.696 340.234 215.386C339.87 214.294 338.778 213.639 337.031 213.93C338.778 215.022 337.031 216.768 338.778 217.423ZM325.896 223.392C326.209 224.011 326.733 224.498 327.374 224.764C328.014 225.031 328.729 225.061 329.389 224.847C330.408 224.41 330.845 223.392 330.408 222.664C329.681 221.645 328.662 221.281 328.37 222.664C327.643 224.119 326.624 223.755 325.896 223.392ZM331.136 244.644C330.408 243.261 328.37 243.261 326.624 244.644C327.352 244.28 328.662 244.644 329.025 245.371C329.389 246.099 330.117 246.099 330.481 246.099C330.772 245.735 331.5 245.371 331.136 244.644ZM333.902 242.606C333.902 240.859 331.5 240.422 330.117 241.15C330.845 241.15 331.864 241.878 331.864 242.606C332.155 243.333 332.883 243.625 333.247 243.625C333.975 243.261 334.266 242.897 333.975 242.606H333.902ZM330.408 248.865C328.37 248.501 327.279 250.976 327.279 252.649C327.643 251.631 328.734 250.975 329.753 251.267C330.772 251.267 331.136 250.976 331.136 250.248C331.5 249.52 331.136 249.229 330.408 248.792V248.865ZM330.772 254.76C331.5 255.124 332.228 254.396 332.519 253.377C332.519 252.649 333.975 252.649 334.266 253.013C334.994 253.377 334.994 254.76 333.902 255.488C333.174 255.852 331.5 256.216 330.772 254.76ZM379.244 244.28C378.517 243.989 376.843 243.261 375.46 244.28C376.479 243.989 377.207 244.644 377.498 245.371C377.498 246.099 378.589 246.39 378.953 245.735C379.244 245.371 379.681 244.644 379.244 244.28ZM376.115 246.754C374.732 246.026 372.985 247.773 372.621 249.229C373.333 248.649 374.188 248.271 375.096 248.137C375.824 248.501 376.479 248.137 376.479 247.409C376.843 247.118 376.843 246.754 376.115 246.754ZM377.934 249.593C376.843 249.593 375.46 250.975 375.46 252.358C375.751 251.631 376.479 251.267 377.206 251.631C377.934 251.631 378.953 251.267 378.953 250.612C378.953 249.884 378.589 249.52 377.862 249.52L377.934 249.593ZM380.991 252.358C380.263 251.994 379.244 252.358 379.244 253.377C379.244 254.396 379.244 255.488 378.953 255.852C379.681 255.124 380.336 254.76 380.991 254.396C381.355 254.105 381.719 253.013 380.991 252.358ZM420.438 249.229C419.711 248.501 418.692 248.865 418.328 249.52C417.964 250.248 417.6 251.994 418.328 253.377C418.328 252.649 419.056 251.631 419.783 251.631C420.802 251.267 421.093 249.884 420.438 249.229ZM422.549 250.612C421.093 251.339 421.093 253.741 422.185 255.124C422.185 254.396 422.549 253.377 423.204 253.013C424.296 253.013 424.66 251.631 424.296 250.976C423.568 250.248 422.84 250.612 422.549 250.612ZM426.698 251.994C425.97 251.631 425.242 252.358 425.242 253.013C424.951 254.105 425.679 255.488 426.698 256.143C426.698 255.415 427.061 254.76 427.425 254.396C428.444 253.668 428.153 252.358 426.698 251.994ZM429.827 251.631C429.099 251.631 428.444 252.649 429.099 253.741C429.463 254.469 430.191 254.76 431.574 254.469C431.21 254.469 430.555 253.377 430.846 253.013C431.21 252.286 430.846 251.631 429.827 251.631Z" fill="#073163"/>
<path d="M332.883 316.842L350.35 263.13L367.818 316.842L322.039 283.727H378.662L332.883 316.842Z" fill="#F9D050"/>
<path d="M336.376 311.966L372.621 285.474H328.007L363.888 311.966L350.35 269.462L336.376 311.966Z" fill="#024919"/>
<path d="M398.459 316.842L415.926 263.13L433.393 316.842L387.614 283.727H444.238L398.459 316.842Z" fill="#F9D050"/>
<path d="M401.952 311.966L438.197 285.474H393.582L429.463 311.966L415.926 269.462L401.952 311.966Z" fill="#024919"/>
<path d="M365.634 354.834L383.102 301.122L400.569 354.834L354.79 321.719H411.414L365.634 354.834Z" fill="#F9D050"/>
<path d="M369.128 349.958L405.373 323.465H360.758L396.639 349.958L383.102 307.454L369.128 349.958Z" fill="#024919"/>
<path d="M448.314 207.38V275.357C448.314 334.31 420.438 354.543 383.102 370.555C345.765 354.543 317.599 334.31 317.599 275.357V207.307H448.314V207.38Z" stroke="black" stroke-width="1.01893"/>
</g>
<defs>
<clipPath id="clip0_2_5717">
<rect width="512" height="512" fill="white"/>
</clipPath>
</defs>
</svg>
