<svg width="512" height="512" viewBox="0 0 512 512" fill="none" xmlns="http://www.w3.org/2000/svg">
<g clip-path="url(#clip0_2_5840)">
<path d="M0 0H512V512H0V0Z" fill="#00ABC2"/>
<path d="M276.7 283.915C314.761 283.915 345.615 253.061 345.615 215C345.615 176.939 314.761 146.085 276.7 146.085C238.639 146.085 207.785 176.939 207.785 215C207.785 253.061 238.639 283.915 276.7 283.915Z" fill="#FFEC2D"/>
<path d="M276.7 136.715C280.796 136.664 282.332 134.104 282.332 131.032C282.332 126.936 276.7 107.429 276.7 107.429C276.7 107.429 271.068 126.936 271.068 131.032C271.068 134.104 272.604 136.715 276.7 136.715Z" fill="#FFEC2D"/>
<path d="M354.985 215C355.036 219.096 357.596 220.632 360.668 220.632C364.764 220.632 384.271 215 384.271 215C384.271 215 364.764 209.368 360.668 209.368C357.596 209.368 354.985 210.904 354.985 215Z" fill="#FFEC2D"/>
<path d="M276.7 293.285C272.604 293.336 271.068 295.896 271.068 298.968C271.068 303.064 276.7 322.571 276.7 322.571C276.7 322.571 282.332 303.064 282.332 298.968C282.332 295.896 280.796 293.285 276.7 293.285Z" fill="#FFEC2D"/>
<path d="M198.415 215C198.364 210.904 195.804 209.368 192.732 209.368C188.636 209.368 169.129 215 169.129 215C169.129 215 188.636 220.632 192.732 220.632C195.804 220.632 198.415 219.096 198.415 215Z" fill="#FFEC2D"/>
<path d="M306.658 142.674C310.462 144.194 312.861 142.417 314.037 139.579C315.604 135.795 317.866 115.617 317.866 115.617C317.866 115.617 305.197 131.484 303.63 135.268C302.454 138.107 302.874 141.107 306.658 142.674Z" fill="#FFEC2D"/>
<path d="M349.026 244.958C347.506 248.762 349.283 251.161 352.121 252.336C355.905 253.904 376.083 256.166 376.083 256.166C376.083 256.166 360.216 243.497 356.432 241.93C353.593 240.754 350.593 241.174 349.026 244.958Z" fill="#FFEC2D"/>
<path d="M246.742 287.326C242.938 285.805 240.539 287.583 239.364 290.421C237.796 294.205 235.534 314.383 235.534 314.383C235.534 314.383 248.203 298.516 249.77 294.732C250.946 291.893 250.526 288.893 246.742 287.326Z" fill="#FFEC2D"/>
<path d="M204.374 185.042C205.894 181.238 204.117 178.839 201.279 177.664C197.495 176.096 177.317 173.834 177.317 173.834C177.317 173.834 193.184 186.503 196.968 188.07C199.807 189.246 202.807 188.826 204.374 185.042Z" fill="#FFEC2D"/>
<path d="M332.056 159.644C334.988 162.504 337.885 161.78 340.057 159.608C342.953 156.712 352.764 138.936 352.764 138.936C352.764 138.936 334.988 148.747 332.092 151.643C329.92 153.815 329.159 156.748 332.056 159.644Z" fill="#FFEC2D"/>
<path d="M332.056 270.356C329.196 273.288 329.92 276.185 332.092 278.357C334.988 281.253 352.764 291.064 352.764 291.064C352.764 291.064 342.953 273.288 340.057 270.392C337.885 268.22 334.952 267.459 332.056 270.356Z" fill="#FFEC2D"/>
<path d="M221.344 270.356C218.412 267.496 215.516 268.22 213.343 270.392C210.447 273.288 200.636 291.064 200.636 291.064C200.636 291.064 218.412 281.253 221.308 278.357C223.48 276.185 224.241 273.252 221.344 270.356Z" fill="#FFEC2D"/>
<path d="M221.344 159.644C224.204 156.712 223.48 153.815 221.308 151.643C218.412 148.747 200.636 138.936 200.636 138.936C200.636 138.936 210.447 156.712 213.343 159.608C215.516 161.78 218.448 162.541 221.344 159.644Z" fill="#FFEC2D"/>
<path d="M349.026 185.042C350.641 188.806 353.594 189.246 356.432 188.07C360.216 186.503 376.083 173.834 376.083 173.834C376.083 173.834 355.905 176.096 352.121 177.664C349.283 178.839 347.458 181.257 349.026 185.042Z" fill="#FFEC2D"/>
<path d="M306.658 287.326C302.894 288.94 302.454 291.893 303.63 294.732C305.197 298.516 317.866 314.383 317.866 314.383C317.866 314.383 315.604 294.205 314.037 290.421C312.861 287.583 310.443 285.758 306.658 287.326Z" fill="#FFEC2D"/>
<path d="M204.374 244.958C202.76 241.194 199.807 240.754 196.969 241.93C193.184 243.497 177.317 256.166 177.317 256.166C177.317 256.166 197.495 253.904 201.279 252.336C204.117 251.161 205.942 248.742 204.374 244.958Z" fill="#FFEC2D"/>
<path d="M246.742 142.674C250.507 141.059 250.946 138.107 249.77 135.268C248.203 131.484 235.534 115.617 235.534 115.617C235.534 115.617 237.796 135.795 239.364 139.579C240.539 142.417 242.958 144.242 246.742 142.674Z" fill="#FFEC2D"/>
<path d="M292.04 138.233C296.066 138.985 298.074 136.776 298.676 133.763C299.479 129.747 297.778 109.514 297.778 109.514C297.778 109.514 288.433 127.54 287.63 131.556C287.028 134.569 288.023 137.43 292.04 138.233Z" fill="#FFEC2D"/>
<path d="M353.467 230.34C352.715 234.366 354.924 236.374 357.937 236.976C361.953 237.779 382.186 236.078 382.186 236.078C382.186 236.078 364.16 226.733 360.144 225.93C357.131 225.328 354.27 226.323 353.467 230.34Z" fill="#FFEC2D"/>
<path d="M261.36 291.767C257.334 291.015 255.326 293.224 254.724 296.237C253.921 300.253 255.622 320.486 255.622 320.486C255.622 320.486 264.967 302.46 265.77 298.444C266.372 295.431 265.377 292.57 261.36 291.767Z" fill="#FFEC2D"/>
<path d="M199.933 199.66C200.685 195.634 198.476 193.626 195.463 193.024C191.447 192.221 171.214 193.922 171.214 193.922C171.214 193.922 189.24 203.267 193.256 204.07C196.269 204.672 199.13 203.677 199.933 199.66Z" fill="#FFEC2D"/>
<path d="M320.249 149.946C323.682 152.183 326.382 150.91 328.091 148.357C330.37 144.953 336.541 125.61 336.541 125.61C336.541 125.61 321.009 138.687 318.731 142.091C317.022 144.644 316.846 147.668 320.249 149.946Z" fill="#FFEC2D"/>
<path d="M341.753 258.549C339.517 261.982 340.79 264.682 343.343 266.391C346.747 268.67 366.09 274.841 366.09 274.841C366.09 274.841 353.013 259.309 349.609 257.031C347.056 255.322 344.032 255.146 341.753 258.549Z" fill="#FFEC2D"/>
<path d="M233.15 280.053C229.718 277.817 227.018 279.09 225.309 281.643C223.03 285.047 216.859 304.39 216.859 304.39C216.859 304.39 232.39 291.313 234.669 287.909C236.378 285.356 236.554 282.332 233.15 280.053Z" fill="#FFEC2D"/>
<path d="M211.646 171.45C213.883 168.018 212.61 165.318 210.057 163.609C206.653 161.33 187.31 155.159 187.31 155.159C187.31 155.159 200.387 170.69 203.791 172.969C206.344 174.678 209.368 174.854 211.646 171.45Z" fill="#FFEC2D"/>
<path d="M341.829 171.564C344.145 174.943 347.127 174.801 349.682 173.096C353.09 170.824 366.194 155.315 366.194 155.315C366.194 155.315 346.84 161.453 343.433 163.725C340.877 165.43 339.557 168.156 341.829 171.564Z" fill="#FFEC2D"/>
<path d="M320.136 280.129C316.757 282.445 316.899 285.427 318.604 287.982C320.876 291.39 336.385 304.494 336.385 304.494C336.385 304.494 330.247 285.14 327.975 281.733C326.27 279.177 323.544 277.857 320.136 280.129Z" fill="#FFEC2D"/>
<path d="M211.571 258.436C209.255 255.057 206.273 255.199 203.718 256.904C200.31 259.176 187.206 274.685 187.206 274.685C187.206 274.685 206.56 268.547 209.967 266.275C212.523 264.57 213.843 261.844 211.571 258.436Z" fill="#FFEC2D"/>
<path d="M233.264 149.871C236.643 147.555 236.501 144.573 234.796 142.018C232.524 138.61 217.015 125.506 217.015 125.506C217.015 125.506 223.153 144.86 225.425 148.267C227.13 150.823 229.857 152.143 233.264 149.871Z" fill="#FFEC2D"/>
<path d="M353.494 199.794C354.34 203.802 357.149 204.812 360.163 204.215C364.181 203.42 382.222 194.106 382.222 194.106C382.222 194.106 361.993 192.37 357.975 193.166C354.961 193.762 352.698 195.776 353.494 199.794Z" fill="#FFEC2D"/>
<path d="M291.906 291.794C287.898 292.64 286.888 295.449 287.485 298.463C288.28 302.481 297.594 320.523 297.594 320.523C297.594 320.523 299.33 300.293 298.534 296.275C297.938 293.261 295.924 290.998 291.906 291.794Z" fill="#FFEC2D"/>
<path d="M199.906 230.206C199.06 226.198 196.251 225.188 193.237 225.785C189.219 226.58 171.177 235.894 171.177 235.894C171.177 235.894 191.407 237.63 195.425 236.834C198.439 236.238 200.702 234.224 199.906 230.206Z" fill="#FFEC2D"/>
<path d="M261.494 138.206C265.502 137.36 266.512 134.551 265.915 131.537C265.12 127.519 255.806 109.477 255.806 109.477C255.806 109.477 254.07 129.707 254.866 133.725C255.462 136.739 257.476 139.002 261.494 138.206Z" fill="#FFEC2D"/>
<path d="M274.31 335.36C272.518 338.586 271.442 342.323 269.19 345.242C262.226 338.944 252.191 339.098 243.385 338.739C236.114 338.33 228.23 337.664 222.598 332.493C216.71 327.629 211.846 321.382 205.292 317.44C199.133 316.114 193.345 313.439 188.345 309.606C178.002 301.158 172.063 288.614 161.926 279.91C160.031 278.067 157.727 276.582 155.577 274.995C153.529 275.507 154.45 279.91 151.942 277.658C150.559 276.634 147.129 276.582 146.822 277.965C149.894 282.061 153.017 286.669 153.478 291.891C151.327 292.096 147.59 291.43 146.566 292.198C149.379 296.419 152.915 300.111 157.01 303.104C155.065 303.411 151.225 303.258 150.457 304.026C154.29 307.696 159.023 310.292 164.178 311.552C165.202 312.986 162.591 315.75 164.844 316.979C166.124 317.491 170.425 318.413 167.455 319.898C165.407 321.229 166.175 324.454 168.786 324.352C170.425 325.222 174.111 325.376 174.418 326.912C172.934 328.346 168.428 330.086 172.268 331.52C175.888 333.572 179.939 334.747 184.095 334.95C182.047 336.691 179.487 337.664 177.388 339.302C186.86 344.883 197.356 348.518 207.801 352.102C211.897 353.434 216.146 354.714 220.447 355.533C207.954 354.816 195.871 351.13 184.505 346.061C178.617 343.501 172.729 340.992 166.687 338.79C169.298 337.408 172.37 337.05 175.135 335.872C169.401 334.746 163.206 334.336 158.239 331.264C158.956 329.83 161.823 329.779 163.462 329.062C166.534 328.346 168.377 327.526 164.127 327.219C159.826 326.042 154.911 326.554 151.071 323.994C151.327 322.458 155.321 322.97 156.908 322.304C158.956 321.946 161.209 321.638 162.847 320.256C156.191 317.542 147.487 319.488 142.265 313.6C141.087 311.347 146.002 313.139 147.385 312.781C150.969 312.781 154.809 313.907 158.239 312.474C148.511 308.224 138.118 304.282 130.745 296.397C129.926 295.117 127.468 291.635 129.465 291.226C135.199 291.994 139.346 298.24 145.542 297.267C146.361 296.192 141.958 294.4 140.831 292.813C131.569 285.371 123.49 276.567 116.87 266.701C116.46 263.27 121.734 262.758 123.116 265.37C129.977 272.026 136.172 279.706 144.722 284.211C147.794 285.696 142.982 282.47 142.367 281.293C134.235 272.277 127.205 262.326 121.426 251.648C120.402 249.702 118.815 246.17 121.785 245.146C124.703 243.661 127.673 245.658 129.158 248.218C134.943 255.539 139.244 264.243 146.463 270.336C140.319 258.406 133.714 245.76 133.561 232.038C133.714 229.376 133.868 225.382 137.503 225.434C140.575 224.973 140.063 228.864 141.087 230.707C144.057 240.845 145.337 251.802 151.327 260.71C150.047 253.235 148.05 245.504 149.382 237.875C149.689 235.315 152.454 234.598 154.348 236.134C155.833 239.718 156.14 244.275 157.471 248.166C165.451 274.671 182.252 297.65 205.087 313.293C223.785 326.087 245.602 333.572 268.217 334.95C270.265 335.155 272.313 335.206 274.31 335.309M344.146 381.952C340.46 384.205 337.593 380.211 334.521 379.034C332.268 380.262 332.063 384.256 330.015 386.202C327.558 389.018 324.486 385.382 324.742 382.618C321.772 385.126 320.287 390.81 315.526 389.99C313.222 388.147 311.532 384.256 309.791 388.71C308.409 390.861 304.671 393.933 302.674 390.656C302.06 387.789 300.626 384.41 299.09 388.966C297.964 392.243 294.482 394.598 291.206 393.165C289.362 391.68 292.639 386.15 290.335 386.509C286.854 388.864 284.806 394.547 279.942 394.086C278.047 392.038 281.119 388.403 279.02 386.048C276.614 389.171 273.9 393.779 269.65 394.086C267.602 392.448 269.753 387.686 268.422 387.021C264.121 389.581 259.513 394.24 254.086 392.806C256.185 384.614 265.094 381.798 272.518 381.184C285.369 379.597 298.886 382.515 311.276 377.856C313.273 376.627 318.086 374.938 316.396 372.122C314.86 369.869 320.338 370.739 320.85 368.128C320.543 364.851 323.41 365.312 326.175 365.056C338.668 364.493 351.007 367.104 363.449 367.565C364.37 373.606 357.663 377.856 352.185 376.013C349.625 376.422 345.785 370.074 346.553 374.682C346.041 377.139 346.348 380.314 344.146 381.952ZM237.958 369.562C240.825 372.173 242.873 369.05 245.586 367.872C254.448 364.403 262.773 359.697 270.316 353.894C275.026 350.003 279.122 344.934 285.471 343.654C297.862 339.917 311.02 340.378 323.41 336.896C332.882 323.994 348.908 319.334 362.374 311.91C365.394 310.989 366.572 308.48 367.494 305.766C372.614 297.626 379.628 290.458 387.922 285.542C391.837 283.23 396.45 282.395 400.927 283.187C400.31 288.41 397.817 293.232 393.913 296.755C396.934 296.704 399.545 294.81 402.514 294.912C403.538 300.339 397.702 303.155 394.578 306.534C396.319 306.944 402.975 307.456 399.34 309.197C394.732 312.371 389.458 314.573 385.209 318.31C389.151 319.027 389.612 319.846 385.618 321.28C383.417 322.714 379.27 323.226 378.86 326.093C381.83 327.936 377.529 329.677 375.839 330.291C372.665 331.059 369.286 332.442 373.535 334.899C371.948 337.306 368.466 337.818 365.65 337.562C366.521 340.326 367.75 343.398 364.217 344.627C356.292 350.892 346.799 354.859 336.774 356.096C349.318 357.018 362.271 354.714 372.972 347.904C374.406 346.214 381.83 344.371 377.682 342.989C375.737 342.17 371.538 341.248 371.231 339.763C377.068 336.179 384.39 337.459 390.636 335.36C390.79 333.312 385.874 333.875 384.031 333.414C379.679 333.056 379.935 331.93 384.134 331.52C389.458 330.086 395.5 329.83 400.006 326.4C396.37 324.659 391.762 326.144 387.871 324.762C394.476 321.894 402.258 321.587 408.198 317.235C410.911 314.214 404.716 315.187 402.924 315.238C399.289 315.904 397.599 314.112 401.746 312.627C408.863 307.354 417.823 303.974 422.841 296.397C424.018 294.707 425.606 289.587 421.817 291.379C416.902 293.069 412.55 298.598 406.866 296.909C418.028 288.256 428.575 278.477 436.204 266.547C436.614 263.066 431.186 262.707 429.804 265.421C422.636 272.282 416.185 280.422 407.02 284.774C415.658 276.137 423.16 266.433 429.343 255.898C430.726 252.826 434.361 249.088 432.415 245.658C429.19 242.995 425.196 245.453 423.558 248.576C417.977 255.846 413.778 264.294 406.662 270.234C412.857 258.304 419.359 245.555 419.462 231.834C419.462 228.966 418.95 224.768 415.058 225.331C411.986 225.843 412.754 230.451 411.474 232.755C408.71 242.176 407.378 252.365 401.746 260.557C403.026 252.928 405.228 244.941 403.538 237.261C402.719 233.779 397.138 235.264 397.906 238.694C391.25 272.435 368.569 301.926 339.026 318.976C325.458 326.656 310.354 331.571 294.892 333.824C290.796 334.694 286.29 334.182 282.348 335.616C272.722 342.938 266.937 355.277 254.802 359.117C249.324 361.83 242.258 362.394 238.367 367.411C238.052 368.082 237.911 368.822 237.958 369.562ZM264.428 364.288C262.585 364.39 260.793 364.595 259.001 365.158C256.594 365.517 254.29 366.336 251.935 366.694L250.962 366.899L249.375 367.053C249.582 367.911 249.582 368.806 249.375 369.664C249.209 370.051 248.965 370.399 248.658 370.688C248.351 371.098 247.993 371.405 247.532 371.61C247.116 371.814 246.664 371.936 246.201 371.968C245.74 371.968 245.279 371.968 244.818 371.763C244.358 371.61 243.948 371.354 243.538 370.995L242.105 371.251H240.774L239.34 370.739C238.877 370.558 238.432 370.335 238.009 370.074C236.268 371.098 234.322 372.07 233.247 373.862C232.747 374.682 232.465 375.616 232.428 376.576C232.326 377.805 232.633 379.034 233.145 380.16C233.35 380.467 233.503 378.982 234.066 378.778C235.039 377.958 236.268 377.395 237.497 377.088C238.521 376.576 238.367 377.088 237.958 377.907C237.855 378.368 237.292 379.955 238.06 379.136C241.6 377.813 245.34 377.103 249.119 377.037C254.546 376.474 259.974 376.32 265.401 376.269L280.761 376.576C283.218 376.678 285.676 377.19 288.082 376.781C288.646 376.627 289.567 376.627 289.926 376.269C288.799 375.654 287.519 375.603 286.342 375.45H276.562C273.849 375.194 271.033 375.142 268.473 374.118C267.756 373.862 267.142 373.197 266.476 373.914C265.501 374.262 264.486 374.485 263.455 374.579C261.663 374.682 259.871 374.323 258.233 373.658C259.41 372.019 260.844 370.586 262.175 369.05L259.001 368.384C260.895 367.104 262.585 365.619 264.428 364.288Z" fill="#FFEC2D"/>
<path d="M245.74 370.33C246.419 370.33 246.969 369.779 246.969 369.101C246.969 368.422 246.419 367.872 245.74 367.872C245.061 367.872 244.511 368.422 244.511 369.101C244.511 369.779 245.061 370.33 245.74 370.33Z" fill="#FFEC2D"/>
<path d="M245.638 369.408C245.92 369.408 246.15 369.179 246.15 368.896C246.15 368.613 245.92 368.384 245.638 368.384C245.355 368.384 245.126 368.613 245.126 368.896C245.126 369.179 245.355 369.408 245.638 369.408Z" fill="#FFEC2D" stroke="#FFEC2D" stroke-width="0.2048"/>
<path d="M61.44 37.376C61.44 37.376 56.5248 33.1776 54.8352 35.2768C52.1728 38.6048 63.1296 55.2448 63.1296 61.0816C63.1296 70.7072 56.6784 73.3184 48.7936 74.6496C43.4688 75.5712 34.816 74.2912 34.816 74.2912C36.4544 72.0896 37.5296 71.424 40.2432 71.2704C37.1712 69.7344 34.0992 66.2528 34.0992 60.8768C34.0992 52.6336 37.4784 49.2032 37.4784 39.8848C37.4784 34.816 33.28 28.16 33.28 28.16C40.7552 28.928 44.4416 35.84 42.3424 41.3696C42.9186 41.4842 43.5142 41.4555 44.0767 41.2858C44.6391 41.1162 45.1513 40.8109 45.568 40.3968C46.08 41.9328 45.2608 43.7248 44.0832 45.2608C45.0048 45.7728 45.7216 45.4656 47.1552 45.1584C47.0528 46.6944 46.1312 48.4352 43.776 50.0224C50.5344 48.2816 54.6304 52.9408 54.6304 57.856C54.6304 61.5936 52.0704 64.256 49.5104 64.256C48.6912 64.256 47.4624 63.8976 46.7968 63.3856C46.2848 64.4096 46.592 65.792 47.0528 66.816C45.2096 66.304 43.9808 65.1776 44.8512 62.8736C43.4176 62.7712 42.2912 62.2592 41.5232 61.3376C42.2912 60.3136 43.4688 59.8016 44.8512 59.8016C43.8272 57.6512 45.0048 56.4736 46.6944 55.5008C46.6944 55.5008 45.6192 59.8016 48.3328 59.8016C49.5616 59.8016 50.688 59.4432 50.688 57.6C50.688 56.0128 49.3056 53.8112 46.08 53.9648C42.9056 54.1184 40.2944 56.1664 40.2944 61.2864C40.2944 65.9968 44.1344 68.352 49.152 68.4544C53.6576 68.6592 57.088 66.2016 57.088 61.5424C57.088 55.296 48.128 41.1648 48.128 35.6352C48.128 31.488 51.8144 29.1328 55.5008 29.1328C60.2112 29.1328 64.2048 33.8432 64.2048 33.8432L61.44 37.3248V37.376Z" fill="#FFEC2D"/>
<path d="M62.464 149.555C62.464 159.949 53.1456 165.274 45.824 165.274C35.9936 165.274 30.72 159.386 30.72 151.654C30.72 147.302 31.5392 144.538 33.536 140.39L56.1664 93.44C56.9862 91.4651 57.3367 89.3269 57.1904 87.1936C57.1904 82.9952 53.0944 79.5648 48.8448 79.5136C44.9536 79.36 40.6528 83.0976 40.6528 87.3472C40.6528 92.5184 43.3664 94.8224 46.1312 94.8224C49.5104 94.8224 50.8416 93.44 50.8416 91.0336C50.8416 89.3952 50.0736 88.6784 48.896 88.6784C45.9776 88.6784 46.848 92.5696 46.848 92.5696C46.4626 92.4983 46.0977 92.3428 45.7794 92.1143C45.4611 91.8857 45.1971 91.5897 45.0064 91.2474C44.8156 90.905 44.7028 90.5248 44.676 90.1338C44.6492 89.7428 44.709 89.3508 44.8512 88.9856C43.7552 88.7398 42.7677 88.1473 42.0352 87.296C42.8032 86.528 43.7248 85.9648 44.8512 85.76C44.1856 83.5072 45.1072 82.432 47.0528 81.92C46.7027 82.6896 46.6128 83.5523 46.7968 84.3776C49.8688 83.456 54.6304 84.8896 54.6304 90.2144C54.6304 95.5392 50.944 99.9936 44.032 98.9184C45.6704 99.6864 46.4896 101.274 46.6944 103.066C45.4144 102.554 44.032 102.554 44.032 102.554C44.8512 103.936 45.9776 105.114 45.9264 107.981C44.6464 107.366 43.4176 106.291 41.8304 106.957C44.3904 112.077 41.216 119.04 33.1264 120.678C36.096 117.197 37.5296 113.51 37.5296 109.773C37.5296 97.7408 34.2016 95.744 34.2016 87.3472C34.2543 85.3998 34.7692 83.4928 35.7039 81.7836C36.6387 80.0744 37.9664 78.6119 39.5776 77.5168V77.6704C38.5868 77.4669 37.6503 77.056 36.8296 76.4648C36.0089 75.8736 35.3227 75.1153 34.816 74.24C40.5196 72.668 46.549 72.7212 52.224 74.3936C54.1222 74.6621 55.9358 75.3537 57.531 76.4171C59.1261 77.4805 60.462 78.8887 61.44 80.5376C62.4622 82.8701 62.99 85.3892 62.99 87.936C62.99 90.4827 62.4622 93.0018 61.44 95.3344C58.2144 101.99 43.1616 134.042 38.4512 144.077C37.4272 146.227 36.864 148.48 36.864 150.938C36.864 157.082 42.496 159.232 45.6704 159.232C49.5104 159.232 53.4528 156.314 53.4528 152.678C53.4528 150.374 52.1728 148.941 50.3808 148.941C46.0288 148.941 46.2848 152.627 47.1552 154.982C44.4416 153.754 42.9056 151.603 43.3152 149.35C41.6351 149.068 40.1104 148.197 39.0144 146.893C40.0384 145.562 41.3696 144.538 43.3152 144.486C42.4448 140.954 44.8512 139.469 47.1552 138.65C46.4384 141.21 45.9264 144.23 50.3808 144.23C53.6064 144.23 56.1152 144.742 57.6 146.893L57.9584 133.069C58.1632 128.922 52.4288 128.973 48.7424 130.253C50.1248 125.491 52.9408 122.88 59.4944 123.546C58.4903 123.159 57.6334 122.467 57.0452 121.566C56.457 120.666 56.1674 119.603 56.2176 118.528C56.2176 114.637 59.392 110.336 61.44 109.056L62.464 149.504V149.555Z" fill="#FFEC2D"/>
<path d="M62.464 180.685C62.464 170.291 53.1456 164.966 45.824 164.966C35.9936 164.966 30.72 170.854 30.72 178.586C30.72 182.938 31.5392 185.702 33.536 189.85L56.1664 236.8C56.9862 238.775 57.3367 240.913 57.1904 243.046C57.1904 247.245 53.0944 250.675 48.8448 250.726C44.9536 250.88 40.6528 247.142 40.6528 242.893C40.6528 237.722 43.3664 235.418 46.1312 235.418C49.5104 235.418 50.8416 236.8 50.8416 239.206C50.8416 240.845 50.0736 241.562 48.896 241.562C45.9776 241.562 46.848 237.67 46.848 237.67C46.4626 237.742 46.0977 237.897 45.7794 238.126C45.4611 238.354 45.1971 238.65 45.0064 238.993C44.8156 239.335 44.7028 239.715 44.676 240.106C44.6492 240.497 44.709 240.889 44.8512 241.254C43.7552 241.5 42.7677 242.093 42.0352 242.944C42.8032 243.712 43.7248 244.275 44.8512 244.48C44.1856 246.733 45.1072 247.808 47.0528 248.32C46.7027 247.55 46.6128 246.688 46.7968 245.862C49.8688 246.784 54.6304 245.35 54.6304 240.026C54.6304 234.701 50.944 230.246 44.032 231.322C45.6704 230.554 46.4896 228.966 46.6944 227.174C45.4144 227.686 44.032 227.686 44.032 227.686C44.8512 226.304 45.9776 225.126 45.9264 222.259C44.6464 222.874 43.4176 223.949 41.8304 223.283C44.3904 218.163 41.216 211.2 33.1264 209.562C36.096 213.043 37.5296 216.73 37.5296 220.467C37.5296 232.499 34.2016 234.496 34.2016 242.893C34.2543 244.84 34.7692 246.747 35.7039 248.456C36.6387 250.166 37.9664 251.628 39.5776 252.723V252.57C38.5868 252.773 37.6503 253.184 36.8296 253.775C36.0089 254.366 35.3227 255.125 34.816 256C40.5196 257.572 46.549 257.519 52.224 255.846C54.1222 255.578 55.9358 254.886 57.531 253.823C59.1261 252.759 60.462 251.351 61.44 249.702C62.4622 247.37 62.99 244.851 62.99 242.304C62.99 239.757 62.4622 237.238 61.44 234.906C58.2144 228.25 43.1616 196.198 38.4512 186.163C37.4272 184.013 36.864 181.76 36.864 179.302C36.864 173.158 42.496 171.008 45.6704 171.008C49.5104 171.008 53.4528 173.926 53.4528 177.562C53.4528 179.866 52.1728 181.299 50.3808 181.299C46.0288 181.299 46.2848 177.613 47.1552 175.258C44.4416 176.486 42.9056 178.637 43.3152 180.89C41.6351 181.172 40.1104 182.043 39.0144 183.347C40.0384 184.678 41.3696 185.702 43.3152 185.754C42.4448 189.286 44.8512 190.771 47.1552 191.59C46.4384 189.03 45.9264 186.01 50.3808 186.01C53.6064 186.01 56.1152 185.498 57.6 183.347L57.9584 197.171C58.1632 201.318 52.4288 201.267 48.7424 199.987C50.1248 204.749 52.9408 207.36 59.4944 206.694C58.4903 207.08 57.6334 207.773 57.0452 208.674C56.457 209.574 56.1674 210.637 56.2176 211.712C56.2176 215.603 59.392 219.904 61.44 221.184L62.464 180.736V180.685Z" fill="#FFEC2D"/>
<path d="M61.4399 37.376C61.4399 37.376 66.3551 33.1776 68.0447 35.2768C70.7071 38.6048 59.7503 55.2448 59.7503 61.0816C59.7503 70.7072 66.2015 73.3184 74.0863 74.6496C79.4111 75.5712 88.0639 74.2912 88.0639 74.2912C86.4255 72.0896 85.3503 71.424 82.6367 71.2704C85.7087 69.7344 88.7807 66.2528 88.7807 60.8768C88.7807 52.6336 85.4015 49.2032 85.4015 39.8848C85.4015 34.816 89.5999 28.16 89.5999 28.16C82.1247 28.928 78.4383 35.84 80.5375 41.3696C79.9612 41.4842 79.3657 41.4555 78.8032 41.2858C78.2407 41.1162 77.7286 40.8109 77.3119 40.3968C76.7999 41.9328 77.6191 43.7248 78.7967 45.2608C77.8751 45.7728 77.1583 45.4656 75.7247 45.1584C75.8271 46.6944 76.7487 48.4352 79.1039 50.0224C72.3455 48.2816 68.2495 52.9408 68.2495 57.856C68.2495 61.5936 70.8095 64.256 73.3695 64.256C74.1887 64.256 75.4175 63.8976 76.0831 63.3856C76.5951 64.4096 76.2879 65.792 75.8271 66.816C77.6703 66.304 78.8991 65.1776 78.0287 62.8736C79.4623 62.7712 80.5887 62.2592 81.3567 61.3376C80.5887 60.3136 79.4111 59.8016 78.0287 59.8016C79.0527 57.6512 77.8751 56.4736 76.1855 55.5008C76.1855 55.5008 77.2607 59.8016 74.5471 59.8016C73.3183 59.8016 72.1919 59.4432 72.1919 57.6C72.1919 56.0128 73.5743 53.8112 76.7999 53.9648C79.9743 54.1184 82.5855 56.1664 82.5855 61.2864C82.5855 65.9968 78.7455 68.352 73.7279 68.4544C69.2223 68.6592 65.7919 66.2016 65.7919 61.5424C65.7919 55.296 74.7519 41.1648 74.7519 35.6352C74.7519 31.488 71.0655 29.1328 67.3791 29.1328C62.6687 29.1328 58.6751 33.8432 58.6751 33.8432L61.4399 37.3248V37.376Z" fill="#FFEC2D"/>
<path d="M60.4159 149.555C60.4159 159.949 69.7343 165.274 77.0559 165.274C86.8863 165.274 92.1599 159.386 92.1599 151.654C92.1599 147.302 91.3407 144.538 89.3439 140.39L66.7135 93.44C65.8937 91.4651 65.5431 89.3269 65.6895 87.1936C65.6895 82.9952 69.7855 79.5648 74.0351 79.5136C77.9263 79.36 82.2271 83.0976 82.2271 87.3472C82.2271 92.5184 79.5135 94.8224 76.7487 94.8224C73.3695 94.8224 72.0383 93.44 72.0383 91.0336C72.0383 89.3952 72.8063 88.6784 73.9839 88.6784C76.9023 88.6784 76.0319 92.5696 76.0319 92.5696C76.4173 92.4983 76.7821 92.3428 77.1005 92.1143C77.4188 91.8857 77.6828 91.5897 77.8735 91.2474C78.0643 90.905 78.1771 90.5248 78.2039 90.1338C78.2307 89.7428 78.1709 89.3508 78.0287 88.9856C79.1246 88.7398 80.1122 88.1473 80.8447 87.296C80.0767 86.528 79.1551 85.9648 78.0287 85.76C78.6943 83.5072 77.7727 82.432 75.8271 81.92C76.1772 82.6896 76.267 83.5523 76.0831 84.3776C73.0111 83.456 68.2495 84.8896 68.2495 90.2144C68.2495 95.5392 71.9359 99.9936 78.8479 98.9184C77.2095 99.6864 76.3903 101.274 76.1855 103.066C77.4655 102.554 78.8479 102.554 78.8479 102.554C78.0287 103.936 76.9023 105.114 76.9535 107.981C78.2335 107.366 79.4623 106.291 81.0495 106.957C78.4895 112.077 81.6639 119.04 89.7535 120.678C86.7839 117.197 85.3503 113.51 85.3503 109.773C85.3503 97.7408 88.6783 95.744 88.6783 87.3472C88.6256 85.3998 88.1107 83.4928 87.1759 81.7836C86.2412 80.0744 84.9135 78.6119 83.3023 77.5168V77.6704C84.2931 77.4669 85.2296 77.056 86.0503 76.4648C86.8709 75.8736 87.5572 75.1153 88.0639 74.24C82.3603 72.668 76.3309 72.7212 70.6559 74.3936C68.7577 74.6621 66.9441 75.3537 65.3489 76.4171C63.7538 77.4805 62.4179 78.8887 61.4399 80.5376C60.4177 82.8701 59.8899 85.3892 59.8899 87.936C59.8899 90.4827 60.4177 93.0018 61.4399 95.3344C64.6655 101.99 79.7183 134.042 84.4287 144.077C85.4527 146.227 86.0159 148.48 86.0159 150.938C86.0159 157.082 80.3839 159.232 77.2095 159.232C73.3695 159.232 69.4271 156.314 69.4271 152.678C69.4271 150.374 70.7071 148.941 72.4991 148.941C76.8511 148.941 76.5951 152.627 75.7247 154.982C78.4383 153.754 79.9743 151.603 79.5647 149.35C81.2448 149.068 82.7695 148.197 83.8655 146.893C82.8415 145.562 81.5103 144.538 79.5647 144.486C80.4351 140.954 78.0287 139.469 75.7247 138.65C76.4415 141.21 76.9535 144.23 72.4991 144.23C69.2735 144.23 66.7647 144.742 65.2799 146.893L64.9215 133.069C64.7167 128.922 70.4511 128.973 74.1375 130.253C72.7551 125.491 69.9391 122.88 63.3855 123.546C64.3896 123.159 65.2465 122.467 65.8347 121.566C66.4229 120.666 66.7125 119.603 66.6623 118.528C66.6623 114.637 63.4879 110.336 61.4399 109.056L60.4159 149.504V149.555Z" fill="#FFEC2D"/>
<path d="M60.4159 180.685C60.4159 170.291 69.7343 164.966 77.0559 164.966C86.8863 164.966 92.1599 170.854 92.1599 178.586C92.1599 182.938 91.3407 185.702 89.3439 189.85L66.7135 236.8C65.8937 238.775 65.5431 240.913 65.6895 243.046C65.6895 247.245 69.7855 250.675 74.0351 250.726C77.9263 250.88 82.2271 247.142 82.2271 242.893C82.2271 237.722 79.5135 235.418 76.7487 235.418C73.3695 235.418 72.0383 236.8 72.0383 239.206C72.0383 240.845 72.8063 241.562 73.9839 241.562C76.9023 241.562 76.0319 237.67 76.0319 237.67C76.4173 237.742 76.7821 237.897 77.1005 238.126C77.4188 238.354 77.6828 238.65 77.8735 238.993C78.0643 239.335 78.1771 239.715 78.2039 240.106C78.2307 240.497 78.1709 240.889 78.0287 241.254C79.1246 241.5 80.1122 242.093 80.8447 242.944C80.0767 243.712 79.1551 244.275 78.0287 244.48C78.6943 246.733 77.7727 247.808 75.8271 248.32C76.1772 247.55 76.267 246.688 76.0831 245.862C73.0111 246.784 68.2495 245.35 68.2495 240.026C68.2495 234.701 71.9359 230.246 78.8479 231.322C77.2095 230.554 76.3903 228.966 76.1855 227.174C77.4655 227.686 78.8479 227.686 78.8479 227.686C78.0287 226.304 76.9023 225.126 76.9535 222.259C78.2335 222.874 79.4623 223.949 81.0495 223.283C78.4895 218.163 81.6639 211.2 89.7535 209.562C86.7839 213.043 85.3503 216.73 85.3503 220.467C85.3503 232.499 88.6783 234.496 88.6783 242.893C88.6256 244.84 88.1107 246.747 87.1759 248.456C86.2412 250.166 84.9135 251.628 83.3023 252.723V252.57C84.2931 252.773 85.2296 253.184 86.0503 253.775C86.8709 254.366 87.5572 255.125 88.0639 256C82.3603 257.572 76.3309 257.519 70.6559 255.846C68.7577 255.578 66.9441 254.886 65.3489 253.823C63.7538 252.759 62.4179 251.351 61.4399 249.702C60.4177 247.37 59.8899 244.851 59.8899 242.304C59.8899 239.757 60.4177 237.238 61.4399 234.906C64.6655 228.25 79.7183 196.198 84.4287 186.163C85.4527 184.013 86.0159 181.76 86.0159 179.302C86.0159 173.158 80.3839 171.008 77.2095 171.008C73.3695 171.008 69.4271 173.926 69.4271 177.562C69.4271 179.866 70.7071 181.299 72.4991 181.299C76.8511 181.299 76.5951 177.613 75.7247 175.258C78.4383 176.486 79.9743 178.637 79.5647 180.89C81.2448 181.172 82.7695 182.043 83.8655 183.347C82.8415 184.678 81.5103 185.702 79.5647 185.754C80.4351 189.286 78.0287 190.771 75.7247 191.59C76.4415 189.03 76.9535 186.01 72.4991 186.01C69.2735 186.01 66.7647 185.498 65.2799 183.347L64.9215 197.171C64.7167 201.318 70.4511 201.267 74.1375 199.987C72.7551 204.749 69.9391 207.36 63.3855 206.694C64.3896 207.08 65.2465 207.773 65.8347 208.674C66.4229 209.574 66.7125 210.637 66.6623 211.712C66.6623 215.603 63.4879 219.904 61.4399 221.184L60.4159 180.736V180.685Z" fill="#FFEC2D"/>
<path d="M61.44 474.624C61.44 474.624 56.5248 478.822 54.8352 476.723C52.1728 473.395 63.1296 456.755 63.1296 450.918C63.1296 441.293 56.6784 438.682 48.7936 437.35C43.4688 436.429 34.816 437.709 34.816 437.709C36.4544 439.91 37.5296 440.576 40.2432 440.73C37.1712 442.266 34.0992 445.747 34.0992 451.123C34.0992 459.366 37.4784 462.797 37.4784 472.115C37.4784 477.184 33.28 483.84 33.28 483.84C40.7552 483.072 44.4416 476.16 42.3424 470.63C42.9186 470.516 43.5142 470.544 44.0767 470.714C44.6391 470.884 45.1513 471.189 45.568 471.603C46.08 470.067 45.2608 468.275 44.0832 466.739C45.0048 466.227 45.7216 466.534 47.1552 466.842C47.0528 465.306 46.1312 463.565 43.776 461.978C50.5344 463.718 54.6304 459.059 54.6304 454.144C54.6304 450.406 52.0704 447.744 49.5104 447.744C48.6912 447.744 47.4624 448.102 46.7968 448.614C46.2848 447.59 46.592 446.208 47.0528 445.184C45.2096 445.696 43.9808 446.822 44.8512 449.126C43.4176 449.229 42.2912 449.741 41.5232 450.662C42.2912 451.686 43.4688 452.198 44.8512 452.198C43.8272 454.349 45.0048 455.526 46.6944 456.499C46.6944 456.499 45.6192 452.198 48.3328 452.198C49.5616 452.198 50.688 452.557 50.688 454.4C50.688 455.987 49.3056 458.189 46.08 458.035C42.9056 457.882 40.2944 455.834 40.2944 450.714C40.2944 446.003 44.1344 443.648 49.152 443.546C53.6576 443.341 57.088 445.798 57.088 450.458C57.088 456.704 48.128 470.835 48.128 476.365C48.128 480.512 51.8144 482.867 55.5008 482.867C60.2112 482.867 64.2048 478.157 64.2048 478.157L61.44 474.675V474.624Z" fill="#FFEC2D"/>
<path d="M62.464 362.445C62.464 352.051 53.1456 346.726 45.824 346.726C35.9936 346.726 30.72 352.614 30.72 360.346C30.72 364.698 31.5392 367.462 33.536 371.61L56.1664 418.56C56.9862 420.535 57.3367 422.673 57.1904 424.806C57.1904 429.005 53.0944 432.435 48.8448 432.486C44.9536 432.64 40.6528 428.902 40.6528 424.653C40.6528 419.482 43.3664 417.178 46.1312 417.178C49.5104 417.178 50.8416 418.56 50.8416 420.966C50.8416 422.605 50.0736 423.322 48.896 423.322C45.9776 423.322 46.848 419.43 46.848 419.43C46.4626 419.502 46.0977 419.657 45.7794 419.886C45.4611 420.114 45.1971 420.41 45.0064 420.753C44.8156 421.095 44.7028 421.475 44.676 421.866C44.6492 422.257 44.709 422.649 44.8512 423.014C43.7552 423.26 42.7677 423.853 42.0352 424.704C42.8032 425.472 43.7248 426.035 44.8512 426.24C44.1856 428.493 45.1072 429.568 47.0528 430.08C46.7027 429.31 46.6128 428.448 46.7968 427.622C49.8688 428.544 54.6304 427.11 54.6304 421.786C54.6304 416.461 50.944 412.006 44.032 413.082C45.6704 412.314 46.4896 410.726 46.6944 408.934C45.4144 409.446 44.032 409.446 44.032 409.446C44.8512 408.064 45.9776 406.886 45.9264 404.019C44.6464 404.634 43.4176 405.709 41.8304 405.043C44.3904 399.923 41.216 392.96 33.1264 391.322C36.096 394.803 37.5296 398.49 37.5296 402.227C37.5296 414.259 34.2016 416.256 34.2016 424.653C34.2543 426.6 34.7692 428.507 35.7039 430.216C36.6387 431.926 37.9664 433.388 39.5776 434.483V434.33C38.5868 434.533 37.6503 434.944 36.8296 435.535C36.0089 436.126 35.3227 436.885 34.816 437.76C40.5196 439.332 46.549 439.279 52.224 437.606C54.1222 437.338 55.9358 436.646 57.531 435.583C59.1261 434.519 60.462 433.111 61.44 431.462C62.4622 429.13 62.99 426.611 62.99 424.064C62.99 421.517 62.4622 418.998 61.44 416.666C58.2144 410.01 43.1616 377.958 38.4512 367.923C37.4272 365.773 36.864 363.52 36.864 361.062C36.864 354.918 42.496 352.768 45.6704 352.768C49.5104 352.768 53.4528 355.686 53.4528 359.322C53.4528 361.626 52.1728 363.059 50.3808 363.059C46.0288 363.059 46.2848 359.373 47.1552 357.018C44.4416 358.246 42.9056 360.397 43.3152 362.65C41.6351 362.932 40.1104 363.803 39.0144 365.107C40.0384 366.438 41.3696 367.462 43.3152 367.514C42.4448 371.046 44.8512 372.531 47.1552 373.35C46.4384 370.79 45.9264 367.77 50.3808 367.77C53.6064 367.77 56.1152 367.258 57.6 365.107L57.9584 378.931C58.1632 383.078 52.4288 383.027 48.7424 381.747C50.1248 386.509 52.9408 389.12 59.4944 388.454C58.4903 388.84 57.6334 389.533 57.0452 390.434C56.457 391.334 56.1674 392.397 56.2176 393.472C56.2176 397.363 59.392 401.664 61.44 402.944L62.464 362.496V362.445Z" fill="#FFEC2D"/>
<path d="M62.464 331.315C62.464 341.709 53.1456 347.034 45.824 347.034C35.9936 347.034 30.72 341.146 30.72 333.414C30.72 329.062 31.5392 326.298 33.536 322.15L56.1664 275.2C56.9862 273.225 57.3367 271.087 57.1904 268.954C57.1904 264.755 53.0944 261.325 48.8448 261.274C44.9536 261.12 40.6528 264.858 40.6528 269.107C40.6528 274.278 43.3664 276.582 46.1312 276.582C49.5104 276.582 50.8416 275.2 50.8416 272.794C50.8416 271.155 50.0736 270.438 48.896 270.438C45.9776 270.438 46.848 274.33 46.848 274.33C46.4626 274.258 46.0977 274.103 45.7794 273.874C45.4611 273.646 45.1971 273.35 45.0064 273.007C44.8156 272.665 44.7028 272.285 44.676 271.894C44.6492 271.503 44.709 271.111 44.8512 270.746C43.7552 270.5 42.7677 269.907 42.0352 269.056C42.8032 268.288 43.7248 267.725 44.8512 267.52C44.1856 265.267 45.1072 264.192 47.0528 263.68C46.7027 264.45 46.6128 265.312 46.7968 266.138C49.8688 265.216 54.6304 266.65 54.6304 271.974C54.6304 277.299 50.944 281.754 44.032 280.678C45.6704 281.446 46.4896 283.034 46.6944 284.826C45.4144 284.314 44.032 284.314 44.032 284.314C44.8512 285.696 45.9776 286.874 45.9264 289.741C44.6464 289.126 43.4176 288.051 41.8304 288.717C44.3904 293.837 41.216 300.8 33.1264 302.438C36.096 298.957 37.5296 295.27 37.5296 291.533C37.5296 279.501 34.2016 277.504 34.2016 269.107C34.2543 267.16 34.7692 265.253 35.7039 263.544C36.6387 261.834 37.9664 260.372 39.5776 259.277V259.43C38.5868 259.227 37.6503 258.816 36.8296 258.225C36.0089 257.634 35.3227 256.875 34.816 256C40.5196 254.428 46.549 254.481 52.224 256.154C54.1222 256.422 55.9358 257.114 57.531 258.177C59.1261 259.241 60.462 260.649 61.44 262.298C62.4622 264.63 62.99 267.149 62.99 269.696C62.99 272.243 62.4622 274.762 61.44 277.094C58.2144 283.75 43.1616 315.802 38.4512 325.837C37.4272 327.987 36.864 330.24 36.864 332.698C36.864 338.842 42.496 340.992 45.6704 340.992C49.5104 340.992 53.4528 338.074 53.4528 334.438C53.4528 332.134 52.1728 330.701 50.3808 330.701C46.0288 330.701 46.2848 334.387 47.1552 336.742C44.4416 335.514 42.9056 333.363 43.3152 331.11C41.6351 330.828 40.1104 329.957 39.0144 328.653C40.0384 327.322 41.3696 326.298 43.3152 326.246C42.4448 322.714 44.8512 321.229 47.1552 320.41C46.4384 322.97 45.9264 325.99 50.3808 325.99C53.6064 325.99 56.1152 326.502 57.6 328.653L57.9584 314.829C58.1632 310.682 52.4288 310.733 48.7424 312.013C50.1248 307.251 52.9408 304.64 59.4944 305.306C58.4903 304.919 57.6334 304.227 57.0452 303.326C56.457 302.426 56.1674 301.363 56.2176 300.288C56.2176 296.397 59.392 292.096 61.44 290.816L62.464 331.264V331.315Z" fill="#FFEC2D"/>
<path d="M61.4399 474.624C61.4399 474.624 66.3551 478.822 68.0447 476.723C70.7071 473.395 59.7503 456.755 59.7503 450.918C59.7503 441.293 66.2015 438.682 74.0863 437.35C79.4111 436.429 88.0639 437.709 88.0639 437.709C86.4255 439.91 85.3503 440.576 82.6367 440.73C85.7087 442.266 88.7807 445.747 88.7807 451.123C88.7807 459.366 85.4015 462.797 85.4015 472.115C85.4015 477.184 89.5999 483.84 89.5999 483.84C82.1247 483.072 78.4383 476.16 80.5375 470.63C79.9612 470.516 79.3657 470.544 78.8032 470.714C78.2407 470.884 77.7286 471.189 77.3119 471.603C76.7999 470.067 77.6191 468.275 78.7967 466.739C77.8751 466.227 77.1583 466.534 75.7247 466.842C75.8271 465.306 76.7487 463.565 79.1039 461.978C72.3455 463.718 68.2495 459.059 68.2495 454.144C68.2495 450.406 70.8095 447.744 73.3695 447.744C74.1887 447.744 75.4175 448.102 76.0831 448.614C76.5951 447.59 76.2879 446.208 75.8271 445.184C77.6703 445.696 78.8991 446.822 78.0287 449.126C79.4623 449.229 80.5887 449.741 81.3567 450.662C80.5887 451.686 79.4111 452.198 78.0287 452.198C79.0527 454.349 77.8751 455.526 76.1855 456.499C76.1855 456.499 77.2607 452.198 74.5471 452.198C73.3183 452.198 72.1919 452.557 72.1919 454.4C72.1919 455.987 73.5743 458.189 76.7999 458.035C79.9743 457.882 82.5855 455.834 82.5855 450.714C82.5855 446.003 78.7455 443.648 73.7279 443.546C69.2223 443.341 65.7919 445.798 65.7919 450.458C65.7919 456.704 74.7519 470.835 74.7519 476.365C74.7519 480.512 71.0655 482.867 67.3791 482.867C62.6687 482.867 58.6751 478.157 58.6751 478.157L61.4399 474.675V474.624Z" fill="#FFEC2D"/>
<path d="M60.4159 362.445C60.4159 352.051 69.7343 346.726 77.0559 346.726C86.8863 346.726 92.1599 352.614 92.1599 360.346C92.1599 364.698 91.3407 367.462 89.3439 371.61L66.7135 418.56C65.8937 420.535 65.5431 422.673 65.6895 424.806C65.6895 429.005 69.7855 432.435 74.0351 432.486C77.9263 432.64 82.2271 428.902 82.2271 424.653C82.2271 419.482 79.5135 417.178 76.7487 417.178C73.3695 417.178 72.0383 418.56 72.0383 420.966C72.0383 422.605 72.8063 423.322 73.9839 423.322C76.9023 423.322 76.0319 419.43 76.0319 419.43C76.4173 419.502 76.7821 419.657 77.1005 419.886C77.4188 420.114 77.6828 420.41 77.8735 420.753C78.0643 421.095 78.1771 421.475 78.2039 421.866C78.2307 422.257 78.1709 422.649 78.0287 423.014C79.1246 423.26 80.1122 423.853 80.8447 424.704C80.0767 425.472 79.1551 426.035 78.0287 426.24C78.6943 428.493 77.7727 429.568 75.8271 430.08C76.1772 429.31 76.267 428.448 76.0831 427.622C73.0111 428.544 68.2495 427.11 68.2495 421.786C68.2495 416.461 71.9359 412.006 78.8479 413.082C77.2095 412.314 76.3903 410.726 76.1855 408.934C77.4655 409.446 78.8479 409.446 78.8479 409.446C78.0287 408.064 76.9023 406.886 76.9535 404.019C78.2335 404.634 79.4623 405.709 81.0495 405.043C78.4895 399.923 81.6639 392.96 89.7535 391.322C86.7839 394.803 85.3503 398.49 85.3503 402.227C85.3503 414.259 88.6783 416.256 88.6783 424.653C88.6256 426.6 88.1107 428.507 87.1759 430.216C86.2412 431.926 84.9135 433.388 83.3023 434.483V434.33C84.2931 434.533 85.2296 434.944 86.0503 435.535C86.8709 436.126 87.5572 436.885 88.0639 437.76C82.3603 439.332 76.3309 439.279 70.6559 437.606C68.7577 437.338 66.9441 436.646 65.3489 435.583C63.7538 434.519 62.4179 433.111 61.4399 431.462C60.4177 429.13 59.8899 426.611 59.8899 424.064C59.8899 421.517 60.4177 418.998 61.4399 416.666C64.6655 410.01 79.7183 377.958 84.4287 367.923C85.4527 365.773 86.0159 363.52 86.0159 361.062C86.0159 354.918 80.3839 352.768 77.2095 352.768C73.3695 352.768 69.4271 355.686 69.4271 359.322C69.4271 361.626 70.7071 363.059 72.4991 363.059C76.8511 363.059 76.5951 359.373 75.7247 357.018C78.4383 358.246 79.9743 360.397 79.5647 362.65C81.2448 362.932 82.7695 363.803 83.8655 365.107C82.8415 366.438 81.5103 367.462 79.5647 367.514C80.4351 371.046 78.0287 372.531 75.7247 373.35C76.4415 370.79 76.9535 367.77 72.4991 367.77C69.2735 367.77 66.7647 367.258 65.2799 365.107L64.9215 378.931C64.7167 383.078 70.4511 383.027 74.1375 381.747C72.7551 386.509 69.9391 389.12 63.3855 388.454C64.3896 388.84 65.2465 389.533 65.8347 390.434C66.4229 391.334 66.7125 392.397 66.6623 393.472C66.6623 397.363 63.4879 401.664 61.4399 402.944L60.4159 362.496V362.445Z" fill="#FFEC2D"/>
<path d="M60.4159 331.315C60.4159 341.709 69.7343 347.034 77.0559 347.034C86.8863 347.034 92.1599 341.146 92.1599 333.414C92.1599 329.062 91.3407 326.298 89.3439 322.15L66.7135 275.2C65.8937 273.225 65.5431 271.087 65.6895 268.954C65.6895 264.755 69.7855 261.325 74.0351 261.274C77.9263 261.12 82.2271 264.858 82.2271 269.107C82.2271 274.278 79.5135 276.582 76.7487 276.582C73.3695 276.582 72.0383 275.2 72.0383 272.794C72.0383 271.155 72.8063 270.438 73.9839 270.438C76.9023 270.438 76.0319 274.33 76.0319 274.33C76.4173 274.258 76.7821 274.103 77.1005 273.874C77.4188 273.646 77.6828 273.35 77.8735 273.007C78.0643 272.665 78.1771 272.285 78.2039 271.894C78.2307 271.503 78.1709 271.111 78.0287 270.746C79.1246 270.5 80.1122 269.907 80.8447 269.056C80.0767 268.288 79.1551 267.725 78.0287 267.52C78.6943 265.267 77.7727 264.192 75.8271 263.68C76.1772 264.45 76.267 265.312 76.0831 266.138C73.0111 265.216 68.2495 266.65 68.2495 271.974C68.2495 277.299 71.9359 281.754 78.8479 280.678C77.2095 281.446 76.3903 283.034 76.1855 284.826C77.4655 284.314 78.8479 284.314 78.8479 284.314C78.0287 285.696 76.9023 286.874 76.9535 289.741C78.2335 289.126 79.4623 288.051 81.0495 288.717C78.4895 293.837 81.6639 300.8 89.7535 302.438C86.7839 298.957 85.3503 295.27 85.3503 291.533C85.3503 279.501 88.6783 277.504 88.6783 269.107C88.6256 267.16 88.1107 265.253 87.1759 263.544C86.2412 261.834 84.9135 260.372 83.3023 259.277V259.43C84.2931 259.227 85.2296 258.816 86.0503 258.225C86.8709 257.634 87.5572 256.875 88.0639 256C82.3603 254.428 76.3309 254.481 70.6559 256.154C68.7577 256.422 66.9441 257.114 65.3489 258.177C63.7538 259.241 62.4179 260.649 61.4399 262.298C60.4177 264.63 59.8899 267.149 59.8899 269.696C59.8899 272.243 60.4177 274.762 61.4399 277.094C64.6655 283.75 79.7183 315.802 84.4287 325.837C85.4527 327.987 86.0159 330.24 86.0159 332.698C86.0159 338.842 80.3839 340.992 77.2095 340.992C73.3695 340.992 69.4271 338.074 69.4271 334.438C69.4271 332.134 70.7071 330.701 72.4991 330.701C76.8511 330.701 76.5951 334.387 75.7247 336.742C78.4383 335.514 79.9743 333.363 79.5647 331.11C81.2448 330.828 82.7695 329.957 83.8655 328.653C82.8415 327.322 81.5103 326.298 79.5647 326.246C80.4351 322.714 78.0287 321.229 75.7247 320.41C76.4415 322.97 76.9535 325.99 72.4991 325.99C69.2735 325.99 66.7647 326.502 65.2799 328.653L64.9215 314.829C64.7167 310.682 70.4511 310.733 74.1375 312.013C72.7551 307.251 69.9391 304.64 63.3855 305.306C64.3896 304.919 65.2465 304.227 65.8347 303.326C66.4229 302.426 66.7125 301.363 66.6623 300.288C66.6623 296.397 63.4879 292.096 61.4399 290.816L60.4159 331.264V331.315Z" fill="#FFEC2D"/>
</g>
<defs>
<clipPath id="clip0_2_5840">
<rect width="512" height="512" fill="white"/>
</clipPath>
</defs>
</svg>
