<svg width="512" height="512" viewBox="0 0 512 512" fill="none" xmlns="http://www.w3.org/2000/svg">
<g clip-path="url(#clip0_2_5934)">
<path d="M0 0H512.1V256H0V0Z" fill="#002B7F"/>
<path d="M0 256H512.1V512H0V256Z" fill="#CE1126"/>
<path d="M130.661 104.362L129.039 157.695H74.9382C68.2822 144.725 62.8209 133.802 62.8209 118.869C62.8209 106.41 72.6342 96.5117 86.7141 96.5117C101.647 96.5117 118.117 101.546 130.661 104.362Z" fill="#FFD83D"/>
<path d="M69.3062 106.837V137.557ZM73.5729 103.68V144.639ZM78.0102 101.546V150.357ZM82.2768 100.522V138.837ZM86.6288 100.352V139.008ZM90.9808 98.901V139.008ZM95.3328 98.901V139.008ZM99.6848 99.3277V139.434ZM104.037 99.7543V139.776ZM108.389 102.229V142.336ZM112.655 102.656V147.797ZM117.093 102.656V142.762ZM121.359 102.656V142.762Z" fill="#FFD83D"/>
<path d="M69.3062 106.837V137.557M73.5729 103.68V144.639M78.0102 101.546V150.357M82.2768 100.522V138.837M86.6288 100.352V139.008M90.9808 98.901V139.008M95.3328 98.901V139.008M99.6848 99.3277V139.434M104.037 99.7543V139.776M108.389 102.229V142.336M112.655 102.656V147.797M117.093 102.656V142.762M121.359 102.656V142.762" stroke="black" stroke-width="1.27999" stroke-linecap="round" stroke-linejoin="round"/>
<path d="M96.5274 100.693C105.743 102.144 125.882 111.616 123.578 124.33C120.335 142.421 109.754 135.168 95.7594 132.608L85.1782 136.106C81.3382 139.946 75.7915 143.53 72.0369 138.837H65.7222V163.413H135.183V104.106L96.5274 100.693Z" fill="#000001" stroke="black" stroke-width="1.27999" stroke-linecap="round" stroke-linejoin="round"/>
<path d="M127.589 100.608C129.898 100.608 131.77 98.7356 131.77 96.4263C131.77 94.117 129.898 92.245 127.589 92.245C125.279 92.245 123.407 94.117 123.407 96.4263C123.407 98.7356 125.279 100.608 127.589 100.608Z" fill="#FFD83D" stroke="black" stroke-width="1.70666" stroke-linecap="round" stroke-linejoin="round"/>
<path d="M118.117 98.3037C120.426 98.3037 122.298 96.4316 122.298 94.1224C122.298 91.8131 120.426 89.941 118.117 89.941C115.807 89.941 113.935 91.8131 113.935 94.1224C113.935 96.4316 115.807 98.3037 118.117 98.3037Z" fill="#FFD83D" stroke="black" stroke-width="1.70666" stroke-linecap="round" stroke-linejoin="round"/>
<path d="M108.474 95.9143C110.783 95.9143 112.655 94.0423 112.655 91.733C112.655 89.4237 110.783 87.5517 108.474 87.5517C106.165 87.5517 104.293 89.4237 104.293 91.733C104.293 94.0423 106.165 95.9143 108.474 95.9143Z" fill="#FFD83D" stroke="black" stroke-width="1.70666" stroke-linecap="round" stroke-linejoin="round"/>
<path d="M98.8314 94.293C101.141 94.293 103.013 92.421 103.013 90.1117C103.013 87.8024 101.141 85.9304 98.8314 85.9304C96.5221 85.9304 94.6501 87.8024 94.6501 90.1117C94.6501 92.421 96.5221 94.293 98.8314 94.293Z" fill="#FFD83D" stroke="black" stroke-width="1.70666" stroke-linecap="round" stroke-linejoin="round"/>
<path d="M89.1888 93.3543C91.498 93.3543 93.3701 91.4823 93.3701 89.173C93.3701 86.8637 91.498 84.9917 89.1888 84.9917C86.8795 84.9917 85.0074 86.8637 85.0074 89.173C85.0074 91.4823 86.8795 93.3543 89.1888 93.3543Z" fill="#FFD83D" stroke="black" stroke-width="1.70666" stroke-linecap="round" stroke-linejoin="round"/>
<path d="M79.8022 93.8663C82.1115 93.8663 83.9835 91.9943 83.9835 89.685C83.9835 87.3757 82.1115 85.5037 79.8022 85.5037C77.4929 85.5037 75.6208 87.3757 75.6208 89.685C75.6208 91.9943 77.4929 93.8663 79.8022 93.8663Z" fill="#FFD83D" stroke="black" stroke-width="1.70666" stroke-linecap="round" stroke-linejoin="round"/>
<path d="M70.7569 96.9383C73.0662 96.9383 74.9382 95.0663 74.9382 92.757C74.9382 90.4477 73.0662 88.5757 70.7569 88.5757C68.4476 88.5757 66.5756 90.4477 66.5756 92.757C66.5756 95.0663 68.4476 96.9383 70.7569 96.9383Z" fill="#FFD83D" stroke="black" stroke-width="1.70666" stroke-linecap="round" stroke-linejoin="round"/>
<path d="M63.1622 102.57C65.4715 102.57 67.3435 100.698 67.3435 98.389C67.3435 96.0797 65.4715 94.2076 63.1622 94.2076C60.8529 94.2076 58.9809 96.0797 58.9809 98.389C58.9809 100.698 60.8529 102.57 63.1622 102.57Z" fill="#FFD83D" stroke="black" stroke-width="1.70666" stroke-linecap="round" stroke-linejoin="round"/>
<path d="M57.7862 110.336C60.0955 110.336 61.9675 108.464 61.9675 106.154C61.9675 103.845 60.0955 101.973 57.7862 101.973C55.477 101.973 53.6049 103.845 53.6049 106.154C53.6049 108.464 55.477 110.336 57.7862 110.336Z" fill="#FFD83D" stroke="black" stroke-width="1.70666" stroke-linecap="round" stroke-linejoin="round"/>
<path d="M55.1409 119.552C57.4502 119.552 59.3222 117.68 59.3222 115.37C59.3222 113.061 57.4502 111.189 55.1409 111.189C52.8316 111.189 50.9596 113.061 50.9596 115.37C50.9596 117.68 52.8316 119.552 55.1409 119.552Z" fill="#FFD83D" stroke="black" stroke-width="1.70666" stroke-linecap="round" stroke-linejoin="round"/>
<path d="M55.2262 129.024C57.5355 129.024 59.4076 127.151 59.4076 124.842C59.4076 122.533 57.5355 120.661 55.2262 120.661C52.917 120.661 51.0449 122.533 51.0449 124.842C51.0449 127.151 52.917 129.024 55.2262 129.024Z" fill="#FFD83D" stroke="black" stroke-width="1.70666" stroke-linecap="round" stroke-linejoin="round"/>
<path d="M57.1036 138.325C59.4128 138.325 61.2849 136.453 61.2849 134.143C61.2849 131.834 59.4128 129.962 57.1036 129.962C54.7943 129.962 52.9222 131.834 52.9222 134.143C52.9222 136.453 54.7943 138.325 57.1036 138.325Z" fill="#FFD83D" stroke="black" stroke-width="1.70666" stroke-linecap="round" stroke-linejoin="round"/>
<path d="M129.466 101.973L129.039 107.52C118.543 105.813 103.695 100.01 89.7861 100.01C76.9861 100.01 67.0875 105.13 67.0875 118.101C67.0875 130.815 72.4635 142.421 79.6315 154.197L72.2075 157.61C65.5515 144.81 60.0049 133.717 60.0049 118.869C60.0049 106.41 69.8182 94.1223 86.7141 94.1223C101.647 94.1223 116.922 99.2423 129.466 101.973Z" fill="#FFD83D" stroke="black" stroke-width="1.70666" stroke-linecap="round" stroke-linejoin="round"/>
<path d="M140.218 104.362L141.839 157.695H195.94C202.596 144.725 208.058 133.802 208.058 118.869C208.058 106.41 198.244 96.5117 184.164 96.5117C169.231 96.5117 152.762 101.546 140.218 104.362Z" fill="#FFD83D"/>
<path d="M201.572 106.837V137.557ZM197.306 103.68V144.639ZM192.868 101.546V150.357ZM188.602 100.522V138.837ZM184.25 100.352V139.008ZM179.898 98.901V139.008ZM175.546 98.901V139.008ZM171.194 99.3277V139.434ZM166.842 99.7543V139.776ZM162.49 102.229V142.336ZM158.223 102.656V147.797ZM153.786 102.656V142.762ZM149.519 102.656V142.762Z" fill="#FFD83D"/>
<path d="M201.572 106.837V137.557M197.306 103.68V144.639M192.868 101.546V150.357M188.602 100.522V138.837M184.25 100.352V139.008M179.898 98.901V139.008M175.546 98.901V139.008M171.194 99.3277V139.434M166.842 99.7543V139.776M162.49 102.229V142.336M158.223 102.656V147.797M153.786 102.656V142.762M149.519 102.656V142.762" stroke="black" stroke-width="1.27999" stroke-linecap="round" stroke-linejoin="round"/>
<path d="M174.351 100.693C165.135 102.144 144.997 111.616 147.301 124.33C150.543 142.421 161.125 135.168 175.119 132.608L185.7 136.106C189.54 139.946 195.087 143.53 198.842 138.837H205.156V163.413H135.695V104.106L174.351 100.693Z" fill="#000001" stroke="black" stroke-width="1.27999" stroke-linecap="round" stroke-linejoin="round"/>
<path d="M143.29 100.608C140.981 100.608 139.109 98.7356 139.109 96.4263C139.109 94.117 140.981 92.245 143.29 92.245C145.599 92.245 147.471 94.117 147.471 96.4263C147.471 98.7356 145.599 100.608 143.29 100.608Z" fill="#FFD83D" stroke="black" stroke-width="1.70666" stroke-linecap="round" stroke-linejoin="round"/>
<path d="M152.762 98.3037C150.453 98.3037 148.581 96.4316 148.581 94.1224C148.581 91.8131 150.453 89.941 152.762 89.941C155.071 89.941 156.943 91.8131 156.943 94.1224C156.943 96.4316 155.071 98.3037 152.762 98.3037Z" fill="#FFD83D" stroke="black" stroke-width="1.70666" stroke-linecap="round" stroke-linejoin="round"/>
<path d="M162.405 95.9143C160.095 95.9143 158.223 94.0423 158.223 91.733C158.223 89.4237 160.095 87.5517 162.405 87.5517C164.714 87.5517 166.586 89.4237 166.586 91.733C166.586 94.0423 164.714 95.9143 162.405 95.9143Z" fill="#FFD83D" stroke="black" stroke-width="1.70666" stroke-linecap="round" stroke-linejoin="round"/>
<path d="M172.047 94.293C169.738 94.293 167.866 92.421 167.866 90.1117C167.866 87.8024 169.738 85.9304 172.047 85.9304C174.356 85.9304 176.228 87.8024 176.228 90.1117C176.228 92.421 174.356 94.293 172.047 94.293Z" fill="#FFD83D" stroke="black" stroke-width="1.70666" stroke-linecap="round" stroke-linejoin="round"/>
<path d="M181.69 93.3543C179.38 93.3543 177.508 91.4823 177.508 89.173C177.508 86.8637 179.38 84.9917 181.69 84.9917C183.999 84.9917 185.871 86.8637 185.871 89.173C185.871 91.4823 183.999 93.3543 181.69 93.3543Z" fill="#FFD83D" stroke="black" stroke-width="1.70666" stroke-linecap="round" stroke-linejoin="round"/>
<path d="M191.076 93.8663C188.767 93.8663 186.895 91.9943 186.895 89.685C186.895 87.3757 188.767 85.5037 191.076 85.5037C193.386 85.5037 195.258 87.3757 195.258 89.685C195.258 91.9943 193.386 93.8663 191.076 93.8663Z" fill="#FFD83D" stroke="black" stroke-width="1.70666" stroke-linecap="round" stroke-linejoin="round"/>
<path d="M200.122 96.9383C197.812 96.9383 195.94 95.0663 195.94 92.757C195.94 90.4477 197.812 88.5757 200.122 88.5757C202.431 88.5757 204.303 90.4477 204.303 92.757C204.303 95.0663 202.431 96.9383 200.122 96.9383Z" fill="#FFD83D" stroke="black" stroke-width="1.70666" stroke-linecap="round" stroke-linejoin="round"/>
<path d="M207.716 102.57C205.407 102.57 203.535 100.698 203.535 98.389C203.535 96.0797 205.407 94.2076 207.716 94.2076C210.026 94.2076 211.898 96.0797 211.898 98.389C211.898 100.698 210.026 102.57 207.716 102.57Z" fill="#FFD83D" stroke="black" stroke-width="1.70666" stroke-linecap="round" stroke-linejoin="round"/>
<path d="M213.092 110.336C210.783 110.336 208.911 108.464 208.911 106.154C208.911 103.845 210.783 101.973 213.092 101.973C215.402 101.973 217.274 103.845 217.274 106.154C217.274 108.464 215.402 110.336 213.092 110.336Z" fill="#FFD83D" stroke="black" stroke-width="1.70666" stroke-linecap="round" stroke-linejoin="round"/>
<path d="M215.738 119.552C213.428 119.552 211.556 117.68 211.556 115.37C211.556 113.061 213.428 111.189 215.738 111.189C218.047 111.189 219.919 113.061 219.919 115.37C219.919 117.68 218.047 119.552 215.738 119.552Z" fill="#FFD83D" stroke="black" stroke-width="1.70666" stroke-linecap="round" stroke-linejoin="round"/>
<path d="M215.652 129.024C213.343 129.024 211.471 127.151 211.471 124.842C211.471 122.533 213.343 120.661 215.652 120.661C217.962 120.661 219.834 122.533 219.834 124.842C219.834 127.151 217.962 129.024 215.652 129.024Z" fill="#FFD83D" stroke="black" stroke-width="1.70666" stroke-linecap="round" stroke-linejoin="round"/>
<path d="M213.775 138.325C211.466 138.325 209.594 136.453 209.594 134.143C209.594 131.834 211.466 129.962 213.775 129.962C216.084 129.962 217.956 131.834 217.956 134.143C217.956 136.453 216.084 138.325 213.775 138.325Z" fill="#FFD83D" stroke="black" stroke-width="1.70666" stroke-linecap="round" stroke-linejoin="round"/>
<path d="M141.413 101.973L141.839 107.52C152.335 105.813 167.183 100.01 181.092 100.01C193.892 100.01 203.791 105.13 203.791 118.101C203.791 130.815 198.415 142.421 191.247 154.197L198.671 157.61C205.327 144.81 210.874 133.717 210.874 118.869C210.874 106.41 201.06 94.1223 184.164 94.1223C169.231 94.1223 153.957 99.2423 141.413 101.973Z" fill="#FFD83D" stroke="black" stroke-width="1.70666" stroke-linecap="round" stroke-linejoin="round"/>
<path d="M135.439 45.3118L131.002 53.5891L135.439 61.7811L139.791 53.5891L135.439 45.2265V45.3118ZM135.439 66.1331L131.002 74.3251L135.439 82.6024L139.706 74.2397L135.439 66.1331ZM119.738 63.9998L126.65 68.3517L133.562 63.9998L126.735 59.5624L119.738 63.9998ZM137.231 63.9998L144.143 68.3517L151.141 63.9998L144.143 59.5624L137.231 63.9998Z" fill="#FFD83D" stroke="black" stroke-width="1.70666" stroke-linecap="round" stroke-linejoin="round"/>
<path d="M135.439 67.4131C137.277 67.4131 138.767 65.9231 138.767 64.0851C138.767 62.2471 137.277 60.7571 135.439 60.7571C133.601 60.7571 132.111 62.2471 132.111 64.0851C132.111 65.9231 133.601 67.4131 135.439 67.4131Z" fill="#FFD83D" stroke="black" stroke-width="1.70666" stroke-linecap="round" stroke-linejoin="round"/>
<path d="M135.439 94.293C140.388 94.293 144.399 90.2815 144.399 85.333C144.399 80.3846 140.388 76.373 135.439 76.373C130.491 76.373 126.479 80.3846 126.479 85.333C126.479 90.2815 130.491 94.293 135.439 94.293Z" fill="#FFD83D" stroke="black" stroke-width="1.70666" stroke-linecap="round" stroke-linejoin="round"/>
<path d="M133.135 76.7144V82.3463C131.019 82.4482 128.91 82.6762 126.821 83.029M144.058 83.029C141.94 82.672 139.803 82.444 137.658 82.3463V76.7144M126.735 87.5516C129.61 87.0537 132.522 86.7969 135.439 86.7836C138.341 86.7836 141.242 87.0396 143.973 87.5516" stroke="black" stroke-width="1.27999" stroke-linecap="round" stroke-linejoin="round"/>
<path d="M126.735 100.437C125.882 114.944 124.175 129.877 118.458 140.629L127.674 136.874C130.917 124.672 131.599 108.885 132.538 101.376L126.735 100.437ZM144.143 100.437L138.255 101.376C139.279 108.885 139.962 124.672 143.119 136.874L152.335 140.629C146.703 129.877 144.997 115.029 144.143 100.437Z" fill="#FFD83D" stroke="black" stroke-width="1.70666" stroke-linecap="round" stroke-linejoin="round"/>
<path d="M135.439 132.01C124.346 132.01 116.239 137.13 115.813 150.442C113.082 145.663 101.733 130.815 91.0661 132.778C84.7515 133.973 79.1195 142.762 80.1435 152.746C74.8528 137.727 59.5782 135.253 48.3143 144.213C58.2982 152.319 62.7356 176.469 71.0982 186.879H199.695C208.058 176.469 212.495 152.319 222.479 144.213C211.3 135.253 195.94 137.727 190.735 152.746C191.588 142.762 186.042 133.973 179.642 132.778C169.06 130.815 157.711 145.663 154.981 150.442C154.554 137.215 146.447 132.01 135.354 132.01H135.439Z" fill="#FFD83D" stroke="black" stroke-width="1.70666" stroke-linecap="round" stroke-linejoin="round"/>
<path d="M199.524 186.879C199.524 191.658 170.852 196.863 135.439 196.863C100.026 196.863 71.2689 191.743 71.2689 186.879C71.2689 182.186 100.026 179.626 135.439 179.626C170.767 179.626 199.524 182.186 199.524 186.879Z" fill="#000001" stroke="black" stroke-width="1.27999" stroke-linecap="round" stroke-linejoin="round"/>
<path d="M135.439 100.608C137.089 100.608 138.426 99.2705 138.426 97.621C138.426 95.9715 137.089 94.6343 135.439 94.6343C133.79 94.6343 132.453 95.9715 132.453 97.621C132.453 99.2705 133.79 100.608 135.439 100.608Z" fill="#FFD83D" stroke="black" stroke-width="1.27999" stroke-linecap="round" stroke-linejoin="round"/>
<path d="M135.439 107.264C137.183 107.264 138.597 105.85 138.597 104.106C138.597 102.363 137.183 100.949 135.439 100.949C133.695 100.949 132.282 102.363 132.282 104.106C132.282 105.85 133.695 107.264 135.439 107.264Z" fill="#FFD83D" stroke="black" stroke-width="1.27999" stroke-linecap="round" stroke-linejoin="round"/>
<path d="M135.439 114.602C137.372 114.602 138.938 113.036 138.938 111.104C138.938 109.171 137.372 107.605 135.439 107.605C133.507 107.605 131.941 109.171 131.941 111.104C131.941 113.036 133.507 114.602 135.439 114.602Z" fill="#FFD83D" stroke="black" stroke-width="1.27999" stroke-linecap="round" stroke-linejoin="round"/>
<path d="M135.439 122.88C137.654 122.88 139.45 121.084 139.45 118.869C139.45 116.654 137.654 114.858 135.439 114.858C133.224 114.858 131.429 116.654 131.429 118.869C131.429 121.084 133.224 122.88 135.439 122.88Z" fill="#FFD83D" stroke="black" stroke-width="1.27999" stroke-linecap="round" stroke-linejoin="round"/>
<path d="M135.439 131.84C137.843 131.84 139.791 129.891 139.791 127.488C139.791 125.084 137.843 123.136 135.439 123.136C133.036 123.136 131.087 125.084 131.087 127.488C131.087 129.891 133.036 131.84 135.439 131.84Z" fill="#FFD83D" stroke="black" stroke-width="1.27999" stroke-linecap="round" stroke-linejoin="round"/>
<path d="M133.733 135.85C133.221 135.85 132.794 136.277 132.879 137.045L133.391 140.714C133.562 141.994 134.245 141.567 134.501 140.714C134.671 139.69 134.586 139.007 134.671 137.215C134.671 136.277 134.159 135.85 133.647 135.85H133.733ZM137.146 135.85C136.634 135.85 136.207 136.277 136.207 137.215C136.207 139.007 136.207 139.69 136.378 140.629C136.549 141.653 137.231 141.994 137.487 140.629L137.914 137.045C138.085 136.191 137.573 135.85 137.146 135.85ZM130.575 136.362C130.349 136.362 130.132 136.452 129.972 136.612C129.812 136.772 129.722 136.989 129.722 137.215C129.722 138.069 129.978 139.178 130.063 140.458C130.234 141.738 131.173 141.311 131.258 140.458C131.258 139.775 131.429 138.581 131.258 137.13C131.258 136.618 131.087 136.362 130.746 136.277C130.689 136.27 130.632 136.27 130.575 136.277V136.362ZM140.047 136.362C139.791 136.362 139.535 136.618 139.45 137.215C139.404 138.299 139.461 139.385 139.621 140.458C139.621 141.311 140.645 141.738 140.73 140.458C140.73 139.178 141.071 138.154 141.071 137.301C141.071 136.789 140.645 136.447 140.218 136.362C140.161 136.355 140.104 136.355 140.047 136.362ZM126.906 137.813C126.479 137.898 126.053 138.41 126.223 138.922C126.479 140.031 126.735 141.226 126.735 142.335C126.735 143.274 127.503 142.933 127.589 142.335C127.655 141.199 127.684 140.061 127.674 138.922C127.674 138.069 127.247 137.727 126.821 137.813H126.906ZM143.631 137.813C143.375 137.898 143.119 138.239 143.119 138.922L143.29 142.335C143.29 142.933 144.143 143.274 144.143 142.335C144.143 141.226 144.314 140.031 144.57 138.922C144.741 138.41 144.314 137.898 143.973 137.813C143.889 137.791 143.801 137.791 143.717 137.813H143.631ZM93.2848 137.983C92.7728 137.983 92.4314 138.581 92.7728 139.263C93.2848 140.458 93.8821 141.141 94.3941 142.335C94.8208 143.445 95.5888 142.762 95.3328 141.994L94.1381 138.837C93.8821 138.239 93.5408 137.983 93.2848 137.983ZM177.594 137.983C177.252 137.983 176.996 138.239 176.74 138.837C175.972 140.458 175.716 141.226 175.46 141.994C175.29 142.847 175.972 143.445 176.484 142.335L178.02 139.263C178.362 138.581 178.02 137.983 177.594 137.983ZM96.6981 137.983C96.2714 138.154 96.1008 138.581 96.2714 139.093C96.7834 140.117 97.3807 141.226 97.8074 142.335C98.1487 143.274 99.0021 143.018 98.6607 142.165L97.8074 139.007C97.4661 138.154 96.9541 137.898 96.6981 137.983ZM173.924 137.983C173.583 138.069 173.242 138.41 173.071 139.007C172.474 140.714 172.388 141.226 172.132 142.165C171.791 143.018 172.644 143.274 172.986 142.335L174.522 139.093C174.692 138.581 174.522 138.154 174.18 137.983C174.096 137.962 174.008 137.962 173.924 137.983ZM100.965 138.837C100.453 138.922 100.111 139.605 100.453 140.458C100.794 141.482 101.306 142.421 101.818 143.615C102.33 144.81 103.098 144.554 102.927 143.786C102.671 143.018 102.501 141.823 101.903 139.946C101.647 139.093 101.306 138.751 100.965 138.837ZM169.914 138.837C169.572 138.837 169.146 139.093 168.89 139.946C168.378 141.823 168.036 143.018 167.951 143.786C167.695 144.639 168.548 144.81 168.975 143.615C169.487 142.421 169.999 141.482 170.34 140.458C170.682 139.605 170.34 138.922 169.914 138.837ZM90.3834 139.434C89.8714 139.434 89.5301 140.287 89.7861 140.885C90.2128 141.738 90.5541 142.079 90.9808 143.103C91.4928 144.127 92.0048 143.359 91.8341 142.677C91.5781 141.994 91.3221 141.226 91.1514 140.287C90.9808 139.605 90.6394 139.434 90.2981 139.434H90.3834ZM180.495 139.434C180.154 139.434 179.898 139.605 179.642 140.287L179.044 142.677C178.874 143.359 179.386 144.127 179.898 143.103C180.324 142.079 180.58 141.823 181.092 140.885C181.348 140.287 180.922 139.519 180.495 139.434ZM123.322 141.823C122.725 141.823 122.213 142.506 122.469 143.103C122.639 144.127 123.151 144.981 123.407 146.261C123.749 147.37 124.517 146.858 124.431 146.09C124.369 144.944 124.227 143.803 124.005 142.677C123.834 142.079 123.578 141.823 123.237 141.823H123.322ZM147.557 141.823C147.301 141.823 146.959 142.079 146.874 142.677C146.623 143.801 146.452 144.942 146.362 146.09C146.362 146.858 147.13 147.37 147.386 146.261L148.41 143.103C148.581 142.506 148.069 141.823 147.557 141.823ZM135.439 142.847C134.757 142.847 134.671 143.701 134.671 144.298C134.619 146.241 134.028 148.132 132.965 149.759C132.111 150.783 131.002 150.527 129.978 149.93C128.985 149.389 128.043 148.761 127.162 148.053C125.967 147.199 125.114 147.711 126.479 149.674C130.405 155.306 134.671 160.085 134.671 169.301C134.671 170.41 134.927 170.751 135.439 170.751C135.951 170.751 136.122 170.41 136.122 169.215C136.122 160.085 140.389 155.306 144.314 149.589C145.679 147.711 144.826 147.199 143.717 148.053C142.839 148.766 141.896 149.395 140.901 149.93C139.791 150.527 138.682 150.783 137.914 149.759C136.85 148.132 136.259 146.241 136.207 144.298C136.122 143.701 136.037 142.847 135.354 142.847H135.439ZM105.317 141.482C105.26 141.473 105.203 141.473 105.146 141.482C104.89 141.567 104.805 141.823 104.89 142.335L105.829 145.663C106.085 146.517 107.023 146.261 106.853 145.237L106.341 142.591C106.17 141.909 105.658 141.482 105.317 141.482ZM165.562 141.482C165.135 141.482 164.708 141.909 164.538 142.591C164.196 143.786 164.196 144.127 164.026 145.151C163.77 146.261 164.794 146.431 164.964 145.663L165.988 142.25C165.988 141.823 165.903 141.567 165.647 141.482C165.591 141.473 165.533 141.473 165.476 141.482H165.562ZM87.3968 141.823C86.8848 141.823 86.5435 142.506 87.0555 143.359C87.5675 144.383 88.5061 145.578 88.9328 146.346C89.3594 147.029 90.1274 146.517 89.6154 145.663C89.1035 144.81 88.9328 143.701 88.2501 142.421C88.1938 142.241 88.0795 142.085 87.9252 141.977C87.7708 141.869 87.585 141.815 87.3968 141.823ZM183.396 141.823C183.14 141.823 182.799 141.994 182.543 142.421C181.946 143.701 181.69 144.725 181.263 145.663C180.751 146.517 181.434 147.029 181.86 146.346C182.287 145.578 183.226 144.383 183.738 143.359C184.25 142.506 183.908 141.823 183.396 141.823ZM60.3462 144.639C59.8342 144.639 59.6636 145.663 60.1756 146.346C60.8382 147.185 61.5813 147.956 62.3942 148.65C63.0769 149.333 63.2475 148.479 62.9062 147.797L61.3702 145.493C60.9436 144.895 60.6022 144.639 60.3462 144.639ZM210.447 144.639C210.191 144.639 209.85 144.895 209.508 145.493L207.887 147.797C207.546 148.479 207.716 149.333 208.484 148.65C209.298 147.957 210.041 147.185 210.703 146.346C211.215 145.663 211.044 144.639 210.447 144.639ZM64.6982 145.493C64.1862 145.493 63.8449 145.834 64.2716 146.602L65.8929 149.845C66.3195 150.698 67.5995 150.954 67.0875 149.674L65.9782 146.431C65.7222 145.834 65.1249 145.578 64.6982 145.578V145.493ZM206.18 145.493C205.668 145.493 205.071 145.834 204.815 146.431L203.791 149.674C203.279 150.954 204.559 150.698 204.986 149.845C205.412 148.991 206.095 147.711 206.522 146.602C206.948 145.834 206.607 145.493 206.18 145.493ZM56.3356 145.834C55.6529 145.834 55.6529 146.431 56.2502 146.858C57.0182 147.455 57.9569 148.053 58.8102 148.821C59.9196 149.674 60.2609 148.821 59.6636 148.138C59.1516 147.455 58.6396 146.773 57.1889 146.005C56.8476 145.834 56.5916 145.834 56.3356 145.834ZM214.458 145.834C214.287 145.834 213.946 145.834 213.604 146.005C212.239 146.773 211.642 147.455 211.044 148.138C210.532 148.906 210.959 149.674 211.983 148.821C212.836 148.053 213.86 147.455 214.543 146.858C215.226 146.431 215.14 145.834 214.543 145.834H214.458ZM120.933 146.431C120.506 146.431 120.25 146.858 120.335 147.455L121.189 150.527C121.359 151.466 122.469 151.466 122.298 150.527C122.127 149.674 122.042 148.565 121.701 147.199C121.615 146.687 121.359 146.431 121.018 146.346C120.99 146.344 120.961 146.344 120.933 146.346V146.431ZM149.775 146.431C149.519 146.431 149.263 146.687 149.093 147.285C148.751 148.565 148.666 149.674 148.495 150.613C148.325 151.466 149.434 151.466 149.605 150.527L150.458 147.455C150.629 146.858 150.287 146.431 149.946 146.431C149.889 146.422 149.832 146.422 149.775 146.431ZM95.1621 144.725C94.9061 144.725 94.7354 145.322 94.9914 146.175C95.8965 148.635 96.3588 151.235 96.3568 153.855C96.1008 154.879 95.5034 154.965 94.7354 154.709C93.8983 154.296 93.0988 153.81 92.3461 153.258C91.6634 152.831 90.8954 153.343 91.9194 154.197C97.0394 158.463 100.709 163.327 102.159 169.215C102.33 170.41 103.098 170.581 102.927 169.215C101.733 161.791 101.477 155.647 103.269 151.893C103.951 150.442 103.269 149.077 102.245 151.381C101.477 152.917 100.367 153.514 99.4287 152.234C98.0945 150.152 96.9521 147.952 96.0154 145.663C95.8448 145.066 95.5888 144.81 95.3328 144.725C95.3045 144.72 95.2757 144.72 95.2474 144.725H95.1621ZM175.46 144.725C175.204 144.725 174.948 145.066 174.778 145.578C174.18 147.285 172.303 150.869 171.364 152.234C170.426 153.599 169.316 152.917 168.634 151.381C167.524 149.077 166.927 150.442 167.524 151.893C169.316 155.647 169.06 161.791 167.951 169.215C167.695 170.581 168.463 170.41 168.804 169.215C170.383 163.222 173.929 157.933 178.874 154.197C179.898 153.343 179.13 152.831 178.447 153.343C177.69 153.84 176.89 154.268 176.058 154.623C175.204 154.965 174.692 154.879 174.436 153.77C174.266 152.746 174.607 150.442 175.887 146.09C176.058 145.407 175.887 144.81 175.631 144.725C175.576 144.705 175.516 144.705 175.46 144.725ZM69.2209 146.773C68.7942 146.773 68.3675 147.114 68.6235 147.797C68.9649 148.991 69.6475 150.186 69.9035 150.869C70.1595 151.637 70.9275 151.295 70.7569 150.271L70.3302 147.626C70.3302 147.114 69.7329 146.773 69.2209 146.773ZM201.572 146.773C201.06 146.773 200.548 147.114 200.463 147.626L200.122 150.271C199.951 151.295 200.719 151.637 200.975 150.869C201.146 150.186 201.828 148.991 202.17 147.797C202.426 147.114 202.084 146.773 201.572 146.773ZM85.2635 145.322C84.7515 145.237 84.6661 146.602 85.0928 147.199L87.4821 149.845C88.1648 150.698 88.5915 149.93 88.1648 149.247L85.9461 146.005C85.6901 145.578 85.4341 145.322 85.2635 145.322ZM185.53 145.322C185.359 145.322 185.103 145.578 184.847 146.005L182.628 149.247C182.202 149.93 182.628 150.698 183.396 149.845L185.7 147.199C186.127 146.602 186.127 145.237 185.53 145.322ZM72.8902 148.735C72.5488 148.735 72.2928 148.906 72.4635 149.589C72.6342 150.613 72.8902 151.295 73.1462 152.234C73.4022 153.087 73.9995 153.002 73.9995 152.149L73.7435 149.418C73.7063 149.214 73.6024 149.027 73.4479 148.888C73.2935 148.749 73.0973 148.666 72.8902 148.65V148.735ZM197.903 148.735C197.703 148.731 197.509 148.798 197.353 148.922C197.197 149.047 197.09 149.222 197.05 149.418L196.794 152.149C196.794 153.002 197.476 153.173 197.647 152.234L198.415 149.674C198.586 148.906 198.244 148.65 197.903 148.65V148.735ZM84.0688 149.93C83.5568 149.93 83.1301 150.527 83.7275 151.295C84.6661 152.575 85.7755 153.429 86.2021 153.855C86.5435 154.367 87.4821 154.197 86.8848 153.258L84.9221 150.271C84.7515 149.93 84.4101 149.845 84.0688 149.93ZM186.468 149.93C186.298 149.93 186.042 150.015 185.956 150.271L183.908 153.258C183.311 154.197 184.25 154.367 184.676 153.941C185.018 153.429 186.127 152.575 187.151 151.295C187.748 150.442 187.236 149.93 186.724 149.93C186.668 149.924 186.61 149.924 186.554 149.93H186.468ZM66.4049 153.429C66.0635 153.429 65.8929 153.77 66.4049 154.538C67.7227 156.137 68.6829 157.999 69.2209 159.999C69.3062 161.194 68.7942 161.194 68.2822 161.194C66.6609 161.194 65.8929 159.999 64.5275 159.658C63.0769 159.402 62.8209 160.085 63.8449 160.853C68.736 163.946 72.9932 167.942 76.3888 172.629C77.2422 174.25 78.3515 174.762 77.7542 173.311C76.0962 169.984 75.3876 166.263 75.7062 162.559C76.1328 160.17 76.7302 158.634 76.6448 157.269C76.6448 155.989 75.7915 156.074 75.5355 157.269L74.6822 159.658C74.3408 160.085 73.1462 160.341 72.1222 158.89C70.6709 157.109 69.0724 155.454 67.3435 153.941C67.0875 153.685 66.7462 153.514 66.4902 153.429H66.4049ZM204.388 153.429C204.132 153.429 203.791 153.599 203.45 153.941C201.751 155.458 200.181 157.113 198.756 158.89C197.647 160.341 196.452 160.085 196.196 159.743C195.807 158.958 195.52 158.127 195.343 157.269C195.002 156.074 194.234 155.989 194.148 157.269C194.148 158.634 194.66 160.17 195.087 162.559C195.514 164.949 195.087 168.703 193.124 173.311C192.442 174.762 193.636 174.165 194.49 172.629C197.854 167.945 202.083 163.948 206.948 160.853C207.972 160.085 207.802 159.402 206.351 159.658C204.9 159.999 204.132 161.194 202.596 161.194C202.084 161.194 201.487 161.194 201.572 159.999C201.658 158.89 203.108 156.245 204.388 154.538C204.9 153.685 204.815 153.429 204.388 153.429Z" fill="#000001"/>
<path d="M74.0848 181.503L75.7915 186.709ZM77.4982 180.479L79.0341 185.77ZM81.2528 179.797L82.2768 185.258ZM84.6661 179.199L85.7755 184.575ZM89.0181 178.773L89.8714 184.234ZM93.7114 178.773L94.6501 184.149ZM98.3194 177.237L99.0021 182.698ZM102.586 177.493L103.269 182.954ZM106.767 176.981L107.45 182.442ZM110.863 176.469L111.29 182.015ZM115.386 176.469L115.727 182.015ZM119.482 176.213L119.738 181.759ZM123.919 175.957L124.175 181.418ZM129.039 175.786L129.295 181.333ZM196.708 181.503L195.002 186.709ZM193.295 180.479L191.844 185.77ZM189.626 179.797L188.602 185.258ZM186.212 179.199L185.103 184.575ZM181.69 178.773L180.836 184.234ZM177.082 178.773L176.143 184.234ZM172.559 177.237L171.876 182.698ZM168.207 177.493L167.524 182.954ZM164.111 176.981L163.343 182.442ZM159.93 176.469L159.503 182.015ZM155.407 176.469L155.066 182.015ZM151.397 176.213L151.141 181.759ZM146.874 175.957L146.703 181.418ZM141.754 175.786L141.583 181.333ZM135.439 175.359V181.503Z" fill="#FFD83D"/>
<path d="M74.0848 181.503L75.7915 186.709M77.4982 180.479L79.0341 185.77M81.2528 179.797L82.2768 185.258M84.6661 179.199L85.7755 184.575M89.0181 178.773L89.8714 184.234M93.7114 178.773L94.6501 184.149M98.3194 177.237L99.0021 182.698M102.586 177.493L103.269 182.954M106.767 176.981L107.45 182.442M110.863 176.469L111.29 182.015M115.386 176.469L115.727 182.015M119.482 176.213L119.738 181.759M123.919 175.957L124.175 181.418M129.039 175.786L129.295 181.333M196.708 181.503L195.002 186.709M193.295 180.479L191.844 185.77M189.626 179.797L188.602 185.258M186.212 179.199L185.103 184.575M181.69 178.773L180.836 184.234M177.082 178.773L176.143 184.234M172.559 177.237L171.876 182.698M168.207 177.493L167.524 182.954M164.111 176.981L163.343 182.442M159.93 176.469L159.503 182.015M155.407 176.469L155.066 182.015M151.397 176.213L151.141 181.759M146.874 175.957L146.703 181.418M141.754 175.786L141.583 181.333M135.439 175.359V181.503" stroke="black" stroke-width="1.27999" stroke-linecap="round" stroke-linejoin="round"/>
</g>
<defs>
<clipPath id="clip0_2_5934">
<rect width="512" height="512" fill="white"/>
</clipPath>
</defs>
</svg>
