<svg width="512" height="512" viewBox="0 0 512 512" fill="none" xmlns="http://www.w3.org/2000/svg">
<g clip-path="url(#clip0_2_5989)">
<path d="M0 0H512V512H0V0Z" fill="#FFB700"/>
<path d="M21.3 256L91.4001 21.3H161.5V490.7H91.5L21.3 256Z" fill="#FF5B00"/>
<path d="M21.3 21.3H91.4001V490.7H21.4L21.3 21.3Z" fill="#005641"/>
<path d="M182.7 21.3H490.7V490.7H182.7V21.3Z" fill="#8D2029"/>
<path d="M463.4 454.9C463.4 454.9 466.3 460.8 469.5 463.2C474.3 466.7 484 466.5 488.1 470.6C493.1 475.6 487.7 482 487.8 482.6L488.1 486C488.1 486 484.7 486 483.3 486.3C481.2 486.6 480.3 488.3 476.4 488.1C466.5 487.4 466.9 478.5 466.4 470.9C465.9 467.9 464.7 464.2 464.1 461.3C463.5 458.8 463.4 454.9 463.4 454.9Z" fill="#FFB700" stroke="black" stroke-width="0.9"/>
<path d="M212.9 454.9C212.9 454.9 210 460.8 206.8 463.2C202 466.7 192.3 466.5 188.2 470.6C183.2 475.6 188.6 482 188.5 482.6L188.2 486C188.2 486 191.6 486 193 486.3C195.1 486.6 196 488.3 199.9 488.1C209.8 487.4 209.4 478.5 209.9 470.9C210.4 467.9 211.6 464.2 212.2 461.3C212.8 458.8 212.9 454.9 212.9 454.9Z" fill="#FFB700" stroke="black" stroke-width="0.9"/>
<path d="M463.4 57.1C463.4 57.1 466.3 51.2 469.5 48.8C474.3 45.3 484 45.5 488.1 41.4C493.1 36.4 487.7 30 487.8 29.4L488.1 26C488.1 26 484.7 26 483.3 25.7C481.2 25.4 480.3 23.7 476.4 23.9C466.5 24.6 466.9 33.5 466.4 41.1C465.9 44.1 464.7 47.8 464.1 50.7C463.5 53.2 463.4 57.1 463.4 57.1Z" fill="#FFB700" stroke="black" stroke-width="0.9"/>
<path d="M212.8 57.1C212.8 57.1 209.9 51.2 206.7 48.8C201.9 45.3 192.2 45.5 188.1 41.4C183.1 36.4 188.5 30 188.4 29.4L188.1 26C188.1 26 191.5 26 192.9 25.7C195 25.4 195.9 23.7 199.8 23.9C209.7 24.6 209.3 33.5 209.8 41.1C210.3 44.1 211.5 47.8 212.1 50.7C212.7 53.2 212.8 57.1 212.8 57.1Z" fill="#FFB700" stroke="black" stroke-width="0.9"/>
<path d="M290.8 335.84L292.64 334.72L293.44 335.84C294.48 337.28 297.44 337.2 299.36 335.84L300.88 334.64L302.16 335.76C303.76 337.28 306.8 337.28 308.8 335.76C310.16 334.8 310.4 334.72 311.2 335.52C311.76 336 313.36 336.48 314.72 336.72C317.28 337.04 317.28 337.04 318.72 334.8C320 332.96 320.16 332.24 319.92 330.4C319.697 328.995 319.536 327.58 319.44 326.16C319.28 324.08 319.36 324.08 322.32 322.96C323.789 322.509 325.232 321.975 326.64 321.36C327.84 320.64 331.2 316.72 331.2 315.92C331.2 315.76 329.92 315.44 328.32 315.28C321.92 314.48 320.88 311.12 325.04 304.88C331.68 294.48 335.76 284.48 335.76 278.16C335.76 275.28 336 274.32 336.32 274.96C337.84 277.44 335.12 288.08 331.12 295.76L329.52 298.8L331.04 298.48C331.84 298.24 336.96 296.08 342.24 293.68C356.8 287.12 361.76 285.84 371.2 286.24C379.12 286.56 382.4 288.08 388 293.92C390.96 297.12 393.84 299.28 399.04 302.56C410.08 309.44 410.56 310.08 411.12 318.24C411.68 326.48 411.36 326.96 405.12 328.32C399.76 329.52 396.4 332 395.52 335.52C395.04 337.28 396.08 337.36 398.72 335.6L400.72 334.32L401.6 335.6C402.8 337.28 405.2 337.28 407.2 335.6L408.8 334.4L410.4 335.6C412.8 337.6 416 337.12 416.96 334.64C417.12 334.24 417.6 334.32 418.56 335.2C420.4 336.8 424.96 337.44 425.44 336.16C425.6 335.68 425.28 334.56 424.64 333.6C422 329.6 421.12 327.76 421.12 325.6C421.12 322.56 421.92 321.04 425.44 318.64C429.6 315.6 430.88 311.76 427.68 311.76C425.76 311.76 423.76 310 422.48 307.2C419.92 301.44 420.48 295.04 424.32 284.32C427.264 278.013 428.741 271.12 428.64 264.16C428.64 258.24 428.48 257.28 427.2 254C426.199 251.72 424.966 249.548 423.52 247.52L421.28 244.56L424.08 242.16C432.72 235.04 430.96 223.36 420.56 218.88C417.36 217.44 416.56 217.36 410.96 217.36C407.76 217.36 402.56 217.84 399.76 218.4C396.002 218.995 392.205 219.316 388.4 219.36C382.96 219.36 382 219.2 379.92 218.08C377.76 216.96 377.36 216.4 376.96 213.68C376.921 213.424 376.821 213.18 376.668 212.971C376.515 212.762 376.313 212.594 376.08 212.48C375.28 212.24 371.92 215.2 371.44 216.48C371.12 217.2 370.96 217.12 370.24 216.24C369.561 215.368 369.022 214.397 368.64 213.36C367.84 210.72 368.88 208.8 372 207.28L374.4 206.16L372.96 205.28C370.08 203.44 365.12 204.72 363.36 207.68C362.8 208.48 362.24 209.28 362.08 209.28C361.92 209.28 360.96 208.48 360 207.44C356.24 203.76 357.52 198.32 362.56 196.72C365.2 195.84 367.6 196.48 368.08 198.32C368.88 200.96 371.12 197.44 370.72 194.16C370.48 192 370.48 191.92 372 191.92C374.08 191.92 378.4 194.64 379.84 196.72C381.44 199.2 381.28 203.12 379.52 206L378.16 208.24L380 207.92C382.56 207.36 385.12 205.76 386.4 203.76C387.074 202.486 387.453 201.077 387.509 199.636C387.564 198.196 387.295 196.762 386.72 195.44C385.52 193.28 385.68 192.96 387.44 193.68C390.32 194.88 391.92 196.24 393.04 198.56C394.16 200.64 394.24 201.12 393.68 203.36C393.297 204.724 392.703 206.019 391.92 207.2C390.96 208.48 390.88 208.72 391.68 208.72C393.12 208.72 396 207.36 397.04 206.32C397.6 205.68 398.4 204.32 398.8 203.12L399.6 201.12L400.4 202.72C401.6 204.88 404 206.88 406.88 208.16C410 209.44 411.28 209.52 409.68 208.32C408.56 207.52 406.48 201.52 407.2 200.96C410.653 202.893 413.806 205.319 416.56 208.16C421.12 212.24 424 213.6 428.16 213.6C433.52 213.6 436.64 208.96 434.24 204.56C432.88 202 429.76 201.6 427.84 203.76C427.04 204.8 426.8 205.6 427.04 206.72C427.36 208 427.28 208.16 426.08 208.16C424.48 208.16 421.44 206.16 416 201.6C408.428 195.083 399.724 190.013 390.32 186.64C383.949 185.168 377.371 184.816 370.88 185.6C365.76 186.56 359.68 189.52 356.32 192.64C350.48 198.24 350.4 205.68 356.08 212.48L357.68 214.4L356.64 216.16C355.858 217.421 355.47 218.886 355.527 220.369C355.584 221.851 356.083 223.283 356.96 224.48C357.76 225.6 358.56 226.48 358.8 226.48C358.96 226.48 359.12 225.76 359.2 224.88C359.36 222.72 360.32 221.28 361.92 220.72C363.36 220.16 364.32 220.48 370.88 223.12C377.84 225.84 389.28 226 401.44 223.6C406.71 222.383 412.195 222.438 417.44 223.76C423.2 226.16 424.48 232.32 420.32 236.96C418.48 239.04 416.8 239.84 410.96 241.44C405.875 242.781 400.59 243.187 395.36 242.64C386.72 242.56 383.6 242.72 380.16 243.44C376.24 244.24 373.92 244.32 362.72 244.08L349.68 243.76L351.12 244.88C351.891 245.565 352.721 246.18 353.6 246.72C354.64 247.28 354.56 247.36 353.12 247.92C352.32 248.24 350.4 248.48 348.88 248.48H346.24L345.92 250.72C345.704 251.776 345.704 252.864 345.92 253.92C346.24 254.72 346.08 254.88 345.28 254.56C344.72 254.32 343.2 253.92 341.84 253.68C340.468 253.386 339.128 252.957 337.84 252.4C336.32 251.6 336.16 251.6 335.6 252.64C335.12 253.44 330.64 256.8 330 256.8C329.711 254.724 329.118 252.703 328.24 250.8C327.44 249.12 326.72 247.2 326.48 246.64C326.24 245.76 326.08 245.68 325.68 246.4C325.44 246.8 325.12 248 324.88 248.96C324.6 250.256 324.114 251.498 323.44 252.64L322.24 254.4L321.44 252.88C320.64 251.28 319.36 249.52 318.88 249.52C318.72 249.52 318.48 250 318.32 250.72C317.92 252 314.8 255.76 314 255.76C313.76 255.76 313.52 254.72 313.52 253.36C313.52 252.16 313.28 251.04 312.96 251.04C312.64 251.04 312.4 251.44 312.4 251.84C312.4 252.8 309.76 255.84 308.8 255.84C308.48 255.84 307.84 256.16 307.44 256.64C306.48 257.68 305.68 257.52 306.08 256.32C306.192 255.295 306.083 254.259 305.76 253.28L304.96 250.72C304.8 250.32 303.84 250.48 301.76 251.12C298.56 252.16 297.44 251.92 299.12 250.64C299.76 250.16 300.72 248.48 301.2 246.96C301.76 245.36 302.56 244 302.96 243.84C303.52 243.68 303.52 243.84 302.8 244.8C302.337 245.409 302.034 246.124 301.92 246.88C301.92 247.28 301.52 248.32 301.12 249.2C300.64 250 300.32 250.8 300.4 250.88C300.48 250.96 301.76 250.48 303.2 249.84L305.76 248.56V249.68C305.76 250.32 306.08 251.92 306.48 253.28L307.2 255.68L308.96 254.88C310.72 254.08 312.4 251.2 312.4 248.88C312.4 247.76 313.04 247.92 313.36 249.12C313.36 249.44 313.84 250.8 314.16 252.08L314.96 254.32L316.16 252.88C316.88 252.08 317.68 250.48 318 249.44C318.64 247.52 319.6 246.64 319.6 248.08C319.6 249.04 322.32 252.72 322.8 252.4C323.12 252.24 323.6 250.88 324 249.36C324.8 246.16 326 244.08 326.8 244.56C327.12 244.72 327.2 245.04 327.04 245.36C326.88 245.52 327.52 247.6 328.48 249.84C329.176 251.519 329.869 253.199 330.56 254.88C330.88 255.68 331.2 255.68 333.2 253.84C334.4 252.72 335.6 251.52 335.68 251.12C335.92 250.48 336.16 250.56 337.28 251.28C339.639 252.526 342.223 253.288 344.88 253.52C345.04 253.36 345.2 251.92 345.2 250.32L345.28 247.36L346.88 247.68C347.68 247.92 349.52 247.92 350.88 247.68L353.28 247.36L351.12 245.76C349.92 244.96 348.72 243.92 348.4 243.44C348.16 242.96 347.04 242.48 345.84 242.4C342.56 242.08 336.72 238.88 336.72 237.28C336.72 236.96 337.52 237.52 338.48 238.4C340.72 240.4 343.76 241.6 346.48 241.6H348.4L347.2 240C346.345 238.759 345.797 237.334 345.6 235.84C345.44 233.44 345.2 233.12 342.72 231.44C341.282 230.421 339.943 229.269 338.72 228L337.36 226.48L336.64 228.32C336.24 229.36 335.84 230.16 335.6 230.16C335.44 230.16 334.64 229.52 334 228.8C333.55 228.279 333.007 227.845 332.4 227.52C332.16 227.52 331.6 228.48 330.96 229.68L329.84 231.84L329.04 230.64C328.328 229.659 327.525 228.748 326.64 227.92C325.68 227.12 325.28 226.48 325.6 226.48C325.92 226.48 326.96 227.28 328 228.32L329.76 230.16L330.56 228.8C331.022 227.858 331.163 226.79 330.96 225.76C330.64 224.32 330.72 224.24 331.2 225.2C331.89 226.103 332.697 226.91 333.6 227.6L335.36 229.04L336.56 226.88C337.76 224.64 337.76 224.64 338.24 226C339.04 227.68 344.24 232 348.64 234.48C349.44 234.88 349.12 233.6 347.84 230.48C347.456 229.455 347.239 228.374 347.2 227.28C347.2 225.84 346.8 225.2 344.96 223.76C343.816 223.029 342.859 222.04 342.164 220.874C341.47 219.707 341.058 218.394 340.96 217.04C340.72 215.68 340.24 214.24 339.84 213.76C339.36 212.96 339.2 213.44 339.36 215.84C339.52 217.52 339.28 219.6 338.88 220.48L338.24 222.08L337.76 220.72C337.44 220 336.16 218.72 334.96 217.92C333.76 217.12 332.88 216.32 333.04 216.16C333.2 216 334.48 216.72 335.84 217.76C338 219.44 338.4 219.6 338.72 218.88C339.04 218.08 338.72 214.4 338.08 211.84C337.76 210.56 337.76 210.56 339.36 212.16C340.48 213.28 341.12 214.72 341.68 217.12C342.32 220.16 342.64 220.72 345.44 223.2C347.12 224.72 348.64 225.84 348.72 225.76C348.88 225.6 349.04 221.76 349.2 217.12C349.52 208.24 349.2 206.08 347.04 203.36L345.92 201.92L347.68 200.08C349.652 198.194 350.969 195.727 351.44 193.04L351.76 190.88L349.84 192.72C348.24 194.24 347.44 194.56 345.6 194.56C343.76 194.56 343.04 194.24 341.84 192.96C339.971 191.161 337.692 189.843 335.2 189.12C334.24 188.8 333.92 188.96 333.92 189.6C333.92 190.08 333.44 191.36 332.8 192.56L331.68 194.64L329.28 192.24C327.76 190.88 326.08 189.68 324.72 189.36C321.44 188.56 321.28 188.56 321.28 191.04C321.28 194.8 319.68 195.52 316.8 193.04C314.56 191.12 312.8 190.64 308.56 191.2L305.36 191.52L305.92 192.96C306.4 194.16 306.32 194.72 305.28 196.08C303.6 198.32 301.44 199.28 298.08 199.28C296.48 199.28 294.56 199.6 293.76 200C292.96 200.4 290.88 200.8 289.2 200.96C287.6 201.12 285.76 201.44 285.2 201.6C284.4 201.92 284.4 201.6 284.64 199.84C285.04 197.12 283.04 195.04 280.08 195.04C276.16 195.04 274.4 198.56 275.92 203.2C276.231 204.201 276.498 205.215 276.72 206.24C277.771 208.24 279.181 210.03 280.88 211.52C282.96 213.6 284.88 215.76 285.2 216.32C285.844 217.154 286.663 217.837 287.6 218.32L289.36 219.28L289.12 217.36C288.88 215.28 289.28 214.96 290.4 216.48C290.8 216.96 291.84 217.84 292.64 218.32C294 219.12 294.24 219.12 294.24 218.48C294.24 218 294.48 216.96 294.8 216.16L295.36 214.72L296.4 216.72C296.96 217.84 298.8 220.32 300.48 222.32C303.76 226.08 305.84 230.32 304.8 231.28C304.32 231.68 303.2 231.68 300.8 231.2C299.04 230.88 296.8 230.64 295.84 230.8C294 231.04 293.84 230.8 295.04 229.36C296.24 227.76 296 227.52 293.6 227.52C290.8 227.52 283.84 226.16 281.12 225.12C278.56 224.08 277.92 224.32 277.12 226.8L275.76 231.28L274.96 233.68L277.84 233.44C279.325 233.285 280.796 233.017 282.24 232.64C282.807 232.451 283.403 232.37 284 232.4C284.16 232.48 283.76 233.44 283.2 234.56L282.08 236.48L283.84 236.16C284.8 235.92 286.24 235.44 287.04 235.04C288.48 234.4 288.64 234.4 289.76 236.24C291.12 238.4 292.16 238.32 292.4 236C292.64 233.6 293.44 233.92 294.96 237.12C296.4 240.16 297.84 241.28 298.16 239.52C298.24 238.88 298.96 237.92 299.84 237.28C301.6 236.08 302.88 236.48 303.6 238.32C304.4 240.32 302.64 242.32 297.68 245.36C293.087 247.896 289.134 251.449 286.125 255.748C283.116 260.046 281.131 264.976 280.32 270.16C278.8 279.6 283.52 289.36 292.8 296.48C297.28 299.84 304.4 303.36 303.92 302.08C302 296.24 302.08 285.28 304 283.44C304.32 283.12 304.24 284.24 303.76 285.92C302.16 292.24 302.96 297.2 306.96 308.88C310.48 319.44 310 324 304.88 326.96C303.28 327.92 302.24 328.08 297.84 328C293.04 328 292.48 328 290.96 329.28C289.122 331.157 287.919 333.563 287.52 336.16C287.52 337.2 288.64 337.04 290.72 335.84H290.8Z" fill="#FFB700" stroke="black" stroke-width="4.48"/>
<path d="M368.4 335.6L370.4 334.32L371.76 335.6C373.52 337.28 375.68 337.2 377.36 335.52C378.16 334.72 378.8 334.24 378.88 334.32L379.6 335.6C380 336.32 380.88 336.64 382.48 336.8C384.32 336.88 384.88 336.8 385.68 335.68L386.48 334.32L388.48 335.6C393.92 339.12 396.8 335.44 394.32 328.16C393.12 324.48 393.84 322.4 397.76 317.76C399.44 315.76 400.8 313.6 400.8 312.96C400.8 312.08 400.48 311.92 398.24 312C396.16 312 395.52 311.76 394.4 310.56C392.56 308.56 392.72 306.24 394.72 303.68L396.32 301.68L393.44 299.76C391.141 298.062 388.999 296.161 387.04 294.08C385.294 292.019 383.159 290.322 380.756 289.087C378.354 287.852 375.732 287.102 373.04 286.88L369.28 286.48V289.36C369.28 292.96 371.04 296.48 375.68 302.4C380.96 309.12 381.28 310.16 381.52 318.96L381.76 326.4L380.16 327.84C378.8 329.12 378.24 329.36 373.76 329.6C369.52 329.84 368.56 330.08 367.36 331.2C365.956 332.224 364.985 333.737 364.64 335.44C364.4 336.64 364.48 336.88 365.36 336.88C365.92 336.88 367.28 336.32 368.4 335.6ZM254.64 316.4C255.124 315.69 255.401 314.859 255.44 314C255.44 313.2 255.92 312.88 258 312.56L260.48 312.24L258.88 310.88C256.88 309.28 256.64 308.08 258.4 308.08C260.16 308.08 263.04 306.32 263.52 304.96C263.76 304.32 263.52 303.52 263.2 303.12C262.24 302 260.4 302.16 260.08 303.44C259.68 304.72 259.12 304.72 257.68 303.44C255.68 301.44 255.6 297.36 257.68 294.96C258.56 293.84 258.56 293.84 257.36 292.64C256.08 291.36 255.12 288.96 255.76 288.32C255.92 288.16 256.96 288.32 258 288.72C259.6 289.2 260.16 289.2 260.8 288.72C262.64 287.2 260.64 285.28 257.6 285.76C256.32 285.92 255.84 285.76 255.68 285.12C255.52 284.64 254.48 284 253.28 283.68C251.12 283.12 251.12 283.12 251.12 284.64C251.12 286.24 250.16 286.56 248.4 285.52C246.96 284.72 245.6 285.36 245.6 286.88C245.6 288.32 246.96 288.96 249.6 288.8C251.52 288.72 251.6 290.16 249.76 292.24L248.4 293.84L249.44 295.36C251.04 297.6 250.88 301.36 249.2 303.28L247.84 304.72L246.96 303.52C245.68 301.92 244 302 243.52 303.76C243.28 304.88 243.52 305.36 244.96 306.64C245.92 307.44 247.36 308.08 248.08 308.08C249.92 308.08 249.84 309.6 247.92 311.04L246.32 312.24L248.72 312.56C250 312.8 251.12 313.12 251.12 313.36C251.12 314.4 252.72 317.52 253.2 317.52C253.52 317.52 254.16 316.96 254.64 316.32V316.4Z" fill="#FFB700" stroke="black" stroke-width="4.48"/>
<path d="M285.2 303.12C287.36 302.32 292 298.32 292 297.44C292 297.12 290.72 295.68 289.12 294.24C285.92 291.36 282.32 286.32 281.36 283.44C280.88 281.84 278.56 279.28 272 272.88L263.28 264.48L260.8 265.12C259.36 265.44 257.68 265.76 257.04 265.76C255.84 265.76 255.84 265.76 257.44 267.04L259.04 268.32L261.44 267.04C263.6 265.76 263.68 265.76 263.92 266.8C264.08 267.36 263.76 268.4 263.12 269.12C262.56 269.84 262.24 270.72 262.32 270.96C262.56 271.2 262 271.76 261.12 272.24C259.52 273.04 258.32 275.68 259.6 275.68C260.8 275.68 263.36 272.48 263.04 271.44C262.88 270.88 263.04 270.32 263.2 270.16C264.24 269.6 264.16 272.08 263.2 273.36C262.56 274 262.24 274.8 262.4 275.12C262.56 275.36 262 275.92 261.12 276.4C259.52 277.2 258.32 279.84 259.6 279.84C260.88 279.84 263.36 276.8 263.12 275.68C262.96 275.12 262.96 274.48 263.2 274.32C263.92 274 264.24 275.92 263.68 276.88C263.533 277.15 263.456 277.453 263.456 277.76C263.456 278.067 263.533 278.37 263.68 278.64C264.24 279.68 263.68 281.6 262.64 282.24C262.24 282.48 262.48 283.04 263.6 283.84C265.2 284.96 265.2 285.12 265.2 290.24C265.2 294.56 265.36 295.68 266.16 296.4C266.96 297.2 267.12 297.2 267.12 296.4C267.12 295.6 268.72 294.48 269.92 294.48C270.32 294.48 272.64 296.48 275.12 298.88C277.6 301.28 280.24 303.44 280.96 303.52L282.72 303.84C282.96 303.84 284.08 303.6 285.2 303.04V303.12ZM258.56 282.24C258.56 280.88 255.68 279.36 252.24 279.04C249.44 278.64 249.44 278.72 249.44 280.08C249.44 281.2 249.84 281.68 251.84 282.48C254.88 283.84 258.56 283.68 258.56 282.24Z" fill="#FFB700" stroke="black" stroke-width="4.48"/>
<path d="M261.68 282.08C263.12 280.8 263.76 279.36 262.88 279.36C261.92 279.36 259.36 281.6 259.36 282.56C259.36 283.84 259.84 283.76 261.76 282.08H261.68ZM258.72 278C258.8 277.2 258.32 276.72 256.88 276C253.68 274.64 250 273.92 249.12 274.64C247.44 276 248.56 277.76 251.2 278.08C252.32 278.16 253.76 278.48 254.48 278.8C256.56 279.6 258.48 279.2 258.72 278ZM258.72 273.76C258.88 272.72 258.16 272.32 252.32 270.24C247.92 268.64 246 269.44 247.44 272.08C247.92 272.96 248.72 273.36 250.56 273.68C251.92 273.84 253.76 274.24 254.64 274.56C257.04 275.36 258.48 275.04 258.64 273.76H258.72ZM261.6 269.84C262.48 268.96 263.2 267.92 263.2 267.44C263.2 266.24 259.76 268.48 259.28 270.08C258.8 271.92 259.68 271.84 261.68 269.84H261.6ZM258.72 269.6C258.88 268.32 256.8 267.2 252.64 266.32C249.52 265.6 248.16 266 248.4 267.44C248.56 268.24 249.6 268.8 252.4 269.68C257.12 271.12 258.48 271.12 258.72 269.6ZM262.72 263.68C268.16 261.28 268.56 255.28 263.52 253.68C261.44 253.04 260.16 253.44 259.36 254.8C258.72 255.92 259.12 257.84 259.92 257.84C260.24 257.84 260.48 258.24 260.48 258.64C260.48 260.8 252.32 261.68 248.96 260C247.76 259.44 247.36 257.84 248.24 257.84C249.04 257.84 249.52 256.24 249.12 255.2C248.64 253.6 247.04 253.12 244.88 253.76C239.84 255.04 240 260.96 245.12 263.36C250.784 265.439 256.984 265.552 262.72 263.68Z" fill="#FFB700" stroke="black" stroke-width="4.48"/>
<path d="M259.44 259.04C259.76 258.72 259.6 258.24 259.12 257.92C258 257.04 258.08 255.68 259.28 254.16C260.24 253.04 260.32 251.28 260.64 234.08C261.2 204.4 263.44 182.08 266.32 176.64C267.52 174.56 267.36 174.56 264.32 176.64C260.332 179.419 257.112 183.162 254.96 187.52C250 196.72 248.32 209.12 248.32 235.68C248.32 250.72 248.4 252.72 249.28 254.08C250.08 255.52 250.08 256 249.6 257.44C249.2 258.32 249.04 259.28 249.2 259.44C250.32 260.48 258.32 260.24 259.44 259.04ZM304.32 230.72C304.56 230.48 304.16 229.12 303.52 227.84C302.56 225.76 302.16 225.44 300.8 225.44C294.403 224.884 288.165 223.148 282.4 220.32C278.32 218.48 276.8 218.08 276.4 218.56C275.12 219.76 277.2 222.56 280.4 224.08C285.109 225.777 290.041 226.774 295.04 227.04C297.2 227.04 297.28 227.04 296 228.88L295.2 230.16H297.6L301.6 230.64C304 231.2 304 231.2 304.32 230.72Z" fill="#FFB700" stroke="black" stroke-width="4.48"/>
<path d="M329.6 244.08C329.6 243.28 327.28 241.28 325.04 239.92C323.2 238.88 322.88 238.8 322.88 239.68C322.88 240.96 321.76 244.24 321.28 244.24C321.04 244.24 320.64 243.6 320.48 242.88C320.24 242.08 319.36 240.48 318.48 239.44L316.88 237.44L315.76 239.28C314.64 241.04 312.64 242.72 311.76 242.72C311.6 242.72 311.52 241.76 311.76 240.72C311.84 239.44 311.76 238.48 311.36 238.32C311.04 238.08 310.72 238.16 310.72 238.48C310.72 239.12 308 242.16 307.52 242.16C307.2 242.16 306.88 241.36 306.72 240.24L306.08 236.4C305.92 235.44 306.32 236.08 306.88 238L308.16 241.28L309.44 239.28C310.019 238.453 310.452 237.533 310.72 236.56C310.72 236.16 310.96 236 311.28 236.16C311.6 236.32 312 237.68 312.16 239.12L312.56 241.84L314 240.24C314.754 239.437 315.449 238.582 316.08 237.68C316.64 236.72 316.72 236.72 317.92 237.68C318.56 238.32 319.6 239.68 320.24 240.8C320.88 241.92 321.44 242.72 321.52 242.64L322 240.08L322.32 237.68C322.4 237.28 326.64 240.08 328.24 241.44C329.2 242.32 330.16 242.96 330.32 242.8C330.48 242.64 330.64 241.36 330.64 239.84C330.64 237.6 330.4 236.96 329.04 235.76C327.44 234.32 327.44 234.32 326.8 235.36C326 236.72 325.12 236.72 325.12 235.36C325.12 234.4 322.08 230.64 321.36 230.64C321.12 230.64 320.48 231.44 319.92 232.48C319.36 233.52 318.72 234.32 318.56 234.32C317.76 234.32 313.52 229.52 313.52 228.72C313.52 228.08 313.84 228.24 314.56 229.36C315.275 230.411 316.107 231.377 317.04 232.24C318.64 233.68 319.28 233.36 319.92 230.56C320.16 229.76 320.48 229.12 320.72 229.12C321.36 229.12 325.04 233.04 325.52 234.32L326.08 235.6L326.48 234.16C326.96 232.4 327.52 232.4 328.32 234C328.64 234.64 330.24 236.08 331.84 237.04L334.8 238.96L335.36 237.04C335.68 236 336.16 235.44 336.32 235.76C336.64 236.16 335.84 239.36 335.28 240C335.28 240.08 334.24 239.52 333.2 238.8L331.2 237.36V239.92C331.2 241.28 331.04 242.96 330.88 243.6C330.48 244.88 329.52 245.2 329.52 244.08H329.6ZM314.8 223.76C311.28 220.88 310.8 220.24 310.8 218.8L310.88 217.36L311.12 218.72C311.28 219.52 312.24 220.8 313.36 221.76L315.44 223.36L316.64 221.92C317.36 221.12 317.92 220.16 317.92 219.84C317.92 218.88 318.08 218.96 320.48 221.04C322.56 222.88 322.64 222.88 322.88 221.68C323.12 221.04 323.04 219.76 322.88 218.88C322.08 216.48 322.24 216.16 323.28 217.6L325.2 219.84C326 220.72 326.08 220.72 326.4 219.6C326.64 218.88 326.8 217.68 326.8 216.88V215.36L328.64 217.52C330.48 219.6 330.64 219.68 331.12 218.64C331.52 218.08 331.76 216.72 331.76 215.68C331.76 214.24 331.92 213.92 332.24 214.4C332.88 215.36 332.48 217.76 331.36 219.84L330.56 221.44L329.52 219.76C328.16 217.68 327.68 217.68 326.88 219.92C326.08 222.08 325.52 222.24 324.72 220.56C324.24 219.52 324.08 219.68 323.76 221.92L323.36 224.32L320.96 222.48L318.56 220.64L317.36 221.84C316.8 222.56 316.32 223.44 316.32 223.76C316.32 224.56 315.68 224.56 314.8 223.76ZM346 212.88C344.8 211.76 343.92 210.64 344.08 210.48C344.32 210.24 344.48 210.16 344.56 210.32C345.334 211.145 346.135 211.946 346.96 212.72C349.68 215.6 349.12 215.68 346.08 212.88H346ZM304.4 208.56C303.28 206.96 303.36 206 304.8 204.24C305.76 203.04 306.24 202.88 308 203.12C309.2 203.2 311.68 204.24 313.52 205.36C316.179 206.949 319.222 207.779 322.32 207.76L320.96 205.52C319.2 202.88 319.2 202.56 321.28 204.16C323.36 205.84 325.84 206.32 331.44 206.16L334.16 206.08L332.56 204.48C330.4 202.32 331.04 202.08 333.52 204.24C335.76 206.24 335.68 206.4 330.8 206.88C328.765 207.085 326.71 206.95 324.72 206.48C322 205.68 321.84 205.76 322.4 206.64C322.72 207.2 323.2 207.6 323.44 207.6C323.76 207.6 324 207.92 324 208.24C324 209.28 318.08 208.32 315.2 206.96C308.8 203.68 308 203.36 306.4 203.84C305.974 204.004 305.585 204.251 305.255 204.567C304.925 204.883 304.662 205.261 304.48 205.68C303.44 208.32 307.2 210.4 308.72 208.08C309.2 207.36 309.12 206.96 308.32 206.08C307.2 204.96 307.36 204.8 308.8 205.28C309.84 205.68 309.92 208.16 308.96 209.12C307.92 210.16 305.36 209.92 304.4 208.56Z" fill="#000001" stroke="black" stroke-width="4.48"/>
<path d="M329.92 202.08C329.12 201.28 329.76 201.12 333.36 201.04C337.84 200.96 340.56 200.24 343.76 198.16C346.32 196.56 347.04 196.88 344.56 198.56C342.4 200.16 338.96 201.28 335.52 201.6L331.44 202.16C330.8 202.32 330.08 202.24 329.84 202.08H329.92Z" fill="#000001" stroke="black" stroke-width="4.48"/>
<path d="M290.8 335.84L292.64 334.72L293.44 335.84C294.48 337.28 297.44 337.2 299.36 335.84L300.88 334.64L302.16 335.76C303.76 337.28 306.8 337.28 308.8 335.76C310.16 334.8 310.4 334.72 311.2 335.52C311.76 336 313.36 336.48 314.72 336.72C317.28 337.04 317.28 337.04 318.72 334.8C320 332.96 320.16 332.24 319.92 330.4C319.697 328.995 319.536 327.58 319.44 326.16C319.28 324.08 319.36 324.08 322.32 322.96C323.789 322.509 325.232 321.975 326.64 321.36C327.84 320.64 331.2 316.72 331.2 315.92C331.2 315.76 329.92 315.44 328.32 315.28C321.92 314.48 320.88 311.12 325.04 304.88C331.68 294.48 335.76 284.48 335.76 278.16C335.76 275.28 336 274.32 336.32 274.96C337.84 277.44 335.12 288.08 331.12 295.76L329.52 298.8L331.04 298.48C331.84 298.24 336.96 296.08 342.24 293.68C356.8 287.12 361.76 285.84 371.2 286.24C379.12 286.56 382.4 288.08 388 293.92C390.96 297.12 393.84 299.28 399.04 302.56C410.08 309.44 410.56 310.08 411.12 318.24C411.68 326.48 411.36 326.96 405.12 328.32C399.76 329.52 396.4 332 395.52 335.52C395.04 337.28 396.08 337.36 398.72 335.6L400.72 334.32L401.6 335.6C402.8 337.28 405.2 337.28 407.2 335.6L408.8 334.4L410.4 335.6C412.8 337.6 416 337.12 416.96 334.64C417.12 334.24 417.6 334.32 418.56 335.2C420.4 336.8 424.96 337.44 425.44 336.16C425.6 335.68 425.28 334.56 424.64 333.6C422 329.6 421.12 327.76 421.12 325.6C421.12 322.56 421.92 321.04 425.44 318.64C429.6 315.6 430.88 311.76 427.68 311.76C425.76 311.76 423.76 310 422.48 307.2C419.92 301.44 420.48 295.04 424.32 284.32C427.264 278.013 428.741 271.12 428.64 264.16C428.64 258.24 428.48 257.28 427.2 254C426.199 251.72 424.966 249.548 423.52 247.52L421.28 244.56L424.08 242.16C432.72 235.04 430.96 223.36 420.56 218.88C417.36 217.44 416.56 217.36 410.96 217.36C407.76 217.36 402.56 217.84 399.76 218.4C396.002 218.995 392.205 219.316 388.4 219.36C382.96 219.36 382 219.2 379.92 218.08C377.76 216.96 377.36 216.4 376.96 213.68C376.921 213.424 376.821 213.18 376.668 212.971C376.515 212.762 376.313 212.594 376.08 212.48C375.28 212.24 371.92 215.2 371.44 216.48C371.12 217.2 370.96 217.12 370.24 216.24C369.561 215.368 369.022 214.397 368.64 213.36C367.84 210.72 368.88 208.8 372 207.28L374.4 206.16L372.96 205.28C370.08 203.44 365.12 204.72 363.36 207.68C362.8 208.48 362.24 209.28 362.08 209.28C361.92 209.28 360.96 208.48 360 207.44C356.24 203.76 357.52 198.32 362.56 196.72C365.2 195.84 367.6 196.48 368.08 198.32C368.88 200.96 371.12 197.44 370.72 194.16C370.48 192 370.48 191.92 372 191.92C374.08 191.92 378.4 194.64 379.84 196.72C381.44 199.2 381.28 203.12 379.52 206L378.16 208.24L380 207.92C382.56 207.36 385.12 205.76 386.4 203.76C387.074 202.486 387.453 201.077 387.509 199.636C387.564 198.196 387.295 196.762 386.72 195.44C385.52 193.28 385.68 192.96 387.44 193.68C390.32 194.88 391.92 196.24 393.04 198.56C394.16 200.64 394.24 201.12 393.68 203.36C393.297 204.724 392.703 206.019 391.92 207.2C390.96 208.48 390.88 208.72 391.68 208.72C393.12 208.72 396 207.36 397.04 206.32C397.6 205.68 398.4 204.32 398.8 203.12L399.6 201.12L400.4 202.72C401.6 204.88 404 206.88 406.88 208.16C410 209.44 411.28 209.52 409.68 208.32C408.56 207.52 406.48 201.52 407.2 200.96C410.653 202.893 413.806 205.319 416.56 208.16C421.12 212.24 424 213.6 428.16 213.6C433.52 213.6 436.64 208.96 434.24 204.56C432.88 202 429.76 201.6 427.84 203.76C427.04 204.8 426.8 205.6 427.04 206.72C427.36 208 427.28 208.16 426.08 208.16C424.48 208.16 421.44 206.16 416 201.6C408.428 195.083 399.724 190.013 390.32 186.64C383.949 185.168 377.371 184.816 370.88 185.6C365.76 186.56 359.68 189.52 356.32 192.64C350.48 198.24 350.4 205.68 356.08 212.48L357.68 214.4L356.64 216.16C355.858 217.421 355.47 218.886 355.527 220.369C355.584 221.851 356.083 223.283 356.96 224.48C357.76 225.6 358.56 226.48 358.8 226.48C358.96 226.48 359.12 225.76 359.2 224.88C359.36 222.72 360.32 221.28 361.92 220.72C363.36 220.16 364.32 220.48 370.88 223.12C377.84 225.84 389.28 226 401.44 223.6C406.71 222.383 412.195 222.438 417.44 223.76C423.2 226.16 424.48 232.32 420.32 236.96C418.48 239.04 416.8 239.84 410.96 241.44C405.875 242.781 400.59 243.187 395.36 242.64C386.72 242.56 383.6 242.72 380.16 243.44C376.24 244.24 373.92 244.32 362.72 244.08L349.68 243.76L351.12 244.88C351.891 245.565 352.721 246.18 353.6 246.72C354.64 247.28 354.56 247.36 353.12 247.92C352.32 248.24 350.4 248.48 348.88 248.48H346.24L345.92 250.72C345.704 251.776 345.704 252.864 345.92 253.92C346.24 254.72 346.08 254.88 345.28 254.56C344.72 254.32 343.2 253.92 341.84 253.68C340.468 253.386 339.128 252.957 337.84 252.4C336.32 251.6 336.16 251.6 335.6 252.64C335.12 253.44 330.64 256.8 330 256.8C329.711 254.724 329.118 252.703 328.24 250.8C327.44 249.12 326.72 247.2 326.48 246.64C326.24 245.76 326.08 245.68 325.68 246.4C325.44 246.8 325.12 248 324.88 248.96C324.6 250.256 324.114 251.498 323.44 252.64L322.24 254.4L321.44 252.88C320.64 251.28 319.36 249.52 318.88 249.52C318.72 249.52 318.48 250 318.32 250.72C317.92 252 314.8 255.76 314 255.76C313.76 255.76 313.52 254.72 313.52 253.36C313.52 252.16 313.28 251.04 312.96 251.04C312.64 251.04 312.4 251.44 312.4 251.84C312.4 252.8 309.76 255.84 308.8 255.84C308.48 255.84 307.84 256.16 307.44 256.64C306.48 257.68 305.68 257.52 306.08 256.32C306.192 255.295 306.083 254.259 305.76 253.28L304.96 250.72C304.8 250.32 303.84 250.48 301.76 251.12C298.56 252.16 297.44 251.92 299.12 250.64C299.76 250.16 300.72 248.48 301.2 246.96C301.76 245.36 302.56 244 302.96 243.84C303.52 243.68 303.52 243.84 302.8 244.8C302.337 245.409 302.034 246.124 301.92 246.88C301.92 247.28 301.52 248.32 301.12 249.2C300.64 250 300.32 250.8 300.4 250.88C300.48 250.96 301.76 250.48 303.2 249.84L305.76 248.56V249.68C305.76 250.32 306.08 251.92 306.48 253.28L307.2 255.68L308.96 254.88C310.72 254.08 312.4 251.2 312.4 248.88C312.4 247.76 313.04 247.92 313.36 249.12C313.36 249.44 313.84 250.8 314.16 252.08L314.96 254.32L316.16 252.88C316.88 252.08 317.68 250.48 318 249.44C318.64 247.52 319.6 246.64 319.6 248.08C319.6 249.04 322.32 252.72 322.8 252.4C323.12 252.24 323.6 250.88 324 249.36C324.8 246.16 326 244.08 326.8 244.56C327.12 244.72 327.2 245.04 327.04 245.36C326.88 245.52 327.52 247.6 328.48 249.84C329.176 251.519 329.869 253.199 330.56 254.88C330.88 255.68 331.2 255.68 333.2 253.84C334.4 252.72 335.6 251.52 335.68 251.12C335.92 250.48 336.16 250.56 337.28 251.28C339.639 252.526 342.223 253.288 344.88 253.52C345.04 253.36 345.2 251.92 345.2 250.32L345.28 247.36L346.88 247.68C347.68 247.92 349.52 247.92 350.88 247.68L353.28 247.36L351.12 245.76C349.92 244.96 348.72 243.92 348.4 243.44C348.16 242.96 347.04 242.48 345.84 242.4C342.56 242.08 336.72 238.88 336.72 237.28C336.72 236.96 337.52 237.52 338.48 238.4C340.72 240.4 343.76 241.6 346.48 241.6H348.4L347.2 240C346.345 238.759 345.797 237.334 345.6 235.84C345.44 233.44 345.2 233.12 342.72 231.44C341.282 230.421 339.943 229.269 338.72 228L337.36 226.48L336.64 228.32C336.24 229.36 335.84 230.16 335.6 230.16C335.44 230.16 334.64 229.52 334 228.8C333.55 228.279 333.007 227.845 332.4 227.52C332.16 227.52 331.6 228.48 330.96 229.68L329.84 231.84L329.04 230.64C328.328 229.659 327.525 228.748 326.64 227.92C325.68 227.12 325.28 226.48 325.6 226.48C325.92 226.48 326.96 227.28 328 228.32L329.76 230.16L330.56 228.8C331.022 227.858 331.163 226.79 330.96 225.76C330.64 224.32 330.72 224.24 331.2 225.2C331.89 226.103 332.697 226.91 333.6 227.6L335.36 229.04L336.56 226.88C337.76 224.64 337.76 224.64 338.24 226C339.04 227.68 344.24 232 348.64 234.48C349.44 234.88 349.12 233.6 347.84 230.48C347.456 229.455 347.239 228.374 347.2 227.28C347.2 225.84 346.8 225.2 344.96 223.76C343.816 223.029 342.859 222.04 342.164 220.874C341.47 219.707 341.058 218.394 340.96 217.04C340.72 215.68 340.24 214.24 339.84 213.76C339.36 212.96 339.2 213.44 339.36 215.84C339.52 217.52 339.28 219.6 338.88 220.48L338.24 222.08L337.76 220.72C337.44 220 336.16 218.72 334.96 217.92C333.76 217.12 332.88 216.32 333.04 216.16C333.2 216 334.48 216.72 335.84 217.76C338 219.44 338.4 219.6 338.72 218.88C339.04 218.08 338.72 214.4 338.08 211.84C337.76 210.56 337.76 210.56 339.36 212.16C340.48 213.28 341.12 214.72 341.68 217.12C342.32 220.16 342.64 220.72 345.44 223.2C347.12 224.72 348.64 225.84 348.72 225.76C348.88 225.6 349.04 221.76 349.2 217.12C349.52 208.24 349.2 206.08 347.04 203.36L345.92 201.92L347.68 200.08C349.652 198.194 350.969 195.727 351.44 193.04L351.76 190.88L349.84 192.72C348.24 194.24 347.44 194.56 345.6 194.56C343.76 194.56 343.04 194.24 341.84 192.96C339.971 191.161 337.692 189.843 335.2 189.12C334.24 188.8 333.92 188.96 333.92 189.6C333.92 190.08 333.44 191.36 332.8 192.56L331.68 194.64L329.28 192.24C327.76 190.88 326.08 189.68 324.72 189.36C321.44 188.56 321.28 188.56 321.28 191.04C321.28 194.8 319.68 195.52 316.8 193.04C314.56 191.12 312.8 190.64 308.56 191.2L305.36 191.52L305.92 192.96C306.4 194.16 306.32 194.72 305.28 196.08C303.6 198.32 301.44 199.28 298.08 199.28C296.48 199.28 294.56 199.6 293.76 200C292.96 200.4 290.88 200.8 289.2 200.96C287.6 201.12 285.76 201.44 285.2 201.6C284.4 201.92 284.4 201.6 284.64 199.84C285.04 197.12 283.04 195.04 280.08 195.04C276.16 195.04 274.4 198.56 275.92 203.2C276.231 204.201 276.498 205.215 276.72 206.24C277.771 208.24 279.181 210.03 280.88 211.52C282.96 213.6 284.88 215.76 285.2 216.32C285.844 217.154 286.663 217.837 287.6 218.32L289.36 219.28L289.12 217.36C288.88 215.28 289.28 214.96 290.4 216.48C290.8 216.96 291.84 217.84 292.64 218.32C294 219.12 294.24 219.12 294.24 218.48C294.24 218 294.48 216.96 294.8 216.16L295.36 214.72L296.4 216.72C296.96 217.84 298.8 220.32 300.48 222.32C303.76 226.08 305.84 230.32 304.8 231.28C304.32 231.68 303.2 231.68 300.8 231.2C299.04 230.88 296.8 230.64 295.84 230.8C294 231.04 293.84 230.8 295.04 229.36C296.24 227.76 296 227.52 293.6 227.52C290.8 227.52 283.84 226.16 281.12 225.12C278.56 224.08 277.92 224.32 277.12 226.8L275.76 231.28L274.96 233.68L277.84 233.44C279.325 233.285 280.796 233.017 282.24 232.64C282.807 232.451 283.403 232.37 284 232.4C284.16 232.48 283.76 233.44 283.2 234.56L282.08 236.48L283.84 236.16C284.8 235.92 286.24 235.44 287.04 235.04C288.48 234.4 288.64 234.4 289.76 236.24C291.12 238.4 292.16 238.32 292.4 236C292.64 233.6 293.44 233.92 294.96 237.12C296.4 240.16 297.84 241.28 298.16 239.52C298.24 238.88 298.96 237.92 299.84 237.28C301.6 236.08 302.88 236.48 303.6 238.32C304.4 240.32 302.64 242.32 297.68 245.36C293.087 247.896 289.134 251.449 286.125 255.748C283.116 260.046 281.131 264.976 280.32 270.16C278.8 279.6 283.52 289.36 292.8 296.48C297.28 299.84 304.4 303.36 303.92 302.08C302 296.24 302.08 285.28 304 283.44C304.32 283.12 304.24 284.24 303.76 285.92C302.16 292.24 302.96 297.2 306.96 308.88C310.48 319.44 310 324 304.88 326.96C303.28 327.92 302.24 328.08 297.84 328C293.04 328 292.48 328 290.96 329.28C289.122 331.157 287.919 333.563 287.52 336.16C287.52 337.2 288.64 337.04 290.72 335.84H290.8Z" fill="#FFB700"/>
<path d="M368.4 335.6L370.4 334.32L371.76 335.6C373.52 337.28 375.68 337.2 377.36 335.52C378.16 334.72 378.8 334.24 378.88 334.32L379.6 335.6C380 336.32 380.88 336.64 382.48 336.8C384.32 336.88 384.88 336.8 385.68 335.68L386.48 334.32L388.48 335.6C393.92 339.12 396.8 335.44 394.32 328.16C393.12 324.48 393.84 322.4 397.76 317.76C399.44 315.76 400.8 313.6 400.8 312.96C400.8 312.08 400.48 311.92 398.24 312C396.16 312 395.52 311.76 394.4 310.56C392.56 308.56 392.72 306.24 394.72 303.68L396.32 301.68L393.44 299.76C391.141 298.062 388.999 296.161 387.04 294.08C385.294 292.019 383.159 290.322 380.756 289.087C378.354 287.852 375.732 287.102 373.04 286.88L369.28 286.48V289.36C369.28 292.96 371.04 296.48 375.68 302.4C380.96 309.12 381.28 310.16 381.52 318.96L381.76 326.4L380.16 327.84C378.8 329.12 378.24 329.36 373.76 329.6C369.52 329.84 368.56 330.08 367.36 331.2C365.956 332.224 364.985 333.737 364.64 335.44C364.4 336.64 364.48 336.88 365.36 336.88C365.92 336.88 367.28 336.32 368.4 335.6ZM254.64 316.4C255.124 315.69 255.401 314.859 255.44 314C255.44 313.2 255.92 312.88 258 312.56L260.48 312.24L258.88 310.88C256.88 309.28 256.64 308.08 258.4 308.08C260.16 308.08 263.04 306.32 263.52 304.96C263.76 304.32 263.52 303.52 263.2 303.12C262.24 302 260.4 302.16 260.08 303.44C259.68 304.72 259.12 304.72 257.68 303.44C255.68 301.44 255.6 297.36 257.68 294.96C258.56 293.84 258.56 293.84 257.36 292.64C256.08 291.36 255.12 288.96 255.76 288.32C255.92 288.16 256.96 288.32 258 288.72C259.6 289.2 260.16 289.2 260.8 288.72C262.64 287.2 260.64 285.28 257.6 285.76C256.32 285.92 255.84 285.76 255.68 285.12C255.52 284.64 254.48 284 253.28 283.68C251.12 283.12 251.12 283.12 251.12 284.64C251.12 286.24 250.16 286.56 248.4 285.52C246.96 284.72 245.6 285.36 245.6 286.88C245.6 288.32 246.96 288.96 249.6 288.8C251.52 288.72 251.6 290.16 249.76 292.24L248.4 293.84L249.44 295.36C251.04 297.6 250.88 301.36 249.2 303.28L247.84 304.72L246.96 303.52C245.68 301.92 244 302 243.52 303.76C243.28 304.88 243.52 305.36 244.96 306.64C245.92 307.44 247.36 308.08 248.08 308.08C249.92 308.08 249.84 309.6 247.92 311.04L246.32 312.24L248.72 312.56C250 312.8 251.12 313.12 251.12 313.36C251.12 314.4 252.72 317.52 253.2 317.52C253.52 317.52 254.16 316.96 254.64 316.32V316.4Z" fill="#FFB700"/>
<path d="M285.2 303.12C287.36 302.32 292 298.32 292 297.44C292 297.12 290.72 295.68 289.12 294.24C285.92 291.36 282.32 286.32 281.36 283.44C280.88 281.84 278.56 279.28 272 272.88L263.28 264.48L260.8 265.12C259.36 265.44 257.68 265.76 257.04 265.76C255.84 265.76 255.84 265.76 257.44 267.04L259.04 268.32L261.44 267.04C263.6 265.76 263.68 265.76 263.92 266.8C264.08 267.36 263.76 268.4 263.12 269.12C262.56 269.84 262.24 270.72 262.32 270.96C262.56 271.2 262 271.76 261.12 272.24C259.52 273.04 258.32 275.68 259.6 275.68C260.8 275.68 263.36 272.48 263.04 271.44C262.88 270.88 263.04 270.32 263.2 270.16C264.24 269.6 264.16 272.08 263.2 273.36C262.56 274 262.24 274.8 262.4 275.12C262.56 275.36 262 275.92 261.12 276.4C259.52 277.2 258.32 279.84 259.6 279.84C260.88 279.84 263.36 276.8 263.12 275.68C262.96 275.12 262.96 274.48 263.2 274.32C263.92 274 264.24 275.92 263.68 276.88C263.533 277.15 263.456 277.453 263.456 277.76C263.456 278.067 263.533 278.37 263.68 278.64C264.24 279.68 263.68 281.6 262.64 282.24C262.24 282.48 262.48 283.04 263.6 283.84C265.2 284.96 265.2 285.12 265.2 290.24C265.2 294.56 265.36 295.68 266.16 296.4C266.96 297.2 267.12 297.2 267.12 296.4C267.12 295.6 268.72 294.48 269.92 294.48C270.32 294.48 272.64 296.48 275.12 298.88C277.6 301.28 280.24 303.44 280.96 303.52L282.72 303.84C282.96 303.84 284.08 303.6 285.2 303.04V303.12ZM258.56 282.24C258.56 280.88 255.68 279.36 252.24 279.04C249.44 278.64 249.44 278.72 249.44 280.08C249.44 281.2 249.84 281.68 251.84 282.48C254.88 283.84 258.56 283.68 258.56 282.24Z" fill="#FFB700"/>
<path d="M261.68 282.08C263.12 280.8 263.76 279.36 262.88 279.36C261.92 279.36 259.36 281.6 259.36 282.56C259.36 283.84 259.84 283.76 261.76 282.08H261.68ZM258.72 278C258.8 277.2 258.32 276.72 256.88 276C253.68 274.64 250 273.92 249.12 274.64C247.44 276 248.56 277.76 251.2 278.08C252.32 278.16 253.76 278.48 254.48 278.8C256.56 279.6 258.48 279.2 258.72 278ZM258.72 273.76C258.88 272.72 258.16 272.32 252.32 270.24C247.92 268.64 246 269.44 247.44 272.08C247.92 272.96 248.72 273.36 250.56 273.68C251.92 273.84 253.76 274.24 254.64 274.56C257.04 275.36 258.48 275.04 258.64 273.76H258.72ZM261.6 269.84C262.48 268.96 263.2 267.92 263.2 267.44C263.2 266.24 259.76 268.48 259.28 270.08C258.8 271.92 259.68 271.84 261.68 269.84H261.6ZM258.72 269.6C258.88 268.32 256.8 267.2 252.64 266.32C249.52 265.6 248.16 266 248.4 267.44C248.56 268.24 249.6 268.8 252.4 269.68C257.12 271.12 258.48 271.12 258.72 269.6ZM262.72 263.68C268.16 261.28 268.56 255.28 263.52 253.68C261.44 253.04 260.16 253.44 259.36 254.8C258.72 255.92 259.12 257.84 259.92 257.84C260.24 257.84 260.48 258.24 260.48 258.64C260.48 260.8 252.32 261.68 248.96 260C247.76 259.44 247.36 257.84 248.24 257.84C249.04 257.84 249.52 256.24 249.12 255.2C248.64 253.6 247.04 253.12 244.88 253.76C239.84 255.04 240 260.96 245.12 263.36C250.784 265.439 256.984 265.552 262.72 263.68Z" fill="#FFB700"/>
<path d="M259.44 259.04C259.76 258.72 259.6 258.24 259.12 257.92C258 257.04 258.08 255.68 259.28 254.16C260.24 253.04 260.32 251.28 260.64 234.08C261.2 204.4 263.44 182.08 266.32 176.64C267.52 174.56 267.36 174.56 264.32 176.64C260.332 179.419 257.112 183.162 254.96 187.52C250 196.72 248.32 209.12 248.32 235.68C248.32 250.72 248.4 252.72 249.28 254.08C250.08 255.52 250.08 256 249.6 257.44C249.2 258.32 249.04 259.28 249.2 259.44C250.32 260.48 258.32 260.24 259.44 259.04ZM304.32 230.72C304.56 230.48 304.16 229.12 303.52 227.84C302.56 225.76 302.16 225.44 300.8 225.44C294.403 224.884 288.165 223.148 282.4 220.32C278.32 218.48 276.8 218.08 276.4 218.56C275.12 219.76 277.2 222.56 280.4 224.08C285.109 225.777 290.041 226.774 295.04 227.04C297.2 227.04 297.28 227.04 296 228.88L295.2 230.16H297.6L301.6 230.64C304 231.2 304 231.2 304.32 230.72Z" fill="#FFB700"/>
<path d="M329.6 244.08C329.6 243.28 327.28 241.28 325.04 239.92C323.2 238.88 322.88 238.8 322.88 239.68C322.88 240.96 321.76 244.24 321.28 244.24C321.04 244.24 320.64 243.6 320.48 242.88C320.24 242.08 319.36 240.48 318.48 239.44L316.88 237.44L315.76 239.28C314.64 241.04 312.64 242.72 311.76 242.72C311.6 242.72 311.52 241.76 311.76 240.72C311.84 239.44 311.76 238.48 311.36 238.32C311.04 238.08 310.72 238.16 310.72 238.48C310.72 239.12 308 242.16 307.52 242.16C307.2 242.16 306.88 241.36 306.72 240.24L306.08 236.4C305.92 235.44 306.32 236.08 306.88 238L308.16 241.28L309.44 239.28C310.019 238.453 310.452 237.533 310.72 236.56C310.72 236.16 310.96 236 311.28 236.16C311.6 236.32 312 237.68 312.16 239.12L312.56 241.84L314 240.24C314.754 239.437 315.449 238.582 316.08 237.68C316.64 236.72 316.72 236.72 317.92 237.68C318.56 238.32 319.6 239.68 320.24 240.8C320.88 241.92 321.44 242.72 321.52 242.64L322 240.08L322.32 237.68C322.4 237.28 326.64 240.08 328.24 241.44C329.2 242.32 330.16 242.96 330.32 242.8C330.48 242.64 330.64 241.36 330.64 239.84C330.64 237.6 330.4 236.96 329.04 235.76C327.44 234.32 327.44 234.32 326.8 235.36C326 236.72 325.12 236.72 325.12 235.36C325.12 234.4 322.08 230.64 321.36 230.64C321.12 230.64 320.48 231.44 319.92 232.48C319.36 233.52 318.72 234.32 318.56 234.32C317.76 234.32 313.52 229.52 313.52 228.72C313.52 228.08 313.84 228.24 314.56 229.36C315.275 230.411 316.107 231.377 317.04 232.24C318.64 233.68 319.28 233.36 319.92 230.56C320.16 229.76 320.48 229.12 320.72 229.12C321.36 229.12 325.04 233.04 325.52 234.32L326.08 235.6L326.48 234.16C326.96 232.4 327.52 232.4 328.32 234C328.64 234.64 330.24 236.08 331.84 237.04L334.8 238.96L335.36 237.04C335.68 236 336.16 235.44 336.32 235.76C336.64 236.16 335.84 239.36 335.28 240C335.28 240.08 334.24 239.52 333.2 238.8L331.2 237.36V239.92C331.2 241.28 331.04 242.96 330.88 243.6C330.48 244.88 329.52 245.2 329.52 244.08H329.6ZM314.8 223.76C311.28 220.88 310.8 220.24 310.8 218.8L310.88 217.36L311.12 218.72C311.28 219.52 312.24 220.8 313.36 221.76L315.44 223.36L316.64 221.92C317.36 221.12 317.92 220.16 317.92 219.84C317.92 218.88 318.08 218.96 320.48 221.04C322.56 222.88 322.64 222.88 322.88 221.68C323.12 221.04 323.04 219.76 322.88 218.88C322.08 216.48 322.24 216.16 323.28 217.6L325.2 219.84C326 220.72 326.08 220.72 326.4 219.6C326.64 218.88 326.8 217.68 326.8 216.88V215.36L328.64 217.52C330.48 219.6 330.64 219.68 331.12 218.64C331.52 218.08 331.76 216.72 331.76 215.68C331.76 214.24 331.92 213.92 332.24 214.4C332.88 215.36 332.48 217.76 331.36 219.84L330.56 221.44L329.52 219.76C328.16 217.68 327.68 217.68 326.88 219.92C326.08 222.08 325.52 222.24 324.72 220.56C324.24 219.52 324.08 219.68 323.76 221.92L323.36 224.32L320.96 222.48L318.56 220.64L317.36 221.84C316.8 222.56 316.32 223.44 316.32 223.76C316.32 224.56 315.68 224.56 314.8 223.76ZM346 212.88C344.8 211.76 343.92 210.64 344.08 210.48C344.32 210.24 344.48 210.16 344.56 210.32C345.334 211.145 346.135 211.946 346.96 212.72C349.68 215.6 349.12 215.68 346.08 212.88H346ZM304.4 208.56C303.28 206.96 303.36 206 304.8 204.24C305.76 203.04 306.24 202.88 308 203.12C309.2 203.2 311.68 204.24 313.52 205.36C316.179 206.949 319.222 207.779 322.32 207.76L320.96 205.52C319.2 202.88 319.2 202.56 321.28 204.16C323.36 205.84 325.84 206.32 331.44 206.16L334.16 206.08L332.56 204.48C330.4 202.32 331.04 202.08 333.52 204.24C335.76 206.24 335.68 206.4 330.8 206.88C328.765 207.085 326.71 206.95 324.72 206.48C322 205.68 321.84 205.76 322.4 206.64C322.72 207.2 323.2 207.6 323.44 207.6C323.76 207.6 324 207.92 324 208.24C324 209.28 318.08 208.32 315.2 206.96C308.8 203.68 308 203.36 306.4 203.84C305.974 204.004 305.585 204.251 305.255 204.567C304.925 204.883 304.662 205.261 304.48 205.68C303.44 208.32 307.2 210.4 308.72 208.08C309.2 207.36 309.12 206.96 308.32 206.08C307.2 204.96 307.36 204.8 308.8 205.28C309.84 205.68 309.92 208.16 308.96 209.12C307.92 210.16 305.36 209.92 304.4 208.56Z" fill="#000001"/>
<path d="M329.92 202.08C329.12 201.28 329.76 201.12 333.36 201.04C337.84 200.96 340.56 200.24 343.76 198.16C346.32 196.56 347.04 196.88 344.56 198.56C342.4 200.16 338.96 201.28 335.52 201.6L331.44 202.16C330.8 202.32 330.08 202.24 329.84 202.08H329.92Z" fill="#000001"/>
</g>
<defs>
<clipPath id="clip0_2_5989">
<rect width="512" height="512" fill="white"/>
</clipPath>
</defs>
</svg>
