<svg width="512" height="512" viewBox="0 0 512 512" fill="none" xmlns="http://www.w3.org/2000/svg">
<g clip-path="url(#clip0_2_6025)">
<path d="M0 0H512V512H0V0Z" fill="white"/>
<path d="M0 358.4H512V512H0V358.4Z" fill="#009543"/>
<path d="M0 0H512V153.6H0V0Z" fill="#00209F"/>
<path d="M257.6 163.1C254.6 163.1 251.8 166.4 251.8 166.4L252.1 200.9L241.1 212.4H250.1L249.9 232.1L197.7 302.5L190 299.8L176.5 328.6C176.5 328.6 209.9 349.5 258.3 348.9C311.5 348.2 340.3 327.6 340.3 327.6L326.4 299.2L319.6 302.2L266.6 232.2V211.8H275.4L263.4 200.5L263.5 166.1C263.5 166.1 260.5 163.1 257.6 163.1Z" fill="black" stroke="black" stroke-width="1.7"/>
<path d="M275.8 245.8H239.7C239.7 245.8 226.6 218.2 228.7 198.8C230.9 179.2 242.1 169.9 257.1 169.8C274.7 169.5 283.9 178.4 286.7 198.1C289.5 217.6 275.8 245.8 275.8 245.8Z" stroke="black" stroke-width="8.5"/>
<path d="M194.5 311.6C193.9 312.4 189.5 321 189.5 321L197 319.4L194.5 311.6ZM198.8 322.8L190.9 325.4L200.4 329.1L198.8 322.8ZM202.4 311.8L206.3 323.4L215.9 320.6L213.4 315.1L202.4 311.8ZM208.4 327.5L209.8 332.2L222.6 335.4L217.6 324.6L208.5 327.6L208.4 327.5ZM222.6 317.7L227.1 328.5L236.8 324.8L233.6 320L222.6 317.7ZM228.9 332.4L230.5 336.6L245.5 338.7L239.1 328.9L228.9 332.4ZM243.3 320.8L248.8 330.5L262.8 325.4L261.2 321.6L243.2 320.8H243.3ZM251.3 334L254.3 339.1L271.6 338.5L265.1 328.9L251.3 334ZM269.6 321.2L274.4 329.2L285.4 324L282.4 319.7L269.6 321.2ZM287.7 327.3L276.7 332.8L279.7 337.6L294.4 335.2L287.7 327.3ZM291.3 318.9L297 325.9L306.2 318.7L303.1 315.3L291.3 318.9ZM308.2 322.6L299.3 329.3L301.7 333.4L313.9 330.3L308.2 322.6ZM320.4 308.6L322.6 311.8L316.5 320.8L310.2 312.8L320.4 308.6ZM324.5 316.5L328.3 324L320.8 326.5L320.2 323L324.5 316.5Z" fill="white"/>
</g>
<defs>
<clipPath id="clip0_2_6025">
<rect width="512" height="512" fill="white"/>
</clipPath>
</defs>
</svg>
