<svg width="512" height="512" viewBox="0 0 512 512" fill="none" xmlns="http://www.w3.org/2000/svg">
<g clip-path="url(#clip0_2_6045)">
<mask id="mask0_2_6045" style="mask-type:luminance" maskUnits="userSpaceOnUse" x="0" y="-1" width="512" height="513">
<path d="M0 -0.0120239H512V511.988H0V-0.0120239Z" fill="white"/>
</mask>
<g mask="url(#mask0_2_6045)">
<path d="M-256 -0.0120239H768V511.988H-256V-0.0120239Z" fill="#239E46"/>
<path d="M-256 -0.0120239H768V383.988H-256V-0.0120239Z" fill="#000001"/>
<path d="M-256 -0.0120239H768V127.988H-256V-0.0120239Z" fill="#E70013"/>
<path d="M301.261 210.727C292.946 204.794 283.158 201.266 272.971 200.529C262.783 199.793 252.589 201.877 243.508 206.553C234.427 211.229 226.809 218.316 221.491 227.036C216.173 235.757 213.359 245.774 213.359 255.988C213.359 266.202 216.173 276.219 221.491 284.939C226.809 293.66 234.427 300.747 243.508 305.423C252.589 310.099 262.783 312.183 272.971 311.446C283.158 310.71 292.946 307.182 301.261 301.249C292.309 310.198 280.906 316.291 268.491 318.759C256.077 321.228 243.21 319.959 231.516 315.115C219.823 310.27 209.828 302.067 202.797 291.543C195.765 281.018 192.012 268.645 192.012 255.988C192.012 243.331 195.765 230.958 202.797 220.433C209.828 209.909 219.823 201.706 231.516 196.861C243.21 192.017 256.077 190.748 268.491 193.216C280.906 195.685 292.309 201.778 301.261 210.727ZM287.129 255.988L373.248 228.033L320 301.249V210.727L373.248 283.943L287.129 255.988Z" fill="white"/>
</g>
</g>
<defs>
<clipPath id="clip0_2_6045">
<rect width="512" height="512" fill="white"/>
</clipPath>
</defs>
</svg>
