<svg width="512" height="512" viewBox="0 0 512 512" fill="none" xmlns="http://www.w3.org/2000/svg">
<g clip-path="url(#clip0_2_6061)">
<path fill-rule="evenodd" clip-rule="evenodd" d="M0 0H170.7V512H0V0Z" fill="#00319C"/>
<path fill-rule="evenodd" clip-rule="evenodd" d="M170.7 0H341.3V512H170.7V0Z" fill="#FFDE00"/>
<path fill-rule="evenodd" clip-rule="evenodd" d="M341.3 0H512V512H341.3V0Z" fill="#DE2110"/>
<path fill-rule="evenodd" clip-rule="evenodd" d="M289.661 321.522L309.361 349.945C310.474 351.551 311.557 353.113 309.923 354.147C308.242 355.211 308.772 359.369 309.885 360.975C312.081 364.143 314.829 364.715 316.463 363.681L331.405 354.224C333.04 353.19 333.561 350.549 331.365 347.381C330.127 345.789 326.453 343.686 324.818 344.72C323.137 345.784 322.055 344.222 320.972 342.661L301.211 314.148" fill="#FF1900"/>
<path d="M289.661 321.522L309.361 349.945C310.474 351.551 311.557 353.113 309.923 354.147C308.242 355.211 308.772 359.369 309.885 360.975C312.081 364.143 314.829 364.715 316.463 363.681L331.405 354.224C333.04 353.19 333.561 350.549 331.365 347.381C330.127 345.789 326.453 343.686 324.818 344.72C323.137 345.784 322.055 344.222 320.972 342.661L301.211 314.148" stroke="black" stroke-width="0.730307"/>
<path fill-rule="evenodd" clip-rule="evenodd" d="M297.295 301.414C306.093 311.407 309.153 322.864 304.139 326.895C299.125 330.926 287.835 326.083 279.038 316.09C270.24 306.098 267.223 294.606 272.237 290.575C277.251 286.544 288.505 291.346 297.338 301.379L297.295 301.414Z" fill="#A77B3B" stroke="black" stroke-width="1.69805"/>
<path fill-rule="evenodd" clip-rule="evenodd" d="M209.637 309.881L192.246 339.647C191.263 341.329 190.307 342.964 188.596 342.051C186.835 341.112 183.213 343.47 182.23 345.152C180.291 348.47 181.02 351.065 182.732 351.978L198.38 360.327C200.092 361.24 202.786 360.471 204.725 357.153C205.637 355.372 205.907 351.287 204.196 350.374C202.435 349.434 203.391 347.799 204.346 346.164L221.792 316.304" fill="#FF1900"/>
<path d="M209.637 309.881L192.246 339.647C191.263 341.329 190.307 342.964 188.596 342.051C186.835 341.112 183.213 343.47 182.23 345.152C180.291 348.47 181.02 351.065 182.732 351.978L198.38 360.327C200.092 361.24 202.786 360.471 204.725 357.153C205.637 355.372 205.907 351.287 204.196 350.374C202.435 349.434 203.391 347.799 204.346 346.164L221.792 316.304" stroke="black" stroke-width="0.73025"/>
<path fill-rule="evenodd" clip-rule="evenodd" d="M265.825 289.182H249.975C249.415 289.717 244.935 318.082 240.062 329C234.126 342.272 216.259 353.993 216.259 353.993C216.259 353.993 226.901 357.204 230.149 359.344C230.933 359.13 247.959 355.545 249.975 334.726C251.936 355.545 238.046 365.017 238.046 365.017C238.046 365.017 257.928 370.69 257.928 384.016C257.928 370.744 277.755 365.017 277.755 365.017C277.755 365.017 267.786 355.545 265.825 334.673C269.746 355.545 284.868 359.13 285.708 359.291C288.9 357.204 299.542 353.939 299.542 353.939C299.542 353.939 281.731 342.326 275.795 329C270.922 318.136 266.386 289.664 265.881 289.182H265.825Z" fill="#A77B3B" stroke="black" stroke-width="1.6972"/>
<path fill-rule="evenodd" clip-rule="evenodd" d="M198.319 194.304L228.115 203.776C233.261 203.45 238.108 201.349 241.755 197.864C245.401 194.38 247.6 189.748 247.942 184.831C248.278 163.745 239.989 156.359 238.028 156.359L241.949 152.613L236.068 146.833C236.068 146.833 238.084 136.986 257.911 137.361C277.737 137.735 277.737 146.833 277.737 156.306C277.737 165.832 267.824 165.832 267.824 184.777C268.179 189.699 270.389 194.332 274.045 197.815C277.701 201.299 282.555 203.398 287.707 203.723L317.446 194.25V289.191H198.319V194.304Z" fill="#A77B3B" stroke="black" stroke-width="1.6972"/>
<path d="M243.948 198.089L245.927 203.791L247.918 198.089L249.897 203.791L253.867 198.089L255.804 204.095L257.837 198.089L260.764 204.095L263.785 198.089L265.764 203.791L267.756 198.089" stroke="black" stroke-width="0.136181"/>
<path d="M251.918 177.231L247.942 198.103M253.879 177.231V198.103M257.855 177.231V198.103M261.832 177.231L263.792 198.103M265.808 177.231L267.768 198.103" stroke="black" stroke-width="0.164245"/>
<path fill-rule="evenodd" clip-rule="evenodd" d="M178.494 137.414C158.667 146.887 158.667 165.886 158.667 175.358C159.339 183.975 158.667 364.973 158.667 364.973C158.667 364.973 159.955 354.269 168.58 346.027L178.438 336.555L188.351 327.082C195.632 320.767 198.264 308.083 198.264 298.61V165.886C198.264 165.886 198.264 156.359 178.438 137.414H178.494Z" fill="#A77B3B" stroke="black" stroke-width="1.6972"/>
<path d="M198.32 175.393C198.096 175.393 188.407 165.921 188.407 165.921L178.493 175.393L168.58 165.921L158.667 175.393" stroke="black" stroke-width="1.6972"/>
<path d="M198.32 184.807C198.096 184.807 188.407 194.279 188.407 194.279L178.493 184.807L168.58 194.279L158.667 184.807" stroke="black" stroke-width="1.6972"/>
<path d="M198.32 213.193C198.096 213.193 188.407 203.721 188.407 203.721L178.493 213.193L168.58 203.721L158.667 213.193" stroke="black" stroke-width="1.6972"/>
<path d="M188.295 165.917L188.407 327.145" stroke="black" stroke-width="2.33764"/>
<path d="M178.494 175.437L178.606 336.273" stroke="black" stroke-width="2.21463"/>
<path d="M168.595 165.917L168.707 346.089" stroke="black" stroke-width="2.34398"/>
<path fill-rule="evenodd" clip-rule="evenodd" d="M337.307 137.414C357.133 146.887 357.133 165.886 357.133 175.358C356.461 183.975 357.133 364.973 357.133 364.973C357.133 364.973 355.845 354.269 347.22 346.027L337.363 336.555L327.449 327.082C320.168 320.767 317.536 308.083 317.536 298.61V165.886C317.536 165.886 317.536 156.359 337.363 137.414H337.307Z" fill="#A77B3B" stroke="black" stroke-width="1.6972"/>
<path d="M317.48 175.393C317.704 175.393 327.393 165.921 327.393 165.921L337.306 175.393L347.22 165.921L357.133 175.393" stroke="black" stroke-width="1.6972"/>
<path d="M317.48 184.807C317.704 184.807 327.393 194.279 327.393 194.279L337.306 184.807L347.22 194.279L357.133 184.807" stroke="black" stroke-width="1.6972"/>
<path d="M317.48 213.193C317.704 213.193 327.393 203.721 327.393 203.721L337.306 213.193L347.22 203.721L357.133 213.193" stroke="black" stroke-width="1.6972"/>
<path d="M327.505 165.917L327.393 327.145" stroke="black" stroke-width="2.33764"/>
<path d="M337.305 175.437L337.193 336.273" stroke="black" stroke-width="2.21463"/>
<path d="M347.205 165.917L347.093 346.089" stroke="black" stroke-width="2.34398"/>
<path fill-rule="evenodd" clip-rule="evenodd" d="M231.82 307.254C226.564 319.308 217.315 327.163 211.266 324.754C205.217 322.346 204.541 310.539 209.797 298.485C215.053 286.431 224.354 278.597 230.403 281.006C236.452 283.414 237.15 295.171 231.872 307.275L231.82 307.254Z" fill="#A77B3B" stroke="black" stroke-width="1.69764"/>
<path fill-rule="evenodd" clip-rule="evenodd" d="M198.4 203.8H317.4V260.7H198.4V203.8Z" fill="#FF0000"/>
<path fill-rule="evenodd" clip-rule="evenodd" d="M198.4 260.7H317.4V289C317.4 308 287.7 308 257.9 327C228.1 308 198.4 308 198.4 289V260.7Z" fill="#564DFF"/>
<path d="M198.319 203.776H317.39V289.191C317.39 308.136 287.65 308.136 257.855 327.135C228.115 308.136 198.319 308.136 198.319 289.138V203.83V203.776Z" stroke="#FFFF00" stroke-width="1.36871"/>
<path fill-rule="evenodd" clip-rule="evenodd" d="M236.075 207.644C236.075 207.644 216.237 221.591 216.237 234.935C216.237 248.279 237.055 252.752 237.055 252.752C237.055 252.752 230.115 252.752 230.115 270.544C230.115 279.465 250.933 275.017 250.933 279.465C250.933 283.913 250.659 294.669 250.933 301.731C250.933 306.179 237.055 301.731 237.055 306.179C237.055 308.39 247.483 319.523 257.912 319.523C268.34 319.523 278.73 308.39 278.73 306.179C278.73 301.731 264.851 306.179 264.851 301.731V279.465C264.851 275.017 285.669 279.465 285.669 270.544C285.669 252.752 278.73 252.752 278.73 252.752C278.73 252.752 299.587 248.304 299.587 234.935C299.587 221.566 279.71 207.644 279.71 207.644C279.71 207.644 290.883 226.039 290.883 234.935C290.883 239.383 285.669 248.304 271.79 248.304C271.79 248.304 268.262 243.831 264.851 248.304C264.851 248.304 260.852 243.831 257.912 248.304C256.892 249.812 255.089 243.831 250.933 248.304C249.208 249.485 247.797 243.831 243.994 248.304C237.055 248.304 223.176 243.831 223.176 234.935C223.176 226.039 236.075 207.644 236.075 207.644Z" fill="#FFFF00" stroke="black" stroke-width="0.941647"/>
<path fill-rule="evenodd" clip-rule="evenodd" d="M236.437 287.322C235.026 288.227 238.241 302.727 239.182 303.355C240.593 304.235 248.944 304.235 250.316 303.355C251.296 302.727 250.316 289.107 248.944 288.227C247.532 287.322 237.418 286.719 236.398 287.322H236.437Z" fill="#FFFF00" stroke="black" stroke-width="0.941647"/>
<path fill-rule="evenodd" clip-rule="evenodd" d="M279.362 287.322C280.774 288.227 277.559 302.727 276.618 303.355C275.207 304.235 266.856 304.235 265.484 303.355C264.504 302.727 265.484 289.107 266.856 288.227C268.267 287.322 278.382 286.719 279.402 287.322H279.362Z" fill="#FFFF00" stroke="black" stroke-width="0.941647"/>
<path fill-rule="evenodd" clip-rule="evenodd" d="M250.731 281.982C250.731 283.312 249.972 284.586 248.619 285.526C247.267 286.466 245.433 286.994 243.521 286.994C241.609 286.994 239.775 286.466 238.423 285.526C237.071 284.586 236.311 283.312 236.311 281.982C236.311 280.653 237.071 279.378 238.423 278.438C239.775 277.498 241.609 276.97 243.521 276.97C245.433 276.97 247.267 277.498 248.619 278.438C249.972 279.378 250.731 280.653 250.731 281.982Z" fill="#FFFF00" stroke="black" stroke-width="1.12717"/>
<path fill-rule="evenodd" clip-rule="evenodd" d="M279.431 281.984C279.431 283.314 278.672 284.589 277.32 285.529C275.967 286.469 274.134 286.997 272.221 286.997C270.309 286.997 268.475 286.469 267.123 285.529C265.771 284.589 265.011 283.314 265.011 281.984C265.011 280.655 265.771 279.38 267.123 278.44C268.475 277.5 270.309 276.972 272.221 276.972C274.134 276.972 275.967 277.5 277.32 278.44C278.672 279.38 279.431 280.655 279.431 281.984Z" fill="#FFFF00" stroke="black" stroke-width="1.12719"/>
<path fill-rule="evenodd" clip-rule="evenodd" d="M270.4 311C270.4 312.2 268.8 313.2 266.9 313.2C265 313.2 263.5 312.2 263.5 311C263.5 309.8 265 308.8 266.9 308.8C268.8 308.8 270.4 309.8 270.4 311ZM252.4 311C252.4 312.2 250.8 313.2 248.9 313.2C247 313.2 245.4 312.2 245.4 311C245.4 309.8 247 308.8 248.9 308.8C250.8 308.8 252.3 309.8 252.3 311H252.4Z" fill="black"/>
<path fill-rule="evenodd" clip-rule="evenodd" d="M257.893 239.871L253.631 234.494L246.637 235.381L247.62 228.698L241.992 224.678L247.62 220.605L246.637 213.922L253.631 214.861L257.893 209.484L262.155 214.861L269.094 213.922L268.165 220.605L273.739 224.678L268.165 228.75L269.094 235.381L262.1 234.494L257.893 239.871Z" fill="#FFFF00" stroke="black" stroke-width="0.712176"/>
<path fill-rule="evenodd" clip-rule="evenodd" d="M287.595 260.666L299.524 266.392L311.454 260.666L299.524 254.993L287.595 260.666Z" fill="#FFFF00" stroke="black" stroke-width="0.729978"/>
<path fill-rule="evenodd" clip-rule="evenodd" d="M202.295 260.666L214.224 266.392L226.154 260.666L214.224 254.993L202.295 260.666Z" fill="#FFFF00" stroke="black" stroke-width="0.729978"/>
<path fill-rule="evenodd" clip-rule="evenodd" d="M306.147 294.654C302.495 292.338 296.343 293.492 292.894 295.384C289.446 297.277 285.998 299.169 285.534 306.027C281.573 299.437 284.692 293.343 289.938 290.465C292.719 289.158 295.905 288.867 298.895 289.647C301.885 290.427 304.474 292.224 306.175 294.7L306.147 294.654Z" fill="#FFFF00" stroke="black" stroke-width="0.730264"/>
<path fill-rule="evenodd" clip-rule="evenodd" d="M224.199 283.437C224.199 284.438 223.783 285.398 223.043 286.105C222.302 286.813 221.298 287.21 220.251 287.21C219.204 287.21 218.199 286.813 217.459 286.105C216.718 285.398 216.302 284.438 216.302 283.437C216.302 282.437 216.718 281.477 217.459 280.769C218.199 280.062 219.204 279.664 220.251 279.664C221.298 279.664 222.302 280.062 223.043 280.769C223.783 281.477 224.199 282.437 224.199 283.437Z" fill="#FFFF00" stroke="black" stroke-width="0.729978"/>
<path fill-rule="evenodd" clip-rule="evenodd" d="M220.199 296.737C220.199 297.738 219.783 298.698 219.043 299.405C218.302 300.113 217.298 300.51 216.251 300.51C215.204 300.51 214.199 300.113 213.459 299.405C212.718 298.698 212.302 297.738 212.302 296.737C212.302 295.737 212.718 294.777 213.459 294.069C214.199 293.362 215.204 292.964 216.251 292.964C217.298 292.964 218.302 293.362 219.043 294.069C219.783 294.777 220.199 295.737 220.199 296.737Z" fill="#FFFF00" stroke="black" stroke-width="0.729978"/>
<path fill-rule="evenodd" clip-rule="evenodd" d="M218.199 289.137C218.199 290.138 217.783 291.098 217.043 291.805C216.302 292.513 215.298 292.91 214.251 292.91C213.204 292.91 212.199 292.513 211.459 291.805C210.718 291.098 210.302 290.138 210.302 289.137C210.302 288.137 210.718 287.177 211.459 286.469C212.199 285.762 213.204 285.364 214.251 285.364C215.298 285.364 216.302 285.762 217.043 286.469C217.783 287.177 218.199 288.137 218.199 289.137Z" fill="#FFFF00" stroke="black" stroke-width="0.729978"/>
<path fill-rule="evenodd" clip-rule="evenodd" d="M228.099 296.737C228.099 297.738 227.683 298.698 226.943 299.405C226.202 300.113 225.198 300.51 224.151 300.51C223.103 300.51 222.099 300.113 221.359 299.405C220.618 298.698 220.202 297.738 220.202 296.737C220.202 295.737 220.618 294.777 221.359 294.069C222.099 293.362 223.103 292.964 224.151 292.964C225.198 292.964 226.202 293.362 226.943 294.069C227.683 294.777 228.099 295.737 228.099 296.737Z" fill="#FFFF00" stroke="black" stroke-width="0.729978"/>
<path fill-rule="evenodd" clip-rule="evenodd" d="M230.099 289.137C230.099 290.138 229.683 291.098 228.943 291.805C228.202 292.513 227.198 292.91 226.151 292.91C225.103 292.91 224.099 292.513 223.359 291.805C222.618 291.098 222.202 290.138 222.202 289.137C222.202 288.137 222.618 287.177 223.359 286.469C224.099 285.762 225.103 285.364 226.151 285.364C227.198 285.364 228.202 285.762 228.943 286.469C229.683 287.177 230.099 288.137 230.099 289.137Z" fill="#FFFF00" stroke="black" stroke-width="0.729978"/>
<path fill-rule="evenodd" clip-rule="evenodd" d="M224.199 291.037C224.199 292.038 223.783 292.998 223.043 293.705C222.302 294.413 221.298 294.81 220.251 294.81C219.204 294.81 218.199 294.413 217.459 293.705C216.718 292.998 216.302 292.038 216.302 291.037C216.302 290.037 216.718 289.077 217.459 288.369C218.199 287.662 219.204 287.264 220.251 287.264C221.298 287.264 222.302 287.662 223.043 288.369C223.783 289.077 224.199 290.037 224.199 291.037Z" fill="#FFFF00" stroke="black" stroke-width="0.729978"/>
<path fill-rule="evenodd" clip-rule="evenodd" d="M238.7 159C228.7 159 227.4 160.5 222.9 162C222.9 157.7 234 152.6 244 152.6C244 155.8 241.4 158.9 238.7 158.9V159Z" fill="#DA4500"/>
<path fill-rule="evenodd" clip-rule="evenodd" d="M254 148.8C254 150.9 252.2 152.6 250 152.6C247.8 152.6 246 150.9 246 148.8C246 146.7 247.8 145 250 145C252.2 145 254 146.7 254 148.8Z" fill="#CAC9C7"/>
<path fill-rule="evenodd" clip-rule="evenodd" d="M212.209 135.541V141.214H222.123V169.632H228.115V141.214H238.029V135.541H228.115V127.941H222.067V135.541H212.209Z" fill="#FFFF00" stroke="black" stroke-width="0.729978"/>
<path fill-rule="evenodd" clip-rule="evenodd" d="M244 152.6C235.936 152.155 227.861 153.241 220.2 155.8C220.2 149.9 227 143.1 238.7 143.1C241.4 143.1 244 149.4 244 152.6Z" fill="#DA4500"/>
<path fill-rule="evenodd" clip-rule="evenodd" d="M140.815 253.266C137.958 247.109 138.025 245.144 143.106 252.189L204.313 368.227L202.44 368.756L140.846 253.29L140.815 253.266Z" fill="#008500" stroke="black" stroke-width="0.268397"/>
<path fill-rule="evenodd" clip-rule="evenodd" d="M182.3 329.6C183 321 167.3 311.7 166.6 312.3C166 312.9 167.6 317.9 170.6 320.5C164.8 317.6 158.8 315.8 158.6 317.1C158.2 318.8 167.6 322.9 168.4 324.5C168.4 325.6 161.4 325.5 161.6 326.6C161.7 327.8 181.3 337.6 182.3 329.6ZM166.6 304.6C167.2 296 151.5 286.6 150.8 287.3C150.2 287.9 151.8 292.9 154.8 295.5C149.1 292.5 143.1 290.7 142.9 292C142.5 293.7 151.9 297.8 152.6 299.4C152.7 300.6 145.7 300.4 145.9 301.6C146 302.7 165.6 312.6 166.6 304.6ZM154.6 281.8C155.2 273.2 139.4 263.9 138.8 264.5C138.2 265.1 139.8 270.1 142.8 272.7C137 269.7 131 268 130.9 269.3C130.4 271 139.9 275.1 140.6 276.7C140.7 277.8 133.7 277.7 133.8 278.8C134 279.9 153.5 289.8 154.5 281.8H154.6ZM142.6 257.2C143.3 248.6 127.6 239.2 126.9 239.9C126.3 240.5 127.9 245.5 130.9 248.1C125.1 245.1 119.1 243.3 119 244.6C118.5 246.3 127.9 250.4 128.7 252C128.8 253.2 121.8 253 121.9 254.2C122 255.2 141.6 265.2 142.6 257.2Z" fill="#008F00"/>
<path fill-rule="evenodd" clip-rule="evenodd" d="M146.7 256C154.4 251.4 152.9 233.8 152 233.7C151.1 233.5 147.8 237.7 147.4 241.6C146.4 235.4 144.4 229.7 143.4 230.4C141.6 231.1 143.7 240.7 142.8 242.3C141.9 243 137.8 237.6 137 238.3C136.1 239.1 139.4 260 146.7 256ZM157.7 277.7C166.6 275.7 171.3 258.7 170.6 258.3C169.8 257.9 165.2 260.8 163.5 264.3C164.8 258.2 164.8 252.2 163.5 252.4C161.7 252.5 160.2 262.2 158.9 263.4C157.8 263.9 155.9 257.4 154.8 257.9C153.7 258.3 149.5 279.1 157.8 277.7H157.7ZM171 299.8C179 295.8 179.2 278.2 178.3 278C177.4 277.8 173.8 281.7 173 285.5C172.6 279.3 171.2 273.5 170 274C168.2 274.5 169.3 284.3 168.3 285.8C167.3 286.4 163.9 280.6 162.9 281.3C161.9 282 163.3 303.2 170.9 299.8H171ZM185.2 328.8C193.6 325.6 195.7 308 194.8 307.8C194 307.4 189.9 310.9 188.8 314.6C189.1 308.4 188.2 302.5 187 302.9C185.1 303.3 185.3 313.1 184.1 314.5C183.1 315.1 180.2 309 179.2 309.5C178.2 310.2 177.2 331.3 185.2 328.7V328.8Z" fill="#008F00"/>
<path fill-rule="evenodd" clip-rule="evenodd" d="M203.742 358.835C201.612 362.48 194.877 362.81 188.617 359.47C182.358 356.131 179.117 350.479 181.247 346.834C183.376 343.19 190.16 342.886 196.371 346.199C202.582 349.513 205.871 355.191 203.742 358.835Z" fill="#FF1900" stroke="black" stroke-width="0.73025"/>
<path fill-rule="evenodd" clip-rule="evenodd" d="M365.322 236.746L366.375 234.026L369.214 234.92L370.268 232.2L373.106 233.094L372.067 235.776L374.987 236.695L373.918 239.453L370.998 238.534L368.371 245.314L365.533 244.421L368.16 237.64L365.322 236.746ZM359.225 260.701L362.064 261.595L331.563 340.318L328.725 339.424L359.225 260.701Z" fill="#FFFF00" stroke="black" stroke-width="0.250748"/>
<path fill-rule="evenodd" clip-rule="evenodd" d="M327.784 337.624L333.542 339.437L325.127 361.158L319.369 359.345L327.784 337.624ZM361.641 246.246L370.278 248.967C375.995 250.767 363.029 263.447 363.029 263.447L357.312 261.646C357.312 261.646 355.883 244.433 361.641 246.246ZM369.579 246.425C369.133 247.575 367.52 248.098 365.939 247.6C364.357 247.102 363.416 245.774 363.846 244.663C364.277 243.552 365.905 242.99 367.486 243.488C369.068 243.986 370.009 245.314 369.564 246.464L369.579 246.425Z" fill="#FFFF00" stroke="black" stroke-width="0.250748"/>
<path fill-rule="evenodd" clip-rule="evenodd" d="M332.478 348.987C334.89 352.468 332.107 358.338 326.13 362.12C320.153 365.903 313.411 366.062 310.998 362.581C308.586 359.101 311.417 353.202 317.347 349.448C323.277 345.695 330.066 345.507 332.478 348.987Z" fill="#FF1900" stroke="black" stroke-width="0.730307"/>
</g>
<defs>
<clipPath id="clip0_2_6061">
<rect width="512" height="512" fill="white"/>
</clipPath>
</defs>
</svg>
