<svg width="512" height="512" viewBox="0 0 512 512" fill="none" xmlns="http://www.w3.org/2000/svg">
<g clip-path="url(#clip0_2_6250)">
<path fill-rule="evenodd" clip-rule="evenodd" d="M0 0H511.9V512H0V0Z" fill="#3B5AA3"/>
<path fill-rule="evenodd" clip-rule="evenodd" d="M139 1.19995L133.7 89.2L110.5 33.0999L119.5 92.8L83.6 44.5999L107.1 99.6L60.1 63.0999L96.7 109L43.5 85.4L90.1 120.7L32.1 113L87 134.7L1 142.6L87 148.3L32.5 170.7L90 163L43.6 197.2L97.4 173.6L60.7 219.8L107.4 184.4L84 238.4L121.4 191.6L111.4 249.9L134.8 195.4L140.2 281.5L148.4 195.6L168.7 250.5L161 191.4L198.2 238.2L173.7 183.5L220.4 221.1L183.4 174.1L238.8 197.2L189.7 161.4L249.5 171.4L192.2 149.4L281.2 143.9L192.2 135.6L251 116L190.3 123.6L240.5 88.6L183.9 111.3L222.9 64L175.4 101.1L198.4 44.2999L161.4 92.6L169.4 32.2999L147.4 89.2L139.2 1.19995H139Z" fill="white"/>
<path fill-rule="evenodd" clip-rule="evenodd" d="M0 498.2L512 0V92.7L0 512V498.2Z" fill="#E2AE57"/>
<path fill-rule="evenodd" clip-rule="evenodd" d="M18 512L512 191.2L511.9 89.3L-0.0999756 512H17.9H18Z" fill="white"/>
</g>
<defs>
<clipPath id="clip0_2_6250">
<rect width="512" height="512" fill="white"/>
</clipPath>
</defs>
</svg>
