<svg width="512" height="512" viewBox="0 0 512 512" fill="none" xmlns="http://www.w3.org/2000/svg">
<g clip-path="url(#clip0_2_6274)">
<path d="M0 0H512V512H0V0Z" fill="#DA2032"/>
<path d="M170.7 0H341.3V512H170.7V0Z" fill="#0066B3"/>
<path d="M85.3001 231.6C104.63 231.6 120.3 215.93 120.3 196.6C120.3 177.27 104.63 161.6 85.3001 161.6C65.9701 161.6 50.3 177.27 50.3 196.6C50.3 215.93 65.9701 231.6 85.3001 231.6Z" fill="#FFD900"/>
<path d="M85.3 218.9C106.397 218.9 123.5 201.797 123.5 180.7C123.5 159.603 106.397 142.5 85.3 142.5C64.2027 142.5 47.1 159.603 47.1 180.7C47.1 201.797 64.2027 218.9 85.3 218.9Z" fill="#DA2032"/>
<path d="M85.3001 212.5C99.3833 212.5 110.8 201.083 110.8 187C110.8 172.917 99.3833 161.5 85.3001 161.5C71.2168 161.5 59.8 172.917 59.8 187C59.8 201.083 71.2168 212.5 85.3001 212.5Z" fill="#FFD900"/>
<path d="M88 104.3C86.6926 104.86 85.5683 105.775 84.7552 106.941C83.942 108.108 83.4725 109.48 83.4 110.9C83.2 113.1 84.2 115.5 84.3 117.6C84.3 121.3 80.5 122.5 80.5 127.7C80.5 129.5 82.2 131.5 82.2 136.1C81.9 138.6 80.5 139.1 79 139.3C78.1514 139.3 77.3374 138.963 76.7373 138.363C76.1372 137.763 75.8001 136.949 75.8001 136.1C75.8065 135.278 76.1287 134.491 76.7 133.9C76.7933 133.794 76.8935 133.693 77 133.6C77.7 132.9 78.7 132.6 78.7 130.6C78.7 129.6 78.1 128.8 77.5 127C77.2232 125.943 77.1872 124.837 77.3949 123.764C77.6026 122.69 78.0486 121.678 78.7 120.8C76.5 121.6 75.1001 123.8 74.4001 125.7C73.7001 128 74.3001 129.4 73.3001 131.4C72.7001 132.6 71.9001 133.1 71.3001 134.2C70.4001 135.4 69.5 138 69.5 139.3C69.9392 143.21 71.8034 146.82 74.7365 149.442C77.6695 152.064 81.4658 153.514 85.4 153.514C89.3343 153.514 93.1305 152.064 96.0636 149.442C98.9967 146.82 100.861 143.21 101.3 139.3C101.3 138 100.3 135.3 99.5 134.2C98.8 133.2 98 132.6 97.5 131.4C96.5 129.4 97.1 128 96.3 125.7C95.6 123.7 94.3 121.7 92 120.7C92.6835 121.581 93.156 122.607 93.3814 123.699C93.6067 124.791 93.5789 125.92 93.3 127C92.6 128.8 92 129.7 92 130.7C92 132.6 93 132.9 93.7 133.7C93.8037 133.761 93.9039 133.828 94 133.9C94.6081 134.474 94.9671 135.264 95 136.1C95.0003 136.529 94.9143 136.953 94.7473 137.348C94.5802 137.743 94.3355 138.1 94.0277 138.399C93.7199 138.697 93.3552 138.931 92.9554 139.086C92.5555 139.241 92.1286 139.313 91.7 139.3C90 139.1 88.7 138.3 88.5 136.1C88.5 130 91.2 129.6 91.2 125.1C91.2 118.6 85.4 115.5 85.4 110.8C85.4 109.2 85.7 106.5 88 104.3ZM15.3 237.9H47.2001V390.7H15.3V237.9ZM123.5 237.9H155.3V390.7H123.5V237.9ZM53.5 237.9H117.2L85.3 257L53.5 237.9ZM53.5 263.4H117.2V276H53.5V263.4ZM53.5 352.4H117.2V365.2H53.5V352.4ZM53.5 371.6H117.2L85.3 390.6L53.5 371.6Z" fill="#FFD900"/>
<path d="M85.3 346.1C102.863 346.1 117.1 331.863 117.1 314.3C117.1 296.737 102.863 282.5 85.3 282.5C67.7373 282.5 53.5 296.737 53.5 314.3C53.5 331.863 67.7373 346.1 85.3 346.1Z" fill="#FFD900"/>
<path d="M85.272 303.781C88.7866 303.781 91.6356 300.931 91.6356 297.417C91.6356 293.902 88.7866 291.053 85.272 291.053C81.7575 291.053 78.9084 293.902 78.9084 297.417C78.9084 300.931 81.7575 303.781 85.272 303.781Z" fill="#DA2032"/>
<path d="M85.272 337.508C88.7866 337.508 91.6356 334.659 91.6356 331.144C91.6356 327.629 88.7866 324.78 85.272 324.78C81.7575 324.78 78.9084 327.629 78.9084 331.144C78.9084 334.659 81.7575 337.508 85.272 337.508Z" fill="#DA2032"/>
<path d="M85.272 278.644C90.2508 278.644 95.0257 280.622 98.5463 284.143C102.067 287.663 104.045 292.438 104.045 297.417C104.045 302.396 102.067 307.171 98.5463 310.691C95.0257 314.212 90.2508 316.19 85.272 316.19C81.3058 316.19 77.5021 317.765 74.6976 320.57C71.8931 323.374 70.3175 327.178 70.3175 331.144C70.3175 335.11 71.8931 338.914 74.6976 341.718C77.5021 344.523 81.3058 346.098 85.272 346.098V349.917C80.2932 349.917 75.5183 347.939 71.9978 344.418C68.4772 340.898 66.4994 336.123 66.4994 331.144C66.4994 326.165 68.4772 321.39 71.9978 317.87C75.5183 314.349 80.2932 312.371 85.272 312.371C89.2382 312.371 93.0419 310.796 95.8464 307.991C98.6509 305.187 100.226 301.383 100.226 297.417C100.226 293.451 98.6509 289.647 95.8464 286.843C93.0419 284.038 89.2382 282.462 85.272 282.462V278.644Z" fill="#DA2032"/>
</g>
<defs>
<clipPath id="clip0_2_6274">
<rect width="512" height="512" fill="white"/>
</clipPath>
</defs>
</svg>
