<svg width="512" height="512" viewBox="0 0 512 512" fill="none" xmlns="http://www.w3.org/2000/svg">
<g clip-path="url(#clip0_2_6286)">
<path d="M0 0H512V512H0V0Z" fill="#00785E"/>
<path d="M272.5 147.4L256 96.5L239.5 147.5L282.8 116H229.2L272.5 147.4Z" fill="#FBD116"/>
<path d="M256 353.7H146.7C145.341 352.325 144.007 350.925 142.7 349.5H256C256.416 349.653 256.779 349.923 257.045 350.278C257.312 350.633 257.469 351.057 257.5 351.5C257.5 352.5 256.9 353.4 256 353.7ZM256 320.3C256.6 319 257.9 316 257.3 312.3C257.094 310.871 256.655 309.486 256 308.2C246.158 317.535 234.278 324.451 221.3 328.4C213.193 330.852 204.77 332.099 196.3 332.1H128.9C130.9 335.038 133.001 337.907 135.2 340.7H200.2C220.63 340.727 240.405 333.497 256 320.3ZM139.1 294C135.8 295.258 132.326 296 128.8 296.2C136.899 305.407 146.868 312.783 158.042 317.835C169.215 322.887 181.337 325.5 193.6 325.5C205.258 325.511 216.798 323.16 227.523 318.588C238.248 314.016 247.935 307.319 256 298.9C259.006 278.064 260.61 257.05 260.8 236C261.057 211.846 259.452 187.708 256 163.8C249 170.1 235.8 183.8 229.6 204.7C227.222 212.684 226.009 220.969 226 229.3C225.974 246.429 231.057 263.176 240.6 277.4C228.886 262.258 222.552 243.644 222.6 224.5C222.551 211.711 225.353 199.071 230.8 187.5C227.098 183.584 224.359 178.859 222.8 173.7C215.432 186.687 211.572 201.368 211.6 216.3C211.593 234.815 217.554 252.84 228.6 267.7C218.576 257.134 206.394 248.852 192.883 243.416C179.372 237.981 164.848 235.519 150.3 236.2C153.228 238.929 155.664 242.143 157.5 245.7C171.206 245.708 184.768 248.495 197.366 253.892C209.965 259.289 221.338 267.184 230.8 277.1C212.52 261.808 189.433 253.452 165.6 253.5C151.8 253.5 138.6 256.2 126.6 261.3C133.259 278.854 145.442 293.769 161.314 303.797C177.186 313.825 195.887 318.424 214.6 316.9C209.518 317.823 204.365 318.291 199.2 318.3C176.768 318.328 155.208 309.611 139.1 294ZM256 388.7H199.4C217.412 395.852 236.62 399.517 256 399.5C256.849 397.862 257.294 396.045 257.3 394.2C257.323 392.288 256.876 390.399 256 388.7ZM256 362.5H156.1C158.821 364.83 161.623 367.065 164.5 369.2H256C256.867 368.316 257.367 367.137 257.4 365.9C257.4 363.9 256.2 362.8 256 362.5ZM256 375.9H174.2C179.166 379.026 184.308 381.864 189.6 384.4H256C256.837 383.052 257.255 381.486 257.2 379.9C257.161 378.484 256.747 377.103 256 375.9Z" fill="white"/>
<path d="M155.6 211.7L148.6 175.3L132.9 208.9L165.3 190.9L128.5 186.4L155.6 211.7ZM204.9 152.9L175.3 130.6L186.1 166L198.2 131L167.9 152.3L204.9 152.9Z" fill="#FBD116"/>
<path d="M256 353.7H365.3C366.659 352.325 367.993 350.925 369.3 349.5H256C255.584 349.653 255.221 349.923 254.954 350.278C254.688 350.633 254.53 351.057 254.5 351.5C254.5 352.5 255.1 353.4 256 353.7ZM256 320.3C255.4 319 254.1 316 254.7 312.3C254.906 310.871 255.345 309.486 256 308.2C265.842 317.535 277.722 324.451 290.7 328.4C298.807 330.852 307.23 332.099 315.7 332.1H383.1C381.1 335.038 378.999 337.907 376.8 340.7H311.8C291.37 340.727 271.595 333.497 256 320.3ZM372.9 294C376.2 295.258 379.674 296 383.2 296.2C375.101 305.407 365.132 312.783 353.958 317.835C342.785 322.887 330.663 325.5 318.4 325.5C306.741 325.511 295.202 323.16 284.477 318.588C273.752 314.016 264.065 307.319 256 298.9C252.994 278.064 251.39 257.05 251.2 236C250.943 211.846 252.548 187.708 256 163.8C263 170.1 276.2 183.8 282.4 204.7C284.778 212.684 285.991 220.969 286 229.3C286.026 246.429 280.943 263.176 271.4 277.4C283.114 262.258 289.448 243.644 289.4 224.5C289.448 211.711 286.647 199.071 281.2 187.5C284.902 183.584 287.641 178.859 289.2 173.7C296.568 186.687 300.428 201.368 300.4 216.3C300.407 234.815 294.446 252.84 283.4 267.7C293.424 257.134 305.605 248.852 319.117 243.416C332.628 237.981 347.152 235.519 361.7 236.2C358.771 238.929 356.336 242.143 354.5 245.7C340.794 245.708 327.232 248.495 314.634 253.892C302.035 259.289 290.662 267.184 281.2 277.1C299.48 261.808 322.567 253.452 346.4 253.5C360.2 253.5 373.4 256.2 385.4 261.3C378.741 278.854 366.558 293.769 350.686 303.797C334.814 313.825 316.113 318.424 297.4 316.9C302.481 317.823 307.635 318.291 312.8 318.3C335.232 318.328 356.792 309.611 372.9 294ZM256 388.7H312.6C294.588 395.852 275.38 399.517 256 399.5C255.151 397.862 254.706 396.045 254.7 394.2C254.677 392.288 255.124 390.399 256 388.7ZM256 362.5H355.9C353.179 364.83 350.377 367.065 347.5 369.2H256C255.133 368.316 254.633 367.137 254.6 365.9C254.6 363.9 255.8 362.8 256 362.5ZM256 375.9H337.8C332.834 379.026 327.692 381.864 322.4 384.4H256C255.162 383.052 254.745 381.486 254.8 379.9C254.839 378.484 255.253 377.103 256 375.9Z" fill="white"/>
<path d="M356.4 211.7L363.4 175.3L379.1 208.9L346.7 190.9L383.5 186.4L356.4 211.7ZM307.1 152.9L336.7 130.6L325.9 166L313.8 131L344.1 152.3L307.1 152.9Z" fill="#FBD116"/>
</g>
<defs>
<clipPath id="clip0_2_6286">
<rect width="512" height="512" fill="white"/>
</clipPath>
</defs>
</svg>
