<svg width="512" height="512" viewBox="0 0 512 512" fill="none" xmlns="http://www.w3.org/2000/svg">
<g clip-path="url(#clip0_2_6295)">
<mask id="mask0_2_6295" style="mask-type:luminance" maskUnits="userSpaceOnUse" x="-1" y="0" width="513" height="512">
<path d="M-0.0393066 0H511.882V511.922H-0.0393066V0Z" fill="white"/>
</mask>
<g mask="url(#mask0_2_6295)">
<path fill-rule="evenodd" clip-rule="evenodd" d="M-256 0H767.946V511.922H-256V0Z" fill="#0071BC"/>
<path fill-rule="evenodd" clip-rule="evenodd" d="M315.164 404.996C315.164 404.996 333.226 385.902 350.565 389.514C355.726 369.492 375.439 367.84 375.439 367.84C375.439 367.84 373.478 345.65 398.661 340.799C399.383 325.731 414.658 313.139 414.658 313.139C414.658 313.139 411.562 289.814 427.56 284.343C417.755 265.766 430.862 252.348 430.656 251.936C430.45 251.523 414.142 222.521 428.695 214.264C413.214 201.259 418.374 186.397 418.374 186.397C418.374 186.397 401.448 182.166 407.537 161.936C393.707 159.563 390.92 137.166 390.92 137.166C390.92 137.166 369.452 141.398 366.975 122.82C352.836 125.09 351.288 111.157 351.081 111.157C350.978 111.157 323.214 118.691 317.641 97.7398C306.907 103.21 302.16 93.3018 302.16 93.3018C302.16 93.3018 286.678 100.939 277.492 86.1803C259.121 97.6366 248.903 85.6643 248.903 85.6643C248.903 85.6643 224.752 101.662 216.805 89.2766C202.562 103.726 189.867 97.5334 189.867 97.5334C189.867 97.5334 179.133 116.524 161.691 111.673C157.769 129.425 137.746 129.735 137.746 129.735C137.746 129.735 139.81 145.423 115.866 149.551C112.769 167.923 100.281 171.122 100.281 171.122C100.281 171.122 101.519 188.977 90.1662 194.654C94.2946 204.769 83.7672 217.051 83.7672 217.051C83.7672 217.051 94.9139 231.19 79.742 246.672C94.3978 250.491 83.8704 275.674 83.8704 275.674C83.8704 275.674 103.893 284.756 91.1983 301.476C105.648 306.018 101.107 317.577 101.313 324.286C110.602 328.414 118.652 326.35 114.73 344.928C143.01 348.024 129.592 363.712 129.592 363.712C129.592 363.712 142.803 364.228 137.643 374.652C161.691 374.136 165.2 392.714 165.2 392.714C165.2 392.714 187.596 386.831 190.59 395.501C193.479 404.17 180.785 462.587 180.785 462.587C180.785 462.587 161.897 462.587 147.757 447.519C114.833 446.693 122.161 425.019 121.645 425.019C121.129 425.019 110.705 428.941 105.338 410.879C83.2512 415.42 83.9736 396.842 83.7672 396.636C83.5608 396.533 73.8591 392.198 77.5746 383.012C54.8684 385.076 56.5198 362.886 56.5198 362.886C51.5657 360.822 49.7079 356.178 50.4304 351.533C47.5405 350.501 27.3114 350.191 37.7356 323.667C18.5385 312.004 30.5109 298.586 30.5109 298.586C30.5109 298.586 3.88268 284.86 24.3183 269.068C9.2496 246.672 25.7632 235.319 25.7632 235.319C25.7632 235.319 4.60513 213.851 26.0728 198.576C22.5637 165.858 42.0704 158.118 42.0704 158.118C42.0704 158.118 31.7494 131.593 59.6161 120.446C61.3706 93.6114 80.7741 92.7858 80.7741 92.7858C80.7741 92.7858 81.2902 71.4213 111.737 73.5887C117.723 54.4948 138.572 58.3136 138.572 58.3136C138.572 58.3136 144.971 35.1946 173.25 46.3413C187.7 18.1649 209.064 32.6143 209.064 32.6143C209.064 32.6143 222.585 23.7383 229.397 26.4217C237.963 11.7659 256.231 25.9057 268.1 28.7956C272.435 27.1442 287.71 15.5847 299.476 30.1373C315.164 19.8163 328.478 38.3941 328.478 38.3941C328.478 38.3941 350.049 27.3506 360.06 52.4306C405.782 48.3022 399.177 78.1299 399.177 78.1299C399.177 78.1299 435.094 69.8731 427.25 105.687C459.968 107.958 456.665 129.425 456.665 129.425C456.665 129.425 477.307 145.113 468.224 159.15C486.596 159.975 479.887 177.728 479.887 177.728C479.887 177.728 493.924 183.094 482.261 204.975C509.199 226.546 487.422 247.807 487.422 247.704C487.112 247.498 501.768 265.043 488.557 285.169C492.582 317.164 476.378 325.318 476.378 325.318C476.378 325.318 480.506 345.96 462.548 351.843C462.135 376.097 439.222 379.09 439.222 379.09C439.222 379.09 445.415 389.618 422.606 400.764C421.677 417.072 397.938 418.31 397.938 418.31C397.938 418.31 395.668 448.241 365.427 440.191C358.203 464.135 322.802 457.014 322.079 456.704C321.357 456.395 315.267 405.306 315.267 405.099L315.164 404.996Z" fill="white" stroke="black" stroke-width="1.96099"/>
<path fill-rule="evenodd" clip-rule="evenodd" d="M95.843 118.485C95.843 118.485 103.48 125.091 102.036 134.999C100.591 144.907 94.9141 158.634 96.0494 168.852C96.7719 172.98 96.4622 180.308 96.4622 180.308C96.4622 180.308 89.6503 170.606 89.5471 160.182C89.4439 149.758 96.9783 139.85 96.9783 132.109C96.9783 124.368 95.6365 118.382 95.843 118.485ZM92.0242 121.478C92.0242 121.478 82.116 130.973 80.8775 140.159C79.8454 144.907 79.5358 166.994 79.4326 176.902L77.678 196.099C77.3684 200.434 84.9027 188.668 85.4187 179.173C85.0041 167.918 85.2453 156.649 86.1412 145.423C87.0701 141.294 86.8637 136.856 88.2054 132.831L92.0242 121.478Z" fill="#217900" stroke="black" stroke-width="1.96099" stroke-linejoin="round"/>
<path fill-rule="evenodd" clip-rule="evenodd" d="M310.52 90.5152C310.52 90.5152 323.421 84.529 327.033 73.4856C330.646 62.4421 315.887 62.3389 313.926 65.848C311.965 69.3572 315.577 78.13 314.648 80.4006C313.719 82.7745 308.456 88.3478 310.52 90.5152Z" fill="#FFD200" stroke="#EF8A10" stroke-width="1.96099"/>
<path fill-rule="evenodd" clip-rule="evenodd" d="M196.369 94.5404C196.369 94.5404 204.729 83.0841 202.562 71.6278C200.498 60.1715 187.39 67.293 187.39 71.3182C187.39 75.3434 194.821 81.2263 195.131 83.7034C195.441 86.1804 193.583 93.6115 196.369 94.5404ZM173.766 101.352C173.766 101.352 182.126 89.896 179.959 78.4397C177.895 66.9834 164.787 74.1049 164.787 78.13C164.787 82.1552 172.218 88.0382 172.528 90.5152C172.838 92.9923 170.98 100.423 173.766 101.352ZM148.686 109.093C148.686 109.093 157.046 97.6367 154.879 86.1804C152.815 74.7241 139.707 81.8456 139.707 85.8708C139.707 89.896 147.138 95.779 147.448 98.256C147.758 100.733 145.9 108.164 148.686 109.093ZM131.141 126.639C131.141 126.639 139.398 115.286 137.333 103.829C135.063 92.373 122.058 99.4945 122.058 103.52C122.058 107.545 129.489 113.428 129.799 115.905C130.109 118.382 128.251 125.813 131.038 126.742L131.141 126.639ZM112.563 143.772C112.563 143.772 120.82 132.315 118.756 120.859C116.485 109.403 103.48 116.524 103.48 120.549C103.48 124.575 110.912 130.458 111.221 132.935C111.531 135.412 109.673 142.843 112.46 143.772H112.563Z" fill="#FFD200" stroke="#EF8A10" stroke-width="2.68346"/>
<path fill-rule="evenodd" clip-rule="evenodd" d="M155.189 44.5867C155.189 44.5867 144.042 53.3596 143.113 64.9191C142.081 76.5818 156.53 73.1759 157.562 69.3571C158.595 65.4352 153.124 57.7976 153.434 55.3206C153.847 52.8435 157.562 46.2381 155.189 44.5867ZM192.344 33.1304C192.344 33.1304 181.198 41.9033 180.165 53.4628C179.133 65.1255 193.583 61.7196 194.718 57.9008C195.75 53.9789 190.28 46.3413 190.59 43.8643C191.003 41.3872 194.718 34.7818 192.344 33.1304ZM53.9396 133.347C53.9396 133.347 56.2102 147.384 65.912 153.783C75.6137 160.182 79.6389 146.042 76.749 143.152C73.8592 140.262 64.4671 141.604 62.5061 140.056C60.4419 138.611 56.5199 132.006 53.9396 133.347ZM35.3618 180.824C35.3618 180.824 35.4651 195.067 44.0315 202.911C52.5979 210.858 58.7905 197.441 56.4167 194.138C54.0429 190.835 44.5475 190.629 42.7929 188.874C41.0384 187.017 38.1485 179.998 35.3618 180.824ZM78.194 233.874C78.194 233.874 73.0335 220.663 62.2996 216.328C51.5658 211.89 50.4305 226.649 53.8364 228.713C57.1392 230.984 66.2216 227.991 68.389 229.023C70.6596 230.055 75.8201 235.732 78.194 233.874ZM69.2147 210.961C69.2147 210.961 77.8844 199.608 75.9234 188.255C73.9624 176.696 60.8547 183.611 60.7515 187.636C60.7515 191.661 67.9762 197.647 68.2858 200.124C68.4923 202.601 66.5313 210.032 69.3179 210.961H69.2147ZM336.941 101.972C336.941 101.972 349.739 95.9853 353.455 84.9419C357.171 73.8984 342.308 73.7952 340.347 77.3043C338.386 80.8135 341.999 89.5863 341.07 91.8569C340.141 94.2308 334.877 99.8041 336.941 101.972ZM375.852 121.375C375.852 121.375 383.386 109.403 380.496 98.0495C377.606 86.7996 365.015 94.7468 365.324 98.772C365.634 102.9 373.375 108.164 373.891 110.641C374.407 113.118 372.962 120.653 375.852 121.375ZM482.158 231.706C482.158 231.706 476.997 218.496 466.264 214.058C455.427 209.62 454.394 224.379 457.697 226.649C461.103 228.713 470.082 225.72 472.353 226.856C474.624 227.888 479.784 233.564 482.158 231.706ZM430.14 239.963C430.14 239.963 430.45 225.72 439.119 217.98C447.789 210.136 453.775 223.656 451.401 226.856C448.924 230.055 439.429 230.262 437.674 232.016C435.92 233.874 432.927 240.892 430.14 239.963ZM421.78 89.5863C421.78 89.5863 408.569 84.529 398.042 89.5863C387.514 94.6436 397.835 105.481 401.757 104.345C405.679 103.313 409.292 94.6436 411.666 93.6115C413.936 92.6826 421.574 92.5794 421.78 89.5863ZM391.436 64.1966C391.436 64.1966 378.225 59.1394 367.698 64.1966C357.274 69.3571 367.492 80.091 371.414 78.9557C375.336 77.9236 379.051 69.2539 381.322 68.2218C383.592 67.2929 391.333 67.1897 391.436 64.1966ZM346.23 39.9423C346.23 39.9423 334.98 48.6119 333.845 60.2747C332.813 71.8342 347.262 68.6347 348.295 64.8159C349.43 60.8939 343.96 53.2564 344.373 50.7793C344.785 48.3023 348.604 41.6969 346.23 40.0455V39.9423ZM316.712 33.0272C316.712 33.0272 311.552 46.2381 316.609 56.7655C321.666 67.2929 332.4 56.9719 331.368 53.1532C330.336 49.3344 321.563 45.5156 320.634 43.1418C319.705 40.8712 319.602 33.2336 316.712 33.0272ZM233.112 83.9098C233.112 83.9098 242.298 73.1759 240.956 61.5132C239.614 49.9537 226.094 56.1463 225.784 60.1715C225.578 64.1966 232.493 70.4925 232.699 73.0727C232.699 75.5497 230.429 82.7744 233.112 83.9098Z" fill="#FFD200" stroke="#EF8A10" stroke-width="1.96099"/>
<path fill-rule="evenodd" clip-rule="evenodd" d="M282.963 107.029C282.963 107.029 304.946 108.474 306.082 121.065C307.217 133.657 300.818 141.295 300.818 141.295C300.818 141.295 303.605 168.542 282.034 176.489C259.018 179.276 222.894 177.108 222.894 177.108C222.894 177.108 212.367 179.792 208.032 157.808C203.697 135.824 202.459 120.24 202.459 120.24C202.459 120.24 204.626 107.958 220.108 107.235C235.589 106.41 282.859 107.338 283.066 107.029H282.963Z" fill="#8C8A8C" stroke="black" stroke-width="1.96099"/>
<path d="M300.715 141.191C300.715 141.191 288.845 155.95 290.084 161.833" stroke="black" stroke-width="1.96099" stroke-linecap="round"/>
<path fill-rule="evenodd" clip-rule="evenodd" d="M284.82 175.767C287.71 178.244 290.497 180.927 291.116 190.01L292.355 208.175L307.733 346.476L321.254 446.487L322.183 461.968C322.183 461.968 318.983 473.321 309.797 474.353C303.295 488.08 267.481 492.105 263.972 491.899C260.773 491.796 249.316 487.048 242.401 487.667C235.486 488.287 223.514 492.828 218.147 492.105C212.78 491.383 200.601 487.151 198.537 478.378C183.468 473.631 180.991 462.174 180.991 462.174L197.298 346.476L213.09 200.124C213.09 200.124 214.947 180.618 222.791 177.728C230.945 177.005 273.055 178.553 284.82 175.663V175.767Z" fill="#8C8A8C" stroke="black" stroke-width="1.96099"/>
<path d="M201.84 375.994L198.64 478.275M301.334 389.515L310.313 473.837" stroke="black" stroke-width="1.96099"/>
<path d="M38.4582 322.738L38.0454 323.976M463.477 319.125L463.787 320.157" stroke="black" stroke-width="1.0321"/>
<path d="M27.0019 184.643C27.0019 184.643 33.8138 193.932 34.9491 199.299C36.1876 204.666 38.4582 215.193 41.3481 219.528C44.3412 223.759 60.958 247.807 61.9901 257.819C61.9901 264.321 54.9718 275.571 44.4444 275.777C37.9422 275.571 21.0157 271.236 20.2933 256.787C19.5708 242.337 25.4538 241.924 26.1762 233.048C26.8987 224.275 27.0019 184.849 27.0019 184.54V184.643Z" stroke="#6B18B5" stroke-width="1.96099" stroke-linejoin="round"/>
<path d="M142.7 57.7977C142.7 57.7977 135.682 58.2105 130.315 61.1004C126.187 63.6806 119.168 67.293 114.214 74.208C101.726 83.9098 82.8384 88.451 76.9554 96.6046C73.343 102.075 73.5494 115.389 82.5287 120.962C88.2053 124.265 104.925 129.322 112.976 117.35C121.232 105.274 116.278 101.868 120.2 94.0244C126.909 75.9626 142.597 57.9009 142.7 57.6944V57.7977ZM311.655 40.0455C311.655 40.0455 306.494 35.2979 300.611 33.5433C295.864 32.3048 288.02 32.8208 279.866 31.9952C264.075 29.8277 247.871 18.4746 237.963 19.8164C231.564 21.1581 222.172 30.5502 224.339 40.768C225.887 47.167 233.009 60.0683 247.355 57.488C261.598 55.011 261.495 51.8115 269.958 49.2312C290.497 37.6717 311.448 39.9423 311.655 39.9423V40.0455ZM479.268 202.911C480.506 200.227 478.236 195.273 476.791 189.287C475.243 184.643 473.075 177.418 467.605 171.019C461.103 156.57 462.238 136.65 455.839 129.013C451.298 124.162 438.294 121.169 430.759 128.496C426.218 133.244 417.342 148.21 427.044 159.047C436.745 169.781 440.977 165.755 447.686 171.432C463.683 182.166 471.424 200.95 479.268 202.911ZM473.695 329.653C475.759 326.556 479.784 320.88 479.268 316.029C478.958 312.107 481.023 300.548 481.332 295.387C482.777 279.699 492.685 266.798 489.899 253.071C488.35 246.775 478.958 237.589 468.844 240.273C462.548 242.234 448.615 249.871 451.814 264.011C455.014 278.254 459.555 277.945 462.651 286.305C471.321 303.437 465.747 323.77 473.695 329.653Z" stroke="#6B18B5" stroke-width="1.0321" stroke-linejoin="round"/>
<path d="M357.377 430.179C357.377 430.179 354.694 435.34 365.427 439.778M378.845 418C378.845 418 390.714 415.111 398.764 418M414.452 387.863C414.452 388.07 412.801 393.23 422.296 400.661M421.264 374.446C421.264 374.446 428.282 379.606 440.048 379.4M350.565 389.515C350.565 389.515 350.978 403.138 343.96 409.537M374.097 368.46C374.097 368.46 385.553 371.35 395.049 366.602M447.995 348.54C447.995 348.54 450.472 352.049 463.271 351.43M398.248 340.49C398.558 340.696 413.214 345.444 422.503 341.109M427.457 284.344C427.457 284.344 428.076 283.621 432.617 299.515M438.81 239.654C438.81 239.654 438.19 248.117 431.379 251.832M482.261 205.078C482.261 205.078 472.353 213.129 474.211 216.431M432.927 199.299C432.927 199.299 438.087 207.968 429.727 213.954M408.053 162.246C408.053 162.246 416.929 161.833 420.851 169.471M391.333 137.063H398.145M426.631 106.1C426.631 106.41 428.489 108.061 424.98 111.57M363.363 107.029C363.363 107.029 368.111 114.46 367.285 123.542M390.714 81.8456C392.778 81.6391 399.796 78.5428 399.796 78.5428M360.267 52.3275C360.06 52.3275 357.583 61.6164 362.125 64.9191M348.811 94.6436C348.811 104.552 356.655 102.075 351.288 111.57M329.614 86.3868C325.045 89.5815 320.885 93.3251 317.228 97.5335M297.928 81.2263C297.928 81.2263 303.089 86.3868 301.85 93.4051M282.859 77.0979C282.859 77.0979 280.176 84.9419 276.667 87.0061M255.406 75.0337C255.199 75.4465 251.071 84.3226 248.181 85.974M217.94 75.2401C218.147 75.2401 222.069 83.4969 216.908 89.4831M209.271 32.6144C209.477 32.8208 210.096 39.0134 206.174 44.3803M172.115 46.6509C172.115 46.8574 173.87 53.6692 162.826 55.9398M151.37 109.403C151.576 109.815 161.897 111.467 161.897 111.467M125.671 133.244C129.813 131.873 133.976 130.565 138.159 129.322M105.648 148.726C106.061 148.726 114.317 150.171 116.382 149.138M99.8681 156.363C99.8681 156.363 102.552 157.808 100.281 171.638M59.6162 120.033L64.6735 127.464M42.793 158.221C42.793 158.015 47.7471 165.652 54.3525 167.097M81.7031 197.028C81.9096 197.028 89.7535 195.273 90.992 194.448M78.194 224.998C78.4004 224.998 77.9876 219.837 84.3866 216.328M69.7308 237.796C69.7308 238.002 75.717 245.433 79.8454 246.465M66.2217 251.936C66.8409 251.729 73.2399 246.156 80.671 246.569M64.1575 271.133C64.1575 271.133 64.3638 277.532 83.3545 275.88M66.0152 293.736C66.0152 293.529 71.5886 280.938 82.9417 276.19M81.2903 309.836C81.2903 309.836 82.9417 304.469 92.437 300.754M91.8177 330.994C91.8177 330.994 98.6296 325.421 101.107 324.595M100.281 347.508C100.281 347.508 104.409 351.843 114.73 344.412M50.5337 350.914C51.7722 350.708 66.7377 347.198 71.8982 355.042M56.4167 363.299C56.4167 363.299 72.311 361.235 74.3752 362.886M113.182 366.602C113.182 366.602 111.118 370.937 130.728 363.712M137.437 374.446C133.927 380.329 138.262 385.076 133.721 387.863M77.9876 382.703C78.5036 382.187 85.2123 379.916 84.1802 370.524M83.8705 396.842C84.6962 396.636 95.6365 391.888 97.9071 394.365M105.235 410.776C105.235 410.776 106.68 401.074 109.776 400.042M121.645 425.432C121.645 425.432 130.728 425.225 134.65 422.335M139.191 392.611C139.398 392.817 147.654 397.152 165.2 392.817M145.797 432.037C145.797 432.037 148.274 444.525 148.067 447.519" stroke="black" stroke-width="1.96099"/>
<path fill-rule="evenodd" clip-rule="evenodd" d="M462.364 238.594C461.873 234.662 459.855 230.921 457.319 229.241C454.378 227.413 451.325 227.794 449.305 230.243C447.286 232.692 446.035 236.642 446.527 240.574C447.043 244.702 449.036 248.246 451.596 250.123C454.538 251.951 457.591 251.57 459.61 249.121C461.63 246.672 463.071 242.699 462.389 238.791L462.364 238.594Z" fill="#DE2010" stroke="black" stroke-width="2.60249"/>
<path fill-rule="evenodd" clip-rule="evenodd" d="M460.609 217.642C460.118 213.711 458.1 209.969 455.565 208.29C452.623 206.461 449.57 206.843 447.551 209.291C445.531 211.74 444.281 215.69 444.772 219.622C445.288 223.75 447.282 227.295 449.842 229.171C452.783 231 455.836 230.618 457.856 228.169C459.875 225.721 461.316 221.747 460.634 217.839L460.609 217.642Z" fill="#DE2010" stroke="black" stroke-width="2.60249"/>
<path fill-rule="evenodd" clip-rule="evenodd" d="M456.295 195.37C455.46 191.496 453.121 187.947 450.448 186.497C447.357 184.934 444.349 185.582 442.553 188.199C440.756 190.815 439.858 194.86 440.693 198.733C441.57 202.8 443.867 206.156 446.582 207.8C449.673 209.363 452.681 208.715 454.477 206.098C456.273 203.481 457.36 199.396 456.337 195.563L456.295 195.37Z" fill="#DE2010" stroke="black" stroke-width="2.60249"/>
<path fill-rule="evenodd" clip-rule="evenodd" d="M448.577 172.026C446.782 168.493 443.615 165.658 440.661 164.937C437.273 164.213 434.53 165.607 433.46 168.595C432.39 171.583 432.553 175.723 434.348 179.256C436.232 182.965 439.309 185.624 442.353 186.522C445.741 187.245 448.483 185.851 449.553 182.863C450.624 179.875 450.633 175.648 448.666 172.203L448.577 172.026Z" fill="#DE2010" stroke="black" stroke-width="2.60249"/>
<path fill-rule="evenodd" clip-rule="evenodd" d="M440.32 153.242C438.525 149.709 435.359 146.873 432.404 146.152C429.017 145.429 426.274 146.823 425.204 149.811C424.134 152.799 424.296 156.939 426.091 160.471C427.975 164.181 431.052 166.84 434.096 167.737C437.484 168.461 440.227 167.067 441.297 164.079C442.367 161.091 442.376 156.864 440.41 153.418L440.32 153.242Z" fill="#DE2010" stroke="black" stroke-width="2.60249"/>
<path fill-rule="evenodd" clip-rule="evenodd" d="M428.604 134.422C426.516 131.054 423.121 128.497 420.116 128.029C416.68 127.595 414.065 129.216 413.251 132.284C412.438 135.352 412.951 139.463 415.038 142.831C417.23 146.367 420.521 148.756 423.63 149.393C427.067 149.827 429.682 148.206 430.495 145.138C431.308 142.07 430.959 137.857 428.708 134.591L428.604 134.422Z" fill="#DE2010" stroke="black" stroke-width="2.60249"/>
<path fill-rule="evenodd" clip-rule="evenodd" d="M415.484 116.241C413.081 113.091 409.454 110.874 406.418 110.698C402.955 110.598 400.509 112.464 399.997 115.597C399.484 118.729 400.391 122.772 402.795 125.922C405.318 129.23 408.825 131.289 411.981 131.622C415.443 131.722 417.89 129.856 418.402 126.724C418.915 123.591 418.161 119.432 415.604 116.399L415.484 116.241Z" fill="#DE2010" stroke="black" stroke-width="2.60249"/>
<path fill-rule="evenodd" clip-rule="evenodd" d="M399.883 99.4024C397.048 96.6338 393.139 94.9657 390.109 95.2322C386.669 95.6354 384.519 97.8365 384.466 101.01C384.413 104.184 385.897 108.052 388.731 110.821C391.708 113.728 395.476 115.257 398.647 115.129C402.087 114.726 404.237 112.525 404.29 109.351C404.343 106.178 402.994 102.172 400.025 99.5408L399.883 99.4024Z" fill="#DE2010" stroke="black" stroke-width="2.6025"/>
<path fill-rule="evenodd" clip-rule="evenodd" d="M382.295 83.7484C379.217 81.2523 375.171 79.9509 372.179 80.495C368.79 81.2129 366.852 83.6024 367.091 86.7673C367.33 89.9323 369.163 93.6478 372.24 96.1439C375.472 98.7648 379.364 99.9414 382.511 99.5222C385.899 98.8042 387.837 96.4148 387.598 93.2498C387.359 90.0848 385.647 86.22 382.449 83.8732L382.295 83.7484Z" fill="#DE2010" stroke="black" stroke-width="2.60249"/>
<path fill-rule="evenodd" clip-rule="evenodd" d="M363.628 71.3275C360.179 69.3769 355.973 68.7653 353.112 69.7986C349.89 71.0691 348.375 73.7472 349.136 76.8286C349.898 79.91 352.322 83.2695 355.771 85.2201C359.393 87.2683 363.427 87.7824 366.46 86.8466C369.682 85.5761 371.196 82.8981 370.435 79.8166C369.674 76.7352 367.344 73.2083 363.801 71.4251L363.628 71.3275Z" fill="#DE2010" stroke="black" stroke-width="2.60249"/>
<path fill-rule="evenodd" clip-rule="evenodd" d="M342.743 60.3537C339.131 58.7251 334.886 58.4989 332.132 59.7883C329.038 61.3468 327.774 64.1516 328.812 67.151C329.851 70.1503 332.571 73.2752 336.183 74.9038C339.976 76.6138 344.04 76.7586 346.975 75.5507C350.068 73.9922 351.333 71.1873 350.295 68.188C349.256 65.1886 346.615 61.8884 342.924 60.4351L342.743 60.3537Z" fill="#DE2010" stroke="black" stroke-width="2.60249"/>
<path fill-rule="evenodd" clip-rule="evenodd" d="M322.324 52.0638C318.611 50.681 314.36 50.7399 311.698 52.211C308.717 53.9733 307.643 56.8566 308.88 59.7796C310.117 62.7026 313.041 65.6381 316.754 67.0208C320.653 68.4727 324.718 68.3447 327.565 66.9428C330.547 65.1804 331.621 62.2971 330.384 59.3741C329.147 56.4512 326.29 53.3355 322.51 52.1329L322.324 52.0638Z" fill="#DE2010" stroke="black" stroke-width="2.60249"/>
<path fill-rule="evenodd" clip-rule="evenodd" d="M301.573 45.5219C297.765 44.4265 293.532 44.8096 290.99 46.4795C288.151 48.4643 287.301 51.4212 288.757 54.2413C290.214 57.0613 293.353 59.7651 297.161 60.8605C301.159 62.0106 305.202 61.5728 307.935 59.9576C310.773 57.9728 311.624 55.0159 310.167 52.1959C308.711 49.3758 305.625 46.4872 301.763 45.5766L301.573 45.5219Z" fill="#DE2010" stroke="black" stroke-width="2.6025"/>
<path fill-rule="evenodd" clip-rule="evenodd" d="M278.64 41.6482C274.709 41.1524 270.585 42.1828 268.33 44.2243C265.831 46.6226 265.446 49.6751 267.32 52.2372C269.193 54.7993 272.711 56.9874 276.643 57.4833C280.771 58.0039 284.698 56.9486 287.149 54.9319C289.648 52.5337 290.033 49.4811 288.159 46.919C286.286 44.3569 282.792 41.978 278.836 41.673L278.64 41.6482Z" fill="#DE2010" stroke="black" stroke-width="2.60249"/>
<path fill-rule="evenodd" clip-rule="evenodd" d="M256.08 40.4306C252.121 40.2716 248.1 41.6498 246.028 43.876C243.742 46.4785 243.618 49.5528 245.703 51.9459C247.788 54.339 251.48 56.2193 255.44 56.3783C259.597 56.5453 263.42 55.1592 265.69 52.9409C267.976 50.3384 268.099 47.2641 266.014 44.871C263.929 42.4779 260.245 40.4054 256.278 40.4386L256.08 40.4306Z" fill="#DE2010" stroke="black" stroke-width="2.6025"/>
<path fill-rule="evenodd" clip-rule="evenodd" d="M235.335 41.0499C231.375 40.8909 227.354 42.269 225.282 44.4952C222.997 47.0978 222.873 50.172 224.958 52.5652C227.043 54.9583 230.735 56.8386 234.694 56.9976C238.851 57.1645 242.674 55.7784 244.945 53.5602C247.23 50.9577 247.354 47.8834 245.269 45.4903C243.184 43.0971 239.5 41.0247 235.533 41.0578L235.335 41.0499Z" fill="#DE2010" stroke="black" stroke-width="2.6025"/>
<path fill-rule="evenodd" clip-rule="evenodd" d="M211.163 44.0337C207.3 44.9167 203.78 47.2994 202.363 49.9904C200.838 53.1004 201.524 56.0998 204.163 57.8637C206.801 59.6275 210.857 60.4758 214.719 59.5929C218.775 58.6657 222.102 56.3272 223.713 53.5921C225.237 50.482 224.552 47.4827 221.913 45.7188C219.274 43.9549 215.176 42.9191 211.356 43.9896L211.163 44.0337Z" fill="#DE2010" stroke="black" stroke-width="2.60249"/>
<path fill-rule="evenodd" clip-rule="evenodd" d="M189.074 49.5214C185.297 50.72 181.986 53.3849 180.796 56.1836C179.533 59.4089 180.463 62.3414 183.239 63.8816C186.014 65.4219 190.125 65.9328 193.902 64.7342C197.868 63.4757 200.991 60.8707 202.37 58.012C203.633 54.7868 202.702 51.8542 199.927 50.314C197.151 48.7738 192.982 48.0796 189.263 49.4615L189.074 49.5214Z" fill="#DE2010" stroke="black" stroke-width="2.6025"/>
<path fill-rule="evenodd" clip-rule="evenodd" d="M168.961 58.2226C165.354 59.8625 162.383 62.9028 161.535 65.8234C160.665 69.1761 161.938 71.9769 164.877 73.1756C167.816 74.3743 171.959 74.3918 175.566 72.7519C179.354 71.03 182.144 68.0717 183.173 65.0691C184.043 61.7164 182.769 58.9155 179.831 57.7169C176.892 56.5182 172.669 56.3256 169.141 58.1406L168.961 58.2226Z" fill="#DE2010" stroke="black" stroke-width="2.60248"/>
<path fill-rule="evenodd" clip-rule="evenodd" d="M148.882 68.4991C145.428 70.4408 142.727 73.7235 142.131 76.7058C141.551 80.1205 143.058 82.8025 146.089 83.7461C149.119 84.6896 153.249 84.3537 156.703 82.412C160.329 80.3733 162.857 77.1877 163.626 74.1083C164.207 70.6936 162.699 68.0116 159.668 67.068C156.638 66.1244 152.414 66.2927 149.054 68.402L148.882 68.4991Z" fill="#DE2010" stroke="black" stroke-width="2.60248"/>
<path fill-rule="evenodd" clip-rule="evenodd" d="M129.918 81.3574C126.695 83.6629 124.367 87.2195 124.099 90.249C123.893 93.7065 125.683 96.2088 128.798 96.8175C131.913 97.4263 135.981 96.6436 139.204 94.3381C142.588 91.9173 144.754 88.4759 145.184 85.3312C145.39 81.8736 143.6 79.3713 140.485 78.7626C137.37 78.1539 133.189 78.7802 130.079 81.2421L129.918 81.3574Z" fill="#DE2010" stroke="black" stroke-width="2.60249"/>
<path fill-rule="evenodd" clip-rule="evenodd" d="M112.313 94.6504C109.297 97.2204 107.279 100.961 107.267 104.003C107.354 107.465 109.35 109.807 112.505 110.15C115.661 110.493 119.648 109.369 122.664 106.799C125.831 104.1 127.699 100.488 127.861 97.3181C127.774 93.8555 125.778 91.5137 122.623 91.1708C119.467 90.8279 115.355 91.8056 112.464 94.5219L112.313 94.6504Z" fill="#DE2010" stroke="black" stroke-width="2.60248"/>
<path fill-rule="evenodd" clip-rule="evenodd" d="M96.8145 110.889C93.9905 113.669 92.2457 117.545 92.4524 120.579C92.7877 124.027 94.9459 126.219 98.1178 126.335C101.29 126.451 105.187 125.044 108.011 122.264C110.976 119.346 112.579 115.609 112.514 112.435C112.179 108.988 110.02 106.795 106.848 106.679C103.677 106.564 99.6448 107.834 96.9557 110.75L96.8145 110.889Z" fill="#DE2010" stroke="black" stroke-width="2.60249"/>
<path fill-rule="evenodd" clip-rule="evenodd" d="M83.5084 128.935C80.927 131.941 79.5127 135.95 79.9727 138.956C80.5953 142.364 82.9296 144.368 86.1 144.218C89.2705 144.068 93.0358 142.339 95.6172 139.333C98.3277 136.176 99.6129 132.318 99.282 129.162C98.6593 125.754 96.3251 123.75 93.1547 123.9C89.9842 124.05 86.073 125.653 83.6375 128.785L83.5084 128.935Z" fill="#DE2010" stroke="black" stroke-width="2.60249"/>
<path fill-rule="evenodd" clip-rule="evenodd" d="M71.3436 147.328C69.0975 150.593 68.1187 154.729 68.8967 157.669C69.8792 160.991 72.4138 162.735 75.5502 162.247C78.6866 161.76 82.2461 159.64 84.4923 156.376C86.8507 152.948 87.7172 148.975 87.0515 145.872C86.069 142.55 83.5344 140.806 80.398 141.293C77.2616 141.781 73.5436 143.792 71.4559 147.165L71.3436 147.328Z" fill="#DE2010" stroke="black" stroke-width="2.60249"/>
<path fill-rule="evenodd" clip-rule="evenodd" d="M61.1553 168.268C59.5033 171.869 59.2496 176.112 60.521 178.875C62.0595 181.978 64.856 183.261 67.862 182.242C70.868 181.223 74.0105 178.523 75.6625 174.922C77.397 171.14 77.5681 167.077 76.3793 164.134C74.8409 161.031 72.0443 159.748 69.0383 160.767C66.0323 161.786 62.7151 164.406 61.2379 168.088L61.1553 168.268Z" fill="#DE2010" stroke="black" stroke-width="2.60249"/>
<path fill-rule="evenodd" clip-rule="evenodd" d="M53.0172 190.16C51.6986 193.896 51.8306 198.145 53.3473 200.781C55.1607 203.732 58.062 204.756 60.9632 203.469C63.8645 202.182 66.7492 199.208 68.0679 195.471C69.4525 191.548 69.2545 187.486 67.8038 184.663C65.9904 181.712 63.0891 180.688 60.1878 181.975C57.2866 183.263 54.2205 186.172 53.0832 189.973L53.0172 190.16Z" fill="#DE2010" stroke="black" stroke-width="2.60247"/>
<path fill-rule="evenodd" clip-rule="evenodd" d="M46.109 231.444C45.743 234.607 46.9088 237.884 49.0235 239.636C51.5028 241.575 54.5664 241.803 57.0653 240.234C59.5643 238.666 61.6352 235.789 62.0012 232.626C62.3855 229.305 61.2014 226.187 59.105 224.276C56.6257 222.337 53.5621 222.109 51.0632 223.678C48.5642 225.247 46.3018 228.109 46.1273 231.286L46.109 231.444Z" fill="#DE2010" stroke="black" stroke-width="2.33111"/>
<path fill-rule="evenodd" clip-rule="evenodd" d="M47.9288 212.181C47.0482 216.044 47.6675 220.249 49.477 222.694C51.6174 225.417 54.6172 226.101 57.3513 224.489C60.0855 222.877 62.6095 219.591 63.4901 215.728C64.4147 211.672 63.7514 207.659 61.9859 205.022C59.8455 202.299 56.8457 201.615 54.1115 203.227C51.3774 204.839 48.6659 208.082 47.9728 211.988L47.9288 212.181Z" fill="#DE2010" stroke="black" stroke-width="2.60249"/>
<path fill-rule="evenodd" clip-rule="evenodd" d="M445.828 202.292C448.305 199.505 450.679 198.679 453.672 199.711C452.64 192.487 450.369 190.113 447.479 190.938C444.796 191.764 443.558 195.48 445.725 202.292H445.828ZM449.647 223.966C452.434 221.385 454.807 220.869 457.697 221.901C457.181 214.677 455.117 212.097 452.33 212.819C449.44 213.438 447.996 216.947 449.647 223.862V223.966ZM440.358 182.372C442.216 179.069 444.28 177.728 447.479 177.934C444.59 171.329 441.803 169.471 439.326 171.019C436.849 172.567 436.539 176.489 440.358 182.372ZM430.759 162.762C432.514 159.356 434.681 158.014 437.778 158.221C434.991 151.512 432.101 149.758 429.624 151.306C427.25 152.854 426.941 156.776 430.759 162.659V162.762ZM407.64 126.432C408.879 122.923 410.737 121.272 413.833 120.859C410.014 114.666 406.918 113.428 404.751 115.389C402.583 117.35 402.893 121.169 407.64 126.432ZM392.469 110.641C393.501 107.029 395.358 105.377 398.558 104.965C394.43 98.9784 391.333 97.7398 389.269 99.804C387.102 101.765 387.514 105.584 392.469 110.641ZM360.68 83.8065C360.68 80.0909 361.712 77.8203 364.602 76.5818C358.925 72.0405 355.519 71.9373 354.178 74.5176C352.733 76.9946 354.487 80.5038 360.68 83.8065ZM377.193 96.1917C377.813 92.4761 379.258 90.5151 382.354 89.6895C377.503 84.3225 374.2 83.6001 372.446 85.8707C370.588 88.1413 371.62 91.8569 377.297 96.1917H377.193ZM341.792 73.3823C341.38 69.6667 342.309 67.3961 344.889 65.7447C338.696 61.926 335.497 62.0292 334.361 64.7126C333.226 67.3961 335.29 70.802 341.792 73.3823ZM322.492 65.0223C321.46 61.4099 322.079 59.0361 324.556 56.9719C317.848 54.082 314.648 54.8045 313.926 57.5911C313.203 60.3778 315.68 63.3709 322.492 65.0223ZM301.747 58.6232C300.405 55.1141 300.818 52.6371 303.089 50.3664C296.174 48.0958 292.974 49.0247 292.458 51.9146C292.045 54.8045 294.729 57.5911 301.747 58.6232ZM281.311 54.7013C279.763 51.2953 279.97 48.8183 282.034 46.4445C275.016 44.5867 271.919 45.722 271.61 48.6119C271.3 51.5018 274.19 54.082 281.311 54.5981V54.7013ZM259.637 53.0499C257.78 49.7472 257.676 47.2702 259.637 44.7931C252.413 43.6578 249.316 45.1027 249.316 47.9926C249.42 50.8825 252.619 53.1531 259.637 53.0499ZM217.321 56.1462C214.741 53.4627 214.018 51.0889 215.257 48.199C208.032 48.8183 205.452 50.9857 206.174 53.7724C206.897 56.6623 210.509 58.1072 217.321 56.1462ZM238.17 53.4627C235.899 50.3664 235.589 47.9926 237.137 45.2059C229.913 44.8963 227.023 46.6509 227.436 49.5408C227.745 52.4306 231.151 54.3916 238.17 53.4627ZM196.886 60.6874C193.789 58.3136 192.86 56.043 193.583 52.9467C186.565 54.7013 184.294 57.1783 185.429 59.8618C186.565 62.5452 190.383 63.4741 196.782 60.5842L196.886 60.6874ZM157.666 78.646C154.363 76.8914 152.918 74.8272 153.021 71.7309C146.416 74.8272 144.765 77.6139 146.313 79.9877C147.964 82.4648 151.886 82.6712 157.666 78.646ZM176.553 68.9443C173.457 66.8801 172.322 64.7126 172.838 61.6163C165.923 63.7837 163.858 66.4672 165.2 69.0475C166.439 71.6277 170.361 72.247 176.553 69.0475V68.9443ZM122.574 103.004C118.962 102.178 117.104 100.423 116.588 97.327C110.808 101.662 109.673 104.861 111.737 106.822C113.802 108.887 117.724 108.164 122.574 103.107V103.004ZM139.294 89.483C135.785 88.2445 134.134 86.3867 133.824 83.2904C127.632 87.1092 126.393 90.2055 128.251 92.3729C130.212 94.5403 134.031 94.2307 139.294 89.483ZM107.609 117.659C103.997 117.04 102.036 115.492 101.21 112.499C95.7398 117.247 95.0173 120.549 97.2879 122.304C99.4554 124.162 103.274 123.233 107.609 117.659ZM94.2949 134.999C90.5793 134.689 88.5151 133.347 87.3798 130.354C82.4257 135.721 82.0129 139.024 84.3867 140.675C86.7605 142.223 90.4761 140.882 94.2949 134.999ZM83.1482 152.751C79.4326 153.06 77.162 152.028 75.6138 149.242C71.4854 155.331 71.4855 158.634 74.1689 159.872C76.8524 161.111 80.2583 159.253 83.1482 152.751ZM73.3432 171.741C69.6277 172.464 67.2538 171.741 65.3961 169.264C62.1966 175.663 62.6094 178.966 65.3961 179.895C68.1827 180.721 71.279 178.45 73.3432 171.638V171.741ZM65.4993 191.145C61.9901 192.487 59.5131 192.177 57.2425 189.906C55.1783 196.821 56.1072 200.021 58.8938 200.434C61.7837 200.847 64.5704 198.06 65.4993 191.145ZM60.2356 212.819C56.8296 214.264 54.3526 214.161 51.9788 212.097C50.2242 219.115 51.4627 222.211 54.3526 222.418C57.2425 222.727 59.8227 219.734 60.2356 212.716V212.819ZM58.1714 230.778C54.8686 232.429 52.3916 232.635 49.9146 231.397C48.8825 237.073 50.4306 239.344 53.3205 239.138C56.2104 238.931 58.481 236.351 58.0681 230.778H58.1714ZM422.193 145.113C423.432 141.604 425.289 139.953 428.386 139.643C424.67 133.45 421.574 132.109 419.406 133.967C417.239 135.928 417.549 139.746 422.193 145.113ZM452.021 245.846C454.807 243.369 457.181 242.75 460.071 243.988C459.555 236.764 457.491 234.08 454.704 234.7C451.814 235.422 450.369 239.034 452.021 245.846Z" fill="#FFE300"/>
<path fill-rule="evenodd" clip-rule="evenodd" d="M423.638 127.98C423.534 127.98 415.381 136.031 416.826 145.939C418.168 155.847 424.463 168.026 423.328 178.244C422.193 188.565 420.232 195.273 420.232 195.273C420.232 195.273 429.83 184.436 429.933 174.012C430.037 163.691 423.431 149.861 423.431 142.223C423.431 134.586 423.741 127.774 423.638 127.877V127.98ZM438.603 161.008C438.603 161.008 432.204 165.755 432.823 176.489C433.443 187.223 444.589 207.039 444.589 207.039C444.589 207.039 452.743 223.759 452.433 228.094C452.227 232.429 453.981 223.966 453.156 214.367C452.33 204.872 440.048 183.817 440.048 183.817C440.048 183.817 437.468 179.482 437.674 172.361C437.984 165.136 438.706 161.111 438.603 161.008Z" fill="#217900" stroke="black" stroke-width="1.96099" stroke-linejoin="round"/>
<path fill-rule="evenodd" clip-rule="evenodd" d="M247.665 27.6603C247.665 25.3896 245.085 23.5319 241.988 23.5319C238.892 23.5319 236.415 25.3896 236.415 27.6603C236.415 29.8277 238.892 31.6855 241.988 31.6855C245.085 31.6855 247.562 29.8277 247.562 27.5571L247.665 27.6603ZM250.039 36.9492C250.039 34.885 247.355 33.1304 244.259 33.1304C241.059 33.1304 238.479 34.885 238.479 37.0524C238.479 39.2198 241.059 40.8711 244.259 40.8711C247.355 40.8711 250.039 39.1166 250.039 36.9492ZM257.16 25.9057C257.16 25.9057 250.555 30.8598 253.238 32.8208C256.025 34.7817 263.559 28.4859 263.559 28.4859L257.16 25.9057ZM450.885 139.024C450.89 138.357 450.733 137.698 450.427 137.105C450.121 136.512 449.677 136.002 449.131 135.618C448.615 135.263 448.003 135.073 447.376 135.073C446.75 135.073 446.138 135.263 445.622 135.618C445.095 136.013 444.67 136.528 444.383 137.12C444.095 137.713 443.954 138.366 443.97 139.024C443.966 139.691 444.123 140.349 444.428 140.943C444.734 141.536 445.179 142.046 445.725 142.43C446.23 142.763 446.822 142.94 447.428 142.94C448.033 142.94 448.625 142.763 449.131 142.43C449.677 142.046 450.121 141.536 450.427 140.943C450.733 140.349 450.89 139.691 450.885 139.024ZM448.305 129.632C448.305 127.258 446.757 125.4 444.693 125.4C442.629 125.4 441.08 127.258 441.08 129.632C441.08 132.006 442.732 133.863 444.693 133.863C446.654 133.863 448.305 132.006 448.305 129.632ZM450.06 148.829C450.06 147.59 449.44 146.558 448.615 146.558C447.892 146.558 447.273 147.59 447.273 148.829C447.273 150.067 447.892 150.996 448.615 150.996C449.44 150.996 450.06 149.964 450.06 148.829ZM455.839 131.696C455.839 130.251 455.22 129.116 454.498 129.116C453.672 129.116 453.053 130.251 453.053 131.696C453.053 133.141 453.672 134.173 454.498 134.173C455.22 134.173 455.839 133.141 455.839 131.696ZM440.048 133.347C440.048 132.315 439.429 131.283 438.603 131.283C437.778 131.283 437.158 132.315 437.158 133.347C437.158 134.379 437.778 135.411 438.603 135.411C439.429 135.411 440.048 134.483 440.048 133.347ZM442.525 146.971C442.525 145.113 441.184 143.565 439.532 143.565C437.881 143.565 436.539 145.113 436.539 146.971C436.539 148.726 437.881 150.171 439.635 150.171C441.39 150.171 442.525 148.726 442.525 146.868V146.971ZM434.681 140.985C434.681 139.437 433.546 138.095 432.101 138.095C430.759 138.095 429.624 139.333 429.624 140.985C429.624 142.636 430.759 143.772 432.101 143.772C433.546 143.772 434.681 142.533 434.681 140.985ZM433.443 132.934C433.443 132.109 433.03 131.283 432.411 130.87C432.074 130.648 431.679 130.53 431.275 130.53C430.872 130.53 430.477 130.648 430.14 130.87C429.807 131.098 429.537 131.407 429.356 131.768C429.176 132.13 429.09 132.531 429.108 132.934C429.108 133.76 429.418 134.586 430.14 134.999C430.466 135.2 430.841 135.306 431.224 135.306C431.607 135.306 431.982 135.2 432.308 134.999C432.641 134.771 432.911 134.462 433.091 134.1C433.272 133.739 433.357 133.338 433.34 132.934H433.443ZM469.257 173.702C465.954 169.368 460.793 167.51 457.594 169.574C454.498 171.638 454.498 176.799 457.8 181.134C461 185.468 466.264 187.223 469.36 185.159C472.559 183.095 472.456 177.934 469.257 173.702ZM478.546 252.761C479.062 247.498 476.481 242.853 472.766 242.44C468.947 241.924 465.335 245.846 464.715 251.11C464.096 256.27 466.676 261.018 470.495 261.431C474.314 261.844 477.823 258.025 478.442 252.761H478.546ZM480.403 298.69C481.435 293.529 479.371 288.782 475.656 287.956C471.837 287.13 468.018 290.743 466.883 295.903C465.851 301.064 467.915 305.914 471.734 306.74C475.449 307.463 479.371 303.953 480.403 298.793V298.69ZM489.279 255.651C489.279 253.587 487.834 251.936 486.183 251.936C484.532 251.936 483.087 253.587 483.087 255.651C483.087 257.715 484.429 259.47 486.183 259.47C487.938 259.47 489.279 257.715 489.279 255.651ZM481.539 264.321L475.14 271.545C475.14 271.545 469.05 271.752 469.36 273.713C469.773 275.777 477.72 281.66 477.617 284.034C477.617 286.305 482.984 283.415 482.984 283.415L487.318 270.204C487.318 270.204 487.112 261.121 484.738 261.224C482.364 261.431 481.745 264.114 481.642 264.321H481.539ZM57.7584 261.431C57.7584 260.61 57.4322 259.822 56.8515 259.241C56.2708 258.661 55.4833 258.335 54.6621 258.335C53.8409 258.335 53.0534 258.661 52.4727 259.241C51.892 259.822 51.5658 260.61 51.5658 261.431C51.5658 262.252 51.892 263.04 52.4727 263.62C53.0534 264.201 53.8409 264.527 54.6621 264.527C55.4833 264.527 56.2708 264.201 56.8515 263.62C57.4322 263.04 57.7584 262.252 57.7584 261.431ZM60.6483 252.142C60.6483 250.284 59.2033 248.839 57.552 248.839C55.9006 248.839 54.4557 250.284 54.4557 252.039C54.4557 253.793 55.9006 255.342 57.552 255.342C59.2033 255.342 60.6483 253.897 60.6483 252.039V252.142ZM35.465 207.452C34.3297 204.872 31.8527 203.427 30.0981 204.356C28.2404 205.078 27.7243 207.865 28.8596 210.445C30.0981 213.025 32.472 214.47 34.2265 213.541C36.0843 212.819 36.6003 210.032 35.465 207.452ZM42.9994 235.319C41.4512 231.913 38.1485 230.055 35.7747 231.19C33.4009 232.326 32.472 235.732 34.0201 239.034C35.5683 242.337 38.9742 244.195 41.4512 243.163C43.9283 242.131 44.5475 238.621 42.9994 235.216V235.319ZM51.2562 255.651C51.669 251.523 50.0176 247.601 47.3342 247.085C44.6507 246.465 42.1737 249.459 41.6576 253.587C41.0384 257.715 42.793 261.637 45.4764 262.153C48.0567 262.669 50.6369 259.78 51.153 255.651H51.2562ZM38.1485 258.541C39.6967 254.722 39.1806 250.594 36.7036 249.252C34.2265 247.91 31.1302 250.181 29.4789 254C27.8275 257.819 28.4468 262.05 30.8206 263.289C33.1944 264.527 36.4971 262.463 38.0453 258.644L38.1485 258.541Z" fill="#6B18B5"/>
<path fill-rule="evenodd" clip-rule="evenodd" d="M32.1622 249.768C32.1622 247.807 30.614 246.259 28.7563 246.259C26.8985 246.259 25.3503 247.91 25.3503 249.871C25.3503 251.832 26.8985 253.381 28.7563 253.381C30.614 253.381 32.1622 251.832 32.1622 249.871V249.768ZM29.4787 240.995C29.507 240.572 29.4479 240.147 29.305 239.747C29.1621 239.347 28.9386 238.981 28.6482 238.671C28.3578 238.361 28.0068 238.115 27.617 237.946C27.2272 237.778 26.807 237.692 26.3824 237.693C24.6279 237.693 23.2861 239.138 23.2861 240.995C23.2861 242.853 24.6279 244.195 26.3824 244.195C28.137 244.195 29.4787 242.75 29.4787 240.995ZM32.3686 223.966C32.3686 220.869 31.0269 218.496 29.2723 218.496C27.7242 218.496 26.3824 220.973 26.3824 223.966C26.3824 226.959 27.7242 229.436 29.3755 229.436C31.0269 229.436 32.3686 226.959 32.3686 223.966ZM41.5543 222.624C41.8639 219.631 40.935 217.051 39.2837 216.844C37.6323 216.638 35.981 218.908 35.5681 221.798C35.1553 224.895 36.1874 227.372 37.8388 227.681C39.4901 227.888 41.1414 225.617 41.5543 222.624ZM106.886 92.1665C108.125 88.0381 106.886 83.7033 104.1 82.6712C101.313 81.6391 98.1134 84.3225 96.8749 88.5541C95.6363 92.6825 96.8749 97.0174 99.6615 98.0495C102.448 99.0816 105.648 96.3981 106.886 92.1665ZM94.501 111.054C98.1134 107.958 99.6615 103.623 97.907 101.455C96.2556 99.288 91.9208 100.01 88.2052 103.107C84.4897 106.203 83.0447 110.435 84.7993 112.705C86.4507 114.769 90.7855 114.15 94.501 111.054ZM87.2763 100.527C90.7855 97.9463 92.4368 94.2307 90.6823 92.2697C88.9277 90.3087 84.6961 91.1344 81.0837 93.7146C77.4714 96.3981 75.9232 100.114 77.5746 101.971C79.226 103.829 83.664 103.21 87.2763 100.527ZM115.143 82.1551C117.62 80.4006 118.652 77.8203 117.517 76.4786C116.278 75.1368 113.388 75.6529 111.015 77.5107C108.641 79.3685 107.505 81.8455 108.641 83.1872C109.879 84.529 112.769 84.1161 115.143 82.1551Z" fill="#6B18B5"/>
<path fill-rule="evenodd" clip-rule="evenodd" d="M100.591 100.01C102.242 97.4302 102.345 94.6435 100.797 93.8179C99.3521 92.9922 96.6686 94.3339 95.1205 96.9142C93.5723 99.4944 93.2627 102.281 94.8108 103.107C96.359 103.932 98.9392 102.591 100.591 100.01ZM121.645 88.967C124.226 86.7996 125.258 83.8065 123.916 82.4648C122.471 81.123 119.272 81.7423 116.691 83.9097C114.111 86.0771 113.079 89.0702 114.421 90.5151C115.762 91.8569 118.962 91.2376 121.645 88.967ZM83.5609 114.666C85.9348 114.563 87.7926 113.325 87.6893 111.983C87.4829 110.538 85.3155 109.506 82.9417 109.712C80.4646 109.712 78.6069 111.054 78.8133 112.396C79.0197 113.737 81.0839 114.769 83.5609 114.666ZM129.489 75.4465C131.141 72.763 131.244 70.0795 129.696 69.2539C128.251 68.325 125.567 69.7699 124.019 72.3502C122.471 74.9304 122.265 77.6139 123.71 78.5428C125.258 79.3684 127.838 77.9235 129.489 75.4465Z" fill="#6B18B5"/>
<path fill-rule="evenodd" clip-rule="evenodd" d="M406.402 153.267C406.402 153.267 413.936 141.294 411.046 129.941C408.156 118.691 395.565 126.639 395.874 130.664C396.184 134.792 403.925 140.056 404.441 142.533C404.957 145.01 403.615 152.544 406.402 153.267Z" fill="#FFD200" stroke="#EF8A10" stroke-width="1.0321"/>
<path fill-rule="evenodd" clip-rule="evenodd" d="M261.805 53.566C261.805 53.566 289.052 54.5981 289.259 72.247C289.155 75.0336 289.259 78.2331 288.226 86.1803C290.906 84.4192 293.078 81.9873 294.527 79.1265C295.975 76.2656 296.65 73.0755 296.483 69.8731C296.69 51.9146 272.229 39.7358 261.805 53.566Z" fill="#217900" stroke="black" stroke-width="2.47704" stroke-linejoin="round"/>
<path fill-rule="evenodd" clip-rule="evenodd" d="M244.465 52.7403C244.465 52.7403 266.449 48.199 266.655 65.8479C266.862 83.3936 259.637 86.2835 259.637 86.2835C259.637 86.2835 276.564 82.6712 276.564 64.8158C276.667 46.8573 254.89 38.9101 244.465 52.7403Z" fill="#217900" stroke="black" stroke-width="2.47704" stroke-linejoin="round"/>
<path fill-rule="evenodd" clip-rule="evenodd" d="M319.189 433.792C319.189 433.792 422.09 404.79 453.053 278.461C434.991 408.092 322.389 449.17 322.389 449.17L319.086 433.792H319.189Z" fill="#F7DF73" stroke="black" stroke-width="2.68346" stroke-linejoin="round"/>
<path fill-rule="evenodd" clip-rule="evenodd" d="M329.717 441.739C332.916 441.739 340.76 432.966 345.301 432.037C349.843 431.005 350.359 426.464 345.095 426.257C339.935 426.154 335.393 432.14 335.393 432.14C335.393 432.14 330.955 436.062 326.208 436.475C321.563 436.991 324.556 442.874 329.717 441.636V441.739Z" fill="#8C1800"/>
<path fill-rule="evenodd" clip-rule="evenodd" d="M389.062 397.462C389.062 397.462 378.329 403.654 379.773 405.203C381.322 406.647 390.817 399.32 391.023 399.113C391.23 399.01 395.049 394.262 388.959 397.462H389.062Z" fill="#8C1800" stroke="#8C1800" stroke-width="2.68346"/>
<path fill-rule="evenodd" clip-rule="evenodd" d="M351.7 425.638C351.7 425.638 348.501 424.503 356.654 421.303C364.911 418.104 364.395 414.388 366.975 412.943C369.762 411.395 375.439 407.37 376.574 409.744C377.709 412.118 370.588 416.762 368.937 417.278C367.285 417.794 359.028 425.328 356.654 425.948C354.384 426.67 352.629 426.257 351.7 425.638Z" fill="#8C1800"/>
<path d="M404.957 381.774C397.939 389.618 397.938 389.411 397.938 389.411" stroke="#8C1800" stroke-width="3.19951" stroke-linecap="round"/>
<path d="M415.484 368.873L408.776 377.129" stroke="#8C1800" stroke-width="2.99309" stroke-linecap="round"/>
<path d="M426.012 352.153L418.477 364.125" stroke="#8C1800" stroke-width="2.68346" stroke-linecap="round"/>
<path d="M434.888 335.02L428.695 347.405M438.913 325.937L436.849 330.375" stroke="#8C1800" stroke-width="2.47704" stroke-linecap="round"/>
<path d="M443.454 314.068L441.803 319.228" stroke="#8C1800" stroke-width="1.44494" stroke-linecap="round"/>
<path fill-rule="evenodd" clip-rule="evenodd" d="M184.184 431.219C184.184 431.219 82.0997 401.57 51.4744 272.89C69.3391 404.999 181.043 446.749 181.043 446.749L184.184 431.219Z" fill="#F7DF73" stroke="black" stroke-width="2.65315" stroke-linejoin="round"/>
<path fill-rule="evenodd" clip-rule="evenodd" d="M173.766 439.159C170.67 439.159 162.826 430.282 158.285 429.25C153.847 428.218 153.434 423.574 158.491 423.471C163.652 423.264 168.193 429.457 168.193 429.457C168.193 429.457 172.631 433.379 177.275 433.895C181.92 434.411 178.927 440.294 173.766 439.055V439.159Z" fill="#8C1800"/>
<path fill-rule="evenodd" clip-rule="evenodd" d="M115.081 394.107C115.081 394.107 125.682 400.562 124.111 402.175C122.737 403.587 113.314 396.124 113.118 395.923C112.921 395.721 109.191 390.88 115.081 394.107Z" fill="#8C1800" stroke="#8C1800" stroke-width="2.65315"/>
<path fill-rule="evenodd" clip-rule="evenodd" d="M152.092 422.748C152.092 422.748 155.189 421.613 147.035 418.31C138.985 415.111 139.398 411.395 136.714 409.847C134.134 408.299 128.457 404.17 127.425 406.544C126.393 408.918 133.308 413.769 134.96 414.285C136.611 414.801 144.765 422.438 147.035 423.161C149.409 423.78 151.06 423.471 152.092 422.748Z" fill="#8C1800"/>
<path d="M99.3755 378.174L106.247 386.04" stroke="#8C1800" stroke-width="3.18378" stroke-linecap="round"/>
<path d="M88.7745 365.063L95.4492 373.333" stroke="#8C1800" stroke-width="2.98479" stroke-linecap="round"/>
<path d="M78.3696 347.92L85.8296 360.223" stroke="#8C1800" stroke-width="2.78581" stroke-linecap="round"/>
<path d="M69.5353 330.574L75.8174 343.281M65.609 321.296L67.5721 325.733" stroke="#8C1800" stroke-width="2.58682" stroke-linecap="round"/>
<path d="M61.0938 309.195L62.8606 314.64" stroke="#8C1800" stroke-width="1.59189" stroke-linecap="round"/>
<path fill-rule="evenodd" clip-rule="evenodd" d="M458.11 255.135C458.626 263.082 466.367 270.617 463.271 284.55C459.452 300.135 445.725 337.497 448.202 343.999C444.073 338.426 444.796 333.265 444.486 325.421C444.073 317.68 455.736 288.885 456.768 279.08C456.768 270.307 457.594 258.438 458.11 255.135Z" fill="#217900" stroke="black" stroke-width="2.47704" stroke-linejoin="round"/>
<path fill-rule="evenodd" clip-rule="evenodd" d="M458.11 255.342C458.11 255.342 470.702 271.339 470.082 284.034C469.36 296.626 462.342 311.488 464.715 318.093C460.587 312.52 459.555 308.908 459.245 301.167C458.936 293.426 465.438 284.86 464.199 276.396C462.858 267.933 458.007 255.342 458.007 255.342H458.11ZM43.8251 258.851C43.309 266.798 37.4261 273.919 40.4192 287.749C44.3411 303.334 58.1713 323.254 55.9007 346.063C59.7534 340.261 61.7346 333.417 61.5772 326.453C61.8868 318.712 46.1989 292.6 45.1668 282.795C45.1668 274.023 44.3411 262.153 43.8251 258.851Z" fill="#217900" stroke="black" stroke-width="2.47704" stroke-linejoin="round"/>
<path fill-rule="evenodd" clip-rule="evenodd" d="M43.825 259.057C43.825 259.057 31.4398 274.539 32.1623 287.233C32.3687 295.593 47.8502 330.891 45.5796 337.497C49.6047 331.923 50.74 332.543 50.5336 324.079C45.9924 302.509 37.942 288.678 39.2837 280.318C40.6255 271.855 44.0314 259.057 43.825 259.057Z" fill="#217900" stroke="black" stroke-width="2.47704" stroke-linejoin="round"/>
<path d="M254.157 117.204L284.558 211.462H384.053L303.904 269.786L334.444 364.044L254.295 305.859L174.146 364.044L204.547 269.786L124.26 211.462H223.479L254.157 117.204Z" fill="white" stroke="black" stroke-width="2.07297" stroke-linecap="square" stroke-linejoin="round"/>
</g>
</g>
<defs>
<clipPath id="clip0_2_6295">
<rect width="512" height="512" fill="white"/>
</clipPath>
</defs>
</svg>
