<svg width="512" height="512" viewBox="0 0 512 512" fill="none" xmlns="http://www.w3.org/2000/svg">
<g clip-path="url(#clip0_2_6379)">
<path d="M0 0H512V512H0V0Z" fill="#CD2A3E"/>
<path d="M0 76.8H512V435.2H0V76.8Z" fill="#006233"/>
<path d="M416 164.9C416 207.335 399.143 248.031 369.137 278.037C339.131 308.043 298.435 324.9 256 324.9C213.565 324.9 172.869 308.043 142.863 278.037C112.857 248.031 96 207.335 96 164.9C92.4227 178.546 90.6079 192.593 90.6 206.7C90.569 230.214 95.5521 253.465 105.217 274.901C114.882 296.337 129.006 315.466 146.648 331.012C164.29 346.558 185.044 358.164 207.526 365.055C230.008 371.947 253.7 373.965 277.024 370.976C300.347 367.987 322.766 360.06 342.783 347.722C362.801 335.385 379.958 318.921 393.109 299.428C406.261 279.936 415.106 257.864 419.053 234.683C423 211.502 421.959 187.747 416 165V164.9Z" fill="#FFC400"/>
<path d="M256 100L241.6 144.3H195.1L232.7 171.6L218.4 215.8L256 188.5L293.6 215.8L279.2 171.6L316.9 144.3H270.4L256 100Z" fill="#FFC400"/>
</g>
<defs>
<clipPath id="clip0_2_6379">
<rect width="512" height="512" fill="white"/>
</clipPath>
</defs>
</svg>
