<svg width="512" height="512" viewBox="0 0 512 512" fill="none" xmlns="http://www.w3.org/2000/svg">
<g clip-path="url(#clip0_2_6384)">
<path d="M0.199951 0H512.2V512H0.199951V0Z" fill="#012169"/>
<path d="M281.6 127H487L486.7 273.3C488.4 332 451.7 368.5 384.4 385C336.5 373 281.3 348.5 281.2 275L281.5 127H281.6Z" fill="white"/>
<path d="M286.1 131.4H482.5L482.3 271.6C483.9 327.9 448.9 362.8 384.5 378.6C338.7 367.2 285.9 343.6 285.9 273.2L286.1 131.4Z" fill="#00A2BD" stroke="black" stroke-width="1.8"/>
<path d="M481 288.2C473.8 341.9 432.4 365.4 384.4 377.9C342 366.5 296.4 348.3 287.4 288.4L481 288.2Z" fill="#A53D08"/>
<path d="M376.7 157.5L376.4 139.9L390.4 140L390.5 157.5H428.7L428.8 171.2L390.5 171.4L390.2 332.8L376.6 332.9L376.4 171.2L338.4 171.4V157.4L376.7 157.5Z" fill="black"/>
<path fill-rule="evenodd" clip-rule="evenodd" d="M345.8 294.8L380.8 331.1C392.8 317.8 384.4 268.1 368.5 259C366.6 264.9 363.4 272 359.9 274.2C352.3 279.4 333.8 285.4 339.9 289.2C341.4 287.3 345.1 285.5 346.9 289.8C348.9 296.7 339.1 297.1 339.1 297.1C339.1 297.1 332.9 296.3 331.8 290.1C330.8 283.7 341.1 277.9 341.9 277.5C342.9 277.2 356.3 273.5 358.6 261.6C361.4 249.8 364.4 251.6 364.9 251.4C382.6 253.1 394.1 284.7 394.8 306.9C395.4 329.1 385.8 343.9 384 344.9C382.2 345.8 342 297 342 297L345.8 294.8Z" fill="#FF9A08" stroke="black" stroke-width="0.8"/>
<path d="M371.2 261L371.5 326.5ZM367.3 262.3L367.5 321.7ZM363 270.9L363.3 318.1ZM359.6 274.2L359.8 313.3ZM355.9 276V309ZM351.9 278.6V304.7ZM348.4 280.7V300.7Z" fill="#FF9A08"/>
<path d="M371.2 261L371.5 326.5M367.3 262.3L367.5 321.7M363 270.9L363.3 318.1M359.6 274.2L359.8 313.3M355.9 276V309M351.9 278.6V304.7M348.4 280.7V300.7" stroke="black" stroke-width="0.8"/>
<path d="M345.2 299L381.2 340.2" stroke="#FFDF00" stroke-linecap="round"/>
<path d="M383 273C383 273 399.3 308.7 384.2 338M341 291.4C341 291.4 342.2 288.3 343.7 289.6M338.1 282.3C338.1 282.3 331.6 288.1 335.1 291.8" stroke="#FFDF00" stroke-width="1.4" stroke-linecap="round"/>
<path d="M390.6 191.4C393 189.4 394.3 188.1 395.8 188.4C397.3 188.6 399.3 188.4 400.8 188C404.736 187.086 408.812 186.95 412.8 187.6C413.8 187.8 415.2 188.3 417.4 190.1C419.5 191.9 422.6 195.1 421.6 203.7C420.6 212.3 420.9 216 420.4 220.9C419.6 229.4 417.7 236.4 414.4 235.9C418.9 243.9 419.4 250.9 422.4 256.4C425.4 261.9 427.2 273.2 426.1 285.4C424.9 297.7 421.7 325.1 431.4 343.6C429.8 344.7 425.9 343.6 422.4 339.9C418.9 336.2 417.4 336.3 414.5 338.5C405.8 345.2 397.5 353.3 385.5 345.2C382.7 343.4 381.8 341.2 383.9 335.5C388.9 321.5 391.4 302.1 390.6 293.1V191.4Z" fill="#008021" stroke="black" stroke-width="0.3"/>
<path d="M399 182.8C399.6 184.8 399.9 187.3 398.9 189.6C397.9 191.9 397.6 194.6 399.3 198C402.1 194.1 406 195 408.3 192.6C410.6 190.3 411.1 188.1 412.8 187.6C411.1 186.1 408.4 184.6 409 180.1C409.6 175.8 415.7 172.1 410.2 165.5C408.888 163.912 407.02 162.883 404.977 162.623C402.933 162.363 400.868 162.891 399.2 164.1C398.216 164.777 397.396 165.665 396.8 166.7C396.5 167.5 396.9 169.2 396.1 170.2L394.1 172.2C393.5 172.5 393.1 173 393.7 173.7C393.9 173.9 394.4 174 394.8 174.1C394.581 174.624 394.313 175.126 394 175.6C393.7 175.9 393.8 176.2 394.1 176.6C393.7 177.9 394.5 178.1 394 179.1C393.5 180 392.8 181.1 394.6 182.1C395.2 182.4 397.6 183 398.9 182.8H399ZM376.5 205.7C373.3 206.6 368.1 205.2 364.1 205.7C362.4 205.8 361.1 204.9 361.3 203.2C361.5 201.5 361.7 198.8 361.3 196.4C360.8 192.6 362.6 187.4 365.2 181.6C367.177 178.003 368.466 174.069 369 170C369 168.2 369.2 166.2 370.8 165.2C372 164.4 372.2 163.7 372.6 163.1C373.6 161.6 374.6 161.3 374.6 162.1C374.7 162.6 374.6 163.1 374.1 163.8C375.1 162.9 376.9 161.9 377.3 161.6C377.7 161.4 379.7 159.9 379.8 161.3C380.6 160.9 381.2 160.9 381.4 161.3C381.6 161.8 381.4 162 381.1 162.3C381.6 162.3 382.3 163.3 381.1 164.1C381.8 163.9 382.4 164.9 381.3 165.9C380.2 166.8 378.9 167.5 378.5 168.2C378.1 169 375.4 171.1 374.3 171.5C373.2 172 373.1 172.6 373.1 174.2C373.1 192 371 190.6 371 194.8C371 196 370.8 197 372 196.7C373 196.3 374.8 195.8 376.5 195.8V205.8V205.7ZM377.2 244C382.4 241.4 388.4 240.5 391.5 239.7C394.5 238.9 399.5 236.4 402 235.2C404.4 233.9 406.4 232.2 407.7 231.7C409.1 231.2 410.7 230.3 411.5 228.6C416 219.8 418.5 212.8 418.5 206.6C418.5 202.6 417.5 198.1 413.5 201.4C409.8 204.4 405.8 210.3 404.7 214.5C403.1 221 401.7 222.4 401.4 223.6C401 224.9 399.7 224.9 398.2 225.2C393.183 226.005 388.499 228.226 384.7 231.6C380.13 234.962 375.354 238.035 370.4 240.8C366.7 242.8 366 243.1 365.2 244.8C364.606 246.132 363.832 247.377 362.9 248.5C362.603 248.838 362.387 249.238 362.265 249.67C362.144 250.103 362.122 250.558 362.2 251L361.9 256.4C361.9 257.5 362.1 257.8 362.6 257.9C363 257.9 363.6 257.7 363.9 256.3C363.7 257.7 365.6 257.3 365.7 256.3C365.7 257.7 367.7 256.8 367.7 255.5C367.7 256.5 369.3 255.8 369.4 255.3L370.5 251.9C371.2 250.6 371.9 248.9 373.3 247.9C374.8 246.9 374.1 245.6 377.2 244ZM414.5 338.5L415.8 342.1C416 343 415.6 343.2 415.4 343.7C414.056 346.487 413.114 349.449 412.6 352.5C412.6 353.7 411.6 355 411.3 355.7C410.8 356.5 411 357.2 412 358C412.5 358.3 414 357.8 414.3 357C414.8 357.6 415.9 357.4 416.3 356.5C416.9 357 417.7 356.7 418.3 355.8C418.8 356.2 419.6 355.5 419.9 355C420.7 355.4 421.5 355 421.6 353.3L422 352.1C422.2 351.7 422.3 351 422.3 350.4C422.3 349.7 422.7 348.4 423.2 347.6C423.7 346.6 424.7 345.1 424.2 343.6C423.9 342.2 423.3 342.3 422.8 340.3C421.5 339 419.8 337.1 418 337C416.2 336.9 415.2 338.1 414.5 338.5ZM381.7 348.4C383.3 350 387 350.1 389.5 347.4C388.5 347 386.5 346.1 385.7 345.4C384.4 346.6 382.9 348 381.7 348.4Z" fill="#FFE1CF" stroke="black" stroke-width="0.3"/>
<path d="M398 165C398.7 161 401.6 161 403.4 161.5C404.2 161.6 406 161.8 407.7 161.3C411.2 160.4 413.7 161.6 413.4 164.9C414.4 165.6 415.3 167.2 415.1 168.6C414.9 170 415.2 170.6 416.5 170.7C417.8 170.9 420.5 172.5 418.7 174.7C420.4 175.7 421.7 178.4 420.8 180.1C419.9 181.9 417.1 182.2 416 180.6C414.7 181.2 412.6 181.3 411.4 180C410.5 181 408.4 180.9 407.9 180C407.5 179 406.9 178.6 406 178.3C405 178 405 175.5 406.4 175.2C406.2 174.4 406.3 173.6 406.6 173.2C407 172.8 406.7 172 405.9 171.4C405.1 170.7 404.4 168.4 405.2 167C403.8 167.5 400.8 166.1 400.2 165.2C399.5 164.2 398.6 164.2 398.1 165H398Z" fill="#870F00" stroke="black" stroke-width="0.3"/>
<path d="M399 182.8C401.2 182.5 402 181.1 403.6 181.2M394.1 176.5L394.7 176.9C395.1 177.1 395.7 177.2 396.1 177.2M394.8 174.1L395.8 174.7M400 165C398.7 163.8 402.3 161.2 406 164.9C406.7 165.5 408.5 165.6 409 165.4M405.2 167C406.9 166.6 409.5 166.6 410.2 168.5C411 170.5 412.5 169.2 413.7 171.5C414.9 173.9 416.9 176.5 418.7 174.7M411.4 180C411.101 179.511 410.91 178.963 410.841 178.394C410.772 177.824 410.826 177.247 411 176.7C410.3 175.9 410.6 174.3 411 173.5M406.4 175.2C406.4 175.9 407.4 177.2 408.8 177.4M416 180.6C415.2 179.6 415.3 178.6 415.5 177.4" stroke="black" stroke-width="0.3"/>
<path d="M407.6 169.1C407.6 170.1 408.1 171.5 409.2 172.1C409.5 172.6 410.6 174.2 412.9 174M413.4 165C411.903 163.667 410.071 162.768 408.1 162.4M399.3 198C397.3 200.7 396.1 204.4 397 209.6C398 214.7 399.4 222.4 395.6 225.8M414.3 235.9C411.7 235.3 407.9 235.3 405.8 236.8C404.624 237.528 403.283 237.946 401.902 238.016C400.52 238.086 399.144 237.805 397.9 237.2" stroke="black" stroke-width="0.3"/>
<path d="M408.7 235.7C406.4 236.1 405.3 237.7 405.3 242C405.3 246.2 404.4 252.5 405.2 258.6M404.5 237.5C403 237.9 401.5 237.9 401.7 242M396.7 242C396.7 239.6 397.7 237.3 399.3 237.7M413.3 242.5C413.5 237.1 412.3 235.5 410.6 235.5C412.8 235.6 414.3 235.9 415.2 244.9C415.9 251.5 417.3 253.9 418.9 259.2C423.1 272.8 421 293.8 423.1 301.2M410.2 244.2C415.875 260.174 415.698 277.644 409.7 293.5C414.5 306.9 419.4 316.6 420.3 322.1M396.3 274.1C397.1 271.3 394.3 270.9 396.8 260.8C397.8 256.4 398.1 253.8 397.4 252.3" stroke="black" stroke-width="0.3"/>
<path d="M397.4 258.3C396.4 262.8 400.7 271.3 398.5 277.3M393 278.5C393 282.5 394 287.5 393.8 291.5C393.6 295.4 395.2 297.2 397 300.9C403.7 314.3 408.3 323.9 407.6 336.4C407.6 338.7 408.3 343.6 405.9 345M393.3 348.4C394 348.4 394.7 348.1 395.6 346C396.4 344 399.2 331.5 398.1 323M399.4 332.6C399.94 336.778 399.495 341.025 398.1 345" stroke="black" stroke-width="0.3"/>
<path d="M403.8 324.7C404.8 330.3 404.8 335.4 403.9 339M401.5 339C401.6 341.3 402.7 347 400.9 347.5M410.2 312.2C414.4 318.9 417.8 335.4 421.3 338.9M413.9 336.2C413.7 334.4 413.6 331.8 412.6 330.7M367.8 255.5C367.8 254.2 367.6 253 369 251M365.7 256.2C365.9 251.8 365.8 251.4 367.1 250.2M364 256.3C364 253.2 363.6 252.1 364.8 250M379.8 161.2L375.2 164.6M381 162.2C380.5 162.3 379 163.6 376.1 165.8M381.2 164C380.2 164.4 378.6 166 377 167.2M374 163.7L372.4 165.3M414.3 357C414 356.7 414 355.7 414.5 354.6M416.3 356.5C416 356.2 416.3 354.8 416.7 353.9M418.3 355.8C417.9 355.6 417.8 354.8 418.3 353.8M419.9 355C419.6 355 419.5 354.5 419.9 353.2" stroke="black" stroke-width="0.3"/>
<path d="M397.2 168.7C398 169.7 398.9 169.7 399 170.4L399.4 171.4H398.8L397.4 171.3C397 171.3 396.5 170.8 396.8 170.7C397.1 170.7 397.1 170.6 397 170.4L397.3 169.8C397.5 169.7 397.3 169.8 397.3 169.4C397.1 169.1 397 168.4 397.2 168.7ZM397.7 167.7C398.964 167.828 400.154 168.353 401.1 169.2C401.8 170 401.2 169.8 400.9 169.8C400.5 169.8 399.9 169.6 399.5 169.2C399.2 168.8 398.1 168.2 397.5 168.1C397.3 168 397 167.6 397.7 167.7Z" fill="black"/>
<path d="M0.199951 0H256.2V256H0.199951V0Z" fill="#012169"/>
<path d="M256.2 0V32L161.2 128L256.2 221.5V256H222.7L127.2 162L34.2 256H0.199951V222L93.2 128.5L0.199951 37V0H31.2L127.2 94L220.2 0H256.2Z" fill="white"/>
<path d="M92.2 162L97.7 179L21.2 256H0.199951V254.5L92.2 162ZM154.2 156L181.2 160L256.2 233.5V256L154.2 156ZM256.2 0L160.2 98L158.2 76L233.2 0H256.2ZM0.199951 0.5L96.7 95L67.2 91L0.199951 24.5V0.5Z" fill="#C8102E"/>
<path d="M88.2 0V256H168.2V0H88.2ZM0.199951 88V168H256.2V88H0.199951Z" fill="white"/>
<path d="M0.199951 104V152H256.2V104H0.199951ZM104.2 0V256H152.2V0H104.2Z" fill="#C8102E"/>
</g>
<defs>
<clipPath id="clip0_2_6384">
<rect width="512" height="512" fill="white"/>
</clipPath>
</defs>
</svg>
