<svg width="512" height="512" viewBox="0 0 512 512" fill="none" xmlns="http://www.w3.org/2000/svg">
<g clip-path="url(#clip0_2_6408)">
<path fill-rule="evenodd" clip-rule="evenodd" d="M256 0H512V512H256V0Z" fill="#CE0000"/>
<path fill-rule="evenodd" clip-rule="evenodd" d="M0 0H256V512H0V0Z" fill="white"/>
<path fill-rule="evenodd" clip-rule="evenodd" d="M104.794 108.106C104.794 108.912 103.884 109.577 102.764 109.577C101.609 109.577 100.699 108.877 100.699 108.106C100.699 107.301 101.609 106.636 102.729 106.636C103.849 106.636 104.829 107.301 104.829 108.106H104.794Z" fill="#F1EEEE"/>
<path fill-rule="evenodd" clip-rule="evenodd" d="M40.7002 101.001V138.209H77.9455C78.1581 141.429 79.5309 144.462 81.8095 146.747C84.0881 149.032 87.1179 150.413 90.3373 150.635V187.843H127.548V150.635C130.767 150.413 133.797 149.032 136.075 146.747C138.354 144.462 139.727 141.429 139.939 138.209H177.15V101.001H139.939C139.719 97.7873 138.342 94.7622 136.064 92.4845C133.787 90.2068 130.761 88.8305 127.548 88.6098V51.4016H90.3373V88.6098C87.1235 88.8305 84.0983 90.2068 81.8205 92.4845C79.5426 94.7622 78.1662 97.7873 77.9455 101.001H40.7002Z" fill="#CC0000"/>
<path fill-rule="evenodd" clip-rule="evenodd" d="M41.9604 102.261V136.984H79.1708C79.3915 140.198 80.7679 143.223 83.0457 145.5C85.3235 147.778 88.3488 149.154 91.5625 149.375V186.618H126.287V149.375C129.507 149.162 132.541 147.79 134.826 145.511C137.111 143.233 138.493 140.203 138.714 136.984H175.925V102.261H138.714C138.501 99.0356 137.123 95.9975 134.837 93.7118C132.551 91.4262 129.513 90.0484 126.287 89.8349V52.6267H91.5625V89.8349C88.3494 90.0647 85.328 91.4496 83.0566 93.7337C80.7853 96.0178 79.4174 99.0468 79.2058 102.261H41.9604Z" fill="#FFE600"/>
<path fill-rule="evenodd" clip-rule="evenodd" d="M43.1504 103.486V135.724H80.3607C80.5742 138.949 81.952 141.987 84.2379 144.273C86.5237 146.559 89.5619 147.936 92.7875 148.15V185.358H125.027V148.115C128.246 147.893 131.276 146.512 133.555 144.227C135.833 141.942 137.206 138.909 137.419 135.689H174.629V103.486H137.419C137.207 100.272 135.839 97.2429 133.568 94.9588C131.297 92.6747 128.275 91.2898 125.062 91.06V53.8868H92.8225V91.06C89.6025 91.2726 86.5688 92.6454 84.2838 94.9238C81.9988 97.2023 80.6174 100.232 80.3957 103.451H43.1504V103.486Z" fill="#707070"/>
<path fill-rule="evenodd" clip-rule="evenodd" d="M44.4106 104.711V134.464H81.621C81.8336 137.684 83.2064 140.717 85.485 143.002C87.7636 145.287 90.7934 146.668 94.0127 146.89V184.098H123.767V146.89C126.987 146.677 130.021 145.304 132.306 143.026C134.591 140.748 135.972 137.718 136.194 134.499H173.369V104.746H136.194C135.981 101.526 134.608 98.4929 132.33 96.208C130.051 93.9231 127.021 92.5418 123.802 92.3201V55.1119H94.0477V92.3201C90.8278 92.5327 87.7941 93.9055 85.5091 96.1839C83.224 98.4624 81.8426 101.492 81.621 104.711H44.4106Z" fill="#A0A0A0"/>
<path fill-rule="evenodd" clip-rule="evenodd" d="M94.3278 89.2399C96.5331 91.4451 94.7479 96.7305 90.4072 101.106C86.0666 105.481 80.7459 107.231 78.5405 105.026C76.3702 102.856 78.1555 97.5706 82.4961 93.1952C86.8367 88.8198 92.1575 87.0697 94.3278 89.2399Z" fill="#D0D0D0"/>
<path fill-rule="evenodd" clip-rule="evenodd" d="M91.7023 91.8651C93.9076 94.0703 93.3125 98.1657 90.4071 101.071C87.5017 103.976 83.3711 104.571 81.2008 102.401C78.9955 100.231 79.5906 96.1005 82.496 93.1953C85.4014 90.29 89.532 89.695 91.7023 91.8651Z" fill="#808080"/>
<path fill-rule="evenodd" clip-rule="evenodd" d="M80.7461 98.4457L81.6212 97.5706L85.1217 99.3208L83.3715 95.8205L84.2466 94.9454L87.7471 101.946L80.7461 98.4457ZM85.9968 93.1953L86.872 92.3202L92.1227 97.5706L91.2826 98.4457L85.9968 93.1953Z" fill="#D0D0D0"/>
<path fill-rule="evenodd" clip-rule="evenodd" d="M139.274 105.061C137.104 107.231 131.783 105.446 127.442 101.106C123.102 96.7655 121.317 91.445 123.487 89.2398C125.692 87.0696 130.978 88.8548 135.319 93.1952C139.659 97.5356 141.444 102.856 139.274 105.026V105.061Z" fill="#D0D0D0"/>
<path fill-rule="evenodd" clip-rule="evenodd" d="M136.649 102.401C134.478 104.571 130.348 104.011 127.442 101.106C124.537 98.2006 123.942 94.0703 126.112 91.9001C128.282 89.7299 132.413 90.2899 135.318 93.1952C138.224 96.1004 138.819 100.196 136.649 102.401Z" fill="#808080"/>
<path fill-rule="evenodd" clip-rule="evenodd" d="M130.068 91.41L130.943 92.3201L129.193 95.8204L132.693 94.0703L133.568 94.9453L126.567 98.4456L130.068 91.445V91.41ZM135.319 96.6955L136.194 97.5706L130.943 102.821L130.068 101.981L135.319 96.6955Z" fill="#D0D0D0"/>
<path fill-rule="evenodd" clip-rule="evenodd" d="M123.487 149.97C121.317 147.8 123.102 142.479 127.442 138.139C131.783 133.799 137.104 132.013 139.274 134.184C141.444 136.354 139.694 141.674 135.319 146.015C130.943 150.355 125.692 152.14 123.487 149.97Z" fill="#D0D0D0"/>
<path fill-rule="evenodd" clip-rule="evenodd" d="M126.112 147.345C123.942 145.175 124.537 141.044 127.442 138.139C130.348 135.234 134.443 134.639 136.649 136.809C138.819 139.014 138.224 143.109 135.318 146.015C132.413 148.92 128.317 149.515 126.112 147.345Z" fill="#808080"/>
<path fill-rule="evenodd" clip-rule="evenodd" d="M137.104 140.764L136.229 141.639L132.728 139.889L134.479 143.389L133.569 144.265L130.068 137.264L137.069 140.764H137.104ZM131.853 146.015L130.943 146.89L125.692 141.639L126.568 140.764L131.853 146.015Z" fill="#D0D0D0"/>
<path fill-rule="evenodd" clip-rule="evenodd" d="M78.5757 134.184C80.7461 132.014 86.0318 133.764 90.4074 138.139C94.7831 142.514 96.5333 147.8 94.363 149.97C92.1577 152.14 86.8719 150.39 82.4963 146.015C78.1207 141.639 76.3704 136.354 78.5757 134.184Z" fill="#D0D0D0"/>
<path fill-rule="evenodd" clip-rule="evenodd" d="M81.2013 136.809C83.3716 134.639 87.5022 135.234 90.4076 138.139C93.313 141.044 93.9081 145.14 91.7028 147.345C89.5325 149.515 85.4019 148.92 82.4965 146.015C79.5911 143.11 78.996 139.014 81.2013 136.809Z" fill="#808080"/>
<path fill-rule="evenodd" clip-rule="evenodd" d="M87.747 147.765L86.8718 146.89L88.6221 143.39L85.1216 145.14L84.2465 144.265L91.2475 140.764L87.747 147.765ZM82.4962 142.514L81.6211 141.639L86.8718 136.389L87.747 137.264L82.4962 142.514Z" fill="#D0D0D0"/>
<path d="M134.981 119.622C134.981 133.974 123.322 145.665 108.928 145.665C94.5336 145.665 82.9087 134.009 82.9087 119.622C82.9087 105.236 94.5677 93.5802 108.962 93.5802C123.356 93.5802 135.015 105.236 135.015 119.622H134.981Z" stroke="#707070" stroke-width="0.46126"/>
<path d="M128.776 119.617C128.776 130.551 119.893 139.458 108.926 139.458C97.9587 139.458 89.1016 130.578 89.1016 119.617C89.1016 108.656 97.9847 99.7751 108.952 99.7751C119.919 99.7751 128.802 108.656 128.802 119.617H128.776Z" stroke="#707070" stroke-width="0.351437"/>
<path fill-rule="evenodd" clip-rule="evenodd" d="M100.209 140.694C100.209 141.019 100.08 141.331 99.8498 141.561C99.62 141.79 99.3084 141.919 98.9835 141.919C98.6585 141.919 98.3469 141.79 98.1171 141.561C97.8874 141.331 97.7583 141.019 97.7583 140.694C97.7583 140.369 97.8874 140.058 98.1171 139.828C98.3469 139.598 98.6585 139.469 98.9835 139.469C99.3084 139.469 99.62 139.598 99.8498 139.828C100.08 140.058 100.209 140.369 100.209 140.694ZM120.091 140.694C120.091 141.024 119.961 141.34 119.728 141.573C119.494 141.806 119.178 141.937 118.849 141.937C118.519 141.937 118.203 141.806 117.97 141.573C117.737 141.34 117.606 141.024 117.606 140.694C117.606 140.369 117.735 140.058 117.965 139.828C118.195 139.598 118.506 139.469 118.831 139.469C119.156 139.469 119.468 139.598 119.698 139.828C119.927 140.058 120.056 140.369 120.056 140.694H120.091ZM108.085 140.694V141.989H106.44C104.794 141.989 104.794 143.284 106.44 143.284H108.085V144.58C108.085 145.91 109.555 146.085 109.66 144.685L109.765 143.284H111.41C113.055 143.284 113.055 141.989 111.41 141.989H109.765V140.694C109.765 139.399 108.085 139.399 108.085 140.694Z" fill="#D0D0D0"/>
<path fill-rule="evenodd" clip-rule="evenodd" d="M102.76 122.379V123.104C102.76 123.104 102.379 123.673 99.8927 123.848C97.4067 124.024 97.0251 123.848 97.0251 123.848C97.0945 124.48 97.5685 125.7 97.4298 127.149C97.5339 128.825 96.9673 130.356 96.9673 130.356C97.0251 130.439 96.736 130.49 96.2041 130.439C96.6204 130.076 96.5626 129.011 96.6204 127.511C96.6666 126 95.0478 123.735 95.3832 123.114C95.7185 122.493 102.76 122.379 102.76 122.379Z" fill="#D0D0D0" stroke="#707070" stroke-width="0.14583"/>
<path fill-rule="evenodd" clip-rule="evenodd" d="M112.57 119.717C114.986 119.603 119.033 119.624 119.033 119.624C119.033 119.624 119.993 121.538 119.947 122.593C119.9 123.648 119.577 124.558 119.137 124.103C118.698 123.648 119.334 123.741 119.415 122.593C119.496 121.455 118.652 120.275 118.652 120.275C118.652 120.275 116.917 121.031 114.316 120.875C111.714 120.72 112.87 119.758 112.581 119.717H112.57Z" fill="#D0D0D0" stroke="#707070" stroke-width="0.14583"/>
<path fill-rule="evenodd" clip-rule="evenodd" d="M113.415 121.612C115.831 121.488 117.416 121.86 117.416 121.86C117.416 121.86 118.364 123.774 118.329 124.829C118.294 125.885 117.959 126.795 117.508 126.34C117.057 125.885 117.716 125.978 117.797 124.829C117.878 123.691 117.022 122.502 117.022 122.502C117.022 122.502 115.288 123.257 112.698 123.112C110.096 122.957 110.836 122.802 110.547 122.76C110.258 122.719 110.177 123.484 106.246 123.588C102.314 123.691 100.303 122.76 100.303 122.76C100.303 122.76 99.9094 123.319 97.435 123.484C94.9605 123.65 94.5674 123.484 94.5674 123.484C94.6252 124.126 95.1108 125.347 94.9721 126.795C95.0646 128.471 94.5096 130.002 94.5096 130.002C94.5674 130.085 94.2667 130.137 93.7464 130.085C94.1511 129.723 94.1049 128.657 94.1511 127.157C94.1974 125.647 92.5901 123.371 92.9255 122.75C93.2608 122.129 95.0415 122.709 95.3883 122.377C95.7237 122.057 93.7927 119.76 94.1511 117.619C94.5211 115.467 96.5562 116.067 99.0769 116.149C101.586 116.222 107.148 116.874 108.501 116.149C109.842 115.425 109.252 112.735 110.536 111.018C110.894 110.54 111.386 110.154 111.961 109.896C112.537 109.639 113.177 109.519 113.82 109.549C114.629 109.549 115.866 112.487 115.866 113.211L115.461 113.584H115.045V113.946C114.12 114.049 113.981 113.149 113.415 112.487C113.16 113.522 114.224 116.884 114.224 119.077C114.224 120.919 113.461 121.726 113.415 121.591V121.612Z" fill="#D0D0D0" stroke="#707070" stroke-width="0.14583"/>
<path fill-rule="evenodd" clip-rule="evenodd" d="M105.507 118.414C105.554 119.138 102.351 120.783 102.085 121.435C101.819 122.087 102.894 122.438 102.57 122.811C102.235 123.183 101.969 123.039 101.9 123.111C101.83 123.183 100.697 120.566 100.697 120.566C100.697 120.566 103.703 119.221 103.588 118.631C103.472 118.042 101.368 117.7 100.975 116.221C100.593 114.752 100.813 111.907 100.501 111.307C100.188 110.717 96.4883 110.148 96.4883 109.248C96.4883 108.348 100.304 105.886 100.697 105.524C101.102 105.151 101.507 105.886 101.102 106.248C100.697 106.62 97.7255 108.886 97.7255 109.248C97.7255 109.62 100.188 109.983 101.009 109.983C101.819 109.983 102.235 109.62 102.235 109.258C102.235 108.938 101.426 108.886 101.426 108.151C101.426 107.417 101.83 107.055 102.651 107.055C103.056 107.055 103.842 107.52 103.877 108.151C103.912 108.772 103.148 108.834 103.056 109.248C102.963 109.662 103.865 109.983 104.698 109.983C105.507 109.983 108.317 112.114 108.722 112.486C109.126 112.848 109.531 112.848 109.126 113.21C108.722 113.583 108.965 114.017 108.548 113.645C108.201 113.293 108.144 112.921 108.144 112.921C108.109 112.579 105.103 111.079 104.698 111.452C104.282 111.814 104.698 116.21 104.698 116.583C104.698 117.307 105.542 117.307 105.507 118.414Z" fill="#D0D0D0" stroke="#707070" stroke-width="0.14583"/>
<path fill-rule="evenodd" clip-rule="evenodd" d="M100.279 109.927H105.18V115.072H100.279V109.927Z" fill="#A7A7A7"/>
<path d="M116.19 128.408L99.7132 103.676C99.5739 103.466 99.3849 103.337 99.2911 103.387C99.1972 103.438 99.2341 103.648 99.3735 103.857L115.85 128.589C115.989 128.798 116.178 128.927 116.272 128.877C116.366 128.827 116.329 128.617 116.19 128.408Z" fill="#808080"/>
<path fill-rule="evenodd" clip-rule="evenodd" d="M101.5 105.888C101.5 106.083 101.413 106.269 101.259 106.407C101.105 106.545 100.897 106.622 100.679 106.622C100.461 106.622 100.252 106.545 100.098 106.407C99.9444 106.269 99.8579 106.083 99.8579 105.888C99.8579 105.693 99.9444 105.506 100.098 105.368C100.252 105.231 100.461 105.153 100.679 105.153C100.897 105.153 101.105 105.231 101.259 105.368C101.413 105.506 101.5 105.693 101.5 105.888Z" fill="#D0D0D0" stroke="#707070" stroke-width="0.14583"/>
<path fill-rule="evenodd" clip-rule="evenodd" d="M115.856 112.552C115.856 112.902 113.965 113.252 111.76 113.252C109.555 113.252 107.665 112.902 107.665 112.552C107.665 112.272 109.555 113.007 111.76 113.007C113.965 113.007 115.856 112.272 115.856 112.552Z" fill="#808080"/>
<path fill-rule="evenodd" clip-rule="evenodd" d="M100.699 115.072H104.794V116.507H100.699V115.072Z" fill="#A7A7A7"/>
<path fill-rule="evenodd" clip-rule="evenodd" d="M114.001 111.432C113.651 112.202 113.231 112.727 113.161 112.622C113.091 112.552 113.371 111.852 113.756 111.117C114.176 110.382 114.561 109.857 114.596 109.927C114.666 110.032 114.421 110.697 114.001 111.432ZM115.051 113.357C114.596 113.777 114.246 114.057 114.211 113.952C114.211 113.882 114.561 113.497 115.016 113.077C115.471 112.692 115.856 112.412 115.856 112.517C115.856 112.587 115.506 112.972 115.051 113.357Z" fill="#808080"/>
<path fill-rule="evenodd" clip-rule="evenodd" d="M114.561 112.412C114.876 113.042 115.086 113.567 115.016 113.602C114.981 113.602 114.666 113.147 114.316 112.552C113.966 111.922 113.756 111.432 113.826 111.397C113.896 111.397 114.176 111.852 114.526 112.447L114.561 112.412ZM114.211 115.597C114.211 115.702 112.95 115.772 111.34 115.772C109.73 115.772 108.47 115.702 108.47 115.597C108.47 115.492 109.765 115.422 111.34 115.422C112.95 115.422 114.211 115.492 114.211 115.597ZM104.794 115.247C104.794 115.352 103.884 115.422 102.764 115.422C101.609 115.422 100.699 115.352 100.699 115.247C100.699 115.142 101.609 115.072 102.729 115.072C103.849 115.072 104.829 115.142 104.829 115.247H104.794Z" fill="#808080"/>
<path fill-rule="evenodd" clip-rule="evenodd" d="M95.7983 128.003C95.7983 128.003 96.4788 129.639 99.3517 129.662C102.225 129.685 103.23 129.171 102.058 128.298C100.886 127.425 98.7318 127.702 99.0115 128.453C99.2912 129.203 98.195 129.453 97.9379 128.925C97.6809 128.398 96.6527 126.834 98.505 126.729C100.357 126.625 104.289 126.057 105.271 127.148C106.254 128.239 104.153 129.226 105.74 129.457C107.328 129.685 107.555 129.194 110.276 129.044C112.998 128.894 114.034 129.544 114.964 129.453C115.894 129.362 115.765 127.762 115.024 127.357C114.291 126.948 112.87 126.875 112.507 126.429C112.144 125.984 111.161 126.343 111.252 125.838C111.342 125.334 112.65 126.188 112.666 125.929C112.666 125.92 112.885 125.752 112.93 125.707C112.764 125.67 112.666 125.734 112.545 125.797C112.681 125.688 112.673 125.638 112.718 125.552C112.696 125.52 112.529 125.679 112.499 125.643C112.469 125.607 112.688 125.388 112.59 125.47C112.56 125.493 112.303 125.62 112.295 125.534C112.295 125.497 112.431 125.406 112.386 125.352C112.348 125.311 112.159 125.402 112.129 125.411C112.242 125.261 112.235 125.266 112.129 125.152C112.03 125.043 111.962 125.043 111.804 125.17C111.872 124.988 111.887 124.952 111.728 124.884C111.607 124.811 111.6 124.747 111.441 125.07C111.501 124.724 111.342 124.706 111.411 124.547C111.448 124.397 111.66 124.333 112.008 124.365C112.688 124.37 113.044 125.184 113.263 125.179C113.49 125.179 113.732 124.32 114.684 124.665C115.629 125.015 115.743 125.084 116.226 125.293C116.703 125.497 115.886 125.811 116.158 126.22C116.431 126.629 118.298 127.984 117.769 129.403C117.24 130.812 115.879 131.04 115.75 131.653C115.629 132.263 120.06 132.017 121.194 132.222C122.328 132.426 123.038 133.267 123.084 133.413C123.129 133.558 121.103 133.545 121.103 133.545C121.103 133.545 120.06 133.008 117.58 132.954C115.092 132.908 114.147 131.908 113.217 131.781C112.288 131.653 110.307 131.994 109.203 131.944C108.092 131.894 106.973 131.717 106.254 131.622C105.536 131.522 101.968 133.231 101.983 133.631C101.234 133.599 99.4878 133.508 99.5558 133.554C99.6315 133.599 99.8734 132.781 101.234 132.635C102.595 132.49 103.933 131.835 103.88 131.408C103.843 130.976 104.153 129.498 104.258 128.871C104.364 128.243 104.886 127.934 104.765 127.598C104.644 127.271 103.087 126.93 101.59 126.939C100.093 126.948 98.4294 127.03 98.1874 127.393C97.9455 127.757 98.1345 128.803 98.4445 128.68C98.7469 128.562 98.3689 127.875 98.694 127.734C99.2985 127.55 99.9666 127.453 100.645 127.452C101.431 127.434 102.799 128.121 102.784 128.339C102.769 128.562 103.223 129.294 102.595 129.567C101.968 129.848 100.682 129.976 99.45 129.912C98.3699 129.842 97.3502 129.577 96.5241 129.153C96.0705 128.88 95.7983 128.057 95.7983 127.998V128.003Z" fill="#D0D0D0" stroke="#808080" stroke-width="0.078172"/>
<path fill-rule="evenodd" clip-rule="evenodd" d="M114.036 125.573C114.036 125.666 113.999 125.755 113.933 125.82C113.867 125.886 113.778 125.923 113.685 125.923C113.593 125.923 113.504 125.886 113.438 125.82C113.372 125.755 113.335 125.666 113.335 125.573C113.335 125.48 113.372 125.391 113.438 125.325C113.504 125.26 113.593 125.223 113.685 125.223C113.778 125.223 113.867 125.26 113.933 125.325C113.999 125.391 114.036 125.48 114.036 125.573Z" fill="black"/>
<path d="M129.473 120.813L131.083 121.163L133.744 119.307L133.534 120.287L132.133 121.198L131.363 121.688L131.888 122.458L132.763 123.858L132.553 124.768L130.908 121.933L129.298 121.583L129.473 120.813ZM126.778 109.087L129.858 107.651L129.018 105.831L129.438 105.656L131.433 110.032L131.013 110.207L130.173 108.386L127.093 109.787L126.743 109.087H126.778ZM121.982 103.241L124.817 100.651L125.377 101.281L125.307 105.656L127.548 103.626L128.073 104.186L125.202 106.776L124.642 106.181L124.747 101.771L122.507 103.836L121.982 103.241ZM109.555 98.2356L110.045 94.3853L110.815 94.5253L110.43 97.8856L113.406 98.2356L113.336 98.6906L109.555 98.2356ZM103.464 98.7956L102.764 95.0153L103.569 94.8753L104.164 98.2006L107.105 97.6755L107.21 98.1306L103.464 98.7956ZM92.1576 104.361L91.8776 104.011L93.9078 102.401L94.783 103.521C94.5938 103.92 94.3588 104.296 94.0829 104.641C93.8264 104.977 93.5328 105.282 93.2077 105.551C92.7777 105.907 92.2931 106.19 91.7725 106.391C91.2825 106.566 90.8624 106.601 90.4774 106.531C90.0923 106.461 89.7773 106.251 89.5322 105.971C89.3027 105.67 89.1796 105.3 89.1822 104.921C89.1687 104.475 89.2908 104.036 89.5322 103.661C89.8379 103.206 90.2163 102.804 90.6524 102.471C90.9741 102.217 91.327 102.005 91.7025 101.841C92.0176 101.701 92.2976 101.596 92.5777 101.596C92.8577 101.596 93.0677 101.666 93.3128 101.806L92.8227 102.366C92.6489 102.278 92.4575 102.23 92.2626 102.226C92.0876 102.226 91.9126 102.261 91.6675 102.366C91.4032 102.484 91.1559 102.637 90.9324 102.821C90.6524 103.031 90.4073 103.276 90.2323 103.521L89.9173 104.116C89.8487 104.335 89.8351 104.568 89.8778 104.794C89.9206 105.02 90.0183 105.232 90.1623 105.411C90.3532 105.66 90.6259 105.834 90.9324 105.901C91.2125 105.971 91.5275 105.936 91.8776 105.796C92.2276 105.656 92.5777 105.446 92.8927 105.236C93.1554 105.021 93.3905 104.774 93.5928 104.501C93.8028 104.221 93.9429 103.976 94.0129 103.801L93.5578 103.241L92.1576 104.361ZM92.0526 132.048L88.9021 134.289L86.5218 130.928L86.8718 130.683L88.7971 133.379L89.7773 132.679L88.132 130.333L88.4821 130.088L90.1623 132.399L91.5625 131.383L92.0526 132.083V132.048ZM87.4319 127.043C87.6407 126.985 87.831 126.874 87.9843 126.72C88.1376 126.567 88.2488 126.377 88.307 126.168C88.4471 125.713 88.4471 125.223 88.307 124.628C88.1834 124.112 87.902 123.647 87.5019 123.298C87.3296 123.154 87.1237 123.056 86.9034 123.013C86.683 122.97 86.4554 122.984 86.2418 123.053C85.9666 123.128 85.7218 123.287 85.5417 123.508C85.3384 123.757 85.2162 124.062 85.1916 124.383C85.1566 124.733 85.1916 125.083 85.2966 125.468C85.4242 125.974 85.691 126.435 86.0667 126.798C86.4168 127.148 86.8718 127.183 87.4319 127.043ZM87.642 127.848C87.0119 128.023 86.4518 127.883 85.9617 127.498C85.4716 127.043 85.1216 126.448 84.8766 125.608C84.7365 125.048 84.6665 124.558 84.7015 124.068C84.7365 123.578 84.8766 123.193 85.1216 122.878C85.3342 122.575 85.6425 122.353 85.9967 122.248C86.3668 122.139 86.7632 122.164 87.1169 122.318C87.5178 122.497 87.8583 122.789 88.097 123.158C88.3824 123.574 88.5955 124.036 88.7271 124.523C88.8671 125.083 88.9371 125.573 88.8671 126.063C88.8403 126.491 88.6948 126.903 88.4471 127.253C88.2524 127.536 87.9691 127.745 87.642 127.848ZM87.957 120.007L84.1064 119.937L84.1765 117.242C84.1765 116.682 84.2115 116.297 84.2815 116.017C84.3865 115.737 84.4915 115.492 84.6665 115.317C84.8415 115.177 85.0516 115.107 85.2616 115.107C85.5417 115.107 85.7517 115.247 85.9617 115.527C86.1717 115.807 86.2417 116.227 86.2768 116.822L86.4868 116.367C86.6312 116.112 86.8077 115.877 87.0119 115.667L88.062 114.652V115.702L87.2219 116.472L86.6968 117.032C86.5568 117.172 86.4868 117.312 86.4168 117.452C86.3686 117.565 86.3334 117.682 86.3118 117.802V118.257L86.2768 119.167L87.957 119.237V120.042V120.007ZM85.8217 119.167L85.8567 117.417L85.8217 116.577C85.7883 116.394 85.7033 116.224 85.5767 116.087C85.479 115.997 85.3576 115.936 85.2266 115.912C85.0516 115.912 84.8766 116.017 84.8065 116.262C84.6639 116.557 84.592 116.88 84.5965 117.207L84.5615 119.132L85.8217 119.167ZM96.5332 102.226V97.7105L97.3033 97.2555L101.399 99.3207L100.629 99.7757L99.4036 99.1457L97.2333 100.441V101.771L96.5332 102.226ZM97.2333 99.9507L98.9836 98.9006L97.8984 98.3056L97.1283 97.8505L97.1983 98.6556L97.2333 99.9507ZM115.821 98.7606L119.987 97.0105L120.687 97.5355L120.442 102.086L119.672 101.561L119.812 100.196L117.711 98.7256L116.521 99.2507L115.821 98.7606ZM118.166 98.5156L119.847 99.7407L119.952 98.4806C119.987 98.1306 120.022 97.8156 120.092 97.6055L119.391 97.9906L118.166 98.5156ZM128.493 112.867L132.238 111.957L132.868 114.582C132.973 115.107 133.043 115.527 133.043 115.807C133.043 116.067 132.97 116.321 132.833 116.542C132.693 116.752 132.553 116.892 132.343 116.927C132.063 116.997 131.818 116.927 131.573 116.682C131.264 116.355 131.036 115.959 130.908 115.527C130.908 115.737 130.908 115.877 130.838 116.017C130.754 116.287 130.636 116.546 130.488 116.787L129.718 118.082L129.473 117.102L130.068 116.122L130.453 115.422C130.558 115.247 130.593 115.072 130.628 114.967C130.641 114.851 130.641 114.733 130.628 114.617L130.558 114.162L130.313 113.252L128.668 113.637L128.493 112.867ZM130.768 113.147L131.153 114.827C131.258 115.177 131.328 115.457 131.433 115.632C131.538 115.842 131.643 115.982 131.783 116.052C131.888 116.122 132.028 116.157 132.133 116.122C132.308 116.087 132.448 115.947 132.483 115.737C132.561 115.39 132.549 115.028 132.448 114.687L131.993 112.832L130.768 113.147Z" fill="#D0D0D0"/>
</g>
<defs>
<clipPath id="clip0_2_6408">
<rect width="512" height="512" fill="white"/>
</clipPath>
</defs>
</svg>
