<svg width="512" height="512" viewBox="0 0 512 512" fill="none" xmlns="http://www.w3.org/2000/svg">
<g clip-path="url(#clip0_2_6457)">
<path d="M0 0H512V512H0V0Z" fill="#D21034"/>
<path d="M128 128H384V384H128V128Z" fill="#007E3A"/>
<path d="M288 341.3C335.11 341.3 373.3 303.11 373.3 256C373.3 208.89 335.11 170.7 288 170.7C240.89 170.7 202.7 208.89 202.7 256C202.7 303.11 240.89 341.3 288 341.3Z" fill="white"/>
<path d="M308.6 341.3C349.414 341.3 382.5 303.11 382.5 256C382.5 208.89 349.414 170.7 308.6 170.7C267.786 170.7 234.7 208.89 234.7 256C234.7 303.11 267.786 341.3 308.6 341.3Z" fill="#007E3A"/>
</g>
<defs>
<clipPath id="clip0_2_6457">
<rect width="512" height="512" fill="white"/>
</clipPath>
</defs>
</svg>
