<svg width="512" height="512" viewBox="0 0 512 512" fill="none" xmlns="http://www.w3.org/2000/svg">
<g clip-path="url(#clip0_2_6462)">
<mask id="mask0_2_6462" style="mask-type:luminance" maskUnits="userSpaceOnUse" x="0" y="0" width="513" height="513">
<path d="M0.03125 0H512.06V512.029H0.03125V0Z" fill="white"/>
</mask>
<g mask="url(#mask0_2_6462)">
<path fill-rule="evenodd" clip-rule="evenodd" d="M-129.8 0H638.207V512.029H-129.8V0Z" fill="#F41408"/>
<path fill-rule="evenodd" clip-rule="evenodd" d="M-129.8 341.304H638.207V512.029H-129.8V341.304Z" fill="#21873B"/>
<path fill-rule="evenodd" clip-rule="evenodd" d="M-129.8 0H638.207V170.652H-129.8V0Z" fill="#000001"/>
<path fill-rule="evenodd" clip-rule="evenodd" d="M160.207 154.613C170.93 128.506 191.583 107.728 217.624 96.8481C243.666 85.9683 272.962 85.8779 299.07 96.5969C312.198 101.763 324.12 109.582 334.09 119.564C344.06 129.547 351.864 141.478 357.014 154.613H160.207ZM134.198 161.693C116.518 160.34 98.9905 157.439 81.8173 153.023C77.7713 151.578 77.5546 149.122 78.0603 147.243C78.4749 146.02 79.3421 145.001 80.4841 144.396C81.6261 143.792 82.9563 143.647 84.2015 143.992C89.9092 145.437 113.029 151.578 134.27 161.693H134.198ZM258.9 66.9026C254.709 43.7829 253.625 18.279 254.059 14.0163C254.42 9.68135 256.804 8.95886 258.755 8.95886C260.033 9.05036 261.228 9.62332 262.1 10.562C262.972 11.5008 263.455 12.7353 263.451 14.0163C263.451 19.9407 263.307 43.8551 258.9 66.9026ZM270.459 67.4806C268.812 49.7987 268.691 32.0079 270.098 14.3053C270.893 10.0426 273.277 9.46461 275.228 9.68135C277.179 9.82585 279.78 12.0656 279.491 15.1723C278.985 20.9522 276.817 44.7944 270.459 67.4806ZM280.863 68.9255C280.574 45.3724 283.753 20.0852 284.981 15.8948C286.065 11.7043 288.522 11.3431 290.472 11.7043C291.713 12.014 292.791 12.7825 293.488 13.855C294.185 14.9275 294.45 16.2243 294.229 17.4842C293.218 23.2642 289.1 46.8173 280.863 68.8533V68.9255ZM291.917 71.3097C293.724 47.9011 299.142 22.9752 300.587 18.9292C302.032 14.8833 304.561 14.7388 306.439 15.2445C307.647 15.6587 308.654 16.5146 309.257 17.6403C309.86 18.7661 310.015 20.0783 309.691 21.3134C308.173 27.0211 302.032 50.1408 291.917 71.3097ZM302.755 74.7777C305.656 57.2783 310.08 40.0658 315.976 23.3364C317.855 19.435 320.311 19.5072 322.19 20.1575C323.374 20.6828 324.312 21.6427 324.809 22.8392C325.307 24.0356 325.326 25.3774 324.863 26.5876C322.84 32.0785 314.604 54.548 302.682 74.7777H302.755ZM312.87 79.0404C318.649 56.2097 328.331 32.6565 330.571 28.8996C332.738 25.1426 335.194 25.4316 336.928 26.2986C338.04 26.9124 338.88 27.922 339.282 29.1267C339.683 30.3313 339.617 31.643 339.096 32.801C336.567 38.2197 326.525 59.8944 312.87 79.0404ZM322.84 84.2423C328.771 67.5115 336.119 51.3172 344.804 35.8355C347.26 32.2953 349.717 32.801 351.451 33.8125C352.494 34.5445 353.222 35.6432 353.49 36.8889C353.758 38.1347 353.545 39.4356 352.895 40.5317C350.006 45.5891 338.084 66.3246 322.84 84.2423ZM332.232 90.239C339.581 74.0907 348.333 58.6183 358.386 43.9996C361.132 40.6762 363.516 41.3987 365.106 42.5546C366.086 43.3618 366.728 44.5086 366.902 45.7669C367.076 47.0252 366.77 48.3029 366.045 49.3461C362.649 54.1867 348.994 73.7662 332.232 90.239ZM341.047 97.1026C352.607 76.5839 368.068 56.3542 371.175 53.2475C374.209 50.213 376.521 51.08 378.038 52.3805C379.483 53.681 380.35 56.9322 378.327 59.3164C374.57 63.7959 359.253 82.1471 341.047 97.1026ZM349.355 104.689C359.392 90.0584 370.682 76.3276 383.096 63.6514C386.419 60.9059 388.659 61.9896 390.031 63.3624C390.877 64.3371 391.319 65.5983 391.265 66.8877C391.211 68.1772 390.667 69.3973 389.742 70.2983C377.313 82.9499 363.772 94.4596 349.283 104.689H349.355ZM356.869 112.997C371.825 94.8629 390.609 77.5954 394.15 75.1389C397.762 72.6825 399.785 73.983 401.086 75.4279C401.84 76.4681 402.17 77.7564 402.009 79.0312C401.848 80.306 401.208 81.4717 400.219 82.2916C386.691 93.7701 372.186 104.044 356.869 112.997ZM363.372 121.523C375.774 108.811 389.264 97.2069 403.687 86.8433C407.444 84.6758 409.466 86.193 410.55 87.8548C411.706 89.4442 411.706 92.7677 409.105 94.5739C394.709 104.885 379.429 113.903 363.444 121.523H363.372ZM369.296 130.771C382.741 119.178 397.173 108.783 412.429 99.7036C416.33 97.8974 418.209 99.5591 419.22 101.221C420.159 102.883 419.943 106.278 417.197 107.868C412.14 110.758 391.476 122.896 369.296 130.771ZM374.787 141.319C389.261 131.049 404.585 122.033 420.593 114.37C424.639 112.925 426.373 114.731 427.167 116.538C427.614 117.73 427.594 119.047 427.112 120.226C426.63 121.405 425.721 122.358 424.567 122.896C408.546 130.486 391.889 136.651 374.787 141.319ZM378.977 151.506C394.232 142.464 410.263 134.799 426.878 128.603C431.069 127.519 432.658 129.47 433.309 131.276C434.031 133.083 433.092 136.334 430.13 137.418C413.531 143.624 396.413 148.339 378.977 151.506ZM382.301 162.343C398.342 154.685 415.023 148.448 432.153 143.703C436.343 142.981 437.716 145.004 438.222 146.954C438.448 148.195 438.204 149.475 437.535 150.544C436.867 151.614 435.823 152.395 434.609 152.734C428.829 154.324 405.782 160.465 382.301 162.271V162.343ZM247.629 67.2638C242.869 50.2166 239.605 32.7867 237.875 15.1723C237.875 10.8373 240.115 9.8981 242.066 9.68135C243.359 9.65958 244.612 10.1343 245.566 11.0078C246.52 11.8813 247.103 13.0872 247.195 14.3775C247.773 20.1575 249.868 43.9996 247.629 67.4083V67.2638ZM236.502 68.7088C230.268 52.108 225.506 34.9914 222.269 17.5565C221.908 13.2216 224.076 12.0656 225.954 11.7043C227.242 11.557 228.537 11.9096 229.572 12.6893C230.607 13.4691 231.303 14.6165 231.517 15.8948C232.529 21.6747 236.719 45.2279 236.502 68.7088ZM225.448 71.1653C217.771 55.1495 211.51 38.4928 206.736 21.3857C206.013 17.123 208.109 15.7503 209.987 15.2445C211.237 15.0209 212.526 15.2757 213.596 15.9583C214.667 16.641 215.442 17.7015 215.767 18.9292C217.356 24.6369 223.57 47.6843 225.448 71.1653ZM215.044 74.4165C206.048 59.1229 198.408 43.0704 192.214 26.4431C191.13 22.2527 193.081 20.6632 194.887 20.013C196.123 19.6641 197.445 19.7985 198.586 20.3889C199.726 20.9792 200.599 21.9814 201.028 23.1919C203.051 28.7551 211.215 51.1523 215.044 74.4165ZM204.93 78.5346C194.627 64.107 185.61 48.8039 177.981 32.801C176.536 28.6828 178.27 27.0211 180.076 26.2264C181.277 25.7587 182.612 25.7674 183.807 26.2508C185.002 26.7343 185.968 27.6559 186.506 28.8273C188.963 34.1738 199.005 55.8485 204.857 78.6791L204.93 78.5346ZM194.67 83.8811C183.116 70.3883 172.769 55.907 163.748 40.6039C161.941 36.7025 163.531 34.824 165.193 33.8848C166.349 33.3091 167.682 33.198 168.918 33.5742C170.154 33.9504 171.2 34.7853 171.84 35.9077C174.802 40.9652 186.795 61.7006 194.67 83.8811ZM185.278 89.8055C172.609 77.3509 161.054 63.8129 150.743 49.3461C148.575 45.5891 150.02 43.5661 151.682 42.4824C152.793 41.8446 154.101 41.6393 155.354 41.906C156.607 42.1726 157.718 42.8924 158.473 43.9274C161.869 48.7681 175.524 68.3475 185.278 89.8055ZM176.536 96.3079C162.849 85.0139 150.18 72.5391 138.677 59.0274C136.221 55.4872 137.521 53.392 139.038 52.1638C140.079 51.4093 141.367 51.0791 142.642 51.2401C143.917 51.4011 145.082 52.0414 145.902 53.0308C149.659 57.5102 164.976 75.8614 176.536 96.3801V96.3079ZM168.01 104.039C153.372 93.9855 139.64 82.6715 126.973 70.226C124.227 66.9026 125.311 64.6628 126.684 63.2901C127.659 62.4442 128.92 62.003 130.209 62.0567C131.499 62.1104 132.719 62.6551 133.62 63.5791C137.81 67.7695 154.717 84.6036 168.01 104.039ZM160.641 111.914C145.218 103.141 130.592 93.0359 116.93 81.7136C113.896 78.6791 114.835 76.3672 116.136 74.8499C117.033 73.9465 118.238 73.4148 119.511 73.3613C120.783 73.3077 122.029 73.7361 122.999 74.561C127.551 78.3179 145.758 93.7069 160.641 111.914ZM153.633 120.945C137.484 113.568 122.012 104.792 107.393 94.7184C104.07 91.9007 104.792 89.5165 105.948 87.927C106.758 86.9264 107.919 86.2722 109.194 86.0977C110.469 85.9232 111.763 86.2415 112.812 86.9878C127.378 97.1011 141.037 108.463 153.633 120.945ZM147.347 130.626C130.603 124.757 114.406 117.431 98.9403 108.735C95.3278 106.206 95.8336 103.822 96.8451 102.088C97.5662 101.033 98.6599 100.29 99.9064 100.008C101.153 99.727 102.46 99.9278 103.564 100.571C108.694 103.461 129.429 115.382 147.347 130.626ZM142.073 140.524C119.314 134.744 95.6891 125.063 91.9321 122.896C88.2474 120.728 88.4642 118.272 89.3311 116.538C89.9584 115.421 90.981 114.579 92.1977 114.178C93.4144 113.777 94.7372 113.845 95.9058 114.37C101.252 116.827 122.927 126.941 142.145 140.524H142.073ZM137.882 150.495C120.371 147.547 103.157 143.05 86.4412 137.056C82.5397 135.25 82.612 132.721 83.2622 130.915C83.9847 129.109 86.7302 127.158 89.6924 128.242C95.1833 130.265 117.653 138.501 137.882 150.495Z" fill="#F31509"/>
<path fill-rule="evenodd" clip-rule="evenodd" d="M134.27 161.693C110.789 159.887 85.8632 154.541 81.8173 153.023C77.7713 151.578 77.5546 149.122 78.0603 147.243C78.4749 146.02 79.3421 145.001 80.4841 144.396C81.6261 143.792 82.9563 143.647 84.2015 143.992C89.9092 145.437 113.029 151.578 134.27 161.693Z" fill="#F31509"/>
<path fill-rule="evenodd" clip-rule="evenodd" d="M69.1011 155.119H450.359V169.063H69.1011V155.119Z" fill="black"/>
</g>
</g>
<defs>
<clipPath id="clip0_2_6462">
<rect width="512" height="512" fill="white"/>
</clipPath>
</defs>
</svg>
