<svg width="512" height="512" viewBox="0 0 512 512" fill="none" xmlns="http://www.w3.org/2000/svg">
<g clip-path="url(#clip0_2_6840)">
<path d="M0 0H512V36.6H0V0Z" fill="#CC0000"/>
<path d="M0 36.6H512V73H0V36.6Z" fill="white"/>
<path d="M0 73.1H512V109.7H0V73.1Z" fill="#CC0000"/>
<path d="M0 109.7H512V146.3H0V109.7Z" fill="white"/>
<path d="M0 146.3H512V182.9H0V146.3Z" fill="#CC0000"/>
<path d="M0 182.9H512V219.4H0V182.9Z" fill="white"/>
<path d="M0 219.4H512V256H0V219.4Z" fill="#CC0000"/>
<path d="M0 256H512V292.6H0V256Z" fill="white"/>
<path d="M0 292.6H512V329H0V292.6Z" fill="#CC0000"/>
<path d="M0 329.1H512V365.7H0V329.1Z" fill="white"/>
<path d="M0 365.7H512V402.3H0V365.7Z" fill="#CC0000"/>
<path d="M0 402.3H512V438.9H0V402.3Z" fill="white"/>
<path d="M0 438.9H512V475.4H0V438.9Z" fill="#CC0000"/>
<path d="M0 475.4H512V512H0V475.4Z" fill="white"/>
<path d="M0 0H256V292.6H0V0Z" fill="#000066"/>
<path d="M166 93L170.8 125.5L189.2 98.3L179.2 129.6L207.7 113L185.2 137L218 134.4L187.3 146.3L218 158L185.2 155.5L207.7 179.5L179.3 162.8L189.1 194.3L170.7 167L165.9 199.5L161.2 167L142.8 194.2L152.7 162.8L124.3 179.5L146.7 155.5L113.9 158L144.6 146.2L114 134.3L146.8 136.9L124.3 112.9L152.7 129.5L142.7 98.1L161.2 125.4L166 92.8V93ZM139.3 94.3C126.228 88.5251 111.462 87.8803 97.9373 92.4937C84.4121 97.1071 73.118 106.641 66.3 119.2C61.7927 127.529 59.4355 136.851 59.442 146.321C59.4485 155.791 61.8186 165.11 66.3374 173.432C70.8561 181.754 77.3806 188.817 85.3194 193.981C93.2582 199.144 102.36 202.244 111.8 203C121.215 203.74 130.665 202.124 139.3 198.3C129.736 205.162 118.466 209.253 106.727 210.124C94.9887 210.996 83.2374 208.613 72.7656 203.238C62.2937 197.863 53.5071 189.704 47.3718 179.659C41.2366 169.613 37.9905 158.071 37.9905 146.3C37.9905 134.529 41.2366 122.987 47.3718 112.941C53.5071 102.896 62.2937 94.7372 72.7656 89.3622C83.2374 83.9873 94.9887 81.6043 106.727 82.4755C118.466 83.3466 129.736 87.4381 139.3 94.3Z" fill="#FFCC00"/>
</g>
<defs>
<clipPath id="clip0_2_6840">
<rect width="512" height="512" fill="white"/>
</clipPath>
</defs>
</svg>
