<svg width="512" height="512" viewBox="0 0 512 512" fill="none" xmlns="http://www.w3.org/2000/svg">
<g clip-path="url(#clip0_2_6857)">
<mask id="mask0_2_6857" style="mask-type:luminance" maskUnits="userSpaceOnUse" x="0" y="0" width="512" height="512">
<path d="M0 0H511.922V511.922H0V0Z" fill="white"/>
</mask>
<g mask="url(#mask0_2_6857)">
<path fill-rule="evenodd" clip-rule="evenodd" d="M0 0H767.882V159.975H0V0Z" fill="#009A00"/>
<path fill-rule="evenodd" clip-rule="evenodd" d="M0 159.975H767.882V175.973H0V159.975Z" fill="white"/>
<path fill-rule="evenodd" clip-rule="evenodd" d="M0 175.973H767.882V335.949H0V175.973Z" fill="#000001"/>
<path fill-rule="evenodd" clip-rule="evenodd" d="M0 335.948H767.882V351.946H0V335.948Z" fill="white"/>
<path fill-rule="evenodd" clip-rule="evenodd" d="M0 351.946H767.882V511.922H0V351.946Z" fill="#FFCA00"/>
<path fill-rule="evenodd" clip-rule="evenodd" d="M0 0V511.922L336.052 255.961L0 0Z" fill="#FF0000"/>
<path fill-rule="evenodd" clip-rule="evenodd" d="M198.473 332.955L147.281 295.49L96.1918 332.955L116.008 272.681L64.4031 235.525L127.98 235.835L147.281 175.457L166.684 235.835L230.158 235.525L178.553 272.681L198.473 332.955Z" fill="#FFCA00"/>
<path fill-rule="evenodd" clip-rule="evenodd" d="M102.797 290.949H139.746C142.739 294.252 149.345 295.593 155.641 290.949C167.2 284.55 189.597 290.949 189.597 290.949L194.035 286.201L183.301 251.007L179.379 246.878C179.379 246.878 171.122 241.924 155.434 243.576C139.746 245.227 134.276 242.956 134.276 242.956C134.276 242.956 120.446 244.608 116.627 246.672L112.189 251.11L102.9 291.052L102.797 290.949Z" fill="white" stroke="black" stroke-width="1.13531" stroke-linecap="round" stroke-linejoin="round"/>
<path d="M110.228 281.763C110.228 281.763 145.526 277.429 155.641 290.949C149.964 294.871 144.907 295.077 139.437 291.155C140.366 289.711 152.132 277.429 182.166 281.557" stroke="black" stroke-width="1.13531" stroke-linecap="round" stroke-linejoin="round"/>
<path d="M148.003 246.569L147.693 285.376M179.379 247.188L185.984 277.945" stroke="black" stroke-width="1.13531"/>
<path d="M116.937 246.672L113.325 262.566" stroke="black" stroke-width="1.13531" stroke-linecap="round" stroke-linejoin="round"/>
<path fill-rule="evenodd" clip-rule="evenodd" d="M78.8524 295.181L87.5221 305.295C88.5542 305.914 89.483 305.914 90.4119 305.295L103.21 289.814L108.68 283.208C109.049 282.786 109.33 282.295 109.507 281.764C109.684 281.232 109.754 280.671 109.712 280.112L120.033 270.823C120.859 271.029 121.375 271.133 122.097 271.133C121.169 270.823 120.446 270.41 121.272 269.275L123.542 267.52L125.4 269.791C125.4 269.791 122.82 273.197 122.51 273.197H119.724L114.253 278.048L116.627 280.112L120.24 289.917L124.574 286.821L121.788 276.809L127.98 270.101L125.607 266.488L127.155 264.424C127.155 264.424 148.519 277.841 156.776 274.229C156.982 274.332 157.292 264.63 157.292 264.63C157.292 264.63 135.102 262.36 134.586 258.025C134.07 253.587 139.54 253.071 139.54 253.071L137.166 249.768L137.682 247.91L141.604 252.865L150.274 245.33L201.776 304.057C204.562 302.921 205.181 302.199 205.388 299.412L154.815 241.511L158.737 237.383C159.459 236.557 159.769 236.145 159.769 234.803L165.652 229.642C167.244 230.204 168.592 231.298 169.471 232.739L185.778 219.012C186.191 219.425 187.533 219.837 188.358 219.321L215.193 193.519L185.984 214.161L184.952 213.438C184.952 212.613 185.984 212.406 184.952 210.858C183.817 209.516 182.062 212.2 181.856 212.2C181.65 212.2 177.624 210.755 176.695 209L176.489 213.748L168.955 220.663L163.278 220.457L155.021 228.404L153.989 231.5L155.331 234.08C155.331 234.08 150.996 237.899 150.996 237.693C150.996 237.383 150.067 236.557 149.964 236.351L153.783 233.048L154.299 230.674L153.06 228.713C152.648 229.023 147.9 234.08 147.59 233.564L133.863 217.773L134.586 214.883L125.813 205.388C122.717 204.356 117.556 204.149 116.524 211.064C115.802 212.716 109.093 211.271 109.093 211.271L105.584 212.097L85.2514 240.892L96.6045 254.516L119.724 225.204L120.343 216.947L125.194 222.314C126.845 222.521 128.393 222.521 129.838 221.798L143.565 237.073L141.294 239.344L143.359 241.615L145.629 239.963L146.661 241.305C145.423 241.924 144.597 242.75 143.565 243.369C141.604 242.234 139.85 240.686 140.056 238.312L132.315 244.711L132.006 246.053L109.093 265.043L107.029 265.353L106.513 271.236L121.478 258.851V257.096L123.026 258.335L134.586 249.046C134.586 249.046 135.411 250.078 135.102 250.078C134.792 250.078 124.781 259.367 124.781 259.367L124.574 260.399L122.82 261.947L121.788 261.225L107.854 273.61H105.79L98.0495 281.247C96.0885 281.454 94.3339 281.66 92.6826 282.795L78.8524 295.181Z" fill="black" stroke="black" stroke-width="1.13531" stroke-linecap="round" stroke-linejoin="round"/>
</g>
</g>
<defs>
<clipPath id="clip0_2_6857">
<rect width="512" height="512" fill="white"/>
</clipPath>
</defs>
</svg>
