<svg width="512" height="512" viewBox="0 0 512 512" fill="none" xmlns="http://www.w3.org/2000/svg">
<g clip-path="url(#clip0_2_6874)">
<mask id="mask0_2_6874" style="mask-type:luminance" maskUnits="userSpaceOnUse" x="0" y="0" width="512" height="512">
<path d="M0 0H512V512H0V0Z" fill="white"/>
</mask>
<g mask="url(#mask0_2_6874)">
<path fill-rule="evenodd" clip-rule="evenodd" d="M6.10352e-05 0H512V512H6.10352e-05V0Z" fill="white"/>
<path fill-rule="evenodd" clip-rule="evenodd" d="M-108.2 0.2L-107.4 368.8L466.6 0L-108.2 0.2Z" fill="#3662A2"/>
<path fill-rule="evenodd" clip-rule="evenodd" d="M630.7 511.5L629.3 128.3L50.3 511.8L630.7 511.5Z" fill="#38A100"/>
<path fill-rule="evenodd" clip-rule="evenodd" d="M-107.9 396.6L-107.4 512L17.9001 511.8L629.6 101.7L629 1.39995L505.2 0.199951L-107.9 396.6Z" fill="#C70000"/>
<path fill-rule="evenodd" clip-rule="evenodd" d="M154 183.4L130.9 169.4L117.5 193L104.5 169.2L81.0001 183L81.6001 155.9L54.6001 156.1L68.6001 132.9L45.0001 119.5L68.8001 106.5L55.0001 83L82.0001 83.6L81.9001 56.5L105.1 70.5L118.5 46.9L131.5 70.6L155.2 57L154.6 84L181.6 83.9L167.6 107.1L191.2 120.4L167.4 133.5L181.1 156.9L154.1 156.4L154 183.4Z" fill="#FFE700"/>
<path fill-rule="evenodd" clip-rule="evenodd" d="M167.8 120C167.8 147.2 145.5 169.3 118 169.3C90.5 169.3 68.3 147.2 68.3 119.9C68.3 92.6 90.6 70.6 118.1 70.6C145.6 70.6 167.8 92.6 167.8 119.9V120Z" fill="#3662A2"/>
<path fill-rule="evenodd" clip-rule="evenodd" d="M157 120C157.268 125.281 156.459 130.561 154.622 135.52C152.786 140.479 149.96 145.012 146.317 148.844C142.673 152.677 138.289 155.728 133.43 157.814C128.57 159.899 123.338 160.974 118.05 160.974C112.762 160.974 107.53 159.899 102.67 157.814C97.8112 155.728 93.4267 152.677 89.7835 148.844C86.1403 145.012 83.3146 140.479 81.478 135.52C79.6414 130.561 78.8324 125.281 79.1001 120C79.6063 110.011 83.9309 100.599 91.1799 93.7077C98.429 86.8168 108.048 82.9742 118.05 82.9742C128.052 82.9742 137.671 86.8168 144.92 93.7077C152.169 100.599 156.494 110.011 157 120Z" fill="#FFE700"/>
</g>
</g>
<defs>
<clipPath id="clip0_2_6874">
<rect width="512" height="512" fill="white"/>
</clipPath>
</defs>
</svg>
