<svg width="512" height="512" viewBox="0 0 512 512" fill="none" xmlns="http://www.w3.org/2000/svg">
<g clip-path="url(#clip0_2_6886)">
<path d="M0 0H512V512H0V0Z" fill="#009543"/>
<path d="M0 0H512V341.3H0V0Z" fill="#ED4135"/>
<path d="M0 0H512V170.7H0V0Z" fill="#0035AD"/>
<path d="M225.6 423.8C318.273 423.8 393.4 348.673 393.4 256C393.4 163.327 318.273 88.2 225.6 88.2C132.927 88.2 57.8 163.327 57.8 256C57.8 348.673 132.927 423.8 225.6 423.8Z" fill="#FAE600" stroke="black" stroke-width="5.7"/>
<path d="M197.2 281H254.1ZM197.2 239H254.1ZM225.6 88.6V375.4Z" fill="black"/>
<path d="M197.2 281H254.1M197.2 239H254.1M225.6 88.6V375.4" stroke="black" stroke-width="6.8"/>
<path d="M158 410C226.6 438 290.8 411.8 290.8 411.8C290.8 411.8 266.5 385.6 254.1 375.3C242 365.3 206.3 365.7 194.1 375.3C184.1 383.3 154.9 412.8 158.1 410.1L158 410Z" fill="#000001"/>
<path d="M225.6 360.7C235.983 360.7 244.4 348.477 244.4 333.4C244.4 318.323 235.983 306.1 225.6 306.1C215.217 306.1 206.8 318.323 206.8 333.4C206.8 348.477 215.217 360.7 225.6 360.7Z" fill="#000001"/>
<path d="M225.6 274.4C238.192 274.4 248.4 267.953 248.4 260C248.4 252.047 238.192 245.6 225.6 245.6C213.008 245.6 202.8 252.047 202.8 260C202.8 267.953 213.008 274.4 225.6 274.4Z" fill="#000001"/>
<path d="M225.6 216.2C238.192 216.2 248.4 205.992 248.4 193.4C248.4 180.808 238.192 170.6 225.6 170.6C213.008 170.6 202.8 180.808 202.8 193.4C202.8 205.992 213.008 216.2 225.6 216.2Z" fill="#000001"/>
<path d="M253 108.7C253 108.7 255 111.9 250.8 119.4C230.9 155.1 211.1 155.9 207.3 158.9C203.1 162.3 201.3 162.1 201.3 162.1C201.7 159.1 201.9 146.5 202.1 145.3C205.1 128.7 230.4 128.9 250.1 111.8C253.1 109.1 252.9 108.6 252.9 108.6L253 108.7ZM186.4 185.5C186.4 185.5 190.9 198.2 191.5 211.1C192.6 231.5 212.2 232.1 225.6 232.1V220.7C215.6 220.7 206.7 219.3 199.5 204.2C195.687 197.597 191.303 191.34 186.4 185.5ZM185.8 350.5C185.8 350.5 193 341.5 201.4 320.9C203.327 316.001 206.645 311.772 210.945 308.734C215.244 305.695 220.338 303.98 225.6 303.8V287.8C204 287.8 193.6 295.8 192.6 307.7C190.2 331.7 185.8 350.4 185.8 350.4V350.5ZM265 185.5C265 185.5 260.4 198.2 259.8 211.1C258.7 231.6 239.1 232.1 225.7 232.1V220.8C235.8 220.8 244.6 219.3 251.9 204.3C255.7 197.6 260.1 191.3 264.9 185.5H265ZM265.5 350.5C265.5 350.5 258.4 341.6 249.9 320.9C247.957 316.019 244.633 311.811 240.335 308.792C236.036 305.772 230.95 304.072 225.7 303.9V287.9C247.3 287.9 257.7 295.9 258.8 307.7C260.15 322.091 262.388 336.385 265.5 350.5Z" fill="#000001"/>
</g>
<defs>
<clipPath id="clip0_2_6886">
<rect width="512" height="512" fill="white"/>
</clipPath>
</defs>
</svg>
