<svg width="512" height="512" viewBox="0 0 512 512" fill="none" xmlns="http://www.w3.org/2000/svg">
<g clip-path="url(#clip0_2_6902)">
<path fill-rule="evenodd" clip-rule="evenodd" d="M155.8 0H356.2V512H155.8V0Z" fill="white"/>
<path fill-rule="evenodd" clip-rule="evenodd" d="M0 0H155.8V512H0V0ZM356.2 0H512V512H356.2V0Z" fill="#198200"/>
<path fill-rule="evenodd" clip-rule="evenodd" d="M243 332.4V373.4L259.5 373.6C259.5 373.6 254.2 337.8 257.1 333C260.1 328.3 262.8 329 262.8 329C262.8 329 273.6 332.2 274.8 331.7C276 331.2 274.6 327.6 280.4 328.1C282.3 327.4 281.3 324.1 283 324C284.7 323.8 317.7 333.2 324.8 324.3C323 319.3 316.5 324 314.8 324.1C313.2 324.1 306.8 321.1 303 324.1C299.5 321.6 284 319.9 284 319.9C282 317.9 321 320.9 323.3 319.4C327.9 314.8 314.8 315.3 312.7 316.8C309.1 314.6 304.5 314.8 301.7 316.3C300.3 313.1 287.7 314.5 280.6 313.6C278.3 312.2 278.6 311.5 280.2 310.6C295 311.3 309.7 313.2 324.5 312.6C328.5 307.3 319.5 305.3 313.9 309.8C310.6 304.4 303.9 309.6 299.5 309.1C295.1 308.6 297.1 303.1 302.8 304C308.4 304.8 318.5 303.6 320.4 301C322.3 298.5 319.3 295.9 310 298.3C306.8 295.3 299.9 298.3 296.6 299.3C292.3 297 282.3 299 278.9 299.9C275.5 297.8 296.5 294.4 296.5 294.4C304.5 294.3 309.1 292.9 311.7 292.2C323.9 285.6 311.5 284.9 305.1 289.7C301.1 286.6 297.3 290 293.7 291.2C290.1 292.4 283.3 293.2 283.3 292.7C283.3 292.2 293.1 286.2 293.1 286.2C293.1 286.2 305.1 285.3 307.4 285C309.8 284.7 322.1 278.4 305.4 282.6C299.6 283.1 296.1 282.8 293.9 282.9C281 281.6 295.1 280.4 295.1 280.4C295.1 280.4 313.3 278.7 313.6 277.8C313.9 270.8 298.6 274.1 298.6 274.1C298.6 269 284.3 274.2 284.3 274.1C281.6 272.5 285.9 270.8 285.9 270.8C289.6 269.9 295.3 269.6 296.7 268.4C296.7 268.4 307.3 268.4 308.6 265.5C306 258.3 286.1 266.8 283.5 268.1C279.9 268.1 285.9 262.3 286 262.1C286.2 261.9 302.4 261.2 310.1 250.8C310.7 244.5 301.1 254.4 301.1 254.4C300.4 246.2 290.7 254.9 285.1 255.6C279.4 256.3 279.2 253 283.1 252.6C287.1 252 291.5 252.4 293.7 246.4C296 240.4 302.7 246.7 303.8 244.4C305 242.3 301.4 240.4 301.4 240.4C301.4 240.4 306.4 235.3 298.4 235.4C290.4 235.6 279.9 234.4 279.9 234.4C279.9 234.4 288.3 231.2 296.1 231.4C304 231.5 299.7 225.7 292.1 225.7C284.7 225.7 280.7 223.1 280.7 223.1L293.6 218.3L292.7 214.7C292.7 214.7 300.2 208.7 289.7 210.1L277.8 211.7L256.5 214.9C256.3 214.9 250.7 213.2 256.1 211.9C261.6 210.5 280.9 206.5 283.8 207.6C286.8 208.6 283.5 200.4 273.2 199.4C263 198.4 256.6 201.9 256.6 201.9C256.6 201.9 250 199.5 256.1 197.5C262.3 195.5 272.1 198.2 272.1 198.2C272.1 198.2 283 194.9 273.9 193.5C264.9 192.2 261.9 194.8 257.9 194.9C256.2 192.9 272.1 192.4 273.1 190.6C271.4 187.6 261.5 190.6 255.8 190.6C253.3 189.6 253.2 187.9 256 186.9C261.8 186.7 267.3 187 273.2 186.8C273 183.6 273.2 179.9 273.1 176.8C265.6 175.4 256.9 177.8 252.7 177.6C253.8 174.2 269.9 173.3 271.7 172.4C275.4 167.7 256 172.4 255.7 172.4C252.4 171.9 252.7 169.7 254.7 168.4C259.7 167.9 270.8 169.1 270 165.8C269.3 162.6 262.3 164.3 259.4 165C256.4 165.7 252.2 165.2 252.2 165.2C250.3 162.7 268.9 163.7 268.8 161.8C268.5 159.5 257 161.1 253.1 161.2C250 159.2 267.8 157.7 268.1 157.5C268.7 151.8 256.1 157.5 253.7 157.5C251.3 157.5 252.5 153.9 252.5 153.9C252.5 153.9 257.5 151.7 257.3 151.3C257.2 151 253.6 149.8 253.3 149.8C252.9 149.8 253.3 145.8 253.3 145.8C253.3 145.8 257.3 142.8 257 141.9C256.6 141.1 252.2 142.6 252.2 142.6V139.2C252.2 139.2 255.4 138.8 255.8 137.3C256.1 135.8 251.8 135.6 251.8 135.6L250.2 117.6L248.6 134.4L243 135.3C243 135.3 246.9 137.5 247.6 139.7C248.3 141.9 242.8 141.2 242.8 141.2C242.8 141.2 247.2 145 247.6 146.4C247.9 147.7 241.4 148.1 241.4 148.1C241.4 148.1 246.9 152.1 247.2 154.2C247.6 156.5 247.2 157.7 247.2 157.7C247.2 157.7 238.2 149.7 232.4 152C229.4 153.6 239.3 154.3 245.9 160C245.9 161.3 229.9 156.1 229.3 159.4C229.7 160.3 246.3 162.7 247.6 164.8C241.5 165.1 228.9 163.5 229.3 165.5C228 167.8 241.2 166.5 246.7 168.5C248.3 170.3 248.2 171.8 245.4 172C240 169.5 228.1 167.6 228.1 170.8C228.1 171.7 240.4 171.1 244.8 174.1C238.9 175.4 218.8 171.3 218.7 173.3C219.3 174.3 222.5 178.3 227.9 178.2C233.4 178 246 180.4 246.9 182.1C247.7 183.8 230.5 178.5 223.9 181.6C217.3 184.7 242.6 182.8 246.7 186.6C250.8 190.4 238.5 186.2 238.5 186.2C238.5 186.2 221.5 183.8 218.9 185C216.3 186.2 213.4 189 213.4 189C213.4 189 215.1 192.4 216.8 191.7C218.5 191 216.3 193.7 216.3 193.7C216.3 193.7 240.3 199.5 245.5 204.7C250.8 209.7 215.1 196.7 215.1 196.7C215.1 196.7 200.7 201.9 215.9 202.3C214.2 204.8 216.9 206.3 216.9 206.3C216.9 206.3 242.1 211.7 244.7 215.8C247.2 219.8 227.4 211.8 223 209.6C218.5 207.4 205.9 211 206 211.8C206.2 212.7 212.2 213.9 212.4 215.4C212.5 217 205 217.4 205 218.8C205 220.2 237 226.8 245.5 234.1C254 241.4 220.4 225.5 220.4 225.5C220.4 225.5 222.3 228.1 220.4 228.8C218.5 229.4 211.8 219.2 200.9 225.5C198.9 228.1 210.5 230.2 213.4 230.5C212.4 233 211.5 233.9 215.6 236.5C219.7 239 207.6 232.7 207.6 233L208.4 237.5C204.6 234.5 200.1 233.5 195.8 236.6C195.8 236.6 195.6 239.7 200.1 241.6C197.6 246.6 202.8 245 211 249.6C198.8 246.4 197.8 252.4 206.5 253.7C215.3 255.1 239.2 255.9 244.8 263.3C250.5 270.6 236.8 260.5 235.3 260.3C234.922 261.501 234.687 262.743 234.6 264C231.11 261.701 227.255 260.011 223.2 259C222.9 259.8 223 260.7 222.6 261.4C218.6 258.6 215.2 256.6 209.5 256.3L208.8 259C208.8 259 204 253 194.6 259C189.3 262.8 214.4 260.4 218.6 264.8C222.6 269.3 219.4 270 219.4 270L209.1 266.2C209.1 266.2 197 264 193.6 266.7C190.1 269.4 243.5 276.1 245 283.5C246 287.5 232.5 279.3 220.7 275.8L219.4 279.8C219.4 279.8 214.7 275 209.4 274.2L210.4 278.8C210.4 278.8 197.4 272.7 190.7 275.9C184 279.2 213.9 280.9 216.7 283.9C219.4 287.1 207.6 281.9 206.5 283.9C205.5 286 191 280.2 191.2 282.9C191.3 285.7 193.2 287.2 193.2 287.2C193.2 287.2 223.5 290.2 224.5 293.7C225.5 297.3 207.7 291.7 207.7 291.7C207.7 291.7 206 294.2 207.4 295.4C208.8 296.6 197.1 288.6 198.2 293.9C194.4 292.4 184.7 287.7 186 291.3C187.4 294.9 213.6 300 213.6 300C213.6 300 202.1 300.9 202.6 303.8C187.9 294.8 188.3 300.6 188.6 300.8C188.9 300.9 169.6 295.9 184.2 303.8C198.7 311.7 192 310.3 192.2 310.5C192.4 310.6 193.7 314.5 193.4 314.5C193 314.5 183.4 309.3 180.2 308.9C177 308.6 161.6 313.2 178 320.4C194.4 327.6 204.5 318.7 213.6 319.7C222.6 320.7 226.9 322.3 226 325.2C225.2 328.1 216.8 315.6 208 326.4C197.9 324.4 191 323.3 196.2 330.6C179.8 324.6 169.8 332.6 190.5 335.8C210.8 336.4 223.3 330.8 223.3 330.8C223.3 330.8 226.7 337.1 231.7 332.7C236.7 328.2 236.8 334.4 237 334.4L241.8 332.4H243Z" fill="#198200" stroke="black" stroke-width="0.7" stroke-linecap="round" stroke-linejoin="round"/>
<path fill-rule="evenodd" clip-rule="evenodd" d="M245 308V305.2C245 305.2 238.5 304.1 235.4 304.7C233.4 303.7 231.7 302.2 229.5 303.4C229.1 304.4 233.5 306.8 235.1 306.8C236.9 307.9 245 308.2 245 308.1V308ZM244.9 312.7C244.9 312.7 238.4 310.4 235.9 313.1C236.3 316 243.5 317.4 244.9 316.6C246.5 315.8 244.9 312.9 244.9 312.7ZM255.8 313.9V315.9C255.8 315.9 263.5 317.4 264.8 315.7C266.2 314.1 258.8 313 255.8 313.9ZM255.4 305.9L255.7 308.2C255.7 308.2 262.4 309.7 264.9 306C267.5 302.4 259.1 306 255.4 305.9ZM255.8 298.1V299.6C255.8 299.6 260.8 300.4 261.9 298.3C263.1 296.1 255.9 298.3 255.8 298.1ZM245.3 293.5C244.5 292.5 241.8 289.7 234.5 288.9C229.5 288.9 243.7 296.4 245.3 293.5ZM255.6 285.9L255.4 287.9C255.4 287.9 272.6 282.9 276.6 283.2C280.2 282.2 280.9 279.7 280.8 279.7C277.7 277.5 262.9 281.5 255.6 285.9ZM256 279.9L255.8 281.9C255.8 281.9 267.8 279.5 271.1 277.2C274.3 274.9 256.1 279.9 256 279.8V279.9ZM255.5 273.9V275.9C255.5 275.9 263.5 275.7 265.2 274C266.2 272.4 258.1 273.8 255.5 273.9ZM272.3 290.9C272.3 290.9 276.5 291.4 277.3 290.2C277.2 288 272.3 290.9 272.3 290.8V290.9ZM255.8 266.4L255.9 270.8C255.9 270.8 275.3 264.6 276.5 263.5C277.7 262.4 280.5 258.9 255.8 266.4ZM255.3 260.2V263.4C255.3 263.4 263.1 262.9 266.7 259.9C270.2 256.9 255.3 260.3 255.3 260.2ZM245.9 252.9L246.4 255.9L220.8 247.5C220.8 247.5 219.5 243.3 245.8 252.9H245.9ZM246.3 242.6C246.3 242.9 246.3 245.4 246.2 245.3C246.2 245.3 228.4 237.9 227.7 238.5C225.4 233 246.3 242.7 246.3 242.5V242.6ZM255 247.2L255.3 249.7C255.3 249.7 266.2 247.4 266.8 246.3C267.4 245.3 255 247.3 255 247.2ZM255.2 253L255.6 255.5C255.6 255.5 259.9 255.2 260.6 254.2C261.2 253.2 255.2 253 255.2 253ZM254.6 239.7V242.2C254.6 242.2 266.6 239.8 267.9 238.7C269.2 237.5 254.3 239.7 254.6 239.7ZM254.6 233.1C254.6 233.3 254.2 235.6 254.5 235.6C260.233 234.806 265.844 233.294 271.2 231.1C273.5 229.1 254.8 233.4 254.6 233.1ZM254.4 221.5V224C254.4 224 263.6 222.1 265.4 220.2C267.2 218.3 254.4 221.7 254.4 221.5ZM252.8 204.6L253.1 208.4C253.1 208.4 265.4 206.7 267.2 204.6C269 202.6 252.8 204.6 252.8 204.6ZM247.1 176.2V178.6C247.1 178.6 241.2 178.3 242.7 177.3C244.1 176.3 247.1 176.4 247.1 176.3V176.2ZM252.6 179.4V182.6C252.6 182.6 260.3 181.9 260.9 180.6C261.4 179.5 252.7 179.4 252.6 179.4ZM252.1 184L252.4 186C252.5 186 255.4 185.8 256 185C256.6 184.2 252.4 184.2 252.1 184ZM245.7 193.2C245.7 193.4 245.9 196.2 245.7 196.2C245.7 196.2 229.2 191.4 227.7 191.5C226.1 191.5 225.7 187.7 245.7 193.2ZM247 198.6C247 199.1 247.4 202.1 246.8 202C246.2 201.9 235.6 198.5 236.8 197.5C237.8 196.5 247 198.8 247 198.5V198.6ZM246.1 221.2V223.9C246.1 223.9 227.7 218.3 227.1 217.4C226.4 216.4 224.6 212.1 246.1 221.2ZM246.8 227.8C246.8 227.9 247 230.4 246.8 230.4L221.8 221.6C221.8 221.6 219.8 215 246.8 227.8Z" fill="white" stroke="black" stroke-width="0.8" stroke-linecap="round" stroke-linejoin="round"/>
<path fill-rule="evenodd" clip-rule="evenodd" d="M217 314.7V317.5C217 317.5 212 316.1 210.5 313.4C213.4 312.6 217.1 314.8 217 314.7Z" fill="white" stroke="black" stroke-width="0.8" stroke-linejoin="round"/>
</g>
<defs>
<clipPath id="clip0_2_6902">
<rect width="512" height="512" fill="white"/>
</clipPath>
</defs>
</svg>
