<svg width="512" height="512" viewBox="0 0 512 512" fill="none" xmlns="http://www.w3.org/2000/svg">
<g clip-path="url(#clip0_2_6914)">
<path d="M0 0H512V512H0V0Z" fill="#0067C6"/>
<path d="M0 170.7H512V341.3H0V170.7Z" fill="white"/>
<path d="M179.2 255.4L187.7 256L187.8 254.7L184.4 254.5L184.7 250.5L188.3 247.9V246.3L184.6 249C184.5 248.1 184 247.2 183.1 246.9C182.3 246.6 181.4 246.5 180.7 247.1C179.9 247.7 179.7 248.9 179.6 249.8L179.2 255.4ZM180.5 254.3L180.8 250.1C180.9 249.4 181 248.6 181.6 248.1C181.735 247.994 181.895 247.924 182.065 247.898C182.234 247.872 182.408 247.89 182.569 247.95C182.729 248.01 182.872 248.111 182.982 248.242C183.093 248.374 183.168 248.531 183.2 248.7C183.7 249.7 183.5 250.9 183.4 252L183.2 254.5L180.5 254.3ZM180.3 242.3L188.6 244.3L190.6 236.2L189.3 235.9L187.7 242.9L185.2 242.2L186.6 236L185.5 235.7L184 241.9L181.8 241.4L183.3 234.8L182.1 234.5L180.3 242.3ZM183.3 231.2L191.3 234L191.8 232.8L188.6 231.8L189.9 228.1C190.1 227.1 190.3 225.9 189.7 225C189.462 224.663 189.148 224.388 188.783 224.197C188.417 224.005 188.012 223.904 187.6 223.9C186.6 223.9 185.9 224.6 185.5 225.4C184.9 226.5 184.5 227.8 184.1 229L183.3 231.2ZM184.9 230.4L186.2 226.8C186.4 226.1 186.8 225.4 187.5 225.2C188.1 225 188.8 225.5 188.8 226.2C189 227.2 188.5 228.4 188.1 229.4L187.5 231.4L184.9 230.4ZM187.8 220.9L192.3 223.5C193.2 224 194.3 224.3 195.2 223.7C196.4 223.1 197.2 221.7 197.8 220.6C198.2 219.6 198.6 218.3 198 217.2C197.3 216.2 196.1 215.7 195.1 215L192.1 213.3L191.6 214.3C193 215.3 194.5 216.1 195.9 216.9C196.6 217.3 197.2 218.1 197 218.9C196.831 219.886 196.419 220.814 195.8 221.6C195.3 222.3 194.5 222.8 193.7 222.6C192.7 222.5 192.1 221.9 191.3 221.5L188.3 219.8L187.8 220.9ZM193.9 210.9L200.7 216L203.8 211.9C204.4 211 205 209.9 204.6 208.9C204.417 208.456 204.114 208.072 203.726 207.789C203.338 207.507 202.879 207.338 202.4 207.3C202 207.3 201.4 207.5 201.2 207.7C201.4 206.7 200.7 205.9 199.9 205.7C198.9 205.3 197.9 206 197.2 206.7C196.4 207.5 195.7 208.5 195 209.4L193.9 210.9ZM195.6 210.6L198 207.6C198.4 207.1 199 206.6 199.6 206.9C200.2 207.2 200.3 207.9 200 208.3C199.6 209.3 199 209.9 198.4 210.7L197.4 212L195.6 210.6ZM198.4 212.6L200.8 209.6C201.3 209.1 201.8 208.5 202.5 208.6C203.1 208.8 203.5 209.4 203.4 210C203 211.1 202.2 212 201.5 213L200.5 214.3L198.4 212.7V212.6ZM201.6 201.8L207.4 208L212.4 203.2L211.6 202.4L207.6 206.2H207.4L202.4 200.9L201.6 201.8ZM209.1 195.2L214.3 202L215.3 201.2L210.1 194.4L209.1 195.2ZM216.7 190C215.917 190.498 215.238 191.144 214.7 191.9C214.191 192.531 213.897 193.308 213.861 194.117C213.825 194.927 214.049 195.727 214.5 196.4C214.912 197.077 215.5 197.629 216.2 198C216.9 198.3 217.6 198.5 218.4 198.4C219.412 198.212 220.375 197.823 221.234 197.256C222.093 196.689 222.829 195.956 223.4 195.1C223.789 194.327 223.895 193.443 223.7 192.6L222.5 193.1C222.8 194.8 221.7 195.6 220.5 196.4C218.5 197.5 216.7 197.4 215.5 195.7C214.4 193.7 215.7 192.1 217.3 191C218.5 190.3 219.6 189.8 220.7 190.5L221.7 189.7C221.058 189.253 220.28 189.041 219.5 189.1C218.6 189.1 217.7 189.4 216.7 190.1V190ZM226.8 185L225.9 194.5L227.3 194L227.5 191L231.9 189.3L234.1 191.3L235.4 190.7L228.2 184.4L226.8 185ZM228 186L230.8 188.4L227.6 189.7L228 186ZM245.5 179.7L246.1 188.2L250.7 187.9C251.9 187.8 253.2 187.5 254 186.5C254.466 185.879 254.78 185.158 254.919 184.394C255.058 183.631 255.017 182.845 254.8 182.1C254.573 181.451 254.174 180.875 253.646 180.435C253.117 179.995 252.479 179.706 251.8 179.6C250.6 179.3 249.3 179.5 247.9 179.6L245.5 179.7ZM246.8 180.8L250.5 180.6C251.216 180.563 251.923 180.775 252.5 181.2C252.924 181.501 253.258 181.911 253.47 182.386C253.681 182.861 253.76 183.384 253.7 183.9C253.668 184.485 253.46 185.046 253.103 185.51C252.746 185.974 252.257 186.319 251.7 186.5L249.7 186.8L247.2 186.9L246.8 180.8ZM257.4 179.2L256.9 187.7L265.2 188.2V187L258.2 186.6L258.4 184L264.7 184.4L264.8 183.2L258.5 182.8V180.5L265.4 180.9V179.7L257.4 179.2ZM279.7 182.8L276.7 190.8L277.7 191.1L280.2 184.8V184.5L280.4 184.9L283.4 193.3L284.8 193.9L287.8 185.9L286.8 185.5L284.3 191.8V192.1L284.1 191.8L281.1 183.3L279.7 182.8ZM291.2 187.7L287.2 195.3L286.2 194.7L290 187.1L291.2 187.7ZM297.6 191.5C296.844 190.977 295.996 190.604 295.1 190.4C294.31 190.195 293.475 190.249 292.719 190.555C291.962 190.862 291.325 191.403 290.9 192.1C290.456 192.719 290.18 193.443 290.1 194.2C290.1 195 290.3 195.8 290.7 196.5C291.282 197.316 292.032 197.999 292.9 198.5C293.9 199.2 294.8 199.5 295.7 199.6C296.7 199.6 297.4 199.4 298.2 198.9L297.2 197.9C295.8 198.9 294.6 198.3 293.4 197.5C291.5 196.3 290.8 194.5 291.9 192.8C293.2 190.8 295.3 191.3 296.9 192.4C298.1 193.1 299 194 298.9 195.3L299.9 195.8C300.073 195.022 299.966 194.208 299.6 193.5C299.109 192.678 298.421 191.991 297.6 191.5ZM305.7 197.5L296.8 201.1L297.8 202.1L300.6 201L304.2 204L303.5 207L304.5 207.9L306.8 198.5L305.8 197.5H305.7ZM305.4 199.1L304.4 202.7L301.9 200.5L305.4 199.1ZM312.2 203.5L305.6 208.9L306.4 209.9L309 207.8L311.6 210.9L310.8 215.2L311.8 216.5L312.6 211.9C313.4 212.5 314.5 212.9 315.3 212.3C316.1 212 316.8 211.3 316.8 210.4C316.9 209.2 316.1 208.3 315.4 207.4L312.2 203.5ZM312 205.2C313 206.4 314 207.5 314.8 208.7C315.2 209.3 315.8 210.1 315.2 210.8C314.9 211.4 314 211.4 313.5 211C312.5 210.3 311.8 209.2 310.9 208.3L309.9 207L312 205.2ZM322.1 217.1L312.5 217.5L313.3 218.8L316.3 218.6L318.6 222.6L316.9 225.2L317.7 226.4L322.9 218.4L322.2 217.1H322.1ZM321.3 218.4L319.3 221.5L317.6 218.5L321.3 218.4ZM327.6 228.4C327.1 226.9 326.2 225.4 324.8 224.7C324.002 224.31 323.098 224.197 322.229 224.378C321.36 224.559 320.576 225.024 320 225.7C319 226.9 319 228.5 319.2 229.9C319.493 231.578 320.256 233.138 321.4 234.4L320.8 234.6L321.2 235.7L325.2 234.3L323.6 230L322.7 230.3L323.9 233.5L322.5 234C321.369 232.928 320.6 231.529 320.3 230C320 228.8 320 227.4 320.9 226.6C321.9 225.6 323.6 225.2 324.9 226.1C325.957 227.037 326.663 228.307 326.9 229.7C327.2 230.6 327.2 231.7 326.5 232.4C326.3 232.5 326.5 232.7 326.6 232.9L327 233.4C327.354 233.11 327.637 232.743 327.828 232.327C328.019 231.911 328.112 231.457 328.1 231C328.1 230.1 327.9 229.2 327.6 228.4ZM330.1 235.1L325.3 236C324.4 236.2 323.8 236.4 323.3 236.8C322.9 237.2 322.6 237.7 322.4 238.4C322.266 239.265 322.3 240.148 322.5 241C322.7 242 323 242.8 323.5 243.4C323.8 244 324.3 244.4 324.8 244.6C325.4 244.7 326.1 244.8 327 244.6L331.7 243.6L331.5 242.4L326.9 243.4C324.8 243.7 324.1 242.6 323.7 240.8C323.3 238.8 323.6 237.6 325.7 237.2L330.3 236.2L330.1 235.1ZM332.7 249.6L323.9 245.8V247.2L326.7 248.4L327 253L324.5 254.6L324.6 256L332.8 251L332.7 249.6ZM331.4 250.4L328.2 252.4L327.9 248.9L331.4 250.4ZM185.8 271.7L184.6 272L185.9 277.2L187.2 276.9L185.8 271.7ZM326.2 271.7L327.4 272L326.1 277.2L324.8 276.9L326.2 271.7ZM199 293.5L189.5 294.6L190.3 295.8L193.3 295.5L195.8 299.4L194.4 302L195.2 303.2L199.8 294.7L199 293.5ZM198.3 294.9L196.5 298.2L194.5 295.3L198.3 294.9ZM202.7 298.8L196.6 304.4L197.4 305.4L202.5 300.5L199.8 307.9L200.8 308.9L208.1 306.7L203.1 311.4L203.9 312.2L209.9 306.6L208.7 305.2L201.3 307.5L204.1 300.2L202.7 298.8ZM211.5 307.8L206.4 314.6L213 319.6L213.7 318.6L208.1 314.4L209.7 312.4L214.7 316.1L215.5 315.1L210.4 311.3L211.8 309.5L217.2 313.6L217.9 312.6L211.5 307.8ZM219.9 313.9L215.9 321.4L216.9 322L218.5 319L222.2 321L223 325.3L224.4 326L223.5 321.5C224.5 321.8 225.5 321.6 226.2 320.9C226.7 320.3 227.1 319.4 226.8 318.6C226.5 317.5 225.4 316.9 224.5 316.4L219.9 313.9ZM220.4 315.6L224.3 317.6C224.8 318.1 225.6 318.6 225.5 319.4C225.5 320.1 224.7 320.4 224.1 320.4C222.8 320.1 221.8 319.4 220.7 318.8L219.1 318L220.4 315.6ZM229.5 318.9L226.3 326.9L227.5 327.3L230.7 319.4L229.5 318.9ZM237.2 321.6C236.334 321.296 235.417 321.16 234.5 321.2C233.691 321.208 232.905 321.474 232.257 321.96C231.61 322.445 231.134 323.125 230.9 323.9C230.63 324.635 230.561 325.429 230.7 326.2C230.9 327 231.3 327.7 231.9 328.2C232.648 328.882 233.535 329.394 234.5 329.7C235.6 330.1 236.6 330.1 237.5 330C238.379 329.816 239.161 329.318 239.7 328.6L238.6 328C237.4 329.3 236.1 329 234.7 328.6C232.6 327.8 231.5 326.3 232.1 324.3C232.8 322.1 234.9 322.1 236.8 322.7C238.1 323.1 239.2 323.7 239.4 325L240.6 325.1C240.502 324.34 240.149 323.635 239.6 323.1C238.936 322.409 238.112 321.894 237.2 321.6ZM245.8 323.6L240.2 331.3L241.6 331.5L243.3 329.1L247.9 329.8L248.9 332.6L250.3 332.8L247.2 323.8L245.8 323.5V323.6ZM246.3 325L247.5 328.5L244.1 328L246.3 325ZM265.8 323.6C264.876 323.761 263.993 324.101 263.2 324.6C262.504 325.005 261.955 325.62 261.632 326.357C261.308 327.094 261.227 327.914 261.4 328.7C261.555 329.442 261.9 330.131 262.4 330.7C262.9 331.4 263.6 331.7 264.4 332C265.2 332.2 266.2 332.2 267.4 332C268.398 331.811 269.329 331.362 270.1 330.7C270.781 330.144 271.242 329.364 271.4 328.5H270C269.7 330.2 268.4 330.5 267 330.9C264.7 331.3 263 330.5 262.6 328.5C262.2 326.2 264 325.1 265.9 324.7C267.2 324.4 268.5 324.4 269.2 325.4L270.4 325C269.962 324.377 269.329 323.92 268.6 323.7C267.626 323.404 266.591 323.369 265.6 323.6H265.8ZM271.5 322.6L273.9 330.8L281.9 328.4L281.5 327.2L274.8 329.2L274 326.8L280.1 324.9L279.8 323.8L273.7 325.6L273 323.4L279.5 321.4L279.2 320.3L271.5 322.6ZM280.7 319.6L284.3 327.4L285.3 326.9L282.3 320.5L290.6 324.3H291.2L292.2 323.7L288.7 316L287.7 316.5L290.6 322.9L282.1 319L280.7 319.6ZM290.1 315.3L290.8 316.3L293.8 314.3L293.9 314.2L297.9 320.3L298.9 319.6L295 313.6V313.4L298.1 311.4L297.5 310.4L290.1 315.3ZM298.7 309.3L304.5 315.7L305.4 314.8L303.1 312.4L306.1 309.6L310.5 310.1L311.6 309.1L307 308.5C307.6 307.7 307.8 306.5 307.3 305.7C306.9 305 306.2 304.4 305.3 304.4C304.1 304.4 303.3 305.2 302.3 306L298.7 309.3ZM300.4 309.4L303.7 306.4C304.2 306 305.1 305.4 305.8 305.9C306.4 306.3 306.4 307.1 306 307.7C305.4 308.7 304.4 309.5 303.5 310.4L302.3 311.4L300.4 309.4ZM308.6 299.4L312.4 308.3L313.4 307.2L312.1 304.4L315.1 300.8L318 301.5L318.9 300.3L309.5 298.3L308.6 299.4ZM310.1 299.8L313.8 300.5L311.6 303.2L310.1 299.8ZM312.3 294.6L319.5 299.3L323.2 293.5L322.2 292.8L319.2 297.4V297.6L319 297.5L313 293.5L312.3 294.6Z" fill="#C8A400"/>
<mask id="mask0_2_6914" style="mask-type:luminance" maskUnits="userSpaceOnUse" x="201" y="193" width="110" height="95">
<path d="M255.965 193.194L201.608 287.316H310.322L255.965 193.194Z" fill="white"/>
</mask>
<g mask="url(#mask0_2_6914)">
<path d="M255.965 193.194L229.085 239.7L215.944 262.484H295.986L283.442 240.81L255.965 193.194Z" fill="white"/>
<path opacity="0.6" d="M255.965 193.194L253.917 196.607L255.965 243.54L258.013 196.607L255.965 193.194Z" fill="#17C0EB" stroke="#17C0EB" stroke-width="0.085333"/>
<path d="M255.965 236.799H255.88L255.965 239.359L256.05 236.799H255.965Z" fill="white"/>
<path opacity="0.6" d="M303.929 228.041L300.049 227.148L256.046 243.599L301.315 231.044L303.929 228.041Z" fill="#17C0EB" stroke="#17C0EB" stroke-width="0.085333"/>
<path d="M262.458 241.516L262.431 241.435L260.023 242.307L262.484 241.597L262.458 241.516Z" fill="white"/>
<path opacity="0.6" d="M285.608 284.426L285.259 280.461L256.015 243.695L281.945 282.868L285.608 284.426Z" fill="#17C0EB" stroke="#17C0EB" stroke-width="0.085333"/>
<path d="M259.978 249.149L260.047 249.098L258.473 247.077L259.909 249.199L259.978 249.149Z" fill="white"/>
<path opacity="0.6" d="M226.322 284.426L229.985 282.868L255.915 243.695L226.671 280.461L226.322 284.426Z" fill="#17C0EB" stroke="#17C0EB" stroke-width="0.085333"/>
<path d="M251.952 249.149L252.021 249.199L253.457 247.077L251.883 249.098L251.952 249.149Z" fill="white"/>
<path opacity="0.6" d="M208.002 228.041L210.615 231.044L255.884 243.599L211.881 227.148L208.002 228.041Z" fill="#17C0EB" stroke="#17C0EB" stroke-width="0.085333"/>
<path d="M249.472 241.516L249.446 241.597L251.907 242.307L249.499 241.435L249.472 241.516Z" fill="white"/>
<path opacity="0.6" d="M262.984 193.685L260.481 196.78L255.977 243.541L264.537 197.35L262.984 193.685Z" fill="#17C0EB" stroke="#17C0EB" stroke-width="0.085333"/>
<path d="M256.915 236.865L256.831 236.854L256.559 239.4L257 236.877L256.915 236.865Z" fill="white"/>
<path opacity="0.6" d="M305.631 234.868L301.913 233.444L256.049 243.611L302.625 237.478L305.631 234.868Z" fill="#17C0EB" stroke="#17C0EB" stroke-width="0.085333"/>
<path d="M262.688 242.44L262.673 242.356L260.167 242.885L262.703 242.524L262.688 242.44Z" fill="white"/>
<path opacity="0.6" d="M279.641 288.154L279.847 284.179L256.005 243.701L276.23 286.102L279.641 288.154Z" fill="#17C0EB" stroke="#17C0EB" stroke-width="0.085333"/>
<path d="M259.17 249.653L259.245 249.613L257.968 247.393L259.094 249.693L259.17 249.653Z" fill="white"/>
<path opacity="0.6" d="M220.932 279.903L224.776 278.871L255.906 243.687L221.83 276.025L220.932 279.903Z" fill="#17C0EB" stroke="#17C0EB" stroke-width="0.085333"/>
<path d="M251.223 248.536L251.284 248.596L253.001 246.695L251.161 248.477L251.223 248.536Z" fill="white"/>
<path opacity="0.6" d="M210.637 221.518L212.807 224.855L255.888 243.588L214.603 221.173L210.637 221.518Z" fill="#17C0EB" stroke="#17C0EB" stroke-width="0.085333"/>
<path d="M249.829 240.633L249.792 240.71L252.13 241.755L249.867 240.556L249.829 240.633Z" fill="white"/>
<path opacity="0.6" d="M269.866 195.147L266.956 197.864L255.988 243.544L270.894 198.993L269.866 195.147Z" fill="#17C0EB" stroke="#17C0EB" stroke-width="0.085333"/>
<path d="M257.847 237.063L257.765 237.04L257.141 239.524L257.929 237.087L257.847 237.063Z" fill="white"/>
<path opacity="0.6" d="M306.366 241.866L302.883 239.938L256.05 243.623L303.026 244.031L306.366 241.866Z" fill="#17C0EB" stroke="#17C0EB" stroke-width="0.085333"/>
<path d="M262.788 243.387L262.785 243.302L260.229 243.477L262.791 243.473L262.788 243.387Z" fill="white"/>
<path opacity="0.6" d="M273.214 291.016L273.971 287.108L255.994 243.706L270.122 288.509L273.214 291.016Z" fill="#17C0EB" stroke="#17C0EB" stroke-width="0.085333"/>
<path d="M258.3 250.041L258.38 250.011L257.424 247.635L258.22 250.07L258.3 250.041Z" fill="white"/>
<path opacity="0.6" d="M216.224 274.674L220.175 274.187L255.898 243.678L217.653 270.959L216.224 274.674Z" fill="#17C0EB" stroke="#17C0EB" stroke-width="0.085333"/>
<path d="M250.586 247.829L250.638 247.896L252.603 246.252L250.533 247.761L250.586 247.829Z" fill="white"/>
<path opacity="0.6" d="M214.155 215.424L215.84 219.031L255.894 243.578L218.13 215.635L214.155 215.424Z" fill="#17C0EB" stroke="#17C0EB" stroke-width="0.085333"/>
<path d="M250.306 239.808L250.258 239.879L252.428 241.24L250.353 239.737L250.306 239.808Z" fill="white"/>
<path opacity="0.6" d="M276.478 197.554L273.218 199.839L256 243.548L276.96 201.505L276.478 197.554Z" fill="#17C0EB" stroke="#17C0EB" stroke-width="0.085333"/>
<path d="M258.742 237.389L258.664 237.354L257.701 239.728L258.82 237.424L258.742 237.389Z" fill="white"/>
<path opacity="0.6" d="M306.121 248.897L302.94 246.504L256.05 243.635L302.512 250.577L306.121 248.897Z" fill="#17C0EB" stroke="#17C0EB" stroke-width="0.085333"/>
<path d="M262.754 244.339L262.763 244.254L260.208 244.072L262.745 244.424L262.754 244.339Z" fill="white"/>
<path opacity="0.6" d="M266.45 292.955L267.744 289.191L255.983 243.709L263.737 290.042L266.45 292.955Z" fill="#17C0EB" stroke="#17C0EB" stroke-width="0.085333"/>
<path d="M257.384 250.303L257.468 250.285L256.852 247.799L257.301 250.321L257.384 250.303Z" fill="white"/>
<path opacity="0.6" d="M212.29 268.842L216.27 268.908L255.891 243.668L214.222 265.361L212.29 268.842Z" fill="#17C0EB" stroke="#17C0EB" stroke-width="0.085333"/>
<path d="M250.053 247.039L250.096 247.113L252.27 245.759L250.01 246.965L250.053 247.039Z" fill="white"/>
<path opacity="0.6" d="M218.487 209.88L219.653 213.686L255.902 243.569L222.394 210.642L218.487 209.88Z" fill="#17C0EB" stroke="#17C0EB" stroke-width="0.085333"/>
<path d="M250.892 239.058L250.835 239.121L252.794 240.771L250.949 238.994L250.892 239.058Z" fill="white"/>
<path opacity="0.6" d="M282.69 200.857L279.144 202.666L256.01 243.553L282.618 204.837L282.69 200.857Z" fill="#17C0EB" stroke="#17C0EB" stroke-width="0.085333"/>
<path d="M259.583 237.836L259.51 237.791L258.226 240.007L259.655 237.881L259.583 237.836Z" fill="white"/>
<path opacity="0.6" d="M304.899 255.826L302.082 253.013L256.048 243.646L301.091 256.988L304.899 255.826Z" fill="#17C0EB" stroke="#17C0EB" stroke-width="0.085333"/>
<path d="M262.589 245.277L262.61 245.194L260.105 244.658L262.568 245.36L262.589 245.277Z" fill="white"/>
<path opacity="0.6" d="M259.483 293.934L261.288 290.387L255.971 243.711L257.202 290.672L259.483 293.934Z" fill="#17C0EB" stroke="#17C0EB" stroke-width="0.085333"/>
<path d="M256.441 250.436L256.526 250.43L256.263 247.882L256.356 250.441L256.441 250.436Z" fill="white"/>
<path opacity="0.6" d="M209.205 262.518L213.137 263.138L255.886 243.658L211.603 259.34L209.205 262.518Z" fill="#17C0EB" stroke="#17C0EB" stroke-width="0.085333"/>
<path d="M249.636 246.183L249.667 246.262L252.009 245.224L249.604 246.104L249.636 246.183Z" fill="white"/>
<path opacity="0.6" d="M223.548 204.993L224.173 208.924L255.91 243.56L227.311 206.291L223.548 204.993Z" fill="#17C0EB" stroke="#17C0EB" stroke-width="0.085333"/>
<path d="M251.577 238.396L251.511 238.451L253.222 240.357L251.642 238.341L251.577 238.396Z" fill="white"/>
<path opacity="0.6" d="M288.382 204.993L284.619 206.291L256.02 243.56L287.757 208.924L288.382 204.993Z" fill="#17C0EB" stroke="#17C0EB" stroke-width="0.085333"/>
<path d="M260.353 238.396L260.288 238.341L258.708 240.357L260.419 238.451L260.353 238.396Z" fill="white"/>
<path opacity="0.6" d="M302.725 262.518L300.327 259.34L256.044 243.658L298.793 263.138L302.725 262.518Z" fill="#17C0EB" stroke="#17C0EB" stroke-width="0.085333"/>
<path d="M262.294 246.183L262.326 246.104L259.921 245.224L262.262 246.262L262.294 246.183Z" fill="white"/>
<path opacity="0.6" d="M252.447 293.935L254.728 290.673L255.959 243.711L250.642 290.387L252.447 293.935Z" fill="#17C0EB" stroke="#17C0EB" stroke-width="0.085333"/>
<path d="M255.489 250.436L255.574 250.442L255.667 247.882L255.404 250.43L255.489 250.436Z" fill="white"/>
<path opacity="0.6" d="M207.031 255.826L210.839 256.988L255.882 243.646L209.848 253.013L207.031 255.826Z" fill="#17C0EB" stroke="#17C0EB" stroke-width="0.085333"/>
<path d="M249.341 245.277L249.362 245.36L251.825 244.658L249.321 245.194L249.341 245.277Z" fill="white"/>
<path opacity="0.6" d="M229.24 200.857L229.312 204.837L255.92 243.553L232.786 202.666L229.24 200.857Z" fill="#17C0EB" stroke="#17C0EB" stroke-width="0.085333"/>
<path d="M252.348 237.836L252.275 237.881L253.704 240.007L252.42 237.791L252.348 237.836Z" fill="white"/>
<path opacity="0.6" d="M293.443 209.88L289.536 210.642L256.028 243.568L292.277 213.686L293.443 209.88Z" fill="#17C0EB" stroke="#17C0EB" stroke-width="0.085333"/>
<path d="M261.038 239.058L260.981 238.994L259.136 240.771L261.095 239.121L261.038 239.058Z" fill="white"/>
<path opacity="0.6" d="M299.64 268.841L297.708 265.361L256.039 243.668L295.66 268.908L299.64 268.841Z" fill="#17C0EB" stroke="#17C0EB" stroke-width="0.085333"/>
<path d="M261.877 247.039L261.919 246.965L259.66 245.759L261.834 247.113L261.877 247.039Z" fill="white"/>
<path opacity="0.6" d="M245.48 292.955L248.193 290.042L255.947 243.709L244.186 289.191L245.48 292.955Z" fill="#17C0EB" stroke="#17C0EB" stroke-width="0.085333"/>
<path d="M254.546 250.303L254.629 250.321L255.078 247.799L254.462 250.285L254.546 250.303Z" fill="white"/>
<path opacity="0.6" d="M205.809 248.897L209.418 250.577L255.88 243.634L208.99 246.504L205.809 248.897Z" fill="#17C0EB" stroke="#17C0EB" stroke-width="0.085333"/>
<path d="M249.176 244.339L249.185 244.424L251.722 244.071L249.167 244.254L249.176 244.339Z" fill="white"/>
<path opacity="0.6" d="M235.452 197.554L234.97 201.505L255.93 243.548L238.712 199.839L235.452 197.554Z" fill="#17C0EB" stroke="#17C0EB" stroke-width="0.085333"/>
<path d="M253.188 237.389L253.11 237.424L254.23 239.728L253.266 237.354L253.188 237.389Z" fill="white"/>
<path opacity="0.6" d="M297.775 215.424L293.8 215.635L256.036 243.578L296.09 219.031L297.775 215.424Z" fill="#17C0EB" stroke="#17C0EB" stroke-width="0.085333"/>
<path d="M261.625 239.808L261.577 239.737L259.502 241.24L261.672 239.879L261.625 239.808Z" fill="white"/>
<path opacity="0.6" d="M295.706 274.675L294.277 270.959L256.032 243.678L291.755 274.187L295.706 274.675Z" fill="#17C0EB" stroke="#17C0EB" stroke-width="0.085333"/>
<path d="M261.344 247.828L261.397 247.761L259.327 246.252L261.292 247.896L261.344 247.828Z" fill="white"/>
<path opacity="0.6" d="M238.716 291.016L241.808 288.509L255.936 243.706L237.959 287.108L238.716 291.016Z" fill="#17C0EB" stroke="#17C0EB" stroke-width="0.085333"/>
<path d="M253.63 250.04L253.71 250.07L254.506 247.635L253.55 250.011L253.63 250.04Z" fill="white"/>
<path opacity="0.6" d="M205.564 241.865L208.904 244.031L255.88 243.623L209.047 239.938L205.564 241.865Z" fill="#17C0EB" stroke="#17C0EB" stroke-width="0.085333"/>
<path d="M249.142 243.387L249.139 243.473L251.701 243.477L249.145 243.302L249.142 243.387Z" fill="white"/>
<path opacity="0.6" d="M242.064 195.147L241.036 198.993L255.941 243.544L244.974 197.864L242.064 195.147Z" fill="#17C0EB" stroke="#17C0EB" stroke-width="0.085333"/>
<path d="M254.083 237.063L254.001 237.087L254.789 239.524L254.165 237.04L254.083 237.063Z" fill="white"/>
<path opacity="0.6" d="M301.293 221.518L297.327 221.173L256.042 243.588L299.123 224.855L301.293 221.518Z" fill="#17C0EB" stroke="#17C0EB" stroke-width="0.085333"/>
<path d="M262.101 240.633L262.063 240.556L259.8 241.755L262.138 240.71L262.101 240.633Z" fill="white"/>
<path opacity="0.6" d="M290.998 279.903L290.1 276.025L256.024 243.687L287.153 278.871L290.998 279.903Z" fill="#17C0EB" stroke="#17C0EB" stroke-width="0.085333"/>
<path d="M260.707 248.536L260.769 248.477L258.929 246.695L260.646 248.596L260.707 248.536Z" fill="white"/>
<path opacity="0.6" d="M232.289 288.154L235.699 286.102L255.925 243.701L232.083 284.179L232.289 288.154Z" fill="#17C0EB" stroke="#17C0EB" stroke-width="0.085333"/>
<path d="M252.76 249.653L252.835 249.693L253.962 247.393L252.685 249.613L252.76 249.653Z" fill="white"/>
<path opacity="0.6" d="M206.299 234.868L209.305 237.478L255.881 243.611L210.016 233.444L206.299 234.868Z" fill="#17C0EB" stroke="#17C0EB" stroke-width="0.085333"/>
<path d="M249.242 242.44L249.227 242.524L251.763 242.885L249.257 242.356L249.242 242.44Z" fill="white"/>
<path opacity="0.6" d="M248.946 193.685L247.393 197.35L255.953 243.541L251.449 196.78L248.946 193.685Z" fill="#17C0EB" stroke="#17C0EB" stroke-width="0.085333"/>
<path d="M255.015 236.865L254.93 236.877L255.371 239.4L255.099 236.853L255.015 236.865Z" fill="white"/>
<path d="M255.965 226.815C246.875 226.805 238.087 230.077 231.218 236.031L218.76 257.706C218.314 260.04 218.085 262.411 218.077 264.788H222.344C222.778 256.175 226.505 248.059 232.755 242.116C239.005 236.174 247.299 232.86 255.922 232.86C264.546 232.86 272.84 236.174 279.09 242.116C285.339 248.059 289.067 256.175 289.501 264.788H293.768C293.788 262.414 293.588 260.043 293.17 257.706L280.712 236.031C273.839 230.084 265.054 226.812 255.965 226.815Z" fill="#FF0000"/>
<path d="M255.965 227.583C246.321 227.563 237.048 231.297 230.109 237.994L219.869 255.828C219.144 258.731 218.771 261.711 218.76 264.703H222.429C223.035 256.222 226.831 248.285 233.053 242.491C239.276 236.697 247.463 233.476 255.965 233.476C264.468 233.476 272.654 236.697 278.877 242.491C285.099 248.285 288.896 256.222 289.501 264.703H293.17C293.163 261.682 292.791 258.674 292.061 255.743L281.821 237.994C274.882 231.297 265.609 227.563 255.965 227.583Z" fill="#FF6600"/>
<path d="M255.965 228.266C250.809 228.252 245.709 229.333 241.002 231.436C236.295 233.54 232.088 236.618 228.658 240.468L221.234 253.268C220.052 256.992 219.475 260.881 219.528 264.788H222.344C222.778 256.175 226.505 248.059 232.755 242.116C239.005 236.174 247.299 232.86 255.922 232.86C264.546 232.86 272.84 236.174 279.09 242.116C285.339 248.059 289.067 256.175 289.501 264.788H292.488C292.488 260.777 291.805 256.938 290.696 253.354L283.186 240.468C279.77 236.625 275.577 233.55 270.885 231.446C266.193 229.343 261.107 228.259 255.965 228.266Z" fill="#FFFF00"/>
<path d="M255.965 228.948C250.079 228.945 244.283 230.392 239.089 233.16C233.895 235.928 229.463 239.933 226.184 244.82L223.794 249.002C221.376 253.913 220.121 259.314 220.125 264.788H222.429C223.035 256.307 226.831 248.371 233.053 242.577C239.276 236.782 247.462 233.561 255.965 233.561C264.467 233.561 272.654 236.782 278.877 242.577C285.099 248.371 288.895 256.307 289.501 264.788H291.805C291.809 259.314 290.554 253.913 288.136 249.002L285.746 244.735C282.467 239.847 278.035 235.843 272.841 233.074C267.647 230.306 261.851 228.86 255.965 228.863V228.948Z" fill="#00FF00"/>
<path d="M255.965 229.546C251.341 229.546 246.762 230.458 242.491 232.23C238.22 234.002 234.341 236.599 231.075 239.873C227.809 243.147 225.221 247.033 223.459 251.308C221.698 255.583 220.797 260.164 220.808 264.788H222.429C223.035 256.307 226.831 248.371 233.053 242.576C239.276 236.782 247.463 233.561 255.965 233.561C264.468 233.561 272.654 236.782 278.877 242.576C285.099 248.371 288.896 256.307 289.501 264.788H291.122C291.133 260.164 290.232 255.583 288.471 251.308C286.709 247.033 284.121 243.147 280.855 239.873C277.589 236.599 273.71 234.002 269.439 232.23C265.168 230.458 260.589 229.546 255.965 229.546Z" fill="#00CCFF"/>
<path d="M255.965 230.228C246.822 230.228 238.053 233.86 231.588 240.326C225.123 246.791 221.49 255.56 221.49 264.703H222.685C222.685 255.876 226.191 247.412 232.433 241.17C238.674 234.929 247.139 231.423 255.965 231.423C264.791 231.423 273.256 234.929 279.497 241.17C285.739 247.412 289.245 255.876 289.245 264.703H290.44C290.394 255.589 286.742 246.864 280.282 240.436C273.822 234.008 265.079 230.399 255.965 230.399V230.228Z" fill="#0000FF"/>
<path d="M255.965 230.996C251.477 230.996 247.033 231.889 242.894 233.625C238.755 235.36 235.003 237.903 231.857 241.104C228.711 244.305 226.235 248.101 224.572 252.27C222.909 256.439 222.094 260.898 222.173 265.386H222.856V264.703C222.946 255.922 226.521 247.536 232.795 241.391C239.068 235.246 247.525 231.844 256.306 231.935C265.087 232.026 273.473 235.601 279.618 241.874C285.763 248.147 289.165 256.604 289.074 265.386H289.757V264.703C289.757 260.265 288.883 255.871 287.185 251.771C285.486 247.671 282.997 243.946 279.859 240.808C276.722 237.671 272.996 235.181 268.897 233.483C264.797 231.785 260.403 230.911 255.965 230.911V230.996Z" fill="#800080"/>
<path d="M256.306 245.844C255.709 245.844 255.282 245.418 254.77 245.332C254.521 245.552 254.335 245.833 254.23 246.148C254.125 246.462 254.105 246.799 254.173 247.124C254.429 247.21 254.429 247.466 254.941 247.892C255.453 248.319 255.368 248.49 255.282 249.599C255.282 249.94 255.368 250.879 255.794 250.964C256.221 251.05 256.648 250.708 256.733 249.94C256.818 249.343 257.074 248.916 257.33 248.575C257.586 246.954 257.16 246.356 256.306 245.844Z" fill="#510000"/>
<path d="M253.576 241.919C253.064 241.919 252.21 242.772 251.869 242.346C251.698 242.09 251.613 241.578 251.869 241.151C252.253 240.302 252.916 239.61 253.746 239.188C255.709 237.994 257.074 238.335 258.013 240.042C258.952 241.578 259.89 243.284 259.976 244.65C259.976 245.076 260.232 245.844 259.805 246.271C258.696 247.466 255.88 244.991 254.258 245.418C253.746 245.503 253.064 245.93 252.552 245.588C252.21 245.332 252.552 244.735 252.808 244.479C253.32 244.052 254.088 242.431 254.002 241.748C254.002 241.407 254.002 241.919 253.576 241.919Z" fill="#FF0000"/>
<path d="M253.405 241.151C252.381 241.492 252.552 242.004 252.04 242.431C252.21 242.516 252.722 242.687 253.234 242.175C253.405 242.004 253.661 241.919 253.832 241.919L253.234 242.516C252.727 242.934 252.319 243.458 252.04 244.052C251.784 244.735 251.698 245.503 251.784 245.588C251.784 245.588 252.125 246.271 253.064 246.612C254.77 247.295 255.112 248.746 256.904 248.746C258.269 248.746 258.098 247.807 259.208 247.978C260.061 248.148 260.658 247.38 259.72 246.954C258.198 246.655 256.633 246.655 255.112 246.954C254.77 243.54 255.112 244.735 255.026 243.199C254.941 241.748 254.429 241.663 255.026 240.383C254.6 241.236 254.002 241.066 253.32 241.066L253.405 241.151Z" fill="url(#paint0_linear_2_6914)"/>
<path d="M256.818 238.762L256.733 239.274L256.989 240.127L257.16 240.98C257.16 241.236 257.501 241.322 257.757 241.492C258.098 241.748 257.757 242.346 258.013 242.431C258.184 242.431 258.44 241.578 258.44 241.407V240.81C258.306 240.549 258.164 240.293 258.013 240.042C257.96 239.953 257.903 239.868 257.842 239.786C257.653 239.498 257.423 239.239 257.16 239.018C257.077 238.957 256.991 238.9 256.904 238.847L256.733 238.762H256.818Z" fill="#FF2A2A"/>
<path d="M257.074 245.247L255.368 244.65C254.258 244.308 253.149 243.626 252.381 243.967C252.125 244.052 252.125 244.308 252.04 244.735C252.04 245.162 251.613 245.844 252.04 245.588C252.552 245.247 254.088 246.271 254.6 246.527C254.856 246.698 255.453 247.039 255.538 247.38C255.709 247.892 255.538 248.916 255.538 249.428C255.538 249.855 255.709 250.964 256.136 251.135C256.648 251.22 257.074 250.794 257.245 250.026C257.501 249.258 257.586 248.831 257.928 248.404C258.269 247.978 258.61 247.722 259.037 247.636C259.549 247.636 260.232 248.063 260.232 247.466C260.232 247.124 259.89 246.783 260.061 246.271C260.146 245.844 259.72 245.93 259.293 245.759L257.074 245.247Z" fill="url(#paint1_linear_2_6914)"/>
<path d="M254.6 246.527C254.258 246.356 252.637 245.247 252.04 245.674C251.784 245.674 251.698 245.674 251.698 245.418L251.869 244.65C251.869 244.394 252.04 243.967 252.296 243.796C252.893 243.284 254.258 244.223 254.941 244.479L254.6 246.527Z" fill="#910000"/>
<path d="M257.501 248.66C258.269 247.295 258.781 247.466 259.72 247.466C260.061 247.466 260.146 247.21 260.061 246.868C259.805 247.38 258.61 246.868 257.928 247.124C256.648 247.722 256.904 250.282 256.221 250.538C256.904 251.135 257.16 249.087 257.501 248.66Z" fill="#FF3A3A"/>
<path d="M215.944 262.484L207.411 277.247H304.605L296.072 262.57H216.029L215.944 262.484Z" fill="white"/>
<path d="M213.043 274.26C211.702 274.258 210.362 274.343 209.032 274.516L208.605 275.284C210.653 275.028 212.616 274.687 214.749 274.687C217.48 274.687 220.04 275.37 223.026 275.37H226.952C229.938 275.37 232.413 274.687 235.229 274.687C238.045 274.687 240.605 275.37 243.592 275.37H247.517C250.504 275.37 252.978 274.687 255.794 274.687C258.61 274.687 261.17 275.37 264.157 275.37H267.997C270.984 275.37 273.544 274.687 276.36 274.687C279.176 274.687 281.736 275.37 284.722 275.37H288.562C291.549 275.37 294.109 274.687 296.925 274.687C299.144 274.687 301.192 275.114 303.325 275.284L302.898 274.431C301.651 274.301 300.397 274.244 299.144 274.26H295.304C292.317 274.26 289.757 274.858 286.941 274.943C284.125 274.943 281.565 274.26 278.578 274.26H274.738C271.752 274.26 269.192 274.858 266.376 274.943C263.56 274.943 261 274.26 258.013 274.26H254.258C251.272 274.26 248.712 274.858 245.896 274.943C243.08 274.943 240.52 274.26 237.533 274.26H233.693C230.706 274.26 228.146 274.858 225.33 274.943C222.515 274.943 220.04 274.26 217.053 274.26H213.043Z" fill="url(#paint2_linear_2_6914)"/>
<path d="M213.043 273.322C211.702 273.319 210.362 273.405 209.032 273.578L208.605 274.346C210.653 274.09 212.616 273.748 214.749 273.748C217.48 273.748 220.04 274.431 223.026 274.431H226.952C229.938 274.431 232.413 273.748 235.229 273.748C238.045 273.748 240.605 274.431 243.592 274.431H247.517C250.504 274.431 252.978 273.748 255.794 273.748C258.61 273.748 261.17 274.431 264.157 274.431H267.997C270.984 274.431 273.544 273.748 276.36 273.748C279.176 273.748 281.736 274.431 284.722 274.431H288.562C291.549 274.431 294.109 273.748 296.925 273.748C299.144 273.748 301.192 274.175 303.325 274.346L302.898 273.492C301.651 273.363 300.397 273.306 299.144 273.322H295.304C292.317 273.322 289.757 273.919 286.941 274.004C284.125 274.004 281.565 273.322 278.578 273.322H274.738C271.752 273.322 269.192 273.919 266.376 274.004C263.56 274.004 261 273.322 258.013 273.322H254.258C251.272 273.322 248.712 273.919 245.896 274.004C243.08 274.004 240.52 273.322 237.533 273.322H233.693C230.706 273.322 228.146 273.919 225.33 274.004C222.515 274.004 220.04 273.322 217.053 273.322H213.043Z" fill="url(#paint3_linear_2_6914)"/>
<path d="M213.043 272.383C211.702 272.381 210.362 272.466 209.032 272.639L208.605 273.407C210.653 273.151 212.616 272.81 214.749 272.81C217.48 272.81 220.04 273.492 223.026 273.492H226.952C229.938 273.492 232.413 272.81 235.229 272.81C238.045 272.81 240.605 273.492 243.592 273.492H247.517C250.504 273.492 252.978 272.81 255.794 272.81C258.61 272.81 261.17 273.492 264.157 273.492H267.997C270.984 273.492 273.544 272.81 276.36 272.81C279.176 272.81 281.736 273.492 284.722 273.492H288.562C291.549 273.492 294.109 272.81 296.925 272.81C299.144 272.81 301.192 273.236 303.325 273.407L302.898 272.554C301.651 272.424 300.397 272.367 299.144 272.383H295.304C292.317 272.383 289.757 272.98 286.941 273.066C284.125 273.066 281.565 272.383 278.578 272.383H274.738C271.752 272.383 269.192 272.98 266.376 273.066C263.56 273.066 261 272.383 258.013 272.383H254.258C251.272 272.383 248.712 272.98 245.896 273.066C243.08 273.066 240.52 272.383 237.533 272.383H233.693C230.706 272.383 228.146 272.98 225.33 273.066C222.515 273.066 220.04 272.383 217.053 272.383H213.043Z" fill="url(#paint4_linear_2_6914)"/>
<path d="M213.043 271.444C211.702 271.442 210.362 271.527 209.032 271.7L208.605 272.468C210.653 272.212 212.616 271.871 214.749 271.871C217.48 271.871 220.04 272.554 223.026 272.554H226.952C229.938 272.554 232.413 271.871 235.229 271.871C238.045 271.871 240.605 272.554 243.592 272.554H247.517C250.504 272.554 252.978 271.871 255.794 271.871C258.61 271.871 261.17 272.554 264.157 272.554H267.997C270.984 272.554 273.544 271.871 276.36 271.871C279.176 271.871 281.736 272.554 284.722 272.554H288.562C291.549 272.554 294.109 271.871 296.925 271.871C299.144 271.871 301.192 272.298 303.325 272.468L302.898 271.615C301.651 271.485 300.397 271.428 299.144 271.444H295.304C292.317 271.444 289.757 272.042 286.941 272.127C284.125 272.127 281.565 271.444 278.578 271.444H274.738C271.752 271.444 269.192 272.042 266.376 272.127C263.56 272.127 261 271.444 258.013 271.444H254.258C251.272 271.444 248.712 272.042 245.896 272.127C243.08 272.127 240.52 271.444 237.533 271.444H233.693C230.706 271.444 228.146 272.042 225.33 272.127C222.515 272.127 220.04 271.444 217.053 271.444H213.043Z" fill="url(#paint5_linear_2_6914)"/>
<path d="M213.043 270.506C211.702 270.503 210.362 270.589 209.032 270.762L208.605 271.53C210.653 271.274 212.616 270.932 214.749 270.932C217.48 270.932 220.04 271.615 223.026 271.615H226.952C229.938 271.615 232.413 270.932 235.229 270.932C238.045 270.932 240.605 271.615 243.592 271.615H247.517C250.504 271.615 252.978 270.932 255.794 270.932C258.61 270.932 261.17 271.615 264.157 271.615H267.997C270.984 271.615 273.544 270.932 276.36 270.932C279.176 270.932 281.736 271.615 284.722 271.615H288.562C291.549 271.615 294.109 270.932 296.925 270.932C299.144 270.932 301.192 271.359 303.325 271.53L302.898 270.676C301.651 270.547 300.397 270.49 299.144 270.506H295.304C292.317 270.506 289.757 271.103 286.941 271.188C284.125 271.188 281.565 270.506 278.578 270.506H274.738C271.752 270.506 269.192 271.103 266.376 271.188C263.56 271.188 261 270.506 258.013 270.506H254.258C251.272 270.506 248.712 271.103 245.896 271.188C243.08 271.188 240.52 270.506 237.533 270.506H233.693C230.706 270.506 228.146 271.103 225.33 271.188C222.515 271.188 220.04 270.506 217.053 270.506H213.043Z" fill="url(#paint6_linear_2_6914)"/>
<path d="M213.043 269.567C211.702 269.565 210.362 269.65 209.032 269.823L208.605 270.591C210.653 270.335 212.616 269.994 214.749 269.994C217.48 269.994 220.04 270.676 223.026 270.676H226.952C229.938 270.676 232.413 269.994 235.229 269.994C238.045 269.994 240.605 270.676 243.592 270.676H247.517C250.504 270.676 252.978 269.994 255.794 269.994C258.61 269.994 261.17 270.676 264.157 270.676H267.997C270.984 270.676 273.544 269.994 276.36 269.994C279.176 269.994 281.736 270.676 284.722 270.676H288.562C291.549 270.676 294.109 269.994 296.925 269.994C299.144 269.994 301.192 270.42 303.325 270.591L302.898 269.738C301.651 269.608 300.397 269.551 299.144 269.567H295.304C292.317 269.567 289.757 270.164 286.941 270.25C284.125 270.25 281.565 269.567 278.578 269.567H274.738C271.752 269.567 269.192 270.164 266.376 270.25C263.56 270.25 261 269.567 258.013 269.567H254.258C251.272 269.567 248.712 270.164 245.896 270.25C243.08 270.25 240.52 269.567 237.533 269.567H233.693C230.706 269.567 228.146 270.164 225.33 270.25C222.515 270.25 220.04 269.567 217.053 269.567H213.043Z" fill="url(#paint7_linear_2_6914)"/>
<path d="M213.043 268.543C211.702 268.541 210.362 268.626 209.032 268.799L208.605 269.567C210.653 269.311 212.616 268.97 214.749 268.97C217.48 268.97 220.04 269.652 223.026 269.652H226.952C229.938 269.652 232.413 268.97 235.229 268.97C238.045 268.97 240.605 269.652 243.592 269.652H247.517C250.504 269.652 252.978 268.97 255.794 268.97C258.61 268.97 261.17 269.652 264.157 269.652H267.997C270.984 269.652 273.544 268.97 276.36 268.97C279.176 268.97 281.736 269.652 284.722 269.652H288.562C291.549 269.652 294.109 268.97 296.925 268.97C299.144 268.97 301.192 269.396 303.325 269.567L302.898 268.714C301.651 268.584 300.397 268.527 299.144 268.543H295.304C292.317 268.543 289.757 269.14 286.941 269.226C284.125 269.226 281.565 268.543 278.578 268.543H274.738C271.752 268.543 269.192 269.14 266.376 269.226C263.56 269.226 261 268.543 258.013 268.543H254.258C251.272 268.543 248.712 269.14 245.896 269.226C243.08 269.226 240.52 268.543 237.533 268.543H233.693C230.706 268.543 228.146 269.14 225.33 269.226C222.515 269.226 220.04 268.543 217.053 268.543H213.043Z" fill="url(#paint8_linear_2_6914)"/>
<path d="M213.043 267.604C211.702 267.602 210.362 267.687 209.032 267.86L208.605 268.628C210.653 268.372 212.616 268.031 214.749 268.031C217.48 268.031 220.04 268.713 223.026 268.713H226.952C229.938 268.713 232.413 268.031 235.229 268.031C238.045 268.031 240.605 268.713 243.592 268.713H247.517C250.504 268.713 252.978 268.031 255.794 268.031C258.61 268.031 261.17 268.713 264.157 268.713H267.997C270.984 268.713 273.544 268.031 276.36 268.031C279.176 268.031 281.736 268.713 284.722 268.713H288.562C291.549 268.713 294.109 268.031 296.925 268.031C299.144 268.031 301.192 268.457 303.325 268.628L302.898 267.775C301.651 267.645 300.397 267.588 299.144 267.604H295.304C292.317 267.604 289.757 268.201 286.941 268.287C284.125 268.287 281.565 267.604 278.578 267.604H274.738C271.752 267.604 269.192 268.201 266.376 268.287C263.56 268.287 261 267.604 258.013 267.604H254.258C251.272 267.604 248.712 268.201 245.896 268.287C243.08 268.287 240.52 267.604 237.533 267.604H233.693C230.706 267.604 228.146 268.201 225.33 268.287C222.515 268.287 220.04 267.604 217.053 267.604H213.043Z" fill="url(#paint9_linear_2_6914)"/>
<path d="M213.043 266.666C211.702 266.663 210.362 266.749 209.032 266.922L208.605 267.69C210.653 267.434 212.616 267.092 214.749 267.092C217.48 267.092 220.04 267.775 223.026 267.775H226.952C229.938 267.775 232.413 267.092 235.229 267.092C238.045 267.092 240.605 267.775 243.592 267.775H247.517C250.504 267.775 252.978 267.092 255.794 267.092C258.61 267.092 261.17 267.775 264.157 267.775H267.997C270.984 267.775 273.544 267.092 276.36 267.092C279.176 267.092 281.736 267.775 284.722 267.775H288.562C291.549 267.775 294.109 267.092 296.925 267.092C299.144 267.092 301.192 267.519 303.325 267.69L302.898 266.836C301.651 266.707 300.397 266.65 299.144 266.666H295.304C292.317 266.666 289.757 267.263 286.941 267.348C284.125 267.348 281.565 266.666 278.578 266.666H274.738C271.752 266.666 269.192 267.263 266.376 267.348C263.56 267.348 261 266.666 258.013 266.666H254.258C251.272 266.666 248.712 267.263 245.896 267.348C243.08 267.348 240.52 266.666 237.533 266.666H233.693C230.706 266.666 228.146 267.263 225.33 267.348C222.515 267.348 220.04 266.666 217.053 266.666H213.043Z" fill="url(#paint10_linear_2_6914)"/>
<path d="M216.029 262.399V262.57H295.986L295.901 262.399H216.029ZM215.859 262.655L215.773 262.911H296.072L295.986 262.655H215.773H215.859ZM215.688 262.996L215.517 263.252H296.413L296.242 262.996H215.688ZM215.432 263.423L215.176 263.85H296.754L296.498 263.423H215.432ZM215.091 264.02L214.835 264.447H297.096L296.84 264.02H215.091ZM214.749 264.618L214.579 264.959H297.352L297.181 264.618H214.749ZM214.408 265.215L214.237 265.556H297.778L297.522 265.215H214.408ZM214.067 265.812L213.811 266.324H298.12L297.864 265.812H214.152H214.067Z" fill="url(#paint11_linear_2_6914)"/>
<path d="M219.613 266.495C222.514 267.092 222.77 266.495 222.77 266.495H219.613ZM289.16 266.495C289.16 266.495 289.416 267.092 292.317 266.495H289.16Z" fill="url(#paint12_linear_2_6914)"/>
<path d="M282.077 253.439C280.626 253.439 280.2 254.207 280.2 254.207C277.896 263.252 270.13 272.383 260.914 272.383H254.088V281.599H306.482L301.191 272.212C292.914 271.018 286.173 262.57 284.04 254.207C284.04 254.207 283.528 253.439 282.077 253.439Z" fill="url(#paint13_linear_2_6914)"/>
<path d="M282.077 253.866C281.394 253.866 281.053 253.951 280.797 254.122L280.541 254.378C279.262 259.102 276.794 263.421 273.373 266.922C269.96 270.42 265.693 272.81 260.914 272.81H254.344V281.258H306.312L301.448 272.724C297.437 272.127 293.768 269.994 290.866 266.922C287.445 263.421 284.978 259.102 283.698 254.378L283.442 254.122C283.023 253.903 282.547 253.814 282.077 253.866Z" fill="#97C924"/>
<path d="M282.077 253.866H282.418V263.082C282.337 265.02 281.748 266.903 280.712 268.543C280.285 269.908 279.858 269.396 278.749 271.018C277.31 271.514 275.823 271.857 274.312 272.042C272.178 272.383 267.485 272.724 265.01 272.127C268.186 271.155 271.063 269.394 273.373 267.007C274.008 266.328 274.606 265.616 275.165 264.874C276.116 263.691 276.972 262.436 277.725 261.119L278.578 259.412C278.986 258.605 279.357 257.779 279.688 256.938C280.017 256.1 280.302 255.245 280.541 254.378L280.797 254.122L281.309 253.951L282.077 253.866Z" fill="#EDE71F"/>
<path d="M281.565 255.06C281.138 260.18 279.602 266.324 275.847 270.25C274.482 271.359 272.69 272.468 271.069 272.212C276.786 267.519 280.285 260.266 281.479 255.06H281.565Z" fill="#C6CB24"/>
<path d="M276.872 263.935C276.018 266.239 272.776 269.652 269.362 272.468H266.888C269.021 272.298 273.97 268.202 276.872 263.935Z" fill="#9ECB34"/>
<path d="M269.021 253.439C267.57 253.439 267.144 254.207 267.144 254.207C264.84 263.252 257.074 272.383 247.858 272.383H241.032V281.599H293.426L288.136 272.212C279.858 271.018 273.117 262.57 270.984 254.207C270.984 254.207 270.472 253.439 269.021 253.439Z" fill="url(#paint14_linear_2_6914)"/>
<path d="M269.021 253.866C268.338 253.866 267.997 253.951 267.741 254.122L267.485 254.378C266.206 259.102 263.738 263.421 260.317 266.922C256.904 270.42 252.637 272.81 247.858 272.81H241.288V281.258H293.256L288.392 272.724C284.381 272.127 280.712 269.994 277.81 266.922C274.389 263.421 271.922 259.102 270.642 254.378L270.386 254.122C269.967 253.903 269.491 253.814 269.021 253.866Z" fill="#97C924"/>
<path d="M269.021 253.866H269.362V263.082C269.281 265.02 268.692 266.903 267.656 268.543C267.229 269.908 266.802 269.396 265.693 271.018C264.254 271.514 262.767 271.857 261.256 272.042C259.122 272.383 254.429 272.724 251.954 272.127C255.13 271.155 258.008 269.394 260.317 267.007C260.952 266.328 261.55 265.616 262.109 264.874C263.06 263.691 263.916 262.436 264.669 261.119L265.522 259.412C265.931 258.605 266.301 257.779 266.632 256.938C266.961 256.1 267.246 255.245 267.485 254.378L267.741 254.122L268.253 253.951L269.021 253.866Z" fill="#EDE71F"/>
<path d="M268.509 255.06C268.082 260.18 266.546 266.324 262.792 270.25C261.426 271.359 259.634 272.468 258.013 272.212C263.73 267.519 267.229 260.266 268.424 255.06H268.509Z" fill="#C6CB24"/>
<path d="M263.816 263.935C262.962 266.239 259.72 269.652 256.306 272.468H253.832C255.965 272.298 260.914 268.202 263.816 263.935Z" fill="#9ECB34"/>
<path d="M257.842 254.292C260.232 263.252 267.912 272.383 277.128 272.383H284.04V281.599H227.891V272.383H234.717C243.933 272.383 251.698 263.252 254.002 254.207C254.002 254.207 254.514 253.524 255.965 253.524C257.416 253.524 257.842 254.207 257.842 254.207V254.292Z" fill="url(#paint15_linear_2_6914)"/>
<path d="M255.965 253.866C256.648 253.866 256.989 254.036 257.245 254.122L257.501 254.378C258.78 259.102 261.248 263.421 264.669 266.922C268.082 270.42 272.349 272.81 277.128 272.81H283.698V281.257H228.232V272.724H234.802C239.496 272.724 243.848 270.42 247.261 266.922C250.651 263.411 253.089 259.094 254.344 254.378L254.6 254.122C255.023 253.912 255.495 253.823 255.965 253.866Z" fill="#97C924"/>
<path d="M255.368 253.866C255.282 253.862 255.197 253.862 255.112 253.866L254.6 254.122L254.344 254.378C254.106 255.246 253.821 256.1 253.49 256.938C253.19 257.807 252.848 258.661 252.466 259.498C252.199 260.047 251.914 260.588 251.613 261.119C250.86 262.436 250.004 263.692 249.053 264.874C248.492 265.587 247.893 266.27 247.261 266.922C244.961 269.339 242.083 271.131 238.898 272.127C241.288 272.724 242.312 272.127 244.445 271.786C246.152 271.53 248.029 271.274 249.565 270.762C250.845 269.055 250.418 269.652 250.845 268.287C251.869 266.41 253.405 264.703 253.746 262.57C255.112 260.01 255.368 255.231 255.368 253.866Z" fill="#EDE71F"/>
<path d="M255.368 255.06C255.026 260.18 253.405 266.324 249.65 270.25C248.285 271.359 246.578 272.468 244.872 272.212C250.674 267.519 254.173 260.266 255.368 255.06Z" fill="#C6CB24"/>
<path d="M250.674 263.935C248.819 267.29 246.257 270.202 243.165 272.468H240.776C242.909 272.298 247.773 268.202 250.674 263.935Z" fill="#9ECB34"/>
<path d="M256.818 253.951L257.245 254.122L257.586 254.378C257.829 255.244 258.114 256.099 258.44 256.938C258.74 257.807 259.082 258.661 259.464 259.498L260.317 261.119C261.07 262.436 261.926 263.692 262.877 264.874C263.439 265.587 264.037 266.27 264.669 266.922C266.953 269.435 269.827 271.341 273.032 272.468C266.802 272.468 264.157 271.956 261.938 269.055C260.325 267.347 259.102 265.309 258.354 263.082C257.928 261.375 256.648 257.535 256.733 253.951H256.818Z" fill="#EDE71F"/>
<path d="M257.245 255.06C257.586 260.18 259.122 265.3 262.877 269.226C264.242 270.42 265.949 271.444 267.656 271.188C262.295 267.3 258.581 261.547 257.245 255.06Z" fill="#C6CB24"/>
<path d="M242.994 253.439C241.458 253.439 241.032 254.207 241.032 254.207C238.898 262.57 230.962 273.236 222.685 274.516L218.589 281.599H260.402V271.956C252.893 269.908 246.834 261.972 244.872 254.207C244.872 254.207 244.445 253.524 242.909 253.524L242.994 253.439Z" fill="url(#paint16_linear_2_6914)"/>
<path d="M242.994 253.866C242.312 253.866 241.885 254.036 241.629 254.122L241.373 254.378C239.938 259.059 237.589 263.41 234.461 267.178C231.56 270.847 226.184 274.516 222.514 274.858L218.845 281.257H259.805V272.127C256.724 271.11 253.94 269.352 251.698 267.007C248.265 263.482 245.796 259.133 244.53 254.378L244.274 254.122C243.878 253.923 243.436 253.835 242.994 253.866Z" fill="#97C924"/>
<path d="M241.8 255.06C241.288 262.74 237.021 272.554 232.157 274.175C230.536 274.772 227.805 274.943 226.866 275.028C230.629 272.938 233.91 270.08 236.498 266.64C239.085 263.2 240.92 259.255 241.885 255.06H241.8Z" fill="#93BC30"/>
<path d="M242.994 253.866H242.568V263.082C242.568 265.044 243.336 266.666 244.274 268.543L244.445 268.97C244.872 269.908 245.128 270.25 246.408 271.274C250.072 273.889 254.554 275.1 259.037 274.687C258.098 273.919 257.074 273.236 256.136 272.639L259.976 272.212C256.813 271.179 253.964 269.358 251.698 266.922C251.286 266.508 250.887 266.082 250.504 265.642L249.992 264.959C248.982 263.753 248.069 262.469 247.261 261.119C246.958 260.56 246.673 259.99 246.408 259.412C245.884 258.332 245.428 257.221 245.042 256.084C244.853 255.521 244.682 254.952 244.53 254.378L244.274 254.122C244.113 254.04 243.94 253.983 243.762 253.951C243.483 253.883 243.196 253.854 242.909 253.866H242.994Z" fill="#EDE71F"/>
<path d="M243.506 255.06C243.933 260.18 245.469 266.324 249.224 270.25C250.589 271.359 252.296 272.468 254.002 272.212C248.797 267.732 245.126 261.734 243.506 255.06Z" fill="#CCD11E"/>
<path d="M247.09 262.228C249.854 267.634 254.2 272.07 259.549 274.943H261.682C257.928 272.895 251.869 269.994 247.176 262.143L247.09 262.228Z" fill="#9ECB34"/>
<path d="M229.853 253.439C228.317 253.439 227.89 254.207 227.89 254.207C225.757 262.57 217.821 273.236 209.544 274.516L205.448 281.599H247.261V271.956C239.752 269.908 233.693 261.972 231.73 254.207C231.73 254.207 231.304 253.524 229.768 253.524L229.853 253.439Z" fill="url(#paint17_linear_2_6914)"/>
<path d="M229.853 253.866C229.17 253.866 228.744 254.036 228.488 254.122L228.232 254.378C226.797 259.059 224.447 263.41 221.32 267.178C218.418 270.847 213.042 274.516 209.373 274.858L205.704 281.257H246.664V272.127C243.583 271.11 240.799 269.352 238.557 267.007C235.124 263.482 232.655 259.133 231.389 254.378L231.133 254.122C230.737 253.923 230.295 253.835 229.853 253.866Z" fill="#97C924"/>
<path d="M228.658 255.06C228.146 262.74 223.88 272.554 219.016 274.175C217.394 274.772 214.664 274.943 213.725 275.028C217.488 272.938 220.769 270.08 223.356 266.64C225.943 263.2 227.779 259.255 228.744 255.06H228.658Z" fill="#93BC30"/>
<path d="M229.853 253.866H229.426V263.082C229.426 265.044 230.194 266.666 231.133 268.543L231.304 268.97C231.73 269.908 231.986 270.25 233.266 271.274C236.931 273.889 241.413 275.1 245.896 274.687C244.957 273.919 243.933 273.236 242.994 272.639L246.834 272.212C243.671 271.179 240.823 269.358 238.557 266.922C238.145 266.508 237.746 266.082 237.362 265.642L236.85 264.959C235.84 263.753 234.927 262.469 234.12 261.119C233.817 260.56 233.532 259.99 233.266 259.412C232.743 258.332 232.287 257.221 231.901 256.084C231.712 255.521 231.541 254.952 231.389 254.378L231.133 254.122C230.971 254.04 230.799 253.983 230.621 253.951C230.342 253.883 230.055 253.854 229.768 253.866H229.853Z" fill="#EDE71F"/>
<path d="M230.365 255.06C230.792 260.18 232.328 266.324 236.082 270.25C237.448 271.359 239.154 272.468 240.861 272.212C235.656 267.732 231.985 261.734 230.365 255.06Z" fill="#C6CB24"/>
<path d="M233.949 262.228C236.713 267.634 241.059 272.07 246.408 274.943H248.541C244.786 272.895 238.728 269.994 234.034 262.143L233.949 262.228Z" fill="#9ECB34"/>
<path d="M304.178 277.076C303.666 277.247 300.424 276.905 298.717 277.076L297.608 277.332H294.792C291.72 277.332 289.074 278.185 286.173 278.185C283.272 278.185 280.626 277.332 277.64 277.332H274.738C271.666 277.332 269.021 278.185 266.12 278.185C263.218 278.185 260.573 277.332 257.586 277.332H254.685C251.613 277.332 248.968 278.185 246.152 278.185C243.165 278.185 240.605 277.332 237.533 277.332H234.632C231.56 277.332 229 278.185 226.098 278.185C223.112 278.185 220.552 277.332 217.48 277.332H214.579C212.189 277.332 209.288 277.844 206.984 278.015L201.608 287.316H310.322L304.178 277.076Z" fill="white"/>
<path d="M296.925 275.711H296.413C293.682 275.796 291.634 276.649 286.856 276.649C282.077 276.649 281.565 275.796 276.104 275.967C270.984 275.967 268.936 276.991 266.12 276.991C263.389 276.991 258.952 276.393 255.453 276.735C252.04 277.076 247.944 277.844 245.213 277.844C241.885 277.844 238.557 277.247 235.144 277.588C231.645 277.929 230.024 278.868 225.672 278.868C221.917 278.868 217.992 278.271 214.749 278.271C211.848 278.271 208.605 279.124 206.216 279.465L205.448 280.745C207.411 280.489 212.787 279.636 214.664 279.636C216.712 279.636 223.794 280.063 227.72 279.892C231.73 279.807 232.157 278.868 236.85 278.868C240.093 278.868 242.482 279.209 245.81 279.209C247.944 279.209 249.821 278.185 252.978 278.185L255.368 278.1C258.013 277.673 262.536 278.1 265.608 278.271C268.424 278.441 270.301 277.759 273.288 277.673L277.042 277.588C280.029 277.417 282.504 278.1 285.32 278.1C288.05 277.929 290.781 277.247 293.682 277.247L297.522 277.076C299.485 277.076 302.557 277.076 304.605 277.503L303.922 276.308C301.874 276.223 299.4 275.711 296.925 275.711Z" fill="url(#paint18_linear_2_6914)"/>
<path d="M213.554 285.695C210.653 285.695 208.093 286.377 205.363 286.463C204.335 286.436 203.309 286.35 202.291 286.207L201.864 286.889H206.984C209.971 286.889 212.445 286.207 215.176 286.121C217.992 286.207 220.466 286.975 223.453 286.975H227.293C230.194 286.975 232.754 286.207 235.485 286.121C238.301 286.207 240.861 286.975 243.762 286.975H247.602C250.589 286.975 253.064 286.207 255.88 286.121C258.61 286.207 261.085 286.975 264.072 286.975H267.912C270.813 286.975 273.373 286.207 276.189 286.121C278.92 286.207 281.48 286.975 284.381 286.975H288.221C291.208 286.975 293.682 286.207 296.413 286.121C299.229 286.207 301.703 286.975 304.69 286.975H308.53L310.066 286.889L309.639 286.207C308.786 286.292 307.847 286.463 306.909 286.463C304.093 286.463 301.618 285.609 298.632 285.609H294.792C291.89 285.609 289.33 286.463 286.6 286.463C283.784 286.377 281.309 285.609 278.322 285.609H274.482C271.581 285.609 269.021 286.463 266.29 286.463C263.474 286.377 261 285.609 258.013 285.609H254.173C251.186 285.609 248.712 286.463 245.981 286.463C243.165 286.377 240.69 285.609 237.704 285.609H233.864C230.962 285.609 228.402 286.463 225.672 286.463C222.856 286.377 220.381 285.609 217.394 285.609H213.554V285.695Z" fill="url(#paint19_linear_2_6914)"/>
<path d="M213.554 284.586C210.653 284.586 208.093 285.268 205.363 285.354C204.335 285.327 203.309 285.241 202.291 285.098L201.864 285.78H206.984C209.971 285.78 212.445 285.098 215.176 285.012C217.992 285.098 220.466 285.866 223.453 285.866H227.293C230.194 285.866 232.754 285.098 235.485 285.012C238.301 285.098 240.861 285.866 243.762 285.866H247.602C250.589 285.866 253.064 285.098 255.88 285.012C258.61 285.098 261.085 285.866 264.072 285.866H267.912C270.813 285.866 273.373 285.098 276.189 285.012C278.92 285.098 281.48 285.866 284.381 285.866H288.221C291.208 285.866 293.682 285.098 296.413 285.012C299.229 285.098 301.703 285.866 304.69 285.866H308.53L310.066 285.78L309.639 285.098C308.786 285.183 307.847 285.354 306.909 285.354C304.093 285.354 301.618 284.5 298.632 284.5H294.792C291.89 284.5 289.33 285.354 286.6 285.354C283.784 285.268 281.309 284.5 278.322 284.5H274.482C271.581 284.5 269.021 285.354 266.29 285.354C263.474 285.268 261 284.5 258.013 284.5H254.173C251.186 284.5 248.712 285.354 245.981 285.354C243.165 285.268 240.69 284.5 237.704 284.5H233.864C230.962 284.5 228.402 285.354 225.672 285.354C222.856 285.268 220.381 284.5 217.394 284.5H213.554V284.586Z" fill="url(#paint20_linear_2_6914)"/>
<path d="M213.554 283.476C210.653 283.476 208.093 284.159 205.363 284.244C204.335 284.217 203.309 284.132 202.291 283.988L201.864 284.671H206.984C209.971 284.671 212.445 283.988 215.176 283.903C217.992 283.988 220.466 284.756 223.453 284.756H227.293C230.194 284.756 232.754 283.988 235.485 283.903C238.301 283.988 240.861 284.756 243.762 284.756H247.602C250.589 284.756 253.064 283.988 255.88 283.903C258.61 283.988 261.085 284.756 264.072 284.756H267.912C270.813 284.756 273.373 283.988 276.189 283.903C278.92 283.988 281.48 284.756 284.381 284.756H288.221C291.208 284.756 293.682 283.988 296.413 283.903C299.229 283.988 301.703 284.756 304.69 284.756H308.53L310.066 284.671L309.639 283.988C308.786 284.074 307.847 284.244 306.909 284.244C304.093 284.244 301.618 283.391 298.632 283.391H294.792C291.89 283.391 289.33 284.244 286.6 284.244C283.784 284.159 281.309 283.391 278.322 283.391H274.482C271.581 283.391 269.021 284.244 266.29 284.244C263.474 284.159 261 283.391 258.013 283.391H254.173C251.186 283.391 248.712 284.244 245.981 284.244C243.165 284.159 240.69 283.391 237.704 283.391H233.864C230.962 283.391 228.402 284.244 225.672 284.244C222.856 284.159 220.381 283.391 217.394 283.391H213.554V283.476Z" fill="url(#paint21_linear_2_6914)"/>
<path d="M213.554 282.367C210.653 282.367 208.093 283.049 205.363 283.135C204.335 283.108 203.309 283.022 202.291 282.879L201.864 283.561H206.984C209.971 283.561 212.445 282.879 215.176 282.793C217.992 282.879 220.466 283.647 223.453 283.647H227.293C230.194 283.647 232.754 282.879 235.485 282.793C238.301 282.879 240.861 283.647 243.762 283.647H247.602C250.589 283.647 253.064 282.879 255.88 282.793C258.61 282.879 261.085 283.647 264.072 283.647H267.912C270.813 283.647 273.373 282.879 276.189 282.793C278.92 282.879 281.48 283.647 284.381 283.647H288.221C291.208 283.647 293.682 282.879 296.413 282.793C299.229 282.879 301.703 283.647 304.69 283.647H308.53L310.066 283.561L309.639 282.879C308.786 282.964 307.847 283.135 306.909 283.135C304.093 283.135 301.618 282.281 298.632 282.281H294.792C291.89 282.281 289.33 283.135 286.6 283.135C283.784 283.049 281.309 282.281 278.322 282.281H274.482C271.581 282.281 269.021 283.135 266.29 283.135C263.474 283.049 261 282.281 258.013 282.281H254.173C251.186 282.281 248.712 283.135 245.981 283.135C243.165 283.049 240.69 282.281 237.704 282.281H233.864C230.962 282.281 228.402 283.135 225.672 283.135C222.856 283.049 220.381 282.281 217.394 282.281H213.554V282.367Z" fill="url(#paint22_linear_2_6914)"/>
<path d="M213.554 281.258C210.653 281.258 208.093 281.94 205.363 282.026C204.335 281.999 203.309 281.913 202.291 281.77L201.864 282.452H206.984C209.971 282.452 212.445 281.77 215.176 281.684C217.992 281.77 220.466 282.538 223.453 282.538H227.293C230.194 282.538 232.754 281.77 235.485 281.684C238.301 281.77 240.861 282.538 243.762 282.538H247.602C250.589 282.538 253.064 281.77 255.88 281.684C258.61 281.77 261.085 282.538 264.072 282.538H267.912C270.813 282.538 273.373 281.77 276.189 281.684C278.92 281.77 281.48 282.538 284.381 282.538H288.221C291.208 282.538 293.682 281.77 296.413 281.684C299.229 281.77 301.703 282.538 304.69 282.538H308.53L310.066 282.452L309.639 281.77C308.786 281.855 307.847 282.026 306.909 282.026C304.093 282.026 301.618 281.172 298.632 281.172H294.792C291.89 281.172 289.33 282.026 286.6 282.026C283.784 281.94 281.309 281.172 278.322 281.172H274.482C271.581 281.172 269.021 282.026 266.29 282.026C263.474 281.94 261 281.172 258.013 281.172H254.173C251.186 281.172 248.712 282.026 245.981 282.026C243.165 281.94 240.69 281.172 237.704 281.172H233.864C230.962 281.172 228.402 282.026 225.672 282.026C222.856 281.94 220.381 281.172 217.394 281.172H213.554V281.258Z" fill="url(#paint23_linear_2_6914)"/>
<path d="M213.554 280.148C210.653 280.148 208.093 280.831 205.363 280.916C204.335 280.889 203.309 280.804 202.291 280.66L201.864 281.343H206.984C209.971 281.343 212.445 280.66 215.176 280.575C217.992 280.66 220.466 281.428 223.453 281.428H227.293C230.194 281.428 232.754 280.66 235.485 280.575C238.301 280.66 240.861 281.428 243.762 281.428H247.602C250.589 281.428 253.064 280.66 255.88 280.575C258.61 280.66 261.085 281.428 264.072 281.428H267.912C270.813 281.428 273.373 280.66 276.189 280.575C278.92 280.66 281.48 281.428 284.381 281.428H288.221C291.208 281.428 293.682 280.66 296.413 280.575C299.229 280.66 301.703 281.428 304.69 281.428H308.53L310.066 281.343L309.639 280.66C308.786 280.746 307.847 280.916 306.909 280.916C304.093 280.916 301.618 280.063 298.632 280.063H294.792C291.89 280.063 289.33 280.916 286.6 280.916C283.784 280.831 281.309 280.063 278.322 280.063H274.482C271.581 280.063 269.021 280.916 266.29 280.916C263.474 280.831 261 280.063 258.013 280.063H254.173C251.186 280.063 248.712 280.916 245.981 280.916C243.165 280.831 240.69 280.063 237.704 280.063H233.864C230.962 280.063 228.402 280.916 225.672 280.916C222.856 280.831 220.381 280.063 217.394 280.063H213.554V280.148Z" fill="url(#paint24_linear_2_6914)"/>
<path d="M213.554 279.124C210.653 279.124 208.093 279.807 205.363 279.892C204.335 279.865 203.309 279.78 202.291 279.636L201.864 280.319H206.984C209.971 280.319 212.445 279.636 215.176 279.551C217.992 279.636 220.466 280.404 223.453 280.404H227.293C230.194 280.404 232.754 279.636 235.485 279.551C238.301 279.636 240.861 280.404 243.762 280.404H247.602C250.589 280.404 253.064 279.636 255.88 279.551C258.61 279.636 261.085 280.404 264.072 280.404H267.912C270.813 280.404 273.373 279.636 276.189 279.551C278.92 279.636 281.48 280.404 284.381 280.404H288.221C291.208 280.404 293.682 279.636 296.413 279.551C299.229 279.636 301.703 280.404 304.69 280.404H308.53L310.066 280.319L309.639 279.636C308.786 279.721 307.847 279.892 306.909 279.892C304.093 279.892 301.618 279.039 298.632 279.039H294.792C291.89 279.039 289.33 279.892 286.6 279.892C283.784 279.807 281.309 279.039 278.322 279.039H274.482C271.581 279.039 269.021 279.892 266.29 279.892C263.474 279.807 261 279.039 258.013 279.039H254.173C251.186 279.039 248.712 279.892 245.981 279.892C243.165 279.807 240.69 279.039 237.704 279.039H233.864C230.962 279.039 228.402 279.892 225.672 279.892C222.856 279.807 220.381 279.039 217.394 279.039H213.554V279.124Z" fill="url(#paint25_linear_2_6914)"/>
<path d="M213.554 278.015C210.653 278.015 208.093 278.698 205.363 278.783C204.335 278.756 203.309 278.67 202.291 278.527L201.864 279.21H206.984C209.971 279.21 212.445 278.527 215.176 278.442C217.992 278.527 220.466 279.295 223.453 279.295H227.293C230.194 279.295 232.754 278.527 235.485 278.442C238.301 278.527 240.861 279.295 243.762 279.295H247.602C250.589 279.295 253.064 278.527 255.88 278.442C258.61 278.527 261.085 279.295 264.072 279.295H267.912C270.813 279.295 273.373 278.527 276.189 278.442C278.92 278.527 281.48 279.295 284.381 279.295H288.221C291.208 279.295 293.682 278.527 296.413 278.442C299.229 278.527 301.703 279.295 304.69 279.295H308.53L310.066 279.21L309.639 278.527C308.786 278.612 307.847 278.783 306.909 278.783C304.093 278.783 301.618 277.93 298.632 277.93H294.792C291.89 277.93 289.33 278.783 286.6 278.783C283.784 278.698 281.309 277.93 278.322 277.93H274.482C271.581 277.93 269.021 278.783 266.29 278.783C263.474 278.698 261 277.93 258.013 277.93H254.173C251.186 277.93 248.712 278.783 245.981 278.783C243.165 278.698 240.69 277.93 237.704 277.93H233.864C230.962 277.93 228.402 278.783 225.672 278.783C222.856 278.698 220.381 277.93 217.394 277.93H213.554V278.015Z" fill="url(#paint26_linear_2_6914)"/>
<path d="M213.554 276.906C210.653 276.906 208.093 277.588 205.363 277.674C204.335 277.646 203.309 277.561 202.291 277.418L201.864 278.1H206.984C209.971 278.1 212.445 277.418 215.176 277.332C217.992 277.418 220.466 278.185 223.453 278.185H227.293C230.194 278.185 232.754 277.418 235.485 277.332C238.301 277.418 240.861 278.185 243.762 278.185H247.602C250.589 278.185 253.064 277.418 255.88 277.332C258.61 277.418 261.085 278.185 264.072 278.185H267.912C270.813 278.185 273.373 277.418 276.189 277.332C278.92 277.418 281.48 278.185 284.381 278.185H288.221C291.208 278.185 293.682 277.418 296.413 277.332C299.229 277.418 301.703 278.185 304.69 278.185H308.53L310.066 278.1L309.639 277.418C308.786 277.503 307.847 277.674 306.909 277.674C304.093 277.674 301.618 276.82 298.632 276.82H294.792C291.89 276.82 289.33 277.674 286.6 277.674C283.784 277.588 281.309 276.82 278.322 276.82H274.482C271.581 276.82 269.021 277.674 266.29 277.674C263.474 277.588 261 276.82 258.013 276.82H254.173C251.186 276.82 248.712 277.674 245.981 277.674C243.165 277.588 240.69 276.82 237.704 276.82H233.864C230.962 276.82 228.402 277.674 225.672 277.674C222.856 277.588 220.381 276.82 217.394 276.82H213.554V276.906Z" fill="url(#paint27_linear_2_6914)"/>
<path d="M208.093 277.076L205.96 280.66C208.434 280.233 212.018 279.209 215.09 279.209C218.162 279.209 221.917 279.977 225.672 280.063C229.938 280.063 231.645 279.039 235.058 278.697C238.557 278.356 241.885 279.124 245.298 279.209C247.944 279.209 252.04 278.271 255.538 277.929C258.952 277.503 262.109 278.185 266.205 278.185C270.386 278.271 271.069 277.161 276.104 277.076C281.565 276.991 282.077 277.844 286.856 277.844C290.44 278.015 293.597 277.076 296.84 276.905C300.082 276.649 301.533 276.905 303.922 276.905L302.301 274.175L215.858 276.137L208.093 277.076Z" fill="#97C924"/>
<path d="M298.632 276.991L302.045 277.247C302.868 277.345 303.693 277.431 304.52 277.503L304.178 277.076C303.666 277.247 300.424 276.906 298.717 277.076L298.632 276.991Z" fill="white"/>
</g>
<path d="M256 191.9L228.6 239.4L200.6 288H311.4L284 240.5L256 191.9ZM256 194.4L283 241.1L309.3 286.7H202.8L229.7 240.1L256 194.4Z" fill="#C8A400"/>
</g>
<defs>
<linearGradient id="paint0_linear_2_6914" x1="254.856" y1="246.698" x2="256.477" y2="241.834" gradientUnits="userSpaceOnUse">
<stop stop-color="#510000"/>
<stop offset="0.3" stop-color="#8A0000"/>
<stop offset="1" stop-color="#AA0000"/>
</linearGradient>
<linearGradient id="paint1_linear_2_6914" x1="257.16" y1="248.66" x2="258.44" y2="245.247" gradientUnits="userSpaceOnUse">
<stop stop-color="#FF2A2A"/>
<stop offset="1" stop-color="#FF0000"/>
</linearGradient>
<linearGradient id="paint2_linear_2_6914" x1="208.605" y1="270.932" x2="370.653" y2="270.932" gradientUnits="userSpaceOnUse">
<stop stop-color="#002255"/>
<stop offset="0.5" stop-color="#0044AA"/>
<stop offset="1" stop-color="#002255"/>
</linearGradient>
<linearGradient id="paint3_linear_2_6914" x1="208.605" y1="269.994" x2="370.653" y2="269.994" gradientUnits="userSpaceOnUse">
<stop stop-color="#002255"/>
<stop offset="0.5" stop-color="#0044AA"/>
<stop offset="1" stop-color="#002255"/>
</linearGradient>
<linearGradient id="paint4_linear_2_6914" x1="208.605" y1="269.055" x2="370.653" y2="269.055" gradientUnits="userSpaceOnUse">
<stop stop-color="#002255"/>
<stop offset="0.5" stop-color="#0044AA"/>
<stop offset="1" stop-color="#002255"/>
</linearGradient>
<linearGradient id="paint5_linear_2_6914" x1="208.605" y1="268.116" x2="370.653" y2="268.116" gradientUnits="userSpaceOnUse">
<stop stop-color="#002255"/>
<stop offset="0.5" stop-color="#0044AA"/>
<stop offset="1" stop-color="#002255"/>
</linearGradient>
<linearGradient id="paint6_linear_2_6914" x1="208.605" y1="267.178" x2="370.653" y2="267.178" gradientUnits="userSpaceOnUse">
<stop stop-color="#002255"/>
<stop offset="0.5" stop-color="#0044AA"/>
<stop offset="1" stop-color="#002255"/>
</linearGradient>
<linearGradient id="paint7_linear_2_6914" x1="208.605" y1="266.239" x2="370.653" y2="266.239" gradientUnits="userSpaceOnUse">
<stop stop-color="#002255"/>
<stop offset="0.5" stop-color="#0044AA"/>
<stop offset="1" stop-color="#002255"/>
</linearGradient>
<linearGradient id="paint8_linear_2_6914" x1="208.605" y1="265.215" x2="370.653" y2="265.215" gradientUnits="userSpaceOnUse">
<stop stop-color="#002255"/>
<stop offset="0.5" stop-color="#0044AA"/>
<stop offset="1" stop-color="#002255"/>
</linearGradient>
<linearGradient id="paint9_linear_2_6914" x1="208.605" y1="264.276" x2="370.653" y2="264.276" gradientUnits="userSpaceOnUse">
<stop stop-color="#002255"/>
<stop offset="0.5" stop-color="#0044AA"/>
<stop offset="1" stop-color="#002255"/>
</linearGradient>
<linearGradient id="paint10_linear_2_6914" x1="208.605" y1="263.337" x2="370.653" y2="263.337" gradientUnits="userSpaceOnUse">
<stop stop-color="#002255"/>
<stop offset="0.5" stop-color="#0044AA"/>
<stop offset="1" stop-color="#002255"/>
</linearGradient>
<linearGradient id="paint11_linear_2_6914" x1="208.605" y1="270.932" x2="370.653" y2="270.932" gradientUnits="userSpaceOnUse">
<stop stop-color="#002255"/>
<stop offset="0.5" stop-color="#0044AA"/>
<stop offset="1" stop-color="#002255"/>
</linearGradient>
<linearGradient id="paint12_linear_2_6914" x1="208.605" y1="270.932" x2="370.653" y2="270.932" gradientUnits="userSpaceOnUse">
<stop stop-color="#002255"/>
<stop offset="0.5" stop-color="#0044AA"/>
<stop offset="1" stop-color="#002255"/>
</linearGradient>
<linearGradient id="paint13_linear_2_6914" x1="242.994" y1="265.983" x2="242.994" y2="271.018" gradientUnits="userSpaceOnUse">
<stop stop-color="#F5F549"/>
<stop offset="1" stop-color="#97C924"/>
</linearGradient>
<linearGradient id="paint14_linear_2_6914" x1="229.938" y1="265.983" x2="229.938" y2="271.018" gradientUnits="userSpaceOnUse">
<stop stop-color="#F5F549"/>
<stop offset="1" stop-color="#97C924"/>
</linearGradient>
<linearGradient id="paint15_linear_2_6914" x1="242.994" y1="265.983" x2="242.994" y2="271.018" gradientUnits="userSpaceOnUse">
<stop stop-color="#F5F549"/>
<stop offset="1" stop-color="#97C924"/>
</linearGradient>
<linearGradient id="paint16_linear_2_6914" x1="242.994" y1="265.983" x2="242.994" y2="271.018" gradientUnits="userSpaceOnUse">
<stop stop-color="#F5F549"/>
<stop offset="1" stop-color="#97C924"/>
</linearGradient>
<linearGradient id="paint17_linear_2_6914" x1="229.853" y1="265.983" x2="229.853" y2="271.018" gradientUnits="userSpaceOnUse">
<stop stop-color="#F5F549"/>
<stop offset="1" stop-color="#97C924"/>
</linearGradient>
<linearGradient id="paint18_linear_2_6914" x1="205.458" y1="275.731" x2="304.727" y2="275.731" gradientUnits="userSpaceOnUse">
<stop stop-color="#002255"/>
<stop offset="0.5" stop-color="#0044AA"/>
<stop offset="1" stop-color="#002255"/>
</linearGradient>
<linearGradient id="paint19_linear_2_6914" x1="202.241" y1="285.644" x2="309.685" y2="285.644" gradientUnits="userSpaceOnUse">
<stop stop-color="#002255"/>
<stop offset="0.5" stop-color="#0044AA"/>
<stop offset="1" stop-color="#002255"/>
</linearGradient>
<linearGradient id="paint20_linear_2_6914" x1="202.241" y1="284.535" x2="309.685" y2="284.535" gradientUnits="userSpaceOnUse">
<stop stop-color="#002255"/>
<stop offset="0.5" stop-color="#0044AA"/>
<stop offset="1" stop-color="#002255"/>
</linearGradient>
<linearGradient id="paint21_linear_2_6914" x1="202.241" y1="283.425" x2="309.685" y2="283.425" gradientUnits="userSpaceOnUse">
<stop stop-color="#002255"/>
<stop offset="0.5" stop-color="#0044AA"/>
<stop offset="1" stop-color="#002255"/>
</linearGradient>
<linearGradient id="paint22_linear_2_6914" x1="202.241" y1="282.316" x2="309.685" y2="282.316" gradientUnits="userSpaceOnUse">
<stop stop-color="#002255"/>
<stop offset="0.5" stop-color="#0044AA"/>
<stop offset="1" stop-color="#002255"/>
</linearGradient>
<linearGradient id="paint23_linear_2_6914" x1="202.241" y1="281.207" x2="309.685" y2="281.207" gradientUnits="userSpaceOnUse">
<stop stop-color="#002255"/>
<stop offset="0.5" stop-color="#0044AA"/>
<stop offset="1" stop-color="#002255"/>
</linearGradient>
<linearGradient id="paint24_linear_2_6914" x1="202.241" y1="280.097" x2="309.685" y2="280.097" gradientUnits="userSpaceOnUse">
<stop stop-color="#002255"/>
<stop offset="0.5" stop-color="#0044AA"/>
<stop offset="1" stop-color="#002255"/>
</linearGradient>
<linearGradient id="paint25_linear_2_6914" x1="202.241" y1="279.073" x2="309.685" y2="279.073" gradientUnits="userSpaceOnUse">
<stop stop-color="#002255"/>
<stop offset="0.5" stop-color="#0044AA"/>
<stop offset="1" stop-color="#002255"/>
</linearGradient>
<linearGradient id="paint26_linear_2_6914" x1="202.241" y1="277.964" x2="309.685" y2="277.964" gradientUnits="userSpaceOnUse">
<stop stop-color="#002255"/>
<stop offset="0.5" stop-color="#0044AA"/>
<stop offset="1" stop-color="#002255"/>
</linearGradient>
<linearGradient id="paint27_linear_2_6914" x1="202.241" y1="276.855" x2="309.685" y2="276.855" gradientUnits="userSpaceOnUse">
<stop stop-color="#002255"/>
<stop offset="0.5" stop-color="#0044AA"/>
<stop offset="1" stop-color="#002255"/>
</linearGradient>
<clipPath id="clip0_2_6914">
<rect width="512" height="512" fill="white"/>
</clipPath>
</defs>
</svg>
