<svg width="512" height="512" viewBox="0 0 512 512" fill="none" xmlns="http://www.w3.org/2000/svg">
<g clip-path="url(#clip0_2_7179)">
<path d="M0 0H512V512H0V0Z" fill="#FEDD00"/>
<path d="M0 0H256V256H0V0Z" fill="#012169"/>
<path d="M256 0V32L161 128L256 221.5V256H222.5L127 162L34 256H0V222L93 128.5L0 37V0H31L127 94L220 0H256Z" fill="white"/>
<path d="M92 162L97.5 179L21 256H0V254.5L92 162ZM154 156L181 160L256 233.5V256L154 156ZM256 0L160 98L158 76L233 0H256ZM0 0.5L96.5 95L67 91L0 24.5V0.5Z" fill="#C8102E"/>
<path d="M88 0V256H168V0H88ZM0 88V168H256V88H0Z" fill="white"/>
<path d="M0 104V152H256V104H0ZM104 0V256H152V0H104Z" fill="#C8102E"/>
<path d="M128 171.6C152.08 171.6 171.6 152.08 171.6 128C171.6 103.92 152.08 84.4 128 84.4C103.92 84.4 84.3999 103.92 84.3999 128C84.3999 152.08 103.92 171.6 128 171.6Z" fill="#012169"/>
<path d="M128 84.4L153.6 163.2L86.6 114.5H169.4L102.4 163.2M53.3 104.9L68.3 151.2L29 122.6H77.7L38.3 151.2M202.7 104.9L217.7 151.2L178.3 122.6H227L187.6 151.2M128 190.2L143 236.5L103.7 207.9H152.3L113 236.5M128 19.5L143 66L103.7 37.3H152.3L113 66" fill="#FEDD00"/>
</g>
<defs>
<clipPath id="clip0_2_7179">
<rect width="512" height="512" fill="white"/>
</clipPath>
</defs>
</svg>
