<svg width="512" height="512" viewBox="0 0 512 512" fill="none" xmlns="http://www.w3.org/2000/svg">
<g clip-path="url(#clip0_2_7190)">
<path fill-rule="evenodd" clip-rule="evenodd" d="M0 0H512V512H0V0Z" fill="#00247D"/>
<path d="M396.394 154.93V168.679L423.891 154.93H396.394Z" fill="white"/>
<path d="M401.893 171.428L396.394 160.429L423.891 154.93L401.893 171.428Z" fill="white"/>
<path d="M396.394 154.93V168.679L368.897 154.93H396.394Z" fill="white"/>
<path d="M390.895 171.428L396.394 160.429L368.897 154.93L390.895 171.428Z" fill="white"/>
<path d="M404.239 160.63L391.164 164.879L412.736 186.781L404.239 160.63Z" fill="white"/>
<path d="M390.248 170.958L399.009 162.329L412.736 186.781L390.248 170.958Z" fill="white"/>
<path d="M388.549 160.63L401.624 164.879L397.046 134.479L388.549 160.63Z" fill="white"/>
<path d="M405.939 160.498L393.779 162.329L397.046 134.479L405.939 160.498Z" fill="white"/>
<path d="M388.549 160.63L401.624 164.879L380.052 186.781L388.549 160.63Z" fill="white"/>
<path d="M402.54 170.958L393.779 162.329L380.052 186.781L402.54 170.958Z" fill="white"/>
<path d="M396.394 157.728V166.813L414.564 157.728H396.394Z" fill="#CC142B"/>
<path d="M400.028 168.63L396.394 161.362L414.564 157.728L400.028 168.63Z" fill="#CC142B"/>
<path d="M396.394 157.728V166.813L378.224 157.728H396.394Z" fill="#CC142B"/>
<path d="M392.76 168.63L396.394 161.362L378.224 157.728L392.76 168.63Z" fill="#CC142B"/>
<path d="M401.578 161.495L392.938 164.302L407.193 178.775L401.578 161.495Z" fill="#CC142B"/>
<path d="M392.333 168.32L398.122 162.618L407.193 178.775L392.333 168.32Z" fill="#CC142B"/>
<path d="M391.21 161.495L399.85 164.302L396.825 144.214L391.21 161.495Z" fill="#CC142B"/>
<path d="M402.701 161.408L394.666 162.618L396.825 144.214L402.701 161.408Z" fill="#CC142B"/>
<path d="M391.21 161.495L399.85 164.302L385.595 178.775L391.21 161.495Z" fill="#CC142B"/>
<path d="M400.455 168.32L394.666 162.618L385.595 178.775L400.455 168.32Z" fill="#CC142B"/>
<path d="M468.428 218.416L468.428 230.65L492.897 218.416L468.428 218.416Z" fill="white"/>
<path d="M473.322 233.097L468.428 223.31L492.897 218.416L473.322 233.097Z" fill="white"/>
<path d="M468.428 218.416L468.428 230.65L443.96 218.416L468.428 218.416Z" fill="white"/>
<path d="M463.534 233.097L468.428 223.31L443.96 218.416L463.534 233.097Z" fill="white"/>
<path d="M475.41 223.488L463.774 227.269L482.971 246.759L475.41 223.488Z" fill="white"/>
<path d="M462.959 232.679L470.755 225L482.971 246.759L462.959 232.679Z" fill="white"/>
<path d="M461.447 223.488L473.082 227.269L469.008 200.217L461.447 223.488Z" fill="white"/>
<path d="M476.922 223.371L466.101 225L469.008 200.217L476.922 223.371Z" fill="white"/>
<path d="M461.447 223.488L473.082 227.269L453.886 246.759L461.447 223.488Z" fill="white"/>
<path d="M473.897 232.679L466.101 225L453.886 246.759L473.897 232.679Z" fill="white"/>
<path d="M468.428 221.214L468.428 228.785L483.57 221.214L468.428 221.214Z" fill="#CC142B"/>
<path d="M471.457 230.299L468.428 224.242L483.57 221.214L471.457 230.299Z" fill="#CC142B"/>
<path d="M468.428 221.214L468.428 228.785L453.287 221.214L468.428 221.214Z" fill="#CC142B"/>
<path d="M465.4 230.299L468.428 224.242L453.287 221.214L465.4 230.299Z" fill="#CC142B"/>
<path d="M472.748 224.353L465.548 226.692L477.427 238.753L472.748 224.353Z" fill="#CC142B"/>
<path d="M465.044 230.04L469.868 225.289L477.427 238.753L465.044 230.04Z" fill="#CC142B"/>
<path d="M464.108 224.353L471.308 226.692L468.787 209.952L464.108 224.353Z" fill="#CC142B"/>
<path d="M473.684 224.28L466.988 225.288L468.787 209.952L473.684 224.28Z" fill="#CC142B"/>
<path d="M464.108 224.353L471.308 226.692L459.429 238.753L464.108 224.353Z" fill="#CC142B"/>
<path d="M471.812 230.04L466.988 225.288L459.429 238.753L471.812 230.04Z" fill="#CC142B"/>
<path d="M312.462 239.454L312.462 253.203L339.959 239.454L312.462 239.454Z" fill="white"/>
<path d="M317.961 255.953L312.462 244.954L339.959 239.454L317.961 255.953Z" fill="white"/>
<path d="M312.462 239.454L312.462 253.203L284.965 239.454L312.462 239.454Z" fill="white"/>
<path d="M306.963 255.953L312.462 244.954L284.965 239.454L306.963 255.953Z" fill="white"/>
<path d="M320.307 245.154L307.232 249.403L328.804 271.306L320.307 245.154Z" fill="white"/>
<path d="M306.316 255.483L315.077 246.854L328.804 271.306L306.316 255.483Z" fill="white"/>
<path d="M304.617 245.154L317.692 249.403L313.114 219.003L304.617 245.154Z" fill="white"/>
<path d="M322.007 245.022L309.847 246.854L313.114 219.003L322.007 245.022Z" fill="white"/>
<path d="M304.617 245.154L317.692 249.403L296.12 271.306L304.617 245.154Z" fill="white"/>
<path d="M318.608 255.483L309.847 246.854L296.12 271.306L318.608 255.483Z" fill="white"/>
<path d="M312.462 242.253L312.462 251.337L330.632 242.253L312.462 242.253Z" fill="#CC142B"/>
<path d="M316.096 253.154L312.462 245.887L330.632 242.253L316.096 253.154Z" fill="#CC142B"/>
<path d="M312.462 242.253L312.462 251.337L294.292 242.253L312.462 242.253Z" fill="#CC142B"/>
<path d="M308.828 253.154L312.462 245.887L294.292 242.253L308.828 253.154Z" fill="#CC142B"/>
<path d="M317.646 246.019L309.006 248.826L323.261 263.3L317.646 246.019Z" fill="#CC142B"/>
<path d="M308.401 252.844L314.19 247.142L323.261 263.3L308.401 252.844Z" fill="#CC142B"/>
<path d="M307.278 246.019L315.918 248.826L312.893 228.739L307.278 246.019Z" fill="#CC142B"/>
<path d="M318.769 245.932L310.734 247.142L312.893 228.739L318.769 245.932Z" fill="#CC142B"/>
<path d="M307.278 246.019L315.918 248.826L301.663 263.3L307.278 246.019Z" fill="#CC142B"/>
<path d="M316.523 252.844L310.734 247.142L301.663 263.3L316.523 252.844Z" fill="#CC142B"/>
<path d="M396.394 372.059V387.322L426.919 372.059H396.394Z" fill="white"/>
<path d="M402.499 390.374L396.394 378.164L426.919 372.059L402.499 390.374Z" fill="white"/>
<path d="M396.394 372.059V387.322L365.869 372.059H396.394Z" fill="white"/>
<path d="M390.289 390.374L396.394 378.164L365.869 372.059L390.289 390.374Z" fill="white"/>
<path d="M405.104 378.387L390.588 383.103L414.536 407.418L405.104 378.387Z" fill="white"/>
<path d="M389.571 389.853L399.297 380.274L414.536 407.418L389.571 389.853Z" fill="white"/>
<path d="M387.685 378.387L402.2 383.103L397.117 349.356L387.685 378.387Z" fill="white"/>
<path d="M406.99 378.24L393.491 380.274L397.117 349.356L406.99 378.24Z" fill="white"/>
<path d="M387.685 378.387L402.2 383.103L378.252 407.418L387.685 378.387Z" fill="white"/>
<path d="M403.217 389.853L393.491 380.274L378.252 407.418L403.217 389.853Z" fill="white"/>
<path d="M396.394 374.857V385.456L417.592 374.857H396.394Z" fill="#CC142B"/>
<path d="M400.634 387.576L396.394 379.097L417.592 374.857L400.634 387.576Z" fill="#CC142B"/>
<path d="M396.394 374.857V385.456L375.196 374.857H396.394Z" fill="#CC142B"/>
<path d="M392.154 387.576L396.394 379.097L375.196 374.857L392.154 387.576Z" fill="#CC142B"/>
<path d="M402.442 379.252L392.362 382.527L408.992 399.412L402.442 379.252Z" fill="#CC142B"/>
<path d="M391.656 387.214L398.41 380.562L408.992 399.412L391.656 387.214Z" fill="#CC142B"/>
<path d="M390.346 379.252L400.426 382.527L396.896 359.091L390.346 379.252Z" fill="#CC142B"/>
<path d="M403.752 379.15L394.378 380.562L396.896 359.091L403.752 379.15Z" fill="#CC142B"/>
<path d="M390.346 379.252L400.426 382.527L383.795 399.412L390.346 379.252Z" fill="#CC142B"/>
<path d="M401.132 387.214L394.378 380.562L383.795 399.412L401.132 387.214Z" fill="#CC142B"/>
<path d="M0 0H256V256H0V0Z" fill="#012169"/>
<path d="M256 0V32L161 128L256 221.5V256H222.5L127 162L34 256H0V222L93 128.5L0 37V0H31L127 94L220 0H256Z" fill="white"/>
<path d="M92 162L97.5 179L21 256H0V254.5L92 162ZM154 156L181 160L256 233.5V256L154 156ZM256 0L160 98L158 76L233 0H256ZM0 0.5L96.5 95L67 91L0 24.5V0.5Z" fill="#C8102E"/>
<path d="M88 0V256H168V0H88ZM0 88V168H256V88H0Z" fill="white"/>
<path d="M0 104V152H256V104H0ZM104 0V256H152V0H104Z" fill="#C8102E"/>
</g>
<defs>
<clipPath id="clip0_2_7190">
<rect width="512" height="512" fill="white"/>
</clipPath>
</defs>
</svg>
