<svg width="512" height="512" viewBox="0 0 512 512" fill="none" xmlns="http://www.w3.org/2000/svg">
<g clip-path="url(#clip0_2_7329)">
<mask id="mask0_2_7329" style="mask-type:luminance" maskUnits="userSpaceOnUse" x="0" y="0" width="512" height="512">
<path d="M0 0H512V512H0V0Z" fill="white"/>
</mask>
<g mask="url(#mask0_2_7329)">
<path fill-rule="evenodd" clip-rule="evenodd" d="M-23.2998 -21.6H531.4V531.4H-23.2998V-21.6Z" fill="#EF2D29"/>
<path fill-rule="evenodd" clip-rule="evenodd" d="M164.6 341.3H541V549H164.6V341.3Z" fill="#009025"/>
<path fill-rule="evenodd" clip-rule="evenodd" d="M164.6 -19.4H541V170.6H164.6V-19.4Z" fill="white"/>
<path d="M137.382 76.2997H114.899C113.66 76.2997 112.655 77.2448 112.655 78.4108V89.0185C112.655 90.1845 113.66 91.1296 114.899 91.1296H137.382C138.621 91.1296 139.626 90.1845 139.626 89.0185V78.4108C139.626 77.2448 138.621 76.2997 137.382 76.2997Z" fill="white" stroke="#EF2D28" stroke-width="0.258335"/>
<path d="M136.816 76.9277H115.485C114.31 76.9277 113.357 77.7948 113.357 78.8644V88.5998C113.357 89.6693 114.31 90.5364 115.485 90.5364H136.816C137.99 90.5364 138.943 89.6693 138.943 88.5998V78.8644C138.943 77.7948 137.99 76.9277 136.816 76.9277Z" fill="white" stroke="#EF2D28" stroke-width="0.246034"/>
<path fill-rule="evenodd" clip-rule="evenodd" d="M125.256 80.616L126.546 80.667L126.599 81.2592L127.662 81.8003L128.486 81.1163L129.483 81.6574L128.553 82.2496L128.779 83.0664L129.948 83.0153V84.0874L129.018 84.0465L128.539 84.7204L129.603 85.4861L128.779 86.1191L127.888 85.4453L126.599 85.7107L126.665 86.7011L125.256 86.8032L125.07 85.8435L123.9 85.3534L123.249 86.0273L122.252 85.527L122.837 84.7612L122.133 84.2711H121.136L121.083 82.8724L122.079 82.9643L122.784 82.1475L121.96 81.5144L123.023 80.7997L123.781 81.3817L125.07 81.1979L125.256 80.616Z" fill="white" stroke="#EF2D28" stroke-width="0.155327"/>
<path d="M125.623 84.7734C126.411 84.7734 127.049 84.2304 127.049 83.5605C127.049 82.8906 126.411 82.3475 125.623 82.3475C124.836 82.3475 124.197 82.8906 124.197 83.5605C124.197 84.2304 124.836 84.7734 125.623 84.7734Z" fill="white" stroke="#EF2D28" stroke-width="0.167268"/>
<path fill-rule="evenodd" clip-rule="evenodd" d="M116.812 77.5385L114.724 79.3878ZM118.197 77.5385L116.109 79.3878ZM119.564 77.5385L117.495 79.3878ZM120.949 77.5385L118.881 79.3878ZM122.335 77.5385L120.266 79.3878ZM123.72 77.5385L121.652 79.3878ZM125.106 77.5385L123.037 79.3878ZM126.492 77.5385L124.423 79.3878ZM127.877 77.5385L125.789 79.3878ZM129.263 77.5385L127.155 79.3878ZM130.61 77.5385L128.541 79.3878ZM131.995 77.5385L129.927 79.3878ZM126.472 77.5385L124.423 79.3878ZM133.4 77.5385L131.332 79.3878ZM134.786 77.5385L132.717 79.3878ZM136.172 77.5385L134.103 79.3878ZM137.557 77.5385L135.489 79.3878ZM135.489 77.5385L137.557 79.3878ZM134.103 77.5385L136.172 79.3878ZM132.717 77.5385L134.786 79.3878ZM131.332 77.5385L133.4 79.3878ZM129.946 77.5385L132.015 79.3878ZM128.56 77.5385L130.629 79.3878ZM127.175 77.5385L129.263 79.3878ZM125.789 77.5385L127.858 79.3878ZM124.384 77.5385L126.472 79.3878ZM123.018 77.5385L125.087 79.3878ZM121.632 77.5385L123.701 79.3878ZM120.247 77.5385L122.315 79.3878ZM125.789 77.5385L127.858 79.3878ZM118.881 77.5385L120.93 79.3878ZM117.475 77.5385L119.564 79.3878ZM116.09 77.5385L118.178 79.3878ZM114.704 77.5385L116.812 79.3878ZM116.812 88.0415L114.743 89.9084ZM118.178 88.0415L116.09 89.9084ZM119.583 88.0415L117.495 89.9084ZM120.949 88.0415L118.881 89.9084ZM122.335 88.0415L120.266 89.9084ZM123.72 88.0415L121.652 89.9084ZM125.106 88.0415L123.057 89.9084ZM126.492 88.0415L124.423 89.9084ZM127.877 88.0415L125.789 89.9084ZM129.244 88.0415L127.155 89.9084ZM130.668 88.0415L128.58 89.9084ZM132.034 88.0415L129.966 89.9084ZM126.492 88.0415L124.423 89.9084ZM133.4 88.0415L131.332 89.9084ZM134.786 88.0415L132.717 89.9084ZM136.172 88.0415L134.103 89.9084ZM137.557 88.0415L135.489 89.9084ZM135.489 88.0415L137.557 89.9084ZM134.103 88.0415L136.172 89.9084ZM132.717 88.0415L134.786 89.9084ZM131.332 88.0415L133.4 89.9084ZM129.946 88.0415L132.015 89.9084ZM128.56 88.0415L130.649 89.9084ZM127.155 88.0415L129.244 89.9084ZM125.789 88.0415L127.858 89.9084ZM124.423 88.0415L126.492 89.9084ZM123.037 88.0415L125.106 89.9084ZM121.652 88.0415L123.72 89.9084ZM120.266 88.0415L122.335 89.9084ZM125.809 88.0415L127.877 89.9084ZM118.9 88.0415L120.949 89.9084ZM117.495 88.0415L119.583 89.9084ZM116.109 88.0415L118.197 89.9084ZM114.743 88.0415L116.812 89.9084Z" fill="white"/>
<path d="M116.812 77.5385L114.724 79.3878M118.197 77.5385L116.109 79.3878M119.564 77.5385L117.495 79.3878M120.949 77.5385L118.881 79.3878M122.335 77.5385L120.266 79.3878M123.72 77.5385L121.652 79.3878M125.106 77.5385L123.037 79.3878M126.492 77.5385L124.423 79.3878L126.472 77.5385M127.877 77.5385L125.789 79.3878M129.263 77.5385L127.155 79.3878M130.61 77.5385L128.541 79.3878M131.995 77.5385L129.927 79.3878M133.4 77.5385L131.332 79.3878M134.786 77.5385L132.717 79.3878M136.172 77.5385L134.103 79.3878M137.557 77.5385L135.489 79.3878M135.489 77.5385L137.557 79.3878M134.103 77.5385L136.172 79.3878M132.717 77.5385L134.786 79.3878M131.332 77.5385L133.4 79.3878M129.946 77.5385L132.015 79.3878M128.56 77.5385L130.629 79.3878M127.175 77.5385L129.263 79.3878M125.789 77.5385L127.858 79.3878M124.384 77.5385L126.472 79.3878M123.018 77.5385L125.087 79.3878M121.632 77.5385L123.701 79.3878M120.247 77.5385L122.315 79.3878M118.881 77.5385L120.93 79.3878M117.475 77.5385L119.564 79.3878M116.09 77.5385L118.178 79.3878M114.704 77.5385L116.812 79.3878M116.812 88.0415L114.743 89.9084M118.178 88.0415L116.09 89.9084M119.583 88.0415L117.495 89.9084M120.949 88.0415L118.881 89.9084M122.335 88.0415L120.266 89.9084M123.72 88.0415L121.652 89.9084M125.106 88.0415L123.057 89.9084M126.492 88.0415L124.423 89.9084M127.877 88.0415L125.789 89.9084M129.244 88.0415L127.155 89.9084M130.668 88.0415L128.58 89.9084M132.034 88.0415L129.966 89.9084M133.4 88.0415L131.332 89.9084M134.786 88.0415L132.717 89.9084M136.172 88.0415L134.103 89.9084M137.557 88.0415L135.489 89.9084M135.489 88.0415L137.557 89.9084M134.103 88.0415L136.172 89.9084M132.717 88.0415L134.786 89.9084M131.332 88.0415L133.4 89.9084M129.946 88.0415L132.015 89.9084M128.56 88.0415L130.649 89.9084M127.155 88.0415L129.244 89.9084M125.789 88.0415L127.858 89.9084M124.423 88.0415L126.492 89.9084M123.037 88.0415L125.106 89.9084M121.652 88.0415L123.72 89.9084M120.266 88.0415L122.335 89.9084M125.809 88.0415L127.877 89.9084M118.9 88.0415L120.949 89.9084M117.495 88.0415L119.583 89.9084M116.109 88.0415L118.197 89.9084M114.743 88.0415L116.812 89.9084" stroke="#EF2D28" stroke-width="0.246034"/>
<path d="M46.7815 75.5996H24.299C23.0595 75.5996 22.0547 76.5448 22.0547 77.7107V88.3185C22.0547 89.4844 23.0595 90.4296 24.299 90.4296H46.7815C48.021 90.4296 49.0258 89.4844 49.0258 88.3185V77.7107C49.0258 76.5448 48.021 75.5996 46.7815 75.5996Z" fill="white" stroke="#EF2D28" stroke-width="0.258335"/>
<path d="M46.2156 76.2277H24.8846C23.7097 76.2277 22.7573 77.0947 22.7573 78.1643V87.8997C22.7573 88.9693 23.7097 89.8363 24.8846 89.8363H46.2156C47.3904 89.8363 48.3428 88.9693 48.3428 87.8997V78.1643C48.3428 77.0947 47.3904 76.2277 46.2156 76.2277Z" fill="white" stroke="#EF2D28" stroke-width="0.246034"/>
<path fill-rule="evenodd" clip-rule="evenodd" d="M34.6561 79.9159L35.9454 79.9669L35.9986 80.5591L37.0619 81.1003L37.886 80.4162L38.8829 80.9573L37.9525 81.5495L38.1785 82.3663L39.3482 82.3152V83.3873L38.4177 83.3464L37.9392 84.0203L39.0026 84.7861L38.1785 85.4191L37.2879 84.7452L35.9986 85.0107L36.065 86.001L34.6561 86.1031L34.47 85.1434L33.3003 84.6533L32.649 85.3272L31.6521 84.8269L32.237 84.0611L31.5325 83.5711H30.5356L30.4824 82.1723L31.4793 82.2642L32.1838 81.4474L31.3597 80.8144L32.423 80.0997L33.1807 80.6816L34.47 80.4979L34.6561 79.9159Z" fill="white" stroke="#EF2D28" stroke-width="0.155327"/>
<path d="M35.023 84.0734C35.8104 84.0734 36.4488 83.5303 36.4488 82.8604C36.4488 82.1905 35.8104 81.6475 35.023 81.6475C34.2355 81.6475 33.5972 82.1905 33.5972 82.8604C33.5972 83.5303 34.2355 84.0734 35.023 84.0734Z" fill="white" stroke="#EF2D28" stroke-width="0.167268"/>
<path fill-rule="evenodd" clip-rule="evenodd" d="M26.2117 76.8384L24.1235 78.6878ZM27.5974 76.8384L25.5092 78.6878ZM28.9635 76.8384L26.8948 78.6878ZM30.3491 76.8384L28.2804 78.6878ZM31.7348 76.8384L29.6661 78.6878ZM33.1204 76.8384L31.0517 78.6878ZM34.506 76.8384L32.4373 78.6878ZM35.8917 76.8384L33.823 78.6878ZM37.2773 76.8384L35.1891 78.6878ZM38.6629 76.8384L36.5552 78.6878ZM40.0095 76.8384L37.9408 78.6878ZM41.3952 76.8384L39.3265 78.6878ZM35.8722 76.8384L33.823 78.6878ZM42.8003 76.8384L40.7316 78.6878ZM44.186 76.8384L42.1173 78.6878ZM45.5716 76.8384L43.5029 78.6878ZM46.9572 76.8384L44.8885 78.6878ZM44.8885 76.8384L46.9572 78.6878ZM43.5029 76.8384L45.5716 78.6878ZM42.1173 76.8384L44.186 78.6878ZM40.7316 76.8384L42.8003 78.6878ZM39.346 76.8384L41.4147 78.6878ZM37.9604 76.8384L40.0291 78.6878ZM36.5747 76.8384L38.6629 78.6878ZM35.1891 76.8384L37.2578 78.6878ZM33.7839 76.8384L35.8722 78.6878ZM32.4178 76.8384L34.4865 78.6878ZM31.0322 76.8384L33.1009 78.6878ZM29.6465 76.8384L31.7152 78.6878ZM35.1891 76.8384L37.2578 78.6878ZM28.2804 76.8384L30.3296 78.6878ZM26.8753 76.8384L28.9635 78.6878ZM25.4896 76.8384L27.5779 78.6878ZM24.104 76.8384L26.2117 78.6878ZM26.2117 87.3415L24.143 89.2083ZM27.5779 87.3415L25.4896 89.2083ZM28.983 87.3415L26.8948 89.2083ZM30.3491 87.3415L28.2804 89.2083ZM31.7348 87.3415L29.6661 89.2083ZM33.1204 87.3415L31.0517 89.2083ZM34.506 87.3415L32.4569 89.2083ZM35.8917 87.3415L33.823 89.2083ZM37.2773 87.3415L35.1891 89.2083ZM38.6434 87.3415L36.5552 89.2083ZM40.0681 87.3415L37.9799 89.2083ZM41.4342 87.3415L39.3655 89.2083ZM35.8917 87.3415L33.823 89.2083ZM42.8003 87.3415L40.7316 89.2083ZM44.186 87.3415L42.1173 89.2083ZM45.5716 87.3415L43.5029 89.2083ZM46.9572 87.3415L44.8885 89.2083ZM44.8885 87.3415L46.9572 89.2083ZM43.5029 87.3415L45.5716 89.2083ZM42.1173 87.3415L44.186 89.2083ZM40.7316 87.3415L42.8003 89.2083ZM39.346 87.3415L41.4147 89.2083ZM37.9604 87.3415L40.0486 89.2083ZM36.5552 87.3415L38.6434 89.2083ZM35.1891 87.3415L37.2578 89.2083ZM33.823 87.3415L35.8917 89.2083ZM32.4373 87.3415L34.506 89.2083ZM31.0517 87.3415L33.1204 89.2083ZM29.6661 87.3415L31.7348 89.2083ZM35.2086 87.3415L37.2773 89.2083ZM28.2999 87.3415L30.3491 89.2083ZM26.8948 87.3415L28.983 89.2083ZM25.5092 87.3415L27.5974 89.2083ZM24.143 87.3415L26.2117 89.2083Z" fill="white"/>
<path d="M26.2117 76.8384L24.1235 78.6878M27.5974 76.8384L25.5092 78.6878M28.9635 76.8384L26.8948 78.6878M30.3491 76.8384L28.2804 78.6878M31.7348 76.8384L29.6661 78.6878M33.1204 76.8384L31.0517 78.6878M34.506 76.8384L32.4373 78.6878M35.8917 76.8384L33.823 78.6878L35.8722 76.8384M37.2773 76.8384L35.1891 78.6878M38.6629 76.8384L36.5552 78.6878M40.0095 76.8384L37.9408 78.6878M41.3952 76.8384L39.3265 78.6878M42.8003 76.8384L40.7316 78.6878M44.186 76.8384L42.1173 78.6878M45.5716 76.8384L43.5029 78.6878M46.9572 76.8384L44.8885 78.6878M44.8885 76.8384L46.9572 78.6878M43.5029 76.8384L45.5716 78.6878M42.1173 76.8384L44.186 78.6878M40.7316 76.8384L42.8003 78.6878M39.346 76.8384L41.4147 78.6878M37.9604 76.8384L40.0291 78.6878M36.5747 76.8384L38.6629 78.6878M35.1891 76.8384L37.2578 78.6878M33.7839 76.8384L35.8722 78.6878M32.4178 76.8384L34.4865 78.6878M31.0322 76.8384L33.1009 78.6878M29.6465 76.8384L31.7152 78.6878M28.2804 76.8384L30.3296 78.6878M26.8753 76.8384L28.9635 78.6878M25.4896 76.8384L27.5779 78.6878M24.104 76.8384L26.2117 78.6878M26.2117 87.3415L24.143 89.2083M27.5779 87.3415L25.4896 89.2083M28.983 87.3415L26.8948 89.2083M30.3491 87.3415L28.2804 89.2083M31.7348 87.3415L29.6661 89.2083M33.1204 87.3415L31.0517 89.2083M34.506 87.3415L32.4569 89.2083M35.8917 87.3415L33.823 89.2083M37.2773 87.3415L35.1891 89.2083M38.6434 87.3415L36.5552 89.2083M40.0681 87.3415L37.9799 89.2083M41.4342 87.3415L39.3655 89.2083M42.8003 87.3415L40.7316 89.2083M44.186 87.3415L42.1173 89.2083M45.5716 87.3415L43.5029 89.2083M46.9572 87.3415L44.8885 89.2083M44.8885 87.3415L46.9572 89.2083M43.5029 87.3415L45.5716 89.2083M42.1173 87.3415L44.186 89.2083M40.7316 87.3415L42.8003 89.2083M39.346 87.3415L41.4147 89.2083M37.9604 87.3415L40.0486 89.2083M36.5552 87.3415L38.6434 89.2083M35.1891 87.3415L37.2578 89.2083M33.823 87.3415L35.8917 89.2083M32.4373 87.3415L34.506 89.2083M31.0517 87.3415L33.1204 89.2083M29.6661 87.3415L31.7348 89.2083M35.2086 87.3415L37.2773 89.2083M28.2999 87.3415L30.3491 89.2083M26.8948 87.3415L28.983 89.2083M25.5092 87.3415L27.5974 89.2083M24.143 87.3415L26.2117 89.2083" stroke="#EF2D28" stroke-width="0.246034"/>
<path fill-rule="evenodd" clip-rule="evenodd" d="M64.4701 106.704C30.9128 139.617 16.5974 143.775 23.3277 146.431C30.0581 149.088 51.6617 132.097 74.1376 109.55C96.6135 87.0028 110.381 66.9195 103.65 64.263C96.92 61.6065 100.172 71.7282 64.4701 106.704Z" fill="white" stroke="#EF2D28" stroke-width="0.411759"/>
<path fill-rule="evenodd" clip-rule="evenodd" d="M36.1015 130.699L47.8696 133.787C36.8041 144.308 24.3529 148.617 20.8985 146.768C17.4442 144.919 27.1241 140.592 36.121 130.717L36.1015 130.699Z" fill="white" stroke="#EF2D28" stroke-width="0.239883"/>
<path fill-rule="evenodd" clip-rule="evenodd" d="M36.1584 131.91L45.8535 134.376C35.0748 144.492 24.4102 147.361 21.6538 146.12C18.8783 144.895 27.4138 141.422 36.1584 131.91Z" fill="white" stroke="#EF2D28" stroke-width="0.232155"/>
<path d="M72.2705 105.31C72.243 105.469 72.1606 106.177 72.0918 106.458C72.0918 106.848 72.0506 107.141 72.0094 107.446C71.8994 107.715 71.9132 107.959 71.5833 108.057C71.431 108.301 71.1881 108.491 70.8961 108.594C70.632 108.782 70.3408 108.938 70.0302 109.058C69.7053 109.183 69.3427 109.209 68.9994 109.131C68.6971 108.948 68.4772 108.753 68.2298 108.594C68.1748 108.35 68.1198 107.996 68.0511 107.752C68.1584 108.077 68.2185 108.413 68.2298 108.753C68.2023 109.119 68.0511 109.29 67.8862 109.583" stroke="#EF2D28" stroke-width="0.233139"/>
<path d="M69.081 110.408L68.9986 110.335C69.2047 110.518 69.1223 110.433 68.655 110.176C68.3251 110.03 67.9678 109.957 67.5417 109.883H66.3322C65.8649 109.883 65.5488 109.944 65.219 110.03C64.9716 110.25 64.6142 110.372 64.3531 110.567C64.121 110.723 63.9444 110.935 63.8446 111.177C63.6109 111.385 63.4597 111.702 63.2398 111.861C63.1436 112.215 62.9512 112.203 62.8138 112.471C63.2261 112.496 63.5422 112.544 63.7621 112.776C64.1194 112.935 63.4597 112.618 63.3223 112.471C63.0474 112.398 62.9787 112.325 62.5526 112.325C62.1678 112.203 61.9204 112.41 61.5218 112.471C61.2882 112.593 61.2195 112.63 60.9171 112.63" stroke="#EF2D28" stroke-width="0.233139"/>
<path d="M64.4878 114.281C64.3091 114.281 63.512 114.416 63.1959 114.281C62.8385 114.196 62.6461 114.037 62.4262 113.744C62.3162 113.537 62.4262 114.11 62.4262 114.355C62.385 114.806 62.2338 114.806 61.9864 115.111C61.739 115.258 61.4779 115.453 61.2167 115.575C60.9877 115.741 60.727 115.869 60.4471 115.954C60.1722 116.076 59.8836 116.173 59.6774 116.332C59.3888 116.515 59.4025 116.735 59.2376 117.028C59.2788 117.394 59.3475 117.614 59.5812 117.784C59.6911 118.041 59.911 118.297 60.1035 118.468C60.3096 118.834 60.557 118.993 60.021 119.078C59.7186 119.2 59.5537 119.103 59.2376 119.078" stroke="#EF2D28" stroke-width="0.233139"/>
<path d="M58.9468 119.594C58.7269 119.545 57.9847 119.325 57.6548 119.215H56.4454C55.9918 119.252 55.8956 119.374 55.5108 119.52C55.2496 119.752 55.0847 119.911 54.7274 120.058C54.5487 120.265 54.1776 120.631 54.0402 120.9C53.927 121.215 53.8714 121.545 53.8752 121.876C53.8752 122.328 54.0127 122.413 54.0402 122.804C54.1364 123.139 54.3147 123.452 54.5624 123.719C54.6037 123.817 54.6312 123.841 54.7274 123.866" stroke="#EF2D28" stroke-width="0.233139"/>
<path d="M54.8926 124.814C54.8535 124.814 54.7755 125.007 54.6486 125.171C54.3656 125.46 54.3364 125.479 53.9168 125.479C53.5265 125.46 53.5752 125.325 53.302 125.238C53.1752 125.046 53.019 124.891 52.8727 124.631C52.7751 124.477 52.6873 124.236 52.5799 124.092C52.4628 123.909 52.3262 123.774 52.2091 123.61C52.092 123.562 52.053 123.514 51.8969 123.485C52.2482 123.543 52.2872 123.668 52.5116 123.851C52.6223 124.025 52.7233 124.205 52.8141 124.39C52.8532 124.651 52.9312 124.853 52.941 125.171C52.941 125.508 52.941 125.739 52.8141 126.019C52.6677 126.163 52.5702 126.317 52.3848 126.443C52.2305 126.591 52.0901 126.752 51.9652 126.924L51.409 127.281C51.2333 127.387 51.0284 127.493 50.7454 127.522C50.3844 127.493 50.277 127.397 50.0136 127.281C49.7794 127.117 49.6037 127.011 49.3988 126.857C49.2307 126.72 49.0857 126.557 48.9695 126.375C48.6475 126.298 48.4328 126.327 48.2376 126.5C48.0721 126.615 47.9297 126.758 47.818 126.924C47.7204 126.973 47.5448 127.117 47.4472 127.165" stroke="#EF2D28" stroke-width="0.232711"/>
<path d="M48.1795 127.333C48.2766 127.369 48.6405 127.621 48.7861 127.705C48.8832 128.03 49.0409 128.198 49.0894 128.547C49.1743 128.86 49.1743 129.22 49.1743 129.593C49.0894 129.978 48.9317 130.254 48.7861 130.555C48.5435 130.723 48.4221 130.844 48.1067 131.012C47.8034 131.06 47.5001 131.096 47.124 131.096C46.8814 131.168 46.4446 131.204 46.2141 131.096C45.8744 131.048 45.6196 130.916 45.377 130.796C45.098 130.639 44.9281 130.483 44.6248 130.339C44.4671 130.122 44.2366 129.918 44.0182 129.665C43.8241 129.413 43.6907 129.269 43.5572 128.992C43.6785 129.305 43.8362 129.593 43.9333 129.894C44.1153 130.206 44.2123 130.327 44.2366 130.711C44.3579 131.024 44.3215 131.409 44.3215 131.77C44.2851 132.01 44.273 132.467 44.1638 132.671V132.9" stroke="#EF2D28" stroke-width="0.22948"/>
<path d="M36.9603 134.136V134.259C36.9603 133.962 36.9603 134.102 37.0969 134.695C37.3115 134.939 37.8775 135.009 38.3069 134.904C38.6972 134.608 38.6972 134.381 39.3998 134.259C40.1023 134.294 40.3756 134.468 40.7659 134.695C41.1809 134.833 41.527 135.099 41.7417 135.445C41.8783 135.811 41.9564 136.073 41.488 136.213C41.08 136.457 40.6106 136.607 40.1218 136.649C39.5754 136.649 39.1656 136.597 38.9119 136.876C38.5215 137.225 38.5606 137.434 38.5606 138.062C38.424 138.254 38.4044 138.83 38.3069 139.057C37.9709 139.215 37.5928 139.287 37.214 139.266C37.0773 138.917 36.9407 138.324 36.8432 137.957C36.7456 137.574 36.7261 137.015 36.4724 136.754C36.2486 136.453 35.964 136.193 35.6332 135.986C35.4358 135.786 35.1784 135.64 34.8916 135.567C35.3795 135.777 35.438 136.021 35.4966 136.544C35.0867 136.719 34.9696 136.858 34.2866 136.876C33.6035 136.823 33.4474 136.666 33.1937 136.317C33.1351 136.876 32.94 137.05 32.8033 137.539C32.5692 137.853 32.4716 138.184 32.2179 138.62C32.3154 139.144 32.5496 139.161 32.5692 139.807C32.7253 140.243 32.7253 140.644 33.0571 140.906C33.2132 141.08 33.3303 141.098 33.6816 141.115C32.979 141.115 32.5496 141.046 32.0813 140.801C31.73 140.592 31.4567 140.348 31.1055 140.138C30.6652 139.842 30.1696 139.617 29.6418 139.475C29.0758 139.475 28.666 139.423 28.4318 139.702C28.0805 139.929 27.8463 140.313 27.6902 140.801C27.5926 141.36 27.534 141.743 27.8268 142.11C28.0219 142.528 28.0805 142.686 27.8268 143.191C27.534 143.54 27.1242 143.593 26.4606 143.732C26.0118 143.715 25.5629 143.628 25.2507 143.523" stroke="#EF2D28" stroke-width="0.239883"/>
<path fill-rule="evenodd" clip-rule="evenodd" d="M102.637 77.0759C117.519 51.3158 127.389 29.3648 124.698 28.1223C121.979 26.8669 107.698 46.781 92.8152 72.5411L102.637 77.0759Z" fill="white" stroke="#EF2D28" stroke-width="0.312784"/>
<path fill-rule="evenodd" clip-rule="evenodd" d="M101.654 76.6404C116.011 51.7894 125.899 30.7818 123.746 29.7878C121.571 28.7834 108.154 48.1615 93.7966 73.0125" fill="white"/>
<path d="M101.654 76.6404C116.011 51.7894 125.899 30.7818 123.746 29.7878C121.571 28.7834 108.154 48.1615 93.7966 73.0125" stroke="#EF2D28" stroke-width="0.274784"/>
<path fill-rule="evenodd" clip-rule="evenodd" d="M99.1878 63.6763C97.4397 66.5805 95.5877 69.9079 93.7965 73.0082L101.676 76.6463C103.467 73.546 105.43 70.2698 107.067 67.3144L99.1878 63.6763Z" fill="white" stroke="#EF2D28" stroke-width="0.311862"/>
<path fill-rule="evenodd" clip-rule="evenodd" d="M99.8729 64.6801C98.1158 67.5998 96.9086 69.8111 95.1085 72.9269L100.99 75.6426C102.781 72.5423 104.117 70.3512 105.755 67.3958L99.8729 64.6801Z" fill="white" stroke="#EF2D28" stroke-width="0.311862"/>
<path fill-rule="evenodd" clip-rule="evenodd" d="M104.148 68.048L100.208 66.229L96.7155 72.2746L100.655 74.0936L104.148 68.048ZM104.148 68.048L96.7155 72.2746ZM100.655 74.0936L100.208 66.229ZM121.916 37.2931L117.976 35.4741Z" fill="white"/>
<path d="M104.148 68.048L100.208 66.229M104.148 68.048L100.655 74.0936M104.148 68.048L96.7155 72.2746M100.208 66.229L96.7155 72.2746M100.208 66.229L100.655 74.0936M96.7155 72.2746L100.655 74.0936M121.916 37.2931L117.976 35.4741" stroke="#EF2D28" stroke-width="0.311862"/>
<path d="M121.892 34.4329C121.287 34.5859 120.686 34.2784 120.549 33.746C120.412 33.2136 120.792 32.6579 121.398 32.5049C122.003 32.3518 122.604 32.6594 122.741 33.1918C122.878 33.7242 122.498 34.2799 121.892 34.4329Z" fill="#EF0000" stroke="#EF2D28" stroke-width="0.404089"/>
<path fill-rule="evenodd" clip-rule="evenodd" d="M96.8307 106.104C130.388 139.017 144.703 143.175 137.973 145.831C131.243 148.488 109.639 131.497 87.1632 108.95C64.6873 86.4028 50.92 66.3196 57.6504 63.663C64.3808 61.0065 61.1291 71.1282 96.8307 106.104Z" fill="white" stroke="#EF2D28" stroke-width="0.411759"/>
<path fill-rule="evenodd" clip-rule="evenodd" d="M125.099 129.999L113.331 133.088C124.397 143.608 136.848 147.917 140.302 146.068C143.756 144.219 134.077 139.892 125.08 130.017L125.099 129.999Z" fill="white" stroke="#EF2D28" stroke-width="0.239883"/>
<path fill-rule="evenodd" clip-rule="evenodd" d="M125.042 131.31L115.347 133.776C126.126 143.892 136.79 146.761 139.547 145.52C142.322 144.295 133.787 140.822 125.042 131.31Z" fill="white" stroke="#EF2D28" stroke-width="0.232155"/>
<path d="M89.0303 104.71C89.0578 104.869 89.1402 105.577 89.2089 105.858C89.2089 106.248 89.2502 106.541 89.2914 106.846C89.4014 107.115 89.3876 107.359 89.7175 107.457C89.8698 107.701 90.1126 107.891 90.4047 107.994C90.6688 108.182 90.96 108.338 91.2705 108.458C91.5954 108.583 91.9581 108.609 92.3013 108.531C92.6037 108.348 92.8236 108.153 93.071 107.994C93.126 107.75 93.181 107.396 93.2497 107.152C93.1423 107.477 93.0823 107.814 93.071 108.153C93.0985 108.519 93.2497 108.69 93.4146 108.983" stroke="#EF2D28" stroke-width="0.233139"/>
<path d="M92.2197 109.808L92.3022 109.735C92.0961 109.918 92.1785 109.833 92.6458 109.576C92.9757 109.43 93.333 109.357 93.7591 109.283H94.9685C95.4358 109.283 95.752 109.344 96.0818 109.43C96.3292 109.65 96.6865 109.772 96.9477 109.967C97.1798 110.123 97.3563 110.335 97.4562 110.577C97.6899 110.785 97.841 111.102 98.0609 111.261C98.1572 111.615 98.3496 111.603 98.487 111.871C98.0747 111.896 97.7586 111.944 97.5387 112.176C97.1813 112.335 97.841 112.018 97.9785 111.871C98.2534 111.798 98.3221 111.725 98.7481 111.725C99.133 111.603 99.3804 111.81 99.7789 111.871C100.013 111.993 100.081 112.03 100.384 112.03" stroke="#EF2D28" stroke-width="0.233139"/>
<path d="M96.813 113.581C96.9917 113.581 97.7888 113.716 98.1049 113.581C98.4623 113.496 98.6547 113.337 98.8746 113.044C98.9845 112.837 98.8746 113.41 98.8746 113.655C98.9158 114.106 99.067 114.106 99.3144 114.411C99.5618 114.558 99.8229 114.753 100.084 114.875C100.313 115.041 100.574 115.169 100.854 115.254C101.129 115.376 101.417 115.473 101.623 115.632C101.912 115.815 101.898 116.035 102.063 116.328C102.022 116.694 101.953 116.914 101.72 117.084C101.61 117.341 101.39 117.597 101.197 117.768C100.991 118.134 100.744 118.293 101.28 118.378C101.582 118.5 101.747 118.403 102.063 118.378" stroke="#EF2D28" stroke-width="0.233139"/>
<path d="M102.254 118.994C102.474 118.945 103.216 118.725 103.546 118.615H104.755C105.209 118.652 105.305 118.774 105.69 118.921C105.951 119.152 106.116 119.311 106.473 119.458C106.652 119.665 107.023 120.031 107.161 120.3C107.274 120.615 107.329 120.945 107.325 121.276C107.325 121.728 107.188 121.813 107.161 122.204C107.064 122.539 106.886 122.852 106.638 123.119C106.597 123.217 106.57 123.241 106.473 123.266" stroke="#EF2D28" stroke-width="0.233139"/>
<path d="M106.308 124.214C106.347 124.214 106.425 124.407 106.552 124.571C106.835 124.86 106.864 124.879 107.284 124.879C107.674 124.86 107.625 124.725 107.899 124.638C108.026 124.446 108.182 124.291 108.328 124.031C108.426 123.877 108.513 123.636 108.621 123.492C108.738 123.309 108.874 123.174 108.992 123.01C109.109 122.962 109.148 122.914 109.304 122.885C108.953 122.942 108.913 123.068 108.689 123.251C108.578 123.425 108.477 123.605 108.387 123.79C108.348 124.05 108.269 124.253 108.26 124.571C108.26 124.908 108.26 125.139 108.387 125.419C108.533 125.563 108.631 125.717 108.816 125.843C108.97 125.99 109.111 126.152 109.236 126.324L109.792 126.681C109.967 126.787 110.172 126.893 110.455 126.922C110.816 126.893 110.924 126.796 111.187 126.681C111.421 126.517 111.597 126.411 111.802 126.257C111.97 126.12 112.115 125.957 112.231 125.775C112.553 125.698 112.768 125.727 112.963 125.9C113.129 126.014 113.271 126.158 113.383 126.324C113.48 126.373 113.656 126.517 113.753 126.565" stroke="#EF2D28" stroke-width="0.232711"/>
<path d="M113.121 126.733C113.024 126.769 112.66 127.021 112.515 127.105C112.418 127.43 112.26 127.598 112.211 127.947C112.126 128.26 112.126 128.62 112.126 128.993C112.211 129.378 112.369 129.655 112.515 129.955C112.757 130.123 112.879 130.244 113.194 130.412C113.497 130.46 113.801 130.496 114.177 130.496C114.419 130.568 114.856 130.604 115.087 130.496C115.426 130.448 115.681 130.316 115.924 130.196C116.203 130.039 116.373 129.883 116.676 129.739C116.834 129.522 117.064 129.318 117.283 129.065C117.477 128.813 117.61 128.669 117.744 128.392C117.622 128.705 117.465 128.993 117.367 129.294C117.186 129.606 117.088 129.727 117.064 130.111C116.943 130.424 116.979 130.809 116.979 131.17C117.016 131.41 117.028 131.867 117.137 132.071V132.3" stroke="#EF2D28" stroke-width="0.22948"/>
<path d="M124.24 133.436V133.559C124.24 133.262 124.24 133.402 124.104 133.995C123.889 134.239 123.323 134.309 122.894 134.204C122.504 133.907 122.504 133.681 121.801 133.559C121.098 133.593 120.825 133.768 120.435 133.995C120.02 134.133 119.674 134.399 119.459 134.745C119.322 135.111 119.244 135.373 119.713 135.513C120.121 135.757 120.59 135.907 121.079 135.949C121.625 135.949 122.035 135.896 122.289 136.176C122.679 136.525 122.64 136.734 122.64 137.362C122.777 137.554 122.796 138.13 122.894 138.356C123.23 138.515 123.608 138.587 123.987 138.566C124.123 138.217 124.26 137.624 124.358 137.257C124.455 136.873 124.475 136.315 124.728 136.053C124.952 135.753 125.237 135.493 125.568 135.286C125.765 135.086 126.022 134.94 126.309 134.867C125.821 135.076 125.763 135.321 125.704 135.844C126.114 136.019 126.231 136.158 126.914 136.176C127.597 136.123 127.753 135.966 128.007 135.617C128.066 136.176 128.261 136.35 128.397 136.839C128.632 137.153 128.729 137.484 128.983 137.92C128.885 138.444 128.651 138.461 128.632 139.107C128.475 139.543 128.475 139.944 128.144 140.206C127.988 140.38 127.87 140.398 127.519 140.415C128.222 140.415 128.651 140.345 129.119 140.101C129.471 139.892 129.744 139.648 130.095 139.438C130.535 139.142 131.031 138.917 131.559 138.775C132.125 138.775 132.535 138.723 132.769 139.002C133.12 139.229 133.354 139.613 133.511 140.101C133.608 140.659 133.667 141.043 133.374 141.41C133.179 141.828 133.12 141.985 133.374 142.491C133.667 142.84 134.076 142.893 134.74 143.032C135.189 143.015 135.638 142.928 135.95 142.823" stroke="#EF2D28" stroke-width="0.239883"/>
<path fill-rule="evenodd" clip-rule="evenodd" d="M58.5646 76.3759C43.6821 50.6158 33.8118 28.6649 36.503 27.4223C39.2219 26.1669 53.5034 46.0811 68.3859 71.8411L58.5646 76.3759Z" fill="white" stroke="#EF2D28" stroke-width="0.312784"/>
<path fill-rule="evenodd" clip-rule="evenodd" d="M59.5473 75.9404C45.19 51.0894 35.3025 30.0819 37.4555 29.0878C39.6306 28.0835 53.0472 47.4615 67.4045 72.3125" fill="white"/>
<path d="M59.5473 75.9404C45.19 51.0894 35.3025 30.0819 37.4555 29.0878C39.6306 28.0835 53.0472 47.4615 67.4045 72.3125" stroke="#EF2D28" stroke-width="0.274784"/>
<path fill-rule="evenodd" clip-rule="evenodd" d="M62.0133 62.9764C63.7614 65.8806 65.6135 69.208 67.4047 72.3083L59.5254 75.9464C57.7342 72.8461 55.7712 69.5699 54.134 66.6145L62.0133 62.9764Z" fill="white" stroke="#EF2D28" stroke-width="0.311862"/>
<path fill-rule="evenodd" clip-rule="evenodd" d="M61.3283 63.9801C63.0853 66.8998 64.2926 69.1111 66.0927 72.2269L60.211 74.9427C58.4198 71.8424 57.0837 69.6513 55.4465 66.6959L61.3283 63.9801Z" fill="white" stroke="#EF2D28" stroke-width="0.311862"/>
<path fill-rule="evenodd" clip-rule="evenodd" d="M57.0533 67.3481L60.9929 65.529L64.4856 71.5746L60.546 73.3937L57.0533 67.3481ZM57.0533 67.3481L64.4856 71.5746ZM60.546 73.3937L60.9929 65.529ZM39.2852 36.5931L43.2248 34.7741Z" fill="white"/>
<path d="M57.0533 67.3481L60.9929 65.529M57.0533 67.3481L60.546 73.3937M57.0533 67.3481L64.4856 71.5746M60.9929 65.529L64.4856 71.5746M60.9929 65.529L60.546 73.3937M64.4856 71.5746L60.546 73.3937M39.2852 36.5931L43.2248 34.7741" stroke="#EF2D28" stroke-width="0.311862"/>
<path d="M39.3088 33.733C39.9141 33.886 40.5156 33.5784 40.6522 33.046C40.7888 32.5136 40.4089 31.9579 39.8036 31.8049C39.1982 31.6519 38.5968 31.9594 38.4601 32.4919C38.3235 33.0243 38.7035 33.5799 39.3088 33.733Z" fill="#EF0000" stroke="#EF2D28" stroke-width="0.404089"/>
<path fill-rule="evenodd" clip-rule="evenodd" d="M70.4656 63.2472C70.4656 84.8815 70.5957 93.0292 69.0084 94.1458C67.4992 95.3497 25.5278 94.1458 25.5278 100.322C25.5278 106.498 60.0833 112.709 70.4656 112.709C84.3086 112.709 91.204 106.516 91.204 94.1458V63.2646H70.4656V63.2472Z" fill="white" stroke="#EF2D28" stroke-width="0.284092"/>
<path fill-rule="evenodd" clip-rule="evenodd" d="M70.4741 69.4227V72.5108C77.3349 73.5392 84.3393 73.5392 91.2001 72.5108V69.4227C84.3393 70.4512 77.3349 70.4512 70.4741 69.4227Z" fill="white" stroke="#EF2D28" stroke-width="0.246034"/>
<path fill-rule="evenodd" clip-rule="evenodd" d="M70.4741 63.2465V66.3346C77.3349 67.363 84.3393 67.363 91.2001 66.3346V63.2465C84.3393 64.2749 77.3349 64.2749 70.4741 63.2465Z" fill="white" stroke="#EF2D28" stroke-width="0.246034"/>
<path fill-rule="evenodd" clip-rule="evenodd" d="M70.4741 66.3346V69.4227C77.3349 70.4511 84.3393 70.4511 91.2001 69.4227V66.3346C84.3393 67.363 77.3349 67.363 70.4741 66.3346Z" fill="white" stroke="#EF2D28" stroke-width="0.246034"/>
<path fill-rule="evenodd" clip-rule="evenodd" d="M70.4741 72.5109V75.599C77.3349 76.6274 84.3393 76.6274 91.2001 75.599V72.5109C84.3393 73.5393 77.3349 73.5393 70.4741 72.5109Z" fill="white" stroke="#EF2D28" stroke-width="0.246034"/>
<path d="M71.4157 68.7509C71.9389 68.7509 72.3631 68.452 72.3631 68.0834C72.3631 67.7147 71.9389 67.4159 71.4157 67.4159C70.8924 67.4159 70.4683 67.7147 70.4683 68.0834C70.4683 68.452 70.8924 68.7509 71.4157 68.7509Z" fill="white" stroke="#EF2D28" stroke-width="0.232579"/>
<path d="M75.1842 69.0834C75.7075 69.0834 76.1316 68.7846 76.1316 68.4159C76.1316 68.0473 75.7075 67.7484 75.1842 67.7484C74.661 67.7484 74.2368 68.0473 74.2368 68.4159C74.2368 68.7846 74.661 69.0834 75.1842 69.0834Z" fill="white" stroke="#EF2D28" stroke-width="0.232579"/>
<path d="M78.963 69.4229C79.4863 69.4229 79.9104 69.124 79.9104 68.7554C79.9104 68.3867 79.4863 68.0879 78.963 68.0879C78.4398 68.0879 78.0156 68.3867 78.0156 68.7554C78.0156 69.124 78.4398 69.4229 78.963 69.4229Z" fill="white" stroke="#EF2D28" stroke-width="0.232579"/>
<path d="M82.7316 69.4229C83.2548 69.4229 83.679 69.124 83.679 68.7554C83.679 68.3867 83.2548 68.0879 82.7316 68.0879C82.2084 68.0879 81.7842 68.3867 81.7842 68.7554C81.7842 69.124 82.2084 69.4229 82.7316 69.4229Z" fill="white" stroke="#EF2D28" stroke-width="0.232579"/>
<path d="M86.4997 69.0834C87.0229 69.0834 87.4471 68.7846 87.4471 68.4159C87.4471 68.0473 87.0229 67.7484 86.4997 67.7484C85.9764 67.7484 85.5522 68.0473 85.5522 68.4159C85.5522 68.7846 85.9764 69.0834 86.4997 69.0834Z" fill="white" stroke="#EF2D28" stroke-width="0.232579"/>
<path d="M90.2789 68.7509C90.8022 68.7509 91.2264 68.452 91.2264 68.0834C91.2264 67.7147 90.8022 67.4159 90.2789 67.4159C89.7557 67.4159 89.3315 67.7147 89.3315 68.0834C89.3315 68.452 89.7557 68.7509 90.2789 68.7509Z" fill="white" stroke="#EF2D28" stroke-width="0.232579"/>
<path fill-rule="evenodd" clip-rule="evenodd" d="M70.4739 78.6877L91.1999 95.3845ZM72.5426 78.6877L91.2194 93.5177ZM75.2944 79.3158L91.2194 91.6858ZM77.3631 79.2984L91.2194 89.8189ZM79.4513 79.3158L91.1999 87.9695ZM81.52 79.3158L91.1999 86.1202ZM83.5887 79.3158L91.1999 84.2533ZM85.6964 79.3158L91.239 83.0146ZM87.7456 79.3158L91.2194 81.7933ZM89.8338 79.3158L91.1999 80.5371ZM70.4739 80.5371L91.1999 97.2514ZM91.1999 78.7052L68.3662 97.2339ZM89.1117 78.6877L69.0688 94.7739ZM86.36 79.3158L70.4544 91.6683ZM84.2718 79.3158L70.4544 89.8189ZM82.2226 79.3158L70.4739 87.9695ZM80.1539 79.3158L70.4739 86.1202ZM78.0852 79.3158L70.4739 84.2533ZM75.9775 79.3158L70.4544 83.0146ZM73.9088 79.3158L70.4544 81.7933ZM71.8205 79.3158L70.4544 80.5371ZM91.1999 80.5371L68.3662 99.1182ZM91.1999 82.4214L68.3662 100.95ZM91.1999 84.2533L68.3662 102.799ZM91.1999 86.1027L68.3662 104.684ZM91.1999 87.987L68.3662 106.516ZM91.1999 89.8189L68.3662 108.365ZM91.1999 91.6683L68.3662 110.214ZM91.1999 93.5351L68.3662 112.081ZM91.1999 95.3845L69.7518 112.692ZM91.1999 97.2339L71.8401 112.692ZM90.4974 99.7114L75.2749 112.081ZM89.8338 102.171L77.3826 112.064ZM88.4482 105.26L82.2031 110.197ZM70.4739 82.3865L90.5169 98.4552ZM70.4739 84.2359L90.5169 100.322ZM70.4739 86.1202L89.8338 101.561ZM70.4739 87.9521L89.8338 103.428ZM70.4739 89.8189L89.1312 104.649ZM69.7714 91.0577L88.4482 105.888ZM69.7714 92.9245L87.0625 106.533ZM69.0883 94.1458L86.3795 107.754ZM68.3662 95.3671L84.9548 108.348ZM68.3662 97.2165L84.2718 109.586ZM68.3662 99.0833L82.2226 110.197Z" fill="white"/>
<path d="M70.4739 78.6877L91.1999 95.3845L69.7518 112.692M72.5426 78.6877L91.2194 93.5177M75.2944 79.3158L91.2194 91.6858M77.3631 79.2984L91.2194 89.8189M79.4513 79.3158L91.1999 87.9695M81.52 79.3158L91.1999 86.1202M83.5887 79.3158L91.1999 84.2533L68.3662 102.799M85.6964 79.3158L91.239 83.0146M87.7456 79.3158L91.2194 81.7933M89.8338 79.3158L91.1999 80.5371L68.3662 99.1182M70.4739 80.5371L91.1999 97.2514M91.1999 78.7052L68.3662 97.2339M89.1117 78.6877L69.0688 94.7739M86.36 79.3158L70.4544 91.6683M84.2718 79.3158L70.4544 89.8189M82.2226 79.3158L70.4739 87.9695M80.1539 79.3158L70.4739 86.1202L89.8338 101.561M78.0852 79.3158L70.4739 84.2533M75.9775 79.3158L70.4544 83.0146M73.9088 79.3158L70.4544 81.7933M71.8205 79.3158L70.4544 80.5371M91.1999 82.4214L68.3662 100.95M91.1999 86.1027L68.3662 104.684M91.1999 87.987L68.3662 106.516M91.1999 89.8189L68.3662 108.365M91.1999 91.6683L68.3662 110.214M91.1999 93.5351L68.3662 112.081M91.1999 97.2339L71.8401 112.692M90.4974 99.7114L75.2749 112.081M89.8338 102.171L77.3826 112.064M88.4482 105.26L82.2031 110.197M70.4739 82.3865L90.5169 98.4552M70.4739 84.2359L90.5169 100.322M70.4739 87.9521L89.8338 103.428M70.4739 89.8189L89.1312 104.649M69.7714 91.0577L88.4482 105.888M69.7714 92.9245L87.0625 106.533M69.0883 94.1458L86.3795 107.754M68.3662 95.3671L84.9548 108.348M68.3662 97.2165L84.2718 109.586M68.3662 99.0833L82.2226 110.197" stroke="#EF2D28" stroke-width="0.246034"/>
<path fill-rule="evenodd" clip-rule="evenodd" d="M70.4741 75.6163V78.7044C77.3349 79.7329 84.3393 79.7329 91.2001 78.7044V75.6163C84.3393 76.6448 77.3349 76.6448 70.4741 75.6163Z" fill="white" stroke="#EF2D28" stroke-width="0.246034"/>
<path fill-rule="evenodd" clip-rule="evenodd" d="M68.3857 100.95L80.8369 110.843ZM68.3857 102.817L79.4513 111.453ZM68.3857 104.649L78.0657 112.081ZM68.3857 106.498L75.3139 112.081ZM68.3662 108.365L73.9088 112.692ZM68.3662 110.214L71.8205 112.692Z" fill="white"/>
<path d="M68.3857 100.95L80.8369 110.843M68.3857 102.817L79.4513 111.453M68.3857 104.649L78.0657 112.081M68.3857 106.498L75.3139 112.081M68.3662 108.365L73.9088 112.692M68.3662 110.214L71.8205 112.692" stroke="#EF2D28" stroke-width="0.246034"/>
<path d="M71.4157 78.0326C71.9389 78.0326 72.3631 77.7338 72.3631 77.3651C72.3631 76.9965 71.9389 76.6976 71.4157 76.6976C70.8924 76.6976 70.4683 76.9965 70.4683 77.3651C70.4683 77.7338 70.8924 78.0326 71.4157 78.0326Z" fill="white" stroke="#EF2D28" stroke-width="0.232579"/>
<path d="M75.1842 78.3652C75.7075 78.3652 76.1316 78.0663 76.1316 77.6977C76.1316 77.329 75.7075 77.0302 75.1842 77.0302C74.661 77.0302 74.2368 77.329 74.2368 77.6977C74.2368 78.0663 74.661 78.3652 75.1842 78.3652Z" fill="white" stroke="#EF2D28" stroke-width="0.232579"/>
<path d="M78.963 78.6872C79.4863 78.6872 79.9104 78.3883 79.9104 78.0197C79.9104 77.651 79.4863 77.3522 78.963 77.3522C78.4398 77.3522 78.0156 77.651 78.0156 78.0197C78.0156 78.3883 78.4398 78.6872 78.963 78.6872Z" fill="white" stroke="#EF2D28" stroke-width="0.232579"/>
<path d="M82.7316 78.6872C83.2548 78.6872 83.679 78.3883 83.679 78.0197C83.679 77.651 83.2548 77.3522 82.7316 77.3522C82.2084 77.3522 81.7842 77.651 81.7842 78.0197C81.7842 78.3883 82.2084 78.6872 82.7316 78.6872Z" fill="white" stroke="#EF2D28" stroke-width="0.232579"/>
<path d="M86.4997 78.3652C87.0229 78.3652 87.4471 78.0663 87.4471 77.6977C87.4471 77.329 87.0229 77.0302 86.4997 77.0302C85.9764 77.0302 85.5522 77.329 85.5522 77.6977C85.5522 78.0663 85.9764 78.3652 86.4997 78.3652Z" fill="white" stroke="#EF2D28" stroke-width="0.232579"/>
<path d="M90.2789 78.0326C90.8022 78.0326 91.2264 77.7338 91.2264 77.3651C91.2264 76.9965 90.8022 76.6976 90.2789 76.6976C89.7557 76.6976 89.3315 76.9965 89.3315 77.3651C89.3315 77.7338 89.7557 78.0326 90.2789 78.0326Z" fill="white" stroke="#EF2D28" stroke-width="0.232579"/>
<path fill-rule="evenodd" clip-rule="evenodd" d="M40.7316 107.754L65.6145 94.7739ZM39.346 107.126L62.8627 94.7739ZM38.6629 105.888L60.0915 94.7739ZM37.9603 104.666L56.6371 94.7739ZM36.5552 103.428L53.8464 94.7739ZM37.2578 101.578L49.0064 95.3846ZM36.5552 100.322L45.5325 95.3846ZM36.5552 98.4727L42.8003 95.3846ZM42.8003 108.365L66.2976 95.9952ZM44.8885 108.976L67.0001 97.234ZM46.9572 109.604L67.7027 98.4727ZM49.0259 110.215L66.3171 100.95ZM51.7777 110.215L67.0001 102.189ZM53.8464 110.843L66.9806 104.038ZM55.915 111.453L66.2976 105.888ZM58.6863 111.471L66.9806 107.126ZM61.4576 112.081L67.0001 108.976ZM64.2679 112.081L67.7222 110.232Z" fill="white"/>
<path d="M40.7316 107.754L65.6145 94.7739M39.346 107.126L62.8627 94.7739M38.6629 105.888L60.0915 94.7739M37.9603 104.666L56.6371 94.7739M36.5552 103.428L53.8464 94.7739M37.2578 101.578L49.0064 95.3846M36.5552 100.322L45.5325 95.3846M36.5552 98.4727L42.8003 95.3846M42.8003 108.365L66.2976 95.9952M44.8885 108.976L67.0001 97.234M46.9572 109.604L67.7027 98.4727M49.0259 110.215L66.3171 100.95M51.7777 110.215L67.0001 102.189M53.8464 110.843L66.9806 104.038M55.915 111.453L66.2976 105.888M58.6863 111.471L66.9806 107.126M61.4576 112.081L67.0001 108.976M64.2679 112.081L67.7222 110.232" stroke="#EF2D28" stroke-width="0.246034"/>
<path fill-rule="evenodd" clip-rule="evenodd" d="M69.0698 94.1632H65.6155C64.4651 100.297 64.4651 106.558 65.6155 112.692H69.0698C67.9194 106.558 67.9194 100.297 69.0698 94.1632Z" fill="white" stroke="#EF2D28" stroke-width="0.246034"/>
<path fill-rule="evenodd" clip-rule="evenodd" d="M28.2803 102.8L36.5746 96.6233ZM28.2803 98.4727L36.5746 105.888Z" fill="white"/>
<path d="M28.2803 102.8L36.5746 96.6233M28.2803 98.4727L36.5746 105.888" stroke="#EF2D28" stroke-width="0.246034"/>
<path fill-rule="evenodd" clip-rule="evenodd" d="M40.7314 95.3722L36.5784 95.991C35.6573 99.9136 35.6573 103.206 36.5784 107.129L40.7314 108.356C39.8103 104.444 39.8103 99.2948 40.7314 95.3722Z" fill="white" stroke="#EF2D28" stroke-width="0.175128"/>
<path fill-rule="evenodd" clip-rule="evenodd" d="M91.202 64.4685V61.3455C88.0732 61.3804 85.9971 59.5136 85.9971 57.6467L75.6458 57.6642C75.6458 59.5136 73.599 61.3804 70.4702 61.3804V64.4685H91.202Z" fill="white" stroke="#EF2D28" stroke-width="0.301158"/>
<path fill-rule="evenodd" clip-rule="evenodd" d="M76.3677 53.9653H85.267V57.6815H76.3677V53.9653ZM77.1288 50.2491H84.5254V53.9653H77.1093L77.1288 50.2491ZM77.1288 46.5504H84.5254V50.2491H77.1093L77.1288 46.5504ZM77.8704 41.5954H83.7838V46.5504H77.8704V41.5954ZM77.6167 37.2686H84.057V41.5954H77.6167V37.2686Z" fill="white"/>
<path d="M84.5254 50.2491H77.1288L77.1093 53.9653H84.5254V50.2491ZM84.5254 50.2491V46.5504H77.1288L77.1093 50.2491H84.5254ZM76.3677 53.9653H85.267V57.6815H76.3677V53.9653ZM77.8704 41.5954H83.7838V46.5504H77.8704V41.5954ZM77.6167 37.2686H84.057V41.5954H77.6167V37.2686Z" stroke="#EF2D28" stroke-width="0.258335"/>
<path d="M81.1701 39.1354C85.9035 39.1354 89.7406 36.503 89.7406 33.2557C89.7406 30.0085 85.9035 27.3761 81.1701 27.3761C76.4368 27.3761 72.5996 30.0085 72.5996 33.2557C72.5996 36.503 76.4368 39.1354 81.1701 39.1354Z" fill="white" stroke="#EF2D28" stroke-width="0.250097"/>
<path fill-rule="evenodd" clip-rule="evenodd" d="M85.4651 32.9417C85.4651 34.5643 87.6026 37.2686 87.6026 37.2686C86.0499 38.3503 83.5291 39.1354 81.1697 39.1354C78.8103 39.1354 75.8661 38.6818 74.7368 37.2686C74.7368 37.2686 76.8744 34.5817 76.8744 32.9591C76.8744 31.3366 74.7368 29.2429 74.7368 29.2429C76.6085 28.053 78.8673 27.4057 81.1899 27.3936C83.5291 27.3936 86.0297 28.1787 87.6026 29.2429C87.6026 29.2429 85.4651 31.3366 85.4651 32.9591V32.9417Z" fill="white" stroke="#EF2D28" stroke-width="0.250097"/>
<path fill-rule="evenodd" clip-rule="evenodd" d="M84.0336 32.9417C84.0336 34.5643 86.1712 37.8966 86.1712 37.8966C84.6185 38.9435 83.5497 39.1179 81.1701 39.1179C78.7905 39.1179 77.2982 39.3099 76.1689 37.8966C76.1689 37.8966 78.3065 34.5817 78.3065 32.9417C78.3065 31.3017 76.1689 28.6148 76.1689 28.6148C77.7217 27.568 78.7905 27.3936 81.1701 27.3936C83.5295 27.3936 84.6185 27.568 86.1712 28.6148C86.1712 28.6148 84.0336 31.3191 84.0336 32.9417Z" fill="white" stroke="#EF2D28" stroke-width="0.250097"/>
<path d="M72.5995 35.4018C73.7801 35.4018 74.7371 34.5738 74.7371 33.5524C74.7371 32.531 73.7801 31.703 72.5995 31.703C71.4189 31.703 70.4619 32.531 70.4619 33.5524C70.4619 34.5738 71.4189 35.4018 72.5995 35.4018Z" fill="white" stroke="#EF2D28" stroke-width="0.250097"/>
<path d="M89.7538 35.4018C90.9343 35.4018 91.8914 34.5738 91.8914 33.5524C91.8914 32.531 90.9343 31.703 89.7538 31.703C88.5732 31.703 87.6162 32.531 87.6162 33.5524C87.6162 34.5738 88.5732 35.4018 89.7538 35.4018Z" fill="white" stroke="#EF2D28" stroke-width="0.250097"/>
<path d="M81.1864 35.4018C82.367 35.4018 83.324 34.5738 83.324 33.5524C83.324 32.531 82.367 31.703 81.1864 31.703C80.0059 31.703 79.0488 32.531 79.0488 33.5524C79.0488 34.5738 80.0059 35.4018 81.1864 35.4018Z" fill="white" stroke="#EF2D28" stroke-width="0.250097"/>
<path d="M81.1864 29.2255C82.367 29.2255 83.324 28.3975 83.324 27.3761C83.324 26.3547 82.367 25.5267 81.1864 25.5267C80.0059 25.5267 79.0488 26.3547 79.0488 27.3761C79.0488 28.3975 80.0059 29.2255 81.1864 29.2255Z" fill="white" stroke="#EF2D28" stroke-width="0.250097"/>
<path d="M74.92 64.4684C76.1427 64.4684 77.1339 63.6404 77.1339 62.619C77.1339 61.5977 76.1427 60.7697 74.92 60.7697C73.6973 60.7697 72.7061 61.5977 72.7061 62.619C72.7061 63.6404 73.6973 64.4684 74.92 64.4684Z" fill="white" stroke="#EF2D28" stroke-width="0.254523"/>
<path d="M86.7466 64.4684C87.9693 64.4684 88.9606 63.6404 88.9606 62.619C88.9606 61.5977 87.9693 60.7697 86.7466 60.7697C85.5239 60.7697 84.5327 61.5977 84.5327 62.619C84.5327 63.6404 85.5239 64.4684 86.7466 64.4684Z" fill="white" stroke="#EF2D28" stroke-width="0.254523"/>
<path fill-rule="evenodd" clip-rule="evenodd" d="M75.6504 57.6641H86.0099L80.8301 63.2297L75.6504 57.6641Z" fill="white" stroke="#EF2D28" stroke-width="0.254523"/>
<path d="M80.8217 64.4557C82.452 64.4557 83.7737 63.3518 83.7737 61.99C83.7737 60.6281 82.452 59.5242 80.8217 59.5242C79.1913 59.5242 77.8696 60.6281 77.8696 61.99C77.8696 63.3518 79.1913 64.4557 80.8217 64.4557Z" fill="white" stroke="#EF2D28" stroke-width="0.339368"/>
<path d="M84.518 80.5922H70.3299C69.8556 80.5922 69.4712 80.889 69.4712 81.2551V83.6454C69.4712 84.0115 69.8556 84.3084 70.3299 84.3084H84.518C84.9923 84.3084 85.3767 84.0115 85.3767 83.6454V81.2551C85.3767 80.889 84.9923 80.5922 84.518 80.5922Z" fill="white" stroke="#EF2D28" stroke-width="0.239883"/>
<path fill-rule="evenodd" clip-rule="evenodd" d="M90.217 77.5039C88.3045 77.5039 86.7627 78.952 86.7627 80.7316V83.5406C86.7497 83.9559 86.8291 84.3694 86.9961 84.7571C87.1632 85.1449 87.4147 85.4991 87.736 85.7993C88.0573 86.0995 88.442 86.3397 88.8679 86.5061C89.2938 86.6724 89.7523 86.7615 90.217 86.7683C90.6817 86.7615 91.1403 86.6724 91.5662 86.5061C91.9921 86.3397 92.3768 86.0995 92.6981 85.7993C93.0194 85.4991 93.2709 85.1449 93.4379 84.7571C93.605 84.3694 93.6843 83.9559 93.6714 83.5406V80.7491C93.687 80.3323 93.6096 79.917 93.4437 79.5272C93.2778 79.1375 93.0268 78.7812 92.7053 78.4791C92.3837 78.177 91.9981 77.9352 91.5709 77.7678C91.1437 77.6003 90.6834 77.5107 90.217 77.5039ZM90.217 78.7252C89.0656 78.7252 88.1483 79.8942 88.1483 81.3248V82.9474C88.1483 84.3781 89.0656 85.5296 90.217 85.5296C91.3685 85.5296 92.2857 84.3781 92.2857 82.9474V81.3248C92.2857 79.8942 91.3685 78.7427 90.217 78.7427V78.7252ZM72.2428 78.1146C71.0718 78.1146 70.1741 79.2661 70.1741 80.7142V83.5755C70.1741 85.0062 71.0914 86.1577 72.2428 86.1577C73.3943 86.1577 74.3115 85.0062 74.3115 83.5755V80.6967C74.3115 79.2486 73.3943 78.0971 72.2428 78.0971V78.1146ZM72.2428 76.8933C71.7781 76.9001 71.3195 76.9892 70.8936 77.1555C70.4678 77.3219 70.083 77.5621 69.7617 77.8623C69.4404 78.1625 69.189 78.5167 69.0219 78.9045C68.8548 79.2922 68.7755 79.7057 68.7885 80.121V84.1687C68.7755 84.584 68.8548 84.9975 69.0219 85.3852C69.189 85.7729 69.4404 86.1272 69.7617 86.4274C70.083 86.7276 70.4678 86.9678 70.8936 87.1342C71.3195 87.3005 71.7781 87.3896 72.2428 87.3964C74.1554 87.3964 75.6971 85.9483 75.6971 84.1687V80.121C75.7127 79.7042 75.6354 79.2889 75.4695 78.8991C75.3036 78.5094 75.0526 78.1531 74.731 77.851C74.4095 77.5489 74.0238 77.3071 73.5966 77.1397C73.1694 76.9723 72.7092 76.8826 72.2428 76.8759V76.8933Z" fill="white" stroke="#EF2D28" stroke-width="0.239883"/>
<path fill-rule="evenodd" clip-rule="evenodd" d="M66.7003 79.3534C65.5489 79.3534 64.6316 80.5049 64.6316 81.9355V82.6159C64.6316 84.0466 65.5489 85.1981 66.7003 85.1981C67.8713 85.1981 68.7885 84.0466 68.7885 82.6159V81.9355C68.7885 80.5049 67.8518 79.3534 66.7003 79.3534ZM66.7003 78.1321C66.2356 78.1388 65.7771 78.228 65.3512 78.3943C64.9253 78.5606 64.5405 78.8009 64.2193 79.1011C63.898 79.4013 63.6465 79.7555 63.4794 80.1432C63.3124 80.5309 63.233 80.9444 63.246 81.3598V83.2091C63.233 83.6245 63.3124 84.038 63.4794 84.4257C63.6465 84.8134 63.898 85.1676 64.2193 85.4678C64.5405 85.768 64.9253 86.0083 65.3512 86.1746C65.7771 86.3409 66.2356 86.4301 66.7003 86.4368C68.6129 86.4368 70.1742 84.9887 70.1742 83.2091V81.3598C70.1898 80.9415 70.1118 80.5248 69.9447 80.1339C69.7776 79.743 69.5248 79.3859 69.2012 79.0836C68.8776 78.7813 68.4897 78.5398 68.0602 78.3734C67.6307 78.207 67.1684 78.119 66.7003 78.1146V78.1321Z" fill="white" stroke="#EF2D28" stroke-width="0.239883"/>
<path fill-rule="evenodd" clip-rule="evenodd" d="M58.4293 77.6467C56.3216 77.6467 54.6705 78.9337 54.6705 80.5326V83.7499C54.6705 85.3293 56.3567 86.6357 58.4293 86.6357C60.4668 86.6357 62.153 85.3488 62.153 83.7304V80.5326C62.153 78.9337 60.4668 77.6467 58.4293 77.6467ZM58.4293 76.2818C57.5929 76.2869 56.7666 76.384 55.9983 76.5675C55.23 76.7511 54.5349 77.0174 53.9534 77.3511C53.3718 77.6848 52.9153 78.0792 52.6102 78.5115C52.3052 78.9438 52.1578 79.4054 52.1764 79.8696V84.3933C52.1483 84.8591 52.2876 85.3233 52.5862 85.7589C52.8847 86.1945 53.3366 86.5927 53.9154 86.9303C54.4942 87.2679 55.1883 87.5381 55.9573 87.7252C56.7263 87.9123 57.5547 88.0126 58.3942 88.0201C61.8719 88.0201 64.6471 86.4017 64.6471 84.3933V79.8696C64.6705 79.4054 64.5276 78.9433 64.2269 78.51C63.9262 78.0767 63.4736 77.6808 62.8953 77.3453C62.3169 77.0098 61.6244 76.7413 60.8578 76.5554C60.0912 76.3695 59.2658 76.2699 58.4293 76.2623V76.2818Z" fill="white" stroke="#EF2D28" stroke-width="0.235547"/>
<path fill-rule="evenodd" clip-rule="evenodd" d="M103.375 78.2573C101.267 78.2573 99.6159 79.5443 99.6159 81.1432V84.3605C99.6159 85.9399 101.302 87.2463 103.375 87.2463C105.412 87.2463 107.098 85.9594 107.098 84.341V81.1432C107.098 79.5443 105.412 78.2573 103.375 78.2573ZM103.375 76.8924C102.538 76.8975 101.712 76.9946 100.944 77.1781C100.175 77.3617 99.4802 77.628 98.8987 77.9617C98.3171 78.2954 97.8606 78.6898 97.5556 79.1221C97.2505 79.5544 97.1031 80.016 97.1217 80.4802V85.0039C97.0936 85.4697 97.2329 85.9339 97.5315 86.3695C97.8301 86.8051 98.2819 87.2033 98.8607 87.5409C99.4395 87.8785 100.134 88.1487 100.903 88.3358C101.672 88.5229 102.5 88.6232 103.339 88.6307C106.817 88.6307 109.592 87.0123 109.592 85.0039V80.4802C109.616 80.016 109.473 79.5539 109.172 79.1206C108.872 78.6873 108.419 78.2914 107.841 77.9559C107.262 77.6204 106.57 77.3519 105.803 77.166C105.037 76.9801 104.211 76.8805 103.375 76.8729V76.8924Z" fill="white" stroke="#EF2D28" stroke-width="0.235547"/>
<path d="M99.448 80.5922H92.0514C91.8035 80.5922 91.6025 80.889 91.6025 81.2551V83.6454C91.6025 84.0115 91.8035 84.3084 92.0514 84.3084H99.448C99.6959 84.3084 99.8968 84.0115 99.8968 83.6454V81.2551C99.8968 80.889 99.6959 80.5922 99.448 80.5922Z" fill="white" stroke="#EF2D28" stroke-width="0.239883"/>
<path d="M88.558 79.9814H84.2644C84.1135 79.9814 83.9912 80.372 83.9912 80.8538V84.064C83.9912 84.5458 84.1135 84.9364 84.2644 84.9364H88.558C88.7089 84.9364 88.8312 84.5458 88.8312 84.064V80.8538C88.8312 80.372 88.7089 79.9814 88.558 79.9814Z" fill="white" stroke="#EF2D28" stroke-width="0.239883"/>
<path d="M65.744 79.9814H61.4505C61.2996 79.9814 61.1772 80.372 61.1772 80.8538V84.064C61.1772 84.5458 61.2996 84.9364 61.4505 84.9364H65.744C65.8949 84.9364 66.0172 84.5458 66.0172 84.064V80.8538C66.0172 80.372 65.8949 79.9814 65.744 79.9814Z" fill="white" stroke="#EF2D28" stroke-width="0.239883"/>
<path d="M55.1076 79.3534H46.4815C46.1905 79.3534 45.9546 79.8455 45.9546 80.4526V84.4305C45.9546 85.0375 46.1905 85.5296 46.4815 85.5296H55.1076C55.3986 85.5296 55.6345 85.0375 55.6345 84.4305V80.4526C55.6345 79.8455 55.3986 79.3534 55.1076 79.3534Z" fill="white" stroke="#EF2D28" stroke-width="0.239883"/>
<path d="M114.632 79.9814H106.61C106.341 79.9814 106.123 80.4736 106.123 81.0806V85.0585C106.123 85.6656 106.341 86.1577 106.61 86.1577H114.632C114.901 86.1577 115.119 85.6656 115.119 85.0585V81.0806C115.119 80.4736 114.901 79.9814 114.632 79.9814Z" fill="white" stroke="#EF2D28" stroke-width="0.239883"/>
</g>
</g>
<defs>
<clipPath id="clip0_2_7329">
<rect width="512" height="512" fill="white"/>
</clipPath>
</defs>
</svg>
