<svg width="512" height="512" viewBox="0 0 512 512" fill="none" xmlns="http://www.w3.org/2000/svg">
<g clip-path="url(#clip0_2_7477)">
<mask id="mask0_2_7477" style="mask-type:luminance" maskUnits="userSpaceOnUse" x="0" y="0" width="512" height="512">
<path d="M0 0H512V512H0V0Z" fill="white"/>
</mask>
<g mask="url(#mask0_2_7477)">
<path d="M0 0H512V512H0V0Z" fill="white"/>
<path fill-rule="evenodd" clip-rule="evenodd" d="M210.4 363.5C210.4 363.5 222 354.1 233.2 354.1C244.4 354.1 247.6 361.9 255.4 362.5C263.2 363.2 269.8 354.7 279.4 354.5C289.2 354.1 301.4 361.3 301.4 361.3L258.9 374L210.4 363.4V363.5ZM186.1 349.7L330.4 350.4C330.4 350.4 317.9 336.9 303.2 336.6C288.6 336.3 292.6 342.9 281.4 343.8C270.1 344.8 267.3 336.9 257 337.2C246.7 337.5 240.7 343.8 233 344.1C225.1 344.4 215.1 336.3 209.2 336.6C203.2 336.9 182 346 182 346L186.1 349.7ZM167.6 332.5L345.7 333.2C348.6 329.1 337 319.4 326.4 318.5C317.6 318.8 311.4 327.5 304.2 327.8C297 328.2 288.9 318.8 280.7 319.1C272.7 319.4 264.2 327.9 256.1 327.9C247.9 327.9 242 318.8 231.7 318.8C221.4 318.8 216.7 328.8 208.9 328.2C201 327.5 194.2 318.2 186.7 318.2C179.2 318.2 166.7 329.4 164.2 328.8C161.7 328.2 167.3 333.5 167.6 332.5Z" fill="#083D9C" stroke="#083D9C" stroke-width="2.66667"/>
<path fill-rule="evenodd" clip-rule="evenodd" d="M236 233.5L277 244.5V186C258.2 187 242.6 150.4 275.7 147.9C243.3 143.1 239.5 151.6 235.7 160.6L236 233.5Z" fill="#FF0000" stroke="black" stroke-width="2.5" stroke-linejoin="round"/>
<path fill-rule="evenodd" clip-rule="evenodd" d="M210.1 276L302.6 276.3Z" fill="#083D9C"/>
<path d="M210.1 276L302.6 276.3" stroke="#083D9C" stroke-width="5" stroke-linecap="round"/>
<path d="M214.5 253.8L225.5 268.5M214.5 268.5L226.4 254.1M220.8 252.8L220.4 261.9M232 253.8L243 268.5M232 268.5L243.9 254.1M238.3 252.8L237.9 261.9M249.9 253.8L260.7 268.5M249.8 268.5L261.7 254.1M256.1 252.8L255.8 261.9M268.2 253.8L279.2 268.5M268.2 268.5L280.2 254.1M274.5 252.8L274.2 261.9M286.1 253.8L297 268.5M286 268.5L298 254.1M292.3 252.8L292 261.9" stroke="black" stroke-width="4" stroke-linecap="round"/>
<path fill-rule="evenodd" clip-rule="evenodd" d="M148 277L187.3 277.2V252.5L142.3 250.4L147.9 276.9L148 277ZM146 242.9L188 246.9L187.6 229.4L146.6 213.2L146 242.9ZM154.5 207.9L186.7 223.5L191.3 218.7C191.3 218.7 188.3 216.7 188.5 214.7C188.5 212.9 191.5 212.6 191.5 210.5C191.5 208.6 188.2 208.4 188.2 206.5C187.9 204.5 190.8 202.2 190.8 202.2L161.7 177L154.5 207.9ZM365.7 277.2H324.2L323.9 253.2L369.5 249.7L365.7 277.2ZM324.5 247.5L373.9 241.5L363.2 213.2L324.2 229.7L324.5 247.5ZM360.5 205.4L324.7 224C324.2 222 323.7 220 321.3 218.4C321.3 218.4 323.5 217.1 323.5 214.9C323.5 212.7 320.6 212.4 320.6 211.2C320.6 210 323.2 208.8 323.4 206C323.1 204 320.6 201.4 321.1 200.8L348.8 179.6L360.3 205.3L360.5 205.4ZM283.1 247L301 246.2L301.3 239L283.1 247ZM228.8 246.4L210 246V238.5L228.8 246.4ZM228.7 244.2L210 234.6V222.1C210 222.1 207.8 222.4 208.1 219.9C208.2 214.7 221.9 229.4 228.8 234.2L228.7 244.2ZM283.1 243.1V235C283.1 235 299.9 219.8 303.5 217C303.5 220.1 301.5 222.5 301.5 222.5V234.5L283.1 243.1ZM174 174.7L192.9 195.7C193.4 193.7 197.7 193.5 202.1 193.7C206.5 194.1 210 193.5 210 196.7C210 199.7 207.7 199.3 207.7 201.5C207.7 203.7 211.1 203.5 211.1 206.3C211.1 209.1 208.7 208.5 208.6 210.7C208.6 212.5 211.2 212.7 211.2 212.7L228.9 229.8V211.4L192.4 154.1L174 174.7ZM203 153L227.8 203.7C227.8 203.7 228.1 156.9 232.2 154.4L225.2 141.6L203 153ZM310.7 155L283.1 204.3V183.5C283.1 183.5 285.4 180 281.8 180.3C278.2 180.6 273.7 180 273.7 180L284.8 141L310.7 155ZM339.1 176.1C338.8 176.7 320.4 195.3 320.4 195.3C319.6 193.1 314 194.2 308.8 194.2C303.5 194.2 302.8 195.9 303 197.2C303.6 200.9 305.4 198.2 305.4 201.6C305.4 204.9 302.8 203.6 302.6 206.1C302.8 208.9 306.6 208.2 304.4 210.4L283.1 230.8V211.4L322.7 149.9L339.1 176.1Z" fill="#EF7D08"/>
<path fill-rule="evenodd" clip-rule="evenodd" d="M245.1 286.3C236.2 301 212.4 296.7 206.9 286.3C205.2 285.9 206.2 222.8 206.2 222.8C206.2 222.8 203.5 221.6 203.4 219.7C203.3 217.7 207 217.6 207 215.1C207 212.6 203.2 213.5 203.1 211.1C203.1 208.6 207.2 208.9 207.1 206.7C206.8 204.2 202.5 204.6 202.3 202.2C202.1 200.4 205.3 198.8 206.3 198H196.4C191.6 198 196.5 199.1 196.4 202C196.4 203.8 194 205 193.8 206.6C193.8 208.2 197.2 209.3 197.3 211.3C197.3 213 193.8 213.2 193.9 214.8C194.2 217.5 197 218.1 197 219.8C197 221.4 193.1 222.1 193.1 223.4L193.7 288.2C199.7 320 235.1 328 245.1 286.2V286.3ZM268.4 286.3C277.4 301 301.1 296.7 306.7 286.3C308.4 285.9 307.4 222.8 307.4 222.8C307.4 222.8 310.1 221.6 310.2 219.7C310.3 217.7 306.8 217.6 306.8 215.1C306.8 212.6 310.4 213.5 310.5 211.1C310.5 208.6 306.7 208.8 306.9 206.5C307.1 204 310 204.3 310.2 202C310.3 200 308.3 198.8 307.4 198H317.1C322 198 317.1 199.1 317.1 202C317.1 203.8 319.6 205 319.8 206.6C319.8 208.2 316.3 209.3 316.3 211.3C316.3 213 319.8 213.2 319.6 214.8C319.4 217.5 316.6 218.1 316.6 219.8C316.6 221.4 320.5 222.1 320.5 223.4C320.3 226 319.9 288.2 319.9 288.2C313.8 320 278.5 328 268.4 286.2V286.3Z" fill="#FF0000" stroke="black" stroke-width="2.5" stroke-linejoin="round"/>
<path fill-rule="evenodd" clip-rule="evenodd" d="M236.5 315.3H276.3C276.6 315 267.3 301.5 256.3 302.5C244.1 302.8 235.8 315.3 236.5 315.3ZM363.3 314.3H308.9C308.9 314.3 315.9 310.2 317.9 306.3C321.4 308.3 320.4 310.2 327.4 310.5C334.4 310.8 341.2 302.5 347.9 302.8C354.6 303.1 363.3 314.6 363.3 314.3ZM148.9 314.3H203.3C203.3 314.3 196.3 310.2 194.3 306.3C190.8 308.3 191.8 310.2 184.7 310.5C177.7 310.8 171 302.5 164.2 302.8C157.5 303.1 148.9 314.6 148.9 314.3ZM152.9 297.3L191.7 297.5C191.7 297.5 189.2 292.2 188.9 285.7C178.9 282.2 170.7 293.2 163.6 293.5C156.4 293.8 148.9 285.7 148.9 285.7L152.9 297.2V297.3ZM359.9 297.3L321.1 297.5C321.1 297.5 323.6 292.2 323.9 285.7C333.9 282.2 342 293.2 349.2 293.5C356.4 293.8 363.9 285.7 363.9 285.7L359.9 297.2V297.3ZM246.4 297.5L266.1 296.9C266.1 296.9 266.4 290.9 256.1 290.9C245.8 290.9 246.7 297.9 246.4 297.5ZM234.4 289.1C237.9 287.2 241.1 285.3 243.2 281L229.8 281.3C229.8 281.3 223.6 285 220.4 289.1H234.4ZM277.9 289.1C274.175 287.45 271.112 284.598 269.2 281L282.6 281.3C282.6 281.3 288.9 285 292 289.1H277.9Z" fill="#083D9C" stroke="#083D9C" stroke-width="2.66667"/>
<path fill-rule="evenodd" clip-rule="evenodd" d="M-128 384H640V512H-128V384ZM-128 0H640V128H-128V0Z" fill="#DE2010"/>
</g>
</g>
<defs>
<clipPath id="clip0_2_7477">
<rect width="512" height="512" fill="white"/>
</clipPath>
</defs>
</svg>
