<svg width="512" height="512" viewBox="0 0 512 512" fill="none" xmlns="http://www.w3.org/2000/svg">
<g clip-path="url(#clip0_2_7491)">
<mask id="mask0_2_7491" style="mask-type:luminance" maskUnits="userSpaceOnUse" x="0" y="0" width="512" height="512">
<path d="M0.0129395 0H511.935V511.922H0.0129395V0Z" fill="white"/>
</mask>
<g mask="url(#mask0_2_7491)">
<path fill-rule="evenodd" clip-rule="evenodd" d="M-83.484 0L-84 511.922H596.154L-83.484 0Z" fill="#000001"/>
<path fill-rule="evenodd" clip-rule="evenodd" d="M595.638 511.922L596.154 0H-84L595.638 511.922Z" fill="#FF0000"/>
<path d="M335.961 127.361L326.879 126.948C324.092 120.343 316.248 117.866 311.398 120.756C307.063 121.065 284.047 120.343 284.047 120.343L300.87 127.671C304.998 138.921 319.448 141.604 319.448 141.604C318.209 162.246 298.496 138.921 281.983 150.687C270.217 157.808 270.01 166.168 263.611 179.895C260.488 184.635 257.039 189.153 253.29 193.416L267.224 192.384L262.786 198.163L279.299 195.789C279.299 195.789 277.132 197.647 275.79 199.092C278.267 199.608 294.677 195.273 294.677 195.273L293.542 200.537C301.902 197.131 312.326 193.725 312.326 193.725C312.326 193.725 316.042 196.822 319.448 198.163L321.822 188.771L331.214 191.145L333.588 181.65C347.727 200.537 352.475 219.425 378.381 224.172L376.007 214.677C383.232 217.773 396.649 224.379 396.649 224.379L398.713 220.044C409.963 228.094 419.355 227.991 425.548 228.817L420.903 217.051L425.651 219.425L418.529 200.537L425.651 202.911L416.156 188.771L419.665 186.397L418.633 179.276C432.669 184.023 451.66 191.145 453.931 207.659C456.304 233.564 427.922 240.686 409.137 238.312C423.277 250.078 449.183 245.33 461.052 233.564C465.53 228.034 468.737 221.585 470.444 214.677C472.818 221.798 477.566 231.19 477.566 240.686C475.192 261.844 446.809 268.965 428.025 271.339C449.183 283.105 486.958 268.965 489.332 238.312C489.332 212.303 472.818 200.537 465.696 188.771C464.791 184.562 463.999 180.329 463.323 176.076C464.355 176.283 470.444 179.379 470.444 179.379C470.444 179.379 466.316 171.535 465.696 169.884C465.696 169.884 458.369 149.861 455.685 145.423C456.098 145.113 461.052 146.249 461.052 146.249L441.649 121.994L447.119 121.375C447.119 121.375 424.825 103.726 418.633 101.456L425.754 99.0817C411.511 92.0634 394.998 96.7078 380.858 106.203L383.232 99.0817L378.897 99.4945V91.4441L383.232 84.9419L376.213 82.5681L380.858 70.8021L373.84 73.176L376.213 61.3068C376.213 61.3068 370.846 63.7839 367.647 63.371C367.75 63.6806 371.466 55.4238 371.466 55.4238C369.195 51.9147 371.466 44.7932 371.466 44.7932C354.952 47.167 352.578 49.5409 343.186 63.6806C328.943 89.6896 333.691 101.456 336.065 127.361H335.961Z" fill="#FFCC00" stroke="#FFCC00" stroke-width="2.37383"/>
<path fill-rule="evenodd" clip-rule="evenodd" d="M425.135 166.168C426.373 168.232 439.688 174.631 449.802 180.411C447.119 169.471 427.406 167.097 425.032 166.168H425.135Z" fill="#FF0000" stroke="#FF0000" stroke-width="3.0963"/>
<path fill-rule="evenodd" clip-rule="evenodd" d="M100.746 425.638L85.6773 416.039L65.5513 425.741L70.0926 408.505L54.6111 392.301L72.4664 391.269L83.097 371.659L89.5992 388.173L111.48 392.198L97.7528 403.551L100.746 425.638ZM139.243 341.419L132.225 338.116L125.62 341.935L126.652 334.297L120.872 329.137L128.509 327.692L131.606 320.673L135.321 327.485L142.959 328.311L137.592 333.884L139.243 341.419ZM173.199 293.116L157.924 285.685L143.062 293.942L145.436 277.222L132.947 265.662L149.667 262.773L156.686 247.291L164.736 262.36L181.559 264.217L169.897 276.603L173.199 293.116ZM103.326 226.03L85.3676 216.947L67.8219 226.649L70.7118 206.833L56.056 193.003L75.8723 189.803L84.4387 171.535L93.7276 189.39L113.647 191.867L99.5074 206.317L103.326 226.03ZM38.8199 295.697L20.655 284.963L2.59321 296.006L7.23766 275.364L-8.8631 261.637L12.1917 259.573L20.3453 240.066L28.6021 259.47L49.7602 261.224L33.9691 275.158L38.8199 295.697Z" fill="white"/>
</g>
</g>
<defs>
<clipPath id="clip0_2_7491">
<rect width="512" height="512" fill="white"/>
</clipPath>
</defs>
</svg>
