<svg width="512" height="512" viewBox="0 0 512 512" fill="none" xmlns="http://www.w3.org/2000/svg">
<g clip-path="url(#clip0_2_7502)">
<path d="M0 0H512V256H0V0Z" fill="#0038A8"/>
<path d="M0 256H512V512H0V256Z" fill="#CE1126"/>
<path d="M443.4 256L0 512V0" fill="white"/>
<path d="M25.2 44.3999L40.6 57.6999L58.5 47.8999L50.5 66.5999L65.5 80.5999L45 78.8999L36.4 97.2999L31.7 77.4999L11.5 74.8999L29 64.3999L25.2 44.3999ZM372.1 229L372.5 249.3L391.8 256L372.5 262.7L372.1 283L359.8 266.8L340.3 272.8L352 256L340.3 239.3L359.8 245.2L372.1 229ZM36.5 414.7L45.1 433.1L65.4 431.4L50.6 445.4L58.5 464.1L40.6 454.3L25.2 467.6L29.1 447.6L11.6 437.1L31.8 434.5L36.5 414.7ZM158.9 148L152.3 154.6L155.5 204.9L152.2 205.2L146.2 159.3L140.7 164.7L148.9 205.7C142.32 207.03 136.067 209.647 130.5 213.4L107.2 178.6H99.5L127.7 215.4L125.2 217.5L91.9 179.5H82.5V189L120.5 222.3L118.3 224.8L81.5 196.6V204.3L116.3 227.6C112.58 233.173 109.998 239.426 108.7 246L67.7 237.8L62.2 243.3L108.2 249.3L107.8 252.7L57.5 249.4L50.8 256L57.5 262.6L107.8 259.4L108.1 262.7L62.2 268.7L67.6 274.2L108.6 266C109.931 272.58 112.547 278.833 116.3 284.4L81.5 307.7V315.4L118.3 287.2L120.4 289.7L82.4 323V332.4H92L125.3 294.4L127.8 296.6L99.6 333.4H107.3L130.6 298.6C136.172 302.322 142.425 304.905 149 306.2L140.8 347.2L146.3 352.7L152.3 306.7L155.6 307.1L152.4 357.4L159 364.1L165.6 357.4L162.4 307.1L165.7 306.8L171.7 352.7L177.2 347.3L169 306.3C175.58 304.969 181.833 302.353 187.4 298.6L210.7 333.4H218.4L190 296.6L192.5 294.5L225.8 332.5H235.2V323L197.2 289.7L199.4 287.2L236.2 315.4V307.7L201.4 284.4C205.12 278.827 207.702 272.574 209 266L250 274.2L255.5 268.7L209.5 262.7L209.9 259.4L260.2 262.6L266.9 256L260.2 249.4L209.9 252.7C209.9 251.5 209.7 250.4 209.6 249.3L255.5 243.3L250.1 237.8L209.1 246C207.769 239.42 205.153 233.167 201.4 227.6L236.2 204.3V196.6L199.4 224.8L197.3 222.3L235.3 189V179.6H225.8L192.5 217.6L190 215.4L218.2 178.6H210.5L187.2 213.4C181.627 209.68 175.374 207.097 168.8 205.8L177 164.8L171.5 159.3L165.5 205.3L162.2 204.9L165.4 154.6L158.9 148Z" fill="#FCD116"/>
</g>
<defs>
<clipPath id="clip0_2_7502">
<rect width="512" height="512" fill="white"/>
</clipPath>
</defs>
</svg>
