<svg width="512" height="512" viewBox="0 0 512 512" fill="none" xmlns="http://www.w3.org/2000/svg">
<g clip-path="url(#clip0_2_7507)">
<mask id="mask0_2_7507" style="mask-type:luminance" maskUnits="userSpaceOnUse" x="0" y="0" width="512" height="512">
<path d="M0 0H512V512H0V0Z" fill="white"/>
</mask>
<g mask="url(#mask0_2_7507)">
<path fill-rule="evenodd" clip-rule="evenodd" d="M-95 0H673V512H-95V0Z" fill="#0C590B"/>
<path fill-rule="evenodd" clip-rule="evenodd" d="M-95 0H97.5V512H-95V0Z" fill="white"/>
<path fill-rule="evenodd" clip-rule="evenodd" d="M403.7 225.4L372.5 218.8L356.1 246.1L352.7 214.5L321.7 207.3L350.7 194.3L348 162.6L369.4 186.2L398.7 173.8L382.8 201.4L403.8 225.4H403.7Z" fill="white"/>
<path fill-rule="evenodd" clip-rule="evenodd" d="M415.4 306C408.745 320.522 399.285 333.585 387.564 344.438C375.843 355.292 362.092 363.721 347.102 369.241C332.112 374.761 316.178 377.264 300.217 376.604C284.257 375.945 268.584 372.137 254.1 365.4C224.714 351.794 201.937 327.072 190.778 296.673C179.62 266.273 180.995 232.686 194.6 203.3C201.357 188.194 211.2 174.669 223.497 163.595C235.793 152.522 250.272 144.143 266 139C261.882 142.429 257.944 146.067 254.2 149.9C234.69 171.507 224.333 199.846 225.313 228.941C226.293 258.036 238.533 285.614 259.453 305.859C280.372 326.104 308.336 337.435 337.448 337.461C366.56 337.487 394.544 326.207 415.5 306H415.4Z" fill="white"/>
</g>
</g>
<defs>
<clipPath id="clip0_2_7507">
<rect width="512" height="512" fill="white"/>
</clipPath>
</defs>
</svg>
