<svg width="512" height="512" viewBox="0 0 512 512" fill="none" xmlns="http://www.w3.org/2000/svg">
<g clip-path="url(#clip0_2_7525)">
<path d="M0 0H512V512H0V0Z" fill="#00247D"/>
<path d="M332.2 268.1C324.495 275.576 319.053 285.072 316.5 295.5C311.8 322.3 305.5 328.3 295.8 322.5C295.8 337 306.5 338.1 311.1 329.7C311.1 343.2 315.2 354.9 324.5 364.9C328.5 369.2 329.2 366.3 327.3 361.6C325.5 356.9 325.5 341.9 321.7 333.2C327.7 338.3 336.5 335.4 335.7 321.4C328.1 326.8 320.5 326.6 319.7 313.9C318.7 299 323.7 277.4 332.2 268.1ZM323.1 161.2C323.6 155.9 322.7 150.4 319.4 147C313.1 140.3 306.9 142.5 302.3 147.9C295.4 143.4 291.8 159.2 283.9 156.5C285.2 161.6 287.3 163.8 291.2 162.1C287.1 166.5 291.2 171.8 286.4 177.1C295.1 180.5 299.8 174.7 299.4 164.7C300.103 165.551 300.998 166.223 302.011 166.662C303.024 167.102 304.126 167.295 305.228 167.227C306.33 167.158 307.4 166.831 308.351 166.27C309.302 165.709 310.107 164.931 310.7 164C306.1 162.3 306.1 157.5 307.9 153C310.7 146.3 323.9 146.6 323.1 161.2Z" fill="#F7E017" stroke="black" stroke-width="0.4"/>
<path d="M343.3 238.4C333.4 244.6 315.3 242 313.7 226.7C312 211.3 324.5 204.5 327.9 202.5C333.1 199.4 337.2 204.9 335.5 211.4C341.3 208.9 342.5 200.9 339.8 196.3C347.4 197 354.5 190.1 357.5 180.3C354.8 183.3 347.5 181.3 341.5 180.8C343.3 178.4 343.3 173.7 342.7 171.2C336.4 178.9 327.3 175.4 315.2 197.8C318.063 185.644 320.73 173.442 323.2 161.2C323.9 146.6 310.8 146.2 308 153C311 157 309.4 161.9 308.3 169.2C307 177.8 304.3 197.8 301.8 204.5C301.1 194 295.3 193.3 294.2 188.3C292.5 189.6 291.6 193.1 291.9 195.6C289.9 192.9 282.8 196.2 280.2 192.2C277.4 198.9 281.9 205.5 286.5 208.4C283.8 208.6 283.2 212.5 280.2 212.5C284.2 218.1 288.3 220.3 293 220.8C297.8 221.2 301.3 223.3 304.2 230.2C308.9 241.3 326.6 248.5 343.3 238.4Z" fill="#337321" stroke="black" stroke-width="0.4"/>
<path d="M367.9 224.9C362.3 243.3 347 256.4 340.1 258.4C324.732 263.911 310.499 272.18 298.1 282.8C297.1 282.5 296.1 282.1 295.5 281.5C292.3 278.8 289.7 270.2 295.3 262.8C312.8 243.3 331.6 251.8 343.3 238.4C333.5 244.6 315.4 242 313.7 226.6C324.3 230 343.5 230.2 358.7 210.6C360.8 213.3 366.7 221.8 367.9 224.9Z" fill="#F7E017" stroke="black" stroke-width="0.4"/>
<path d="M332.2 268.1C323.3 277.1 318.7 299.1 319.7 313.9C320 318 320.9 320.9 322.4 322.5C323 314.1 328 292.3 340.5 282.5C355.975 270.192 367.6 253.708 374 235C372.8 231.2 371 228.5 367.4 225.9C361.4 245.8 345 255.3 332.3 268.2L332.2 268.1Z" fill="#337321" stroke="black" stroke-width="0.4"/>
<path d="M362.2 216.3C358.123 223.351 352.168 229.133 345 233C346.5 231 347 228.4 347 226.3C338.3 230.3 320.8 229.9 313.7 226.8C324.3 230.1 343.5 230.3 358.7 210.8C360.2 212.8 361.5 214.5 362.2 216.4V216.3Z" fill="#316D3A" stroke="black" stroke-width="0.4"/>
<path d="M295.3 262.8C281.1 278.7 290.5 292.6 296 295.7C294.5 306.7 303.3 305.4 303.1 314.7C306.6 312.3 307.6 305.9 307.1 300.7C311.5 306.5 322.8 300.1 325.3 310.7C326.8 299 319.1 287.2 309.6 288.3C313.6 284.1 311.3 277.3 307.6 275.5C306.9 284.1 298.6 284.1 295.5 281.5C292.3 278.8 289.7 270.2 295.3 262.8Z" fill="#337321" stroke="black" stroke-width="0.4"/>
<path d="M326 363.8C324.5 364.8 324.7 367.3 325.6 368.8C327.6 371.9 324.2 379 330.6 380.5C332.4 380.9 333.8 379.5 334.6 377C336.5 370 330.3 369.3 329.7 366C329.2 362.6 327.4 363 326.1 363.8H326Z" fill="#F7E017" stroke="black" stroke-width="0.4"/>
<path d="M331.4 377C329.4 378 327.4 379.7 328.4 387.7C328.7 391 328.5 399 326.1 399.1C327.6 400 330.7 400.9 332.1 398.9C333.3 401.4 336.1 400.7 337.3 397.6C338.7 399 340.8 396.6 340.8 394.5C342.1 395.5 344.8 394 344 389.3C345.6 389.9 347.7 388.6 348.4 387.3C346.1 386.8 340.2 383 338.8 380C337.4 377 333.8 375.6 331.4 377Z" fill="#F7E017" stroke="black" stroke-width="0.4"/>
<path d="M299.1 152.4C300.1 150.8 301.1 149.2 302.3 147.9M334.6 181.8C336.2 180.7 338.6 180.6 341.5 180.8M332 398.9C331.4 397.8 331.1 393.1 331.6 390.3M337.3 397.6C336.3 396.6 334.3 393.4 333.9 390.6M340.8 394.5C338.334 392.067 336.542 389.034 335.6 385.7M344 389.2C342.5 388.8 337.8 385.2 335.8 381.3" stroke="black" stroke-width="0.4"/>
<path d="M429.9 263C452.8 286 454.2 304.1 450.7 314.8C448.9 304.8 439.4 289.3 429.5 285.3L429.9 263Z" fill="#F7E017" stroke="black" stroke-width="0.4"/>
<path d="M389 250.2H431.4V310C431.4 361 407.5 391.2 383.4 407.2C359.1 391.2 335.3 361 335.3 310V250H365C365 253.2 365.3 257.8 368.3 262.5C375.3 261.7 383.3 255.5 388.8 250.1L389 250.2Z" fill="#337321" stroke="black" stroke-width="0.4"/>
<path d="M431.4 250.2V310C431.4 325.4 429.2 339 425.5 350.7L383.4 258.5L341.2 350.7C337.176 337.512 335.186 323.788 335.3 310V250L431.4 250.2Z" fill="#006EC7" stroke="black" stroke-width="0.4"/>
<path d="M426.8 346.4C426 349.1 424.7 353.5 423.6 356.2L383.4 267L343 356.2C342 353.5 340.6 349.2 339.8 346.4L383.3 250.4L426.8 346.4Z" fill="#F7E017"/>
<path d="M402.5 379.2L406.5 381.6C408.695 375.349 409.381 368.667 408.5 362.1C406 369.4 397.8 369.1 395.6 373.6C397 374.4 398.2 375.5 399.3 376.4C395.694 380.663 391.275 384.165 386.3 386.7V339C386.3 335.6 385.3 332.8 385.3 330V320.2C385.3 318 385 314.8 383.3 314.8C381.6 314.8 381.3 318 381.3 320.2V330.1C381.3 332.8 380.3 336.1 380.3 339V386.6C378.3 379.5 370.3 381.9 366.5 374.8C368 374.4 369.5 374.2 371 374.6C368.2 363.3 360.6 362.4 359.1 359C359.1 363.7 357.4 374.6 360.1 379.3C360.6 378.4 361.5 377.5 362.6 376.8C365.7 385 380 385 383.3 398.6C386 393.6 395.7 387.8 402.5 379.1V379.2Z" fill="#F7E017" stroke="black" stroke-width="0.4"/>
<path d="M383.3 339.6C386.5 339.6 396.5 338.4 400.2 338.4C401.2 338.4 401.9 336.7 401.9 334.6C401.9 332.6 401.1 330.9 400.2 330.9C396.6 330.9 386.5 329.7 383.3 329.7C380.2 329.7 370.1 330.9 366.5 330.9C365.5 330.9 364.7 332.6 364.7 334.6C364.7 336.7 365.5 338.4 366.5 338.4C370.1 338.4 380.2 339.6 383.3 339.6ZM381.3 320.1C380.607 319.488 379.724 319.134 378.8 319.1C376.7 319.1 374.9 321 374.9 323.2C374.9 325.5 376.6 327.4 378.8 327.4C380.8 327.4 382.6 325.5 382.6 323.2C382.6 321.5 384.7 321.5 384.7 323.2C384.7 326.9 382.1 329.8 378.7 329.8C375.4 329.8 372.7 326.8 372.7 323.2C372.7 319.6 375.5 316.7 378.7 316.7C379.7 316.7 380.7 317 381.5 317.5L381.3 320.1Z" fill="#F7E017" stroke="black" stroke-width="0.4"/>
<path d="M366.5 338.4C367.5 338.4 368.2 336.7 368.2 334.6C368.2 332.6 367.4 330.9 366.5 330.9" fill="#F7E017"/>
<path d="M366.5 338.4C367.5 338.4 368.2 336.7 368.2 334.6C368.2 332.6 367.4 330.9 366.5 330.9" stroke="black" stroke-width="0.4"/>
<path d="M367.9 338.4C368.9 338.4 369.6 336.7 369.6 334.6C369.6 332.6 368.8 330.9 367.9 330.9M377 339.2C378.2 339.2 379.1 337.2 379.1 334.6C379.1 332.1 378.2 330.1 377.1 330.1M379.2 339.4C380.4 339.4 381.4 337.2 381.4 334.6C381.4 332 380.4 329.9 379.2 329.9M386.4 339.4C387.6 339.4 388.5 337.3 388.5 334.6C388.5 332 387.5 329.8 386.4 329.8M388.6 339.3C389.8 339.3 390.8 337.3 390.8 334.6C390.8 332.1 389.8 330 388.6 330M398.6 338.5C399.6 338.5 400.4 336.8 400.4 334.6C400.4 332.5 399.6 330.8 398.6 330.8M362.6 376.9C363.7 376.1 365.1 375.3 366.6 374.9ZM400.5 377.4L399.4 376.4ZM402.5 379.2C405.252 375.846 407.294 371.967 408.5 367.8Z" fill="#F7E017"/>
<path d="M367.9 338.4C368.9 338.4 369.6 336.7 369.6 334.6C369.6 332.6 368.8 330.9 367.9 330.9M377 339.2C378.2 339.2 379.1 337.2 379.1 334.6C379.1 332.1 378.2 330.1 377.1 330.1M379.2 339.4C380.4 339.4 381.4 337.2 381.4 334.6C381.4 332 380.4 329.9 379.2 329.9M386.4 339.4C387.6 339.4 388.5 337.3 388.5 334.6C388.5 332 387.5 329.8 386.4 329.8M388.6 339.3C389.8 339.3 390.8 337.3 390.8 334.6C390.8 332.1 389.8 330 388.6 330M398.6 338.5C399.6 338.5 400.4 336.8 400.4 334.6C400.4 332.5 399.6 330.8 398.6 330.8M362.6 376.9C363.7 376.1 365.1 375.3 366.6 374.9M400.5 377.4L399.4 376.4M402.5 379.2C405.252 375.846 407.294 371.967 408.5 367.8" stroke="black" stroke-width="0.4"/>
<path d="M374.8 292.6C374.8 291.5 375.5 291 376.4 290.2C377.4 289.3 377.9 288.8 378.8 288.8H391.1C391.9 288.8 392.1 289.1 392.1 290.1V310C392.1 311 392 311.3 391.1 311.3H374.8V292.4" fill="white"/>
<path d="M374.8 292.6C374.8 291.5 375.5 291 376.4 290.2C377.4 289.3 377.9 288.8 378.8 288.8H391.1C391.9 288.8 392.1 289.1 392.1 290.1V310C392.1 311 392 311.3 391.1 311.3H374.8V292.4" stroke="black" stroke-width="0.4"/>
<path d="M388 313C389.6 313 389.4 312.9 390.5 311.5C391.7 310.1 391.5 310.3 391.5 309V290.8C391.5 289.9 391.3 289.6 390.5 289.6H379.2C378.3 289.6 377.9 290.1 377 291C376.2 291.7 375.5 292.1 375.5 293.1V313H388Z" fill="#E5E5E5" stroke="black" stroke-width="0.4"/>
<path d="M389.2 312.5C389.2 313.5 389 313.8 388.2 313.8H375.9C374.9 313.8 374.8 313.5 374.8 312.5V292.7C374.8 291.7 375 291.4 375.9 291.4H388.1C389.1 291.4 389.2 291.7 389.2 292.7V312.5Z" fill="white" stroke="black" stroke-width="0.4"/>
<path d="M413 238.6C415.3 241.7 416 246 414.8 250.1H411.2C412.7 244.8 411.8 239.7 405.5 239.1C396 238.1 385 259.9 368.5 262.6C363.5 255.7 363.8 242.6 370 236.4C366.8 225.4 360.1 213.4 355.5 208.3C352.5 207.7 348.9 207.3 346.6 207.5C349.754 200.845 355.03 195.428 361.6 192.1C362.4 190.5 363.4 189.1 364.3 187.7C364.9 179.1 399 183.1 406.3 188.4C406.3 198 409.3 229.9 412.9 238.6H413Z" fill="#96877D" stroke="black" stroke-width="0.4"/>
<path d="M371.6 244.4C370.8 229.6 365.8 217.4 358.8 209.1C361.336 209.828 364.009 209.945 366.599 209.441C369.189 208.937 371.622 207.826 373.7 206.2C379.7 201.4 395.8 192.8 401.7 196.5C402.2 197.7 402.4 200.5 402.1 202.2C400.7 197.8 385.2 204.7 380.8 206.8C376.7 209.1 374.8 212.2 376.3 219.2C373.9 216.8 374.7 214.4 372.2 212.7C373.2 215.6 374 220.7 374.3 225C373.3 222 371.7 215.6 368.1 211.8C371.912 222.776 373.477 234.407 372.7 246C375.2 246 380.7 243 382.9 241C381 244.3 375.4 246.6 371.7 247.5C369.913 251.137 369.021 255.149 369.1 259.2C368.8 255.1 369.9 245 371.6 244.4ZM413 238.6C409.8 234.5 404 232.3 396.7 234.6C397.9 234 400.3 232.9 402.4 232.4C402.2 230.1 400.4 220.1 400.1 217.7L402.1 216.7C403.1 222.7 404.5 229.5 405.3 232.3C406 232.5 407.5 232.9 408.8 233.7C408.2 231.3 405 214.6 405.1 212.7L407.9 211C408.718 220.334 410.392 229.573 412.9 238.6H413Z" fill="black"/>
<path d="M411.3 250.2C412.7 244.8 411.8 239.8 405.5 239.1C400.5 238.6 395.3 244.3 389 250.1L411.3 250.2ZM370.1 202.3C367.3 202.8 361.1 202.1 357.9 200.9C358.1 199.9 358.4 198.9 358.9 197.8C356.9 199.3 353.2 202.3 351.8 204.5C356.2 205.5 365.5 206.1 370.1 202.3Z" fill="#96877D" stroke="black" stroke-width="0.4"/>
<path d="M370 236.4C371 240 371.7 243.4 371.8 246.4M361.6 192.1C359.9 195.1 358.4 198.2 357.9 200.9C361.1 202.1 367.3 202.8 370.1 202.3" stroke="black" stroke-width="0.4"/>
<path d="M355.5 208.3L358.8 209.1C361.336 209.828 364.009 209.945 366.599 209.441C369.188 208.937 371.622 207.826 373.7 206.2C378.3 202.2 391 189.8 405.3 188.5" stroke="black" stroke-width="0.4"/>
<path d="M351.8 204.5C356.3 205.5 365.5 206.1 370.1 202.3C378.901 194.286 389.982 189.217 401.8 187.8" stroke="black" stroke-width="0.4"/>
<path d="M429.9 263C445.5 276 457 288.4 460.4 308.3C463.8 328.3 470.1 333.6 477.9 328.3C476 339.8 466.4 341.2 458.2 332.3C458.9 345.6 454.5 361.6 442.9 367.3C442.2 359.3 446.6 353.1 445.3 346.5C444.8 343.6 444.6 336.9 447.8 333.8C441.6 336.3 431.9 331.6 431 320.8C438 324.8 447.2 325.4 450.7 314.8C454.2 304.1 452.7 285.9 429.9 263.1V263ZM449.6 159.2C454.4 144.2 467.1 145.7 471.4 152.1C483.9 143.7 485.5 162.7 496.2 159C495.998 160.874 495.089 162.6 493.658 163.826C492.227 165.053 490.383 165.687 488.5 165.6C492.6 170 486.8 176.7 495.5 180.7C488.1 185.1 477.7 180.5 474.9 168.3C472.5 174 463.8 174 460.2 169.3C467.9 167 467.3 158.5 463 155.2C458.7 151.8 451 153.2 449.6 159.2ZM411.8 192.4C415.16 205.118 421.463 216.867 430.2 226.7C439.2 236.4 452.7 234 460.2 224.7C460.4 243.2 444.2 244.7 435.2 238.9C431.3 236.3 428.2 237.6 431.9 241.7C437.7 248 450.3 252.6 465.2 256.4C491.2 263 482 287.7 474.4 287.4C476.6 287.4 478.4 284.7 475.2 281.3C452.6 257 406.6 266.6 407.3 212.4C402.5 226.6 382.6 221.1 391.9 204.2C394.9 207.1 400.1 207.3 401.6 202.9C402.8 199.4 402 193.4 396.8 188.3C397.6 188.2 399.5 188.3 399.3 185.7C399.5 187.2 400.7 189.4 403.6 188.7C404.4 190.2 405.3 191.3 406.5 190.7C406.7 190.6 407.5 190.2 407.1 188.6C407.4 191.6 410.3 192.6 411.8 192.4Z" fill="#337321" stroke="black" stroke-width="0.4"/>
<path d="M435.3 238.9C446.1 247.3 458.3 247.3 469.5 231.8C473 226.8 478.6 222.7 482.5 222.2C486.5 221.7 486.3 217.3 489.2 216.4C487.4 215.8 486.6 213.1 483.8 213.4C490.8 210.6 488.8 203.9 492.2 200.7C489.4 201.9 485 196.9 481 203.3C482 200.3 480.7 196.9 479.7 195.6C480 198.9 474.2 199.6 473 208C472.4 212.8 470.3 212.5 469.9 205.1C469.6 199.8 467.5 184.9 464.9 177.4C462.3 169.9 461.7 159.5 465.2 158C464.7 156.9 463.9 156 463 155.2C458.7 151.9 451.1 153.2 449.6 159.2C444.8 174.3 458.4 183 457.2 199.4C455.2 187.2 438.6 184.1 438.8 172.1C433.4 175 434.2 180.3 436.2 184.5C432.9 178.3 425.2 188.5 418.7 180.1C418 191.2 426.2 195.4 432.9 195.9C432.249 197.241 431.875 198.7 431.8 200.19C431.725 201.679 431.951 203.168 432.464 204.568C432.978 205.968 433.768 207.25 434.788 208.338C435.807 209.426 437.036 210.297 438.4 210.9C438.6 198.5 460 203.6 460.2 224.9C460.4 243.1 444 244.6 435.2 238.9H435.3ZM465.2 256.4C491.2 263 482 287.7 474.4 287.4C469.5 287.4 464.9 282.4 464.6 278.3C459 281.8 460.5 288.8 464.8 291.6C453 289.9 448.1 299.1 447.8 309.2C450 304.5 456.5 304.2 458.9 305.2C461.3 306.2 467.6 306.8 470.1 303.4C468.1 305.5 471.4 310.4 468.5 314.2C478.3 313.7 482.5 302.9 480.9 298.1C493.5 284.4 491.1 261.9 465.2 256.4ZM445.4 361.8C447.1 363.1 446.9 365.8 445.7 367.4C443.4 370.8 446.9 378.8 439.8 380.2C437.7 380.6 436.2 379 435.5 376.2C433.5 368.2 440.5 367.7 441.3 364C442 360.3 444 360.8 445.4 361.8Z" fill="#F7E017" stroke="black" stroke-width="0.4"/>
<path d="M439 376.2C441.3 377.6 443.3 379.5 442 388.3C441.5 392 441.4 401 444.1 401.3C442.4 402.1 438.9 403 437.5 400.7C436 403.4 432.8 402.4 431.7 398.9C430 400.4 427.7 397.6 427.9 395.2C426.4 396.2 423.5 394.5 424.4 389.2C422.6 389.9 420.4 388.3 419.6 386.9C422.2 386.4 428.9 382.5 430.6 379.2C432.2 376 436.3 374.6 439 376.2Z" fill="#F7E017" stroke="black" stroke-width="0.4"/>
<path d="M437.5 400.7C438.2 399.5 438.7 394.3 438.2 391.1M431.7 399C432.9 398 435.2 394.4 435.7 391.3M427.9 395.3C429.3 394.5 433 389.3 433.9 385.7M424.4 389.3C428.334 387.502 431.617 384.534 433.8 380.8" stroke="black" stroke-width="0.4"/>
<path d="M407.3 212.5C407 235.2 415 246.7 426 254.2C421.9 251.2 423.6 241.3 418.1 238.1C419.4 238 421.5 240.1 424.7 239.3C423.2 235.1 420.6 228.7 414.5 227.8C416.1 227.6 419.5 228.2 421.8 227.2C418.6 221.4 410.2 224.2 407.3 212.5ZM405.4 190.8C404.7 190.5 404.1 189.8 403.6 188.8C400.6 189.5 399.6 187.2 399.3 185.8C399.5 188.3 397.6 188.2 396.8 188.3C402 193.5 402.8 199.5 401.6 202.9C400.1 207.3 394.9 207.1 391.9 204.2C391.5 213.7 401.8 216.8 405.5 204.9C405.5 206.9 407.6 206.7 408.2 209.3C410.8 204.3 408.8 196.9 405.4 190.8Z" fill="#F7E017" stroke="black" stroke-width="0.4"/>
<path d="M389 145.8C384.715 140.55 382.383 133.977 382.4 127.2C382.6 122.4 384.3 117 390.2 119.2C388.4 119.2 389.7 123.7 387.7 124.2C389.3 124.8 391.4 123.2 391.7 122.2C392.1 123.8 394.5 123.4 394.7 125.2C395.7 124.2 394.7 119.9 393.2 119C394.2 118.4 394.8 115 394.3 113.3C393.4 113.5 392 115 391.7 117.3C392.2 115.5 391.7 111 389 110.3C388.3 111.6 388.1 114.6 389.1 116.3C386.7 115.6 383.1 117.5 382.3 119.9C382.5 116.9 382.9 112.8 384.3 110.1C384.9 109.2 383.6 107.7 382.7 109.8C380.8 105.6 376 103.4 373.9 105.5C371.7 107.5 368.9 104.5 367.1 107.8C365.3 111.1 359.3 111.5 359.6 115C359.8 117.1 359.4 120.4 358.5 121.6C356.4 124.4 359.5 126.6 360.1 129.1C359.7 120.7 371 104.3 382.3 110.7C381.3 112.8 380.3 117 380 122.1C379.5 129.7 380.5 140.3 386.6 146.5L389 145.8Z" fill="#337321" stroke="black" stroke-width="0.4"/>
<path d="M392.4 119.3C392.3 117.3 395.2 114.7 399.1 114.8C403.8 114.8 407.4 120 411.1 119.5C414.9 119 413.1 121.5 412.3 122.1C411.87 122.457 411.549 122.927 411.373 123.457C411.196 123.987 411.171 124.556 411.3 125.1C411.6 126.3 411.1 127.1 409.6 125.9C406.2 123.4 402.9 126.9 398.5 124.9C394.7 123.3 392.5 122.3 392.4 119.3Z" fill="#C8102E" stroke="black" stroke-width="0.4"/>
<path d="M373.2 171.7C371.3 164.7 364.2 157.1 360.8 155.3L360.6 151.6C362.5 150.6 367 146.5 369 144.1C383 152.1 402 140.8 410.7 129.1L414.1 131.5L412.4 134.1L410.6 133C408.5 136.1 400.5 145 398.1 147C400.997 147.852 403.984 148.355 407 148.5C414.8 141.9 421 135.9 424 135.5L426.4 139.5L424.2 141.3L422.4 140.1C412.707 151.253 405.361 164.245 400.8 178.3C395.6 176.9 377 177.8 373.2 171.7Z" fill="#96877D" stroke="black" stroke-width="0.4"/>
<path d="M398 147C396.8 146.6 395.8 146.2 395.2 145.8C393.7 147.4 390 148.8 385.2 149.1" stroke="black" stroke-width="0.4"/>
<path d="M374 169.3C372.7 161 374.7 151.8 378.2 149.1C382.419 152.13 387.507 153.709 392.7 153.601C397.893 153.493 402.911 151.703 407 148.5" stroke="black" stroke-width="0.4"/>
<path d="M374 165C379.9 164.7 392.8 166 396 166.5C399.1 167.1 404.4 168.6 403.7 170.5M376.7 163.8L378.4 161.8L376.7 159.8L375 161.8L376.7 163.8Z" stroke="black" stroke-width="0.4"/>
<path d="M380.7 122.5C378.6 118.9 372.7 117.8 371.4 122.5C370.9 124.7 370 126.9 368.6 127.9C367.2 128.9 367.6 131.9 368.2 133.2C369.6 136.5 368.3 139.6 371.2 141.7C371.2 139.1 374.4 136.5 377.1 135.8C379.8 135.1 383.9 132.3 384.4 129C385 125.8 385.9 123.1 380.7 122.5Z" fill="#337321" stroke="black" stroke-width="0.4"/>
<path d="M367.3 154.4H368.1V160.4L368.5 160.7L372.9 157.7L373.3 158.5L368.9 161.5V162.1L373.3 165.1L372.9 165.9L368.5 162.9C368.394 163.032 368.257 163.135 368.1 163.2V169.2H367.3V163.2L366.9 162.9L362.5 165.9L362.1 165.2L366.5 162.2V161.6L362.1 158.6L362.5 157.8L366.9 160.8L367.3 160.5V154.4Z" fill="#96877D" stroke="black" stroke-width="0.4"/>
<path d="M374 169.2C373.25 170.156 372.294 170.932 371.203 171.468C370.113 172.005 368.915 172.289 367.7 172.3C362.8 172.3 358.9 167.6 358.9 161.8C358.9 156 362.8 151.3 367.7 151.3C370.5 151.3 373.1 152.9 374.7 155.4C374.2 156.8 373.7 159.7 373.7 161.1C373.3 157.5 370.7 154.6 367.7 154.6C364.3 154.6 361.7 157.9 361.7 161.8C361.7 165.8 364.3 169 367.7 169C370.4 169 372.9 166.7 373.5 163.6C373.5 165 373.6 168.2 373.9 169.2H374Z" fill="#96877D" stroke="black" stroke-width="0.4"/>
<path d="M364 179.3C363.078 177.975 362.557 176.413 362.5 174.8C363.3 174.8 364.9 175.4 365.6 176.3C365.6 175.1 365.2 172.7 365.4 171.6C366.4 172.1 368.5 173.5 369.3 175.1C369.1 174.1 368.7 171.1 369.1 169.4C370.2 170.2 372.1 172.3 372.5 173.7C372.5 171.5 373.2 167.8 373.8 166.9C374.6 167.9 375.9 168.9 376.8 170.2C376.9 168.4 377.7 166.2 378.8 165.7C380.111 167.679 380.934 169.941 381.2 172.3C382 171.9 383.2 170.3 383.6 169.3C384.1 170.3 384.6 171.8 384.3 173.7C385.44 172.585 386.298 171.214 386.8 169.7C387.5 170.4 388.9 172 389.3 173.8C389.1 172.4 389.2 169.8 388.8 168.4C390.2 169.2 391.3 170.8 391.6 172.4C392 170.9 392.8 168.2 393.6 167.4C394.43 169.187 394.873 171.13 394.9 173.1C395.4 172.1 396.2 170.1 396.9 169.6C397.5 170.8 397.5 173.5 397.3 174.9C397.975 173.805 398.858 172.854 399.9 172.1C399.9 172.7 400.1 174.1 399.9 175.1C400.7 174.5 402.1 171.5 402.6 169.9C403.9 170.7 405.2 173.4 405.3 174.7C406.645 173.791 407.772 172.596 408.6 171.2C408.6 171.9 408.9 174.1 408.6 175.7C409.1 175 409.6 173.7 409.9 173.1C410.3 174.3 410 176.9 409.7 178.3C410.5 177.5 411.7 176.9 412.5 176.9C412.5 178.8 411.5 182.1 410.4 184.6C401.4 181.6 382.8 180.5 364 179.3Z" fill="#337321" stroke="black" stroke-width="0.4"/>
<path d="M395.1 120.5C395.1 119.7 396.6 117.8 399.4 117.8C402.6 117.8 405.7 120.8 408.4 120.5C411 120.3 409.7 121.4 409.1 121.6C408.5 121.9 408.2 122.3 408.4 122.8C408.6 123.3 408.3 123.6 407.2 123.2C404.8 122.2 402.5 123.6 399.4 122.8C396.7 122.1 395.2 121.8 395.1 120.5Z" fill="#F7E017"/>
<path d="M366.9 186C364.1 190 361.3 189.3 360.7 186.7C360.2 184.1 362.2 182.9 361.5 180.7C360.7 178.5 362.7 177.5 363.6 178.5C364.6 179.5 367.6 176.3 368.8 179.6C370.1 182.9 371.2 185.3 370.4 186.6C369.7 187.9 367.4 187.3 366.9 185.9V186ZM378.9 180C378.3 178.5 381.2 175.7 382.7 177.7C384.2 179.7 386.6 175.5 387.9 178.7L390.2 185.2C390.9 187 386.7 188 385.4 186.4C385.6 187.4 381.8 188.3 380.7 185.3L378.9 179.9V180ZM398.2 181.8C397.5 180.2 400.9 178 402.7 180.8C403.2 179.7 406.5 179.4 406.7 182.8L407.2 189.6C407.2 190.9 405.2 192.1 403.6 188.7C400.8 189.4 399.6 187.6 399.3 185.7L398.2 181.8Z" fill="#F7E017" stroke="black" stroke-width="0.4"/>
<path d="M368.7 179.6C368.2 178.4 371 176.2 372.9 177.9C374.9 179.6 377.5 176.5 378.6 179.4C380.9 185.5 381 185.9 380.4 187.1C379.7 188.3 376.7 187.8 375.9 186.2C375.8 187.3 373.2 187.2 371.9 186.2C370.3 185.2 369.3 181.6 368.7 179.6ZM388.3 179.8C387.6 178.1 392 176.6 393.9 179.6C394.9 178.6 397 178.5 398.2 181.8C399.4 185 399.6 186.8 398.7 187.7C398.1 188.3 395.8 188.7 395.1 187.2C394.1 188 390.9 187.3 390.2 185.2C389.5 183.2 388.9 181.3 388.2 179.8H388.3ZM406.8 183.1C406.7 181.6 409.1 180.8 409.9 183.1C410.9 185.4 413.7 183.3 413.9 187.1C413.9 187.8 413.6 190.6 412.7 191.9C411.8 193.3 407.5 191.9 407.2 189.1C406.9 186.2 406.8 184.6 406.8 183.1Z" fill="#337321" stroke="black" stroke-width="0.4"/>
<path d="M366.9 186C365.9 184.3 364.4 181.6 362.7 184.5M376 186.2C375.256 185.056 374.683 183.81 374.3 182.5M385.4 186.4C384.483 185.626 383.735 184.674 383.2 183.6M384.5 180.6C386.2 180.8 387.3 182.6 387.8 183.5C388.3 184.3 389.4 185.8 390.2 186M395.1 187.3C394.5 186.2 394 185.3 393.9 184.5M393.9 179.6C394.5 180.6 394.9 181.3 395.2 182.2M403.6 188.7C402.975 187.178 401.936 185.861 400.6 184.9M403.2 182.6C403.3 185.9 407 186.1 407.2 188.4M410 183.1C410.3 183.9 410.5 184.8 410.5 186.1" stroke="black" stroke-width="0.4"/>
<path d="M0 0H256V256H0V0Z" fill="#012169"/>
<path d="M256 0V32L161 128L256 221.5V256H222.5L127 162L34 256H0V222L93 128.5L0 37V0H31L127 94L220 0H256Z" fill="white"/>
<path d="M92 162L97.5 179L21 256H0V254.5L92 162ZM154 156L181 160L256 233.5V256L154 156ZM256 0L160 98L158 76L233 0H256ZM0 0.5L96.5 95L67 91L0 24.5V0.5Z" fill="#C8102E"/>
<path d="M88 0V256H168V0H88ZM0 88V168H256V88H0Z" fill="white"/>
<path d="M0 104V152H256V104H0ZM104 0V256H152V0H104Z" fill="#C8102E"/>
</g>
<defs>
<clipPath id="clip0_2_7525">
<rect width="512" height="512" fill="white"/>
</clipPath>
</defs>
</svg>
