<svg width="512" height="512" viewBox="0 0 512 512" fill="none" xmlns="http://www.w3.org/2000/svg">
<g clip-path="url(#clip0_2_7577)">
<mask id="mask0_2_7577" style="mask-type:luminance" maskUnits="userSpaceOnUse" x="-1" y="0" width="514" height="513">
<path d="M-0.0195312 0H512.009V512.029H-0.0195312V0Z" fill="white"/>
</mask>
<g mask="url(#mask0_2_7577)">
<path fill-rule="evenodd" clip-rule="evenodd" d="M-37.3 0H730.707V512.029H-37.3V0Z" fill="#ED0000"/>
<path fill-rule="evenodd" clip-rule="evenodd" d="M-37.3 102.377H730.707V204.826H-37.3V102.377ZM-37.3 307.203H730.707V409.58H-37.3V307.203Z" fill="white"/>
<path fill-rule="evenodd" clip-rule="evenodd" d="M-37.3 0L403.419 255.689L-37.3 511.017V0Z" fill="#0050F0"/>
<path fill-rule="evenodd" clip-rule="evenodd" d="M156.472 325.482L109.004 290.08L61.8255 325.843L79.382 267.683L32.2034 231.775L90.5083 231.269L108.571 173.325L127.066 231.125L185.371 231.197L138.482 267.466L156.472 325.482Z" fill="white"/>
</g>
</g>
<defs>
<clipPath id="clip0_2_7577">
<rect width="512" height="512" fill="white"/>
</clipPath>
</defs>
</svg>
