<svg width="512" height="512" viewBox="0 0 512 512" fill="none" xmlns="http://www.w3.org/2000/svg">
<g clip-path="url(#clip0_2_7596)">
<path d="M204.8 0H512V512H204.7L204.8 0Z" fill="#FF0000"/>
<path d="M-9.76548e-05 0H204.8V512H-0.100098L-9.76548e-05 0Z" fill="#006600"/>
<path fill-rule="evenodd" clip-rule="evenodd" d="M293.8 326.6C259.4 325.6 101.8 227.2 100.8 211.5L109.4 197C125 219.7 286.2 315.4 302 312L293.8 326.6Z" fill="#FFFF00" stroke="black" stroke-width="0.7" stroke-linecap="round" stroke-linejoin="round"/>
<path fill-rule="evenodd" clip-rule="evenodd" d="M107.6 195C104.5 203.3 148.7 230.6 201.9 263C255.1 295.3 300.9 315.3 304.4 312.5L305.9 309.6C305.3 310.6 303.7 310.9 301.3 310.2C286.9 306 249.4 288.8 203 260.7C156.6 232.6 116.2 206.6 110 195.6C109.489 194.578 109.248 193.442 109.3 192.3H109.1L107.8 194.6L107.6 195ZM294.6 327C294 328.1 292.9 328.1 290.9 328C278 326.5 238.9 307.5 192.9 279.9C139.1 247.7 94.7001 218.4 99.6001 210.8L100.9 208.4L101.1 208.5C96.8001 221.5 188.7 274 194.1 277.4C247.2 310.4 292.1 329.6 296.1 324.6L294.6 327Z" fill="#FFFF00" stroke="black" stroke-width="0.7" stroke-linecap="round" stroke-linejoin="round"/>
<path fill-rule="evenodd" clip-rule="evenodd" d="M205 221C239.3 220.7 281.8 216.3 306.2 206.6L301 198C286.5 206 243.9 211.3 204.7 212C158.3 211.6 125.6 207.3 109.2 196.3L104.2 205.4C134.4 218.1 165.2 220.9 205 221Z" fill="#FFFF00" stroke="black" stroke-width="0.7" stroke-linecap="round" stroke-linejoin="round"/>
<path fill-rule="evenodd" clip-rule="evenodd" d="M307.7 206.8C306.8 208.1 290.9 213.6 267.4 217.6C246.679 220.708 225.753 222.245 204.8 222.2C184.737 222.289 164.691 221.02 144.8 218.4C120.3 214.5 107.5 209.1 102.8 207.2L104 204.9C117.298 210.141 131.157 213.832 145.3 215.9C165.027 218.48 184.906 219.717 204.8 219.6C225.586 219.614 246.343 218.076 266.9 215C290.9 211.1 304.1 206.1 305.9 203.8L307.7 206.8ZM303 198C300.4 200 287.4 204.7 264.6 208.3C244.894 211.129 225.009 212.532 205.1 212.5C185.903 212.646 166.72 211.409 147.7 208.8C124.4 205.8 112.1 200.3 107.7 198.7L109 196.4C112.4 198.2 124.4 203 148 206.4C166.933 208.854 186.01 210.023 205.1 209.9C224.842 209.927 244.561 208.523 264.1 205.7C287.1 202.5 299.5 196.7 301.4 195.2L303 198ZM92.0001 262.4C113.2 273.8 160.1 279.6 204.6 280C245.1 280 297.9 273.7 317.6 263.2L317 251.8C310.9 261.5 254.4 270.8 204.2 270.4C154 270 107.4 262.2 91.9001 252.2V262.4" fill="#FFFF00"/>
<path d="M92.0001 262.4C113.2 273.8 160.1 279.6 204.6 280C245.1 280 297.9 273.7 317.6 263.2L317 251.8C310.9 261.5 254.4 270.8 204.2 270.4C154 270 107.4 262.2 91.9001 252.2V262.4M307.7 206.8C306.8 208.1 290.9 213.6 267.4 217.6C246.679 220.708 225.753 222.245 204.8 222.2C184.737 222.289 164.691 221.02 144.8 218.4C120.3 214.5 107.5 209.1 102.8 207.2L104 204.9C117.298 210.141 131.157 213.832 145.3 215.9C165.027 218.48 184.906 219.717 204.8 219.6C225.586 219.614 246.343 218.076 266.9 215C290.9 211.1 304.1 206.1 305.9 203.8L307.7 206.8ZM303 198C300.4 200 287.4 204.7 264.6 208.3C244.894 211.129 225.009 212.532 205.1 212.5C185.903 212.646 166.72 211.409 147.7 208.8C124.4 205.8 112.1 200.3 107.7 198.7L109 196.4C112.4 198.2 124.4 203 148 206.4C166.933 208.854 186.01 210.023 205.1 209.9C224.842 209.927 244.561 208.523 264.1 205.7C287.1 202.5 299.5 196.7 301.4 195.2L303 198Z" stroke="black" stroke-width="0.7" stroke-linecap="round" stroke-linejoin="round"/>
<path fill-rule="evenodd" clip-rule="evenodd" d="M318.7 260.8V263.5C315.7 267.1 297.1 272.5 273.8 276.2C250.721 279.552 227.421 281.157 204.1 281C176.7 281 154.9 279 137.9 276.4C121.589 274.546 105.646 270.266 90.6001 263.7V260.5C101 267.4 128.9 272.4 138.3 273.9C155.1 276.5 176.8 278.4 204.1 278.4C232.8 278.4 255.8 276.4 273.4 273.7C290.2 271.3 314 265 318.7 260.8ZM318.7 251.1V253.9C315.7 257.4 297.1 262.8 273.8 266.5C250.721 269.852 227.421 271.457 204.1 271.3C176.7 271.3 154.9 269.3 138 266.8C121.65 264.921 105.673 260.607 90.6001 254V250.8C101 257.7 128.9 262.8 138.3 264.2C155.2 266.8 176.9 268.8 204.1 268.8C232.8 268.8 255.8 266.8 273.4 264C290.2 261.6 314 255.3 318.7 251.1ZM204.5 324.6C155.9 324.3 114.2 311.4 105.4 309.2L111.8 319.2C127.3 325.8 168 335.6 205 334.5C242 333.4 274.3 330.5 297 319.5L303.6 309C288.1 316.3 235.3 324.6 204.6 324.6" fill="#FFFF00"/>
<path d="M204.5 324.6C155.9 324.3 114.2 311.4 105.4 309.2L111.8 319.2C127.3 325.8 168 335.6 205 334.5C242 333.4 274.3 330.5 297 319.5L303.6 309C288.1 316.3 235.3 324.6 204.6 324.6M318.7 260.8V263.5C315.7 267.1 297.1 272.5 273.8 276.2C250.721 279.552 227.421 281.157 204.1 281C176.7 281 154.9 279 137.9 276.4C121.589 274.546 105.646 270.266 90.6001 263.7V260.5C101 267.4 128.9 272.4 138.3 273.9C155.1 276.5 176.8 278.4 204.1 278.4C232.8 278.4 255.8 276.4 273.4 273.7C290.2 271.3 314 265 318.7 260.8ZM318.7 251.1V253.9C315.7 257.4 297.1 262.8 273.8 266.5C250.721 269.852 227.421 271.457 204.1 271.3C176.7 271.3 154.9 269.3 138 266.8C121.65 264.921 105.673 260.607 90.6001 254V250.8C101 257.7 128.9 262.8 138.3 264.2C155.2 266.8 176.9 268.8 204.1 268.8C232.8 268.8 255.8 266.8 273.4 264C290.2 261.6 314 255.3 318.7 251.1Z" stroke="black" stroke-width="0.7" stroke-linecap="round" stroke-linejoin="round"/>
<path fill-rule="evenodd" clip-rule="evenodd" d="M299.5 317.1C298.526 318.584 297.526 320.051 296.5 321.5C285.153 325.264 273.558 328.238 261.8 330.4C242.932 333.872 223.785 335.612 204.6 335.6C161.5 335 126.2 326.6 109.6 319.4L108.2 317.1L108.5 316.7L110.7 317.6C141.062 327.661 172.815 332.891 204.8 333.1C224.8 333.2 244.8 330.8 260.9 328C285.7 323 295.7 319.3 298.8 317.6L299.5 317.1ZM305.2 307.7H305.3C304.576 308.972 303.843 310.239 303.1 311.5C297.4 313.5 281.8 318.1 259.1 321.3C244.1 323.3 234.8 325.3 205.1 325.9C171.071 325.533 137.254 320.486 104.6 310.9L103.4 308.4C136.567 317.502 170.718 322.539 205.1 323.4C232.3 322.8 243.9 320.8 258.7 318.7C285.2 314.7 298.5 310.3 302.5 309C302.469 308.932 302.436 308.865 302.4 308.8L305.2 307.7Z" fill="#FFFF00" stroke="black" stroke-width="0.6" stroke-linecap="round" stroke-linejoin="round"/>
<path fill-rule="evenodd" clip-rule="evenodd" d="M305.8 253.4C306 285.4 289.6 314.2 276.4 326.9C257.01 345.758 231.145 356.491 204.1 356.9C171.8 357.5 141.4 336.4 133.2 327.2C117.2 309.1 104.2 286.2 103.8 255.2C105.8 220.2 119.5 195.9 139.4 179.2C158.656 163.361 182.868 154.795 207.8 155C233.2 155.7 263 168.2 283.5 193C296.9 209.2 302.8 226.8 305.8 253.5V253.4ZM204.4 143.8C266.4 143.8 317.4 194.3 317.4 256.1C317.215 285.948 305.228 314.511 284.057 335.551C262.885 356.591 234.249 368.401 204.4 368.4C142.4 368.4 91.8 318 91.8 256.1C91.8 194.2 142.4 143.8 204.4 143.8Z" fill="#FFFF00" stroke="black" stroke-width="0.7" stroke-linecap="round" stroke-linejoin="round"/>
<path fill-rule="evenodd" clip-rule="evenodd" d="M204.7 143.4C266.7 143.4 317.3 194.1 317.3 256.1C317.3 318.1 266.7 368.8 204.7 368.8C174.817 368.721 146.182 356.808 125.061 335.668C103.94 314.528 92.0528 285.883 92 256C92.0792 226.134 103.978 197.515 125.097 176.397C146.215 155.278 174.834 143.379 204.7 143.3V143.4ZM94.5 256.1C94.5 316.7 144.3 366.3 204.7 366.3C265.1 366.3 314.8 316.7 314.8 256.1C314.8 195.5 265.1 146 204.7 146C175.523 146.105 147.569 157.736 126.928 178.358C106.287 198.98 94.6317 226.923 94.5 256.1Z" fill="#FFFF00" stroke="black" stroke-width="0.7" stroke-linecap="round" stroke-linejoin="round"/>
<path fill-rule="evenodd" clip-rule="evenodd" d="M204.8 152.8C261.3 152.8 307.9 199.3 307.9 256C307.9 312.8 261.3 359.2 204.8 359.2C177.445 359.121 151.231 348.226 131.878 328.892C112.526 309.558 101.606 283.355 101.5 256C101.5 199.3 148.1 152.8 204.7 152.8H204.8ZM104 256C104 311.4 149.5 356.7 204.8 356.7C260 356.7 305.5 311.4 305.5 256C305.5 200.6 260 155.3 204.7 155.3C149.4 155.3 104 200.6 104 256Z" fill="#FFFF00" stroke="black" stroke-width="0.7" stroke-linecap="round" stroke-linejoin="round"/>
<path fill-rule="evenodd" clip-rule="evenodd" d="M209.3 143H199.6V369.4H209.3V143Z" fill="#FFFF00" stroke="black" stroke-width="0.7" stroke-linecap="round" stroke-linejoin="round"/>
<path fill-rule="evenodd" clip-rule="evenodd" d="M208.3 141.7H210.8V370.7H208.3V141.7ZM198.7 141.7H201.2V370.7H198.7V141.7Z" fill="#FFFF00" stroke="black" stroke-width="0.7" stroke-linecap="round" stroke-linejoin="round"/>
<path fill-rule="evenodd" clip-rule="evenodd" d="M317.4 260.5V252L310.6 245.7L271.9 235.4L216.1 229.7L149.1 233.1L101.2 244.5L91.6001 251.7V260L116 249L174 240H229.8L270.8 244.5L299.2 251.4L317.4 260.5Z" fill="#FFFF00" stroke="black" stroke-width="0.7" stroke-linecap="round" stroke-linejoin="round"/>
<path fill-rule="evenodd" clip-rule="evenodd" d="M204.7 238.7C229.149 238.6 253.554 240.776 277.6 245.2C298.7 249.4 313.6 254.7 318.6 260.6V263.6C312.6 256.2 292.6 250.8 277.1 247.6C256.8 243.7 231.1 241.2 204.7 241.2C176.7 241.2 150.7 243.9 130.7 247.8C114.7 251 93.3001 257.3 90.6001 263.6V260.6C92.1001 256.2 108 249.7 130.4 245.2C154.914 240.752 179.786 238.577 204.7 238.7ZM204.7 229C229.182 228.905 253.62 231.081 277.7 235.5C298.7 239.7 313.7 245 318.7 251V253.9C312.6 246.5 292.5 241.1 277.1 238C256.8 234 231.1 231.5 204.7 231.5C179.949 231.423 155.244 233.633 130.9 238.1C115.4 241.1 93.1001 247.7 90.6001 253.9V250.9C92.1001 246.6 108.4 239.9 130.4 235.6C154.911 231.119 179.783 228.91 204.7 229ZM204.2 179.7C246.1 179.5 282.7 185.6 299.4 194.2L305.5 204.7C291 196.9 251.5 188.7 204.2 190C165.7 190.2 124.6 194.2 103.9 205.2L111.2 193C128.2 184.2 168.2 179.8 204.2 179.7Z" fill="#FFFF00" stroke="black" stroke-width="0.7" stroke-linecap="round" stroke-linejoin="round"/>
<path fill-rule="evenodd" clip-rule="evenodd" d="M204.7 188.4C228.7 188.4 251.7 189.7 270.1 193C287.2 196.2 303.6 201 305.9 203.6L307.7 206.8C302 203.1 287.9 198.9 269.7 195.5C248.21 192.077 226.457 190.571 204.7 191C177.7 191 156.7 192.3 138.7 195.5C119.7 199 106.5 204.1 103.2 206.5L105 203.2C111.3 199.9 121.4 196 138.3 193C156.9 189.6 178 188.6 204.7 188.4ZM204.7 178.8C225.82 178.468 246.93 179.94 267.8 183.2C281.7 185.9 295.4 190.1 300.5 193.8L303.1 198C298.6 193 281.7 188.3 266.7 185.7C249.3 182.7 227.6 181.5 204.7 181.3C180.7 181.3 158.5 182.8 141.3 185.9C124.9 189.1 114.3 192.8 109.8 195.7L112.1 192.1C118.3 188.9 128.3 185.9 140.9 183.4C158.2 180.3 180.6 178.8 204.7 178.8ZM260.7 302.9C242.211 299.712 223.458 298.306 204.7 298.7C134.8 299.5 112.3 313 109.5 317.1L104.3 308.6C122 295.7 160 288.5 205 289.2C228.3 289.6 248.4 291.2 265.4 294.4L260.6 302.9" fill="#FFFF00"/>
<path d="M260.7 302.9C242.211 299.712 223.458 298.306 204.7 298.7C134.8 299.5 112.3 313 109.5 317.1L104.3 308.6C122 295.7 160 288.5 205 289.2C228.3 289.6 248.4 291.2 265.4 294.4L260.6 302.9M204.7 188.4C228.7 188.4 251.7 189.7 270.1 193C287.2 196.2 303.6 201 305.9 203.6L307.7 206.8C302 203.1 287.9 198.9 269.7 195.5C248.21 192.077 226.457 190.571 204.7 191C177.7 191 156.7 192.3 138.7 195.5C119.7 199 106.5 204.1 103.2 206.5L105 203.2C111.3 199.9 121.4 196 138.3 193C156.9 189.6 178 188.6 204.7 188.4ZM204.7 178.8C225.82 178.468 246.93 179.94 267.8 183.2C281.7 185.9 295.4 190.1 300.5 193.8L303.1 198C298.6 193 281.7 188.3 266.7 185.7C249.3 182.7 227.6 181.5 204.7 181.3C180.7 181.3 158.5 182.8 141.3 185.9C124.9 189.1 114.3 192.8 109.8 195.7L112.1 192.1C118.3 188.9 128.3 185.9 140.9 183.4C158.2 180.3 180.6 178.8 204.7 178.8Z" stroke="black" stroke-width="0.7" stroke-linecap="round" stroke-linejoin="round"/>
<path fill-rule="evenodd" clip-rule="evenodd" d="M204.3 297.5C223.7 297.8 242.8 298.5 261.3 302L259.9 304.4C241.575 301.236 222.994 299.796 204.4 300.1C178.6 299.9 152.4 302.3 129.8 308.8C122.6 310.8 110.8 315.4 109.5 319.2L108.2 317C108.6 314.8 115.8 310.1 129.2 306.4C155.2 298.9 179.5 297.7 204.2 297.4L204.3 297.5ZM205.2 287.7C225.682 287.681 246.127 289.454 266.3 293L264.9 295.5C245.24 291.903 225.286 290.162 205.3 290.3C179.4 290.3 152 292.2 127 299.4C119 301.8 105 306.8 104.6 310.8L103.3 308.5C103.6 304.9 115.6 300.1 126.5 296.9C152.177 290.184 178.666 287.087 205.2 287.7Z" fill="#FFFF00" stroke="black" stroke-width="0.6" stroke-linecap="round" stroke-linejoin="round"/>
<path fill-rule="evenodd" clip-rule="evenodd" d="M304.4 309.9L296 322.9L271.9 301.5L209.3 259.5L138.8 220.7L102.1 208.2L109.9 193.7L112.6 192.3L135.4 198L210.4 236.7L253.7 264L290 290L304.8 307.1L304.4 309.9Z" fill="#FFFF00" stroke="black" stroke-width="0.7" stroke-linecap="round" stroke-linejoin="round"/>
<path fill-rule="evenodd" clip-rule="evenodd" d="M100.8 208.5C107.3 204.2 154.5 225.2 203.8 255C253.1 284.9 300.2 318.6 296 325L294.6 327.1L293.9 327.6C294.1 327.6 294.8 326.6 293.9 324.3C291.7 317.4 258.4 290.8 202.9 257.3C148.9 225.1 103.9 205.7 99.4001 211.3L100.8 208.5ZM306.1 309.7C310.1 301.7 266.4 268.7 212.1 236.6C156.6 205.1 116.5 186.6 109.2 192.1L107.6 195.1C107.6 195.2 107.6 194.9 108 194.6C109.3 193.5 111.5 193.6 112.5 193.6C125.1 193.7 161.1 210.2 211.5 239.2C233.6 252 304.9 297.8 304.6 310.6C304.6 311.7 304.7 311.9 304.3 312.5L306.1 309.7Z" fill="#FFFF00" stroke="black" stroke-width="0.7" stroke-linecap="round" stroke-linejoin="round"/>
<path d="M137.183 268.472C137.2 277.304 138.968 286.045 142.386 294.189C145.804 302.333 150.803 309.718 157.094 315.917C163.309 322.227 170.71 327.245 178.873 330.682C187.035 334.119 195.797 335.906 204.653 335.942C222.577 335.941 239.767 328.819 252.44 316.145C258.709 309.911 263.685 302.501 267.083 294.34C270.48 286.178 272.232 277.426 272.238 268.585V178.473L137.183 178.246V268.472Z" fill="white" stroke="black" stroke-width="0.796446"/>
<path d="M139.914 268.585C139.938 277.058 141.639 285.441 144.92 293.252C148.201 301.064 152.996 308.148 159.029 314.097C171.142 326.274 187.591 333.148 204.767 333.211C221.913 333.221 238.362 326.428 250.506 314.324C256.518 308.366 261.292 301.278 264.553 293.467C267.814 285.656 269.498 277.277 269.507 268.813V181.204H139.914V268.585ZM243.452 207.487V263.124L243.338 268.927C243.376 274.01 242.388 279.048 240.433 283.74C238.478 288.432 235.596 292.681 231.96 296.233C224.725 303.494 214.904 307.586 204.653 307.611C193.958 307.611 184.515 303.06 177.461 296.006C170.2 288.77 166.108 278.949 166.083 268.699V207.259L243.452 207.487Z" fill="#FF0000" stroke="black" stroke-width="0.56889"/>
<path d="M148.106 204.073C148.22 197.815 152.657 196.336 152.657 196.336C152.771 196.336 157.55 197.929 157.55 204.187L148.106 204.073Z" fill="#FFFF00"/>
<path d="M144.237 196.45L143.441 203.618H148.22C148.22 197.702 152.771 196.791 152.771 196.791C152.885 196.791 157.322 198.043 157.436 203.618H162.214L161.304 196.336L144.237 196.45ZM143.1 203.732H162.442C162.783 203.732 163.125 204.073 163.125 204.528C163.125 205.097 162.783 205.438 162.442 205.438H143.1C142.758 205.438 142.417 205.097 142.417 204.528C142.417 204.073 142.758 203.732 143.213 203.732H143.1Z" fill="#FFFF00" stroke="black" stroke-width="0.56889"/>
<path d="M150.154 203.618C150.154 199.863 152.771 198.839 152.771 198.839C152.771 198.839 155.388 199.977 155.388 203.618H150.154ZM143.555 193.378H162.101C162.442 193.378 162.783 193.833 162.783 194.288C162.783 194.63 162.442 194.971 162.101 194.971H143.555C143.213 194.971 142.872 194.63 142.872 194.174C142.872 193.833 143.213 193.492 143.555 193.492V193.378ZM144.01 195.085H161.532C161.873 195.085 162.214 195.426 162.214 195.881C162.214 196.336 161.873 196.678 161.532 196.678H143.896C143.441 196.678 143.213 196.336 143.213 195.881C143.213 195.426 143.441 195.085 143.896 195.085H144.01ZM149.699 183.024H151.064V183.934H152.088V183.024H153.567V184.048H154.591V182.91H155.957V185.186C155.957 185.641 155.729 185.869 155.388 185.869H150.381C150.04 185.869 149.699 185.641 149.699 185.3V183.024ZM154.933 186.096L155.274 193.378H150.381L150.723 185.982H154.933" fill="#FFFF00"/>
<path d="M154.933 186.096L155.274 193.378H150.381L150.723 185.982H154.933M150.154 203.618C150.154 199.863 152.771 198.839 152.771 198.839C152.771 198.839 155.388 199.977 155.388 203.618H150.154ZM143.555 193.378H162.101C162.442 193.378 162.783 193.833 162.783 194.288C162.783 194.63 162.442 194.971 162.101 194.971H143.555C143.213 194.971 142.872 194.63 142.872 194.174C142.872 193.833 143.213 193.492 143.555 193.492V193.378ZM144.01 195.085H161.532C161.873 195.085 162.214 195.426 162.214 195.881C162.214 196.336 161.873 196.678 161.532 196.678H143.896C143.441 196.678 143.213 196.336 143.213 195.881C143.213 195.426 143.441 195.085 143.896 195.085H144.01ZM149.699 183.024H151.064V183.934H152.088V183.024H153.567V184.048H154.591V182.91H155.957V185.186C155.957 185.641 155.729 185.869 155.388 185.869H150.381C150.04 185.869 149.699 185.641 149.699 185.3V183.024Z" stroke="black" stroke-width="0.56889"/>
<path d="M149.016 189.51V193.378H144.465V189.51H149.016Z" fill="#FFFF00" stroke="black" stroke-width="0.56889"/>
<path d="M161.077 189.51V193.378H156.525V189.51H161.077Z" fill="#FFFF00" stroke="black" stroke-width="0.56889"/>
<path d="M143.668 186.551H145.034V187.689H146.058V186.551H147.423V187.689H148.447V186.551H149.812V188.827C149.812 189.282 149.585 189.51 149.244 189.51H144.351C144.17 189.51 143.996 189.438 143.868 189.31C143.74 189.182 143.668 189.008 143.668 188.827V186.551Z" fill="#FFFF00" stroke="black" stroke-width="0.56889"/>
<path d="M155.729 186.551H157.094V187.689H158.118V186.551H159.484V187.689H160.508V186.551H161.873V188.827C161.873 189.282 161.645 189.51 161.304 189.51H156.412C156.231 189.51 156.057 189.438 155.929 189.31C155.801 189.182 155.729 189.008 155.729 188.827V186.551Z" fill="#FFFF00" stroke="black" stroke-width="0.56889"/>
<path d="M152.316 188.372C152.316 187.689 153.34 187.689 153.34 188.372V190.192H152.316V188.372Z" fill="#000001"/>
<path d="M146.285 190.875C146.285 190.192 147.196 190.192 147.196 190.875V192.24H146.285V190.875Z" fill="#000001"/>
<path d="M158.346 190.875C158.346 190.192 159.256 190.192 159.256 190.875V192.24H158.346V190.875Z" fill="#000001"/>
<path d="M148.106 256.752C148.22 250.494 152.657 249.015 152.657 249.015C152.771 249.015 157.55 250.608 157.55 256.866L148.106 256.752Z" fill="#FFFF00"/>
<path d="M144.237 249.129L143.441 256.297H148.22C148.22 250.381 152.771 249.47 152.771 249.47C152.885 249.47 157.322 250.722 157.436 256.297H162.214L161.304 249.015L144.237 249.129ZM143.1 256.411H162.442C162.783 256.411 163.125 256.752 163.125 257.207C163.125 257.776 162.783 258.118 162.442 258.118H143.1C142.758 258.118 142.417 257.776 142.417 257.207C142.417 256.752 142.758 256.411 143.213 256.411H143.1Z" fill="#FFFF00" stroke="black" stroke-width="0.56889"/>
<path d="M150.154 256.297C150.154 252.543 152.771 251.519 152.771 251.519C152.771 251.519 155.388 252.656 155.388 256.297H150.154ZM143.555 246.057H162.101C162.442 246.057 162.783 246.512 162.783 246.967C162.783 247.309 162.442 247.65 162.101 247.65H143.555C143.213 247.65 142.872 247.309 142.872 246.854C142.872 246.512 143.213 246.171 143.555 246.171V246.057ZM144.01 247.764H161.532C161.873 247.764 162.214 248.105 162.214 248.56C162.214 249.015 161.873 249.357 161.532 249.357H143.896C143.441 249.357 143.213 249.015 143.213 248.56C143.213 248.105 143.441 247.764 143.896 247.764H144.01ZM149.699 235.703H151.064V236.614H152.088V235.703H153.567V236.727H154.591V235.59H155.957V237.865C155.957 238.32 155.729 238.548 155.388 238.548H150.381C150.04 238.548 149.699 238.32 149.699 237.979V235.703ZM154.933 238.775L155.274 246.057H150.381L150.723 238.662H154.933" fill="#FFFF00"/>
<path d="M154.933 238.775L155.274 246.057H150.381L150.723 238.662H154.933M150.154 256.297C150.154 252.543 152.771 251.519 152.771 251.519C152.771 251.519 155.388 252.656 155.388 256.297H150.154ZM143.555 246.057H162.101C162.442 246.057 162.783 246.512 162.783 246.967C162.783 247.309 162.442 247.65 162.101 247.65H143.555C143.213 247.65 142.872 247.309 142.872 246.854C142.872 246.512 143.213 246.171 143.555 246.171V246.057ZM144.01 247.764H161.532C161.873 247.764 162.214 248.105 162.214 248.56C162.214 249.015 161.873 249.357 161.532 249.357H143.896C143.441 249.357 143.213 249.015 143.213 248.56C143.213 248.105 143.441 247.764 143.896 247.764H144.01ZM149.699 235.703H151.064V236.614H152.088V235.703H153.567V236.727H154.591V235.59H155.957V237.865C155.957 238.32 155.729 238.548 155.388 238.548H150.381C150.04 238.548 149.699 238.32 149.699 237.979V235.703Z" stroke="black" stroke-width="0.56889"/>
<path d="M149.016 242.189V246.057H144.465V242.189H149.016Z" fill="#FFFF00" stroke="black" stroke-width="0.56889"/>
<path d="M161.077 242.189V246.057H156.525V242.189H161.077Z" fill="#FFFF00" stroke="black" stroke-width="0.56889"/>
<path d="M143.668 239.23H145.034V240.368H146.058V239.23H147.423V240.368H148.447V239.23H149.812V241.506C149.812 241.961 149.585 242.189 149.244 242.189H144.351C144.17 242.189 143.996 242.117 143.868 241.989C143.74 241.861 143.668 241.687 143.668 241.506V239.23Z" fill="#FFFF00" stroke="black" stroke-width="0.56889"/>
<path d="M155.729 239.23H157.094V240.368H158.118V239.23H159.484V240.368H160.508V239.23H161.873V241.506C161.873 241.961 161.645 242.189 161.304 242.189H156.412C156.231 242.189 156.057 242.117 155.929 241.989C155.801 241.861 155.729 241.687 155.729 241.506V239.23Z" fill="#FFFF00" stroke="black" stroke-width="0.56889"/>
<path d="M152.316 241.051C152.316 240.368 153.34 240.368 153.34 241.051V242.872H152.316V241.051Z" fill="#000001"/>
<path d="M146.285 243.554C146.285 242.871 147.196 242.871 147.196 243.554V244.919H146.285V243.554Z" fill="#000001"/>
<path d="M158.346 243.554C158.346 242.871 159.256 242.871 159.256 243.554V244.919H158.346V243.554Z" fill="#000001"/>
<path d="M168.639 311.656C164.279 307.165 166.356 302.975 166.356 302.975C166.436 302.894 170.934 300.625 175.374 305.035L168.639 311.656Z" fill="#FFFF00"/>
<path d="M160.504 309.029L165.029 314.645L168.397 311.254C164.198 307.085 166.759 303.214 166.759 303.214C166.84 303.134 170.854 300.867 174.89 304.715L178.258 301.324L172.449 296.839L160.504 309.029ZM164.87 314.967L178.499 301.243C178.739 301 179.222 300.999 179.545 301.319C179.949 301.72 179.95 302.203 179.71 302.445L166.081 316.17C165.84 316.412 165.357 316.414 164.954 316.013C164.631 315.692 164.629 315.209 164.95 314.887L164.87 314.967Z" fill="#FFFF00" stroke="black" stroke-width="0.56889"/>
<path d="M169.76 309.882C167.095 307.236 168.213 304.658 168.213 304.658C168.213 304.658 170.864 303.602 173.447 306.168L169.76 309.882ZM157.844 307.349L170.912 294.189C171.152 293.947 171.716 294.025 172.038 294.346C172.281 294.587 172.282 295.069 172.042 295.312L158.974 308.471C158.733 308.713 158.251 308.715 157.928 308.394C157.685 308.154 157.684 307.671 157.924 307.429L157.844 307.349ZM159.375 308.228L171.722 295.795C171.962 295.553 172.445 295.551 172.768 295.872C173.091 296.193 173.093 296.676 172.852 296.918L160.425 309.431C160.105 309.754 159.702 309.675 159.379 309.355C159.056 309.034 158.974 308.632 159.295 308.309L159.375 308.228ZM154.826 295.693L155.788 294.725L156.434 295.366L157.156 294.639L156.51 293.998L157.552 292.948L158.279 293.67L159 292.943L158.193 292.142L159.155 291.173L160.769 292.776C161.092 293.097 161.094 293.419 160.853 293.661L157.325 297.213C157.085 297.456 156.683 297.537 156.441 297.297L154.826 295.693ZM160.694 294.144L166.101 299.033L162.654 302.505L157.647 297.051L160.613 294.064" fill="#FFFF00"/>
<path d="M160.694 294.144L166.101 299.033L162.654 302.505L157.647 297.051L160.613 294.064M169.76 309.882C167.095 307.236 168.213 304.658 168.213 304.658C168.213 304.658 170.864 303.602 173.447 306.168L169.76 309.882ZM157.844 307.349L170.912 294.189C171.152 293.947 171.716 294.025 172.038 294.346C172.281 294.587 172.282 295.069 172.042 295.312L158.974 308.471C158.733 308.713 158.251 308.715 157.928 308.394C157.685 308.154 157.684 307.671 157.924 307.429L157.844 307.349ZM159.375 308.228L171.722 295.795C171.962 295.553 172.445 295.551 172.768 295.872C173.091 296.193 173.093 296.676 172.852 296.918L160.425 309.431C160.105 309.754 159.702 309.675 159.379 309.355C159.056 309.034 158.974 308.632 159.295 308.309L159.375 308.228ZM154.826 295.693L155.788 294.725L156.434 295.366L157.156 294.639L156.51 293.998L157.552 292.948L158.279 293.67L159 292.943L158.193 292.142L159.155 291.173L160.769 292.776C161.092 293.097 161.094 293.419 160.853 293.661L157.325 297.213C157.085 297.456 156.683 297.537 156.441 297.297L154.826 295.693Z" stroke="black" stroke-width="0.56889"/>
<path d="M158.947 300.748L161.692 303.474L158.485 306.703L155.74 303.977L158.947 300.748Z" fill="#FFFF00" stroke="black" stroke-width="0.56889"/>
<path d="M167.445 292.19L170.19 294.916L166.983 298.145L164.238 295.419L167.445 292.19Z" fill="#FFFF00" stroke="black" stroke-width="0.56889"/>
<path d="M153.08 302.458L154.042 301.489L154.849 302.291L155.571 301.564L154.763 300.762L155.725 299.794L156.533 300.595L157.254 299.869L156.447 299.067L157.409 298.098L159.024 299.702C159.346 300.022 159.348 300.344 159.107 300.586L155.66 304.058C155.532 304.186 155.359 304.259 155.178 304.259C154.997 304.26 154.823 304.189 154.694 304.061L153.08 302.458Z" fill="#FFFF00" stroke="black" stroke-width="0.56889"/>
<path d="M161.578 293.9L162.54 292.931L163.347 293.733L164.069 293.006L163.261 292.205L164.224 291.236L165.031 292.037L165.752 291.311L164.945 290.509L165.907 289.54L167.522 291.144C167.845 291.464 167.846 291.786 167.605 292.028L164.158 295.5C164.03 295.628 163.857 295.701 163.676 295.702C163.495 295.702 163.321 295.631 163.193 295.503L161.578 293.9Z" fill="#FFFF00" stroke="black" stroke-width="0.56889"/>
<path d="M160.464 297.605C159.98 297.124 160.702 296.397 161.186 296.878L162.478 298.161L161.756 298.887L160.464 297.605Z" fill="#000001"/>
<path d="M157.991 303.647C157.507 303.166 158.148 302.521 158.633 303.002L159.602 303.964L158.96 304.609L157.991 303.647Z" fill="#000001"/>
<path d="M166.49 295.09C166.005 294.609 166.647 293.963 167.131 294.444L168.1 295.406L167.459 296.052L166.49 295.09Z" fill="#000001"/>
<path d="M200.102 204.073C200.216 197.815 204.653 196.336 204.653 196.336C204.767 196.336 209.546 197.929 209.546 204.187L200.102 204.073Z" fill="#FFFF00"/>
<path d="M196.234 196.45L195.437 203.618H200.216C200.216 197.702 204.767 196.791 204.767 196.791C204.881 196.791 209.318 198.043 209.432 203.618H214.211L213.3 196.336L196.234 196.45ZM195.096 203.732H214.438C214.78 203.732 215.121 204.073 215.121 204.528C215.121 205.097 214.78 205.438 214.438 205.438H195.096C194.755 205.438 194.413 205.097 194.413 204.528C194.413 204.073 194.755 203.732 195.21 203.732H195.096Z" fill="#FFFF00" stroke="black" stroke-width="0.56889"/>
<path d="M202.15 203.618C202.15 199.863 204.767 198.839 204.767 198.839C204.767 198.839 207.384 199.977 207.384 203.618H202.15ZM195.551 193.378H214.097C214.438 193.378 214.78 193.833 214.78 194.288C214.78 194.63 214.438 194.971 214.097 194.971H195.551C195.21 194.971 194.868 194.63 194.868 194.174C194.868 193.833 195.21 193.492 195.551 193.492V193.378ZM196.006 195.085H213.528C213.869 195.085 214.211 195.426 214.211 195.881C214.211 196.336 213.869 196.678 213.528 196.678H195.892C195.437 196.678 195.21 196.336 195.21 195.881C195.21 195.426 195.437 195.085 195.892 195.085H196.006ZM201.695 183.024H203.06V183.934H204.084V183.024H205.564V184.048H206.588V182.91H207.953V185.186C207.953 185.641 207.725 185.869 207.384 185.869H202.378C202.036 185.869 201.695 185.641 201.695 185.3V183.024ZM206.929 186.096L207.27 193.378H202.378L202.719 185.982H206.929" fill="#FFFF00"/>
<path d="M206.929 186.096L207.27 193.378H202.378L202.719 185.982H206.929M202.15 203.618C202.15 199.863 204.767 198.839 204.767 198.839C204.767 198.839 207.384 199.977 207.384 203.618H202.15ZM195.551 193.378H214.097C214.438 193.378 214.78 193.833 214.78 194.288C214.78 194.63 214.438 194.971 214.097 194.971H195.551C195.21 194.971 194.868 194.63 194.868 194.174C194.868 193.833 195.21 193.492 195.551 193.492V193.378ZM196.006 195.085H213.528C213.869 195.085 214.211 195.426 214.211 195.881C214.211 196.336 213.869 196.678 213.528 196.678H195.892C195.437 196.678 195.21 196.336 195.21 195.881C195.21 195.426 195.437 195.085 195.892 195.085H196.006ZM201.695 183.024H203.06V183.934H204.084V183.024H205.564V184.048H206.588V182.91H207.953V185.186C207.953 185.641 207.725 185.869 207.384 185.869H202.378C202.036 185.869 201.695 185.641 201.695 185.3V183.024Z" stroke="black" stroke-width="0.56889"/>
<path d="M201.013 189.51V193.378H196.461V189.51H201.013Z" fill="#FFFF00" stroke="black" stroke-width="0.56889"/>
<path d="M213.073 189.51V193.378H208.522V189.51H213.073Z" fill="#FFFF00" stroke="black" stroke-width="0.56889"/>
<path d="M195.665 186.551H197.03V187.689H198.054V186.551H199.419V187.689H200.443V186.551H201.809V188.827C201.809 189.282 201.581 189.51 201.24 189.51H196.347C196.166 189.51 195.993 189.438 195.865 189.31C195.737 189.182 195.665 189.008 195.665 188.827V186.551Z" fill="#FFFF00" stroke="black" stroke-width="0.56889"/>
<path d="M207.725 186.551H209.091V187.689H210.115V186.551H211.48V187.689H212.504V186.551H213.869V188.827C213.869 189.282 213.642 189.51 213.3 189.51H208.408C208.227 189.51 208.053 189.438 207.925 189.31C207.797 189.182 207.725 189.008 207.725 188.827V186.551Z" fill="#FFFF00" stroke="black" stroke-width="0.56889"/>
<path d="M204.312 188.372C204.312 187.689 205.336 187.689 205.336 188.372V190.192H204.312V188.372Z" fill="#000001"/>
<path d="M198.282 190.875C198.282 190.192 199.192 190.192 199.192 190.875V192.24H198.282V190.875Z" fill="#000001"/>
<path d="M210.342 190.875C210.342 190.192 211.252 190.192 211.252 190.875V192.24H210.342V190.875Z" fill="#000001"/>
<path d="M261.201 204.073C261.087 197.815 256.65 196.336 256.65 196.336C256.536 196.336 251.757 197.929 251.757 204.187L261.201 204.073Z" fill="#FFFF00"/>
<path d="M265.069 196.45L265.866 203.618H261.087C261.087 197.702 256.536 196.791 256.536 196.791C256.422 196.791 251.985 198.043 251.871 203.618H247.093L248.003 196.336L265.069 196.45ZM266.207 203.732H246.865C246.524 203.732 246.182 204.073 246.182 204.528C246.182 205.097 246.524 205.438 246.865 205.438H266.207C266.549 205.438 266.89 205.097 266.89 204.528C266.89 204.073 266.549 203.732 266.093 203.732H266.207Z" fill="#FFFF00" stroke="black" stroke-width="0.56889"/>
<path d="M259.153 203.618C259.153 199.863 256.536 198.839 256.536 198.839C256.536 198.839 253.919 199.977 253.919 203.618H259.153ZM265.752 193.378H247.206C246.865 193.378 246.524 193.833 246.524 194.288C246.524 194.63 246.865 194.971 247.206 194.971H265.752C266.093 194.971 266.435 194.63 266.435 194.174C266.435 193.833 266.093 193.492 265.752 193.492V193.378ZM265.297 195.085H247.775C247.434 195.085 247.093 195.426 247.093 195.881C247.093 196.336 247.434 196.678 247.775 196.678H265.411C265.866 196.678 266.093 196.336 266.093 195.881C266.093 195.426 265.866 195.085 265.411 195.085H265.297ZM259.608 183.024H258.243V183.934H257.219V183.024H255.74V184.048H254.716V182.91H253.35V185.186C253.35 185.641 253.578 185.869 253.919 185.869H258.925C259.267 185.869 259.608 185.641 259.608 185.3V183.024ZM254.374 186.096L254.033 193.378H258.925L258.584 185.982H254.374" fill="#FFFF00"/>
<path d="M254.374 186.096L254.033 193.378H258.925L258.584 185.982H254.374M259.153 203.618C259.153 199.863 256.536 198.839 256.536 198.839C256.536 198.839 253.919 199.977 253.919 203.618H259.153ZM265.752 193.378H247.206C246.865 193.378 246.524 193.833 246.524 194.288C246.524 194.63 246.865 194.971 247.206 194.971H265.752C266.093 194.971 266.435 194.63 266.435 194.174C266.435 193.833 266.093 193.492 265.752 193.492V193.378ZM265.297 195.085H247.775C247.434 195.085 247.093 195.426 247.093 195.881C247.093 196.336 247.434 196.678 247.775 196.678H265.411C265.866 196.678 266.093 196.336 266.093 195.881C266.093 195.426 265.866 195.085 265.411 195.085H265.297ZM259.608 183.024H258.243V183.934H257.219V183.024H255.74V184.048H254.716V182.91H253.35V185.186C253.35 185.641 253.578 185.869 253.919 185.869H258.925C259.267 185.869 259.608 185.641 259.608 185.3V183.024Z" stroke="black" stroke-width="0.56889"/>
<path d="M260.291 189.51V193.378H264.842V189.51H260.291Z" fill="#FFFF00" stroke="black" stroke-width="0.56889"/>
<path d="M248.23 189.51V193.378H252.781V189.51H248.23Z" fill="#FFFF00" stroke="black" stroke-width="0.56889"/>
<path d="M265.638 186.551H264.273V187.689H263.249V186.551H261.884V187.689H260.86V186.551H259.494V188.827C259.494 189.282 259.722 189.51 260.063 189.51H264.956C265.137 189.51 265.31 189.438 265.438 189.31C265.567 189.182 265.638 189.008 265.638 188.827V186.551Z" fill="#FFFF00" stroke="black" stroke-width="0.56889"/>
<path d="M253.578 186.551H252.213V187.689H251.189V186.551H249.823V187.689H248.799V186.551H247.434V188.827C247.434 189.282 247.661 189.51 248.003 189.51H252.895C253.076 189.51 253.25 189.438 253.378 189.31C253.506 189.182 253.578 189.008 253.578 188.827V186.551Z" fill="#FFFF00" stroke="black" stroke-width="0.56889"/>
<path d="M256.991 188.372C256.991 187.689 255.967 187.689 255.967 188.372V190.192H256.991V188.372Z" fill="#000001"/>
<path d="M263.021 190.875C263.021 190.192 262.111 190.192 262.111 190.875V192.24H263.021V190.875Z" fill="#000001"/>
<path d="M250.961 190.875C250.961 190.192 250.051 190.192 250.051 190.875V192.24H250.961V190.875Z" fill="#000001"/>
<path d="M261.201 256.752C261.087 250.494 256.65 249.015 256.65 249.015C256.536 249.015 251.757 250.608 251.757 256.866L261.201 256.752Z" fill="#FFFF00"/>
<path d="M265.069 249.129L265.866 256.297H261.087C261.087 250.381 256.536 249.47 256.536 249.47C256.422 249.47 251.985 250.722 251.871 256.297H247.093L248.003 249.015L265.069 249.129ZM266.207 256.411H246.865C246.524 256.411 246.182 256.752 246.182 257.207C246.182 257.776 246.524 258.118 246.865 258.118H266.207C266.549 258.118 266.89 257.776 266.89 257.207C266.89 256.752 266.549 256.411 266.093 256.411H266.207Z" fill="#FFFF00" stroke="black" stroke-width="0.56889"/>
<path d="M259.153 256.297C259.153 252.543 256.536 251.519 256.536 251.519C256.536 251.519 253.919 252.656 253.919 256.297H259.153ZM265.752 246.057H247.206C246.865 246.057 246.524 246.512 246.524 246.967C246.524 247.309 246.865 247.65 247.206 247.65H265.752C266.093 247.65 266.435 247.309 266.435 246.854C266.435 246.512 266.093 246.171 265.752 246.171V246.057ZM265.297 247.764H247.775C247.434 247.764 247.093 248.105 247.093 248.56C247.093 249.015 247.434 249.357 247.775 249.357H265.411C265.866 249.357 266.093 249.015 266.093 248.56C266.093 248.105 265.866 247.764 265.411 247.764H265.297ZM259.608 235.703H258.243V236.614H257.219V235.703H255.74V236.727H254.716V235.59H253.35V237.865C253.35 238.32 253.578 238.548 253.919 238.548H258.925C259.267 238.548 259.608 238.32 259.608 237.979V235.703ZM254.374 238.775L254.033 246.057H258.925L258.584 238.662H254.374" fill="#FFFF00"/>
<path d="M254.374 238.775L254.033 246.057H258.925L258.584 238.662H254.374M259.153 256.297C259.153 252.543 256.536 251.519 256.536 251.519C256.536 251.519 253.919 252.656 253.919 256.297H259.153ZM265.752 246.057H247.206C246.865 246.057 246.524 246.512 246.524 246.967C246.524 247.309 246.865 247.65 247.206 247.65H265.752C266.093 247.65 266.435 247.309 266.435 246.854C266.435 246.512 266.093 246.171 265.752 246.171V246.057ZM265.297 247.764H247.775C247.434 247.764 247.093 248.105 247.093 248.56C247.093 249.015 247.434 249.357 247.775 249.357H265.411C265.866 249.357 266.093 249.015 266.093 248.56C266.093 248.105 265.866 247.764 265.411 247.764H265.297ZM259.608 235.703H258.243V236.614H257.219V235.703H255.74V236.727H254.716V235.59H253.35V237.865C253.35 238.32 253.578 238.548 253.919 238.548H258.925C259.267 238.548 259.608 238.32 259.608 237.979V235.703Z" stroke="black" stroke-width="0.56889"/>
<path d="M260.291 242.189V246.057H264.842V242.189H260.291Z" fill="#FFFF00" stroke="black" stroke-width="0.56889"/>
<path d="M248.23 242.189V246.057H252.781V242.189H248.23Z" fill="#FFFF00" stroke="black" stroke-width="0.56889"/>
<path d="M265.638 239.23H264.273V240.368H263.249V239.23H261.884V240.368H260.86V239.23H259.494V241.506C259.494 241.961 259.722 242.189 260.063 242.189H264.956C265.137 242.189 265.31 242.117 265.438 241.989C265.567 241.861 265.638 241.687 265.638 241.506V239.23Z" fill="#FFFF00" stroke="black" stroke-width="0.56889"/>
<path d="M253.578 239.23H252.213V240.368H251.189V239.23H249.823V240.368H248.799V239.23H247.434V241.506C247.434 241.961 247.661 242.189 248.003 242.189H252.895C253.076 242.189 253.25 242.117 253.378 241.989C253.506 241.861 253.578 241.687 253.578 241.506V239.23Z" fill="#FFFF00" stroke="black" stroke-width="0.56889"/>
<path d="M256.991 241.051C256.991 240.368 255.967 240.368 255.967 241.051V242.872H256.991V241.051Z" fill="#000001"/>
<path d="M263.021 243.554C263.021 242.871 262.111 242.871 262.111 243.554V244.919H263.021V243.554Z" fill="#000001"/>
<path d="M250.961 243.554C250.961 242.871 250.051 242.871 250.051 243.554V244.919H250.961V243.554Z" fill="#000001"/>
<path d="M240.668 311.656C245.028 307.165 242.951 302.975 242.951 302.975C242.871 302.894 238.373 300.625 233.933 305.035L240.668 311.656Z" fill="#FFFF00"/>
<path d="M248.803 309.029L244.278 314.645L240.911 311.254C245.109 307.085 242.548 303.214 242.548 303.214C242.468 303.134 238.453 300.867 234.417 304.715L231.049 301.324L236.858 296.839L248.803 309.029ZM244.438 314.967L230.808 301.243C230.568 301 230.085 300.999 229.762 301.319C229.359 301.72 229.357 302.203 229.597 302.445L243.227 316.17C243.467 316.412 243.95 316.414 244.353 316.013C244.676 315.692 244.678 315.209 244.357 314.887L244.438 314.967Z" fill="#FFFF00" stroke="black" stroke-width="0.56889"/>
<path d="M239.548 309.882C242.212 307.236 241.094 304.658 241.094 304.658C241.094 304.658 238.443 303.602 235.86 306.168L239.548 309.882ZM251.464 307.349L238.396 294.189C238.155 293.947 237.592 294.025 237.269 294.346C237.026 294.587 237.025 295.069 237.265 295.312L250.333 308.471C250.574 308.713 251.057 308.715 251.379 308.394C251.622 308.154 251.623 307.671 251.383 307.429L251.464 307.349ZM249.932 308.228L237.585 295.795C237.345 295.553 236.862 295.551 236.539 295.872C236.216 296.193 236.215 296.676 236.455 296.918L248.882 309.431C249.202 309.754 249.605 309.675 249.928 309.355C250.251 309.034 250.333 308.632 250.012 308.309L249.932 308.228ZM254.481 295.693L253.519 294.725L252.873 295.366L252.152 294.639L252.797 293.998L251.755 292.948L251.029 293.67L250.307 292.943L251.114 292.142L250.152 291.173L248.538 292.776C248.215 293.097 248.214 293.419 248.454 293.661L251.982 297.213C252.222 297.456 252.624 297.537 252.866 297.297L254.481 295.693ZM248.613 294.144L243.206 299.033L246.653 302.505L251.66 297.051L248.694 294.064" fill="#FFFF00"/>
<path d="M248.613 294.144L243.206 299.033L246.653 302.505L251.66 297.051L248.694 294.064M239.548 309.882C242.212 307.236 241.094 304.658 241.094 304.658C241.094 304.658 238.443 303.602 235.86 306.168L239.548 309.882ZM251.464 307.349L238.396 294.189C238.155 293.947 237.592 294.025 237.269 294.346C237.026 294.587 237.025 295.069 237.265 295.312L250.333 308.471C250.574 308.713 251.057 308.715 251.379 308.394C251.622 308.154 251.623 307.671 251.383 307.429L251.464 307.349ZM249.932 308.228L237.585 295.795C237.345 295.553 236.862 295.551 236.539 295.872C236.216 296.193 236.215 296.676 236.455 296.918L248.882 309.431C249.202 309.754 249.605 309.675 249.928 309.355C250.251 309.034 250.333 308.632 250.012 308.309L249.932 308.228ZM254.481 295.693L253.519 294.725L252.873 295.366L252.152 294.639L252.797 293.998L251.755 292.948L251.029 293.67L250.307 292.943L251.114 292.142L250.152 291.173L248.538 292.776C248.215 293.097 248.214 293.419 248.454 293.661L251.982 297.213C252.222 297.456 252.624 297.537 252.866 297.297L254.481 295.693Z" stroke="black" stroke-width="0.56889"/>
<path d="M250.36 300.748L247.615 303.474L250.822 306.703L253.567 303.977L250.36 300.748Z" fill="#FFFF00" stroke="black" stroke-width="0.56889"/>
<path d="M241.862 292.19L239.117 294.916L242.324 298.145L245.069 295.419L241.862 292.19Z" fill="#FFFF00" stroke="black" stroke-width="0.56889"/>
<path d="M256.228 302.458L255.265 301.489L254.458 302.291L253.737 301.564L254.544 300.762L253.582 299.794L252.775 300.595L252.053 299.869L252.86 299.067L251.898 298.098L250.284 299.702C249.961 300.022 249.96 300.344 250.2 300.586L253.647 304.058C253.775 304.186 253.948 304.259 254.129 304.259C254.311 304.26 254.484 304.189 254.613 304.061L256.228 302.458Z" fill="#FFFF00" stroke="black" stroke-width="0.56889"/>
<path d="M247.729 293.9L246.767 292.931L245.96 293.733L245.238 293.006L246.046 292.205L245.084 291.236L244.276 292.037L243.555 291.311L244.362 290.509L243.4 289.54L241.785 291.144C241.462 291.464 241.461 291.786 241.702 292.028L245.149 295.5C245.277 295.628 245.45 295.701 245.631 295.702C245.812 295.702 245.986 295.631 246.115 295.503L247.729 293.9Z" fill="#FFFF00" stroke="black" stroke-width="0.56889"/>
<path d="M248.843 297.605C249.327 297.124 248.606 296.397 248.121 296.878L246.829 298.161L247.551 298.887L248.843 297.605Z" fill="#000001"/>
<path d="M251.316 303.647C251.8 303.166 251.159 302.521 250.674 303.002L249.705 303.964L250.347 304.609L251.316 303.647Z" fill="#000001"/>
<path d="M242.817 295.09C243.302 294.609 242.66 293.963 242.176 294.444L241.207 295.406L241.849 296.052L242.817 295.09Z" fill="#000001"/>
<path d="M196.348 258.687C196.327 261.088 197.222 263.407 198.851 265.172C199.611 266.022 200.54 266.703 201.578 267.174C202.616 267.644 203.741 267.892 204.881 267.903C207.27 267.903 209.432 266.765 210.911 265.172C212.54 263.407 213.435 261.088 213.414 258.687V246.399H196.348V258.687Z" fill="#003399"/>
<path d="M200.33 252.77C201.273 252.77 202.037 252.006 202.037 251.064C202.037 250.121 201.273 249.357 200.33 249.357C199.387 249.357 198.623 250.121 198.623 251.064C198.623 252.006 199.387 252.77 200.33 252.77Z" fill="white"/>
<path d="M209.774 252.77C210.716 252.77 211.48 252.006 211.48 251.064C211.48 250.121 210.716 249.357 209.774 249.357C208.831 249.357 208.067 250.121 208.067 251.064C208.067 252.006 208.831 252.77 209.774 252.77Z" fill="white"/>
<path d="M204.995 257.321C205.937 257.321 206.701 256.557 206.701 255.615C206.701 254.672 205.937 253.908 204.995 253.908C204.052 253.908 203.288 254.672 203.288 255.615C203.288 256.557 204.052 257.321 204.995 257.321Z" fill="white"/>
<path d="M200.33 262.1C201.273 262.1 202.037 261.336 202.037 260.393C202.037 259.451 201.273 258.687 200.33 258.687C199.387 258.687 198.623 259.451 198.623 260.393C198.623 261.336 199.387 262.1 200.33 262.1Z" fill="white"/>
<path d="M209.774 262.1C210.716 262.1 211.48 261.336 211.48 260.393C211.48 259.451 210.716 258.687 209.774 258.687C208.831 258.687 208.067 259.451 208.067 260.393C208.067 261.336 208.831 262.1 209.774 262.1Z" fill="white"/>
<path d="M196.348 229.104C196.327 231.506 197.222 233.825 198.851 235.59C199.611 236.439 200.54 237.121 201.578 237.591C202.616 238.062 203.741 238.31 204.881 238.32C207.27 238.32 209.432 237.183 210.911 235.59C212.54 233.825 213.435 231.506 213.414 229.104V216.816H196.348V229.104Z" fill="#003399"/>
<path d="M200.33 223.188C201.273 223.188 202.037 222.424 202.037 221.481C202.037 220.539 201.273 219.775 200.33 219.775C199.387 219.775 198.623 220.539 198.623 221.481C198.623 222.424 199.387 223.188 200.33 223.188Z" fill="white"/>
<path d="M209.774 223.188C210.716 223.188 211.48 222.424 211.48 221.481C211.48 220.539 210.716 219.775 209.774 219.775C208.831 219.775 208.067 220.539 208.067 221.481C208.067 222.424 208.831 223.188 209.774 223.188Z" fill="white"/>
<path d="M204.995 227.739C205.937 227.739 206.701 226.975 206.701 226.032C206.701 225.09 205.937 224.326 204.995 224.326C204.052 224.326 203.288 225.09 203.288 226.032C203.288 226.975 204.052 227.739 204.995 227.739Z" fill="white"/>
<path d="M200.33 232.518C201.273 232.518 202.037 231.754 202.037 230.811C202.037 229.869 201.273 229.104 200.33 229.104C199.387 229.104 198.623 229.869 198.623 230.811C198.623 231.754 199.387 232.518 200.33 232.518Z" fill="white"/>
<path d="M209.774 232.518C210.716 232.518 211.48 231.754 211.48 230.811C211.48 229.869 210.716 229.104 209.774 229.104C208.831 229.104 208.067 229.869 208.067 230.811C208.067 231.754 208.831 232.518 209.774 232.518Z" fill="white"/>
<path d="M172.682 258.687C172.661 261.088 173.556 263.407 175.185 265.172C175.945 266.022 176.874 266.703 177.912 267.174C178.95 267.644 180.075 267.892 181.215 267.903C183.604 267.903 185.766 266.765 187.245 265.172C188.874 263.407 189.769 261.088 189.748 258.687V246.399H172.682V258.687Z" fill="#003399"/>
<path d="M176.664 252.77C177.607 252.77 178.371 252.006 178.371 251.064C178.371 250.121 177.607 249.357 176.664 249.357C175.721 249.357 174.957 250.121 174.957 251.064C174.957 252.006 175.721 252.77 176.664 252.77Z" fill="white"/>
<path d="M186.108 252.77C187.05 252.77 187.814 252.006 187.814 251.064C187.814 250.121 187.05 249.357 186.108 249.357C185.165 249.357 184.401 250.121 184.401 251.064C184.401 252.006 185.165 252.77 186.108 252.77Z" fill="white"/>
<path d="M181.329 257.321C182.271 257.321 183.035 256.557 183.035 255.615C183.035 254.672 182.271 253.908 181.329 253.908C180.386 253.908 179.622 254.672 179.622 255.615C179.622 256.557 180.386 257.321 181.329 257.321Z" fill="white"/>
<path d="M176.664 262.1C177.607 262.1 178.371 261.336 178.371 260.393C178.371 259.451 177.607 258.687 176.664 258.687C175.721 258.687 174.957 259.451 174.957 260.393C174.957 261.336 175.721 262.1 176.664 262.1Z" fill="white"/>
<path d="M186.108 262.1C187.05 262.1 187.814 261.336 187.814 260.393C187.814 259.451 187.05 258.687 186.108 258.687C185.165 258.687 184.401 259.451 184.401 260.393C184.401 261.336 185.165 262.1 186.108 262.1Z" fill="white"/>
<path d="M220.014 258.687C219.993 261.088 220.888 263.407 222.517 265.172C223.276 266.022 224.205 266.703 225.244 267.174C226.282 267.644 227.407 267.892 228.547 267.903C230.936 267.903 233.098 266.765 234.577 265.172C236.206 263.407 237.101 261.088 237.08 258.687V246.399H220.014V258.687Z" fill="#003399"/>
<path d="M223.996 252.77C224.938 252.77 225.702 252.006 225.702 251.064C225.702 250.121 224.938 249.357 223.996 249.357C223.053 249.357 222.289 250.121 222.289 251.064C222.289 252.006 223.053 252.77 223.996 252.77Z" fill="white"/>
<path d="M233.439 252.77C234.382 252.77 235.146 252.006 235.146 251.064C235.146 250.121 234.382 249.357 233.439 249.357C232.497 249.357 231.733 250.121 231.733 251.064C231.733 252.006 232.497 252.77 233.439 252.77Z" fill="white"/>
<path d="M228.661 257.321C229.603 257.321 230.367 256.557 230.367 255.615C230.367 254.672 229.603 253.908 228.661 253.908C227.718 253.908 226.954 254.672 226.954 255.615C226.954 256.557 227.718 257.321 228.661 257.321Z" fill="white"/>
<path d="M223.996 262.1C224.938 262.1 225.702 261.336 225.702 260.393C225.702 259.451 224.938 258.687 223.996 258.687C223.053 258.687 222.289 259.451 222.289 260.393C222.289 261.336 223.053 262.1 223.996 262.1Z" fill="white"/>
<path d="M233.439 262.1C234.382 262.1 235.146 261.336 235.146 260.393C235.146 259.451 234.382 258.687 233.439 258.687C232.497 258.687 231.733 259.451 231.733 260.393C231.733 261.336 232.497 262.1 233.439 262.1Z" fill="white"/>
<path d="M196.348 288.041C196.327 290.443 197.222 292.762 198.851 294.527C199.611 295.376 200.54 296.058 201.578 296.528C202.616 296.999 203.741 297.247 204.881 297.257C207.27 297.257 209.432 296.12 210.911 294.527C212.54 292.762 213.435 290.443 213.414 288.041V275.753H196.348V288.041Z" fill="#003399"/>
<path d="M200.33 282.125C201.273 282.125 202.037 281.361 202.037 280.418C202.037 279.476 201.273 278.712 200.33 278.712C199.387 278.712 198.623 279.476 198.623 280.418C198.623 281.361 199.387 282.125 200.33 282.125Z" fill="white"/>
<path d="M209.774 282.125C210.716 282.125 211.48 281.361 211.48 280.418C211.48 279.476 210.716 278.712 209.774 278.712C208.831 278.712 208.067 279.476 208.067 280.418C208.067 281.361 208.831 282.125 209.774 282.125Z" fill="white"/>
<path d="M204.995 286.676C205.937 286.676 206.701 285.912 206.701 284.969C206.701 284.027 205.937 283.263 204.995 283.263C204.052 283.263 203.288 284.027 203.288 284.969C203.288 285.912 204.052 286.676 204.995 286.676Z" fill="white"/>
<path d="M200.33 291.455C201.273 291.455 202.037 290.691 202.037 289.748C202.037 288.806 201.273 288.042 200.33 288.042C199.387 288.042 198.623 288.806 198.623 289.748C198.623 290.691 199.387 291.455 200.33 291.455Z" fill="white"/>
<path d="M209.774 291.455C210.716 291.455 211.48 290.691 211.48 289.748C211.48 288.806 210.716 288.042 209.774 288.042C208.831 288.042 208.067 288.806 208.067 289.748C208.067 290.691 208.831 291.455 209.774 291.455Z" fill="white"/>
</g>
<defs>
<clipPath id="clip0_2_7596">
<rect width="512" height="512" fill="white"/>
</clipPath>
</defs>
</svg>
