<svg width="512" height="512" viewBox="0 0 512 512" fill="none" xmlns="http://www.w3.org/2000/svg">
<g clip-path="url(#clip0_2_7741)">
<path d="M0 341H512V512H0V341Z" fill="#0038A8"/>
<path d="M0 170.7H512V341.3H0V170.7Z" fill="white"/>
<path d="M0 0H512V170.7H0V0Z" fill="#D52B1E"/>
<path d="M256.456 321.475C292.616 321.475 321.93 292.161 321.93 256.001C321.93 219.84 292.616 190.527 256.456 190.527C220.296 190.527 190.982 219.84 190.982 256.001C190.982 292.161 220.296 321.475 256.456 321.475Z" stroke="black" stroke-width="1.70667"/>
<path d="M256.456 309.839C286.19 309.839 310.294 285.735 310.294 256.001C310.294 226.267 286.19 202.163 256.456 202.163C226.722 202.163 202.618 226.267 202.618 256.001C202.618 285.735 226.722 309.839 256.456 309.839Z" stroke="black" stroke-width="0.77576"/>
<path d="M256.456 297.271C279.249 297.271 297.726 278.794 297.726 256.001C297.726 233.208 279.249 214.73 256.456 214.73C233.663 214.73 215.186 233.208 215.186 256.001C215.186 278.794 233.663 297.271 256.456 297.271Z" stroke="black" stroke-width="0.620608"/>
<path d="M221.6 281.3L214 285.8L211.7 281.8C211.354 281.274 211.084 280.702 210.9 280.1C210.818 279.657 210.889 279.198 211.1 278.8C211.3 278.3 211.6 278 212.1 277.7C212.456 277.474 212.865 277.346 213.287 277.328C213.708 277.311 214.127 277.404 214.5 277.6L215.3 278.2C215.27 277.968 215.27 277.732 215.3 277.5L215.4 276.9L215.7 276.2L217.2 273.8L218.8 276.4L217.2 279.1C217.044 279.342 216.941 279.615 216.9 279.9C216.876 280.105 216.911 280.313 217 280.5L217.2 280.7L220.2 278.9L221.6 281.3ZM215.7 281.6L215.1 280.6C214.981 280.391 214.848 280.19 214.7 280C214.634 279.935 214.556 279.884 214.47 279.85C214.384 279.816 214.293 279.799 214.2 279.8C214.027 279.778 213.851 279.813 213.7 279.9C213.4 280.1 213.3 280.2 213.2 280.5L213.6 281.5L214.2 282.5L215.7 281.6ZM208.6 275.7L206.3 268.7L208.1 268.2L209.5 272.5L210.8 272.1L209.5 268.1L211.2 267.5L212.5 271.5L214.2 271L212.7 266.5L214.7 265.9L217 272.9L208.6 275.7ZM205.6 265.4L205 260.9C205 259.9 205 259.1 205.5 258.6C205.9 258.1 206.5 257.7 207.4 257.6C208.3 257.6 209 257.7 209.6 258.2C210.1 258.7 210.5 259.5 210.6 260.6L210.8 262L214 261.7L214.3 264.4L205.6 265.4ZM209 262.3L208.9 261.6C208.9 261.1 208.7 260.7 208.5 260.6C208.413 260.502 208.304 260.424 208.183 260.372C208.063 260.321 207.932 260.296 207.8 260.3C207.536 260.304 207.285 260.412 207.1 260.6C206.9 260.8 206.9 261.2 206.9 261.7L207 262.5L209 262.3ZM205.3 248.8L205.6 246.1L210.8 246.7C211.3 246.7 211.8 246.9 212.2 247.1C212.7 247.3 213.1 247.6 213.4 248L214 249.2C214.153 249.824 214.153 250.476 214 251.1C214 251.5 214 252 213.8 252.5C213.8 253 213.6 253.4 213.3 253.7L212.5 254.5C212.174 254.745 211.799 254.915 211.4 255C210.8 255.1 210.4 255.2 209.9 255.1L204.7 254.5L205 251.8L210.3 252.4C210.8 252.4 211.2 252.4 211.5 252.1C211.8 251.9 211.9 251.5 212 251.1C212.038 250.89 212.031 250.675 211.98 250.468C211.928 250.261 211.833 250.067 211.7 249.9C211.5 249.6 211.1 249.5 210.7 249.4L205.3 248.8ZM206.4 242.4L208.1 237.5C208.4 236.7 208.8 236.2 209.4 235.9C209.659 235.759 209.945 235.677 210.239 235.66C210.533 235.643 210.827 235.691 211.1 235.8C211.503 235.95 211.847 236.225 212.081 236.585C212.315 236.945 212.427 237.371 212.4 237.8C212.8 237.2 213.2 236.8 213.6 236.8C214.081 236.605 214.619 236.605 215.1 236.8C215.502 236.933 215.861 237.169 216.142 237.485C216.423 237.801 216.616 238.186 216.7 238.6V239.6L216.3 240.8L214.8 245.3L206.4 242.4ZM210.6 240.9L211 239.8C211.2 239.4 211.2 239.1 211.1 238.8C211.1 238.7 210.9 238.5 210.6 238.4C210.491 238.347 210.371 238.319 210.25 238.319C210.129 238.319 210.009 238.347 209.9 238.4L209.4 239.2L209 240.4L210.6 240.9ZM213.9 242.1L214.4 240.7V239.7C214.361 239.584 214.295 239.478 214.208 239.392C214.122 239.305 214.016 239.239 213.9 239.2C213.791 239.147 213.671 239.119 213.55 239.119C213.429 239.119 213.309 239.147 213.2 239.2C213 239.4 212.8 239.7 212.7 240.2L212.2 241.5L213.9 242.1ZM210.6 231.8L212 229.4L217.7 232.8L219.9 229.2L221.8 230.3L218.2 236.3L210.6 231.8ZM216 223.7L217.7 221.6L224.5 227.2L222.7 229.3L216 223.7ZM227.8 219.1L230.1 218.1C230.4 218.7 230.6 219.3 230.6 219.9C230.635 220.45 230.532 221 230.3 221.5C230.001 222.073 229.593 222.582 229.1 223C228.523 223.534 227.842 223.942 227.1 224.2C226.4 224.4 225.7 224.4 224.9 224.2C223.984 223.869 223.185 223.279 222.6 222.5C221.6 221.5 221.2 220.3 221.3 219.2C221.3 218.1 221.9 217.1 223 216.2C223.66 215.565 224.497 215.147 225.4 215C226.277 214.919 227.156 215.13 227.9 215.6L226.4 217.6C226.219 217.467 226.016 217.366 225.8 217.3C225.57 217.248 225.331 217.248 225.1 217.3C224.837 217.371 224.596 217.509 224.4 217.7C223.9 218.1 223.7 218.6 223.8 219.2C223.8 219.6 224.1 220.2 224.7 220.7C225.3 221.5 225.9 221.9 226.3 222C226.8 222 227.2 222 227.6 221.6C228 221.2 228.2 220.9 228.2 220.5C228.2 220.1 228.1 219.6 227.8 219.1ZM237.2 215.7L234.5 217.2L234.8 218.7L232.3 220L231.1 210.6L233.7 209.2L240.8 215.5L238.3 216.8L237.2 215.7ZM235.8 214.3L233.5 212L234.1 215.2L235.8 214.3ZM244.2 205.3L248.2 204.6C248.859 204.46 249.541 204.46 250.2 204.6C250.7 204.7 251.1 204.9 251.5 205.3C251.9 205.6 252.2 206 252.5 206.5L252.9 208.2C253.1 209.2 253.1 209.9 252.9 210.4C252.816 210.939 252.611 211.452 252.3 211.9C252.042 212.274 251.699 212.583 251.3 212.8L249.7 213.3L245.7 214L244.2 205.3ZM247.2 206.8L248 211.5H248.7C249.2 211.3 249.7 211.2 249.8 211C250.1 210.9 250.2 210.6 250.3 210.3V208.7C250.1 207.8 249.8 207.2 249.5 206.9C249.1 206.6 248.5 206.5 247.9 206.7L247.2 206.8ZM255.5 203.8L262.8 204V206L258.2 205.8L258.1 207.2L262.3 207.3V209.1L258 209V210.7L262.7 210.9L262.6 212.9L255.1 212.6L255.5 203.8ZM266.1 204.6L268.8 205.2L267.2 211.7L271.3 212.7L270.8 214.8L264 213.2L266.1 204.6ZM280.3 209.3L284.2 211.6C285.1 212.1 285.6 212.6 285.8 213.3C285.9 214 285.8 214.7 285.4 215.4C285.22 215.751 284.966 216.058 284.655 216.299C284.344 216.541 283.984 216.712 283.6 216.8C282.9 217 282.1 216.8 281.1 216.2L279.8 215.5L278.2 218.3L275.8 216.9L280.3 209.3ZM280.8 213.9L281.3 214.3L282.4 214.6C282.522 214.578 282.639 214.532 282.742 214.463C282.845 214.394 282.933 214.304 283 214.2C283.088 214.089 283.152 213.96 283.187 213.822C283.221 213.684 283.226 213.54 283.2 213.4C283.1 213.1 282.9 212.9 282.4 212.6L281.8 212.2L280.8 213.9ZM288.4 224.2L286.1 222.1L284.8 222.9L282.8 220.9L291.2 216.8L293.4 218.8L289.8 227.5L287.8 225.5L288.4 224.2ZM289.3 222.4L290.7 219.4L287.9 221.1L289.3 222.4ZM290.3 228.3L297.6 223.3L300.2 227L301.2 228.8L301.1 230.1C300.9 230.5 300.6 230.9 300.1 231.2C299.767 231.496 299.345 231.672 298.9 231.7C298.49 231.733 298.078 231.665 297.7 231.5C297.405 231.342 297.135 231.14 296.9 230.9V232.3L296.6 232.9L295.2 235.4L293.5 232.9L294.9 230.2L295.2 229.4C295.2 229.2 295.2 228.9 295 228.7L294.8 228.5L291.8 230.5L290.3 228.3ZM296.3 227.6L296.9 228.6L297.4 229C297.457 229.083 297.531 229.153 297.617 229.205C297.704 229.256 297.8 229.289 297.9 229.3C298 229.3 298.2 229.3 298.4 229.1C298.509 229.038 298.602 228.952 298.672 228.848C298.741 228.743 298.785 228.624 298.8 228.5L298.4 227.5L297.7 226.5L296.3 227.6ZM299 240.8L297.8 237.9L296.3 238L295.3 235.5L304.7 235.3L305.7 238L298.8 244.4L297.8 241.7L299 240.8ZM300.5 239.6L303.1 237.5L299.8 237.7L300.5 239.6ZM302.8 249.2L304.6 248.9L305.3 253.1L301.5 253.7C300.941 253.103 300.469 252.43 300.1 251.7C299.402 250.201 299.226 248.511 299.6 246.9C299.9 246.2 300.3 245.7 301 245.2C301.685 244.723 302.473 244.415 303.3 244.3C304.169 244.136 305.066 244.205 305.9 244.5C306.677 244.786 307.342 245.311 307.8 246C308.1 246.6 308.4 247.3 308.5 248.3C308.616 249.029 308.616 249.771 308.5 250.5C308.446 250.969 308.274 251.416 308 251.8L306.7 252.8L305.8 250.2C306.1 250.1 306.3 249.9 306.5 249.6C306.6 249.3 306.7 248.9 306.6 248.6C306.585 248.321 306.505 248.048 306.366 247.805C306.227 247.562 306.033 247.355 305.8 247.2C305.3 246.9 304.6 246.9 303.8 247C302.8 247.1 302.1 247.4 301.8 247.8C301.618 248.02 301.487 248.277 301.418 248.554C301.348 248.831 301.342 249.12 301.4 249.4L301.7 250.3L302.3 251.1H303.1L302.8 249.2ZM308.6 262L308.3 264.7L303.1 264.3C302.615 264.245 302.141 264.11 301.7 263.9C301.235 263.699 300.823 263.391 300.5 263C300.225 262.68 300.021 262.305 299.9 261.9C299.745 261.245 299.711 260.567 299.8 259.9C299.8 259.5 299.8 259 300 258.5L300.4 257.3C300.637 256.943 300.943 256.637 301.3 256.4C301.597 256.168 301.937 255.998 302.3 255.9C302.83 255.819 303.37 255.819 303.9 255.9L309.1 256.3L308.9 259L303.5 258.5C303 258.5 302.6 258.5 302.3 258.8C302 259.1 301.9 259.4 301.8 259.9C301.8 260.4 301.8 260.7 302.1 261C302.4 261.3 302.7 261.5 303.2 261.5L308.6 262ZM298.8 271.4L299.8 268.4L298.6 267.5L299.4 264.9L306.8 270.8L305.8 273.6L296.4 274L297.4 271.3L298.8 271.4ZM300.8 271.4H304.1L301.4 269.6L300.8 271.4ZM304 278.6L302.4 281.2H299L300.6 284.2L299 286.8L296.4 281.2L293.2 279.4L294.6 277L297.8 278.9L304 278.6Z" fill="black"/>
<path d="M265.2 225.4C265.2 225.4 290.1 236.2 285.7 258.4C281.4 280.5 267.5 280.4 262.1 282.8C256.6 285.3 252.9 288.8 250.7 288.3C248.6 287.8 245.7 286.1 245.7 286.1C245.7 286.1 245.5 289.8 249.9 290.4C254.3 291.1 259.9 284.7 262.8 284C265.7 283.3 282.4 281.4 286.6 258.9C291.4 234.8 265.3 226.1 265.2 225.4Z" fill="#009B3A" stroke="black" stroke-width="0.1"/>
<path d="M277.7 230.2C277.831 230.907 277.885 231.533 277.852 231.98C277.819 232.427 277.701 232.669 277.518 232.669C277.335 232.669 277.096 232.427 276.84 231.98C276.583 231.533 276.323 230.907 276.1 230.2C275.947 229.713 275.816 229.205 275.718 228.713C275.621 228.22 275.558 227.758 275.536 227.361C275.514 226.964 275.532 226.642 275.59 226.421C275.648 226.2 275.744 226.085 275.87 226.085C275.996 226.085 276.149 226.2 276.318 226.421C276.486 226.642 276.666 226.964 276.842 227.361C277.019 227.758 277.188 228.22 277.337 228.713C277.486 229.205 277.61 229.713 277.7 230.2ZM276.9 230.4C277.149 230.849 277.381 231.322 277.578 231.785C277.775 232.247 277.933 232.688 278.04 233.075C278.147 233.461 278.2 233.784 278.197 234.019C278.193 234.254 278.132 234.396 278.017 234.434C277.903 234.472 277.739 234.405 277.537 234.239C277.335 234.072 277.1 233.81 276.849 233.472C276.599 233.133 276.338 232.726 276.088 232.281C275.837 231.837 275.602 231.364 275.4 230.9C275.089 230.184 274.871 229.52 274.784 229.022C274.697 228.523 274.746 228.219 274.921 228.16C275.097 228.101 275.39 228.292 275.75 228.7C276.11 229.108 276.516 229.708 276.9 230.4ZM274.4 232C274.838 232.129 275.268 232.278 275.668 232.44C276.067 232.601 276.427 232.772 276.727 232.942C277.028 233.112 277.262 233.278 277.417 233.43C277.573 233.582 277.646 233.718 277.633 233.83C277.62 233.942 277.52 234.027 277.341 234.081C277.161 234.135 276.905 234.156 276.586 234.144C276.267 234.132 275.892 234.086 275.483 234.01C275.074 233.934 274.638 233.829 274.2 233.7C273.316 233.44 272.479 233.101 271.873 232.758C271.266 232.415 270.941 232.095 270.967 231.87C270.994 231.644 271.37 231.531 272.014 231.556C272.658 231.58 273.516 231.74 274.4 232Z" fill="#009B3A" stroke="black" stroke-width="0.1"/>
<path d="M274.8 231.1C275.183 231.358 275.552 231.632 275.886 231.905C276.219 232.179 276.511 232.447 276.745 232.694C276.979 232.942 277.149 233.164 277.247 233.347C277.346 233.531 277.369 233.673 277.316 233.765C277.264 233.857 277.136 233.897 276.941 233.883C276.746 233.869 276.487 233.802 276.179 233.684C275.871 233.567 275.52 233.402 275.146 233.199C274.772 232.995 274.383 232.758 274 232.5C273.558 232.24 273.109 231.942 272.688 231.63C272.268 231.318 271.885 230.999 271.571 230.699C271.256 230.398 271.017 230.123 270.873 229.895C270.728 229.667 270.682 229.491 270.737 229.381C270.792 229.272 270.946 229.231 271.189 229.262C271.433 229.293 271.757 229.395 272.14 229.561C272.522 229.727 272.951 229.951 273.394 230.218C273.838 230.485 274.285 230.786 274.7 231.1H274.8Z" fill="#009B3A" stroke="black" stroke-width="0.1"/>
<path d="M275.8 230.7C276.226 231.05 276.674 231.47 277.101 231.92C277.529 232.371 277.92 232.835 278.239 233.269C278.557 233.703 278.791 234.091 278.917 234.396C279.044 234.701 279.059 234.913 278.962 235.011C278.864 235.108 278.657 235.088 278.36 234.953C278.064 234.818 277.688 234.572 277.269 234.238C276.85 233.905 276.403 233.496 275.97 233.052C275.537 232.607 275.134 232.141 274.8 231.7C274.447 231.235 274.184 230.814 274.039 230.483C273.893 230.151 273.87 229.922 273.973 229.819C274.076 229.716 274.3 229.744 274.622 229.899C274.944 230.054 275.351 230.331 275.8 230.7Z" fill="#009B3A" stroke="black" stroke-width="0.1"/>
<path d="M277.5 233.8L276.4 234.4C276.1 234.5 275.8 234.1 275.2 234.4C274.6 234.8 274.2 235.4 274 235.7C273.9 236.1 274.2 236.2 275 235.9C275.7 235.5 276 234.9 276.3 234.7C276.6 234.4 277.3 234.1 277.6 234L278.6 232.5C278.8 232.1 279.8 231.5 280.2 230.6C280.5 230 280.4 229.4 279.9 229.6C279.396 229.967 278.986 230.446 278.7 231C278.4 231.5 278.7 232 278.4 232.5L277.5 233.8ZM285.3 236.4C285.322 237.865 285.216 239.238 285.007 240.217C284.797 241.197 284.501 241.702 284.182 241.622C283.864 241.543 283.55 240.885 283.31 239.793C283.069 238.701 282.922 237.265 282.9 235.8C282.889 235.075 282.91 234.364 282.96 233.709C283.01 233.055 283.089 232.468 283.193 231.983C283.297 231.498 283.423 231.124 283.565 230.883C283.706 230.642 283.86 230.538 284.018 230.578C284.175 230.617 284.333 230.799 284.483 231.113C284.633 231.427 284.771 231.866 284.89 232.407C285.009 232.948 285.107 233.579 285.177 234.264C285.247 234.949 285.289 235.675 285.3 236.4Z" fill="#009B3A" stroke="black" stroke-width="0.1"/>
<path d="M284 236.3C284.303 237.717 284.472 239.08 284.471 240.091C284.469 241.102 284.297 241.678 283.992 241.691C283.687 241.704 283.274 241.154 282.844 240.162C282.414 239.17 282.003 237.817 281.7 236.4C281.553 235.705 281.437 235.017 281.359 234.375C281.281 233.732 281.242 233.149 281.245 232.658C281.248 232.166 281.292 231.776 281.375 231.51C281.458 231.244 281.579 231.107 281.73 231.107C281.881 231.107 282.059 231.244 282.255 231.51C282.451 231.776 282.66 232.166 282.871 232.658C283.082 233.149 283.29 233.732 283.484 234.375C283.678 235.017 283.853 235.705 284 236.4V236.3Z" fill="#009B3A" stroke="black" stroke-width="0.1"/>
<path d="M280 237.6C280.614 237.971 281.236 238.394 281.82 238.84C282.404 239.285 282.934 239.741 283.374 240.174C283.813 240.608 284.15 241.007 284.36 241.344C284.57 241.681 284.647 241.946 284.586 242.121C284.525 242.296 284.328 242.376 284.008 242.355C283.689 242.334 283.255 242.213 282.739 242C282.223 241.787 281.637 241.488 281.025 241.125C280.413 240.762 279.789 240.343 279.2 239.9C278.65 239.529 278.116 239.13 277.628 238.727C277.14 238.324 276.708 237.924 276.356 237.55C276.004 237.176 275.74 236.835 275.578 236.548C275.416 236.26 275.36 236.031 275.412 235.873C275.465 235.716 275.625 235.633 275.884 235.629C276.143 235.626 276.496 235.702 276.922 235.853C277.348 236.004 277.839 236.227 278.367 236.51C278.895 236.792 279.45 237.129 280 237.5V237.6Z" fill="#009B3A" stroke="black" stroke-width="0.1"/>
<path d="M280.8 236.4C281.709 237.502 282.502 238.649 283.004 239.588C283.506 240.527 283.676 241.181 283.477 241.406C283.279 241.632 282.727 241.41 281.943 240.79C281.16 240.17 280.209 239.202 279.3 238.1C278.85 237.554 278.423 236.992 278.045 236.445C277.667 235.898 277.344 235.377 277.096 234.912C276.847 234.447 276.677 234.047 276.596 233.735C276.515 233.423 276.524 233.205 276.622 233.094C276.721 232.982 276.907 232.979 277.17 233.085C277.433 233.19 277.768 233.403 278.156 233.71C278.544 234.017 278.977 234.413 279.431 234.874C279.885 235.336 280.35 235.854 280.8 236.4Z" fill="#009B3A" stroke="black" stroke-width="0.1"/>
<path d="M282.4 236.3C282.759 236.971 283.091 237.648 283.375 238.293C283.66 238.939 283.892 239.539 284.058 240.06C284.224 240.58 284.321 241.012 284.343 241.329C284.365 241.647 284.313 241.844 284.188 241.91C284.063 241.975 283.869 241.908 283.616 241.712C283.363 241.516 283.057 241.195 282.714 240.767C282.372 240.339 282 239.812 281.62 239.217C281.24 238.623 280.859 237.971 280.5 237.3C280.14 236.629 279.809 235.952 279.524 235.307C279.24 234.662 279.008 234.061 278.842 233.541C278.676 233.02 278.579 232.588 278.557 232.271C278.534 231.953 278.587 231.756 278.712 231.69C278.837 231.625 279.031 231.692 279.284 231.888C279.537 232.084 279.843 232.405 280.186 232.833C280.528 233.261 280.9 233.788 281.28 234.383C281.66 234.978 282.04 235.629 282.4 236.3Z" fill="#009B3A" stroke="black" stroke-width="0.1"/>
<path d="M283.8 241.5L281.9 241.9C281.6 241.9 281.3 241.2 280.3 241.4C279.3 241.6 278.5 242.3 278.3 242.7C277.9 243.1 278.3 243.5 279.5 243.3C280.7 243.1 281.1 242.3 281.7 242.2L283.8 241.8L285.6 240.1C286.1 239.6 287.6 239.1 288.4 238.1C289.1 237.3 289.1 236.5 288.4 236.6C287.592 236.879 286.869 237.361 286.3 238C285.8 238.6 285.9 239.5 285.3 240L283.8 241.5ZM289.3 246.7C289.182 247.412 289.036 248.104 288.872 248.737C288.707 249.37 288.527 249.931 288.341 250.389C288.155 250.846 287.968 251.19 287.789 251.402C287.611 251.614 287.444 251.689 287.3 251.624C287.155 251.558 287.036 251.353 286.947 251.02C286.859 250.686 286.804 250.232 286.786 249.682C286.767 249.131 286.785 248.497 286.839 247.814C286.893 247.13 286.982 246.412 287.1 245.7C287.218 244.988 287.364 244.295 287.528 243.662C287.693 243.029 287.873 242.468 288.059 242.011C288.244 241.554 288.432 241.209 288.611 240.997C288.789 240.785 288.956 240.71 289.1 240.776C289.244 240.842 289.364 241.047 289.452 241.38C289.541 241.713 289.596 242.168 289.614 242.718C289.633 243.268 289.615 243.903 289.561 244.586C289.507 245.269 289.418 245.988 289.3 246.7Z" fill="#009B3A" stroke="black" stroke-width="0.1"/>
<path d="M288 246.4C288.077 247.218 288.115 248.082 288.112 248.921C288.108 249.76 288.063 250.551 287.979 251.227C287.896 251.904 287.776 252.447 287.631 252.813C287.486 253.179 287.32 253.357 287.145 253.332C286.97 253.307 286.792 253.08 286.626 252.669C286.459 252.259 286.309 251.677 286.188 250.971C286.066 250.265 285.977 249.456 285.927 248.609C285.877 247.762 285.868 246.902 285.9 246.1C285.864 245.349 285.861 244.595 285.889 243.887C285.918 243.179 285.978 242.532 286.066 241.989C286.154 241.445 286.268 241.017 286.401 240.731C286.533 240.445 286.681 240.308 286.836 240.329C286.99 240.351 287.147 240.529 287.296 240.853C287.446 241.177 287.584 241.64 287.704 242.212C287.823 242.784 287.919 243.452 287.988 244.173C288.056 244.894 288.094 245.653 288.1 246.4H288Z" fill="#009B3A" stroke="black" stroke-width="0.1"/>
<path d="M284 246.8C284.478 247.268 284.938 247.765 285.353 248.261C285.768 248.757 286.129 249.242 286.416 249.686C286.702 250.131 286.907 250.526 287.018 250.848C287.13 251.17 287.146 251.412 287.065 251.56C286.984 251.709 286.808 251.76 286.548 251.71C286.288 251.661 285.948 251.512 285.55 251.273C285.152 251.034 284.703 250.709 284.231 250.319C283.758 249.928 283.272 249.48 282.8 249C282.258 248.524 281.712 247.986 281.205 247.428C280.697 246.87 280.24 246.305 279.87 245.778C279.499 245.251 279.224 244.774 279.066 244.385C278.908 243.996 278.87 243.704 278.956 243.531C279.043 243.359 279.25 243.311 279.563 243.39C279.877 243.469 280.287 243.674 280.764 243.99C281.24 244.305 281.771 244.722 282.314 245.209C282.858 245.696 283.4 246.24 283.9 246.8H284Z" fill="#009B3A" stroke="black" stroke-width="0.1"/>
<path d="M285 245.9C285.347 246.536 285.667 247.184 285.942 247.807C286.218 248.43 286.443 249.016 286.604 249.53C286.766 250.045 286.861 250.479 286.885 250.808C286.909 251.136 286.86 251.352 286.742 251.444C286.623 251.536 286.438 251.502 286.196 251.343C285.954 251.185 285.66 250.905 285.332 250.52C285.003 250.136 284.645 249.653 284.279 249.101C283.914 248.548 283.547 247.936 283.2 247.3C282.802 246.635 282.421 245.928 282.084 245.227C281.747 244.527 281.462 243.851 281.25 243.248C281.038 242.645 280.904 242.129 280.857 241.738C280.81 241.347 280.852 241.09 280.979 240.985C281.106 240.88 281.316 240.93 281.593 241.132C281.87 241.333 282.208 241.681 282.583 242.15C282.957 242.62 283.359 243.199 283.76 243.847C284.16 244.495 284.549 245.196 284.9 245.9H285Z" fill="#009B3A" stroke="black" stroke-width="0.1"/>
<path d="M286.5 246C286.735 246.739 286.942 247.482 287.109 248.185C287.276 248.888 287.399 249.538 287.473 250.098C287.546 250.657 287.568 251.116 287.537 251.448C287.505 251.779 287.421 251.977 287.29 252.029C287.159 252.082 286.982 251.988 286.771 251.754C286.56 251.519 286.318 251.149 286.059 250.663C285.8 250.178 285.529 249.587 285.261 248.924C284.994 248.261 284.735 247.539 284.5 246.8C284.265 246.061 284.058 245.318 283.891 244.615C283.724 243.912 283.6 243.262 283.527 242.702C283.453 242.143 283.432 241.684 283.463 241.352C283.495 241.021 283.578 240.823 283.71 240.771C283.841 240.718 284.017 240.812 284.229 241.046C284.44 241.281 284.682 241.651 284.941 242.137C285.2 242.622 285.471 243.213 285.739 243.876C286.006 244.539 286.265 245.261 286.5 246Z" fill="#009B3A" stroke="black" stroke-width="0.1"/>
<path d="M287 251.5H285C284.7 251.5 284.6 250.7 283.6 250.7C282.6 250.7 281.6 251.2 281.3 251.6C280.9 251.9 281.3 252.4 282.4 252.4C283.6 252.4 284.2 251.8 284.8 251.7H286.9L288.9 250.4C289.5 250 291.2 249.8 292.1 249C292.9 248.4 293.1 247.5 292.4 247.6C291.526 247.716 290.698 248.061 290 248.6C289.4 249 289.4 249.9 288.7 250.3L286.9 251.5M289.6 258.2C288.833 259.423 288.014 260.501 287.322 261.197C286.629 261.893 286.121 262.15 285.909 261.911C285.697 261.672 285.798 260.957 286.19 259.924C286.582 258.89 287.233 257.623 288 256.4C288.767 255.177 289.586 254.099 290.279 253.403C290.971 252.707 291.479 252.45 291.691 252.689C291.903 252.928 291.802 253.642 291.41 254.676C291.018 255.709 290.367 256.977 289.6 258.2Z" fill="#009B3A"/>
<path d="M287 251.5H285C284.7 251.5 284.6 250.7 283.6 250.7C282.6 250.7 281.6 251.2 281.3 251.6C280.9 251.9 281.3 252.4 282.4 252.4C283.6 252.4 284.2 251.8 284.8 251.7H286.9L288.9 250.4C289.5 250 291.2 249.8 292.1 249C292.9 248.4 293.1 247.5 292.4 247.6C291.526 247.716 290.698 248.061 290 248.6C289.4 249 289.4 249.9 288.7 250.3L286.9 251.5M289.6 258.2C288.833 259.423 288.014 260.501 287.322 261.197C286.629 261.893 286.121 262.15 285.909 261.911C285.697 261.672 285.798 260.957 286.19 259.924C286.582 258.89 287.233 257.623 288 256.4C288.767 255.177 289.586 254.099 290.279 253.403C290.971 252.707 291.479 252.45 291.691 252.689C291.903 252.928 291.802 253.642 291.41 254.676C291.018 255.709 290.367 256.977 289.6 258.2Z" stroke="black" stroke-width="0.1"/>
<path d="M288.6 257.4C288.32 258.128 288.019 258.834 287.713 259.477C287.406 260.12 287.102 260.687 286.816 261.147C286.53 261.606 286.268 261.948 286.046 262.154C285.823 262.36 285.645 262.426 285.52 262.347C285.395 262.268 285.327 262.047 285.319 261.695C285.31 261.344 285.362 260.869 285.472 260.298C285.582 259.727 285.746 259.071 285.957 258.368C286.168 257.665 286.42 256.928 286.7 256.2C287.265 254.729 287.907 253.381 288.484 252.453C289.062 251.525 289.528 251.093 289.78 251.253C290.032 251.412 290.049 252.149 289.828 253.302C289.607 254.454 289.165 255.929 288.6 257.4ZM284.7 256.1C285.183 257.351 285.541 258.635 285.695 259.67C285.849 260.704 285.787 261.405 285.521 261.617C285.256 261.829 284.81 261.535 284.281 260.801C283.752 260.066 283.183 258.951 282.7 257.7C282.217 256.449 281.859 255.165 281.705 254.13C281.551 253.095 281.613 252.395 281.879 252.183C282.144 251.971 282.59 252.264 283.119 252.999C283.648 253.733 284.217 254.849 284.7 256.1Z" fill="#009B3A" stroke="black" stroke-width="0.1"/>
<path d="M286 255.7C286.15 257.329 286.177 258.923 286.077 260.132C285.976 261.34 285.756 262.064 285.464 262.143C285.173 262.223 284.833 261.652 284.521 260.556C284.209 259.46 283.95 257.929 283.8 256.3C283.726 255.493 283.681 254.687 283.668 253.926C283.655 253.166 283.674 252.467 283.724 251.868C283.773 251.27 283.853 250.784 283.958 250.439C284.063 250.094 284.192 249.896 284.336 249.857C284.481 249.818 284.638 249.937 284.8 250.21C284.962 250.482 285.125 250.901 285.279 251.444C285.434 251.987 285.577 252.642 285.701 253.372C285.824 254.102 285.926 254.893 286 255.7Z" fill="#009B3A" stroke="black" stroke-width="0.1"/>
<path d="M287.4 256.5C287.323 257.294 287.219 258.078 287.094 258.806C286.968 259.535 286.823 260.194 286.667 260.746C286.511 261.299 286.346 261.733 286.184 262.025C286.021 262.317 285.863 262.46 285.719 262.447C285.574 262.434 285.446 262.264 285.342 261.948C285.238 261.632 285.159 261.176 285.111 260.605C285.063 260.034 285.046 259.36 285.061 258.622C285.076 257.883 285.123 257.094 285.2 256.3C285.276 255.506 285.38 254.722 285.506 253.993C285.632 253.265 285.777 252.606 285.933 252.053C286.089 251.501 286.253 251.067 286.416 250.775C286.578 250.483 286.737 250.34 286.881 250.353C287.025 250.366 287.153 250.535 287.258 250.851C287.362 251.167 287.44 251.624 287.489 252.195C287.537 252.766 287.554 253.439 287.538 254.178C287.523 254.917 287.476 255.706 287.4 256.5Z" fill="#009B3A" stroke="black" stroke-width="0.1"/>
<path d="M285.6 261.7L283.9 260.9C283.6 260.7 283.8 260 282.9 259.6C281.9 259.2 280.9 259.2 280.5 259.4C280 259.6 280.1 260.1 281.2 260.7C282.2 261.2 283 260.8 283.6 261.1L285.6 261.9L287.8 261.5C288.5 261.5 290.1 261.9 291.2 261.5C292.2 261.3 292.7 260.5 292.1 260.3C291.259 260.028 290.36 259.993 289.5 260.2C288.8 260.4 288.4 261.2 287.7 261.4C287.2 261.4 285.7 261.8 285.6 261.7ZM286.6 269.9C285.98 270.433 285.351 270.926 284.748 271.353C284.145 271.78 283.58 272.131 283.086 272.387C282.592 272.643 282.178 272.798 281.868 272.844C281.558 272.89 281.358 272.826 281.279 272.656C281.2 272.485 281.244 272.211 281.409 271.849C281.573 271.488 281.855 271.046 282.238 270.548C282.62 270.051 283.097 269.508 283.639 268.951C284.182 268.394 284.78 267.833 285.4 267.3C286.006 266.781 286.62 266.301 287.208 265.887C287.795 265.473 288.344 265.134 288.824 264.888C289.303 264.642 289.704 264.494 290.002 264.453C290.301 264.413 290.492 264.479 290.564 264.65C290.636 264.821 290.589 265.092 290.423 265.448C290.258 265.804 289.979 266.239 289.602 266.726C289.224 267.214 288.756 267.745 288.224 268.289C287.692 268.834 287.106 269.381 286.5 269.9" fill="#009B3A"/>
<path d="M286.6 269.9C285.98 270.433 285.351 270.926 284.748 271.353C284.145 271.78 283.58 272.131 283.086 272.387C282.592 272.643 282.178 272.798 281.868 272.844C281.558 272.89 281.358 272.826 281.279 272.656C281.2 272.485 281.244 272.211 281.409 271.849C281.573 271.488 281.855 271.046 282.238 270.548C282.62 270.051 283.097 269.508 283.639 268.951C284.182 268.394 284.78 267.833 285.4 267.3C286.006 266.781 286.62 266.301 287.208 265.887C287.795 265.473 288.344 265.134 288.824 264.888C289.303 264.642 289.704 264.494 290.002 264.453C290.301 264.413 290.492 264.479 290.564 264.65C290.636 264.821 290.589 265.092 290.423 265.448C290.258 265.804 289.979 266.239 289.602 266.726C289.224 267.214 288.756 267.745 288.224 268.289C287.692 268.834 287.106 269.381 286.5 269.9M285.6 261.7L283.9 260.9C283.6 260.7 283.8 260 282.9 259.6C281.9 259.2 280.9 259.2 280.5 259.4C280 259.6 280.1 260.1 281.2 260.7C282.2 261.2 283 260.8 283.6 261.1L285.6 261.9L287.8 261.5C288.5 261.5 290.1 261.9 291.2 261.5C292.2 261.3 292.7 260.5 292.1 260.3C291.259 260.028 290.36 259.993 289.5 260.2C288.8 260.4 288.4 261.2 287.7 261.4C287.2 261.4 285.7 261.8 285.6 261.7Z" stroke="black" stroke-width="0.1"/>
<path d="M285.6 268.7C285.067 269.474 284.471 270.252 283.862 270.972C283.252 271.692 282.645 272.334 282.089 272.846C281.534 273.358 281.044 273.727 280.66 273.922C280.276 274.118 280.009 274.135 279.878 273.972C279.748 273.809 279.759 273.471 279.91 272.985C280.061 272.498 280.349 271.877 280.749 271.17C281.15 270.464 281.652 269.692 282.216 268.915C282.781 268.139 283.392 267.381 284 266.7C284.533 265.926 285.128 265.148 285.738 264.428C286.347 263.708 286.954 263.066 287.51 262.554C288.066 262.042 288.556 261.673 288.94 261.478C289.323 261.282 289.591 261.265 289.721 261.428C289.852 261.591 289.841 261.929 289.69 262.415C289.538 262.902 289.251 263.523 288.851 264.229C288.45 264.936 287.948 265.708 287.383 266.484C286.819 267.261 286.208 268.019 285.6 268.7Z" fill="#009B3A" stroke="black" stroke-width="0.1"/>
<path d="M281.8 265.8C281.861 266.603 281.888 267.41 281.879 268.177C281.87 268.944 281.825 269.655 281.748 270.269C281.67 270.883 281.561 271.388 281.427 271.756C281.292 272.124 281.135 272.347 280.965 272.413C280.794 272.478 280.613 272.385 280.432 272.139C280.251 271.892 280.073 271.497 279.909 270.976C279.745 270.455 279.598 269.818 279.477 269.101C279.355 268.385 279.261 267.603 279.2 266.8C279.139 265.997 279.112 265.189 279.121 264.423C279.13 263.656 279.174 262.945 279.252 262.331C279.329 261.717 279.438 261.212 279.573 260.844C279.707 260.476 279.864 260.253 280.035 260.187C280.206 260.122 280.387 260.215 280.568 260.461C280.749 260.708 280.926 261.103 281.09 261.624C281.254 262.145 281.401 262.782 281.523 263.499C281.645 264.215 281.739 264.997 281.8 265.8Z" fill="#009B3A" stroke="black" stroke-width="0.1"/>
<path d="M283.3 265.8C282.965 267.065 282.577 268.166 282.194 268.94C281.81 269.715 281.452 270.121 281.171 270.098C280.891 270.076 280.703 269.626 280.636 268.816C280.569 268.006 280.627 266.878 280.8 265.6C280.926 264.673 281.108 263.698 281.333 262.752C281.558 261.806 281.818 260.916 282.094 260.153C282.37 259.39 282.653 258.775 282.922 258.357C283.19 257.939 283.436 257.73 283.639 257.746C283.843 257.763 283.998 258.004 284.094 258.451C284.189 258.898 284.222 259.538 284.189 260.321C284.156 261.103 284.058 262.006 283.904 262.958C283.75 263.909 283.543 264.882 283.3 265.8Z" fill="#009B3A" stroke="black" stroke-width="0.1"/>
<path d="M284.6 267.1C284.275 267.901 283.923 268.683 283.565 269.401C283.207 270.119 282.85 270.759 282.513 271.284C282.176 271.809 281.867 272.208 281.603 272.461C281.339 272.713 281.126 272.812 280.975 272.753C280.67 272.634 280.638 271.876 280.887 270.647C281.135 269.418 281.643 267.819 282.3 266.2C282.631 265.387 282.988 264.594 283.352 263.868C283.716 263.142 284.078 262.496 284.419 261.968C284.76 261.439 285.072 261.038 285.339 260.787C285.605 260.537 285.819 260.442 285.971 260.507C286.122 260.573 286.206 260.798 286.219 261.17C286.232 261.542 286.173 262.053 286.045 262.675C285.918 263.296 285.725 264.016 285.477 264.792C285.229 265.569 284.931 266.387 284.6 267.2" fill="#009B3A"/>
<path d="M284.6 267.1C284.275 267.901 283.923 268.683 283.565 269.401C283.207 270.119 282.85 270.759 282.513 271.284C282.176 271.809 281.867 272.208 281.603 272.461C281.339 272.713 281.126 272.812 280.975 272.753C280.67 272.634 280.638 271.876 280.887 270.647C281.135 269.418 281.643 267.819 282.3 266.2C282.631 265.387 282.988 264.594 283.352 263.868C283.716 263.142 284.078 262.496 284.419 261.968C284.76 261.439 285.072 261.038 285.339 260.787C285.605 260.537 285.819 260.442 285.971 260.507C286.122 260.573 286.206 260.798 286.219 261.17C286.232 261.542 286.173 262.053 286.045 262.675C285.918 263.296 285.725 264.016 285.477 264.792C285.229 265.569 284.931 266.387 284.6 267.2" stroke="black" stroke-width="0.1"/>
<path d="M281 272.3L279.3 270.8C279.1 270.5 279.5 269.8 278.6 269C277.886 268.358 276.96 268.002 276 268C275.4 268 275.4 268.6 276.4 269.6C277.4 270.6 278.4 270.4 278.9 270.9C279.597 271.352 280.236 271.89 280.8 272.5L283.5 272.9C284.2 273 285.8 274.2 287.2 274.2C288.4 274.2 289.2 273.6 288.5 273.1C287.703 272.537 286.772 272.192 285.8 272.1C284.9 272.1 284.2 272.8 283.3 272.7L280.9 272.3M278.5 280.1C277.549 280.314 276.56 280.482 275.609 280.591C274.657 280.7 273.769 280.748 273.013 280.73C272.256 280.712 271.65 280.629 271.242 280.487C270.833 280.346 270.634 280.149 270.657 279.913C270.681 279.677 270.927 279.407 271.378 279.125C271.829 278.842 272.472 278.554 273.257 278.282C274.043 278.011 274.951 277.763 275.912 277.558C276.873 277.353 277.86 277.197 278.8 277.1C279.751 276.886 280.741 276.718 281.692 276.609C282.643 276.5 283.531 276.452 284.288 276.47C285.044 276.488 285.65 276.571 286.058 276.713C286.467 276.854 286.667 277.051 286.643 277.287C286.619 277.523 286.373 277.793 285.922 278.075C285.471 278.358 284.829 278.646 284.043 278.918C283.257 279.189 282.349 279.437 281.388 279.642C280.428 279.847 279.44 280.003 278.5 280.1Z" fill="#009B3A"/>
<path d="M281 272.3L279.3 270.8C279.1 270.5 279.5 269.8 278.6 269C277.886 268.358 276.96 268.002 276 268C275.4 268 275.4 268.6 276.4 269.6C277.4 270.6 278.4 270.4 278.9 270.9C279.597 271.352 280.236 271.89 280.8 272.5L283.5 272.9C284.2 273 285.8 274.2 287.2 274.2C288.4 274.2 289.2 273.6 288.5 273.1C287.703 272.537 286.772 272.192 285.8 272.1C284.9 272.1 284.2 272.8 283.3 272.7L280.9 272.3M278.5 280.1C277.549 280.314 276.56 280.482 275.609 280.591C274.657 280.7 273.769 280.748 273.013 280.73C272.256 280.712 271.65 280.629 271.242 280.487C270.833 280.346 270.634 280.149 270.657 279.913C270.681 279.677 270.927 279.407 271.378 279.125C271.829 278.842 272.472 278.554 273.257 278.282C274.043 278.011 274.951 277.763 275.912 277.558C276.873 277.353 277.86 277.197 278.8 277.1C279.751 276.886 280.741 276.718 281.692 276.609C282.643 276.5 283.531 276.452 284.288 276.47C285.044 276.488 285.65 276.571 286.058 276.713C286.467 276.854 286.667 277.051 286.643 277.287C286.619 277.523 286.373 277.793 285.922 278.075C285.471 278.358 284.829 278.646 284.043 278.918C283.257 279.189 282.349 279.437 281.388 279.642C280.428 279.847 279.44 280.003 278.5 280.1Z" stroke="black" stroke-width="0.1"/>
<path d="M278.4 278.4C276.807 278.981 275.297 279.39 274.171 279.546C273.044 279.701 272.384 279.592 272.321 279.239C272.258 278.886 272.797 278.316 273.831 277.642C274.864 276.967 276.317 276.238 277.9 275.6C279.493 275.019 281.003 274.609 282.13 274.454C283.256 274.298 283.916 274.408 283.979 274.761C284.042 275.114 283.503 275.684 282.47 276.358C281.436 277.033 279.983 277.761 278.4 278.4Z" fill="#009B3A" stroke="black" stroke-width="0.1"/>
<path d="M276.1 273.5C275.389 274.865 274.613 276.081 273.908 276.931C273.204 277.78 272.619 278.207 272.258 278.135C271.897 278.062 271.783 277.496 271.937 276.536C272.092 275.577 272.504 274.288 273.1 272.9C273.463 272.055 273.882 271.201 274.329 270.396C274.776 269.592 275.24 268.855 275.689 268.238C276.138 267.622 276.561 267.139 276.929 266.823C277.297 266.508 277.602 266.367 277.822 266.411C278.042 266.455 278.171 266.682 278.202 267.078C278.233 267.473 278.164 268.027 278.001 268.701C277.837 269.375 277.582 270.153 277.254 270.982C276.926 271.81 276.532 272.669 276.1 273.5Z" fill="#009B3A" stroke="black" stroke-width="0.1"/>
<path d="M277.7 274.4C277.088 275.092 276.451 275.757 275.826 276.357C275.2 276.957 274.598 277.479 274.054 277.894C273.51 278.31 273.034 278.61 272.654 278.778C272.275 278.946 271.998 278.978 271.841 278.873C271.683 278.768 271.647 278.528 271.736 278.166C271.825 277.804 272.035 277.327 272.357 276.763C272.678 276.199 273.103 275.559 273.608 274.879C274.113 274.199 274.688 273.492 275.3 272.8C276.536 271.401 277.848 270.144 278.946 269.305C280.045 268.466 280.841 268.114 281.16 268.326C281.478 268.539 281.292 269.298 280.643 270.437C279.995 271.576 278.936 273.001 277.7 274.4Z" fill="#009B3A" stroke="black" stroke-width="0.1"/>
<path d="M278.1 276.4C277.333 277.014 276.53 277.603 275.743 278.129C274.956 278.654 274.203 279.104 273.534 279.449C272.865 279.793 272.296 280.025 271.863 280.128C271.43 280.231 271.143 280.203 271.022 280.047C270.901 279.89 270.949 279.608 271.161 279.22C271.373 278.831 271.746 278.344 272.254 277.792C272.762 277.239 273.394 276.633 274.109 276.014C274.824 275.395 275.604 274.777 276.4 274.2C277.897 273.056 279.427 272.076 280.654 271.473C281.881 270.871 282.705 270.696 282.944 270.988C283.182 271.28 282.817 272.014 281.927 273.029C281.037 274.044 279.697 275.256 278.2 276.4" fill="#009B3A"/>
<path d="M278.1 276.4C277.333 277.014 276.53 277.603 275.743 278.129C274.956 278.654 274.203 279.104 273.534 279.449C272.865 279.793 272.296 280.025 271.863 280.128C271.43 280.231 271.143 280.203 271.022 280.047C270.901 279.89 270.949 279.608 271.161 279.22C271.373 278.831 271.746 278.344 272.254 277.792C272.762 277.239 273.394 276.633 274.109 276.014C274.824 275.395 275.604 274.777 276.4 274.2C277.897 273.056 279.427 272.076 280.654 271.473C281.881 270.871 282.705 270.696 282.944 270.988C283.182 271.28 282.817 272.014 281.927 273.029C281.037 274.044 279.697 275.256 278.2 276.4" stroke="black" stroke-width="0.1"/>
<path d="M271.8 279.2L271.1 276.9C271 276.4 271.8 275.9 271.4 274.7C271.062 273.65 270.351 272.76 269.4 272.2C268.9 271.9 268.4 272.5 268.9 274C269.3 275.5 270.4 276 270.7 276.7L271.5 279.3C272.1 279.6 273.2 280.7 273.9 281.3C274.6 281.8 275.5 283.8 276.9 284.6C277.9 285.3 278.9 285.2 278.7 284.3C278.224 283.302 277.501 282.441 276.6 281.8C275.8 281.2 274.6 281.5 273.9 280.9C273.4 280.5 271.8 279.3 271.9 279.2" fill="#009B3A"/>
<path d="M271.8 279.2L271.1 276.9C271 276.4 271.8 275.9 271.4 274.7C271.062 273.65 270.351 272.76 269.4 272.2C268.9 271.9 268.4 272.5 268.9 274C269.3 275.5 270.4 276 270.7 276.7L271.5 279.3C272.1 279.6 273.2 280.7 273.9 281.3C274.6 281.8 275.5 283.8 276.9 284.6C277.9 285.3 278.9 285.2 278.7 284.3C278.224 283.302 277.501 282.441 276.6 281.8C275.8 281.2 274.6 281.5 273.9 280.9C273.4 280.5 271.8 279.3 271.9 279.2" stroke="black" stroke-width="0.1"/>
<path d="M268 285.9C266.295 285.919 264.67 285.741 263.475 285.405C262.279 285.068 261.609 284.6 261.609 284.102C261.609 283.604 262.279 283.114 263.475 282.74C264.67 282.365 266.295 282.136 268 282.1C269.705 282.081 271.33 282.259 272.525 282.595C273.721 282.932 274.391 283.399 274.391 283.898C274.391 284.396 273.721 284.886 272.525 285.26C271.33 285.635 269.705 285.864 268 285.9Z" fill="#009B3A" stroke="black" stroke-width="0.1"/>
<path d="M267.1 280C265.969 281.457 264.737 282.729 263.674 283.535C262.612 284.34 261.807 284.614 261.435 284.296C261.064 283.977 261.157 283.093 261.694 281.838C262.232 280.582 263.169 279.057 264.3 277.6C265.431 276.142 266.663 274.871 267.726 274.065C268.788 273.26 269.593 272.986 269.965 273.304C270.336 273.622 270.243 274.507 269.705 275.762C269.168 277.018 268.231 278.542 267.1 280Z" fill="#009B3A" stroke="black" stroke-width="0.1"/>
<path d="M268 283C266.592 283.512 265.269 283.827 264.258 283.892C263.247 283.956 262.61 283.765 262.456 283.351C262.303 282.938 262.642 282.328 263.416 281.626C264.19 280.923 265.351 280.172 266.7 279.5C268.108 278.988 269.431 278.673 270.442 278.608C271.453 278.544 272.09 278.735 272.243 279.149C272.397 279.562 272.057 280.172 271.284 280.874C270.51 281.577 269.349 282.328 268 283ZM269.8 226C270.52 226.672 271.12 227.335 271.48 227.858C271.841 228.382 271.937 228.727 271.749 228.828C271.561 228.928 271.103 228.775 270.464 228.4C269.826 228.025 269.054 227.454 268.3 226.8C267.88 226.436 267.479 226.057 267.122 225.688C266.765 225.319 266.46 224.968 266.227 224.657C265.993 224.346 265.836 224.081 265.765 223.881C265.695 223.68 265.713 223.548 265.817 223.492C265.922 223.436 266.111 223.458 266.373 223.557C266.635 223.655 266.964 223.828 267.338 224.064C267.713 224.3 268.126 224.594 268.549 224.927C268.973 225.261 269.399 225.626 269.8 226ZM267.8 227.7C268.905 227.845 269.981 228.074 270.79 228.336C271.6 228.598 272.077 228.872 272.116 229.097C272.156 229.323 271.755 229.481 271.002 229.538C270.249 229.595 269.205 229.545 268.1 229.4C266.995 229.255 265.919 229.026 265.11 228.764C264.3 228.502 263.823 228.228 263.783 228.003C263.743 227.777 264.144 227.619 264.898 227.562C265.651 227.505 266.695 227.555 267.8 227.7Z" fill="#009B3A" stroke="black" stroke-width="0.1"/>
<path d="M268.6 226.6C269.624 227.119 270.563 227.691 271.212 228.19C271.861 228.688 272.166 229.072 272.06 229.258C271.953 229.444 271.445 229.416 270.646 229.18C269.847 228.944 268.824 228.519 267.8 228C267.293 227.743 266.802 227.47 266.354 227.197C265.905 226.925 265.509 226.657 265.188 226.41C264.539 225.912 264.235 225.527 264.341 225.342C264.447 225.156 264.955 225.184 265.754 225.42C266.553 225.656 267.577 226.081 268.6 226.6ZM239.1 279.5C239.1 279.5 244.6 280.7 249.4 282.4C254.1 284.1 261.4 290.1 263.4 290.4C265.5 290.5 268.5 289.8 269.7 286.6C266.3 287.6 264.3 288.9 261.1 287.1C260 286.7 256.3 283.3 252.1 281.5C248.118 279.948 244.044 278.646 239.9 277.6L239.1 279.5ZM245 229.9L251.3 226.5L244.3 228.3L243.5 229.5L245 229.9Z" fill="#009B3A" stroke="black" stroke-width="0.1"/>
<path d="M251 231.4C248.5 231 244.7 230.1 242.3 229.9C244 228.1 246.3 225 247.7 223.1C246.7 224.9 245.3 227.3 244.7 229.1C246.4 230 249.1 230.7 251 231.4Z" fill="#009B3A" stroke="black" stroke-width="0.1"/>
<path d="M243.8 230.3L249.4 225.9L242.9 228.9L242.3 230.2H243.8" fill="#009B3A"/>
<path d="M243.8 230.3L249.4 225.9L242.9 228.9L242.3 230.2H243.8" stroke="black" stroke-width="0.1"/>
<path d="M249.8 231.3C247.3 230.9 243.6 230 241.2 229.8C242.8 227.9 245 224.8 246.4 222.8C245.4 224.6 244.1 227.1 243.5 228.9C245.2 229.9 247.9 230.6 249.8 231.3Z" fill="#009B3A" stroke="black" stroke-width="0.1"/>
<path d="M242.9 230.6L249.5 227.9L242.4 229L241.4 230.2L242.9 230.6Z" fill="#009B3A" stroke="black" stroke-width="0.1"/>
<path d="M249 231.4C246.6 231.2 242.7 230.7 240.3 230.8C241.7 228.7 243.5 225.2 244.7 223.1C244 225.1 242.9 227.7 242.6 229.6C244.4 230.4 247.1 230.9 249.1 231.4" fill="#009B3A"/>
<path d="M249 231.4C246.6 231.2 242.7 230.7 240.3 230.8C241.7 228.7 243.5 225.2 244.7 223.1C244 225.1 242.9 227.7 242.6 229.6C244.4 230.4 247.1 230.9 249.1 231.4" stroke="black" stroke-width="0.1"/>
<path d="M242.2 230.7L246.7 225.2L241 229.4L240.8 230.9L242.2 230.6" fill="#009B3A"/>
<path d="M242.2 230.7L246.7 225.2L241 229.4L240.8 230.9L242.2 230.6" stroke="black" stroke-width="0.1"/>
<path d="M249 231.8C246.4 231.8 242.2 231.5 239.7 231.8C241 229.3 242.5 225.4 243.5 223C243 225.2 242.1 228.2 241.9 230.3C243.9 231 246.9 231.3 249 231.8Z" fill="#009B3A" stroke="black" stroke-width="0.1"/>
<path d="M241.3 232C243.079 230.212 244.879 228.445 246.7 226.7L240.2 230.4L239.7 231.9H241.3" fill="#009B3A"/>
<path d="M241.3 232C243.079 230.212 244.879 228.445 246.7 226.7L240.2 230.4L239.7 231.9H241.3" stroke="black" stroke-width="0.1"/>
<path d="M247.8 232C245 232 240.6 231.8 237.8 232.1C239.6 229.4 242.2 225.1 243.8 222.4C242.8 224.8 241.1 228.2 240.5 230.4C242.5 231.2 245.6 231.4 247.8 231.9" fill="#009B3A"/>
<path d="M247.8 232C245 232 240.6 231.8 237.8 232.1C239.6 229.4 242.2 225.1 243.8 222.4C242.8 224.8 241.1 228.2 240.5 230.4C242.5 231.2 245.6 231.4 247.8 231.9" stroke="black" stroke-width="0.1"/>
<path d="M239.5 232.3L246.5 226.4L238.5 230.6L237.8 232.3H239.5Z" fill="#009B3A" stroke="black" stroke-width="0.1"/>
<path d="M246.8 232.1C244 232.5 239.6 233 236.8 233.7C238.449 230.334 239.95 226.897 241.3 223.4C240.7 225.9 239.6 229.4 239.3 231.7C241.4 232.1 244.5 232 246.8 232.1Z" fill="#009B3A" stroke="black" stroke-width="0.1"/>
<path d="M238.6 233.5C240.344 231.017 242.111 228.55 243.9 226.1L237.2 232.1L236.9 234L238.5 233.5" fill="#009B3A"/>
<path d="M238.6 233.5C240.344 231.017 242.111 228.55 243.9 226.1L237.2 232.1L236.9 234L238.5 233.5" stroke="black" stroke-width="0.1"/>
<path d="M245.2 233C242.4 233.3 238 233.5 235.2 234C236.8 231.3 239 226.8 240.2 224C239.5 226.5 238.2 229.9 237.8 232.2C239.8 232.7 243 232.7 245.2 233Z" fill="#009B3A" stroke="black" stroke-width="0.1"/>
<path d="M237.6 234.3L244.4 228.3L236.7 232.5L235.9 234.3H237.6Z" fill="#009B3A" stroke="black" stroke-width="0.1"/>
<path d="M244.4 233.3C241.5 233.9 237.1 234.6 234.4 235.5C235.7 232.6 237.4 227.9 238.4 225C237.9 227.6 237 231 236.8 233.4C238.9 233.7 242.1 233.3 244.4 233.3Z" fill="#009B3A" stroke="black" stroke-width="0.1"/>
<path d="M236.5 234.6L240.8 226.5L234.9 233.5V235.3L236.5 234.6Z" fill="#009B3A" stroke="black" stroke-width="0.1"/>
<path d="M244.4 233.8C241.4 234.5 236.6 235.6 233.7 236.7C234.8 233.4 236.1 228.1 236.9 224.8C236.6 227.7 235.9 231.6 236.1 234.2C238.4 234.4 241.9 233.9 244.4 233.8Z" fill="#009B3A" stroke="black" stroke-width="0.1"/>
<path d="M235.6 236.4L241.1 228.4L234.1 234.9L233.8 236.9L235.6 236.4Z" fill="#009B3A" stroke="black" stroke-width="0.1"/>
<path d="M243.2 234.7C240.2 235.7 235.5 236.9 232.7 238.1C233.7 234.8 234.7 229.5 235.3 226.2C235.1 229.1 234.7 233 234.9 235.5C237.3 235.6 240.7 234.9 243.2 234.7Z" fill="#009B3A" stroke="black" stroke-width="0.1"/>
<path d="M234.5 237.6L238.7 228.6L232.7 236.4V238.4L234.5 237.6Z" fill="#009B3A" stroke="black" stroke-width="0.1"/>
<path d="M242 235.9C239 236.6 234.2 237.5 231.2 238.5C232.5 235.3 234 230 234.9 226.8C234.5 229.7 233.7 233.5 233.7 236.1C236.1 236.4 239.5 235.9 242 235.9Z" fill="#009B3A" stroke="black" stroke-width="0.1"/>
<path d="M233.5 238.5L240.3 231.5L232.3 236.7L231.6 238.7L233.6 238.5" fill="#009B3A"/>
<path d="M233.5 238.5L240.3 231.5L232.3 236.7L231.6 238.7L233.6 238.5" stroke="black" stroke-width="0.1"/>
<path d="M240.7 237.1C237.7 237.5 232.9 237.9 230 238.7C231.4 235.5 233.2 230.4 234.3 227.2C233.7 230 232.7 233.9 232.5 236.5C234.8 237 238.2 236.9 240.7 237.1Z" fill="#009B3A" stroke="black" stroke-width="0.1"/>
<path d="M232.2 237.8L236.8 229L230.5 236.4V238.4L232.2 237.8Z" fill="#009B3A" stroke="black" stroke-width="0.1"/>
<path d="M241 236C237.7 237.4 232.6 239.3 229.5 241C230.5 237 231.5 230.8 232.2 227C232.1 230.3 231.6 234.9 231.9 237.8C234.6 237.8 238.3 236.6 241.1 236.1" fill="#009B3A"/>
<path d="M241 236C237.7 237.4 232.6 239.3 229.5 241C230.5 237 231.5 230.8 232.2 227C232.1 230.3 231.6 234.9 231.9 237.8C234.6 237.8 238.3 236.6 241.1 236.1" stroke="black" stroke-width="0.1"/>
<path d="M231.5 240.4L237.1 230.4L229.8 238.9L229.6 241.3L231.6 240.4" fill="#009B3A"/>
<path d="M231.5 240.4L237.1 230.4L229.8 238.9L229.6 241.3L231.6 240.4" stroke="black" stroke-width="0.1"/>
<path d="M239.8 237.3C236.5 238.8 231.4 241 228.4 242.8C229.2 238.8 230 232.7 230.5 228.8C230.5 232.1 230.3 236.7 230.7 239.5C233.4 239.3 237 238 239.7 237.3" fill="#009B3A"/>
<path d="M239.8 237.3C236.5 238.8 231.4 241 228.4 242.8C229.2 238.8 230 232.7 230.5 228.8C230.5 232.1 230.3 236.7 230.7 239.5C233.4 239.3 237 238 239.7 237.3" stroke="black" stroke-width="0.1"/>
<path d="M230.4 242L234.4 231.2L228.4 240.8L228.5 243.1L230.4 242Z" fill="#009B3A" stroke="black" stroke-width="0.1"/>
<path d="M238.3 238.2C235.1 239.8 230 242 227 243.8C227.8 239.8 228.6 233.7 229 229.8C229.1 233.1 228.9 237.6 229.3 240.5C231.9 240.2 235.6 238.9 238.3 238.2Z" fill="#009B3A" stroke="black" stroke-width="0.1"/>
<path d="M229.5 243.3L235.7 233.7L227.8 241.5L227.5 243.9L229.5 243.3Z" fill="#009B3A" stroke="black" stroke-width="0.1"/>
<path d="M238 237.7C235.2 240 230.6 243.4 228 246C228 242 227.4 235.8 227.1 232C227.9 235.2 228.6 239.6 229.6 242.2C232.1 241.3 235.5 239.1 238.1 237.7" fill="#009B3A"/>
<path d="M238 237.7C235.2 240 230.6 243.4 228 246C228 242 227.4 235.8 227.1 232C227.9 235.2 228.6 239.6 229.6 242.2C232.1 241.3 235.5 239.1 238.1 237.7" stroke="black" stroke-width="0.1"/>
<path d="M229.8 243.7L230.5 232.3L227.5 243.3L228.3 245.5L229.8 243.7Z" fill="#009B3A" stroke="black" stroke-width="0.1"/>
<path d="M237.2 238.8C234.3 241.1 229.7 244.4 227.2 246.9C227.2 242.9 226.6 236.9 226.3 233C227 236.2 227.7 240.6 228.7 243.2C231.3 242.3 234.7 240.1 237.2 238.8Z" fill="#009B3A" stroke="black" stroke-width="0.1"/>
<path d="M229 245.6C229.966 241.891 230.966 238.191 232 234.5L227 244.7L227.3 247L229.1 245.6" fill="#009B3A"/>
<path d="M229 245.6C229.966 241.891 230.966 238.191 232 234.5L227 244.7L227.3 247L229.1 245.6" stroke="black" stroke-width="0.1"/>
<path d="M236.9 239C234.2 241.7 229.8 245.7 227.4 248.6C226.9 244.6 225.7 238.3 225 234.5C226 237.6 227.3 242 228.6 244.6C231.2 243.4 234.4 240.7 236.9 239Z" fill="#009B3A" stroke="black" stroke-width="0.1"/>
<path d="M229 247L229.6 235.2L226.7 246.7L227.6 248.9L229.1 247.1" fill="#009B3A"/>
<path d="M229 247L229.6 235.2L226.7 246.7L227.6 248.9L229.1 247.1" stroke="black" stroke-width="0.1"/>
<path d="M236 241C233.1 243.4 228.5 247 225.8 249.7C225.8 245.5 225 239.2 224.6 235.2C225.5 238.5 226.3 243 227.4 245.7C230 244.7 233.4 242.4 236 241Z" fill="#009B3A" stroke="black" stroke-width="0.1"/>
<path d="M228.2 248.4L232.3 237.2L226.1 247.2L226.3 249.6L228.2 248.4Z" fill="#009B3A" stroke="black" stroke-width="0.1"/>
<path d="M236 241C233.4 243.8 229.3 247.9 227 250.8C226.6 246.7 225.4 240.4 224.7 236.5C225.7 239.6 226.9 244.1 228.2 246.7C230.6 245.5 233.6 242.7 236 241Z" fill="#009B3A" stroke="black" stroke-width="0.1"/>
<path d="M228.4 249L227.9 237.2L225.9 248.9L227.1 250.9L228.4 248.9" fill="#009B3A"/>
<path d="M228.4 249L227.9 237.2L225.9 248.9L227.1 250.9L228.4 248.9" stroke="black" stroke-width="0.1"/>
<path d="M234.7 242C232.2 244.7 228.2 248.8 226 251.8C225.5 247.6 224.1 241.3 223.3 237.4C224.4 240.6 225.7 245.1 227.1 247.7C229.4 246.4 232.4 243.7 234.7 241.9" fill="#009B3A"/>
<path d="M234.7 242C232.2 244.7 228.2 248.8 226 251.8C225.5 247.6 224.1 241.3 223.3 237.4C224.4 240.6 225.7 245.1 227.1 247.7C229.4 246.4 232.4 243.7 234.7 241.9" stroke="black" stroke-width="0.1"/>
<path d="M227.7 250.2L229 238.2L225.5 249.5L226.2 251.8L227.7 250.2Z" fill="#009B3A" stroke="black" stroke-width="0.1"/>
<path d="M234.2 242.4C231.9 245.4 228.2 249.9 226.2 253C225.4 249 223.6 242.8 222.5 239C223.8 242 225.5 246.4 227 248.9C229.2 247.4 232 244.3 234.2 242.4Z" fill="#009B3A" stroke="black" stroke-width="0.1"/>
<path d="M227.6 251.3L226.9 239.3L225.4 251.2L226.4 253.2L227.6 251.2" fill="#009B3A"/>
<path d="M227.6 251.3L226.9 239.3L225.4 251.2L226.4 253.2L227.6 251.2" stroke="black" stroke-width="0.1"/>
<path d="M234 243C231.8 246.2 228.3 251 226.5 254.2C225.5 250.2 223.3 244.1 222 240.3C223.5 243.3 225.4 247.6 227 250C229.2 248.4 231.8 245.2 234 243Z" fill="#009B3A" stroke="black" stroke-width="0.1"/>
<path d="M228.4 252.4L229.6 240.4L226.2 251.7L226.9 254.1L228.4 252.4Z" fill="#009B3A" stroke="black" stroke-width="0.1"/>
<path d="M233.5 244.2C231.6 247.6 228.6 252.8 227.1 256.3C225.7 252.4 223.1 246.7 221.4 243.1C223.2 245.9 225.4 249.9 227.3 252.1C229.3 250.1 231.6 246.6 233.5 244.1" fill="#009B3A"/>
<path d="M233.5 244.2C231.6 247.6 228.6 252.8 227.1 256.3C225.7 252.4 223.1 246.7 221.4 243.1C223.2 245.9 225.4 249.9 227.3 252.1C229.3 250.1 231.6 246.6 233.5 244.1" stroke="black" stroke-width="0.1"/>
<path d="M228 253.4L224.6 242L225.7 254L227.3 255.7L228 253.4Z" fill="#009B3A" stroke="black" stroke-width="0.1"/>
<path d="M233.4 245.5C231.4 248.9 228.4 254.1 226.8 257.6C225.3 253.7 222.7 248 221 244.4C222.8 247.2 225 251.2 227 253.4C229 251.4 231.5 247.9 233.4 245.5Z" fill="#009B3A" stroke="black" stroke-width="0.1"/>
<path d="M228.1 255.6L226.9 243.6L225.8 255.6L227 257.6L228.1 255.6Z" fill="#009B3A" stroke="black" stroke-width="0.1"/>
<path d="M233.6 246.6C231.6 250 228.4 255 226.8 258.5C225.4 254.6 222.8 248.8 221.2 245.2C223 248 225.2 252 227 254.2C229.2 252.4 231.6 248.9 233.6 246.6Z" fill="#009B3A" stroke="black" stroke-width="0.1"/>
<path d="M228 256.5L225.8 244.7L225.7 256.8L227 258.7L228 256.5Z" fill="#009B3A" stroke="black" stroke-width="0.1"/>
<path d="M232.8 248.3C230.6 251.5 227.2 256.3 225.4 259.7C224.2 255.7 221.9 249.7 220.4 246.1C222.1 249 224.1 253.1 225.8 255.5C228 253.7 230.7 250.5 232.8 248.3Z" fill="#009B3A" stroke="black" stroke-width="0.1"/>
<path d="M227 257.8L228 245.8L224.7 257.2L225.5 259.5L227 257.8Z" fill="#009B3A" stroke="black" stroke-width="0.1"/>
<path d="M232.9 248.6C231.1 252.1 228.1 257.4 226.6 260.9C225.1 257.1 222.2 251.5 220.4 248C222.4 250.7 224.7 254.6 226.7 256.6C228.7 254.6 231 251 232.9 248.6Z" fill="#009B3A" stroke="black" stroke-width="0.1"/>
<path d="M226.6 258.8L222.9 247.6L224.3 259.6L225.9 261.2L226.6 258.8Z" fill="#009B3A" stroke="black" stroke-width="0.1"/>
<path d="M232.4 249.5C231.1 253.3 229 259.2 228 263C226 259.6 222.3 254.7 220 251.7C222.3 253.9 225.2 257.2 227.5 258.7C229.2 256.4 230.9 252.3 232.4 249.5Z" fill="#009B3A" stroke="black" stroke-width="0.1"/>
<path d="M229.9 259.8L225.9 248.7L227.6 260.6L229.2 262.1L229.9 259.7" fill="#009B3A"/>
<path d="M229.9 259.8L225.9 248.7L227.6 260.6L229.2 262.1L229.9 259.7" stroke="black" stroke-width="0.1"/>
<path d="M232.4 250.7C231.1 254.5 229 260.4 228.1 264.2C226.1 260.8 222.3 256 220.1 253C222.3 255.2 225.2 258.4 227.5 260C229.2 257.6 230.9 253.5 232.4 250.7Z" fill="#009B3A" stroke="black" stroke-width="0.1"/>
<path d="M229.9 261.6L224.7 251.3L227.7 262.8L229.5 264.1L229.9 261.6Z" fill="#009B3A" stroke="black" stroke-width="0.1"/>
<path d="M232 251.6C231.2 255.6 229.8 261.7 229.3 265.6C226.8 262.6 222.6 258.3 220 255.6C222.5 257.6 225.8 260.3 228.2 261.6C229.6 258.9 230.8 254.6 232 251.6Z" fill="#009B3A" stroke="black" stroke-width="0.1"/>
<path d="M230.2 263.3L227.5 251.6L227.9 263.7L229.4 265.5L230.2 263.3Z" fill="#009B3A" stroke="black" stroke-width="0.1"/>
<path d="M232 252.9C231.6 256.9 230.7 263.2 230.7 267.2C227.9 264.5 223.3 260.8 220.5 258.5C223.2 260 226.7 262.4 229.2 263.3C230.3 260.5 231.2 256 232 252.9Z" fill="#009B3A" stroke="black" stroke-width="0.1"/>
<path d="M230.4 264.1L223 255.7L228.6 265.9L230.6 266.6L230.4 264.1Z" fill="#009B3A" stroke="black" stroke-width="0.1"/>
<path d="M232.2 254.3C231.7 258.3 230.8 264.6 230.8 268.6C228 265.9 223.4 262.2 220.6 259.9C223.3 261.4 226.8 263.8 229.3 264.7C230.5 261.9 231.3 257.5 232.2 254.3Z" fill="#009B3A" stroke="black" stroke-width="0.1"/>
<path d="M231.2 266C229.268 262.685 227.368 259.351 225.5 256L229.1 267.3L231 268.5L231.2 266.1" fill="#009B3A"/>
<path d="M231.2 266C229.268 262.685 227.368 259.351 225.5 256L229.1 267.3L231 268.5L231.2 266.1" stroke="black" stroke-width="0.1"/>
<path d="M232.5 256C232.2 260 231.6 266.4 231.7 270.4C228.8 267.8 224.1 264.4 221.2 262.3C223.9 263.6 227.5 265.8 230.1 266.5C231.1 263.6 231.7 259.2 232.5 256Z" fill="#009B3A" stroke="black" stroke-width="0.1"/>
<path d="M232 268C231.8 268 225 259 225 259L230 269.6L232 270.4V268Z" fill="#009B3A" stroke="black" stroke-width="0.1"/>
<path d="M232.6 257.9C232.3 261.9 231.8 268.3 231.9 272.3C228.507 269.452 224.969 266.781 221.3 264.3C224 265.6 227.7 267.7 230.3 268.4C231.3 265.5 231.8 261.1 232.6 257.9Z" fill="#009B3A" stroke="black" stroke-width="0.1"/>
<path d="M232.6 269.4L227.6 258.8L230.4 270.4L232.1 271.9L232.6 269.4Z" fill="#009B3A" stroke="black" stroke-width="0.1"/>
<path d="M232.8 259C232.8 263.2 232.9 269.6 233.4 273.5C230.4 271.5 225.3 268.6 222.2 266.9C225 267.9 228.8 269.6 231.4 269.9C232.1 266.9 232.4 262.4 232.7 259.1" fill="#009B3A"/>
<path d="M232.8 259C232.8 263.2 232.9 269.6 233.4 273.5C230.4 271.5 225.3 268.6 222.2 266.9C225 267.9 228.8 269.6 231.4 269.9C232.1 266.9 232.4 262.4 232.7 259.1" stroke="black" stroke-width="0.1"/>
<path d="M233.4 269L224.4 262.9L232 271.2L234.1 271.4L233.4 269Z" fill="#009B3A" stroke="black" stroke-width="0.1"/>
<path d="M233 259.5C233.4 263.6 233.7 270 234.4 273.9C230.673 271.673 226.834 269.637 222.9 267.8C225.7 268.6 229.6 270.1 232.2 270.4C232.8 267.4 232.8 262.8 233 259.5Z" fill="#009B3A" stroke="black" stroke-width="0.1"/>
<path d="M234.4 271.3L226.9 262.7L232.6 273L234.6 273.8L234.4 271.3Z" fill="#009B3A" stroke="black" stroke-width="0.1"/>
<path d="M233.7 261C234.2 265.2 234.8 271.5 235.7 275.4C232.4 273.6 227.2 271.4 223.9 269.9C226.9 270.6 230.7 271.9 233.4 272C233.8 269 233.6 264.4 233.7 261Z" fill="#009B3A" stroke="black" stroke-width="0.1"/>
<path d="M235.8 272.7L227 266.5L234.5 275H236.5L235.8 272.7Z" fill="#009B3A" stroke="black" stroke-width="0.1"/>
<path d="M234 262.8C234.8 266.8 235.8 273.1 236.9 277C233.5 275.4 228.2 273.7 224.9 272.6C227.8 273 231.8 273.9 234.4 273.8C234.6 270.7 234.1 266.2 234 262.8Z" fill="#009B3A" stroke="black" stroke-width="0.1"/>
<path d="M236.8 274L229.5 265.3L235 275.7L237 276.5L236.8 274Z" fill="#009B3A" stroke="black" stroke-width="0.1"/>
<path d="M234.4 264C235.6 267.9 237.2 274 238.7 277.7C235.2 276.7 229.7 275.6 226.4 274.9C229.3 274.9 233.3 275.3 235.9 274.9C235.9 271.7 234.9 267.3 234.4 263.9" fill="#009B3A"/>
<path d="M234.4 264C235.6 267.9 237.2 274 238.7 277.7C235.2 276.7 229.7 275.6 226.4 274.9C229.3 274.9 233.3 275.3 235.9 274.9C235.9 271.7 234.9 267.3 234.4 263.9" stroke="black" stroke-width="0.1"/>
<path d="M237.2 274L227 271.8L236.7 276.6L238.7 275.9L237.2 274Z" fill="#009B3A" stroke="black" stroke-width="0.1"/>
<path d="M235.1 265.2C236.3 269.1 237.9 275.2 239.3 278.9C235.8 277.9 230.3 276.8 227 276.1C229.9 276.1 234 276.5 236.5 276.1C236.5 272.9 235.5 268.5 235.1 265.1" fill="#009B3A"/>
<path d="M235.1 265.2C236.3 269.1 237.9 275.2 239.3 278.9C235.8 277.9 230.3 276.8 227 276.1C229.9 276.1 234 276.5 236.5 276.1C236.5 272.9 235.5 268.5 235.1 265.1" stroke="black" stroke-width="0.1"/>
<path d="M238.9 275C238.9 275.2 229.1 270.3 229.1 270.3L237.9 277.5L239.9 277.3L238.9 275.1" fill="#009B3A"/>
<path d="M238.9 275C238.9 275.2 229.1 270.3 229.1 270.3L237.9 277.5L239.9 277.3L238.9 275.1" stroke="black" stroke-width="0.1"/>
<path d="M234.6 265.9C236.6 269.4 239.4 275.1 241.6 278.4C238 278.1 232.4 278.3 229 278.4C231.8 277.7 235.8 277.2 238.2 276.2C237.6 273.2 235.7 269 234.6 265.9Z" fill="#009B3A" stroke="black" stroke-width="0.1"/>
<path d="M240.4 276.1L230.2 273.3L239.8 278.7L241.8 278.1L240.4 276.1Z" fill="#009B3A" stroke="black" stroke-width="0.1"/>
<path d="M235.7 267.4C237.7 270.9 240.5 276.6 242.7 279.8C239.1 279.6 233.5 279.8 230.1 280C233 279.3 237 278.7 239.4 277.7C238.6 274.7 236.8 270.5 235.6 267.4" fill="#009B3A"/>
<path d="M235.7 267.4C237.7 270.9 240.5 276.6 242.7 279.8C239.1 279.6 233.5 279.8 230.1 280C233 279.3 237 278.7 239.4 277.7C238.6 274.7 236.8 270.5 235.6 267.4" stroke="black" stroke-width="0.1"/>
<path d="M241.7 277L232.2 271.3L240.5 279.3H242.7L241.7 277Z" fill="#009B3A" stroke="black" stroke-width="0.1"/>
<path d="M236.4 268.3C238.7 271.6 242.1 276.9 244.6 279.9C241 280.1 235.6 281.1 232.2 281.7C235 280.7 238.8 279.5 241.1 278.1C240.1 275.1 237.8 271.3 236.4 268.3Z" fill="#009B3A" stroke="black" stroke-width="0.1"/>
<path d="M242.4 277.8L232.2 277.6L242.3 280.6L244.1 279.5L242.4 277.8ZM248.4 228.2L255.7 226.9L248.4 227.1L247.1 227.8L248.4 228.2Z" fill="#009B3A" stroke="black" stroke-width="0.1"/>
<path d="M252.4 229.7C250.3 229.1 247 228 244.8 227.5C247.519 226.421 250.189 225.22 252.8 223.9C251.1 224.9 248.8 226.3 247.5 227.3C248.7 228.1 250.9 229 252.5 229.7" fill="#009B3A"/>
<path d="M252.4 229.7C250.3 229.1 247 228 244.8 227.5C247.519 226.421 250.189 225.22 252.8 223.9C251.1 224.9 248.8 226.3 247.5 227.3C248.7 228.1 250.9 229 252.5 229.7" stroke="black" stroke-width="0.1"/>
<path d="M248 228.4L255.2 226.4L247.8 227.4L246.7 228.2L248 228.4Z" fill="#009B3A" stroke="black" stroke-width="0.1"/>
<path d="M252.8 230.3C250.3 230 246.4 229.5 244 229.5C245.8 227.9 248.4 225.1 250 223.5C249 225 247.2 227.1 246.5 228.6C248.2 229.3 250.9 229.7 252.8 230.3Z" fill="#009B3A" stroke="black" stroke-width="0.1"/>
<path d="M245.4 229L252.8 228L245.6 227.9L244.2 228.5L245.4 228.9" fill="#009B3A"/>
<path d="M245.4 229L252.8 228L245.6 227.9L244.2 228.5L245.4 228.9" stroke="black" stroke-width="0.1"/>
<path d="M250.9 230.5C248.6 230.1 245.2 229.3 242.9 229.1C245 228.1 248.2 226.1 250.2 225.1C248.7 226.1 246.6 227.6 245.5 228.6C246.9 229.3 249.2 229.9 250.9 230.6" fill="#009B3A"/>
<path d="M250.9 230.5C248.6 230.1 245.2 229.3 242.9 229.1C245 228.1 248.2 226.1 250.2 225.1C248.7 226.1 246.6 227.6 245.5 228.6C246.9 229.3 249.2 229.9 250.9 230.6" stroke="black" stroke-width="0.1"/>
<path d="M244.8 228.8L251.3 226L244.1 228L243.3 228.8H244.8Z" fill="#009B3A" stroke="black" stroke-width="0.1"/>
<path d="M250.7 231.4C248.7 230.6 245.9 229.3 244 228.7C245.5 227.4 247.5 225 248.8 223.6C247.8 225 246.5 226.9 246 228.3C247.2 229.3 249.2 230.4 250.7 231.3" fill="#009B3A"/>
<path d="M250.7 231.4C248.7 230.6 245.9 229.3 244 228.7C245.5 227.4 247.5 225 248.8 223.6C247.8 225 246.5 226.9 246 228.3C247.2 229.3 249.2 230.4 250.7 231.3" stroke="black" stroke-width="0.1"/>
<path d="M245.1 229.3L250.2 227.1L244.7 227.9L244 228.9L245.1 229.3ZM241 277H230.4L241.1 279.7L242.9 278.5L240.9 277" fill="#009B3A"/>
<path d="M241 277H230.4L241.1 279.7L242.9 278.5L240.9 277M245.1 229.3L250.2 227.1L244.7 227.9L244 228.9L245.1 229.3Z" stroke="black" stroke-width="0.1"/>
<path d="M242.8 277.6L232 275L242.3 280L244.3 279.4L242.7 277.4" fill="#009B3A"/>
<path d="M242.8 277.6L232 275L242.3 280L244.3 279.4L242.7 277.4" stroke="black" stroke-width="0.1"/>
<path d="M244.5 278.3L233.9 277.7L244.5 281L246.3 280L244.5 278.3Z" fill="#009B3A" stroke="black" stroke-width="0.1"/>
<path d="M237.8 270.8C240.5 273.8 244.7 278.7 247.6 281.4C244 281.9 238.6 283.4 235.4 284.2C238 283 241.7 281.5 243.8 280C242.4 277.2 239.6 273.6 237.8 270.8Z" fill="#009B3A" stroke="black" stroke-width="0.1"/>
<path d="M246 278.8L235.4 275.3L245.4 281.3L247.4 280.8L246 278.8Z" fill="#009B3A" stroke="black" stroke-width="0.1"/>
<path d="M238.8 271.5C241.8 274.2 246.3 278.6 249.4 281C246 282 240.9 284.1 237.8 285.4C240.2 283.8 243.8 281.9 245.6 280.1C244 277.4 240.8 274.1 238.8 271.5Z" fill="#009B3A" stroke="black" stroke-width="0.1"/>
<path d="M246.8 279.5L236.8 281.5L247.4 282.2L248.9 280.7L246.9 279.5" fill="#009B3A"/>
<path d="M246.8 279.5L236.8 281.5L247.4 282.2L248.9 280.7L246.9 279.5" stroke="black" stroke-width="0.1"/>
<path d="M244.8 278.8L234.3 279.6L245.1 281.5L246.8 280.2L244.8 278.8Z" fill="#009B3A" stroke="black" stroke-width="0.1"/>
<path d="M246.7 279.4L235.8 277.7L246.5 282L248.5 281.2L246.7 279.4Z" fill="#009B3A" stroke="black" stroke-width="0.1"/>
<path d="M248.5 280L237.9 280.2L248.7 282.6L250.4 281.5L248.5 280Z" fill="#009B3A" stroke="black" stroke-width="0.1"/>
<path d="M241.2 273C244.2 275.8 248.7 280.4 251.8 282.8C248.2 283.6 243 285.4 239.8 286.5C242.3 285.1 245.9 283.5 247.9 281.8C246.3 279 243.2 275.6 241.2 273Z" fill="#009B3A" stroke="black" stroke-width="0.1"/>
<path d="M250 280.4L239.2 277.7L249.6 282.9L251.6 282.3L250 280.4Z" fill="#009B3A" stroke="black" stroke-width="0.1"/>
<path d="M242.2 273.6C245.5 276.1 250.3 280.2 253.6 282.3C249.771 283.893 246.001 285.628 242.3 287.5C244.6 285.8 248 283.6 249.7 281.7C247.9 279.1 244.5 276.1 242.2 273.6Z" fill="#009B3A" stroke="black" stroke-width="0.1"/>
<path d="M251 281L241 283.7H251.7L253 282.1L251 281Z" fill="#009B3A" stroke="black" stroke-width="0.1"/>
<path d="M264.6 266.1L256.5 260.5L248.5 266.1L251.5 257.1L244.4 251.6H253.4L256.5 242.6L259.5 251.6H268.6L261.6 257.2L264.6 266.2V266.1Z" fill="#FEDF00" stroke="black" stroke-width="0.5"/>
</g>
<defs>
<clipPath id="clip0_2_7741">
<rect width="512" height="512" fill="white"/>
</clipPath>
</defs>
</svg>
