<svg width="512" height="512" viewBox="0 0 512 512" fill="none" xmlns="http://www.w3.org/2000/svg">
<g clip-path="url(#clip0_2_8388)">
<path d="M0 0H512V512H0V0Z" fill="#20603D"/>
<path d="M0 0H512V384H0V0Z" fill="#FAD201"/>
<path d="M0 0H512V256H0V0Z" fill="#00A1DE"/>
<path d="M456.959 133.8L399.786 137.142L454.114 155.204L398.08 143.613L445.937 175.044L394.738 149.302L432.71 192.181L389.973 154.137L415.715 205.337L384.213 157.48L395.733 213.443L377.742 159.186L374.4 216.359L373.689 133.089L456.959 133.8Z" fill="#E5BE01"/>
<path d="M456.959 133.8L399.786 130.458L454.114 112.396L398.08 123.987L445.937 92.5561L394.738 118.298L432.71 75.4186L389.973 113.462L415.715 62.2632L384.213 110.12L395.733 54.1567L377.742 108.414L374.4 51.2412L373.689 134.511L456.959 133.8Z" fill="#E5BE01"/>
<path d="M291.841 133.8L349.014 137.142L294.686 155.204L350.72 143.613L302.863 175.044L354.063 149.302L316.09 192.181L358.827 154.137L333.085 205.337L364.587 157.48L353.067 213.443L371.058 159.186L374.4 216.359L375.111 133.089L291.841 133.8Z" fill="#E5BE01"/>
<path d="M291.841 133.8L349.014 130.458L294.686 112.396L350.72 123.987L302.863 92.5561L354.063 118.298L316.09 75.4186L358.827 113.462L333.085 62.2632L364.587 110.12L353.067 54.1567L371.058 108.414L374.4 51.2412L375.111 134.511L291.841 133.8Z" fill="#E5BE01"/>
<path d="M374.4 158.191C387.871 158.191 398.791 147.271 398.791 133.8C398.791 120.329 387.871 109.409 374.4 109.409C360.929 109.409 350.009 120.329 350.009 133.8C350.009 147.271 360.929 158.191 374.4 158.191Z" fill="#E5BE01" stroke="#00A1DE" stroke-width="2.41774"/>
</g>
<defs>
<clipPath id="clip0_2_8388">
<rect width="512" height="512" fill="white"/>
</clipPath>
</defs>
</svg>
