<svg width="512" height="512" viewBox="0 0 512 512" fill="none" xmlns="http://www.w3.org/2000/svg">
<g clip-path="url(#clip0_2_8421)">
<mask id="mask0_2_8421" style="mask-type:luminance" maskUnits="userSpaceOnUse" x="0" y="0" width="512" height="512">
<path d="M0 0H511.922V511.922H0V0Z" fill="white"/>
</mask>
<g mask="url(#mask0_2_8421)">
<path fill-rule="evenodd" clip-rule="evenodd" d="M0 507.174L987.41 0H0V507.174Z" fill="#0000D6"/>
<path fill-rule="evenodd" clip-rule="evenodd" d="M1023.95 0L27.1442 511.922H1023.95V0Z" fill="#006000"/>
<path fill-rule="evenodd" clip-rule="evenodd" d="M1024.05 0H969.142L0 485.397V511.922H54.8045L1023.95 27.4539V0H1024.05Z" fill="#FFCC00"/>
<path fill-rule="evenodd" clip-rule="evenodd" d="M40.2519 99.1848L52.2243 64.8159L21.0548 43.5547H59.5522L71.4213 9.08252L83.2905 43.5547H121.685L90.6184 64.8159L102.488 99.0816L71.4213 77.9236L40.2519 99.1848ZM231.397 99.1848L243.369 64.8159L212.2 43.5547H250.697L262.566 9.08252L274.435 43.5547H312.726L281.763 64.8159L293.632 99.0816L262.566 77.8204L231.397 99.1848ZM231.397 243.679L243.369 209.31L212.2 188.049H250.697L262.566 153.577L274.435 188.049H312.726L281.763 209.31L293.736 243.679L262.669 222.418L231.397 243.679ZM136.444 172.258L148.313 137.889L117.247 116.627H155.641L167.51 82.2584L179.379 116.627H217.876L186.707 137.889L198.576 172.258L167.613 150.996L136.444 172.258ZM40.2519 243.679L52.2243 209.31L21.0548 188.049H59.5522L71.4213 153.577L83.2905 188.049H121.685L90.6184 209.31L102.488 243.576L71.4213 222.314L40.2519 243.679Z" fill="white"/>
</g>
</g>
<defs>
<clipPath id="clip0_2_8421">
<rect width="512" height="512" fill="white"/>
</clipPath>
</defs>
</svg>
