<svg width="512" height="512" viewBox="0 0 512 512" fill="none" xmlns="http://www.w3.org/2000/svg">
<g clip-path="url(#clip0_2_8448)">
<mask id="mask0_2_8448" style="mask-type:luminance" maskUnits="userSpaceOnUse" x="0" y="0" width="512" height="513">
<path d="M0.0129395 0H511.969V512.029H0.0129395V0Z" fill="white"/>
</mask>
<g mask="url(#mask0_2_8448)">
<path fill-rule="evenodd" clip-rule="evenodd" d="M-20 0H748.007V512.029H-20V0Z" fill="white"/>
<path fill-rule="evenodd" clip-rule="evenodd" d="M-20 0H748.007V255.978H-20V0Z" fill="#DF0000"/>
<path fill-rule="evenodd" clip-rule="evenodd" d="M157.155 42.9158C136.944 47.2462 118.839 58.3995 105.881 74.5025C92.9226 90.6055 85.9004 110.677 85.9936 131.346C86.0868 152.015 93.2898 172.023 106.393 188.008C119.496 203.994 137.7 214.983 157.949 219.131C144.316 223.121 129.941 223.888 115.96 221.372C101.979 218.857 88.774 213.126 77.3865 204.634C65.999 196.141 56.7406 185.119 50.3419 172.436C43.9431 159.753 40.579 145.757 40.515 131.551C40.4509 117.346 43.6886 103.32 49.9727 90.5798C56.2568 77.8398 65.4153 66.7342 76.7258 58.1393C88.0362 49.5444 101.189 43.6953 115.147 41.0534C129.105 38.4115 143.485 39.049 157.155 42.9158Z" fill="white"/>
<path fill-rule="evenodd" clip-rule="evenodd" d="M125.943 117.332L112.288 107.362L129.266 107.217L134.468 91.1059L139.887 107.217H156.793L143.211 117.332L148.412 133.444L134.613 123.546L120.886 133.516L125.943 117.332ZM144.728 172.892L131 162.921L147.979 162.777L153.253 146.665L158.6 162.705H175.578L161.851 172.819L167.125 188.931L153.398 179.105L139.67 189.076L144.728 172.892ZM207.079 172.458L193.351 162.488L210.258 162.343L215.532 146.232L220.878 162.343H237.929L224.274 172.458L229.548 188.57L215.749 178.672L202.021 188.642L207.079 172.458ZM225.647 117.405L211.919 107.434L228.898 107.29L234.1 91.1781L239.518 107.217H256.425L242.842 117.332L248.044 133.444L234.244 123.618L220.517 133.588L225.647 117.405ZM176.301 80.9188L162.573 70.9484L179.552 70.8039L184.826 54.6924L190.172 70.8039H207.151L193.424 80.9188L198.698 96.958L184.97 87.1322L171.243 97.1025L176.301 80.9188Z" fill="white"/>
</g>
</g>
<defs>
<clipPath id="clip0_2_8448">
<rect width="512" height="512" fill="white"/>
</clipPath>
</defs>
</svg>
