<svg width="512" height="512" viewBox="0 0 512 512" fill="none" xmlns="http://www.w3.org/2000/svg">
<g clip-path="url(#clip0_2_9306)">
<mask id="mask0_2_9306" style="mask-type:luminance" maskUnits="userSpaceOnUse" x="-1" y="0" width="513" height="512">
<path d="M-0.0239258 0H511.946V511.97H-0.0239258V0Z" fill="white"/>
</mask>
<g mask="url(#mask0_2_9306)">
<path fill-rule="evenodd" clip-rule="evenodd" d="M-62 0H962.044V511.97H-62V0Z" fill="white"/>
<path fill-rule="evenodd" clip-rule="evenodd" d="M-62 341.382H962.044V511.97H-62V341.382Z" fill="#D50000"/>
<path fill-rule="evenodd" clip-rule="evenodd" d="M-62 170.691H962.044V341.382H-62V170.691Z" fill="#0000BF"/>
<path fill-rule="evenodd" clip-rule="evenodd" d="M228.319 92.9638C224.304 154.631 222.039 188.398 212.671 204.047C202.479 220.828 192.595 233.079 152.96 247.904C113.427 233.079 103.544 220.828 93.3515 204.047C84.086 188.398 81.7182 154.631 77.7031 92.9638L83.5713 91.0077C95.3076 87.4045 104.161 84.5219 110.647 83.2865C119.913 81.2275 127.84 79.0655 152.857 78.5508C177.873 78.9626 185.801 81.3304 195.066 83.2865C201.655 84.6248 210.817 87.4045 222.451 91.0077L228.319 92.9638Z" fill="#D50000"/>
<path fill-rule="evenodd" clip-rule="evenodd" d="M222.554 90.905C218.745 152.469 215.656 180.677 210.612 194.164C201.037 217.431 185.801 230.196 152.96 242.241C120.221 230.093 104.985 217.431 95.3076 194.164C90.366 180.677 87.1745 152.572 83.5713 90.905C95.1017 87.3017 104.161 84.5221 110.647 83.1837C119.913 81.2277 127.84 78.8598 152.857 78.448C177.873 78.8598 185.904 81.2277 195.169 83.1837C201.758 84.5221 210.92 87.3017 222.554 90.905Z" fill="#0000BF"/>
<path fill-rule="evenodd" clip-rule="evenodd" d="M152.96 109.745L154.504 113.554L161.402 114.48L156.975 117.157L161.299 120.04L155.019 121.069L153.063 124.466L151.004 120.966L144.827 120.143L148.945 117.157L144.827 114.48L151.415 113.451L152.96 109.745Z" fill="#FFDF00"/>
<path fill-rule="evenodd" clip-rule="evenodd" d="M208.244 179.648L204.435 176.559L201.655 172.029L196.301 167.294L193.419 162.558L188.065 157.719L185.389 152.984L182.506 150.616L180.55 148.866L175.711 153.087L173.035 157.822L169.637 160.808L166.034 157.925L163.255 153.087L152.96 134.865L142.665 153.087L139.988 157.925L136.282 160.808L132.987 157.719L130.311 153.087L125.472 148.866L123.516 150.616L120.633 152.984L117.957 157.719L112.603 162.558L109.721 167.294L104.264 172.029L101.587 176.559L97.7783 179.648C99.976 193.38 106.463 206.065 116.309 215.886C122.898 222.166 136.385 230.711 152.857 236.373C166.384 232.09 178.892 225.082 189.61 215.783C199.475 206.004 205.997 193.356 208.244 179.648Z" fill="white"/>
<path fill-rule="evenodd" clip-rule="evenodd" d="M169.432 83.9042L170.976 87.6104L177.873 88.6399L173.447 91.2137L177.77 94.1992L171.491 95.2287L169.534 98.6261L167.475 95.1258L161.401 94.3022L165.519 91.2137L161.298 88.6399L167.887 87.6104L169.432 83.9042ZM136.488 83.9042L138.032 87.5075L144.929 88.537L140.503 91.2137L144.826 94.0963L138.547 95.1258L136.59 98.5231L134.429 95.0228L128.457 94.1992L132.575 91.2137L128.354 88.537L134.943 87.5075L136.488 83.8013V83.9042Z" fill="#FFDF00"/>
<path fill-rule="evenodd" clip-rule="evenodd" d="M199.699 203.018H192.287L185.389 202.503L177.05 198.385L167.579 198.488L159.446 202.503L153.063 203.018L146.577 202.503L138.444 198.488H129.075L120.736 202.606L113.839 203.018H106.22L102.617 196.841L102.72 196.635L113.942 198.488L120.736 197.973L129.075 193.855H138.547L146.783 197.973L153.166 198.488L159.549 197.87L167.785 193.958H177.05L185.492 197.973L192.39 198.488L203.199 196.532L203.405 196.841L199.699 203.018ZM113.221 212.592L120.633 212.077L128.972 207.959H138.341L146.577 211.974L152.96 212.592L159.343 211.974L167.579 207.959H176.947L185.286 212.077L192.801 212.592L197.64 206.621L197.434 206.415L192.287 207.959L185.389 207.444L177.05 203.326H167.682L159.446 207.444L153.063 207.959L146.68 207.444L138.444 203.326H129.075L120.736 207.444L113.839 207.959L108.691 206.724V206.93L113.221 212.592Z" fill="#0000BF"/>
</g>
</g>
<defs>
<clipPath id="clip0_2_9306">
<rect width="512" height="512" fill="white"/>
</clipPath>
</defs>
</svg>
