<svg width="512" height="512" viewBox="0 0 512 512" fill="none" xmlns="http://www.w3.org/2000/svg">
<g clip-path="url(#clip0_2_9326)">
<path d="M0 0H512V512H0V0Z" fill="#EE1C25"/>
<path d="M0 0H512V341.3H0V0Z" fill="#0B4EA2"/>
<path d="M0 0H512V170.7H0V0Z" fill="white"/>
<path d="M203.2 395.5C157.3 373.5 91.7002 329.5 91.7002 242.7C91.7002 155.9 95.8002 116.5 95.8002 116.5H310.6C310.6 116.5 314.8 155.9 314.8 242.7C314.8 329.5 249 373.4 203.2 395.5Z" fill="white"/>
<path d="M203.2 384C161.1 363.7 100.9 323.5 100.9 243.8C100.9 164.1 104.7 128 104.7 128H301.7C301.7 128 305.5 164.2 305.5 243.8C305.5 323.4 245.3 363.8 203.2 384Z" fill="#EE1C25"/>
<path d="M212.2 223C223.6 223.2 245.9 223.6 265.7 217C265.7 217 265.1 224 265.1 232.3C265.1 240.6 265.7 247.6 265.7 247.6C248.292 242.804 230.238 240.779 212.2 241.6V285.6H194.2V241.6C176.162 240.779 158.108 242.804 140.7 247.6C140.7 247.6 141.3 240.6 141.3 232.3C141.3 224 140.7 217 140.7 217C160.6 223.6 182.8 223.2 194.2 223V195.3C179.858 194.948 165.559 197.011 151.9 201.4C151.9 201.4 152.4 194.4 152.4 186.1C152.4 177.8 151.9 170.7 151.9 170.7C168.9 176.4 183.8 176.9 194.1 176.7C193.6 159.3 188.5 137.3 188.5 137.3C188.5 137.3 199 138.1 203.2 138.1C207.4 138.1 217.9 137.3 217.9 137.3C217.9 137.3 212.8 159.3 212.2 176.8C226.539 177.223 240.845 175.193 254.5 170.8C254.5 170.8 254 177.8 254 186.1C254 194.4 254.5 201.4 254.5 201.4C237.5 195.7 222.6 195.3 212.2 195.4V223Z" fill="white"/>
<path d="M203.2 280.8C182 280.8 170.6 310.2 170.6 310.2C170.6 310.2 164.3 296.2 147 296.2C135.3 296.2 126.7 306.7 121.2 316.4C142.5 350.2 176.5 371.1 203.2 384C229.9 371.1 263.9 350.2 285.2 316.3C279.7 306.7 271.1 296.3 259.4 296.3C242.1 296.3 235.8 310.3 235.8 310.3C235.8 310.3 224.4 280.8 203.2 280.8Z" fill="#0B4EA2"/>
</g>
<defs>
<clipPath id="clip0_2_9326">
<rect width="512" height="512" fill="white"/>
</clipPath>
</defs>
</svg>
