<svg width="512" height="512" viewBox="0 0 512 512" fill="none" xmlns="http://www.w3.org/2000/svg">
<g clip-path="url(#clip0_2_9342)">
<path fill-rule="evenodd" clip-rule="evenodd" d="M0 256H512V512H0V256Z" fill="#19B6EF"/>
<path fill-rule="evenodd" clip-rule="evenodd" d="M0 0H512V256H0V0Z" fill="white"/>
<path fill-rule="evenodd" clip-rule="evenodd" d="M252.9 361.8C308.8 320 369 234.6 298.5 189.7C285.3 187.1 270.6 187.9 263.5 193.5C259.8 191.3 256.9 191.5 253.1 195.5C250.5 192.3 247.9 190.8 242.4 192.5C237.307 189.727 231.712 187.998 225.943 187.415C220.173 186.831 214.345 187.404 208.8 189.1C147.3 226.1 184.9 313.7 252.8 361.8H252.9Z" fill="#FFDD00" stroke="#7D6C00" stroke-width="2.4"/>
<path fill-rule="evenodd" clip-rule="evenodd" d="M356.3 266.8C356.3 266.8 362.6 258.3 362.8 258.3C369.1 254.6 369.8 249.8 369.8 249.8C376.1 247.8 374.1 242.7 374.6 242C375.582 241.029 376.25 239.785 376.517 238.43C376.785 237.075 376.639 235.671 376.1 234.4C376.1 233.5 378.3 225.5 375.2 224.4C375.4 215.9 370.1 216.7 365.9 222.3C361.4 223.6 360.4 227.3 361.9 231.3C356.1 231.3 355.9 239.8 357.6 244.6C349.8 244.4 354.2 253.1 353.9 253.6C351.3 254.8 355.9 267.2 356.3 266.8ZM307 339.5L311 341.9C311.7 344.9 314.5 346.7 316.6 346.2C317.6 350.8 322.6 350.2 326.1 347.5C329.1 351.7 332.6 351.8 337.4 350.4C341.8 353.6 347.4 352.2 351.1 348.8C355.1 352.1 357.8 349.8 359.8 346.2C362.9 347 365.4 346.5 366.5 343.4C372.6 342.9 369.5 337.2 364.5 334.7C368.5 331.3 373 324.1 366.7 323C364.7 321.6 361.1 321.9 358.3 323.2C357.6 320 353.1 319.2 348.3 322.8C346.6 319.2 340.8 320.9 338.1 323.4C334.6 320.4 330.5 320.4 324.4 323.9L307 339.5ZM307 330.2C307.7 326.2 305 319 309.2 318.2C308.4 311.6 309.6 304.1 317.2 304.8C318.5 298.5 318.2 292.6 325.5 291.8C325.5 291.8 331.4 271.3 337.5 285.5C339.8 289.5 339.4 296.3 334.6 295C335.6 300 333.9 304.5 328.3 304.3C330.8 307.9 330 312.7 327.3 315L307 330.2ZM342.4 304.8L348.7 303.5C355.2 299.1 357.8 297.4 361.1 302.2C366.5 301 371.7 301.6 371.5 305.9C378 306.3 377.9 310.4 377.2 313.7C378.2 319.4 375.7 326.9 371.7 317.8C359.1 310.1 352 311.1 332 315.6L342.4 304.8ZM345.7 298.5C345.9 298.3 364.4 293.5 362.4 287.8C367.6 287 368.7 281.8 368.9 281.8C379.8 278.3 379.1 272 379.1 272C382.2 268.6 387.7 265.3 386.5 259.4C386.9 252.7 387.5 248.5 378.5 252.9C371.7 252.2 369.4 256.1 367.4 261.9C364.2 258.2 359.1 264.2 358.5 269.6C358.5 269.6 350.2 277.6 350.2 277.8L343.3 290.6L345.7 298.5Z" fill="#4FD46B" stroke="#3A9D4F" stroke-width="2.4" stroke-linejoin="round"/>
<path fill-rule="evenodd" clip-rule="evenodd" d="M346.1 284.1C341.7 280.8 339.2 276.8 340.1 272.8C337.1 268.9 335.1 266.5 337.9 263.1L335.7 255.1C330 252.9 332.4 248.1 334 246.4C331.3 242.7 331.2 238.8 333.7 235.3C333.7 228.3 338.6 230.9 342.7 235.3C342.7 235.3 349.4 240.1 344.4 244.4C349.4 246.1 350.9 250.4 348.1 252.2C352.4 254.2 353.1 258.1 350.7 260.7C355.1 264.2 353.4 268.7 354.8 272.7L346.1 284.1Z" fill="#4FD46B" stroke="#3A9D4F" stroke-width="2.4" stroke-linejoin="round"/>
<path fill-rule="evenodd" clip-rule="evenodd" d="M354 251.8C353.7 251.6 346.5 242.4 348.5 241.8C348.1 239 345.9 235.9 347.2 233.1C343.7 229.6 343.6 225.4 346.3 222.1C343.9 218.8 345 214.4 348.3 211.6C347.3 206.3 351 205 354.3 204C356.8 195.4 360.8 197.6 363.1 204.2C366.5 207.2 366 211.7 364.8 215.1C368.8 217.8 366.4 221.2 364.6 222.7L354 251.8Z" fill="#4FD46B" stroke="#3A9D4F" stroke-width="2.4" stroke-linejoin="round"/>
<path fill-rule="evenodd" clip-rule="evenodd" d="M352.9 206L346.8 199.9C348.3 196.7 349.6 190.9 345 188.4C342.5 182.2 330 174.6 327.9 189.2C325.9 184.8 321.9 180.5 318.9 185.6C312.4 179.9 308.9 181.6 312.3 188.8C312.3 188.8 309.3 193.6 317.3 197.3C317.9 197.9 314.6 206 324.2 206.2C322.4 208.9 325.4 212.8 329.2 212.5C326.4 215.9 331.1 219.5 334 218.1C332.7 221.9 332.8 223.7 338 224.2L344 230.9L348.7 237.5L352.8 206H352.9Z" fill="#4FD46B" stroke="#3A9D4F" stroke-width="2.4" stroke-linejoin="round"/>
<path d="M356.6 263C356.8 262.6 368.2 236.5 369.7 228.5M357.7 216.5C357.7 216.5 359.7 237.8 354.4 253.5M322.8 195C322.8 195 346.1 217.4 348.3 226.6M339 192.6C339 192.6 340.6 211 347 229.1M380.2 259.5C380.2 259.5 356.9 279.1 345.5 296.3M358.1 328.3C358.1 328.3 327.4 332.5 313.9 332.8M347.9 341.5C347.9 341.5 309.9 340.5 307.1 337.8M329 292C329 292.3 309.7 324.2 309 334.7" stroke="#3A9D4F" stroke-width="2.2" stroke-linecap="round"/>
<path fill-rule="evenodd" clip-rule="evenodd" d="M252.7 355.7C212.4 317.7 171.1 246.3 212.2 210.3C219.4 214.4 228.1 210.7 239.9 206.1C243.5 210 248.1 211 252.6 208.1C257.8 210.2 261.6 208.5 264.1 205.7C275.7 212.5 290.6 216 294.1 209.3C334.5 247.7 293.6 319.3 252.6 355.7H252.7Z" fill="#65C7FF" stroke="#7D6C00" stroke-width="2.4"/>
<path fill-rule="evenodd" clip-rule="evenodd" d="M252.9 354.6C234.472 336.797 219.189 316.003 207.7 293.1C209.7 291.3 210.7 290.8 211.8 287.7C217.664 288.747 223.675 288.645 229.5 287.4C231.1 293.5 231.5 298.6 235.3 303.7L243.5 287.7C249.276 289.156 255.324 289.156 261.1 287.7C264.5 292.3 263.3 299.2 269.3 304.4C272.9 293.8 276.5 293.1 280.1 287.4C285.4 289.3 288.8 288.4 293.1 287.1C295.4 289.7 294.3 289.6 298.5 293.5C287.215 316.486 271.752 337.171 252.9 354.5V354.6Z" fill="#8FC753"/>
<path fill-rule="evenodd" clip-rule="evenodd" d="M205.5 175.3C205.5 176.255 205.121 177.17 204.446 177.846C203.771 178.521 202.855 178.9 201.9 178.9C200.945 178.9 200.03 178.521 199.354 177.846C198.679 177.17 198.3 176.255 198.3 175.3C198.3 174.345 198.679 173.43 199.354 172.754C200.03 172.079 200.945 171.7 201.9 171.7C202.855 171.7 203.771 172.079 204.446 172.754C205.121 173.43 205.5 174.345 205.5 175.3ZM201.8 167C201.8 167.955 201.421 168.87 200.746 169.546C200.071 170.221 199.155 170.6 198.2 170.6C197.245 170.6 196.33 170.221 195.654 169.546C194.979 168.87 194.6 167.955 194.6 167C194.6 166.045 194.979 165.13 195.654 164.454C196.33 163.779 197.245 163.4 198.2 163.4C199.155 163.4 200.071 163.779 200.746 164.454C201.421 165.13 201.8 166.045 201.8 167ZM197.4 159.4C197.487 159.916 197.46 160.445 197.322 160.95C197.184 161.454 196.937 161.923 196.599 162.323C196.261 162.722 195.84 163.043 195.365 163.264C194.89 163.484 194.373 163.598 193.85 163.598C193.327 163.598 192.81 163.484 192.335 163.264C191.86 163.043 191.439 162.722 191.101 162.323C190.763 161.923 190.516 161.454 190.378 160.95C190.24 160.445 190.213 159.916 190.3 159.4C190.441 158.561 190.876 157.799 191.525 157.249C192.175 156.699 192.999 156.398 193.85 156.398C194.701 156.398 195.525 156.699 196.175 157.249C196.825 157.799 197.259 158.561 197.4 159.4ZM194.4 152C194.527 152.529 194.533 153.081 194.417 153.612C194.3 154.144 194.065 154.643 193.728 155.07C193.391 155.498 192.961 155.844 192.472 156.081C191.982 156.319 191.444 156.443 190.9 156.443C190.356 156.443 189.818 156.319 189.328 156.081C188.839 155.844 188.409 155.498 188.072 155.07C187.735 154.643 187.5 154.144 187.383 153.612C187.267 153.081 187.273 152.529 187.4 152C187.589 151.214 188.037 150.515 188.672 150.015C189.307 149.515 190.092 149.243 190.9 149.243C191.708 149.243 192.493 149.515 193.128 150.015C193.763 150.515 194.211 151.214 194.4 152ZM194.9 143.9C194.987 144.416 194.96 144.945 194.822 145.45C194.684 145.954 194.437 146.423 194.099 146.823C193.761 147.222 193.34 147.543 192.865 147.764C192.39 147.984 191.873 148.098 191.35 148.098C190.827 148.098 190.31 147.984 189.835 147.764C189.36 147.543 188.939 147.222 188.601 146.823C188.263 146.423 188.016 145.954 187.878 145.45C187.74 144.945 187.713 144.416 187.8 143.9C187.941 143.061 188.376 142.299 189.025 141.749C189.675 141.199 190.499 140.898 191.35 140.898C192.201 140.898 193.025 141.199 193.675 141.749C194.325 142.299 194.759 143.061 194.9 143.9ZM213.8 130.6C213.8 131.073 213.707 131.541 213.526 131.978C213.345 132.414 213.08 132.811 212.746 133.146C212.411 133.48 212.014 133.745 211.578 133.926C211.141 134.107 210.673 134.2 210.2 134.2C209.727 134.2 209.259 134.107 208.822 133.926C208.386 133.745 207.989 133.48 207.654 133.146C207.32 132.811 207.055 132.414 206.874 131.978C206.693 131.541 206.6 131.073 206.6 130.6C206.6 129.645 206.979 128.73 207.654 128.054C208.33 127.379 209.245 127 210.2 127C211.155 127 212.071 127.379 212.746 128.054C213.421 128.73 213.8 129.645 213.8 130.6ZM206.7 131.8C206.787 132.316 206.76 132.845 206.622 133.35C206.484 133.854 206.237 134.323 205.899 134.723C205.561 135.122 205.14 135.443 204.665 135.664C204.19 135.884 203.673 135.998 203.15 135.998C202.627 135.998 202.11 135.884 201.635 135.664C201.16 135.443 200.739 135.122 200.401 134.723C200.063 134.323 199.817 133.854 199.678 133.35C199.54 132.845 199.513 132.316 199.6 131.8C199.741 130.961 200.176 130.199 200.825 129.649C201.475 129.099 202.299 128.798 203.15 128.798C204.001 128.798 204.825 129.099 205.475 129.649C206.125 130.199 206.559 130.961 206.7 131.8ZM199 136.5C199 136.973 198.907 137.441 198.726 137.878C198.545 138.314 198.28 138.711 197.946 139.046C197.611 139.38 197.214 139.645 196.778 139.826C196.341 140.007 195.873 140.1 195.4 140.1C194.927 140.1 194.459 140.007 194.022 139.826C193.586 139.645 193.189 139.38 192.854 139.046C192.52 138.711 192.255 138.314 192.074 137.878C191.893 137.441 191.8 136.973 191.8 136.5C191.8 135.545 192.179 134.63 192.854 133.954C193.53 133.279 194.445 132.9 195.4 132.9C196.355 132.9 197.271 133.279 197.946 133.954C198.621 134.63 199 135.545 199 136.5ZM222.9 130.7C222.9 131.655 222.521 132.57 221.846 133.246C221.171 133.921 220.255 134.3 219.3 134.3C218.345 134.3 217.43 133.921 216.754 133.246C216.079 132.57 215.7 131.655 215.7 130.7C215.7 129.745 216.079 128.83 216.754 128.154C217.43 127.479 218.345 127.1 219.3 127.1C220.255 127.1 221.171 127.479 221.846 128.154C222.521 128.83 222.9 129.745 222.9 130.7ZM232.8 131.5C232.887 132.016 232.86 132.545 232.722 133.05C232.584 133.554 232.337 134.023 231.999 134.423C231.661 134.822 231.24 135.143 230.765 135.364C230.29 135.584 229.773 135.698 229.25 135.698C228.727 135.698 228.21 135.584 227.735 135.364C227.26 135.143 226.839 134.822 226.501 134.423C226.163 134.023 225.917 133.554 225.778 133.05C225.64 132.545 225.613 132.016 225.7 131.5C225.889 130.714 226.337 130.015 226.972 129.515C227.607 129.015 228.392 128.743 229.2 128.743C230.008 128.743 230.793 129.015 231.428 129.515C232.063 130.015 232.511 130.714 232.7 131.5H232.8ZM241.6 131C241.687 131.516 241.66 132.045 241.522 132.55C241.384 133.054 241.137 133.523 240.799 133.923C240.461 134.322 240.04 134.643 239.565 134.864C239.09 135.084 238.573 135.198 238.05 135.198C237.527 135.198 237.01 135.084 236.535 134.864C236.06 134.643 235.639 134.322 235.301 133.923C234.963 133.523 234.716 133.054 234.578 132.55C234.44 132.045 234.413 131.516 234.5 131C234.641 130.161 235.076 129.399 235.725 128.849C236.375 128.299 237.199 127.998 238.05 127.998C238.901 127.998 239.725 128.299 240.375 128.849C241.025 129.399 241.459 130.161 241.6 131Z" fill="white" stroke="black" stroke-width="1.1"/>
<path fill-rule="evenodd" clip-rule="evenodd" d="M262.3 125.3C262.3 127.74 261.331 130.08 259.605 131.805C257.88 133.531 255.54 134.5 253.1 134.5C250.66 134.5 248.32 133.531 246.595 131.805C244.869 130.08 243.9 127.74 243.9 125.3C244.137 123.038 245.203 120.944 246.892 119.422C248.582 117.9 250.776 117.058 253.05 117.058C255.324 117.058 257.518 117.9 259.207 119.422C260.897 120.944 261.963 123.038 262.2 125.3H262.3Z" fill="#FFDD00" stroke="#7D6C00" stroke-width="1.1"/>
<path fill-rule="evenodd" clip-rule="evenodd" d="M271.9 130.9C271.9 131.855 271.521 132.771 270.846 133.446C270.17 134.121 269.255 134.5 268.3 134.5C267.345 134.5 266.429 134.121 265.754 133.446C265.079 132.771 264.7 131.855 264.7 130.9C264.7 129.945 265.079 129.03 265.754 128.354C266.429 127.679 267.345 127.3 268.3 127.3C269.255 127.3 270.17 127.679 270.846 128.354C271.521 129.03 271.9 129.945 271.9 130.9ZM281.2 131.6C281.287 132.116 281.26 132.645 281.122 133.15C280.983 133.654 280.737 134.123 280.399 134.523C280.061 134.922 279.64 135.243 279.165 135.464C278.69 135.684 278.173 135.798 277.65 135.798C277.127 135.798 276.61 135.684 276.135 135.464C275.66 135.243 275.239 134.922 274.901 134.523C274.563 134.123 274.316 133.654 274.178 133.15C274.04 132.645 274.013 132.116 274.1 131.6C274.241 130.761 274.675 129.999 275.325 129.449C275.975 128.9 276.799 128.598 277.65 128.598C278.501 128.598 279.325 128.9 279.975 129.449C280.624 129.999 281.059 130.761 281.2 131.6ZM290.2 131.2C290.287 131.716 290.26 132.245 290.122 132.75C289.983 133.254 289.737 133.723 289.399 134.123C289.061 134.522 288.64 134.843 288.165 135.064C287.69 135.284 287.173 135.398 286.65 135.398C286.127 135.398 285.61 135.284 285.135 135.064C284.66 134.843 284.239 134.522 283.901 134.123C283.563 133.723 283.316 133.254 283.178 132.75C283.04 132.245 283.013 131.716 283.1 131.2C283.241 130.361 283.675 129.599 284.325 129.049C284.975 128.5 285.799 128.198 286.65 128.198C287.501 128.198 288.325 128.5 288.975 129.049C289.624 129.599 290.059 130.361 290.2 131.2ZM297.8 130.9C297.887 131.416 297.86 131.945 297.722 132.45C297.584 132.954 297.337 133.423 296.999 133.823C296.661 134.222 296.24 134.543 295.765 134.764C295.29 134.984 294.773 135.098 294.25 135.098C293.727 135.098 293.21 134.984 292.735 134.764C292.26 134.543 291.839 134.222 291.501 133.823C291.163 133.423 290.916 132.954 290.778 132.45C290.64 131.945 290.613 131.416 290.7 130.9C290.841 130.061 291.275 129.299 291.925 128.749C292.575 128.2 293.399 127.898 294.25 127.898C295.101 127.898 295.925 128.2 296.575 128.749C297.224 129.299 297.659 130.061 297.8 130.9ZM307.3 131.9C307.3 132.855 306.921 133.771 306.246 134.446C305.57 135.121 304.655 135.5 303.7 135.5C302.745 135.5 301.829 135.121 301.154 134.446C300.479 133.771 300.1 132.855 300.1 131.9C300.1 130.945 300.479 130.03 301.154 129.354C301.829 128.679 302.745 128.3 303.7 128.3C304.655 128.3 305.57 128.679 306.246 129.354C306.921 130.03 307.3 130.945 307.3 131.9ZM314.7 136.6C314.787 137.116 314.76 137.645 314.622 138.15C314.483 138.654 314.237 139.123 313.899 139.523C313.561 139.922 313.14 140.243 312.665 140.464C312.19 140.684 311.673 140.798 311.15 140.798C310.627 140.798 310.11 140.684 309.635 140.464C309.16 140.243 308.739 139.922 308.401 139.523C308.063 139.123 307.816 138.654 307.678 138.15C307.54 137.645 307.513 137.116 307.6 136.6C307.741 135.761 308.175 134.999 308.825 134.449C309.475 133.9 310.299 133.598 311.15 133.598C312.001 133.598 312.825 133.9 313.475 134.449C314.124 134.999 314.559 135.761 314.7 136.6Z" fill="white" stroke="black" stroke-width="1.1"/>
<path fill-rule="evenodd" clip-rule="evenodd" d="M202 161.8L211.2 179.4H295.7L305.4 162.4C299.7 158.5 295.8 155.5 287.7 157.4C283 150.7 278 149.4 270.5 150.2C268.463 147.836 265.603 146.334 262.5 146L244.7 146.5C240.1 146.9 236.5 150.5 236.3 150.5C228.7 149.5 221.8 149.8 220 157.1C213.1 155.4 208.3 157.3 202 161.8Z" fill="#E40000" stroke="#AC0000" stroke-width="2.4"/>
<path fill-rule="evenodd" clip-rule="evenodd" d="M317.8 144.4C317.887 144.916 317.86 145.445 317.722 145.95C317.584 146.454 317.337 146.923 316.999 147.323C316.661 147.722 316.24 148.043 315.765 148.264C315.29 148.484 314.773 148.598 314.25 148.598C313.727 148.598 313.21 148.484 312.735 148.264C312.26 148.043 311.839 147.722 311.501 147.323C311.163 146.923 310.916 146.454 310.778 145.95C310.64 145.445 310.613 144.916 310.7 144.4C310.841 143.561 311.275 142.799 311.925 142.249C312.575 141.699 313.399 141.398 314.25 141.398C315.101 141.398 315.925 141.699 316.575 142.249C317.224 142.799 317.659 143.561 317.8 144.4ZM318.4 152.7C318.487 153.216 318.46 153.745 318.322 154.25C318.183 154.754 317.937 155.223 317.599 155.623C317.261 156.022 316.84 156.343 316.365 156.564C315.89 156.784 315.373 156.898 314.85 156.898C314.327 156.898 313.81 156.784 313.335 156.564C312.86 156.343 312.439 156.022 312.101 155.623C311.763 155.223 311.516 154.754 311.378 154.25C311.24 153.745 311.213 153.216 311.3 152.7C311.441 151.861 311.875 151.099 312.525 150.549C313.175 150 313.999 149.698 314.85 149.698C315.701 149.698 316.525 150 317.175 150.549C317.824 151.099 318.259 151.861 318.4 152.7ZM315.8 160.5C315.887 161.016 315.86 161.545 315.722 162.05C315.584 162.554 315.337 163.023 314.999 163.423C314.661 163.822 314.24 164.143 313.765 164.364C313.29 164.584 312.773 164.698 312.25 164.698C311.727 164.698 311.21 164.584 310.735 164.364C310.26 164.143 309.839 163.822 309.501 163.423C309.163 163.023 308.916 162.554 308.778 162.05C308.64 161.545 308.613 161.016 308.7 160.5C308.841 159.661 309.275 158.899 309.925 158.349C310.575 157.799 311.399 157.498 312.25 157.498C313.101 157.498 313.925 157.799 314.575 158.349C315.224 158.899 315.659 159.661 315.8 160.5ZM312.5 166.9C312.627 167.429 312.633 167.981 312.517 168.512C312.4 169.044 312.165 169.543 311.828 169.97C311.491 170.398 311.061 170.744 310.572 170.981C310.082 171.219 309.544 171.343 309 171.343C308.456 171.343 307.918 171.219 307.428 170.981C306.939 170.744 306.509 170.398 306.172 169.97C305.835 169.543 305.6 169.044 305.483 168.512C305.367 167.981 305.373 167.429 305.5 166.9C305.689 166.114 306.137 165.415 306.772 164.915C307.407 164.415 308.192 164.143 309 164.143C309.808 164.143 310.593 164.415 311.228 164.915C311.863 165.415 312.311 166.114 312.5 166.9ZM308.7 174.9C308.7 175.855 308.321 176.77 307.646 177.446C306.97 178.121 306.055 178.5 305.1 178.5C304.145 178.5 303.229 178.121 302.554 177.446C301.879 176.77 301.5 175.855 301.5 174.9C301.5 173.945 301.879 173.03 302.554 172.354C303.229 171.679 304.145 171.3 305.1 171.3C306.055 171.3 306.97 171.679 307.646 172.354C308.321 173.03 308.7 173.945 308.7 174.9ZM258.7 164.7C258.804 165.45 258.746 166.214 258.529 166.94C258.313 167.666 257.944 168.337 257.446 168.908C256.949 169.479 256.335 169.937 255.645 170.25C254.956 170.564 254.207 170.726 253.45 170.726C252.693 170.726 251.944 170.564 251.255 170.25C250.565 169.937 249.951 169.479 249.454 168.908C248.956 168.337 248.587 167.666 248.371 166.94C248.154 166.214 248.096 165.45 248.2 164.7C248.375 163.432 249.004 162.271 249.969 161.43C250.934 160.589 252.17 160.126 253.45 160.126C254.73 160.126 255.966 160.589 256.931 161.43C257.896 162.271 258.525 163.432 258.7 164.7ZM259.7 152.6C259.813 153.501 259.734 154.415 259.466 155.283C259.199 156.151 258.75 156.951 258.149 157.632C257.549 158.313 256.81 158.858 255.983 159.232C255.155 159.605 254.258 159.798 253.35 159.798C252.442 159.798 251.545 159.605 250.717 159.232C249.89 158.858 249.151 158.313 248.55 157.632C247.95 156.951 247.501 156.151 247.234 155.283C246.966 154.415 246.887 153.501 247 152.6C247 150.903 247.674 149.275 248.874 148.075C250.075 146.874 251.703 146.2 253.4 146.2C255.097 146.2 256.725 146.874 257.925 148.075C259.126 149.275 259.8 150.903 259.8 152.6H259.7Z" fill="white" stroke="black" stroke-width="1.1"/>
<path fill-rule="evenodd" clip-rule="evenodd" d="M258.9 140.8C258.9 142.325 258.294 143.788 257.216 144.866C256.137 145.944 254.675 146.55 253.15 146.55C251.625 146.55 250.162 145.944 249.084 144.866C248.006 143.788 247.4 142.325 247.4 140.8C247.4 139.275 248.006 137.813 249.084 136.734C250.162 135.656 251.625 135.05 253.15 135.05C254.675 135.05 256.137 135.656 257.216 136.734C258.294 137.813 258.9 139.275 258.9 140.8Z" fill="white" stroke="black" stroke-width="1.1"/>
<path fill-rule="evenodd" clip-rule="evenodd" d="M251.2 116.3V111.7H247.4L247.5 108.3H250.8V105.3H255.5V108H259.2V111.6H255.3V116.4L251.2 116.3Z" fill="#FFDD00" stroke="#7D6C00" stroke-width="1.1"/>
<path d="M210.7 179.4C203.2 166.5 192 149.1 198.9 141.6C208.5 130.7 230.9 140.6 245.2 134.2C246.2 146.5 242.8 166.7 248.3 170.9L243.2 175.4C240.1 171.4 234.2 166 226.9 175.6C222.8 172 218.1 172.6 215.9 177.4C213.7 177.7 213.9 178.6 210.7 179.4ZM296.2 178.9C303.7 166.1 314.9 148.7 308 141.1C298.4 130.3 276 140.1 261.7 133.8C260.7 146 264.1 166.2 258.6 170.5L263.7 174.9C268.7 168 274.7 167.8 279.9 175.2C284.1 171.5 288.4 172 291 177C293.2 177.3 293 178.1 296.2 179V178.9Z" stroke="#FFDD00" stroke-width="3.3"/>
<path fill-rule="evenodd" clip-rule="evenodd" d="M210.5 189C238.609 186.441 266.892 186.441 295 189L298.3 179.4C268.8 174 248.4 173.4 209.8 178.7L210.5 189Z" fill="#FFDD00" stroke="#7D6C00" stroke-width="2.4"/>
<path fill-rule="evenodd" clip-rule="evenodd" d="M249.7 351.3L250.4 346.8C253.4 347.7 255.7 347.3 258.2 346.4L260.8 342.5L258.8 340.2C257.1 340.6 255.8 342.2 254.6 343.6C252.9 343.6 251.4 342.8 249.7 342.5L248.1 335.6C246.5 333.7 243.1 333.9 243.8 337.3L244.2 339.9C244.8 341.5 245.1 343.8 246.2 344.9V347.7L249.7 351.3ZM251 331.8C248.7 332.9 246 331 243.2 329.8C240.6 329.7 238.5 331.8 235.3 331.2C235.9 329.5 237.3 329.2 238.3 328.2C237.6 323.8 239.9 322.3 240.6 322.3C241.2 322.3 243.8 323 243.8 323L246.4 323.3C248 326.1 250.1 328.7 251 331.8Z" fill="#C76E2E"/>
<path fill-rule="evenodd" clip-rule="evenodd" d="M235.5 390.5C243 378.2 295.5 353.7 344.7 300.6C294.7 348.9 263.3 360.7 222.3 390.2L235.5 390.5Z" fill="#FFE100" stroke="#E9BF00" stroke-width="2.4"/>
<path fill-rule="evenodd" clip-rule="evenodd" d="M307.6 334C307.6 335.008 307.2 335.974 306.487 336.687C305.774 337.4 304.808 337.8 303.8 337.8C302.792 337.8 301.826 337.4 301.113 336.687C300.4 335.974 300 335.008 300 334C300 332.992 300.4 332.026 301.113 331.313C301.826 330.6 302.792 330.2 303.8 330.2C304.808 330.2 305.774 330.6 306.487 331.313C307.2 332.026 307.6 332.992 307.6 334ZM344.3 296.9C344.3 298.054 343.842 299.16 343.026 299.976C342.21 300.792 341.104 301.25 339.95 301.25C338.796 301.25 337.69 300.792 336.874 299.976C336.058 299.16 335.6 298.054 335.6 296.9C335.6 295.746 336.058 294.64 336.874 293.824C337.69 293.008 338.796 292.55 339.95 292.55C341.104 292.55 342.21 293.008 343.026 293.824C343.842 294.64 344.3 295.746 344.3 296.9ZM356.5 265.3C356.5 266.308 356.1 267.274 355.387 267.987C354.674 268.7 353.708 269.1 352.7 269.1C351.692 269.1 350.726 268.7 350.013 267.987C349.3 267.274 348.9 266.308 348.9 265.3C348.9 264.292 349.3 263.326 350.013 262.613C350.726 261.9 351.692 261.5 352.7 261.5C353.708 261.5 354.674 261.9 355.387 262.613C356.1 263.326 356.5 264.292 356.5 265.3ZM344.5 224.3C344.5 225.308 344.1 226.274 343.387 226.987C342.674 227.7 341.708 228.1 340.7 228.1C339.692 228.1 338.726 227.7 338.013 226.987C337.3 226.274 336.9 225.308 336.9 224.3C336.9 223.292 337.3 222.326 338.013 221.613C338.726 220.9 339.692 220.5 340.7 220.5C341.708 220.5 342.674 220.9 343.387 221.613C344.1 222.326 344.5 223.292 344.5 224.3Z" fill="#9D4916" stroke="#68300E" stroke-width="1.1"/>
<path fill-rule="evenodd" clip-rule="evenodd" d="M212.4 287.6V271.4L210.7 270V266.2L213.7 265.9L214.3 247.9L212.3 246.8L212.1 243.8C212.1 243.8 214.3 244.6 214.3 244L214.8 240.5C214.8 240.5 213.5 240.2 213.5 239.6C213.5 239 215.1 237.7 215.1 237.7C215.1 237.7 214.3 236.9 214.1 236.4L213.2 233.4L214 230.4L213.5 228.7L212.1 226.2L214.1 224.3L213.5 221.3C213.5 220.8 214.8 218.5 215.1 218.3L217.6 215L222.2 213.9L227.7 214.7L230.7 216.7L231.3 221.6C231.3 221.6 230.7 224.6 230.5 224.6L228 225.6C228 225.6 225.3 225.9 225 225.6C224.7 225.3 225.8 228.9 225.8 228.9V232.2L225.5 236.3C225.5 236.3 225.5 238.3 225.3 238.5L224.4 239.6L224.2 243.7L228.5 244.8L228.3 247.3L225.3 247.6L225.8 264.3L230.2 265.1V269.8L228.2 270.8L227.7 287.6H212.4ZM278.9 287.8V271.7L277.3 270.3V266.5L280.3 266.2L280.9 248.2L278.9 247L278.7 244C278.7 244 280.9 244.8 280.9 244.3L281.4 240.7C281.4 240.7 280 240.5 280 239.9C280 239.3 281.7 238 281.7 238C281.7 238 280.9 237.2 280.6 236.6C280.3 236 279.8 233.6 279.8 233.6L280.6 230.6L280 229L278.7 226.5L280.6 224.5L280 221.5C280.389 220.409 280.964 219.394 281.7 218.5L284.1 215.3L288.8 214.2L294.3 215L297.3 217L297.8 221.8C297.8 221.8 297.3 224.8 297 224.8C296.7 224.8 294.5 226 294.5 226C294.5 226 291.8 226.2 291.5 226C291.2 225.8 292.4 229.2 292.4 229.2V232.5L292.1 236.6C292.1 236.6 292.1 238.6 291.8 238.8L291 239.9L290.7 244L295.1 245.1L294.8 247.6L291.8 247.9L292.4 264.6L296.7 265.4V270L294.8 271.1L294.3 287.8H278.9ZM245.3 288.4V272.2L243.6 270.9V267L246.6 266.8L247.2 248.7L245.2 247.6L245 244.6C245 244.6 247.2 245.4 247.2 244.9L247.7 241.3C247.7 241.3 246.3 241 246.3 240.5C246.3 240 248 238.5 248 238.5L246.9 237.2C246.6 236.7 246.1 234.2 246.1 234.2L246.9 231.2L246.3 229.5L245 227.1L246.9 225.1L246.3 222.1C246.689 221.009 247.264 219.994 248 219.1L250.5 215.8L255.1 214.8L260.6 215.6L263.6 217.5L264.1 222.4C264.1 222.4 263.6 225.4 263.3 225.4C263 225.4 260.9 226.5 260.9 226.5C260.9 226.5 258.1 226.8 257.9 226.5C257.7 226.2 258.7 229.8 258.7 229.8V233.1L258.4 237.1C258.4 237.1 258.4 239.1 258.1 239.4C257.8 239.6 257.3 240.4 257.3 240.4L257 244.6L261.4 245.6L261.1 248.1L258.1 248.4L258.7 265.1L263.1 265.9V270.6L261.1 271.6L260.6 288.4H245.3Z" fill="white" stroke="#A9A9A9" stroke-width="1.1"/>
<path fill-rule="evenodd" clip-rule="evenodd" d="M216.4 287.4V274.7H223.6V288L216.4 287.4ZM250 288.4L250.3 275.4H256.7V288.2L250.1 288.5L250 288.4ZM283.2 288.2L282.7 276L289.5 275.7V288.5L283.2 288.2ZM218.2 249.7H222.2V256.4H218.2V249.7ZM250.6 250H256.2V256.4H250.6V250ZM283.6 250.5H288.6V256.6H283.6V250.5Z" fill="black"/>
<path d="M220.3 220.8C224.7 225.7 225 225.7 225 225.7M253 220.7C253.7 222.4 255.1 226 256.8 226.2M288 221.6C288 221.6 289.3 225.4 291.3 225.9" stroke="#A8A8A8" stroke-width="1.1"/>
<path fill-rule="evenodd" clip-rule="evenodd" d="M215.7 207C228.5 202.8 212.7 194.5 210.1 207C205.9 207.6 205.4 210.7 196.4 209.3C174.7 244.7 190.8 301.6 254.2 360.6C140.6 264 186.8 192.6 218.2 195.2C235.3 196.4 226.7 217.7 215.7 207Z" fill="#B97700"/>
<path d="M219.2 188.8C219.2 188.8 229.7 191.6 229.7 196.1M229.7 188.1C229.7 188.1 236.9 191.2 238.5 194.1M286.6 189.3C286.6 189.3 277.4 190.4 275.4 193.3M272.6 190C272.6 190 267.4 194.5 267.8 195.7M271.4 209.3C270.6 208.9 267 204.1 267.8 198.1M236.1 206.1C236.1 206.1 238.5 203.3 238.5 198.1M252.9 196.1L253.3 207.7M263.3 206.1C263.3 205.3 266.6 197.7 263 194.1M241.3 192.5C241.3 192.5 238.5 200.1 240.5 206.5M261.8 199.3C261.8 199.3 257.4 200.5 255.4 202.5M242.9 200.5C242.9 200.1 247.7 199.3 249.3 202.1" stroke="#7D6C00" stroke-width="2.4"/>
<path fill-rule="evenodd" clip-rule="evenodd" d="M235.3 322C235.5 322 239.3 321.3 239.3 319.4C241.3 318.2 239.8 314.7 239.8 314.7L236.2 314L231.3 308.4C231.1 306.7 231.7 305.1 230.6 303.4C227.2 304.2 225.3 307 224.1 310.3C225 311.3 225.1 312.4 226.6 313.3C228.2 313.6 229.3 312.7 230.8 313C231.6 314.3 231.4 315.5 231.6 316.7C233.6 318.2 234.1 320.2 235.3 322ZM230.9 298.3V291.7L226.2 291.6C225.6 292.6 224.5 293 223.8 293.9L220.6 295.5C221.9 297.2 223.6 298.1 224.6 298.9C227.1 299.6 229 299.6 230.9 298.3ZM216.1 308L213.6 303.7C215.254 303.24 217.013 303.345 218.6 304C218.6 304 219.7 306.7 218.9 307.7C218.5 308.7 216 308.2 216.1 308ZM255.1 312.4C255.84 312.109 256.494 311.636 257.001 311.024C257.508 310.412 257.852 309.681 258 308.9L253.2 303.4H249C248 302.3 246.4 302.1 245.1 302.1C245.1 302.1 246.5 304.1 248.2 304.6C249.5 307.3 254.8 312.4 255.2 312.4H255.1ZM259.7 313.1C261.745 312.183 263.959 311.706 266.2 311.7C266 310 269.3 306 269.3 306L275.3 313.8C274.2 314.7 272.3 314.4 270.8 314.7C270.8 314.7 267.9 317.5 267.6 317.6C267.3 317.7 262.1 318.9 259.6 317.4C258.4 315.2 259.8 312.7 259.7 313.1ZM263.1 299.4C263.8 296.9 264.1 294.4 263.1 291.4C263.1 291.4 256.3 291.2 256.3 291.4L251.8 293.4C251.8 293.4 253.3 297.9 255 297.4C255.8 299.8 258.1 299.2 259.2 300L263.1 299.4ZM289.6 292.6C288.7 295.4 288.2 298.4 289.6 301.2C290.8 301.4 292.2 302.2 293.3 302L298.8 292.2C295 291 292 291.1 289.6 292.6Z" fill="#C76E2E"/>
<path fill-rule="evenodd" clip-rule="evenodd" d="M291.3 206C278.5 202 294.3 193.6 296.9 206C301.1 206.7 301.6 209.8 310.6 208.5C332.2 243.8 316.2 300.8 252.8 359.7C366.3 263.1 320.2 191.7 288.8 194.3C271.6 195.5 280.3 216.8 291.3 206.1V206Z" fill="#B97700"/>
<path fill-rule="evenodd" clip-rule="evenodd" d="M292.6 303.6C292.4 303.6 289.3 305.9 289.3 305.9L284.9 307.6L280.2 307.7L279.2 304.5L282.8 301.3C279.8 300.8 276.7 302 274.3 304.3C274.3 304.3 274.3 307.8 276.3 309.6C277.785 311.157 279.39 312.595 281.1 313.9C283.4 314.3 285.5 313.9 287 312.8L292.6 303.6ZM267.8 335.8C269.3 336.2 279.9 322.2 279.9 322.2C278.957 319.682 277.101 317.611 274.7 316.4C274.7 316.4 269.5 322.4 269.4 324.5C268.6 326.4 266.3 333.5 267.3 334.4C267.2 334.6 266.8 337.4 267.8 335.8Z" fill="#C76E2E"/>
<path fill-rule="evenodd" clip-rule="evenodd" d="M198.8 338.6C183 324.8 161.6 317.2 131.8 327.6C139.8 331 148.5 332.2 155.9 335.9L198.8 338.6Z" fill="#006800" stroke="#004100" stroke-width="2.4" stroke-linejoin="round"/>
<path d="M153 328.8C184.2 329.4 193.3 337.2 191.6 335.9" stroke="#00A400" stroke-width="2.2" stroke-linecap="round"/>
<path fill-rule="evenodd" clip-rule="evenodd" d="M199.4 340.2C190.1 342 177.2 351 173.4 350.6C163.3 349.4 153.7 345.2 143.9 342.1C139.8 340.8 135.7 342.1 131.5 342.1C166.5 325.5 178.5 327.8 199.5 340.1L199.4 340.2Z" fill="#006800" stroke="#004100" stroke-width="2.2" stroke-linejoin="round"/>
<path fill-rule="evenodd" clip-rule="evenodd" d="M176.4 315.8C176.4 315.8 164.7 317.4 159.4 317.8C154.3 317.4 146.7 312.6 138.4 303.8C134 299 124.1 299.6 124.1 299.6C146.1 294.9 163.1 299.3 176.4 315.8ZM160.4 293.1C144.5 292.1 124.7 277.8 120.2 260.9C120.2 261.2 126 264.6 125.1 265.5C151.1 272.1 152.9 277.4 160.5 293.1H160.4ZM187.1 320.4C189.4 306 190.1 296.4 183.1 287.9C177.6 281.4 176.1 277.5 172.1 268.4C171 287.4 166.9 303 187.1 320.4ZM162.1 280.4C173.9 263.2 175.9 250.2 174.1 229.8C172.846 233.804 171.309 237.714 169.5 241.5C152 252.5 159.8 269.7 162.1 280.5V280.4Z" fill="#006800" stroke="#004100" stroke-width="2.4" stroke-linejoin="round"/>
<path fill-rule="evenodd" clip-rule="evenodd" d="M151.7 197.3C163.5 214.5 161.7 230.7 159.8 251.2C158.577 247.199 157.073 243.29 155.3 239.5C137.7 228.5 149.4 208 151.7 197.3Z" fill="#006800" stroke="#004100" stroke-width="2.4" stroke-linejoin="round"/>
<path fill-rule="evenodd" clip-rule="evenodd" d="M161.4 224C190 209.5 179 191.2 184.2 177.1C164.4 191.9 161.8 207.6 161.4 223.9V224Z" fill="#006800" stroke="#004100" stroke-width="2.4" stroke-linejoin="round"/>
<path d="M165.3 220.3C168.9 210.3 176 193.1 176.7 193.1M156.9 241.5C156.2 234.3 152.7 215.1 152.3 213.2" stroke="#00A400" stroke-width="2.2" stroke-linecap="round"/>
<path fill-rule="evenodd" clip-rule="evenodd" d="M158.2 273.6C142.2 272.6 125.1 250.9 120.5 234C120.5 234.2 126.4 237.6 125.4 238.5C148.2 248.7 150.6 257.9 158.2 273.5V273.6ZM153.5 258.6C141.7 241.4 139.6 228.4 141.5 208C141.8 209.6 145.7 219.7 146 219.7C163.5 230.7 155.7 247.9 153.5 258.7V258.6ZM164 228.5C193.6 215.4 184.5 201.6 193.3 187.2C173.5 201.9 164.3 212.2 164 228.5Z" fill="#006800" stroke="#004100" stroke-width="2.4" stroke-linejoin="round"/>
<path d="M165.3 225.5C177.3 213.5 181.6 203.5 181.6 203.5" stroke="#00A400" stroke-width="2.2" stroke-linecap="round"/>
<path fill-rule="evenodd" clip-rule="evenodd" d="M270.4 390.8L284.8 391.1C237.1 346.3 145.5 326.8 158.3 244.5C145 333.8 233 342 270.4 390.8Z" fill="#FFE100" stroke="#E9BF00" stroke-width="2.4"/>
<path fill-rule="evenodd" clip-rule="evenodd" d="M165.8 226.8C165.8 227.404 165.681 228.002 165.45 228.56C165.219 229.118 164.88 229.625 164.453 230.053C164.026 230.48 163.518 230.819 162.96 231.05C162.402 231.281 161.804 231.4 161.2 231.4C160.596 231.4 159.998 231.281 159.44 231.05C158.882 230.819 158.375 230.48 157.947 230.053C157.52 229.625 157.181 229.118 156.95 228.56C156.719 228.002 156.6 227.404 156.6 226.8C156.6 225.58 157.085 224.41 157.947 223.547C158.81 222.685 159.98 222.2 161.2 222.2C162.42 222.2 163.59 222.685 164.453 223.547C165.315 224.41 165.8 225.58 165.8 226.8ZM163 252C163 253.154 162.542 254.26 161.726 255.076C160.91 255.892 159.804 256.35 158.65 256.35C157.496 256.35 156.39 255.892 155.574 255.076C154.758 254.26 154.3 253.154 154.3 252C154.3 250.846 154.758 249.74 155.574 248.924C156.39 248.108 157.496 247.65 158.65 247.65C159.804 247.65 160.91 248.108 161.726 248.924C162.542 249.74 163 250.846 163 252ZM167 288C167 289.008 166.6 289.974 165.887 290.687C165.174 291.4 164.208 291.8 163.2 291.8C162.192 291.8 161.226 291.4 160.513 290.687C159.8 289.974 159.4 289.008 159.4 288C159.4 286.992 159.8 286.026 160.513 285.313C161.226 284.6 162.192 284.2 163.2 284.2C164.208 284.2 165.174 284.6 165.887 285.313C166.6 286.026 167 286.992 167 288ZM200.4 327.7C200.4 328.721 199.994 329.7 199.272 330.422C198.55 331.144 197.571 331.55 196.55 331.55C195.529 331.55 194.55 331.144 193.828 330.422C193.106 329.7 192.7 328.721 192.7 327.7C192.7 326.679 193.106 325.7 193.828 324.978C194.55 324.256 195.529 323.85 196.55 323.85C197.571 323.85 198.55 324.256 199.272 324.978C199.994 325.7 200.4 326.679 200.4 327.7ZM205.2 339.1C205.2 340.108 204.8 341.074 204.087 341.787C203.374 342.5 202.408 342.9 201.4 342.9C200.392 342.9 199.426 342.5 198.713 341.787C198 341.074 197.6 340.108 197.6 339.1C197.6 338.092 198 337.126 198.713 336.413C199.426 335.7 200.392 335.3 201.4 335.3C202.408 335.3 203.374 335.7 204.087 336.413C204.8 337.126 205.2 338.092 205.2 339.1Z" fill="#9D4916" stroke="#68300E" stroke-width="1.1"/>
<path fill-rule="evenodd" clip-rule="evenodd" d="M222 372.3C219.857 370.667 218.142 368.54 217 366.1L202 364.4L201.8 373L222.1 372.3H222Z" fill="white" stroke="black" stroke-width="1.1"/>
<path fill-rule="evenodd" clip-rule="evenodd" d="M112.3 362.2C121 363.8 134.1 361.4 138.4 367C143.6 372.8 122.4 381.8 125.4 386.8C131.9 393.8 138.7 390.9 146 387.1C147.8 383.3 149.1 376.6 150 374.6C147.4 368.5 140.2 365.5 142 356.2C154.2 351.6 177.5 352 180 353.8C182 357.6 180.2 359.4 180.6 362.5C178.6 366.3 173.4 372.9 173.4 376.5C186.1 380.9 189.4 375.7 200.9 376C214.3 376.2 222.5 379.8 225.4 374.5C223.4 369.9 211.1 373.6 206.4 370.6C204.1 369.8 202.6 368 200.6 365.9C198.6 363.8 192.9 363.7 192 358.6C194.4 347.7 210.1 349.4 212.7 347.7L253.7 350.5C261.1 350.3 265.3 363.7 255.3 367.7C245.3 371.7 215.6 361.7 202.8 368.7C202.1 365.8 192.8 361.6 192.2 361.4C188.2 362.6 180.6 362.2 180.6 362.2C178.7 365.7 176.6 368.2 174.7 371.7C166.2 368 158.2 374.6 148.9 372.7L134.4 374.2L125.2 373.4L111.2 377.4L121.2 368.6L112.3 362.2Z" fill="white" stroke="black" stroke-width="1.1" stroke-linejoin="round"/>
<path fill-rule="evenodd" clip-rule="evenodd" d="M111.7 360.5C111.79 361.057 111.758 361.628 111.606 362.172C111.454 362.716 111.186 363.22 110.82 363.65C110.453 364.081 109.998 364.426 109.486 364.663C108.973 364.9 108.415 365.022 107.85 365.022C107.285 365.022 106.727 364.9 106.214 364.663C105.702 364.426 105.246 364.081 104.88 363.65C104.514 363.22 104.246 362.716 104.094 362.172C103.942 361.628 103.91 361.057 104 360.5C104.148 359.585 104.616 358.753 105.322 358.153C106.027 357.552 106.923 357.222 107.85 357.222C108.776 357.222 109.673 357.552 110.378 358.153C111.083 358.753 111.552 359.585 111.7 360.5ZM110.7 379.6C110.7 380.634 110.289 381.626 109.558 382.358C108.826 383.089 107.834 383.5 106.8 383.5C105.766 383.5 104.774 383.089 104.042 382.358C103.311 381.626 102.9 380.634 102.9 379.6C102.9 378.566 103.311 377.574 104.042 376.842C104.774 376.111 105.766 375.7 106.8 375.7C107.834 375.7 108.826 376.111 109.558 376.842C110.289 377.574 110.7 378.566 110.7 379.6Z" fill="white" stroke="black" stroke-width="1.1"/>
<path fill-rule="evenodd" clip-rule="evenodd" d="M284 372.4C286.5 370.1 288 368.6 289 366.1L304 364.5L304.3 373.1L284 372.4Z" fill="white" stroke="black" stroke-width="1.1"/>
<path fill-rule="evenodd" clip-rule="evenodd" d="M393.7 362.3C385 363.9 371.9 361.5 367.7 367.1C362.5 372.9 383.7 381.9 380.7 386.9C374.1 393.9 367.4 391 360 387.2C358.3 383.4 357 376.7 356 374.7C358.7 368.6 365.9 365.5 364 356.2C351.9 351.7 328.6 352.1 326 353.8C324 357.7 325.9 359.5 325.5 362.5C327.5 366.5 332.6 373 332.6 376.5C319.9 381 316.6 375.8 305.1 376.1C291.7 376.3 283.5 379.9 280.6 374.5C282.6 369.9 294.9 373.7 299.6 370.7C301.9 369.9 303.4 368 305.5 366C307.6 364 313.2 363.8 314 358.7C311.6 347.8 295.9 349.5 293.3 347.8L252.3 350.6C244.9 350.4 240.8 363.8 250.8 367.8C260.8 371.8 290.4 361.8 303.3 368.7C304 365.9 313.2 361.7 313.9 361.5C317.8 362.7 325.5 362.3 325.5 362.3C327.3 365.7 329.5 368.3 331.4 371.8C339.9 368 347.9 374.7 357.2 372.8L371.6 374.3L380.9 373.5L394.9 377.5L384.9 368.7L393.7 362.3Z" fill="white" stroke="black" stroke-width="1.1" stroke-linejoin="round"/>
<path fill-rule="evenodd" clip-rule="evenodd" d="M394.4 360.5C394.31 361.057 394.342 361.628 394.494 362.172C394.646 362.716 394.914 363.22 395.28 363.65C395.646 364.08 396.101 364.426 396.614 364.663C397.127 364.9 397.685 365.022 398.25 365.022C398.815 365.022 399.373 364.9 399.885 364.663C400.398 364.426 400.853 364.08 401.219 363.65C401.586 363.22 401.854 362.716 402.006 362.172C402.158 361.628 402.19 361.057 402.1 360.5C402.1 359.466 401.689 358.474 400.958 357.742C400.226 357.011 399.234 356.6 398.2 356.6C397.165 356.6 396.174 357.011 395.442 357.742C394.711 358.474 394.3 359.466 394.3 360.5H394.4ZM395.4 379.7C395.31 380.257 395.342 380.828 395.494 381.372C395.646 381.916 395.914 382.42 396.28 382.85C396.646 383.28 397.101 383.626 397.614 383.863C398.127 384.1 398.685 384.222 399.25 384.222C399.815 384.222 400.373 384.1 400.885 383.863C401.398 383.626 401.853 383.28 402.219 382.85C402.586 382.42 402.854 381.916 403.006 381.372C403.158 380.828 403.19 380.257 403.1 379.7C402.952 378.785 402.483 377.953 401.778 377.353C401.072 376.752 400.176 376.422 399.25 376.422C398.323 376.422 397.427 376.752 396.722 377.353C396.016 377.953 395.548 378.785 395.4 379.7Z" fill="white" stroke="black" stroke-width="1.1"/>
<path fill-rule="evenodd" clip-rule="evenodd" d="M252.8 351.3C249.3 350.6 248.1 350.8 245.8 350.6L240.3 367.5C248.7 368.2 256.6 368.2 256.6 368.2C251.5 367.2 252.7 351.4 252.8 351.2V351.3Z" fill="white"/>
<path d="M217 363V351.5H219V361.1H224.4V362.9L217 363Z" fill="black"/>
<path d="M226 363.5V352H228V363.4L226 363.5Z" fill="black"/>
<path d="M234.8 364.3H231.3V353L234.7 352.8C235.833 352.8 236.7 353.033 237.3 353.5C237.967 354.1 238.3 354.866 238.3 355.8C238.3 356.666 237.867 357.366 237 357.9C238.4 358.433 239.1 359.433 239.1 360.9C239.1 362.033 238.7 362.9 237.9 363.5C237.167 364.033 236.167 364.3 234.9 364.3H234.8ZM233.4 354.6V357.2H234.4C235.667 357.2 236.3 356.733 236.3 355.8C236.3 355 235.7 354.6 234.5 354.6H233.4ZM233.4 358.8V362.6H234.4C235.267 362.6 235.9 362.466 236.3 362.2C236.767 362 237 361.533 237 360.8C237 360.133 236.8 359.666 236.4 359.4C236.067 359 235.4 358.8 234.4 358.8H233.4Z" fill="black"/>
<path d="M243.9 355.3V358.1H247.6V359.9H244V363.3H249.3V365H242V353.7H249.2V355.5L243.9 355.3Z" fill="black"/>
<path d="M258.5 365.2L255.5 360.4H254V365.2H252V354H253.3L255.1 353.8C258.033 353.8 259.5 354.933 259.5 357.2C259.5 357.866 259.333 358.433 259 358.9C258.533 359.566 258 360 257.4 360.2L261 365.3L258.5 365.2ZM254 355.6V358.6H255L256.7 358.5C257.167 358.233 257.4 357.766 257.4 357.1C257.4 356.433 257.233 356 256.9 355.8C256.433 355.6 255.7 355.5 254.7 355.5H254V355.6Z" fill="black"/>
<path d="M266.6 355.3V364.9H264.6V355.3H261V353.5H270.4V355.3H266.6Z" fill="black"/>
<path d="M278.2 363.3L277.3 361H273.3L272.7 363.3H270.4L275 351.7H275.9L280.5 363.3H278.2ZM275.3 355.1L274.1 359.4H276.8L275.3 355.1Z" fill="black"/>
<path d="M282.1 362.4L282.8 360.6C283.667 361.067 284.433 361.3 285.1 361.3C286.3 361.3 286.9 360.9 286.9 360.1L286.5 359.1L284.8 357.8L283 356.7L282.3 355.7L282.1 354.4C282.1 353.467 282.4 352.7 283 352.1C283.667 351.633 284.5 351.4 285.5 351.4C286.833 351.4 287.833 351.633 288.5 352.1L287.8 353.9C287.133 353.233 286.367 352.9 285.5 352.9C285.033 352.9 284.7 353.033 284.5 353.3C284.233 353.567 284.1 353.9 284.1 354.3C284.1 354.967 284.767 355.633 286.1 356.3C286.967 356.7 287.6 357.067 288 357.4L288.7 358.4L288.8 359.9C288.8 360.833 288.467 361.6 287.8 362.2C287.133 362.8 286.167 363.1 284.9 363.1C283.767 363.1 282.833 362.8 282.1 362.2V362.4Z" fill="black"/>
<path d="M161.4 339.8C172.2 341.1 187.1 340.2 193.6 339.8M145.2 303.1C154.2 310.3 174.1 314.5 173.8 314.5M185.1 316.5C182.2 301.5 179 298 176.4 288.5M129.9 271.6C145.2 278.5 147.5 283 157.2 289.8M162.7 274.8C164 256.4 166.7 251.5 171.2 247.3M129.9 245C137.73 253.498 145.631 261.932 153.6 270.3M146.2 228.1C153 233 153 250.5 153 250.5" stroke="#00A400" stroke-width="2.2" stroke-linecap="round"/>
</g>
<defs>
<clipPath id="clip0_2_9342">
<rect width="512" height="512" fill="white"/>
</clipPath>
</defs>
</svg>
