<svg width="512" height="512" viewBox="0 0 512 512" fill="none" xmlns="http://www.w3.org/2000/svg">
<g clip-path="url(#clip0_2_9432)">
<path d="M0 0H512V512H0V0Z" fill="#12AD2B"/>
<path d="M0 146.3H512V365.7H0V146.3Z" fill="#FFCE00"/>
<path d="M0 0V512L192 256" fill="#D21034"/>
<path d="M276.9 195.166L256.402 258.253L287.945 268.503" fill="#000001"/>
<path d="M276.9 195.166L297.398 258.253L265.855 268.503" fill="#000001"/>
<path d="M339.987 241.002H273.653V274.169" fill="#000001"/>
<path d="M339.987 241.002L286.322 279.992L266.827 253.159" fill="#000001"/>
<path d="M315.89 315.166L295.392 252.078L263.848 262.327" fill="#000001"/>
<path d="M315.89 315.166L262.225 276.175L281.72 249.343" fill="#000001"/>
<path d="M237.91 315.165L291.575 276.175L272.08 249.342" fill="#000001"/>
<path d="M237.91 315.165L258.408 252.078L289.952 262.327" fill="#000001"/>
<path d="M213.813 241.002L267.478 279.992L286.973 253.159" fill="#000001"/>
<path d="M213.813 241.002H280.147V274.169" fill="#000001"/>
<path d="M426 195.166L405.502 258.253L437.045 268.503" fill="#000001"/>
<path d="M426 195.166L446.498 258.253L414.955 268.503" fill="#000001"/>
<path d="M489.087 241.002H422.753V274.169" fill="#000001"/>
<path d="M489.087 241.002L435.422 279.992L415.927 253.159" fill="#000001"/>
<path d="M464.99 315.166L444.492 252.078L412.948 262.327" fill="#000001"/>
<path d="M464.99 315.166L411.325 276.175L430.82 249.343" fill="#000001"/>
<path d="M387.01 315.165L440.675 276.175L421.18 249.342" fill="#000001"/>
<path d="M387.01 315.165L407.508 252.078L439.052 262.327" fill="#000001"/>
<path d="M362.913 241.002L416.578 279.992L436.073 253.159" fill="#000001"/>
<path d="M362.913 241.002H429.247V274.169" fill="#000001"/>
</g>
<defs>
<clipPath id="clip0_2_9432">
<rect width="512" height="512" fill="white"/>
</clipPath>
</defs>
</svg>
