<svg width="512" height="512" viewBox="0 0 512 512" fill="none" xmlns="http://www.w3.org/2000/svg">
<g clip-path="url(#clip0_2_10381)">
<mask id="mask0_2_10381" style="mask-type:luminance" maskUnits="userSpaceOnUse" x="0" y="0" width="513" height="513">
<path d="M0 0H512.01V512.01H0V0Z" fill="white"/>
</mask>
<g mask="url(#mask0_2_10381)">
<path fill-rule="evenodd" clip-rule="evenodd" d="M0 0H768.015V256.005H341.34L0 0Z" fill="#ED2939"/>
<path fill-rule="evenodd" clip-rule="evenodd" d="M0 512.01H768.015V256.005H341.34L0 512.01Z" fill="#002395"/>
<path fill-rule="evenodd" clip-rule="evenodd" d="M0 0L341.34 256.005L0 512.01V0Z" fill="white"/>
<path d="M172.263 193.198L172.377 189.33C172.377 189.33 170.215 185.917 172.718 182.276C172.718 182.276 167.484 179.431 168.736 175.107C168.736 175.107 163.957 173.97 164.298 168.736C164.298 168.736 159.178 168.394 158.609 163.957C158.609 163.957 153.489 164.867 151.327 160.544C151.327 160.544 146.321 161.568 144.842 158.04C144.842 158.04 140.063 159.747 137.105 155.651C137.105 155.651 131.985 157.699 129.823 153.831C127.775 157.699 122.655 155.651 122.655 155.651C119.81 159.747 114.918 157.927 114.918 157.927C113.552 161.568 108.546 160.544 108.546 160.544C106.271 164.753 101.15 163.957 101.15 163.957C100.695 168.281 95.4615 168.622 95.4615 168.622C95.6309 170.025 95.3021 171.443 94.5327 172.628C93.7633 173.814 92.602 174.691 91.2516 175.107C92.3894 179.431 87.2693 182.162 87.2693 182.162C89.7724 185.803 87.6106 189.216 87.6106 189.216V192.857L172.263 193.198Z" fill="#FFFF00"/>
<path d="M172.296 193.243V189.231C172.296 189.231 170.232 185.792 172.754 182.354C172.754 182.354 167.481 179.488 168.742 175.132C168.742 175.132 163.928 173.986 164.272 168.714C164.272 168.714 159.113 168.37 158.54 164.014C158.54 164.014 153.496 164.816 151.318 160.575C151.318 160.575 146.274 161.492 144.898 158.054C144.898 158.054 139.969 159.773 137.103 155.647C137.103 155.647 131.945 157.71 129.882 153.813C127.704 157.71 122.545 155.647 122.545 155.647C119.794 159.658 114.865 157.939 114.865 157.939C113.489 161.492 108.56 160.575 108.56 160.575C106.267 164.816 101.109 164.014 101.109 164.014C100.65 168.255 95.4915 168.599 95.4915 168.599C95.681 170.001 95.3556 171.424 94.5757 172.604C93.7957 173.785 92.6142 174.642 91.2501 175.018C92.3964 179.373 87.2379 182.124 87.2379 182.124C89.7598 185.792 87.5818 189.231 87.5818 189.231V192.899L172.296 193.243Z" stroke="black" stroke-width="0.343883"/>
<path d="M170.329 188.306C157.016 186.941 141.656 183.755 129.823 190.468C121.858 185.803 110.822 186.03 101.378 187.054C96.3716 187.851 90.3413 187.851 84.9936 188.761L84.1972 188.875C74.4121 189.557 65.651 186.599 57.2313 182.958C59.962 198.091 62.9203 213.679 64.3995 229.608C67.5853 253.047 53.249 272.844 59.0518 296.056C62.579 307.206 74.8672 313.691 86.1314 314.943C96.9261 315.65 107.652 317.171 118.217 319.494C120.132 319.965 121.998 320.613 123.793 321.429C126.241 322.49 128.447 324.039 130.278 325.98C136.422 319.722 145.297 318.015 154.172 317.105C169.874 315.171 189.444 316.195 199.115 301.858V301.062C204.349 293.097 203.666 281.037 201.391 272.048C201.163 268.976 200.367 266.245 199.911 263.173C190.24 237.686 198.546 209.014 202.642 183.3C197.636 186.03 191.947 187.396 186.258 188.761C181.707 189.33 176.814 189.102 172.149 188.761L170.329 188.306Z" fill="#FF0000"/>
<path d="M190.24 261.58C190.126 263.287 191.037 264.539 191.378 266.132C193.198 277.282 195.019 292.073 183.413 299.014C170.898 306.979 154.172 303.565 139.494 307.889C136.536 308.685 132.44 311.302 130.392 313.236C129.027 312.44 127.775 311.075 126.068 310.278C113.894 303.907 98.1922 305.955 84.5386 302.541C77.7118 300.266 70.5436 295.032 68.7231 287.977C64.2857 269.545 74.9811 253.843 73.7295 235.638C72.8559 221.969 70.723 208.41 67.3578 195.133C78.3843 199.948 90.6536 201.143 102.402 198.546C111.277 197.408 121.745 197.408 129.937 201.049C134.725 199.232 139.74 198.084 144.842 197.636C154.286 198.546 164.412 200.253 174.083 200.253C180.322 199.797 186.419 198.176 192.061 195.474C188.647 217.092 182.276 239.848 190.126 261.467" fill="#80CFE1"/>
<path d="M171.011 265.904L170.898 245.537H173.401L142.225 225.398V215.044H145.183L129.595 203.894L114.121 215.044H117.08V225.398L86.359 245.537H88.6346L88.8622 265.79H170.784" fill="white"/>
<path d="M170.92 265.913V245.51H173.328L142.377 225.452L142.262 215.136H145.242L129.652 203.903L114.177 215.021H117.157L117.272 225.452L86.3209 245.51H88.8428V265.798L170.92 265.913Z" stroke="black" stroke-width="1.37553"/>
<path d="M180.569 292.528V298.9H80.4425V292.415H180.569" fill="white"/>
<path d="M180.55 292.62V298.924H80.36V292.505H180.55V292.62Z" stroke="black" stroke-width="1.37553"/>
<path d="M87.0417 292.187V270.569H91.024L90.7964 292.415L91.024 270.796L85.335 270.683V266.131H174.766V270.683H169.191H173.287V292.301" fill="white"/>
<path d="M87.0087 292.161V270.612H91.0209L90.7916 292.391L91.0209 270.842L85.2892 270.612V266.028L174.703 266.142V270.727H169.201L169.315 292.505L169.086 270.727H173.213L173.328 292.276" stroke="black" stroke-width="1.37553"/>
<path d="M106.267 286.889V271.874H94.116V286.774L106.152 286.889" stroke="black" stroke-width="1.37553"/>
<path d="M97.5549 274.968V283.679H103.057V274.968H97.4403M165.074 286.889L164.959 271.988H153.037V286.889H165.074Z" stroke="black" stroke-width="1.37553"/>
<path d="M156.247 275.083V283.794H161.75V275.083H156.247ZM164.959 262.474V247.573H152.923V262.474H164.959Z" stroke="black" stroke-width="1.37553"/>
<path d="M156.133 250.668V259.38H161.635V250.668H156.133ZM106.152 262.474V247.459H94.116V262.36H106.152V262.474Z" stroke="black" stroke-width="1.37553"/>
<path d="M127.933 262.474V247.459H115.896V262.36H127.933M97.4403 250.554V259.265H102.943V250.554H97.4403Z" stroke="black" stroke-width="1.37553"/>
<path d="M119.106 250.554V259.265H124.609V250.554H119.106ZM144.669 262.474V247.574L132.633 247.459V262.36L144.669 262.474Z" stroke="black" stroke-width="1.37553"/>
<path d="M135.843 250.554V259.265H141.46V250.554H135.843Z" stroke="black" stroke-width="1.37553"/>
<path d="M147.686 257.939L147.8 292.528H113.097L112.984 257.825H147.686" fill="white"/>
<path d="M112.687 267.747H147.764M117.043 292.505V267.976M143.523 292.505V268.091M147.65 257.89L147.764 292.505H113.03L112.916 257.89H147.65ZM160.374 243.103L140.886 228.89H118.762L99.2744 243.103H160.374ZM120.482 216.969V225.681H139.052V216.969H120.482Z" stroke="black" stroke-width="1.37553"/>
<path d="M129.652 206.883L139.969 214.219H119.45L129.767 206.883M125.526 219.147V223.503H134.008V219.147H125.526Z" stroke="black" stroke-width="1.37553"/>
<path d="M171.353 202.073C174.311 202.073 174.994 214.134 174.994 220.164C179.061 221.748 182.69 224.284 185.575 227.56H157.358C160.179 224.314 163.726 221.78 167.712 220.164C167.712 214.134 168.394 201.96 171.353 202.073Z" fill="white"/>
<path d="M137.333 258.806H139.855L139.052 260.297C139.052 260.297 140.313 261.787 139.052 263.621L139.74 264.767H137.447L138.021 263.621C138.021 263.621 136.874 261.557 138.021 260.182L137.333 258.921M171.264 202.069C174.245 202.069 174.933 214.104 174.933 220.179C177.454 220.867 183.072 224.42 185.479 227.515H157.279C159.686 224.42 165.303 220.867 167.711 220.179C167.711 214.104 168.398 202.069 171.264 202.069ZM114.521 258.806H117.043L116.355 260.182C116.355 260.182 117.501 261.787 116.355 263.621L117.043 264.767H114.521L115.209 263.621C115.209 263.621 114.062 261.557 115.209 260.182L114.521 258.806ZM119.679 258.806H122.201L121.513 260.182C121.513 260.182 122.66 261.787 121.513 263.621L122.201 264.767H119.679L120.367 263.621C120.367 263.621 119.221 261.557 120.367 260.182L119.679 258.806ZM125.411 258.806H127.818L127.13 260.182C127.13 260.182 128.277 261.787 127.13 263.621L127.818 264.767H125.411L125.984 263.621C125.984 263.621 124.838 261.557 125.984 260.182L125.296 258.806H125.411ZM131.716 258.806H134.238L133.435 260.297C133.435 260.297 134.696 261.787 133.435 263.621L134.123 264.767H131.716L132.404 263.621C132.404 263.621 131.257 261.557 132.404 260.182L131.716 258.806ZM142.95 258.921H145.472L144.669 260.297C144.669 260.297 145.93 261.787 144.669 263.621L145.357 264.767H143.064L143.638 263.621C143.638 263.621 142.491 261.557 143.638 260.182L142.95 258.921Z" stroke="black" stroke-width="1.37553"/>
<path d="M130.506 336.789C142.946 337.114 155.325 334.948 166.915 330.417L183.527 328.938L183.755 348.963C169.874 356.7 137.674 358.407 130.506 358.293C123.451 358.293 90.7965 356.7 76.8015 348.963L77.0291 328.824L93.5272 330.303C105.318 334.846 117.871 337.086 130.506 336.903" fill="#FFFF00"/>
<path d="M130.455 336.864C143.523 336.864 159.457 334.228 167.023 330.331L183.415 328.955L183.759 349.014C169.889 356.694 137.562 358.413 130.569 358.298C123.462 358.298 90.7916 356.694 76.6917 348.899L76.9209 328.841L93.4281 330.331C100.994 334.228 117.501 336.864 130.455 336.864Z" stroke="black" stroke-width="0.343883"/>
<path d="M34.3615 251.113L48.9254 255.664L44.4879 279.216L30.8343 281.378C30.8343 281.378 28.5587 268.976 34.3615 251.113Z" fill="#FFFF00"/>
<path d="M34.3919 251.127L48.8358 255.712L44.4797 279.209L30.7237 281.387C30.7237 281.387 28.431 269.008 34.3919 251.127Z" stroke="black" stroke-width="0.343883"/>
<path d="M44.4879 278.988L30.8344 281.378L39.4816 268.976L44.4879 278.988Z" fill="#7E7E7E"/>
<path d="M44.4798 278.98L30.7238 281.272L39.4359 269.008L44.4798 278.98Z" stroke="black" stroke-width="0.343883"/>
<path d="M25.7143 268.066L39.7093 269.09C40.0506 280.923 41.416 326.093 95.4615 328.597L93.7548 345.095C27.9899 345.777 23.0974 289.57 25.7143 268.066Z" fill="#FFFF00"/>
<path d="M77.0356 348.441L93.5428 344.888M25.6799 268.091L39.6652 269.008C40.0091 280.928 41.3847 326.09 95.4916 328.611L93.7721 345.117C27.9726 345.804 23.0433 289.64 25.6799 268.091Z" stroke="black" stroke-width="0.343883"/>
<path d="M225.398 251.226L210.948 255.778L215.499 279.33L229.267 281.606C229.267 281.606 231.542 269.09 225.398 251.226Z" fill="#FFFF00"/>
<path d="M225.371 251.241L210.927 255.826L215.513 279.324L229.269 281.616C229.269 281.616 231.561 269.237 225.371 251.241Z" stroke="black" stroke-width="0.343883"/>
<path d="M215.499 279.102L229.267 281.492L220.506 269.204L215.499 279.102Z" fill="#7E7E7E"/>
<path d="M215.513 279.095L229.269 281.502L220.442 269.237L215.513 279.095Z" stroke="black" stroke-width="0.343883"/>
<path d="M234.273 268.179L220.278 269.203C220.05 281.037 219.026 326.321 164.981 328.71L166.801 345.095C232.566 345.891 237.117 289.684 234.273 268.179Z" fill="#FFFF00"/>
<path d="M183.53 348.441L167.023 345.002M234.198 268.206L220.213 269.123C219.983 281.043 219.066 326.319 164.959 328.726L166.793 345.117C232.593 345.919 237.064 289.754 234.198 268.32V268.206Z" stroke="black" stroke-width="0.343883"/>
<path d="M121.745 346.801C121.403 347.029 120.834 347.029 120.265 347.029L117.649 346.915L117.876 343.616L120.493 343.729C120.948 343.729 121.403 343.957 121.631 344.071C122.2 344.298 122.427 344.867 122.314 345.55C122.314 346.119 122.086 346.574 121.745 346.688M117.307 351.921L117.649 347.939L120.607 348.167C121.423 348.219 122.23 347.977 122.882 347.484C123.338 346.915 123.679 346.346 123.679 345.55C123.725 345.179 123.688 344.803 123.57 344.448C123.452 344.094 123.256 343.771 122.996 343.502C122.43 343.002 121.704 342.72 120.948 342.705L116.625 342.478L116.056 351.808L117.307 351.921ZM126.865 344.184H130.051L131.188 344.412C131.53 344.64 131.757 345.095 131.757 345.777C131.757 346.46 131.643 346.915 131.302 347.143C130.961 347.37 130.392 347.484 129.823 347.484H126.751V344.184M126.751 352.49V348.508H129.709C130.278 348.508 130.733 348.508 130.961 348.736C131.416 348.849 131.643 349.305 131.643 349.873V351.466L131.757 352.263L131.871 352.604H133.464V352.377C133.348 352.325 133.247 352.246 133.168 352.147C133.088 352.048 133.034 351.932 133.009 351.808V349.76C133.009 349.191 132.781 348.736 132.554 348.622C132.366 348.316 132.088 348.077 131.757 347.939L132.895 347.143L133.123 345.664C133.123 344.64 132.667 343.843 131.757 343.502C131.179 343.267 130.56 343.151 129.937 343.16H125.499V352.49H126.751ZM136.764 350.556C136.155 349.814 135.796 348.898 135.74 347.939C135.74 346.574 135.967 345.664 136.536 344.981C137.105 344.184 137.901 343.843 138.925 343.843C140.063 343.843 140.746 344.071 141.429 344.753C141.997 345.322 142.453 346.232 142.566 347.37C142.566 348.394 142.339 349.305 141.884 350.101C141.315 350.897 140.632 351.353 139.381 351.466C138.243 351.466 137.332 351.239 136.764 350.556ZM135.171 344.64C134.554 345.624 134.274 346.782 134.374 347.939C134.412 349.203 134.895 350.412 135.74 351.353C136.215 351.779 136.774 352.101 137.382 352.297C137.99 352.493 138.632 352.559 139.267 352.49C139.965 352.513 140.659 352.37 141.292 352.073C141.924 351.777 142.478 351.335 142.908 350.784C143.589 349.739 143.909 348.5 143.818 347.257C143.82 346.095 143.418 344.968 142.68 344.071C141.77 343.047 140.405 342.592 138.812 342.705C137.105 342.705 135.967 343.388 135.171 344.64ZM179.204 331.1C179.997 330.935 180.819 330.974 181.593 331.214C182.731 331.555 183.413 332.351 183.869 333.489L182.503 333.717C182.415 333.424 182.269 333.153 182.073 332.918C181.878 332.684 181.637 332.491 181.365 332.351C180.744 332.134 180.074 332.094 179.431 332.238C179.001 332.276 178.585 332.408 178.212 332.624C177.838 332.84 177.517 333.135 177.269 333.489C176.814 334.286 176.7 335.196 176.928 336.561C177.042 337.699 177.497 338.495 178.066 339.064C178.748 339.747 179.545 339.975 180.683 339.747C181.485 339.642 182.217 339.235 182.731 338.609C183.186 338.154 183.413 337.244 183.186 336.22L180.228 336.675L180 335.651L184.21 334.968L185.006 339.975H184.21L183.755 338.837C183.446 339.281 183.061 339.666 182.617 339.975C182.026 340.453 181.32 340.767 180.569 340.885C179.495 341.051 178.399 340.808 177.497 340.202C176.966 339.788 176.522 339.274 176.19 338.688C175.858 338.102 175.645 337.457 175.563 336.789C175.416 336.131 175.401 335.45 175.518 334.786C175.635 334.123 175.882 333.488 176.245 332.92C176.575 332.419 177.011 331.995 177.522 331.681C178.033 331.366 178.607 331.168 179.204 331.1ZM188.761 330.417L191.719 329.279C192.083 329.145 192.474 329.106 192.857 329.165C193.312 329.165 193.767 329.507 193.995 330.19C194.222 330.758 194.222 331.214 193.995 331.555L192.743 332.351L189.899 333.489L188.761 330.417ZM191.719 338.154L190.24 334.399L193.085 333.375C193.448 333.235 193.833 333.158 194.222 333.148C194.678 333.148 195.019 333.489 195.36 334.058L195.929 335.537L196.271 336.22L196.498 336.447L197.977 335.879V335.765C197.75 335.765 197.522 335.537 197.295 335.31L196.953 334.627L196.498 333.489C196.271 332.92 196.043 332.579 195.702 332.351C195.381 332.201 195.032 332.123 194.678 332.124C195.019 331.782 195.247 331.441 195.36 330.986C195.45 330.529 195.411 330.056 195.247 329.621C194.791 328.597 194.109 328.028 193.085 328.028C192.63 328.028 191.947 328.028 191.264 328.255L187.054 329.848L190.468 338.609L191.719 338.154ZM202.642 333.603L197.295 325.638L203.211 321.884L203.894 322.908L199.001 325.98L200.708 328.255L205.145 325.525L205.714 326.435L201.277 329.279L203.097 331.896L207.99 328.71L208.673 329.621L202.642 333.489M207.421 319.722L208.9 318.015C209.583 317.219 210.379 316.877 211.176 316.991C212.161 317.112 213.08 317.551 213.793 318.243C214.445 318.818 214.919 319.568 215.158 320.404C215.386 320.973 215.272 321.542 215.158 321.997L214.475 322.794L212.882 324.501L207.421 319.722ZM215.386 323.363C216.523 322.225 216.865 320.86 216.182 319.38C215.782 318.509 215.2 317.733 214.475 317.105C213.629 316.324 212.55 315.844 211.403 315.739C210.801 315.684 210.194 315.78 209.637 316.019C209.081 316.257 208.593 316.63 208.217 317.105L205.6 319.836L212.882 326.207L215.386 323.363ZM220.961 316.081L212.655 311.188L213.338 310.05L221.643 314.943L220.961 316.081ZM224.26 310.392L215.158 306.865L217.889 300.493L219.027 300.948L216.751 306.182L219.482 307.206L221.53 302.427L222.667 302.882L220.619 307.661L223.578 308.799L225.853 303.565L226.991 304.02L224.26 310.392ZM228.356 299.355L218.913 297.307L219.254 295.828L227.901 292.87L220.278 291.277L220.506 290.139L229.949 292.073L229.722 293.552L220.961 296.511L228.584 298.217L228.356 299.355ZM227.56 287.408L227.674 286.27C228.243 286.27 228.812 286.27 229.039 285.929C229.722 285.588 230.177 284.905 230.177 283.881V282.516C229.949 281.719 229.494 281.378 228.812 281.264C228.243 281.264 227.901 281.264 227.674 281.605C227.446 281.947 227.105 282.402 226.991 283.085L226.536 284.222L225.74 286.043C225.284 286.612 224.602 286.839 223.805 286.726C223.403 286.692 223.012 286.573 222.659 286.377C222.306 286.181 221.998 285.912 221.757 285.588C221.188 285.019 221.075 284.222 221.188 283.085C221.188 282.174 221.53 281.378 222.099 280.695C222.667 280.126 223.464 279.785 224.488 279.899V281.037C223.919 281.037 223.464 281.15 223.236 281.378C222.667 281.719 222.326 282.288 222.326 283.312C222.212 283.995 222.326 284.45 222.554 284.905C222.895 285.246 223.236 285.474 223.692 285.474C224.147 285.474 224.488 285.474 224.829 285.019L225.512 283.426L225.853 282.174C226.081 281.492 226.308 281.037 226.65 280.695C226.919 280.436 227.242 280.24 227.596 280.122C227.951 280.004 228.327 279.966 228.698 280.013C229.836 280.126 230.518 280.581 230.973 281.378C231.315 282.174 231.429 283.085 231.315 284.109C231.325 284.601 231.229 285.09 231.032 285.542C230.836 285.993 230.544 286.397 230.177 286.726C229.81 287.012 229.389 287.22 228.939 287.337C228.489 287.455 228.02 287.479 227.56 287.408ZM32.086 286.726L32.3135 287.863C31.8584 287.977 31.4033 288.205 31.1757 288.546C30.493 289.001 30.3793 289.684 30.493 290.822L30.9482 292.073C31.4033 292.756 31.9722 293.097 32.6549 292.983C33.11 292.87 33.4513 292.642 33.6789 292.301L33.9064 290.708V289.342L34.3616 287.522C34.5891 286.953 35.158 286.498 35.9545 286.384C36.3524 286.312 36.7613 286.325 37.1537 286.423C37.5461 286.521 37.913 286.702 38.2301 286.953C38.9128 287.408 39.3679 288.091 39.3679 289.229C39.5047 289.658 39.555 290.111 39.5159 290.56C39.4769 291.009 39.3492 291.446 39.1403 291.846C38.799 292.528 38.1163 292.983 37.0923 293.211L36.8647 292.073C37.3198 291.846 37.6612 291.732 38.0025 291.391C38.3439 290.935 38.4576 290.253 38.3439 289.342C38.2301 288.66 38.0025 288.205 37.5474 287.863C37.3916 287.731 37.2101 287.632 37.0143 287.573C36.8184 287.515 36.6126 287.497 36.4096 287.522C36.1984 287.556 36.0009 287.648 35.8399 287.789C35.6789 287.93 35.5609 288.114 35.4994 288.318C35.3156 288.868 35.2384 289.447 35.2718 290.025V291.391C35.2532 291.951 35.0969 292.498 34.8167 292.983C34.6411 293.293 34.3952 293.558 34.0988 293.756C33.8024 293.953 33.4637 294.078 33.11 294.121C31.9722 294.349 31.1757 294.121 30.6068 293.439C29.9961 292.73 29.6012 291.861 29.469 290.935C29.2146 289.979 29.3368 288.96 29.8104 288.091C30.0635 287.708 30.3993 287.386 30.7931 287.15C31.1869 286.914 31.6287 286.769 32.086 286.726ZM31.5171 299.128L40.7332 296.283L43.0088 302.769L41.871 303.224L40.0506 297.876L37.2061 298.672L38.799 303.565L37.6612 303.906L36.182 299.014L32.9962 299.924L34.8167 305.385L33.6789 305.727L31.5171 299.128ZM35.6131 310.392L44.1466 305.841L45.0569 307.434L39.1403 313.578L47.6738 312.212L48.5841 313.691L40.0506 318.243L39.4817 317.105L44.488 314.488L45.3982 314.033L46.6498 313.35L38.1163 314.829L37.5474 313.691L43.3502 307.547L43.0088 307.775L42.0986 308.23C41.8103 308.443 41.506 308.633 41.1884 308.799L36.182 311.416L35.6131 310.278M51.4286 322.794C50.9735 322.794 50.6321 322.566 50.177 322.111L48.3565 320.291L50.7459 318.015L52.5664 319.836L53.249 320.86C53.4766 321.428 53.2491 321.997 52.7939 322.339C52.3388 322.794 51.8837 323.021 51.4286 322.908M44.6018 323.704L47.56 320.973L49.6081 323.249C50.1985 323.798 50.9644 324.121 51.7699 324.159C52.5056 324.107 53.1954 323.783 53.7042 323.249C54.2731 322.68 54.6144 322.111 54.6144 321.315C54.6144 320.632 54.2731 320.063 53.7042 319.38L50.7459 316.308L43.6915 322.794L44.6018 323.704ZM53.1353 331.214L58.1416 323.249L64.1719 326.89L63.603 327.914L58.5967 324.956L57.1176 327.345L61.6688 330.076L60.9861 330.986L56.4349 328.255L54.7282 330.986L59.7345 333.944L59.1656 334.968L53.0215 331.214M68.1542 329.734L71.2263 330.645L72.1365 331.214C72.4779 331.555 72.5916 332.124 72.3641 332.693C72.2503 333.262 71.909 333.603 71.4538 333.83L69.9747 333.717L67.1302 332.806L68.1542 329.734ZM65.5373 337.585L66.6751 333.717L69.6334 334.627L70.7712 335.196C70.9987 335.537 71.1125 335.992 70.8849 336.561L70.5436 337.927L70.316 338.723V338.951L71.909 339.519V339.292L71.6814 338.609C71.6814 338.495 71.6814 338.154 71.909 337.813L72.2503 336.675C72.3641 336.106 72.4779 335.765 72.2503 335.537C72.1503 335.186 71.9531 334.871 71.6814 334.627C72.1365 334.513 72.5916 334.399 72.933 334.058C73.2743 333.83 73.5019 333.375 73.7295 332.92C74.0708 331.782 73.8432 330.986 73.1606 330.303C72.7054 330.076 72.2503 329.734 71.4538 329.507L67.244 328.141L64.2857 337.016L65.4235 337.471" fill="#009FC5"/>
<path d="M78.5081 175.676C79.6459 172.945 89.7724 165.777 123.337 168.849C123.337 168.849 129.026 172.377 132.326 171.921C134.147 171.694 131.188 172.035 128.685 169.987C126.182 167.939 125.613 163.729 131.416 163.843C137.105 163.957 158.723 165.208 159.064 167.143C159.406 169.077 147.686 169.873 143.363 169.76C138.925 169.76 139.494 171.921 143.818 171.694C157.471 171.239 172.263 166.46 188.192 177.61C190.013 178.862 183.3 179.09 178.179 176.928C178.179 176.928 164.298 177.724 158.382 176.7C158.382 176.7 153.831 180.455 147.686 180.114C148.483 182.048 145.411 189.216 126.637 183.868C123.451 184.779 112.187 186.713 113.325 183.299C110.367 183.299 105.133 184.21 104.336 182.503C103.654 180.91 113.552 178.293 115.373 176.473C115.373 176.473 94.2098 176.7 90.2275 175.335C90.2275 175.335 77.7117 178.066 78.5081 175.676Z" fill="#BC715F"/>
<path d="M85.335 205.259C85.6764 204.69 85.9039 203.552 86.8142 203.552C88.976 204.121 90.3414 207.99 92.9583 205.487C93.8685 205.259 94.0961 206.511 94.8926 206.624C95.4615 208.786 97.1682 206.283 98.306 206.397C101.292 205.155 104.582 204.838 107.75 205.487C107.75 207.535 106.157 209.81 104.109 211.062C104.109 213.11 106.043 214.475 106.043 216.637C105.702 217.434 106.043 218.685 104.905 218.913C103.312 218.571 101.833 218.458 100.582 217.661C100.354 217.434 100.24 217.206 100.013 217.206C99.7851 218.002 100.923 218.685 101.378 219.482C100.582 220.619 99.33 219.482 98.306 219.482C97.9646 220.278 98.306 221.188 97.5095 221.757C96.1441 221.643 95.8028 220.164 95.0063 219.482C94.2099 220.392 95.689 220.961 95.8028 221.643C95.3477 224.374 95.3477 227.105 92.617 228.925L90.7965 229.836C90.3414 228.356 90.5689 226.308 90.2276 224.829C89.0898 226.65 88.2933 228.243 86.8142 229.722C84.8799 229.039 83.7421 226.877 83.4008 225.057C82.9891 223.995 82.899 222.835 83.1418 221.722C83.3846 220.61 83.9495 219.593 84.7661 218.799C84.1972 217.661 82.1492 218.002 81.9216 216.41C78.9634 214.475 77.3704 219.823 75.4362 216.978C75.133 215.645 75.1502 214.259 75.4865 212.934C75.8227 211.609 76.4684 210.382 77.3704 209.355C77.0291 208.217 75.6637 208.559 74.8673 207.99C72.933 206.397 70.3161 204.804 70.4299 201.959C72.9519 201.031 75.6879 200.849 78.3108 201.434C80.9338 202.019 83.3328 203.347 85.2213 205.259" fill="#008737"/>
<path d="M87.8381 205.032C87.8381 207.307 89.431 205.6 90.6826 206.966C89.6586 206.624 88.9759 208.673 88.0657 207.535L87.383 208.104C87.7243 208.9 88.5208 209.014 87.7243 209.81C86.7003 210.265 86.5865 208.9 86.0176 208.445C86.0176 208.217 86.1314 207.762 85.7901 207.648C85.2212 208.104 84.6523 208.331 83.742 208.217C83.5145 207.762 83.0594 207.08 83.5145 206.852C84.3109 205.714 85.5625 207.193 86.1314 206.511C86.2452 205.828 85.6763 205.032 86.4728 204.463C86.9279 204.576 87.6105 204.349 87.8381 204.918M94.096 206.852C94.096 207.307 93.8685 207.99 94.4374 208.217C95.2338 207.876 96.0303 208.217 96.4854 208.9C96.4854 209.355 96.5992 209.81 96.0303 210.038L94.8925 209.81C94.8925 209.583 94.5511 209.469 94.4374 209.241C93.8685 209.014 93.6409 209.469 93.2996 209.697C93.5271 210.152 94.2098 210.493 93.9822 211.062C93.2996 211.745 92.9582 210.379 92.1618 210.721C91.7066 210.493 92.3893 209.469 91.5929 209.128C90.5688 209.128 91.2515 210.721 89.9999 210.152C89.5448 209.583 89.0897 209.014 89.6586 208.331C89.9485 208.177 90.279 208.116 90.6049 208.157C90.9308 208.197 91.2361 208.338 91.4791 208.559C92.2755 207.762 92.2755 204.463 94.096 206.852ZM86.359 210.265C86.8141 210.948 86.2452 211.972 86.8141 212.769C87.9519 210.834 88.8621 213.224 90.1137 212.996C90.455 213.451 90.1137 214.134 90.2275 214.589C88.7484 215.044 86.9279 215.499 85.6763 214.248L85.2212 214.703C86.0176 215.386 86.8141 216.296 86.1314 217.547C84.9936 217.775 83.2869 217.775 82.718 216.637C82.4904 215.613 83.4007 214.93 82.3767 214.248C81.694 215.158 81.694 216.41 80.1011 215.499C79.8809 215.391 79.6848 215.239 79.5247 215.054C79.3646 214.868 79.2437 214.651 79.1693 214.417C79.0949 214.184 79.0686 213.937 79.0918 213.693C79.1151 213.449 79.1874 213.212 79.3046 212.996C80.4424 211.403 82.1491 212.996 83.1731 212.2C83.4007 210.834 82.8318 209.697 84.0834 208.9C85.2212 208.786 85.6763 209.583 86.359 210.265Z" fill="#FFFF00"/>
<path d="M90.5689 211.062C90.1138 213.337 88.2933 210.948 87.4968 210.834C88.6346 208.9 89.3173 211.517 90.5689 211.062ZM96.0303 213.565C94.8925 213.906 94.8925 212.427 94.3236 211.858L94.8925 211.403L96.0303 213.565Z" fill="white"/>
<path d="M94.4374 213.11C94.665 213.906 93.5272 214.589 94.5512 215.158L95.3477 214.361C96.2579 214.589 97.1682 214.817 97.7371 215.499C98.4197 217.32 96.5992 217.32 95.689 217.775H94.7788C95.0063 217.206 94.3236 216.978 94.0961 216.637C93.8991 216.588 93.6913 216.606 93.5057 216.688C93.3202 216.771 93.1675 216.913 93.0721 217.092C93.2996 218.23 94.665 219.026 93.1859 219.937C92.0481 219.937 90.3414 220.392 90.4551 218.799C90 217.889 91.5929 216.523 89.8862 216.523C89.3173 217.661 88.7484 218.799 87.2693 217.661L87.3831 215.954C88.7484 215.954 90.4551 216.182 91.1378 214.589C91.4791 213.451 90.4551 212.427 91.3654 211.517C92.8445 211.176 93.641 212.2 94.3237 213.11" fill="#FFFF00"/>
<path d="M93.2996 215.727C93.7547 216.637 92.7307 216.637 92.1618 217.092C91.5929 217.092 91.2516 216.865 90.7964 216.41C90.5689 215.386 91.3653 215.272 91.9342 214.93C92.6169 214.589 92.8445 215.386 93.2996 215.727Z" fill="black"/>
<path d="M92.5031 216.182C92.3894 216.523 92.1618 216.41 91.9342 216.523L91.7067 215.385C92.1618 215.385 92.7307 215.613 92.5031 216.296" fill="white"/>
</g>
</g>
<defs>
<clipPath id="clip0_2_10381">
<rect width="512" height="512" fill="white"/>
</clipPath>
</defs>
</svg>
