<svg width="512" height="512" viewBox="0 0 512 512" fill="none" xmlns="http://www.w3.org/2000/svg">
<g clip-path="url(#clip0_2_10438)">
<path d="M0 0H512V512H0V0Z" fill="#3E5EB9"/>
<path d="M0 96H512V416H0V96Z" fill="#FFD900"/>
<path d="M0 128H512V384H0V128Z" fill="#B10C0C"/>
<path d="M443.634 210.951L419.672 219.431L443.535 227.812L467.497 219.431L443.634 210.951Z" fill="white" stroke="black" stroke-width="0.98607"/>
<path d="M427.758 216.571H81.746C80.0578 216.571 78.6892 217.83 78.6892 219.382C78.6892 220.934 80.0578 222.192 81.746 222.192H427.758C429.446 222.192 430.815 220.934 430.815 219.382C430.815 217.83 429.446 216.571 427.758 216.571Z" fill="#FFD900" stroke="black" stroke-width="0.98607"/>
<path d="M422.433 222.192C423.167 222.169 423.867 221.874 424.396 221.363C424.924 220.853 425.244 220.164 425.293 219.431C425.268 218.68 424.959 217.967 424.428 217.436C423.897 216.905 423.184 216.596 422.433 216.571M419.672 222.192C420.389 222.145 421.065 221.84 421.573 221.332C422.081 220.824 422.387 220.148 422.433 219.431C422.41 218.696 422.115 217.997 421.604 217.468C421.094 216.94 420.405 216.62 419.672 216.571M416.812 222.192C417.547 222.169 418.247 221.874 418.775 221.363C419.304 220.853 419.623 220.164 419.672 219.431C419.647 218.68 419.338 217.967 418.807 217.436C418.276 216.905 417.563 216.596 416.812 216.571" fill="#FFD900"/>
<path d="M422.433 222.192C423.167 222.169 423.867 221.874 424.396 221.363C424.924 220.853 425.244 220.164 425.293 219.431C425.268 218.68 424.959 217.967 424.428 217.436C423.897 216.905 423.184 216.596 422.433 216.571M419.672 222.192C420.389 222.145 421.065 221.84 421.573 221.332C422.081 220.824 422.387 220.148 422.433 219.431C422.41 218.696 422.115 217.997 421.604 217.468C421.094 216.94 420.405 216.62 419.672 216.571M416.812 222.192C417.547 222.169 418.247 221.874 418.775 221.363C419.304 220.853 419.623 220.164 419.672 219.431C419.647 218.68 419.338 217.967 418.807 217.436C418.276 216.905 417.563 216.596 416.812 216.571" stroke="black" stroke-width="0.98607"/>
<path d="M420.658 227.812L396.697 236.293L420.56 244.674L444.521 236.293L420.658 227.812Z" fill="white" stroke="black" stroke-width="0.98607"/>
<path d="M404.783 233.433H58.7707C57.0824 233.433 55.7139 234.691 55.7139 236.243C55.7139 237.795 57.0824 239.054 58.7707 239.054H404.783C406.471 239.054 407.839 237.795 407.839 236.243C407.839 234.691 406.471 233.433 404.783 233.433Z" fill="#FFD900" stroke="black" stroke-width="0.98607"/>
<path d="M399.458 239.054C400.192 239.031 400.892 238.735 401.421 238.225C401.949 237.715 402.269 237.026 402.318 236.293C402.293 235.542 401.984 234.829 401.453 234.298C400.922 233.767 400.209 233.458 399.458 233.433M396.697 239.054C397.414 239.007 398.09 238.702 398.598 238.193C399.106 237.685 399.412 237.01 399.458 236.293C399.435 235.558 399.14 234.859 398.629 234.33C398.119 233.801 397.43 233.482 396.697 233.433M393.837 239.054C394.572 239.031 395.271 238.735 395.8 238.225C396.329 237.715 396.648 237.026 396.697 236.293C396.672 235.542 396.363 234.829 395.832 234.298C395.301 233.767 394.588 233.458 393.837 233.433" fill="#FFD900"/>
<path d="M399.458 239.054C400.192 239.031 400.892 238.735 401.421 238.225C401.949 237.715 402.269 237.026 402.318 236.293C402.293 235.542 401.984 234.829 401.453 234.298C400.922 233.767 400.209 233.458 399.458 233.433M396.697 239.054C397.414 239.007 398.09 238.702 398.598 238.193C399.106 237.685 399.412 237.01 399.458 236.293C399.435 235.558 399.14 234.859 398.629 234.33C398.119 233.801 397.43 233.482 396.697 233.433M393.837 239.054C394.572 239.031 395.271 238.735 395.8 238.225C396.329 237.715 396.648 237.026 396.697 236.293C396.672 235.542 396.363 234.829 395.832 234.298C395.301 233.767 394.588 233.458 393.837 233.433" stroke="black" stroke-width="0.98607"/>
<path d="M491.36 251.774H20.7084C18.4211 251.774 16.5669 253.672 16.5669 256.014C16.5669 258.356 18.4211 260.254 20.7084 260.254H491.36C493.647 260.254 495.501 258.356 495.501 256.014C495.501 253.672 493.647 251.774 491.36 251.774Z" fill="#FFD900" stroke="black" stroke-width="1.08468"/>
<path d="M394.2 256C366.1 284.2 328.5 340.5 253.4 340.5C187.6 340.5 140.7 284.2 112.4 256C140.7 227.8 187.6 171.5 253.4 171.5C328.4 171.5 366.1 227.8 394.2 256Z" fill="white" stroke="black"/>
<path d="M243.5 200.9C251 209.3 244.8 212.7 252.7 213.3C261.1 213.9 256.3 222.2 263.4 222.5C268.3 222.7 262.9 242.3 267.6 248.8C272.4 255.6 276.5 250.8 276.6 255.7C276.6 260.7 263.4 260.2 263.2 275.7C262.8 284.7 252 285.3 251.5 291.1C250.9 296.5 272.7 299.6 272.5 304.4C272.1 309.3 248.9 308.5 247.8 314C247.3 319 279.8 323 282.5 337.4C272.948 339.525 263.186 340.565 253.4 340.5C187.6 340.5 140.7 284.2 112.5 256C140.7 227.8 187.6 171.5 253.4 171.5C253.4 171.5 233.9 189.3 243.5 200.9Z" fill="black"/>
<path d="M168.619 248.52V225.939ZM182.227 225.939V248.52ZM195.834 225.939V248.52Z" fill="black"/>
<path d="M168.619 248.52V225.939M182.227 225.939V248.52M195.834 225.939V248.52" stroke="white" stroke-width="6.80388"/>
<path d="M168.619 286.089V263.508ZM182.227 263.508V286.089ZM195.834 263.508V286.089Z" fill="black"/>
<path d="M168.619 286.089V263.508M182.227 263.508V286.089M195.834 263.508V286.089" stroke="white" stroke-width="6.80388"/>
<path d="M209.639 248.52V225.939ZM223.247 225.939V248.52ZM236.855 225.939V248.52Z" fill="black"/>
<path d="M209.639 248.52V225.939M223.247 225.939V248.52M236.855 225.939V248.52" stroke="white" stroke-width="6.80388"/>
<path d="M209.639 286.089V263.508ZM223.247 263.508V286.089ZM236.855 263.508V286.089Z" fill="black"/>
<path d="M209.639 286.089V263.508M223.247 263.508V286.089M236.855 263.508V286.089" stroke="white" stroke-width="6.80388"/>
<path d="M271.959 248.52V225.939ZM285.567 225.939V248.52ZM299.175 225.939V248.52Z" fill="black"/>
<path d="M271.959 248.52V225.939M285.567 225.939V248.52M299.175 225.939V248.52" stroke="black" stroke-width="6.80388"/>
<path d="M271.959 286.089V263.508ZM285.567 263.508V286.089ZM299.175 263.508V286.089Z" fill="black"/>
<path d="M271.959 286.089V263.508M285.567 263.508V286.089M299.175 263.508V286.089" stroke="black" stroke-width="6.80388"/>
<path d="M312.979 248.52V225.939ZM326.587 225.939V248.52ZM340.195 225.939V248.52Z" fill="black"/>
<path d="M312.979 248.52V225.939M326.587 225.939V248.52M340.195 225.939V248.52" stroke="black" stroke-width="6.80388"/>
<path d="M312.979 286.089V263.508ZM326.587 263.508V286.089ZM340.195 263.508V286.089Z" fill="black"/>
<path d="M312.979 286.089V263.508M326.587 263.508V286.089M340.195 263.508V286.089" stroke="black" stroke-width="6.80388"/>
<path d="M461.8 252.7C457.5 260 465.1 250.2 483.5 262.5C485.375 264.048 486.911 265.966 488.012 268.133C489.113 270.301 489.756 272.673 489.9 275.1C489 274.6 488.4 273.3 487.4 272.5C486.1 273.8 488.8 279.9 489.1 282.8C486.2 281.2 486.5 280.5 485.5 278.5C485.7 280.9 485 287.5 486.2 290C483.9 289.3 484.1 287.5 482.9 287.2C483.7 290 482.2 293.1 482.6 296.4C481.3 295.1 479.8 294 479.2 293.4C479.1 295.1 476.7 299.1 476.6 300.5C476.186 300.227 475.831 299.875 475.557 299.462C475.282 299.05 475.093 298.587 475 298.1C472.347 301.205 470.096 304.632 468.3 308.3C464.5 304.9 454.7 296.7 453.4 292.3C452.3 294.8 450.6 295.6 447.4 297.4C446.2 290.5 441.4 282.8 443.9 276.8C442.177 277.884 440.508 279.052 438.9 280.3C440.366 274.246 443.202 268.61 447.19 263.825C451.177 259.04 456.21 255.234 461.9 252.7H461.8Z" fill="#333333" stroke="black" stroke-width="0.9"/>
<path d="M445.9 289.3C447.7 285.7 449.3 284.6 450.5 282.3C452.5 278.3 452.8 275.1 454.5 275.6C456.3 276.1 456.3 277.7 454 281.6C451.8 285.6 450.7 286.5 445.9 289.3ZM457.9 297.7C457.7 295.1 458.5 293.9 458.3 292.2C458.1 289.1 456.8 287 458.5 286.8C460 286.8 460.8 287.8 460.8 290.8C460.8 293.8 460.4 294.8 457.8 297.7H457.9ZM467 303C466.3 299.2 466.8 297.6 466.3 295.1C465.6 290.9 464 288.1 465.5 287.6C467 287.2 467.9 288.6 468.5 293C469 297.3 468.8 298.5 467 303ZM476.5 276.7C474.2 274.9 472.9 274.8 471.5 273.7C469 271.7 467.7 269.8 466.9 270.8C466.1 271.8 466.7 272.9 469.3 274.7C471.9 276.5 472.9 276.6 476.5 276.7ZM474.9 289.1C473.7 286.6 472.5 286.1 471.7 284.5C470.4 281.7 470.4 279.4 468.9 279.9C467.5 280.6 467.3 281.9 468.9 284.5C470.5 287.2 471.3 287.6 474.9 289.1Z" fill="#B3B3B3"/>
<path d="M37.3 259.8C37 257.7 37.5001 257.4 36.2001 255.8C38.2001 256.5 38.2 258.8 40.5 257.2C41.4 256.7 41.7001 256.7 40.7001 254.3C43.1001 254.4 51.1001 257.2 52.4001 257.3C55.8001 257.3 61.9 253.7 66.2 258.3C70.2 262.3 68.9001 266.7 68.9001 272.3C67.3001 271.6 68.0001 271.3 66.3001 269.2C67.6001 274.2 66.3001 283.2 66.3001 288.6C65.6001 287.2 65.7 287.8 65 286.6C63.3 291.3 61.2001 292.3 61.2001 298.1C60.5001 295.8 61.2 296.3 60.5 295.1C58.8 298.8 47.3 302 51.8 305.6C47.8 303.3 46.1 303.6 44.3 301.5C43.5 302 42.9001 303 42.2001 304.2C35.2001 301 37.7001 294.2 32.2001 289.5C31.2001 291.5 31.8001 291.2 30.7001 294.3C29.7001 289.9 29.3001 287.2 28.1 284C27.1 285.7 27.1 285 25.1 287.7C24.3 282.4 23.1 281.1 23.5 277.7C21.5 279.1 22.9 278.5 20.8 280.3C22.8 266.7 31.2001 256.6 37.2001 259.8H37.3Z" fill="#333333" stroke="black" stroke-width="1.1"/>
<path d="M28.7 282C30.5 277.6 32.0999 276.3 33.2999 273.5C35.2999 268.5 35.5999 264.5 37.2999 265.1C38.9999 265.7 39 267.7 36.7 272.6C34.4 277.6 33.4 278.6 28.7 282ZM35.5 293C36.2 289 37.2999 287.7 37.7999 285.1C38.6999 280.7 38.1999 277.4 39.7999 277.5C41.3999 277.7 41.8 279.5 40.7 283.8C39.6 288.3 38.9 289.3 35.4 293H35.5ZM43.5 300.7C43.8 296.9 44.6999 295.4 44.7999 292.9C45.0999 288.6 44.1999 285.5 45.7999 285.5C47.2999 285.5 47.8 287 47.4 291.4C46.9 295.7 46.3999 296.8 43.5999 300.7H43.5ZM61 275.7C57.7 272.4 55.7 271.7 53.5 269.7C49.8 265.9 47.9 262.4 46.5 263.7C45.2 264.9 46 266.7 50 270.3C54 273.9 55.4 274.4 61 275.7ZM59 288.6C56.9 285.3 55.1999 284.3 53.7999 282.2C51.2999 278.4 50.5999 275.2 49.0999 276C47.6999 276.8 48.1 278.5 50.7 282.2C53.4 285.8 54.4 286.5 59 288.6Z" fill="#B3B3B3"/>
<path d="M207.9 186.5C203.9 194 214.7 184 231.5 196.7C235.622 201.083 238.278 206.64 239.1 212.6C235.652 211.491 232.334 210.016 229.2 208.2C229.2 208.2 236.7 215.7 236.7 224.3C234 222.7 232.7 222.9 231.7 220.9C231.7 223.7 234.2 225.4 234.2 229.7C232.572 228.414 230.831 227.276 229 226.3C231.5 230.6 224.5 239 228 241.7C225.033 241.298 222.18 240.292 219.618 238.744C217.055 237.196 214.837 235.139 213.1 232.7C211.8 233.5 211.7 234.9 211.6 236.4C211.8 236.6 202.3 229.4 203.2 226.6C202.109 227.97 201.479 229.65 201.4 231.4C197.783 228.385 195.053 224.445 193.5 220L190.3 224C189.2 217 189.2 217.2 191.5 211.2C189.908 212.288 188.373 213.456 186.9 214.7C188.09 208.736 190.592 203.112 194.224 198.235C197.856 193.357 202.528 189.349 207.9 186.5Z" fill="#333333" stroke="black" stroke-width="0.8"/>
<path d="M198.2 223.3C198.9 218.1 200.2 216.3 200.6 212.8C201.4 207 200.5 202.6 202.6 202.8C204.6 202.9 205.2 205.1 204.2 210.9C203.2 216.9 202.2 218.2 198.2 223.4V223.3ZM209.2 232.9C208.7 228.5 209.5 226.6 209.2 223.8C208.8 218.8 207.2 215.5 209 215.2C210.9 214.9 211.8 216.5 212 221.6C212.2 226.6 211.7 227.9 209.1 232.9H209.2ZM226.2 240.7C224.3 236.9 222.7 235.7 221.5 233.3C219.5 229 218.9 225.5 217.3 226.1C215.7 226.8 215.8 228.6 218.1 232.8C220.5 237 221.5 237.8 226.1 240.7H226.2ZM232.1 206.7C227.3 204.2 224.9 204.1 221.9 202.6C216.5 199.7 213.4 196.6 212.3 198.4C211.3 200.1 212.7 201.8 218.2 204.4C223.7 206.9 225.4 207 232 206.6L232.1 206.7ZM233.8 220.8C230.3 218 228.3 217.6 226.1 215.8C222.1 212.5 220.2 209.4 219 210.7C217.7 212 218.5 213.7 222.6 216.7C226.6 219.7 228.1 220.1 233.8 220.8Z" fill="#B3B3B3"/>
</g>
<defs>
<clipPath id="clip0_2_10438">
<rect width="512" height="512" fill="white"/>
</clipPath>
</defs>
</svg>
