<svg width="512" height="512" viewBox="0 0 512 512" fill="none" xmlns="http://www.w3.org/2000/svg">
<g clip-path="url(#clip0_2_10476)">
<path d="M512 512V0H0V512H512Z" fill="#002868"/>
<path d="M491 191.5V281.5C491 341.5 461 406.1 386 441.1C311 406.1 281 341.5 281 281.5V191.5H491Z" fill="#FCD116" stroke="black" stroke-width="8"/>
<path d="M491 191.5V281.5C491 341.5 461 406.1 386 441.1C311 406.1 281 341.5 281 281.5V191.5H491Z" stroke="white" stroke-width="7"/>
<path d="M348.1 290.6C345.4 295.2 340.7 296.2 337.1 294.7C333.4 293.3 330 284.5 326.2 279.7C322.6 275.1 321.6 277.1 319.2 274.4C315.702 271.199 311.631 268.688 307.2 267C303.9 265.5 300.5 264.1 298.2 258.4C299.214 256.095 301.076 254.269 303.4 253.3C305.3 252.6 306.8 249.9 307 247.5C307.3 245.2 309.3 242.7 312 240.9C310.7 241.1 308.1 240.6 306.9 239.7C305.8 238.7 303.9 239 302.8 239.9C301.6 240.6 300.2 240.9 298.2 240.6C299 240 300.4 238.6 300.5 237.4C300.6 236.2 302.1 235.5 305 235.5C307.8 235.5 309.6 232.2 311.9 232.2C310.3 232.2 310.6 229.5 311.5 229.4C307.5 228.6 308 225.4 309.6 225.4C309.5 224.9 309 224.4 307.1 223.7C305.4 223.1 306.2 221.5 307.6 220.5C306.4 218 307.5 216.1 309.5 214.5C306.7 214.4 309.8 210.5 310.5 208.4C311.3 206.4 311.6 206.1 312.5 207.4C313.5 208.5 315.8 211.1 318.4 211.9C320.9 212.6 322.4 214 322.9 216.1C323.4 218.4 324.4 219.5 327.1 220.5C330 221.4 333.9 223.8 333.4 229.1C335.29 229.171 337.109 229.836 338.6 231" fill="#FCAD56"/>
<path d="M348.1 290.6C345.4 295.2 340.7 296.2 337.1 294.7C333.4 293.3 330 284.5 326.2 279.7C322.6 275.1 321.6 277.1 319.2 274.4C315.702 271.199 311.631 268.688 307.2 267C303.9 265.5 300.5 264.1 298.2 258.4C299.214 256.095 301.076 254.269 303.4 253.3C305.3 252.6 306.8 249.9 307 247.5C307.3 245.2 309.3 242.7 312 240.9C310.7 241.1 308.1 240.6 306.9 239.7C305.8 238.7 303.9 239 302.8 239.9C301.6 240.6 300.2 240.9 298.2 240.6C299 240 300.4 238.6 300.5 237.4C300.6 236.2 302.1 235.5 305 235.5C307.8 235.5 309.6 232.2 311.9 232.2C310.3 232.2 310.6 229.5 311.5 229.4C307.5 228.6 308 225.4 309.6 225.4C309.5 224.9 309 224.4 307.1 223.7C305.4 223.1 306.2 221.5 307.6 220.5C306.4 218 307.5 216.1 309.5 214.5C306.7 214.4 309.8 210.5 310.5 208.4C311.3 206.4 311.6 206.1 312.5 207.4C313.5 208.5 315.8 211.1 318.4 211.9C320.9 212.6 322.4 214 322.9 216.1C323.4 218.4 324.4 219.5 327.1 220.5C330 221.4 333.9 223.8 333.4 229.1C335.29 229.171 337.109 229.836 338.6 231" stroke="black" stroke-width="0.3" stroke-linecap="round" stroke-linejoin="round"/>
<path d="M355 222.9C355.004 224.117 355.285 225.316 355.822 226.408C356.359 227.5 357.138 228.455 358.1 229.2C360 230.8 361.6 232 361.2 233.9C360.9 235.9 361.6 237.1 363.2 238.4C365 239.6 366.2 241.1 365.8 243.6C365.4 246.1 365.6 247.6 366.6 249.5C367.6 251.4 369.4 252.9 368.6 255.9C367.8 258.9 368.2 262.9 369.2 264.9C370.2 266.8 369.2 268.3 367.5 271.6C365.7 274.9 364.7 276.1 361.1 277.4C357.4 278.5 357.1 280.8 357.1 284.6C357.1 288.6 354.5 290.6 349.6 289.9C344.6 294 341.5 289.1 340.2 283C338.9 276.9 338.8 270.2 331.4 264.9C324.1 259.4 327 250.1 333.1 246.4C339.2 242.7 338.5 232 337.7 225.4C337.1 218.7 341.5 215 344.9 211.4C349.4 213.1 355 220 355 222.9Z" fill="#FFA1A1" stroke="black" stroke-width="0.3" stroke-linecap="round" stroke-linejoin="round"/>
<path d="M344.4 265.5C343 262.2 341.5 259 345.1 252C348.9 244.9 346.5 239.5 345.4 235.9C344.3 232.4 344 229.1 345.4 227.6C346.9 226.3 347.5 225.4 347.6 223C347.7 220.7 349.6 221.5 349.9 222.6C350.2 223.7 350.4 225.6 348.4 229C346.4 232.5 354 241 350.5 250.1C348.1 256.5 351.3 264.6 352.5 270.3C353.7 276 354.5 289.3 346.2 291.3C351.9 288.6 346.6 270.7 344.4 265.5Z" fill="#F1B2DC" stroke="black" stroke-width="0.3" stroke-linecap="round" stroke-linejoin="round"/>
<path d="M307.3 264.5C308.6 264.8 309.3 264 309.7 263.1C310.1 262.2 310.4 261.7 311.7 261.6C312.9 261.6 314.9 261.2 315.4 260.2C315.8 259.2 317.3 260.2 318.6 257.6C319.9 255 320.7 252 324.1 250.9M333.4 229.1C332.1 229.1 328.5 229.3 327 232.5M316.6 213.6C319.6 214.5 318.4 216.5 319.9 217.6C322.6 219.8 320.1 222 322.4 222.6C324.7 223.2 324.5 223.6 324 226.1C323.2 229 326 229.1 325 231M312 240.9C313.8 239.2 318.1 238 319.1 236.2M311.9 232.2C314.5 232.2 318 233.2 318.5 232.2M311.5 229.4C312.8 229.4 315.4 228.5 315.9 226.7M309.6 225.4C311.48 225.466 313.333 224.942 314.9 223.9M307.6 220.5C308.7 219.6 310.7 220.6 312.6 219.4M309.5 214.5C310.4 214.5 312.3 214.2 312.3 215.4" stroke="black" stroke-width="0.3" stroke-linecap="round" stroke-linejoin="round"/>
<path d="M429.125 237.375C429.125 237.375 420.375 230 413.125 225C405.875 220 397.125 213.875 397.125 212.625C398.5 211.625 405.875 216.375 416 222.5C426.25 228.75 432 234.875 432 234.875L429.125 237.375ZM428.5 242.375C428.5 242.375 420 237.25 411.625 233.625C402.875 230 389.75 230 388.375 228.75C388.375 227.5 403.625 226.75 414.5 231.125C425.625 236.25 431.375 239.875 431.375 239.875L428.5 242.375ZM428.375 250.875C428.375 250.875 419.125 246.625 410.125 244.625C401.375 242.625 388.875 243.375 387.375 242.25C387.375 241 402.875 238.5 414.5 242.25C426.25 245.875 431.25 248.375 431.25 248.375L428.375 250.875ZM427.875 259.5C427.875 259.5 420.875 254.75 411.625 253.75C402.875 252.875 391.25 259.5 389.75 258.25C389.75 257 399.875 249.625 412.5 250.875C424.875 252.125 430.75 257 430.75 257L427.875 259.5ZM430.75 232.25C430.75 232.25 421.875 224.125 421.875 218.625C421.875 213.75 427.25 206.25 429.625 206.25C428.375 208.75 424.25 213.75 424.25 218.625C424.25 223.625 433.625 229.75 433.625 229.75L430.75 232.25Z" fill="#9E540A" stroke="black" stroke-width="0.275" stroke-linecap="round" stroke-linejoin="round"/>
<path d="M430.75 232.25C430.75 232.25 432.5 224.125 432.5 218.625C432.5 211.25 427.25 204.5 427.75 202.625C429.625 204.5 434.875 210 434.875 218.625C434.875 226.125 433.625 229.75 433.625 229.75L430.75 232.25Z" fill="#9E540A" stroke="black" stroke-width="0.275" stroke-linecap="round" stroke-linejoin="round"/>
<path d="M432.875 229.625C432.875 227.25 432 225.125 430.5 223.5C428.5 221.125 425.5 220.375 422.375 220.875C418.625 221.5 415.625 223.75 413.75 227.25C411.25 231.875 411 236.875 410.875 241.75C410.875 258.625 411.5 265.5 412 282.125C412.125 287 413 297 410.75 304.875C409.875 308.25 408.875 311.375 407.375 314.625C408.375 310.5 408.875 308.375 409.375 305.25C410.75 297.125 410.375 289.5 410.125 282C409.625 266.625 408.75 258.75 408.25 240.125C408.125 234.5 408.625 230.25 411.25 225.75C414 221.125 418.75 217.75 424.125 217.75C426.375 217.75 428.25 218.125 430.125 219.25C433.875 221.25 435.625 225.375 435.625 229.5L432.875 229.625Z" fill="#9E540A" stroke="#FCD116" stroke-width="1.5" stroke-linecap="round" stroke-linejoin="round"/>
<path d="M432.875 229.625C432.875 227.25 432 225.125 430.5 223.5C428.5 221.125 425.5 220.375 422.375 220.875C418.625 221.5 415.625 223.75 413.75 227.25C411.25 231.875 411 236.875 410.875 241.75C410.875 258.625 411.5 265.5 412 282.125C412.125 287 413 297 410.75 304.875C409.875 308.25 408.875 311.375 407.375 314.625C408.375 310.5 408.875 308.375 409.375 305.25C410.75 297.125 410.375 289.5 410.125 282C409.625 266.625 408.75 258.75 408.25 240.125C408.125 234.5 408.625 230.25 411.25 225.75C414 221.125 418.75 217.75 424.125 217.75C426.375 217.75 428.25 218.125 430.125 219.25C433.875 221.25 435.625 225.375 435.625 229.5L432.875 229.625Z" fill="#9E540A"/>
<path d="M433.625 289.875C433.625 289.875 430.125 296.125 427.5 300.625C424.875 305.125 422.75 306.125 420.75 304.75C418.875 303.375 420.5 299.75 422 298C423.5 296.25 431.875 288.125 431.875 288.125L433.625 289.875Z" fill="#9E540A" stroke="black" stroke-width="0.275" stroke-linecap="round" stroke-linejoin="round"/>
<path d="M434.5 290.375C434.5 290.375 433.125 297.5 432 302.625C431 307.75 429.25 309.5 427.125 308.875C424.875 308.375 425.25 304.25 426.125 302.125C427 300 432.25 289.25 432.25 289.25L434.5 290.375Z" fill="#9E540A" stroke="black" stroke-width="0.275" stroke-linecap="round" stroke-linejoin="round"/>
<path d="M436 290.625V303.125C436 308.375 434.75 310.5 432.375 310.375C430.125 310.25 429.625 306.25 430.125 303.875C430.5 301.625 433.625 290 433.625 290L436 290.625Z" fill="#9E540A" stroke="black" stroke-width="0.275" stroke-linecap="round" stroke-linejoin="round"/>
<path d="M442.875 237.375C442.875 237.375 451.625 230 458.875 225C466.125 220 474.875 213.875 474.875 212.625C473.5 211.625 466.125 216.375 456 222.5C445.75 228.75 440 234.875 440 234.875L442.875 237.375ZM443.5 242.375C443.5 242.375 452 237.25 460.375 233.625C469.125 230 482.25 230 483.625 228.75C483.625 227.5 468.375 226.75 457.5 231.125C446.375 236.25 440.625 239.875 440.625 239.875L443.5 242.375ZM443.625 250.875C443.625 250.875 452.875 246.625 461.875 244.625C470.625 242.625 483.125 243.375 484.625 242.25C484.625 241 469.125 238.5 457.5 242.25C445.75 245.875 440.75 248.375 440.75 248.375L443.625 250.875ZM444.125 259.5C444.125 259.5 451.125 254.75 460.375 253.75C469.125 252.875 480.75 259.5 482.25 258.25C482.25 257 472.125 249.625 459.5 250.875C447.125 252.125 441.25 257 441.25 257L444.125 259.5ZM441.25 232.25C441.25 232.25 450.125 224.125 450.125 218.625C450.125 213.75 444.75 206.25 442.375 206.25C443.625 208.75 447.75 213.75 447.75 218.625C447.75 223.625 438.375 229.75 438.375 229.75L441.25 232.25Z" fill="#9E540A" stroke="black" stroke-width="0.275" stroke-linecap="round" stroke-linejoin="round"/>
<path d="M441.25 232.25C441.25 232.25 439.5 224.125 439.5 218.625C439.5 211.25 444.75 204.5 444.25 202.625C442.375 204.5 437.125 210 437.125 218.625C437.125 226.125 438.375 229.75 438.375 229.75L441.25 232.25Z" fill="#9E540A" stroke="black" stroke-width="0.275" stroke-linecap="round" stroke-linejoin="round"/>
<path d="M439.125 229.625C439.125 227.25 440 225.125 441.5 223.5C443.5 221.125 446.5 220.375 449.625 220.875C453.375 221.5 456.375 223.75 458.25 227.25C460.75 231.875 461 236.875 461.125 241.75C461.125 258.625 460.5 265.5 460 282.125C459.875 287 459 297 461.25 304.875C462.125 308.25 463.125 311.375 464.625 314.625C463.625 310.5 463.125 308.375 462.625 305.25C461.25 297.125 461.625 289.5 461.875 282C462.375 266.625 463.25 258.75 463.75 240.125C463.875 234.5 463.375 230.25 460.75 225.75C458 221.125 453.25 217.75 447.875 217.75C445.625 217.75 443.75 218.125 441.875 219.25C438.125 221.25 436.375 225.375 436.375 229.5L439.125 229.625Z" fill="#9E540A" stroke="#FCD116" stroke-width="1.5" stroke-linecap="round" stroke-linejoin="round"/>
<path d="M439.125 229.625C439.125 227.25 440 225.125 441.5 223.5C443.5 221.125 446.5 220.375 449.625 220.875C453.375 221.5 456.375 223.75 458.25 227.25C460.75 231.875 461 236.875 461.125 241.75C461.125 258.625 460.5 265.5 460 282.125C459.875 287 459 297 461.25 304.875C462.125 308.25 463.125 311.375 464.625 314.625C463.625 310.5 463.125 308.375 462.625 305.25C461.25 297.125 461.625 289.5 461.875 282C462.375 266.625 463.25 258.75 463.75 240.125C463.875 234.5 463.375 230.25 460.75 225.75C458 221.125 453.25 217.75 447.875 217.75C445.625 217.75 443.75 218.125 441.875 219.25C438.125 221.25 436.375 225.375 436.375 229.5L439.125 229.625Z" fill="#9E540A"/>
<path d="M438.375 289.875C438.375 289.875 441.875 296.125 444.5 300.625C447.125 305.125 449.25 306.125 451.25 304.75C453.125 303.375 451.5 299.75 450 298C448.5 296.25 440.125 288.125 440.125 288.125L438.375 289.875Z" fill="#9E540A" stroke="black" stroke-width="0.275" stroke-linecap="round" stroke-linejoin="round"/>
<path d="M437.5 290.375C437.5 290.375 438.875 297.5 440 302.625C441 307.75 442.75 309.5 444.875 308.875C447.125 308.375 446.75 304.25 445.875 302.125C445 300 439.75 289.25 439.75 289.25L437.5 290.375Z" fill="#9E540A" stroke="black" stroke-width="0.275" stroke-linecap="round" stroke-linejoin="round"/>
<path d="M436 290.625V303.125C436 308.375 437.25 310.5 439.625 310.375C441.875 310.25 442.375 306.25 441.875 303.875C441.5 301.625 438.375 290 438.375 290L436 290.625Z" fill="#9E540A" stroke="black" stroke-width="0.275" stroke-linecap="round" stroke-linejoin="round"/>
<path d="M436 290.5C429.375 290.375 428.75 288 428.75 288C428.75 288 427.875 285 427.75 283.125C427.625 282.875 425.875 279.125 426.375 277.5C425.75 276 424.25 272.375 425.625 271.75C425 270 424 268 423.875 266.125C423.375 264.75 422.125 261.75 423.125 260.75C423.125 260.75 420.75 255.75 421.875 254.5C421.875 254.5 420.75 249.625 421.875 248.375C421.875 248.375 421.875 243.375 423.125 242.125C423.125 242.125 423.125 237.25 424.25 236C424.25 236.25 427.75 229.125 436 229.125L435.875 239.75H436V290.5Z" fill="#9E540A" stroke="black" stroke-width="0.275" stroke-linecap="round" stroke-linejoin="round"/>
<path d="M436 263.25C425.375 263.125 423.125 260.75 423.125 260.75M436 257C425.375 257 421.875 254.5 421.875 254.5M436 250.875C425.375 250.75 421.875 248.375 421.875 248.375M436 244.625C425.375 244.5 423.125 242.125 423.125 242.125M435.875 239.75C436 239.75 427.875 239.75 426.625 238.5L424.25 236.125M436 285.5C432.875 285.5 429.375 285 427.75 283.125M436 280.5C430.125 280.5 426.625 278.125 426.625 278.125C426.625 278.125 426.5 277.875 426.375 277.5M436 274.375C428.25 274.25 426.125 272.625 425.625 271.75M436 269.375C425.375 269.375 424.25 266.875 424.25 266.875L423.875 266.125" stroke="black" stroke-width="0.275" stroke-linecap="round" stroke-linejoin="round"/>
<path d="M436 290.5C442.625 290.375 443.25 288 443.25 288C443.25 288 444.125 285 444.25 283.125C444.375 282.875 446.125 279.125 445.625 277.5C446.25 276 447.75 272.375 446.375 271.75C447 270 448 268 448.125 266.125C448.625 264.75 449.875 261.75 448.875 260.75C448.875 260.75 451.25 255.75 450.125 254.5C450.125 254.5 451.25 249.625 450.125 248.375C450.125 248.375 450.125 243.375 448.875 242.125C448.875 242.125 448.875 237.25 447.75 236C447.75 236.25 444.25 229.125 436 229.125L436.125 239.75H436V290.5Z" fill="#9E540A" stroke="black" stroke-width="0.275" stroke-linecap="round" stroke-linejoin="round"/>
<path d="M436 263.25C446.625 263.125 448.875 260.75 448.875 260.75M436 257C446.625 257 450.125 254.5 450.125 254.5M436 250.875C446.625 250.75 450.125 248.375 450.125 248.375M436 244.625C446.625 244.5 448.875 242.125 448.875 242.125M436.125 239.75C436 239.75 444.125 239.75 445.375 238.5L447.75 236.125M436 285.5C439.125 285.5 442.625 285 444.25 283.125M436 280.5C441.875 280.5 445.375 278.125 445.375 278.125C445.375 278.125 445.5 277.875 445.625 277.5M436 274.375C443.75 274.25 445.875 272.625 446.375 271.75M436 269.375C446.625 269.375 447.75 266.875 447.75 266.875L448.125 266.125" stroke="black" stroke-width="0.275" stroke-linecap="round" stroke-linejoin="round"/>
<path d="M386 405.5C380.625 410.5 370.25 407.25 367 405C363.625 406.125 354.625 402.625 352.25 398.75C345.75 399.625 343.5 390.375 344.625 388C346.375 384.5 343.25 382.25 345.5 379.875C348.625 376.875 343.75 374 346.75 372C349.75 369.875 346 366.375 349 364.125C352.125 361.75 347.375 358.5 350.625 356.875C353.875 355.25 350.25 351 353 349.375C355.75 347.75 351.375 343.625 355.125 341.75C358.75 339.875 355.5 336.625 358.375 335.25C361.5 333.625 358.625 330.25 361.5 329.125C364.75 327.75 362.375 324.125 365.125 323.125C367.5 322.25 366 320 367.5 318H386" fill="#009E49"/>
<path d="M386 405.5C380.625 410.5 370.25 407.25 367 405C363.625 406.125 354.625 402.625 352.25 398.75C345.75 399.625 343.5 390.375 344.625 388C346.375 384.5 343.25 382.25 345.5 379.875C348.625 376.875 343.75 374 346.75 372C349.75 369.875 346 366.375 349 364.125C352.125 361.75 347.375 358.5 350.625 356.875C353.875 355.25 350.25 351 353 349.375C355.75 347.75 351.375 343.625 355.125 341.75C358.75 339.875 355.5 336.625 358.375 335.25C361.5 333.625 358.625 330.25 361.5 329.125C364.75 327.75 362.375 324.125 365.125 323.125C367.5 322.25 366 320 367.5 318H386" stroke="black" stroke-width="0.275" stroke-linecap="round" stroke-linejoin="round"/>
<path d="M373.625 318.75C371.125 321.25 374.125 323.125 371.625 326.125C369 329.25 371.375 330.875 369.25 333.625C367.125 336.375 370.25 337.75 367.875 340.875C365.5 343.875 368.375 345.75 365.75 348.25C363.25 350.875 366.25 353.125 363.625 355.875C361.125 358.75 364.125 360.625 361.625 363.125C359 365.75 362 368.5 359.5 371C357 373.625 360 376.875 357.125 379.875C354.375 382.875 357.625 385.25 355.375 387.5C353 389.875 355.125 392.25 353.5 393.875C351.875 395.5 351.625 397.75 352.25 398.75M378.5 319.625C376.25 322.75 379.75 324.125 377.625 326.625C375.5 329.25 378.5 330.125 376.875 333.125C375.25 336.125 378.125 336.875 376 339.875C373.875 342.875 377.125 345.25 374.875 348.25C372.5 351.25 376 352.875 373.875 355.875C371.875 359 374.875 360.625 373 362.875C371.125 365.25 374.375 367.5 372 370.375C369.75 373.125 373 375.25 371.125 377.75C369.25 380.375 371.875 383.125 370.25 385.25C368.625 387.25 371.375 390.375 369 393.125C366.75 395.875 369.5 397.75 368.125 399.625C366.75 401.5 365.625 404.25 367 405" stroke="black" stroke-width="0.275" stroke-linecap="round" stroke-linejoin="round"/>
<path d="M386 405.5C391.375 410.5 401.75 407.25 405 405C408.375 406.125 417.375 402.625 419.75 398.75C426.25 399.625 428.5 390.375 427.375 388C425.625 384.5 428.75 382.25 426.5 379.875C423.375 376.875 428.25 374 425.25 372C422.25 369.875 426 366.375 423 364.125C419.875 361.75 424.625 358.5 421.375 356.875C418.125 355.25 421.75 351 419 349.375C416.25 347.75 420.625 343.625 416.875 341.75C413.25 339.875 416.5 336.625 413.625 335.25C410.5 333.625 413.375 330.25 410.5 329.125C407.25 327.75 409.625 324.125 406.875 323.125C404.5 322.25 406 320 404.5 318H386" fill="#009E49"/>
<path d="M386 405.5C391.375 410.5 401.75 407.25 405 405C408.375 406.125 417.375 402.625 419.75 398.75C426.25 399.625 428.5 390.375 427.375 388C425.625 384.5 428.75 382.25 426.5 379.875C423.375 376.875 428.25 374 425.25 372C422.25 369.875 426 366.375 423 364.125C419.875 361.75 424.625 358.5 421.375 356.875C418.125 355.25 421.75 351 419 349.375C416.25 347.75 420.625 343.625 416.875 341.75C413.25 339.875 416.5 336.625 413.625 335.25C410.5 333.625 413.375 330.25 410.5 329.125C407.25 327.75 409.625 324.125 406.875 323.125C404.5 322.25 406 320 404.5 318H386" stroke="black" stroke-width="0.275" stroke-linecap="round" stroke-linejoin="round"/>
<path d="M398.375 318.75C400.875 321.25 397.875 323.125 400.375 326.125C403 329.25 400.625 330.875 402.75 333.625C404.875 336.375 401.75 337.75 404.125 340.875C406.5 343.875 403.625 345.75 406.25 348.25C408.75 350.875 405.75 353.125 408.375 355.875C410.875 358.75 407.875 360.625 410.375 363.125C413 365.75 410 368.5 412.5 371C415 373.625 412 376.875 414.875 379.875C417.625 382.875 414.375 385.25 416.625 387.5C419 389.875 416.875 392.25 418.5 393.875C420.125 395.5 420.375 397.75 419.75 398.75M393.5 319.625C395.75 322.75 392.25 324.125 394.375 326.625C396.5 329.25 393.5 330.125 395.125 333.125C396.75 336.125 393.875 336.875 396 339.875C398.125 342.875 394.875 345.25 397.125 348.25C399.5 351.25 396 352.875 398.125 355.875C400.125 359 397.125 360.625 399 362.875C400.875 365.25 397.625 367.5 400 370.375C402.25 373.125 399 375.25 400.875 377.75C402.75 380.375 400.125 383.125 401.75 385.25C403.375 387.25 400.625 390.375 403 393.125C405.25 395.875 402.5 397.75 403.875 399.625C405.25 401.5 406.375 404.25 405 405" stroke="black" stroke-width="0.275" stroke-linecap="round" stroke-linejoin="round"/>
<path d="M386 405.5V318" stroke="#009E49" stroke-width="0.275" stroke-linecap="round" stroke-linejoin="round"/>
<path d="M386 322.5C384.875 327.375 387.625 331.625 386 335.75C384.375 339.75 387.125 341.375 386.25 344.625C385.25 347.875 387.375 350.25 386 353.75C384.625 357.25 387.875 360 386 364.625C384.125 369.125 387.25 370.25 386 374.875C384.625 380.125 388.375 382.875 386 386.625C383.625 390.375 388.125 391.25 386.25 395.5C384.375 399.625 387.375 401.25 386 405.5" stroke="black" stroke-width="0.275" stroke-linecap="round" stroke-linejoin="round"/>
<path d="M387.875 338.25C387.25 339.625 389.75 342.875 388.375 345.375C386.875 347.75 389.125 351.5 387.625 354.5C386.125 357.5 390 361.25 388.5 364.75C386.875 368.25 389.25 372.625 388.5 375.875C387.875 379.125 390.125 385.375 388.5 387.625C386.875 390 390.125 390.625 388.25 396.375C386.375 402.125 385.125 397.25 386.25 395.5C388.625 391.625 383.625 390.375 386 386.625C388.375 382.875 384.625 380.125 386 374.875C387.25 370.25 384.125 369.125 386 364.625C387.875 360 384.625 357.25 386 353.75C387.375 350.25 385.25 347.875 386.25 344.625C387.125 341.375 384.375 339.75 386 335.75C387.25 331.75 388.5 336.875 387.875 338.25ZM377.375 342.25C376.5 343.75 378.875 346.625 376.75 349.5C375.25 351.5 377.75 353.875 375.625 356.75C374.25 358.75 377 361.25 375.125 364.125C373.875 365.75 376 368.875 374.5 371.25C373 373.75 375.25 375.75 372.625 379C371.125 380.75 373.75 385.125 372.125 386.5C370.5 387.875 372 393.25 370.875 394C369.875 394.875 370.875 398.75 368.125 399.625C369.5 397.75 366.75 395.875 369 393.125C371.375 390.375 368.625 387.25 370.25 385.25C371.875 383.125 369.25 380.375 371.125 377.75C373 375.25 369.75 373.125 372 370.375C374.375 367.5 371.125 365.25 373 362.875C374.875 360.625 371.875 359 373.875 355.875C376 352.875 372.5 351.25 374.875 348.25C377.125 345.25 373.875 342.875 376 339.875C378.125 336.875 375.25 336.125 376.875 333.125C379.875 334.25 378.375 340.75 377.375 342.25ZM371.125 334.125C369.875 336.125 371.625 338.5 369.75 341C367.875 343.625 369.75 346.875 367.875 349C366 351 368.375 355 366 356.625C363.625 358.25 365.125 363.125 363.25 364.75C361.375 366.375 363.25 371 361.125 373.375C359 375.75 360 380.625 358.75 381.75C357.625 382.875 360.375 385.25 358.375 386.875C356.25 388.5 356.25 391.75 353.5 393.875C355.125 392.25 353 389.875 355.375 387.5C357.625 385.25 354.375 382.875 357.125 379.875C360 376.875 357 373.625 359.5 371C362 368.5 359 365.75 361.625 363.125C364.125 360.625 361.125 358.75 363.625 355.875C366.25 353.125 363.25 350.875 365.75 348.25C368.375 345.75 365.5 343.875 367.875 340.875C370.25 337.75 367.125 336.375 369.25 333.625C370.25 332.375 370.25 331.25 370.25 330.25C371.75 326.375 371.75 333.125 371.125 334.125Z" fill="#FCD116" stroke="black" stroke-width="0.275" stroke-linecap="round" stroke-linejoin="round"/>
<path d="M368.625 320.875C368.625 294.625 372.25 285.5 386 285.5C399.75 285.5 403.375 294.625 403.375 320.875H368.625Z" fill="#CE1126" stroke="black" stroke-width="0.275" stroke-linecap="round" stroke-linejoin="round"/>
<path d="M368.625 320.875C368.625 294.625 372.25 285.5 386 285.5C379.75 285.5 375.875 290.375 374.875 293.625C373.75 296.875 374.375 296.625 375.75 295.375C377.125 294.125 376.5 296.875 375.25 298.375C374.125 299.875 373 304.25 374.625 302.875C376.25 301.375 377.5 303 375.75 305.5C374 307.875 372.5 313.625 374.25 311.625C376 309.625 376.375 312.875 375.25 314.5C374.25 316.125 374.375 317.625 375.25 316.875C376.25 316.125 376.125 319.5 375.25 320.875H368.625ZM392.5 320.375C392.5 316.5 392.625 307.375 390.5 304.375C389 302 389 299.5 390.75 302.25C392.5 305 393.375 303.625 392.125 300.875C390.625 297.375 388.625 293.5 389.125 292.75C389.75 291.875 390.125 292.25 391.375 294.125C392.625 296 392.875 293.25 391.5 291.375C390.125 289.625 390.25 289.25 393.125 290.5C398.25 292.625 400.75 298.75 400.75 319.375L392.5 320.375Z" fill="#000001" stroke="black" stroke-width="0.275" stroke-linecap="round" stroke-linejoin="round"/>
<path d="M386 324.625C380.5 324.625 374.5 323.75 370.5 322.125C365.75 320.25 365.5 318.625 367.125 316.625C368.375 315.125 370.875 316 373.375 317.125C375.75 318.125 382.5 318.875 386 318.875C389.5 318.875 396.25 318.125 398.625 317C401.125 316 403.625 315.125 404.875 316.625C406.5 318.625 406.25 320.25 401.5 322.125C397.5 323.75 391.5 324.625 386 324.625Z" fill="#CE1126" stroke="black" stroke-width="0.275" stroke-linecap="round" stroke-linejoin="round"/>
<path d="M0 -0.5H256V255.5H0V-0.5Z" fill="#012169"/>
<path d="M256 -0.5V31.5L161 127.5L256 221V255.5H222.5L127 161.5L34 255.5H0V221.5L93 128L0 36.5V-0.5H31L127 93.5L220 -0.5H256Z" fill="white"/>
<path d="M92 161.5L97.5 178.5L21 255.5H0V254L92 161.5ZM154 155.5L181 159.5L256 233V255.5L154 155.5ZM256 -0.5L160 97.5L158 75.5L233 -0.5H256ZM0 0L96.5 94.5L67 90.5L0 24V0Z" fill="#C8102E"/>
<path d="M88 -0.5V255.5H168V-0.5H88ZM0 87.5V167.5H256V87.5H0Z" fill="white"/>
<path d="M0 103.5V151.5H256V103.5H0ZM104 -0.5V255.5H152V-0.5H104Z" fill="#C8102E"/>
</g>
<defs>
<clipPath id="clip0_2_10476">
<rect width="512" height="512" fill="white"/>
</clipPath>
</defs>
</svg>
