<svg width="512" height="512" viewBox="0 0 512 512" fill="none" xmlns="http://www.w3.org/2000/svg">
<g clip-path="url(#clip0_2_10535)">
<path d="M0 0H512V512H0V0Z" fill="#002395"/>
<path d="M0 0H312.3V210H0V0Z" fill="white"/>
<path d="M0 0H102.4V204.8H0V0Z" fill="#002395"/>
<path d="M204.8 0H307.2V204.8H204.8V0Z" fill="#ED2939"/>
<path d="M282.4 234.2L298.9 260.5H345.8V352L310.5 297L263.2 372.5H286.2L310.6 329L360.5 418.6L410.4 329L434.7 372.5H457.7L410.5 297L375.3 352V301.4H396.4L412.1 276.4H375.3V260.4H422.2L438.7 234.2H282.4ZM337.4 346.2H286.2V364.2H337.4V346.2ZM434.7 346.2H383.5V364.2H434.7V346.2Z" fill="white"/>
<path d="M360.48 436.48L376.224 485.12L334.88 455.04H386.08L344.736 485.12L360.48 436.48Z" fill="white"/>
<path d="M302.88 392.96L318.624 441.6L277.28 411.52H328.48L287.136 441.6L302.88 392.96Z" fill="white"/>
<path d="M418.08 392.96L433.824 441.6L392.48 411.52H443.68L402.336 441.6L418.08 392.96Z" fill="white"/>
<path d="M254.24 263.68L269.984 312.32L228.64 282.24H279.84L238.496 312.32L254.24 263.68Z" fill="white"/>
<path d="M466.72 263.68L482.464 312.32L441.12 282.24H492.32L450.976 312.32L466.72 263.68Z" fill="white"/>
</g>
<defs>
<clipPath id="clip0_2_10535">
<rect width="512" height="512" fill="white"/>
</clipPath>
</defs>
</svg>
