<svg width="512" height="512" viewBox="0 0 512 512" fill="none" xmlns="http://www.w3.org/2000/svg">
<g clip-path="url(#clip0_2_10561)">
<path d="M0 0H512V512H0V0Z" fill="#006600"/>
<path d="M0 0H512V365.7H0V0Z" fill="white"/>
<path d="M0 0H512V146.3H0V0Z" fill="#CC0000"/>
<path d="M235.521 249.198C236.519 247.481 238.05 246.136 239.881 245.366C241.712 244.596 243.744 244.443 245.669 244.931C247.594 245.419 249.309 246.52 250.553 248.068C251.797 249.617 252.502 251.528 252.563 253.514V290.085H259.439V253.514C259.5 251.528 260.205 249.617 261.449 248.068C262.693 246.52 264.408 245.419 266.333 244.931C268.258 244.443 270.29 244.596 272.121 245.366C273.952 246.136 275.483 247.481 276.481 249.198C277.557 245.956 277.847 242.504 277.328 239.127C276.809 235.751 275.496 232.546 273.496 229.776C271.496 227.006 268.868 224.75 265.826 223.195C262.785 221.639 259.417 220.828 256.001 220.828C252.585 220.828 249.217 221.639 246.176 223.195C243.134 224.75 240.506 227.006 238.506 229.776C236.507 232.546 235.193 235.751 234.674 239.127C234.155 242.504 234.446 245.956 235.521 249.198Z" fill="#F8C300"/>
<path d="M240.421 239.617C243.427 239.006 246.547 239.356 249.343 240.616C252.139 241.876 254.468 243.983 256.001 246.638C257.534 243.983 259.863 241.876 262.659 240.616C265.454 239.356 268.575 239.006 271.58 239.617C271.063 235.852 269.2 232.402 266.336 229.904C263.472 227.407 259.801 226.031 256.001 226.031C252.201 226.031 248.529 227.407 245.665 229.904C242.801 232.402 240.938 235.852 240.421 239.617Z" fill="white"/>
<path d="M252.563 275.457C252.091 280.638 250.173 285.583 247.029 289.728C243.884 293.874 239.639 297.053 234.777 298.905C229.915 300.757 224.63 301.207 219.525 300.204C214.419 299.201 209.698 296.784 205.898 293.23C204.279 297.316 201.749 300.978 198.501 303.938C195.253 306.898 191.372 309.078 187.154 310.312C182.937 311.547 178.493 311.802 174.162 311.06C169.83 310.318 165.725 308.598 162.159 306.03C164.865 332.654 204.801 327.242 207.727 301.349C220.307 323.365 247.955 317.075 256.001 290.085L252.563 275.457Z" fill="#F8C300"/>
<path d="M259.439 275.457C259.911 280.638 261.829 285.583 264.973 289.728C268.118 293.874 272.363 297.053 277.225 298.905C282.087 300.757 287.372 301.207 292.477 300.204C297.582 299.201 302.304 296.784 306.104 293.23C307.723 297.316 310.253 300.978 313.501 303.938C316.749 306.898 320.63 309.078 324.847 310.312C329.065 311.547 333.509 311.802 337.84 311.06C342.172 310.318 346.277 308.598 349.843 306.03C347.137 332.654 307.201 327.242 304.275 301.349C291.695 323.365 264.047 317.075 256.001 290.085L259.439 275.457Z" fill="#F8C300"/>
<path d="M225.866 322.78C220.307 334.849 209.189 336.897 199.461 327.169C199.461 327.169 203.338 324.389 207.507 323.658C207.252 321.791 207.401 319.891 207.944 318.086C208.487 316.282 209.41 314.615 210.652 313.198C213.78 315.226 216.107 318.277 217.235 321.829C223.087 321.098 225.866 322.78 225.866 322.78Z" fill="#F8C300"/>
<path d="M269.599 321.42C262.144 332.419 250.841 332.624 242.833 321.437C242.833 321.437 247.111 319.329 251.344 319.288C251.397 317.404 251.854 315.554 252.685 313.863C253.515 312.171 254.698 310.677 256.155 309.483C258.909 311.994 260.707 315.384 261.24 319.073C267.132 319.307 269.599 321.42 269.599 321.42Z" fill="#F8C300"/>
<path d="M312.512 327.123C303.377 336.772 292.19 335.148 286.094 322.814C286.094 322.814 290.657 321.424 294.841 322.068C295.198 320.218 295.948 318.466 297.041 316.931C298.133 315.396 299.542 314.113 301.173 313.169C303.486 316.093 304.712 319.728 304.642 323.455C310.419 324.638 312.512 327.123 312.512 327.123Z" fill="#F8C300"/>
<path d="M185.052 349.623C231.348 335.843 280.654 335.843 326.95 349.623" stroke="#F8C300" stroke-width="11.7029"/>
<path d="M273.868 169.738L244.959 190.741L256.001 156.757L267.043 190.741L238.135 169.738H273.868Z" fill="#F8C300"/>
<path d="M222.667 183.489L193.759 204.492L204.801 170.508L215.843 204.492L186.935 183.489H222.667Z" fill="#F8C300"/>
<path d="M185.218 220.938L156.31 241.941L167.352 207.958L178.394 241.941L149.485 220.938H185.218Z" fill="#F8C300"/>
<path d="M171.467 272.138L142.559 293.142L153.601 259.158L164.643 293.142L135.734 272.138H171.467Z" fill="#F8C300"/>
<path d="M289.335 183.489L318.243 204.492L307.201 170.508L296.159 204.492L325.067 183.489H289.335Z" fill="#F8C300"/>
<path d="M326.784 220.938L355.692 241.941L344.65 207.958L333.608 241.941L362.517 220.938H326.784Z" fill="#F8C300"/>
<path d="M340.535 272.138L369.443 293.142L358.401 259.158L347.359 293.142L376.268 272.138H340.535Z" fill="#F8C300"/>
</g>
<defs>
<clipPath id="clip0_2_10561">
<rect width="512" height="512" fill="white"/>
</clipPath>
</defs>
</svg>
