<svg width="512" height="512" viewBox="0 0 512 512" fill="none" xmlns="http://www.w3.org/2000/svg">
<g clip-path="url(#clip0_2_10585)">
<path d="M0 0H512V512H0V0Z" fill="#00247D"/>
<path d="M90.7 384.2C85.4 384.2 140.7 354.7 187.1 317C247.8 267.5 378.6 188.3 417.1 175.5C421.1 174.2 408.9 182.3 407.3 185C366.2 233.6 399 325.3 450.3 371.4C465.7 383.2 464.9 383.8 493.5 385V387.7L90.7 384.2ZM87.4 389.6C87.4 389.6 83.5 392.4 83.5 394.5C83.5 396.8 87.9 399.9 87.9 399.9L485.2 404.3L492.5 399.4L482.3 393.1L87.4 389.6Z" fill="#FED100"/>
<path d="M105.5 116.6L101.5 128.7L111.9 121.2L122.2 128.7L118.2 116.6L128.6 109.1H115.8L111.9 96.8999L107.9 109.1H95.2L105.5 116.6ZM183.3 173.7L191.9 167.5H181.3L178 157.4L174.7 167.5H164.1L172.7 173.7L169.4 183.8L178 177.6L186.6 183.8L183.3 173.7ZM38.6 186.7L34.7 174.6L30.7 186.7H18L28.3 194.2L24.3 206.3L34.7 198.8L45 206.3L41.1 194.2L51.4 186.7H38.6ZM116.5 308.6L111.9 294.4L107.3 308.6H92.4L104.4 317.3L99.8 331.5L111.9 322.7L123.9 331.5L119.3 317.3L131.3 308.6H116.5Z" fill="white"/>
</g>
<defs>
<clipPath id="clip0_2_10585">
<rect width="512" height="512" fill="white"/>
</clipPath>
</defs>
</svg>
