<svg width="512" height="512" viewBox="0 0 512 512" fill="none" xmlns="http://www.w3.org/2000/svg">
<g clip-path="url(#clip0_2_10598)">
<path d="M0 0H512V512H0V0Z" fill="#00843D"/>
<path d="M381.3 56.7C389.812 60.2808 397.446 65.6639 403.678 72.4786C409.909 79.2933 414.59 87.3777 417.397 96.175C420.204 104.972 421.071 114.273 419.939 123.438C418.806 132.603 415.7 141.413 410.836 149.262C405.971 157.111 399.463 163.813 391.76 168.905C384.057 173.998 375.341 177.36 366.214 178.761C357.087 180.161 347.764 179.567 338.888 177.019C330.012 174.471 321.794 170.029 314.8 164C328.851 170.08 344.617 170.913 359.23 166.348C373.843 161.783 386.332 152.123 394.423 139.126C402.514 126.13 405.67 110.66 403.317 95.5321C400.964 80.4044 393.257 66.6245 381.6 56.7H381.3ZM320.8 103.5L327.6 81.1999L308.7 95.1999H332.5L313.6 81.1999L320.8 103.5ZM320.8 70.6999L327.6 48.7L308.7 62.2999H332.5L313.6 48.7L320.8 70.6999ZM352.9 87.6999L360.1 65.4L341.2 79H364.6L345.7 65.4L352.9 87.6999ZM287.9 119.4L295.5 97.4L276.5 111.1H299.6L280.7 97.5L287.9 119.4ZM320.4 136.4L328 114.1L309 127.7H332.1L313.2 114.1L320.4 136.4Z" fill="white"/>
<path d="M92.2 0H230.5V512H92.2V0Z" fill="#D22630"/>
<path d="M125.8 0H121.3L112.6 7.6L109.2 4.6H112.2L111.8 0.8H105.8L95.6 11.3V15.1H100.6V12.1L102.8 14.4L97.1 18.9L99.8 21.5L92.2 29.1V33.6L105.4 21.6L102.8 18.9L108.1 13.9L103.5 9.4L106.5 6.4L112.6 12.1L125.8 0ZM91.8 0V9.4L95.2 6.4V2.6H98.6L101.3 0H91.8ZM117.5 0H113.7L114.5 2.3L117.5 0Z" fill="#383739"/>
<path d="M125.4 0H121.7L112.6 8.3L108.4 4.5H112.2L111.5 1.5H106.5L96.0001 11.3V14.3H99.8001V10.6L103.5 14L97.9001 18.9L100.5 21.5L92.2001 29.1V33.3L104.7 21.5L102 19L107.7 14L102.7 9.5L106.6 6.1L112.6 11.8L125.4 0ZM92.2001 0V9L94.8001 6V2.3H98.6001L100.6 0H92.2001ZM116.8 0H114.5V1.5L116.8 0Z" fill="#FFC72C"/>
<path d="M92.2 59.3V64.3001L99.8 71.8001L97 74L102.7 79.3001L100.4 81.5V78.1H95.5V82L106.1 92.2H111.7L112.1 88.4001H109.5L113.3 85.4001L121.6 93L112.9 100.9L109.5 97.9001H112.5L112.1 94.1H105.7L95.1 104.3V108.1H100.1V105.1L102.3 106.9L96.6 112.2L99.3 114.9L91.7 122V127L104.9 114.9L102.3 112.2L107.6 106.9L103.1 102.8L106.1 99.8001L112.1 105.4L125.3 93.4001L112.1 80.9001L106.1 86.5L103.1 83.5L107.6 79.4001L102.3 74.1L104.9 71.8001L91.7 59.3H92.2ZM92.2 83.9001V102.8L95.2 99.4001V95.6H98.6L101.3 93.3001L98.6 90.7H95.2V86.9001L92.2 83.9001ZM114.9 90.3001L114 93L114.4 95.6L117.4 93L114.9 90.3001Z" fill="#383739"/>
<path d="M92.2 60V64L100.5 71.5L97.9 74.2L103.5 79.5L99.8 82.5V78.7H96V82L106.6 91.8H111.5L111.8 88.8H108.1L112.6 85L121.6 93.3L112.6 101.3L108.4 97.5H112.2L111.5 94.5H106.5L96 104.3V107.7H99.8V103.9L103.5 106.9L97.9 112.2L100.5 114.9L92.2 122.4V126.2L104.7 114.9L102 112.2L107.7 106.9L102.7 102.8L106.6 99L112.6 105L125.4 93.3L112.6 81.6L106.6 87.3L102.8 83.5L107.7 79.4L102 74L104.7 71.7L92.2 60ZM92.2 84.3V102L94.8 99.4V95.6H98.6L100.6 93.3L98.2 91.1H94.8V87.3L92.2 84.3ZM114.9 91.1L114.5 93V94.8L116.8 93L114.9 91.1Z" fill="#FFC72C"/>
<path d="M92.2 155.7V160.6L99.8 168.1L97.1 170.4L102.8 175.4L100.5 177.6V174.6H95.6V178.3L106.2 188.2H111.8L112.2 184.8H109.6L113.4 181.8L121.7 189.3L113 196.9L109.6 193.9H112.6L112.2 190.4H105.8L95.2 200.6V204.4H100.2V201L102.4 203.3L96.7 208.6L99.4 210.8L91.8 218.4V222.9L105 210.5L102.4 208.2L107.7 202.9L103.2 198.4L106.2 195.7L112.2 201.4L125.4 188.9L112.2 176.9L106.2 182.5L103.2 179.5L107.7 174.9L102.4 170L105 167.4L91.8 155.3L92.2 155.7ZM92.2 179.9V198.8L95.2 195.8V192H98.6L101.3 189.3L98.6 186.7H95.2V182.9L92.2 179.9ZM114.9 186.7L114.1 189.3L114.5 192L117.5 189.3L114.9 186.7Z" fill="#383739"/>
<path d="M92.2001 156V159.8L100.5 167.8L97.9001 170.4L103.5 175.4L99.8001 178.7V175H96.0001V178.4L106.6 188.3H111.5L111.8 185.3H108.1L112.6 181.5L121.6 189.5L112.6 197.7L108.4 193.9H112.2L111.5 190.9H106.5L96.0001 200.3V203.7H99.8001V199.9L103.5 202.9L97.9001 208.2L100.5 210.5L92.2001 218V223L104.7 211.6L102 209L107.7 203.7L102.7 199.1L106.6 195.7L112.6 201.4L125.4 190.1L112.6 178L106.6 183.6L102.8 180.2L107.7 175.7L102 170.7L104.7 168.1L92.2001 156ZM92.2001 180.6V198.4L94.8001 195.7V192H98.6001L100.6 189.3L98.2001 187H94.8001V183.3L92.2001 180.6ZM114.9 187.4L114.5 189.4V191.2L116.8 189.3L114.9 187.4Z" fill="#FFC72C"/>
<path d="M92.2 251.7V256.9L99.8 264.1L97.1 266.4L102.8 271.7L100.5 273.9V270.5H95.6V274.3L106.2 284.5H111.8L112.2 280.7H109.6L113.4 277.7L121.7 285.3L113 293.3L109.6 290.2H112.6L112.2 286.4H105.8L95.2 296.6V300.4H100.2V297.4L102.4 299.6L96.7 304.6L99.4 307.2L91.8 314.8V319.3L105 307.2L102.4 304.6L107.7 299.6L103.2 295.1L106.2 292.1L112.2 297.8L125.4 285.7L112.2 273.6L106.2 279.2L103.2 276.2L107.7 271.7L102.4 266.4L105 264.1L91.8 251.7H92.2ZM92.2 276.2V295.2L95.2 292.1V288.3H98.6L101.3 285.7L98.6 283H95.2V279.2L92.2 276.2ZM114.9 283L114.1 285.3L114.5 287.9L117.5 285.3L114.9 283Z" fill="#383739"/>
<path d="M92.2001 252.4V256.2L100.5 264.2L97.9001 266.4L103.5 271.7L99.8001 274.7V270.9H96.0001V274.7L106.6 284.2H111.5L111.8 281.5H108.1L112.6 277.3L121.6 285.7L112.6 294L108.4 290.2H112.2L111.5 287.2H106.5L96.0001 297V300H99.8001V296.2L103.5 299.6L97.9001 304.6L100.5 307.2L92.2001 314.8V318.5L104.7 307.2L102 304.6L107.7 299.6L102.7 295.1L106.6 291.3L112.6 297.3L125.4 285.7L112.6 273.9L106.6 279.6L102.8 275.8L107.7 272.1L102 266.4L104.7 264.1L92.2001 252.4ZM92.2001 276.6V294.7L94.8001 292.1V288.3H98.6001L100.6 286L98.2001 283.8H94.8001V280L92.2001 277V276.6ZM114.9 283.8L114.5 285.3V287.2L116.8 285.2L114.9 283.8Z" fill="#FFC72C"/>
<path d="M92.2 348V353L99.8 360.5L97.1 362.7L102.8 368L100.5 370.3V366.5H95.6V370.3L106.2 380.5H111.8L112.2 376.7H109.6L113.4 373.7L121.7 381.3L113 389.2L109.6 386.2H112.6L112.2 382.4H105.8L95.2 392.6V396.4H100.2V393.4L102.4 395.2L96.7 400.5L99.4 403.2L91.8 410.4V415.3L105 403.2L102.4 400.5L107.7 395.2L103.2 391.1L106.2 388.1L112.2 393.7L125.4 381.7L112.2 369.2L106.2 374.8L103.2 371.8L107.7 367.7L102.4 362.4L105 360.1L92.2 348ZM92.2 372.6V391.5L95.2 388.1V384.3H98.6L101.3 382L98.6 379.4H95.2V375.6L92.2 372.6ZM114.9 379L114.1 381.6L114.5 384.3L117.5 381.6L114.9 379Z" fill="#383739"/>
<path d="M92.2001 348.8V352.5L100.5 360.1L97.9001 362.7L103.5 368L99.8001 371V367.3H96.0001V370.7L106.6 380.5H111.5L111.8 377.5H108.1L112.6 373.7L121.6 382L112.6 390L108.4 386.2H112.2L111.5 383.2H106.5L96.0001 393V396.8H99.8001V393L103.5 395.6L98.0001 401L100.6 403.7L92.3001 411.2V415L104.8 403.7L102.1 401L107.8 395.7L102.8 391.6L106.7 387.8L112.7 393.8L125.5 382.1L112.7 370.4L106.7 376.1L102.9 372.3L107.8 368.1L102.1 362.8L104.8 360.6L92.2001 348.8ZM92.2001 372.9V390.7L94.8001 388.1V384.3H98.6001L100.6 382L98.2001 379.7H94.8001V376L92.2001 372.9ZM114.9 379.7L114.5 381.7V383.5L116.8 381.6L114.9 379.7Z" fill="#FFC72C"/>
<path d="M196.5 0H201.4L209.7 7.6L213.5 4.6H210L210.7 0.8H216L226.6 11.3V15.1H222.1V12.1L219.4 14.4L225.1 18.9L222.5 21.5L230 29.1V33.6L217.2 21.6L219.8 18.9L214.1 13.9L219.1 9.4L215.7 6.4L209.7 12.1L196.5 0ZM230.5 0V9.4L227.1 6.4V2.6H224.1L221.4 0H230.5ZM205.2 0H208.6L207.8 2.3L205.2 0Z" fill="#383739"/>
<path d="M197.2 0H201L209.7 8.3L214.2 4.5H210.5L211.2 1.5H215.4L226.7 11.3V14.7H223V11L219.3 14L225.3 18.9L222.7 21.5L231 29.1V33.3L218 21.9L220.7 19.3L215.4 14L219.2 9.4L215.4 6L209.4 11.7L197.2 0ZM230.5 0V9L227.5 6V2.3H224L221.8 0H230.5ZM205.5 0H207.8V1.5L205.5 0Z" fill="#FFC72C"/>
<path d="M230.5 59.3V64.3001L222.5 71.8001L225.2 74.1L219.5 79.4001L222.2 81.6V78.2H226.7V82L216.1 92.2H210.8L210.1 88.4001H213.1L209.7 85.4001L201.4 93L209.7 100.9L213.5 97.9001H210L210.7 94.1H216L226.6 104.3V108.1H222.1V105.1L219.4 106.9L225.1 112.2L222.5 114.9L230 122V127L217.2 114.9L219.8 112.2L214.1 106.9L219.1 102.8L215.7 99.8001L209.7 105.4L196.4 93.4001L209.6 80.9001L215.6 86.5L219.1 83.5L214.1 79.4001L220 74L217.4 71.7L230.5 59.3ZM230.5 83.9001V102.8L227.1 99.4001V95.6H224.1L221.4 93.3001L224.1 90.7H227.1V86.9001L230.5 83.9001ZM207.8 90.3001L208.2 93V95.6L205.2 93L207.8 90.3001Z" fill="#383739"/>
<path d="M230.5 60V64L222.2 71.5L224.8 74.2L219.2 79.5L222.6 82.5V78.7H226.3V82L215.8 91.8H211.6L210.8 88.8H214.6L210.1 85L201.1 93.3L210.1 101.3L214.6 97.5H210.8L211.6 94.5H215.4L226 104.3V107.7H222.2V103.9L218.4 106.9L224.4 112.2L221.8 114.9L230.1 122.4V126.2L217.3 115L219.9 112.3L214.6 107L219.2 102.9L215.4 99.1L209.4 105.1L196.9 93.4L209.3 81.7L215.3 87.4L219.2 83.6L215.4 79.5L220.7 74.2L218 71.9L230.5 60ZM230.5 84.3V102L227.5 99.4V95.6H224L221.7 93.3L224 91.1H227.7V87.3L230.5 84.3ZM207.8 91V94.7L205.6 92.9L207.8 91Z" fill="#FFC72C"/>
<path d="M230.5 155.7V160.6L222.5 168.1L225.2 170.4L219.5 175.4L222.2 177.6V174.6H226.7V178.3L216.1 188.2H210.8L210.1 184.8H213.1L209.7 181.8L201.4 189.3L209.7 196.9L213.5 193.9H210L210.7 190.4H216L226.6 200.6V204.4H222.1V201L219.4 203.3L225.1 208.6L222.5 210.8L230 218.4V222.9L217.2 210.5L219.8 208.2L214.1 202.9L219.1 198.4L215.7 195.7L209.7 201.4L196.4 188.9L209.6 176.9L215.6 182.5L219.1 179.5L214.1 174.9L219.8 170L217.2 167.4L230.4 155.3L230.5 155.7ZM230.5 179.9V198.8L227.1 195.8V192H224.1L221.4 189.3L224.1 186.7H227.1V182.9L230.5 179.9ZM207.8 186.7L208.2 189.3V192L205.2 189.3L207.8 186.7Z" fill="#383739"/>
<path d="M230.5 156V159.8L222.2 167.8L224.8 170.4L219.2 175.4L222.6 178.7V175H226.3V178.4L215.8 188.3H211.6L210.8 185.3H214.6L210.1 181.5L201.1 189.5L210.1 197.7L214.6 193.9H210.8L211.6 190.9H215.4L226.7 200.4V203.8H223V200L219.3 203L225.3 208.3L222.7 210.6L231 218.1V223.1L218 211.5L220.7 208.9L215.4 203.6L219.9 199L216.1 195.6L210.1 201.3L197.6 190L210.1 177.9L216.1 183.5L219.9 180.1L215.4 175.6L220.7 170.6L218 168L230.5 156ZM230.5 180.6V198.4L227.5 195.7V192H224L221.7 189.3L224 187H227.7V183.3L230.5 180.6ZM207.8 187.4V191.2L205.6 189.3L207.8 187.4Z" fill="#FFC72C"/>
<path d="M230.5 251.7V256.9L222.5 264.1L225.2 266.4L219.5 271.7L222.2 273.9V270.5H226.7V274.3L216.1 284.5H210.8L210.1 280.7H213.1L209.7 277.7L201.4 285.3L209.7 293.3L213.5 290.2H210L210.7 286.4H216L226.6 296.6V300.4H222.1V297.4L219.4 299.6L225.1 304.6L222.5 307.2L230 314.8V319.3L217.2 307.2L219.8 304.6L214.1 299.6L219.1 294.7L215.7 291.7L209.7 297.4L196.4 285.3L209.6 273.2L215.6 278.9L219.1 275.9L214.1 271.3L219.8 266L217.2 263.7L230.4 251.3L230.5 251.7ZM230.5 276.2V295.2L227 292V288.2H224L221.3 285.6L224 282.9H227V279.1L230.5 276.2ZM207.8 283L208.2 285.3V287.9L205.2 285.3L207.8 283Z" fill="#383739"/>
<path d="M230.5 252.4V256.2L222.2 264.5L224.8 266.8L219.2 272.1L222.6 275.1V271.3H226.3V275.1L215.8 284.5H211.6L210.8 281.9H214.6L210.1 277.7L201.1 286L210.1 294.4L214.6 290.6H210.8L211.6 287.6H215.4L226 297.4V300.4H222.2V296.6L218.4 300L224.4 305L221.8 307.6L230.1 315.1V318.9L217.3 307.6L219.9 304.9L214.6 300L219.2 294.7L215.4 291L209.4 297L196.9 285.3L209.3 273.6L215.3 279.2L219.2 275.5L214.6 271.7L219.9 266L217.3 263.7L230.5 252.4ZM230.5 276.6V294.7L227.5 292.1V288.3H224L221.7 286L224 283.8H227.7V280L230.4 277L230.5 276.6ZM207.8 283.8V287.2L205.6 285.2L207.8 283.8Z" fill="#FFC72C"/>
<path d="M230.5 348V353L222.5 360.5L225.2 362.7L219.5 368L222.2 370.3V366.5H226.7V370.3L216.1 380.5H210.8L210.1 376.7H213.1L209.7 373.7L201.4 381.3L209.7 389.2L213.5 386.2H210L210.7 382.4H216L226.6 393V396.8H222.1V393.8L219.4 395.6L225.1 400.9L222.5 403.6L230 410.7V415.7L217.2 403.6L219.8 400.9L214.1 395.6L219.1 391.5L215.7 388.5L209.7 394.1L196.4 381.6L209.6 369.2L215.6 374.8L219.1 371.8L214.1 367.7L219.8 362.4L217.2 360.1L230.5 348ZM230.5 372.6V391.5L227 388V384.2H224L221.3 381.9L224 379.3H227V375.5L230.5 372.6ZM207.8 379L208.2 381.6V384.3L205.2 381.6L207.8 379Z" fill="#383739"/>
<path d="M230.5 348.8V352.5L222.2 360.1L224.8 362.7L219.2 368L222.6 371V367.3H226.3V370.7L215.8 380.5H211.6L210.8 377.5H214.6L210.1 373.7L201.1 382L210.1 390L214.6 386.2H210.8L211.6 383.2H215.4L226.7 393V396.8H223V393L219.3 395.6L225.3 400.9L222.7 403.6L231 411.1V414.9L218 403.6L220.7 400.9L215.4 395.6L219.9 391.5L216.1 387.7L210.1 393.7L197.6 382L210.1 370.3L216.1 376L219.9 372.2L215.4 368L220.7 362.7L218 360.5L230.5 348.8ZM230.5 372.9V390.7L227.5 388.1V384.3H224L221.7 382L224 379.7H227.7V376L230.5 372.9ZM207.8 379.7V383.5L205.6 381.6L207.8 379.7Z" fill="#FFC72C"/>
<path d="M103.5 452.7C103.9 455.7 106.2 458 106.9 461C108.1 458 108.9 455.3 108.1 452C107.7 449.3 105.8 447.4 105.4 445.1C103.2 447.1 102.8 450.1 103.5 452.7ZM102.8 465.1C104.742 467.713 107.325 469.779 110.3 471.1C109.6 468.5 110.7 467.1 111.8 465.1C113.4 462.9 114.1 461 113 458.3C112.42 459.671 111.645 460.95 110.7 462.1C109.6 463.6 108.8 465.1 108.4 467.4C106.989 466.219 105.948 464.657 105.4 462.9C104.165 460.672 102.328 458.835 100.1 457.6C100.9 460.2 101.3 462.9 102.8 465.1ZM113.4 472.7C113.4 474.2 112.6 475.7 113 477.2L108.4 473.5C106.1 472.404 104.056 470.837 102.4 468.9C102.4 471.9 103.9 474.6 106.2 476.5L114.9 481.4C114.5 478.7 115.6 476.4 116.4 473.8C116.745 472.632 116.789 471.396 116.527 470.207C116.264 469.017 115.705 467.914 114.9 467C114.9 469 114.1 470.8 113.4 472.7ZM119.4 482.5L122.4 488.2C119.8 487.4 117.1 485.5 114.9 484.4C111.9 482.5 108.4 481.8 105.8 479.5C106.9 484.5 110.3 487.1 115.2 489C119 490 121.7 489.3 125.8 491.2C125.36 488.317 124.483 485.519 123.2 482.9L120.2 477.2C119.355 478.83 119.073 480.694 119.4 482.5ZM130 490.1C130.949 491.73 132.247 493.13 133.8 494.2C130 494.2 126.2 492 122.4 492C120.2 492 117.9 492.7 115.2 492C118.2 494.2 121.2 495.8 125.1 496.5C129.6 496.9 133.8 495.8 138.7 496.5C136.629 494.716 134.93 492.541 133.7 490.1C131.9 487.1 130 484.8 126.2 484.4C127.7 485.9 128.9 488.2 130 490.1ZM144 496.9C136.8 498 130.4 499.5 123.2 499.5C130.707 502.398 138.998 502.54 146.6 499.9C150.06 498.356 153.811 497.572 157.6 497.6C164.224 498.342 170.309 501.6 174.6 506.7L176.8 504.8C172.3 501.062 167.007 498.399 161.324 497.013C155.64 495.627 149.716 495.554 144 496.8V496.9Z" fill="#FFC72C"/>
<path d="M109.6 60.0001L98.2 53.0001V37.0001L109.6 30.2001V21.5001L119.8 15.1001H128.5L144.7 6.1001H178.7L194.2 15.1001H202.5L213.1 21.5001V30.2001L224.4 37.0001V53.0001L213.1 59.8001V68.5001L202.5 74.5001H194.2L178.3 83.6001H144.3L128.1 74.6001H119.8L109.6 68.9001V60.0001Z" fill="#383739"/>
<path d="M144.3 6.3999L128.5 15.3999H120.2L109.6 21.4999V30.1999L98.2 36.9999V52.9999L109.6 59.7999V68.4999L119.8 74.4999H128.5L144.3 83.5999H178.3L194.3 74.5999H202.5L212.7 68.4999V59.7999L224.1 52.9999V36.9999L212.7 30.1999V21.4999L202.5 15.4999H194.2L178.3 6.4999L144.3 6.3999ZM145.1 10.1999H177.6L193.1 18.8999H201.4L209 23.3999V32.0999L220.3 38.8999V50.9999L209 57.7999V66.4999L201.4 71.4999H193.1L177.6 79.9999H145.5L129.2 71.6999H121L113.5 66.6999V58.0999L102 51.3999V39.2999L113.4 32.4999V23.4999L120.9 18.8999H129.2L145.1 10.1999Z" fill="#00843D"/>
<path d="M161 45.2999V10.2H145L129.1 19.2H121L113.5 23.8V32.5L102.5 39.2999V45H161.5V79.4H177.7L193.6 70.6999H201.9L209.4 66.0999V57.4L220.8 50.5999V45.2999H161Z" fill="#FFC72C"/>
<path d="M102.4 45.2999V51L113.7 57.7999V66.5L121.3 71H129.3L145.1 79.7H161V45.2999H220V39.7L208.6 32.9V23.9L201.8 18.9H193.5L177.5 10.2H161.7V45.2999H102.4Z" fill="white"/>
<path d="M126.6 22.7L123.9 20L121.3 21.5L123.9 24.2L120.2 26.5H128.5L134.9 32.5L137.2 30.2L130.7 24.2V20.4L126.6 22.7Z" fill="#383739"/>
<path d="M139.8 21.2001L136.8 18.9001L134.1 20.4001L136.8 23.0001L133 25.3001H141L147.7 31.3001L149.7 29.1001L143.6 23.1001V19.3001L139.8 21.2001ZM125.4 30.2001L122.4 27.6001L119.8 29.1001L122.8 31.7001L119 34.0001H126.6L133.4 40.0001L135.7 37.8001L129.2 31.8001V28.0001L125.4 30.2001Z" fill="#383739"/>
<path d="M161.3 9.80005H154.2L150.4 13.6H143.6L138.3 16.2L139.8 18.9L144.3 16.6H146.3L153.8 24.9L161.3 20V9.80005Z" fill="#383739"/>
<path d="M124 20.4L126.2 22.7001L124.3 23.8L121.7 21.5L124 20.4ZM130 20.8V24.6L136.4 30.2001L134.5 32.2001L128.5 26.1H122L130.4 20.8H130ZM136.8 19.3L139.1 21.5L137.1 22.7001L134.9 20.4L136.8 19.3ZM142.8 19.6V23.4L149.3 29.1L147.7 31L141.3 25H134.5L142.8 19.6Z" fill="#D22630"/>
<path d="M122.8 27.6L125.4 29.9L123.2 31.4L120.9 28.7L122.8 27.6ZM129.2 28V31.7L135.2 37.4L133.8 39.2999L127.3 33.2999H121L129.2 28ZM161 10.2H155L151 14H143.5L139 16.2L139.7 18.5L144.2 16.2H146.5L153.3 24.2L160.9 19.6L161 10.2Z" fill="#D22630"/>
<path d="M126.6 68.0001L123.9 70.3001L121.3 68.3001L123.9 66.1001L120.2 63.9001H128.5L134.9 57.4001L137.2 59.7001L130.7 65.7001V70.0001L126.6 68.0001Z" fill="#383739"/>
<path d="M139.8 68.8001L136.8 71.4001L134.1 69.5L136.8 67.3001L133 65H141L147.7 58.6L149.7 60.8L143.2 66.8001V71L139.8 68.8001ZM125.4 60.5L122.4 63.1L119.8 61.2001L122.8 58.6L119 56.6H126.6L133.4 50.3L135.7 52.5L129.2 58.5V62.3L125.4 60.5Z" fill="#383739"/>
<path d="M161.3 80.1001H154.2L150.4 76.7001H143.6L138.3 74.1001L139.8 71.1001L144.3 73.7001H146.3L153.8 65.4001L161.3 69.9001V80.1001Z" fill="#383739"/>
<path d="M124 69.9L126.2 67.5999L124.3 66.0999L121.7 68.4L124 69.9ZM130 69.5V65.6999L136.4 59.7L134.5 58.2L128.5 64.1999H122L130.4 69.5H130ZM136.8 71L139.1 68.8L137.1 67.3L134.9 69.5L136.8 71ZM142.8 70.3V66.5L149.3 60.7999L147.7 59.2999L141.3 65.3H134.5L142.8 70.3Z" fill="#D22630"/>
<path d="M122.8 62.3L125.4 60.1L123.2 58.9L120.9 61.2L122.8 62.3ZM129.2 62.3V58.6L135.2 52.6L133.8 51L127.3 57H121L129.2 62.3ZM161 79.7H155L151.1 76.3H143.6L139.1 73.7L139.8 71.4L144.3 74.1H146.6L153.4 65.7L161 70.3V79.7Z" fill="#D22630"/>
<path d="M122 34L118.6 32.5L114.5 35.5V36.3L107.7 45.3L114.5 54V54.8L118.6 57.8L122 56.7L120.2 55.2V52.9L120.9 51.8H124.7V38.9H120.9L120.2 38.2V35.5L122 34Z" fill="#383739"/>
<path d="M114.9 35.9001L118.6 32.9001L121.3 34.0001L119.8 35.1001V37.8001L120.5 38.9001H124.3V51.0001H120.5L119.8 52.1001V55.1001L121.3 56.3001L118.6 57.1001L114.9 54.4001V53.7001L108 45.0001L114.8 36.7001L114.9 35.9001Z" fill="#D22630"/>
<path d="M195.7 22.7L198.4 20L201.4 21.5L198.4 24.2L202.2 26.5H194.6L187.8 32.5L185.5 30.2L192 24.2V20.4L195.7 22.7Z" fill="#383739"/>
<path d="M182.9 21.2001L185.5 18.9001L188.2 20.4001L185.5 23.0001L189.3 25.3001H181.8L174.9 31.3001L172.7 29.1001L179.1 23.1001V19.3001L182.9 21.2001ZM196.9 30.2001L199.5 27.6001L202.2 29.1001L199.5 31.7001L203.3 34.0001H195.3L188.6 40.0001L186.6 37.8001L192.7 31.4001V27.6001L196.9 30.2001Z" fill="#383739"/>
<path d="M161.3 9.80005H168.1L171.9 13.6H178.7L184 16.2L183 19L178 16.7H176.2L169 25L161.4 20.1L161.3 9.80005Z" fill="#383739"/>
<path d="M198.8 20.4L196.1 22.7001L198.4 23.8L200.6 21.5L198.8 20.4ZM192.3 20.8V24.6L186.3 30.2001L187.8 32.2001L194.2 26.1H200.6L192.7 20.8H192.3ZM185.5 19.3L183.3 21.5L185.2 22.7001L187.8 20.4L185.5 19.3ZM179.5 19.6V23.4L173.8 29.1L175.3 31L181.3 25H187.8L179.5 19.6Z" fill="#D22630"/>
<path d="M199.5 27.6L197.2 29.9L199.2 31.4L201.8 28.7L199.5 27.6ZM193.5 28V31.7L187 37.4L189 39.2999L195.4 33.2999H201.8L193.5 28ZM161.3 10.2H168.1L172 14H178.8L183.8 16.2L182.6 18.5L178.4 16.2H176.2L169 24.2L161.4 19.6L161.3 10.2Z" fill="#D22630"/>
<path d="M195.7 68.0001L198.4 70.3001L201.4 68.3001L198.4 66.1001L202.2 63.9001H194.6L187.8 57.4001L185.5 59.7001L192 65.7001V70.0001L195.7 68.0001Z" fill="#383739"/>
<path d="M182.9 68.8001L185.5 71.4001L188.2 69.5L185.5 67.3001L189.3 65H181.8L174.9 58.6L172.7 60.8L179.1 66.8001V71L182.9 68.8001ZM196.9 60.5L199.5 63.1L202.2 61.2001L199.5 58.6L203.3 56.6H195.3L188.6 50.3L186.6 52.5L193.1 58.5V62.7001L196.9 60.5Z" fill="#383739"/>
<path d="M161.3 80.1001H168.1L171.9 76.7001H178.7L184 74.1001L182.9 71.1001L177.9 73.7001H176.1L168.9 65.4001L161.3 69.9001V80.1001Z" fill="#383739"/>
<path d="M198.8 69.9L196.1 67.5999L198.4 66.0999L200.6 68.4L198.8 69.9ZM192.3 69.5V65.6999L186.3 59.7L187.8 58.2L194.2 64.1999H200.6L192.7 69.5H192.3ZM185.5 71L183.3 68.8L185.2 67.3L187.8 69.5L185.5 71ZM179.5 70.3V66.5L173.8 61.2L175.3 59.7L181.8 65.6999H188.2L179.9 70.6999L179.5 70.3Z" fill="#D22630"/>
<path d="M199.5 62.3L197.2 60.1L199.2 58.9L201.8 61.2L199.5 62.3ZM193.5 62.3V58.6L187 52.6L189 51L195.4 57H201.8L193.5 62.3ZM161.3 79.3H168.1L172 76H178.8L183.8 73.4L182.6 71.1L178.4 73.8H176.2L169 65.5L161.4 70L161.3 79.3Z" fill="#D22630"/>
<path d="M200.3 34L204 32.5L207.8 35.5V36.3L215.4 45.3L207.8 53.7V54.4L203.3 57.4L199.9 56.3L202.2 54.8V52.9L201.4 51.8H197.6V38.9H201.4L202.2 38.2V35.5L200.3 34Z" fill="#383739"/>
<path d="M207.8 35.9001L203.7 32.9001L201.4 34.0001L202.9 35.1001V37.8001L201.8 38.9001H198.4V51.0001H202.2L202.9 52.1001V55.1001L201.4 56.3001L203.7 57.1001L207.4 54.4001V53.7001L214.2 45.0001L207.8 36.7001V35.9001Z" fill="#D22630"/>
<path d="M116.4 52.1L114.4 50.6V50L110.7 45L114.5 40.2V39.4L116.4 37.9L119.4 40.5H117.5L120.5 43.5H127L131.9 39.8V28.3H144.7L159.8 19.3V17L157.2 15.5H156.8L154.2 17L153.8 18.5L151.9 15.9L155.7 12.5H156.1L160.6 9.5H162.1L166.3 12.5H167L170.8 15.9L168.5 18.5V17L165.9 15.5H165.1L163 17V19.3L178 28.3H190.5V39L195.8 42.8H202.3L204.9 40.2H203L206.4 37.5L208.3 39V39.8L212.1 44.7L208.3 49.6V50.4L206.4 51.9L203 49H204.9L202.3 46.4H195.8L190.5 50.2V60.7H177.7L162.9 70V72.3L165.1 73.8H165.9L168.1 72.3L168.5 71.1L170.8 73.8L167 76.8H166.3L162.1 79.8H160.6L156.1 76.8H155.7L151.9 73.8L153.8 71.1L154.2 72.3L156.8 73.8H157.2L159.5 72.3V70L144.7 61H132.3V50.2L127.3 46.4H121L118 49H119.9L116.4 52.1Z" fill="#383739"/>
<path d="M161.3 74.4L162.9 75.6L161.3 77.1V74.4ZM156.4 76.7L160.2 79.7H161V77.5L158.7 75.5L161 74.0999V69.5L145 59.7H133.7V49.9L126.9 45.2999H117.8L115.5 48L113.3 45.2999H110.6L114.4 49.9V50.5999L115.5 51.7999L118.2 49.7999H117V49.5L120 46.5H126.9L132.2 50.2999V60.7999H144.6L159.7 70.3V72.9L157.5 74.4H156.3L153.7 72.9V71.8L152.2 73.6999L156 76.3L156.4 76.7ZM116 42.7L117.9 45H114L116 42.7ZM161.3 13.2L159.5 14.4L161 15.4L161.3 13.2ZM204.4 45.2999L205.9 47.2999L207.9 45.2999H204.4ZM166.3 13.3L162.1 10.2H161.3V12.8L163.6 14.4L161.3 16.2V20.8L177.6 30.2H188.9V40.0999L194.9 45H204L206.3 42.2999L209 45H211.6L207.8 40.4V39.7L206.3 38.2L204 40H205.2V40.2999L202.2 43.7H195.4L190.1 39.5999V29H177.6L162.5 20V17.3L165.1 15.3H165.9L168.5 17.3V18L170 16.1L166.6 13.1L166.3 13.3Z" fill="#FFC72C"/>
<path d="M161 77L159.5 75.6L161 74.4V77ZM117.9 45.2999L116 47.2999L114.1 45.2999H117.9ZM166.3 76.7L162.1 79.7H161.3V77.5L163.6 75.5L161.3 74.0999V69.5L177.3 59.7H188.9V49.9L194.9 45.2999H204L206.3 48L209 45.2999H211.6L207.8 49.9V50.5999L206.3 51.7999L204 49.7999H205.2V49.5L202.2 46.5H195.4L190.1 50.2999V60.7999H177.6L162.5 70.3V72.9L165.1 74.4H165.9L168.5 72.9V71.8L170 73.6999L166.6 76.3L166.3 76.7ZM206.3 42.7L204.8 45H208.6L206.3 42.7ZM156.4 13.2L160.2 10.2H161V12.8L158.7 14.4L161 16.2V20.8L145 30.2H133.7V40.0999L126.9 45.2999H117.8L115.5 42.7L113.3 45.2999H110.6L114.4 40.7999V40.0999L115.5 38.5L118.2 40.5H117V40.7999L120 44.2H126.9L132.2 40.0999V29H144.6L159.7 20V17.3L157.5 15.3H156.3L153.7 17.3V18L152.2 16.1L156 13.1L156.4 13.2ZM161.4 15.5L162.9 14.4L161.3 13.2L161.4 15.5Z" fill="white"/>
<path d="M161 45.2999V21.2L145.5 30.2H134V40.0999L128 44.5999H161.2V68.8L177.2 58.9H188.5V49.5L194.5 45L161 45.2999Z" fill="#00843D"/>
<path d="M128 45.3L133.8 49.9001V59.3H145L160.9 69.1V45H194.5L188.5 40.4001V30.2001H177.1L161.2 20.8V45.3H128Z" fill="#D22630"/>
<path d="M144.3 33.3001L141.7 30.6001L138.7 32.5001L141.7 35.1001L137.9 37.1001H145.5L152.3 43.5001L154.5 41.2001L148.1 35.2001V31.4001L144.3 33.3001ZM178.3 56.7001L181 59.3001L183.6 57.8001L181 55.2001L184.4 52.9001H176.8L170 46.9001L168.1 49.1001L174.6 55.1001V59.0001L178.3 56.7001ZM144.3 56.7001L141.7 59.3001L138.7 57.8001L141.7 55.2001L137.9 52.9001H145.5L152.3 46.9001L154.5 49.1001L148.1 55.1001V59.0001L144.3 56.7001ZM178.3 33.3001L181 30.6001L183.6 32.5001L181 35.1001L184.4 37.1001H176.8L170 43.5001L168.1 41.2001L174.6 35.2001V31.4001L178.3 33.3001Z" fill="#383739"/>
<path d="M181 58.9999L178.3 56.6999L180.6 55.1999L182.9 57.3999L181 58.9999ZM175 58.5999V54.7999L168.5 49.0999L170 47.1999L176.5 53.1999H183.3L175 58.5999ZM141.3 31.3999L144 33.5999L142 34.7999L139.4 32.4999L141.3 31.3999ZM147.7 31.3999V34.9999L153.7 40.9999L152.3 42.5999L145.9 36.5999H139.9L147.4 31.5999L147.7 31.3999Z" fill="#D22630"/>
<path d="M181 31.3999L178.3 33.5999L180.6 34.7999L182.9 32.4999L181 31.3999ZM175 31.3999V34.9999L168.5 41.4999L170 42.9999L176.5 36.9999H183.3L175 31.3999ZM141.3 58.8999L144 56.6999L142 55.1999L139.4 57.3999L141.3 58.8999ZM147.7 58.5999V54.7999L153.7 49.0999L152.3 47.1999L145.9 53.1999H139.9L148.1 58.5999H147.7Z" fill="#00843D"/>
<path d="M178.3 45.3L161.3 56.7L144.3 45.3L161.3 34L178.3 45.3Z" fill="#383739"/>
<path d="M161 34L145 45.3H177.5L161.3 34V55.5L177.6 45.3H145.5L161.3 56L161 34Z" fill="white"/>
<path d="M165.9 49.1001V52.1001H156.9V49.1001H150.8V41.1001H156.8V38.1001H165.8V41.1001H171.5V48.7001L165.9 49.1001Z" fill="#383739"/>
<path d="M157.2 38.5V41.5H151.2V45H161V38.5H157.2ZM161.3 45H171.2V41.2H165.5V38.5H161.7V45H161.3ZM151.1 45V48.7H157.1V51.7H161V45.3L151.1 45ZM161.3 51.8H165.1V48.8H171.1V45H161.3V51.8Z" fill="#D22630"/>
<path d="M190 173.8V169H204V163.7H217.6V118.7H204V113.8H190.4V108.9H176.8V104H146.6V109H132.3V113.8H118.6V118.8H105V164H118.6V168.9H132.3V173.9H145.9V178.7H176.5V173.8H190Z" fill="#383739"/>
<path d="M146.2 104.3V109.2H132.6V114.2H119V119H105.8V163.2H119.4V168.5H133V173.5H146.6V178.3H176.8V173.4H190.1V168.5H203.7V163.2H217.3V119H203.7V114.1H190V109.6H176.4V104.6L146.2 104.3ZM150 108.1H172.7V113H186.3V117.9H199.9V122.8H213.5V159.8H199.9V164.8H186.3V169.7H172.7V174.6H150V170H136V165.1H122.4V160.2H108.8V123.2H122.4V118.2H136V113.4H149.6L150 108.1Z" fill="#FFC72C"/>
<path d="M136.8 169.3V164.3H123.2V159.5H109.6V123.2H123.2V118.2H136.8V113.4H150.4V108H172.3V113.3H185.9V118.2H199.5V123.1H213.1V159.4H199.5V164.3H186V169.2H172.4V174.1H150.4V169.1L136.8 169.3Z" fill="#D22630"/>
<path d="M139.8 117.1L136 114.1V119.4L133 121.7V118.3L129.6 121.3L126.6 118.3V121.7L122.8 119V124L119.8 126.2V123.2L116 125.8L112.2 123.2V126.2L109.2 123.6V137.9H105V144.7H108.8V158.7L112.6 156.1V159.1L116.4 156.4L119.8 159.1V156.1L122.8 158.3V163.3L126.6 160.6V164L129.6 161L133 164V160.6L136.4 162.9V168.1L140.2 165.1V168.9L143.2 165.9L147 168.9V165.1L150 167.8V173.1L154.5 168.9V173.9L161.3 170L167.8 173.8V169L172.7 173.2V167.9L175.7 165.2V169L179.5 166L182.5 169V165.2L186.3 168.2V163L189.7 160.7V164.1L192.7 161.1L196.1 164.1V160.7L199.9 163.3V158.8L202.9 156.5V159.5L206.7 156.9L210.1 159.6V156.6L213.5 159.2V144.8H217.3V138H213.5V123.7L209.7 126.3V123.3L206.3 125.9L202.5 123.3V126.3L200 124V119L196.2 121.7V118.3L192.8 121.3L189.8 118.3V121.7L186 119.4V114.1L182.6 116.8V113L179.2 116.8L175.8 113V116.8L172.8 114.5V109.2L167.8 113.4V108.4L161.4 112.2L154.6 108.4V113.4L150.1 109.2V114.5L146.7 116.8V113L143.3 116.8L139.9 113L139.8 117.1Z" fill="#383739"/>
<path d="M113 127V124L116 126.2L119.4 123.9V126.9L122.8 124.3V158.3L119 155.7V158.7L116 156.4L113 158.7V155.7L109.2 158.3V144.3H105.4V138.3H109.2V124.7L113 127ZM140.2 114.1L143.2 116.8L146.2 114.1V117.9L150 114.9V167.8L146.2 165.1V168.5L143.2 165.5L140.2 168.5V164.7L136.4 167.7V115L140.2 117.6V114.1ZM182.2 114.1L179.2 116.8L176.1 114.1V117.9L172.3 114.9V167.8L176.1 165.1V168.5L179.1 165.5L182.1 168.5V164.7L185.9 167.7V115L182.1 117.6L182.2 114.1ZM209.7 127V124L206.3 126.2L203.3 123.9V126.9L199.5 124.3V158.3L203.3 155.7V158.7L206.3 156.4L209.7 158.7V155.7L213.1 158.3V144.3H216.9V138.3H213V124.7L209.7 127Z" fill="#00843D"/>
<path d="M127 119L129.6 121.7L132.6 119V122L136.4 119.8V162.8L132.6 160.6V163.6L129.6 161L127 163.6V160.6L123.2 162.9V119.8L127 122V119ZM155 114.1L150.4 110V172.7L154.9 168.5V173.8L161.3 169.7L167.3 173.4V168.5L172.3 172.7V110L167.3 114.1V108.8L161.3 112.6L154.9 108.8L155 114.1ZM195.7 119.1L192.7 121.7L190.1 119V122L186.3 119.8V162.8L190.1 160.6V163.6L192.7 161L195.7 163.6V160.6L199.5 162.9V119.8L195.7 122V119.1Z" fill="#FFC72C"/>
<path d="M114.5 135.3L116 135.7L117.5 135.3C118.058 134.473 118.443 133.542 118.632 132.562C118.821 131.583 118.81 130.575 118.6 129.6L117.1 131.5L116 130L114.9 131.5L113.4 129.6C113.4 131.5 113.4 133.8 114.4 135.3H114.5ZM128.9 131.5L127.7 130.4V128L125.1 130.3L129.6 134.8L134.1 130.3L131.5 128V130.3L130.7 131.4V127.6L132.7 125.7L129.7 123.5L127 125.7L128.9 127.7V131.5ZM142.5 127L141.3 126.2V124L138.7 126.3L143.2 130.8L147.7 126.3L145.1 124V126.3L144.3 127.1V123.3L146.3 121.8L143.3 119.1L140.6 121.8L142.5 123.3V127Z" fill="#383739"/>
<path d="M116 130.7L117.1 132.3L118.3 130.7C118.3 132.7 118.3 134.1 117.1 134.5C116.96 134.651 116.789 134.772 116.6 134.855C116.411 134.938 116.207 134.98 116 134.98C115.794 134.98 115.589 134.938 115.4 134.855C115.211 134.772 115.04 134.651 114.9 134.5C114.1 134.1 113.7 132.6 113.7 130.7L115.2 132.3L116 130.7ZM144 123.2V128.1L145.5 126.2V124.7L147.4 126.2L143.6 130L139.4 126.2L140.9 124.7V126.2L142.9 128.1V123.1L140.9 121.7L143.2 119.7L145.5 121.7L144 123.2Z" fill="white"/>
<path d="M130.4 127.3V132.3L131.9 130.3V129L133.8 130.5L130 134.2L125.8 130.5L127.3 129V130.5L129.3 132.4V127.4L127.3 125.9L129.6 124L131.9 126L130.4 127.3Z" fill="#D22630"/>
<path d="M207.8 135.3L206.3 135.7L204.8 135.3C203.7 133.8 203.7 131.5 203.7 129.6L205.6 131.5L206.3 130L207.4 131.5L209.4 129.6C209.4 131.5 209.4 133.8 207.8 135.3ZM193.8 131.5L194.6 130.4V128L197.2 130.3L192.7 134.8L188.2 130.3L190.8 128V130.3L192 131.4V127.6L190 125.7L192.7 123.5L195.7 125.7L193.8 127.7V131.5ZM179.8 127L181 126.2V124L183.6 126.3L179.1 130.8L174.6 126.3L177.2 124V126.3L178.3 127.1V123.3L176.5 121.8L179.1 119.1L182.1 121.8L179.9 123.3L179.8 127Z" fill="#383739"/>
<path d="M206.3 130.7L205.6 132.3L204 130.7C204 132.7 204.4 134.1 205.2 134.5C205.332 134.728 205.521 134.918 205.749 135.05C205.977 135.182 206.236 135.252 206.5 135.252C206.764 135.252 207.023 135.182 207.251 135.05C207.479 134.918 207.669 134.728 207.8 134.5C208.6 134.1 209 132.6 209 130.7L207.4 132.3L206.3 130.7ZM178.7 123.2V128.1L176.8 126.2V124.7L175.3 126.2L179.1 130L182.9 126.2L181.4 124.7V126.2L179.9 128.1V123.1L181.4 121.7L179.1 119.7L176.8 121.7L178.7 123.2Z" fill="white"/>
<path d="M192.3 127.3V132.3L190.4 130.3V129L188.9 130.5L192.7 134.2L196.5 130.5L195 129V130.5L193.5 132.4V127.4L195 125.9L192.7 124L190.4 126L192.3 127.3Z" fill="#D22630"/>
<path d="M166.3 128.5L165.1 126.5L168.9 123.2L165.1 120.5V122.5L164 123.5V119.8L167.4 117.5L161.4 113L155.3 117.5L158.7 120.2V123.9L157.2 122.4V120.5L153.4 123.2L157.2 127L156.1 128.9L166.3 128.5Z" fill="#383739"/>
<path d="M156.4 128.5L157.9 126.5L154.2 123.2L156.8 121.2V122.4L159.1 124.4V119.8L155.7 117.5L161.3 113.7L166.6 117.5L163.6 119.8V124.3L165.9 122.4V121.3L168.5 123.2L164.7 127L165.9 128.5H156.4Z" fill="#D22630"/>
<path d="M158.7 117.5L161.3 119.4L164 117.5L161.3 115.6L158.7 117.5Z" fill="#383739"/>
<path d="M161.3 116L163.3 117.5L161.3 119L159.1 117.5L161.3 116Z" fill="#00843D"/>
<path d="M114.5 147.4C114.708 147.231 114.949 147.109 115.207 147.04C115.466 146.971 115.736 146.957 116 147L117.5 147.4C118.036 148.161 118.411 149.024 118.6 149.936C118.789 150.847 118.789 151.788 118.6 152.7L117.1 151.1L116 153.1L114.9 151.1L113.4 153.1C113.4 151.5 113.4 149.3 114.4 147.7L114.5 147.4ZM128.9 151.1L127.7 152.3V154.5L125.1 151.9L129.6 147.7L134.1 151.9L131.5 154.5V152.3L130.7 151.1V154.9L132.7 156.9L129.7 159.1L127 156.8L128.9 154.9V151.1ZM142.5 155.3L141.3 156.4V158.7L138.7 156.4L143.2 151.9L147.7 156.4L145.1 158.7V156.4L144.3 155.3V159.1L146.3 161L143.3 163.2L140.6 161L142.5 159.5V155.3Z" fill="#383739"/>
<path d="M116 151.9L117.1 150.4L118.3 151.9C118.3 150 118.3 148.1 117.1 147.7C116.96 147.548 116.789 147.428 116.6 147.345C116.411 147.262 116.207 147.22 116 147.22C115.794 147.22 115.589 147.262 115.4 147.345C115.211 147.428 115.04 147.548 114.9 147.7C114.1 148.5 113.7 150 113.7 151.9L115.2 150.4L116 151.9ZM144 159.5V154.5L145.5 156.5V157.9L147.4 156.4L143.6 152.7L139.4 156.4L140.9 157.9V156.4L142.9 154.5V159.5L140.9 161L143.2 162.9L145.5 160.9L144 159.5Z" fill="white"/>
<path d="M130.4 155V150.4L131.9 151.9V153.4L133.8 151.9L130 148.1L125.8 151.9L127.3 153.4V152L129.3 150.5V155L127.3 156.5L129.6 158.5L131.9 156.5L130.4 155Z" fill="#D22630"/>
<path d="M207.8 147.4C207.592 147.231 207.351 147.109 207.093 147.04C206.834 146.971 206.564 146.957 206.3 147L204.8 147.4C203.7 148.9 203.7 151.1 203.7 152.7L205.6 150.7L206.3 152.7L207.4 150.7L209.4 152.7C209.4 151.1 209.4 148.9 207.8 147.4ZM193.8 151.1L194.6 152.3V154.5L197.2 151.9L192.7 147.7L188.2 151.9L190.8 154.5V152.3L192 151.1V154.9L190 156.9L192.7 159.1L195.7 156.8L193.8 154.9V151.1ZM179.8 154.9L181 156.1V158.3L183.6 156.1L179.1 151.5L174.6 156.1L177.2 158.3V156.1L178.3 154.9V158.7L176.5 160.6L179.1 162.9L182.1 160.6L179.9 159.1L179.8 154.9Z" fill="#383739"/>
<path d="M206.3 151.9L205.6 150.4L204 151.9C204 150 204.4 148.1 205.2 147.7C205.332 147.471 205.521 147.282 205.749 147.15C205.977 147.018 206.236 146.948 206.5 146.948C206.764 146.948 207.023 147.018 207.251 147.15C207.479 147.282 207.669 147.471 207.8 147.7C208.6 148.5 209 150 209 151.9L207.4 150.4L206.3 151.9ZM178.7 159.5V154.5L176.8 156.5V157.9L175.3 156.4L179.1 152.7L182.9 156.4L181.4 157.9V156.4L179.9 154.5V159.5L181.4 161L179.1 162.9L176.8 160.9L178.7 159.5Z" fill="white"/>
<path d="M192.3 155V150.4L190.4 151.9V153.4L189 152L192.8 148.2L196.6 152L195.1 153.5V152L193.6 150.5V155L195.1 156.2L192.8 158.4L190.5 156.2L192.3 155Z" fill="#D22630"/>
<path d="M166.3 153.8L165.1 155.7L168.9 159.5L165.1 162.1V160.2L164 158.7V162.5L167.4 165.1L161.4 169.3L155.3 165.1L158.7 162.5V158.7L157.2 160.2V162.1L153.4 159.5L157.2 155.7L156.1 153.7L166.3 153.8Z" fill="#383739"/>
<path d="M156.4 154.2L157.9 156.1L154.2 159.5L156.8 161.3V159.8L159.1 157.9V162.9L155.7 165.1L161.3 168.9L166.6 165.1L163.6 162.9V157.9L165.9 159.9V161.3L168.5 159.5L164.7 155.7L165.9 154.2H156.4Z" fill="#D22630"/>
<path d="M158.7 165.1L161.3 162.9L164 165.1L161.3 167.1L158.7 165.1Z" fill="#383739"/>
<path d="M161.3 166.3L163.3 165.1L161.3 163.6L159.1 165.1L161.3 166.3Z" fill="#00843D"/>
<path d="M209.7 139H204V136.8H186L172.7 128.5H150L137.2 136.8H118.6V139.1H112.6V143.6H118.6V146.2H137.2L150 154.5H172.7L185.5 146.2H203.7V143.6H209.7V139Z" fill="#383739"/>
<path d="M150 128.5L137.2 137.2H119V139.4H113.4V143.2H119.4V145.5H137.5L150.4 153.8H173L185.4 145.5H203.6V142.8H209.6V139.8H203.6V137.5H185.1L172.6 129.2L150 128.5ZM150 130H172.3L183.6 137.5V138.7H197V143.6H184V145.1L172.3 152.7H150.3L138.7 145.1V143.6H125.4V138.6H138.7V137.6L150 130Z" fill="#D22630"/>
<path d="M172.3 130.4L183.6 137.9V139.1H196.5V143.6H183.6V145.1L172.3 152.7H150.3L139.1 145.1V143.6H125.8V139.8H139.1V138.3L150.4 130.7L172.3 130.4Z" fill="#D22630"/>
<path d="M144.7 145.5L149.7 149.3L152.7 147L150.7 145.5L149.7 146.2L148.5 145.5L167.4 131.5H163.6L144.7 145.5ZM155 151H158.8L177.7 137L172.7 133.3L169 135.6L171.3 137.1L172.8 135.9L173.9 137.1L155 151ZM163 151H166.7L147.8 137L149.4 136L150.4 137L152.4 135.6L149.4 133.3L144.4 137.1L163 151ZM174 145.4L172.8 146.1L171.3 145.4L169.3 146.9L172.8 149.2L177.7 145.4L158.8 131.4H155L174 145.4ZM140.7 141.2L144.1 143.5L147.5 141.2L143.7 139L140.7 141.2Z" fill="#383739"/>
<path d="M158 141.3L161.3 143.6L164.7 141.3L161 139.1L158 141.3ZM181.8 141.3L178 143.6L175 141.3L178.3 139.1L181.8 141.3Z" fill="#383739"/>
<path d="M177.2 145.5L173.1 148.9L170.4 146.9L171.5 145.9L173.1 146.9L174.6 145.5L156.4 131.9H159.1L177.2 145.5ZM165.9 150.8H163.2L145.1 137.2L149.6 133.8L152.3 135.7L150.8 136.7L149.6 135.7L147.7 137.2L165.9 150.8ZM159.1 150.8H156.4L174.6 137.2L173.1 135.7L171.5 136.7L170.5 135.7L173.1 133.7L177.2 137.2L159.1 150.8ZM163.2 131.8H165.9L147.7 145.5L149.7 147L150.7 145.9L152.3 146.9L149.6 148.9L145.1 145.5L163.2 131.8Z" fill="#FFC72C"/>
<path d="M144.3 139.8L147 141.3L144.3 143.3L141.7 141.3L144.3 139.8ZM161.3 139.8L164 141.3L161.3 143.3L158.7 141.3L161.3 139.8ZM178.3 139.8L175.7 141.3L178.3 143.3L181 141.3L178.3 139.8Z" fill="#00843D"/>
<path d="M102.8 233.9L101.6 235.8L103.9 237.7L101.6 239.2L102.8 241.1L105.4 241.5L108.1 239.5L114.9 243.3V240.3L110.7 237.7L114.5 235V231.3L108.1 235.8L105.4 233.5L102.8 233.9ZM102.8 221.8L101.6 223.7L103.9 225.6L101.6 227.5L102.8 229L105.4 229.4L108.1 227.4L114.9 231.3V228.3L110.7 225.6L114.5 222.9V219.2L108.1 223.7L105.4 221.4L102.8 221.8ZM102.8 253.2L101.6 251.2L103.9 249.4L101.6 247.9L102.8 245.9L105.4 245.6L108.1 247.5L114.9 243.7V246.7L110.7 249.4L114.5 252V255.8L108.1 251.3L105.4 253.5L102.8 253.2ZM219.9 233.9L221 235.8L218.8 237.7L221 239.2L219.5 241.1L216.9 241.5L214.2 239.5L207.8 243.3V240.3L211.6 237.7L207.8 235V231.3L214.2 235.8L216.9 233.5L219.9 233.9ZM219.5 221.8L221 223.7L218.8 225.6L221 227.5L219.5 229L216.9 229.4L214.2 227.4L207.8 231.3V228.3L211.6 225.6L207.8 222.9V219.2L214.2 223.7L216.9 221.4L219.5 221.8ZM219.5 253.2L221 251.2L218.8 249.4L221 247.9L219.5 245.9L216.9 245.6L214.2 247.5L207.8 243.7V246.7L211.6 249.4L207.8 252V255.8L214.2 251.3L216.9 253.5L219.5 253.2ZM193.1 201V206H196.9V208.2H200.6V204.4H197.6V201H193.1ZM204.4 209V213.9H207.8V216.1H211.6V212.4H207.8V209H204.4ZM128.9 201.4V205.9H125V208.2H121.6V204.4H125V201L128.9 201.4ZM193.1 273.9V269H196.9V266.8H200.6V270.5H197.6V273.9H193.1ZM128.9 273.9V269H125V266.8H121.6V270.5H125V273.9H128.9ZM204.4 266.4V260.7H207.8V258.5H211.6V262.2H207.8V266L204.4 266.4ZM118 208.6V213.5H114V215.8H110.6V212H114V208.6H118ZM118 265.6V260.7H114V258.5H110.6V262.2H114V266L118 265.6ZM174.7 200.6L171.7 198L169 200.3L171.3 202.9L168.3 205.6H172.8L174.3 204L176.2 205.6H180.7L177.7 202.9L180 200.3L177.3 198L174.3 200.6H174.7ZM161.1 200.6L158.1 198L155.4 200.3L157.7 202.9L154.7 205.6H159.2L161.1 204L162.6 205.6H167.1L164.1 202.9L166.4 200.3L163.7 198L161.1 200.6ZM147.5 200.6L150.1 198L153.1 200.3L150.5 202.9L153.9 205.6H148.9L147.5 204L146 205.6H141.4L144.4 202.9L142.2 200.3L144.8 198L147.5 200.6ZM174.3 273.6L171.6 276.2L169 273.9L171.3 271.7L168.3 268.7H172.8L174.3 270.2L176.2 268.7H180.7L177.7 271.7L180 273.9L177.3 276.2L174.3 273.6ZM161.1 273.6L158.1 276.2L155.4 273.9L157.7 271.7L154.7 268.7H159.2L161.1 270.2L162.6 268.7H167.1L164.1 271.7L166.4 273.9L163.7 276.2L161.1 273.6ZM147.5 273.6L150.1 276.2L153.1 273.9L150.5 271.7L153.9 268.7H148.9L147.5 270.2L146 268.7H141.4L144.4 271.7L142.2 273.9L144.8 276.2L147.5 273.6Z" fill="#383739"/>
<path d="M114.5 240.3V243L108.1 239.2L105.4 241.1H103.2L102 239.6L104.3 237.6L102 235.8L103.2 234.3H105.4L108.1 236.2L114.5 232.4V234.7L109.5 238.1L114.5 240.3ZM114.5 228.3V230.9L108 227L105.3 228.9H103.1L101.9 227.4L104.2 225.4L101.9 223.6L103.1 222.1H105.3L108 224L114.4 220.2V222.5L109.9 225.5L114.5 228.3ZM114.5 246.7V244.1L108.1 247.9L105.4 245.9H103.2L102 247.5L104.3 249.4L102 251.3L103.2 252.8H105.4L108.1 250.9L114.5 254.7V252.4L109.5 249.4L114.5 246.7ZM207.8 240.3V243L213.8 239.2L216.5 241.1H219.2L219.9 239.6L217.6 237.6L219.9 235.8L219.2 234.3H216.5L213.9 236.2L207.9 232.4V234.7L212.4 237.7L207.8 240.3ZM207.8 228.3V230.9L213.8 227.1L216.5 229H219.2L219.9 227.5L217.6 225.5L219.9 223.7L219.2 222.2H216.5L214 224L208 220.2V222.5L212.5 225.5L207.8 228.3ZM207.8 246.7V244.1L213.8 247.9L216.5 245.9H219.2L219.9 247.5L217.6 249.4L219.9 251.3L219.2 252.8H216.5L213.9 250.9L207.9 254.7V252.4L212.4 249.4L207.8 246.7ZM196.5 201.4V204.8H199.9V207.8H196.9V205.6H193V201.8L196.5 201.4ZM207.5 209.4V212.4H210.5V216.1H207.8V213.5H204V209.3L207.5 209.4ZM125.1 201.8V204.8H121.7V207.8H124.7V205.6H128.5V201.8H125.1ZM196.9 273.6V270.6H199.9V266.8H196.9V269.4H193V273.6H196.9ZM125.1 273.6V270.6H121.7V266.8H124.7V269.4H128.5V273.6H125.1ZM207.4 266V262.2H210.4V259.2H207.8V261.5H204V265.6L207.4 266ZM114.4 209.3V212.3H111.1V216.1H114.1V213.5H117.9V209.3H114.4ZM114.4 266V262.2H111.1V259.2H114.1V261.5H117.9V265.6L114.4 266ZM171.2 198.8L174.2 201.4L177.2 198.8L179.2 200.6L176.8 203.3L179.5 205.6H176L174 204L172.6 205.6H168.8L171.4 203.3L169.2 200.6L171.2 198.8ZM157.9 198.8L160.9 201.4L163.6 198.8L165.9 200.6L163.6 203.3L166.3 205.6H162.5L161 204L159 205.6H155.3L158.3 203.3L156.1 200.6L157.9 198.8ZM150.4 198.8L147.4 201.4L144.7 198.8L142.5 200.6L144.7 203.3L142.1 205.6H145.9L147.4 204L149.3 205.6H153L150 203.3L152.3 200.6L150.4 198.8ZM171.5 276.2L174.2 273.6L177.2 276.2L179.2 274.3L176.8 272.1L179.5 269.4H176L174 270.9L172.6 269.4H168.8L171.4 272.1L169.2 274.3L171.5 276.2ZM157.9 276.2L160.9 273.6L163.6 276.2L165.9 274.3L163.6 272.1L166.3 269.4H162.5L161 271L159 269.5H155.3L158.3 272.2L156.1 274.4L157.9 276.2ZM150.4 276.2L147.4 273.6L144.7 276.2L142.5 274.3L144.7 272.1L142.1 269.4H145.9L147.4 270.9L149.3 269.4H153L150 272.1L152.3 274.3L150.4 276.2Z" fill="#00843D"/>
<path d="M124.7 261.5V269H197.2V261.5H208.2V213.5H197.2V205.9H125.1V213.5H114.5V261.5H124.7Z" fill="#383739"/>
<path d="M125.4 206V213.9H115V261H125.5V268.6H197.3V261H207.9V213.8H197.3V206.2H125.5L125.4 206ZM130 209H192.7V216.5L195.4 218.8H205.2V256.6H195.4L192.7 258.5V266H130V258.5L127.3 256.5H118V218.8H127.4L130.1 216.8V209.3L130 209Z" fill="#FFC72C"/>
<path d="M130.4 209.3V216.5L139.8 209.3H130.4ZM182.5 209.3L192 216.5V209.3H182.5ZM118.3 219.2V225.6L127 219.2H118.3ZM195.3 219.2L204.4 225.6V219.2H195.3ZM204.4 249.4L195.4 256.2H204.4V249.4ZM118.3 249.4V256.2H127L118.3 249.4ZM130.3 258.4V265.6H139.8L130.3 258.4ZM192 258.4L182.5 265.6H192V258.4Z" fill="#D22630"/>
<path d="M182.1 209.3L204.4 226V249.4L181.8 266H140.2L118.2 249.4V226.7L140.6 209.7L182.1 209.3Z" fill="#00843D"/>
<path d="M123.6 251.7L120.9 248.7L123.2 246L120.9 243L123.2 240.3L120.9 237.7L123.2 234.7L120.9 232L123.2 229L120.9 226.3L123.6 223.3H199L201.7 226.3L199 229L201.7 232L199 234.7L201.7 237.7L199 240.3L201.7 243L199 246L201.7 248.6L199 251.6L123.6 251.7ZM175.3 213.1L172.3 210.5L169.7 213.1L167 210.5L164 213.1L161.3 210.5L158.3 213.1L155.7 210.5L153 213.1L150 210.5L147 213.1V262.2L150 264.5L153 262.2L155.7 264.5L158.3 262.2L161.3 264.5L164 262.2L167 264.5L169.7 262.2L172.3 264.5L175.3 261.9V213.1Z" fill="#383739"/>
<path d="M169.3 213.1L167 210.8L164.4 213.1V262L167 264.2L169.3 262V213.1ZM157.9 213.1L155.7 210.8L153 213.1V262L155.7 264.2L158.3 262L157.9 213.1Z" fill="#FFC72C"/>
<path d="M123.6 251.3L121.3 248.6L123.6 246H199L201 248.6L198.7 251.3H123.6ZM199 235L201 237.7L198.7 239.9H123.5L121.2 237.7L123.5 235H199ZM199 229L201 226.3L198.7 223.7H123.5L121.2 226.3L123.5 229H199Z" fill="#FFC72C"/>
<path d="M175 213.1L172.3 210.8L169.7 213.1V262L172.3 264.2L174.9 262L175 213.1ZM152.7 213.1L150 210.8L147.4 213.1V262L150 264.2L152.7 262V213.1Z" fill="#D22630"/>
<path d="M123.6 245.6L121.3 243L123.6 240.3H199L201 243L198.7 245.6H123.6ZM123.6 234.3L121.3 232L123.6 229.4H199L201 232L198.7 234.7L123.6 234.3Z" fill="#D22630"/>
<path d="M164 261.9L161.3 264.1L158.7 261.9V213L161.3 210.7L164 213V261.9Z" fill="#D22630"/>
<path d="M186.7 214.2H135.7V218H129.2V257H136V260.7H187V257H193.5V218.5H187V214.3L186.7 214.2Z" fill="#383739"/>
<path d="M136 214.6V218.4H129.6V256.2H136V260.7H141.3L130.7 252V223L141.3 214.2H136V214.6ZM181.4 214.6L191.6 223.3V251.7L181.4 260.3H186.7V256.6H192.7V218.8H186.3V214.6H181.4Z" fill="#D22630"/>
<path d="M142 214.6L131.1 223.6V251.3L142.1 260.3H180.2L191.6 251.3V223.7L180.2 214.7L142 214.6ZM142.5 216.1H179.9L189.7 224.4V251L179.9 259H142.5L132.6 250.6V224.2L142.5 216.1Z" fill="#00843D"/>
<path d="M152.7 250.9L154.2 251.7V253.5L152.2 255.5L155.3 258.5H152.3L150.3 256.5L148.1 258.5H145.5L148.5 255.5L146.2 253.5L146.6 251.7L148.1 250.9L150.4 252.8L152.7 250.9ZM163.2 250.9L165.2 251.7V253.5L163.2 255.5L166.2 258.5H163.2L161.3 256.5L159.1 258.5H156.1L159.1 255.5L157.1 253.5V251.7L159.1 250.9L161.3 252.8L163.2 250.9ZM170 250.9L168.5 251.7L168.1 253.5L170.1 255.5L167.1 258.5H170.1L172.3 256.5L174.2 258.5H177.2L174.2 255.5L176.1 253.5V251.7L174.1 250.9L172.3 252.8L170 250.9ZM152.7 224.1L154.2 223.3V221.4L152.2 219.5L155.3 216.5H152.3L150.3 218.4L148.1 216.5H145.5L148.5 219.5L146.2 221.5L146.6 223.3L148.1 224.1L150.4 222.1L152.7 224.1ZM163.2 224.1L165.2 223.3V221.4L163.2 219.5L166.2 216.5H163.2L161.3 218.4L159.1 216.5H156.1L159.1 219.5L157.1 221.5V223.3L159.1 224.1L161.3 222.1L163.2 224.1ZM170 224.1L168.5 223.3L168.1 221.4L170.1 219.5L167.1 216.5H170.1L172.3 218.4L174.2 216.5H177.2L174.2 219.5L176.1 221.5V223.3L174.1 224.1L172.3 222.1L170 224.1ZM189.3 227.1L187.8 228.6L189.3 229.7V232L186.7 230.1L184.7 231.6H183L182.2 230.1L184.2 228.6L182.2 226.7L183 225.6H184.9L186.8 226.7L189.4 224.8L189.3 227.1ZM189.3 236.1L187.8 237.7L189.3 238.8V241.1L186.7 239.1L184.7 240.7H183L182.2 239.2L184.2 237.7L182.2 235.7L183 234.7H184.9L186.8 235.7L189.4 233.9L189.3 236.1ZM189.3 247.9L187.8 246.7L189.3 245.2V243L186.7 244.9L184.7 243.3H183L182.2 244.9L184.2 246.7L182.2 248.3L183 249.3L184.9 249.8L186.8 248.3L189.4 250.1L189.3 247.9ZM133 227L134.9 228.5L133 229.6V231.9L135.7 230L137.5 231.5H139.5L140.2 230L138.7 228.5L140.2 226.6L139.4 225.5H137.5L135.7 226.6L133 224.7V227ZM133 236L134.9 237.6L133 238.7V241L135.7 239L137.5 240.6H139.5L140.2 239.1L138.7 237.6L140.2 235.6L139.4 234.6H137.5L135.7 235.6L133 233.8V236ZM133 247.8L134.9 246.6L133 245.1V243L135.7 244.9L137.5 243.3H139.5L140.2 244.9L138.7 246.7L140.2 248.3L139.4 249.3L137.5 249.8L135.7 248.3L133 250.1V247.8Z" fill="#00843D"/>
<path d="M142.8 216.5L133.4 224.1L135.7 226.3L137.5 224.8H139.8L140.6 226.8L139.1 228.6L140.6 230.1L139.8 231.6L137.5 232L135.7 230.5L133 232.8V233.5L135.7 235.5L137.5 233.9H139.8L140.6 235.8L139.1 237.7L140.6 239.2L139.8 240.7L137.5 241.1L135.7 239.6L133 241.8V242.6L135.7 244.5L137.5 243H139.8L140.6 244.9L139.1 246.7L140.6 248.3L139.8 249.8L137.5 250.1L135.7 248.6L133.4 250.6L142.8 258.5H144.8L147.8 255.5L145.8 253.9L146.2 251.7L148.2 250.5L150.4 252.5L152.3 250.5L154.5 251.7V253.9L153 255.4L155.7 258.4L158.7 255.4L156.8 253.9V251.7L159.1 250.5L161.3 252.5L163.3 250.5L165.5 251.7V253.9L163.6 255.4L166.6 258.4L169.6 255.4L167.8 253.9V251.7L170 250.5L172.3 252.5L174.2 250.5L176.1 251.7L176.5 253.9L174.5 255.4L177.5 258.4H179.9L189.3 250.9L186.7 248.6L185.2 250.1H182.9L181.8 248.3L183.3 246.7L181.8 244.9L182.8 243.3L185.2 243L186.7 244.5L189.3 242.5V241.8L186.7 239.6L185.2 241.1H182.9L181.8 239.1L183.3 237.7L181.8 235.7L182.8 234.3H185.2L186.7 235.4L189.3 233.5V232.8L186.7 230.5L185.2 232H182.9L181.8 230.1L183.3 228.6L181.8 226.7L182.8 225.2H185.2L186.7 226.3L189.3 224.4L179.9 216.5H177.6L174.6 219.5L176.5 221V223.3L174.2 224.4L172.3 222.9L170 224.4L168.1 223.4L167.8 221L169.7 219.5L166.7 216.5L163.7 219.5L165.9 221L165.5 223.3L163.2 224.4L161.3 222.9L159.1 224.4L157.1 223.4L156.8 221L158.7 219.5L155.7 216.5L153 219.5L155 221L154.5 223.3L152.3 224.4L150.3 222.9L148.1 224.4L146.2 223.4V221L147.7 219.5L144.7 216.5H142.8ZM133 236.5V238.5L134.1 237.7L133 236.5Z" fill="#D22630"/>
<path d="M150.4 257L148.9 258.5H151.9L150.4 257ZM161.4 257L159.8 258.5H162.8L161.4 257ZM172.3 257L170.4 258.5H173.8L172.3 257ZM148.9 216.5L150.4 218L151.9 216.5H148.9ZM159.5 216.5L161.3 218L162.9 216.5H159.5ZM170.8 216.5L172.3 218L173.8 216.5H170.8ZM189.3 227.8L188.2 228.6L189.3 229.4V227.8ZM189.3 236.5L188.2 237.7L189.3 238.4V236.5ZM189.3 245.6L188.2 246.7L189.3 247.5V245.6ZM133 227.5V229.4L134.1 228.6L133 227.5ZM133 236.5V238.5L134.1 237.7L133 236.5ZM133 245.6V247.5L134.1 246.7L133 245.6Z" fill="white"/>
<path d="M170.4 234.3V231.3H167.4V227.5H154.9V231.3H151.5V234.7H147.4V240.7H151.9V243.7H155.3V247.5H167.3V243.7H170.4V240.7H174.9V234.3H170.4Z" fill="#383739"/>
<path d="M161 228.2V232L156 234.7V237.3H147.4V235H151.9V231.6H155.3V227.8L161 228.2ZM161.3 247.2V243.3L166.6 240.3V238.1H174.6V240.7H170V243.7H167V247.5L161.3 247.2Z" fill="#FFC72C"/>
<path d="M166.3 237.3V234.7L161.3 231.7V227.8H167V231.6H170V235H174.6V237.3H166.3ZM147.7 237.7H156.1V240.3L161 243.3V247.1H155.7V243.3H152.3V240.3H147.7V237.7Z" fill="white"/>
<path d="M156 238V240.3L161 243V237.7L156 238Z" fill="#D22630"/>
<path d="M161 232L156 235V237.3H161V232Z" fill="#00843D"/>
<path d="M166.3 237.3V235L161.3 232V237.3H166.3Z" fill="#D22630"/>
<path d="M161.3 243L166.3 240.3V237.7H161.3V243Z" fill="#00843D"/>
<path d="M117.1 302V311.7H108.1V321.2H98.2V346.9H108.1V355.9H117.1V366.1H151.5L157.9 369.9L154.9 371.4H142.5L141.3 370.3H152.7L149.7 367.3H133.4L140.9 374.8H156.1L161 371.4L165.9 374.8H180.9L188.6 367.3H172.3L169.3 370.3H180.6L179.1 371.4H167.1L164 370L170 366.2H204.8V355.2H214.2V346.2H223.7V321.2H214.2V312.2H204.8V302.4H170L164 298.6L167 296.7H179.1L180.2 297.9H169L172.4 301.3H188.3L181.1 293.7H166L161 296.7L155.8 293.7H140.7L133.5 301.3H149.7L152.7 297.9H141.4L142.6 296.7H155L158 298.7L151.6 302.4L117.1 302Z" fill="#D22630"/>
<path d="M170 365.4H204.8V355.2H214.2V346.2H223.7V321.2H214.2V312.2H204.8V302.2H170L155.7 293.6H140.6L134.1 300.4H149.3L151.9 297.8H140.6L142.5 295.8H154.9L171.2 305.7H200.6V315.9H210.1V324.9H219.9V342.7H210.1V351.4H200.6V361.2H171.2L154.9 371.4H142.5L140.5 369.5H152L149.4 367.3H134L140.8 374.1H155.6L170 365.4ZM151.1 361.6H121V351.8H111.6V342.8H102V325H111.5V315.9H120.9V305.7H151.1L167.4 295.9H180.2L181.8 297.8H170.4L173.1 300.4H188.1L181.4 293.6H166.3L152.7 302.3H118.3V312.1H108.8V321.1H98.2V346.1H108.1V355.1H117.5V365.4H151.5L166.3 374.1H181.3L187.8 367.3H172.7L170.4 369.5H181.8L179.8 371.5H167L151.1 361.6Z" fill="#FFC72C"/>
<path d="M198.4 348.8V359H170.8L161.3 364.6L151.9 359H124.3V348.8H115V340H105V328H114.9V319H124.3V309H152L161.4 303.4L170.9 309.1H198.5V318.9H207.9V327.9H217.4V340.1H207.9V349.1L198.4 348.8Z" fill="#00843D"/>
<path d="M127.7 345.4V355.2H142.8L127.8 345L127.7 345.4ZM127.7 321.9V312.5H142.8L127.8 322.3L127.7 321.9ZM194.6 345.4V355.2H179.5L194.6 345V345.4ZM194.6 321.9V312.5H179.5L194.6 322.3V321.9Z" fill="#383739"/>
<path d="M128.5 345.7L141.7 354.8H128.5V345.7ZM128.5 321.9L141.7 312.9H128.5V321.9ZM194.2 345.7L180.6 354.8H194.2V345.7ZM194.2 321.9L180.6 312.9H194.2V321.9Z" fill="#D22630"/>
<path d="M147.4 331V326H145.4L137.2 321.2L129.6 326.1H127.7V331.1H124V336.3H127.8V341.3H129.3L137.3 346.5L145.6 341.2H147.1V336.3H153.1V331H147.4Z" fill="#383739"/>
<path d="M137.5 321.2L145.1 326.1H130L137.5 321.2ZM145.1 341.2L137.5 346.2L130 341.2H145.1ZM142.8 331.4V336.3H133.8V331.8L142.8 331.4Z" fill="#D22630"/>
<path d="M146.6 336.3V340.8H137.6V336.3H146.6ZM137.2 336.3V340.8H128V336.3H137.2ZM152.2 331.3V336.3H143.6V331.8L152.2 331.3ZM133.4 331.3V336.3H124.4V331.8L133.4 331.3ZM146.6 326.5V331H137.6V326.5H146.6ZM137.2 326.5V331H128V326.5H137.2Z" fill="#FFC72C"/>
<path d="M130.7 332.5V335.2H127V332.5H130.7ZM134.5 327.6V330.2H130.7V327.6H134.5ZM144.3 327.6V330.2H139.8V327.6H144.3ZM140.6 332.6V335.2H136V332.5L140.6 332.6ZM150 332.6V335.2H146V332.5L150 332.6ZM144.3 337.4V340.1H139.8V337.4H144.3ZM134.5 337.4V340.1H130.7V337.4H134.5Z" fill="#383739"/>
<path d="M130.4 332.5H127V334.8H130.7L130.4 332.5ZM134.1 328H130.7V329.9H134.5L134.1 328ZM144 328H140.2V329.9H144V328ZM139.8 332.5H136V334.5H139.8V332.5ZM149.3 332.5H145.9V334.5H149.3V332.5ZM143.6 337.8H139.8V339.7H143.6V337.8ZM133.8 337.8H130.4V339.7H134.1L133.8 337.8Z" fill="white"/>
<path d="M175.3 331V326H177.3L184.8 321.2H185.2L193.1 326.1H195V331.1H198.8V336.3H195V341.3H192.7L185.2 346.5L177.2 341.2H175.3V336.3H170V331H175.3Z" fill="#383739"/>
<path d="M185.2 321.2L177.6 326.1H192.7L185.2 321.2ZM177.6 341.2L185.2 346.2L192.7 341.2H177.6ZM179.5 331.4V336.3H188.9V331.8L179.5 331.4Z" fill="#D22630"/>
<path d="M175.7 336.3V340.8H185.2V336.3H175.7ZM185.2 336.3V340.8H194.6V336.3H185.2ZM170 331.3V336.3H179.1V331.8L170 331.3ZM189 331.3V336.3H198.4V331.8L189 331.3ZM175.7 326.5V331H185.2V326.5H175.7ZM185.2 326.5V331H194.6V326.5H185.2Z" fill="#FFC72C"/>
<path d="M191.6 332.5V335.2H195.7V332.5H191.6ZM187.8 327.6V330.2H192V327.6H187.8ZM178.3 327.6V330.2H182.1V327.6H178.3ZM182.1 332.6V335.2H185.9V332.5L182.1 332.6ZM172.3 332.6V335.2H176.5V332.5L172.3 332.6ZM178.3 337.4V340.1H182.1V337.4H178.3ZM187.8 337.4V340.1H192V337.4H187.8Z" fill="#383739"/>
<path d="M192 332.5H195.7V334.8H192V332.5ZM188.2 328H192V329.9H188.2V328ZM178.7 328H182.1V329.9H178.3L178.7 328ZM182.5 332.9H185.9V334.8H182.1L182.5 332.9ZM172.7 332.9H176.5V334.8H172.7V332.9ZM178.7 337.9H182.1V339.7H178.3L178.7 337.9ZM188.2 337.9H192V339.7H188.2V337.9Z" fill="white"/>
<path d="M171.2 322.7V327.6H169.2L161.3 332.9L153 327.6H151.5V322.6H146.6V317.4H151.6V312.4H153L161.3 307.6L169.3 312.5H171.2V317.4H175.7V322.7H171.2Z" fill="#383739"/>
<path d="M161.3 332.5L168.9 327.6H153.8L161.3 332.5ZM168.9 312.5L161.3 308L153.8 312.5H168.9Z" fill="#FFC72C"/>
<path d="M170.8 317.4V312.9H161.3V317.4H170.8ZM161 317.4V312.9H151.9V317.4H161ZM175.3 322.4V317.8H166.3V322.3L175.3 322.4ZM165.9 322.4V317.8H156.9V322.3L165.9 322.4ZM156.4 322.4V317.8H147V322.3L156.4 322.4ZM170.8 327.2V322.7H161.3V327.2H170.8ZM161 327.2V322.7H151.9V327.2H161Z" fill="#D22630"/>
<path d="M158.7 313.6V316.6H154.5V313.6H158.7ZM168.1 313.6V316.6H164V313.6H168.1ZM153.8 318.9V321.6H149.6V318.9H153.8ZM163.2 318.9V321.6H159.5V318.9H163.2ZM173.1 318.9V321.6H168.9V318.9H173.1ZM158.3 323.9V326.5H154.5V323.8L158.3 323.9ZM168.1 323.9V326.5H164V323.8L168.1 323.9Z" fill="#383739"/>
<path d="M158 314.4H155V316.3H158V314.4ZM167.8 314.4H164.4V316.3H167.8V314.4ZM153.4 319.3H149.6V321.2H153.4V319.3ZM162.9 319.3H159.5V321.2H163.2L162.9 319.3ZM172.7 319.3H168.9V321.2H172.7V319.3ZM157.9 324.2H154.9V326.1H157.9V324.2ZM167.8 324.2H164.4V326.1H167.8V324.2Z" fill="white"/>
<path d="M171.2 349.9V355.2H169.2L161.3 360.5L153 355.2H151.5V350.2H146.6V345H151.6V340H153L161.3 335.2L169.3 340.1H171.2V345H175.7V350.3L171.2 349.9Z" fill="#383739"/>
<path d="M161.3 359.3L168.9 354.8H153.8L161.3 359.3ZM168.9 339.7L161.3 335.2L153.8 339.7H168.9Z" fill="#FFC72C"/>
<path d="M170.8 344.6V340.1H161.3V344.6H170.8ZM161 344.6V340.1H151.9V344.6H161ZM175.3 349.6V345H166.3V349.5L175.3 349.6ZM165.9 349.6V345H156.9V349.5L165.9 349.6ZM156.4 349.6V345H147V349.5L156.4 349.6ZM170.8 354.4V350H161.3V354.5L170.8 354.4ZM161 354.4V350H151.9V354.5L161 354.4Z" fill="#D22630"/>
<path d="M158.7 341.2V343.5H154.5V341.2H158.7ZM168.1 341.2V343.5H164V341.2H168.1ZM153.8 346.2V348.8H149.6V346L153.8 346.2ZM163.2 346.2V348.8H159.5V346L163.2 346.2ZM173.1 346.2V348.8H168.9V346L173.1 346.2ZM158.3 351V353.7H154.5V351H158.3ZM168.1 351V353.7H164V351H168.1Z" fill="#383739"/>
<path d="M158 341.6H155V343.1H158V341.6ZM167.8 341.6H164.4V343.1H167.8V341.6ZM153.4 346.5H149.6V348H153.4V346.5ZM162.9 346.5H159.5V348H163.2L162.9 346.5ZM172.7 346.5H168.9V348H172.7V346.5ZM157.9 351.5H154.9V353.3H157.9V351.5ZM167.8 351.5H164.4V353.3H167.8V351.5Z" fill="white"/>
<path d="M108.8 408.8L144.8 390H177.6L213.5 408.8V440.6L177.5 460.2H144.7L108.8 440.6V408.8Z" fill="#383739"/>
<path d="M145.1 390L109.2 408.8V440.6L145.1 459.5H177.6L213.1 440.5V409.2L177.6 390.3L145.1 390ZM145.5 392.6H176.8L210.8 410.7V439.1L176.8 457.2H145.5L111.5 439.1V410.7L145.5 392.6Z" fill="#00843D"/>
<path d="M161.3 424.7V456.8H176.8L210.5 438.7V425.1H161.3V393H145.5L112.2 410.7V424.7H161.3Z" fill="#FFC72C"/>
<path d="M161 424.7V456.8H145.9L111.9 438.7V425.1H161.3V393H176.8L210.5 410.7V424.7H161Z" fill="white"/>
<path d="M164.4 455V445.9L161.4 447.8L158.4 445.8V454.9H148.9L155.3 450.4V443.6L145.5 437.6H139V411.9H145.4L155.2 405.9V399.4L148.8 394.9H158.6V403.9L161.6 402L164.6 404V394.9H173.7L167.7 399.4V405.8L177.1 411.8H183.9V437.6H177.1L167.7 443.6V450.4L173.7 454.9L164.4 455Z" fill="#383739"/>
<path d="M164.7 395.2V404.7L161.3 402.8V405.4L176.1 414.9H181V424.7H183.3V412H176.8L167 406V398.7L172.3 395H164.7V395.2ZM139.4 425.1V437.1H145.9L155.7 443.6V450.4L150 454.6H157.6V445L161.3 447V444.3L146.3 434.8H141.7V425L139.4 425.1Z" fill="#FFC72C"/>
<path d="M150 395.2L155.7 399V406.2L145.9 412.2H139.4V424.7H141.7V415H146.2L161.3 405.5V402.9L157.6 404.8V395.3L150 395.2ZM181 425.1V434.9H176L161.3 444.4V447L164.7 445.1V454.6H172.3L167 450.8V443.6L176.8 437.2H183.3V425L181 425.1Z" fill="white"/>
<path d="M142 434.5H146.6L161.3 444L176.1 434.5H180.6V415H176.1L161 406L146.6 415H142.1L142 434.5Z" fill="#D22630"/>
<path d="M171.5 429.6H174.5V428.1H172.3V425.5H177.3V432.3H172.3V436.8H162.5V430H167V433H165.1V434.2H169.7V431.5L150.7 420.2H147.7V421.7H150.4V424.3H145V417.5H150V412.6H159.7V419.4H155.6V416.8H157.1V415.6H152.6V417.9L171.5 429.6ZM169.7 418.3V415.6H165V416.8H167V419.4H162.4V412.6H172.2V417.6H177.5V424.3H172.5V421.7H174.8V420.2H171.8L153 431.5V434.2H157.6V433H156V430H160.5V436.8H150.3V432.3H145.3V425.5H150.7V428.1H147.3V429.6H150.7L169.7 418.3Z" fill="#383739"/>
<path d="M170 431.5V434.5H164.7V432.6H166.7V430.4H162.9V436.4H171.9V432H176.9V426H172.7V427.8H174.9V430.1H171.2L152.2 418.4V415.4H157.6V417.3H156V419.1H159.7V413.1H150.3V418.1H145.3V424.1H149.9V422.1H147.3V419.9H151L170 431.5ZM171.2 420.2H174.9V422.1H172.7V424H176.8V418H172V413H163V419H166.7V417.2H164.8V415.2H170.1V418.2L151.2 429.6H147.5V427.7H150.1V425.8H145.6V431.8H150.5V436.4H159.9V430.8H156.2V433H157.7V435H152.4V431.9L171.2 420.2Z" fill="white"/>
<path d="M203 426.6V436.4H199V432.6H194.5V436.4H190V427H194.5V430.4H198.7V426.6H203ZM187.8 439.8V449.7H183.6V446.3H179.1V450H175V439.8H179.2V443.6H183.7V439.8H187.8ZM202.9 423.2V413.4H199.1V416.8H194.6V413H190.1V423.2H194.6V419.4H198.8V423.2H202.9ZM119.4 426.6V436.4H123.6V432.6H128.5V436.4H132.3V427H128V430.4H123.5V426.6H119.4ZM119.4 423.2V413.4H123.6V416.8H128.5V413H132.3V423.2H128V419.4H123.5V423.2H119.4ZM187.8 410V399.8H183.6V403.6H179.1V399.8H175V410H179.2V406.2H183.7V410H187.8ZM134.9 439.8V449.7H138.7V446.3H143.6V450H147.4V439.8H143.6V443.6H139V439.8H134.9ZM134.9 409.6V399.8H138.7V403.6H143.6V399.8H147.4V410H143.6V406.2H139V410L134.9 409.6ZM190.4 402.8V410.4H204L190.4 402.8ZM132.3 446.6V439.1H117.9L132.3 446.6ZM132.3 402.8V410.4H117.9L132.3 402.8ZM190.4 446.6V439.1H204L190.4 446.6Z" fill="#383739"/>
<path d="M199.1 432.6V436.4H202.9V427H199.1V430.4H194.2V426.6H190.4V436.1H194.2V432.3L199.1 432.6ZM184.1 445.9V449.7H187.4V440.2H183.6V444H178.7V440.2H175.3V449.2H179.1V446L184.1 445.9ZM199.1 417.2V413.4H202.9V422.8H199.1V419H194.2V422.8H190.4V413.8H194.2V417.2H199.1ZM123.6 432.2V436.1H119.8V427H123.6V430.4H128.5V426.6H131.9V436.1H128V432.3L123.6 432.2ZM123.6 417.2V413.4H119.8V422.8H123.6V419H128.5V422.8H131.9V413.8H128V417.2H123.6ZM184 403.9V400.2H187.4V409.6H183.6V405.8H178.7V409.6H175.3V400.2H179.1V403.9H184ZM138.7 445.9V449.7H134.9V440.2H138.7V444H143.6V440.2H147.4V449.2H143.6V446L138.7 445.9ZM138.7 403.9V400.2H134.9V409.6H138.7V405.8H143.6V409.6H147.4V400.2H143.6V403.9H138.7Z" fill="#D22630"/>
<path d="M190.8 403.6V410H203L190.8 403.6ZM119.4 439.5L131.9 446.3V439.5H119.4Z" fill="#FFC72C"/>
<path d="M131.9 403.6L119.4 410H132.3L131.9 403.6ZM190.9 439.5V446.3L202.9 439.5H190.9Z" fill="white"/>
<path d="M219.2 452.7C218.4 455.7 216.2 458 215.4 461C214.6 458 213.4 455.3 214.2 452C214.6 449.3 216.9 447.4 217.2 445.1C219.5 447.1 219.9 450.1 219.2 452.7ZM219.9 465.1C217.958 467.713 215.375 469.779 212.4 471.1C212.7 468.5 211.6 467.1 210.4 465.1C209 462.9 208.2 461 209.7 458.3C210.156 459.648 210.795 460.927 211.6 462.1C213.1 463.6 213.9 465.1 213.9 467.4C215.311 466.219 216.352 464.657 216.9 462.9C218.243 460.616 220.224 458.774 222.6 457.6C221.8 460.2 221.4 462.9 219.9 465.1ZM208.9 472.7L209.7 477.2L214.2 473.5C216.2 472.3 218.4 470.8 220.2 468.9C220.154 470.387 219.77 471.845 219.077 473.162C218.384 474.478 217.4 475.62 216.2 476.5C213.5 478.4 210.1 479.5 207.8 481.4C207.8 478.7 207.1 476.4 206.3 473.8C205.955 472.632 205.911 471.396 206.173 470.207C206.436 469.017 206.995 467.914 207.8 467L208.9 472.7ZM202.9 482.5C202.5 484.5 201 486.3 199.9 488.2C202.9 487.4 205.2 485.5 207.4 484.4C210.8 482.5 214.2 481.8 216.9 479.5C215.4 484.5 211.9 487.1 207.1 489C203.7 490 201.1 489.3 196.9 491.2C197.34 488.317 198.217 485.519 199.5 482.9L202.2 477.2C202.9 478.7 203.7 480.6 202.9 482.5ZM192.7 490.1C191.751 491.73 190.453 493.13 188.9 494.2C192.7 494.2 196.1 492 200.3 492C202.5 492 204.8 492.7 207.1 492C204.1 494.2 201.1 495.8 197.6 496.5C193.1 496.9 188.9 495.8 183.6 496.5C185.9 494.6 187.4 492.7 188.6 490.1C190.8 487.1 192.3 484.8 196.1 484.4C194.6 485.9 193.8 488.2 192.3 490.1H192.7ZM178.3 496.9C185.5 498 192.3 499.5 199.5 499.5C191.874 502.497 183.422 502.639 175.7 499.9C172.363 498.411 168.754 497.628 165.1 497.6C160.2 498 154.5 499.9 148.1 506.7L145.5 504.8C149.941 500.96 155.231 498.232 160.934 496.841C166.638 495.45 172.59 495.436 178.3 496.8V496.9Z" fill="#FFC72C"/>
</g>
<defs>
<clipPath id="clip0_2_10598">
<rect width="512" height="512" fill="white"/>
</clipPath>
</defs>
</svg>
