<svg width="512" height="512" viewBox="0 0 512 512" fill="none" xmlns="http://www.w3.org/2000/svg">
<g clip-path="url(#clip0_2_10782)">
<path d="M0 0H512V512H0V0Z" fill="#E70013"/>
<path d="M256 135C224.174 134.867 193.599 147.383 171.001 169.794C148.403 192.204 135.633 222.674 135.5 254.5C135.367 286.326 147.883 316.901 170.294 339.499C192.704 362.097 223.174 374.867 255 375C286.959 375 317.608 362.304 340.206 339.706C362.805 317.108 375.5 286.459 375.5 254.5C375.5 222.541 362.805 191.892 340.206 169.294C317.608 146.696 286.959 134 255 134L256 135ZM328 309C316.74 324.232 300.96 335.524 282.909 341.266C264.857 347.008 245.454 346.907 227.463 340.98C209.472 335.052 193.81 323.598 182.707 308.25C171.605 292.902 165.628 274.443 165.628 255.5C165.628 236.557 171.605 218.098 182.707 202.75C193.81 187.402 209.472 175.948 227.463 170.02C245.454 164.093 264.857 163.992 282.909 169.734C300.96 175.476 316.74 186.768 328 202C317.657 192.684 304.834 186.567 291.086 184.388C277.337 182.209 263.252 184.062 250.535 189.723C237.818 195.384 227.014 204.61 219.433 216.284C211.851 227.958 207.816 241.58 207.816 255.5C207.816 269.42 211.851 283.042 219.433 294.716C227.014 306.39 237.818 315.616 250.535 321.277C263.252 326.938 277.337 328.791 291.086 326.612C304.834 324.433 317.657 318.316 328 309ZM323.3 287.3L285.9 275.2L262.8 307V267.7L225.5 255.5L262.8 243.3V203.9L285.9 235.8L323.3 223.7L300.2 255.5L323.3 287.3Z" fill="white"/>
</g>
<defs>
<clipPath id="clip0_2_10782">
<rect width="512" height="512" fill="white"/>
</clipPath>
</defs>
</svg>
