<svg width="512" height="512" viewBox="0 0 512 512" fill="none" xmlns="http://www.w3.org/2000/svg">
<g clip-path="url(#clip0_2_10803)">
<path d="M0 0H512V512H0V0Z" fill="#009FCA"/>
<path fill-rule="evenodd" clip-rule="evenodd" d="M478 226.3L485.1 246.7L466.7 234.1L448.2 246.7L455.3 226.3L436.8 213.7H459.7L466.7 193.3L473.7 213.7H496.5L478 226.3ZM420.8 389.1L427.8 409.5L409.4 396.8L391 409.5L398 389.1L379.6 376.4H402.4L409.4 356L416.4 376.5H439.3L420.8 389.1ZM478.1 352.2L485.1 372.6L466.7 360L448.2 372.6L455.3 352.2L436.8 339.6H459.7L466.7 319.2L473.7 339.6H496.5L478.1 352.2ZM231.9 470.2L239 490.7L220.6 478L202.1 490.7L209.2 470.3L190.7 457.7H213.5L220.5 437.3L227.6 457.7H250.4L231.9 470.2ZM275 381.8L268 361.4L286.4 374L304.8 361.4L297.8 381.8L316.2 394.4H293.4L286.4 414.8L279.4 394.4H256.6L275 381.8ZM342.3 288.8L335.2 268.4L353.6 281L372.1 268.4L365.1 288.8L383.5 301.4H360.7L353.7 321.8L346.7 301.4H323.8L342.3 288.8ZM398.8 269.5L391.8 249.1L410.2 261.7L428.6 249.1L421.6 269.5L440 282.1H417.2L410.2 302.5L403.2 282.1H380.3L398.8 269.5ZM342.3 430.5L335.2 410.1L353.6 422.7L372.1 410.1L365.1 430.5L383.5 443.1H360.7L353.7 463.5L346.7 443.1H323.8L342.3 430.5ZM275 446.9L268 426.5L286.4 439.1L304.8 426.5L297.8 446.9L316.2 459.5H293.4L286.4 479.9L279.4 459.5H256.6L275 446.9Z" fill="#FFF40D"/>
<path d="M0 0H256V256H0V0Z" fill="#012169"/>
<path d="M256 0V32L161 128L256 221.5V256H222.5L127 162L34 256H0V222L93 128.5L0 37V0H31L127 94L220 0H256Z" fill="white"/>
<path d="M92 162L97.5 179L21 256H0V254.5L92 162ZM154 156L181 160L256 233.5V256L154 156ZM256 0L160 98L158 76L233 0H256ZM0 0.5L96.5 95L67 91L0 24.5V0.5Z" fill="#C8102E"/>
<path d="M88 0V256H168V0H88ZM0 88V168H256V88H0Z" fill="white"/>
<path d="M0 104V152H256V104H0ZM104 0V256H152V0H104Z" fill="#C8102E"/>
</g>
<defs>
<clipPath id="clip0_2_10803">
<rect width="512" height="512" fill="white"/>
</clipPath>
</defs>
</svg>
