<svg width="512" height="512" viewBox="0 0 512 512" fill="none" xmlns="http://www.w3.org/2000/svg">
<g clip-path="url(#clip0_2_10811)">
<mask id="mask0_2_10811" style="mask-type:luminance" maskUnits="userSpaceOnUse" x="0" y="0" width="512" height="512">
<path d="M0 0H512V512H0V0Z" fill="white"/>
</mask>
<g mask="url(#mask0_2_10811)">
<path d="M0 0H768V512H0V0Z" fill="#FF0000"/>
<path d="M0 0H384V256H0V0Z" fill="#000095"/>
<path d="M164.3 135.4L161.6 145.6L171.7 148.3L169.7 140.9L164.3 135.4ZM214.3 140.9L212.3 148.3L222.4 145.6L219.7 135.4L214.3 140.9ZM169.7 115.1L164.3 120.6L166.3 128L169.7 115.1Z" fill="white"/>
<path d="M166.3 128L164.3 135.4L169.7 140.9L166.3 128Z" fill="white"/>
<path d="M164.3 120.6L156.9 128L164.3 135.4L166.3 128L164.3 120.6ZM179.1 150.3L184.6 155.7L192 153.7L179.1 150.3ZM199.4 155.7L209.6 158.4L212.3 148.3L204.9 150.3L199.4 155.7Z" fill="white"/>
<path d="M204.9 150.3L212.3 148.3L214.3 140.9L204.9 150.3ZM171.7 148.3L174.4 158.4L184.6 155.7L179.1 150.3L171.7 148.3ZM192 153.7L199.4 155.7L204.9 150.3L192 153.7Z" fill="white"/>
<path d="M184.6 155.7L192 163.1L199.4 155.7L192 153.7L184.6 155.7ZM171.7 107.7L161.6 110.4L164.3 120.6L169.7 115.1L171.7 107.7ZM169.7 140.9L171.7 148.3L179.1 150.3L169.7 140.9ZM217.7 128L219.7 120.6L214.3 115.1L217.7 128Z" fill="white"/>
<path d="M179.1 105.7L171.7 107.7L169.7 115.1L179.1 105.7ZM214.3 115.1L212.3 107.7L204.9 105.7L214.3 115.1ZM219.7 135.4L227.1 128L219.7 120.6L217.7 128L219.7 135.4Z" fill="white"/>
<path d="M214.3 115.1L204.9 105.7L192 102.3L179.1 105.7L169.7 115.1L166.3 128L169.7 140.9L179.1 150.3L192 153.7L204.9 150.3L214.3 140.9L217.7 128L214.3 115.1Z" fill="white"/>
<path d="M214.3 140.9L219.7 135.4L217.7 128L214.3 140.9ZM219.7 120.6L222.4 110.4L212.3 107.7L214.3 115.1L219.7 120.6ZM212.3 107.7L209.6 97.6001L199.4 100.3L204.9 105.7L212.3 107.7ZM184.6 100.3L174.4 97.6001L171.7 107.7L179.1 105.7L184.6 100.3Z" fill="white"/>
<path d="M192 102.3L184.6 100.3L179.1 105.7L192 102.3Z" fill="white"/>
<path d="M199.4 100.3L192 92.8999L184.6 100.3L192 102.3L199.4 100.3Z" fill="white"/>
<path d="M204.9 105.7L199.4 100.3L192 102.3L204.9 105.7ZM184.6 155.7L174.4 158.4L179.1 176L192 163.1L184.6 155.7ZM179.1 176L192 224L204.9 176L192 163.1L179.1 176ZM171.7 148.3L161.6 145.6L156.9 163.1L174.4 158.4L171.7 148.3Z" fill="white"/>
<path d="M156.9 163.1L144 211.1L179.1 176L174.4 158.4L156.9 163.1ZM144 140.9L108.9 176L156.9 163.1L161.6 145.6L144 140.9Z" fill="white"/>
<path d="M164.3 135.4L156.9 128L144 140.9L161.6 145.6L164.3 135.4ZM164.3 120.6L161.6 110.4L144 115.1L156.9 128L164.3 120.6Z" fill="white"/>
<path d="M144 115.1L96 128L144 140.9L156.9 128L144 115.1ZM240 140.9L222.4 145.6L227.1 163.1L275.1 176L240 140.9Z" fill="white"/>
<path d="M212.3 148.3L209.6 158.4L227.1 163.1L222.4 145.6L212.3 148.3ZM199.4 155.7L192 163.1L204.9 176L209.6 158.4L199.4 155.7ZM219.7 135.4L222.4 145.6L240 140.9L227.1 128L219.7 135.4ZM204.9 176L240 211.1L227.1 163.1L209.6 158.4L204.9 176ZM212.3 107.7L222.4 110.4L227.1 92.8999L209.6 97.5999L212.3 107.7ZM240 115.1L275.1 79.9999L227.1 92.8999L222.4 110.4L240 115.1ZM227.1 92.8999L240 44.8999L204.9 79.9999L209.6 97.5999L227.1 92.8999ZM240 140.9L288 128L240 115.1L227.1 128L240 140.9Z" fill="white"/>
<path d="M219.7 120.6L227.1 128L240 115.1L222.4 110.4L219.7 120.6ZM179.1 79.9999L144 44.8999L156.9 92.8999L174.4 97.5999L179.1 79.9999ZM171.7 107.7L174.4 97.5999L156.9 92.8999L161.6 110.4L171.7 107.7Z" fill="white"/>
<path d="M156.9 92.9L108.9 80L144 115.1L161.6 110.4L156.9 92.9ZM199.4 100.3L209.6 97.6L204.9 80L192 92.9L199.4 100.3Z" fill="white"/>
<path d="M204.9 80L192 32L179.1 80L192 92.9L204.9 80Z" fill="white"/>
<path d="M184.6 100.3L192 92.9L179.1 80L174.4 97.6L184.6 100.3Z" fill="white"/>
<path d="M192 182.4C222.044 182.4 246.4 158.044 246.4 128C246.4 97.9558 222.044 73.6001 192 73.6001C161.956 73.6001 137.6 97.9558 137.6 128C137.6 158.044 161.956 182.4 192 182.4Z" fill="#000095"/>
<path d="M192 176C218.51 176 240 154.51 240 128C240 101.49 218.51 80 192 80C165.49 80 144 101.49 144 128C144 154.51 165.49 176 192 176Z" fill="white"/>
</g>
</g>
<defs>
<clipPath id="clip0_2_10811">
<rect width="512" height="512" fill="white"/>
</clipPath>
</defs>
</svg>
