<svg width="512" height="512" viewBox="0 0 512 512" fill="none" xmlns="http://www.w3.org/2000/svg">
<g clip-path="url(#clip0_2_10854)">
<mask id="mask0_2_10854" style="mask-type:luminance" maskUnits="userSpaceOnUse" x="-1" y="0" width="513" height="512">
<path d="M-0.0195312 0H511.902V511.922H-0.0195312V0Z" fill="white"/>
</mask>
<g mask="url(#mask0_2_10854)">
<path fill-rule="evenodd" clip-rule="evenodd" d="M-128 341.315H639.882V426.67H-128V341.315Z" fill="#FFE700"/>
<path fill-rule="evenodd" clip-rule="evenodd" d="M-128 255.961H639.882V341.316H-128V255.961Z" fill="#000001"/>
<path fill-rule="evenodd" clip-rule="evenodd" d="M-128 170.709H639.882V255.961H-128V170.709Z" fill="#DE3908"/>
<path fill-rule="evenodd" clip-rule="evenodd" d="M-128 85.3547H639.882V170.709H-128V85.3547Z" fill="#FFE700"/>
<path fill-rule="evenodd" clip-rule="evenodd" d="M-128 0H639.882V85.3547H-128V0Z" fill="#000001"/>
<path fill-rule="evenodd" clip-rule="evenodd" d="M335.723 255.961C335.723 277.106 327.323 297.386 312.37 312.338C297.418 327.29 277.139 335.69 255.993 335.69C234.847 335.69 214.568 327.29 199.615 312.338C184.663 297.386 176.263 277.106 176.263 255.961C176.263 234.815 184.663 214.535 199.615 199.583C214.568 184.631 234.847 176.231 255.993 176.231C277.139 176.231 297.418 184.631 312.37 199.583C327.323 214.535 335.723 234.815 335.723 255.961Z" fill="#FFFDFF" stroke="black" stroke-width="0.92889"/>
<path fill-rule="evenodd" clip-rule="evenodd" d="M241.905 194.86L236.744 185.365C238.808 183.301 242.111 181.856 247.478 181.856L246.962 192.177L241.905 194.86Z" fill="#DE3108" stroke="black" stroke-width="0.92889"/>
<path fill-rule="evenodd" clip-rule="evenodd" d="M246.962 192.384L247.581 181.856C247.581 181.856 258.315 181.237 264.095 188.152L258.418 196.409L246.962 192.384Z" fill="#FFE700" stroke="black" stroke-width="0.92889"/>
<path fill-rule="evenodd" clip-rule="evenodd" d="M258.625 196.305L263.888 188.049C267.398 191.764 268.843 194.448 269.462 198.37C269.462 198.576 261.102 200.434 261.102 200.434L258.625 196.305Z" fill="#DE3108" stroke="black" stroke-width="0.92889"/>
<path fill-rule="evenodd" clip-rule="evenodd" d="M244.588 331.201C244.588 331.201 254.496 319.848 273.693 322.222C270.803 317.577 261.411 318.093 261.411 318.093C261.411 318.093 258.521 296.006 260.792 294.974C263.063 293.942 272.661 294.974 272.661 294.974C274.003 294.974 276.17 291.568 274.416 289.401C272.661 287.233 267.604 278.873 269.668 277.222C271.732 275.571 283.085 278.151 283.085 278.151L251.09 237.073C251.09 237.073 247.788 221.592 254.393 214.264C262.237 207.659 261.411 200.64 261.205 200.744C260.173 193.519 249.232 188.358 241.801 194.964C237.467 200.227 240.356 204.253 240.356 204.253C240.356 204.253 229.003 207.349 228.487 209.413C228.074 211.271 241.389 209 241.389 209L240.15 218.083C240.15 218.083 214.141 241.821 233.957 262.153C234.267 262.153 234.68 261.225 234.68 261.225C234.68 261.225 241.698 269.894 249.026 271.752C255.941 278.873 255.219 277.738 255.219 277.738C255.219 277.738 256.664 288.885 255.322 291.155C248.06 290.256 240.719 290.187 233.441 290.949C231.068 291.672 221.985 291.259 224.152 306.018L227.455 298.483C227.455 298.483 227.249 303.85 229.416 305.708C229.003 300.135 231.48 296.316 231.48 296.316C231.48 296.316 231.893 302.509 233.338 303.334C234.68 304.366 234.68 293.426 242.214 294.252C249.749 295.284 255.219 294.974 255.219 294.974C255.219 294.974 257.696 316.235 256.87 318.3C251.503 316.958 238.499 318.816 237.673 322.118C245.311 321.602 248.82 322.531 248.82 322.531C248.82 322.531 242.627 328.001 244.588 331.201Z" fill="black" stroke="black" stroke-width="0.82568" stroke-linecap="round" stroke-linejoin="round"/>
<path fill-rule="evenodd" clip-rule="evenodd" d="M247.684 214.677C247.684 214.677 228.694 235.525 236.847 251.523C237.363 249.252 237.157 247.91 237.363 248.014C236.951 247.704 239.737 249.871 239.428 249.459C239.634 248.323 238.705 245.846 238.705 245.846L241.182 246.465L239.737 243.679L243.35 244.195C243.35 244.195 242.111 240.686 242.524 240.686C243.523 240.739 244.52 240.808 245.517 240.892C240.15 231.294 245.207 223.346 247.581 214.78L247.684 214.677Z" fill="#9CA69C" stroke="#9CA69C" stroke-width="0.82568" stroke-linecap="round" stroke-linejoin="round"/>
<path fill-rule="evenodd" clip-rule="evenodd" d="M254.187 196.925C254.187 196.925 255.219 204.15 251.297 206.214C250.677 206.627 248.2 207.452 248.51 208.897C249.026 210.858 250.058 210.445 251.606 210.136C255.735 209.413 260.482 200.64 254.187 196.925Z" fill="#9CA69C" stroke="#9CA69C" stroke-width="0.92889"/>
<path fill-rule="evenodd" clip-rule="evenodd" d="M247.168 203.014C247.168 203.425 247.005 203.818 246.715 204.109C246.425 204.399 246.031 204.562 245.62 204.562C245.21 204.562 244.816 204.399 244.525 204.109C244.235 203.818 244.072 203.425 244.072 203.014C244.072 202.603 244.235 202.21 244.525 201.919C244.816 201.629 245.21 201.466 245.62 201.466C246.031 201.466 246.425 201.629 246.715 201.919C247.005 202.21 247.168 202.603 247.168 203.014Z" fill="white"/>
<path fill-rule="evenodd" clip-rule="evenodd" d="M241.079 209C240.047 209.826 234.886 215.296 240.047 217.257C245.414 215.812 243.866 214.883 245.104 213.644C245.104 211.271 242.421 210.548 241.079 209Z" fill="#DE3108" stroke="black" stroke-width="0.92889"/>
<path fill-rule="evenodd" clip-rule="evenodd" d="M252.535 260.502C252.226 261.74 251.09 266.075 252.742 269.378C257.283 267.52 259.347 268.036 260.895 269.068C257.18 265.972 255.735 264.837 252.535 260.502Z" fill="#9CA69C" stroke="#9CA69C" stroke-width="0.82568" stroke-linecap="round" stroke-linejoin="round"/>
<path fill-rule="evenodd" clip-rule="evenodd" d="M260.379 281.144L260.586 291.259C260.586 291.259 264.198 291.981 265.746 291.259C267.397 290.639 265.746 284.24 260.379 281.144Z" fill="white" stroke="white" stroke-width="0.82568" stroke-linecap="round" stroke-linejoin="round"/>
<path fill-rule="evenodd" clip-rule="evenodd" d="M286.079 282.382C286.079 282.382 279.473 266.591 262.856 262.566C246.24 258.541 248.304 240.892 249.645 239.757C250.368 238.209 250.884 235.835 255.735 238.105C260.586 240.376 282.673 251.523 285.872 252.039C289.072 252.555 286.285 282.795 286.079 282.382Z" fill="#9CA69C" stroke="black" stroke-width="0.92889"/>
<path fill-rule="evenodd" clip-rule="evenodd" d="M270.184 262.566C269.875 262.669 292.478 275.88 285.666 287.233C292.168 283.002 290.001 275.468 290.001 275.468C290.001 275.468 295.264 289.194 282.466 295.903C283.911 297.142 284.737 296.832 284.737 296.832L282.673 298.999C282.673 298.999 281.641 300.651 290.207 296.522C287.833 298.38 287.627 299.722 287.627 299.722C287.627 299.722 288.349 301.58 293.923 296.626C291.703 298.809 289.824 301.314 288.349 304.057C300.734 302.921 327.363 263.082 279.989 251.316L282.053 253.587L270.184 262.566Z" fill="#DE3108" stroke="black" stroke-width="0.82568" stroke-linejoin="round"/>
<path fill-rule="evenodd" clip-rule="evenodd" d="M271.113 258.644C274.209 260.709 275.242 261.534 275.654 262.566C272.868 261.947 270.287 262.154 270.287 262.154C270.287 262.154 264.301 256.374 263.166 255.961C262.34 255.961 257.593 252.865 257.593 252.865C255.219 251.729 253.051 243.576 261.721 245.95C270.804 250.181 272.042 250.491 272.042 250.491L282.776 253.897L288.969 260.812C288.969 260.812 277.925 255.342 276.583 255.238C279.68 257.715 281.331 261.018 281.331 261.018C277.822 259.986 274.829 259.16 271.113 258.644Z" fill="white" stroke="black" stroke-width="0.82568" stroke-linecap="round" stroke-linejoin="round"/>
<path d="M228.384 209.826C228.384 209.826 238.911 207.349 240.15 207.762" stroke="white" stroke-width="0.82568" stroke-linecap="round"/>
<path fill-rule="evenodd" clip-rule="evenodd" d="M-128 426.67H639.882V512.025H-128V426.67Z" fill="#DE3908"/>
</g>
</g>
<defs>
<clipPath id="clip0_2_10854">
<rect width="512" height="512" fill="white"/>
</clipPath>
</defs>
</svg>
