<svg width="512" height="512" viewBox="0 0 512 512" fill="none" xmlns="http://www.w3.org/2000/svg">
<g clip-path="url(#clip0_2_10957)">
<path d="M0 341.3H512V512H0V341.3Z" fill="#1EB53A"/>
<path d="M0 0H512V170.7H0V0Z" fill="#0099B5"/>
<path d="M0 163.8H512V348.2H0V163.8Z" fill="#CE1126"/>
<path d="M0 174H512V338H0V174Z" fill="white"/>
<path d="M143.4 143.3C177.31 143.3 204.8 115.81 204.8 81.9C204.8 47.9897 177.31 20.5 143.4 20.5C109.49 20.5 82 47.9897 82 81.9C82 115.81 109.49 143.3 143.4 143.3Z" fill="white"/>
<path d="M163.8 143.3C197.71 143.3 225.2 115.81 225.2 81.9C225.2 47.9897 197.71 20.5 163.8 20.5C129.89 20.5 102.4 47.9897 102.4 81.9C102.4 115.81 129.89 143.3 163.8 143.3Z" fill="#0099B5"/>
<path d="M278.501 118.712L274.609 130.386L280.549 132.434" fill="white"/>
<path d="M278.5 118.712L282.392 130.386L276.452 132.434" fill="white"/>
<path d="M290.187 127.203L277.883 127.109L277.77 133.391" fill="white"/>
<path d="M290.187 127.203L280.287 134.511L276.504 129.495" fill="white"/>
<path d="M266.814 127.203L276.714 134.511L280.497 129.495" fill="white"/>
<path d="M266.814 127.203L279.118 127.109L279.231 133.391" fill="white"/>
<path d="M285.723 140.941L282.01 129.21L276.001 131.044" fill="white"/>
<path d="M285.723 140.941L275.714 133.784L279.315 128.636" fill="white"/>
<path d="M271.278 140.941L281.287 133.784L277.686 128.636" fill="white"/>
<path d="M271.278 140.941L274.991 129.21L281 131.044" fill="white"/>
<path d="M278.501 69.5601L274.609 81.2337L280.549 83.2817" fill="white"/>
<path d="M278.5 69.5601L282.392 81.2337L276.452 83.2817" fill="white"/>
<path d="M290.187 78.0508L277.883 77.9574L277.77 84.2388" fill="white"/>
<path d="M290.187 78.051L280.287 85.359L276.504 80.3434" fill="white"/>
<path d="M266.814 78.051L276.714 85.359L280.497 80.3434" fill="white"/>
<path d="M266.814 78.0508L279.118 77.9574L279.231 84.2388" fill="white"/>
<path d="M285.723 91.7891L282.01 80.0578L276.001 81.8919" fill="white"/>
<path d="M285.723 91.7892L275.714 84.6323L279.315 79.4844" fill="white"/>
<path d="M271.278 91.7892L281.287 84.6323L277.686 79.4844" fill="white"/>
<path d="M271.278 91.7891L274.991 80.0578L281 81.8919" fill="white"/>
<path d="M278.501 20.408L274.609 32.0816L280.549 34.1296" fill="white"/>
<path d="M278.5 20.408L282.392 32.0816L276.452 34.1296" fill="white"/>
<path d="M290.187 28.8987L277.883 28.8053L277.77 35.0867" fill="white"/>
<path d="M290.187 28.8989L280.287 36.207L276.504 31.1913" fill="white"/>
<path d="M266.814 28.8989L276.714 36.207L280.497 31.1913" fill="white"/>
<path d="M266.814 28.8987L279.118 28.8053L279.231 35.0867" fill="white"/>
<path d="M285.723 42.637L282.01 30.9057L276.001 32.7398" fill="white"/>
<path d="M285.723 42.6371L275.714 35.4802L279.315 30.3323" fill="white"/>
<path d="M271.278 42.6371L281.287 35.4802L277.686 30.3323" fill="white"/>
<path d="M271.278 42.637L274.991 30.9057L281 32.7398" fill="white"/>
<path d="M327.652 118.712L323.761 130.386L329.7 132.434" fill="white"/>
<path d="M327.652 118.712L331.543 130.386L325.604 132.434" fill="white"/>
<path d="M339.339 127.203L327.034 127.109L326.922 133.391" fill="white"/>
<path d="M339.339 127.203L329.439 134.511L325.656 129.495" fill="white"/>
<path d="M315.966 127.203L325.865 134.511L329.649 129.495" fill="white"/>
<path d="M315.966 127.203L328.27 127.109L328.383 133.391" fill="white"/>
<path d="M334.875 140.941L331.161 129.21L325.153 131.044" fill="white"/>
<path d="M334.875 140.941L324.865 133.784L328.467 128.636" fill="white"/>
<path d="M320.43 140.941L330.439 133.784L326.838 128.636" fill="white"/>
<path d="M320.43 140.941L324.143 129.21L330.152 131.044" fill="white"/>
<path d="M327.652 69.5601L323.761 81.2337L329.7 83.2817" fill="white"/>
<path d="M327.652 69.5601L331.543 81.2337L325.604 83.2817" fill="white"/>
<path d="M339.339 78.0508L327.034 77.9574L326.922 84.2388" fill="white"/>
<path d="M339.339 78.051L329.439 85.359L325.656 80.3434" fill="white"/>
<path d="M315.966 78.051L325.865 85.359L329.649 80.3434" fill="white"/>
<path d="M315.966 78.0508L328.27 77.9574L328.383 84.2388" fill="white"/>
<path d="M334.875 91.7891L331.161 80.0578L325.153 81.8919" fill="white"/>
<path d="M334.875 91.7892L324.865 84.6323L328.467 79.4844" fill="white"/>
<path d="M320.43 91.7892L330.439 84.6323L326.838 79.4844" fill="white"/>
<path d="M320.43 91.7891L324.143 80.0578L330.152 81.8919" fill="white"/>
<path d="M327.652 20.408L323.761 32.0816L329.7 34.1296" fill="white"/>
<path d="M327.652 20.408L331.543 32.0816L325.604 34.1296" fill="white"/>
<path d="M339.339 28.8987L327.034 28.8053L326.922 35.0867" fill="white"/>
<path d="M339.339 28.8989L329.439 36.207L325.656 31.1913" fill="white"/>
<path d="M315.966 28.8989L325.865 36.207L329.649 31.1913" fill="white"/>
<path d="M315.966 28.8987L328.27 28.8053L328.383 35.0867" fill="white"/>
<path d="M334.875 42.637L331.161 30.9057L325.153 32.7398" fill="white"/>
<path d="M334.875 42.6371L324.865 35.4802L328.467 30.3323" fill="white"/>
<path d="M320.43 42.6371L330.439 35.4802L326.838 30.3323" fill="white"/>
<path d="M320.43 42.637L324.143 30.9057L330.152 32.7398" fill="white"/>
<path d="M376.804 118.712L372.913 130.386L378.852 132.434" fill="white"/>
<path d="M376.804 118.712L380.695 130.386L374.756 132.434" fill="white"/>
<path d="M388.491 127.203L376.186 127.109L376.074 133.391" fill="white"/>
<path d="M388.491 127.203L378.591 134.511L374.808 129.495" fill="white"/>
<path d="M365.117 127.203L375.017 134.511L378.8 129.495" fill="white"/>
<path d="M365.117 127.203L377.422 127.109L377.535 133.391" fill="white"/>
<path d="M384.027 140.941L380.313 129.21L374.305 131.044" fill="white"/>
<path d="M384.027 140.941L374.017 133.784L377.618 128.636" fill="white"/>
<path d="M369.581 140.941L379.591 133.784L375.99 128.636" fill="white"/>
<path d="M369.582 140.941L373.295 129.21L379.304 131.044" fill="white"/>
<path d="M376.804 69.5601L372.913 81.2337L378.852 83.2817" fill="white"/>
<path d="M376.804 69.5601L380.695 81.2337L374.756 83.2817" fill="white"/>
<path d="M388.491 78.0508L376.186 77.9574L376.074 84.2388" fill="white"/>
<path d="M388.491 78.051L378.591 85.359L374.808 80.3434" fill="white"/>
<path d="M365.117 78.051L375.017 85.359L378.8 80.3434" fill="white"/>
<path d="M365.117 78.0508L377.422 77.9574L377.535 84.2388" fill="white"/>
<path d="M384.027 91.7891L380.313 80.0578L374.305 81.8919" fill="white"/>
<path d="M384.027 91.7892L374.017 84.6323L377.618 79.4844" fill="white"/>
<path d="M369.581 91.7892L379.591 84.6323L375.99 79.4844" fill="white"/>
<path d="M369.582 91.7891L373.295 80.0578L379.304 81.8919" fill="white"/>
<path d="M376.804 20.408L372.913 32.0816L378.852 34.1296" fill="white"/>
<path d="M376.804 20.408L380.695 32.0816L374.756 34.1296" fill="white"/>
<path d="M388.491 28.8987L376.186 28.8053L376.074 35.0867" fill="white"/>
<path d="M388.491 28.8989L378.591 36.207L374.808 31.1913" fill="white"/>
<path d="M365.117 28.8989L375.017 36.207L378.8 31.1913" fill="white"/>
<path d="M365.117 28.8987L377.422 28.8053L377.535 35.0867" fill="white"/>
<path d="M384.027 42.637L380.313 30.9057L374.305 32.7398" fill="white"/>
<path d="M384.027 42.6371L374.017 35.4802L377.618 30.3323" fill="white"/>
<path d="M369.581 42.6371L379.591 35.4802L375.99 30.3323" fill="white"/>
<path d="M369.582 42.637L373.295 30.9057L379.304 32.7398" fill="white"/>
<path d="M180.196 118.712L176.305 130.386L182.244 132.434" fill="white"/>
<path d="M180.196 118.712L184.087 130.386L178.148 132.434" fill="white"/>
<path d="M191.883 127.203L179.578 127.109L179.466 133.391" fill="white"/>
<path d="M191.883 127.203L181.983 134.511L178.2 129.495" fill="white"/>
<path d="M168.51 127.203L178.409 134.511L182.192 129.495" fill="white"/>
<path d="M168.509 127.203L180.814 127.109L180.927 133.391" fill="white"/>
<path d="M187.419 140.941L183.705 129.21L177.697 131.044" fill="white"/>
<path d="M187.419 140.941L177.409 133.784L181.011 128.636" fill="white"/>
<path d="M172.974 140.941L182.983 133.784L179.382 128.636" fill="white"/>
<path d="M172.974 140.941L176.687 129.21L182.696 131.044" fill="white"/>
<path d="M229.348 118.712L225.457 130.386L231.396 132.434" fill="white"/>
<path d="M229.348 118.712L233.239 130.386L227.3 132.434" fill="white"/>
<path d="M241.035 127.203L228.73 127.109L228.618 133.391" fill="white"/>
<path d="M241.035 127.203L231.135 134.511L227.352 129.495" fill="white"/>
<path d="M217.661 127.203L227.561 134.511L231.344 129.495" fill="white"/>
<path d="M217.661 127.203L229.966 127.109L230.078 133.391" fill="white"/>
<path d="M236.571 140.941L232.857 129.21L226.848 131.044" fill="white"/>
<path d="M236.571 140.941L226.561 133.784L230.162 128.636" fill="white"/>
<path d="M222.125 140.941L232.135 133.784L228.534 128.636" fill="white"/>
<path d="M222.126 140.941L225.839 129.21L231.848 131.044" fill="white"/>
<path d="M229.348 69.5601L225.457 81.2337L231.396 83.2817" fill="white"/>
<path d="M229.348 69.5601L233.239 81.2337L227.3 83.2817" fill="white"/>
<path d="M241.035 78.0508L228.73 77.9574L228.618 84.2388" fill="white"/>
<path d="M241.035 78.051L231.135 85.359L227.352 80.3434" fill="white"/>
<path d="M217.661 78.051L227.561 85.359L231.344 80.3434" fill="white"/>
<path d="M217.661 78.0508L229.966 77.9574L230.078 84.2388" fill="white"/>
<path d="M236.571 91.7891L232.857 80.0578L226.848 81.8919" fill="white"/>
<path d="M236.571 91.7892L226.561 84.6323L230.162 79.4844" fill="white"/>
<path d="M222.125 91.7892L232.135 84.6323L228.534 79.4844" fill="white"/>
<path d="M222.126 91.7891L225.839 80.0578L231.848 81.8919" fill="white"/>
</g>
<defs>
<clipPath id="clip0_2_10957">
<rect width="512" height="512" fill="white"/>
</clipPath>
</defs>
</svg>
