<svg width="512" height="512" viewBox="0 0 512 512" fill="none" xmlns="http://www.w3.org/2000/svg">
<g clip-path="url(#clip0_2_11397)">
<path d="M0 0H512V512H0V0Z" fill="#CF142B"/>
<path d="M0 0H512V341.3H0V0Z" fill="#00247D"/>
<path d="M0 0H512V170.7H0V0Z" fill="#FFCC00"/>
<path d="M286.665 186.192L276.81 205.242L287.904 211.096L286.665 186.192Z" fill="white"/>
<path d="M286.665 186.192L289.41 207.464L276.983 209.17L286.665 186.192Z" fill="white"/>
<path d="M304.079 204.225L282.916 200.739L280.777 213.099L304.079 204.225Z" fill="white"/>
<path d="M304.079 204.225L284.697 213.409L279.234 202.118L304.079 204.225Z" fill="white"/>
<path d="M264.133 197.181L279.205 212.441L288.201 203.699L264.133 197.181Z" fill="white"/>
<path d="M264.133 197.181L285.212 201.144L282.995 213.49L264.133 197.181Z" fill="white"/>
<path d="M292.31 226.36L289.086 205.155L276.67 206.94L292.31 226.36Z" fill="white"/>
<path d="M292.31 226.36L277.586 210.764L286.636 202.079L292.31 226.36Z" fill="white"/>
<path d="M267.622 222.006L286.792 212.387L281.258 201.131L267.622 222.006Z" fill="white"/>
<path d="M267.622 222.006L277.904 203.183L288.961 209.107L267.622 222.006Z" fill="white"/>
<path d="M343.733 206.962L327.956 221.493L336.379 230.788L343.733 206.962Z" fill="white"/>
<path d="M343.733 206.962L339.037 227.89L326.776 225.244L343.733 206.962Z" fill="white"/>
<path d="M353.929 229.864L335.235 219.35L328.997 230.233L353.929 229.864Z" fill="white"/>
<path d="M353.929 229.864L332.574 231.866L331.303 219.387L353.929 229.864Z" fill="white"/>
<path d="M318.801 209.583L327.745 229.077L339.188 223.939L318.801 209.583Z" fill="white"/>
<path d="M318.801 209.583L337.253 220.516L330.947 231.359L318.801 209.583Z" fill="white"/>
<path d="M335.299 246.639L339.522 225.61L327.244 223.041L335.299 246.639Z" fill="white"/>
<path d="M335.299 246.639L326.797 226.948L338.272 221.882L335.299 246.639Z" fill="white"/>
<path d="M313.589 234.104L334.893 231.622L333.542 219.151L313.589 234.104Z" fill="white"/>
<path d="M313.589 234.104L329.689 219.933L338.052 229.281L313.589 234.104Z" fill="white"/>
<path d="M390.254 245.999L370.46 254.257L375.195 265.873L390.254 245.999Z" fill="white"/>
<path d="M390.254 245.999L378.684 264.059L368.067 257.378L390.254 245.999Z" fill="white"/>
<path d="M392.003 271.007L378.032 254.733L368.448 262.826L392.003 271.007Z" fill="white"/>
<path d="M392.003 271.007L371.252 265.584L374.325 253.422L392.003 271.007Z" fill="white"/>
<path d="M365.93 239.935L367.667 261.312L380.178 260.398L365.93 239.935Z" fill="white"/>
<path d="M365.93 239.935L379.531 256.519L369.896 264.552L365.93 239.935Z" fill="white"/>
<path d="M368.759 280.398L379.92 262.082L369.261 255.468L368.759 280.398Z" fill="white"/>
<path d="M368.759 280.398L367.505 258.987L380.021 258.151L368.759 280.398Z" fill="white"/>
<path d="M352.645 261.194L373.514 266.148L376.51 253.967L352.645 261.194Z" fill="white"/>
<path d="M352.645 261.194L372.621 253.384L377.283 265.03L352.645 261.194Z" fill="white"/>
<path d="M420.619 298.593L399.194 299.583L399.671 312.118L420.619 298.593Z" fill="white"/>
<path d="M420.619 298.593L403.57 311.607L395.879 301.698L420.619 298.593Z" fill="white"/>
<path d="M413.709 322.691L406.147 302.62L394.373 306.948L413.709 322.691Z" fill="white"/>
<path d="M413.709 322.691L396.064 310.498L403.111 300.121L413.709 322.691Z" fill="white"/>
<path d="M399.836 284.575L394.157 305.257L406.226 308.677L399.836 284.575Z" fill="white"/>
<path d="M399.836 284.574L406.944 304.811L395.144 309.064L399.836 284.574Z" fill="white"/>
<path d="M388.656 323.566L405.407 310.171L397.653 300.311L388.656 323.566Z" fill="white"/>
<path d="M388.656 323.566L394.8 303.017L406.846 306.512L388.656 323.566Z" fill="white"/>
<path d="M380.082 300.009L397.997 311.802L404.979 301.38L380.082 300.009Z" fill="white"/>
<path d="M380.081 300.009L401.524 299.502L401.922 312.04L380.081 300.009Z" fill="white"/>
<path d="M91.9807 298.592L109.03 311.606L116.721 301.697L91.9807 298.592Z" fill="white"/>
<path d="M91.9806 298.592L113.406 299.582L112.929 312.117L91.9806 298.592Z" fill="white"/>
<path d="M112.764 284.574L105.656 304.81L117.457 309.063L112.764 284.574Z" fill="white"/>
<path d="M112.764 284.574L118.443 305.257L106.374 308.676L112.764 284.574Z" fill="white"/>
<path d="M98.8906 322.69L116.536 310.497L109.488 300.12L98.8906 322.69Z" fill="white"/>
<path d="M98.8905 322.69L106.453 302.619L118.227 306.947L98.8905 322.69Z" fill="white"/>
<path d="M132.519 300.008L111.076 299.501L110.678 312.039L132.519 300.008Z" fill="white"/>
<path d="M132.518 300.008L114.603 311.801L107.621 301.379L132.518 300.008Z" fill="white"/>
<path d="M123.944 323.565L117.8 303.016L105.754 306.511L123.944 323.565Z" fill="white"/>
<path d="M123.944 323.565L107.193 310.171L114.947 300.31L123.944 323.565Z" fill="white"/>
<path d="M122.346 245.999L133.916 264.059L144.532 257.378L122.346 245.999Z" fill="white"/>
<path d="M122.346 245.998L142.14 254.257L137.405 265.872L122.346 245.998Z" fill="white"/>
<path d="M146.67 239.934L133.069 256.518L142.704 264.551L146.67 239.934Z" fill="white"/>
<path d="M146.67 239.934L144.933 261.311L132.422 260.397L146.67 239.934Z" fill="white"/>
<path d="M120.597 271.007L141.348 265.584L138.275 253.422L120.597 271.007Z" fill="white"/>
<path d="M120.597 271.007L134.568 254.733L144.152 262.826L120.597 271.007Z" fill="white"/>
<path d="M159.955 261.193L139.979 253.383L135.317 265.029L159.955 261.193Z" fill="white"/>
<path d="M159.955 261.193L139.086 266.147L136.09 253.966L159.955 261.193Z" fill="white"/>
<path d="M143.841 280.397L145.095 258.986L132.579 258.15L143.841 280.397Z" fill="white"/>
<path d="M143.841 280.397L132.68 262.081L143.339 255.467L143.841 280.397Z" fill="white"/>
<path d="M168.868 206.962L173.563 227.89L185.824 225.244L168.868 206.962Z" fill="white"/>
<path d="M168.868 206.962L184.644 221.493L176.221 230.788L168.868 206.962Z" fill="white"/>
<path d="M193.799 209.583L175.347 220.516L181.653 231.359L193.799 209.583Z" fill="white"/>
<path d="M193.799 209.583L184.855 229.077L173.412 223.939L193.799 209.583Z" fill="white"/>
<path d="M158.671 229.864L180.026 231.865L181.297 219.386L158.671 229.864Z" fill="white"/>
<path d="M158.671 229.864L177.365 219.35L183.603 230.233L158.671 229.864Z" fill="white"/>
<path d="M199.011 234.104L182.911 219.933L174.547 229.281L199.011 234.104Z" fill="white"/>
<path d="M199.011 234.104L177.707 231.622L179.058 219.151L199.011 234.104Z" fill="white"/>
<path d="M177.301 246.638L185.803 226.947L174.328 221.882L177.301 246.638Z" fill="white"/>
<path d="M177.301 246.638L173.078 225.61L185.356 223.041L177.301 246.638Z" fill="white"/>
<path d="M225.935 186.191L223.19 207.463L235.617 209.169L225.935 186.191Z" fill="white"/>
<path d="M225.935 186.191L235.79 205.241L224.696 211.095L225.935 186.191Z" fill="white"/>
<path d="M248.467 197.18L227.388 201.143L229.605 213.489L248.467 197.18Z" fill="white"/>
<path d="M248.467 197.18L233.395 212.44L224.399 203.698L248.467 197.18Z" fill="white"/>
<path d="M208.521 204.224L227.903 213.409L233.366 202.117L208.521 204.224Z" fill="white"/>
<path d="M208.521 204.224L229.684 200.738L231.823 213.098L208.521 204.224Z" fill="white"/>
<path d="M244.978 222.006L234.696 203.183L223.639 209.107L244.978 222.006Z" fill="white"/>
<path d="M244.978 222.006L225.808 212.387L231.342 201.13L244.978 222.006Z" fill="white"/>
<path d="M220.29 226.359L235.014 210.763L225.964 202.078L220.29 226.359Z" fill="white"/>
<path d="M220.29 226.359L223.514 205.155L235.93 206.94L220.29 226.359Z" fill="white"/>
</g>
<defs>
<clipPath id="clip0_2_11397">
<rect width="512" height="512" fill="white"/>
</clipPath>
</defs>
</svg>
