<svg width="512" height="512" viewBox="0 0 512 512" fill="none" xmlns="http://www.w3.org/2000/svg">
<g clip-path="url(#clip0_2_11551)">
<path d="M0 0H512V512H0V0Z" fill="#000066"/>
<path d="M290.954 124.691L475.957 124.026L475.587 288.785C475.587 288.785 482.089 313.906 398.01 351.955C428.228 348.852 461.18 316.639 461.18 316.639C461.18 316.639 474.553 299.425 481.129 309.029C487.63 318.634 493.763 323.51 498.565 327.278C503.367 330.973 507.135 341.316 499.969 348.852C492.728 356.462 481.424 357.423 478.321 348.187C473.519 350.626 444.039 386.311 383.603 388.01C322.132 386.976 288.516 347.818 288.516 347.818C288.516 347.818 280.315 360.895 268.567 350.626C257.263 337.179 265.834 328.608 265.834 328.608C265.834 328.608 275.438 323.141 278.246 319.373C282.679 314.201 284.083 307.33 291.545 307.33C300.559 308.069 303.957 315.236 303.957 315.236C303.957 315.236 334.84 347.818 368.162 351.955C293.022 315.901 290.215 293.588 290.584 288.121L290.954 124.691Z" fill="white"/>
<path d="M295.387 129.198L471.819 128.164V286.716C472.189 307.404 437.464 328.313 383.234 355.058C327.304 326.244 295.017 308.734 294.722 286.347L295.387 129.198Z" fill="#006129" stroke="black" stroke-width="1.40378"/>
<path d="M319.399 152.619L329.742 137.325L340.308 152.693" stroke="#FFC72C" stroke-width="1.40378"/>
<path d="M331.885 146.856C331.885 147.405 331.667 147.931 331.279 148.319C330.891 148.707 330.365 148.925 329.816 148.925C329.268 148.925 328.741 148.707 328.353 148.319C327.966 147.931 327.748 147.405 327.748 146.856C327.748 146.308 327.966 145.781 328.353 145.394C328.741 145.006 329.268 144.788 329.816 144.788C330.365 144.788 330.891 145.006 331.279 145.394C331.667 145.781 331.885 146.308 331.885 146.856Z" fill="#FFC72C" stroke="black" stroke-width="0.664947"/>
<path d="M321.32 163.923H337.5C337.5 163.923 337.722 161.855 335.801 160.599C344.297 159.417 342.081 152.028 349.1 151.585C350.577 151.807 345.406 154.762 345.406 154.762C345.406 154.762 341.194 157.717 343.189 159.269C344.667 160.525 345.406 158.53 345.553 157.052C345.775 155.575 352.425 154.614 351.464 150.403C349.912 146.93 340.603 152.767 340.603 152.767L333.954 152.693C333.51 151.954 331.737 148.999 329.816 148.999C327.6 148.999 325.974 152.693 325.974 152.693H310.976C310.976 152.693 310.459 156.609 318.069 157.348C319.768 159.564 321.098 160.155 322.65 160.746C321.615 161.559 321.32 162.594 321.32 163.923ZM322.502 160.673H335.949Z" fill="#FFC72C"/>
<path d="M322.502 160.673H335.949M321.32 163.923H337.5C337.5 163.923 337.722 161.855 335.801 160.599C344.297 159.417 342.081 152.028 349.1 151.585C350.577 151.807 345.406 154.762 345.406 154.762C345.406 154.762 341.194 157.717 343.189 159.269C344.667 160.525 345.406 158.53 345.553 157.052C345.775 155.575 352.425 154.614 351.464 150.403C349.912 146.93 340.603 152.767 340.603 152.767L333.954 152.693C333.51 151.954 331.737 148.999 329.816 148.999C327.6 148.999 325.974 152.693 325.974 152.693H310.976C310.976 152.693 310.459 156.609 318.069 157.348C319.768 159.564 321.098 160.155 322.65 160.746C321.615 161.559 321.32 162.594 321.32 163.923Z" stroke="black" stroke-width="0.664947"/>
<path d="M316.37 152.767C316.37 152.767 317.404 159.047 322.428 160.525Z" fill="#FFC72C"/>
<path d="M316.37 152.767C316.37 152.767 317.404 159.047 322.428 160.525" stroke="black" stroke-width="0.664947"/>
<path d="M315.557 152.619C316 150.255 316.961 149.811 317.921 146.708C318.069 143.753 315.557 144.122 316.296 142.275C317.626 140.133 316.961 138.138 314.449 136.586C314.966 139.32 311.198 141.906 311.198 144.122C311.198 146.339 313.119 145.896 312.897 149.294C313.045 151.215 312.38 150.772 312.158 152.619H315.557Z" fill="url(#paint0_linear_2_11551)" stroke="black" stroke-width="0.664947"/>
<path d="M331.737 137.769C331.737 138.278 331.535 138.767 331.175 139.127C330.814 139.487 330.326 139.69 329.816 139.69C329.307 139.69 328.818 139.487 328.458 139.127C328.098 138.767 327.895 138.278 327.895 137.769C327.895 137.259 328.098 136.771 328.458 136.41C328.818 136.05 329.307 135.848 329.816 135.848C330.326 135.848 330.814 136.05 331.175 136.41C331.535 136.771 331.737 137.259 331.737 137.769Z" fill="#FFC72C" stroke="black" stroke-width="0.664947"/>
<path d="M318.808 183.133L329.151 167.839L339.717 183.207" stroke="#FFC72C" stroke-width="1.40378"/>
<path d="M331.294 177.37C331.294 177.919 331.076 178.445 330.688 178.833C330.3 179.221 329.774 179.439 329.225 179.439C328.677 179.439 328.15 179.221 327.762 178.833C327.374 178.445 327.156 177.919 327.156 177.37C327.156 176.821 327.374 176.295 327.762 175.907C328.15 175.519 328.677 175.301 329.225 175.301C329.774 175.301 330.3 175.519 330.688 175.907C331.076 176.295 331.294 176.821 331.294 177.37Z" fill="#FFC72C" stroke="black" stroke-width="0.664947"/>
<path d="M320.729 194.437H336.909C336.909 194.437 337.131 192.368 335.21 191.112C343.706 189.93 341.49 182.542 348.509 182.099C349.986 182.32 344.815 185.276 344.815 185.276C344.815 185.276 340.603 188.231 342.598 189.782C344.076 191.038 344.815 189.044 344.962 187.566C345.184 186.088 351.833 185.128 350.873 180.916C349.321 177.444 340.012 183.281 340.012 183.281L333.363 183.207C332.919 182.468 331.146 179.513 329.225 179.513C327.009 179.513 325.383 183.207 325.383 183.207H310.385C310.385 183.207 309.868 187.123 317.478 187.861C319.177 190.078 320.507 190.669 322.059 191.26C321.024 192.073 320.729 193.107 320.729 194.437ZM321.911 191.186H335.358Z" fill="#FFC72C"/>
<path d="M321.911 191.186H335.358M320.729 194.437H336.909C336.909 194.437 337.131 192.368 335.21 191.112C343.706 189.93 341.49 182.542 348.509 182.099C349.986 182.32 344.815 185.276 344.815 185.276C344.815 185.276 340.603 188.231 342.598 189.782C344.076 191.038 344.815 189.044 344.962 187.566C345.184 186.088 351.833 185.128 350.873 180.916C349.321 177.444 340.012 183.281 340.012 183.281L333.363 183.207C332.919 182.468 331.146 179.513 329.225 179.513C327.009 179.513 325.383 183.207 325.383 183.207H310.385C310.385 183.207 309.868 187.123 317.478 187.861C319.177 190.078 320.507 190.669 322.059 191.26C321.024 192.073 320.729 193.107 320.729 194.437Z" stroke="black" stroke-width="0.664947"/>
<path d="M315.779 183.281C315.779 183.281 316.813 189.561 321.837 191.038Z" fill="#FFC72C"/>
<path d="M315.779 183.281C315.779 183.281 316.813 189.561 321.837 191.038" stroke="black" stroke-width="0.664947"/>
<path d="M314.966 183.133C315.409 180.768 316.37 180.325 317.33 177.222C317.478 174.267 314.966 174.636 315.705 172.789C317.034 170.646 316.37 168.652 313.858 167.1C314.375 169.834 310.607 172.42 310.607 174.636C310.607 176.853 312.528 176.409 312.306 179.808C312.454 181.729 311.789 181.286 311.567 183.133H314.966Z" fill="url(#paint1_linear_2_11551)" stroke="black" stroke-width="0.664947"/>
<path d="M331.146 168.282C331.146 168.792 330.944 169.28 330.583 169.641C330.223 170.001 329.735 170.203 329.225 170.203C328.716 170.203 328.227 170.001 327.867 169.641C327.507 169.28 327.304 168.792 327.304 168.282C327.304 167.773 327.507 167.284 327.867 166.924C328.227 166.564 328.716 166.361 329.225 166.361C329.735 166.361 330.223 166.564 330.583 166.924C330.944 167.284 331.146 167.773 331.146 168.282Z" fill="#FFC72C" stroke="black" stroke-width="0.664947"/>
<path d="M318.586 213.203L328.93 197.909L339.495 213.277" stroke="#FFC72C" stroke-width="1.40378"/>
<path d="M331.072 207.44C331.072 207.989 330.854 208.515 330.466 208.903C330.078 209.291 329.552 209.509 329.004 209.509C328.455 209.509 327.929 209.291 327.541 208.903C327.153 208.515 326.935 207.989 326.935 207.44C326.935 206.892 327.153 206.365 327.541 205.977C327.929 205.59 328.455 205.372 329.004 205.372C329.552 205.372 330.078 205.59 330.466 205.977C330.854 206.365 331.072 206.892 331.072 207.44Z" fill="#FFC72C" stroke="black" stroke-width="0.664947"/>
<path d="M320.507 224.507H336.687C336.687 224.507 336.909 222.439 334.988 221.183C343.485 220.001 341.268 212.612 348.287 212.169C349.765 212.391 344.593 215.346 344.593 215.346C344.593 215.346 340.382 218.301 342.376 219.853C343.854 221.109 344.593 219.114 344.741 217.636C344.962 216.159 351.612 215.198 350.651 210.987C349.1 207.514 339.79 213.351 339.79 213.351L333.141 213.277C332.698 212.538 330.925 209.583 329.004 209.583C326.787 209.583 325.162 213.277 325.162 213.277H310.163C310.163 213.277 309.646 217.193 317.256 217.932C318.955 220.148 320.285 220.739 321.837 221.33C320.803 222.143 320.507 223.177 320.507 224.507ZM321.689 221.257H335.136Z" fill="#FFC72C"/>
<path d="M321.689 221.257H335.136M320.507 224.507H336.687C336.687 224.507 336.909 222.439 334.988 221.183C343.485 220.001 341.268 212.612 348.287 212.169C349.765 212.391 344.593 215.346 344.593 215.346C344.593 215.346 340.382 218.301 342.376 219.853C343.854 221.109 344.593 219.114 344.741 217.636C344.962 216.159 351.612 215.198 350.651 210.987C349.1 207.514 339.79 213.351 339.79 213.351L333.141 213.277C332.698 212.538 330.925 209.583 329.004 209.583C326.787 209.583 325.162 213.277 325.162 213.277H310.163C310.163 213.277 309.646 217.193 317.256 217.932C318.955 220.148 320.285 220.739 321.837 221.33C320.803 222.143 320.507 223.177 320.507 224.507Z" stroke="black" stroke-width="0.664947"/>
<path d="M315.557 213.351C315.557 213.351 316.591 219.631 321.615 221.109Z" fill="#FFC72C"/>
<path d="M315.557 213.351C315.557 213.351 316.591 219.631 321.615 221.109" stroke="black" stroke-width="0.664947"/>
<path d="M314.744 213.203C315.187 210.839 316.148 210.395 317.108 207.292C317.256 204.337 314.744 204.706 315.483 202.859C316.813 200.717 316.148 198.722 313.636 197.17C314.153 199.904 310.385 202.49 310.385 204.706C310.385 206.923 312.306 206.48 312.084 209.878C312.232 211.799 311.567 211.356 311.345 213.203H314.744Z" fill="url(#paint2_linear_2_11551)" stroke="black" stroke-width="0.664947"/>
<path d="M330.924 198.353C330.924 198.862 330.722 199.351 330.362 199.711C330.002 200.071 329.513 200.274 329.004 200.274C328.494 200.274 328.005 200.071 327.645 199.711C327.285 199.351 327.083 198.862 327.083 198.353C327.083 197.843 327.285 197.355 327.645 196.994C328.005 196.634 328.494 196.432 329.004 196.432C329.513 196.432 330.002 196.634 330.362 196.994C330.722 197.355 330.924 197.843 330.924 198.353Z" fill="#FFC72C" stroke="black" stroke-width="0.664947"/>
<path d="M338.313 245.785L348.656 230.492L359.222 245.859" stroke="#FFC72C" stroke-width="1.40378"/>
<path d="M350.799 240.023C350.799 240.571 350.581 241.098 350.193 241.486C349.805 241.874 349.279 242.092 348.73 242.092C348.182 242.092 347.655 241.874 347.267 241.486C346.879 241.098 346.661 240.571 346.661 240.023C346.661 239.474 346.879 238.948 347.267 238.56C347.655 238.172 348.182 237.954 348.73 237.954C349.279 237.954 349.805 238.172 350.193 238.56C350.581 238.948 350.799 239.474 350.799 240.023Z" fill="#FFC72C" stroke="black" stroke-width="0.664947"/>
<path d="M340.234 257.09H356.414C356.414 257.09 356.636 255.021 354.715 253.765C363.211 252.583 360.995 245.195 368.014 244.751C369.491 244.973 364.32 247.928 364.32 247.928C364.32 247.928 360.108 250.884 362.103 252.435C363.581 253.691 364.32 251.696 364.467 250.219C364.689 248.741 371.338 247.781 370.378 243.569C368.826 240.097 359.517 245.934 359.517 245.934L352.868 245.86C352.424 245.121 350.651 242.166 348.73 242.166C346.514 242.166 344.888 245.86 344.888 245.86H329.89C329.89 245.86 329.373 249.775 336.983 250.514C338.682 252.731 340.012 253.322 341.564 253.913C340.529 254.726 340.234 255.76 340.234 257.09ZM341.416 253.839H354.863Z" fill="#FFC72C"/>
<path d="M341.416 253.839H354.863M340.234 257.09H356.414C356.414 257.09 356.636 255.021 354.715 253.765C363.211 252.583 360.995 245.195 368.014 244.751C369.491 244.973 364.32 247.928 364.32 247.928C364.32 247.928 360.108 250.884 362.103 252.435C363.581 253.691 364.32 251.696 364.467 250.219C364.689 248.741 371.338 247.781 370.378 243.569C368.826 240.097 359.517 245.934 359.517 245.934L352.868 245.86C352.424 245.121 350.651 242.166 348.73 242.166C346.514 242.166 344.888 245.86 344.888 245.86H329.89C329.89 245.86 329.373 249.775 336.983 250.514C338.682 252.731 340.012 253.322 341.564 253.913C340.529 254.726 340.234 255.76 340.234 257.09Z" stroke="black" stroke-width="0.664947"/>
<path d="M335.284 245.934C335.284 245.934 336.318 252.214 341.342 253.691Z" fill="#FFC72C"/>
<path d="M335.284 245.934C335.284 245.934 336.318 252.214 341.342 253.691" stroke="black" stroke-width="0.664947"/>
<path d="M334.471 245.786C334.914 243.421 335.875 242.978 336.835 239.875C336.983 236.92 334.471 237.289 335.21 235.442C336.54 233.299 335.875 231.304 333.363 229.753C333.88 232.487 330.112 235.073 330.112 237.289C330.112 239.505 332.033 239.062 331.811 242.461C331.959 244.382 331.294 243.938 331.072 245.786H334.471Z" fill="url(#paint3_linear_2_11551)" stroke="black" stroke-width="0.664947"/>
<path d="M350.651 230.935C350.651 231.445 350.449 231.933 350.089 232.293C349.728 232.654 349.24 232.856 348.73 232.856C348.221 232.856 347.732 232.654 347.372 232.293C347.012 231.933 346.809 231.445 346.809 230.935C346.809 230.426 347.012 229.937 347.372 229.577C347.732 229.217 348.221 229.014 348.73 229.014C349.24 229.014 349.728 229.217 350.089 229.577C350.449 229.937 350.651 230.426 350.651 230.935Z" fill="#FFC72C" stroke="black" stroke-width="0.664947"/>
<path d="M316 272.457L326.344 257.164L336.909 272.531" stroke="#FFC72C" stroke-width="1.40378"/>
<path d="M328.486 266.695C328.486 267.243 328.268 267.77 327.88 268.158C327.492 268.545 326.966 268.763 326.418 268.763C325.869 268.763 325.343 268.545 324.955 268.158C324.567 267.77 324.349 267.243 324.349 266.695C324.349 266.146 324.567 265.62 324.955 265.232C325.343 264.844 325.869 264.626 326.418 264.626C326.966 264.626 327.492 264.844 327.88 265.232C328.268 265.62 328.486 266.146 328.486 266.695Z" fill="#FFC72C" stroke="black" stroke-width="0.664947"/>
<path d="M317.921 283.762H334.101C334.101 283.762 334.323 281.693 332.402 280.437C340.899 279.255 338.682 271.867 345.701 271.423C347.179 271.645 342.007 274.6 342.007 274.6C342.007 274.6 337.796 277.556 339.79 279.107C341.268 280.363 342.007 278.368 342.155 276.891C342.376 275.413 349.026 274.453 348.065 270.241C346.514 266.769 337.205 272.605 337.205 272.605L330.555 272.532C330.112 271.793 328.339 268.837 326.418 268.837C324.201 268.837 322.576 272.532 322.576 272.532H307.577C307.577 272.532 307.06 276.447 314.67 277.186C316.37 279.403 317.699 279.994 319.251 280.585C318.217 281.398 317.921 282.432 317.921 283.762ZM319.103 280.511H332.55Z" fill="#FFC72C"/>
<path d="M319.103 280.511H332.55M317.921 283.762H334.101C334.101 283.762 334.323 281.693 332.402 280.437C340.899 279.255 338.682 271.867 345.701 271.423C347.179 271.645 342.007 274.6 342.007 274.6C342.007 274.6 337.796 277.556 339.79 279.107C341.268 280.363 342.007 278.368 342.155 276.891C342.376 275.413 349.026 274.453 348.065 270.241C346.514 266.769 337.205 272.605 337.205 272.605L330.555 272.532C330.112 271.793 328.339 268.837 326.418 268.837C324.201 268.837 322.576 272.532 322.576 272.532H307.577C307.577 272.532 307.06 276.447 314.67 277.186C316.37 279.403 317.699 279.994 319.251 280.585C318.217 281.398 317.921 282.432 317.921 283.762Z" stroke="black" stroke-width="0.664947"/>
<path d="M312.971 272.605C312.971 272.605 314.005 278.886 319.029 280.363Z" fill="#FFC72C"/>
<path d="M312.971 272.605C312.971 272.605 314.005 278.886 319.029 280.363" stroke="black" stroke-width="0.664947"/>
<path d="M312.158 272.457C312.601 270.093 313.562 269.65 314.522 266.547C314.67 263.591 312.158 263.961 312.897 262.114C314.227 259.971 313.562 257.976 311.05 256.425C311.567 259.158 307.799 261.744 307.799 263.961C307.799 266.177 309.72 265.734 309.498 269.133C309.646 271.054 308.981 270.61 308.76 272.457H312.158Z" fill="url(#paint4_linear_2_11551)" stroke="black" stroke-width="0.664947"/>
<path d="M328.339 257.607C328.339 258.116 328.136 258.605 327.776 258.965C327.416 259.326 326.927 259.528 326.418 259.528C325.908 259.528 325.419 259.326 325.059 258.965C324.699 258.605 324.497 258.116 324.497 257.607C324.497 257.098 324.699 256.609 325.059 256.249C325.419 255.888 325.908 255.686 326.418 255.686C326.927 255.686 327.416 255.888 327.776 256.249C328.136 256.609 328.339 257.098 328.339 257.607Z" fill="#FFC72C" stroke="black" stroke-width="0.664947"/>
<path d="M316.591 303.931L326.935 288.638L337.5 304.005" stroke="#FFC72C" stroke-width="1.40378"/>
<path d="M329.077 298.169C329.077 298.717 328.859 299.244 328.471 299.632C328.084 300.02 327.557 300.238 327.009 300.238C326.46 300.238 325.934 300.02 325.546 299.632C325.158 299.244 324.94 298.717 324.94 298.169C324.94 297.62 325.158 297.094 325.546 296.706C325.934 296.318 326.46 296.1 327.009 296.1C327.557 296.1 328.084 296.318 328.471 296.706C328.859 297.094 329.077 297.62 329.077 298.169Z" fill="#FFC72C" stroke="black" stroke-width="0.664947"/>
<path d="M318.512 315.236H334.693C334.693 315.236 334.914 313.167 332.993 311.911C341.49 310.729 339.273 303.341 346.292 302.897C347.77 303.119 342.598 306.074 342.598 306.074C342.598 306.074 338.387 309.03 340.382 310.581C341.859 311.837 342.598 309.842 342.746 308.365C342.967 306.887 349.617 305.927 348.656 301.715C347.105 298.243 337.796 304.08 337.796 304.08L331.146 304.006C330.703 303.267 328.93 300.312 327.009 300.312C324.792 300.312 323.167 304.006 323.167 304.006H308.169C308.169 304.006 307.651 307.921 315.261 308.66C316.961 310.877 318.291 311.468 319.842 312.059C318.808 312.872 318.512 313.906 318.512 315.236ZM319.694 311.985H333.141Z" fill="#FFC72C"/>
<path d="M319.694 311.985H333.141M318.512 315.236H334.693C334.693 315.236 334.914 313.167 332.993 311.911C341.49 310.729 339.273 303.341 346.292 302.897C347.77 303.119 342.598 306.074 342.598 306.074C342.598 306.074 338.387 309.03 340.382 310.581C341.859 311.837 342.598 309.842 342.746 308.365C342.967 306.887 349.617 305.927 348.656 301.715C347.105 298.243 337.796 304.08 337.796 304.08L331.146 304.006C330.703 303.267 328.93 300.312 327.009 300.312C324.792 300.312 323.167 304.006 323.167 304.006H308.169C308.169 304.006 307.651 307.921 315.261 308.66C316.961 310.877 318.291 311.468 319.842 312.059C318.808 312.872 318.512 313.906 318.512 315.236Z" stroke="black" stroke-width="0.664947"/>
<path d="M313.562 304.079C313.562 304.079 314.596 310.359 319.62 311.837Z" fill="#FFC72C"/>
<path d="M313.562 304.079C313.562 304.079 314.596 310.359 319.62 311.837" stroke="black" stroke-width="0.664947"/>
<path d="M312.749 303.932C313.193 301.567 314.153 301.124 315.113 298.021C315.261 295.066 312.749 295.435 313.488 293.588C314.818 291.445 314.153 289.45 311.641 287.899C312.158 290.633 308.39 293.218 308.39 295.435C308.39 297.651 310.311 297.208 310.089 300.607C310.237 302.528 309.572 302.084 309.351 303.932H312.749Z" fill="url(#paint5_linear_2_11551)" stroke="black" stroke-width="0.664947"/>
<path d="M328.93 289.081C328.93 289.591 328.727 290.079 328.367 290.439C328.007 290.8 327.518 291.002 327.009 291.002C326.499 291.002 326.011 290.8 325.65 290.439C325.29 290.079 325.088 289.591 325.088 289.081C325.088 288.572 325.29 288.083 325.65 287.723C326.011 287.363 326.499 287.16 327.009 287.16C327.518 287.16 328.007 287.363 328.367 287.723C328.727 288.083 328.93 288.572 328.93 289.081Z" fill="#FFC72C" stroke="black" stroke-width="0.664947"/>
<path d="M427.49 153.136L437.833 137.842L448.398 153.21" stroke="#FFC72C" stroke-width="1.40378"/>
<path d="M439.976 147.373C439.976 147.922 439.758 148.448 439.37 148.836C438.982 149.224 438.456 149.442 437.907 149.442C437.358 149.442 436.832 149.224 436.444 148.836C436.056 148.448 435.838 147.922 435.838 147.373C435.838 146.825 436.056 146.299 436.444 145.911C436.832 145.523 437.358 145.305 437.907 145.305C438.456 145.305 438.982 145.523 439.37 145.911C439.758 146.299 439.976 146.825 439.976 147.373Z" fill="#FFC72C" stroke="black" stroke-width="0.664947"/>
<path d="M429.411 164.44H445.591C445.591 164.44 445.813 162.372 443.892 161.116C452.388 159.934 450.172 152.545 457.191 152.102C458.668 152.324 453.496 155.279 453.496 155.279C453.496 155.279 449.285 158.234 451.28 159.786C452.758 161.042 453.496 159.047 453.644 157.569C453.866 156.092 460.515 155.131 459.555 150.92C458.003 147.447 448.694 153.284 448.694 153.284L442.045 153.21C441.601 152.471 439.828 149.516 437.907 149.516C435.691 149.516 434.065 153.21 434.065 153.21H419.067C419.067 153.21 418.55 157.126 426.16 157.865C427.859 160.081 429.189 160.672 430.74 161.264C429.706 162.076 429.411 163.111 429.411 164.44ZM430.593 161.19H444.039Z" fill="#FFC72C"/>
<path d="M430.593 161.19H444.039M429.411 164.44H445.591C445.591 164.44 445.813 162.372 443.892 161.116C452.388 159.934 450.172 152.545 457.191 152.102C458.668 152.324 453.496 155.279 453.496 155.279C453.496 155.279 449.285 158.234 451.28 159.786C452.758 161.042 453.496 159.047 453.644 157.569C453.866 156.092 460.515 155.131 459.555 150.92C458.003 147.447 448.694 153.284 448.694 153.284L442.045 153.21C441.601 152.471 439.828 149.516 437.907 149.516C435.691 149.516 434.065 153.21 434.065 153.21H419.067C419.067 153.21 418.55 157.126 426.16 157.865C427.859 160.081 429.189 160.672 430.74 161.264C429.706 162.076 429.411 163.111 429.411 164.44Z" stroke="black" stroke-width="0.664947"/>
<path d="M424.46 153.284C424.46 153.284 425.495 159.564 430.519 161.042Z" fill="#FFC72C"/>
<path d="M424.46 153.284C424.46 153.284 425.495 159.564 430.519 161.042" stroke="black" stroke-width="0.664947"/>
<path d="M423.648 153.136C424.091 150.772 425.051 150.329 426.012 147.225C426.16 144.27 423.648 144.64 424.386 142.793C425.716 140.65 425.051 138.655 422.539 137.104C423.057 139.837 419.289 142.423 419.289 144.64C419.289 146.856 421.21 146.413 420.988 149.811C421.136 151.732 420.471 151.289 420.249 153.136H423.648Z" fill="url(#paint6_linear_2_11551)" stroke="black" stroke-width="0.664947"/>
<path d="M439.828 138.286C439.828 138.795 439.626 139.284 439.265 139.644C438.905 140.004 438.417 140.207 437.907 140.207C437.398 140.207 436.909 140.004 436.549 139.644C436.188 139.284 435.986 138.795 435.986 138.286C435.986 137.776 436.188 137.288 436.549 136.927C436.909 136.567 437.398 136.365 437.907 136.365C438.417 136.365 438.905 136.567 439.265 136.927C439.626 137.288 439.828 137.776 439.828 138.286Z" fill="#FFC72C" stroke="black" stroke-width="0.664947"/>
<path d="M426.455 183.059L436.799 167.765L447.364 183.133" stroke="#FFC72C" stroke-width="1.40378"/>
<path d="M438.941 177.296C438.941 177.845 438.723 178.371 438.335 178.759C437.948 179.147 437.421 179.365 436.873 179.365C436.324 179.365 435.798 179.147 435.41 178.759C435.022 178.371 434.804 177.845 434.804 177.296C434.804 176.748 435.022 176.221 435.41 175.833C435.798 175.445 436.324 175.228 436.873 175.228C437.421 175.228 437.948 175.445 438.335 175.833C438.723 176.221 438.941 176.748 438.941 177.296Z" fill="#FFC72C" stroke="black" stroke-width="0.664947"/>
<path d="M428.376 194.363H444.557C444.557 194.363 444.778 192.295 442.857 191.039C451.354 189.856 449.137 182.468 456.156 182.025C457.634 182.247 452.462 185.202 452.462 185.202C452.462 185.202 448.251 188.157 450.246 189.709C451.723 190.965 452.462 188.97 452.61 187.492C452.831 186.015 459.481 185.054 458.52 180.843C456.969 177.37 447.66 183.207 447.66 183.207L441.01 183.133C440.567 182.394 438.794 179.439 436.873 179.439C434.656 179.439 433.031 183.133 433.031 183.133H418.033C418.033 183.133 417.515 187.049 425.125 187.788C426.825 190.004 428.155 190.595 429.706 191.186C428.672 191.999 428.376 193.033 428.376 194.363ZM429.558 191.112H443.005Z" fill="#FFC72C"/>
<path d="M429.558 191.112H443.005M428.376 194.363H444.557C444.557 194.363 444.778 192.295 442.857 191.039C451.354 189.856 449.137 182.468 456.156 182.025C457.634 182.247 452.462 185.202 452.462 185.202C452.462 185.202 448.251 188.157 450.246 189.709C451.723 190.965 452.462 188.97 452.61 187.492C452.831 186.015 459.481 185.054 458.52 180.843C456.969 177.37 447.66 183.207 447.66 183.207L441.01 183.133C440.567 182.394 438.794 179.439 436.873 179.439C434.656 179.439 433.031 183.133 433.031 183.133H418.033C418.033 183.133 417.515 187.049 425.125 187.788C426.825 190.004 428.155 190.595 429.706 191.186C428.672 191.999 428.376 193.033 428.376 194.363Z" stroke="black" stroke-width="0.664947"/>
<path d="M423.426 183.207C423.426 183.207 424.46 189.487 429.484 190.965Z" fill="#FFC72C"/>
<path d="M423.426 183.207C423.426 183.207 424.46 189.487 429.484 190.965" stroke="black" stroke-width="0.664947"/>
<path d="M422.613 183.059C423.057 180.695 424.017 180.251 424.977 177.148C425.125 174.193 422.613 174.562 423.352 172.715C424.682 170.573 424.017 168.578 421.505 167.026C422.022 169.76 418.254 172.346 418.254 174.562C418.254 176.779 420.175 176.336 419.953 179.734C420.101 181.655 419.436 181.212 419.215 183.059H422.613Z" fill="url(#paint7_linear_2_11551)" stroke="black" stroke-width="0.664947"/>
<path d="M438.794 168.209C438.794 168.718 438.591 169.207 438.231 169.567C437.871 169.927 437.382 170.13 436.873 170.13C436.363 170.13 435.875 169.927 435.514 169.567C435.154 169.207 434.952 168.718 434.952 168.209C434.952 167.699 435.154 167.21 435.514 166.85C435.875 166.49 436.363 166.288 436.873 166.288C437.382 166.288 437.871 166.49 438.231 166.85C438.591 167.21 438.794 167.699 438.794 168.209Z" fill="#FFC72C" stroke="black" stroke-width="0.664947"/>
<path d="M425.125 213.72L435.469 198.426L446.034 213.794" stroke="#FFC72C" stroke-width="1.40378"/>
<path d="M437.611 207.957C437.611 208.506 437.393 209.032 437.006 209.42C436.618 209.808 436.091 210.026 435.543 210.026C434.994 210.026 434.468 209.808 434.08 209.42C433.692 209.032 433.474 208.506 433.474 207.957C433.474 207.409 433.692 206.883 434.08 206.495C434.468 206.107 434.994 205.889 435.543 205.889C436.091 205.889 436.618 206.107 437.006 206.495C437.393 206.883 437.611 207.409 437.611 207.957Z" fill="#FFC72C" stroke="black" stroke-width="0.664947"/>
<path d="M427.046 225.024H443.227C443.227 225.024 443.448 222.956 441.527 221.7C450.024 220.518 447.807 213.129 454.826 212.686C456.304 212.908 451.132 215.863 451.132 215.863C451.132 215.863 446.921 218.818 448.916 220.37C450.393 221.626 451.132 219.631 451.28 218.153C451.501 216.676 458.151 215.715 457.19 211.504C455.639 208.031 446.33 213.868 446.33 213.868L439.68 213.794C439.237 213.055 437.464 210.1 435.543 210.1C433.326 210.1 431.701 213.794 431.701 213.794H416.703C416.703 213.794 416.185 217.71 423.795 218.449C425.495 220.665 426.825 221.256 428.376 221.848C427.342 222.66 427.046 223.695 427.046 225.024ZM428.228 221.774H441.675Z" fill="#FFC72C"/>
<path d="M428.228 221.774H441.675M427.046 225.024H443.227C443.227 225.024 443.448 222.956 441.527 221.7C450.024 220.518 447.807 213.129 454.826 212.686C456.304 212.908 451.132 215.863 451.132 215.863C451.132 215.863 446.921 218.818 448.916 220.37C450.393 221.626 451.132 219.631 451.28 218.153C451.501 216.676 458.151 215.715 457.19 211.504C455.639 208.031 446.33 213.868 446.33 213.868L439.68 213.794C439.237 213.055 437.464 210.1 435.543 210.1C433.326 210.1 431.701 213.794 431.701 213.794H416.703C416.703 213.794 416.185 217.71 423.795 218.449C425.495 220.665 426.825 221.256 428.376 221.848C427.342 222.66 427.046 223.695 427.046 225.024Z" stroke="black" stroke-width="0.664947"/>
<path d="M422.096 213.868C422.096 213.868 423.13 220.148 428.154 221.626Z" fill="#FFC72C"/>
<path d="M422.096 213.868C422.096 213.868 423.13 220.148 428.154 221.626" stroke="black" stroke-width="0.664947"/>
<path d="M421.283 213.72C421.727 211.356 422.687 210.913 423.648 207.809C423.795 204.854 421.283 205.224 422.022 203.376C423.352 201.234 422.687 199.239 420.175 197.688C420.692 200.421 416.924 203.007 416.924 205.224C416.924 207.44 418.845 206.997 418.624 210.395C418.771 212.316 418.106 211.873 417.885 213.72H421.283Z" fill="url(#paint8_linear_2_11551)" stroke="black" stroke-width="0.664947"/>
<path d="M437.464 198.87C437.464 199.379 437.261 199.868 436.901 200.228C436.541 200.588 436.052 200.791 435.543 200.791C435.033 200.791 434.545 200.588 434.184 200.228C433.824 199.868 433.622 199.379 433.622 198.87C433.622 198.36 433.824 197.872 434.184 197.511C434.545 197.151 435.033 196.949 435.543 196.949C436.052 196.949 436.541 197.151 436.901 197.511C437.261 197.872 437.464 198.36 437.464 198.87Z" fill="#FFC72C" stroke="black" stroke-width="0.664947"/>
<path d="M426.677 243.79L437.02 228.497L447.586 243.864" stroke="#FFC72C" stroke-width="1.40378"/>
<path d="M439.163 238.028C439.163 238.576 438.945 239.103 438.557 239.491C438.169 239.878 437.643 240.096 437.094 240.096C436.546 240.096 436.02 239.878 435.632 239.491C435.244 239.103 435.026 238.576 435.026 238.028C435.026 237.479 435.244 236.953 435.632 236.565C436.02 236.177 436.546 235.959 437.094 235.959C437.643 235.959 438.169 236.177 438.557 236.565C438.945 236.953 439.163 237.479 439.163 238.028Z" fill="#FFC72C" stroke="black" stroke-width="0.664947"/>
<path d="M428.598 255.095H444.778C444.778 255.095 445 253.026 443.079 251.77C451.575 250.588 449.359 243.2 456.378 242.756C457.856 242.978 452.684 245.933 452.684 245.933C452.684 245.933 448.472 248.889 450.467 250.44C451.945 251.696 452.684 249.701 452.831 248.224C453.053 246.746 459.703 245.786 458.742 241.574C457.191 238.102 447.881 243.938 447.881 243.938L441.232 243.865C440.789 243.126 439.015 240.17 437.094 240.17C434.878 240.17 433.252 243.865 433.252 243.865H418.254C418.254 243.865 417.737 247.78 425.347 248.519C427.046 250.736 428.376 251.327 429.928 251.918C428.893 252.731 428.598 253.765 428.598 255.095ZM429.78 251.844H443.227Z" fill="#FFC72C"/>
<path d="M429.78 251.844H443.227M428.598 255.095H444.778C444.778 255.095 445 253.026 443.079 251.77C451.575 250.588 449.359 243.2 456.378 242.756C457.856 242.978 452.684 245.933 452.684 245.933C452.684 245.933 448.472 248.889 450.467 250.44C451.945 251.696 452.684 249.701 452.831 248.224C453.053 246.746 459.703 245.786 458.742 241.574C457.191 238.102 447.881 243.938 447.881 243.938L441.232 243.865C440.789 243.126 439.015 240.17 437.094 240.17C434.878 240.17 433.252 243.865 433.252 243.865H418.254C418.254 243.865 417.737 247.78 425.347 248.519C427.046 250.736 428.376 251.327 429.928 251.918C428.893 252.731 428.598 253.765 428.598 255.095Z" stroke="black" stroke-width="0.664947"/>
<path d="M423.648 243.938C423.648 243.938 424.682 250.219 429.706 251.696Z" fill="#FFC72C"/>
<path d="M423.648 243.938C423.648 243.938 424.682 250.219 429.706 251.696" stroke="black" stroke-width="0.664947"/>
<path d="M422.835 243.79C423.278 241.426 424.239 240.983 425.199 237.88C425.347 234.924 422.835 235.294 423.574 233.447C424.904 231.304 424.239 229.309 421.727 227.758C422.244 230.491 418.476 233.077 418.476 235.294C418.476 237.51 420.397 237.067 420.175 240.466C420.323 242.387 419.658 241.943 419.436 243.79H422.835Z" fill="url(#paint9_linear_2_11551)" stroke="black" stroke-width="0.664947"/>
<path d="M439.015 228.94C439.015 229.449 438.813 229.938 438.453 230.298C438.092 230.659 437.604 230.861 437.094 230.861C436.585 230.861 436.096 230.659 435.736 230.298C435.376 229.938 435.173 229.449 435.173 228.94C435.173 228.431 435.376 227.942 435.736 227.582C436.096 227.221 436.585 227.019 437.094 227.019C437.604 227.019 438.092 227.221 438.453 227.582C438.813 227.942 439.015 228.431 439.015 228.94Z" fill="#FFC72C" stroke="black" stroke-width="0.664947"/>
<path d="M426.307 273.935L436.651 258.641L447.216 274.009" stroke="#FFC72C" stroke-width="1.40378"/>
<path d="M438.794 268.172C438.794 268.721 438.576 269.247 438.188 269.635C437.8 270.023 437.274 270.241 436.725 270.241C436.176 270.241 435.65 270.023 435.262 269.635C434.874 269.247 434.656 268.721 434.656 268.172C434.656 267.624 434.874 267.097 435.262 266.709C435.65 266.321 436.176 266.104 436.725 266.104C437.274 266.104 437.8 266.321 438.188 266.709C438.576 267.097 438.794 267.624 438.794 268.172Z" fill="#FFC72C" stroke="black" stroke-width="0.664947"/>
<path d="M428.228 285.239H444.409C444.409 285.239 444.63 283.171 442.71 281.915C451.206 280.732 448.99 273.344 456.008 272.901C457.486 273.122 452.314 276.078 452.314 276.078C452.314 276.078 448.103 279.033 450.098 280.585C451.575 281.841 452.314 279.846 452.462 278.368C452.684 276.891 459.333 275.93 458.373 271.719C456.821 268.246 447.512 274.083 447.512 274.083L440.862 274.009C440.419 273.27 438.646 270.315 436.725 270.315C434.509 270.315 432.883 274.009 432.883 274.009H417.885C417.885 274.009 417.368 277.925 424.978 278.664C426.677 280.88 428.007 281.471 429.558 282.062C428.524 282.875 428.228 283.909 428.228 285.239ZM429.411 281.988H442.857Z" fill="#FFC72C"/>
<path d="M429.411 281.988H442.857M428.228 285.239H444.409C444.409 285.239 444.63 283.171 442.71 281.915C451.206 280.732 448.99 273.344 456.008 272.901C457.486 273.122 452.314 276.078 452.314 276.078C452.314 276.078 448.103 279.033 450.098 280.585C451.575 281.841 452.314 279.846 452.462 278.368C452.684 276.891 459.333 275.93 458.373 271.719C456.821 268.246 447.512 274.083 447.512 274.083L440.862 274.009C440.419 273.27 438.646 270.315 436.725 270.315C434.509 270.315 432.883 274.009 432.883 274.009H417.885C417.885 274.009 417.368 277.925 424.978 278.664C426.677 280.88 428.007 281.471 429.558 282.062C428.524 282.875 428.228 283.909 428.228 285.239Z" stroke="black" stroke-width="0.664947"/>
<path d="M423.278 274.083C423.278 274.083 424.313 280.363 429.337 281.841Z" fill="#FFC72C"/>
<path d="M423.278 274.083C423.278 274.083 424.313 280.363 429.337 281.841" stroke="black" stroke-width="0.664947"/>
<path d="M422.466 273.935C422.909 271.571 423.869 271.127 424.83 268.024C424.978 265.069 422.466 265.438 423.204 263.591C424.534 261.449 423.869 259.454 421.357 257.902C421.874 260.636 418.106 263.222 418.106 265.438C418.106 267.655 420.027 267.212 419.806 270.61C419.954 272.531 419.289 272.088 419.067 273.935H422.466Z" fill="url(#paint10_linear_2_11551)" stroke="black" stroke-width="0.664947"/>
<path d="M438.646 259.085C438.646 259.594 438.443 260.083 438.083 260.443C437.723 260.803 437.234 261.005 436.725 261.005C436.215 261.005 435.727 260.803 435.367 260.443C435.006 260.083 434.804 259.594 434.804 259.085C434.804 258.575 435.006 258.086 435.367 257.726C435.727 257.366 436.215 257.164 436.725 257.164C437.234 257.164 437.723 257.366 438.083 257.726C438.443 258.086 438.646 258.575 438.646 259.085Z" fill="#FFC72C" stroke="black" stroke-width="0.664947"/>
<path d="M426.455 304.227L436.799 288.933L447.364 304.301" stroke="#FFC72C" stroke-width="1.40378"/>
<path d="M438.941 298.464C438.941 299.013 438.723 299.539 438.335 299.927C437.948 300.315 437.421 300.533 436.873 300.533C436.324 300.533 435.798 300.315 435.41 299.927C435.022 299.539 434.804 299.013 434.804 298.464C434.804 297.916 435.022 297.389 435.41 297.001C435.798 296.613 436.324 296.396 436.873 296.396C437.421 296.396 437.948 296.613 438.335 297.001C438.723 297.389 438.941 297.916 438.941 298.464Z" fill="#FFC72C" stroke="black" stroke-width="0.664947"/>
<path d="M428.376 315.531H444.557C444.557 315.531 444.778 313.463 442.857 312.207C451.354 311.024 449.137 303.636 456.156 303.193C457.634 303.414 452.462 306.37 452.462 306.37C452.462 306.37 448.251 309.325 450.246 310.877C451.723 312.133 452.462 310.138 452.61 308.66C452.831 307.183 459.481 306.222 458.52 302.011C456.969 298.538 447.66 304.375 447.66 304.375L441.01 304.301C440.567 303.562 438.794 300.607 436.873 300.607C434.656 300.607 433.031 304.301 433.031 304.301H418.033C418.033 304.301 417.515 308.217 425.125 308.956C426.825 311.172 428.155 311.763 429.706 312.354C428.672 313.167 428.376 314.201 428.376 315.531ZM429.558 312.28H443.005Z" fill="#FFC72C"/>
<path d="M429.558 312.28H443.005M428.376 315.531H444.557C444.557 315.531 444.778 313.463 442.857 312.207C451.354 311.024 449.137 303.636 456.156 303.193C457.634 303.414 452.462 306.37 452.462 306.37C452.462 306.37 448.251 309.325 450.246 310.877C451.723 312.133 452.462 310.138 452.61 308.66C452.831 307.183 459.481 306.222 458.52 302.011C456.969 298.538 447.66 304.375 447.66 304.375L441.01 304.301C440.567 303.562 438.794 300.607 436.873 300.607C434.656 300.607 433.031 304.301 433.031 304.301H418.033C418.033 304.301 417.515 308.217 425.125 308.956C426.825 311.172 428.155 311.763 429.706 312.354C428.672 313.167 428.376 314.201 428.376 315.531Z" stroke="black" stroke-width="0.664947"/>
<path d="M423.426 304.375C423.426 304.375 424.46 310.655 429.484 312.133Z" fill="#FFC72C"/>
<path d="M423.426 304.375C423.426 304.375 424.46 310.655 429.484 312.133" stroke="black" stroke-width="0.664947"/>
<path d="M422.613 304.227C423.057 301.863 424.017 301.419 424.977 298.316C425.125 295.361 422.613 295.73 423.352 293.883C424.682 291.741 424.017 289.746 421.505 288.194C422.022 290.928 418.254 293.514 418.254 295.73C418.254 297.947 420.175 297.504 419.953 300.902C420.101 302.823 419.436 302.38 419.215 304.227H422.613Z" fill="url(#paint11_linear_2_11551)" stroke="black" stroke-width="0.664947"/>
<path d="M438.794 289.377C438.794 289.886 438.591 290.375 438.231 290.735C437.871 291.095 437.382 291.297 436.873 291.297C436.363 291.297 435.875 291.095 435.514 290.735C435.154 290.375 434.952 289.886 434.952 289.377C434.952 288.867 435.154 288.378 435.514 288.018C435.875 287.658 436.363 287.456 436.873 287.456C437.382 287.456 437.871 287.658 438.231 288.018C438.591 288.378 438.794 288.867 438.794 289.377Z" fill="#FFC72C" stroke="black" stroke-width="0.664947"/>
<path d="M394.021 318.486C394.021 318.486 398.232 328.239 403.034 322.18C407.837 316.27 406.137 313.684 406.137 313.684L395.35 307.847L392.173 314.497L394.021 318.486Z" fill="#FFC72C" stroke="black" stroke-width="0.664947"/>
<path d="M403.33 317.23C403.33 317.23 404.069 317.304 404.586 316.27C405.177 315.236 403.33 314.792 402.443 313.61L401.557 315.457L403.33 317.23ZM378.948 314.571L369.491 319.742C369.491 319.742 364.763 320.703 364.467 319.742C364.098 318.856 364.541 318.043 367.053 317.895C369.491 317.821 376.141 311.689 376.141 311.689L378.948 314.645V314.571ZM379.096 146.191L379.392 149.59C379.539 150.772 377.545 153.284 377.471 153.136C377.323 152.989 376.362 153.284 376.51 153.949C376.584 154.688 377.988 154.909 377.988 154.909C377.988 154.909 377.471 157.348 377.988 157.495C378.579 157.569 376.51 160.598 377.988 161.411C379.539 162.224 382.125 163.332 383.307 163.11C384.49 162.815 383.307 167.617 383.307 167.617L379.983 174.636L398.01 172.789L394.316 166.879C394.316 166.879 392.543 165.623 392.986 162.224C393.503 158.899 392.764 143.531 392.764 143.531L379.909 141.758L379.096 146.191ZM375.771 172.937C375.771 172.937 369.935 175.597 370.156 182.837C368.679 189.856 367.866 196.875 367.866 196.875C367.866 196.875 360.921 204.707 358.852 207.588C356.71 210.396 353.533 216.085 352.424 217.636C351.242 219.114 346.662 224.138 346.735 226.059C346.883 227.906 345.701 236.255 350.282 237.141C351.464 237.658 355.232 227.536 355.232 227.536C355.232 227.536 355.454 223.251 354.124 222.365C352.868 221.626 356.931 218.818 356.931 218.818L366.536 211.652C368.309 210.174 373.112 204.854 373.112 204.854L375.771 172.937Z" fill="#FFC6B5" stroke="black" stroke-width="0.664947"/>
<path d="M382.495 167.396C382.495 167.396 383.973 171.533 387.371 170.795C390.77 170.056 394.759 166.953 394.759 166.953C394.759 166.953 397.936 166.805 398.38 167.322C398.823 167.765 406.95 175.597 406.655 178.035C406.433 180.547 402.96 179.808 401.631 181.434C400.375 183.059 398.232 187.197 398.823 190.3C399.414 193.255 401.187 197.245 400.966 198.796C400.744 200.274 399.488 200.791 399.488 201.604C399.488 202.343 400.522 203.82 400.522 205.298C400.522 206.849 399.045 209.066 399.34 210.617C399.562 212.095 399.636 216.528 399.636 216.528L399.34 237.215C399.34 237.215 400.522 237.88 400.596 239.062C400.744 240.171 408.576 274.231 408.576 274.231C408.576 274.231 408.206 275.339 407.393 275.191C406.581 275.043 410.57 280.437 410.644 281.988C410.792 283.466 414.782 295.435 414.634 297.061C414.56 298.686 413.895 302.38 413.6 302.454C413.23 302.602 416.186 309.99 415.668 311.098C415.225 312.28 410.497 312.207 410.497 312.207L409.167 311.911C409.167 311.911 409.241 313.463 408.354 313.61C407.393 313.684 400.522 313.241 400.522 313.241C400.522 313.241 398.528 316.27 397.345 316.196C396.163 316.049 394.612 313.98 394.316 314.275C393.947 314.645 395.351 316.64 395.055 317.231C394.612 317.822 388.701 319.078 387.519 316.27C386.337 313.463 388.258 314.201 387.814 313.61C387.519 313.019 384.859 311.468 383.973 311.911C383.234 312.428 386.115 313.093 385.967 314.275C385.894 315.457 383.382 317.231 382.495 317.231C381.534 317.231 379.318 312.872 375.993 313.315C372.742 313.832 370.674 314.645 370.674 314.645C370.674 314.645 366.758 316.27 365.132 315.901C363.507 315.605 362.768 314.275 362.768 313.61C362.768 312.872 363.95 309.842 363.876 308.882C363.729 307.995 362.768 307.035 362.768 305.631C362.768 304.153 365.502 299.425 365.502 299.425L365.354 277.851C365.354 277.851 362.916 277.851 362.768 276.373C362.694 274.896 366.536 242.313 367.201 240.171L369.27 230.566C369.27 230.566 367.497 231.452 367.349 230.566C367.275 229.827 372.668 211.209 372.668 211.209C372.668 211.209 373.555 201.899 373.555 199.461C373.555 197.023 373.112 193.624 373.112 193.624C373.112 193.624 368.309 191.556 368.162 188.453C367.718 183.502 372.742 180.769 373.333 179.143L375.698 172.494C375.698 172.494 378.284 168.061 382.495 167.396Z" fill="white" stroke="black" stroke-width="0.664947"/>
<path d="M380.722 316.048C380.722 316.048 369.344 321.959 367.718 322.476C366.093 322.919 365.058 320.481 366.684 320.038C368.309 319.521 370.895 319.299 370.895 319.299C370.895 319.299 367.053 316.27 367.201 316.122L372.521 314.201C372.668 314.201 374.146 317.156 375.18 317.009C376.648 316.297 378.035 315.43 379.318 314.423L380.722 316.048Z" fill="#FFC72C" stroke="black" stroke-width="0.664947"/>
<path d="M396.68 319.299C397.789 320.703 398.158 323.067 400.67 321.664C403.108 320.26 399.414 317.674 399.414 317.674L396.68 319.299Z" fill="#FFC6B5" stroke="black" stroke-width="0.664947"/>
<path d="M401.187 319.078C401.187 319.078 402.369 320.038 403.404 318.93C404.438 317.895 401.335 315.679 401.335 315.679L399.783 317.452L401.187 319.078ZM406.211 178.626C406.359 178.626 410.053 190.152 410.57 193.107C411.014 196.062 412.565 207.736 411.974 209.361C411.383 210.987 405.399 218.818 404.734 220.813C403.995 222.808 399.783 230.418 399.783 230.418C399.783 230.418 398.749 237.954 398.306 238.25C397.789 238.619 399.488 240.466 399.34 241.057C399.118 241.796 395.942 245.047 394.538 244.751C393.06 244.382 390.844 242.756 390.844 241.205C390.622 239.727 390.844 234.629 391.952 233.373C392.986 232.043 398.527 219.114 398.823 218.301C399.192 217.415 403.847 207.219 403.995 205.519C404.143 203.746 402.517 199.683 400.892 198.205C397.198 187.344 398.675 180.842 406.211 178.626Z" fill="#FFC6B5" stroke="black" stroke-width="0.664947"/>
<path d="M378.653 145.526C378.653 145.526 381.313 145.896 382.717 145.083C384.12 144.27 385.746 143.901 386.928 145.526C388.11 147.152 388.923 147.004 388.923 147.004C388.923 147.004 387.15 151.437 388.923 151.88C390.622 152.324 391.509 152.324 391.582 152.915C391.73 153.506 390.105 154.762 390.548 155.353C390.991 155.944 391.804 156.609 391.952 157.126C392.026 157.569 390.918 159.564 391.213 160.081C391.582 160.525 392.691 162.372 393.356 162.372C394.095 162.372 393.577 165.327 395.72 164.588C397.789 163.849 397.715 162.002 397.715 162.002C397.715 162.002 399.931 161.707 400.522 159.712C401.039 157.717 402.443 157.2 402.443 157.2C402.443 157.2 405.251 155.722 401.557 153.358C401.557 136.956 390.77 138.729 390.77 138.729C390.77 138.729 389.514 135.774 387.371 136.143C385.302 136.513 385.155 138.951 383.677 138.729C382.125 138.508 381.756 137.473 381.682 137.547C381.534 137.695 380.204 140.059 380.204 140.576C380.204 141.167 376.141 139.837 376.51 142.793C376.88 145.896 378.875 145.748 378.727 145.526H378.653Z" fill="#9C5100" stroke="black" stroke-width="0.664947"/>
<path d="M397.715 171.976C397.715 171.976 387.297 178.626 387.519 180.99M400.079 173.158C400.079 173.158 397.715 175.744 397.567 175.744M403.182 175.966C403.182 175.966 398.01 180.177 398.823 182.837M378.875 171.385C378.875 171.385 377.323 174.562 377.692 175.597C377.988 176.631 380.648 180.621 380.943 183.059C381.313 185.571 380.943 187.27 380.943 187.27M376.141 177.222C376.141 177.222 376.584 180.916 377.323 181.655C378.062 182.394 379.909 185.571 380.131 186.827M375.18 192.811C375.18 192.811 378.283 194.289 381.091 188.452M385.598 184.389C385.524 184.389 383.381 190.078 387.149 192.22C390.844 194.363 393.725 194.067 395.277 193.476C396.976 192.959 398.749 191.851 398.749 191.851M383.972 191.408C383.972 191.408 384.194 199.091 395.572 206.701M384.49 198.648C384.49 198.648 384.342 205.445 388.775 208.475M382.125 190.669C382.125 190.669 378.727 200.791 375.993 201.751M381.091 198.057C381.091 198.057 380.943 205.298 379.983 207.883M379.096 209.657C379.096 209.657 381.387 212.612 383.972 212.316C386.558 212.095 387.667 209.066 389.366 209.509C391.139 210.026 392.765 211.43 396.828 211.06M390.991 214.09C390.991 214.09 390.991 220.074 392.1 220.665C393.134 221.256 392.617 226.724 392.617 226.724M376.732 211.282C376.732 211.282 376.584 216.897 375.919 218.892C375.18 220.887 373.777 224.285 374.072 227.241M369.565 230.492C370.156 230.27 372.151 228.497 372.151 228.497M373.186 229.753C373.186 229.753 368.162 251.327 369.565 264.182M374.368 230.861C374.368 230.861 371.782 246.968 372.964 250.071M373.112 230.344L382.938 231.083M384.342 229.753C384.342 229.753 387.002 231.23 390.77 230.935M383.16 237.658C383.16 237.658 382.716 265.217 381.978 271.349M397.567 243.938C397.567 243.938 400.596 268.172 402.369 270.388M391.73 246.968C391.73 246.968 393.577 268.394 394.686 270.315M365.132 277.777C365.132 277.777 368.826 276.595 372.077 273.122C375.771 278.146 381.534 273.344 381.534 273.344C381.534 273.344 390.4 279.402 394.39 272.605C400.522 276.595 403.551 272.014 403.551 272.014C403.551 272.014 405.768 275.413 407.393 275.043M397.715 277.407C397.715 277.407 402.222 298.833 409.019 304.892" stroke="black" stroke-width="0.664947"/>
<path d="M374.22 275.191C374.22 275.191 374.737 293.071 375.771 305.705M373.333 295.435C373.333 295.435 372.742 307.108 372.077 307.995M366.462 309.103C366.462 309.103 367.718 314.201 374.146 309.473C380.574 304.818 380.722 311.246 380.943 311.911C381.165 312.65 382.199 317.674 384.637 313.462M389.809 306.591C389.809 306.591 388.775 316.935 398.01 309.399C407.246 301.789 408.797 309.251 409.093 311.615M389.957 141.537C389.957 141.537 389.144 146.708 394.612 146.191C393.873 149.073 396.089 149.959 396.089 149.959M400.079 153.136C400.227 153.136 402.591 154.614 400.079 156.535M392.173 157.2C392.173 157.2 393.356 158.677 394.612 158.308C395.941 157.939 398.01 159.564 398.01 159.564C398.01 159.564 399.783 160.155 400.005 159.786M385.007 161.633C385.007 161.633 388.996 163.184 391.656 156.904M377.692 154.983L379.983 155.131M351.686 228.866L351.907 233.964M346.883 228.423C346.883 228.423 350.208 233.964 349.838 236.846" stroke="black" stroke-width="0.664947"/>
<path d="M377.988 157.348H380.131L378.283 158.16M390.991 239.949C390.991 239.949 393.429 239.653 393.356 243.791C394.907 238.619 398.084 238.545 398.084 238.545" stroke="black" stroke-width="0.664947" stroke-linejoin="round"/>
<path d="M380.943 150.772C381.313 150.772 382.569 150.329 382.79 150.698C383.086 150.994 381.387 151.289 380.943 150.772Z" stroke="black" stroke-width="1.25601" stroke-linejoin="round"/>
<path d="M382.569 357.127C413.41 355.666 442.463 342.226 463.544 319.668C463.249 319.373 470.12 309.768 475.587 311.098C481.055 312.502 488.96 328.608 498.565 332.081C503.367 339.617 497.235 346.488 495.166 347.818C493.098 349.222 483.788 352.99 482.459 347.522C481.055 341.981 478.321 343.089 478.321 343.089C478.321 343.089 434.361 385.941 383.603 384.242C331.146 384.538 287.851 343.015 287.851 343.015L284.083 347.153C284.083 347.153 279.945 351.586 277.876 351.29C275.808 350.921 266.868 345.084 266.203 339.247C265.464 333.411 271.67 329.643 271.67 329.643C271.67 329.643 286.816 317.969 288.516 311.837C291.988 308.364 298.49 314.201 298.49 314.201C298.49 314.201 338.313 359.861 382.569 357.053V357.127Z" fill="#FFC72C" stroke="black" stroke-width="1.40378"/>
<path d="M270.71 330.529C270.71 330.529 274.773 329.495 276.251 331.194C277.729 332.893 288.072 343.015 288.072 343.015" stroke="black" stroke-width="1.40378"/>
<path d="M280.019 335.332L275.882 338.361C275.882 338.361 286.225 340.429 283.861 347.227M494.871 330.234C494.871 330.234 492.876 329.125 489.699 331.49C486.448 333.928 478.395 342.941 478.395 342.941" stroke="black" stroke-width="1.40378"/>
<path d="M485.709 335.036L490.142 338.435C490.142 338.435 480.907 339.1 482.902 347.818" stroke="black" stroke-width="1.40378"/>
<path d="M323.019 341.464C322.723 342.203 321.985 341.464 321.394 341.612C319.916 341.612 318.586 342.646 317.256 343.385L303.662 351.291C303.218 351.143 303.292 350.773 303.44 350.404L307.134 333.411C307.282 332.451 307.577 331.195 306.617 330.456C306.248 330.16 306.839 329.643 307.134 330.16L314.079 335.11C313.857 335.775 313.414 335.258 313.045 335.036C312.084 334.076 310.902 334.963 310.976 336.145L308.464 347.301C311.567 345.528 314.67 343.755 317.773 341.834C318.808 341.39 319.62 339.913 318.512 339.026C318.069 338.731 317.33 338.066 318.069 337.918L323.019 341.464ZM327.895 365.107C327.747 365.55 327.526 365.624 327.156 365.328L319.029 360.895C319.103 360.378 319.325 360.304 319.694 360.6C320.433 361.117 321.615 361.339 322.206 360.452L325.162 355.059L329.299 347.523C329.89 346.562 329.225 345.454 328.339 345.084C328.043 344.937 327.6 344.789 327.969 344.493C328.117 344.272 328.56 344.715 328.782 344.789L336.613 349.074C336.54 349.517 336.318 349.591 335.948 349.296C335.21 348.779 334.028 348.557 333.436 349.444L330.481 354.837L326.344 362.373C325.753 363.26 326.418 364.442 327.304 364.811L327.895 365.107ZM359.369 357.718L357.153 363.925C356.192 363.851 356.857 362.669 356.562 362.078C356.415 360.663 355.842 359.326 354.919 358.244C353.995 357.162 352.764 356.386 351.39 356.019C349.174 355.428 346.957 356.536 345.627 358.31C343.698 360.938 342.569 364.068 342.376 367.323C342.309 368.251 342.493 369.18 342.909 370.012C343.325 370.845 343.958 371.549 344.741 372.052C346.043 372.865 347.567 373.253 349.1 373.16L350.651 368.505C350.873 367.471 349.765 366.806 348.952 366.584C348.804 366.289 349.1 365.846 349.469 366.215L357.596 369.17C357.596 370.131 356.414 369.023 355.749 369.466C354.789 369.835 354.715 371.017 354.271 371.904L353.311 374.712C349.617 374.933 345.923 374.194 342.672 372.347C339.643 370.426 337.5 366.658 338.165 362.964C338.608 359.787 340.603 356.832 343.485 355.428C346.144 353.95 349.395 354.024 352.203 355.133C353.68 355.65 355.01 356.61 356.192 357.645C356.931 358.605 358.261 358.605 358.852 357.571L359.369 357.718ZM372.594 378.997C372.594 379.292 372.594 379.662 372.151 379.44L362.842 378.036C362.842 377.667 362.842 377.371 363.285 377.593C364.024 377.741 365.206 377.741 365.502 376.854C365.945 375.598 366.019 374.268 366.241 373.012L367.866 362.225C368.088 361.487 367.866 360.6 367.053 360.304C366.536 360.083 366.093 360.083 365.576 359.935C365.576 359.639 365.576 359.344 366.019 359.492L375.328 360.969C375.328 361.265 375.328 361.56 374.885 361.413C374.146 361.191 373.038 361.265 372.668 362.151C372.225 363.334 372.151 364.664 371.93 365.92L370.304 376.706C370.082 377.445 370.304 378.406 371.191 378.701L372.668 378.997H372.594ZM397.862 372.938L397.493 379.514L380.795 380.327C380.722 379.957 380.795 379.736 381.239 379.81C382.051 379.81 383.16 379.44 383.307 378.48L383.086 373.603L382.569 363.703C382.643 362.743 381.83 362.004 380.869 362.078C380.574 361.93 379.761 362.373 379.835 361.856C379.687 361.413 380.352 361.634 380.574 361.56L389.883 361.043C389.883 361.487 389.883 361.708 389.366 361.634C388.553 361.634 387.445 361.782 387.149 362.816C387.076 364.22 387.223 365.624 387.297 367.028L387.814 377.371C387.814 378.184 388.553 378.997 389.44 378.849C390.77 378.775 392.173 378.849 393.503 378.48C395.35 377.962 396.311 376.115 396.828 374.416C397.197 373.973 396.828 372.791 397.567 372.938H397.862ZM410.792 356.832C410.349 356.832 410.57 357.423 410.423 357.718C409.684 363.26 409.019 368.801 408.206 374.268C408.058 375.524 407.763 376.928 406.581 377.519C406.137 377.741 406.507 378.406 406.95 378.036L412.491 376.337C412.417 375.45 411.309 376.337 410.718 376.115C409.462 376.115 409.24 374.564 409.462 373.603C409.462 372.865 409.61 372.273 409.684 371.609L416.038 369.688C416.85 370.722 417.737 371.682 418.476 372.791C419.067 373.825 417.737 374.268 416.998 374.49C416.555 374.49 416.85 375.229 417.22 374.933L425.569 372.421C425.569 371.461 424.386 372.421 423.869 371.682C422.244 370.574 421.136 368.949 419.88 367.471L410.792 356.832ZM410.792 363.481L415.225 368.875L409.831 370.5L410.792 363.481ZM439.311 344.42L441.749 348.853C441.01 349.591 440.567 348.04 439.902 347.818C439.35 347.336 438.66 347.04 437.93 346.974C437.2 346.907 436.468 347.074 435.838 347.449L434.361 348.261L441.601 361.782C441.971 362.89 443.374 363.112 444.335 362.521C444.63 362.225 445 362.078 445.074 362.595C443.892 363.334 442.488 363.999 441.232 364.663L436.429 367.249C436.06 366.88 436.282 366.658 436.725 366.511C436.986 366.416 437.221 366.262 437.411 366.06C437.601 365.858 437.742 365.615 437.821 365.349C437.9 365.083 437.915 364.802 437.866 364.529C437.817 364.256 437.704 363.999 437.538 363.777L430.371 350.478C429.041 351.217 427.416 351.808 427.046 353.433C426.677 354.542 427.194 355.798 427.194 356.684C426.825 357.127 426.677 356.536 426.455 356.241L424.46 352.399L439.311 344.42ZM450.615 337.696L455.196 343.829C456.23 343.09 457.117 341.908 456.821 340.578C456.969 339.543 455.491 338.361 456.008 337.622C456.304 337.475 456.526 338.213 456.747 338.435L462.067 345.454C461.328 346.193 460.885 344.641 460.146 344.42C459.111 343.681 457.708 343.311 456.599 344.124C455.787 344.42 455.861 344.863 456.378 345.38C457.56 346.932 458.742 348.631 460.072 350.182C460.811 350.921 461.845 350.182 462.51 349.591C464.283 348.409 465.835 346.488 465.761 344.272C465.909 343.237 465.244 342.203 465.244 341.316C465.687 340.799 465.761 341.612 465.983 341.908L468.495 346.341L455.491 356.167C454.974 355.798 455.491 355.502 455.861 355.28C457.043 354.542 456.673 352.99 455.861 352.177L447.438 341.169C446.699 340.208 445.369 340.725 444.704 341.39C444.335 341.834 443.965 341.021 444.483 340.947L456.673 331.712L459.998 336.145C459.259 336.884 458.52 335.184 457.708 335.11C456.082 334.224 454.161 334.889 452.831 335.997L450.541 337.696" fill="black"/>
<path d="M0 0H256V256H0V0Z" fill="#012169"/>
<path d="M256 0V32L161 128L256 221.5V256H222.5L127 162L34 256H0V222L93 128.5L0 37V0H31L127 94L220 0H256Z" fill="white"/>
<path d="M92 162L97.5 179L21 256H0V254.5L92 162ZM154 156L181 160L256 233.5V256L154 156ZM256 0L160 98L158 76L233 0H256ZM0 0.5L96.5 95L67 91L0 24.5V0.5Z" fill="#C8102E"/>
<path d="M88 0V256H168V0H88ZM0 88V168H256V88H0Z" fill="white"/>
<path d="M0 104V152H256V104H0ZM104 0V256H152V0H104Z" fill="#C8102E"/>
</g>
<defs>
<linearGradient id="paint0_linear_2_11551" x1="313.268" y1="148.119" x2="304.864" y2="146.88" gradientUnits="userSpaceOnUse">
<stop stop-color="#FF0000"/>
<stop offset="1" stop-color="#FFFF00"/>
</linearGradient>
<linearGradient id="paint1_linear_2_11551" x1="312.677" y1="178.632" x2="304.273" y2="177.394" gradientUnits="userSpaceOnUse">
<stop stop-color="#FF0000"/>
<stop offset="1" stop-color="#FFFF00"/>
</linearGradient>
<linearGradient id="paint2_linear_2_11551" x1="312.455" y1="208.703" x2="304.051" y2="207.464" gradientUnits="userSpaceOnUse">
<stop stop-color="#FF0000"/>
<stop offset="1" stop-color="#FFFF00"/>
</linearGradient>
<linearGradient id="paint3_linear_2_11551" x1="332.182" y1="241.285" x2="323.778" y2="240.046" gradientUnits="userSpaceOnUse">
<stop stop-color="#FF0000"/>
<stop offset="1" stop-color="#FFFF00"/>
</linearGradient>
<linearGradient id="paint4_linear_2_11551" x1="309.869" y1="267.957" x2="301.466" y2="266.718" gradientUnits="userSpaceOnUse">
<stop stop-color="#FF0000"/>
<stop offset="1" stop-color="#FFFF00"/>
</linearGradient>
<linearGradient id="paint5_linear_2_11551" x1="310.46" y1="299.431" x2="302.057" y2="298.192" gradientUnits="userSpaceOnUse">
<stop stop-color="#FF0000"/>
<stop offset="1" stop-color="#FFFF00"/>
</linearGradient>
<linearGradient id="paint6_linear_2_11551" x1="421.359" y1="148.636" x2="412.955" y2="147.397" gradientUnits="userSpaceOnUse">
<stop stop-color="#FF0000"/>
<stop offset="1" stop-color="#FFFF00"/>
</linearGradient>
<linearGradient id="paint7_linear_2_11551" x1="420.324" y1="178.559" x2="411.921" y2="177.32" gradientUnits="userSpaceOnUse">
<stop stop-color="#FF0000"/>
<stop offset="1" stop-color="#FFFF00"/>
</linearGradient>
<linearGradient id="paint8_linear_2_11551" x1="418.995" y1="209.22" x2="410.591" y2="207.981" gradientUnits="userSpaceOnUse">
<stop stop-color="#FF0000"/>
<stop offset="1" stop-color="#FFFF00"/>
</linearGradient>
<linearGradient id="paint9_linear_2_11551" x1="420.546" y1="239.29" x2="412.142" y2="238.051" gradientUnits="userSpaceOnUse">
<stop stop-color="#FF0000"/>
<stop offset="1" stop-color="#FFFF00"/>
</linearGradient>
<linearGradient id="paint10_linear_2_11551" x1="420.177" y1="269.435" x2="411.773" y2="268.196" gradientUnits="userSpaceOnUse">
<stop stop-color="#FF0000"/>
<stop offset="1" stop-color="#FFFF00"/>
</linearGradient>
<linearGradient id="paint11_linear_2_11551" x1="420.324" y1="299.727" x2="411.921" y2="298.488" gradientUnits="userSpaceOnUse">
<stop stop-color="#FF0000"/>
<stop offset="1" stop-color="#FFFF00"/>
</linearGradient>
<clipPath id="clip0_2_11551">
<rect width="512" height="512" fill="white"/>
</clipPath>
</defs>
</svg>
