<svg width="512" height="512" viewBox="0 0 512 512" fill="none" xmlns="http://www.w3.org/2000/svg">
<g clip-path="url(#clip0_2_11664)">
<path d="M0 0H512V512H0V0Z" fill="white"/>
<path d="M163.5 316C163.5 316 163.1 313.1 168.4 311C173.7 309 174.1 301.3 173.1 296.2C173.1 296.2 170.3 301.1 166.9 302.7C166.9 302.7 161.4 305.6 161.1 311.1C161.1 311.1 161.1 313.1 160.7 314.6C160.5 315.5 158 307.8 162.7 302C167.4 296.1 168.7 291.3 165 282C165 282 164.6 287.6 160.9 290.9C157.1 294.1 156.7 294.4 156.7 302.1C156.7 302.1 156.7 304.8 155.4 305.7C155.4 305.7 152.4 301.4 151.7 298.7C150.9 295.8 150.6 294.7 153.9 291.4C153.9 291.4 164.5 284.5 156.9 269.4C156.9 269.4 156.6 274.7 152.9 277.7C149.3 280.7 149.6 282.8 149.4 288.1C149.2 293.4 148.8 293.1 148.4 293.8C148.4 293.8 141.7 281.4 146.9 274.8C152.1 268.2 155 266.8 149.3 254.5C149.3 254.5 149.5 260.8 144.9 263.9C140.3 267 141.4 274.4 141.4 274.4C141.4 274.4 141.7 277.1 140.7 279.1C140.7 279.1 134.2 266.4 140.4 259.6C145.7 253.8 146.1 249.7 143.2 241.5C143.2 241.5 142.9 245.3 140 247.4C137 249.4 134.8 251.4 135.3 259.4C135.3 259.4 135.5 264.9 134.8 266.4C134.8 266.4 132.1 261.4 131.3 258.1C130.6 254.8 130.3 252.9 132.3 249.6C134.3 246.3 142.3 236.8 132.7 223.2C132.7 223.2 132.4 227.6 130 231.6C127.6 235.6 128.7 240.3 129.2 243.9C129.8 247.5 128 251 128 251C128 251 123.9 243.4 124.7 234.7C125.7 226 122.1 218.7 114 213.7C114 213.7 108.2 227.2 116.2 234.1C116.2 234.1 123 240.9 124.7 249.1C124.7 249.1 119.5 248.5 114.9 239.4C110.2 230.4 100.5 231.8 99.9 231.7C99.9 231.7 101.4 245.7 116.3 249.7C116.3 249.7 125.9 251.4 127.6 258.4C127.6 258.4 129.2 263.2 129.9 265.8C129.9 265.8 126.9 264.6 124.1 260.5C121.3 256.3 121.7 255.8 112.3 254.9C112.3 254.9 108.5 254.5 106.5 251.8C106.5 251.8 110.5 266.7 120.6 266.6C120.6 266.6 129.9 265.6 135.1 277.8L132.7 276.2C131.4 275.2 127.9 273.5 121.1 274.4C114.3 275.3 112.4 274 110.7 273.4C110.7 273.4 117.6 286.1 127.3 282.4C137 278.6 141.7 292.2 141.8 292.5C141.8 292.5 140.5 291.5 138.8 289.8C137.1 288.1 133.5 286.1 126.8 288.2C126.8 288.2 121.9 290.1 117 288.6C117 288.6 121.7 297.7 132.8 296.2C143.8 294.6 146.7 304.4 146.7 304.4L144.2 302.7C143.2 301.9 139.4 299.7 131.4 302.1C123.4 304.5 120.5 301.7 120.5 301.7C120.5 301.7 125 309.8 133.5 310.7C133.5 310.7 138.2 310.7 140.3 310C142.231 309.183 144.386 309.065 146.395 309.668C148.403 310.27 150.138 311.555 151.3 313.3C151.3 313.3 150.3 313.5 148.7 312.8C148.7 312.8 143 310.8 138.7 314.4C138.7 314.4 134.9 318.4 129.4 317.6C129.4 317.6 136.4 324.4 147.7 318.6C147.7 318.6 151.5 315.9 154.2 318C157 320.1 163.5 316 163.5 316Z" fill="#369443" stroke="#010002" stroke-width="1.2" stroke-miterlimit="10"/>
<path d="M225.8 147C225.8 147 224.5 135.3 233.8 134.2C243.4 133.1 248.2 135.1 248.2 135.1L252.5 143.6L251 149.4L245 152.1C245 152.1 246 143.3 238 143.1C236 143.1 234.7 143.9 231.5 143.4C228.2 142.8 226.5 146.4 225.8 146.9V147Z" fill="#F4C53D" stroke="#010002" stroke-width="1.2" stroke-miterlimit="10"/>
<path d="M291 175.7C289.6 177.5 284.1 178.1 284.1 178.1C284.1 178.1 289.8 182.4 292.2 188.7C294.7 194.9 226.4 188.7 226.4 188.7C226.4 188.7 229.4 186.6 231.4 182.7C231.4 182.7 228.4 183.7 225.3 180.7C225.3 180.7 227.6 181.5 230.5 177C230.5 177 234.9 171.4 238 169.9C238 169.9 236.5 170.8 233.1 168.9C233.1 168.9 239.1 168.1 241.1 158C241.1 158 241.5 155.8 243.8 152.5C246 149.3 245.5 153.2 249.7 148.2C249.7 148.2 251.6 144.6 249.9 142.5C248.2 140.4 246.5 141.1 243 139C239.5 136.9 238 135.8 239.2 132.6C240.4 129.4 243.4 129.9 243.9 129.9C244.3 129.9 244.6 127.1 248.3 125.2C253.312 123.714 258.633 123.61 263.7 124.9C265.2 125.8 271.3 127.6 274.8 136.5C278.4 145.5 273.8 148.9 283.6 162.5C283.6 162.5 279.6 163.3 277.2 162.5C277.2 162.5 282.2 171.5 291 175.7Z" fill="#F4C53D" stroke="#010002" stroke-width="1.2" stroke-miterlimit="10"/>
<path d="M248.7 137.8C240.9 137.4 243.9 129.9 243.9 129.9" stroke="#010002" stroke-width="1.2" stroke-miterlimit="10"/>
<path d="M262.4 138.8C262.4 138.8 261 138.1 259.9 136.6C258.2 134.4 254.5 133.4 252.5 135.4C252.5 135.4 250.5 137.7 248.7 137.8C248.7 137.8 250.7 138.4 252.1 139.7C253.5 141 255 141.9 257.1 141.7C259.1 141.3 259.5 140.2 260.4 139.6C261.4 138.9 262.4 138.8 262.4 138.8Z" fill="#F4C53D" stroke="#010002" stroke-width="1.2" stroke-miterlimit="10"/>
<path d="M162.3 333.2C162.3 333.2 162.1 328.2 168.5 327.7L187.3 353.9C187.3 353.9 186.6 355.6 178.1 355.4C178.1 355.4 177.1 355.4 176.7 356.4C176 358 162.3 333.2 162.3 333.2Z" fill="#369443" stroke="#010002" stroke-width="1.2" stroke-miterlimit="10"/>
<path d="M182.958 302.744C182.958 302.744 176.948 313.053 169.685 313.222C169.685 313.222 157.196 311.704 153.667 314.968C151.198 317.244 148.681 319.123 147.645 324.941C146.633 330.758 149.632 332.01 150.343 332.263C150.343 332.263 150.897 336.419 155.004 335.335C155.004 335.335 155.245 339.67 162.495 337.587C169.758 335.503 172.769 336.166 174.178 328.939C175.611 321.701 176.924 321.821 178.212 320.954C179.947 319.786 183.211 318.69 185.632 317.293C187.799 316.04 196.134 311.801 198.976 311.475C201.819 311.138 201.192 301.575 201.192 301.575H193.846L190.293 296.336L182.958 302.744ZM206.082 251.027C206.082 251.027 198.735 257.012 192.569 251.027C192.569 251.027 190.088 254.013 185.102 253.146C180.139 252.267 179.308 249.654 178.839 248.16C178.839 248.16 174.527 250.665 170.89 248.678C167.277 246.703 167.277 243.704 167.277 243.704C167.277 243.704 160.953 244.956 157.714 240.669C154.474 236.393 156.449 232.154 158.195 231.648C158.195 231.648 151.366 233.442 149.5 227.577C149.003 226.267 148.926 224.835 149.28 223.48C149.634 222.124 150.401 220.913 151.475 220.013C151.475 220.013 137.094 219.941 131.193 215.437C131.193 215.437 126.291 212.353 129.217 209.113C129.217 209.113 116.27 207.042 113.03 201.887C113.03 201.887 111.609 200.466 112.079 197.973C112.079 197.973 112.163 196.564 113.584 196.479C113.584 196.479 98.8184 194.191 94.5548 189.325C94.5548 189.325 92.5073 187.085 93.5311 184.086C93.5311 184.086 93.7479 183.303 94.0971 182.761C94.0971 182.761 80.656 179.931 74.0318 173.945C74.0318 173.945 70.2019 170.537 72.1771 165.96C72.1771 165.96 49.715 159.817 54.918 149.917C54.918 149.917 44.4156 146.509 47.7398 137.03C47.7398 137.03 39.0561 132.622 42.8379 125.636C46.4631 118.952 57.6038 126.805 70.78 130.454C70.78 130.454 106.478 141.679 124.051 144.666L173.985 219.014L203.119 230.239L206.082 251.027Z" fill="#F4C53D" stroke="#010002" stroke-width="1.2044"/>
<path d="M206.432 196.274C206.432 196.274 201.746 192.758 193.4 196.889C193.4 196.889 190.594 198.828 188.378 196.708C187.897 196.249 187.524 195.69 187.286 195.07C187.047 194.45 186.95 193.785 186.999 193.123C187.049 192.461 187.244 191.817 187.572 191.24C187.9 190.662 188.352 190.165 188.895 189.783C195.122 185.17 197.423 171.331 187.956 165.586C187.956 165.586 174.226 157.445 123.846 144.63C123.846 144.63 119.63 143.449 117.366 144.015C116.271 144.295 115.271 144.866 114.474 145.667C113.677 146.469 113.111 147.471 112.838 148.568C112.838 148.568 110.573 154.988 118.161 158.661C118.161 158.661 121.582 160.227 125.11 161.238C125.11 161.238 121.232 160.395 119.57 164.225C118.004 167.887 120.293 171.632 127.399 174.041C127.399 174.041 129.326 174.788 132.06 175.45C132.06 175.45 125.978 177.197 128.904 182.111C128.904 182.111 131.506 187.265 140.707 188.181C140.707 188.181 133.842 188.928 138.684 195.455C138.684 195.455 140.816 199.032 147.524 200.357C147.524 200.357 142.442 200.526 144.995 205.091C147.573 209.667 153.607 212.245 159.556 212.666C159.556 212.666 162.772 212.835 165.024 212.329C165.024 212.329 159.364 215.159 162.688 219.893C162.688 219.893 165.133 223.265 171.251 223.096C171.251 223.096 169.673 228.396 174.154 230.395C177.646 231.961 180.549 229.456 180.549 229.456C180.549 229.456 179.369 235.128 184.463 237.128C184.463 237.128 187.005 238.44 190.798 237.128C190.798 237.128 193.689 243.619 203.999 239.055C214.308 234.514 206.432 196.286 206.432 196.286V196.274ZM207.034 255.218C207.034 255.218 205.528 263.335 193.544 273.549C193.544 273.549 184.295 281.702 184.523 291.097C184.764 300.672 182.873 301.744 179.236 304.984C179.236 304.984 186.74 305.574 190.365 300.575C190.365 300.575 190.208 308.886 189.1 309.645C189.1 309.645 191.461 309.789 194.869 306.067C194.869 306.067 196.917 303.9 198.82 303.069C198.82 303.069 196.604 308.814 198.338 314.137C198.338 314.137 198.892 312.053 201.819 311.138C201.819 311.138 207.118 310.054 209.166 302.406C209.166 302.406 210.502 297.348 218.801 292.843C218.801 292.843 228.195 289.302 227.954 284.677C227.713 280.04 207.046 255.218 207.046 255.218H207.034Z" fill="#F4C53D" stroke="#010002" stroke-width="1.2044"/>
<path d="M250.585 359.868C250.585 359.868 248.429 369.359 240.95 368.6C240.95 368.6 235.662 368.094 236.06 359.278C236.06 359.278 228.243 363.445 226.979 353.135C226.979 353.135 219.873 354.785 219.957 345.15C219.957 345.15 213.333 346.307 214.116 337.743C214.116 337.743 206.925 339.67 206.925 331.601C206.925 331.601 190.112 328.807 225.16 296.842L256.426 315.462L250.585 359.868Z" fill="#F4C53D" stroke="#010002" stroke-width="1.2044" stroke-miterlimit="10"/>
<path d="M254.066 317.245C254.066 317.245 248.851 321.869 245.141 314.956C245.141 314.956 240.082 314.715 239.3 310.885C239.3 310.885 235.193 310.476 234.398 306.561C234.398 306.561 228.797 305.983 228.954 301.25C228.954 301.25 218.765 300.455 228.954 288.917C239.143 277.379 256.426 308.067 256.426 308.067L254.066 317.245ZM259.871 314.378C264.929 314.378 270.65 345.933 269.169 364.951C268.627 371.852 264.929 377.489 259.871 377.489C254.812 377.489 251.127 371.852 250.597 364.951C249.103 345.933 254.824 314.378 259.871 314.378Z" fill="#F4C53D" stroke="#010002" stroke-width="1.2044"/>
<path d="M259.871 324.495C263.729 324.495 266.856 319.858 266.856 314.137C266.856 308.417 263.729 303.779 259.871 303.779C256.013 303.779 252.885 308.417 252.885 314.137C252.885 319.858 256.013 324.495 259.871 324.495Z" fill="#F4C53D" stroke="#010002" stroke-width="1.2044"/>
<path d="M236.06 359.278C236.06 359.278 236.855 342.573 251.332 318.617M226.979 353.136C226.979 353.136 224.726 343.488 245.141 314.956C245.141 314.956 242.768 308.151 250.031 303.779M219.957 345.15C219.957 345.15 219.319 334.708 239.3 310.885C239.3 310.885 237.529 304.743 244.768 299.829M214.116 337.743C214.116 337.743 214.862 327.193 234.398 306.561C234.398 306.561 233.434 300.25 240.42 296.336M206.937 331.601C206.937 331.601 208.347 319.545 228.954 301.25C228.954 301.25 228.243 296.505 235.108 291.687" stroke="#010002" stroke-width="1.2044" stroke-miterlimit="10"/>
<path d="M47.7398 137.03C47.7398 137.03 63.9149 146.401 114.331 155.771M54.918 149.917C54.918 149.917 98.7221 164.202 119.125 165.96M72.165 165.96C72.165 165.96 97.8669 174.029 127.965 179.124M94.0972 182.773C94.0972 182.773 123.123 189.747 136.998 190.903M113.584 196.479C113.584 196.479 138.142 201.598 144.357 202.212M129.217 209.114C129.217 209.114 147.139 211.836 154.269 211.691M151.475 220.001C151.475 220.001 158.725 219.664 162.206 219.086M158.183 231.648C158.183 231.648 164.35 229.986 167.975 227.661M167.264 243.704C167.264 243.704 172.01 241.873 174.298 236.887M178.839 248.16C178.839 248.16 182.5 244.872 182.741 241.211M192.569 251.027C192.569 251.027 191.196 249.834 192.135 244.68M190.798 237.116C190.798 237.116 190.076 235.647 190.317 233.31M164.904 163.298C164.904 163.298 173.19 166.622 175.948 171.199C178.718 175.776 176.9 180.22 175.948 182.761C175.478 184.05 169.637 195.311 176.502 203.465M165.012 212.305C165.012 212.305 165.06 212.269 167.975 211.342M147.524 200.334C147.524 200.334 152.462 201.321 157.316 201.369M140.695 188.145C140.695 188.145 146.501 188.735 151.957 188.651M132.06 175.427C132.06 175.427 140.43 177.089 144.923 177.173M125.11 161.239C125.11 161.239 135.432 164.177 143.104 165.225M160.158 171.295C160.158 171.295 152.739 178.197 161.664 184.604C161.664 184.604 157.954 190.421 165.374 196.492M163.398 199.358C163.398 199.358 162.29 210.463 175.876 210.463C175.876 210.463 173.262 220.351 186.378 220.025C186.378 220.025 187.872 227.926 197.338 226.337M176.49 313.234C176.49 313.234 174.334 313.716 169.673 313.234M156.569 319.051C156.569 319.051 150.017 318.052 150.331 332.276M160.52 322.291C160.52 322.291 154.594 321.544 154.98 335.347M217.693 289.038C217.693 289.038 214.85 289.616 212.875 291.868C210.912 294.108 207.118 293.687 207.118 293.687C207.118 293.687 209.166 292.025 209.888 287.869C210.587 283.714 212.887 282.462 212.887 282.462M206.106 278.535C206.106 278.535 203.264 279.113 201.289 281.354C199.314 283.606 195.52 283.184 195.52 283.184C195.52 283.184 197.567 281.522 198.29 277.367C199 273.212 201.289 271.959 201.289 271.959M204.143 294.662C204.143 294.662 201.662 295.18 199.94 297.131C198.218 299.094 194.905 298.733 194.905 298.733C194.905 298.733 196.712 297.288 197.314 293.65C197.941 290.025 199.94 288.929 199.94 288.929" stroke="#010002" stroke-width="1.2044"/>
<path d="M334.842 302.744C334.842 302.744 340.852 313.053 348.115 313.222C348.115 313.222 360.604 311.704 364.133 314.968C366.602 317.244 369.119 319.123 370.155 324.941C371.167 330.758 368.168 332.01 367.457 332.263C367.457 332.263 366.903 336.419 362.796 335.335C362.796 335.335 362.555 339.67 355.305 337.587C348.042 335.503 345.031 336.166 343.622 328.939C342.189 321.701 340.876 321.821 339.588 320.954C337.853 319.786 334.589 318.69 332.168 317.293C330.001 316.04 321.666 311.801 318.824 311.475C315.981 311.138 316.608 301.575 316.608 301.575H323.954L327.507 296.336L334.842 302.744ZM311.718 251.027C311.718 251.027 319.065 257.012 325.231 251.027C325.231 251.027 327.712 254.013 332.698 253.146C337.66 252.267 338.492 249.654 338.961 248.16C338.961 248.16 343.273 250.665 346.91 248.678C350.523 246.703 350.523 243.704 350.523 243.704C350.523 243.704 356.847 244.956 360.086 240.669C363.326 236.393 361.351 232.154 359.605 231.648C359.605 231.648 366.434 233.442 368.3 227.577C368.797 226.267 368.874 224.835 368.52 223.48C368.166 222.124 367.399 220.913 366.325 220.013C366.325 220.013 380.706 219.941 386.607 215.437C386.607 215.437 391.509 212.353 388.583 209.113C388.583 209.113 401.53 207.042 404.77 201.887C404.77 201.887 406.191 200.466 405.721 197.973C405.721 197.973 405.637 196.564 404.216 196.479C404.216 196.479 418.982 194.191 423.245 189.325C423.245 189.325 425.293 187.085 424.269 184.086C424.269 184.086 424.052 183.303 423.703 182.761C423.703 182.761 437.144 179.931 443.768 173.945C443.768 173.945 447.598 170.537 445.623 165.96C445.623 165.96 468.085 159.817 462.882 149.917C462.882 149.917 473.384 146.509 470.06 137.03C470.06 137.03 478.744 132.622 474.962 125.636C471.337 118.952 460.196 126.805 447.02 130.454C447.02 130.454 411.322 141.679 393.749 144.666L343.815 219.014L314.681 230.239L311.718 251.027Z" fill="#F4C53D" stroke="#010002" stroke-width="1.2044"/>
<path d="M311.368 196.274C311.368 196.274 316.054 192.758 324.4 196.889C324.4 196.889 327.206 198.828 329.422 196.708C329.903 196.249 330.276 195.69 330.514 195.07C330.752 194.45 330.85 193.785 330.801 193.123C330.751 192.461 330.556 191.817 330.228 191.24C329.9 190.662 329.448 190.165 328.905 189.783C322.678 185.17 320.377 171.331 329.844 165.586C329.844 165.586 343.574 157.445 393.954 144.63C393.954 144.63 398.17 143.449 400.434 144.015C401.529 144.295 402.529 144.866 403.326 145.667C404.123 146.469 404.689 147.471 404.962 148.568C404.962 148.568 407.227 154.988 399.639 158.661C399.639 158.661 396.218 160.227 392.69 161.238C392.69 161.238 396.568 160.395 398.23 164.225C399.796 167.887 397.507 171.632 390.401 174.041C390.401 174.041 388.474 174.788 385.74 175.45C385.74 175.45 391.822 177.197 388.896 182.111C388.896 182.111 386.294 187.265 377.093 188.181C377.093 188.181 383.958 188.928 379.116 195.455C379.116 195.455 376.984 199.032 370.276 200.357C370.276 200.357 375.358 200.526 372.805 205.091C370.227 209.667 364.193 212.245 358.244 212.666C358.244 212.666 355.028 212.835 352.776 212.329C352.776 212.329 358.436 215.159 355.112 219.893C355.112 219.893 352.667 223.265 346.549 223.096C346.549 223.096 348.127 228.396 343.646 230.395C340.154 231.961 337.251 229.456 337.251 229.456C337.251 229.456 338.431 235.128 333.337 237.128C333.337 237.128 330.795 238.44 327.002 237.128C327.002 237.128 324.111 243.619 313.801 239.055C303.492 234.514 311.368 196.286 311.368 196.286V196.274ZM310.766 255.218C310.766 255.218 312.272 263.335 324.256 273.549C324.256 273.549 333.505 281.702 333.276 291.097C333.036 300.672 334.927 301.744 338.564 304.984C338.564 304.984 331.06 305.574 327.435 300.575C327.435 300.575 327.592 308.886 328.7 309.645C328.7 309.645 326.339 309.789 322.931 306.067C322.931 306.067 320.883 303.9 318.98 303.069C318.98 303.069 321.196 308.814 319.462 314.137C319.462 314.137 318.908 312.053 315.981 311.138C315.981 311.138 310.682 310.054 308.634 302.406C308.634 302.406 307.298 297.348 298.999 292.843C298.999 292.843 289.605 289.302 289.846 284.677C290.087 280.04 310.754 255.218 310.754 255.218H310.766Z" fill="#F4C53D" stroke="#010002" stroke-width="1.2044"/>
<path d="M267.215 359.868C267.215 359.868 269.371 369.359 276.85 368.6C276.85 368.6 282.138 368.094 281.74 359.278C281.74 359.278 289.557 363.445 290.821 353.135C290.821 353.135 297.927 354.785 297.843 345.15C297.843 345.15 304.467 346.307 303.684 337.743C303.684 337.743 310.875 339.67 310.875 331.601C310.875 331.601 327.688 328.807 292.64 296.842L261.374 315.462L267.215 359.868Z" fill="#F4C53D" stroke="#010002" stroke-width="1.2044" stroke-miterlimit="10"/>
<path d="M263.734 317.245C263.734 317.245 268.949 321.869 272.659 314.956C272.659 314.956 277.717 314.715 278.5 310.885C278.5 310.885 282.607 310.476 283.402 306.561C283.402 306.561 289.003 305.983 288.846 301.25C288.846 301.25 299.035 300.455 288.846 288.917C278.657 277.379 261.374 308.067 261.374 308.067L263.734 317.245ZM257.929 314.378C252.871 314.378 247.15 345.933 248.631 364.951C249.173 371.852 252.871 377.489 257.929 377.489C262.988 377.489 266.673 371.852 267.203 364.951C268.697 345.933 262.976 314.378 257.929 314.378Z" fill="#F4C53D" stroke="#010002" stroke-width="1.2044"/>
<path d="M257.929 324.495C254.071 324.495 250.944 319.858 250.944 314.137C250.944 308.417 254.071 303.779 257.929 303.779C261.787 303.779 264.915 308.417 264.915 314.137C264.915 319.858 261.787 324.495 257.929 324.495Z" fill="#F4C53D" stroke="#010002" stroke-width="1.2044"/>
<path d="M281.74 359.278C281.74 359.278 280.945 342.573 266.468 318.617M290.821 353.136C290.821 353.136 293.074 343.488 272.659 314.956C272.659 314.956 275.032 308.151 267.769 303.779M297.843 345.15C297.843 345.15 298.481 334.708 278.5 310.885C278.5 310.885 280.271 304.743 273.032 299.829M303.684 337.743C303.684 337.743 302.938 327.193 283.402 306.561C283.402 306.561 284.366 300.25 277.38 296.336M310.863 331.601C310.863 331.601 309.453 319.545 288.846 301.25C288.846 301.25 289.557 296.505 282.692 291.687" stroke="#010002" stroke-width="1.2044" stroke-miterlimit="10"/>
<path d="M470.06 137.03C470.06 137.03 453.885 146.401 403.469 155.771M462.882 149.917C462.882 149.917 419.078 164.202 398.675 165.96M445.635 165.96C445.635 165.96 419.933 174.029 389.835 179.124M423.703 182.773C423.703 182.773 394.677 189.747 380.802 190.903M404.216 196.479C404.216 196.479 379.658 201.598 373.443 202.212M388.583 209.114C388.583 209.114 370.661 211.836 363.531 211.691M366.325 220.001C366.325 220.001 359.075 219.664 355.594 219.086M359.617 231.648C359.617 231.648 353.45 229.986 349.825 227.661M350.536 243.704C350.536 243.704 345.79 241.873 343.502 236.887M338.961 248.16C338.961 248.16 335.3 244.872 335.059 241.211M325.231 251.027C325.231 251.027 326.604 249.834 325.665 244.68M327.002 237.116C327.002 237.116 327.724 235.647 327.483 233.31M352.896 163.298C352.896 163.298 344.61 166.622 341.852 171.199C339.082 175.776 340.9 180.22 341.852 182.761C342.322 184.05 348.163 195.311 341.298 203.465M352.788 212.305C352.788 212.305 352.74 212.269 349.825 211.342M370.276 200.334C370.276 200.334 365.338 201.321 360.484 201.369M377.105 188.145C377.105 188.145 371.299 188.735 365.843 188.651M385.74 175.427C385.74 175.427 377.37 177.089 372.877 177.173M392.69 161.239C392.69 161.239 382.368 164.177 374.696 165.225M357.642 171.295C357.642 171.295 365.061 178.197 356.136 184.604C356.136 184.604 359.846 190.421 352.426 196.492M354.402 199.358C354.402 199.358 355.51 210.463 341.924 210.463C341.924 210.463 344.538 220.351 331.422 220.025C331.422 220.025 329.928 227.926 320.462 226.337M341.31 313.234C341.31 313.234 343.466 313.716 348.127 313.234M361.231 319.051C361.231 319.051 367.783 318.052 367.469 332.276M357.28 322.291C357.28 322.291 363.206 321.544 362.82 335.347M300.107 289.038C300.107 289.038 302.95 289.616 304.925 291.868C306.888 294.108 310.682 293.687 310.682 293.687C310.682 293.687 308.634 292.025 307.912 287.869C307.213 283.714 304.913 282.462 304.913 282.462M311.694 278.535C311.694 278.535 314.536 279.113 316.511 281.354C318.486 283.606 322.28 283.184 322.28 283.184C322.28 283.184 320.233 281.522 319.51 277.367C318.8 273.212 316.511 271.959 316.511 271.959M313.657 294.662C313.657 294.662 316.138 295.18 317.86 297.131C319.582 299.094 322.895 298.733 322.895 298.733C322.895 298.733 321.088 297.288 320.486 293.65C319.86 290.025 317.86 288.929 317.86 288.929" stroke="#010002" stroke-width="1.2044"/>
<path d="M379.7 272.7L372.8 268.7L361.4 318.2L356.7 314.8L367.8 267.4L360 267.6L378.5 233.8L379.7 272.8V272.7ZM406.7 286.1L402.4 279.1L368 319.8L364.3 315.6L398.6 275.6L391.6 271.8L423 251.1L406.7 286.1Z" fill="#0081C6" stroke="#010002" stroke-width="1.2" stroke-miterlimit="10"/>
<path d="M399.8 263.4L394.1 257.6L363.3 316.8L358.6 314L389.6 255L382 253L408.1 225.4L399.8 263.4ZM355.7 334.9L353.4 344.3L359.7 350.6L350.7 388.2L342.8 377.6L331.1 383.1L340.1 345.4L348.3 343.1L350.4 333.7C350.4 333.7 352.9 332.7 355.7 334.9Z" fill="#0081C6" stroke="#010002" stroke-width="1.2" stroke-miterlimit="10"/>
<path d="M357.8 328.6L353.3 337.1L357.8 344.9L339.9 378.9L334.9 366.4L322.2 368.5L340.1 334.5H348.6L353 326.1C353 326.1 356.2 326.1 357.8 328.6Z" fill="#0081C6" stroke="#010002" stroke-width="1.2" stroke-miterlimit="10"/>
<path d="M358.6 331.1L346.5 346.5L349.3 355.1L324.6 384L322.3 370.7L309.5 369.7L334.2 340.8L342.5 342.8L355.3 326.6C355.3 326.6 358.8 328.3 358.6 331.1ZM52.4 295.1C55.3 293.9 57.4 292.8 57.4 289.7C57.4 289 57 287.4 56.1 284.9L36.8 225.8C36.1446 223.615 35.3428 221.477 34.4 219.4C33.5 217.7 31.8 217 29.5 216.1H54.1C51.4 217.3 49 218.3 49.1 221.1C49.1 222.3 49.3 223.8 49.9 225.8L64.8 272L79.6 225.7C80.2 223.7 80.6 222.2 80.6 221.1C80.5 218.1 77.9 217.1 75.4 216H99.3C97.1 216.9 95.3 217.5 94.4 219.3C94 220.1 93.1 222.1 92 225.7L72.7 284.7C72.1246 286.326 71.6897 287.999 71.4 289.7C71.4 289.7 70.5 293.4 76.4 295L52.4 295.1ZM464.6 289.1V222.1C464.634 221.195 464.427 220.298 464 219.5C463.7 218.8 462 217.1 459.6 216.1H481.8C480.031 216.726 478.496 217.877 477.4 219.4C476.965 220.231 476.757 221.163 476.8 222.1V289.1C476.8 290.2 477 291.1 477.4 291.8C477.8 292.4 479.4 294 481.8 295.1H459.6C462 294.1 463.6 292.4 464 291.8C464.4 291.1 464.6 290.2 464.6 289V289.1Z" fill="#0081C6" stroke="#010002" stroke-width="1.2" stroke-miterlimit="10"/>
<path d="M259.9 311.8C259.9 311.8 319.1 285.5 319.3 224.8H200.4C200.6 285.5 259.9 311.8 259.9 311.8Z" fill="white" stroke="#010002" stroke-width="1.2"/>
<path d="M209.6 224.8V263.6C209.6 263.6 214.1 272.6 218.7 278.3V224.8H209.6ZM227.9 224.8V288.8C227.9 288.8 233.6 294.4 237 297.1V224.8H227.9ZM246.1 224.8V303.8C246.1 303.8 252.7 308.1 255.3 309.5V224.8H246.1ZM310.1 224.8V263.6C310.1 263.6 305.6 272.6 301 278.3V224.8H310.1ZM291.8 224.8V288.8C291.8 288.8 286.1 294.4 282.8 297.1V224.8H291.8ZM273.6 224.8V303.8C273.6 303.8 267 308.1 264.4 309.5V224.8H273.6Z" fill="#A60032" stroke="#010002" stroke-width="1.2"/>
<path d="M319.3 180.6C319.3 180.6 290.2 195.8 259.9 179.4C229.5 195.8 200.4 180.6 200.4 180.6V224.8H319.3V180.6Z" fill="#162667" stroke="#010002" stroke-width="1.2" stroke-miterlimit="10"/>
</g>
<defs>
<clipPath id="clip0_2_11664">
<rect width="512" height="512" fill="white"/>
</clipPath>
</defs>
</svg>
