<svg width="512" height="512" viewBox="0 0 512 512" fill="none" xmlns="http://www.w3.org/2000/svg">
<g clip-path="url(#clip0_2_11703)">
<path d="M0 0H512V512H0V0Z" fill="#009543"/>
<path d="M0 0H512V256H0V0Z" fill="#D21034"/>
<mask id="mask0_2_11703" style="mask-type:luminance" maskUnits="userSpaceOnUse" x="0" y="0" width="513" height="513">
<path d="M0 0V512.003L238.934 301.812H512.001V210.191H238.934L0 0Z" fill="white"/>
</mask>
<g mask="url(#mask0_2_11703)">
<path d="M0 0L238.934 210.191H512.001V301.812H238.934L0 512.003" fill="black"/>
<path d="M0 0L238.934 210.191H512.001V301.812H238.934L0 512.003" stroke="#FDCE12" stroke-width="86.1383"/>
<path d="M0 0L238.934 210.191H512.001M512.001 301.812H238.934L0 512.003" stroke="black" stroke-width="46.9845"/>
</g>
<path d="M67.6141 299.942V326.011C90.3038 326.011 134.911 308.632 134.911 252.535C134.911 196.438 87.3107 186.011 73.1176 186.011C58.8279 186.011 14.8967 196.245 14.8967 242.011C14.8967 287.97 58.0554 292.218 66.552 292.218C75.0486 292.218 106.911 284.494 103.242 250.121C102.291 258.51 98.2765 266.253 91.9692 271.866C85.6619 277.478 77.5051 280.565 69.0624 280.535C45.8899 280.535 31.4071 263.349 31.4071 246.356C31.4071 229.363 45.5037 206.576 69.9313 206.576C94.359 206.576 112.221 228.301 112.221 250.121C112.221 272.039 95.0349 299.846 67.6141 299.846V299.942Z" fill="#FDCE12"/>
<path d="M47.6278 265.859L48.9796 266.825C48.9796 266.825 59.7934 242.204 88.6624 224.728C84.9934 226.659 65.683 236.314 47.6278 265.859Z" fill="#FDCE12" stroke="#FDCE12" stroke-width="0.772416"/>
<path d="M50.4278 261.611C50.4278 261.611 47.1451 254.852 50.0416 251.763C52.9382 248.77 51.683 259.776 51.683 259.776L52.9382 257.942C52.9382 257.942 51.0071 249.638 53.1313 247.901C55.352 246.066 54.2899 255.914 54.2899 255.914L55.6416 254.176C55.6416 254.176 54.1934 246.066 56.3175 244.521C58.5382 242.976 57.1865 252.245 57.1865 252.245L58.7313 250.314C58.7313 250.314 57.5727 242.59 60.1796 240.756C62.7865 238.921 60.4692 248.094 60.4692 248.094L62.2072 246.163C62.2072 246.163 61.4348 239.114 63.6555 237.473C65.8762 235.928 64.0417 244.232 64.0417 244.232L65.5865 242.494C65.5865 242.494 65.1037 235.928 67.2279 234.383C69.4486 232.838 67.421 240.659 67.421 240.659L69.0624 239.114C69.0624 239.114 68.6762 232.452 71.3796 231.197C74.0831 229.942 70.8969 237.376 70.8969 237.376L72.8279 235.832C72.8279 235.832 73.3107 228.107 75.6279 227.432C77.9452 226.659 74.6624 234.19 74.6624 234.19L76.3038 232.838C76.3038 232.838 77.1727 226.273 79.6831 225.5C82.29 224.632 78.1383 231.487 78.1383 231.487L79.7796 230.232C79.7796 230.232 81.6141 223.666 84.0279 222.894C86.3452 222.218 81.5176 229.169 81.5176 229.169L83.159 228.011C83.159 228.011 85.7659 222.025 87.9866 221.638C90.0142 221.252 85.4762 226.563 85.4762 226.563L87.5038 225.404C87.5038 225.404 90.8831 219.225 92.1383 221.059C93.2969 222.99 87.3107 225.79 87.3107 225.79L85.3797 226.949C85.3797 226.949 92.6211 223.473 93.49 225.211C94.359 226.949 83.5452 228.107 83.5452 228.107L81.8072 229.266C81.8072 229.266 89.0486 227.335 88.1797 229.169C87.2141 231.004 80.0693 230.618 80.0693 230.618L78.4279 231.776C78.4279 231.776 85.6693 230.038 84.7038 231.776C83.7383 233.321 76.69 233.225 76.69 233.225L74.952 234.673C74.952 234.673 82.0003 232.742 80.9383 234.963C79.9727 237.087 71.8624 236.99 71.8624 236.99L69.9313 238.921C69.9313 238.921 77.3658 236.314 76.69 238.342C76.1107 240.273 67.6141 241.238 67.6141 241.238L65.6831 243.169C65.6831 243.169 73.6969 240.563 71.2831 242.976C68.9658 245.487 63.0761 246.066 63.0761 246.066L60.8555 248.963C60.8555 248.963 68.7727 244.135 67.6141 246.838C66.552 249.542 58.7313 251.376 58.7313 251.376L57.1865 253.307C57.1865 253.307 64.3313 249.156 63.5589 251.376C62.883 253.79 55.2554 256.204 55.2554 256.204L54.0003 257.942C54.0003 257.942 62.4003 252.921 61.7244 255.528C60.952 258.039 52.9382 259.873 52.9382 259.873L51.9727 261.514C51.9727 261.514 59.6968 256.976 59.6968 259.197C59.8899 261.321 50.6209 263.445 50.6209 263.445L50.4278 261.611Z" fill="#FDCE12"/>
<path d="M93.5866 265.859L92.2349 266.825C92.2349 266.825 81.421 242.204 52.552 224.728C56.221 226.659 75.5314 236.314 93.5866 265.859Z" fill="#FDCE12" stroke="#FDCE12" stroke-width="0.772416"/>
<path d="M90.7866 261.611C90.7866 261.611 94.0694 254.852 91.1728 251.763C88.2762 248.77 89.5314 259.776 89.5314 259.776L88.2762 257.942C88.2762 257.942 90.2073 249.638 88.0831 247.901C85.8624 246.066 86.9245 255.914 86.9245 255.914L85.5728 254.176C85.5728 254.176 87.0211 246.066 84.8969 244.521C82.6762 242.976 84.0279 252.245 84.0279 252.245L82.4831 250.314C82.4831 250.314 83.6417 242.59 81.0348 240.756C78.4279 238.921 80.7452 248.094 80.7452 248.094L79.0072 246.163C79.0072 246.163 79.7797 239.114 77.559 237.473C75.3383 235.928 77.1728 244.232 77.1728 244.232L75.6279 242.494C75.6279 242.494 76.1107 235.928 73.9865 234.383C71.7658 232.838 73.7934 240.659 73.7934 240.659L72.152 239.114C72.152 239.114 72.5383 232.452 69.8348 231.197C67.1313 229.942 70.3176 237.376 70.3176 237.376L68.3865 235.832C68.3865 235.832 67.9038 228.107 65.5865 227.432C63.2693 226.659 66.552 234.19 66.552 234.19L64.9106 232.838C64.9106 232.838 64.0417 226.273 61.5313 225.5C58.9244 224.632 63.0762 231.487 63.0762 231.487L61.4348 230.232C61.4348 230.232 59.6003 223.666 57.1865 222.894C54.8692 222.218 59.6968 229.169 59.6968 229.169L58.0555 228.011C58.0555 228.011 55.4486 222.025 53.2279 221.638C51.2003 221.252 55.7382 226.563 55.7382 226.563L53.7106 225.404C53.7106 225.404 50.3313 219.225 49.0761 221.059C47.9175 222.99 53.9037 225.79 53.9037 225.79L55.8348 226.949C55.8348 226.949 48.5934 223.473 47.7244 225.211C46.8554 226.949 57.6692 228.107 57.6692 228.107L59.4072 229.266C59.4072 229.266 52.1658 227.335 53.0348 229.169C54.0003 231.004 61.1451 230.618 61.1451 230.618L62.7865 231.776C62.7865 231.776 55.5451 230.038 56.5106 231.776C57.4761 233.321 64.5244 233.225 64.5244 233.225L66.2624 234.673C66.2624 234.673 59.2141 232.742 60.2762 234.963C61.2417 237.087 69.352 236.99 69.352 236.99L71.2831 238.921C71.2831 238.921 63.8486 236.314 64.5244 238.342C65.1037 240.273 73.6003 241.238 73.6003 241.238L75.5314 243.169C75.5314 243.169 67.5176 240.563 69.9314 242.976C72.2486 245.487 78.1383 246.066 78.1383 246.066L80.359 248.963C80.359 248.963 72.4417 244.135 73.6003 246.838C74.6624 249.542 82.4831 251.376 82.4831 251.376L84.0279 253.307C84.0279 253.307 76.8831 249.156 77.6555 251.376C78.3314 253.79 85.959 256.204 85.959 256.204L87.2142 257.942C87.2142 257.942 78.8141 252.921 79.49 255.528C80.2624 258.039 88.2762 259.873 88.2762 259.873L89.2418 261.514C89.2418 261.514 81.5176 256.976 81.5176 259.197C81.3245 261.321 90.5935 263.445 90.5935 263.445L90.7866 261.611Z" fill="#FDCE12"/>
</g>
<defs>
<clipPath id="clip0_2_11703">
<rect width="512" height="512" fill="white"/>
</clipPath>
</defs>
</svg>
