<svg width="512" height="512" viewBox="0 0 512 512" fill="none" xmlns="http://www.w3.org/2000/svg">
<g clip-path="url(#clip0_2_11724)">
<path fill-rule="evenodd" clip-rule="evenodd" d="M0 0H512V512H0V0Z" fill="#CE1126"/>
<path fill-rule="evenodd" clip-rule="evenodd" d="M0 0H256V256H0V0Z" fill="#002B7F"/>
<path fill-rule="evenodd" clip-rule="evenodd" d="M147 231.4L127.4 218.1L108.5 231.6L114.5 208.1L96.5 193.4L119.7 192.1L127.4 169.7L135.9 192.5L158.7 193L140.5 208.5L147 231.4ZM143.6 74.5999L128 64.5999L112.6 74.5999L116.8 55.5999L103.1 43.4999L121.4 41.8999L128.2 24.3999L135.3 42.0999L153.3 43.4999L139.3 55.9999L143.6 74.5999ZM74.3 131L59.1 120.2L43.7 130.6L48.3 112.3L34 100.2L52.2 99.3999L58.9 81.2999L65.5 99.0999L83.8 100.2L69.5 112.2L74.3 131ZM213.3 118.3L198.6 108.8L184.3 118.5L188.3 101.1L175.3 89.8999L192.6 88.4999L198.6 72.0999L205.2 88.6999L222 89.6999L208.8 101.3L213.3 118.3ZM172.2 159.6L162.5 153.4L152.9 159.6L155.4 148L146.7 140.3L158.1 139.3L162.5 128.3L167 139.3L178.2 140.3L169.7 148L172.2 159.6Z" fill="white"/>
</g>
<defs>
<clipPath id="clip0_2_11724">
<rect width="512" height="512" fill="white"/>
</clipPath>
</defs>
</svg>
