<svg width="512" height="512" viewBox="0 0 512 512" fill="none" xmlns="http://www.w3.org/2000/svg">
<g clip-path="url(#clip0_2_11745)">
<mask id="mask0_2_11745" style="mask-type:luminance" maskUnits="userSpaceOnUse" x="-1" y="0" width="513" height="512">
<path d="M-0.0615234 0H511.929V511.99H-0.0615234V0Z" fill="white"/>
</mask>
<g mask="url(#mask0_2_11745)">
<path fill-rule="evenodd" clip-rule="evenodd" d="M-71.8999 407.768V104.427L153.966 255.995L-71.8999 407.768Z" fill="#000001"/>
<path fill-rule="evenodd" clip-rule="evenodd" d="M82.23 512.093L335.766 341.463H696.085V512.093H82.23Z" fill="#000C8A"/>
<path fill-rule="evenodd" clip-rule="evenodd" d="M65.9358 -9.44237e-05H696.188V170.732H335.663C335.663 170.732 69.3176 -1.63977 65.9358 -9.44237e-05Z" fill="#E1392D"/>
<path fill-rule="evenodd" clip-rule="evenodd" d="M-71.8999 64.0498V104.324L153.966 255.995L-71.8999 407.665V448.042L212.585 255.995L-71.8999 64.0498Z" fill="#FFB915"/>
<path fill-rule="evenodd" clip-rule="evenodd" d="M-71.8999 64.05V0H22.9966L324.288 203.935H696.085V308.157H324.288L22.9966 511.99H-71.8999V448.043L212.585 255.995L-71.8999 64.05Z" fill="#007847"/>
<path fill-rule="evenodd" clip-rule="evenodd" d="M22.9966 0H82.23L335.766 170.732H696.085V203.935H324.288L22.9966 0ZM22.9966 512.093H82.23L335.766 341.463H696.085V308.26H324.288L22.9966 512.093Z" fill="white"/>
</g>
</g>
<defs>
<clipPath id="clip0_2_11745">
<rect width="512" height="512" fill="white"/>
</clipPath>
</defs>
</svg>
