<svg width="512" height="512" viewBox="0 0 512 512" fill="none" xmlns="http://www.w3.org/2000/svg">
<g clip-path="url(#clip0_2_11757)">
<mask id="mask0_2_11757" style="mask-type:luminance" maskUnits="userSpaceOnUse" x="-1" y="0" width="513" height="512">
<path d="M-0.0390625 0H511.883V511.922H-0.0390625V0Z" fill="white"/>
</mask>
<g mask="url(#mask0_2_11757)">
<path fill-rule="evenodd" clip-rule="evenodd" d="M-256 0H511.882V511.922H-256V0Z" fill="#198A00"/>
<path fill-rule="evenodd" clip-rule="evenodd" d="M421.883 183.92H511.883V511.922H421.78L421.883 183.92Z" fill="#EF7D00"/>
<path fill-rule="evenodd" clip-rule="evenodd" d="M331.884 183.714H421.883V511.922H331.884V183.714Z" fill="#000001"/>
<path fill-rule="evenodd" clip-rule="evenodd" d="M239.924 184.023H331.781V511.922H239.924V184.023Z" fill="#DE2010"/>
<path fill-rule="evenodd" clip-rule="evenodd" d="M451.608 65.5387C451.608 65.5387 485.564 51.0893 488.763 48.0962C490.311 49.8508 475.243 68.1189 445.931 74.9308C472.559 68.5318 495.265 48.8187 499.807 49.4379C501.148 49.7476 500.839 68.7382 439.945 85.1486C482.055 74.1051 506.619 53.7727 506.309 56.0434C506.619 56.4562 502.18 72.0409 465.231 84.1165C475.552 81.7427 503.419 64.713 503.109 68.0157C504.038 69.3575 476.068 105.171 425.599 93.5086C465.851 104.036 492.066 78.7496 495.782 79.1624C496.607 79.3688 488.35 101.249 437.571 102.591C461.929 100.114 454.91 102.488 454.91 102.488C454.91 102.488 440.461 113.738 423.225 106.1C436.849 109.816 438.294 109.919 438.603 111.157C437.674 112.602 426.528 114.873 415.691 109.093C424.36 112.602 432.204 113.222 432.307 114.563C430.783 115.645 429.015 116.333 427.16 116.567C425.306 116.801 423.422 116.574 421.677 115.905C416.826 113.738 371.31 85.7678 371.31 85.7678L448.718 64.5066L451.608 65.5387ZM360.576 141.192C359.722 141.091 358.855 141.169 358.033 141.422C357.21 141.675 356.449 142.096 355.799 142.66C355.148 143.223 354.622 143.916 354.254 144.694C353.886 145.471 353.684 146.318 353.661 147.178C353.661 147.178 353.042 147.694 353.455 150.584C353.925 149.675 354.478 148.811 355.106 148.003C355.829 148.003 359.028 149.036 363.879 145.217C359.441 149.861 362.125 151.616 362.125 151.616C362.125 151.616 361.092 155.331 364.498 156.054C363.466 154.506 364.086 153.267 364.086 153.267C364.086 153.267 368.833 152.751 368.524 146.868C368.73 152.132 371.62 153.474 371.62 153.474C371.62 153.474 371.62 156.363 374.716 156.57C373.065 155.125 373.374 152.854 373.374 152.854C373.374 152.854 377.503 149.861 373.994 144.907C376.058 143.772 377.812 140.469 377.812 140.469C377.812 140.469 374.923 139.231 373.684 138.199C373.065 136.96 373.684 129.735 373.684 129.735L371.93 120.446L367.079 134.896C367.285 132.832 367.388 141.088 360.576 141.088V141.192Z" fill="#EF7D00" stroke="black" stroke-width="0.92889" stroke-linejoin="round"/>
<path fill-rule="evenodd" clip-rule="evenodd" d="M394.223 120.24C394.326 120.446 399.383 125.916 404.131 125.607C405.886 124.162 400.312 120.859 400.312 120.137C402.377 121.891 410.53 128.909 415.794 126.329C417.858 123.439 411.975 123.852 405.576 115.802C410.014 118.795 421.264 125.4 426.528 122.82C428.695 120.446 414.865 112.912 410.22 107.132L398.248 100.939L381.941 114.357L394.223 120.24Z" fill="#EF7D00" stroke="black" stroke-width="0.92889" stroke-linejoin="round"/>
<path fill-rule="evenodd" clip-rule="evenodd" d="M375.852 74.8274C375.852 74.8274 381.425 71.5247 403.512 73.1761C405.886 73.4857 418.58 68.8412 422.606 67.4995C429.005 66.3642 449.44 61.823 455.014 57.6946C458.936 57.1785 453.981 64.9193 449.027 66.6738C443.867 69.0477 424.876 75.6531 418.064 74.7242C426.218 74.8274 421.677 81.4329 408.259 78.2334C414.658 81.8457 412.388 82.465 412.388 82.465C412.388 82.465 401.035 83.0842 397.938 80.504C405.576 83.3939 402.48 84.426 402.48 84.426C402.48 84.426 394.636 85.1484 391.127 83.4971C396.597 85.1484 393.81 86.1805 393.81 86.1805C393.81 86.1805 389.269 86.903 385.553 85.5613C381.838 84.2195 376.161 74.8274 375.852 74.8274Z" fill="#EF7D00" stroke="black" stroke-width="0.92889" stroke-linecap="round" stroke-linejoin="round"/>
<path fill-rule="evenodd" clip-rule="evenodd" d="M384.728 123.336L385.553 137.992L384.728 139.127C384.315 139.643 374.407 137.579 375.748 145.32C375.748 148.416 375.748 149.139 377.813 150.893C377.297 148.829 377.503 147.384 377.503 147.384C377.503 147.384 380.29 149.139 383.076 144.494C381.219 149.035 382.56 150.687 382.973 150.687C383.386 151.616 382.251 155.331 385.966 155.228C384.521 153.886 385.244 151.822 385.244 151.822C385.244 151.822 389.166 151.203 387.721 144.081C389.166 142.636 389.785 144.081 389.785 144.081C389.785 144.081 390.198 148.21 393.604 147.384C395.152 148.313 393.397 150.584 393.397 150.584C393.397 150.584 395.874 150.584 396.597 148.519C397.422 146.455 398.248 142.636 394.12 141.088C393.604 139.54 395.771 139.437 395.771 139.437C395.771 139.437 398.351 140.263 399.177 141.604C399.9 142.946 399.59 138.198 396.39 137.682C392.365 137.579 392.159 136.65 392.159 136.547L391.127 122.923L384.728 123.336Z" fill="#EF7D00" stroke="black" stroke-width="0.92889" stroke-linejoin="round"/>
<path fill-rule="evenodd" clip-rule="evenodd" d="M398.661 135.825C398.661 135.102 391.849 125.916 393.501 124.678C395.255 125.091 398.145 129.322 400.416 127.877C399.796 126.226 397.732 127.155 395.255 123.026C392.984 118.279 392.675 111.157 384.418 103.417C389.785 111.673 401.861 116.421 402.377 113.944C402.893 111.467 391.746 102.591 392.262 100.32C394.429 104.862 405.679 114.77 413.936 114.047C414.452 112.086 407.124 108.164 405.267 104.552C400.106 101.043 385.966 88.864 385.657 86.0773C383.214 81.8529 379.865 78.2224 375.852 75.4467C375.232 74.8274 375.129 74.105 375.026 73.6921C371.826 66.261 376.058 63.784 378.535 63.3711C380.599 63.2679 381.115 63.4743 382.663 62.8551L377.4 60.7909C379.67 62.4422 385.45 60.9973 384.108 65.745C386.689 64.8161 392.056 58.5203 378.019 56.9721C373.478 51.8116 354.797 48.7153 350.152 71.5247C350.462 71.8344 350.668 72.144 351.907 73.0729C345.921 70.183 330.026 67.9124 324.247 67.0867C308.765 62.5454 292.664 51.8116 291.116 53.0501C289.052 54.0822 300.405 64.7129 299.889 64.9193C289.878 59.1395 280.898 55.0111 272.435 51.2956C266.449 49.0249 260.566 43.8644 259.844 44.8965C257.779 49.4378 269.442 60.7909 271.61 62.1326C273.674 63.3711 290.91 71.4215 290.6 71.4215C264.798 59.7588 260.463 57.5914 259.224 56.2496C256.954 55.7336 251.38 48.3025 249.935 48.7153C249.007 49.541 250.658 61.4101 263.043 66.6738C265.107 68.1188 289.362 76.9948 289.155 77.6141L260.153 65.6417C254.786 63.5775 248.181 56.1464 246.942 56.9721C245.807 57.7978 250.039 65.745 255.406 68.3252C258.295 69.5637 269.133 74.9306 279.041 78.3366C279.66 78.6462 261.392 71.4215 252.516 67.7059C248.594 65.6417 246.633 62.7519 246.117 63.3711C245.085 63.9904 247.562 75.7563 275.841 82.465C276.564 82.7746 285.749 80.2976 285.336 80.6072C280.11 81.9059 274.799 82.837 269.442 83.3939C269.132 84.2196 271.197 88.4512 285.853 87.5223C287.71 87.5223 297.825 83.9099 296.999 84.6324C296.586 85.0452 283.169 89.38 282.137 89.4833C281.311 89.4833 276.564 90.1025 276.46 90.5154C276.254 91.2378 279.866 94.2309 287.814 94.6438C294.729 95.0566 307.836 90.5154 307.63 90.825C307.32 91.1346 294.935 95.3662 294.522 95.5726C294.109 95.8823 289.568 96.0887 289.362 96.5015C289.052 97.3272 295.967 103.829 316.506 96.9144C314.442 99.701 304.533 101.559 304.533 102.075C304.533 102.488 306.701 104.655 310.21 105.378C311.965 105.79 314.338 105.687 316.403 105.378C321.5 104.375 326.177 101.857 329.82 98.1529C330.336 99.701 316.712 106.719 317.332 107.339C320.325 110.125 330.13 106.926 330.749 106.616C337.4 103.101 343.782 99.0993 349.843 94.6438C350.152 96.1919 326.104 109.3 326.414 109.816C327.962 112.189 336.219 109.609 336.529 109.403L347.262 103.623C347.572 103.417 335.496 110.745 336.529 111.88C336.013 116.524 355.416 108.577 356.964 107.545C357.687 107.029 347.675 111.983 347.675 114.357C350.772 119.827 361.299 118.072 362.847 116.834C363.673 116.318 361.815 120.962 362.434 120.549C363.681 119.271 364.725 117.809 365.531 116.215C365.324 117.763 364.086 120.137 363.466 122.923C362.847 125.71 362.641 128.909 361.712 132.212C361.505 133.657 368.111 129.322 367.182 119.001C367.698 124.368 365.118 134.483 365.737 134.896C367.182 135.928 370.898 129.942 371.414 125.813C372.446 127.877 374.923 132.212 376.987 133.244C376.781 130.148 376.987 130.148 376.058 127.155C376.574 123.026 376.677 117.453 376.781 111.054C382.457 121.788 384.624 126.329 383.076 134.586C384.728 135.308 387.411 128.806 387.205 125.504C389.269 134.792 398.558 136.134 398.764 135.825H398.661Z" fill="#EF7D00" stroke="black" stroke-width="1.0321" stroke-linecap="round" stroke-linejoin="round"/>
<path fill-rule="evenodd" clip-rule="evenodd" d="M305.359 67.7061C305.359 67.7061 301.541 70.5959 296.793 70.3895C297.928 75.1372 307.836 71.5248 307.836 71.5248C307.836 71.5248 303.089 76.7885 299.58 77.7174C301.644 79.2656 310.21 78.7495 311.655 77.9238C313.1 76.995 315.68 73.7954 315.68 73.7954C315.68 73.7954 306.908 83.91 305.566 83.8068C305.463 84.9421 314.855 84.5293 316.816 82.7747C318.777 81.0201 323.628 78.3367 323.628 78.3367C323.628 78.3367 310.726 87.316 310.21 87.316C314.958 88.6577 324.66 85.871 330.852 82.0522C321.667 88.1416 320.841 89.2769 316.196 91.3411C320.325 92.1668 322.389 94.9535 336.529 88.8641C344.579 85.0453 349.12 78.1303 349.12 78.1303C342.989 85.3247 335.655 91.4009 327.446 96.0888C327.034 97.1209 336.838 101.249 349.43 88.2448" fill="#EF7D00"/>
<path d="M305.359 67.7061C305.359 67.7061 301.541 70.5959 296.793 70.3895C297.928 75.1372 307.836 71.5248 307.836 71.5248C307.836 71.5248 303.089 76.7885 299.58 77.7174C301.644 79.2656 310.21 78.7495 311.655 77.9238C313.1 76.995 315.68 73.7954 315.68 73.7954C315.68 73.7954 306.908 83.91 305.566 83.8068C305.463 84.9421 314.855 84.5293 316.816 82.7747C318.777 81.0201 323.628 78.3367 323.628 78.3367C323.628 78.3367 310.726 87.316 310.21 87.316C314.958 88.6577 324.66 85.871 330.852 82.0522C321.667 88.1416 320.841 89.2769 316.196 91.3411C320.325 92.1668 322.389 94.9535 336.529 88.8641C344.579 85.0453 349.12 78.1303 349.12 78.1303C342.989 85.3247 335.655 91.4009 327.446 96.0888C327.034 97.1209 336.838 101.249 349.43 88.2448" stroke="black" stroke-width="1.0321" stroke-linecap="round" stroke-linejoin="round"/>
<path fill-rule="evenodd" clip-rule="evenodd" d="M373.478 95.9853C373.478 95.9853 374.303 100.01 377.606 103.004C381.012 106.1 381.322 109.093 381.322 109.093M371.723 70.0796C371.723 70.0796 372.962 73.6919 376.368 75.9626C380.091 78.9457 383.239 82.5832 385.656 86.6964C386.722 91.2551 387.515 95.8734 388.03 100.527M350.152 75.5497C350.359 76.9947 345.198 83.8065 352.32 91.8569C345.817 99.8041 345.817 100.836 345.817 100.836C345.817 100.836 349.43 102.9 356.035 97.2238C366.769 110.435 363.26 116.524 363.26 116.524" fill="#EF7D00"/>
<path d="M373.478 95.9853C373.478 95.9853 374.303 100.01 377.606 103.004C381.012 106.1 381.322 109.093 381.322 109.093M371.723 70.0796C371.723 70.0796 372.962 73.6919 376.368 75.9626C380.091 78.9457 383.239 82.5832 385.656 86.6964C386.722 91.2551 387.515 95.8734 388.03 100.527M350.152 75.5497C350.359 76.9947 345.198 83.8065 352.32 91.8569C345.817 99.8041 345.817 100.836 345.817 100.836C345.817 100.836 349.43 102.9 356.035 97.2238C366.769 110.435 363.26 116.524 363.26 116.524" stroke="black" stroke-width="1.0321" stroke-linecap="round"/>
<path fill-rule="evenodd" clip-rule="evenodd" d="M362.228 107.236C362.228 107.236 361.299 105.791 363.054 100.527C364.705 102.385 366.46 102.797 367.182 103.623C367.905 104.449 376.161 105.584 376.678 110.951" fill="#EF7D00"/>
<path d="M362.228 107.236C362.228 107.236 361.299 105.791 363.054 100.527C364.705 102.385 366.46 102.797 367.182 103.623C367.905 104.449 376.161 105.584 376.678 110.951" stroke="black" stroke-width="1.0321" stroke-linecap="round" stroke-linejoin="round"/>
<path fill-rule="evenodd" clip-rule="evenodd" d="M371.827 57.488C371.827 57.0751 370.175 53.566 364.086 57.9008C367.389 58.1072 370.588 59.965 371.827 57.488Z" fill="#EF7D00" stroke="black" stroke-width="1.0321"/>
<path fill-rule="evenodd" clip-rule="evenodd" d="M430.037 73.4858C430.347 73.6923 448.305 77.6142 454.291 75.55C446.654 85.7678 431.379 78.8528 431.379 78.8528C438.913 81.1234 439.223 80.917 441.597 82.9812C442.319 85.0454 427.87 84.1165 423.019 81.433C436.436 85.5614 436.642 85.355 437.055 86.9031C437.675 89.1738 415.381 86.3871 413.317 83.394C419.303 88.0385 422.606 88.8641 425.909 91.0315C421.78 92.7861 414.349 94.5407 400.622 84.8389C418.684 101.353 434.991 100.32 437.571 103.21C431.276 112.499 406.918 97.7402 395.668 90.2059C384.521 82.7747 420.232 108.268 423.535 107.855C421.883 110.435 410.117 108.164 409.292 106.926" fill="#EF7D00"/>
<path d="M430.037 73.4858C430.347 73.6923 448.305 77.6142 454.291 75.55C446.654 85.7678 431.379 78.8528 431.379 78.8528C438.913 81.1234 439.223 80.917 441.597 82.9812C442.319 85.0454 427.87 84.1165 423.019 81.433C436.436 85.5614 436.642 85.355 437.055 86.9031C437.675 89.1738 415.381 86.3871 413.317 83.394C419.303 88.0385 422.606 88.8641 425.909 91.0315C421.78 92.7861 414.349 94.5407 400.622 84.8389C418.684 101.353 434.991 100.32 437.571 103.21C431.276 112.499 406.918 97.7402 395.668 90.2059C384.521 82.7747 420.232 108.268 423.535 107.855C421.883 110.435 410.117 108.164 409.292 106.926" stroke="black" stroke-width="1.0321" stroke-linejoin="round"/>
<path fill-rule="evenodd" clip-rule="evenodd" d="M434.681 90.7217C432.617 91.0313 426.425 91.0313 425.393 90.8249Z" fill="#EF7D00"/>
<path d="M434.681 90.7217C432.617 91.0313 426.425 91.0313 425.393 90.8249" stroke="black" stroke-width="1.0321" stroke-linecap="round"/>
<path fill-rule="evenodd" clip-rule="evenodd" d="M300.096 65.0225C300.096 65.0225 313.719 72.2472 319.499 71.7311C317.951 73.1761 315.68 73.7953 315.68 73.7953C317.125 74.3114 321.047 76.4788 327.034 75.0338C325.692 76.4788 323.834 78.1301 323.834 78.1301C323.834 78.1301 328.995 80.0911 334.774 77.098C333.782 78.2878 332.852 79.5279 331.988 80.8136L336.116 81.1232" fill="#EF7D00"/>
<path d="M300.096 65.0225C300.096 65.0225 313.719 72.2472 319.499 71.7311C317.951 73.1761 315.68 73.7953 315.68 73.7953C317.125 74.3114 321.047 76.4788 327.034 75.0338C325.692 76.4788 323.834 78.1301 323.834 78.1301C323.834 78.1301 328.995 80.0911 334.774 77.098C333.782 78.2878 332.852 79.5279 331.988 80.8136L336.116 81.1232" stroke="black" stroke-width="1.0321" stroke-linecap="round" stroke-linejoin="round"/>
</g>
</g>
<defs>
<clipPath id="clip0_2_11757">
<rect width="512" height="512" fill="white"/>
</clipPath>
</defs>
</svg>
