<svg width="512" height="512" viewBox="0 0 512 512" fill="none" xmlns="http://www.w3.org/2000/svg">
<g clip-path="url(#clip0_2_11779)">
<mask id="mask0_2_11779" style="mask-type:luminance" maskUnits="userSpaceOnUse" x="0" y="-1" width="513" height="513">
<path d="M0.0795898 -0.0219727H512.038V511.95H0.0795898V-0.0219727Z" fill="white"/>
</mask>
<g mask="url(#mask0_2_11779)">
<path d="M-1.5 0.100098H1019.02V511.828H-1.5V0.100098Z" fill="#006400"/>
<path d="M-1.5 73.2041H1019.02V438.724H-1.5V73.2041Z" fill="#FFD200"/>
<path d="M-1.5 146.308H1019.02V365.62H-1.5V146.308Z" fill="#D40000"/>
<path d="M-1.5 219.412H1019.02V292.516H-1.5V219.412Z" fill="#000001"/>
<path d="M-1.5 0.100098V511.828L338.672 255.964L-1.5 0.100098Z" fill="black" stroke="black" stroke-width="24.333"/>
<path d="M-1.5 0.100098V511.828L338.672 255.964L-1.5 0.100098Z" fill="white"/>
<path d="M127.887 127.301L195.314 335.282L18.9102 206.741H236.985L60.4597 335.282L127.887 127.301Z" fill="#D40000"/>
<path d="M99.0939 309.208L111 307.015L132.99 306.162L141.129 306.893L159.353 309.939L160.689 308.111V294.953L162.876 283.622L166.521 272.169L170.53 263.031L175.633 253.527L183.894 255.598H186.081L186.324 254.014L168.829 239.028L150.606 225.017L124.242 205.278L121.813 204.669L119.018 183.956L116.953 177.743L114.159 175.306L108.935 173.6L103.103 173.844L100.43 175.306L94.8418 176.524L91.926 177.012L89.9822 179.327L89.7392 182.251L97.879 182.494L99.9444 183.347L99.7014 184.2L95.0848 184.809L92.8979 185.54L95.4492 187.49L98.122 188.465L101.524 189.683L102.253 192.12L102.496 223.554L100.673 228.428L100.066 237.566L102.739 248.532L95.9352 256.329L92.0475 263.274L91.3186 267.539L89.2532 271.803L89.0103 274.484L90.3466 277.408L95.5707 294.709L98.2435 308.964L99.0939 309.208Z" fill="#FFCC00"/>
<path d="M105.411 173.113C103.225 173.113 102.253 173.356 100.187 174.453C98.476 175.436 96.5658 176.019 94.5988 176.159C91.5616 176.159 89.1318 178.352 89.1318 181.154V182.982L93.5054 182.86C106.383 183.226 94.7203 184.444 93.7484 184.566C90.5897 185.175 94.4773 187.734 98.2435 189.074C102.253 190.292 102.01 189.561 102.01 207.35C102.01 221.849 102.01 223.92 100.795 227.21C99.2154 232.083 99.2154 239.394 100.795 244.267C101.524 246.217 102.01 247.923 102.01 248.288C102.01 248.532 100.066 250.847 97.7576 253.527C93.5054 258.401 90.9541 263.396 90.9541 266.93C90.8026 268.067 90.3864 269.152 89.7392 270.097C88.1599 272.169 88.1599 275.702 89.6177 277.042C91.1971 278.504 97.6361 303.603 97.7576 308.355C97.7576 310.061 98.0006 310.061 107.841 308.112C115.86 306.528 134.691 306.162 144.288 307.38C148.662 307.99 153.764 308.964 155.587 309.33C161.418 310.914 161.175 311.158 161.175 304.091C161.22 292.956 163.321 281.927 167.371 271.56C169.693 265.652 172.497 259.947 175.754 254.502C175.754 254.502 177.941 254.746 180.614 255.477C185.595 256.695 187.053 256.573 187.053 254.258C187.053 253.04 181.829 248.654 156.194 228.672C145.855 220.185 135.197 212.097 124.242 204.426C123.513 204.426 122.785 204.06 122.663 203.573L120.841 191.998C119.99 186.028 118.775 180.18 118.289 178.961C116.589 175.306 113.308 173.478 107.841 173.113C107.032 173.087 106.221 173.087 105.411 173.113ZM105.533 174.331H107.963C115.981 174.819 117.439 177.012 119.626 191.389C120.216 195.192 120.702 199.011 121.084 202.842C121.084 203.816 119.99 205.035 117.196 206.862C112.598 210.098 108.504 213.998 105.047 218.437L103.468 220.63L103.103 215.513V201.136C103.468 190.536 103.103 189.561 99.7014 188.343C96.9071 187.368 93.2624 186.393 94.2344 185.784C95.4493 185.053 96.6642 185.54 99.5799 184.688C100.795 184.444 100.673 184.566 100.43 183.591C100.187 182.007 98.4865 181.154 93.9914 181.398C90.3467 181.642 89.9822 181.52 90.2252 180.545C90.7112 178.596 92.655 177.377 95.6922 177.012C97.5516 176.796 99.36 176.26 101.038 175.428C102.394 174.61 103.951 174.188 105.533 174.209V174.331ZM123.635 205.766H124.121C126.186 206.131 185.838 252.918 185.838 254.258C185.838 254.746 185.352 255.111 184.623 255.111C184.137 255.111 168.951 250.847 150.97 245.608C122.299 237.079 118.168 235.86 116.953 234.276C116.108 233.206 115.638 231.886 115.616 230.52C115.594 229.155 116.021 227.82 116.832 226.722C117.415 226.013 117.83 225.179 118.046 224.286C118.046 222.824 115.009 226.479 114.402 228.55C113.794 230.987 115.009 235.129 116.832 236.47C117.56 237.079 123.027 238.906 128.981 240.734C139.186 243.658 139.915 244.024 140.401 245.729C141.615 249.75 137.363 254.502 131.289 255.842C129.011 256.389 126.864 257.383 124.971 258.766C118.668 264.002 111.626 268.272 104.075 271.438C103.589 271.803 102.982 273.753 102.617 275.58C101.888 279.601 101.645 280.21 100.43 280.21C99.8229 280.21 99.7014 279.845 100.187 278.504C101.038 276.068 100.916 273.143 100.066 273.143C99.4584 273.143 99.2155 273.996 99.2155 275.337C99.2155 276.555 98.851 278.017 98.365 278.383C97.7576 279.114 97.6361 278.626 97.8791 275.58C98.122 273.509 98.0005 271.925 97.7576 271.925C97.1501 271.925 96.0567 274.971 95.6922 277.652C95.4493 279.235 95.4493 279.235 94.9633 277.286C94.5988 275.824 94.7203 274.849 95.8137 273.022C96.5041 271.698 96.9175 270.247 97.0286 268.757C97.0286 267.173 98.2435 265.589 103.954 259.863C107.598 256.086 112.093 251.334 113.673 249.263C116.467 245.851 116.589 245.608 116.467 242.074C116.467 240.125 116.224 238.297 115.981 238.054C115.252 237.322 114.28 241.221 114.766 243.293C115.009 245.242 114.766 245.851 110.757 250.603C107.873 253.915 104.832 257.086 101.645 260.107C96.9071 264.493 95.2063 266.93 95.2063 269.123C95.2063 269.854 94.7203 271.56 93.9914 273.143C93.2624 274.727 93.0195 276.311 93.2624 276.677C93.5054 277.042 93.2624 277.042 92.898 276.677C92.2905 276.068 92.2905 275.093 92.7765 273.022C93.0546 271.99 93.137 270.916 93.0195 269.854C92.412 268.635 91.5616 270.097 91.1971 273.143C90.9541 274.849 90.5897 276.189 90.2252 275.946C89.3748 275.458 89.6177 272.291 90.7112 270.585C91.3186 269.732 91.926 267.782 92.2905 266.199C93.1409 261.69 95.0848 258.035 99.3369 253.162C100.699 251.675 101.996 250.131 103.225 248.532L102.01 244.511C100.38 239.078 100.296 233.297 101.767 227.819C103.346 223.189 106.505 218.559 111.486 213.564C116.346 208.812 121.084 205.888 123.635 205.766ZM141.858 244.998C142.012 244.987 142.167 244.997 142.314 245.029C142.461 245.06 142.597 245.112 142.711 245.182C142.826 245.251 142.918 245.335 142.98 245.43C143.043 245.524 143.074 245.626 143.073 245.729C142.999 245.873 142.859 245.997 142.674 246.085C142.489 246.173 142.268 246.22 142.041 246.22C141.814 246.22 141.592 246.173 141.407 246.085C141.222 245.997 141.083 245.873 141.008 245.729C141.002 245.561 141.083 245.396 141.238 245.262C141.393 245.129 141.612 245.036 141.858 244.998ZM144.896 245.364C145.049 245.352 145.204 245.363 145.352 245.394C145.499 245.426 145.634 245.478 145.749 245.547C145.863 245.616 145.955 245.701 146.017 245.795C146.08 245.89 146.112 245.992 146.111 246.095C146.036 246.238 145.896 246.363 145.711 246.451C145.526 246.538 145.305 246.586 145.078 246.586C144.851 246.586 144.629 246.538 144.444 246.451C144.259 246.363 144.12 246.238 144.045 246.095C144.039 245.926 144.12 245.761 144.275 245.628C144.43 245.495 144.649 245.401 144.896 245.364ZM148.054 245.973C148.208 245.962 148.363 245.972 148.51 246.004C148.657 246.035 148.793 246.087 148.907 246.156C149.022 246.225 149.114 246.31 149.176 246.404C149.239 246.499 149.27 246.601 149.269 246.704C149.195 246.848 149.055 246.972 148.87 247.06C148.685 247.148 148.464 247.195 148.237 247.195C148.01 247.195 147.788 247.148 147.603 247.06C147.418 246.972 147.279 246.848 147.204 246.704C147.198 246.535 147.279 246.37 147.434 246.237C147.589 246.104 147.808 246.011 148.054 245.973ZM150.97 246.582C151.124 246.571 151.279 246.581 151.426 246.613C151.573 246.644 151.708 246.696 151.823 246.765C151.938 246.835 152.03 246.919 152.092 247.013C152.154 247.108 152.186 247.21 152.185 247.313C152.11 247.457 151.971 247.581 151.786 247.669C151.601 247.757 151.379 247.804 151.152 247.804C150.925 247.804 150.704 247.757 150.519 247.669C150.334 247.581 150.194 247.457 150.12 247.313C150.113 247.145 150.195 246.98 150.35 246.846C150.505 246.713 150.724 246.62 150.97 246.582ZM143.316 247.313C143.47 247.302 143.625 247.312 143.772 247.344C143.919 247.375 144.055 247.427 144.169 247.496C144.284 247.566 144.376 247.65 144.438 247.745C144.5 247.839 144.532 247.941 144.531 248.044C144.457 248.188 144.317 248.312 144.132 248.4C143.947 248.488 143.726 248.535 143.499 248.535C143.272 248.535 143.05 248.488 142.865 248.4C142.68 248.312 142.541 248.188 142.466 248.044C142.46 247.876 142.541 247.711 142.696 247.577C142.851 247.444 143.07 247.351 143.316 247.313ZM146.232 247.801C146.386 247.789 146.541 247.8 146.688 247.831C146.835 247.863 146.97 247.915 147.085 247.984C147.2 248.053 147.291 248.137 147.354 248.232C147.416 248.326 147.448 248.429 147.447 248.532C147.372 248.675 147.233 248.799 147.048 248.887C146.863 248.975 146.641 249.023 146.414 249.023C146.187 249.023 145.966 248.975 145.781 248.887C145.596 248.799 145.456 248.675 145.382 248.532C145.375 248.363 145.457 248.198 145.612 248.065C145.767 247.931 145.986 247.838 146.232 247.801ZM152.55 248.044C152.703 248.033 152.858 248.043 153.005 248.075C153.152 248.106 153.288 248.158 153.403 248.228C153.517 248.297 153.609 248.381 153.671 248.476C153.734 248.57 153.765 248.672 153.764 248.775C153.69 248.919 153.55 249.043 153.365 249.131C153.18 249.219 152.959 249.266 152.732 249.266C152.505 249.266 152.283 249.219 152.098 249.131C151.913 249.043 151.774 248.919 151.699 248.775C151.693 248.607 151.774 248.442 151.929 248.308C152.084 248.175 152.303 248.082 152.55 248.044ZM149.269 248.044C149.423 248.033 149.578 248.043 149.725 248.075C149.872 248.106 150.008 248.158 150.122 248.228C150.237 248.297 150.329 248.381 150.391 248.476C150.453 248.57 150.485 248.672 150.484 248.775C150.41 248.919 150.27 249.043 150.085 249.131C149.9 249.219 149.679 249.266 149.452 249.266C149.225 249.266 149.003 249.219 148.818 249.131C148.633 249.043 148.494 248.919 148.419 248.775C148.413 248.607 148.494 248.442 148.649 248.308C148.804 248.175 149.023 248.082 149.269 248.044ZM155.344 248.775C155.465 248.775 159.839 249.75 165.063 251.212L174.661 254.015L172.838 257.304C171.82 259.066 170.848 260.853 169.923 262.665C168.708 265.102 168.465 265.102 162.633 263.762C156.316 262.3 146.354 260.959 136.148 260.107L126.429 259.254L130.074 257.913C132.275 257.064 134.424 256.088 136.513 254.989C138.943 253.649 139.915 253.405 143.681 253.771C149.148 254.136 152.793 253.04 154.25 250.847L155.465 248.775H155.344ZM144.653 249.506C144.806 249.495 144.962 249.505 145.109 249.537C145.256 249.569 145.391 249.621 145.506 249.69C145.62 249.759 145.712 249.843 145.774 249.938C145.837 250.032 145.869 250.134 145.868 250.238C145.793 250.381 145.653 250.505 145.468 250.593C145.283 250.681 145.062 250.728 144.835 250.728C144.608 250.728 144.387 250.681 144.201 250.593C144.016 250.505 143.877 250.381 143.802 250.238C143.796 250.069 143.877 249.904 144.032 249.77C144.187 249.637 144.407 249.544 144.653 249.506ZM151.456 249.506C151.61 249.495 151.765 249.505 151.912 249.537C152.059 249.569 152.194 249.621 152.309 249.69C152.424 249.759 152.515 249.843 152.578 249.938C152.64 250.032 152.672 250.134 152.671 250.238C152.579 250.357 152.44 250.457 152.268 250.527C152.097 250.597 151.9 250.634 151.699 250.634C151.498 250.634 151.301 250.597 151.13 250.527C150.959 250.457 150.819 250.357 150.727 250.238C150.721 250.069 150.802 249.904 150.957 249.77C151.112 249.637 151.331 249.544 151.578 249.506H151.456ZM141.737 249.506C141.89 249.495 142.046 249.505 142.193 249.537C142.34 249.569 142.475 249.621 142.59 249.69C142.705 249.759 142.796 249.843 142.859 249.938C142.921 250.032 142.953 250.134 142.952 250.238C142.877 250.381 142.738 250.505 142.553 250.593C142.368 250.681 142.146 250.728 141.919 250.728C141.692 250.728 141.471 250.681 141.286 250.593C141.101 250.505 140.961 250.381 140.887 250.238C140.919 250.09 141.017 249.953 141.169 249.844C141.321 249.735 141.519 249.66 141.737 249.628V249.506ZM148.176 249.75C148.457 249.727 148.741 249.777 148.967 249.891C149.194 250.004 149.346 250.172 149.391 250.359C149.316 250.503 149.177 250.627 148.992 250.715C148.807 250.803 148.585 250.85 148.358 250.85C148.131 250.85 147.91 250.803 147.725 250.715C147.54 250.627 147.4 250.503 147.325 250.359C147.358 250.212 147.456 250.075 147.608 249.966C147.76 249.857 147.958 249.782 148.176 249.75ZM140.158 251.09C140.311 251.079 140.466 251.089 140.613 251.121C140.76 251.152 140.896 251.204 141.011 251.274C141.125 251.343 141.217 251.427 141.279 251.522C141.342 251.616 141.373 251.718 141.372 251.821C141.298 251.965 141.158 252.089 140.973 252.177C140.788 252.265 140.567 252.312 140.34 252.312C140.113 252.312 139.891 252.265 139.706 252.177C139.521 252.089 139.382 251.965 139.307 251.821C139.301 251.653 139.382 251.488 139.537 251.354C139.692 251.221 139.911 251.128 140.158 251.09ZM143.195 251.09C143.365 251.076 143.538 251.088 143.699 251.127C143.861 251.165 144.007 251.228 144.125 251.311C144.243 251.394 144.331 251.495 144.38 251.605C144.43 251.714 144.44 251.83 144.41 251.943C144.335 252.087 144.196 252.211 144.011 252.299C143.826 252.387 143.604 252.434 143.377 252.434C143.15 252.434 142.929 252.387 142.744 252.299C142.559 252.211 142.419 252.087 142.344 251.943C142.338 251.775 142.419 251.61 142.574 251.476C142.729 251.343 142.949 251.25 143.195 251.212V251.09ZM146.354 251.334C146.635 251.311 146.918 251.361 147.145 251.475C147.372 251.588 147.523 251.756 147.568 251.943C147.494 252.087 147.354 252.211 147.169 252.299C146.984 252.387 146.763 252.434 146.536 252.434C146.309 252.434 146.087 252.387 145.902 252.299C145.717 252.211 145.578 252.087 145.503 251.943C145.535 251.796 145.634 251.659 145.786 251.55C145.938 251.441 146.136 251.366 146.354 251.334ZM149.755 251.334C149.909 251.323 150.064 251.333 150.211 251.365C150.358 251.396 150.493 251.448 150.608 251.517C150.723 251.586 150.815 251.671 150.877 251.765C150.939 251.86 150.971 251.962 150.97 252.065C150.896 252.208 150.756 252.333 150.571 252.421C150.386 252.509 150.165 252.556 149.938 252.556C149.71 252.556 149.489 252.509 149.304 252.421C149.119 252.333 148.979 252.208 148.905 252.065C148.899 251.896 148.98 251.731 149.135 251.598C149.29 251.465 149.509 251.372 149.755 251.334ZM125.093 261.203C139.434 261.585 153.71 263.298 167.736 266.32C167.857 266.442 167.007 269.366 165.67 272.9L163.241 280.21C163.119 280.819 162.269 280.819 160.203 280.576C150.12 278.992 120.962 279.114 109.785 280.819C103.346 281.794 102.496 281.672 102.982 280.332L104.197 276.068L104.925 272.778L111.486 269.366C115.859 267.129 120.008 264.477 123.878 261.447H124.971L125.093 261.203ZM92.2905 278.504C92.655 278.504 93.3839 278.87 94.2344 279.479C95.4493 280.21 96.9071 280.819 97.5146 280.819C100.673 280.819 102.374 285.327 105.047 300.314L106.019 305.675C106.262 306.893 106.019 307.137 103.225 307.746C99.8229 308.477 98.9725 308.599 98.9725 308.112C98.9725 306.893 95.5707 291.419 94.1129 285.937C93.3872 283.521 92.7389 281.083 92.169 278.626C92.1875 278.616 92.2085 278.61 92.2298 278.61C92.2511 278.61 92.2721 278.616 92.2905 278.626V278.504ZM127.037 280.941H130.56L129.345 282.16C127.28 284.596 126.308 284.718 124.85 283.134C124.338 282.604 123.926 281.985 123.635 281.307C123.635 281.063 125.214 280.819 127.037 280.819V280.941ZM134.448 280.941H141.008L139.55 282.403C137.849 284.353 137.728 284.353 135.905 282.403L134.448 280.819V280.941ZM144.41 280.941H145.989C146.84 280.941 148.419 280.941 149.391 281.185L151.213 281.55L149.512 283.134C148.54 283.987 147.69 284.718 147.568 284.596L145.868 282.647L144.41 280.819V280.941ZM154.736 281.307L156.194 281.672C157.045 281.916 158.867 282.038 160.203 282.16H162.633L160.811 283.744C160.151 284.361 159.416 284.893 158.624 285.327C158.503 285.327 157.409 284.353 156.559 283.256L154.736 281.307ZM118.046 281.429H118.289C118.411 281.672 117.925 282.647 117.074 283.5L115.86 285.206L114.037 283.744L112.215 282.16L115.131 281.794L118.046 281.429ZM120.841 281.672L122.785 283.378L124.728 285.206L121.084 285.449L117.439 285.571L119.14 283.744L120.841 281.672ZM142.709 281.672C143.073 281.672 143.316 281.794 143.681 282.038C144.316 282.637 144.85 283.337 145.26 284.109C145.746 285.084 145.625 285.327 144.045 285.327L141.008 284.718L139.55 284.353L141.13 282.769C141.858 282.038 142.344 281.55 142.83 281.55L142.709 281.672ZM132.625 281.672C133.233 281.672 133.84 282.038 134.569 283.256C135.419 284.596 135.419 284.596 132.139 284.596H128.859L130.56 283.012C131.41 282.16 132.139 281.794 132.625 281.794V281.672ZM153.279 281.916L154.736 283.378C156.437 284.962 156.68 285.937 155.465 285.815L152.064 285.449L149.391 285.206L151.335 283.622L153.279 281.916ZM110.514 282.769C110.757 282.769 111.729 283.378 112.458 284.231L113.916 285.815L110.878 286.302L106.626 286.911C105.776 287.155 106.019 286.546 107.841 284.962C109.056 283.744 110.271 282.769 110.514 282.769ZM106.019 282.769H106.505C107.477 283.012 107.477 283.256 105.776 284.962L103.954 286.79L103.346 285.206C102.86 283.987 102.982 283.622 104.075 283.134C104.698 282.902 105.355 282.779 106.019 282.769ZM161.904 284.962C162.147 284.962 162.147 285.206 161.904 285.693C161.661 286.668 160.568 286.911 160.568 285.937C160.568 285.693 160.932 285.327 161.418 285.084L161.904 284.962ZM135.905 286.911C145.26 286.911 154.736 287.155 157.045 287.399C160.811 287.886 161.175 288.008 161.175 289.47C161.175 291.176 160.689 291.298 155.587 290.445C154.129 290.079 147.933 289.592 141.98 289.104C130.426 288.404 118.832 288.812 107.355 290.323C105.047 290.567 104.44 290.323 104.44 289.592C104.44 288.008 116.832 286.911 135.905 286.911ZM123.392 290.445H129.952L128.495 292.029C126.672 293.978 126.551 293.978 124.85 292.029L123.392 290.445ZM131.896 290.445L133.597 292.15L135.298 294.1L131.775 294.222H128.252L130.074 292.272L131.896 290.445ZM134.448 290.445H141.008L139.55 292.029C137.849 293.978 137.728 293.978 135.905 292.029L134.448 290.445ZM118.897 290.445C119.14 290.445 118.897 291.054 118.046 292.272C117.196 293.369 116.346 294.222 116.224 294.222C115.981 294.222 115.131 293.491 114.402 292.638L112.944 291.054H115.131C116.242 291.06 117.349 290.895 118.411 290.567C118.571 290.534 118.736 290.534 118.897 290.567V290.445ZM121.327 291.054L122.906 292.516L124.728 294.1L121.57 294.344L118.046 294.587L119.747 292.76L121.327 291.054ZM142.466 291.054L144.167 293.003C146.111 295.075 145.989 295.196 141.615 294.344L139.55 293.978L141.008 292.516L142.466 291.054ZM144.896 291.054H147.811C150.97 291.054 151.335 291.541 149.512 293.247C148.054 294.465 148.054 294.465 146.354 292.638L144.896 291.054ZM107.72 291.663C109.178 291.663 109.056 291.785 107.234 293.613C105.897 294.953 105.776 294.953 105.29 293.978C104.925 292.76 106.019 291.785 107.72 291.663ZM154.858 291.907C155.344 291.907 156.316 291.907 157.288 292.15L160.082 292.638L158.503 294.1L157.045 295.562L155.708 293.856L154.493 291.907H154.858ZM111.121 292.516C111.486 292.516 111.85 292.76 112.458 293.369C113.673 294.587 113.673 294.587 112.701 295.075C111.759 295.385 110.776 295.55 109.785 295.562H107.841L109.421 293.856C110.271 293.003 110.636 292.638 111 292.516H111.121ZM152.55 292.882C153.036 292.882 153.4 293.125 154.007 294.1L155.101 295.562H152.55C150.849 295.562 150.12 295.318 150.12 294.831C150.363 294.344 150.97 293.613 151.699 293.247L152.55 292.882ZM160.325 294.465C160.568 294.465 160.568 294.709 160.568 295.075C160.568 296.293 159.474 297.146 158.989 296.293C158.867 295.928 159.11 295.318 159.596 294.953L160.325 294.465ZM128.859 295.928C139.429 295.928 151.092 296.659 158.017 297.877L159.96 298.242V303.603C159.96 307.624 159.717 308.964 159.11 308.964L153.036 307.746C138.987 305.357 124.675 304.947 110.514 306.528L107.72 306.893L106.991 302.385C106.689 300.86 106.526 299.31 106.505 297.755C106.505 297.755 109.299 297.146 112.579 296.78C116.589 296.171 122.542 295.928 128.859 295.928Z" fill="black"/>
<path d="M150.119 265.468C146.475 265.468 143.923 268.026 143.923 271.803C143.923 277.652 150.484 280.576 154.371 276.433C158.259 272.291 155.586 265.468 150.119 265.468ZM150.119 266.93C151.408 266.93 152.644 267.443 153.556 268.357C154.467 269.271 154.979 270.511 154.979 271.803C154.979 275.459 150.97 277.895 147.69 276.312C144.409 274.484 144.652 268.879 148.175 267.417C148.748 267.145 149.366 266.98 149.998 266.93H150.119Z" fill="black"/>
<path d="M125.7 264.736C122.055 264.736 119.504 267.295 119.504 271.072C119.504 276.92 126.064 279.844 129.952 275.702C133.84 271.559 131.167 264.736 125.7 264.736ZM125.7 266.198C126.989 266.198 128.225 266.712 129.136 267.626C130.048 268.54 130.56 269.779 130.56 271.072C130.56 274.727 126.55 277.164 123.27 275.58C119.99 273.752 120.233 268.148 123.756 266.686C124.329 266.414 124.947 266.249 125.578 266.198H125.7Z" fill="black"/>
<path d="M105.411 177.134C104.904 177.165 104.425 177.393 104.067 177.775C103.708 178.157 103.495 178.666 103.467 179.205C103.467 179.804 103.691 180.378 104.09 180.801C104.489 181.225 105.029 181.463 105.593 181.463C106.157 181.463 106.698 181.225 107.097 180.801C107.495 180.378 107.719 179.804 107.719 179.205C107.706 178.904 107.634 178.61 107.508 178.34C107.383 178.07 107.206 177.83 106.99 177.636C106.773 177.442 106.521 177.297 106.25 177.211C105.978 177.124 105.693 177.098 105.411 177.134ZM105.533 177.865C105.919 177.865 106.29 178.006 106.563 178.257C106.837 178.509 106.99 178.85 106.99 179.205C106.99 179.56 106.837 179.901 106.563 180.153C106.29 180.404 105.919 180.545 105.533 180.545C105.146 180.545 104.775 180.404 104.502 180.153C104.228 179.901 104.075 179.56 104.075 179.205C104.075 179.029 104.112 178.855 104.186 178.692C104.259 178.529 104.366 178.382 104.502 178.257C104.637 178.133 104.798 178.034 104.975 177.967C105.152 177.899 105.341 177.865 105.533 177.865Z" fill="black"/>
</g>
</g>
<defs>
<clipPath id="clip0_2_11779">
<rect width="512" height="512" fill="white"/>
</clipPath>
</defs>
</svg>
